<?xml version="1.0" encoding="UTF-8" standalone="no"?>
<!DOCTYPE svg PUBLIC "-//W3C//DTD SVG 1.1//EN"
 "http://www.w3.org/Graphics/SVG/1.1/DTD/svg11.dtd">
<!-- Generated by graphviz version 2.43.0 (0)
 -->
<!-- Title: Markopy/MarkovPasswordsGUI/src/CLI.h Pages: 1 -->
<svg width="1075pt" height="114pt"
 viewBox="0.00 0.00 1075.00 114.00" xmlns="http://www.w3.org/2000/svg" xmlns:xlink="http://www.w3.org/1999/xlink">
<g id="graph0" class="graph" transform="scale(1 1) rotate(0) translate(4 110)">
<title>Markopy/MarkovPasswordsGUI/src/CLI.h</title>
<!-- Node1 -->
<g id="node1" class="node">
<title>Node1</title>
<g id="a_node1"><a xlink:title="CLI page.">
<polygon fill="#bfbfbf" stroke="black" points="434,-71.5 434,-105.5 633,-105.5 633,-71.5 434,-71.5"/>
<text text-anchor="start" x="442" y="-91.9" font-family="Helvetica,sans-Serif" font-size="12.00">Markopy/MarkovPasswordsGUI</text>
<text text-anchor="middle" x="533.5" y="-78.9" font-family="Helvetica,sans-Serif" font-size="12.00">/src/CLI.h</text>
</a>
</g>
</g>
<!-- Node2 -->
<g id="node2" class="node">
<title>Node2</title>
<g id="a_node2"><a xlink:href="_c_l_i_8cpp.html" target="_top" xlink:title="CLI page.">
<polygon fill="none" stroke="black" points="0,-0.5 0,-34.5 199,-34.5 199,-0.5 0,-0.5"/>
<text text-anchor="start" x="8" y="-20.9" font-family="Helvetica,sans-Serif" font-size="12.00">Markopy/MarkovPasswordsGUI</text>
<text text-anchor="middle" x="99.5" y="-7.9" font-family="Helvetica,sans-Serif" font-size="12.00">/src/CLI.cpp</text>
</a>
</g>
</g>
<!-- Node1&#45;&gt;Node2 -->
<g id="edge1" class="edge">
<title>Node1&#45;&gt;Node2</title>
<path fill="none" stroke="midnightblue" d="M423.89,-70.07C354.86,-59.1 266.44,-45.04 199.36,-34.38"/>
<polygon fill="midnightblue" stroke="midnightblue" points="423.51,-73.56 433.93,-71.67 424.61,-66.64 423.51,-73.56"/>
</g>
<!-- Node3 -->
<g id="node3" class="node">
<title>Node3</title>
<g id="a_node3"><a xlink:href="_generate_8cpp.html" target="_top" xlink:title="Generation Page.">
<polygon fill="none" stroke="black" points="217,-0.5 217,-34.5 416,-34.5 416,-0.5 217,-0.5"/>
<text text-anchor="start" x="225" y="-20.9" font-family="Helvetica,sans-Serif" font-size="12.00">Markopy/MarkovPasswordsGUI</text>
<text text-anchor="middle" x="316.5" y="-7.9" font-family="Helvetica,sans-Serif" font-size="12.00">/src/Generate.cpp</text>
</a>
</g>
</g>
<!-- Node1&#45;&gt;Node3 -->
<g id="edge2" class="edge">
<title>Node1&#45;&gt;Node3</title>
<path fill="none" stroke="midnightblue" d="M473.5,-68.42C440,-57.77 398.75,-44.65 366.93,-34.54"/>
<polygon fill="midnightblue" stroke="midnightblue" points="472.58,-71.8 483.17,-71.5 474.7,-65.13 472.58,-71.8"/>
</g>
<!-- Node4 -->
<g id="node4" class="node">
<title>Node4</title>
<g id="a_node4"><a xlink:href="_markov_passwords_g_u_i_2src_2main_8cpp.html" target="_top" xlink:title="Entry point for GUI.">
<polygon fill="none" stroke="black" points="434,-0.5 434,-34.5 633,-34.5 633,-0.5 434,-0.5"/>
<text text-anchor="start" x="442" y="-20.9" font-family="Helvetica,sans-Serif" font-size="12.00">Markopy/MarkovPasswordsGUI</text>
<text text-anchor="middle" x="533.5" y="-7.9" font-family="Helvetica,sans-Serif" font-size="12.00">/src/main.cpp</text>
</a>
</g>
</g>
<!-- Node1&#45;&gt;Node4 -->
<g id="edge3" class="edge">
<title>Node1&#45;&gt;Node4</title>
<path fill="none" stroke="midnightblue" d="M533.5,-61.25C533.5,-52.39 533.5,-42.77 533.5,-34.9"/>
<polygon fill="midnightblue" stroke="midnightblue" points="530,-61.5 533.5,-71.5 537,-61.5 530,-61.5"/>
</g>
<!-- Node5 -->
<g id="node5" class="node">
<title>Node5</title>
<g id="a_node5"><a xlink:href="_markov_passwords_g_u_i_8cpp.html" target="_top" xlink:title="Main activity page for GUI.">
<polygon fill="none" stroke="black" points="651,-0.5 651,-34.5 850,-34.5 850,-0.5 651,-0.5"/>
<text text-anchor="start" x="659" y="-20.9" font-family="Helvetica,sans-Serif" font-size="12.00">Markopy/MarkovPasswordsGUI</text>
<text text-anchor="middle" x="750.5" y="-7.9" font-family="Helvetica,sans-Serif" font-size="12.00">/src/MarkovPasswordsGUI.cpp</text>
</a>
</g>
</g>
<!-- Node1&#45;&gt;Node5 -->
<g id="edge4" class="edge">
<title>Node1&#45;&gt;Node5</title>
<path fill="none" stroke="midnightblue" d="M593.5,-68.42C627,-57.77 668.25,-44.65 700.07,-34.54"/>
<polygon fill="midnightblue" stroke="midnightblue" points="592.3,-65.13 583.83,-71.5 594.42,-71.8 592.3,-65.13"/>
</g>
<!-- Node6 -->
<g id="node6" class="node">
<title>Node6</title>
<g id="a_node6"><a xlink:href="_train_8cpp.html" target="_top" xlink:title="training page for GUI">
<polygon fill="none" stroke="black" points="868,-0.5 868,-34.5 1067,-34.5 1067,-0.5 868,-0.5"/>
<text text-anchor="start" x="876" y="-20.9" font-family="Helvetica,sans-Serif" font-size="12.00">Markopy/MarkovPasswordsGUI</text>
<text text-anchor="middle" x="967.5" y="-7.9" font-family="Helvetica,sans-Serif" font-size="12.00">/src/Train.cpp</text>
</a>
</g>
</g>
<!-- Node1&#45;&gt;Node6 -->
<g id="edge5" class="edge">
<title>Node1&#45;&gt;Node6</title>
<path fill="none" stroke="midnightblue" d="M643.11,-70.07C712.14,-59.1 800.56,-45.04 867.64,-34.38"/>
<polygon fill="midnightblue" stroke="midnightblue" points="642.39,-66.64 633.07,-71.67 643.49,-73.56 642.39,-66.64"/>
</g>
</g>
</svg>
