<?xml version="1.0" encoding="UTF-8" standalone="no"?>
<!DOCTYPE svg PUBLIC "-//W3C//DTD SVG 1.1//EN"
 "http://www.w3.org/Graphics/SVG/1.1/DTD/svg11.dtd">
<!-- Generated by graphviz version 2.43.0 (0)
 -->
<!-- Title: CLI.h Pages: 1 -->
<svg width="552pt" height="88pt"
 viewBox="0.00 0.00 552.00 88.00" xmlns="http://www.w3.org/2000/svg" xmlns:xlink="http://www.w3.org/1999/xlink">
<g id="graph0" class="graph" transform="scale(1 1) rotate(0) translate(4 84)">
<title>CLI.h</title>
<!-- Node1 -->
<g id="node1" class="node">
<title>Node1</title>
<g id="a_node1"><a xlink:title="CLI page.">
<polygon fill="#bfbfbf" stroke="black" points="208,-58.5 208,-79.5 255,-79.5 255,-58.5 208,-58.5"/>
<text text-anchor="middle" x="231.5" y="-65.9" font-family="Helvetica,sans-Serif" font-size="12.00">CLI.h</text>
</a>
</g>
</g>
<!-- Node2 -->
<g id="node2" class="node">
<title>Node2</title>
<g id="a_node2"><a xlink:href="_c_l_i_8cpp.html" target="_top" xlink:title="CLI page.">
<polygon fill="none" stroke="black" points="0,-0.5 0,-21.5 61,-21.5 61,-0.5 0,-0.5"/>
<text text-anchor="middle" x="30.5" y="-7.9" font-family="Helvetica,sans-Serif" font-size="12.00">CLI.cpp</text>
</a>
</g>
</g>
<!-- Node1&#45;&gt;Node2 -->
<g id="edge1" class="edge">
<title>Node1&#45;&gt;Node2</title>
<path fill="none" stroke="midnightblue" d="M197.55,-58.54C159.39,-47.91 97.98,-30.8 61.21,-20.56"/>
<polygon fill="midnightblue" stroke="midnightblue" points="197.08,-62.04 207.65,-61.36 198.96,-55.3 197.08,-62.04"/>
</g>
<!-- Node3 -->
<g id="node3" class="node">
<title>Node3</title>
<g id="a_node3"><a xlink:href="_generate_8cpp.html" target="_top" xlink:title="Generation Page.">
<polygon fill="none" stroke="black" points="79.5,-0.5 79.5,-21.5 177.5,-21.5 177.5,-0.5 79.5,-0.5"/>
<text text-anchor="middle" x="128.5" y="-7.9" font-family="Helvetica,sans-Serif" font-size="12.00">Generate.cpp</text>
</a>
</g>
</g>
<!-- Node1&#45;&gt;Node3 -->
<g id="edge2" class="edge">
<title>Node1&#45;&gt;Node3</title>
<path fill="none" stroke="midnightblue" d="M204.76,-53.46C186.32,-43.44 162.34,-30.4 146.24,-21.64"/>
<polygon fill="midnightblue" stroke="midnightblue" points="203.1,-56.54 213.56,-58.25 206.45,-50.39 203.1,-56.54"/>
</g>
<!-- Node4 -->
<g id="node4" class="node">
<title>Node4</title>
<g id="a_node4"><a xlink:href="_markov_passwords_g_u_i_2src_2main_8cpp.html" target="_top" xlink:title="Entry point for GUI.">
<polygon fill="none" stroke="black" points="195.5,-0.5 195.5,-21.5 267.5,-21.5 267.5,-0.5 195.5,-0.5"/>
<text text-anchor="middle" x="231.5" y="-7.9" font-family="Helvetica,sans-Serif" font-size="12.00">main.cpp</text>
</a>
</g>
</g>
<!-- Node1&#45;&gt;Node4 -->
<g id="edge3" class="edge">
<title>Node1&#45;&gt;Node4</title>
<path fill="none" stroke="midnightblue" d="M231.5,-48.16C231.5,-39.16 231.5,-28.92 231.5,-21.64"/>
<polygon fill="midnightblue" stroke="midnightblue" points="228,-48.25 231.5,-58.25 235,-48.25 228,-48.25"/>
</g>
<!-- Node5 -->
<g id="node5" class="node">
<title>Node5</title>
<g id="a_node5"><a xlink:href="_markov_passwords_g_u_i_8cpp.html" target="_top" xlink:title="Main activity page for GUI.">
<polygon fill="none" stroke="black" points="286,-0.5 286,-21.5 455,-21.5 455,-0.5 286,-0.5"/>
<text text-anchor="middle" x="370.5" y="-7.9" font-family="Helvetica,sans-Serif" font-size="12.00">MarkovPasswordsGUI.cpp</text>
</a>
</g>
</g>
<!-- Node1&#45;&gt;Node5 -->
<g id="edge4" class="edge">
<title>Node1&#45;&gt;Node5</title>
<path fill="none" stroke="midnightblue" d="M264.64,-54.65C289.94,-44.46 324.2,-30.65 346.8,-21.55"/>
<polygon fill="midnightblue" stroke="midnightblue" points="263.05,-51.52 255.08,-58.5 265.66,-58.01 263.05,-51.52"/>
</g>
<!-- Node6 -->
<g id="node6" class="node">
<title>Node6</title>
<g id="a_node6"><a xlink:href="_train_8cpp.html" target="_top" xlink:title="training page for GUI">
<polygon fill="none" stroke="black" points="473,-0.5 473,-21.5 544,-21.5 544,-0.5 473,-0.5"/>
<text text-anchor="middle" x="508.5" y="-7.9" font-family="Helvetica,sans-Serif" font-size="12.00">Train.cpp</text>
</a>
</g>
</g>
<!-- Node1&#45;&gt;Node6 -->
<g id="edge5" class="edge">
<title>Node1&#45;&gt;Node6</title>
<path fill="none" stroke="midnightblue" d="M264.89,-61.72C310.19,-53.13 393.59,-37.05 464.5,-22 467.26,-21.41 470.11,-20.8 472.98,-20.16"/>
<polygon fill="midnightblue" stroke="midnightblue" points="264.2,-58.29 255.03,-63.59 265.5,-65.16 264.2,-58.29"/>
</g>
</g>
</svg>
