<?xml version="1.0" encoding="UTF-8" standalone="no"?>
<!DOCTYPE svg PUBLIC "-//W3C//DTD SVG 1.1//EN"
 "http://www.w3.org/Graphics/SVG/1.1/DTD/svg11.dtd">
<!-- Generated by graphviz version 2.43.0 (0)
 -->
<!-- Title: Markopy/MarkovPasswordsGUI/src/CLI.cpp Pages: 1 -->
<svg width="349pt" height="159pt"
 viewBox="0.00 0.00 349.00 159.00" xmlns="http://www.w3.org/2000/svg" xmlns:xlink="http://www.w3.org/1999/xlink">
<g id="graph0" class="graph" transform="scale(1 1) rotate(0) translate(4 155)">
<title>Markopy/MarkovPasswordsGUI/src/CLI.cpp</title>
<!-- Node1 -->
<g id="node1" class="node">
<title>Node1</title>
<g id="a_node1"><a xlink:title="CLI page.">
<polygon fill="#bfbfbf" stroke="black" points="66,-116.5 66,-150.5 265,-150.5 265,-116.5 66,-116.5"/>
<text text-anchor="start" x="74" y="-136.9" font-family="Helvetica,sans-Serif" font-size="12.00">Markopy/MarkovPasswordsGUI</text>
<text text-anchor="middle" x="165.5" y="-123.9" font-family="Helvetica,sans-Serif" font-size="12.00">/src/CLI.cpp</text>
</a>
</g>
</g>
<!-- Node2 -->
<g id="node2" class="node">
<title>Node2</title>
<g id="a_node2"><a xlink:href="_c_l_i_8h.html" target="_top" xlink:title="CLI page.">
<polygon fill="none" stroke="black" points="69,-58.5 69,-79.5 116,-79.5 116,-58.5 69,-58.5"/>
<text text-anchor="middle" x="92.5" y="-65.9" font-family="Helvetica,sans-Serif" font-size="12.00">CLI.h</text>
</a>
</g>
</g>
<!-- Node1&#45;&gt;Node2 -->
<g id="edge1" class="edge">
<title>Node1&#45;&gt;Node2</title>
<path fill="none" stroke="midnightblue" d="M146.7,-116.4C135.93,-107.18 122.44,-95.63 111.62,-86.37"/>
<polygon fill="midnightblue" stroke="midnightblue" points="113.82,-83.64 103.95,-79.8 109.27,-88.96 113.82,-83.64"/>
</g>
<!-- Node5 -->
<g id="node5" class="node">
<title>Node5</title>
<g id="a_node5"><a xlink:title=" ">
<polygon fill="none" stroke="#bfbfbf" points="134,-58.5 134,-79.5 197,-79.5 197,-58.5 134,-58.5"/>
<text text-anchor="middle" x="165.5" y="-65.9" font-family="Helvetica,sans-Serif" font-size="12.00">fstream</text>
</a>
</g>
</g>
<!-- Node1&#45;&gt;Node5 -->
<g id="edge4" class="edge">
<title>Node1&#45;&gt;Node5</title>
<path fill="none" stroke="midnightblue" d="M165.5,-116.4C165.5,-108.36 165.5,-98.54 165.5,-90.01"/>
<polygon fill="midnightblue" stroke="midnightblue" points="169,-89.8 165.5,-79.8 162,-89.8 169,-89.8"/>
</g>
<!-- Node6 -->
<g id="node6" class="node">
<title>Node6</title>
<g id="a_node6"><a xlink:href="_train_8h.html" target="_top" xlink:title="training page for GUI">
<polygon fill="none" stroke="black" points="215.5,-58.5 215.5,-79.5 271.5,-79.5 271.5,-58.5 215.5,-58.5"/>
<text text-anchor="middle" x="243.5" y="-65.9" font-family="Helvetica,sans-Serif" font-size="12.00">Train.h</text>
</a>
</g>
</g>
<!-- Node1&#45;&gt;Node6 -->
<g id="edge5" class="edge">
<title>Node1&#45;&gt;Node6</title>
<path fill="none" stroke="midnightblue" d="M185.59,-116.4C197.21,-107.09 211.79,-95.41 223.41,-86.09"/>
<polygon fill="midnightblue" stroke="midnightblue" points="225.65,-88.78 231.27,-79.8 221.28,-83.32 225.65,-88.78"/>
</g>
<!-- Node3 -->
<g id="node3" class="node">
<title>Node3</title>
<g id="a_node3"><a xlink:title=" ">
<polygon fill="none" stroke="#bfbfbf" points="81.5,-0.5 81.5,-21.5 249.5,-21.5 249.5,-0.5 81.5,-0.5"/>
<text text-anchor="middle" x="165.5" y="-7.9" font-family="Helvetica,sans-Serif" font-size="12.00">QtWidgets/QMainWindow</text>
</a>
</g>
</g>
<!-- Node2&#45;&gt;Node3 -->
<g id="edge2" class="edge">
<title>Node2&#45;&gt;Node3</title>
<path fill="none" stroke="midnightblue" d="M105.22,-58.25C116.1,-49.89 131.99,-37.71 144.72,-27.94"/>
<polygon fill="midnightblue" stroke="midnightblue" points="147.13,-30.51 152.93,-21.64 142.87,-24.95 147.13,-30.51"/>
</g>
<!-- Node4 -->
<g id="node4" class="node">
<title>Node4</title>
<g id="a_node4"><a xlink:title=" ">
<polygon fill="none" stroke="#bfbfbf" points="0,-0.5 0,-21.5 63,-21.5 63,-0.5 0,-0.5"/>
<text text-anchor="middle" x="31.5" y="-7.9" font-family="Helvetica,sans-Serif" font-size="12.00">ui_CLI.h</text>
</a>
</g>
</g>
<!-- Node2&#45;&gt;Node4 -->
<g id="edge3" class="edge">
<title>Node2&#45;&gt;Node4</title>
<path fill="none" stroke="midnightblue" d="M81.87,-58.25C72.95,-50.05 60.01,-38.17 49.48,-28.51"/>
<polygon fill="midnightblue" stroke="midnightblue" points="51.74,-25.83 42,-21.64 47,-30.98 51.74,-25.83"/>
</g>
<!-- Node6&#45;&gt;Node3 -->
<g id="edge6" class="edge">
<title>Node6&#45;&gt;Node3</title>
<path fill="none" stroke="midnightblue" d="M229.91,-58.25C218.17,-49.81 200.98,-37.47 187.31,-27.66"/>
<polygon fill="midnightblue" stroke="midnightblue" points="189.1,-24.63 178.93,-21.64 185.01,-30.32 189.1,-24.63"/>
</g>
<!-- Node7 -->
<g id="node7" class="node">
<title>Node7</title>
<g id="a_node7"><a xlink:title=" ">
<polygon fill="none" stroke="#bfbfbf" points="268,-0.5 268,-21.5 341,-21.5 341,-0.5 268,-0.5"/>
<text text-anchor="middle" x="304.5" y="-7.9" font-family="Helvetica,sans-Serif" font-size="12.00">ui_Train.h</text>
</a>
</g>
</g>
<!-- Node6&#45;&gt;Node7 -->
<g id="edge7" class="edge">
<title>Node6&#45;&gt;Node7</title>
<path fill="none" stroke="midnightblue" d="M254.13,-58.25C263.05,-50.05 275.99,-38.17 286.52,-28.51"/>
<polygon fill="midnightblue" stroke="midnightblue" points="289,-30.98 294,-21.64 284.26,-25.83 289,-30.98"/>
</g>
</g>
</svg>
