<?xml version="1.0" encoding="UTF-8" standalone="no"?>
<!DOCTYPE svg PUBLIC "-//W3C//DTD SVG 1.1//EN"
 "http://www.w3.org/Graphics/SVG/1.1/DTD/svg11.dtd">
<!-- Generated by graphviz version 2.43.0 (0)
 -->
<!-- Title: Markopy/MarkovPasswordsGUI/src/CLI.h Pages: 1 -->
<svg width="259pt" height="101pt"
 viewBox="0.00 0.00 258.50 101.00" xmlns="http://www.w3.org/2000/svg" xmlns:xlink="http://www.w3.org/1999/xlink">
<g id="graph0" class="graph" transform="scale(1 1) rotate(0) translate(4 97)">
<title>Markopy/MarkovPasswordsGUI/src/CLI.h</title>
<!-- Node1 -->
<g id="node1" class="node">
<title>Node1</title>
<g id="a_node1"><a xlink:title="CLI page.">
<polygon fill="#bfbfbf" stroke="black" points="51.5,-58.5 51.5,-92.5 250.5,-92.5 250.5,-58.5 51.5,-58.5"/>
<text text-anchor="start" x="59.5" y="-78.9" font-family="Helvetica,sans-Serif" font-size="12.00">Markopy/MarkovPasswordsGUI</text>
<text text-anchor="middle" x="151" y="-65.9" font-family="Helvetica,sans-Serif" font-size="12.00">/src/CLI.h</text>
</a>
</g>
</g>
<!-- Node2 -->
<g id="node2" class="node">
<title>Node2</title>
<g id="a_node2"><a xlink:title=" ">
<polygon fill="none" stroke="#bfbfbf" points="0,-0.5 0,-21.5 168,-21.5 168,-0.5 0,-0.5"/>
<text text-anchor="middle" x="84" y="-7.9" font-family="Helvetica,sans-Serif" font-size="12.00">QtWidgets/QMainWindow</text>
</a>
</g>
</g>
<!-- Node1&#45;&gt;Node2 -->
<g id="edge1" class="edge">
<title>Node1&#45;&gt;Node2</title>
<path fill="none" stroke="midnightblue" d="M133.75,-58.4C123.96,-49.27 111.72,-37.86 101.84,-28.64"/>
<polygon fill="midnightblue" stroke="midnightblue" points="104.21,-26.06 94.51,-21.8 99.43,-31.18 104.21,-26.06"/>
</g>
<!-- Node3 -->
<g id="node3" class="node">
<title>Node3</title>
<g id="a_node3"><a xlink:title=" ">
<polygon fill="none" stroke="#bfbfbf" points="186.5,-0.5 186.5,-21.5 249.5,-21.5 249.5,-0.5 186.5,-0.5"/>
<text text-anchor="middle" x="218" y="-7.9" font-family="Helvetica,sans-Serif" font-size="12.00">ui_CLI.h</text>
</a>
</g>
</g>
<!-- Node1&#45;&gt;Node3 -->
<g id="edge2" class="edge">
<title>Node1&#45;&gt;Node3</title>
<path fill="none" stroke="midnightblue" d="M168.25,-58.4C178.04,-49.27 190.28,-37.86 200.16,-28.64"/>
<polygon fill="midnightblue" stroke="midnightblue" points="202.57,-31.18 207.49,-21.8 197.79,-26.06 202.57,-31.18"/>
</g>
</g>
</svg>
