<?xml version="1.0" encoding="UTF-8" standalone="no"?>
<!DOCTYPE svg PUBLIC "-//W3C//DTD SVG 1.1//EN"
 "http://www.w3.org/Graphics/SVG/1.1/DTD/svg11.dtd">
<!-- Generated by graphviz version 2.43.0 (0)
 -->
<!-- Title: Generate.h Pages: 1 -->
<svg width="196pt" height="88pt"
 viewBox="0.00 0.00 195.50 88.00" xmlns="http://www.w3.org/2000/svg" xmlns:xlink="http://www.w3.org/1999/xlink">
<g id="graph0" class="graph" transform="scale(1 1) rotate(0) translate(4 84)">
<title>Generate.h</title>
<!-- Node1 -->
<g id="node1" class="node">
<title>Node1</title>
<g id="a_node1"><a xlink:title="Generation Page.">
<polygon fill="#bfbfbf" stroke="black" points="58,-58.5 58,-79.5 142,-79.5 142,-58.5 58,-58.5"/>
<text text-anchor="middle" x="100" y="-65.9" font-family="Helvetica,sans-Serif" font-size="12.00">Generate.h</text>
</a>
</g>
</g>
<!-- Node2 -->
<g id="node2" class="node">
<title>Node2</title>
<g id="a_node2"><a xlink:href="_generate_8cpp.html" target="_top" xlink:title="Generation Page.">
<polygon fill="none" stroke="black" points="0,-0.5 0,-21.5 98,-21.5 98,-0.5 0,-0.5"/>
<text text-anchor="middle" x="49" y="-7.9" font-family="Helvetica,sans-Serif" font-size="12.00">Generate.cpp</text>
</a>
</g>
</g>
<!-- Node1&#45;&gt;Node2 -->
<g id="edge1" class="edge">
<title>Node1&#45;&gt;Node2</title>
<path fill="none" stroke="midnightblue" d="M84.33,-50.79C75.6,-41.21 65.06,-29.64 57.78,-21.64"/>
<polygon fill="midnightblue" stroke="midnightblue" points="81.8,-53.21 91.12,-58.25 86.97,-48.5 81.8,-53.21"/>
</g>
<!-- Node3 -->
<g id="node3" class="node">
<title>Node3</title>
<g id="a_node3"><a xlink:href="_train_8cpp.html" target="_top" xlink:title="training page for GUI">
<polygon fill="none" stroke="black" points="116.5,-0.5 116.5,-21.5 187.5,-21.5 187.5,-0.5 116.5,-0.5"/>
<text text-anchor="middle" x="152" y="-7.9" font-family="Helvetica,sans-Serif" font-size="12.00">Train.cpp</text>
</a>
</g>
</g>
<!-- Node1&#45;&gt;Node3 -->
<g id="edge2" class="edge">
<title>Node1&#45;&gt;Node3</title>
<path fill="none" stroke="midnightblue" d="M115.98,-50.79C124.88,-41.21 135.62,-29.64 143.05,-21.64"/>
<polygon fill="midnightblue" stroke="midnightblue" points="113.3,-48.54 109.06,-58.25 118.43,-53.3 113.3,-48.54"/>
</g>
</g>
</svg>
