<?xml version="1.0" encoding="UTF-8" standalone="no"?>
<!DOCTYPE svg PUBLIC "-//W3C//DTD SVG 1.1//EN"
 "http://www.w3.org/Graphics/SVG/1.1/DTD/svg11.dtd">
<!-- Generated by graphviz version 2.43.0 (0)
 -->
<!-- Title: Generate.cpp Pages: 1 -->
<svg width="1558pt" height="320pt"
 viewBox="0.00 0.00 1557.50 320.00" xmlns="http://www.w3.org/2000/svg" xmlns:xlink="http://www.w3.org/1999/xlink">
<g id="graph0" class="graph" transform="scale(1 1) rotate(0) translate(4 316)">
<title>Generate.cpp</title>
<!-- Node1 -->
<g id="node1" class="node">
<title>Node1</title>
<g id="a_node1"><a xlink:title="Generation Page.">
<polygon fill="#bfbfbf" stroke="black" points="954.5,-290.5 954.5,-311.5 1052.5,-311.5 1052.5,-290.5 954.5,-290.5"/>
<text text-anchor="middle" x="1003.5" y="-297.9" font-family="Helvetica,sans-Serif" font-size="12.00">Generate.cpp</text>
</a>
</g>
</g>
<!-- Node2 -->
<g id="node2" class="node">
<title>Node2</title>
<g id="a_node2"><a xlink:href="_generate_8h.html" target="_top" xlink:title="Generation Page.">
<polygon fill="none" stroke="black" points="465.5,-232.5 465.5,-253.5 549.5,-253.5 549.5,-232.5 465.5,-232.5"/>
<text text-anchor="middle" x="507.5" y="-239.9" font-family="Helvetica,sans-Serif" font-size="12.00">Generate.h</text>
</a>
</g>
</g>
<!-- Node1&#45;&gt;Node2 -->
<g id="edge1" class="edge">
<title>Node1&#45;&gt;Node2</title>
<path fill="none" stroke="midnightblue" d="M954.13,-294.43C860.03,-283.8 655.85,-260.75 559.64,-249.89"/>
<polygon fill="midnightblue" stroke="midnightblue" points="559.89,-246.39 549.56,-248.75 559.11,-253.35 559.89,-246.39"/>
</g>
<!-- Node5 -->
<g id="node5" class="node">
<title>Node5</title>
<g id="a_node5"><a xlink:title=" ">
<polygon fill="none" stroke="#bfbfbf" points="903,-116.5 903,-137.5 966,-137.5 966,-116.5 903,-116.5"/>
<text text-anchor="middle" x="934.5" y="-123.9" font-family="Helvetica,sans-Serif" font-size="12.00">fstream</text>
</a>
</g>
</g>
<!-- Node1&#45;&gt;Node5 -->
<g id="edge4" class="edge">
<title>Node1&#45;&gt;Node5</title>
<path fill="none" stroke="midnightblue" d="M999.59,-290.26C988.54,-262.71 956.9,-183.83 942.19,-147.17"/>
<polygon fill="midnightblue" stroke="midnightblue" points="945.34,-145.61 938.36,-137.63 938.84,-148.22 945.34,-145.61"/>
</g>
<!-- Node6 -->
<g id="node6" class="node">
<title>Node6</title>
<g id="a_node6"><a xlink:title=" ">
<polygon fill="none" stroke="#bfbfbf" points="996.5,-232.5 996.5,-253.5 1080.5,-253.5 1080.5,-232.5 996.5,-232.5"/>
<text text-anchor="middle" x="1038.5" y="-239.9" font-family="Helvetica,sans-Serif" font-size="12.00">QFileDialog</text>
</a>
</g>
</g>
<!-- Node1&#45;&gt;Node6 -->
<g id="edge5" class="edge">
<title>Node1&#45;&gt;Node6</title>
<path fill="none" stroke="midnightblue" d="M1009.6,-290.25C1014.41,-282.54 1021.28,-271.56 1027.1,-262.23"/>
<polygon fill="midnightblue" stroke="midnightblue" points="1030.14,-263.98 1032.47,-253.64 1024.21,-260.27 1030.14,-263.98"/>
</g>
<!-- Node7 -->
<g id="node7" class="node">
<title>Node7</title>
<g id="a_node7"><a xlink:title=" ">
<polygon fill="none" stroke="#bfbfbf" points="1099,-232.5 1099,-253.5 1200,-253.5 1200,-232.5 1099,-232.5"/>
<text text-anchor="middle" x="1149.5" y="-239.9" font-family="Helvetica,sans-Serif" font-size="12.00">QMessageBox</text>
</a>
</g>
</g>
<!-- Node1&#45;&gt;Node7 -->
<g id="edge6" class="edge">
<title>Node1&#45;&gt;Node7</title>
<path fill="none" stroke="midnightblue" d="M1028.6,-290.37C1052.46,-281.22 1088.53,-267.38 1115.07,-257.21"/>
<polygon fill="midnightblue" stroke="midnightblue" points="1116.65,-260.35 1124.73,-253.5 1114.14,-253.81 1116.65,-260.35"/>
</g>
<!-- Node8 -->
<g id="node8" class="node">
<title>Node8</title>
<g id="a_node8"><a xlink:title=" ">
<polygon fill="none" stroke="#bfbfbf" points="1218,-232.5 1218,-253.5 1311,-253.5 1311,-232.5 1218,-232.5"/>
<text text-anchor="middle" x="1264.5" y="-239.9" font-family="Helvetica,sans-Serif" font-size="12.00">QTextStream</text>
</a>
</g>
</g>
<!-- Node1&#45;&gt;Node8 -->
<g id="edge7" class="edge">
<title>Node1&#45;&gt;Node8</title>
<path fill="none" stroke="midnightblue" d="M1048.07,-290.44C1092.93,-280.81 1162.16,-265.96 1210.2,-255.65"/>
<polygon fill="midnightblue" stroke="midnightblue" points="1211.07,-259.04 1220.11,-253.52 1209.6,-252.2 1211.07,-259.04"/>
</g>
<!-- Node9 -->
<g id="node9" class="node">
<title>Node9</title>
<g id="a_node9"><a xlink:title=" ">
<polygon fill="none" stroke="#bfbfbf" points="1329.5,-232.5 1329.5,-253.5 1373.5,-253.5 1373.5,-232.5 1329.5,-232.5"/>
<text text-anchor="middle" x="1351.5" y="-239.9" font-family="Helvetica,sans-Serif" font-size="12.00">QDir</text>
</a>
</g>
</g>
<!-- Node1&#45;&gt;Node9 -->
<g id="edge8" class="edge">
<title>Node1&#45;&gt;Node9</title>
<path fill="none" stroke="midnightblue" d="M1052.58,-295.46C1113.27,-289.28 1219.78,-276.57 1319.35,-253.96"/>
<polygon fill="midnightblue" stroke="midnightblue" points="1320.32,-257.32 1329.27,-251.66 1318.74,-250.5 1320.32,-257.32"/>
</g>
<!-- Node10 -->
<g id="node10" class="node">
<title>Node10</title>
<g id="a_node10"><a xlink:href="_c_l_i_8h.html" target="_top" xlink:title="CLI page.">
<polygon fill="none" stroke="black" points="142,-232.5 142,-253.5 189,-253.5 189,-232.5 142,-232.5"/>
<text text-anchor="middle" x="165.5" y="-239.9" font-family="Helvetica,sans-Serif" font-size="12.00">CLI.h</text>
</a>
</g>
</g>
<!-- Node1&#45;&gt;Node10 -->
<g id="edge9" class="edge">
<title>Node1&#45;&gt;Node10</title>
<path fill="none" stroke="midnightblue" d="M954.29,-297.55C835.8,-291.51 525.26,-274.88 266.5,-254 244.02,-252.19 218.77,-249.69 199.14,-247.64"/>
<polygon fill="midnightblue" stroke="midnightblue" points="199.46,-244.15 189.15,-246.59 198.73,-251.12 199.46,-244.15"/>
</g>
<!-- Node12 -->
<g id="node12" class="node">
<title>Node12</title>
<g id="a_node12"><a xlink:href="markov_passwords_8h.html" target="_top" xlink:title="Wrapper for Markov::Model to use with char represented models.">
<polygon fill="none" stroke="black" points="717,-232.5 717,-253.5 940,-253.5 940,-232.5 717,-232.5"/>
<text text-anchor="middle" x="828.5" y="-239.9" font-family="Helvetica,sans-Serif" font-size="12.00">MarkovAPI/src/markovPasswords.h</text>
</a>
</g>
</g>
<!-- Node1&#45;&gt;Node12 -->
<g id="edge12" class="edge">
<title>Node1&#45;&gt;Node12</title>
<path fill="none" stroke="midnightblue" d="M973.42,-290.37C944.32,-281.06 900.05,-266.9 868.1,-256.67"/>
<polygon fill="midnightblue" stroke="midnightblue" points="868.78,-253.22 858.19,-253.5 866.65,-259.88 868.78,-253.22"/>
</g>
<!-- Node29 -->
<g id="node29" class="node">
<title>Node29</title>
<g id="a_node29"><a xlink:title=" ">
<polygon fill="none" stroke="#bfbfbf" points="1391.5,-232.5 1391.5,-253.5 1549.5,-253.5 1549.5,-232.5 1391.5,-232.5"/>
<text text-anchor="middle" x="1470.5" y="-239.9" font-family="Helvetica,sans-Serif" font-size="12.00">QtWidgets/QApplication</text>
</a>
</g>
</g>
<!-- Node1&#45;&gt;Node29 -->
<g id="edge37" class="edge">
<title>Node1&#45;&gt;Node29</title>
<path fill="none" stroke="midnightblue" d="M1052.59,-294.11C1130.51,-284.77 1283.65,-266.41 1381.33,-254.69"/>
<polygon fill="midnightblue" stroke="midnightblue" points="1381.98,-258.14 1391.49,-253.47 1381.14,-251.19 1381.98,-258.14"/>
</g>
<!-- Node30 -->
<g id="node30" class="node">
<title>Node30</title>
<g id="a_node30"><a xlink:href="_markov_passwords_g_u_i_8h.html" target="_top" xlink:title="Main activity page for GUI.">
<polygon fill="none" stroke="black" points="276,-232.5 276,-253.5 431,-253.5 431,-232.5 276,-232.5"/>
<text text-anchor="middle" x="353.5" y="-239.9" font-family="Helvetica,sans-Serif" font-size="12.00">MarkovPasswordsGUI.h</text>
</a>
</g>
</g>
<!-- Node1&#45;&gt;Node30 -->
<g id="edge38" class="edge">
<title>Node1&#45;&gt;Node30</title>
<path fill="none" stroke="midnightblue" d="M954.45,-296.09C858.69,-288.4 640.15,-270.64 456.5,-254 451.48,-253.55 446.33,-253.07 441.13,-252.59"/>
<polygon fill="midnightblue" stroke="midnightblue" points="441.39,-249.09 431.1,-251.64 440.73,-256.06 441.39,-249.09"/>
</g>
<!-- Node3 -->
<g id="node3" class="node">
<title>Node3</title>
<g id="a_node3"><a xlink:title=" ">
<polygon fill="none" stroke="#bfbfbf" points="81.5,-174.5 81.5,-195.5 249.5,-195.5 249.5,-174.5 81.5,-174.5"/>
<text text-anchor="middle" x="165.5" y="-181.9" font-family="Helvetica,sans-Serif" font-size="12.00">QtWidgets/QMainWindow</text>
</a>
</g>
</g>
<!-- Node2&#45;&gt;Node3 -->
<g id="edge2" class="edge">
<title>Node2&#45;&gt;Node3</title>
<path fill="none" stroke="midnightblue" d="M465.22,-235.08C407.31,-225.59 302.63,-208.45 233.59,-197.15"/>
<polygon fill="midnightblue" stroke="midnightblue" points="234.11,-193.69 223.68,-195.53 232.98,-200.6 234.11,-193.69"/>
</g>
<!-- Node4 -->
<g id="node4" class="node">
<title>Node4</title>
<g id="a_node4"><a xlink:title=" ">
<polygon fill="none" stroke="#bfbfbf" points="457,-174.5 457,-195.5 558,-195.5 558,-174.5 457,-174.5"/>
<text text-anchor="middle" x="507.5" y="-181.9" font-family="Helvetica,sans-Serif" font-size="12.00">ui_Generate.h</text>
</a>
</g>
</g>
<!-- Node2&#45;&gt;Node4 -->
<g id="edge3" class="edge">
<title>Node2&#45;&gt;Node4</title>
<path fill="none" stroke="midnightblue" d="M507.5,-232.25C507.5,-224.94 507.5,-214.69 507.5,-205.7"/>
<polygon fill="midnightblue" stroke="midnightblue" points="511,-205.64 507.5,-195.64 504,-205.64 511,-205.64"/>
</g>
<!-- Node10&#45;&gt;Node3 -->
<g id="edge10" class="edge">
<title>Node10&#45;&gt;Node3</title>
<path fill="none" stroke="midnightblue" d="M165.5,-232.25C165.5,-224.94 165.5,-214.69 165.5,-205.7"/>
<polygon fill="midnightblue" stroke="midnightblue" points="169,-205.64 165.5,-195.64 162,-205.64 169,-205.64"/>
</g>
<!-- Node11 -->
<g id="node11" class="node">
<title>Node11</title>
<g id="a_node11"><a xlink:title=" ">
<polygon fill="none" stroke="#bfbfbf" points="0,-174.5 0,-195.5 63,-195.5 63,-174.5 0,-174.5"/>
<text text-anchor="middle" x="31.5" y="-181.9" font-family="Helvetica,sans-Serif" font-size="12.00">ui_CLI.h</text>
</a>
</g>
</g>
<!-- Node10&#45;&gt;Node11 -->
<g id="edge11" class="edge">
<title>Node10&#45;&gt;Node11</title>
<path fill="none" stroke="midnightblue" d="M142.46,-232.37C120.76,-223.3 88.04,-209.63 63.75,-199.48"/>
<polygon fill="midnightblue" stroke="midnightblue" points="64.81,-196.13 54.23,-195.5 62.11,-202.59 64.81,-196.13"/>
</g>
<!-- Node13 -->
<g id="node13" class="node">
<title>Node13</title>
<g id="a_node13"><a xlink:href="thread_shared_list_handler_8h.html" target="_top" xlink:title="Thread&#45;safe wrapper for std::ifstream.">
<polygon fill="none" stroke="black" points="765,-174.5 765,-195.5 940,-195.5 940,-174.5 765,-174.5"/>
<text text-anchor="middle" x="852.5" y="-181.9" font-family="Helvetica,sans-Serif" font-size="12.00">threadSharedListHandler.h</text>
</a>
</g>
</g>
<!-- Node12&#45;&gt;Node13 -->
<g id="edge13" class="edge">
<title>Node12&#45;&gt;Node13</title>
<path fill="none" stroke="midnightblue" d="M832.68,-232.25C835.88,-224.78 840.4,-214.24 844.31,-205.11"/>
<polygon fill="midnightblue" stroke="midnightblue" points="847.65,-206.21 848.37,-195.64 841.21,-203.46 847.65,-206.21"/>
</g>
<!-- Node16 -->
<g id="node16" class="node">
<title>Node16</title>
<g id="a_node16"><a xlink:href="model_8h.html" target="_top" xlink:title="Model class template.">
<polygon fill="none" stroke="black" points="576.5,-174.5 576.5,-195.5 746.5,-195.5 746.5,-174.5 576.5,-174.5"/>
<text text-anchor="middle" x="661.5" y="-181.9" font-family="Helvetica,sans-Serif" font-size="12.00">MarkovModel/src/model.h</text>
</a>
</g>
</g>
<!-- Node12&#45;&gt;Node16 -->
<g id="edge17" class="edge">
<title>Node12&#45;&gt;Node16</title>
<path fill="none" stroke="midnightblue" d="M799.79,-232.37C772.14,-223.1 730.14,-209.02 699.68,-198.8"/>
<polygon fill="midnightblue" stroke="midnightblue" points="700.43,-195.36 689.83,-195.5 698.2,-202 700.43,-195.36"/>
</g>
<!-- Node13&#45;&gt;Node5 -->
<g id="edge15" class="edge">
<title>Node13&#45;&gt;Node5</title>
<path fill="none" stroke="midnightblue" d="M866.78,-174.25C879.25,-165.73 897.55,-153.24 911.98,-143.38"/>
<polygon fill="midnightblue" stroke="midnightblue" points="914.1,-146.17 920.38,-137.64 910.15,-140.39 914.1,-146.17"/>
</g>
<!-- Node14 -->
<g id="node14" class="node">
<title>Node14</title>
<g id="a_node14"><a xlink:title=" ">
<polygon fill="none" stroke="#bfbfbf" points="761.5,-116.5 761.5,-137.5 811.5,-137.5 811.5,-116.5 761.5,-116.5"/>
<text text-anchor="middle" x="786.5" y="-123.9" font-family="Helvetica,sans-Serif" font-size="12.00">string</text>
</a>
</g>
</g>
<!-- Node13&#45;&gt;Node14 -->
<g id="edge14" class="edge">
<title>Node13&#45;&gt;Node14</title>
<path fill="none" stroke="midnightblue" d="M841,-174.25C831.26,-165.97 817.07,-153.94 805.62,-144.22"/>
<polygon fill="midnightblue" stroke="midnightblue" points="807.75,-141.44 797.86,-137.64 803.23,-146.78 807.75,-141.44"/>
</g>
<!-- Node15 -->
<g id="node15" class="node">
<title>Node15</title>
<g id="a_node15"><a xlink:title=" ">
<polygon fill="none" stroke="#bfbfbf" points="830,-116.5 830,-137.5 885,-137.5 885,-116.5 830,-116.5"/>
<text text-anchor="middle" x="857.5" y="-123.9" font-family="Helvetica,sans-Serif" font-size="12.00">mutex</text>
</a>
</g>
</g>
<!-- Node13&#45;&gt;Node15 -->
<g id="edge16" class="edge">
<title>Node13&#45;&gt;Node15</title>
<path fill="none" stroke="midnightblue" d="M853.37,-174.25C854.02,-166.94 854.94,-156.69 855.74,-147.7"/>
<polygon fill="midnightblue" stroke="midnightblue" points="859.24,-147.91 856.64,-137.64 852.26,-147.29 859.24,-147.91"/>
</g>
<!-- Node16&#45;&gt;Node5 -->
<g id="edge20" class="edge">
<title>Node16&#45;&gt;Node5</title>
<path fill="none" stroke="midnightblue" d="M713.94,-174.42C759.05,-166.01 826.09,-153.09 892.82,-138.31"/>
<polygon fill="midnightblue" stroke="midnightblue" points="893.66,-141.71 902.66,-136.11 892.14,-134.87 893.66,-141.71"/>
</g>
<!-- Node16&#45;&gt;Node14 -->
<g id="edge22" class="edge">
<title>Node16&#45;&gt;Node14</title>
<path fill="none" stroke="midnightblue" d="M682.99,-174.37C703.14,-165.34 733.49,-151.75 756.12,-141.61"/>
<polygon fill="midnightblue" stroke="midnightblue" points="757.6,-144.78 765.29,-137.5 754.74,-138.4 757.6,-144.78"/>
</g>
<!-- Node17 -->
<g id="node17" class="node">
<title>Node17</title>
<g id="a_node17"><a xlink:title=" ">
<polygon fill="none" stroke="#bfbfbf" points="605.5,-58.5 605.5,-79.5 649.5,-79.5 649.5,-58.5 605.5,-58.5"/>
<text text-anchor="middle" x="627.5" y="-65.9" font-family="Helvetica,sans-Serif" font-size="12.00">map</text>
</a>
</g>
</g>
<!-- Node16&#45;&gt;Node17 -->
<g id="edge18" class="edge">
<title>Node16&#45;&gt;Node17</title>
<path fill="none" stroke="midnightblue" d="M658.6,-174.28C653.01,-155.52 640.62,-114 633.28,-89.38"/>
<polygon fill="midnightblue" stroke="midnightblue" points="636.6,-88.28 630.39,-79.69 629.9,-90.28 636.6,-88.28"/>
</g>
<!-- Node18 -->
<g id="node18" class="node">
<title>Node18</title>
<g id="a_node18"><a xlink:title=" ">
<polygon fill="none" stroke="#bfbfbf" points="668,-58.5 668,-79.5 723,-79.5 723,-58.5 668,-58.5"/>
<text text-anchor="middle" x="695.5" y="-65.9" font-family="Helvetica,sans-Serif" font-size="12.00">vector</text>
</a>
</g>
</g>
<!-- Node16&#45;&gt;Node18 -->
<g id="edge19" class="edge">
<title>Node16&#45;&gt;Node18</title>
<path fill="none" stroke="midnightblue" d="M664.4,-174.28C669.99,-155.52 682.38,-114 689.72,-89.38"/>
<polygon fill="midnightblue" stroke="midnightblue" points="693.1,-90.28 692.61,-79.69 686.4,-88.28 693.1,-90.28"/>
</g>
<!-- Node19 -->
<g id="node19" class="node">
<title>Node19</title>
<g id="a_node19"><a xlink:title=" ">
<polygon fill="none" stroke="#bfbfbf" points="741,-58.5 741,-79.5 806,-79.5 806,-58.5 741,-58.5"/>
<text text-anchor="middle" x="773.5" y="-65.9" font-family="Helvetica,sans-Serif" font-size="12.00">assert.h</text>
</a>
</g>
</g>
<!-- Node16&#45;&gt;Node19 -->
<g id="edge21" class="edge">
<title>Node16&#45;&gt;Node19</title>
<path fill="none" stroke="midnightblue" d="M671.05,-174.28C690.06,-154.93 732.86,-111.37 756.68,-87.12"/>
<polygon fill="midnightblue" stroke="midnightblue" points="759.46,-89.28 763.98,-79.69 754.47,-84.38 759.46,-89.28"/>
</g>
<!-- Node20 -->
<g id="node20" class="node">
<title>Node20</title>
<g id="a_node20"><a xlink:title=" ">
<polygon fill="none" stroke="#bfbfbf" points="555.5,-116.5 555.5,-137.5 629.5,-137.5 629.5,-116.5 555.5,-116.5"/>
<text text-anchor="middle" x="592.5" y="-123.9" font-family="Helvetica,sans-Serif" font-size="12.00">algorithm</text>
</a>
</g>
</g>
<!-- Node16&#45;&gt;Node20 -->
<g id="edge23" class="edge">
<title>Node16&#45;&gt;Node20</title>
<path fill="none" stroke="midnightblue" d="M649.48,-174.25C639.29,-165.97 624.46,-153.94 612.49,-144.22"/>
<polygon fill="midnightblue" stroke="midnightblue" points="614.35,-141.23 604.38,-137.64 609.94,-146.66 614.35,-141.23"/>
</g>
<!-- Node21 -->
<g id="node21" class="node">
<title>Node21</title>
<g id="a_node21"><a xlink:href="node_8h.html" target="_top" xlink:title="Node class template.">
<polygon fill="none" stroke="black" points="479.5,-116.5 479.5,-137.5 537.5,-137.5 537.5,-116.5 479.5,-116.5"/>
<text text-anchor="middle" x="508.5" y="-123.9" font-family="Helvetica,sans-Serif" font-size="12.00">node.h</text>
</a>
</g>
</g>
<!-- Node16&#45;&gt;Node21 -->
<g id="edge24" class="edge">
<title>Node16&#45;&gt;Node21</title>
<path fill="none" stroke="midnightblue" d="M635.2,-174.37C610.09,-165.18 572.06,-151.26 544.21,-141.07"/>
<polygon fill="midnightblue" stroke="midnightblue" points="545.05,-137.65 534.46,-137.5 542.65,-144.23 545.05,-137.65"/>
</g>
<!-- Node24 -->
<g id="node24" class="node">
<title>Node24</title>
<g id="a_node24"><a xlink:href="edge_8h.html" target="_top" xlink:title="Edge class template.">
<polygon fill="none" stroke="black" points="304.5,-58.5 304.5,-79.5 362.5,-79.5 362.5,-58.5 304.5,-58.5"/>
<text text-anchor="middle" x="333.5" y="-65.9" font-family="Helvetica,sans-Serif" font-size="12.00">edge.h</text>
</a>
</g>
</g>
<!-- Node16&#45;&gt;Node24 -->
<g id="edge36" class="edge">
<title>Node16&#45;&gt;Node24</title>
<path fill="none" stroke="midnightblue" d="M607.86,-174.43C569.05,-166.71 515.7,-154.42 470.5,-138 429.87,-123.24 385.51,-99.75 358.6,-84.6"/>
<polygon fill="midnightblue" stroke="midnightblue" points="360.26,-81.53 349.84,-79.62 356.8,-87.61 360.26,-81.53"/>
</g>
<!-- Node21&#45;&gt;Node17 -->
<g id="edge26" class="edge">
<title>Node21&#45;&gt;Node17</title>
<path fill="none" stroke="midnightblue" d="M528.96,-116.37C547.97,-107.42 576.52,-93.99 598,-83.88"/>
<polygon fill="midnightblue" stroke="midnightblue" points="599.75,-86.93 607.31,-79.5 596.77,-80.59 599.75,-86.93"/>
</g>
<!-- Node21&#45;&gt;Node18 -->
<g id="edge25" class="edge">
<title>Node21&#45;&gt;Node18</title>
<path fill="none" stroke="midnightblue" d="M537.72,-117.25C570.07,-107.56 622.31,-91.92 657.74,-81.31"/>
<polygon fill="midnightblue" stroke="midnightblue" points="659.13,-84.55 667.71,-78.32 657.12,-77.84 659.13,-84.55"/>
</g>
<!-- Node21&#45;&gt;Node19 -->
<g id="edge27" class="edge">
<title>Node21&#45;&gt;Node19</title>
<path fill="none" stroke="midnightblue" d="M537.91,-118.05C540.81,-117.33 543.71,-116.64 546.5,-116 625.55,-97.97 648.55,-97.96 731.05,-80.24"/>
<polygon fill="midnightblue" stroke="midnightblue" points="731.83,-83.65 740.86,-78.11 730.34,-76.81 731.83,-83.65"/>
</g>
<!-- Node22 -->
<g id="node22" class="node">
<title>Node22</title>
<g id="a_node22"><a xlink:title=" ">
<polygon fill="none" stroke="#bfbfbf" points="450,-0.5 450,-21.5 519,-21.5 519,-0.5 450,-0.5"/>
<text text-anchor="middle" x="484.5" y="-7.9" font-family="Helvetica,sans-Serif" font-size="12.00">iostream</text>
</a>
</g>
</g>
<!-- Node21&#45;&gt;Node22 -->
<g id="edge28" class="edge">
<title>Node21&#45;&gt;Node22</title>
<path fill="none" stroke="midnightblue" d="M506.45,-116.28C502.52,-97.6 493.84,-56.37 488.65,-31.72"/>
<polygon fill="midnightblue" stroke="midnightblue" points="492.03,-30.76 486.54,-21.69 485.18,-32.2 492.03,-30.76"/>
</g>
<!-- Node23 -->
<g id="node23" class="node">
<title>Node23</title>
<g id="a_node23"><a xlink:title=" ">
<polygon fill="none" stroke="#bfbfbf" points="381,-58.5 381,-79.5 456,-79.5 456,-58.5 381,-58.5"/>
<text text-anchor="middle" x="418.5" y="-65.9" font-family="Helvetica,sans-Serif" font-size="12.00">stdexcept</text>
</a>
</g>
</g>
<!-- Node21&#45;&gt;Node23 -->
<g id="edge29" class="edge">
<title>Node21&#45;&gt;Node23</title>
<path fill="none" stroke="midnightblue" d="M492.82,-116.25C479.01,-107.65 458.68,-95 442.77,-85.1"/>
<polygon fill="midnightblue" stroke="midnightblue" points="444.34,-81.95 434,-79.64 440.64,-87.9 444.34,-81.95"/>
</g>
<!-- Node21&#45;&gt;Node24 -->
<g id="edge30" class="edge">
<title>Node21&#45;&gt;Node24</title>
<path fill="none" stroke="midnightblue" d="M479.21,-116.63C449.85,-107.23 404.48,-92.71 372.17,-82.37"/>
<polygon fill="midnightblue" stroke="midnightblue" points="373.19,-79.02 362.59,-79.31 371.05,-85.69 373.19,-79.02"/>
</g>
<!-- Node27 -->
<g id="node27" class="node">
<title>Node27</title>
<g id="a_node27"><a xlink:href="random_8h.html" target="_top" xlink:title="Random engine implementations for Markov.">
<polygon fill="none" stroke="black" points="513,-58.5 513,-79.5 588,-79.5 588,-58.5 513,-58.5"/>
<text text-anchor="middle" x="550.5" y="-65.9" font-family="Helvetica,sans-Serif" font-size="12.00">random.h</text>
</a>
</g>
</g>
<!-- Node21&#45;&gt;Node27 -->
<g id="edge33" class="edge">
<title>Node21&#45;&gt;Node27</title>
<path fill="none" stroke="midnightblue" d="M515.82,-116.25C521.72,-108.38 530.17,-97.1 537.26,-87.65"/>
<polygon fill="midnightblue" stroke="midnightblue" points="540.07,-89.74 543.27,-79.64 534.47,-85.54 540.07,-89.74"/>
</g>
<!-- Node25 -->
<g id="node25" class="node">
<title>Node25</title>
<g id="a_node25"><a xlink:title=" ">
<polygon fill="none" stroke="#bfbfbf" points="262.5,-0.5 262.5,-21.5 318.5,-21.5 318.5,-0.5 262.5,-0.5"/>
<text text-anchor="middle" x="290.5" y="-7.9" font-family="Helvetica,sans-Serif" font-size="12.00">cstdint</text>
</a>
</g>
</g>
<!-- Node24&#45;&gt;Node25 -->
<g id="edge31" class="edge">
<title>Node24&#45;&gt;Node25</title>
<path fill="none" stroke="midnightblue" d="M326.01,-58.25C319.97,-50.38 311.31,-39.1 304.06,-29.65"/>
<polygon fill="midnightblue" stroke="midnightblue" points="306.77,-27.44 297.9,-21.64 301.22,-31.71 306.77,-27.44"/>
</g>
<!-- Node26 -->
<g id="node26" class="node">
<title>Node26</title>
<g id="a_node26"><a xlink:title=" ">
<polygon fill="none" stroke="#bfbfbf" points="337,-0.5 337,-21.5 398,-21.5 398,-0.5 337,-0.5"/>
<text text-anchor="middle" x="367.5" y="-7.9" font-family="Helvetica,sans-Serif" font-size="12.00">cstddef</text>
</a>
</g>
</g>
<!-- Node24&#45;&gt;Node26 -->
<g id="edge32" class="edge">
<title>Node24&#45;&gt;Node26</title>
<path fill="none" stroke="midnightblue" d="M339.42,-58.25C344.1,-50.54 350.77,-39.56 356.43,-30.23"/>
<polygon fill="midnightblue" stroke="midnightblue" points="359.45,-32.01 361.65,-21.64 353.46,-28.37 359.45,-32.01"/>
</g>
<!-- Node27&#45;&gt;Node22 -->
<g id="edge35" class="edge">
<title>Node27&#45;&gt;Node22</title>
<path fill="none" stroke="midnightblue" d="M539,-58.25C529.26,-49.97 515.07,-37.94 503.62,-28.22"/>
<polygon fill="midnightblue" stroke="midnightblue" points="505.75,-25.44 495.86,-21.64 501.23,-30.78 505.75,-25.44"/>
</g>
<!-- Node28 -->
<g id="node28" class="node">
<title>Node28</title>
<g id="a_node28"><a xlink:title=" ">
<polygon fill="none" stroke="#bfbfbf" points="537.5,-0.5 537.5,-21.5 601.5,-21.5 601.5,-0.5 537.5,-0.5"/>
<text text-anchor="middle" x="569.5" y="-7.9" font-family="Helvetica,sans-Serif" font-size="12.00">random</text>
</a>
</g>
</g>
<!-- Node27&#45;&gt;Node28 -->
<g id="edge34" class="edge">
<title>Node27&#45;&gt;Node28</title>
<path fill="none" stroke="midnightblue" d="M553.81,-58.25C556.34,-50.78 559.92,-40.24 563.01,-31.11"/>
<polygon fill="midnightblue" stroke="midnightblue" points="566.33,-32.24 566.23,-21.64 559.7,-29.99 566.33,-32.24"/>
</g>
<!-- Node30&#45;&gt;Node3 -->
<g id="edge39" class="edge">
<title>Node30&#45;&gt;Node3</title>
<path fill="none" stroke="midnightblue" d="M321.18,-232.37C289.65,-222.98 241.54,-208.65 207.15,-198.41"/>
<polygon fill="midnightblue" stroke="midnightblue" points="207.98,-195 197.4,-195.5 205.98,-201.71 207.98,-195"/>
</g>
<!-- Node31 -->
<g id="node31" class="node">
<title>Node31</title>
<g id="a_node31"><a xlink:title=" ">
<polygon fill="none" stroke="#bfbfbf" points="268,-174.5 268,-195.5 439,-195.5 439,-174.5 268,-174.5"/>
<text text-anchor="middle" x="353.5" y="-181.9" font-family="Helvetica,sans-Serif" font-size="12.00">ui_MarkovPasswordsGUI.h</text>
</a>
</g>
</g>
<!-- Node30&#45;&gt;Node31 -->
<g id="edge40" class="edge">
<title>Node30&#45;&gt;Node31</title>
<path fill="none" stroke="midnightblue" d="M353.5,-232.25C353.5,-224.94 353.5,-214.69 353.5,-205.7"/>
<polygon fill="midnightblue" stroke="midnightblue" points="357,-205.64 353.5,-195.64 350,-205.64 357,-205.64"/>
</g>
</g>
</svg>
