<?xml version="1.0" encoding="UTF-8" standalone="no"?>
<!DOCTYPE svg PUBLIC "-//W3C//DTD SVG 1.1//EN"
 "http://www.w3.org/Graphics/SVG/1.1/DTD/svg11.dtd">
<!-- Generated by graphviz version 2.43.0 (0)
 -->
<!-- Title: Markopy/MarkovPasswordsGUI/src/Generate.h Pages: 1 -->
<svg width="296pt" height="101pt"
 viewBox="0.00 0.00 295.50 101.00" xmlns="http://www.w3.org/2000/svg" xmlns:xlink="http://www.w3.org/1999/xlink">
<g id="graph0" class="graph" transform="scale(1 1) rotate(0) translate(4 97)">
<title>Markopy/MarkovPasswordsGUI/src/Generate.h</title>
<!-- Node1 -->
<g id="node1" class="node">
<title>Node1</title>
<g id="a_node1"><a xlink:title="Generation Page.">
<polygon fill="#bfbfbf" stroke="black" points="60.5,-58.5 60.5,-92.5 259.5,-92.5 259.5,-58.5 60.5,-58.5"/>
<text text-anchor="start" x="68.5" y="-78.9" font-family="Helvetica,sans-Serif" font-size="12.00">Markopy/MarkovPasswordsGUI</text>
<text text-anchor="middle" x="160" y="-65.9" font-family="Helvetica,sans-Serif" font-size="12.00">/src/Generate.h</text>
</a>
</g>
</g>
<!-- Node2 -->
<g id="node2" class="node">
<title>Node2</title>
<g id="a_node2"><a xlink:title=" ">
<polygon fill="none" stroke="#bfbfbf" points="0,-0.5 0,-21.5 168,-21.5 168,-0.5 0,-0.5"/>
<text text-anchor="middle" x="84" y="-7.9" font-family="Helvetica,sans-Serif" font-size="12.00">QtWidgets/QMainWindow</text>
</a>
</g>
</g>
<!-- Node1&#45;&gt;Node2 -->
<g id="edge1" class="edge">
<title>Node1&#45;&gt;Node2</title>
<path fill="none" stroke="midnightblue" d="M140.43,-58.4C129.21,-49.18 115.17,-37.63 103.9,-28.37"/>
<polygon fill="midnightblue" stroke="midnightblue" points="105.86,-25.45 95.92,-21.8 101.42,-30.86 105.86,-25.45"/>
</g>
<!-- Node3 -->
<g id="node3" class="node">
<title>Node3</title>
<g id="a_node3"><a xlink:title=" ">
<polygon fill="none" stroke="#bfbfbf" points="186.5,-0.5 186.5,-21.5 287.5,-21.5 287.5,-0.5 186.5,-0.5"/>
<text text-anchor="middle" x="237" y="-7.9" font-family="Helvetica,sans-Serif" font-size="12.00">ui_Generate.h</text>
</a>
</g>
</g>
<!-- Node1&#45;&gt;Node3 -->
<g id="edge2" class="edge">
<title>Node1&#45;&gt;Node3</title>
<path fill="none" stroke="midnightblue" d="M179.83,-58.4C191.19,-49.18 205.42,-37.63 216.84,-28.37"/>
<polygon fill="midnightblue" stroke="midnightblue" points="219.37,-30.82 224.93,-21.8 214.96,-25.38 219.37,-30.82"/>
</g>
</g>
</svg>
