<?xml version="1.0" encoding="UTF-8" standalone="no"?>
<!DOCTYPE svg PUBLIC "-//W3C//DTD SVG 1.1//EN"
 "http://www.w3.org/Graphics/SVG/1.1/DTD/svg11.dtd">
<!-- Generated by graphviz version 2.43.0 (0)
 -->
<!-- Title: Markopy/MarkovPasswordsGUI/src/Generate.h Pages: 1 -->
<svg width="424pt" height="114pt"
 viewBox="0.00 0.00 424.00 114.00" xmlns="http://www.w3.org/2000/svg" xmlns:xlink="http://www.w3.org/1999/xlink">
<g id="graph0" class="graph" transform="scale(1 1) rotate(0) translate(4 110)">
<title>Markopy/MarkovPasswordsGUI/src/Generate.h</title>
<!-- Node1 -->
<g id="node1" class="node">
<title>Node1</title>
<g id="a_node1"><a xlink:title="Generation Page.">
<polygon fill="#bfbfbf" stroke="black" points="108,-71.5 108,-105.5 307,-105.5 307,-71.5 108,-71.5"/>
<text text-anchor="start" x="116" y="-91.9" font-family="Helvetica,sans-Serif" font-size="12.00">Markopy/MarkovPasswordsGUI</text>
<text text-anchor="middle" x="207.5" y="-78.9" font-family="Helvetica,sans-Serif" font-size="12.00">/src/Generate.h</text>
</a>
</g>
</g>
<!-- Node2 -->
<g id="node2" class="node">
<title>Node2</title>
<g id="a_node2"><a xlink:href="_generate_8cpp.html" target="_top" xlink:title="Generation Page.">
<polygon fill="none" stroke="black" points="0,-0.5 0,-34.5 199,-34.5 199,-0.5 0,-0.5"/>
<text text-anchor="start" x="8" y="-20.9" font-family="Helvetica,sans-Serif" font-size="12.00">Markopy/MarkovPasswordsGUI</text>
<text text-anchor="middle" x="99.5" y="-7.9" font-family="Helvetica,sans-Serif" font-size="12.00">/src/Generate.cpp</text>
</a>
</g>
</g>
<!-- Node1&#45;&gt;Node2 -->
<g id="edge1" class="edge">
<title>Node1&#45;&gt;Node2</title>
<path fill="none" stroke="midnightblue" d="M173.96,-66.07C158.09,-55.93 139.45,-44.02 124.79,-34.66"/>
<polygon fill="midnightblue" stroke="midnightblue" points="172.14,-69.06 182.45,-71.5 175.91,-63.16 172.14,-69.06"/>
</g>
<!-- Node3 -->
<g id="node3" class="node">
<title>Node3</title>
<g id="a_node3"><a xlink:href="_train_8cpp.html" target="_top" xlink:title="training page for GUI">
<polygon fill="none" stroke="black" points="217,-0.5 217,-34.5 416,-34.5 416,-0.5 217,-0.5"/>
<text text-anchor="start" x="225" y="-20.9" font-family="Helvetica,sans-Serif" font-size="12.00">Markopy/MarkovPasswordsGUI</text>
<text text-anchor="middle" x="316.5" y="-7.9" font-family="Helvetica,sans-Serif" font-size="12.00">/src/Train.cpp</text>
</a>
</g>
</g>
<!-- Node1&#45;&gt;Node3 -->
<g id="edge2" class="edge">
<title>Node1&#45;&gt;Node3</title>
<path fill="none" stroke="midnightblue" d="M241.35,-66.07C257.37,-55.93 276.18,-44.02 290.98,-34.66"/>
<polygon fill="midnightblue" stroke="midnightblue" points="239.36,-63.19 232.78,-71.5 243.1,-69.11 239.36,-63.19"/>
</g>
</g>
</svg>
