<?xml version="1.0" encoding="UTF-8" standalone="no"?>
<!DOCTYPE svg PUBLIC "-//W3C//DTD SVG 1.1//EN"
 "http://www.w3.org/Graphics/SVG/1.1/DTD/svg11.dtd">
<!-- Generated by graphviz version 2.43.0 (0)
 -->
<!-- Title: Generate.h Pages: 1 -->
<svg width="296pt" height="88pt"
 viewBox="0.00 0.00 295.50 88.00" xmlns="http://www.w3.org/2000/svg" xmlns:xlink="http://www.w3.org/1999/xlink">
<g id="graph0" class="graph" transform="scale(1 1) rotate(0) translate(4 84)">
<title>Generate.h</title>
<!-- Node1 -->
<g id="node1" class="node">
<title>Node1</title>
<g id="a_node1"><a xlink:title="Generation Page.">
<polygon fill="#bfbfbf" stroke="black" points="118,-58.5 118,-79.5 202,-79.5 202,-58.5 118,-58.5"/>
<text text-anchor="middle" x="160" y="-65.9" font-family="Helvetica,sans-Serif" font-size="12.00">Generate.h</text>
</a>
</g>
</g>
<!-- Node2 -->
<g id="node2" class="node">
<title>Node2</title>
<g id="a_node2"><a xlink:title=" ">
<polygon fill="none" stroke="#bfbfbf" points="0,-0.5 0,-21.5 168,-21.5 168,-0.5 0,-0.5"/>
<text text-anchor="middle" x="84" y="-7.9" font-family="Helvetica,sans-Serif" font-size="12.00">QtWidgets/QMainWindow</text>
</a>
</g>
</g>
<!-- Node1&#45;&gt;Node2 -->
<g id="edge1" class="edge">
<title>Node1&#45;&gt;Node2</title>
<path fill="none" stroke="midnightblue" d="M146.76,-58.25C135.32,-49.81 118.57,-37.47 105.25,-27.66"/>
<polygon fill="midnightblue" stroke="midnightblue" points="107.21,-24.76 97.09,-21.64 103.06,-30.39 107.21,-24.76"/>
</g>
<!-- Node3 -->
<g id="node3" class="node">
<title>Node3</title>
<g id="a_node3"><a xlink:title=" ">
<polygon fill="none" stroke="#bfbfbf" points="186.5,-0.5 186.5,-21.5 287.5,-21.5 287.5,-0.5 186.5,-0.5"/>
<text text-anchor="middle" x="237" y="-7.9" font-family="Helvetica,sans-Serif" font-size="12.00">ui_Generate.h</text>
</a>
</g>
</g>
<!-- Node1&#45;&gt;Node3 -->
<g id="edge2" class="edge">
<title>Node1&#45;&gt;Node3</title>
<path fill="none" stroke="midnightblue" d="M173.41,-58.25C185.01,-49.81 201.97,-37.47 215.47,-27.66"/>
<polygon fill="midnightblue" stroke="midnightblue" points="217.71,-30.36 223.74,-21.64 213.6,-24.69 217.71,-30.36"/>
</g>
</g>
</svg>
