<?xml version="1.0" encoding="UTF-8" standalone="no"?>
<!DOCTYPE svg PUBLIC "-//W3C//DTD SVG 1.1//EN"
 "http://www.w3.org/Graphics/SVG/1.1/DTD/svg11.dtd">
<!-- Generated by graphviz version 2.43.0 (0)
 -->
<!-- Title: MarkovPasswordsGUI.h Pages: 1 -->
<svg width="272pt" height="88pt"
 viewBox="0.00 0.00 272.00 88.00" xmlns="http://www.w3.org/2000/svg" xmlns:xlink="http://www.w3.org/1999/xlink">
<g id="graph0" class="graph" transform="scale(1 1) rotate(0) translate(4 84)">
<title>MarkovPasswordsGUI.h</title>
<!-- Node1 -->
<g id="node1" class="node">
<title>Node1</title>
<g id="a_node1"><a xlink:title=" ">
<polygon fill="#bfbfbf" stroke="black" points="77,-58.5 77,-79.5 232,-79.5 232,-58.5 77,-58.5"/>
<text text-anchor="middle" x="154.5" y="-65.9" font-family="Helvetica,sans-Serif" font-size="12.00">MarkovPasswordsGUI.h</text>
</a>
</g>
</g>
<!-- Node2 -->
<g id="node2" class="node">
<title>Node2</title>
<g id="a_node2"><a xlink:href="_markov_passwords_g_u_i_8cpp.html" target="_top" xlink:title=" ">
<polygon fill="none" stroke="black" points="0,-0.5 0,-21.5 169,-21.5 169,-0.5 0,-0.5"/>
<text text-anchor="middle" x="84.5" y="-7.9" font-family="Helvetica,sans-Serif" font-size="12.00">MarkovPasswordsGUI.cpp</text>
</a>
</g>
</g>
<!-- Node1&#45;&gt;Node2 -->
<g id="edge1" class="edge">
<title>Node1&#45;&gt;Node2</title>
<path fill="none" stroke="midnightblue" d="M134.41,-51.93C122.17,-42.14 106.95,-29.96 96.55,-21.64"/>
<polygon fill="midnightblue" stroke="midnightblue" points="132.31,-54.73 142.31,-58.25 136.68,-49.27 132.31,-54.73"/>
</g>
<!-- Node3 -->
<g id="node3" class="node">
<title>Node3</title>
<g id="a_node3"><a xlink:href="menu_8cpp.html" target="_top" xlink:title=" ">
<polygon fill="none" stroke="black" points="187,-0.5 187,-21.5 264,-21.5 264,-0.5 187,-0.5"/>
<text text-anchor="middle" x="225.5" y="-7.9" font-family="Helvetica,sans-Serif" font-size="12.00">menu.cpp</text>
</a>
</g>
</g>
<!-- Node1&#45;&gt;Node3 -->
<g id="edge2" class="edge">
<title>Node1&#45;&gt;Node3</title>
<path fill="none" stroke="midnightblue" d="M174.88,-51.93C187.29,-42.14 202.73,-29.96 213.27,-21.64"/>
<polygon fill="midnightblue" stroke="midnightblue" points="172.55,-49.3 166.87,-58.25 176.89,-54.8 172.55,-49.3"/>
</g>
</g>
</svg>
