<?xml version="1.0" encoding="UTF-8" standalone="no"?>
<!DOCTYPE svg PUBLIC "-//W3C//DTD SVG 1.1//EN"
 "http://www.w3.org/Graphics/SVG/1.1/DTD/svg11.dtd">
<!-- Generated by graphviz version 2.43.0 (0)
 -->
<!-- Title: MarkovPasswordsGUI.cpp Pages: 1 -->
<svg width="470pt" height="146pt"
 viewBox="0.00 0.00 470.00 146.00" xmlns="http://www.w3.org/2000/svg" xmlns:xlink="http://www.w3.org/1999/xlink">
<g id="graph0" class="graph" transform="scale(1 1) rotate(0) translate(4 142)">
<title>MarkovPasswordsGUI.cpp</title>
<!-- Node1 -->
<g id="node1" class="node">
<title>Node1</title>
<g id="a_node1"><a xlink:title="Main activity page for GUI.">
<polygon fill="#bfbfbf" stroke="black" points="184,-116.5 184,-137.5 353,-137.5 353,-116.5 184,-116.5"/>
<text text-anchor="middle" x="268.5" y="-123.9" font-family="Helvetica,sans-Serif" font-size="12.00">MarkovPasswordsGUI.cpp</text>
</a>
</g>
</g>
<!-- Node2 -->
<g id="node2" class="node">
<title>Node2</title>
<g id="a_node2"><a xlink:href="_markov_passwords_g_u_i_8h.html" target="_top" xlink:title="Main activity page for GUI.">
<polygon fill="none" stroke="black" points="8,-58.5 8,-79.5 163,-79.5 163,-58.5 8,-58.5"/>
<text text-anchor="middle" x="85.5" y="-65.9" font-family="Helvetica,sans-Serif" font-size="12.00">MarkovPasswordsGUI.h</text>
</a>
</g>
</g>
<!-- Node1&#45;&gt;Node2 -->
<g id="edge1" class="edge">
<title>Node1&#45;&gt;Node2</title>
<path fill="none" stroke="midnightblue" d="M237.04,-116.37C206.48,-107.02 159.92,-92.77 126.47,-82.54"/>
<polygon fill="midnightblue" stroke="midnightblue" points="127.13,-79.08 116.55,-79.5 125.09,-85.77 127.13,-79.08"/>
</g>
<!-- Node5 -->
<g id="node5" class="node">
<title>Node5</title>
<g id="a_node5"><a xlink:title=" ">
<polygon fill="none" stroke="#bfbfbf" points="181,-58.5 181,-79.5 244,-79.5 244,-58.5 181,-58.5"/>
<text text-anchor="middle" x="212.5" y="-65.9" font-family="Helvetica,sans-Serif" font-size="12.00">fstream</text>
</a>
</g>
</g>
<!-- Node1&#45;&gt;Node5 -->
<g id="edge4" class="edge">
<title>Node1&#45;&gt;Node5</title>
<path fill="none" stroke="midnightblue" d="M258.75,-116.25C250.64,-108.14 238.91,-96.41 229.29,-86.79"/>
<polygon fill="midnightblue" stroke="midnightblue" points="231.69,-84.24 222.14,-79.64 226.74,-89.19 231.69,-84.24"/>
</g>
<!-- Node6 -->
<g id="node6" class="node">
<title>Node6</title>
<g id="a_node6"><a xlink:title=" ">
<polygon fill="none" stroke="#bfbfbf" points="262.5,-58.5 262.5,-79.5 388.5,-79.5 388.5,-58.5 262.5,-58.5"/>
<text text-anchor="middle" x="325.5" y="-65.9" font-family="Helvetica,sans-Serif" font-size="12.00">qwebengineview.h</text>
</a>
</g>
</g>
<!-- Node1&#45;&gt;Node6 -->
<g id="edge5" class="edge">
<title>Node1&#45;&gt;Node6</title>
<path fill="none" stroke="midnightblue" d="M278.43,-116.25C286.68,-108.14 298.62,-96.41 308.41,-86.79"/>
<polygon fill="midnightblue" stroke="midnightblue" points="311,-89.15 315.69,-79.64 306.1,-84.15 311,-89.15"/>
</g>
<!-- Node7 -->
<g id="node7" class="node">
<title>Node7</title>
<g id="a_node7"><a xlink:href="_c_l_i_8h.html" target="_top" xlink:title="CLI page.">
<polygon fill="none" stroke="black" points="407,-58.5 407,-79.5 454,-79.5 454,-58.5 407,-58.5"/>
<text text-anchor="middle" x="430.5" y="-65.9" font-family="Helvetica,sans-Serif" font-size="12.00">CLI.h</text>
</a>
</g>
</g>
<!-- Node1&#45;&gt;Node7 -->
<g id="edge6" class="edge">
<title>Node1&#45;&gt;Node7</title>
<path fill="none" stroke="midnightblue" d="M296.35,-116.37C324.39,-106.68 367.65,-91.73 397.42,-81.44"/>
<polygon fill="midnightblue" stroke="midnightblue" points="398.65,-84.71 406.96,-78.14 396.36,-78.1 398.65,-84.71"/>
</g>
<!-- Node3 -->
<g id="node3" class="node">
<title>Node3</title>
<g id="a_node3"><a xlink:title=" ">
<polygon fill="none" stroke="#bfbfbf" points="201.5,-0.5 201.5,-21.5 369.5,-21.5 369.5,-0.5 201.5,-0.5"/>
<text text-anchor="middle" x="285.5" y="-7.9" font-family="Helvetica,sans-Serif" font-size="12.00">QtWidgets/QMainWindow</text>
</a>
</g>
</g>
<!-- Node2&#45;&gt;Node3 -->
<g id="edge2" class="edge">
<title>Node2&#45;&gt;Node3</title>
<path fill="none" stroke="midnightblue" d="M119.88,-58.37C153.57,-48.94 205.05,-34.53 241.66,-24.27"/>
<polygon fill="midnightblue" stroke="midnightblue" points="242.88,-27.57 251.57,-21.5 240.99,-20.83 242.88,-27.57"/>
</g>
<!-- Node4 -->
<g id="node4" class="node">
<title>Node4</title>
<g id="a_node4"><a xlink:title=" ">
<polygon fill="none" stroke="#bfbfbf" points="0,-0.5 0,-21.5 171,-21.5 171,-0.5 0,-0.5"/>
<text text-anchor="middle" x="85.5" y="-7.9" font-family="Helvetica,sans-Serif" font-size="12.00">ui_MarkovPasswordsGUI.h</text>
</a>
</g>
</g>
<!-- Node2&#45;&gt;Node4 -->
<g id="edge3" class="edge">
<title>Node2&#45;&gt;Node4</title>
<path fill="none" stroke="midnightblue" d="M85.5,-58.25C85.5,-50.94 85.5,-40.69 85.5,-31.7"/>
<polygon fill="midnightblue" stroke="midnightblue" points="89,-31.64 85.5,-21.64 82,-31.64 89,-31.64"/>
</g>
<!-- Node7&#45;&gt;Node3 -->
<g id="edge7" class="edge">
<title>Node7&#45;&gt;Node3</title>
<path fill="none" stroke="midnightblue" d="M406.88,-58.88C383.29,-49.77 346.79,-35.67 319.97,-25.31"/>
<polygon fill="midnightblue" stroke="midnightblue" points="321.16,-22.02 310.57,-21.68 318.64,-28.55 321.16,-22.02"/>
</g>
<!-- Node8 -->
<g id="node8" class="node">
<title>Node8</title>
<g id="a_node8"><a xlink:title=" ">
<polygon fill="none" stroke="#bfbfbf" points="399,-0.5 399,-21.5 462,-21.5 462,-0.5 399,-0.5"/>
<text text-anchor="middle" x="430.5" y="-7.9" font-family="Helvetica,sans-Serif" font-size="12.00">ui_CLI.h</text>
</a>
</g>
</g>
<!-- Node7&#45;&gt;Node8 -->
<g id="edge8" class="edge">
<title>Node7&#45;&gt;Node8</title>
<path fill="none" stroke="midnightblue" d="M430.5,-58.25C430.5,-50.94 430.5,-40.69 430.5,-31.7"/>
<polygon fill="midnightblue" stroke="midnightblue" points="434,-31.64 430.5,-21.64 427,-31.64 434,-31.64"/>
</g>
</g>
</svg>
