<?xml version="1.0" encoding="UTF-8" standalone="no"?>
<!DOCTYPE svg PUBLIC "-//W3C//DTD SVG 1.1//EN"
 "http://www.w3.org/Graphics/SVG/1.1/DTD/svg11.dtd">
<!-- Generated by graphviz version 2.43.0 (0)
 -->
<!-- Title: Markopy/MarkovPasswordsGUI/src/MarkovPasswordsGUI.cpp Pages: 1 -->
<svg width="470pt" height="159pt"
 viewBox="0.00 0.00 470.00 159.00" xmlns="http://www.w3.org/2000/svg" xmlns:xlink="http://www.w3.org/1999/xlink">
<g id="graph0" class="graph" transform="scale(1 1) rotate(0) translate(4 155)">
<title>Markopy/MarkovPasswordsGUI/src/MarkovPasswordsGUI.cpp</title>
<!-- Node1 -->
<g id="node1" class="node">
<title>Node1</title>
<g id="a_node1"><a xlink:title="Main activity page for GUI.">
<polygon fill="#bfbfbf" stroke="black" points="169,-116.5 169,-150.5 368,-150.5 368,-116.5 169,-116.5"/>
<text text-anchor="start" x="177" y="-136.9" font-family="Helvetica,sans-Serif" font-size="12.00">Markopy/MarkovPasswordsGUI</text>
<text text-anchor="middle" x="268.5" y="-123.9" font-family="Helvetica,sans-Serif" font-size="12.00">/src/MarkovPasswordsGUI.cpp</text>
</a>
</g>
</g>
<!-- Node2 -->
<g id="node2" class="node">
<title>Node2</title>
<g id="a_node2"><a xlink:href="_markov_passwords_g_u_i_8h.html" target="_top" xlink:title="Main activity page for GUI.">
<polygon fill="none" stroke="black" points="8,-58.5 8,-79.5 163,-79.5 163,-58.5 8,-58.5"/>
<text text-anchor="middle" x="85.5" y="-65.9" font-family="Helvetica,sans-Serif" font-size="12.00">MarkovPasswordsGUI.h</text>
</a>
</g>
</g>
<!-- Node1&#45;&gt;Node2 -->
<g id="edge1" class="edge">
<title>Node1&#45;&gt;Node2</title>
<path fill="none" stroke="midnightblue" d="M221.37,-116.4C190.77,-105.95 151.44,-92.52 122.97,-82.8"/>
<polygon fill="midnightblue" stroke="midnightblue" points="123.99,-79.45 113.39,-79.53 121.72,-86.07 123.99,-79.45"/>
</g>
<!-- Node5 -->
<g id="node5" class="node">
<title>Node5</title>
<g id="a_node5"><a xlink:title=" ">
<polygon fill="none" stroke="#bfbfbf" points="181,-58.5 181,-79.5 244,-79.5 244,-58.5 181,-58.5"/>
<text text-anchor="middle" x="212.5" y="-65.9" font-family="Helvetica,sans-Serif" font-size="12.00">fstream</text>
</a>
</g>
</g>
<!-- Node1&#45;&gt;Node5 -->
<g id="edge4" class="edge">
<title>Node1&#45;&gt;Node5</title>
<path fill="none" stroke="midnightblue" d="M254.08,-116.4C246.14,-107.54 236.28,-96.54 228.15,-87.47"/>
<polygon fill="midnightblue" stroke="midnightblue" points="230.56,-84.91 221.28,-79.8 225.35,-89.58 230.56,-84.91"/>
</g>
<!-- Node6 -->
<g id="node6" class="node">
<title>Node6</title>
<g id="a_node6"><a xlink:title=" ">
<polygon fill="none" stroke="#bfbfbf" points="262.5,-58.5 262.5,-79.5 388.5,-79.5 388.5,-58.5 262.5,-58.5"/>
<text text-anchor="middle" x="325.5" y="-65.9" font-family="Helvetica,sans-Serif" font-size="12.00">qwebengineview.h</text>
</a>
</g>
</g>
<!-- Node1&#45;&gt;Node6 -->
<g id="edge5" class="edge">
<title>Node1&#45;&gt;Node6</title>
<path fill="none" stroke="midnightblue" d="M283.18,-116.4C291.34,-107.45 301.5,-96.31 309.82,-87.19"/>
<polygon fill="midnightblue" stroke="midnightblue" points="312.41,-89.55 316.56,-79.8 307.24,-84.83 312.41,-89.55"/>
</g>
<!-- Node7 -->
<g id="node7" class="node">
<title>Node7</title>
<g id="a_node7"><a xlink:href="_c_l_i_8h.html" target="_top" xlink:title="CLI page.">
<polygon fill="none" stroke="black" points="407,-58.5 407,-79.5 454,-79.5 454,-58.5 407,-58.5"/>
<text text-anchor="middle" x="430.5" y="-65.9" font-family="Helvetica,sans-Serif" font-size="12.00">CLI.h</text>
</a>
</g>
</g>
<!-- Node1&#45;&gt;Node7 -->
<g id="edge6" class="edge">
<title>Node1&#45;&gt;Node7</title>
<path fill="none" stroke="midnightblue" d="M310.22,-116.4C337.37,-105.93 372.28,-92.46 397.49,-82.74"/>
<polygon fill="midnightblue" stroke="midnightblue" points="398.91,-85.94 406.98,-79.08 396.39,-79.41 398.91,-85.94"/>
</g>
<!-- Node3 -->
<g id="node3" class="node">
<title>Node3</title>
<g id="a_node3"><a xlink:title=" ">
<polygon fill="none" stroke="#bfbfbf" points="201.5,-0.5 201.5,-21.5 369.5,-21.5 369.5,-0.5 201.5,-0.5"/>
<text text-anchor="middle" x="285.5" y="-7.9" font-family="Helvetica,sans-Serif" font-size="12.00">QtWidgets/QMainWindow</text>
</a>
</g>
</g>
<!-- Node2&#45;&gt;Node3 -->
<g id="edge2" class="edge">
<title>Node2&#45;&gt;Node3</title>
<path fill="none" stroke="midnightblue" d="M119.88,-58.37C153.57,-48.94 205.05,-34.53 241.66,-24.27"/>
<polygon fill="midnightblue" stroke="midnightblue" points="242.88,-27.57 251.57,-21.5 240.99,-20.83 242.88,-27.57"/>
</g>
<!-- Node4 -->
<g id="node4" class="node">
<title>Node4</title>
<g id="a_node4"><a xlink:title=" ">
<polygon fill="none" stroke="#bfbfbf" points="0,-0.5 0,-21.5 171,-21.5 171,-0.5 0,-0.5"/>
<text text-anchor="middle" x="85.5" y="-7.9" font-family="Helvetica,sans-Serif" font-size="12.00">ui_MarkovPasswordsGUI.h</text>
</a>
</g>
</g>
<!-- Node2&#45;&gt;Node4 -->
<g id="edge3" class="edge">
<title>Node2&#45;&gt;Node4</title>
<path fill="none" stroke="midnightblue" d="M85.5,-58.25C85.5,-50.94 85.5,-40.69 85.5,-31.7"/>
<polygon fill="midnightblue" stroke="midnightblue" points="89,-31.64 85.5,-21.64 82,-31.64 89,-31.64"/>
</g>
<!-- Node7&#45;&gt;Node3 -->
<g id="edge7" class="edge">
<title>Node7&#45;&gt;Node3</title>
<path fill="none" stroke="midnightblue" d="M406.88,-58.88C383.29,-49.77 346.79,-35.67 319.97,-25.31"/>
<polygon fill="midnightblue" stroke="midnightblue" points="321.16,-22.02 310.57,-21.68 318.64,-28.55 321.16,-22.02"/>
</g>
<!-- Node8 -->
<g id="node8" class="node">
<title>Node8</title>
<g id="a_node8"><a xlink:title=" ">
<polygon fill="none" stroke="#bfbfbf" points="399,-0.5 399,-21.5 462,-21.5 462,-0.5 399,-0.5"/>
<text text-anchor="middle" x="430.5" y="-7.9" font-family="Helvetica,sans-Serif" font-size="12.00">ui_CLI.h</text>
</a>
</g>
</g>
<!-- Node7&#45;&gt;Node8 -->
<g id="edge8" class="edge">
<title>Node7&#45;&gt;Node8</title>
<path fill="none" stroke="midnightblue" d="M430.5,-58.25C430.5,-50.94 430.5,-40.69 430.5,-31.7"/>
<polygon fill="midnightblue" stroke="midnightblue" points="434,-31.64 430.5,-21.64 427,-31.64 434,-31.64"/>
</g>
</g>
</svg>
