<?xml version="1.0" encoding="UTF-8" standalone="no"?>
<!DOCTYPE svg PUBLIC "-//W3C//DTD SVG 1.1//EN"
 "http://www.w3.org/Graphics/SVG/1.1/DTD/svg11.dtd">
<!-- Generated by graphviz version 2.43.0 (0)
 -->
<!-- Title: Markopy/MarkovModel/src/pch.cpp Pages: 1 -->
<svg width="160pt" height="159pt"
 viewBox="0.00 0.00 160.00 159.00" xmlns="http://www.w3.org/2000/svg" xmlns:xlink="http://www.w3.org/1999/xlink">
<g id="graph0" class="graph" transform="scale(1 1) rotate(0) translate(4 155)">
<title>Markopy/MarkovModel/src/pch.cpp</title>
<!-- Node1 -->
<g id="node1" class="node">
<title>Node1</title>
<g id="a_node1"><a xlink:title="For windows dynamic library.">
<polygon fill="#bfbfbf" stroke="black" points="0,-116.5 0,-150.5 152,-150.5 152,-116.5 0,-116.5"/>
<text text-anchor="start" x="8" y="-136.9" font-family="Helvetica,sans-Serif" font-size="12.00">Markopy/MarkovModel</text>
<text text-anchor="middle" x="76" y="-123.9" font-family="Helvetica,sans-Serif" font-size="12.00">/src/pch.cpp</text>
</a>
</g>
</g>
<!-- Node2 -->
<g id="node2" class="node">
<title>Node2</title>
<g id="a_node2"><a xlink:href="_markov_model_2src_2pch_8h.html" target="_top" xlink:title="For windows dynamic library.">
<polygon fill="none" stroke="black" points="51,-58.5 51,-79.5 101,-79.5 101,-58.5 51,-58.5"/>
<text text-anchor="middle" x="76" y="-65.9" font-family="Helvetica,sans-Serif" font-size="12.00">pch.h</text>
</a>
</g>
</g>
<!-- Node1&#45;&gt;Node2 -->
<g id="edge1" class="edge">
<title>Node1&#45;&gt;Node2</title>
<path fill="none" stroke="midnightblue" d="M76,-116.4C76,-108.36 76,-98.54 76,-90.01"/>
<polygon fill="midnightblue" stroke="midnightblue" points="79.5,-89.8 76,-79.8 72.5,-89.8 79.5,-89.8"/>
</g>
<!-- Node3 -->
<g id="node3" class="node">
<title>Node3</title>
<g id="a_node3"><a xlink:href="framework_8h.html" target="_top" xlink:title="for windows dynamic library">
<polygon fill="none" stroke="black" points="29,-0.5 29,-21.5 123,-21.5 123,-0.5 29,-0.5"/>
<text text-anchor="middle" x="76" y="-7.9" font-family="Helvetica,sans-Serif" font-size="12.00">framework.h</text>
</a>
</g>
</g>
<!-- Node2&#45;&gt;Node3 -->
<g id="edge2" class="edge">
<title>Node2&#45;&gt;Node3</title>
<path fill="none" stroke="midnightblue" d="M76,-58.25C76,-50.94 76,-40.69 76,-31.7"/>
<polygon fill="midnightblue" stroke="midnightblue" points="79.5,-31.64 76,-21.64 72.5,-31.64 79.5,-31.64"/>
</g>
</g>
</svg>
