<?xml version="1.0" encoding="UTF-8" standalone="no"?>
<!DOCTYPE svg PUBLIC "-//W3C//DTD SVG 1.1//EN"
 "http://www.w3.org/Graphics/SVG/1.1/DTD/svg11.dtd">
<!-- Generated by graphviz version 2.43.0 (0)
 -->
<!-- Title: MarkovPasswordsGUI.h Pages: 1 -->
<svg width="389pt" height="88pt"
 viewBox="0.00 0.00 388.50 88.00" xmlns="http://www.w3.org/2000/svg" xmlns:xlink="http://www.w3.org/1999/xlink">
<g id="graph0" class="graph" transform="scale(1 1) rotate(0) translate(4 84)">
<title>MarkovPasswordsGUI.h</title>
<!-- Node1 -->
<g id="node1" class="node">
<title>Node1</title>
<g id="a_node1"><a xlink:title="Main activity page for GUI.">
<polygon fill="#bfbfbf" stroke="black" points="123.5,-58.5 123.5,-79.5 278.5,-79.5 278.5,-58.5 123.5,-58.5"/>
<text text-anchor="middle" x="201" y="-65.9" font-family="Helvetica,sans-Serif" font-size="12.00">MarkovPasswordsGUI.h</text>
</a>
</g>
</g>
<!-- Node2 -->
<g id="node2" class="node">
<title>Node2</title>
<g id="a_node2"><a xlink:href="_generate_8cpp.html" target="_top" xlink:title="Generation Page.">
<polygon fill="none" stroke="black" points="0,-0.5 0,-21.5 98,-21.5 98,-0.5 0,-0.5"/>
<text text-anchor="middle" x="49" y="-7.9" font-family="Helvetica,sans-Serif" font-size="12.00">Generate.cpp</text>
</a>
</g>
</g>
<!-- Node1&#45;&gt;Node2 -->
<g id="edge1" class="edge">
<title>Node1&#45;&gt;Node2</title>
<path fill="none" stroke="midnightblue" d="M165.14,-54.79C137.39,-44.56 99.62,-30.65 74.79,-21.5"/>
<polygon fill="midnightblue" stroke="midnightblue" points="164.28,-58.2 174.87,-58.37 166.7,-51.63 164.28,-58.2"/>
</g>
<!-- Node3 -->
<g id="node3" class="node">
<title>Node3</title>
<g id="a_node3"><a xlink:href="_markov_passwords_g_u_i_8cpp.html" target="_top" xlink:title="Main activity page for GUI.">
<polygon fill="none" stroke="black" points="116.5,-0.5 116.5,-21.5 285.5,-21.5 285.5,-0.5 116.5,-0.5"/>
<text text-anchor="middle" x="201" y="-7.9" font-family="Helvetica,sans-Serif" font-size="12.00">MarkovPasswordsGUI.cpp</text>
</a>
</g>
</g>
<!-- Node1&#45;&gt;Node3 -->
<g id="edge2" class="edge">
<title>Node1&#45;&gt;Node3</title>
<path fill="none" stroke="midnightblue" d="M201,-48.16C201,-39.16 201,-28.92 201,-21.64"/>
<polygon fill="midnightblue" stroke="midnightblue" points="197.5,-48.25 201,-58.25 204.5,-48.25 197.5,-48.25"/>
</g>
<!-- Node4 -->
<g id="node4" class="node">
<title>Node4</title>
<g id="a_node4"><a xlink:href="menu_8cpp.html" target="_top" xlink:title="menu page">
<polygon fill="none" stroke="black" points="303.5,-0.5 303.5,-21.5 380.5,-21.5 380.5,-0.5 303.5,-0.5"/>
<text text-anchor="middle" x="342" y="-7.9" font-family="Helvetica,sans-Serif" font-size="12.00">menu.cpp</text>
</a>
</g>
</g>
<!-- Node1&#45;&gt;Node4 -->
<g id="edge3" class="edge">
<title>Node1&#45;&gt;Node4</title>
<path fill="none" stroke="midnightblue" d="M234.6,-54.65C260.32,-44.44 295.15,-30.61 318.08,-21.5"/>
<polygon fill="midnightblue" stroke="midnightblue" points="233.24,-51.43 225.24,-58.37 235.82,-57.93 233.24,-51.43"/>
</g>
</g>
</svg>
