<?xml version="1.0" encoding="UTF-8" standalone="no"?>
<!DOCTYPE svg PUBLIC "-//W3C//DTD SVG 1.1//EN"
 "http://www.w3.org/Graphics/SVG/1.1/DTD/svg11.dtd">
<!-- Generated by graphviz version 2.43.0 (0)
 -->
<!-- Title: Markopy/MarkovPasswordsGUI/src/MarkovPasswordsGUI.h Pages: 1 -->
<svg width="366pt" height="101pt"
 viewBox="0.00 0.00 365.50 101.00" xmlns="http://www.w3.org/2000/svg" xmlns:xlink="http://www.w3.org/1999/xlink">
<g id="graph0" class="graph" transform="scale(1 1) rotate(0) translate(4 97)">
<title>Markopy/MarkovPasswordsGUI/src/MarkovPasswordsGUI.h</title>
<!-- Node1 -->
<g id="node1" class="node">
<title>Node1</title>
<g id="a_node1"><a xlink:title="Main activity page for GUI.">
<polygon fill="#bfbfbf" stroke="black" points="78.5,-58.5 78.5,-92.5 277.5,-92.5 277.5,-58.5 78.5,-58.5"/>
<text text-anchor="start" x="86.5" y="-78.9" font-family="Helvetica,sans-Serif" font-size="12.00">Markopy/MarkovPasswordsGUI</text>
<text text-anchor="middle" x="178" y="-65.9" font-family="Helvetica,sans-Serif" font-size="12.00">/src/MarkovPasswordsGUI.h</text>
</a>
</g>
</g>
<!-- Node2 -->
<g id="node2" class="node">
<title>Node2</title>
<g id="a_node2"><a xlink:title=" ">
<polygon fill="none" stroke="#bfbfbf" points="0,-0.5 0,-21.5 168,-21.5 168,-0.5 0,-0.5"/>
<text text-anchor="middle" x="84" y="-7.9" font-family="Helvetica,sans-Serif" font-size="12.00">QtWidgets/QMainWindow</text>
</a>
</g>
</g>
<!-- Node1&#45;&gt;Node2 -->
<g id="edge1" class="edge">
<title>Node1&#45;&gt;Node2</title>
<path fill="none" stroke="midnightblue" d="M153.79,-58.4C139.42,-48.85 121.31,-36.8 107.13,-27.38"/>
<polygon fill="midnightblue" stroke="midnightblue" points="108.73,-24.24 98.46,-21.62 104.85,-30.07 108.73,-24.24"/>
</g>
<!-- Node3 -->
<g id="node3" class="node">
<title>Node3</title>
<g id="a_node3"><a xlink:title=" ">
<polygon fill="none" stroke="#bfbfbf" points="186.5,-0.5 186.5,-21.5 357.5,-21.5 357.5,-0.5 186.5,-0.5"/>
<text text-anchor="middle" x="272" y="-7.9" font-family="Helvetica,sans-Serif" font-size="12.00">ui_MarkovPasswordsGUI.h</text>
</a>
</g>
</g>
<!-- Node1&#45;&gt;Node3 -->
<g id="edge2" class="edge">
<title>Node1&#45;&gt;Node3</title>
<path fill="none" stroke="midnightblue" d="M202.21,-58.4C216.58,-48.85 234.69,-36.8 248.87,-27.38"/>
<polygon fill="midnightblue" stroke="midnightblue" points="251.15,-30.07 257.54,-21.62 247.27,-24.24 251.15,-30.07"/>
</g>
</g>
</svg>
