<?xml version="1.0" encoding="UTF-8" standalone="no"?>
<!DOCTYPE svg PUBLIC "-//W3C//DTD SVG 1.1//EN"
 "http://www.w3.org/Graphics/SVG/1.1/DTD/svg11.dtd">
<!-- Generated by graphviz version 2.43.0 (0)
 -->
<!-- Title: main Pages: 1 -->
<!--zoomable 364 -->
<svg id="main" version="1.1" xmlns="http://www.w3.org/2000/svg" xmlns:xlink="http://www.w3.org/1999/xlink" xml:space="preserve" onload="init(evt)">
<style type="text/css"><![CDATA[
.edge:hover path { stroke: red; }
.edge:hover polygon { stroke: red; fill: red; }
]]></style>
<script type="text/javascript"><![CDATA[
var edges = document.getElementsByTagName('g');
if (edges && edges.length) {
  for (var i=0;i<edges.length;i++) {
    if (edges[i].id.substr(0,4)=='edge') {
      edges[i].setAttribute('class','edge');
    }
  }
}
]]></script>
        <defs>
                <circle id="rim" cx="0" cy="0" r="7"/>
                <circle id="rim2" cx="0" cy="0" r="3.5"/>
                <g id="zoomPlus">
                        <use xlink:href="#rim" fill="#404040">
                                <set attributeName="fill" to="#808080" begin="zoomplus.mouseover" end="zoomplus.mouseout"/>
                        </use>
                        <path d="M-4,0h8M0,-4v8" fill="none" stroke="white" stroke-width="1.5" pointer-events="none"/>
                </g>
                <g id="zoomMin">
                        <use xlink:href="#rim" fill="#404040">
                                <set attributeName="fill" to="#808080" begin="zoomminus.mouseover" end="zoomminus.mouseout"/>
                        </use>
                        <path d="M-4,0h8" fill="none" stroke="white" stroke-width="1.5" pointer-events="none"/>
                </g>
                <g id="dirArrow">
                        <path fill="none" stroke="white" stroke-width="1.5" d="M0,-3.0v7 M-2.5,-0.5L0,-3.0L2.5,-0.5"/>
                </g>
               <g id="resetDef">
                       <use xlink:href="#rim2" fill="#404040">
                               <set attributeName="fill" to="#808080" begin="reset.mouseover" end="reset.mouseout"/>
                       </use>
               </g>
        </defs>

<script type="text/javascript">
var viewWidth = 750;
var viewHeight = 364;
var sectionId = 'dynsection-1';
</script>
<script xlink:href="svgpan.js"/>
<svg id="graph" class="graph">
<g id="viewport">
<title>main</title>
<!-- Node1 -->
<g id="node1" class="node">
<title>Node1</title>
<g id="a_node1"><a xlink:title="Launch CLI tool.">
<polygon fill="#bfbfbf" stroke="black" points="0,-116.5 0,-137.5 47,-137.5 47,-116.5 0,-116.5"/>
<text text-anchor="middle" x="23.5" y="-123.9" font-family="Helvetica,sans-Serif" font-size="12.00">main</text>
</a>
</g>
</g>
<!-- Node2 -->
<g id="node2" class="node">
<title>Node2</title>
<g id="a_node2"><a xlink:href="class_markov_1_1_a_p_i_1_1_c_l_i_1_1_argparse.html#ade2af065fa284422883812389f3ad2d7" target="_top" xlink:title="Parse command line arguements.">
<polygon fill="none" stroke="black" points="83,-179 83,-213 259,-213 259,-179 83,-179"/>
<text text-anchor="start" x="91" y="-199.4" font-family="Helvetica,sans-Serif" font-size="12.00">Markov::API::CLI::Argparse</text>
<text text-anchor="middle" x="171" y="-186.4" font-family="Helvetica,sans-Serif" font-size="12.00">::Argparse</text>
</a>
</g>
</g>
<!-- Node1&#45;&gt;Node2 -->
<g id="edge1" class="edge">
<title>Node1&#45;&gt;Node2</title>
<path fill="none" stroke="midnightblue" d="M39.38,-137.65C50.91,-145.6 67.48,-156.35 83,-164 91.16,-168.03 99.96,-171.83 108.72,-175.32"/>
<polygon fill="midnightblue" stroke="midnightblue" points="107.59,-178.64 118.18,-178.98 110.11,-172.11 107.59,-178.64"/>
</g>
<!-- Node3 -->
<g id="node3" class="node">
<title>Node3</title>
<g id="a_node3"><a xlink:href="class_markov_1_1_a_p_i_1_1_markov_passwords.html#ad490665eae3beb022afc7e2491583d0a" target="_top" xlink:title="Buff expression of some characters in the model.">
<polygon fill="none" stroke="black" points="295,-217 295,-251 495,-251 495,-217 295,-217"/>
<text text-anchor="start" x="303" y="-237.4" font-family="Helvetica,sans-Serif" font-size="12.00">Markov::API::MarkovPasswords</text>
<text text-anchor="middle" x="395" y="-224.4" font-family="Helvetica,sans-Serif" font-size="12.00">::Buff</text>
</a>
</g>
</g>
<!-- Node1&#45;&gt;Node3 -->
<g id="edge2" class="edge">
<title>Node1&#45;&gt;Node3</title>
<path fill="none" stroke="midnightblue" d="M47.29,-129.18C89.77,-133.68 183.56,-145.67 259,-170 292.56,-180.83 328.56,-198.21 354.93,-212.12"/>
<polygon fill="midnightblue" stroke="midnightblue" points="353.37,-215.26 363.84,-216.89 356.67,-209.09 353.37,-215.26"/>
</g>
<!-- Node9 -->
<g id="node9" class="node">
<title>Node9</title>
<g id="a_node9"><a xlink:href="class_markov_1_1_model.html#af788426a3c41a7838a2aae199e8aef5b" target="_top" xlink:title="Open a file to export with filename, and call bool Model::Export with std::ofstream.">
<polygon fill="none" stroke="black" points="95.5,-46.5 95.5,-67.5 246.5,-67.5 246.5,-46.5 95.5,-46.5"/>
<text text-anchor="middle" x="171" y="-53.9" font-family="Helvetica,sans-Serif" font-size="12.00">Markov::Model::Export</text>
</a>
</g>
</g>
<!-- Node1&#45;&gt;Node9 -->
<g id="edge8" class="edge">
<title>Node1&#45;&gt;Node9</title>
<path fill="none" stroke="midnightblue" d="M34.22,-116.35C45.05,-105.14 63.6,-87.78 83,-78 88.55,-75.2 94.5,-72.76 100.57,-70.64"/>
<polygon fill="midnightblue" stroke="midnightblue" points="101.74,-73.94 110.2,-67.56 99.61,-67.28 101.74,-73.94"/>
</g>
<!-- Node10 -->
<g id="node10" class="node">
<title>Node10</title>
<g id="a_node10"><a xlink:href="class_markov_1_1_a_p_i_1_1_model_matrix.html#aeba8bb79aa4dc2cfeda310f34b7c9427" target="_top" xlink:title="Open a file to import with filename, and call bool Model::Import with std::ifstream.">
<polygon fill="none" stroke="black" points="86.5,-87 86.5,-121 255.5,-121 255.5,-87 86.5,-87"/>
<text text-anchor="start" x="94.5" y="-107.4" font-family="Helvetica,sans-Serif" font-size="12.00">Markov::API::ModelMatrix</text>
<text text-anchor="middle" x="171" y="-94.4" font-family="Helvetica,sans-Serif" font-size="12.00">::Import</text>
</a>
</g>
</g>
<!-- Node1&#45;&gt;Node10 -->
<g id="edge9" class="edge">
<title>Node1&#45;&gt;Node10</title>
<path fill="none" stroke="midnightblue" d="M47.23,-123.41C55.56,-122.09 65.57,-120.51 76.25,-118.82"/>
<polygon fill="midnightblue" stroke="midnightblue" points="76.87,-122.26 86.21,-117.25 75.78,-115.35 76.87,-122.26"/>
</g>
<!-- Node4 -->
<g id="node4" class="node">
<title>Node4</title>
<g id="a_node4"><a xlink:href="class_markov_1_1_edge.html#aa9d6cc6e631f1b515b4db604c96ad4ad" target="_top" xlink:title="Adjust the edge EdgeWeight with offset. Adds the offset parameter to the edge EdgeWeight.">
<polygon fill="none" stroke="black" points="550,-334.5 550,-355.5 723,-355.5 723,-334.5 550,-334.5"/>
<text text-anchor="middle" x="636.5" y="-341.9" font-family="Helvetica,sans-Serif" font-size="12.00">Markov::Edge::AdjustEdge</text>
</a>
</g>
</g>
<!-- Node3&#45;&gt;Node4 -->
<g id="edge3" class="edge">
<title>Node3&#45;&gt;Node4</title>
<path fill="none" stroke="midnightblue" d="M415.99,-251.34C441.09,-272.16 486.32,-306.57 531,-325 537.25,-327.58 543.86,-329.83 550.58,-331.79"/>
<polygon fill="midnightblue" stroke="midnightblue" points="549.92,-335.24 560.49,-334.47 551.75,-328.48 549.92,-335.24"/>
</g>
<!-- Node5 -->
<g id="node5" class="node">
<title>Node5</title>
<g id="a_node5"><a xlink:href="class_markov_1_1_node.html#ad404ccc317ef8413881b8d7b72b4f4f0" target="_top" xlink:title="return edges">
<polygon fill="none" stroke="black" points="565,-294.5 565,-315.5 708,-315.5 708,-294.5 565,-294.5"/>
<text text-anchor="middle" x="636.5" y="-301.9" font-family="Helvetica,sans-Serif" font-size="12.00">Markov::Node::Edges</text>
</a>
</g>
</g>
<!-- Node3&#45;&gt;Node5 -->
<g id="edge4" class="edge">
<title>Node3&#45;&gt;Node5</title>
<path fill="none" stroke="midnightblue" d="M435.56,-251.01C462.16,-261.93 498.21,-275.74 531,-285 540.6,-287.71 550.8,-290.17 560.92,-292.36"/>
<polygon fill="midnightblue" stroke="midnightblue" points="560.48,-295.84 570.99,-294.46 561.91,-288.99 560.48,-295.84"/>
</g>
<!-- Node6 -->
<g id="node6" class="node">
<title>Node6</title>
<g id="a_node6"><a xlink:href="class_markov_1_1_edge.html#a2b1e5a6e6f81502cd8ac6b20ed38b677" target="_top" xlink:title="return edge&#39;s EdgeWeight.">
<polygon fill="none" stroke="black" points="548.5,-160.5 548.5,-181.5 724.5,-181.5 724.5,-160.5 548.5,-160.5"/>
<text text-anchor="middle" x="636.5" y="-167.9" font-family="Helvetica,sans-Serif" font-size="12.00">Markov::Edge::EdgeWeight</text>
</a>
</g>
</g>
<!-- Node3&#45;&gt;Node6 -->
<g id="edge5" class="edge">
<title>Node3&#45;&gt;Node6</title>
<path fill="none" stroke="midnightblue" d="M444.65,-216.96C470.15,-208.42 502.03,-198.36 531,-191 541.55,-188.32 552.79,-185.81 563.83,-183.54"/>
<polygon fill="midnightblue" stroke="midnightblue" points="564.78,-186.92 573.89,-181.52 563.4,-180.06 564.78,-186.92"/>
</g>
<!-- Node7 -->
<g id="node7" class="node">
<title>Node7</title>
<g id="a_node7"><a xlink:href="class_markov_1_1_model.html#a71f6df805e340ce96e9dc4ee4ebc6537" target="_top" xlink:title="Return starter Node.">
<polygon fill="none" stroke="black" points="562,-200.5 562,-221.5 711,-221.5 711,-200.5 562,-200.5"/>
<text text-anchor="middle" x="636.5" y="-207.9" font-family="Helvetica,sans-Serif" font-size="12.00">Markov::Model::Nodes</text>
</a>
</g>
</g>
<!-- Node3&#45;&gt;Node7 -->
<g id="edge6" class="edge">
<title>Node3&#45;&gt;Node7</title>
<path fill="none" stroke="midnightblue" d="M495.14,-224.48C513.93,-222.68 533.41,-220.8 551.66,-219.05"/>
<polygon fill="midnightblue" stroke="midnightblue" points="552.05,-222.53 561.67,-218.09 551.38,-215.56 552.05,-222.53"/>
</g>
<!-- Node8 -->
<g id="node8" class="node">
<title>Node8</title>
<g id="a_node8"><a xlink:href="class_markov_1_1_model.html#adf22db37833ae6a4c707b446bef4359d" target="_top" xlink:title="Sort edges of all nodes in the model ordered by edge weights.">
<polygon fill="none" stroke="black" points="539,-241 539,-275 734,-275 734,-241 539,-241"/>
<text text-anchor="start" x="547" y="-261.4" font-family="Helvetica,sans-Serif" font-size="12.00">Markov::Model::OptimizeEdge</text>
<text text-anchor="middle" x="636.5" y="-248.4" font-family="Helvetica,sans-Serif" font-size="12.00">Order</text>
</a>
</g>
</g>
<!-- Node3&#45;&gt;Node8 -->
<g id="edge7" class="edge">
<title>Node3&#45;&gt;Node8</title>
<path fill="none" stroke="midnightblue" d="M495.14,-243.93C506.18,-245.04 517.45,-246.17 528.58,-247.29"/>
<polygon fill="midnightblue" stroke="midnightblue" points="528.45,-250.79 538.74,-248.3 529.14,-243.82 528.45,-250.79"/>
</g>
<!-- Node11 -->
<g id="node11" class="node">
<title>Node11</title>
<g id="a_node11"><a xlink:href="class_markov_1_1_a_p_i_1_1_model_matrix.html#aafb5809808b9b0450a0bc98740121b5f" target="_top" xlink:title="Construct the related Matrix data for the model.">
<polygon fill="none" stroke="black" points="310.5,-114 310.5,-148 479.5,-148 479.5,-114 310.5,-114"/>
<text text-anchor="start" x="318.5" y="-134.4" font-family="Helvetica,sans-Serif" font-size="12.00">Markov::API::ModelMatrix</text>
<text text-anchor="middle" x="395" y="-121.4" font-family="Helvetica,sans-Serif" font-size="12.00">::ConstructMatrix</text>
</a>
</g>
</g>
<!-- Node10&#45;&gt;Node11 -->
<g id="edge10" class="edge">
<title>Node10&#45;&gt;Node11</title>
<path fill="none" stroke="midnightblue" d="M255.61,-114.17C270.19,-115.94 285.45,-117.8 300.28,-119.6"/>
<polygon fill="midnightblue" stroke="midnightblue" points="300.11,-123.11 310.46,-120.84 300.96,-116.16 300.11,-123.11"/>
</g>
<!-- Node16 -->
<g id="node16" class="node">
<title>Node16</title>
<g id="a_node16"><a xlink:href="class_markov_1_1_a_p_i_1_1_model_matrix.html#a0f95257e1344225233ab49602cd9551c" target="_top" xlink:title="Deallocate matrix and make it ready for re&#45;construction.">
<polygon fill="none" stroke="black" points="310.5,-61 310.5,-95 479.5,-95 479.5,-61 310.5,-61"/>
<text text-anchor="start" x="318.5" y="-81.4" font-family="Helvetica,sans-Serif" font-size="12.00">Markov::API::ModelMatrix</text>
<text text-anchor="middle" x="395" y="-68.4" font-family="Helvetica,sans-Serif" font-size="12.00">::DeallocateMatrix</text>
</a>
</g>
</g>
<!-- Node10&#45;&gt;Node16 -->
<g id="edge17" class="edge">
<title>Node10&#45;&gt;Node16</title>
<path fill="none" stroke="midnightblue" d="M255.61,-94.21C270.19,-92.5 285.45,-90.71 300.28,-88.98"/>
<polygon fill="midnightblue" stroke="midnightblue" points="300.94,-92.42 310.46,-87.78 300.12,-85.47 300.94,-92.42"/>
</g>
<!-- Node17 -->
<g id="node17" class="node">
<title>Node17</title>
<g id="a_node17"><a xlink:href="class_markov_1_1_model.html#a3f872a3af96a91d4627c1a5d5e66b19a" target="_top" xlink:title="Open a file to import with filename, and call bool Model::Import with std::ifstream.">
<polygon fill="none" stroke="black" points="319,-20.5 319,-41.5 471,-41.5 471,-20.5 319,-20.5"/>
<text text-anchor="middle" x="395" y="-27.9" font-family="Helvetica,sans-Serif" font-size="12.00">Markov::Model::Import</text>
</a>
</g>
</g>
<!-- Node10&#45;&gt;Node17 -->
<g id="edge18" class="edge">
<title>Node10&#45;&gt;Node17</title>
<path fill="none" stroke="midnightblue" d="M235.15,-86.93C243.32,-83.99 251.47,-80.68 259,-77 276.51,-68.46 277.12,-59.73 295,-52 301.9,-49.02 309.25,-46.45 316.72,-44.23"/>
<polygon fill="midnightblue" stroke="midnightblue" points="317.86,-47.55 326.57,-41.52 316,-40.8 317.86,-47.55"/>
</g>
<!-- Node11&#45;&gt;Node6 -->
<g id="edge11" class="edge">
<title>Node11&#45;&gt;Node6</title>
<path fill="none" stroke="midnightblue" d="M479.77,-144.99C506.68,-149.48 536.27,-154.43 562.35,-158.78"/>
<polygon fill="midnightblue" stroke="midnightblue" points="562.1,-162.29 572.54,-160.49 563.26,-155.39 562.1,-162.29"/>
</g>
<!-- Node11&#45;&gt;Node7 -->
<g id="edge12" class="edge">
<title>Node11&#45;&gt;Node7</title>
<path fill="none" stroke="midnightblue" d="M428.74,-148.1C455.58,-161.49 494.9,-179.69 531,-191 539.67,-193.72 548.87,-196.13 558.08,-198.25"/>
<polygon fill="midnightblue" stroke="midnightblue" points="557.52,-201.71 568.04,-200.44 559.02,-194.88 557.52,-201.71"/>
</g>
<!-- Node12 -->
<g id="node12" class="node">
<title>Node12</title>
<g id="a_node12"><a xlink:href="class_markov_1_1_node.html#ac7cce56376f2a00764f64a0194cbb498" target="_top" xlink:title="Return character representation of this node.">
<polygon fill="none" stroke="black" points="551,-0.5 551,-21.5 722,-21.5 722,-0.5 551,-0.5"/>
<text text-anchor="middle" x="636.5" y="-7.9" font-family="Helvetica,sans-Serif" font-size="12.00">Markov::Node::NodeValue</text>
</a>
</g>
</g>
<!-- Node11&#45;&gt;Node12 -->
<g id="edge13" class="edge">
<title>Node11&#45;&gt;Node12</title>
<path fill="none" stroke="midnightblue" d="M479.69,-114.9C485.15,-112.11 490.33,-108.83 495,-105 523.27,-81.79 501.96,-53.24 531,-31 534.38,-28.41 538,-26.12 541.79,-24.11"/>
<polygon fill="midnightblue" stroke="midnightblue" points="543.31,-27.26 550.91,-19.88 540.36,-20.91 543.31,-27.26"/>
</g>
<!-- Node13 -->
<g id="node13" class="node">
<title>Node13</title>
<g id="a_node13"><a xlink:href="class_markov_1_1_edge.html#a2e7d14e46631c85c84f6f8f1dd2949cd" target="_top" xlink:title="return edge&#39;s RightNode">
<polygon fill="none" stroke="black" points="552.5,-120.5 552.5,-141.5 720.5,-141.5 720.5,-120.5 552.5,-120.5"/>
<text text-anchor="middle" x="636.5" y="-127.9" font-family="Helvetica,sans-Serif" font-size="12.00">Markov::Edge::RightNode</text>
</a>
</g>
</g>
<!-- Node11&#45;&gt;Node13 -->
<g id="edge14" class="edge">
<title>Node11&#45;&gt;Node13</title>
<path fill="none" stroke="midnightblue" d="M479.77,-131C499.94,-131 521.61,-131 542.18,-131"/>
<polygon fill="midnightblue" stroke="midnightblue" points="542.19,-134.5 552.19,-131 542.19,-127.5 542.19,-134.5"/>
</g>
<!-- Node14 -->
<g id="node14" class="node">
<title>Node14</title>
<g id="a_node14"><a xlink:href="class_markov_1_1_model.html#a35cb15a14d034f3365b9d2d3efa1ffc0" target="_top" xlink:title="Return starter Node.">
<polygon fill="none" stroke="black" points="544,-80.5 544,-101.5 729,-101.5 729,-80.5 544,-80.5"/>
<text text-anchor="middle" x="636.5" y="-87.9" font-family="Helvetica,sans-Serif" font-size="12.00">Markov::Model::StarterNode</text>
</a>
</g>
</g>
<!-- Node11&#45;&gt;Node14 -->
<g id="edge15" class="edge">
<title>Node11&#45;&gt;Node14</title>
<path fill="none" stroke="midnightblue" d="M479.77,-117.01C506.68,-112.52 536.27,-107.57 562.35,-103.22"/>
<polygon fill="midnightblue" stroke="midnightblue" points="563.26,-106.61 572.54,-101.51 562.1,-99.71 563.26,-106.61"/>
</g>
<!-- Node15 -->
<g id="node15" class="node">
<title>Node15</title>
<g id="a_node15"><a xlink:href="class_markov_1_1_node.html#a60166d8f501c016de104f48e46bff223" target="_top" xlink:title="return total edge weights">
<polygon fill="none" stroke="black" points="531,-40.5 531,-61.5 742,-61.5 742,-40.5 531,-40.5"/>
<text text-anchor="middle" x="636.5" y="-47.9" font-family="Helvetica,sans-Serif" font-size="12.00">Markov::Node::TotalEdgeWeights</text>
</a>
</g>
</g>
<!-- Node11&#45;&gt;Node15 -->
<g id="edge16" class="edge">
<title>Node11&#45;&gt;Node15</title>
<path fill="none" stroke="midnightblue" d="M475.49,-113.98C482.26,-111.38 488.86,-108.41 495,-105 514.24,-94.32 511.41,-81.03 531,-71 535.56,-68.67 540.36,-66.6 545.29,-64.78"/>
<polygon fill="midnightblue" stroke="midnightblue" points="546.53,-68.06 554.91,-61.56 544.31,-61.42 546.53,-68.06"/>
</g>
</g>
</svg>
        <g id="navigator" transform="translate(0 0)" fill="#404254">
                <rect fill="#f2f5e9" fill-opacity="0.5" stroke="#606060" stroke-width=".5" x="0" y="0" width="60" height="60"/>
                <use id="zoomplus" xlink:href="#zoomPlus" x="17" y="9" onmousedown="handleZoom(evt,'in')"/>
                <use id="zoomminus" xlink:href="#zoomMin" x="42" y="9" onmousedown="handleZoom(evt,'out')"/>
                <use id="reset" xlink:href="#resetDef" x="30" y="36" onmousedown="handleReset()"/>
                <g id="arrowUp" xlink:href="#dirArrow" transform="translate(30 24)" onmousedown="handlePan(0,-1)">
                  <use xlink:href="#rim" fill="#404040">
                        <set attributeName="fill" to="#808080" begin="arrowUp.mouseover" end="arrowUp.mouseout"/>
                  </use>
                  <path fill="none" stroke="white" stroke-width="1.5" d="M0,-3.0v7 M-2.5,-0.5L0,-3.0L2.5,-0.5"/>
                </g>
                <g id="arrowRight" xlink:href="#dirArrow" transform="rotate(90) translate(36 -43)" onmousedown="handlePan(1,0)">
                  <use xlink:href="#rim" fill="#404040">
                        <set attributeName="fill" to="#808080" begin="arrowRight.mouseover" end="arrowRight.mouseout"/>
                  </use>
                  <path fill="none" stroke="white" stroke-width="1.5" d="M0,-3.0v7 M-2.5,-0.5L0,-3.0L2.5,-0.5"/>
                </g>
                <g id="arrowDown" xlink:href="#dirArrow" transform="rotate(180) translate(-30 -48)" onmousedown="handlePan(0,1)">
                  <use xlink:href="#rim" fill="#404040">
                        <set attributeName="fill" to="#808080" begin="arrowDown.mouseover" end="arrowDown.mouseout"/>
                  </use>
                  <path fill="none" stroke="white" stroke-width="1.5" d="M0,-3.0v7 M-2.5,-0.5L0,-3.0L2.5,-0.5"/>
                </g>
                <g id="arrowLeft" xlink:href="#dirArrow" transform="rotate(270) translate(-36 17)" onmousedown="handlePan(-1,0)">
                  <use xlink:href="#rim" fill="#404040">
                        <set attributeName="fill" to="#808080" begin="arrowLeft.mouseover" end="arrowLeft.mouseout"/>
                  </use>
                  <path fill="none" stroke="white" stroke-width="1.5" d="M0,-3.0v7 M-2.5,-0.5L0,-3.0L2.5,-0.5"/>
                </g>
        </g>
        <svg viewBox="0 0 15 15" width="100%" height="30px" preserveAspectRatio="xMaxYMin meet">
         <g id="arrow_out" transform="scale(0.3 0.3)">
          <a xlink:href="_markov_a_p_i_c_l_i_2src_2main_8cpp_a3c04138a5bfe5d72780bb7e82a18e627_cgraph_org.svg" target="_base">
           <rect id="button" ry="5" rx="5" y="6" x="6" height="38" width="38"
                fill="#f2f5e9" fill-opacity="0.5" stroke="#606060" stroke-width="1.0"/>
           <path id="arrow"
             d="M 11.500037,31.436501 C 11.940474,20.09759 22.043105,11.32322 32.158766,21.979434 L 37.068811,17.246167 C 37.068811,17.246167 37.088388,32 37.088388,32 L 22.160133,31.978069 C 22.160133,31.978069 26.997745,27.140456 26.997745,27.140456 C 18.528582,18.264221 13.291696,25.230495 11.500037,31.436501 z"
             style="fill:#404040;"/>
          </a>
         </g>
        </svg>
</svg>
