<?xml version="1.0" encoding="UTF-8" standalone="no"?>
<!DOCTYPE svg PUBLIC "-//W3C//DTD SVG 1.1//EN"
 "http://www.w3.org/Graphics/SVG/1.1/DTD/svg11.dtd">
<!-- Generated by graphviz version 2.43.0 (0)
 -->
<!-- Title: MarkovPasswordsGUI.cpp Pages: 1 -->
<svg width="589pt" height="146pt"
 viewBox="0.00 0.00 588.50 146.00" xmlns="http://www.w3.org/2000/svg" xmlns:xlink="http://www.w3.org/1999/xlink">
<g id="graph0" class="graph" transform="scale(1 1) rotate(0) translate(4 142)">
<title>MarkovPasswordsGUI.cpp</title>
<!-- Node1 -->
<g id="node1" class="node">
<title>Node1</title>
<g id="a_node1"><a xlink:title=" ">
<polygon fill="#bfbfbf" stroke="black" points="276.5,-116.5 276.5,-137.5 445.5,-137.5 445.5,-116.5 276.5,-116.5"/>
<text text-anchor="middle" x="361" y="-123.9" font-family="Helvetica,sans-Serif" font-size="12.00">MarkovPasswordsGUI.cpp</text>
</a>
</g>
</g>
<!-- Node2 -->
<g id="node2" class="node">
<title>Node2</title>
<g id="a_node2"><a xlink:href="_markov_passwords_g_u_i_8h.html" target="_top" xlink:title=" ">
<polygon fill="none" stroke="black" points="100.5,-58.5 100.5,-79.5 255.5,-79.5 255.5,-58.5 100.5,-58.5"/>
<text text-anchor="middle" x="178" y="-65.9" font-family="Helvetica,sans-Serif" font-size="12.00">MarkovPasswordsGUI.h</text>
</a>
</g>
</g>
<!-- Node1&#45;&gt;Node2 -->
<g id="edge1" class="edge">
<title>Node1&#45;&gt;Node2</title>
<path fill="none" stroke="midnightblue" d="M329.54,-116.37C298.98,-107.02 252.42,-92.77 218.97,-82.54"/>
<polygon fill="midnightblue" stroke="midnightblue" points="219.63,-79.08 209.05,-79.5 217.59,-85.77 219.63,-79.08"/>
</g>
<!-- Node5 -->
<g id="node5" class="node">
<title>Node5</title>
<g id="a_node5"><a xlink:title=" ">
<polygon fill="none" stroke="#bfbfbf" points="273.5,-58.5 273.5,-79.5 336.5,-79.5 336.5,-58.5 273.5,-58.5"/>
<text text-anchor="middle" x="305" y="-65.9" font-family="Helvetica,sans-Serif" font-size="12.00">fstream</text>
</a>
</g>
</g>
<!-- Node1&#45;&gt;Node5 -->
<g id="edge4" class="edge">
<title>Node1&#45;&gt;Node5</title>
<path fill="none" stroke="midnightblue" d="M351.25,-116.25C343.14,-108.14 331.41,-96.41 321.79,-86.79"/>
<polygon fill="midnightblue" stroke="midnightblue" points="324.19,-84.24 314.64,-79.64 319.24,-89.19 324.19,-84.24"/>
</g>
<!-- Node6 -->
<g id="node6" class="node">
<title>Node6</title>
<g id="a_node6"><a xlink:title=" ">
<polygon fill="none" stroke="#bfbfbf" points="355,-58.5 355,-79.5 481,-79.5 481,-58.5 355,-58.5"/>
<text text-anchor="middle" x="418" y="-65.9" font-family="Helvetica,sans-Serif" font-size="12.00">qwebengineview.h</text>
</a>
</g>
</g>
<!-- Node1&#45;&gt;Node6 -->
<g id="edge5" class="edge">
<title>Node1&#45;&gt;Node6</title>
<path fill="none" stroke="midnightblue" d="M370.93,-116.25C379.18,-108.14 391.12,-96.41 400.91,-86.79"/>
<polygon fill="midnightblue" stroke="midnightblue" points="403.5,-89.15 408.19,-79.64 398.6,-84.15 403.5,-89.15"/>
</g>
<!-- Node7 -->
<g id="node7" class="node">
<title>Node7</title>
<g id="a_node7"><a xlink:title=" ">
<polygon fill="none" stroke="#bfbfbf" points="499.5,-58.5 499.5,-79.5 580.5,-79.5 580.5,-58.5 499.5,-58.5"/>
<text text-anchor="middle" x="540" y="-65.9" font-family="Helvetica,sans-Serif" font-size="12.00">Windows.h</text>
</a>
</g>
</g>
<!-- Node1&#45;&gt;Node7 -->
<g id="edge6" class="edge">
<title>Node1&#45;&gt;Node7</title>
<path fill="none" stroke="midnightblue" d="M391.77,-116.37C421.67,-107.02 467.21,-92.77 499.92,-82.54"/>
<polygon fill="midnightblue" stroke="midnightblue" points="501.13,-85.83 509.63,-79.5 499.04,-79.15 501.13,-85.83"/>
</g>
<!-- Node3 -->
<g id="node3" class="node">
<title>Node3</title>
<g id="a_node3"><a xlink:title=" ">
<polygon fill="none" stroke="#bfbfbf" points="0,-0.5 0,-21.5 168,-21.5 168,-0.5 0,-0.5"/>
<text text-anchor="middle" x="84" y="-7.9" font-family="Helvetica,sans-Serif" font-size="12.00">QtWidgets/QMainWindow</text>
</a>
</g>
</g>
<!-- Node2&#45;&gt;Node3 -->
<g id="edge2" class="edge">
<title>Node2&#45;&gt;Node3</title>
<path fill="none" stroke="midnightblue" d="M161.63,-58.25C147.07,-49.57 125.57,-36.76 108.88,-26.82"/>
<polygon fill="midnightblue" stroke="midnightblue" points="110.57,-23.75 100.19,-21.64 106.99,-29.77 110.57,-23.75"/>
</g>
<!-- Node4 -->
<g id="node4" class="node">
<title>Node4</title>
<g id="a_node4"><a xlink:title=" ">
<polygon fill="none" stroke="#bfbfbf" points="186.5,-0.5 186.5,-21.5 357.5,-21.5 357.5,-0.5 186.5,-0.5"/>
<text text-anchor="middle" x="272" y="-7.9" font-family="Helvetica,sans-Serif" font-size="12.00">ui_MarkovPasswordsGUI.h</text>
</a>
</g>
</g>
<!-- Node2&#45;&gt;Node4 -->
<g id="edge3" class="edge">
<title>Node2&#45;&gt;Node4</title>
<path fill="none" stroke="midnightblue" d="M194.37,-58.25C208.93,-49.57 230.43,-36.76 247.12,-26.82"/>
<polygon fill="midnightblue" stroke="midnightblue" points="249.01,-29.77 255.81,-21.64 245.43,-23.75 249.01,-29.77"/>
</g>
</g>
</svg>
