<?xml version="1.0" encoding="UTF-8" standalone="no"?>
<!DOCTYPE svg PUBLIC "-//W3C//DTD SVG 1.1//EN"
 "http://www.w3.org/Graphics/SVG/1.1/DTD/svg11.dtd">
<!-- Generated by graphviz version 2.43.0 (0)
 -->
<!-- Title: pch.cpp Pages: 1 -->
<svg width="102pt" height="146pt"
 viewBox="0.00 0.00 102.00 146.00" xmlns="http://www.w3.org/2000/svg" xmlns:xlink="http://www.w3.org/1999/xlink">
<g id="graph0" class="graph" transform="scale(1 1) rotate(0) translate(4 142)">
<title>pch.cpp</title>
<!-- Node1 -->
<g id="node1" class="node">
<title>Node1</title>
<g id="a_node1"><a xlink:title="For windows dynamic library.">
<polygon fill="#bfbfbf" stroke="black" points="15,-116.5 15,-137.5 79,-137.5 79,-116.5 15,-116.5"/>
<text text-anchor="middle" x="47" y="-123.9" font-family="Helvetica,sans-Serif" font-size="12.00">pch.cpp</text>
</a>
</g>
</g>
<!-- Node2 -->
<g id="node2" class="node">
<title>Node2</title>
<g id="a_node2"><a xlink:href="_markov_model_2src_2pch_8h.html" target="_top" xlink:title="For windows dynamic library.">
<polygon fill="none" stroke="black" points="22,-58.5 22,-79.5 72,-79.5 72,-58.5 22,-58.5"/>
<text text-anchor="middle" x="47" y="-65.9" font-family="Helvetica,sans-Serif" font-size="12.00">pch.h</text>
</a>
</g>
</g>
<!-- Node1&#45;&gt;Node2 -->
<g id="edge1" class="edge">
<title>Node1&#45;&gt;Node2</title>
<path fill="none" stroke="midnightblue" d="M47,-116.25C47,-108.94 47,-98.69 47,-89.7"/>
<polygon fill="midnightblue" stroke="midnightblue" points="50.5,-89.64 47,-79.64 43.5,-89.64 50.5,-89.64"/>
</g>
<!-- Node3 -->
<g id="node3" class="node">
<title>Node3</title>
<g id="a_node3"><a xlink:href="framework_8h.html" target="_top" xlink:title="for windows dynamic library">
<polygon fill="none" stroke="black" points="0,-0.5 0,-21.5 94,-21.5 94,-0.5 0,-0.5"/>
<text text-anchor="middle" x="47" y="-7.9" font-family="Helvetica,sans-Serif" font-size="12.00">framework.h</text>
</a>
</g>
</g>
<!-- Node2&#45;&gt;Node3 -->
<g id="edge2" class="edge">
<title>Node2&#45;&gt;Node3</title>
<path fill="none" stroke="midnightblue" d="M47,-58.25C47,-50.94 47,-40.69 47,-31.7"/>
<polygon fill="midnightblue" stroke="midnightblue" points="50.5,-31.64 47,-21.64 43.5,-31.64 50.5,-31.64"/>
</g>
</g>
</svg>
