<?xml version="1.0" encoding="UTF-8" standalone="no"?>
<!DOCTYPE svg PUBLIC "-//W3C//DTD SVG 1.1//EN"
 "http://www.w3.org/Graphics/SVG/1.1/DTD/svg11.dtd">
<!-- Generated by graphviz version 2.43.0 (0)
 -->
<!-- Title: Markopy/MarkovPasswordsGUI/src/main.cpp Pages: 1 -->
<svg width="555pt" height="159pt"
 viewBox="0.00 0.00 555.00 159.00" xmlns="http://www.w3.org/2000/svg" xmlns:xlink="http://www.w3.org/1999/xlink">
<g id="graph0" class="graph" transform="scale(1 1) rotate(0) translate(4 155)">
<title>Markopy/MarkovPasswordsGUI/src/main.cpp</title>
<!-- Node1 -->
<g id="node1" class="node">
<title>Node1</title>
<g id="a_node1"><a xlink:title="Entry point for GUI.">
<polygon fill="#bfbfbf" stroke="black" points="218,-116.5 218,-150.5 417,-150.5 417,-116.5 218,-116.5"/>
<text text-anchor="start" x="226" y="-136.9" font-family="Helvetica,sans-Serif" font-size="12.00">Markopy/MarkovPasswordsGUI</text>
<text text-anchor="middle" x="317.5" y="-123.9" font-family="Helvetica,sans-Serif" font-size="12.00">/src/main.cpp</text>
</a>
</g>
</g>
<!-- Node2 -->
<g id="node2" class="node">
<title>Node2</title>
<g id="a_node2"><a xlink:href="menu_8h.html" target="_top" xlink:title="menu page">
<polygon fill="none" stroke="black" points="8.5,-58.5 8.5,-79.5 70.5,-79.5 70.5,-58.5 8.5,-58.5"/>
<text text-anchor="middle" x="39.5" y="-65.9" font-family="Helvetica,sans-Serif" font-size="12.00">menu.h</text>
</a>
</g>
</g>
<!-- Node1&#45;&gt;Node2 -->
<g id="edge1" class="edge">
<title>Node1&#45;&gt;Node2</title>
<path fill="none" stroke="midnightblue" d="M242.34,-116.48C197.92,-106.88 140.32,-94.21 80.87,-80.28"/>
<polygon fill="midnightblue" stroke="midnightblue" points="81.46,-76.82 70.92,-77.94 79.86,-83.64 81.46,-76.82"/>
</g>
<!-- Node5 -->
<g id="node5" class="node">
<title>Node5</title>
<g id="a_node5"><a xlink:title=" ">
<polygon fill="none" stroke="#bfbfbf" points="88.5,-58.5 88.5,-79.5 246.5,-79.5 246.5,-58.5 88.5,-58.5"/>
<text text-anchor="middle" x="167.5" y="-65.9" font-family="Helvetica,sans-Serif" font-size="12.00">QtWidgets/QApplication</text>
</a>
</g>
</g>
<!-- Node1&#45;&gt;Node5 -->
<g id="edge4" class="edge">
<title>Node1&#45;&gt;Node5</title>
<path fill="none" stroke="midnightblue" d="M278.87,-116.4C254.41,-106.21 223.15,-93.19 199.97,-83.53"/>
<polygon fill="midnightblue" stroke="midnightblue" points="201.16,-80.23 190.58,-79.62 198.47,-86.69 201.16,-80.23"/>
</g>
<!-- Node6 -->
<g id="node6" class="node">
<title>Node6</title>
<g id="a_node6"><a xlink:title=" ">
<polygon fill="none" stroke="#bfbfbf" points="264,-58.5 264,-79.5 371,-79.5 371,-58.5 264,-58.5"/>
<text text-anchor="middle" x="317.5" y="-65.9" font-family="Helvetica,sans-Serif" font-size="12.00">QSplashScreen</text>
</a>
</g>
</g>
<!-- Node1&#45;&gt;Node6 -->
<g id="edge5" class="edge">
<title>Node1&#45;&gt;Node6</title>
<path fill="none" stroke="midnightblue" d="M317.5,-116.4C317.5,-108.36 317.5,-98.54 317.5,-90.01"/>
<polygon fill="midnightblue" stroke="midnightblue" points="321,-89.8 317.5,-79.8 314,-89.8 321,-89.8"/>
</g>
<!-- Node7 -->
<g id="node7" class="node">
<title>Node7</title>
<g id="a_node7"><a xlink:title=" ">
<polygon fill="none" stroke="#bfbfbf" points="389,-58.5 389,-79.5 474,-79.5 474,-58.5 389,-58.5"/>
<text text-anchor="middle" x="431.5" y="-65.9" font-family="Helvetica,sans-Serif" font-size="12.00">QDateTime</text>
</a>
</g>
</g>
<!-- Node1&#45;&gt;Node7 -->
<g id="edge6" class="edge">
<title>Node1&#45;&gt;Node7</title>
<path fill="none" stroke="midnightblue" d="M346.86,-116.4C364.78,-106.58 387.52,-94.11 404.91,-84.58"/>
<polygon fill="midnightblue" stroke="midnightblue" points="406.87,-87.49 413.96,-79.62 403.51,-81.36 406.87,-87.49"/>
</g>
<!-- Node8 -->
<g id="node8" class="node">
<title>Node8</title>
<g id="a_node8"><a xlink:href="_c_l_i_8h.html" target="_top" xlink:title="CLI page.">
<polygon fill="none" stroke="black" points="492,-58.5 492,-79.5 539,-79.5 539,-58.5 492,-58.5"/>
<text text-anchor="middle" x="515.5" y="-65.9" font-family="Helvetica,sans-Serif" font-size="12.00">CLI.h</text>
</a>
</g>
</g>
<!-- Node1&#45;&gt;Node8 -->
<g id="edge7" class="edge">
<title>Node1&#45;&gt;Node8</title>
<path fill="none" stroke="midnightblue" d="M368.23,-116.49C403.95,-105.21 450.77,-90.43 481.93,-80.6"/>
<polygon fill="midnightblue" stroke="midnightblue" points="483.38,-83.81 491.86,-77.46 481.27,-77.13 483.38,-83.81"/>
</g>
<!-- Node3 -->
<g id="node3" class="node">
<title>Node3</title>
<g id="a_node3"><a xlink:title=" ">
<polygon fill="none" stroke="#bfbfbf" points="197.5,-0.5 197.5,-21.5 365.5,-21.5 365.5,-0.5 197.5,-0.5"/>
<text text-anchor="middle" x="281.5" y="-7.9" font-family="Helvetica,sans-Serif" font-size="12.00">QtWidgets/QMainWindow</text>
</a>
</g>
</g>
<!-- Node2&#45;&gt;Node3 -->
<g id="edge2" class="edge">
<title>Node2&#45;&gt;Node3</title>
<path fill="none" stroke="midnightblue" d="M70.93,-60.08C73.82,-59.37 76.72,-58.67 79.5,-58 129.97,-45.95 187.71,-32.87 228.5,-23.75"/>
<polygon fill="midnightblue" stroke="midnightblue" points="229.49,-27.11 238.49,-21.52 227.96,-20.28 229.49,-27.11"/>
</g>
<!-- Node4 -->
<g id="node4" class="node">
<title>Node4</title>
<g id="a_node4"><a xlink:title=" ">
<polygon fill="none" stroke="#bfbfbf" points="0,-0.5 0,-21.5 79,-21.5 79,-0.5 0,-0.5"/>
<text text-anchor="middle" x="39.5" y="-7.9" font-family="Helvetica,sans-Serif" font-size="12.00">ui_menu.h</text>
</a>
</g>
</g>
<!-- Node2&#45;&gt;Node4 -->
<g id="edge3" class="edge">
<title>Node2&#45;&gt;Node4</title>
<path fill="none" stroke="midnightblue" d="M39.5,-58.25C39.5,-50.94 39.5,-40.69 39.5,-31.7"/>
<polygon fill="midnightblue" stroke="midnightblue" points="43,-31.64 39.5,-21.64 36,-31.64 43,-31.64"/>
</g>
<!-- Node8&#45;&gt;Node3 -->
<g id="edge8" class="edge">
<title>Node8&#45;&gt;Node3</title>
<path fill="none" stroke="midnightblue" d="M491.8,-60.36C489.01,-59.53 486.2,-58.73 483.5,-58 434.84,-44.88 378.93,-32.34 338.28,-23.68"/>
<polygon fill="midnightblue" stroke="midnightblue" points="338.8,-20.21 328.29,-21.56 337.35,-27.06 338.8,-20.21"/>
</g>
<!-- Node9 -->
<g id="node9" class="node">
<title>Node9</title>
<g id="a_node9"><a xlink:title=" ">
<polygon fill="none" stroke="#bfbfbf" points="484,-0.5 484,-21.5 547,-21.5 547,-0.5 484,-0.5"/>
<text text-anchor="middle" x="515.5" y="-7.9" font-family="Helvetica,sans-Serif" font-size="12.00">ui_CLI.h</text>
</a>
</g>
</g>
<!-- Node8&#45;&gt;Node9 -->
<g id="edge9" class="edge">
<title>Node8&#45;&gt;Node9</title>
<path fill="none" stroke="midnightblue" d="M515.5,-58.25C515.5,-50.94 515.5,-40.69 515.5,-31.7"/>
<polygon fill="midnightblue" stroke="midnightblue" points="519,-31.64 515.5,-21.64 512,-31.64 519,-31.64"/>
</g>
</g>
</svg>
