<?xml version="1.0" encoding="UTF-8" standalone="no"?>
<!DOCTYPE svg PUBLIC "-//W3C//DTD SVG 1.1//EN"
 "http://www.w3.org/Graphics/SVG/1.1/DTD/svg11.dtd">
<!-- Generated by graphviz version 2.43.0 (0)
 -->
<!-- Title: MarkovPasswordsGUI.cpp Pages: 1 -->
<svg width="569pt" height="146pt"
 viewBox="0.00 0.00 569.00 146.00" xmlns="http://www.w3.org/2000/svg" xmlns:xlink="http://www.w3.org/1999/xlink">
<g id="graph0" class="graph" transform="scale(1 1) rotate(0) translate(4 142)">
<title>MarkovPasswordsGUI.cpp</title>
<!-- Node1 -->
<g id="node1" class="node">
<title>Node1</title>
<g id="a_node1"><a xlink:title=" ">
<polygon fill="#bfbfbf" stroke="black" points="241,-116.5 241,-137.5 410,-137.5 410,-116.5 241,-116.5"/>
<text text-anchor="middle" x="325.5" y="-123.9" font-family="Helvetica,sans-Serif" font-size="12.00">MarkovPasswordsGUI.cpp</text>
</a>
</g>
</g>
<!-- Node2 -->
<g id="node2" class="node">
<title>Node2</title>
<g id="a_node2"><a xlink:href="_markov_passwords_g_u_i_8h.html" target="_top" xlink:title=" ">
<polygon fill="none" stroke="black" points="8,-58.5 8,-79.5 163,-79.5 163,-58.5 8,-58.5"/>
<text text-anchor="middle" x="85.5" y="-65.9" font-family="Helvetica,sans-Serif" font-size="12.00">MarkovPasswordsGUI.h</text>
</a>
</g>
</g>
<!-- Node1&#45;&gt;Node2 -->
<g id="edge1" class="edge">
<title>Node1&#45;&gt;Node2</title>
<path fill="none" stroke="midnightblue" d="M284.52,-116.44C243.53,-106.87 180.4,-92.14 136.26,-81.85"/>
<polygon fill="midnightblue" stroke="midnightblue" points="136.85,-78.39 126.32,-79.52 135.26,-85.2 136.85,-78.39"/>
</g>
<!-- Node5 -->
<g id="node5" class="node">
<title>Node5</title>
<g id="a_node5"><a xlink:title=" ">
<polygon fill="none" stroke="#bfbfbf" points="181,-58.5 181,-79.5 244,-79.5 244,-58.5 181,-58.5"/>
<text text-anchor="middle" x="212.5" y="-65.9" font-family="Helvetica,sans-Serif" font-size="12.00">fstream</text>
</a>
</g>
</g>
<!-- Node1&#45;&gt;Node5 -->
<g id="edge4" class="edge">
<title>Node1&#45;&gt;Node5</title>
<path fill="none" stroke="midnightblue" d="M306.07,-116.37C288.1,-107.46 261.16,-94.11 240.79,-84.02"/>
<polygon fill="midnightblue" stroke="midnightblue" points="242.19,-80.81 231.67,-79.5 239.08,-87.08 242.19,-80.81"/>
</g>
<!-- Node6 -->
<g id="node6" class="node">
<title>Node6</title>
<g id="a_node6"><a xlink:title=" ">
<polygon fill="none" stroke="#bfbfbf" points="262.5,-58.5 262.5,-79.5 388.5,-79.5 388.5,-58.5 262.5,-58.5"/>
<text text-anchor="middle" x="325.5" y="-65.9" font-family="Helvetica,sans-Serif" font-size="12.00">qwebengineview.h</text>
</a>
</g>
</g>
<!-- Node1&#45;&gt;Node6 -->
<g id="edge5" class="edge">
<title>Node1&#45;&gt;Node6</title>
<path fill="none" stroke="midnightblue" d="M325.5,-116.25C325.5,-108.94 325.5,-98.69 325.5,-89.7"/>
<polygon fill="midnightblue" stroke="midnightblue" points="329,-89.64 325.5,-79.64 322,-89.64 329,-89.64"/>
</g>
<!-- Node7 -->
<g id="node7" class="node">
<title>Node7</title>
<g id="a_node7"><a xlink:title=" ">
<polygon fill="none" stroke="#bfbfbf" points="407,-58.5 407,-79.5 488,-79.5 488,-58.5 407,-58.5"/>
<text text-anchor="middle" x="447.5" y="-65.9" font-family="Helvetica,sans-Serif" font-size="12.00">Windows.h</text>
</a>
</g>
</g>
<!-- Node1&#45;&gt;Node7 -->
<g id="edge6" class="edge">
<title>Node1&#45;&gt;Node7</title>
<path fill="none" stroke="midnightblue" d="M346.47,-116.37C366.06,-107.38 395.5,-93.87 417.55,-83.75"/>
<polygon fill="midnightblue" stroke="midnightblue" points="419.17,-86.85 426.8,-79.5 416.25,-80.49 419.17,-86.85"/>
</g>
<!-- Node8 -->
<g id="node8" class="node">
<title>Node8</title>
<g id="a_node8"><a xlink:href="_c_l_i_8h.html" target="_top" xlink:title=" ">
<polygon fill="none" stroke="black" points="506,-58.5 506,-79.5 553,-79.5 553,-58.5 506,-58.5"/>
<text text-anchor="middle" x="529.5" y="-65.9" font-family="Helvetica,sans-Serif" font-size="12.00">CLI.h</text>
</a>
</g>
</g>
<!-- Node1&#45;&gt;Node8 -->
<g id="edge7" class="edge">
<title>Node1&#45;&gt;Node8</title>
<path fill="none" stroke="midnightblue" d="M362.87,-116.48C395.68,-108.02 444.92,-95.07 495.89,-80.39"/>
<polygon fill="midnightblue" stroke="midnightblue" points="497.13,-83.68 505.77,-77.54 495.19,-76.96 497.13,-83.68"/>
</g>
<!-- Node3 -->
<g id="node3" class="node">
<title>Node3</title>
<g id="a_node3"><a xlink:title=" ">
<polygon fill="none" stroke="#bfbfbf" points="250.5,-0.5 250.5,-21.5 418.5,-21.5 418.5,-0.5 250.5,-0.5"/>
<text text-anchor="middle" x="334.5" y="-7.9" font-family="Helvetica,sans-Serif" font-size="12.00">QtWidgets/QMainWindow</text>
</a>
</g>
</g>
<!-- Node2&#45;&gt;Node3 -->
<g id="edge2" class="edge">
<title>Node2&#45;&gt;Node3</title>
<path fill="none" stroke="midnightblue" d="M128.02,-58.44C170.64,-48.85 236.32,-34.08 282.12,-23.78"/>
<polygon fill="midnightblue" stroke="midnightblue" points="283.17,-27.13 292.15,-21.52 281.63,-20.3 283.17,-27.13"/>
</g>
<!-- Node4 -->
<g id="node4" class="node">
<title>Node4</title>
<g id="a_node4"><a xlink:title=" ">
<polygon fill="none" stroke="#bfbfbf" points="0,-0.5 0,-21.5 171,-21.5 171,-0.5 0,-0.5"/>
<text text-anchor="middle" x="85.5" y="-7.9" font-family="Helvetica,sans-Serif" font-size="12.00">ui_MarkovPasswordsGUI.h</text>
</a>
</g>
</g>
<!-- Node2&#45;&gt;Node4 -->
<g id="edge3" class="edge">
<title>Node2&#45;&gt;Node4</title>
<path fill="none" stroke="midnightblue" d="M85.5,-58.25C85.5,-50.94 85.5,-40.69 85.5,-31.7"/>
<polygon fill="midnightblue" stroke="midnightblue" points="89,-31.64 85.5,-21.64 82,-31.64 89,-31.64"/>
</g>
<!-- Node8&#45;&gt;Node3 -->
<g id="edge8" class="edge">
<title>Node8&#45;&gt;Node3</title>
<path fill="none" stroke="midnightblue" d="M505.76,-60.5C502.98,-59.65 500.18,-58.8 497.5,-58 457.53,-46.12 411.81,-33.28 378.99,-24.2"/>
<polygon fill="midnightblue" stroke="midnightblue" points="379.81,-20.79 369.24,-21.5 377.95,-27.54 379.81,-20.79"/>
</g>
<!-- Node9 -->
<g id="node9" class="node">
<title>Node9</title>
<g id="a_node9"><a xlink:title=" ">
<polygon fill="none" stroke="#bfbfbf" points="498,-0.5 498,-21.5 561,-21.5 561,-0.5 498,-0.5"/>
<text text-anchor="middle" x="529.5" y="-7.9" font-family="Helvetica,sans-Serif" font-size="12.00">ui_CLI.h</text>
</a>
</g>
</g>
<!-- Node8&#45;&gt;Node9 -->
<g id="edge9" class="edge">
<title>Node8&#45;&gt;Node9</title>
<path fill="none" stroke="midnightblue" d="M529.5,-58.25C529.5,-50.94 529.5,-40.69 529.5,-31.7"/>
<polygon fill="midnightblue" stroke="midnightblue" points="533,-31.64 529.5,-21.64 526,-31.64 533,-31.64"/>
</g>
</g>
</svg>
