<?xml version="1.0" encoding="UTF-8" standalone="no"?>
<!DOCTYPE svg PUBLIC "-//W3C//DTD SVG 1.1//EN"
 "http://www.w3.org/Graphics/SVG/1.1/DTD/svg11.dtd">
<!-- Generated by graphviz version 2.43.0 (0)
 -->
<!-- Title: main.cpp Pages: 1 -->
<!--zoomable 378 -->
<svg id="main" version="1.1" xmlns="http://www.w3.org/2000/svg" xmlns:xlink="http://www.w3.org/1999/xlink" xml:space="preserve" onload="init(evt)">
<style type="text/css"><![CDATA[
.edge:hover path { stroke: red; }
.edge:hover polygon { stroke: red; fill: red; }
]]></style>
<script type="text/javascript"><![CDATA[
var edges = document.getElementsByTagName('g');
if (edges && edges.length) {
  for (var i=0;i<edges.length;i++) {
    if (edges[i].id.substr(0,4)=='edge') {
      edges[i].setAttribute('class','edge');
    }
  }
}
]]></script>
        <defs>
                <circle id="rim" cx="0" cy="0" r="7"/>
                <circle id="rim2" cx="0" cy="0" r="3.5"/>
                <g id="zoomPlus">
                        <use xlink:href="#rim" fill="#404040">
                                <set attributeName="fill" to="#808080" begin="zoomplus.mouseover" end="zoomplus.mouseout"/>
                        </use>
                        <path d="M-4,0h8M0,-4v8" fill="none" stroke="white" stroke-width="1.5" pointer-events="none"/>
                </g>
                <g id="zoomMin">
                        <use xlink:href="#rim" fill="#404040">
                                <set attributeName="fill" to="#808080" begin="zoomminus.mouseover" end="zoomminus.mouseout"/>
                        </use>
                        <path d="M-4,0h8" fill="none" stroke="white" stroke-width="1.5" pointer-events="none"/>
                </g>
                <g id="dirArrow">
                        <path fill="none" stroke="white" stroke-width="1.5" d="M0,-3.0v7 M-2.5,-0.5L0,-3.0L2.5,-0.5"/>
                </g>
               <g id="resetDef">
                       <use xlink:href="#rim2" fill="#404040">
                               <set attributeName="fill" to="#808080" begin="reset.mouseover" end="reset.mouseout"/>
                       </use>
               </g>
        </defs>

<script type="text/javascript">
var viewWidth = 991;
var viewHeight = 378;
var sectionId = 'dynsection-0';
</script>
<script xlink:href="svgpan.js"/>
<svg id="graph" class="graph">
<g id="viewport">
<title>main.cpp</title>
<!-- Node1 -->
<g id="node1" class="node">
<title>Node1</title>
<g id="a_node1"><a xlink:title="Test cases for Markov::API::ModelMatrix.">
<polygon fill="#bfbfbf" stroke="black" points="396,-348.5 396,-369.5 468,-369.5 468,-348.5 396,-348.5"/>
<text text-anchor="middle" x="432" y="-355.9" font-family="Helvetica,sans-Serif" font-size="12.00">main.cpp</text>
</a>
</g>
</g>
<!-- Node2 -->
<g id="node2" class="node">
<title>Node2</title>
<g id="a_node2"><a xlink:title=" ">
<polygon fill="none" stroke="#bfbfbf" points="310.5,-0.5 310.5,-21.5 379.5,-21.5 379.5,-0.5 310.5,-0.5"/>
<text text-anchor="middle" x="345" y="-7.9" font-family="Helvetica,sans-Serif" font-size="12.00">iostream</text>
</a>
</g>
</g>
<!-- Node1&#45;&gt;Node2 -->
<g id="edge1" class="edge">
<title>Node1&#45;&gt;Node2</title>
<path fill="none" stroke="midnightblue" d="M395.91,-356.21C292.08,-350.1 0,-325.64 0,-244 0,-244 0,-244 0,-126 0,-63.45 207.04,-29.4 300.34,-17.23"/>
<polygon fill="midnightblue" stroke="midnightblue" points="300.86,-20.69 310.34,-15.95 299.98,-13.75 300.86,-20.69"/>
</g>
<!-- Node3 -->
<g id="node3" class="node">
<title>Node3</title>
<g id="a_node3"><a xlink:href="term_8h.html" target="_top" xlink:title="Terminal handler for pretty stuff like colors.">
<polygon fill="none" stroke="black" points="28.5,-116.5 28.5,-137.5 117.5,-137.5 117.5,-116.5 28.5,-116.5"/>
<text text-anchor="middle" x="73" y="-123.9" font-family="Helvetica,sans-Serif" font-size="12.00">color/term.h</text>
</a>
</g>
</g>
<!-- Node1&#45;&gt;Node3 -->
<g id="edge2" class="edge">
<title>Node1&#45;&gt;Node3</title>
<path fill="none" stroke="midnightblue" d="M395.81,-352.56C362.1,-346.37 311.28,-334.13 272,-312 191.16,-266.45 116.79,-181.9 86.88,-145.46"/>
<polygon fill="midnightblue" stroke="midnightblue" points="89.58,-143.23 80.57,-137.67 84.14,-147.64 89.58,-143.23"/>
</g>
<!-- Node5 -->
<g id="node5" class="node">
<title>Node5</title>
<g id="a_node5"><a xlink:href="argparse_8h.html" target="_top" xlink:title="Arguement handler class for native CPP cli.">
<polygon fill="none" stroke="black" points="198.5,-174.5 198.5,-195.5 279.5,-195.5 279.5,-174.5 198.5,-174.5"/>
<text text-anchor="middle" x="239" y="-181.9" font-family="Helvetica,sans-Serif" font-size="12.00">argparse.h</text>
</a>
</g>
</g>
<!-- Node1&#45;&gt;Node5 -->
<g id="edge5" class="edge">
<title>Node1&#45;&gt;Node5</title>
<path fill="none" stroke="midnightblue" d="M395.91,-354.17C365.39,-349.18 322.24,-337.81 294,-312 262.57,-283.27 248.23,-233.38 242.43,-205.79"/>
<polygon fill="midnightblue" stroke="midnightblue" points="245.83,-204.92 240.5,-195.76 238.96,-206.24 245.83,-204.92"/>
</g>
<!-- Node6 -->
<g id="node6" class="node">
<title>Node6</title>
<g id="a_node6"><a xlink:title=" ">
<polygon fill="none" stroke="#bfbfbf" points="373,-116.5 373,-137.5 423,-137.5 423,-116.5 373,-116.5"/>
<text text-anchor="middle" x="398" y="-123.9" font-family="Helvetica,sans-Serif" font-size="12.00">string</text>
</a>
</g>
</g>
<!-- Node1&#45;&gt;Node6 -->
<g id="edge9" class="edge">
<title>Node1&#45;&gt;Node6</title>
<path fill="none" stroke="midnightblue" d="M395.81,-352.31C372.14,-346.5 342.92,-334.91 328,-312 291.9,-256.55 350.43,-179.74 381.11,-145.59"/>
<polygon fill="midnightblue" stroke="midnightblue" points="384.03,-147.59 388.24,-137.86 378.89,-142.84 384.03,-147.59"/>
</g>
<!-- Node8 -->
<g id="node8" class="node">
<title>Node8</title>
<g id="a_node8"><a xlink:title=" ">
<polygon fill="none" stroke="#bfbfbf" points="584.5,-290.5 584.5,-311.5 641.5,-311.5 641.5,-290.5 584.5,-290.5"/>
<text text-anchor="middle" x="613" y="-297.9" font-family="Helvetica,sans-Serif" font-size="12.00">cstring</text>
</a>
</g>
</g>
<!-- Node1&#45;&gt;Node8 -->
<g id="edge10" class="edge">
<title>Node1&#45;&gt;Node8</title>
<path fill="none" stroke="midnightblue" d="M463.12,-348.37C493.98,-338.82 541.36,-324.17 574.56,-313.89"/>
<polygon fill="midnightblue" stroke="midnightblue" points="575.86,-317.16 584.38,-310.86 573.79,-310.47 575.86,-317.16"/>
</g>
<!-- Node9 -->
<g id="node9" class="node">
<title>Node9</title>
<g id="a_node9"><a xlink:title=" ">
<polygon fill="none" stroke="#bfbfbf" points="659.5,-290.5 659.5,-311.5 724.5,-311.5 724.5,-290.5 659.5,-290.5"/>
<text text-anchor="middle" x="692" y="-297.9" font-family="Helvetica,sans-Serif" font-size="12.00">sstream</text>
</a>
</g>
</g>
<!-- Node1&#45;&gt;Node9 -->
<g id="edge11" class="edge">
<title>Node1&#45;&gt;Node9</title>
<path fill="none" stroke="midnightblue" d="M468.12,-350.78C509.64,-342.41 580.09,-327.95 649.56,-312.28"/>
<polygon fill="midnightblue" stroke="midnightblue" points="650.37,-315.69 659.35,-310.06 648.82,-308.86 650.37,-315.69"/>
</g>
<!-- Node10 -->
<g id="node10" class="node">
<title>Node10</title>
<g id="a_node10"><a xlink:href="markov_passwords_8h.html" target="_top" xlink:title="Wrapper for Markov::Model to use with char represented models.">
<polygon fill="none" stroke="black" points="444.5,-232.5 444.5,-253.5 667.5,-253.5 667.5,-232.5 444.5,-232.5"/>
<text text-anchor="middle" x="556" y="-239.9" font-family="Helvetica,sans-Serif" font-size="12.00">MarkovAPI/src/markovPasswords.h</text>
</a>
</g>
</g>
<!-- Node1&#45;&gt;Node10 -->
<g id="edge12" class="edge">
<title>Node1&#45;&gt;Node10</title>
<path fill="none" stroke="midnightblue" d="M468.14,-350.55C490.94,-344.05 519.32,-332.36 537,-312 548.66,-298.58 553.2,-278.54 554.96,-263.69"/>
<polygon fill="midnightblue" stroke="midnightblue" points="558.46,-263.8 555.82,-253.54 551.48,-263.21 558.46,-263.8"/>
</g>
<!-- Node25 -->
<g id="node25" class="node">
<title>Node25</title>
<g id="a_node25"><a xlink:href="model_matrix_8h.html" target="_top" xlink:title="An extension of Markov::API::MarkovPasswords.">
<polygon fill="none" stroke="black" points="336.5,-290.5 336.5,-311.5 527.5,-311.5 527.5,-290.5 336.5,-290.5"/>
<text text-anchor="middle" x="432" y="-297.9" font-family="Helvetica,sans-Serif" font-size="12.00">MarkovAPI/src/modelMatrix.h</text>
</a>
</g>
</g>
<!-- Node1&#45;&gt;Node25 -->
<g id="edge37" class="edge">
<title>Node1&#45;&gt;Node25</title>
<path fill="none" stroke="midnightblue" d="M432,-348.25C432,-340.94 432,-330.69 432,-321.7"/>
<polygon fill="midnightblue" stroke="midnightblue" points="435.5,-321.64 432,-311.64 428.5,-321.64 435.5,-321.64"/>
</g>
<!-- Node26 -->
<g id="node26" class="node">
<title>Node26</title>
<g id="a_node26"><a xlink:title=" ">
<polygon fill="none" stroke="#bfbfbf" points="743,-290.5 743,-311.5 801,-311.5 801,-290.5 743,-290.5"/>
<text text-anchor="middle" x="772" y="-297.9" font-family="Helvetica,sans-Serif" font-size="12.00">chrono</text>
</a>
</g>
</g>
<!-- Node1&#45;&gt;Node26 -->
<g id="edge40" class="edge">
<title>Node1&#45;&gt;Node26</title>
<path fill="none" stroke="midnightblue" d="M468.02,-353.77C523.02,-347.04 631.42,-332.7 732.54,-312.14"/>
<polygon fill="midnightblue" stroke="midnightblue" points="733.53,-315.51 742.61,-310.06 732.11,-308.65 733.53,-315.51"/>
</g>
<!-- Node3&#45;&gt;Node2 -->
<g id="edge3" class="edge">
<title>Node3&#45;&gt;Node2</title>
<path fill="none" stroke="midnightblue" d="M95.72,-116.48C144.02,-96.23 257.03,-48.87 312.76,-25.51"/>
<polygon fill="midnightblue" stroke="midnightblue" points="314.28,-28.67 322.15,-21.58 311.58,-22.21 314.28,-28.67"/>
</g>
<!-- Node4 -->
<g id="node4" class="node">
<title>Node4</title>
<g id="a_node4"><a xlink:title=" ">
<polygon fill="none" stroke="#bfbfbf" points="481,-58.5 481,-79.5 525,-79.5 525,-58.5 481,-58.5"/>
<text text-anchor="middle" x="503" y="-65.9" font-family="Helvetica,sans-Serif" font-size="12.00">map</text>
</a>
</g>
</g>
<!-- Node3&#45;&gt;Node4 -->
<g id="edge4" class="edge">
<title>Node3&#45;&gt;Node4</title>
<path fill="none" stroke="midnightblue" d="M117.75,-117.49C120.88,-116.97 123.98,-116.46 127,-116 253.84,-96.52 405.78,-80.01 470.86,-73.26"/>
<polygon fill="midnightblue" stroke="midnightblue" points="471.31,-76.73 480.9,-72.22 470.59,-69.77 471.31,-76.73"/>
</g>
<!-- Node5&#45;&gt;Node2 -->
<g id="edge7" class="edge">
<title>Node5&#45;&gt;Node2</title>
<path fill="none" stroke="midnightblue" d="M273.01,-174.38C291.6,-167.34 313.35,-155.84 326,-138 348.63,-106.11 349.07,-58.19 347.17,-31.58"/>
<polygon fill="midnightblue" stroke="midnightblue" points="350.65,-31.24 346.27,-21.59 343.68,-31.86 350.65,-31.24"/>
</g>
<!-- Node5&#45;&gt;Node6 -->
<g id="edge6" class="edge">
<title>Node5&#45;&gt;Node6</title>
<path fill="none" stroke="midnightblue" d="M266.33,-174.37C293.1,-164.95 333.99,-150.54 363.1,-140.29"/>
<polygon fill="midnightblue" stroke="midnightblue" points="364.59,-143.48 372.86,-136.86 362.26,-136.88 364.59,-143.48"/>
</g>
<!-- Node7 -->
<g id="node7" class="node">
<title>Node7</title>
<g id="a_node7"><a xlink:title=" ">
<polygon fill="none" stroke="#bfbfbf" points="135.5,-116.5 135.5,-137.5 316.5,-137.5 316.5,-116.5 135.5,-116.5"/>
<text text-anchor="middle" x="226" y="-123.9" font-family="Helvetica,sans-Serif" font-size="12.00">boost/program_options.hpp</text>
</a>
</g>
</g>
<!-- Node5&#45;&gt;Node7 -->
<g id="edge8" class="edge">
<title>Node5&#45;&gt;Node7</title>
<path fill="none" stroke="midnightblue" d="M236.74,-174.25C235.02,-166.86 232.61,-156.47 230.51,-147.41"/>
<polygon fill="midnightblue" stroke="midnightblue" points="233.91,-146.59 228.24,-137.64 227.09,-148.18 233.91,-146.59"/>
</g>
<!-- Node11 -->
<g id="node11" class="node">
<title>Node11</title>
<g id="a_node11"><a xlink:href="thread_shared_list_handler_8h.html" target="_top" xlink:title="Thread&#45;safe wrapper for std::ifstream.">
<polygon fill="none" stroke="black" points="444.5,-174.5 444.5,-195.5 619.5,-195.5 619.5,-174.5 444.5,-174.5"/>
<text text-anchor="middle" x="532" y="-181.9" font-family="Helvetica,sans-Serif" font-size="12.00">threadSharedListHandler.h</text>
</a>
</g>
</g>
<!-- Node10&#45;&gt;Node11 -->
<g id="edge13" class="edge">
<title>Node10&#45;&gt;Node11</title>
<path fill="none" stroke="midnightblue" d="M551.82,-232.25C548.62,-224.78 544.1,-214.24 540.19,-205.11"/>
<polygon fill="midnightblue" stroke="midnightblue" points="543.29,-203.46 536.13,-195.64 536.85,-206.21 543.29,-203.46"/>
</g>
<!-- Node14 -->
<g id="node14" class="node">
<title>Node14</title>
<g id="a_node14"><a xlink:href="model_8h.html" target="_top" xlink:title="Model class template.">
<polygon fill="none" stroke="black" points="638,-174.5 638,-195.5 808,-195.5 808,-174.5 638,-174.5"/>
<text text-anchor="middle" x="723" y="-181.9" font-family="Helvetica,sans-Serif" font-size="12.00">MarkovModel/src/model.h</text>
</a>
</g>
</g>
<!-- Node10&#45;&gt;Node14 -->
<g id="edge17" class="edge">
<title>Node10&#45;&gt;Node14</title>
<path fill="none" stroke="midnightblue" d="M584.71,-232.37C612.36,-223.1 654.36,-209.02 684.82,-198.8"/>
<polygon fill="midnightblue" stroke="midnightblue" points="686.3,-202 694.67,-195.5 684.07,-195.36 686.3,-202"/>
</g>
<!-- Node11&#45;&gt;Node6 -->
<g id="edge14" class="edge">
<title>Node11&#45;&gt;Node6</title>
<path fill="none" stroke="midnightblue" d="M508.96,-174.37C487.26,-165.3 454.54,-151.63 430.25,-141.48"/>
<polygon fill="midnightblue" stroke="midnightblue" points="431.31,-138.13 420.73,-137.5 428.61,-144.59 431.31,-138.13"/>
</g>
<!-- Node12 -->
<g id="node12" class="node">
<title>Node12</title>
<g id="a_node12"><a xlink:title=" ">
<polygon fill="none" stroke="#bfbfbf" points="514.5,-116.5 514.5,-137.5 577.5,-137.5 577.5,-116.5 514.5,-116.5"/>
<text text-anchor="middle" x="546" y="-123.9" font-family="Helvetica,sans-Serif" font-size="12.00">fstream</text>
</a>
</g>
</g>
<!-- Node11&#45;&gt;Node12 -->
<g id="edge15" class="edge">
<title>Node11&#45;&gt;Node12</title>
<path fill="none" stroke="midnightblue" d="M534.44,-174.25C536.29,-166.86 538.88,-156.47 541.15,-147.41"/>
<polygon fill="midnightblue" stroke="midnightblue" points="544.56,-148.19 543.59,-137.64 537.77,-146.5 544.56,-148.19"/>
</g>
<!-- Node13 -->
<g id="node13" class="node">
<title>Node13</title>
<g id="a_node13"><a xlink:title=" ">
<polygon fill="none" stroke="#bfbfbf" points="441.5,-116.5 441.5,-137.5 496.5,-137.5 496.5,-116.5 441.5,-116.5"/>
<text text-anchor="middle" x="469" y="-123.9" font-family="Helvetica,sans-Serif" font-size="12.00">mutex</text>
</a>
</g>
</g>
<!-- Node11&#45;&gt;Node13 -->
<g id="edge16" class="edge">
<title>Node11&#45;&gt;Node13</title>
<path fill="none" stroke="midnightblue" d="M521.03,-174.25C511.81,-166.05 498.45,-154.17 487.57,-144.51"/>
<polygon fill="midnightblue" stroke="midnightblue" points="489.65,-141.67 479.85,-137.64 485,-146.9 489.65,-141.67"/>
</g>
<!-- Node14&#45;&gt;Node4 -->
<g id="edge18" class="edge">
<title>Node14&#45;&gt;Node4</title>
<path fill="none" stroke="midnightblue" d="M701.33,-174.47C681.3,-165.52 650.82,-151.5 625,-138 607.71,-128.96 604,-125.58 587,-116 567.99,-105.29 546.39,-93.47 529.86,-84.5"/>
<polygon fill="midnightblue" stroke="midnightblue" points="531.23,-81.26 520.77,-79.57 527.89,-87.41 531.23,-81.26"/>
</g>
<!-- Node14&#45;&gt;Node6 -->
<g id="edge22" class="edge">
<title>Node14&#45;&gt;Node6</title>
<path fill="none" stroke="midnightblue" d="M646.81,-174.48C588.05,-166.52 504.92,-153.92 433,-138 432.9,-137.98 432.8,-137.96 432.7,-137.93"/>
<polygon fill="midnightblue" stroke="midnightblue" points="433.69,-134.57 423.14,-135.58 432.01,-141.37 433.69,-134.57"/>
</g>
<!-- Node14&#45;&gt;Node12 -->
<g id="edge20" class="edge">
<title>Node14&#45;&gt;Node12</title>
<path fill="none" stroke="midnightblue" d="M692.57,-174.37C663.01,-165.02 617.98,-150.77 585.63,-140.54"/>
<polygon fill="midnightblue" stroke="midnightblue" points="586.62,-137.18 576.03,-137.5 584.51,-143.85 586.62,-137.18"/>
</g>
<!-- Node15 -->
<g id="node15" class="node">
<title>Node15</title>
<g id="a_node15"><a xlink:title=" ">
<polygon fill="none" stroke="#bfbfbf" points="543.5,-58.5 543.5,-79.5 598.5,-79.5 598.5,-58.5 543.5,-58.5"/>
<text text-anchor="middle" x="571" y="-65.9" font-family="Helvetica,sans-Serif" font-size="12.00">vector</text>
</a>
</g>
</g>
<!-- Node14&#45;&gt;Node15 -->
<g id="edge19" class="edge">
<title>Node14&#45;&gt;Node15</title>
<path fill="none" stroke="midnightblue" d="M725.17,-174.45C727.84,-160.09 730.51,-132.82 717,-116 710.02,-107.31 649.48,-90.25 608.58,-79.53"/>
<polygon fill="midnightblue" stroke="midnightblue" points="609.21,-76.07 598.65,-76.95 607.44,-82.85 609.21,-76.07"/>
</g>
<!-- Node16 -->
<g id="node16" class="node">
<title>Node16</title>
<g id="a_node16"><a xlink:title=" ">
<polygon fill="none" stroke="#bfbfbf" points="917.5,-58.5 917.5,-79.5 982.5,-79.5 982.5,-58.5 917.5,-58.5"/>
<text text-anchor="middle" x="950" y="-65.9" font-family="Helvetica,sans-Serif" font-size="12.00">assert.h</text>
</a>
</g>
</g>
<!-- Node14&#45;&gt;Node16 -->
<g id="edge21" class="edge">
<title>Node14&#45;&gt;Node16</title>
<path fill="none" stroke="midnightblue" d="M758,-174.44C784.79,-166.46 822.25,-153.84 853,-138 881.7,-123.22 911.67,-101 930.56,-86.02"/>
<polygon fill="midnightblue" stroke="midnightblue" points="932.82,-88.69 938.42,-79.7 928.44,-83.24 932.82,-88.69"/>
</g>
<!-- Node17 -->
<g id="node17" class="node">
<title>Node17</title>
<g id="a_node17"><a xlink:title=" ">
<polygon fill="none" stroke="#bfbfbf" points="634,-116.5 634,-137.5 708,-137.5 708,-116.5 634,-116.5"/>
<text text-anchor="middle" x="671" y="-123.9" font-family="Helvetica,sans-Serif" font-size="12.00">algorithm</text>
</a>
</g>
</g>
<!-- Node14&#45;&gt;Node17 -->
<g id="edge23" class="edge">
<title>Node14&#45;&gt;Node17</title>
<path fill="none" stroke="midnightblue" d="M713.94,-174.25C706.49,-166.22 695.74,-154.64 686.86,-145.08"/>
<polygon fill="midnightblue" stroke="midnightblue" points="689.32,-142.59 679.95,-137.64 684.19,-147.35 689.32,-142.59"/>
</g>
<!-- Node18 -->
<g id="node18" class="node">
<title>Node18</title>
<g id="a_node18"><a xlink:href="node_8h.html" target="_top" xlink:title="Node class template.">
<polygon fill="none" stroke="black" points="764,-116.5 764,-137.5 822,-137.5 822,-116.5 764,-116.5"/>
<text text-anchor="middle" x="793" y="-123.9" font-family="Helvetica,sans-Serif" font-size="12.00">node.h</text>
</a>
</g>
</g>
<!-- Node14&#45;&gt;Node18 -->
<g id="edge24" class="edge">
<title>Node14&#45;&gt;Node18</title>
<path fill="none" stroke="midnightblue" d="M735.19,-174.25C745.63,-165.89 760.87,-153.71 773.07,-143.94"/>
<polygon fill="midnightblue" stroke="midnightblue" points="775.32,-146.62 780.95,-137.64 770.95,-141.16 775.32,-146.62"/>
</g>
<!-- Node20 -->
<g id="node20" class="node">
<title>Node20</title>
<g id="a_node20"><a xlink:href="edge_8h.html" target="_top" xlink:title="Edge class template.">
<polygon fill="none" stroke="black" points="841,-58.5 841,-79.5 899,-79.5 899,-58.5 841,-58.5"/>
<text text-anchor="middle" x="870" y="-65.9" font-family="Helvetica,sans-Serif" font-size="12.00">edge.h</text>
</a>
</g>
</g>
<!-- Node14&#45;&gt;Node20 -->
<g id="edge36" class="edge">
<title>Node14&#45;&gt;Node20</title>
<path fill="none" stroke="midnightblue" d="M760.83,-174.49C783.23,-167.36 811.04,-155.73 831,-138 846.05,-124.63 856.72,-104.02 863.06,-88.99"/>
<polygon fill="midnightblue" stroke="midnightblue" points="866.33,-90.22 866.75,-79.64 859.82,-87.65 866.33,-90.22"/>
</g>
<!-- Node18&#45;&gt;Node2 -->
<g id="edge28" class="edge">
<title>Node18&#45;&gt;Node2</title>
<path fill="none" stroke="midnightblue" d="M763.82,-118.73C733.88,-110.84 686.25,-97.03 647,-80 628.74,-72.08 626.74,-64.7 608,-58 534.14,-31.59 443.01,-20 389.71,-15.17"/>
<polygon fill="midnightblue" stroke="midnightblue" points="389.84,-11.67 379.58,-14.29 389.24,-18.64 389.84,-11.67"/>
</g>
<!-- Node18&#45;&gt;Node4 -->
<g id="edge26" class="edge">
<title>Node18&#45;&gt;Node4</title>
<path fill="none" stroke="midnightblue" d="M763.73,-122.01C715.62,-115.19 616.99,-100.03 535,-80 534.9,-79.98 534.8,-79.95 534.7,-79.93"/>
<polygon fill="midnightblue" stroke="midnightblue" points="535.85,-76.61 525.28,-77.36 534.01,-83.36 535.85,-76.61"/>
</g>
<!-- Node18&#45;&gt;Node15 -->
<g id="edge25" class="edge">
<title>Node18&#45;&gt;Node15</title>
<path fill="none" stroke="midnightblue" d="M763.98,-118.68C724.07,-108.61 652.22,-90.49 608.35,-79.42"/>
<polygon fill="midnightblue" stroke="midnightblue" points="609.18,-76.02 598.63,-76.97 607.47,-82.81 609.18,-76.02"/>
</g>
<!-- Node18&#45;&gt;Node16 -->
<g id="edge27" class="edge">
<title>Node18&#45;&gt;Node16</title>
<path fill="none" stroke="midnightblue" d="M819.99,-116.37C845.87,-107.14 885.12,-93.14 913.73,-82.94"/>
<polygon fill="midnightblue" stroke="midnightblue" points="915.12,-86.16 923.36,-79.5 912.77,-79.56 915.12,-86.16"/>
</g>
<!-- Node19 -->
<g id="node19" class="node">
<title>Node19</title>
<g id="a_node19"><a xlink:title=" ">
<polygon fill="none" stroke="#bfbfbf" points="655.5,-58.5 655.5,-79.5 730.5,-79.5 730.5,-58.5 655.5,-58.5"/>
<text text-anchor="middle" x="693" y="-65.9" font-family="Helvetica,sans-Serif" font-size="12.00">stdexcept</text>
</a>
</g>
</g>
<!-- Node18&#45;&gt;Node19 -->
<g id="edge29" class="edge">
<title>Node18&#45;&gt;Node19</title>
<path fill="none" stroke="midnightblue" d="M775.58,-116.25C759.95,-107.49 736.8,-94.53 718.98,-84.55"/>
<polygon fill="midnightblue" stroke="midnightblue" points="720.65,-81.47 710.22,-79.64 717.23,-87.58 720.65,-81.47"/>
</g>
<!-- Node18&#45;&gt;Node20 -->
<g id="edge30" class="edge">
<title>Node18&#45;&gt;Node20</title>
<path fill="none" stroke="midnightblue" d="M806.41,-116.25C818.01,-107.81 834.97,-95.47 848.47,-85.66"/>
<polygon fill="midnightblue" stroke="midnightblue" points="850.71,-88.36 856.74,-79.64 846.6,-82.69 850.71,-88.36"/>
</g>
<!-- Node23 -->
<g id="node23" class="node">
<title>Node23</title>
<g id="a_node23"><a xlink:href="random_8h.html" target="_top" xlink:title="Random engine implementations for Markov.">
<polygon fill="none" stroke="black" points="748.5,-58.5 748.5,-79.5 823.5,-79.5 823.5,-58.5 748.5,-58.5"/>
<text text-anchor="middle" x="786" y="-65.9" font-family="Helvetica,sans-Serif" font-size="12.00">random.h</text>
</a>
</g>
</g>
<!-- Node18&#45;&gt;Node23 -->
<g id="edge33" class="edge">
<title>Node18&#45;&gt;Node23</title>
<path fill="none" stroke="midnightblue" d="M791.78,-116.25C790.87,-108.94 789.59,-98.69 788.46,-89.7"/>
<polygon fill="midnightblue" stroke="midnightblue" points="791.92,-89.13 787.21,-79.64 784.97,-90 791.92,-89.13"/>
</g>
<!-- Node21 -->
<g id="node21" class="node">
<title>Node21</title>
<g id="a_node21"><a xlink:title=" ">
<polygon fill="none" stroke="#bfbfbf" points="917,-0.5 917,-21.5 973,-21.5 973,-0.5 917,-0.5"/>
<text text-anchor="middle" x="945" y="-7.9" font-family="Helvetica,sans-Serif" font-size="12.00">cstdint</text>
</a>
</g>
</g>
<!-- Node20&#45;&gt;Node21 -->
<g id="edge31" class="edge">
<title>Node20&#45;&gt;Node21</title>
<path fill="none" stroke="midnightblue" d="M883.06,-58.25C894.36,-49.81 910.88,-37.47 924.03,-27.66"/>
<polygon fill="midnightblue" stroke="midnightblue" points="926.17,-30.43 932.09,-21.64 921.98,-24.82 926.17,-30.43"/>
</g>
<!-- Node22 -->
<g id="node22" class="node">
<title>Node22</title>
<g id="a_node22"><a xlink:title=" ">
<polygon fill="none" stroke="#bfbfbf" points="837.5,-0.5 837.5,-21.5 898.5,-21.5 898.5,-0.5 837.5,-0.5"/>
<text text-anchor="middle" x="868" y="-7.9" font-family="Helvetica,sans-Serif" font-size="12.00">cstddef</text>
</a>
</g>
</g>
<!-- Node20&#45;&gt;Node22 -->
<g id="edge32" class="edge">
<title>Node20&#45;&gt;Node22</title>
<path fill="none" stroke="midnightblue" d="M869.65,-58.25C869.39,-50.94 869.02,-40.69 868.7,-31.7"/>
<polygon fill="midnightblue" stroke="midnightblue" points="872.2,-31.51 868.34,-21.64 865.2,-31.76 872.2,-31.51"/>
</g>
<!-- Node23&#45;&gt;Node2 -->
<g id="edge35" class="edge">
<title>Node23&#45;&gt;Node2</title>
<path fill="none" stroke="midnightblue" d="M748.4,-59.51C745.57,-58.97 742.74,-58.46 740,-58 613.75,-36.98 463.21,-22.28 389.77,-15.77"/>
<polygon fill="midnightblue" stroke="midnightblue" points="389.77,-12.26 379.5,-14.87 389.16,-19.23 389.77,-12.26"/>
</g>
<!-- Node24 -->
<g id="node24" class="node">
<title>Node24</title>
<g id="a_node24"><a xlink:title=" ">
<polygon fill="none" stroke="#bfbfbf" points="754,-0.5 754,-21.5 818,-21.5 818,-0.5 754,-0.5"/>
<text text-anchor="middle" x="786" y="-7.9" font-family="Helvetica,sans-Serif" font-size="12.00">random</text>
</a>
</g>
</g>
<!-- Node23&#45;&gt;Node24 -->
<g id="edge34" class="edge">
<title>Node23&#45;&gt;Node24</title>
<path fill="none" stroke="midnightblue" d="M786,-58.25C786,-50.94 786,-40.69 786,-31.7"/>
<polygon fill="midnightblue" stroke="midnightblue" points="789.5,-31.64 786,-21.64 782.5,-31.64 789.5,-31.64"/>
</g>
<!-- Node25&#45;&gt;Node10 -->
<g id="edge38" class="edge">
<title>Node25&#45;&gt;Node10</title>
<path fill="none" stroke="midnightblue" d="M453.32,-290.37C473.22,-281.38 503.14,-267.87 525.56,-257.75"/>
<polygon fill="midnightblue" stroke="midnightblue" points="527.29,-260.81 534.96,-253.5 524.41,-254.43 527.29,-260.81"/>
</g>
<!-- Node25&#45;&gt;Node13 -->
<g id="edge39" class="edge">
<title>Node25&#45;&gt;Node13</title>
<path fill="none" stroke="midnightblue" d="M430.43,-290.18C427.35,-268.5 422.01,-215.25 436,-174 439.56,-163.5 446.39,-153.32 452.92,-145.22"/>
<polygon fill="midnightblue" stroke="midnightblue" points="455.6,-147.47 459.46,-137.6 450.29,-142.91 455.6,-147.47"/>
</g>
</g>
</svg>
        <g id="navigator" transform="translate(0 0)" fill="#404254">
                <rect fill="#f2f5e9" fill-opacity="0.5" stroke="#606060" stroke-width=".5" x="0" y="0" width="60" height="60"/>
                <use id="zoomplus" xlink:href="#zoomPlus" x="17" y="9" onmousedown="handleZoom(evt,'in')"/>
                <use id="zoomminus" xlink:href="#zoomMin" x="42" y="9" onmousedown="handleZoom(evt,'out')"/>
                <use id="reset" xlink:href="#resetDef" x="30" y="36" onmousedown="handleReset()"/>
                <g id="arrowUp" xlink:href="#dirArrow" transform="translate(30 24)" onmousedown="handlePan(0,-1)">
                  <use xlink:href="#rim" fill="#404040">
                        <set attributeName="fill" to="#808080" begin="arrowUp.mouseover" end="arrowUp.mouseout"/>
                  </use>
                  <path fill="none" stroke="white" stroke-width="1.5" d="M0,-3.0v7 M-2.5,-0.5L0,-3.0L2.5,-0.5"/>
                </g>
                <g id="arrowRight" xlink:href="#dirArrow" transform="rotate(90) translate(36 -43)" onmousedown="handlePan(1,0)">
                  <use xlink:href="#rim" fill="#404040">
                        <set attributeName="fill" to="#808080" begin="arrowRight.mouseover" end="arrowRight.mouseout"/>
                  </use>
                  <path fill="none" stroke="white" stroke-width="1.5" d="M0,-3.0v7 M-2.5,-0.5L0,-3.0L2.5,-0.5"/>
                </g>
                <g id="arrowDown" xlink:href="#dirArrow" transform="rotate(180) translate(-30 -48)" onmousedown="handlePan(0,1)">
                  <use xlink:href="#rim" fill="#404040">
                        <set attributeName="fill" to="#808080" begin="arrowDown.mouseover" end="arrowDown.mouseout"/>
                  </use>
                  <path fill="none" stroke="white" stroke-width="1.5" d="M0,-3.0v7 M-2.5,-0.5L0,-3.0L2.5,-0.5"/>
                </g>
                <g id="arrowLeft" xlink:href="#dirArrow" transform="rotate(270) translate(-36 17)" onmousedown="handlePan(-1,0)">
                  <use xlink:href="#rim" fill="#404040">
                        <set attributeName="fill" to="#808080" begin="arrowLeft.mouseover" end="arrowLeft.mouseout"/>
                  </use>
                  <path fill="none" stroke="white" stroke-width="1.5" d="M0,-3.0v7 M-2.5,-0.5L0,-3.0L2.5,-0.5"/>
                </g>
        </g>
        <svg viewBox="0 0 15 15" width="100%" height="30px" preserveAspectRatio="xMaxYMin meet">
         <g id="arrow_out" transform="scale(0.3 0.3)">
          <a xlink:href="_markov_a_p_i_c_l_i_2src_2main_8cpp__incl_org.svg" target="_base">
           <rect id="button" ry="5" rx="5" y="6" x="6" height="38" width="38"
                fill="#f2f5e9" fill-opacity="0.5" stroke="#606060" stroke-width="1.0"/>
           <path id="arrow"
             d="M 11.500037,31.436501 C 11.940474,20.09759 22.043105,11.32322 32.158766,21.979434 L 37.068811,17.246167 C 37.068811,17.246167 37.088388,32 37.088388,32 L 22.160133,31.978069 C 22.160133,31.978069 26.997745,27.140456 26.997745,27.140456 C 18.528582,18.264221 13.291696,25.230495 11.500037,31.436501 z"
             style="fill:#404040;"/>
          </a>
         </g>
        </svg>
</svg>
