<?xml version="1.0" encoding="UTF-8" standalone="no"?>
<!DOCTYPE svg PUBLIC "-//W3C//DTD SVG 1.1//EN"
 "http://www.w3.org/Graphics/SVG/1.1/DTD/svg11.dtd">
<!-- Generated by graphviz version 2.43.0 (0)
 -->
<!-- Title: MarkovPasswordsGUI.h Pages: 1 -->
<svg width="366pt" height="88pt"
 viewBox="0.00 0.00 365.50 88.00" xmlns="http://www.w3.org/2000/svg" xmlns:xlink="http://www.w3.org/1999/xlink">
<g id="graph0" class="graph" transform="scale(1 1) rotate(0) translate(4 84)">
<title>MarkovPasswordsGUI.h</title>
<!-- Node1 -->
<g id="node1" class="node">
<title>Node1</title>
<g id="a_node1"><a xlink:title="Main activity page for GUI.">
<polygon fill="#bfbfbf" stroke="black" points="100.5,-58.5 100.5,-79.5 255.5,-79.5 255.5,-58.5 100.5,-58.5"/>
<text text-anchor="middle" x="178" y="-65.9" font-family="Helvetica,sans-Serif" font-size="12.00">MarkovPasswordsGUI.h</text>
</a>
</g>
</g>
<!-- Node2 -->
<g id="node2" class="node">
<title>Node2</title>
<g id="a_node2"><a xlink:title=" ">
<polygon fill="none" stroke="#bfbfbf" points="0,-0.5 0,-21.5 168,-21.5 168,-0.5 0,-0.5"/>
<text text-anchor="middle" x="84" y="-7.9" font-family="Helvetica,sans-Serif" font-size="12.00">QtWidgets/QMainWindow</text>
</a>
</g>
</g>
<!-- Node1&#45;&gt;Node2 -->
<g id="edge1" class="edge">
<title>Node1&#45;&gt;Node2</title>
<path fill="none" stroke="midnightblue" d="M161.63,-58.25C147.07,-49.57 125.57,-36.76 108.88,-26.82"/>
<polygon fill="midnightblue" stroke="midnightblue" points="110.57,-23.75 100.19,-21.64 106.99,-29.77 110.57,-23.75"/>
</g>
<!-- Node3 -->
<g id="node3" class="node">
<title>Node3</title>
<g id="a_node3"><a xlink:title=" ">
<polygon fill="none" stroke="#bfbfbf" points="186.5,-0.5 186.5,-21.5 357.5,-21.5 357.5,-0.5 186.5,-0.5"/>
<text text-anchor="middle" x="272" y="-7.9" font-family="Helvetica,sans-Serif" font-size="12.00">ui_MarkovPasswordsGUI.h</text>
</a>
</g>
</g>
<!-- Node1&#45;&gt;Node3 -->
<g id="edge2" class="edge">
<title>Node1&#45;&gt;Node3</title>
<path fill="none" stroke="midnightblue" d="M194.37,-58.25C208.93,-49.57 230.43,-36.76 247.12,-26.82"/>
<polygon fill="midnightblue" stroke="midnightblue" points="249.01,-29.77 255.81,-21.64 245.43,-23.75 249.01,-29.77"/>
</g>
</g>
</svg>
