<?xml version="1.0" encoding="UTF-8" standalone="no"?>
<!DOCTYPE svg PUBLIC "-//W3C//DTD SVG 1.1//EN"
 "http://www.w3.org/Graphics/SVG/1.1/DTD/svg11.dtd">
<!-- Generated by graphviz version 2.43.0 (0)
 -->
<!-- Title: Markopy/MarkovPasswordsGUI/src/MarkovPasswordsGUI.h Pages: 1 -->
<svg width="641pt" height="114pt"
 viewBox="0.00 0.00 641.00 114.00" xmlns="http://www.w3.org/2000/svg" xmlns:xlink="http://www.w3.org/1999/xlink">
<g id="graph0" class="graph" transform="scale(1 1) rotate(0) translate(4 110)">
<title>Markopy/MarkovPasswordsGUI/src/MarkovPasswordsGUI.h</title>
<!-- Node1 -->
<g id="node1" class="node">
<title>Node1</title>
<g id="a_node1"><a xlink:title="Main activity page for GUI.">
<polygon fill="#bfbfbf" stroke="black" points="217,-71.5 217,-105.5 416,-105.5 416,-71.5 217,-71.5"/>
<text text-anchor="start" x="225" y="-91.9" font-family="Helvetica,sans-Serif" font-size="12.00">Markopy/MarkovPasswordsGUI</text>
<text text-anchor="middle" x="316.5" y="-78.9" font-family="Helvetica,sans-Serif" font-size="12.00">/src/MarkovPasswordsGUI.h</text>
</a>
</g>
</g>
<!-- Node2 -->
<g id="node2" class="node">
<title>Node2</title>
<g id="a_node2"><a xlink:href="_generate_8cpp.html" target="_top" xlink:title="Generation Page.">
<polygon fill="none" stroke="black" points="0,-0.5 0,-34.5 199,-34.5 199,-0.5 0,-0.5"/>
<text text-anchor="start" x="8" y="-20.9" font-family="Helvetica,sans-Serif" font-size="12.00">Markopy/MarkovPasswordsGUI</text>
<text text-anchor="middle" x="99.5" y="-7.9" font-family="Helvetica,sans-Serif" font-size="12.00">/src/Generate.cpp</text>
</a>
</g>
</g>
<!-- Node1&#45;&gt;Node2 -->
<g id="edge1" class="edge">
<title>Node1&#45;&gt;Node2</title>
<path fill="none" stroke="midnightblue" d="M256.5,-68.42C223,-57.77 181.75,-44.65 149.93,-34.54"/>
<polygon fill="midnightblue" stroke="midnightblue" points="255.58,-71.8 266.17,-71.5 257.7,-65.13 255.58,-71.8"/>
</g>
<!-- Node3 -->
<g id="node3" class="node">
<title>Node3</title>
<g id="a_node3"><a xlink:href="_markov_passwords_g_u_i_8cpp.html" target="_top" xlink:title="Main activity page for GUI.">
<polygon fill="none" stroke="black" points="217,-0.5 217,-34.5 416,-34.5 416,-0.5 217,-0.5"/>
<text text-anchor="start" x="225" y="-20.9" font-family="Helvetica,sans-Serif" font-size="12.00">Markopy/MarkovPasswordsGUI</text>
<text text-anchor="middle" x="316.5" y="-7.9" font-family="Helvetica,sans-Serif" font-size="12.00">/src/MarkovPasswordsGUI.cpp</text>
</a>
</g>
</g>
<!-- Node1&#45;&gt;Node3 -->
<g id="edge2" class="edge">
<title>Node1&#45;&gt;Node3</title>
<path fill="none" stroke="midnightblue" d="M316.5,-61.25C316.5,-52.39 316.5,-42.77 316.5,-34.9"/>
<polygon fill="midnightblue" stroke="midnightblue" points="313,-61.5 316.5,-71.5 320,-61.5 313,-61.5"/>
</g>
<!-- Node4 -->
<g id="node4" class="node">
<title>Node4</title>
<g id="a_node4"><a xlink:href="menu_8cpp.html" target="_top" xlink:title="menu page">
<polygon fill="none" stroke="black" points="434,-0.5 434,-34.5 633,-34.5 633,-0.5 434,-0.5"/>
<text text-anchor="start" x="442" y="-20.9" font-family="Helvetica,sans-Serif" font-size="12.00">Markopy/MarkovPasswordsGUI</text>
<text text-anchor="middle" x="533.5" y="-7.9" font-family="Helvetica,sans-Serif" font-size="12.00">/src/menu.cpp</text>
</a>
</g>
</g>
<!-- Node1&#45;&gt;Node4 -->
<g id="edge3" class="edge">
<title>Node1&#45;&gt;Node4</title>
<path fill="none" stroke="midnightblue" d="M376.5,-68.42C410,-57.77 451.25,-44.65 483.07,-34.54"/>
<polygon fill="midnightblue" stroke="midnightblue" points="375.3,-65.13 366.83,-71.5 377.42,-71.8 375.3,-65.13"/>
</g>
</g>
</svg>
