<?xml version="1.0" encoding="UTF-8" standalone="no"?>
<!DOCTYPE svg PUBLIC "-//W3C//DTD SVG 1.1//EN"
 "http://www.w3.org/Graphics/SVG/1.1/DTD/svg11.dtd">
<!-- Generated by graphviz version 2.43.0 (0)
 -->
<!-- Title: Markopy/MarkovPasswordsGUI/src/Train.h Pages: 1 -->
<svg width="268pt" height="101pt"
 viewBox="0.00 0.00 267.50 101.00" xmlns="http://www.w3.org/2000/svg" xmlns:xlink="http://www.w3.org/1999/xlink">
<g id="graph0" class="graph" transform="scale(1 1) rotate(0) translate(4 97)">
<title>Markopy/MarkovPasswordsGUI/src/Train.h</title>
<!-- Node1 -->
<g id="node1" class="node">
<title>Node1</title>
<g id="a_node1"><a xlink:title="training page for GUI">
<polygon fill="#bfbfbf" stroke="black" points="53.5,-58.5 53.5,-92.5 252.5,-92.5 252.5,-58.5 53.5,-58.5"/>
<text text-anchor="start" x="61.5" y="-78.9" font-family="Helvetica,sans-Serif" font-size="12.00">Markopy/MarkovPasswordsGUI</text>
<text text-anchor="middle" x="153" y="-65.9" font-family="Helvetica,sans-Serif" font-size="12.00">/src/Train.h</text>
</a>
</g>
</g>
<!-- Node2 -->
<g id="node2" class="node">
<title>Node2</title>
<g id="a_node2"><a xlink:title=" ">
<polygon fill="none" stroke="#bfbfbf" points="0,-0.5 0,-21.5 168,-21.5 168,-0.5 0,-0.5"/>
<text text-anchor="middle" x="84" y="-7.9" font-family="Helvetica,sans-Serif" font-size="12.00">QtWidgets/QMainWindow</text>
</a>
</g>
</g>
<!-- Node1&#45;&gt;Node2 -->
<g id="edge1" class="edge">
<title>Node1&#45;&gt;Node2</title>
<path fill="none" stroke="midnightblue" d="M135.23,-58.4C125.15,-49.27 112.55,-37.86 102.37,-28.64"/>
<polygon fill="midnightblue" stroke="midnightblue" points="104.58,-25.92 94.82,-21.8 99.88,-31.11 104.58,-25.92"/>
</g>
<!-- Node3 -->
<g id="node3" class="node">
<title>Node3</title>
<g id="a_node3"><a xlink:title=" ">
<polygon fill="none" stroke="#bfbfbf" points="186.5,-0.5 186.5,-21.5 259.5,-21.5 259.5,-0.5 186.5,-0.5"/>
<text text-anchor="middle" x="223" y="-7.9" font-family="Helvetica,sans-Serif" font-size="12.00">ui_Train.h</text>
</a>
</g>
</g>
<!-- Node1&#45;&gt;Node3 -->
<g id="edge2" class="edge">
<title>Node1&#45;&gt;Node3</title>
<path fill="none" stroke="midnightblue" d="M171.03,-58.4C181.26,-49.27 194.04,-37.86 204.36,-28.64"/>
<polygon fill="midnightblue" stroke="midnightblue" points="206.9,-31.07 212.02,-21.8 202.23,-25.85 206.9,-31.07"/>
</g>
</g>
</svg>
