<?xml version="1.0" encoding="UTF-8" standalone="no"?>
<!DOCTYPE svg PUBLIC "-//W3C//DTD SVG 1.1//EN"
 "http://www.w3.org/Graphics/SVG/1.1/DTD/svg11.dtd">
<!-- Generated by graphviz version 2.43.0 (0)
 -->
<!-- Title: Train.cpp Pages: 1 -->
<!--zoomable 320 -->
<svg id="main" version="1.1" xmlns="http://www.w3.org/2000/svg" xmlns:xlink="http://www.w3.org/1999/xlink" xml:space="preserve" onload="init(evt)">
<style type="text/css"><![CDATA[
.edge:hover path { stroke: red; }
.edge:hover polygon { stroke: red; fill: red; }
]]></style>
<script type="text/javascript"><![CDATA[
var edges = document.getElementsByTagName('g');
if (edges && edges.length) {
  for (var i=0;i<edges.length;i++) {
    if (edges[i].id.substr(0,4)=='edge') {
      edges[i].setAttribute('class','edge');
    }
  }
}
]]></script>
        <defs>
                <circle id="rim" cx="0" cy="0" r="7"/>
                <circle id="rim2" cx="0" cy="0" r="3.5"/>
                <g id="zoomPlus">
                        <use xlink:href="#rim" fill="#404040">
                                <set attributeName="fill" to="#808080" begin="zoomplus.mouseover" end="zoomplus.mouseout"/>
                        </use>
                        <path d="M-4,0h8M0,-4v8" fill="none" stroke="white" stroke-width="1.5" pointer-events="none"/>
                </g>
                <g id="zoomMin">
                        <use xlink:href="#rim" fill="#404040">
                                <set attributeName="fill" to="#808080" begin="zoomminus.mouseover" end="zoomminus.mouseout"/>
                        </use>
                        <path d="M-4,0h8" fill="none" stroke="white" stroke-width="1.5" pointer-events="none"/>
                </g>
                <g id="dirArrow">
                        <path fill="none" stroke="white" stroke-width="1.5" d="M0,-3.0v7 M-2.5,-0.5L0,-3.0L2.5,-0.5"/>
                </g>
               <g id="resetDef">
                       <use xlink:href="#rim2" fill="#404040">
                               <set attributeName="fill" to="#808080" begin="reset.mouseover" end="reset.mouseout"/>
                       </use>
               </g>
        </defs>

<script type="text/javascript">
var viewWidth = 1460;
var viewHeight = 320;
var sectionId = 'dynsection-0';
</script>
<script xlink:href="svgpan.js"/>
<svg id="graph" class="graph">
<g id="viewport">
<title>Train.cpp</title>
<!-- Node1 -->
<g id="node1" class="node">
<title>Node1</title>
<g id="a_node1"><a xlink:title="training page for GUI">
<polygon fill="#bfbfbf" stroke="black" points="870,-290.5 870,-311.5 941,-311.5 941,-290.5 870,-290.5"/>
<text text-anchor="middle" x="905.5" y="-297.9" font-family="Helvetica,sans-Serif" font-size="12.00">Train.cpp</text>
</a>
</g>
</g>
<!-- Node2 -->
<g id="node2" class="node">
<title>Node2</title>
<g id="a_node2"><a xlink:href="_train_8h.html" target="_top" xlink:title="training page for GUI">
<polygon fill="none" stroke="black" points="395.5,-232.5 395.5,-253.5 451.5,-253.5 451.5,-232.5 395.5,-232.5"/>
<text text-anchor="middle" x="423.5" y="-239.9" font-family="Helvetica,sans-Serif" font-size="12.00">Train.h</text>
</a>
</g>
</g>
<!-- Node1&#45;&gt;Node2 -->
<g id="edge1" class="edge">
<title>Node1&#45;&gt;Node2</title>
<path fill="none" stroke="midnightblue" d="M869.67,-295.84C781.21,-285.56 553.06,-259.05 461.93,-248.47"/>
<polygon fill="midnightblue" stroke="midnightblue" points="462.11,-244.96 451.77,-247.28 461.3,-251.92 462.11,-244.96"/>
</g>
<!-- Node5 -->
<g id="node5" class="node">
<title>Node5</title>
<g id="a_node5"><a xlink:title=" ">
<polygon fill="none" stroke="#bfbfbf" points="805,-116.5 805,-137.5 868,-137.5 868,-116.5 805,-116.5"/>
<text text-anchor="middle" x="836.5" y="-123.9" font-family="Helvetica,sans-Serif" font-size="12.00">fstream</text>
</a>
</g>
</g>
<!-- Node1&#45;&gt;Node5 -->
<g id="edge4" class="edge">
<title>Node1&#45;&gt;Node5</title>
<path fill="none" stroke="midnightblue" d="M901.59,-290.26C890.54,-262.71 858.9,-183.83 844.19,-147.17"/>
<polygon fill="midnightblue" stroke="midnightblue" points="847.34,-145.61 840.36,-137.63 840.84,-148.22 847.34,-145.61"/>
</g>
<!-- Node6 -->
<g id="node6" class="node">
<title>Node6</title>
<g id="a_node6"><a xlink:title=" ">
<polygon fill="none" stroke="#bfbfbf" points="898.5,-232.5 898.5,-253.5 982.5,-253.5 982.5,-232.5 898.5,-232.5"/>
<text text-anchor="middle" x="940.5" y="-239.9" font-family="Helvetica,sans-Serif" font-size="12.00">QFileDialog</text>
</a>
</g>
</g>
<!-- Node1&#45;&gt;Node6 -->
<g id="edge5" class="edge">
<title>Node1&#45;&gt;Node6</title>
<path fill="none" stroke="midnightblue" d="M911.6,-290.25C916.41,-282.54 923.28,-271.56 929.1,-262.23"/>
<polygon fill="midnightblue" stroke="midnightblue" points="932.14,-263.98 934.47,-253.64 926.21,-260.27 932.14,-263.98"/>
</g>
<!-- Node7 -->
<g id="node7" class="node">
<title>Node7</title>
<g id="a_node7"><a xlink:title=" ">
<polygon fill="none" stroke="#bfbfbf" points="1001,-232.5 1001,-253.5 1102,-253.5 1102,-232.5 1001,-232.5"/>
<text text-anchor="middle" x="1051.5" y="-239.9" font-family="Helvetica,sans-Serif" font-size="12.00">QMessageBox</text>
</a>
</g>
</g>
<!-- Node1&#45;&gt;Node7 -->
<g id="edge6" class="edge">
<title>Node1&#45;&gt;Node7</title>
<path fill="none" stroke="midnightblue" d="M930.6,-290.37C954.46,-281.22 990.53,-267.38 1017.07,-257.21"/>
<polygon fill="midnightblue" stroke="midnightblue" points="1018.65,-260.35 1026.73,-253.5 1016.14,-253.81 1018.65,-260.35"/>
</g>
<!-- Node8 -->
<g id="node8" class="node">
<title>Node8</title>
<g id="a_node8"><a xlink:title=" ">
<polygon fill="none" stroke="#bfbfbf" points="1120,-232.5 1120,-253.5 1213,-253.5 1213,-232.5 1120,-232.5"/>
<text text-anchor="middle" x="1166.5" y="-239.9" font-family="Helvetica,sans-Serif" font-size="12.00">QTextStream</text>
</a>
</g>
</g>
<!-- Node1&#45;&gt;Node8 -->
<g id="edge7" class="edge">
<title>Node1&#45;&gt;Node8</title>
<path fill="none" stroke="midnightblue" d="M941.24,-292.33C985.35,-282.87 1060.8,-266.68 1112.11,-255.67"/>
<polygon fill="midnightblue" stroke="midnightblue" points="1112.99,-259.06 1122.03,-253.54 1111.52,-252.22 1112.99,-259.06"/>
</g>
<!-- Node9 -->
<g id="node9" class="node">
<title>Node9</title>
<g id="a_node9"><a xlink:title=" ">
<polygon fill="none" stroke="#bfbfbf" points="1231.5,-232.5 1231.5,-253.5 1275.5,-253.5 1275.5,-232.5 1231.5,-232.5"/>
<text text-anchor="middle" x="1253.5" y="-239.9" font-family="Helvetica,sans-Serif" font-size="12.00">QDir</text>
</a>
</g>
</g>
<!-- Node1&#45;&gt;Node9 -->
<g id="edge8" class="edge">
<title>Node1&#45;&gt;Node9</title>
<path fill="none" stroke="midnightblue" d="M941.04,-296.81C998.27,-291.25 1114.43,-278.21 1221.3,-253.97"/>
<polygon fill="midnightblue" stroke="midnightblue" points="1222.32,-257.32 1231.27,-251.66 1220.74,-250.5 1222.32,-257.32"/>
</g>
<!-- Node10 -->
<g id="node10" class="node">
<title>Node10</title>
<g id="a_node10"><a xlink:href="_c_l_i_8h.html" target="_top" xlink:title="CLI page.">
<polygon fill="none" stroke="black" points="142,-232.5 142,-253.5 189,-253.5 189,-232.5 142,-232.5"/>
<text text-anchor="middle" x="165.5" y="-239.9" font-family="Helvetica,sans-Serif" font-size="12.00">CLI.h</text>
</a>
</g>
</g>
<!-- Node1&#45;&gt;Node10 -->
<g id="edge9" class="edge">
<title>Node1&#45;&gt;Node10</title>
<path fill="none" stroke="midnightblue" d="M869.85,-297.75C772.99,-291.58 496.83,-273.51 267.5,-254 244.81,-252.07 219.31,-249.57 199.48,-247.55"/>
<polygon fill="midnightblue" stroke="midnightblue" points="199.7,-244.06 189.39,-246.52 198.98,-251.02 199.7,-244.06"/>
</g>
<!-- Node12 -->
<g id="node12" class="node">
<title>Node12</title>
<g id="a_node12"><a xlink:href="markov_passwords_8h.html" target="_top" xlink:title="Wrapper for Markov::Model to use with char represented models.">
<polygon fill="none" stroke="black" points="619,-232.5 619,-253.5 842,-253.5 842,-232.5 619,-232.5"/>
<text text-anchor="middle" x="730.5" y="-239.9" font-family="Helvetica,sans-Serif" font-size="12.00">MarkovAPI/src/markovPasswords.h</text>
</a>
</g>
</g>
<!-- Node1&#45;&gt;Node12 -->
<g id="edge12" class="edge">
<title>Node1&#45;&gt;Node12</title>
<path fill="none" stroke="midnightblue" d="M875.42,-290.37C846.32,-281.06 802.05,-266.9 770.1,-256.67"/>
<polygon fill="midnightblue" stroke="midnightblue" points="770.78,-253.22 760.19,-253.5 768.65,-259.88 770.78,-253.22"/>
</g>
<!-- Node29 -->
<g id="node29" class="node">
<title>Node29</title>
<g id="a_node29"><a xlink:title=" ">
<polygon fill="none" stroke="#bfbfbf" points="1293.5,-232.5 1293.5,-253.5 1451.5,-253.5 1451.5,-232.5 1293.5,-232.5"/>
<text text-anchor="middle" x="1372.5" y="-239.9" font-family="Helvetica,sans-Serif" font-size="12.00">QtWidgets/QApplication</text>
</a>
</g>
</g>
<!-- Node1&#45;&gt;Node29 -->
<g id="edge37" class="edge">
<title>Node1&#45;&gt;Node29</title>
<path fill="none" stroke="midnightblue" d="M941.37,-295.7C1013.82,-287.01 1179.5,-267.14 1283.08,-254.72"/>
<polygon fill="midnightblue" stroke="midnightblue" points="1283.71,-258.17 1293.22,-253.51 1282.87,-251.22 1283.71,-258.17"/>
</g>
<!-- Node30 -->
<g id="node30" class="node">
<title>Node30</title>
<g id="a_node30"><a xlink:href="_generate_8h.html" target="_top" xlink:title="Generation Page.">
<polygon fill="none" stroke="black" points="276.5,-232.5 276.5,-253.5 360.5,-253.5 360.5,-232.5 276.5,-232.5"/>
<text text-anchor="middle" x="318.5" y="-239.9" font-family="Helvetica,sans-Serif" font-size="12.00">Generate.h</text>
</a>
</g>
</g>
<!-- Node1&#45;&gt;Node30 -->
<g id="edge38" class="edge">
<title>Node1&#45;&gt;Node30</title>
<path fill="none" stroke="midnightblue" d="M869.87,-297.55C785.66,-291.61 567.75,-275.34 386.5,-254 381.37,-253.4 376.04,-252.71 370.71,-251.99"/>
<polygon fill="midnightblue" stroke="midnightblue" points="370.92,-248.48 360.53,-250.57 369.95,-255.42 370.92,-248.48"/>
</g>
<!-- Node3 -->
<g id="node3" class="node">
<title>Node3</title>
<g id="a_node3"><a xlink:title=" ">
<polygon fill="none" stroke="#bfbfbf" points="81.5,-174.5 81.5,-195.5 249.5,-195.5 249.5,-174.5 81.5,-174.5"/>
<text text-anchor="middle" x="165.5" y="-181.9" font-family="Helvetica,sans-Serif" font-size="12.00">QtWidgets/QMainWindow</text>
</a>
</g>
</g>
<!-- Node2&#45;&gt;Node3 -->
<g id="edge2" class="edge">
<title>Node2&#45;&gt;Node3</title>
<path fill="none" stroke="midnightblue" d="M395.4,-235.9C353.31,-226.77 273.14,-209.36 219.49,-197.72"/>
<polygon fill="midnightblue" stroke="midnightblue" points="219.98,-194.24 209.47,-195.54 218.5,-201.08 219.98,-194.24"/>
</g>
<!-- Node4 -->
<g id="node4" class="node">
<title>Node4</title>
<g id="a_node4"><a xlink:title=" ">
<polygon fill="none" stroke="#bfbfbf" points="387,-174.5 387,-195.5 460,-195.5 460,-174.5 387,-174.5"/>
<text text-anchor="middle" x="423.5" y="-181.9" font-family="Helvetica,sans-Serif" font-size="12.00">ui_Train.h</text>
</a>
</g>
</g>
<!-- Node2&#45;&gt;Node4 -->
<g id="edge3" class="edge">
<title>Node2&#45;&gt;Node4</title>
<path fill="none" stroke="midnightblue" d="M423.5,-232.25C423.5,-224.94 423.5,-214.69 423.5,-205.7"/>
<polygon fill="midnightblue" stroke="midnightblue" points="427,-205.64 423.5,-195.64 420,-205.64 427,-205.64"/>
</g>
<!-- Node10&#45;&gt;Node3 -->
<g id="edge10" class="edge">
<title>Node10&#45;&gt;Node3</title>
<path fill="none" stroke="midnightblue" d="M165.5,-232.25C165.5,-224.94 165.5,-214.69 165.5,-205.7"/>
<polygon fill="midnightblue" stroke="midnightblue" points="169,-205.64 165.5,-195.64 162,-205.64 169,-205.64"/>
</g>
<!-- Node11 -->
<g id="node11" class="node">
<title>Node11</title>
<g id="a_node11"><a xlink:title=" ">
<polygon fill="none" stroke="#bfbfbf" points="0,-174.5 0,-195.5 63,-195.5 63,-174.5 0,-174.5"/>
<text text-anchor="middle" x="31.5" y="-181.9" font-family="Helvetica,sans-Serif" font-size="12.00">ui_CLI.h</text>
</a>
</g>
</g>
<!-- Node10&#45;&gt;Node11 -->
<g id="edge11" class="edge">
<title>Node10&#45;&gt;Node11</title>
<path fill="none" stroke="midnightblue" d="M142.46,-232.37C120.76,-223.3 88.04,-209.63 63.75,-199.48"/>
<polygon fill="midnightblue" stroke="midnightblue" points="64.81,-196.13 54.23,-195.5 62.11,-202.59 64.81,-196.13"/>
</g>
<!-- Node13 -->
<g id="node13" class="node">
<title>Node13</title>
<g id="a_node13"><a xlink:href="thread_shared_list_handler_8h.html" target="_top" xlink:title="Thread&#45;safe wrapper for std::ifstream.">
<polygon fill="none" stroke="black" points="667,-174.5 667,-195.5 842,-195.5 842,-174.5 667,-174.5"/>
<text text-anchor="middle" x="754.5" y="-181.9" font-family="Helvetica,sans-Serif" font-size="12.00">threadSharedListHandler.h</text>
</a>
</g>
</g>
<!-- Node12&#45;&gt;Node13 -->
<g id="edge13" class="edge">
<title>Node12&#45;&gt;Node13</title>
<path fill="none" stroke="midnightblue" d="M734.68,-232.25C737.88,-224.78 742.4,-214.24 746.31,-205.11"/>
<polygon fill="midnightblue" stroke="midnightblue" points="749.65,-206.21 750.37,-195.64 743.21,-203.46 749.65,-206.21"/>
</g>
<!-- Node16 -->
<g id="node16" class="node">
<title>Node16</title>
<g id="a_node16"><a xlink:href="model_8h.html" target="_top" xlink:title="Model class template.">
<polygon fill="none" stroke="black" points="478.5,-174.5 478.5,-195.5 648.5,-195.5 648.5,-174.5 478.5,-174.5"/>
<text text-anchor="middle" x="563.5" y="-181.9" font-family="Helvetica,sans-Serif" font-size="12.00">MarkovModel/src/model.h</text>
</a>
</g>
</g>
<!-- Node12&#45;&gt;Node16 -->
<g id="edge17" class="edge">
<title>Node12&#45;&gt;Node16</title>
<path fill="none" stroke="midnightblue" d="M701.79,-232.37C674.14,-223.1 632.14,-209.02 601.68,-198.8"/>
<polygon fill="midnightblue" stroke="midnightblue" points="602.43,-195.36 591.83,-195.5 600.2,-202 602.43,-195.36"/>
</g>
<!-- Node13&#45;&gt;Node5 -->
<g id="edge15" class="edge">
<title>Node13&#45;&gt;Node5</title>
<path fill="none" stroke="midnightblue" d="M768.78,-174.25C781.25,-165.73 799.55,-153.24 813.98,-143.38"/>
<polygon fill="midnightblue" stroke="midnightblue" points="816.1,-146.17 822.38,-137.64 812.15,-140.39 816.1,-146.17"/>
</g>
<!-- Node14 -->
<g id="node14" class="node">
<title>Node14</title>
<g id="a_node14"><a xlink:title=" ">
<polygon fill="none" stroke="#bfbfbf" points="663.5,-116.5 663.5,-137.5 713.5,-137.5 713.5,-116.5 663.5,-116.5"/>
<text text-anchor="middle" x="688.5" y="-123.9" font-family="Helvetica,sans-Serif" font-size="12.00">string</text>
</a>
</g>
</g>
<!-- Node13&#45;&gt;Node14 -->
<g id="edge14" class="edge">
<title>Node13&#45;&gt;Node14</title>
<path fill="none" stroke="midnightblue" d="M743,-174.25C733.26,-165.97 719.07,-153.94 707.62,-144.22"/>
<polygon fill="midnightblue" stroke="midnightblue" points="709.75,-141.44 699.86,-137.64 705.23,-146.78 709.75,-141.44"/>
</g>
<!-- Node15 -->
<g id="node15" class="node">
<title>Node15</title>
<g id="a_node15"><a xlink:title=" ">
<polygon fill="none" stroke="#bfbfbf" points="732,-116.5 732,-137.5 787,-137.5 787,-116.5 732,-116.5"/>
<text text-anchor="middle" x="759.5" y="-123.9" font-family="Helvetica,sans-Serif" font-size="12.00">mutex</text>
</a>
</g>
</g>
<!-- Node13&#45;&gt;Node15 -->
<g id="edge16" class="edge">
<title>Node13&#45;&gt;Node15</title>
<path fill="none" stroke="midnightblue" d="M755.37,-174.25C756.02,-166.94 756.94,-156.69 757.74,-147.7"/>
<polygon fill="midnightblue" stroke="midnightblue" points="761.24,-147.91 758.64,-137.64 754.26,-147.29 761.24,-147.91"/>
</g>
<!-- Node16&#45;&gt;Node5 -->
<g id="edge20" class="edge">
<title>Node16&#45;&gt;Node5</title>
<path fill="none" stroke="midnightblue" d="M615.94,-174.42C661.05,-166.01 728.09,-153.09 794.82,-138.31"/>
<polygon fill="midnightblue" stroke="midnightblue" points="795.66,-141.71 804.66,-136.11 794.14,-134.87 795.66,-141.71"/>
</g>
<!-- Node16&#45;&gt;Node14 -->
<g id="edge22" class="edge">
<title>Node16&#45;&gt;Node14</title>
<path fill="none" stroke="midnightblue" d="M584.99,-174.37C605.14,-165.34 635.49,-151.75 658.12,-141.61"/>
<polygon fill="midnightblue" stroke="midnightblue" points="659.6,-144.78 667.29,-137.5 656.74,-138.4 659.6,-144.78"/>
</g>
<!-- Node17 -->
<g id="node17" class="node">
<title>Node17</title>
<g id="a_node17"><a xlink:title=" ">
<polygon fill="none" stroke="#bfbfbf" points="507.5,-58.5 507.5,-79.5 551.5,-79.5 551.5,-58.5 507.5,-58.5"/>
<text text-anchor="middle" x="529.5" y="-65.9" font-family="Helvetica,sans-Serif" font-size="12.00">map</text>
</a>
</g>
</g>
<!-- Node16&#45;&gt;Node17 -->
<g id="edge18" class="edge">
<title>Node16&#45;&gt;Node17</title>
<path fill="none" stroke="midnightblue" d="M560.6,-174.28C555.01,-155.52 542.62,-114 535.28,-89.38"/>
<polygon fill="midnightblue" stroke="midnightblue" points="538.6,-88.28 532.39,-79.69 531.9,-90.28 538.6,-88.28"/>
</g>
<!-- Node18 -->
<g id="node18" class="node">
<title>Node18</title>
<g id="a_node18"><a xlink:title=" ">
<polygon fill="none" stroke="#bfbfbf" points="570,-58.5 570,-79.5 625,-79.5 625,-58.5 570,-58.5"/>
<text text-anchor="middle" x="597.5" y="-65.9" font-family="Helvetica,sans-Serif" font-size="12.00">vector</text>
</a>
</g>
</g>
<!-- Node16&#45;&gt;Node18 -->
<g id="edge19" class="edge">
<title>Node16&#45;&gt;Node18</title>
<path fill="none" stroke="midnightblue" d="M566.4,-174.28C571.99,-155.52 584.38,-114 591.72,-89.38"/>
<polygon fill="midnightblue" stroke="midnightblue" points="595.1,-90.28 594.61,-79.69 588.4,-88.28 595.1,-90.28"/>
</g>
<!-- Node19 -->
<g id="node19" class="node">
<title>Node19</title>
<g id="a_node19"><a xlink:title=" ">
<polygon fill="none" stroke="#bfbfbf" points="643,-58.5 643,-79.5 708,-79.5 708,-58.5 643,-58.5"/>
<text text-anchor="middle" x="675.5" y="-65.9" font-family="Helvetica,sans-Serif" font-size="12.00">assert.h</text>
</a>
</g>
</g>
<!-- Node16&#45;&gt;Node19 -->
<g id="edge21" class="edge">
<title>Node16&#45;&gt;Node19</title>
<path fill="none" stroke="midnightblue" d="M573.05,-174.28C592.06,-154.93 634.86,-111.37 658.68,-87.12"/>
<polygon fill="midnightblue" stroke="midnightblue" points="661.46,-89.28 665.98,-79.69 656.47,-84.38 661.46,-89.28"/>
</g>
<!-- Node20 -->
<g id="node20" class="node">
<title>Node20</title>
<g id="a_node20"><a xlink:title=" ">
<polygon fill="none" stroke="#bfbfbf" points="457.5,-116.5 457.5,-137.5 531.5,-137.5 531.5,-116.5 457.5,-116.5"/>
<text text-anchor="middle" x="494.5" y="-123.9" font-family="Helvetica,sans-Serif" font-size="12.00">algorithm</text>
</a>
</g>
</g>
<!-- Node16&#45;&gt;Node20 -->
<g id="edge23" class="edge">
<title>Node16&#45;&gt;Node20</title>
<path fill="none" stroke="midnightblue" d="M551.48,-174.25C541.29,-165.97 526.46,-153.94 514.49,-144.22"/>
<polygon fill="midnightblue" stroke="midnightblue" points="516.35,-141.23 506.38,-137.64 511.94,-146.66 516.35,-141.23"/>
</g>
<!-- Node21 -->
<g id="node21" class="node">
<title>Node21</title>
<g id="a_node21"><a xlink:href="node_8h.html" target="_top" xlink:title="Node class template.">
<polygon fill="none" stroke="black" points="381.5,-116.5 381.5,-137.5 439.5,-137.5 439.5,-116.5 381.5,-116.5"/>
<text text-anchor="middle" x="410.5" y="-123.9" font-family="Helvetica,sans-Serif" font-size="12.00">node.h</text>
</a>
</g>
</g>
<!-- Node16&#45;&gt;Node21 -->
<g id="edge24" class="edge">
<title>Node16&#45;&gt;Node21</title>
<path fill="none" stroke="midnightblue" d="M537.2,-174.37C512.09,-165.18 474.06,-151.26 446.21,-141.07"/>
<polygon fill="midnightblue" stroke="midnightblue" points="447.05,-137.65 436.46,-137.5 444.65,-144.23 447.05,-137.65"/>
</g>
<!-- Node24 -->
<g id="node24" class="node">
<title>Node24</title>
<g id="a_node24"><a xlink:href="edge_8h.html" target="_top" xlink:title="Edge class template.">
<polygon fill="none" stroke="black" points="206.5,-58.5 206.5,-79.5 264.5,-79.5 264.5,-58.5 206.5,-58.5"/>
<text text-anchor="middle" x="235.5" y="-65.9" font-family="Helvetica,sans-Serif" font-size="12.00">edge.h</text>
</a>
</g>
</g>
<!-- Node16&#45;&gt;Node24 -->
<g id="edge36" class="edge">
<title>Node16&#45;&gt;Node24</title>
<path fill="none" stroke="midnightblue" d="M509.86,-174.43C471.05,-166.71 417.7,-154.42 372.5,-138 331.87,-123.24 287.51,-99.75 260.6,-84.6"/>
<polygon fill="midnightblue" stroke="midnightblue" points="262.26,-81.53 251.84,-79.62 258.8,-87.61 262.26,-81.53"/>
</g>
<!-- Node21&#45;&gt;Node17 -->
<g id="edge26" class="edge">
<title>Node21&#45;&gt;Node17</title>
<path fill="none" stroke="midnightblue" d="M430.96,-116.37C449.97,-107.42 478.52,-93.99 500,-83.88"/>
<polygon fill="midnightblue" stroke="midnightblue" points="501.75,-86.93 509.31,-79.5 498.77,-80.59 501.75,-86.93"/>
</g>
<!-- Node21&#45;&gt;Node18 -->
<g id="edge25" class="edge">
<title>Node21&#45;&gt;Node18</title>
<path fill="none" stroke="midnightblue" d="M439.72,-117.25C472.07,-107.56 524.31,-91.92 559.74,-81.31"/>
<polygon fill="midnightblue" stroke="midnightblue" points="561.13,-84.55 569.71,-78.32 559.12,-77.84 561.13,-84.55"/>
</g>
<!-- Node21&#45;&gt;Node19 -->
<g id="edge27" class="edge">
<title>Node21&#45;&gt;Node19</title>
<path fill="none" stroke="midnightblue" d="M439.91,-118.05C442.81,-117.33 445.71,-116.64 448.5,-116 527.55,-97.97 550.55,-97.96 633.05,-80.24"/>
<polygon fill="midnightblue" stroke="midnightblue" points="633.83,-83.65 642.86,-78.11 632.34,-76.81 633.83,-83.65"/>
</g>
<!-- Node22 -->
<g id="node22" class="node">
<title>Node22</title>
<g id="a_node22"><a xlink:title=" ">
<polygon fill="none" stroke="#bfbfbf" points="352,-0.5 352,-21.5 421,-21.5 421,-0.5 352,-0.5"/>
<text text-anchor="middle" x="386.5" y="-7.9" font-family="Helvetica,sans-Serif" font-size="12.00">iostream</text>
</a>
</g>
</g>
<!-- Node21&#45;&gt;Node22 -->
<g id="edge28" class="edge">
<title>Node21&#45;&gt;Node22</title>
<path fill="none" stroke="midnightblue" d="M408.45,-116.28C404.52,-97.6 395.84,-56.37 390.65,-31.72"/>
<polygon fill="midnightblue" stroke="midnightblue" points="394.03,-30.76 388.54,-21.69 387.18,-32.2 394.03,-30.76"/>
</g>
<!-- Node23 -->
<g id="node23" class="node">
<title>Node23</title>
<g id="a_node23"><a xlink:title=" ">
<polygon fill="none" stroke="#bfbfbf" points="283,-58.5 283,-79.5 358,-79.5 358,-58.5 283,-58.5"/>
<text text-anchor="middle" x="320.5" y="-65.9" font-family="Helvetica,sans-Serif" font-size="12.00">stdexcept</text>
</a>
</g>
</g>
<!-- Node21&#45;&gt;Node23 -->
<g id="edge29" class="edge">
<title>Node21&#45;&gt;Node23</title>
<path fill="none" stroke="midnightblue" d="M394.82,-116.25C381.01,-107.65 360.68,-95 344.77,-85.1"/>
<polygon fill="midnightblue" stroke="midnightblue" points="346.34,-81.95 336,-79.64 342.64,-87.9 346.34,-81.95"/>
</g>
<!-- Node21&#45;&gt;Node24 -->
<g id="edge30" class="edge">
<title>Node21&#45;&gt;Node24</title>
<path fill="none" stroke="midnightblue" d="M381.21,-116.63C351.85,-107.23 306.48,-92.71 274.17,-82.37"/>
<polygon fill="midnightblue" stroke="midnightblue" points="275.19,-79.02 264.59,-79.31 273.05,-85.69 275.19,-79.02"/>
</g>
<!-- Node27 -->
<g id="node27" class="node">
<title>Node27</title>
<g id="a_node27"><a xlink:href="random_8h.html" target="_top" xlink:title="Random engine implementations for Markov.">
<polygon fill="none" stroke="black" points="415,-58.5 415,-79.5 490,-79.5 490,-58.5 415,-58.5"/>
<text text-anchor="middle" x="452.5" y="-65.9" font-family="Helvetica,sans-Serif" font-size="12.00">random.h</text>
</a>
</g>
</g>
<!-- Node21&#45;&gt;Node27 -->
<g id="edge33" class="edge">
<title>Node21&#45;&gt;Node27</title>
<path fill="none" stroke="midnightblue" d="M417.82,-116.25C423.72,-108.38 432.17,-97.1 439.26,-87.65"/>
<polygon fill="midnightblue" stroke="midnightblue" points="442.07,-89.74 445.27,-79.64 436.47,-85.54 442.07,-89.74"/>
</g>
<!-- Node25 -->
<g id="node25" class="node">
<title>Node25</title>
<g id="a_node25"><a xlink:title=" ">
<polygon fill="none" stroke="#bfbfbf" points="164.5,-0.5 164.5,-21.5 220.5,-21.5 220.5,-0.5 164.5,-0.5"/>
<text text-anchor="middle" x="192.5" y="-7.9" font-family="Helvetica,sans-Serif" font-size="12.00">cstdint</text>
</a>
</g>
</g>
<!-- Node24&#45;&gt;Node25 -->
<g id="edge31" class="edge">
<title>Node24&#45;&gt;Node25</title>
<path fill="none" stroke="midnightblue" d="M228.01,-58.25C221.97,-50.38 213.31,-39.1 206.06,-29.65"/>
<polygon fill="midnightblue" stroke="midnightblue" points="208.77,-27.44 199.9,-21.64 203.22,-31.71 208.77,-27.44"/>
</g>
<!-- Node26 -->
<g id="node26" class="node">
<title>Node26</title>
<g id="a_node26"><a xlink:title=" ">
<polygon fill="none" stroke="#bfbfbf" points="239,-0.5 239,-21.5 300,-21.5 300,-0.5 239,-0.5"/>
<text text-anchor="middle" x="269.5" y="-7.9" font-family="Helvetica,sans-Serif" font-size="12.00">cstddef</text>
</a>
</g>
</g>
<!-- Node24&#45;&gt;Node26 -->
<g id="edge32" class="edge">
<title>Node24&#45;&gt;Node26</title>
<path fill="none" stroke="midnightblue" d="M241.42,-58.25C246.1,-50.54 252.77,-39.56 258.43,-30.23"/>
<polygon fill="midnightblue" stroke="midnightblue" points="261.45,-32.01 263.65,-21.64 255.46,-28.37 261.45,-32.01"/>
</g>
<!-- Node27&#45;&gt;Node22 -->
<g id="edge35" class="edge">
<title>Node27&#45;&gt;Node22</title>
<path fill="none" stroke="midnightblue" d="M441,-58.25C431.26,-49.97 417.07,-37.94 405.62,-28.22"/>
<polygon fill="midnightblue" stroke="midnightblue" points="407.75,-25.44 397.86,-21.64 403.23,-30.78 407.75,-25.44"/>
</g>
<!-- Node28 -->
<g id="node28" class="node">
<title>Node28</title>
<g id="a_node28"><a xlink:title=" ">
<polygon fill="none" stroke="#bfbfbf" points="439.5,-0.5 439.5,-21.5 503.5,-21.5 503.5,-0.5 439.5,-0.5"/>
<text text-anchor="middle" x="471.5" y="-7.9" font-family="Helvetica,sans-Serif" font-size="12.00">random</text>
</a>
</g>
</g>
<!-- Node27&#45;&gt;Node28 -->
<g id="edge34" class="edge">
<title>Node27&#45;&gt;Node28</title>
<path fill="none" stroke="midnightblue" d="M455.81,-58.25C458.34,-50.78 461.92,-40.24 465.01,-31.11"/>
<polygon fill="midnightblue" stroke="midnightblue" points="468.33,-32.24 468.23,-21.64 461.7,-29.99 468.33,-32.24"/>
</g>
<!-- Node30&#45;&gt;Node3 -->
<g id="edge39" class="edge">
<title>Node30&#45;&gt;Node3</title>
<path fill="none" stroke="midnightblue" d="M292.2,-232.37C267.09,-223.18 229.06,-209.26 201.21,-199.07"/>
<polygon fill="midnightblue" stroke="midnightblue" points="202.05,-195.65 191.46,-195.5 199.65,-202.23 202.05,-195.65"/>
</g>
<!-- Node31 -->
<g id="node31" class="node">
<title>Node31</title>
<g id="a_node31"><a xlink:title=" ">
<polygon fill="none" stroke="#bfbfbf" points="268,-174.5 268,-195.5 369,-195.5 369,-174.5 268,-174.5"/>
<text text-anchor="middle" x="318.5" y="-181.9" font-family="Helvetica,sans-Serif" font-size="12.00">ui_Generate.h</text>
</a>
</g>
</g>
<!-- Node30&#45;&gt;Node31 -->
<g id="edge40" class="edge">
<title>Node30&#45;&gt;Node31</title>
<path fill="none" stroke="midnightblue" d="M318.5,-232.25C318.5,-224.94 318.5,-214.69 318.5,-205.7"/>
<polygon fill="midnightblue" stroke="midnightblue" points="322,-205.64 318.5,-195.64 315,-205.64 322,-205.64"/>
</g>
</g>
</svg>
        <g id="navigator" transform="translate(0 0)" fill="#404254">
                <rect fill="#f2f5e9" fill-opacity="0.5" stroke="#606060" stroke-width=".5" x="0" y="0" width="60" height="60"/>
                <use id="zoomplus" xlink:href="#zoomPlus" x="17" y="9" onmousedown="handleZoom(evt,'in')"/>
                <use id="zoomminus" xlink:href="#zoomMin" x="42" y="9" onmousedown="handleZoom(evt,'out')"/>
                <use id="reset" xlink:href="#resetDef" x="30" y="36" onmousedown="handleReset()"/>
                <g id="arrowUp" xlink:href="#dirArrow" transform="translate(30 24)" onmousedown="handlePan(0,-1)">
                  <use xlink:href="#rim" fill="#404040">
                        <set attributeName="fill" to="#808080" begin="arrowUp.mouseover" end="arrowUp.mouseout"/>
                  </use>
                  <path fill="none" stroke="white" stroke-width="1.5" d="M0,-3.0v7 M-2.5,-0.5L0,-3.0L2.5,-0.5"/>
                </g>
                <g id="arrowRight" xlink:href="#dirArrow" transform="rotate(90) translate(36 -43)" onmousedown="handlePan(1,0)">
                  <use xlink:href="#rim" fill="#404040">
                        <set attributeName="fill" to="#808080" begin="arrowRight.mouseover" end="arrowRight.mouseout"/>
                  </use>
                  <path fill="none" stroke="white" stroke-width="1.5" d="M0,-3.0v7 M-2.5,-0.5L0,-3.0L2.5,-0.5"/>
                </g>
                <g id="arrowDown" xlink:href="#dirArrow" transform="rotate(180) translate(-30 -48)" onmousedown="handlePan(0,1)">
                  <use xlink:href="#rim" fill="#404040">
                        <set attributeName="fill" to="#808080" begin="arrowDown.mouseover" end="arrowDown.mouseout"/>
                  </use>
                  <path fill="none" stroke="white" stroke-width="1.5" d="M0,-3.0v7 M-2.5,-0.5L0,-3.0L2.5,-0.5"/>
                </g>
                <g id="arrowLeft" xlink:href="#dirArrow" transform="rotate(270) translate(-36 17)" onmousedown="handlePan(-1,0)">
                  <use xlink:href="#rim" fill="#404040">
                        <set attributeName="fill" to="#808080" begin="arrowLeft.mouseover" end="arrowLeft.mouseout"/>
                  </use>
                  <path fill="none" stroke="white" stroke-width="1.5" d="M0,-3.0v7 M-2.5,-0.5L0,-3.0L2.5,-0.5"/>
                </g>
        </g>
        <svg viewBox="0 0 15 15" width="100%" height="30px" preserveAspectRatio="xMaxYMin meet">
         <g id="arrow_out" transform="scale(0.3 0.3)">
          <a xlink:href="_train_8cpp__incl_org.svg" target="_base">
           <rect id="button" ry="5" rx="5" y="6" x="6" height="38" width="38"
                fill="#f2f5e9" fill-opacity="0.5" stroke="#606060" stroke-width="1.0"/>
           <path id="arrow"
             d="M 11.500037,31.436501 C 11.940474,20.09759 22.043105,11.32322 32.158766,21.979434 L 37.068811,17.246167 C 37.068811,17.246167 37.088388,32 37.088388,32 L 22.160133,31.978069 C 22.160133,31.978069 26.997745,27.140456 26.997745,27.140456 C 18.528582,18.264221 13.291696,25.230495 11.500037,31.436501 z"
             style="fill:#404040;"/>
          </a>
         </g>
        </svg>
</svg>
