<?xml version="1.0" encoding="UTF-8" standalone="no"?>
<!DOCTYPE svg PUBLIC "-//W3C//DTD SVG 1.1//EN"
 "http://www.w3.org/Graphics/SVG/1.1/DTD/svg11.dtd">
<!-- Generated by graphviz version 2.43.0 (0)
 -->
<!-- Title: Train.h Pages: 1 -->
<svg width="268pt" height="88pt"
 viewBox="0.00 0.00 267.50 88.00" xmlns="http://www.w3.org/2000/svg" xmlns:xlink="http://www.w3.org/1999/xlink">
<g id="graph0" class="graph" transform="scale(1 1) rotate(0) translate(4 84)">
<title>Train.h</title>
<!-- Node1 -->
<g id="node1" class="node">
<title>Node1</title>
<g id="a_node1"><a xlink:title="training page for GUI">
<polygon fill="#bfbfbf" stroke="black" points="125,-58.5 125,-79.5 181,-79.5 181,-58.5 125,-58.5"/>
<text text-anchor="middle" x="153" y="-65.9" font-family="Helvetica,sans-Serif" font-size="12.00">Train.h</text>
</a>
</g>
</g>
<!-- Node2 -->
<g id="node2" class="node">
<title>Node2</title>
<g id="a_node2"><a xlink:title=" ">
<polygon fill="none" stroke="#bfbfbf" points="0,-0.5 0,-21.5 168,-21.5 168,-0.5 0,-0.5"/>
<text text-anchor="middle" x="84" y="-7.9" font-family="Helvetica,sans-Serif" font-size="12.00">QtWidgets/QMainWindow</text>
</a>
</g>
</g>
<!-- Node1&#45;&gt;Node2 -->
<g id="edge1" class="edge">
<title>Node1&#45;&gt;Node2</title>
<path fill="none" stroke="midnightblue" d="M140.98,-58.25C130.79,-49.97 115.96,-37.94 103.99,-28.22"/>
<polygon fill="midnightblue" stroke="midnightblue" points="105.85,-25.23 95.88,-21.64 101.44,-30.66 105.85,-25.23"/>
</g>
<!-- Node3 -->
<g id="node3" class="node">
<title>Node3</title>
<g id="a_node3"><a xlink:title=" ">
<polygon fill="none" stroke="#bfbfbf" points="186.5,-0.5 186.5,-21.5 259.5,-21.5 259.5,-0.5 186.5,-0.5"/>
<text text-anchor="middle" x="223" y="-7.9" font-family="Helvetica,sans-Serif" font-size="12.00">ui_Train.h</text>
</a>
</g>
</g>
<!-- Node1&#45;&gt;Node3 -->
<g id="edge2" class="edge">
<title>Node1&#45;&gt;Node3</title>
<path fill="none" stroke="midnightblue" d="M165.19,-58.25C175.63,-49.89 190.87,-37.71 203.07,-27.94"/>
<polygon fill="midnightblue" stroke="midnightblue" points="205.32,-30.62 210.95,-21.64 200.95,-25.16 205.32,-30.62"/>
</g>
</g>
</svg>
