<?xml version="1.0" encoding="UTF-8" standalone="no"?>
<!DOCTYPE svg PUBLIC "-//W3C//DTD SVG 1.1//EN"
 "http://www.w3.org/Graphics/SVG/1.1/DTD/svg11.dtd">
<!-- Generated by graphviz version 2.43.0 (0)
 -->
<!-- Title: Train.h Pages: 1 -->
<svg width="158pt" height="88pt"
 viewBox="0.00 0.00 158.00 88.00" xmlns="http://www.w3.org/2000/svg" xmlns:xlink="http://www.w3.org/1999/xlink">
<g id="graph0" class="graph" transform="scale(1 1) rotate(0) translate(4 84)">
<title>Train.h</title>
<!-- Node1 -->
<g id="node1" class="node">
<title>Node1</title>
<g id="a_node1"><a xlink:title="training page for GUI">
<polygon fill="#bfbfbf" stroke="black" points="44.5,-58.5 44.5,-79.5 100.5,-79.5 100.5,-58.5 44.5,-58.5"/>
<text text-anchor="middle" x="72.5" y="-65.9" font-family="Helvetica,sans-Serif" font-size="12.00">Train.h</text>
</a>
</g>
</g>
<!-- Node2 -->
<g id="node2" class="node">
<title>Node2</title>
<g id="a_node2"><a xlink:href="_c_l_i_8cpp.html" target="_top" xlink:title="CLI page.">
<polygon fill="none" stroke="black" points="0,-0.5 0,-21.5 61,-21.5 61,-0.5 0,-0.5"/>
<text text-anchor="middle" x="30.5" y="-7.9" font-family="Helvetica,sans-Serif" font-size="12.00">CLI.cpp</text>
</a>
</g>
</g>
<!-- Node1&#45;&gt;Node2 -->
<g id="edge1" class="edge">
<title>Node1&#45;&gt;Node2</title>
<path fill="none" stroke="midnightblue" d="M59.16,-50.21C52.06,-40.75 43.61,-29.48 37.73,-21.64"/>
<polygon fill="midnightblue" stroke="midnightblue" points="56.38,-52.35 65.18,-58.25 61.98,-48.15 56.38,-52.35"/>
</g>
<!-- Node3 -->
<g id="node3" class="node">
<title>Node3</title>
<g id="a_node3"><a xlink:href="_train_8cpp.html" target="_top" xlink:title="training page for GUI">
<polygon fill="none" stroke="black" points="79,-0.5 79,-21.5 150,-21.5 150,-0.5 79,-0.5"/>
<text text-anchor="middle" x="114.5" y="-7.9" font-family="Helvetica,sans-Serif" font-size="12.00">Train.cpp</text>
</a>
</g>
</g>
<!-- Node1&#45;&gt;Node3 -->
<g id="edge2" class="edge">
<title>Node1&#45;&gt;Node3</title>
<path fill="none" stroke="midnightblue" d="M85.84,-50.21C92.94,-40.75 101.39,-29.48 107.27,-21.64"/>
<polygon fill="midnightblue" stroke="midnightblue" points="83.02,-48.15 79.82,-58.25 88.62,-52.35 83.02,-48.15"/>
</g>
</g>
</svg>
