<?xml version="1.0" encoding="UTF-8" standalone="no"?>
<!DOCTYPE svg PUBLIC "-//W3C//DTD SVG 1.1//EN"
 "http://www.w3.org/Graphics/SVG/1.1/DTD/svg11.dtd">
<!-- Generated by graphviz version 2.43.0 (0)
 -->
<!-- Title: main.cpp Pages: 1 -->
<svg width="555pt" height="146pt"
 viewBox="0.00 0.00 555.00 146.00" xmlns="http://www.w3.org/2000/svg" xmlns:xlink="http://www.w3.org/1999/xlink">
<g id="graph0" class="graph" transform="scale(1 1) rotate(0) translate(4 142)">
<title>main.cpp</title>
<!-- Node1 -->
<g id="node1" class="node">
<title>Node1</title>
<g id="a_node1"><a xlink:title=" ">
<polygon fill="#bfbfbf" stroke="black" points="281.5,-116.5 281.5,-137.5 353.5,-137.5 353.5,-116.5 281.5,-116.5"/>
<text text-anchor="middle" x="317.5" y="-123.9" font-family="Helvetica,sans-Serif" font-size="12.00">main.cpp</text>
</a>
</g>
</g>
<!-- Node2 -->
<g id="node2" class="node">
<title>Node2</title>
<g id="a_node2"><a xlink:href="menu_8h.html" target="_top" xlink:title=" ">
<polygon fill="none" stroke="black" points="8.5,-58.5 8.5,-79.5 70.5,-79.5 70.5,-58.5 8.5,-58.5"/>
<text text-anchor="middle" x="39.5" y="-65.9" font-family="Helvetica,sans-Serif" font-size="12.00">menu.h</text>
</a>
</g>
</g>
<!-- Node1&#45;&gt;Node2 -->
<g id="edge1" class="edge">
<title>Node1&#45;&gt;Node2</title>
<path fill="none" stroke="midnightblue" d="M281.49,-119.67C236.68,-111.65 157.61,-97.05 80.75,-80.2"/>
<polygon fill="midnightblue" stroke="midnightblue" points="81.42,-76.76 70.9,-78.02 79.92,-83.6 81.42,-76.76"/>
</g>
<!-- Node5 -->
<g id="node5" class="node">
<title>Node5</title>
<g id="a_node5"><a xlink:title=" ">
<polygon fill="none" stroke="#bfbfbf" points="88.5,-58.5 88.5,-79.5 246.5,-79.5 246.5,-58.5 88.5,-58.5"/>
<text text-anchor="middle" x="167.5" y="-65.9" font-family="Helvetica,sans-Serif" font-size="12.00">QtWidgets/QApplication</text>
</a>
</g>
</g>
<!-- Node1&#45;&gt;Node5 -->
<g id="edge4" class="edge">
<title>Node1&#45;&gt;Node5</title>
<path fill="none" stroke="midnightblue" d="M291.71,-116.37C267.1,-107.18 229.81,-93.26 202.51,-83.07"/>
<polygon fill="midnightblue" stroke="midnightblue" points="203.54,-79.72 192.95,-79.5 201.09,-86.28 203.54,-79.72"/>
</g>
<!-- Node6 -->
<g id="node6" class="node">
<title>Node6</title>
<g id="a_node6"><a xlink:title=" ">
<polygon fill="none" stroke="#bfbfbf" points="264,-58.5 264,-79.5 371,-79.5 371,-58.5 264,-58.5"/>
<text text-anchor="middle" x="317.5" y="-65.9" font-family="Helvetica,sans-Serif" font-size="12.00">QSplashScreen</text>
</a>
</g>
</g>
<!-- Node1&#45;&gt;Node6 -->
<g id="edge5" class="edge">
<title>Node1&#45;&gt;Node6</title>
<path fill="none" stroke="midnightblue" d="M317.5,-116.25C317.5,-108.94 317.5,-98.69 317.5,-89.7"/>
<polygon fill="midnightblue" stroke="midnightblue" points="321,-89.64 317.5,-79.64 314,-89.64 321,-89.64"/>
</g>
<!-- Node7 -->
<g id="node7" class="node">
<title>Node7</title>
<g id="a_node7"><a xlink:title=" ">
<polygon fill="none" stroke="#bfbfbf" points="389,-58.5 389,-79.5 474,-79.5 474,-58.5 389,-58.5"/>
<text text-anchor="middle" x="431.5" y="-65.9" font-family="Helvetica,sans-Serif" font-size="12.00">QDateTime</text>
</a>
</g>
</g>
<!-- Node1&#45;&gt;Node7 -->
<g id="edge6" class="edge">
<title>Node1&#45;&gt;Node7</title>
<path fill="none" stroke="midnightblue" d="M337.1,-116.37C355.23,-107.46 382.41,-94.11 402.96,-84.02"/>
<polygon fill="midnightblue" stroke="midnightblue" points="404.73,-87.05 412.16,-79.5 401.64,-80.77 404.73,-87.05"/>
</g>
<!-- Node8 -->
<g id="node8" class="node">
<title>Node8</title>
<g id="a_node8"><a xlink:href="_c_l_i_8h.html" target="_top" xlink:title=" ">
<polygon fill="none" stroke="black" points="492,-58.5 492,-79.5 539,-79.5 539,-58.5 492,-58.5"/>
<text text-anchor="middle" x="515.5" y="-65.9" font-family="Helvetica,sans-Serif" font-size="12.00">CLI.h</text>
</a>
</g>
</g>
<!-- Node1&#45;&gt;Node8 -->
<g id="edge7" class="edge">
<title>Node1&#45;&gt;Node8</title>
<path fill="none" stroke="midnightblue" d="M353.22,-116.46C384.86,-107.93 432.54,-94.89 482.15,-80.34"/>
<polygon fill="midnightblue" stroke="midnightblue" points="483.16,-83.7 491.76,-77.51 481.18,-76.98 483.16,-83.7"/>
</g>
<!-- Node3 -->
<g id="node3" class="node">
<title>Node3</title>
<g id="a_node3"><a xlink:title=" ">
<polygon fill="none" stroke="#bfbfbf" points="197.5,-0.5 197.5,-21.5 365.5,-21.5 365.5,-0.5 197.5,-0.5"/>
<text text-anchor="middle" x="281.5" y="-7.9" font-family="Helvetica,sans-Serif" font-size="12.00">QtWidgets/QMainWindow</text>
</a>
</g>
</g>
<!-- Node2&#45;&gt;Node3 -->
<g id="edge2" class="edge">
<title>Node2&#45;&gt;Node3</title>
<path fill="none" stroke="midnightblue" d="M70.93,-60.08C73.82,-59.37 76.72,-58.67 79.5,-58 129.97,-45.95 187.71,-32.87 228.5,-23.75"/>
<polygon fill="midnightblue" stroke="midnightblue" points="229.49,-27.11 238.49,-21.52 227.96,-20.28 229.49,-27.11"/>
</g>
<!-- Node4 -->
<g id="node4" class="node">
<title>Node4</title>
<g id="a_node4"><a xlink:title=" ">
<polygon fill="none" stroke="#bfbfbf" points="0,-0.5 0,-21.5 79,-21.5 79,-0.5 0,-0.5"/>
<text text-anchor="middle" x="39.5" y="-7.9" font-family="Helvetica,sans-Serif" font-size="12.00">ui_menu.h</text>
</a>
</g>
</g>
<!-- Node2&#45;&gt;Node4 -->
<g id="edge3" class="edge">
<title>Node2&#45;&gt;Node4</title>
<path fill="none" stroke="midnightblue" d="M39.5,-58.25C39.5,-50.94 39.5,-40.69 39.5,-31.7"/>
<polygon fill="midnightblue" stroke="midnightblue" points="43,-31.64 39.5,-21.64 36,-31.64 43,-31.64"/>
</g>
<!-- Node8&#45;&gt;Node3 -->
<g id="edge8" class="edge">
<title>Node8&#45;&gt;Node3</title>
<path fill="none" stroke="midnightblue" d="M491.8,-60.36C489.01,-59.53 486.2,-58.73 483.5,-58 434.84,-44.88 378.93,-32.34 338.28,-23.68"/>
<polygon fill="midnightblue" stroke="midnightblue" points="338.8,-20.21 328.29,-21.56 337.35,-27.06 338.8,-20.21"/>
</g>
<!-- Node9 -->
<g id="node9" class="node">
<title>Node9</title>
<g id="a_node9"><a xlink:title=" ">
<polygon fill="none" stroke="#bfbfbf" points="484,-0.5 484,-21.5 547,-21.5 547,-0.5 484,-0.5"/>
<text text-anchor="middle" x="515.5" y="-7.9" font-family="Helvetica,sans-Serif" font-size="12.00">ui_CLI.h</text>
</a>
</g>
</g>
<!-- Node8&#45;&gt;Node9 -->
<g id="edge9" class="edge">
<title>Node8&#45;&gt;Node9</title>
<path fill="none" stroke="midnightblue" d="M515.5,-58.25C515.5,-50.94 515.5,-40.69 515.5,-31.7"/>
<polygon fill="midnightblue" stroke="midnightblue" points="519,-31.64 515.5,-21.64 512,-31.64 519,-31.64"/>
</g>
</g>
</svg>
