<?xml version="1.0" encoding="UTF-8" standalone="no"?>
<!DOCTYPE svg PUBLIC "-//W3C//DTD SVG 1.1//EN"
 "http://www.w3.org/Graphics/SVG/1.1/DTD/svg11.dtd">
<!-- Generated by graphviz version 2.43.0 (0)
 -->
<!-- Title: about.h Pages: 1 -->
<svg width="370pt" height="88pt"
 viewBox="0.00 0.00 369.50 88.00" xmlns="http://www.w3.org/2000/svg" xmlns:xlink="http://www.w3.org/1999/xlink">
<g id="graph0" class="graph" transform="scale(1 1) rotate(0) translate(4 84)">
<title>about.h</title>
<!-- Node1 -->
<g id="node1" class="node">
<title>Node1</title>
<g id="a_node1"><a xlink:title=" ">
<polygon fill="#bfbfbf" stroke="black" points="194,-58.5 194,-79.5 256,-79.5 256,-58.5 194,-58.5"/>
<text text-anchor="middle" x="225" y="-65.9" font-family="Helvetica,sans-Serif" font-size="12.00">about.h</text>
</a>
</g>
</g>
<!-- Node2 -->
<g id="node2" class="node">
<title>Node2</title>
<g id="a_node2"><a xlink:title=" ">
<polygon fill="none" stroke="#bfbfbf" points="0,-0.5 0,-21.5 168,-21.5 168,-0.5 0,-0.5"/>
<text text-anchor="middle" x="84" y="-7.9" font-family="Helvetica,sans-Serif" font-size="12.00">QtWidgets/QMainWindow</text>
</a>
</g>
</g>
<!-- Node1&#45;&gt;Node2 -->
<g id="edge1" class="edge">
<title>Node1&#45;&gt;Node2</title>
<path fill="none" stroke="midnightblue" d="M200.76,-58.37C177.72,-49.22 142.88,-35.38 117.25,-25.21"/>
<polygon fill="midnightblue" stroke="midnightblue" points="118.51,-21.94 107.92,-21.5 115.92,-28.45 118.51,-21.94"/>
</g>
<!-- Node3 -->
<g id="node3" class="node">
<title>Node3</title>
<g id="a_node3"><a xlink:title=" ">
<polygon fill="none" stroke="#bfbfbf" points="185.5,-0.5 185.5,-21.5 264.5,-21.5 264.5,-0.5 185.5,-0.5"/>
<text text-anchor="middle" x="225" y="-7.9" font-family="Helvetica,sans-Serif" font-size="12.00">ui_about.h</text>
</a>
</g>
</g>
<!-- Node1&#45;&gt;Node3 -->
<g id="edge2" class="edge">
<title>Node1&#45;&gt;Node3</title>
<path fill="none" stroke="midnightblue" d="M225,-58.25C225,-50.94 225,-40.69 225,-31.7"/>
<polygon fill="midnightblue" stroke="midnightblue" points="228.5,-31.64 225,-21.64 221.5,-31.64 228.5,-31.64"/>
</g>
<!-- Node4 -->
<g id="node4" class="node">
<title>Node4</title>
<g id="a_node4"><a xlink:title=" ">
<polygon fill="none" stroke="#bfbfbf" points="282.5,-0.5 282.5,-21.5 361.5,-21.5 361.5,-0.5 282.5,-0.5"/>
<text text-anchor="middle" x="322" y="-7.9" font-family="Helvetica,sans-Serif" font-size="12.00">ui_menu.h</text>
</a>
</g>
</g>
<!-- Node1&#45;&gt;Node4 -->
<g id="edge3" class="edge">
<title>Node1&#45;&gt;Node4</title>
<path fill="none" stroke="midnightblue" d="M241.9,-58.25C256.92,-49.57 279.1,-36.76 296.32,-26.82"/>
<polygon fill="midnightblue" stroke="midnightblue" points="298.39,-29.67 305.3,-21.64 294.89,-23.61 298.39,-29.67"/>
</g>
</g>
</svg>
