<?xml version="1.0" encoding="UTF-8" standalone="no"?>
<!DOCTYPE svg PUBLIC "-//W3C//DTD SVG 1.1//EN"
 "http://www.w3.org/Graphics/SVG/1.1/DTD/svg11.dtd">
<!-- Generated by graphviz version 2.43.0 (0)
 -->
<!-- Title: about.cpp Pages: 1 -->
<svg width="433pt" height="146pt"
 viewBox="0.00 0.00 433.00 146.00" xmlns="http://www.w3.org/2000/svg" xmlns:xlink="http://www.w3.org/1999/xlink">
<g id="graph0" class="graph" transform="scale(1 1) rotate(0) translate(4 142)">
<title>about.cpp</title>
<!-- Node1 -->
<g id="node1" class="node">
<title>Node1</title>
<g id="a_node1"><a xlink:title="About page.">
<polygon fill="#bfbfbf" stroke="black" points="122,-116.5 122,-137.5 199,-137.5 199,-116.5 122,-116.5"/>
<text text-anchor="middle" x="160.5" y="-123.9" font-family="Helvetica,sans-Serif" font-size="12.00">about.cpp</text>
</a>
</g>
</g>
<!-- Node2 -->
<g id="node2" class="node">
<title>Node2</title>
<g id="a_node2"><a xlink:title=" ">
<polygon fill="none" stroke="#bfbfbf" points="0,-58.5 0,-79.5 63,-79.5 63,-58.5 0,-58.5"/>
<text text-anchor="middle" x="31.5" y="-65.9" font-family="Helvetica,sans-Serif" font-size="12.00">fstream</text>
</a>
</g>
</g>
<!-- Node1&#45;&gt;Node2 -->
<g id="edge1" class="edge">
<title>Node1&#45;&gt;Node2</title>
<path fill="none" stroke="midnightblue" d="M138.32,-116.37C117.52,-107.34 86.21,-93.75 62.85,-83.61"/>
<polygon fill="midnightblue" stroke="midnightblue" points="63.95,-80.27 53.39,-79.5 61.17,-86.69 63.95,-80.27"/>
</g>
<!-- Node3 -->
<g id="node3" class="node">
<title>Node3</title>
<g id="a_node3"><a xlink:title=" ">
<polygon fill="none" stroke="#bfbfbf" points="81.5,-58.5 81.5,-79.5 239.5,-79.5 239.5,-58.5 81.5,-58.5"/>
<text text-anchor="middle" x="160.5" y="-65.9" font-family="Helvetica,sans-Serif" font-size="12.00">QtWidgets/QApplication</text>
</a>
</g>
</g>
<!-- Node1&#45;&gt;Node3 -->
<g id="edge2" class="edge">
<title>Node1&#45;&gt;Node3</title>
<path fill="none" stroke="midnightblue" d="M160.5,-116.25C160.5,-108.94 160.5,-98.69 160.5,-89.7"/>
<polygon fill="midnightblue" stroke="midnightblue" points="164,-89.64 160.5,-79.64 157,-89.64 164,-89.64"/>
</g>
<!-- Node4 -->
<g id="node4" class="node">
<title>Node4</title>
<g id="a_node4"><a xlink:href="about_8h.html" target="_top" xlink:title="About page.">
<polygon fill="none" stroke="black" points="257.5,-58.5 257.5,-79.5 319.5,-79.5 319.5,-58.5 257.5,-58.5"/>
<text text-anchor="middle" x="288.5" y="-65.9" font-family="Helvetica,sans-Serif" font-size="12.00">about.h</text>
</a>
</g>
</g>
<!-- Node1&#45;&gt;Node4 -->
<g id="edge3" class="edge">
<title>Node1&#45;&gt;Node4</title>
<path fill="none" stroke="midnightblue" d="M182.5,-116.37C203.14,-107.34 234.22,-93.75 257.39,-83.61"/>
<polygon fill="midnightblue" stroke="midnightblue" points="259.02,-86.72 266.78,-79.5 256.22,-80.3 259.02,-86.72"/>
</g>
<!-- Node5 -->
<g id="node5" class="node">
<title>Node5</title>
<g id="a_node5"><a xlink:title=" ">
<polygon fill="none" stroke="#bfbfbf" points="63.5,-0.5 63.5,-21.5 231.5,-21.5 231.5,-0.5 63.5,-0.5"/>
<text text-anchor="middle" x="147.5" y="-7.9" font-family="Helvetica,sans-Serif" font-size="12.00">QtWidgets/QMainWindow</text>
</a>
</g>
</g>
<!-- Node4&#45;&gt;Node5 -->
<g id="edge4" class="edge">
<title>Node4&#45;&gt;Node5</title>
<path fill="none" stroke="midnightblue" d="M264.26,-58.37C241.22,-49.22 206.38,-35.38 180.75,-25.21"/>
<polygon fill="midnightblue" stroke="midnightblue" points="182.01,-21.94 171.42,-21.5 179.42,-28.45 182.01,-21.94"/>
</g>
<!-- Node6 -->
<g id="node6" class="node">
<title>Node6</title>
<g id="a_node6"><a xlink:title=" ">
<polygon fill="none" stroke="#bfbfbf" points="249,-0.5 249,-21.5 328,-21.5 328,-0.5 249,-0.5"/>
<text text-anchor="middle" x="288.5" y="-7.9" font-family="Helvetica,sans-Serif" font-size="12.00">ui_about.h</text>
</a>
</g>
</g>
<!-- Node4&#45;&gt;Node6 -->
<g id="edge5" class="edge">
<title>Node4&#45;&gt;Node6</title>
<path fill="none" stroke="midnightblue" d="M288.5,-58.25C288.5,-50.94 288.5,-40.69 288.5,-31.7"/>
<polygon fill="midnightblue" stroke="midnightblue" points="292,-31.64 288.5,-21.64 285,-31.64 292,-31.64"/>
</g>
<!-- Node7 -->
<g id="node7" class="node">
<title>Node7</title>
<g id="a_node7"><a xlink:title=" ">
<polygon fill="none" stroke="#bfbfbf" points="346,-0.5 346,-21.5 425,-21.5 425,-0.5 346,-0.5"/>
<text text-anchor="middle" x="385.5" y="-7.9" font-family="Helvetica,sans-Serif" font-size="12.00">ui_menu.h</text>
</a>
</g>
</g>
<!-- Node4&#45;&gt;Node7 -->
<g id="edge6" class="edge">
<title>Node4&#45;&gt;Node7</title>
<path fill="none" stroke="midnightblue" d="M305.4,-58.25C320.42,-49.57 342.6,-36.76 359.82,-26.82"/>
<polygon fill="midnightblue" stroke="midnightblue" points="361.89,-29.67 368.8,-21.64 358.39,-23.61 361.89,-29.67"/>
</g>
</g>
</svg>
