<?xml version="1.0" encoding="UTF-8" standalone="no"?>
<!DOCTYPE svg PUBLIC "-//W3C//DTD SVG 1.1//EN"
 "http://www.w3.org/Graphics/SVG/1.1/DTD/svg11.dtd">
<!-- Generated by graphviz version 2.43.0 (0)
 -->
<!-- Title: Markopy/MarkovPasswordsGUI/src/about.h Pages: 1 -->
<svg width="370pt" height="101pt"
 viewBox="0.00 0.00 369.50 101.00" xmlns="http://www.w3.org/2000/svg" xmlns:xlink="http://www.w3.org/1999/xlink">
<g id="graph0" class="graph" transform="scale(1 1) rotate(0) translate(4 97)">
<title>Markopy/MarkovPasswordsGUI/src/about.h</title>
<!-- Node1 -->
<g id="node1" class="node">
<title>Node1</title>
<g id="a_node1"><a xlink:title="About page.">
<polygon fill="#bfbfbf" stroke="black" points="125.5,-58.5 125.5,-92.5 324.5,-92.5 324.5,-58.5 125.5,-58.5"/>
<text text-anchor="start" x="133.5" y="-78.9" font-family="Helvetica,sans-Serif" font-size="12.00">Markopy/MarkovPasswordsGUI</text>
<text text-anchor="middle" x="225" y="-65.9" font-family="Helvetica,sans-Serif" font-size="12.00">/src/about.h</text>
</a>
</g>
</g>
<!-- Node2 -->
<g id="node2" class="node">
<title>Node2</title>
<g id="a_node2"><a xlink:title=" ">
<polygon fill="none" stroke="#bfbfbf" points="0,-0.5 0,-21.5 168,-21.5 168,-0.5 0,-0.5"/>
<text text-anchor="middle" x="84" y="-7.9" font-family="Helvetica,sans-Serif" font-size="12.00">QtWidgets/QMainWindow</text>
</a>
</g>
</g>
<!-- Node1&#45;&gt;Node2 -->
<g id="edge1" class="edge">
<title>Node1&#45;&gt;Node2</title>
<path fill="none" stroke="midnightblue" d="M188.69,-58.4C165.9,-48.31 136.83,-35.42 115.11,-25.79"/>
<polygon fill="midnightblue" stroke="midnightblue" points="116.26,-22.47 105.7,-21.62 113.42,-28.87 116.26,-22.47"/>
</g>
<!-- Node3 -->
<g id="node3" class="node">
<title>Node3</title>
<g id="a_node3"><a xlink:title=" ">
<polygon fill="none" stroke="#bfbfbf" points="185.5,-0.5 185.5,-21.5 264.5,-21.5 264.5,-0.5 185.5,-0.5"/>
<text text-anchor="middle" x="225" y="-7.9" font-family="Helvetica,sans-Serif" font-size="12.00">ui_about.h</text>
</a>
</g>
</g>
<!-- Node1&#45;&gt;Node3 -->
<g id="edge2" class="edge">
<title>Node1&#45;&gt;Node3</title>
<path fill="none" stroke="midnightblue" d="M225,-58.4C225,-50.36 225,-40.54 225,-32.01"/>
<polygon fill="midnightblue" stroke="midnightblue" points="228.5,-31.8 225,-21.8 221.5,-31.8 228.5,-31.8"/>
</g>
<!-- Node4 -->
<g id="node4" class="node">
<title>Node4</title>
<g id="a_node4"><a xlink:title=" ">
<polygon fill="none" stroke="#bfbfbf" points="282.5,-0.5 282.5,-21.5 361.5,-21.5 361.5,-0.5 282.5,-0.5"/>
<text text-anchor="middle" x="322" y="-7.9" font-family="Helvetica,sans-Serif" font-size="12.00">ui_menu.h</text>
</a>
</g>
</g>
<!-- Node1&#45;&gt;Node4 -->
<g id="edge3" class="edge">
<title>Node1&#45;&gt;Node4</title>
<path fill="none" stroke="midnightblue" d="M249.98,-58.4C264.95,-48.76 283.86,-36.57 298.55,-27.11"/>
<polygon fill="midnightblue" stroke="midnightblue" points="300.56,-29.98 307.07,-21.62 296.77,-24.09 300.56,-29.98"/>
</g>
</g>
</svg>
