<?xml version="1.0" encoding="UTF-8" standalone="no"?>
<!DOCTYPE svg PUBLIC "-//W3C//DTD SVG 1.1//EN"
 "http://www.w3.org/Graphics/SVG/1.1/DTD/svg11.dtd">
<!-- Generated by graphviz version 2.43.0 (0)
 -->
<!-- Title: Markopy/MarkovAPICLI/src/argparse.h Pages: 1 -->
<svg width="345pt" height="101pt"
 viewBox="0.00 0.00 344.50 101.00" xmlns="http://www.w3.org/2000/svg" xmlns:xlink="http://www.w3.org/1999/xlink">
<g id="graph0" class="graph" transform="scale(1 1) rotate(0) translate(4 97)">
<title>Markopy/MarkovAPICLI/src/argparse.h</title>
<!-- Node1 -->
<g id="node1" class="node">
<title>Node1</title>
<g id="a_node1"><a xlink:title="Arguement handler class for native CPP cli.">
<polygon fill="#bfbfbf" stroke="black" points="25.5,-58.5 25.5,-92.5 180.5,-92.5 180.5,-58.5 25.5,-58.5"/>
<text text-anchor="start" x="33.5" y="-78.9" font-family="Helvetica,sans-Serif" font-size="12.00">Markopy/MarkovAPICLI</text>
<text text-anchor="middle" x="103" y="-65.9" font-family="Helvetica,sans-Serif" font-size="12.00">/src/argparse.h</text>
</a>
</g>
</g>
<!-- Node2 -->
<g id="node2" class="node">
<title>Node2</title>
<g id="a_node2"><a xlink:title=" ">
<polygon fill="none" stroke="#bfbfbf" points="0,-0.5 0,-21.5 50,-21.5 50,-0.5 0,-0.5"/>
<text text-anchor="middle" x="25" y="-7.9" font-family="Helvetica,sans-Serif" font-size="12.00">string</text>
</a>
</g>
</g>
<!-- Node1&#45;&gt;Node2 -->
<g id="edge1" class="edge">
<title>Node1&#45;&gt;Node2</title>
<path fill="none" stroke="midnightblue" d="M82.91,-58.4C71.29,-49.09 56.71,-37.41 45.09,-28.09"/>
<polygon fill="midnightblue" stroke="midnightblue" points="47.22,-25.32 37.23,-21.8 42.85,-30.78 47.22,-25.32"/>
</g>
<!-- Node3 -->
<g id="node3" class="node">
<title>Node3</title>
<g id="a_node3"><a xlink:title=" ">
<polygon fill="none" stroke="#bfbfbf" points="68.5,-0.5 68.5,-21.5 137.5,-21.5 137.5,-0.5 68.5,-0.5"/>
<text text-anchor="middle" x="103" y="-7.9" font-family="Helvetica,sans-Serif" font-size="12.00">iostream</text>
</a>
</g>
</g>
<!-- Node1&#45;&gt;Node3 -->
<g id="edge2" class="edge">
<title>Node1&#45;&gt;Node3</title>
<path fill="none" stroke="midnightblue" d="M103,-58.4C103,-50.36 103,-40.54 103,-32.01"/>
<polygon fill="midnightblue" stroke="midnightblue" points="106.5,-31.8 103,-21.8 99.5,-31.8 106.5,-31.8"/>
</g>
<!-- Node4 -->
<g id="node4" class="node">
<title>Node4</title>
<g id="a_node4"><a xlink:title=" ">
<polygon fill="none" stroke="#bfbfbf" points="155.5,-0.5 155.5,-21.5 336.5,-21.5 336.5,-0.5 155.5,-0.5"/>
<text text-anchor="middle" x="246" y="-7.9" font-family="Helvetica,sans-Serif" font-size="12.00">boost/program_options.hpp</text>
</a>
</g>
</g>
<!-- Node1&#45;&gt;Node4 -->
<g id="edge3" class="edge">
<title>Node1&#45;&gt;Node4</title>
<path fill="none" stroke="midnightblue" d="M139.83,-58.4C163.04,-48.26 192.68,-35.3 214.75,-25.66"/>
<polygon fill="midnightblue" stroke="midnightblue" points="216.24,-28.83 224,-21.62 213.43,-22.41 216.24,-28.83"/>
</g>
</g>
</svg>
