<?xml version="1.0" encoding="UTF-8" standalone="no"?>
<!DOCTYPE svg PUBLIC "-//W3C//DTD SVG 1.1//EN"
 "http://www.w3.org/Graphics/SVG/1.1/DTD/svg11.dtd">
<!-- Generated by graphviz version 2.43.0 (0)
 -->
<!-- Title: argparse.cpp Pages: 1 -->
<svg width="407pt" height="146pt"
 viewBox="0.00 0.00 407.00 146.00" xmlns="http://www.w3.org/2000/svg" xmlns:xlink="http://www.w3.org/1999/xlink">
<g id="graph0" class="graph" transform="scale(1 1) rotate(0) translate(4 142)">
<title>argparse.cpp</title>
<!-- Node1 -->
<g id="node1" class="node">
<title>Node1</title>
<g id="a_node1"><a xlink:title=" ">
<polygon fill="#bfbfbf" stroke="black" points="182.5,-116.5 182.5,-137.5 277.5,-137.5 277.5,-116.5 182.5,-116.5"/>
<text text-anchor="middle" x="230" y="-123.9" font-family="Helvetica,sans-Serif" font-size="12.00">argparse.cpp</text>
</a>
</g>
</g>
<!-- Node2 -->
<g id="node2" class="node">
<title>Node2</title>
<g id="a_node2"><a xlink:href="argparse_8h.html" target="_top" xlink:title=" ">
<polygon fill="none" stroke="black" points="138.5,-58.5 138.5,-79.5 219.5,-79.5 219.5,-58.5 138.5,-58.5"/>
<text text-anchor="middle" x="179" y="-65.9" font-family="Helvetica,sans-Serif" font-size="12.00">argparse.h</text>
</a>
</g>
</g>
<!-- Node1&#45;&gt;Node2 -->
<g id="edge1" class="edge">
<title>Node1&#45;&gt;Node2</title>
<path fill="none" stroke="midnightblue" d="M221.12,-116.25C213.8,-108.22 203.26,-96.64 194.55,-87.08"/>
<polygon fill="midnightblue" stroke="midnightblue" points="197.1,-84.68 187.78,-79.64 191.93,-89.39 197.1,-84.68"/>
</g>
<!-- Node6 -->
<g id="node6" class="node">
<title>Node6</title>
<g id="a_node6"><a xlink:href="term_8h.html" target="_top" xlink:title=" ">
<polygon fill="none" stroke="black" points="257.5,-58.5 257.5,-79.5 346.5,-79.5 346.5,-58.5 257.5,-58.5"/>
<text text-anchor="middle" x="302" y="-65.9" font-family="Helvetica,sans-Serif" font-size="12.00">color/term.h</text>
</a>
</g>
</g>
<!-- Node1&#45;&gt;Node6 -->
<g id="edge5" class="edge">
<title>Node1&#45;&gt;Node6</title>
<path fill="none" stroke="midnightblue" d="M242.54,-116.25C253.28,-107.89 268.95,-95.71 281.5,-85.94"/>
<polygon fill="midnightblue" stroke="midnightblue" points="283.86,-88.54 289.6,-79.64 279.56,-83.02 283.86,-88.54"/>
</g>
<!-- Node3 -->
<g id="node3" class="node">
<title>Node3</title>
<g id="a_node3"><a xlink:title=" ">
<polygon fill="none" stroke="#bfbfbf" points="0,-0.5 0,-21.5 50,-21.5 50,-0.5 0,-0.5"/>
<text text-anchor="middle" x="25" y="-7.9" font-family="Helvetica,sans-Serif" font-size="12.00">string</text>
</a>
</g>
</g>
<!-- Node2&#45;&gt;Node3 -->
<g id="edge2" class="edge">
<title>Node2&#45;&gt;Node3</title>
<path fill="none" stroke="midnightblue" d="M152.53,-58.37C126.83,-49.03 87.7,-34.8 59.56,-24.57"/>
<polygon fill="midnightblue" stroke="midnightblue" points="60.7,-21.26 50.11,-21.13 58.31,-27.84 60.7,-21.26"/>
</g>
<!-- Node4 -->
<g id="node4" class="node">
<title>Node4</title>
<g id="a_node4"><a xlink:title=" ">
<polygon fill="none" stroke="#bfbfbf" points="267.5,-0.5 267.5,-21.5 336.5,-21.5 336.5,-0.5 267.5,-0.5"/>
<text text-anchor="middle" x="302" y="-7.9" font-family="Helvetica,sans-Serif" font-size="12.00">iostream</text>
</a>
</g>
</g>
<!-- Node2&#45;&gt;Node4 -->
<g id="edge3" class="edge">
<title>Node2&#45;&gt;Node4</title>
<path fill="none" stroke="midnightblue" d="M200.14,-58.37C219.89,-49.38 249.57,-35.87 271.81,-25.75"/>
<polygon fill="midnightblue" stroke="midnightblue" points="273.48,-28.83 281.13,-21.5 270.58,-22.46 273.48,-28.83"/>
</g>
<!-- Node5 -->
<g id="node5" class="node">
<title>Node5</title>
<g id="a_node5"><a xlink:title=" ">
<polygon fill="none" stroke="#bfbfbf" points="68.5,-0.5 68.5,-21.5 249.5,-21.5 249.5,-0.5 68.5,-0.5"/>
<text text-anchor="middle" x="159" y="-7.9" font-family="Helvetica,sans-Serif" font-size="12.00">boost/program_options.hpp</text>
</a>
</g>
</g>
<!-- Node2&#45;&gt;Node5 -->
<g id="edge4" class="edge">
<title>Node2&#45;&gt;Node5</title>
<path fill="none" stroke="midnightblue" d="M175.52,-58.25C172.85,-50.78 169.09,-40.24 165.83,-31.11"/>
<polygon fill="midnightblue" stroke="midnightblue" points="169.1,-29.88 162.44,-21.64 162.51,-32.24 169.1,-29.88"/>
</g>
<!-- Node6&#45;&gt;Node4 -->
<g id="edge6" class="edge">
<title>Node6&#45;&gt;Node4</title>
<path fill="none" stroke="midnightblue" d="M302,-58.25C302,-50.94 302,-40.69 302,-31.7"/>
<polygon fill="midnightblue" stroke="midnightblue" points="305.5,-31.64 302,-21.64 298.5,-31.64 305.5,-31.64"/>
</g>
<!-- Node7 -->
<g id="node7" class="node">
<title>Node7</title>
<g id="a_node7"><a xlink:title=" ">
<polygon fill="none" stroke="#bfbfbf" points="355,-0.5 355,-21.5 399,-21.5 399,-0.5 355,-0.5"/>
<text text-anchor="middle" x="377" y="-7.9" font-family="Helvetica,sans-Serif" font-size="12.00">map</text>
</a>
</g>
</g>
<!-- Node6&#45;&gt;Node7 -->
<g id="edge7" class="edge">
<title>Node6&#45;&gt;Node7</title>
<path fill="none" stroke="midnightblue" d="M315.06,-58.25C326.36,-49.81 342.88,-37.47 356.03,-27.66"/>
<polygon fill="midnightblue" stroke="midnightblue" points="358.17,-30.43 364.09,-21.64 353.98,-24.82 358.17,-30.43"/>
</g>
</g>
</svg>
