<?xml version="1.0" encoding="UTF-8" standalone="no"?>
<!DOCTYPE svg PUBLIC "-//W3C//DTD SVG 1.1//EN"
 "http://www.w3.org/Graphics/SVG/1.1/DTD/svg11.dtd">
<!-- Generated by graphviz version 2.43.0 (0)
 -->
<!-- Title: Markopy/MarkovAPICLI/src/argparse.h Pages: 1 -->
<svg width="336pt" height="114pt"
 viewBox="0.00 0.00 336.00 114.00" xmlns="http://www.w3.org/2000/svg" xmlns:xlink="http://www.w3.org/1999/xlink">
<g id="graph0" class="graph" transform="scale(1 1) rotate(0) translate(4 110)">
<title>Markopy/MarkovAPICLI/src/argparse.h</title>
<!-- Node1 -->
<g id="node1" class="node">
<title>Node1</title>
<g id="a_node1"><a xlink:title="Arguement handler class for native CPP cli.">
<polygon fill="#bfbfbf" stroke="black" points="86,-71.5 86,-105.5 241,-105.5 241,-71.5 86,-71.5"/>
<text text-anchor="start" x="94" y="-91.9" font-family="Helvetica,sans-Serif" font-size="12.00">Markopy/MarkovAPICLI</text>
<text text-anchor="middle" x="163.5" y="-78.9" font-family="Helvetica,sans-Serif" font-size="12.00">/src/argparse.h</text>
</a>
</g>
</g>
<!-- Node2 -->
<g id="node2" class="node">
<title>Node2</title>
<g id="a_node2"><a xlink:href="argparse_8cpp.html" target="_top" xlink:title="Arguement handler class for native CPP cli.">
<polygon fill="none" stroke="black" points="0,-0.5 0,-34.5 155,-34.5 155,-0.5 0,-0.5"/>
<text text-anchor="start" x="8" y="-20.9" font-family="Helvetica,sans-Serif" font-size="12.00">Markopy/MarkovAPICLI</text>
<text text-anchor="middle" x="77.5" y="-7.9" font-family="Helvetica,sans-Serif" font-size="12.00">/src/argparse.cpp</text>
</a>
</g>
</g>
<!-- Node1&#45;&gt;Node2 -->
<g id="edge1" class="edge">
<title>Node1&#45;&gt;Node2</title>
<path fill="none" stroke="midnightblue" d="M135.73,-65.22C123.33,-55.27 108.99,-43.76 97.64,-34.66"/>
<polygon fill="midnightblue" stroke="midnightblue" points="133.56,-67.97 143.55,-71.5 137.94,-62.51 133.56,-67.97"/>
</g>
<!-- Node3 -->
<g id="node3" class="node">
<title>Node3</title>
<g id="a_node3"><a xlink:href="_markov_a_p_i_c_l_i_2src_2main_8cpp.html" target="_top" xlink:title="Test cases for Markov::API::ModelMatrix.">
<polygon fill="none" stroke="black" points="173,-0.5 173,-34.5 328,-34.5 328,-0.5 173,-0.5"/>
<text text-anchor="start" x="181" y="-20.9" font-family="Helvetica,sans-Serif" font-size="12.00">Markopy/MarkovAPICLI</text>
<text text-anchor="middle" x="250.5" y="-7.9" font-family="Helvetica,sans-Serif" font-size="12.00">/src/main.cpp</text>
</a>
</g>
</g>
<!-- Node1&#45;&gt;Node3 -->
<g id="edge2" class="edge">
<title>Node1&#45;&gt;Node3</title>
<path fill="none" stroke="midnightblue" d="M191.59,-65.22C204.14,-55.27 218.65,-43.76 230.13,-34.66"/>
<polygon fill="midnightblue" stroke="midnightblue" points="189.34,-62.54 183.68,-71.5 193.69,-68.02 189.34,-62.54"/>
</g>
</g>
</svg>
