<?xml version="1.0" encoding="UTF-8" standalone="no"?>
<!DOCTYPE svg PUBLIC "-//W3C//DTD SVG 1.1//EN"
 "http://www.w3.org/Graphics/SVG/1.1/DTD/svg11.dtd">
<!-- Generated by graphviz version 2.43.0 (0)
 -->
<!-- Title: argparse.h Pages: 1 -->
<svg width="345pt" height="88pt"
 viewBox="0.00 0.00 344.50 88.00" xmlns="http://www.w3.org/2000/svg" xmlns:xlink="http://www.w3.org/1999/xlink">
<g id="graph0" class="graph" transform="scale(1 1) rotate(0) translate(4 84)">
<title>argparse.h</title>
<!-- Node1 -->
<g id="node1" class="node">
<title>Node1</title>
<g id="a_node1"><a xlink:title="Arguement handler class for native CPP cli.">
<polygon fill="#bfbfbf" stroke="black" points="62.5,-58.5 62.5,-79.5 143.5,-79.5 143.5,-58.5 62.5,-58.5"/>
<text text-anchor="middle" x="103" y="-65.9" font-family="Helvetica,sans-Serif" font-size="12.00">argparse.h</text>
</a>
</g>
</g>
<!-- Node2 -->
<g id="node2" class="node">
<title>Node2</title>
<g id="a_node2"><a xlink:title=" ">
<polygon fill="none" stroke="#bfbfbf" points="0,-0.5 0,-21.5 50,-21.5 50,-0.5 0,-0.5"/>
<text text-anchor="middle" x="25" y="-7.9" font-family="Helvetica,sans-Serif" font-size="12.00">string</text>
</a>
</g>
</g>
<!-- Node1&#45;&gt;Node2 -->
<g id="edge1" class="edge">
<title>Node1&#45;&gt;Node2</title>
<path fill="none" stroke="midnightblue" d="M89.41,-58.25C77.67,-49.81 60.48,-37.47 46.81,-27.66"/>
<polygon fill="midnightblue" stroke="midnightblue" points="48.6,-24.63 38.43,-21.64 44.51,-30.32 48.6,-24.63"/>
</g>
<!-- Node3 -->
<g id="node3" class="node">
<title>Node3</title>
<g id="a_node3"><a xlink:title=" ">
<polygon fill="none" stroke="#bfbfbf" points="68.5,-0.5 68.5,-21.5 137.5,-21.5 137.5,-0.5 68.5,-0.5"/>
<text text-anchor="middle" x="103" y="-7.9" font-family="Helvetica,sans-Serif" font-size="12.00">iostream</text>
</a>
</g>
</g>
<!-- Node1&#45;&gt;Node3 -->
<g id="edge2" class="edge">
<title>Node1&#45;&gt;Node3</title>
<path fill="none" stroke="midnightblue" d="M103,-58.25C103,-50.94 103,-40.69 103,-31.7"/>
<polygon fill="midnightblue" stroke="midnightblue" points="106.5,-31.64 103,-21.64 99.5,-31.64 106.5,-31.64"/>
</g>
<!-- Node4 -->
<g id="node4" class="node">
<title>Node4</title>
<g id="a_node4"><a xlink:title=" ">
<polygon fill="none" stroke="#bfbfbf" points="155.5,-0.5 155.5,-21.5 336.5,-21.5 336.5,-0.5 155.5,-0.5"/>
<text text-anchor="middle" x="246" y="-7.9" font-family="Helvetica,sans-Serif" font-size="12.00">boost/program_options.hpp</text>
</a>
</g>
</g>
<!-- Node1&#45;&gt;Node4 -->
<g id="edge3" class="edge">
<title>Node1&#45;&gt;Node4</title>
<path fill="none" stroke="midnightblue" d="M127.58,-58.37C150.95,-49.22 186.29,-35.38 212.28,-25.21"/>
<polygon fill="midnightblue" stroke="midnightblue" points="213.7,-28.41 221.74,-21.5 211.15,-21.89 213.7,-28.41"/>
</g>
</g>
</svg>
