<?xml version="1.0" encoding="UTF-8" standalone="no"?>
<!DOCTYPE svg PUBLIC "-//W3C//DTD SVG 1.1//EN"
 "http://www.w3.org/Graphics/SVG/1.1/DTD/svg11.dtd">
<!-- Generated by graphviz version 2.43.0 (0)
 -->
<!-- Title: Markov::API::MarkovPasswords::Generate Pages: 1 -->
<svg width="414pt" height="96pt"
 viewBox="0.00 0.00 414.00 96.00" xmlns="http://www.w3.org/2000/svg" xmlns:xlink="http://www.w3.org/1999/xlink">
<g id="graph0" class="graph" transform="scale(1 1) rotate(0) translate(4 92)">
<title>Markov::API::MarkovPasswords::Generate</title>
<!-- Node1 -->
<g id="node1" class="node">
<title>Node1</title>
<g id="a_node1"><a xlink:title="Call Markov::Model::RandomWalk n times, and collect output.">
<polygon fill="#bfbfbf" stroke="black" points="206,-26.5 206,-60.5 406,-60.5 406,-26.5 206,-26.5"/>
<text text-anchor="start" x="214" y="-46.9" font-family="Helvetica,sans-Serif" font-size="12.00">Markov::API::MarkovPasswords</text>
<text text-anchor="middle" x="306" y="-33.9" font-family="Helvetica,sans-Serif" font-size="12.00">::Generate</text>
</a>
</g>
</g>
<!-- Node2 -->
<g id="node2" class="node">
<title>Node2</title>
<g id="a_node2"><a xlink:href="namespace_markov_1_1_markopy.html#a379628c09859652215496b63af2bcac9" target="_top" xlink:title=" ">
<polygon fill="none" stroke="black" points="0,-53.5 0,-87.5 170,-87.5 170,-53.5 0,-53.5"/>
<text text-anchor="start" x="8" y="-73.9" font-family="Helvetica,sans-Serif" font-size="12.00">Markov::Markopy::BOOST</text>
<text text-anchor="middle" x="85" y="-60.9" font-family="Helvetica,sans-Serif" font-size="12.00">_PYTHON_MODULE</text>
</a>
</g>
</g>
<!-- Node1&#45;&gt;Node2 -->
<g id="edge1" class="edge">
<title>Node1&#45;&gt;Node2</title>
<path fill="none" stroke="midnightblue" d="M195.7,-56.98C187.13,-58.03 178.55,-59.09 170.18,-60.12"/>
<polygon fill="midnightblue" stroke="midnightblue" points="196.26,-60.43 205.75,-55.74 195.4,-53.49 196.26,-60.43"/>
</g>
<!-- Node3 -->
<g id="node3" class="node">
<title>Node3</title>
<g id="a_node3"><a xlink:href="class_markov_1_1_g_u_i_1_1_generate.html#abc3c4aa5bf5afc2d56f0f95a355b1984" target="_top" xlink:title=" ">
<polygon fill="none" stroke="black" points="8,-0.5 8,-34.5 162,-34.5 162,-0.5 8,-0.5"/>
<text text-anchor="start" x="16" y="-20.9" font-family="Helvetica,sans-Serif" font-size="12.00">Markov::GUI::Generate</text>
<text text-anchor="middle" x="85" y="-7.9" font-family="Helvetica,sans-Serif" font-size="12.00">::generation</text>
</a>
</g>
</g>
<!-- Node1&#45;&gt;Node3 -->
<g id="edge2" class="edge">
<title>Node1&#45;&gt;Node3</title>
<path fill="none" stroke="midnightblue" d="M195.8,-30.54C184.47,-29.19 173.13,-27.84 162.27,-26.55"/>
<polygon fill="midnightblue" stroke="midnightblue" points="195.41,-34.01 205.75,-31.72 196.23,-27.06 195.41,-34.01"/>
</g>
</g>
</svg>
