<?xml version="1.0" encoding="UTF-8" standalone="no"?>
<!DOCTYPE svg PUBLIC "-//W3C//DTD SVG 1.1//EN"
 "http://www.w3.org/Graphics/SVG/1.1/DTD/svg11.dtd">
<!-- Generated by graphviz version 2.43.0 (0)
 -->
<!-- Title: Markov::GUI::MarkovPasswordsGUI::model Pages: 1 -->
<svg width="975pt" height="318pt"
 viewBox="0.00 0.00 975.00 318.00" xmlns="http://www.w3.org/2000/svg" xmlns:xlink="http://www.w3.org/1999/xlink">
<g id="graph0" class="graph" transform="scale(1 1) rotate(0) translate(4 314)">
<title>Markov::GUI::MarkovPasswordsGUI::model</title>
<!-- Node1 -->
<g id="node1" class="node">
<title>Node1</title>
<g id="a_node1"><a xlink:title=" ">
<polygon fill="#bfbfbf" stroke="black" points="764,-116.5 764,-150.5 967,-150.5 967,-116.5 764,-116.5"/>
<text text-anchor="start" x="772" y="-136.9" font-family="Helvetica,sans-Serif" font-size="12.00">Markov::GUI::MarkovPasswords</text>
<text text-anchor="middle" x="865.5" y="-123.9" font-family="Helvetica,sans-Serif" font-size="12.00">GUI::model</text>
</a>
</g>
</g>
<!-- Node2 -->
<g id="node2" class="node">
<title>Node2</title>
<g id="a_node2"><a xlink:href="class_python_1_1_cuda_markopy_1_1_cuda_model_matrix_c_l_i.html#acfaa19f0478a88a143282431aa89786d" target="_top" xlink:title="wrapper for generate function.">
<polygon fill="none" stroke="black" points="511,-275.5 511,-309.5 724,-309.5 724,-275.5 511,-275.5"/>
<text text-anchor="start" x="519" y="-295.9" font-family="Helvetica,sans-Serif" font-size="12.00">Python.CudaMarkopy.CudaModel</text>
<text text-anchor="middle" x="617.5" y="-282.9" font-family="Helvetica,sans-Serif" font-size="12.00">MatrixCLI._generate</text>
</a>
</g>
</g>
<!-- Node1&#45;&gt;Node2 -->
<g id="edge1" class="edge">
<title>Node1&#45;&gt;Node2</title>
<path fill="none" stroke="midnightblue" d="M845.72,-158.77C821.79,-189.09 777.56,-239.25 728,-266.5 721.84,-269.89 715.24,-272.84 708.46,-275.41"/>
<polygon fill="midnightblue" stroke="midnightblue" points="848.55,-160.83 851.91,-150.78 843.02,-156.54 848.55,-160.83"/>
</g>
<!-- Node5 -->
<g id="node5" class="node">
<title>Node5</title>
<g id="a_node5"><a xlink:href="class_python_1_1_markopy_1_1_base_c_l_i.html#acbe1962e0ebdc177414fc4eb7f70be69" target="_top" xlink:title="wrapper for generate function.">
<polygon fill="none" stroke="black" points="534,-222.5 534,-256.5 701,-256.5 701,-222.5 534,-222.5"/>
<text text-anchor="start" x="542" y="-242.9" font-family="Helvetica,sans-Serif" font-size="12.00">Python.Markopy.BaseCLI.</text>
<text text-anchor="middle" x="617.5" y="-229.9" font-family="Helvetica,sans-Serif" font-size="12.00">_generate</text>
</a>
</g>
</g>
<!-- Node1&#45;&gt;Node5 -->
<g id="edge4" class="edge">
<title>Node1&#45;&gt;Node5</title>
<path fill="none" stroke="midnightblue" d="M831.9,-156.36C805.1,-174.2 765.56,-198.43 728,-213.5 719.48,-216.92 710.39,-219.96 701.24,-222.65"/>
<polygon fill="midnightblue" stroke="midnightblue" points="834.15,-159.06 840.48,-150.57 830.23,-153.26 834.15,-159.06"/>
</g>
<!-- Node6 -->
<g id="node6" class="node">
<title>Node6</title>
<g id="a_node6"><a xlink:href="class_python_1_1_markopy_1_1_model_matrix_c_l_i.html#a734d179536d25323ae0b421c48f61716" target="_top" xlink:title="wrapper for generate function.">
<polygon fill="none" stroke="black" points="523,-169.5 523,-203.5 712,-203.5 712,-169.5 523,-169.5"/>
<text text-anchor="start" x="531" y="-189.9" font-family="Helvetica,sans-Serif" font-size="12.00">Python.Markopy.ModelMatrix</text>
<text text-anchor="middle" x="617.5" y="-176.9" font-family="Helvetica,sans-Serif" font-size="12.00">CLI._generate</text>
</a>
</g>
</g>
<!-- Node1&#45;&gt;Node6 -->
<g id="edge6" class="edge">
<title>Node1&#45;&gt;Node6</title>
<path fill="none" stroke="midnightblue" d="M775.3,-152.72C749.86,-158.2 722.33,-164.13 697.54,-169.47"/>
<polygon fill="midnightblue" stroke="midnightblue" points="776.27,-156.09 785.31,-150.56 774.8,-149.25 776.27,-156.09"/>
</g>
<!-- Node7 -->
<g id="node7" class="node">
<title>Node7</title>
<g id="a_node7"><a xlink:href="class_python_1_1_markopy_1_1_markov_passwords_c_l_i.html#a9da87ee9e7809f86dbff169a14229cef" target="_top" xlink:title=" ">
<polygon fill="none" stroke="black" points="507,-116.5 507,-150.5 728,-150.5 728,-116.5 507,-116.5"/>
<text text-anchor="start" x="515" y="-136.9" font-family="Helvetica,sans-Serif" font-size="12.00">Python.Markopy.MarkovPasswords</text>
<text text-anchor="middle" x="617.5" y="-123.9" font-family="Helvetica,sans-Serif" font-size="12.00">CLI._generate</text>
</a>
</g>
</g>
<!-- Node1&#45;&gt;Node7 -->
<g id="edge8" class="edge">
<title>Node1&#45;&gt;Node7</title>
<path fill="none" stroke="midnightblue" d="M753.55,-133.5C745.16,-133.5 736.7,-133.5 728.31,-133.5"/>
<polygon fill="midnightblue" stroke="midnightblue" points="753.73,-137 763.73,-133.5 753.73,-130 753.73,-137"/>
</g>
<!-- Node8 -->
<g id="node8" class="node">
<title>Node8</title>
<g id="a_node8"><a xlink:href="class_python_1_1_markopy_1_1_base_c_l_i.html#ad8e1d099c1958e06177c034d1d2ed52e" target="_top" xlink:title="Export model to a file.">
<polygon fill="none" stroke="black" points="514.5,-76 514.5,-97 720.5,-97 720.5,-76 514.5,-76"/>
<text text-anchor="middle" x="617.5" y="-83.4" font-family="Helvetica,sans-Serif" font-size="12.00">Python.Markopy.BaseCLI.export</text>
</a>
</g>
</g>
<!-- Node1&#45;&gt;Node8 -->
<g id="edge10" class="edge">
<title>Node1&#45;&gt;Node8</title>
<path fill="none" stroke="midnightblue" d="M769.31,-114.49C755.46,-111.77 741.37,-109.04 728,-106.5 711.48,-103.36 693.55,-100.04 677.06,-97.03"/>
<polygon fill="midnightblue" stroke="midnightblue" points="768.86,-117.96 779.34,-116.46 770.21,-111.1 768.86,-117.96"/>
</g>
<!-- Node9 -->
<g id="node9" class="node">
<title>Node9</title>
<g id="a_node9"><a xlink:href="class_python_1_1_markopy_1_1_base_c_l_i.html#a4d0f291accfd276eb967e1121124274b" target="_top" xlink:title="Train a model via CLI parameters.">
<polygon fill="none" stroke="black" points="262.5,-61 262.5,-82 457.5,-82 457.5,-61 262.5,-61"/>
<text text-anchor="middle" x="360" y="-68.4" font-family="Helvetica,sans-Serif" font-size="12.00">Python.Markopy.BaseCLI.train</text>
</a>
</g>
</g>
<!-- Node1&#45;&gt;Node9 -->
<g id="edge15" class="edge">
<title>Node1&#45;&gt;Node9</title>
<path fill="none" stroke="midnightblue" d="M830.1,-111.1C803.46,-95.15 764.96,-75.08 728,-66.5 625.74,-42.76 503.1,-51.64 428.67,-61"/>
<polygon fill="midnightblue" stroke="midnightblue" points="828.31,-114.11 838.67,-116.33 831.96,-108.13 828.31,-114.11"/>
</g>
<!-- Node10 -->
<g id="node10" class="node">
<title>Node10</title>
<g id="a_node10"><a xlink:href="class_python_1_1_markopy_1_1_base_c_l_i.html#a70c7dc0679d8e37e1b5d6c65405eeedb" target="_top" xlink:title="Import a model file.">
<polygon fill="none" stroke="black" points="256.5,-0.5 256.5,-34.5 463.5,-34.5 463.5,-0.5 256.5,-0.5"/>
<text text-anchor="start" x="264.5" y="-20.9" font-family="Helvetica,sans-Serif" font-size="12.00">Python.Markopy.BaseCLI.import</text>
<text text-anchor="middle" x="360" y="-7.9" font-family="Helvetica,sans-Serif" font-size="12.00">_model</text>
</a>
</g>
</g>
<!-- Node1&#45;&gt;Node10 -->
<g id="edge13" class="edge">
<title>Node1&#45;&gt;Node10</title>
<path fill="none" stroke="midnightblue" d="M836.4,-110.04C810.16,-89.61 769,-61.17 728,-47.5 642.04,-18.83 538.75,-12.71 463.68,-12.96"/>
<polygon fill="midnightblue" stroke="midnightblue" points="834.37,-112.89 844.38,-116.36 838.71,-107.41 834.37,-112.89"/>
</g>
<!-- Node3 -->
<g id="node3" class="node">
<title>Node3</title>
<g id="a_node3"><a xlink:href="class_python_1_1_markopy_1_1_base_c_l_i.html#ad2823b484ee975432aebb4e50875f8a6" target="_top" xlink:title="Generate strings from the model.">
<polygon fill="none" stroke="black" points="249,-176 249,-197 471,-197 471,-176 249,-176"/>
<text text-anchor="middle" x="360" y="-183.4" font-family="Helvetica,sans-Serif" font-size="12.00">Python.Markopy.BaseCLI.generate</text>
</a>
</g>
</g>
<!-- Node2&#45;&gt;Node3 -->
<g id="edge2" class="edge">
<title>Node2&#45;&gt;Node3</title>
<path fill="none" stroke="midnightblue" d="M524.2,-272.49C518.33,-270.63 512.55,-268.63 507,-266.5 457.09,-247.3 403.07,-214.07 376.95,-197.12"/>
<polygon fill="midnightblue" stroke="midnightblue" points="523.56,-275.95 534.15,-275.48 525.58,-269.25 523.56,-275.95"/>
</g>
<!-- Node4 -->
<g id="node4" class="node">
<title>Node4</title>
<g id="a_node4"><a xlink:href="class_python_1_1_markopy_1_1_base_c_l_i.html#aab389488e1f530cf444d9d2ef59a6998" target="_top" xlink:title="Process parameters for operation.">
<polygon fill="none" stroke="black" points="0,-61 0,-82 213,-82 213,-61 0,-61"/>
<text text-anchor="middle" x="106.5" y="-68.4" font-family="Helvetica,sans-Serif" font-size="12.00">Python.Markopy.BaseCLI.process</text>
</a>
</g>
</g>
<!-- Node3&#45;&gt;Node4 -->
<g id="edge3" class="edge">
<title>Node3&#45;&gt;Node4</title>
<path fill="none" stroke="midnightblue" d="M326.44,-171.61C274.86,-148.03 175.62,-102.65 130.65,-82.09"/>
<polygon fill="midnightblue" stroke="midnightblue" points="325.24,-174.91 335.79,-175.89 328.15,-168.55 325.24,-174.91"/>
</g>
<!-- Node5&#45;&gt;Node3 -->
<g id="edge5" class="edge">
<title>Node5&#45;&gt;Node3</title>
<path fill="none" stroke="midnightblue" d="M524.21,-220.36C486.33,-212.5 443.92,-203.7 411.83,-197.04"/>
<polygon fill="midnightblue" stroke="midnightblue" points="523.75,-223.83 534.25,-222.44 525.17,-216.98 523.75,-223.83"/>
</g>
<!-- Node6&#45;&gt;Node3 -->
<g id="edge7" class="edge">
<title>Node6&#45;&gt;Node3</title>
<path fill="none" stroke="midnightblue" d="M512.48,-186.5C498.85,-186.5 484.85,-186.5 471.13,-186.5"/>
<polygon fill="midnightblue" stroke="midnightblue" points="512.81,-190 522.81,-186.5 512.81,-183 512.81,-190"/>
</g>
<!-- Node7&#45;&gt;Node3 -->
<g id="edge9" class="edge">
<title>Node7&#45;&gt;Node3</title>
<path fill="none" stroke="midnightblue" d="M524.21,-152.64C486.33,-160.5 443.92,-169.3 411.83,-175.96"/>
<polygon fill="midnightblue" stroke="midnightblue" points="525.17,-156.02 534.25,-150.56 523.75,-149.17 525.17,-156.02"/>
</g>
<!-- Node8&#45;&gt;Node9 -->
<g id="edge11" class="edge">
<title>Node8&#45;&gt;Node9</title>
<path fill="none" stroke="midnightblue" d="M504.24,-79.91C488.66,-78.99 472.78,-78.06 457.52,-77.17"/>
<polygon fill="midnightblue" stroke="midnightblue" points="504.23,-83.41 514.42,-80.51 504.64,-76.43 504.23,-83.41"/>
</g>
<!-- Node9&#45;&gt;Node4 -->
<g id="edge12" class="edge">
<title>Node9&#45;&gt;Node4</title>
<path fill="none" stroke="midnightblue" d="M252.23,-71.5C239.37,-71.5 226.24,-71.5 213.38,-71.5"/>
<polygon fill="midnightblue" stroke="midnightblue" points="252.48,-75 262.48,-71.5 252.48,-68 252.48,-75"/>
</g>
<!-- Node10&#45;&gt;Node4 -->
<g id="edge14" class="edge">
<title>Node10&#45;&gt;Node4</title>
<path fill="none" stroke="midnightblue" d="M269.71,-36.67C231.71,-44.83 188.84,-54.03 156.72,-60.93"/>
<polygon fill="midnightblue" stroke="midnightblue" points="270.73,-40.03 279.77,-34.51 269.26,-33.19 270.73,-40.03"/>
</g>
</g>
</svg>
