<?xml version="1.0" encoding="UTF-8" standalone="no"?>
<!DOCTYPE svg PUBLIC "-//W3C//DTD SVG 1.1//EN"
 "http://www.w3.org/Graphics/SVG/1.1/DTD/svg11.dtd">
<!-- Generated by graphviz version 2.43.0 (0)
 -->
<!-- Title: Python.Markopy.MarkopyCLI.stub Pages: 1 -->
<svg width="996pt" height="84pt"
 viewBox="0.00 0.00 996.00 83.50" xmlns="http://www.w3.org/2000/svg" xmlns:xlink="http://www.w3.org/1999/xlink">
<g id="graph0" class="graph" transform="scale(1 1) rotate(0) translate(4 79.5)">
<title>Python.Markopy.MarkopyCLI.stub</title>
<!-- Node1 -->
<g id="node1" class="node">
<title>Node1</title>
<g id="a_node1"><a xlink:title=" ">
<polygon fill="#bfbfbf" stroke="black" points="773,-23.5 773,-44.5 988,-44.5 988,-23.5 773,-23.5"/>
<text text-anchor="middle" x="880.5" y="-30.9" font-family="Helvetica,sans-Serif" font-size="12.00">Python.Markopy.MarkopyCLI.stub</text>
</a>
</g>
</g>
<!-- Node2 -->
<g id="node2" class="node">
<title>Node2</title>
<g id="a_node2"><a xlink:href="class_python_1_1_cuda_markopy_1_1_cuda_markopy_c_l_i.html#acb946950d9dbc1402ba081523d497dd3" target="_top" xlink:title="overload help function to print submodel helps">
<polygon fill="none" stroke="black" points="508,-41 508,-75 737,-75 737,-41 508,-41"/>
<text text-anchor="start" x="516" y="-61.4" font-family="Helvetica,sans-Serif" font-size="12.00">Python.CudaMarkopy.CudaMarkopy</text>
<text text-anchor="middle" x="622.5" y="-48.4" font-family="Helvetica,sans-Serif" font-size="12.00">CLI.help</text>
</a>
</g>
</g>
<!-- Node1&#45;&gt;Node2 -->
<g id="edge1" class="edge">
<title>Node1&#45;&gt;Node2</title>
<path fill="none" stroke="midnightblue" d="M762.78,-44.94C754.22,-45.74 745.6,-46.55 737.06,-47.35"/>
<polygon fill="midnightblue" stroke="midnightblue" points="763.16,-48.42 772.79,-44 762.5,-41.45 763.16,-48.42"/>
</g>
<!-- Node6 -->
<g id="node6" class="node">
<title>Node6</title>
<g id="a_node6"><a xlink:href="class_python_1_1_markopy_1_1_markopy_c_l_i.html#a76e6c5fbea009bb2cc5cd1fc7278e2fd" target="_top" xlink:title="overload help function to print submodel helps">
<polygon fill="none" stroke="black" points="515,-0.5 515,-21.5 730,-21.5 730,-0.5 515,-0.5"/>
<text text-anchor="middle" x="622.5" y="-7.9" font-family="Helvetica,sans-Serif" font-size="12.00">Python.Markopy.MarkopyCLI.help</text>
</a>
</g>
</g>
<!-- Node1&#45;&gt;Node6 -->
<g id="edge5" class="edge">
<title>Node1&#45;&gt;Node6</title>
<path fill="none" stroke="midnightblue" d="M762.8,-23.52C751.88,-22.53 740.86,-21.54 730.04,-20.57"/>
<polygon fill="midnightblue" stroke="midnightblue" points="762.51,-27 772.79,-24.41 763.14,-20.03 762.51,-27"/>
</g>
<!-- Node3 -->
<g id="node3" class="node">
<title>Node3</title>
<g id="a_node3"><a xlink:href="class_python_1_1_markopy_1_1_markopy_c_l_i.html#a8f169bd88086d1711dd06c974e87c69b" target="_top" xlink:title="add &#45;mt/–model_type constructor">
<polygon fill="none" stroke="black" points="260,-17 260,-51 472,-51 472,-17 260,-17"/>
<text text-anchor="start" x="268" y="-37.4" font-family="Helvetica,sans-Serif" font-size="12.00">Python.Markopy.MarkopyCLI.add</text>
<text text-anchor="middle" x="366" y="-24.4" font-family="Helvetica,sans-Serif" font-size="12.00">_arguments</text>
</a>
</g>
</g>
<!-- Node2&#45;&gt;Node3 -->
<g id="edge2" class="edge">
<title>Node2&#45;&gt;Node3</title>
<path fill="none" stroke="midnightblue" d="M497.68,-46.32C489.18,-45.52 480.65,-44.72 472.26,-43.93"/>
<polygon fill="midnightblue" stroke="midnightblue" points="497.36,-49.81 507.65,-47.26 498.02,-42.84 497.36,-49.81"/>
</g>
<!-- Node4 -->
<g id="node4" class="node">
<title>Node4</title>
<g id="a_node4"><a xlink:href="class_python_1_1_markopy_1_1_base_c_l_i.html#a290240acf366fc65cf0639698dbf662b" target="_top" xlink:title=" ">
<polygon fill="none" stroke="black" points="11.5,-43.5 11.5,-64.5 212.5,-64.5 212.5,-43.5 11.5,-43.5"/>
<text text-anchor="middle" x="112" y="-50.9" font-family="Helvetica,sans-Serif" font-size="12.00">Python.Markopy.BaseCLI.parse</text>
</a>
</g>
</g>
<!-- Node3&#45;&gt;Node4 -->
<g id="edge3" class="edge">
<title>Node3&#45;&gt;Node4</title>
<path fill="none" stroke="midnightblue" d="M249.62,-43.16C237.27,-44.14 224.78,-45.13 212.63,-46.09"/>
<polygon fill="midnightblue" stroke="midnightblue" points="250.26,-46.62 259.95,-42.34 249.71,-39.64 250.26,-46.62"/>
</g>
<!-- Node5 -->
<g id="node5" class="node">
<title>Node5</title>
<g id="a_node5"><a xlink:href="class_python_1_1_markopy_1_1_markopy_c_l_i.html#ab3660c4d0e9e5ab1889e76264a2c6e02" target="_top" xlink:title=" ">
<polygon fill="none" stroke="black" points="0,-3.5 0,-24.5 224,-24.5 224,-3.5 0,-3.5"/>
<text text-anchor="middle" x="112" y="-10.9" font-family="Helvetica,sans-Serif" font-size="12.00">Python.Markopy.MarkopyCLI.parse</text>
</a>
</g>
</g>
<!-- Node3&#45;&gt;Node5 -->
<g id="edge4" class="edge">
<title>Node3&#45;&gt;Node5</title>
<path fill="none" stroke="midnightblue" d="M249.71,-24.85C241.28,-24.18 232.79,-23.51 224.38,-22.84"/>
<polygon fill="midnightblue" stroke="midnightblue" points="249.71,-28.36 259.95,-25.66 250.26,-21.38 249.71,-28.36"/>
</g>
<!-- Node6&#45;&gt;Node3 -->
<g id="edge6" class="edge">
<title>Node6&#45;&gt;Node3</title>
<path fill="none" stroke="midnightblue" d="M504.45,-21.58C493.73,-22.55 482.93,-23.52 472.33,-24.48"/>
<polygon fill="midnightblue" stroke="midnightblue" points="505.03,-25.04 514.68,-20.65 504.4,-18.07 505.03,-25.04"/>
</g>
</g>
</svg>
