<?xml version="1.0" encoding="UTF-8" standalone="no"?>
<!DOCTYPE svg PUBLIC "-//W3C//DTD SVG 1.1//EN"
 "http://www.w3.org/Graphics/SVG/1.1/DTD/svg11.dtd">
<!-- Generated by graphviz version 2.43.0 (0)
 -->
<!-- Title: Python.Markopy.BaseCLI.parse Pages: 1 -->
<!--zoomable 573 -->
<svg id="main" version="1.1" xmlns="http://www.w3.org/2000/svg" xmlns:xlink="http://www.w3.org/1999/xlink" xml:space="preserve" onload="init(evt)">
<style type="text/css"><![CDATA[
.edge:hover path { stroke: red; }
.edge:hover polygon { stroke: red; fill: red; }
]]></style>
<script type="text/javascript"><![CDATA[
var edges = document.getElementsByTagName('g');
if (edges && edges.length) {
  for (var i=0;i<edges.length;i++) {
    if (edges[i].id.substr(0,4)=='edge') {
      edges[i].setAttribute('class','edge');
    }
  }
}
]]></script>
        <defs>
                <circle id="rim" cx="0" cy="0" r="7"/>
                <circle id="rim2" cx="0" cy="0" r="3.5"/>
                <g id="zoomPlus">
                        <use xlink:href="#rim" fill="#404040">
                                <set attributeName="fill" to="#808080" begin="zoomplus.mouseover" end="zoomplus.mouseout"/>
                        </use>
                        <path d="M-4,0h8M0,-4v8" fill="none" stroke="white" stroke-width="1.5" pointer-events="none"/>
                </g>
                <g id="zoomMin">
                        <use xlink:href="#rim" fill="#404040">
                                <set attributeName="fill" to="#808080" begin="zoomminus.mouseover" end="zoomminus.mouseout"/>
                        </use>
                        <path d="M-4,0h8" fill="none" stroke="white" stroke-width="1.5" pointer-events="none"/>
                </g>
                <g id="dirArrow">
                        <path fill="none" stroke="white" stroke-width="1.5" d="M0,-3.0v7 M-2.5,-0.5L0,-3.0L2.5,-0.5"/>
                </g>
               <g id="resetDef">
                       <use xlink:href="#rim2" fill="#404040">
                               <set attributeName="fill" to="#808080" begin="reset.mouseover" end="reset.mouseout"/>
                       </use>
               </g>
        </defs>

<script type="text/javascript">
var viewWidth = 994;
var viewHeight = 573;
var sectionId = 'dynsection-72';
</script>
<script xlink:href="svgpan.js"/>
<svg id="graph" class="graph">
<g id="viewport">
<title>Python.Markopy.BaseCLI.parse</title>
<!-- Node1 -->
<g id="node1" class="node">
<title>Node1</title>
<g id="a_node1"><a xlink:title=" ">
<polygon fill="#bfbfbf" stroke="black" points="0,-272 0,-293 201,-293 201,-272 0,-272"/>
<text text-anchor="middle" x="100.5" y="-279.4" font-family="Helvetica,sans-Serif" font-size="12.00">Python.Markopy.BaseCLI.parse</text>
</a>
</g>
</g>
<!-- Node2 -->
<g id="node2" class="node">
<title>Node2</title>
<g id="a_node2"><a xlink:href="class_python_1_1_cuda_markopy_1_1_cuda_model_matrix_c_l_i.html#abde98354ae5895627039bf702a02ecaa" target="_top" xlink:title=" ">
<polygon fill="none" stroke="black" points="247,-530.5 247,-564.5 460,-564.5 460,-530.5 247,-530.5"/>
<text text-anchor="start" x="255" y="-550.9" font-family="Helvetica,sans-Serif" font-size="12.00">Python.CudaMarkopy.CudaModel</text>
<text text-anchor="middle" x="353.5" y="-537.9" font-family="Helvetica,sans-Serif" font-size="12.00">MatrixCLI.add_arguments</text>
</a>
</g>
</g>
<!-- Node1&#45;&gt;Node2 -->
<g id="edge1" class="edge">
<title>Node1&#45;&gt;Node2</title>
<path fill="none" stroke="midnightblue" d="M104.19,-293.16C114.31,-330.98 153.87,-459.84 237,-521.5 238.84,-522.87 240.75,-524.17 242.7,-525.4"/>
<polygon fill="midnightblue" stroke="midnightblue" points="241.13,-528.53 251.56,-530.38 244.56,-522.43 241.13,-528.53"/>
</g>
<!-- Node3 -->
<g id="node3" class="node">
<title>Node3</title>
<g id="a_node3"><a xlink:href="class_python_1_1_markopy_1_1_base_c_l_i.html#a7d5836dec84f1a14565fee372d31323b" target="_top" xlink:title=" ">
<polygon fill="none" stroke="black" points="258.5,-477.5 258.5,-511.5 448.5,-511.5 448.5,-477.5 258.5,-477.5"/>
<text text-anchor="start" x="266.5" y="-497.9" font-family="Helvetica,sans-Serif" font-size="12.00">Python.Markopy.BaseCLI.add</text>
<text text-anchor="middle" x="353.5" y="-484.9" font-family="Helvetica,sans-Serif" font-size="12.00">_arguments</text>
</a>
</g>
</g>
<!-- Node1&#45;&gt;Node3 -->
<g id="edge2" class="edge">
<title>Node1&#45;&gt;Node3</title>
<path fill="none" stroke="midnightblue" d="M106.06,-293.43C120.18,-325.87 166.55,-422.21 237,-468.5 240.82,-471.01 244.86,-473.28 249.03,-475.34"/>
<polygon fill="midnightblue" stroke="midnightblue" points="247.81,-478.63 258.37,-479.5 250.66,-472.23 247.81,-478.63"/>
</g>
<!-- Node4 -->
<g id="node4" class="node">
<title>Node4</title>
<g id="a_node4"><a xlink:href="class_python_1_1_markopy_1_1_abstract_generation_model_c_l_i.html#a12cdb40dd92b92141b9ecb0a30b5d943" target="_top" xlink:title=" ">
<polygon fill="none" stroke="black" points="237,-424.5 237,-458.5 470,-458.5 470,-424.5 237,-424.5"/>
<text text-anchor="start" x="245" y="-444.9" font-family="Helvetica,sans-Serif" font-size="12.00">Python.Markopy.AbstractGeneration</text>
<text text-anchor="middle" x="353.5" y="-431.9" font-family="Helvetica,sans-Serif" font-size="12.00">ModelCLI.add_arguments</text>
</a>
</g>
</g>
<!-- Node1&#45;&gt;Node4 -->
<g id="edge3" class="edge">
<title>Node1&#45;&gt;Node4</title>
<path fill="none" stroke="midnightblue" d="M108.96,-293.13C127.47,-318.62 178.24,-383.49 237,-415.5 240.31,-417.3 243.73,-418.98 247.25,-420.54"/>
<polygon fill="midnightblue" stroke="midnightblue" points="246.13,-423.87 256.71,-424.41 248.78,-417.39 246.13,-423.87"/>
</g>
<!-- Node5 -->
<g id="node5" class="node">
<title>Node5</title>
<g id="a_node5"><a xlink:href="class_python_1_1_markopy_1_1_abstract_training_model_c_l_i.html#a714875f2e1227f1d152492a100983b69" target="_top" xlink:title=" ">
<polygon fill="none" stroke="black" points="247.5,-371.5 247.5,-405.5 459.5,-405.5 459.5,-371.5 247.5,-371.5"/>
<text text-anchor="start" x="255.5" y="-391.9" font-family="Helvetica,sans-Serif" font-size="12.00">Python.Markopy.AbstractTraining</text>
<text text-anchor="middle" x="353.5" y="-378.9" font-family="Helvetica,sans-Serif" font-size="12.00">ModelCLI.add_arguments</text>
</a>
</g>
</g>
<!-- Node1&#45;&gt;Node5 -->
<g id="edge4" class="edge">
<title>Node1&#45;&gt;Node5</title>
<path fill="none" stroke="midnightblue" d="M116.14,-293.25C140.18,-310.39 190.02,-343.88 237,-362.5 242.45,-364.66 248.11,-366.66 253.88,-368.51"/>
<polygon fill="midnightblue" stroke="midnightblue" points="253.08,-371.93 263.67,-371.49 255.12,-365.23 253.08,-371.93"/>
</g>
<!-- Node6 -->
<g id="node6" class="node">
<title>Node6</title>
<g id="a_node6"><a xlink:href="class_python_1_1_markopy_1_1_markopy_c_l_i.html#a8f169bd88086d1711dd06c974e87c69b" target="_top" xlink:title="add &#45;mt/–model_type constructor">
<polygon fill="none" stroke="black" points="247.5,-318.5 247.5,-352.5 459.5,-352.5 459.5,-318.5 247.5,-318.5"/>
<text text-anchor="start" x="255.5" y="-338.9" font-family="Helvetica,sans-Serif" font-size="12.00">Python.Markopy.MarkopyCLI.add</text>
<text text-anchor="middle" x="353.5" y="-325.9" font-family="Helvetica,sans-Serif" font-size="12.00">_arguments</text>
</a>
</g>
</g>
<!-- Node1&#45;&gt;Node6 -->
<g id="edge5" class="edge">
<title>Node1&#45;&gt;Node6</title>
<path fill="none" stroke="midnightblue" d="M151.39,-293.03C182.89,-299.69 224.51,-308.48 261.72,-316.33"/>
<polygon fill="midnightblue" stroke="midnightblue" points="261.07,-319.77 271.58,-318.41 262.52,-312.92 261.07,-319.77"/>
</g>
<!-- Node12 -->
<g id="node12" class="node">
<title>Node12</title>
<g id="a_node12"><a xlink:href="class_python_1_1_markopy_1_1_model_matrix_c_l_i.html#a8a335e71b4f9ff50511ff1d646f30969" target="_top" xlink:title=" ">
<polygon fill="none" stroke="black" points="259,-265.5 259,-299.5 448,-299.5 448,-265.5 259,-265.5"/>
<text text-anchor="start" x="267" y="-285.9" font-family="Helvetica,sans-Serif" font-size="12.00">Python.Markopy.ModelMatrix</text>
<text text-anchor="middle" x="353.5" y="-272.9" font-family="Helvetica,sans-Serif" font-size="12.00">CLI.add_arguments</text>
</a>
</g>
</g>
<!-- Node1&#45;&gt;Node12 -->
<g id="edge12" class="edge">
<title>Node1&#45;&gt;Node12</title>
<path fill="none" stroke="midnightblue" d="M201.06,-282.5C216.67,-282.5 232.83,-282.5 248.54,-282.5"/>
<polygon fill="midnightblue" stroke="midnightblue" points="248.78,-286 258.78,-282.5 248.78,-279 248.78,-286"/>
</g>
<!-- Node13 -->
<g id="node13" class="node">
<title>Node13</title>
<g id="a_node13"><a xlink:href="class_python_1_1_cuda_markopy_1_1_cuda_model_matrix_c_l_i.html#a824030379405eded4fa2561c1a1e8610" target="_top" xlink:title=" ">
<polygon fill="none" stroke="black" points="247,-212.5 247,-246.5 460,-246.5 460,-212.5 247,-212.5"/>
<text text-anchor="start" x="255" y="-232.9" font-family="Helvetica,sans-Serif" font-size="12.00">Python.CudaMarkopy.CudaModel</text>
<text text-anchor="middle" x="353.5" y="-219.9" font-family="Helvetica,sans-Serif" font-size="12.00">MatrixCLI.init_post_arguments</text>
</a>
</g>
</g>
<!-- Node1&#45;&gt;Node13 -->
<g id="edge13" class="edge">
<title>Node1&#45;&gt;Node13</title>
<path fill="none" stroke="midnightblue" d="M151.39,-271.97C182.89,-265.31 224.51,-256.52 261.72,-248.67"/>
<polygon fill="midnightblue" stroke="midnightblue" points="262.52,-252.08 271.58,-246.59 261.07,-245.23 262.52,-252.08"/>
</g>
<!-- Node14 -->
<g id="node14" class="node">
<title>Node14</title>
<g id="a_node14"><a xlink:href="class_python_1_1_markopy_1_1_base_c_l_i.html#a4c7fdd1e03b5bf1ac6a6c0cb40df13da" target="_top" xlink:title=" ">
<polygon fill="none" stroke="black" points="261,-159.5 261,-193.5 446,-193.5 446,-159.5 261,-159.5"/>
<text text-anchor="start" x="269" y="-179.9" font-family="Helvetica,sans-Serif" font-size="12.00">Python.Markopy.BaseCLI.init</text>
<text text-anchor="middle" x="353.5" y="-166.9" font-family="Helvetica,sans-Serif" font-size="12.00">_post_arguments</text>
</a>
</g>
</g>
<!-- Node1&#45;&gt;Node14 -->
<g id="edge14" class="edge">
<title>Node1&#45;&gt;Node14</title>
<path fill="none" stroke="midnightblue" d="M116.14,-271.75C140.18,-254.61 190.02,-221.12 237,-202.5 242.45,-200.34 248.11,-198.34 253.88,-196.49"/>
<polygon fill="midnightblue" stroke="midnightblue" points="255.12,-199.77 263.67,-193.51 253.08,-193.07 255.12,-199.77"/>
</g>
<!-- Node15 -->
<g id="node15" class="node">
<title>Node15</title>
<g id="a_node15"><a xlink:href="class_python_1_1_markopy_1_1_markopy_c_l_i.html#a84df41ce62183c3c41afee0389d7a3d4" target="_top" xlink:title=" ">
<polygon fill="none" stroke="black" points="249.5,-106.5 249.5,-140.5 457.5,-140.5 457.5,-106.5 249.5,-106.5"/>
<text text-anchor="start" x="257.5" y="-126.9" font-family="Helvetica,sans-Serif" font-size="12.00">Python.Markopy.MarkopyCLI.init</text>
<text text-anchor="middle" x="353.5" y="-113.9" font-family="Helvetica,sans-Serif" font-size="12.00">_post_arguments</text>
</a>
</g>
</g>
<!-- Node1&#45;&gt;Node15 -->
<g id="edge15" class="edge">
<title>Node1&#45;&gt;Node15</title>
<path fill="none" stroke="midnightblue" d="M108.96,-271.87C127.47,-246.38 178.24,-181.51 237,-149.5 240.31,-147.7 243.73,-146.02 247.25,-144.46"/>
<polygon fill="midnightblue" stroke="midnightblue" points="248.78,-147.61 256.71,-140.59 246.13,-141.13 248.78,-147.61"/>
</g>
<!-- Node16 -->
<g id="node16" class="node">
<title>Node16</title>
<g id="a_node16"><a xlink:href="class_python_1_1_markopy_1_1_model_matrix_c_l_i.html#aedd02a1510ad98bec9b755686fbcec23" target="_top" xlink:title=" ">
<polygon fill="none" stroke="black" points="259,-53.5 259,-87.5 448,-87.5 448,-53.5 259,-53.5"/>
<text text-anchor="start" x="267" y="-73.9" font-family="Helvetica,sans-Serif" font-size="12.00">Python.Markopy.ModelMatrix</text>
<text text-anchor="middle" x="353.5" y="-60.9" font-family="Helvetica,sans-Serif" font-size="12.00">CLI.init_post_arguments</text>
</a>
</g>
</g>
<!-- Node1&#45;&gt;Node16 -->
<g id="edge16" class="edge">
<title>Node1&#45;&gt;Node16</title>
<path fill="none" stroke="midnightblue" d="M106.06,-271.57C120.18,-239.13 166.55,-142.79 237,-96.5 241.03,-93.85 245.29,-91.47 249.7,-89.33"/>
<polygon fill="midnightblue" stroke="midnightblue" points="251.21,-92.49 258.96,-85.27 248.4,-86.08 251.21,-92.49"/>
</g>
<!-- Node17 -->
<g id="node17" class="node">
<title>Node17</title>
<g id="a_node17"><a xlink:href="class_python_1_1_markopy_1_1_base_c_l_i.html#a9ad725de8fe9de68dc7c4f4aece8bb83" target="_top" xlink:title=" ">
<polygon fill="none" stroke="black" points="253,-0.5 253,-34.5 454,-34.5 454,-0.5 253,-0.5"/>
<text text-anchor="start" x="261" y="-20.9" font-family="Helvetica,sans-Serif" font-size="12.00">Python.Markopy.BaseCLI.parse</text>
<text text-anchor="middle" x="353.5" y="-7.9" font-family="Helvetica,sans-Serif" font-size="12.00">_arguments</text>
</a>
</g>
</g>
<!-- Node1&#45;&gt;Node17 -->
<g id="edge17" class="edge">
<title>Node1&#45;&gt;Node17</title>
<path fill="none" stroke="midnightblue" d="M104.19,-271.84C114.31,-234.02 153.87,-105.16 237,-43.5 239.17,-41.89 241.41,-40.38 243.73,-38.96"/>
<polygon fill="midnightblue" stroke="midnightblue" points="245.86,-41.79 252.97,-33.92 242.51,-35.64 245.86,-41.79"/>
</g>
<!-- Node7 -->
<g id="node7" class="node">
<title>Node7</title>
<g id="a_node7"><a xlink:href="class_markov_1_1_a_p_i_1_1_c_l_i_1_1_argparse.html#ac7aaf4edf169e3aab32aca083984d914" target="_top" xlink:title="Print help string.">
<polygon fill="none" stroke="black" points="532.5,-395.5 532.5,-429.5 708.5,-429.5 708.5,-395.5 532.5,-395.5"/>
<text text-anchor="start" x="540.5" y="-415.9" font-family="Helvetica,sans-Serif" font-size="12.00">Markov::API::CLI::Argparse</text>
<text text-anchor="middle" x="620.5" y="-402.9" font-family="Helvetica,sans-Serif" font-size="12.00">::help</text>
</a>
</g>
</g>
<!-- Node6&#45;&gt;Node7 -->
<g id="edge6" class="edge">
<title>Node6&#45;&gt;Node7</title>
<path fill="none" stroke="midnightblue" d="M442.3,-352.5C451.81,-355.38 461.21,-358.69 470,-362.5 487.64,-370.14 488.34,-378.89 506,-386.5 511.35,-388.8 516.94,-390.92 522.64,-392.86"/>
<polygon fill="midnightblue" stroke="midnightblue" points="521.73,-396.24 532.32,-395.96 523.86,-389.58 521.73,-396.24"/>
</g>
<!-- Node8 -->
<g id="node8" class="node">
<title>Node8</title>
<g id="a_node8"><a xlink:href="class_python_1_1_cuda_markopy_1_1_cuda_markopy_c_l_i.html#acb946950d9dbc1402ba081523d497dd3" target="_top" xlink:title="overload help function to print submodel helps">
<polygon fill="none" stroke="black" points="506,-342.5 506,-376.5 735,-376.5 735,-342.5 506,-342.5"/>
<text text-anchor="start" x="514" y="-362.9" font-family="Helvetica,sans-Serif" font-size="12.00">Python.CudaMarkopy.CudaMarkopy</text>
<text text-anchor="middle" x="620.5" y="-349.9" font-family="Helvetica,sans-Serif" font-size="12.00">CLI.help</text>
</a>
</g>
</g>
<!-- Node6&#45;&gt;Node8 -->
<g id="edge7" class="edge">
<title>Node6&#45;&gt;Node8</title>
<path fill="none" stroke="midnightblue" d="M459.62,-345.02C471.47,-346.09 483.63,-347.19 495.69,-348.29"/>
<polygon fill="midnightblue" stroke="midnightblue" points="495.52,-351.79 505.79,-349.2 496.15,-344.81 495.52,-351.79"/>
</g>
<!-- Node10 -->
<g id="node10" class="node">
<title>Node10</title>
<g id="a_node10"><a xlink:href="class_python_1_1_markopy_1_1_base_c_l_i.html#ab367a1505f21191f550087707288b575" target="_top" xlink:title=" ">
<polygon fill="none" stroke="black" points="524,-302 524,-323 717,-323 717,-302 524,-302"/>
<text text-anchor="middle" x="620.5" y="-309.4" font-family="Helvetica,sans-Serif" font-size="12.00">Python.Markopy.BaseCLI.help</text>
</a>
</g>
</g>
<!-- Node6&#45;&gt;Node10 -->
<g id="edge9" class="edge">
<title>Node6&#45;&gt;Node10</title>
<path fill="none" stroke="midnightblue" d="M459.62,-326.38C477.37,-324.84 495.82,-323.23 513.59,-321.69"/>
<polygon fill="midnightblue" stroke="midnightblue" points="514.31,-325.14 523.97,-320.79 513.71,-318.17 514.31,-325.14"/>
</g>
<!-- Node11 -->
<g id="node11" class="node">
<title>Node11</title>
<g id="a_node11"><a xlink:href="class_python_1_1_markopy_1_1_markopy_c_l_i.html#a76e6c5fbea009bb2cc5cd1fc7278e2fd" target="_top" xlink:title="overload help function to print submodel helps">
<polygon fill="none" stroke="black" points="513,-262 513,-283 728,-283 728,-262 513,-262"/>
<text text-anchor="middle" x="620.5" y="-269.4" font-family="Helvetica,sans-Serif" font-size="12.00">Python.Markopy.MarkopyCLI.help</text>
</a>
</g>
</g>
<!-- Node6&#45;&gt;Node11 -->
<g id="edge10" class="edge">
<title>Node6&#45;&gt;Node11</title>
<path fill="none" stroke="midnightblue" d="M436.13,-318.45C447.6,-315.47 459.17,-312.14 470,-308.5 486.6,-302.93 489.25,-297.61 506,-292.5 515.26,-289.67 525.07,-287.2 534.89,-285.05"/>
<polygon fill="midnightblue" stroke="midnightblue" points="535.63,-288.47 544.7,-283 534.2,-281.62 535.63,-288.47"/>
</g>
<!-- Node9 -->
<g id="node9" class="node">
<title>Node9</title>
<g id="a_node9"><a xlink:href="class_python_1_1_markopy_1_1_markopy_c_l_i.html#a80bd3c93aead66d0d7c264a7d387196f" target="_top" xlink:title=" ">
<polygon fill="none" stroke="black" points="771,-305 771,-326 986,-326 986,-305 771,-305"/>
<text text-anchor="middle" x="878.5" y="-312.4" font-family="Helvetica,sans-Serif" font-size="12.00">Python.Markopy.MarkopyCLI.stub</text>
</a>
</g>
</g>
<!-- Node8&#45;&gt;Node9 -->
<g id="edge8" class="edge">
<title>Node8&#45;&gt;Node9</title>
<path fill="none" stroke="midnightblue" d="M720.48,-342.49C749.05,-337.58 779.65,-332.32 806.19,-327.76"/>
<polygon fill="midnightblue" stroke="midnightblue" points="806.88,-331.19 816.14,-326.05 805.7,-324.29 806.88,-331.19"/>
</g>
<!-- Node11&#45;&gt;Node9 -->
<g id="edge11" class="edge">
<title>Node11&#45;&gt;Node9</title>
<path fill="none" stroke="midnightblue" d="M684.12,-283.02C720.54,-289.14 766.61,-296.87 804.64,-303.26"/>
<polygon fill="midnightblue" stroke="midnightblue" points="804.19,-306.74 814.63,-304.94 805.35,-299.83 804.19,-306.74"/>
</g>
</g>
</svg>
        <g id="navigator" transform="translate(0 0)" fill="#404254">
                <rect fill="#f2f5e9" fill-opacity="0.5" stroke="#606060" stroke-width=".5" x="0" y="0" width="60" height="60"/>
                <use id="zoomplus" xlink:href="#zoomPlus" x="17" y="9" onmousedown="handleZoom(evt,'in')"/>
                <use id="zoomminus" xlink:href="#zoomMin" x="42" y="9" onmousedown="handleZoom(evt,'out')"/>
                <use id="reset" xlink:href="#resetDef" x="30" y="36" onmousedown="handleReset()"/>
                <g id="arrowUp" xlink:href="#dirArrow" transform="translate(30 24)" onmousedown="handlePan(0,-1)">
                  <use xlink:href="#rim" fill="#404040">
                        <set attributeName="fill" to="#808080" begin="arrowUp.mouseover" end="arrowUp.mouseout"/>
                  </use>
                  <path fill="none" stroke="white" stroke-width="1.5" d="M0,-3.0v7 M-2.5,-0.5L0,-3.0L2.5,-0.5"/>
                </g>
                <g id="arrowRight" xlink:href="#dirArrow" transform="rotate(90) translate(36 -43)" onmousedown="handlePan(1,0)">
                  <use xlink:href="#rim" fill="#404040">
                        <set attributeName="fill" to="#808080" begin="arrowRight.mouseover" end="arrowRight.mouseout"/>
                  </use>
                  <path fill="none" stroke="white" stroke-width="1.5" d="M0,-3.0v7 M-2.5,-0.5L0,-3.0L2.5,-0.5"/>
                </g>
                <g id="arrowDown" xlink:href="#dirArrow" transform="rotate(180) translate(-30 -48)" onmousedown="handlePan(0,1)">
                  <use xlink:href="#rim" fill="#404040">
                        <set attributeName="fill" to="#808080" begin="arrowDown.mouseover" end="arrowDown.mouseout"/>
                  </use>
                  <path fill="none" stroke="white" stroke-width="1.5" d="M0,-3.0v7 M-2.5,-0.5L0,-3.0L2.5,-0.5"/>
                </g>
                <g id="arrowLeft" xlink:href="#dirArrow" transform="rotate(270) translate(-36 17)" onmousedown="handlePan(-1,0)">
                  <use xlink:href="#rim" fill="#404040">
                        <set attributeName="fill" to="#808080" begin="arrowLeft.mouseover" end="arrowLeft.mouseout"/>
                  </use>
                  <path fill="none" stroke="white" stroke-width="1.5" d="M0,-3.0v7 M-2.5,-0.5L0,-3.0L2.5,-0.5"/>
                </g>
        </g>
        <svg viewBox="0 0 15 15" width="100%" height="30px" preserveAspectRatio="xMaxYMin meet">
         <g id="arrow_out" transform="scale(0.3 0.3)">
          <a xlink:href="class_python_1_1_markopy_1_1_base_c_l_i_a290240acf366fc65cf0639698dbf662b_cgraph_org.svg" target="_base">
           <rect id="button" ry="5" rx="5" y="6" x="6" height="38" width="38"
                fill="#f2f5e9" fill-opacity="0.5" stroke="#606060" stroke-width="1.0"/>
           <path id="arrow"
             d="M 11.500037,31.436501 C 11.940474,20.09759 22.043105,11.32322 32.158766,21.979434 L 37.068811,17.246167 C 37.068811,17.246167 37.088388,32 37.088388,32 L 22.160133,31.978069 C 22.160133,31.978069 26.997745,27.140456 26.997745,27.140456 C 18.528582,18.264221 13.291696,25.230495 11.500037,31.436501 z"
             style="fill:#404040;"/>
          </a>
         </g>
        </svg>
</svg>
