<?xml version="1.0" encoding="UTF-8" standalone="no"?>
<!DOCTYPE svg PUBLIC "-//W3C//DTD SVG 1.1//EN"
 "http://www.w3.org/Graphics/SVG/1.1/DTD/svg11.dtd">
<!-- Generated by graphviz version 2.43.0 (0)
 -->
<!-- Title: Markov::Edge&lt; NodeStorageType &gt; Pages: 1 -->
<!--zoomable 1212 -->
<svg id="main" version="1.1" xmlns="http://www.w3.org/2000/svg" xmlns:xlink="http://www.w3.org/1999/xlink" xml:space="preserve" onload="init(evt)">
<style type="text/css"><![CDATA[
.edge:hover path { stroke: red; }
.edge:hover polygon { stroke: red; fill: red; }
]]></style>
<script type="text/javascript"><![CDATA[
var edges = document.getElementsByTagName('g');
if (edges && edges.length) {
  for (var i=0;i<edges.length;i++) {
    if (edges[i].id.substr(0,4)=='edge') {
      edges[i].setAttribute('class','edge');
    }
  }
}
]]></script>
        <defs>
                <circle id="rim" cx="0" cy="0" r="7"/>
                <circle id="rim2" cx="0" cy="0" r="3.5"/>
                <g id="zoomPlus">
                        <use xlink:href="#rim" fill="#404040">
                                <set attributeName="fill" to="#808080" begin="zoomplus.mouseover" end="zoomplus.mouseout"/>
                        </use>
                        <path d="M-4,0h8M0,-4v8" fill="none" stroke="white" stroke-width="1.5" pointer-events="none"/>
                </g>
                <g id="zoomMin">
                        <use xlink:href="#rim" fill="#404040">
                                <set attributeName="fill" to="#808080" begin="zoomminus.mouseover" end="zoomminus.mouseout"/>
                        </use>
                        <path d="M-4,0h8" fill="none" stroke="white" stroke-width="1.5" pointer-events="none"/>
                </g>
                <g id="dirArrow">
                        <path fill="none" stroke="white" stroke-width="1.5" d="M0,-3.0v7 M-2.5,-0.5L0,-3.0L2.5,-0.5"/>
                </g>
               <g id="resetDef">
                       <use xlink:href="#rim2" fill="#404040">
                               <set attributeName="fill" to="#808080" begin="reset.mouseover" end="reset.mouseout"/>
                       </use>
               </g>
        </defs>

<script type="text/javascript">
var viewWidth = 1168;
var viewHeight = 1212;
var sectionId = 'dynsection-1';
</script>
<script xlink:href="svgpan.js"/>
<svg id="graph" class="graph">
<g id="viewport">
<title>Markov::Edge&lt; NodeStorageType &gt;</title>
<!-- Node1 -->
<g id="node1" class="node">
<title>Node1</title>
<g id="a_node1"><a xlink:title="Edge class used to link nodes in the model together.">
<polygon fill="#bfbfbf" stroke="black" points="0,-1023.5 0,-1203.5 191,-1203.5 191,-1023.5 0,-1023.5"/>
<text text-anchor="start" x="8" y="-1189.9" font-family="Helvetica,sans-Serif" font-size="12.00">Markov::Edge&lt; NodeStorage</text>
<text text-anchor="middle" x="95.5" y="-1176.9" font-family="Helvetica,sans-Serif" font-size="12.00">Type &gt;</text>
<polyline fill="none" stroke="black" points="0,-1169.5 191,-1169.5 "/>
<text text-anchor="start" x="8" y="-1155.9" font-family="Helvetica,sans-Serif" font-size="12.00">&#45; _weight</text>
<polyline fill="none" stroke="black" points="0,-1148.5 191,-1148.5 "/>
<text text-anchor="start" x="8" y="-1134.9" font-family="Helvetica,sans-Serif" font-size="12.00">+ Edge()</text>
<text text-anchor="start" x="8" y="-1121.9" font-family="Helvetica,sans-Serif" font-size="12.00">+ Edge()</text>
<text text-anchor="start" x="8" y="-1108.9" font-family="Helvetica,sans-Serif" font-size="12.00">+ AdjustEdge()</text>
<text text-anchor="start" x="8" y="-1095.9" font-family="Helvetica,sans-Serif" font-size="12.00">+ TraverseNode()</text>
<text text-anchor="start" x="8" y="-1082.9" font-family="Helvetica,sans-Serif" font-size="12.00">+ SetLeftEdge()</text>
<text text-anchor="start" x="8" y="-1069.9" font-family="Helvetica,sans-Serif" font-size="12.00">+ SetRightEdge()</text>
<text text-anchor="start" x="8" y="-1056.9" font-family="Helvetica,sans-Serif" font-size="12.00">+ EdgeWeight()</text>
<text text-anchor="start" x="8" y="-1043.9" font-family="Helvetica,sans-Serif" font-size="12.00">+ LeftNode()</text>
<text text-anchor="start" x="8" y="-1030.9" font-family="Helvetica,sans-Serif" font-size="12.00">+ RightNode()</text>
</a>
</g>
</g>
<!-- Node11 -->
<g id="node11" class="node">
<title>Node11</title>
<g id="a_node11"><a xlink:href="class_markov_1_1_edge.html" target="_top" xlink:title=" ">
<polygon fill="none" stroke="black" points="98,-780.5 98,-973.5 297,-973.5 297,-780.5 98,-780.5"/>
<text text-anchor="middle" x="197.5" y="-959.9" font-family="Helvetica,sans-Serif" font-size="12.00">Markov::Edge&lt; storageType &gt;</text>
<polyline fill="none" stroke="black" points="98,-952.5 297,-952.5 "/>
<text text-anchor="start" x="106" y="-938.9" font-family="Helvetica,sans-Serif" font-size="12.00">&#45; _left</text>
<text text-anchor="start" x="106" y="-925.9" font-family="Helvetica,sans-Serif" font-size="12.00">&#45; _right</text>
<text text-anchor="start" x="106" y="-912.9" font-family="Helvetica,sans-Serif" font-size="12.00">&#45; _weight</text>
<polyline fill="none" stroke="black" points="98,-905.5 297,-905.5 "/>
<text text-anchor="start" x="106" y="-891.9" font-family="Helvetica,sans-Serif" font-size="12.00">+ Edge()</text>
<text text-anchor="start" x="106" y="-878.9" font-family="Helvetica,sans-Serif" font-size="12.00">+ Edge()</text>
<text text-anchor="start" x="106" y="-865.9" font-family="Helvetica,sans-Serif" font-size="12.00">+ AdjustEdge()</text>
<text text-anchor="start" x="106" y="-852.9" font-family="Helvetica,sans-Serif" font-size="12.00">+ TraverseNode()</text>
<text text-anchor="start" x="106" y="-839.9" font-family="Helvetica,sans-Serif" font-size="12.00">+ SetLeftEdge()</text>
<text text-anchor="start" x="106" y="-826.9" font-family="Helvetica,sans-Serif" font-size="12.00">+ SetRightEdge()</text>
<text text-anchor="start" x="106" y="-813.9" font-family="Helvetica,sans-Serif" font-size="12.00">+ EdgeWeight()</text>
<text text-anchor="start" x="106" y="-800.9" font-family="Helvetica,sans-Serif" font-size="12.00">+ LeftNode()</text>
<text text-anchor="start" x="106" y="-787.9" font-family="Helvetica,sans-Serif" font-size="12.00">+ RightNode()</text>
</a>
</g>
</g>
<!-- Node1&#45;&gt;Node11 -->
<g id="edge12" class="edge">
<title>Node1&#45;&gt;Node11</title>
<path fill="none" stroke="orange" d="M138.34,-1014.01C144.14,-1000.67 150.09,-987 155.87,-973.71"/>
<polygon fill="orange" stroke="orange" points="135.13,-1012.61 134.35,-1023.18 141.55,-1015.4 135.13,-1012.61"/>
<text text-anchor="middle" x="199" y="-995.4" font-family="Helvetica,sans-Serif" font-size="12.00"> &lt; storageType &gt;</text>
</g>
<!-- Node2 -->
<g id="node2" class="node">
<title>Node2</title>
<g id="a_node2"><a xlink:href="class_markov_1_1_node.html" target="_top" xlink:title=" ">
<polygon fill="none" stroke="black" points="365.5,-0.5 365.5,-232.5 557.5,-232.5 557.5,-0.5 365.5,-0.5"/>
<text text-anchor="start" x="373.5" y="-218.9" font-family="Helvetica,sans-Serif" font-size="12.00">Markov::Node&lt; NodeStorage</text>
<text text-anchor="middle" x="461.5" y="-205.9" font-family="Helvetica,sans-Serif" font-size="12.00">Type &gt;</text>
<polyline fill="none" stroke="black" points="365.5,-198.5 557.5,-198.5 "/>
<text text-anchor="start" x="373.5" y="-184.9" font-family="Helvetica,sans-Serif" font-size="12.00">&#45; _value</text>
<text text-anchor="start" x="373.5" y="-171.9" font-family="Helvetica,sans-Serif" font-size="12.00">&#45; total_edge_weights</text>
<polyline fill="none" stroke="black" points="365.5,-164.5 557.5,-164.5 "/>
<text text-anchor="start" x="373.5" y="-150.9" font-family="Helvetica,sans-Serif" font-size="12.00">+ Node()</text>
<text text-anchor="start" x="373.5" y="-137.9" font-family="Helvetica,sans-Serif" font-size="12.00">+ Node()</text>
<text text-anchor="start" x="373.5" y="-124.9" font-family="Helvetica,sans-Serif" font-size="12.00">+ Link()</text>
<text text-anchor="start" x="373.5" y="-111.9" font-family="Helvetica,sans-Serif" font-size="12.00">+ Link()</text>
<text text-anchor="start" x="373.5" y="-98.9" font-family="Helvetica,sans-Serif" font-size="12.00">+ RandomNext()</text>
<text text-anchor="start" x="373.5" y="-85.9" font-family="Helvetica,sans-Serif" font-size="12.00">+ UpdateEdges()</text>
<text text-anchor="start" x="373.5" y="-72.9" font-family="Helvetica,sans-Serif" font-size="12.00">+ FindEdge()</text>
<text text-anchor="start" x="373.5" y="-59.9" font-family="Helvetica,sans-Serif" font-size="12.00">+ FindEdge()</text>
<text text-anchor="start" x="373.5" y="-46.9" font-family="Helvetica,sans-Serif" font-size="12.00">+ NodeValue()</text>
<text text-anchor="start" x="373.5" y="-33.9" font-family="Helvetica,sans-Serif" font-size="12.00">+ UpdateTotalVerticeWeight()</text>
<text text-anchor="start" x="373.5" y="-20.9" font-family="Helvetica,sans-Serif" font-size="12.00">+ Edges()</text>
<text text-anchor="start" x="373.5" y="-7.9" font-family="Helvetica,sans-Serif" font-size="12.00">+ TotalEdgeWeights()</text>
</a>
</g>
</g>
<!-- Node2&#45;&gt;Node1 -->
<g id="edge1" class="edge">
<title>Node2&#45;&gt;Node1</title>
<path fill="none" stroke="#404040" d="M365.44,-138.44C247.09,-170.56 61.5,-244.31 61.5,-391 61.5,-878 61.5,-878 61.5,-878 61.5,-921.99 67.43,-970.15 74.34,-1011.32"/>
<polygon fill="none" stroke="#404040" points="74.37,-1011.47 79.33,-1016.71 76.41,-1023.3 71.45,-1018.07 74.37,-1011.47"/>
<text text-anchor="middle" x="81" y="-669.9" font-family="Helvetica,sans-Serif" font-size="12.00"> &#45;_left</text>
<text text-anchor="middle" x="81" y="-656.9" font-family="Helvetica,sans-Serif" font-size="12.00">&#45;_right</text>
</g>
<!-- Node3 -->
<g id="node3" class="node">
<title>Node3</title>
<g id="a_node3"><a xlink:title=" ">
<polygon fill="none" stroke="#bfbfbf" points="439,-520.5 439,-609.5 698,-609.5 698,-520.5 439,-520.5"/>
<text text-anchor="start" x="447" y="-595.9" font-family="Helvetica,sans-Serif" font-size="12.00">std::map&lt; NodeStorageType,</text>
<text text-anchor="middle" x="568.5" y="-582.9" font-family="Helvetica,sans-Serif" font-size="12.00"> Markov::Edge&lt; NodeStorageType &gt; * &gt;</text>
<polyline fill="none" stroke="#bfbfbf" points="439,-575.5 698,-575.5 "/>
<text text-anchor="start" x="447" y="-561.9" font-family="Helvetica,sans-Serif" font-size="12.00">+ keys</text>
<text text-anchor="start" x="447" y="-548.9" font-family="Helvetica,sans-Serif" font-size="12.00">+ elements</text>
<polyline fill="none" stroke="#bfbfbf" points="439,-541.5 698,-541.5 "/>
<text text-anchor="middle" x="568.5" y="-527.9" font-family="Helvetica,sans-Serif" font-size="12.00"> </text>
</a>
</g>
</g>
<!-- Node3&#45;&gt;Node2 -->
<g id="edge2" class="edge">
<title>Node3&#45;&gt;Node2</title>
<path fill="none" stroke="#404040" d="M571.57,-520.47C574.5,-458.83 574.73,-343.32 544.5,-251 543.75,-248.71 542.96,-246.43 542.12,-244.14"/>
<polygon fill="none" stroke="#404040" points="542.02,-243.9 536.09,-239.8 537.59,-232.75 543.53,-236.85 542.02,-243.9"/>
<text text-anchor="middle" x="595" y="-388.9" font-family="Helvetica,sans-Serif" font-size="12.00"> &#45;edges</text>
</g>
<!-- Node4 -->
<g id="node4" class="node">
<title>Node4</title>
<g id="a_node4"><a xlink:title="STL class.">
<polygon fill="none" stroke="#bfbfbf" points="509,-845.5 509,-908.5 628,-908.5 628,-845.5 509,-845.5"/>
<text text-anchor="middle" x="568.5" y="-894.9" font-family="Helvetica,sans-Serif" font-size="12.00">std::map&lt; K, T &gt;</text>
<polyline fill="none" stroke="#bfbfbf" points="509,-887.5 628,-887.5 "/>
<text text-anchor="middle" x="568.5" y="-873.9" font-family="Helvetica,sans-Serif" font-size="12.00"> </text>
<polyline fill="none" stroke="#bfbfbf" points="509,-866.5 628,-866.5 "/>
<text text-anchor="middle" x="568.5" y="-852.9" font-family="Helvetica,sans-Serif" font-size="12.00"> </text>
</a>
</g>
</g>
<!-- Node4&#45;&gt;Node3 -->
<g id="edge3" class="edge">
<title>Node4&#45;&gt;Node3</title>
<path fill="none" stroke="orange" d="M567.16,-834.86C566.51,-813.19 565.82,-786.16 565.5,-762 564.81,-709.6 566.04,-649.31 567.12,-609.59"/>
<polygon fill="orange" stroke="orange" points="563.66,-835.15 567.47,-845.04 570.66,-834.94 563.66,-835.15"/>
<text text-anchor="start" x="565.5" y="-752.4" font-family="Helvetica,sans-Serif" font-size="12.00"> &lt; NodeStorageType,</text>
<text text-anchor="start" x="565.5" y="-739.4" font-family="Helvetica,sans-Serif" font-size="12.00"> Markov::Edge&lt; NodeStorage</text>
<text text-anchor="middle" x="654.5" y="-726.4" font-family="Helvetica,sans-Serif" font-size="12.00">Type &gt; * &gt;</text>
</g>
<!-- Node12 -->
<g id="node12" class="node">
<title>Node12</title>
<g id="a_node12"><a xlink:title=" ">
<polygon fill="none" stroke="#bfbfbf" points="118.5,-628.5 118.5,-704.5 344.5,-704.5 344.5,-628.5 118.5,-628.5"/>
<text text-anchor="start" x="126.5" y="-690.9" font-family="Helvetica,sans-Serif" font-size="12.00">std::map&lt; storageType,</text>
<text text-anchor="middle" x="231.5" y="-677.9" font-family="Helvetica,sans-Serif" font-size="12.00"> Markov::Edge&lt; storageType &gt; * &gt;</text>
<polyline fill="none" stroke="#bfbfbf" points="118.5,-670.5 344.5,-670.5 "/>
<text text-anchor="start" x="126.5" y="-656.9" font-family="Helvetica,sans-Serif" font-size="12.00">+ keys</text>
<polyline fill="none" stroke="#bfbfbf" points="118.5,-649.5 344.5,-649.5 "/>
<text text-anchor="middle" x="231.5" y="-635.9" font-family="Helvetica,sans-Serif" font-size="12.00"> </text>
</a>
</g>
</g>
<!-- Node4&#45;&gt;Node12 -->
<g id="edge16" class="edge">
<title>Node4&#45;&gt;Node12</title>
<path fill="none" stroke="orange" d="M499.41,-843.55C462.26,-823.71 417.45,-795.68 384.5,-762 370.43,-747.62 376.62,-736.28 361.5,-723 353.66,-716.12 344.85,-709.99 335.59,-704.56"/>
<polygon fill="orange" stroke="orange" points="498.19,-846.87 508.67,-848.42 501.45,-840.67 498.19,-846.87"/>
<text text-anchor="start" x="384.5" y="-745.9" font-family="Helvetica,sans-Serif" font-size="12.00"> &lt; storageType, Markov</text>
<text text-anchor="middle" x="465.5" y="-732.9" font-family="Helvetica,sans-Serif" font-size="12.00">::Edge&lt; storageType &gt; * &gt;</text>
</g>
<!-- Node5 -->
<g id="node5" class="node">
<title>Node5</title>
<g id="a_node5"><a xlink:title=" ">
<polygon fill="none" stroke="#bfbfbf" points="554,-1082 554,-1145 583,-1145 583,-1082 554,-1082"/>
<text text-anchor="middle" x="568.5" y="-1131.4" font-family="Helvetica,sans-Serif" font-size="12.00">K</text>
<polyline fill="none" stroke="#bfbfbf" points="554,-1124 583,-1124 "/>
<text text-anchor="middle" x="568.5" y="-1110.4" font-family="Helvetica,sans-Serif" font-size="12.00"> </text>
<polyline fill="none" stroke="#bfbfbf" points="554,-1103 583,-1103 "/>
<text text-anchor="middle" x="568.5" y="-1089.4" font-family="Helvetica,sans-Serif" font-size="12.00"> </text>
</a>
</g>
</g>
<!-- Node5&#45;&gt;Node4 -->
<g id="edge4" class="edge">
<title>Node5&#45;&gt;Node4</title>
<path fill="none" stroke="#404040" d="M568.5,-1081.84C568.5,-1040.68 568.5,-967.33 568.5,-920.75"/>
<polygon fill="none" stroke="#404040" points="568.5,-920.66 564.5,-914.66 568.5,-908.66 572.5,-914.66 568.5,-920.66"/>
<text text-anchor="middle" x="589" y="-995.4" font-family="Helvetica,sans-Serif" font-size="12.00"> +keys</text>
</g>
<!-- Node6 -->
<g id="node6" class="node">
<title>Node6</title>
<g id="a_node6"><a xlink:title=" ">
<polygon fill="none" stroke="#bfbfbf" points="692,-1082 692,-1145 721,-1145 721,-1082 692,-1082"/>
<text text-anchor="middle" x="706.5" y="-1131.4" font-family="Helvetica,sans-Serif" font-size="12.00">T</text>
<polyline fill="none" stroke="#bfbfbf" points="692,-1124 721,-1124 "/>
<text text-anchor="middle" x="706.5" y="-1110.4" font-family="Helvetica,sans-Serif" font-size="12.00"> </text>
<polyline fill="none" stroke="#bfbfbf" points="692,-1103 721,-1103 "/>
<text text-anchor="middle" x="706.5" y="-1089.4" font-family="Helvetica,sans-Serif" font-size="12.00"> </text>
</a>
</g>
</g>
<!-- Node6&#45;&gt;Node4 -->
<g id="edge5" class="edge">
<title>Node6&#45;&gt;Node4</title>
<path fill="none" stroke="#404040" d="M691.99,-1087.85C668.38,-1047.73 621.4,-967.89 592.68,-919.08"/>
<polygon fill="none" stroke="#404040" points="592.58,-918.92 586.09,-915.77 586.49,-908.57 592.98,-911.72 592.58,-918.92"/>
<text text-anchor="middle" x="676.5" y="-995.4" font-family="Helvetica,sans-Serif" font-size="12.00"> +elements</text>
</g>
<!-- Node8 -->
<g id="node8" class="node">
<title>Node8</title>
<g id="a_node8"><a xlink:title="STL class.">
<polygon fill="none" stroke="#bfbfbf" points="712,-845.5 712,-908.5 827,-908.5 827,-845.5 712,-845.5"/>
<text text-anchor="middle" x="769.5" y="-894.9" font-family="Helvetica,sans-Serif" font-size="12.00">std::vector&lt; T &gt;</text>
<polyline fill="none" stroke="#bfbfbf" points="712,-887.5 827,-887.5 "/>
<text text-anchor="middle" x="769.5" y="-873.9" font-family="Helvetica,sans-Serif" font-size="12.00"> </text>
<polyline fill="none" stroke="#bfbfbf" points="712,-866.5 827,-866.5 "/>
<text text-anchor="middle" x="769.5" y="-852.9" font-family="Helvetica,sans-Serif" font-size="12.00"> </text>
</a>
</g>
</g>
<!-- Node6&#45;&gt;Node8 -->
<g id="edge8" class="edge">
<title>Node6&#45;&gt;Node8</title>
<path fill="none" stroke="#404040" d="M714.74,-1081.84C725.82,-1040.59 745.58,-967.02 758.09,-920.46"/>
<polygon fill="none" stroke="#404040" points="758.15,-920.25 755.84,-913.42 761.26,-908.66 763.57,-915.5 758.15,-920.25"/>
<text text-anchor="middle" x="772.5" y="-995.4" font-family="Helvetica,sans-Serif" font-size="12.00"> +elements</text>
</g>
<!-- Node7 -->
<g id="node7" class="node">
<title>Node7</title>
<g id="a_node7"><a xlink:title=" ">
<polygon fill="none" stroke="#bfbfbf" points="788,-527 788,-603 999,-603 999,-527 788,-527"/>
<text text-anchor="start" x="796" y="-589.4" font-family="Helvetica,sans-Serif" font-size="12.00">std::vector&lt; Markov</text>
<text text-anchor="middle" x="893.5" y="-576.4" font-family="Helvetica,sans-Serif" font-size="12.00">::Edge&lt; NodeStorageType &gt; * &gt;</text>
<polyline fill="none" stroke="#bfbfbf" points="788,-569 999,-569 "/>
<text text-anchor="start" x="796" y="-555.4" font-family="Helvetica,sans-Serif" font-size="12.00">+ elements</text>
<polyline fill="none" stroke="#bfbfbf" points="788,-548 999,-548 "/>
<text text-anchor="middle" x="893.5" y="-534.4" font-family="Helvetica,sans-Serif" font-size="12.00"> </text>
</a>
</g>
</g>
<!-- Node7&#45;&gt;Node2 -->
<g id="edge6" class="edge">
<title>Node7&#45;&gt;Node2</title>
<path fill="none" stroke="#404040" d="M857.91,-527C806,-473.06 706.45,-369.7 621.5,-282 603.59,-263.51 584.53,-243.88 566.04,-224.86"/>
<polygon fill="none" stroke="#404040" points="565.96,-224.77 558.91,-223.25 557.6,-216.16 564.65,-217.68 565.96,-224.77"/>
<text text-anchor="middle" x="861.5" y="-388.9" font-family="Helvetica,sans-Serif" font-size="12.00"> +edgesV</text>
</g>
<!-- Node8&#45;&gt;Node7 -->
<g id="edge7" class="edge">
<title>Node8&#45;&gt;Node7</title>
<path fill="none" stroke="orange" d="M836.85,-854.59C879.71,-837.07 931.82,-807.61 957.5,-762 986.48,-710.54 951.52,-643.99 923,-603.18"/>
<polygon fill="orange" stroke="orange" points="835.31,-851.43 827.3,-858.36 837.89,-857.94 835.31,-851.43"/>
<text text-anchor="start" x="967.5" y="-745.9" font-family="Helvetica,sans-Serif" font-size="12.00"> &lt; Markov::Edge&lt; NodeStorage</text>
<text text-anchor="middle" x="1063.5" y="-732.9" font-family="Helvetica,sans-Serif" font-size="12.00">Type &gt; * &gt;</text>
</g>
<!-- Node10 -->
<g id="node10" class="node">
<title>Node10</title>
<g id="a_node10"><a xlink:title=" ">
<polygon fill="none" stroke="#bfbfbf" points="362.5,-628.5 362.5,-704.5 540.5,-704.5 540.5,-628.5 362.5,-628.5"/>
<text text-anchor="start" x="370.5" y="-690.9" font-family="Helvetica,sans-Serif" font-size="12.00">std::vector&lt; Markov</text>
<text text-anchor="middle" x="451.5" y="-677.9" font-family="Helvetica,sans-Serif" font-size="12.00">::Edge&lt; storageType &gt; * &gt;</text>
<polyline fill="none" stroke="#bfbfbf" points="362.5,-670.5 540.5,-670.5 "/>
<text text-anchor="middle" x="451.5" y="-656.9" font-family="Helvetica,sans-Serif" font-size="12.00"> </text>
<polyline fill="none" stroke="#bfbfbf" points="362.5,-649.5 540.5,-649.5 "/>
<text text-anchor="middle" x="451.5" y="-635.9" font-family="Helvetica,sans-Serif" font-size="12.00"> </text>
</a>
</g>
</g>
<!-- Node8&#45;&gt;Node10 -->
<g id="edge13" class="edge">
<title>Node8&#45;&gt;Node10</title>
<path fill="none" stroke="orange" d="M775.54,-835.21C778.18,-800.74 775.69,-752.41 747.5,-723 719.51,-693.79 617.2,-679.62 540.65,-672.97"/>
<polygon fill="orange" stroke="orange" points="772.03,-835.14 774.58,-845.42 779,-835.79 772.03,-835.14"/>
<text text-anchor="start" x="768.5" y="-745.9" font-family="Helvetica,sans-Serif" font-size="12.00"> &lt; Markov::Edge&lt; storageType</text>
<text text-anchor="middle" x="862" y="-732.9" font-family="Helvetica,sans-Serif" font-size="12.00"> &gt; * &gt;</text>
</g>
<!-- Node9 -->
<g id="node9" class="node">
<title>Node9</title>
<g id="a_node9"><a xlink:href="class_markov_1_1_node.html" target="_top" xlink:title="A node class that for the vertices of model. Connected with eachother using Edge.">
<polygon fill="none" stroke="black" points="275.5,-282.5 275.5,-501.5 475.5,-501.5 475.5,-282.5 275.5,-282.5"/>
<text text-anchor="middle" x="375.5" y="-487.9" font-family="Helvetica,sans-Serif" font-size="12.00">Markov::Node&lt; storageType &gt;</text>
<polyline fill="none" stroke="black" points="275.5,-480.5 475.5,-480.5 "/>
<text text-anchor="start" x="283.5" y="-466.9" font-family="Helvetica,sans-Serif" font-size="12.00">&#45; _value</text>
<text text-anchor="start" x="283.5" y="-453.9" font-family="Helvetica,sans-Serif" font-size="12.00">&#45; total_edge_weights</text>
<polyline fill="none" stroke="black" points="275.5,-446.5 475.5,-446.5 "/>
<text text-anchor="start" x="283.5" y="-432.9" font-family="Helvetica,sans-Serif" font-size="12.00">+ Node()</text>
<text text-anchor="start" x="283.5" y="-419.9" font-family="Helvetica,sans-Serif" font-size="12.00">+ Node()</text>
<text text-anchor="start" x="283.5" y="-406.9" font-family="Helvetica,sans-Serif" font-size="12.00">+ Link()</text>
<text text-anchor="start" x="283.5" y="-393.9" font-family="Helvetica,sans-Serif" font-size="12.00">+ Link()</text>
<text text-anchor="start" x="283.5" y="-380.9" font-family="Helvetica,sans-Serif" font-size="12.00">+ RandomNext()</text>
<text text-anchor="start" x="283.5" y="-367.9" font-family="Helvetica,sans-Serif" font-size="12.00">+ UpdateEdges()</text>
<text text-anchor="start" x="283.5" y="-354.9" font-family="Helvetica,sans-Serif" font-size="12.00">+ FindEdge()</text>
<text text-anchor="start" x="283.5" y="-341.9" font-family="Helvetica,sans-Serif" font-size="12.00">+ FindEdge()</text>
<text text-anchor="start" x="283.5" y="-328.9" font-family="Helvetica,sans-Serif" font-size="12.00">+ NodeValue()</text>
<text text-anchor="start" x="283.5" y="-315.9" font-family="Helvetica,sans-Serif" font-size="12.00">+ UpdateTotalVerticeWeight()</text>
<text text-anchor="start" x="283.5" y="-302.9" font-family="Helvetica,sans-Serif" font-size="12.00">+ Edges()</text>
<text text-anchor="start" x="283.5" y="-289.9" font-family="Helvetica,sans-Serif" font-size="12.00">+ TotalEdgeWeights()</text>
</a>
</g>
</g>
<!-- Node9&#45;&gt;Node2 -->
<g id="edge9" class="edge">
<title>Node9&#45;&gt;Node2</title>
<path fill="none" stroke="orange" d="M400.25,-272.39C402.23,-265.12 404.32,-257.94 406.5,-251 408.38,-245.02 410.41,-238.94 412.56,-232.83"/>
<polygon fill="orange" stroke="orange" points="396.79,-271.79 397.6,-282.36 403.55,-273.59 396.79,-271.79"/>
<text text-anchor="middle" x="475.5" y="-254.4" font-family="Helvetica,sans-Serif" font-size="12.00"> &lt; NodeStorageType &gt;</text>
</g>
<!-- Node10&#45;&gt;Node9 -->
<g id="edge10" class="edge">
<title>Node10&#45;&gt;Node9</title>
<path fill="none" stroke="#404040" d="M386.05,-628.18C380.67,-622.75 375.98,-616.69 372.5,-610 357.34,-580.82 352.86,-546.31 353.55,-513.5"/>
<polygon fill="none" stroke="#404040" points="353.55,-513.49 349.79,-507.34 354.03,-501.5 357.79,-507.66 353.55,-513.49"/>
<text text-anchor="middle" x="401.5" y="-561.9" font-family="Helvetica,sans-Serif" font-size="12.00"> +edgesV</text>
</g>
<!-- Node11&#45;&gt;Node10 -->
<g id="edge11" class="edge">
<title>Node11&#45;&gt;Node10</title>
<path fill="none" stroke="#404040" d="M257.33,-780.32C261.12,-774.13 264.87,-767.98 268.5,-762 278.93,-744.79 275.61,-735.34 291.5,-723 311.51,-707.46 323.31,-712.45 350.65,-705.45"/>
<polygon fill="none" stroke="#404040" points="350.91,-705.37 355.52,-699.82 362.42,-701.95 357.8,-707.49 350.91,-705.37"/>
<text text-anchor="middle" x="326.5" y="-739.4" font-family="Helvetica,sans-Serif" font-size="12.00"> +elements</text>
</g>
<!-- Node11&#45;&gt;Node12 -->
<g id="edge15" class="edge">
<title>Node11&#45;&gt;Node12</title>
<path fill="none" stroke="#404040" d="M190.39,-780.24C191.11,-761.03 193.44,-741.17 198.5,-723 199.18,-720.55 200,-718.1 200.93,-715.67"/>
<polygon fill="none" stroke="#404040" points="201.03,-715.45 199.84,-708.34 205.94,-704.5 207.13,-711.62 201.03,-715.45"/>
<text text-anchor="middle" x="233.5" y="-739.4" font-family="Helvetica,sans-Serif" font-size="12.00"> +elements</text>
</g>
<!-- Node12&#45;&gt;Node9 -->
<g id="edge14" class="edge">
<title>Node12&#45;&gt;Node9</title>
<path fill="none" stroke="#404040" d="M249.5,-628.49C264.01,-598.94 285.11,-556.58 304.5,-520 305.85,-517.46 307.22,-514.89 308.6,-512.3"/>
<polygon fill="none" stroke="#404040" points="308.68,-512.16 308,-504.98 314.37,-501.59 315.05,-508.77 308.68,-512.16"/>
<text text-anchor="middle" x="327" y="-561.9" font-family="Helvetica,sans-Serif" font-size="12.00"> &#45;edges</text>
</g>
</g>
</svg>
        <g id="navigator" transform="translate(0 0)" fill="#404254">
                <rect fill="#f2f5e9" fill-opacity="0.5" stroke="#606060" stroke-width=".5" x="0" y="0" width="60" height="60"/>
                <use id="zoomplus" xlink:href="#zoomPlus" x="17" y="9" onmousedown="handleZoom(evt,'in')"/>
                <use id="zoomminus" xlink:href="#zoomMin" x="42" y="9" onmousedown="handleZoom(evt,'out')"/>
                <use id="reset" xlink:href="#resetDef" x="30" y="36" onmousedown="handleReset()"/>
                <g id="arrowUp" xlink:href="#dirArrow" transform="translate(30 24)" onmousedown="handlePan(0,-1)">
                  <use xlink:href="#rim" fill="#404040">
                        <set attributeName="fill" to="#808080" begin="arrowUp.mouseover" end="arrowUp.mouseout"/>
                  </use>
                  <path fill="none" stroke="white" stroke-width="1.5" d="M0,-3.0v7 M-2.5,-0.5L0,-3.0L2.5,-0.5"/>
                </g>
                <g id="arrowRight" xlink:href="#dirArrow" transform="rotate(90) translate(36 -43)" onmousedown="handlePan(1,0)">
                  <use xlink:href="#rim" fill="#404040">
                        <set attributeName="fill" to="#808080" begin="arrowRight.mouseover" end="arrowRight.mouseout"/>
                  </use>
                  <path fill="none" stroke="white" stroke-width="1.5" d="M0,-3.0v7 M-2.5,-0.5L0,-3.0L2.5,-0.5"/>
                </g>
                <g id="arrowDown" xlink:href="#dirArrow" transform="rotate(180) translate(-30 -48)" onmousedown="handlePan(0,1)">
                  <use xlink:href="#rim" fill="#404040">
                        <set attributeName="fill" to="#808080" begin="arrowDown.mouseover" end="arrowDown.mouseout"/>
                  </use>
                  <path fill="none" stroke="white" stroke-width="1.5" d="M0,-3.0v7 M-2.5,-0.5L0,-3.0L2.5,-0.5"/>
                </g>
                <g id="arrowLeft" xlink:href="#dirArrow" transform="rotate(270) translate(-36 17)" onmousedown="handlePan(-1,0)">
                  <use xlink:href="#rim" fill="#404040">
                        <set attributeName="fill" to="#808080" begin="arrowLeft.mouseover" end="arrowLeft.mouseout"/>
                  </use>
                  <path fill="none" stroke="white" stroke-width="1.5" d="M0,-3.0v7 M-2.5,-0.5L0,-3.0L2.5,-0.5"/>
                </g>
        </g>
        <svg viewBox="0 0 15 15" width="100%" height="30px" preserveAspectRatio="xMaxYMin meet">
         <g id="arrow_out" transform="scale(0.3 0.3)">
          <a xlink:href="class_markov_1_1_edge__coll__graph_org.svg" target="_base">
           <rect id="button" ry="5" rx="5" y="6" x="6" height="38" width="38"
                fill="#f2f5e9" fill-opacity="0.5" stroke="#606060" stroke-width="1.0"/>
           <path id="arrow"
             d="M 11.500037,31.436501 C 11.940474,20.09759 22.043105,11.32322 32.158766,21.979434 L 37.068811,17.246167 C 37.068811,17.246167 37.088388,32 37.088388,32 L 22.160133,31.978069 C 22.160133,31.978069 26.997745,27.140456 26.997745,27.140456 C 18.528582,18.264221 13.291696,25.230495 11.500037,31.436501 z"
             style="fill:#404040;"/>
          </a>
         </g>
        </svg>
</svg>
