<?xml version="1.0" encoding="UTF-8" standalone="no"?>
<!DOCTYPE svg PUBLIC "-//W3C//DTD SVG 1.1//EN"
 "http://www.w3.org/Graphics/SVG/1.1/DTD/svg11.dtd">
<!-- Generated by graphviz version 2.43.0 (0)
 -->
<!-- Title: Markov::API::ModelMatrix::FastRandomWalkPartition Pages: 1 -->
<svg width="607pt" height="43pt"
 viewBox="0.00 0.00 607.00 43.00" xmlns="http://www.w3.org/2000/svg" xmlns:xlink="http://www.w3.org/1999/xlink">
<g id="graph0" class="graph" transform="scale(1 1) rotate(0) translate(4 39)">
<title>Markov::API::ModelMatrix::FastRandomWalkPartition</title>
<!-- Node1 -->
<g id="node1" class="node">
<title>Node1</title>
<g id="a_node1"><a xlink:title="A single partition of FastRandomWalk event.">
<polygon fill="#bfbfbf" stroke="black" points="0,-0.5 0,-34.5 174,-34.5 174,-0.5 0,-0.5"/>
<text text-anchor="start" x="8" y="-20.9" font-family="Helvetica,sans-Serif" font-size="12.00">Markov::API::ModelMatrix</text>
<text text-anchor="middle" x="87" y="-7.9" font-family="Helvetica,sans-Serif" font-size="12.00">::FastRandomWalkPartition</text>
</a>
</g>
</g>
<!-- Node2 -->
<g id="node2" class="node">
<title>Node2</title>
<g id="a_node2"><a xlink:href="class_markov_1_1_a_p_i_1_1_model_matrix.html#a96f2885aac69b49b21c66ad5a32514b9" target="_top" xlink:title="A single thread of a single partition of FastRandomWalk.">
<polygon fill="none" stroke="black" points="210,-0.5 210,-34.5 379,-34.5 379,-0.5 210,-0.5"/>
<text text-anchor="start" x="218" y="-20.9" font-family="Helvetica,sans-Serif" font-size="12.00">Markov::API::ModelMatrix</text>
<text text-anchor="middle" x="294.5" y="-7.9" font-family="Helvetica,sans-Serif" font-size="12.00">::FastRandomWalkThread</text>
</a>
</g>
</g>
<!-- Node1&#45;&gt;Node2 -->
<g id="edge1" class="edge">
<title>Node1&#45;&gt;Node2</title>
<path fill="none" stroke="midnightblue" d="M174.26,-17.5C182.61,-17.5 191.12,-17.5 199.54,-17.5"/>
<polygon fill="midnightblue" stroke="midnightblue" points="199.77,-21 209.77,-17.5 199.77,-14 199.77,-21"/>
</g>
<!-- Node3 -->
<g id="node3" class="node">
<title>Node3</title>
<g id="a_node3"><a xlink:href="class_markov_1_1_random_1_1_marsaglia.html#a0a56da316d520b80be6b6df6c9e0b537" target="_top" xlink:title="Generate Random Number.">
<polygon fill="none" stroke="black" points="415,-0.5 415,-34.5 599,-34.5 599,-0.5 415,-0.5"/>
<text text-anchor="start" x="423" y="-20.9" font-family="Helvetica,sans-Serif" font-size="12.00">Markov::Random::Marsaglia</text>
<text text-anchor="middle" x="507" y="-7.9" font-family="Helvetica,sans-Serif" font-size="12.00">::random</text>
</a>
</g>
</g>
<!-- Node2&#45;&gt;Node3 -->
<g id="edge2" class="edge">
<title>Node2&#45;&gt;Node3</title>
<path fill="none" stroke="midnightblue" d="M379.3,-17.5C387.71,-17.5 396.3,-17.5 404.86,-17.5"/>
<polygon fill="midnightblue" stroke="midnightblue" points="404.88,-21 414.88,-17.5 404.88,-14 404.88,-21"/>
</g>
</g>
</svg>
