<?xml version="1.0" encoding="UTF-8" standalone="no"?>
<!DOCTYPE svg PUBLIC "-//W3C//DTD SVG 1.1//EN"
 "http://www.w3.org/Graphics/SVG/1.1/DTD/svg11.dtd">
<!-- Generated by graphviz version 2.43.0 (0)
 -->
<!-- Title: Markov::Random::Marsaglia Pages: 1 -->
<svg width="346pt" height="377pt"
 viewBox="0.00 0.00 346.00 377.00" xmlns="http://www.w3.org/2000/svg" xmlns:xlink="http://www.w3.org/1999/xlink">
<g id="graph0" class="graph" transform="scale(1 1) rotate(0) translate(4 373)">
<title>Markov::Random::Marsaglia</title>
<!-- Node1 -->
<g id="node1" class="node">
<title>Node1</title>
<g id="a_node1"><a xlink:title="Implementation of Marsaglia Random Engine.">
<polygon fill="#bfbfbf" stroke="black" points="151,-0.5 151,-76.5 335,-76.5 335,-0.5 151,-0.5"/>
<text text-anchor="middle" x="243" y="-62.9" font-family="Helvetica,sans-Serif" font-size="12.00">Markov::Random::Marsaglia</text>
<polyline fill="none" stroke="black" points="151,-55.5 335,-55.5 "/>
<text text-anchor="middle" x="243" y="-41.9" font-family="Helvetica,sans-Serif" font-size="12.00"> </text>
<polyline fill="none" stroke="black" points="151,-34.5 335,-34.5 "/>
<text text-anchor="start" x="159" y="-20.9" font-family="Helvetica,sans-Serif" font-size="12.00">+ Marsaglia()</text>
<text text-anchor="start" x="159" y="-7.9" font-family="Helvetica,sans-Serif" font-size="12.00">+ random()</text>
</a>
</g>
</g>
<!-- Node2 -->
<g id="node2" class="node">
<title>Node2</title>
<g id="a_node2"><a xlink:href="class_markov_1_1_random_1_1_default_random_engine.html" target="_top" xlink:title="Implementation using Random.h default random engine.">
<polygon fill="none" stroke="black" points="0,-152.5 0,-267.5 220,-267.5 220,-152.5 0,-152.5"/>
<text text-anchor="start" x="8" y="-253.9" font-family="Helvetica,sans-Serif" font-size="12.00">Markov::Random::DefaultRandom</text>
<text text-anchor="middle" x="110" y="-240.9" font-family="Helvetica,sans-Serif" font-size="12.00">Engine</text>
<polyline fill="none" stroke="black" points="0,-233.5 220,-233.5 "/>
<text text-anchor="middle" x="110" y="-219.9" font-family="Helvetica,sans-Serif" font-size="12.00"> </text>
<polyline fill="none" stroke="black" points="0,-212.5 220,-212.5 "/>
<text text-anchor="start" x="8" y="-198.9" font-family="Helvetica,sans-Serif" font-size="12.00">+ random()</text>
<text text-anchor="start" x="8" y="-185.9" font-family="Helvetica,sans-Serif" font-size="12.00"># rd()</text>
<text text-anchor="start" x="8" y="-172.9" font-family="Helvetica,sans-Serif" font-size="12.00"># generator()</text>
<text text-anchor="start" x="8" y="-159.9" font-family="Helvetica,sans-Serif" font-size="12.00"># distribution()</text>
</a>
</g>
</g>
<!-- Node2&#45;&gt;Node1 -->
<g id="edge1" class="edge">
<title>Node2&#45;&gt;Node1</title>
<path fill="none" stroke="midnightblue" d="M160.93,-144.1C178.87,-121.23 198.41,-96.33 213.92,-76.56"/>
<polygon fill="none" stroke="midnightblue" points="158.08,-142.06 154.66,-152.09 163.58,-146.38 158.08,-142.06"/>
</g>
<!-- Node3 -->
<g id="node3" class="node">
<title>Node3</title>
<g id="a_node3"><a xlink:href="class_markov_1_1_random_1_1_random_engine.html" target="_top" xlink:title="An abstract class for Random Engine.">
<polygon fill="none" stroke="black" points="1.5,-305.5 1.5,-368.5 218.5,-368.5 218.5,-305.5 1.5,-305.5"/>
<text text-anchor="middle" x="110" y="-354.9" font-family="Helvetica,sans-Serif" font-size="12.00">Markov::Random::RandomEngine</text>
<polyline fill="none" stroke="black" points="1.5,-347.5 218.5,-347.5 "/>
<text text-anchor="middle" x="110" y="-333.9" font-family="Helvetica,sans-Serif" font-size="12.00"> </text>
<polyline fill="none" stroke="black" points="1.5,-326.5 218.5,-326.5 "/>
<text text-anchor="start" x="9.5" y="-312.9" font-family="Helvetica,sans-Serif" font-size="12.00">+ random()</text>
</a>
</g>
</g>
<!-- Node3&#45;&gt;Node2 -->
<g id="edge2" class="edge">
<title>Node3&#45;&gt;Node2</title>
<path fill="none" stroke="midnightblue" d="M110,-295.38C110,-286.51 110,-276.98 110,-267.62"/>
<polygon fill="none" stroke="midnightblue" points="106.5,-295.42 110,-305.42 113.5,-295.42 106.5,-295.42"/>
</g>
<!-- Node4 -->
<g id="node4" class="node">
<title>Node4</title>
<g id="a_node4"><a xlink:title=" ">
<polygon fill="none" stroke="#bfbfbf" points="238,-178.5 238,-241.5 338,-241.5 338,-178.5 238,-178.5"/>
<text text-anchor="middle" x="288" y="-227.9" font-family="Helvetica,sans-Serif" font-size="12.00">unsigned long</text>
<polyline fill="none" stroke="#bfbfbf" points="238,-220.5 338,-220.5 "/>
<text text-anchor="middle" x="288" y="-206.9" font-family="Helvetica,sans-Serif" font-size="12.00"> </text>
<polyline fill="none" stroke="#bfbfbf" points="238,-199.5 338,-199.5 "/>
<text text-anchor="middle" x="288" y="-185.9" font-family="Helvetica,sans-Serif" font-size="12.00"> </text>
</a>
</g>
</g>
<!-- Node4&#45;&gt;Node1 -->
<g id="edge3" class="edge">
<title>Node4&#45;&gt;Node1</title>
<path fill="none" stroke="#404040" d="M279.85,-178.3C273.22,-153.35 263.75,-117.65 256.06,-88.71"/>
<polygon fill="none" stroke="#404040" points="255.97,-88.37 250.57,-83.6 252.89,-76.77 258.3,-81.54 255.97,-88.37"/>
<text text-anchor="middle" x="276.5" y="-124.4" font-family="Helvetica,sans-Serif" font-size="12.00"> +x</text>
<text text-anchor="middle" x="276.5" y="-111.4" font-family="Helvetica,sans-Serif" font-size="12.00">+y</text>
<text text-anchor="middle" x="276.5" y="-98.4" font-family="Helvetica,sans-Serif" font-size="12.00">+z</text>
</g>
</g>
</svg>
