<?xml version="1.0" encoding="UTF-8" standalone="no"?>
<!DOCTYPE svg PUBLIC "-//W3C//DTD SVG 1.1//EN"
 "http://www.w3.org/Graphics/SVG/1.1/DTD/svg11.dtd">
<!-- Generated by graphviz version 2.43.0 (0)
 -->
<!-- Title: Python.Markopy.BaseCLI.export Pages: 1 -->
<svg width="694pt" height="30pt"
 viewBox="0.00 0.00 694.00 30.00" xmlns="http://www.w3.org/2000/svg" xmlns:xlink="http://www.w3.org/1999/xlink">
<g id="graph0" class="graph" transform="scale(1 1) rotate(0) translate(4 26)">
<title>Python.Markopy.BaseCLI.export</title>
<!-- Node1 -->
<g id="node1" class="node">
<title>Node1</title>
<g id="a_node1"><a xlink:title="Export model to a file.">
<polygon fill="#bfbfbf" stroke="black" points="480,-0.5 480,-21.5 686,-21.5 686,-0.5 480,-0.5"/>
<text text-anchor="middle" x="583" y="-7.9" font-family="Helvetica,sans-Serif" font-size="12.00">Python.Markopy.BaseCLI.export</text>
</a>
</g>
</g>
<!-- Node2 -->
<g id="node2" class="node">
<title>Node2</title>
<g id="a_node2"><a xlink:href="class_python_1_1_markopy_1_1_base_c_l_i.html#a4d0f291accfd276eb967e1121124274b" target="_top" xlink:title="Train a model via CLI parameters.">
<polygon fill="none" stroke="black" points="249,-0.5 249,-21.5 444,-21.5 444,-0.5 249,-0.5"/>
<text text-anchor="middle" x="346.5" y="-7.9" font-family="Helvetica,sans-Serif" font-size="12.00">Python.Markopy.BaseCLI.train</text>
</a>
</g>
</g>
<!-- Node1&#45;&gt;Node2 -->
<g id="edge1" class="edge">
<title>Node1&#45;&gt;Node2</title>
<path fill="none" stroke="midnightblue" d="M469.79,-11C461.22,-11 452.61,-11 444.15,-11"/>
<polygon fill="midnightblue" stroke="midnightblue" points="469.83,-14.5 479.83,-11 469.83,-7.5 469.83,-14.5"/>
</g>
<!-- Node3 -->
<g id="node3" class="node">
<title>Node3</title>
<g id="a_node3"><a xlink:href="class_python_1_1_markopy_1_1_base_c_l_i.html#aab389488e1f530cf444d9d2ef59a6998" target="_top" xlink:title="Process parameters for operation.">
<polygon fill="none" stroke="black" points="0,-0.5 0,-21.5 213,-21.5 213,-0.5 0,-0.5"/>
<text text-anchor="middle" x="106.5" y="-7.9" font-family="Helvetica,sans-Serif" font-size="12.00">Python.Markopy.BaseCLI.process</text>
</a>
</g>
</g>
<!-- Node2&#45;&gt;Node3 -->
<g id="edge2" class="edge">
<title>Node2&#45;&gt;Node3</title>
<path fill="none" stroke="midnightblue" d="M238.48,-11C230.06,-11 221.56,-11 213.15,-11"/>
<polygon fill="midnightblue" stroke="midnightblue" points="238.7,-14.5 248.7,-11 238.7,-7.5 238.7,-14.5"/>
</g>
</g>
</svg>
