<?xml version="1.0" encoding="UTF-8" standalone="no"?>
<!DOCTYPE svg PUBLIC "-//W3C//DTD SVG 1.1//EN"
 "http://www.w3.org/Graphics/SVG/1.1/DTD/svg11.dtd">
<!-- Generated by graphviz version 2.43.0 (0)
 -->
<!-- Title: Markov::Node&lt; storageType &gt; Pages: 1 -->
<!--zoomable 684 -->
<svg id="main" version="1.1" xmlns="http://www.w3.org/2000/svg" xmlns:xlink="http://www.w3.org/1999/xlink" xml:space="preserve" onload="init(evt)">
<style type="text/css"><![CDATA[
.edge:hover path { stroke: red; }
.edge:hover polygon { stroke: red; fill: red; }
]]></style>
<script type="text/javascript"><![CDATA[
var edges = document.getElementsByTagName('g');
if (edges && edges.length) {
  for (var i=0;i<edges.length;i++) {
    if (edges[i].id.substr(0,4)=='edge') {
      edges[i].setAttribute('class','edge');
    }
  }
}
]]></script>
        <defs>
                <circle id="rim" cx="0" cy="0" r="7"/>
                <circle id="rim2" cx="0" cy="0" r="3.5"/>
                <g id="zoomPlus">
                        <use xlink:href="#rim" fill="#404040">
                                <set attributeName="fill" to="#808080" begin="zoomplus.mouseover" end="zoomplus.mouseout"/>
                        </use>
                        <path d="M-4,0h8M0,-4v8" fill="none" stroke="white" stroke-width="1.5" pointer-events="none"/>
                </g>
                <g id="zoomMin">
                        <use xlink:href="#rim" fill="#404040">
                                <set attributeName="fill" to="#808080" begin="zoomminus.mouseover" end="zoomminus.mouseout"/>
                        </use>
                        <path d="M-4,0h8" fill="none" stroke="white" stroke-width="1.5" pointer-events="none"/>
                </g>
                <g id="dirArrow">
                        <path fill="none" stroke="white" stroke-width="1.5" d="M0,-3.0v7 M-2.5,-0.5L0,-3.0L2.5,-0.5"/>
                </g>
               <g id="resetDef">
                       <use xlink:href="#rim2" fill="#404040">
                               <set attributeName="fill" to="#808080" begin="reset.mouseover" end="reset.mouseout"/>
                       </use>
               </g>
        </defs>

<script type="text/javascript">
var viewWidth = 661;
var viewHeight = 684;
var sectionId = 'dynsection-0';
</script>
<script xlink:href="svgpan.js"/>
<svg id="graph" class="graph">
<g id="viewport">
<title>Markov::Node&lt; storageType &gt;</title>
<!-- Node1 -->
<g id="node1" class="node">
<title>Node1</title>
<g id="a_node1"><a xlink:title="A node class that for the vertices of model. Connected with eachother using Edge.">
<polygon fill="#bfbfbf" stroke="black" points="218.44,-0.5 218.44,-206.5 418.44,-206.5 418.44,-0.5 218.44,-0.5"/>
<text text-anchor="middle" x="318.44" y="-192.9" font-family="Helvetica,sans-Serif" font-size="12.00">Markov::Node&lt; storageType &gt;</text>
<polyline fill="none" stroke="black" points="218.44,-185.5 418.44,-185.5 "/>
<text text-anchor="middle" x="318.44" y="-171.9" font-family="Helvetica,sans-Serif" font-size="12.00"> </text>
<polyline fill="none" stroke="black" points="218.44,-164.5 418.44,-164.5 "/>
<text text-anchor="start" x="226.44" y="-150.9" font-family="Helvetica,sans-Serif" font-size="12.00">+ Node()</text>
<text text-anchor="start" x="226.44" y="-137.9" font-family="Helvetica,sans-Serif" font-size="12.00">+ Node()</text>
<text text-anchor="start" x="226.44" y="-124.9" font-family="Helvetica,sans-Serif" font-size="12.00">+ Link()</text>
<text text-anchor="start" x="226.44" y="-111.9" font-family="Helvetica,sans-Serif" font-size="12.00">+ Link()</text>
<text text-anchor="start" x="226.44" y="-98.9" font-family="Helvetica,sans-Serif" font-size="12.00">+ RandomNext()</text>
<text text-anchor="start" x="226.44" y="-85.9" font-family="Helvetica,sans-Serif" font-size="12.00">+ UpdateEdges()</text>
<text text-anchor="start" x="226.44" y="-72.9" font-family="Helvetica,sans-Serif" font-size="12.00">+ FindEdge()</text>
<text text-anchor="start" x="226.44" y="-59.9" font-family="Helvetica,sans-Serif" font-size="12.00">+ FindEdge()</text>
<text text-anchor="start" x="226.44" y="-46.9" font-family="Helvetica,sans-Serif" font-size="12.00">+ NodeValue()</text>
<text text-anchor="start" x="226.44" y="-33.9" font-family="Helvetica,sans-Serif" font-size="12.00">+ UpdateTotalVerticeWeight()</text>
<text text-anchor="start" x="226.44" y="-20.9" font-family="Helvetica,sans-Serif" font-size="12.00">+ Edges()</text>
<text text-anchor="start" x="226.44" y="-7.9" font-family="Helvetica,sans-Serif" font-size="12.00">+ TotalEdgeWeights()</text>
</a>
</g>
</g>
<!-- Node2 -->
<g id="node2" class="node">
<title>Node2</title>
<g id="a_node2"><a xlink:title=" ">
<polygon fill="none" stroke="#bfbfbf" points="312.44,-256.5 312.44,-332.5 490.44,-332.5 490.44,-256.5 312.44,-256.5"/>
<text text-anchor="start" x="320.44" y="-318.9" font-family="Helvetica,sans-Serif" font-size="12.00">std::vector&lt; Markov</text>
<text text-anchor="middle" x="401.44" y="-305.9" font-family="Helvetica,sans-Serif" font-size="12.00">::Edge&lt; storageType &gt; * &gt;</text>
<polyline fill="none" stroke="#bfbfbf" points="312.44,-298.5 490.44,-298.5 "/>
<text text-anchor="middle" x="401.44" y="-284.9" font-family="Helvetica,sans-Serif" font-size="12.00"> </text>
<polyline fill="none" stroke="#bfbfbf" points="312.44,-277.5 490.44,-277.5 "/>
<text text-anchor="middle" x="401.44" y="-263.9" font-family="Helvetica,sans-Serif" font-size="12.00"> </text>
</a>
</g>
</g>
<!-- Node2&#45;&gt;Node1 -->
<g id="edge1" class="edge">
<title>Node2&#45;&gt;Node1</title>
<path fill="none" stroke="#404040" d="M385.04,-256.16C380.04,-244.78 374.27,-231.64 368.26,-217.94"/>
<polygon fill="none" stroke="#404040" points="368.21,-217.85 362.14,-213.96 363.39,-206.86 369.46,-210.75 368.21,-217.85"/>
<text text-anchor="middle" x="405.44" y="-228.4" font-family="Helvetica,sans-Serif" font-size="12.00"> +edgesV</text>
</g>
<!-- Node3 -->
<g id="node3" class="node">
<title>Node3</title>
<g id="a_node3"><a xlink:href="class_markov_1_1_edge.html" target="_top" xlink:title=" ">
<polygon fill="none" stroke="black" points="288.94,-382.5 288.94,-549.5 487.94,-549.5 487.94,-382.5 288.94,-382.5"/>
<text text-anchor="middle" x="388.44" y="-535.9" font-family="Helvetica,sans-Serif" font-size="12.00">Markov::Edge&lt; storageType &gt;</text>
<polyline fill="none" stroke="black" points="288.94,-528.5 487.94,-528.5 "/>
<text text-anchor="middle" x="388.44" y="-514.9" font-family="Helvetica,sans-Serif" font-size="12.00"> </text>
<polyline fill="none" stroke="black" points="288.94,-507.5 487.94,-507.5 "/>
<text text-anchor="start" x="296.94" y="-493.9" font-family="Helvetica,sans-Serif" font-size="12.00">+ Edge()</text>
<text text-anchor="start" x="296.94" y="-480.9" font-family="Helvetica,sans-Serif" font-size="12.00">+ Edge()</text>
<text text-anchor="start" x="296.94" y="-467.9" font-family="Helvetica,sans-Serif" font-size="12.00">+ AdjustEdge()</text>
<text text-anchor="start" x="296.94" y="-454.9" font-family="Helvetica,sans-Serif" font-size="12.00">+ TraverseNode()</text>
<text text-anchor="start" x="296.94" y="-441.9" font-family="Helvetica,sans-Serif" font-size="12.00">+ SetLeftEdge()</text>
<text text-anchor="start" x="296.94" y="-428.9" font-family="Helvetica,sans-Serif" font-size="12.00">+ SetRightEdge()</text>
<text text-anchor="start" x="296.94" y="-415.9" font-family="Helvetica,sans-Serif" font-size="12.00">+ EdgeWeight()</text>
<text text-anchor="start" x="296.94" y="-402.9" font-family="Helvetica,sans-Serif" font-size="12.00">+ LeftNode()</text>
<text text-anchor="start" x="296.94" y="-389.9" font-family="Helvetica,sans-Serif" font-size="12.00">+ RightNode()</text>
</a>
</g>
</g>
<!-- Node3&#45;&gt;Node2 -->
<g id="edge2" class="edge">
<title>Node3&#45;&gt;Node2</title>
<path fill="none" stroke="#404040" d="M394.79,-382.24C395.76,-369.52 396.74,-356.75 397.64,-345.06"/>
<polygon fill="none" stroke="#404040" points="397.65,-344.83 394.13,-338.54 398.57,-332.86 402.1,-339.15 397.65,-344.83"/>
<text text-anchor="middle" x="431.44" y="-354.4" font-family="Helvetica,sans-Serif" font-size="12.00"> +elements</text>
</g>
<!-- Node7 -->
<g id="node7" class="node">
<title>Node7</title>
<g id="a_node7"><a xlink:title=" ">
<polygon fill="none" stroke="#bfbfbf" points="68.44,-256.5 68.44,-332.5 294.44,-332.5 294.44,-256.5 68.44,-256.5"/>
<text text-anchor="start" x="76.44" y="-318.9" font-family="Helvetica,sans-Serif" font-size="12.00">std::map&lt; storageType,</text>
<text text-anchor="middle" x="181.44" y="-305.9" font-family="Helvetica,sans-Serif" font-size="12.00"> Markov::Edge&lt; storageType &gt; * &gt;</text>
<polyline fill="none" stroke="#bfbfbf" points="68.44,-298.5 294.44,-298.5 "/>
<text text-anchor="middle" x="181.44" y="-284.9" font-family="Helvetica,sans-Serif" font-size="12.00"> </text>
<polyline fill="none" stroke="#bfbfbf" points="68.44,-277.5 294.44,-277.5 "/>
<text text-anchor="middle" x="181.44" y="-263.9" font-family="Helvetica,sans-Serif" font-size="12.00"> </text>
</a>
</g>
</g>
<!-- Node3&#45;&gt;Node7 -->
<g id="edge8" class="edge">
<title>Node3&#45;&gt;Node7</title>
<path fill="none" stroke="#404040" d="M288.88,-383.48C270.7,-368.59 252.35,-353.57 236.09,-340.25"/>
<polygon fill="none" stroke="#404040" points="236.06,-340.23 228.89,-339.52 226.78,-332.63 233.96,-333.33 236.06,-340.23"/>
<text text-anchor="middle" x="295.44" y="-354.4" font-family="Helvetica,sans-Serif" font-size="12.00"> +elements</text>
</g>
<!-- Node4 -->
<g id="node4" class="node">
<title>Node4</title>
<g id="a_node4"><a xlink:title=" ">
<polygon fill="none" stroke="#bfbfbf" points="492.44,-612.5 492.44,-675.5 524.44,-675.5 524.44,-612.5 492.44,-612.5"/>
<text text-anchor="middle" x="508.44" y="-661.9" font-family="Helvetica,sans-Serif" font-size="12.00">int</text>
<polyline fill="none" stroke="#bfbfbf" points="492.44,-654.5 524.44,-654.5 "/>
<text text-anchor="middle" x="508.44" y="-640.9" font-family="Helvetica,sans-Serif" font-size="12.00"> </text>
<polyline fill="none" stroke="#bfbfbf" points="492.44,-633.5 524.44,-633.5 "/>
<text text-anchor="middle" x="508.44" y="-619.9" font-family="Helvetica,sans-Serif" font-size="12.00"> </text>
</a>
</g>
</g>
<!-- Node4&#45;&gt;Node1 -->
<g id="edge5" class="edge">
<title>Node4&#45;&gt;Node1</title>
<path fill="none" stroke="#404040" d="M515.81,-612.42C530.57,-544.35 557.58,-376.81 499.44,-256 483.55,-222.99 456.69,-194.56 428.45,-171.54"/>
<polygon fill="none" stroke="#404040" points="428.25,-171.38 421.07,-170.8 418.84,-163.94 426.03,-164.52 428.25,-171.38"/>
<text text-anchor="middle" x="591.44" y="-354.4" font-family="Helvetica,sans-Serif" font-size="12.00"> &#45;total_edge_weights</text>
</g>
<!-- Node4&#45;&gt;Node3 -->
<g id="edge3" class="edge">
<title>Node4&#45;&gt;Node3</title>
<path fill="none" stroke="#404040" d="M492.17,-627.47C486.66,-622.4 480.39,-616.83 474.44,-612 463.81,-603.37 458.23,-604.5 449.44,-594 440.87,-583.78 433.19,-572.15 426.4,-560.17"/>
<polygon fill="none" stroke="#404040" points="426.38,-560.14 420.01,-556.77 420.66,-549.59 427.04,-552.96 426.38,-560.14"/>
<text text-anchor="middle" x="476.94" y="-577.9" font-family="Helvetica,sans-Serif" font-size="12.00"> &#45;_weight</text>
</g>
<!-- Node5 -->
<g id="node5" class="node">
<title>Node5</title>
<g id="a_node5"><a xlink:title=" ">
<polygon fill="none" stroke="#bfbfbf" points="307.44,-612.5 307.44,-675.5 465.44,-675.5 465.44,-612.5 307.44,-612.5"/>
<text text-anchor="middle" x="386.44" y="-661.9" font-family="Helvetica,sans-Serif" font-size="12.00">Node&lt; storageType &gt; *</text>
<polyline fill="none" stroke="#bfbfbf" points="307.44,-654.5 465.44,-654.5 "/>
<text text-anchor="middle" x="386.44" y="-640.9" font-family="Helvetica,sans-Serif" font-size="12.00"> </text>
<polyline fill="none" stroke="#bfbfbf" points="307.44,-633.5 465.44,-633.5 "/>
<text text-anchor="middle" x="386.44" y="-619.9" font-family="Helvetica,sans-Serif" font-size="12.00"> </text>
</a>
</g>
</g>
<!-- Node5&#45;&gt;Node3 -->
<g id="edge4" class="edge">
<title>Node5&#45;&gt;Node3</title>
<path fill="none" stroke="#404040" d="M386.79,-612.34C386.95,-598.04 387.15,-580.17 387.36,-561.89"/>
<polygon fill="none" stroke="#404040" points="387.36,-561.85 383.43,-555.81 387.5,-549.85 391.43,-555.9 387.36,-561.85"/>
<text text-anchor="middle" x="405.94" y="-584.4" font-family="Helvetica,sans-Serif" font-size="12.00"> &#45;_left</text>
<text text-anchor="middle" x="405.94" y="-571.4" font-family="Helvetica,sans-Serif" font-size="12.00">&#45;_right</text>
</g>
<!-- Node6 -->
<g id="node6" class="node">
<title>Node6</title>
<g id="a_node6"><a xlink:title=" ">
<polygon fill="none" stroke="#bfbfbf" points="47.44,-434.5 47.44,-497.5 137.44,-497.5 137.44,-434.5 47.44,-434.5"/>
<text text-anchor="middle" x="92.44" y="-483.9" font-family="Helvetica,sans-Serif" font-size="12.00">storageType</text>
<polyline fill="none" stroke="#bfbfbf" points="47.44,-476.5 137.44,-476.5 "/>
<text text-anchor="middle" x="92.44" y="-462.9" font-family="Helvetica,sans-Serif" font-size="12.00"> </text>
<polyline fill="none" stroke="#bfbfbf" points="47.44,-455.5 137.44,-455.5 "/>
<text text-anchor="middle" x="92.44" y="-441.9" font-family="Helvetica,sans-Serif" font-size="12.00"> </text>
</a>
</g>
</g>
<!-- Node6&#45;&gt;Node1 -->
<g id="edge6" class="edge">
<title>Node6&#45;&gt;Node1</title>
<path fill="none" stroke="#404040" d="M63.92,-434.27C28.3,-391.97 -23.83,-314.43 12.44,-256 54.7,-187.92 137.65,-149.49 206.54,-128.39"/>
<polygon fill="none" stroke="#404040" points="206.83,-128.3 211.45,-122.76 218.34,-124.9 213.72,-130.44 206.83,-128.3"/>
<text text-anchor="middle" x="35.94" y="-291.4" font-family="Helvetica,sans-Serif" font-size="12.00"> &#45;_value</text>
</g>
<!-- Node6&#45;&gt;Node7 -->
<g id="edge9" class="edge">
<title>Node6&#45;&gt;Node7</title>
<path fill="none" stroke="#404040" d="M108.56,-434.3C121.84,-409.01 140.91,-372.69 156.21,-343.55"/>
<polygon fill="none" stroke="#404040" points="156.29,-343.39 155.54,-336.22 161.87,-332.77 162.62,-339.94 156.29,-343.39"/>
<text text-anchor="middle" x="170.94" y="-354.4" font-family="Helvetica,sans-Serif" font-size="12.00"> +keys</text>
</g>
<!-- Node7&#45;&gt;Node1 -->
<g id="edge7" class="edge">
<title>Node7&#45;&gt;Node1</title>
<path fill="none" stroke="#404040" d="M208.5,-256.16C216.99,-244.45 226.85,-230.86 237.09,-216.72"/>
<polygon fill="none" stroke="#404040" points="237.2,-216.58 237.48,-209.37 244.24,-206.86 243.96,-214.07 237.2,-216.58"/>
<text text-anchor="middle" x="252.94" y="-228.4" font-family="Helvetica,sans-Serif" font-size="12.00"> &#45;edges</text>
</g>
</g>
</svg>
        <g id="navigator" transform="translate(0 0)" fill="#404254">
                <rect fill="#f2f5e9" fill-opacity="0.5" stroke="#606060" stroke-width=".5" x="0" y="0" width="60" height="60"/>
                <use id="zoomplus" xlink:href="#zoomPlus" x="17" y="9" onmousedown="handleZoom(evt,'in')"/>
                <use id="zoomminus" xlink:href="#zoomMin" x="42" y="9" onmousedown="handleZoom(evt,'out')"/>
                <use id="reset" xlink:href="#resetDef" x="30" y="36" onmousedown="handleReset()"/>
                <g id="arrowUp" xlink:href="#dirArrow" transform="translate(30 24)" onmousedown="handlePan(0,-1)">
                  <use xlink:href="#rim" fill="#404040">
                        <set attributeName="fill" to="#808080" begin="arrowUp.mouseover" end="arrowUp.mouseout"/>
                  </use>
                  <path fill="none" stroke="white" stroke-width="1.5" d="M0,-3.0v7 M-2.5,-0.5L0,-3.0L2.5,-0.5"/>
                </g>
                <g id="arrowRight" xlink:href="#dirArrow" transform="rotate(90) translate(36 -43)" onmousedown="handlePan(1,0)">
                  <use xlink:href="#rim" fill="#404040">
                        <set attributeName="fill" to="#808080" begin="arrowRight.mouseover" end="arrowRight.mouseout"/>
                  </use>
                  <path fill="none" stroke="white" stroke-width="1.5" d="M0,-3.0v7 M-2.5,-0.5L0,-3.0L2.5,-0.5"/>
                </g>
                <g id="arrowDown" xlink:href="#dirArrow" transform="rotate(180) translate(-30 -48)" onmousedown="handlePan(0,1)">
                  <use xlink:href="#rim" fill="#404040">
                        <set attributeName="fill" to="#808080" begin="arrowDown.mouseover" end="arrowDown.mouseout"/>
                  </use>
                  <path fill="none" stroke="white" stroke-width="1.5" d="M0,-3.0v7 M-2.5,-0.5L0,-3.0L2.5,-0.5"/>
                </g>
                <g id="arrowLeft" xlink:href="#dirArrow" transform="rotate(270) translate(-36 17)" onmousedown="handlePan(-1,0)">
                  <use xlink:href="#rim" fill="#404040">
                        <set attributeName="fill" to="#808080" begin="arrowLeft.mouseover" end="arrowLeft.mouseout"/>
                  </use>
                  <path fill="none" stroke="white" stroke-width="1.5" d="M0,-3.0v7 M-2.5,-0.5L0,-3.0L2.5,-0.5"/>
                </g>
        </g>
        <svg viewBox="0 0 15 15" width="100%" height="30px" preserveAspectRatio="xMaxYMin meet">
         <g id="arrow_out" transform="scale(0.3 0.3)">
          <a xlink:href="class_markov_1_1_node__coll__graph_org.svg" target="_base">
           <rect id="button" ry="5" rx="5" y="6" x="6" height="38" width="38"
                fill="#f2f5e9" fill-opacity="0.5" stroke="#606060" stroke-width="1.0"/>
           <path id="arrow"
             d="M 11.500037,31.436501 C 11.940474,20.09759 22.043105,11.32322 32.158766,21.979434 L 37.068811,17.246167 C 37.068811,17.246167 37.088388,32 37.088388,32 L 22.160133,31.978069 C 22.160133,31.978069 26.997745,27.140456 26.997745,27.140456 C 18.528582,18.264221 13.291696,25.230495 11.500037,31.436501 z"
             style="fill:#404040;"/>
          </a>
         </g>
        </svg>
</svg>
