<?xml version="1.0" encoding="UTF-8" standalone="no"?>
<!DOCTYPE svg PUBLIC "-//W3C//DTD SVG 1.1//EN"
 "http://www.w3.org/Graphics/SVG/1.1/DTD/svg11.dtd">
<!-- Generated by graphviz version 2.43.0 (0)
 -->
<!-- Title: Markov::GUI::Train Pages: 1 -->
<svg width="172pt" height="211pt"
 viewBox="0.00 0.00 172.00 211.00" xmlns="http://www.w3.org/2000/svg" xmlns:xlink="http://www.w3.org/1999/xlink">
<g id="graph0" class="graph" transform="scale(1 1) rotate(0) translate(4 207)">
<title>Markov::GUI::Train</title>
<!-- Node1 -->
<g id="node1" class="node">
<title>Node1</title>
<g id="a_node1"><a xlink:title="QT Training page class.">
<polygon fill="#bfbfbf" stroke="black" points="0,-0.5 0,-102.5 164,-102.5 164,-0.5 0,-0.5"/>
<text text-anchor="middle" x="82" y="-88.9" font-family="Helvetica,sans-Serif" font-size="12.00">Markov::GUI::Train</text>
<polyline fill="none" stroke="black" points="0,-81.5 164,-81.5 "/>
<text text-anchor="start" x="8" y="-67.9" font-family="Helvetica,sans-Serif" font-size="12.00">&#45; Ui::Train ui</text>
<polyline fill="none" stroke="black" points="0,-60.5 164,-60.5 "/>
<text text-anchor="start" x="8" y="-46.9" font-family="Helvetica,sans-Serif" font-size="12.00">+ Train(QWidget *parent</text>
<text text-anchor="start" x="8" y="-33.9" font-family="Helvetica,sans-Serif" font-size="12.00">=Q_NULLPTR)</text>
<text text-anchor="start" x="8" y="-20.9" font-family="Helvetica,sans-Serif" font-size="12.00">+ void home()</text>
<text text-anchor="start" x="8" y="-7.9" font-family="Helvetica,sans-Serif" font-size="12.00">+ void train()</text>
</a>
</g>
</g>
<!-- Node2 -->
<g id="node2" class="node">
<title>Node2</title>
<g id="a_node2"><a xlink:href="class_q_main_window.html" target="_top" xlink:title=" ">
<polygon fill="none" stroke="black" points="31,-139.5 31,-202.5 133,-202.5 133,-139.5 31,-139.5"/>
<text text-anchor="middle" x="82" y="-188.9" font-family="Helvetica,sans-Serif" font-size="12.00">QMainWindow</text>
<polyline fill="none" stroke="black" points="31,-181.5 133,-181.5 "/>
<text text-anchor="middle" x="82" y="-167.9" font-family="Helvetica,sans-Serif" font-size="12.00"> </text>
<polyline fill="none" stroke="black" points="31,-160.5 133,-160.5 "/>
<text text-anchor="middle" x="82" y="-146.9" font-family="Helvetica,sans-Serif" font-size="12.00"> </text>
</a>
</g>
</g>
<!-- Node2&#45;&gt;Node1 -->
<g id="edge1" class="edge">
<title>Node2&#45;&gt;Node1</title>
<path fill="none" stroke="midnightblue" d="M82,-129.37C82,-120.85 82,-111.77 82,-102.94"/>
<polygon fill="none" stroke="midnightblue" points="78.5,-129.43 82,-139.43 85.5,-129.44 78.5,-129.43"/>
</g>
</g>
</svg>
