<?xml version="1.0" encoding="UTF-8" standalone="no"?>
<!DOCTYPE svg PUBLIC "-//W3C//DTD SVG 1.1//EN"
 "http://www.w3.org/Graphics/SVG/1.1/DTD/svg11.dtd">
<!-- Generated by graphviz version 2.43.0 (0)
 -->
<!-- Title: Markov::API::CUDA::CUDADeviceController::CudaMigrate2DFlat Pages: 1 -->
<svg width="350pt" height="122pt"
 viewBox="0.00 0.00 350.00 122.00" xmlns="http://www.w3.org/2000/svg" xmlns:xlink="http://www.w3.org/1999/xlink">
<g id="graph0" class="graph" transform="scale(1 1) rotate(0) translate(4 118)">
<title>Markov::API::CUDA::CUDADeviceController::CudaMigrate2DFlat</title>
<!-- Node1 -->
<g id="node1" class="node">
<title>Node1</title>
<g id="a_node1"><a xlink:title="Both malloc and memcpy a 2D array into device VRAM.">
<polygon fill="#bfbfbf" stroke="black" points="192,-33.5 192,-80.5 342,-80.5 342,-33.5 192,-33.5"/>
<text text-anchor="start" x="200" y="-66.9" font-family="Helvetica,sans-Serif" font-size="12.00">Markov::API::CUDA::</text>
<text text-anchor="start" x="200" y="-53.9" font-family="Helvetica,sans-Serif" font-size="12.00">CUDADeviceController</text>
<text text-anchor="middle" x="267" y="-40.9" font-family="Helvetica,sans-Serif" font-size="12.00">::CudaMigrate2DFlat</text>
</a>
</g>
</g>
<!-- Node1&#45;&gt;Node1 -->
<g id="edge3" class="edge">
<title>Node1&#45;&gt;Node1</title>
<path fill="none" stroke="midnightblue" d="M299.09,-90.5C294.16,-95.56 283.47,-99 267,-99 241.3,-99 229.65,-90.63 232.06,-80.75"/>
<polygon fill="midnightblue" stroke="midnightblue" points="302.5,-91.33 301.94,-80.75 295.78,-89.36 302.5,-91.33"/>
</g>
<!-- Node2 -->
<g id="node2" class="node">
<title>Node2</title>
<g id="a_node2"><a xlink:href="class_markov_1_1_a_p_i_1_1_c_u_d_a_1_1_c_u_d_a_device_controller.html#a506aa9d676544d166a21d017ab0aeea2" target="_top" xlink:title="Malloc a 2D array in device space.">
<polygon fill="none" stroke="black" points="3,-66.5 3,-113.5 153,-113.5 153,-66.5 3,-66.5"/>
<text text-anchor="start" x="11" y="-99.9" font-family="Helvetica,sans-Serif" font-size="12.00">Markov::API::CUDA::</text>
<text text-anchor="start" x="11" y="-86.9" font-family="Helvetica,sans-Serif" font-size="12.00">CUDADeviceController</text>
<text text-anchor="middle" x="78" y="-73.9" font-family="Helvetica,sans-Serif" font-size="12.00">::CudaMalloc2DToFlat</text>
</a>
</g>
</g>
<!-- Node1&#45;&gt;Node2 -->
<g id="edge1" class="edge">
<title>Node1&#45;&gt;Node2</title>
<path fill="none" stroke="midnightblue" d="M181.88,-71.84C172.28,-73.54 162.54,-75.26 153.09,-76.93"/>
<polygon fill="midnightblue" stroke="midnightblue" points="182.58,-75.27 191.82,-70.09 181.37,-68.38 182.58,-75.27"/>
</g>
<!-- Node3 -->
<g id="node3" class="node">
<title>Node3</title>
<g id="a_node3"><a xlink:href="class_markov_1_1_a_p_i_1_1_c_u_d_a_1_1_c_u_d_a_device_controller.html#a5bbde3a16fc7a4b8cdf07e72a31c1f54" target="_top" xlink:title="Memcpy a 2D array in device space after flattening.">
<polygon fill="none" stroke="black" points="0,-0.5 0,-47.5 156,-47.5 156,-0.5 0,-0.5"/>
<text text-anchor="start" x="8" y="-33.9" font-family="Helvetica,sans-Serif" font-size="12.00">Markov::API::CUDA::</text>
<text text-anchor="start" x="8" y="-20.9" font-family="Helvetica,sans-Serif" font-size="12.00">CUDADeviceController</text>
<text text-anchor="middle" x="78" y="-7.9" font-family="Helvetica,sans-Serif" font-size="12.00">::CudaMemcpy2DToFlat</text>
</a>
</g>
</g>
<!-- Node1&#45;&gt;Node3 -->
<g id="edge2" class="edge">
<title>Node1&#45;&gt;Node3</title>
<path fill="none" stroke="midnightblue" d="M181.85,-42.15C173.29,-40.64 164.63,-39.11 156.15,-37.62"/>
<polygon fill="midnightblue" stroke="midnightblue" points="181.37,-45.62 191.82,-43.91 182.58,-38.73 181.37,-45.62"/>
</g>
</g>
</svg>
