<?xml version="1.0" encoding="UTF-8" standalone="no"?>
<!DOCTYPE svg PUBLIC "-//W3C//DTD SVG 1.1//EN"
 "http://www.w3.org/Graphics/SVG/1.1/DTD/svg11.dtd">
<!-- Generated by graphviz version 2.43.0 (0)
 -->
<!-- Title: Markov::Model::Export Pages: 1 -->
<svg width="374pt" height="84pt"
 viewBox="0.00 0.00 374.00 83.50" xmlns="http://www.w3.org/2000/svg" xmlns:xlink="http://www.w3.org/1999/xlink">
<g id="graph0" class="graph" transform="scale(1 1) rotate(0) translate(4 79.5)">
<title>Markov::Model::Export</title>
<!-- Node1 -->
<g id="node1" class="node">
<title>Node1</title>
<g id="a_node1"><a xlink:title="Export a file of the model.">
<polygon fill="#bfbfbf" stroke="black" points="215,-30 215,-51 366,-51 366,-30 215,-30"/>
<text text-anchor="middle" x="290.5" y="-37.4" font-family="Helvetica,sans-Serif" font-size="12.00">Markov::Model::Export</text>
</a>
</g>
</g>
<!-- Node2 -->
<g id="node2" class="node">
<title>Node2</title>
<g id="a_node2"><a xlink:href="src_2main_8cpp.html#a3c04138a5bfe5d72780bb7e82a18e627" target="_top" xlink:title="Launch CLI tool.">
<polygon fill="none" stroke="black" points="66,-54 66,-75 113,-75 113,-54 66,-54"/>
<text text-anchor="middle" x="89.5" y="-61.4" font-family="Helvetica,sans-Serif" font-size="12.00">main</text>
</a>
</g>
</g>
<!-- Node1&#45;&gt;Node2 -->
<g id="edge1" class="edge">
<title>Node1&#45;&gt;Node2</title>
<path fill="none" stroke="midnightblue" d="M204.55,-50.74C171.14,-54.77 135.49,-59.07 113.12,-61.77"/>
<polygon fill="midnightblue" stroke="midnightblue" points="205.32,-54.18 214.83,-49.5 204.49,-47.23 205.32,-54.18"/>
</g>
<!-- Node3 -->
<g id="node3" class="node">
<title>Node3</title>
<g id="a_node3"><a xlink:href="namespace_testing_1_1_m_v_p_1_1_markov_model.html#af8b6c0d926618a1037c1f30bfc15b87a" target="_top" xlink:title="Test class for minimal viable Model.">
<polygon fill="none" stroke="black" points="0,-0.5 0,-34.5 179,-34.5 179,-0.5 0,-0.5"/>
<text text-anchor="start" x="8" y="-20.9" font-family="Helvetica,sans-Serif" font-size="12.00">Testing::MVP::MarkovModel</text>
<text text-anchor="middle" x="89.5" y="-7.9" font-family="Helvetica,sans-Serif" font-size="12.00">::TEST_CLASS</text>
</a>
</g>
</g>
<!-- Node1&#45;&gt;Node3 -->
<g id="edge2" class="edge">
<title>Node1&#45;&gt;Node3</title>
<path fill="none" stroke="midnightblue" d="M204.69,-30.7C196.3,-29.73 187.77,-28.74 179.34,-27.77"/>
<polygon fill="midnightblue" stroke="midnightblue" points="204.5,-34.2 214.83,-31.87 205.3,-27.25 204.5,-34.2"/>
</g>
</g>
</svg>
