<?xml version="1.0" encoding="UTF-8" standalone="no"?>
<!DOCTYPE svg PUBLIC "-//W3C//DTD SVG 1.1//EN"
 "http://www.w3.org/Graphics/SVG/1.1/DTD/svg11.dtd">
<!-- Generated by graphviz version 2.43.0 (0)
 -->
<!-- Title: markopy.MarkopyCLI.parse Pages: 1 -->
<svg width="418pt" height="137pt"
 viewBox="0.00 0.00 418.00 136.50" xmlns="http://www.w3.org/2000/svg" xmlns:xlink="http://www.w3.org/1999/xlink">
<g id="graph0" class="graph" transform="scale(1 1) rotate(0) translate(4 132.5)">
<title>markopy.MarkopyCLI.parse</title>
<!-- Node1 -->
<g id="node1" class="node">
<title>Node1</title>
<g id="a_node1"><a xlink:title=" ">
<polygon fill="#bfbfbf" stroke="black" points="0,-60 0,-81 180,-81 180,-60 0,-60"/>
<text text-anchor="middle" x="90" y="-67.4" font-family="Helvetica,sans-Serif" font-size="12.00">markopy.MarkopyCLI.parse</text>
</a>
</g>
</g>
<!-- Node2 -->
<g id="node2" class="node">
<title>Node2</title>
<g id="a_node2"><a xlink:href="classbase_1_1_base_c_l_i.html#ae6dfeda797cbd1d32cf42d66d3caf225" target="_top" xlink:title=" ">
<polygon fill="none" stroke="black" points="216,-107 216,-128 410,-128 410,-107 216,-107"/>
<text text-anchor="middle" x="313" y="-114.4" font-family="Helvetica,sans-Serif" font-size="12.00">base.BaseCLI.add_arguments</text>
</a>
</g>
</g>
<!-- Node1&#45;&gt;Node2 -->
<g id="edge1" class="edge">
<title>Node1&#45;&gt;Node2</title>
<path fill="none" stroke="midnightblue" d="M139.36,-81.03C162.54,-86.06 190.7,-92.13 216,-97.5 227.34,-99.9 239.43,-102.44 251.08,-104.88"/>
<polygon fill="midnightblue" stroke="midnightblue" points="250.66,-108.37 261.17,-106.98 252.09,-101.51 250.66,-108.37"/>
</g>
<!-- Node3 -->
<g id="node3" class="node">
<title>Node3</title>
<g id="a_node3"><a xlink:href="classbase_1_1_base_c_l_i.html#aa1e67059dd0b710f61a58aed603fe4ed" target="_top" xlink:title=" ">
<polygon fill="none" stroke="black" points="238,-53.5 238,-87.5 388,-87.5 388,-53.5 238,-53.5"/>
<text text-anchor="start" x="246" y="-73.9" font-family="Helvetica,sans-Serif" font-size="12.00">base.BaseCLI.init_post</text>
<text text-anchor="middle" x="313" y="-60.9" font-family="Helvetica,sans-Serif" font-size="12.00">_arguments</text>
</a>
</g>
</g>
<!-- Node1&#45;&gt;Node3 -->
<g id="edge2" class="edge">
<title>Node1&#45;&gt;Node3</title>
<path fill="none" stroke="midnightblue" d="M180.25,-70.5C195.98,-70.5 212.3,-70.5 227.87,-70.5"/>
<polygon fill="midnightblue" stroke="midnightblue" points="227.99,-74 237.99,-70.5 227.99,-67 227.99,-74"/>
</g>
<!-- Node4 -->
<g id="node4" class="node">
<title>Node4</title>
<g id="a_node4"><a xlink:href="classbase_1_1_base_c_l_i.html#af7dd474789ac13215823e6ba0d7f1c95" target="_top" xlink:title=" ">
<polygon fill="none" stroke="black" points="246,-0.5 246,-34.5 380,-34.5 380,-0.5 246,-0.5"/>
<text text-anchor="start" x="254" y="-20.9" font-family="Helvetica,sans-Serif" font-size="12.00">base.BaseCLI.parse</text>
<text text-anchor="middle" x="313" y="-7.9" font-family="Helvetica,sans-Serif" font-size="12.00">_arguments</text>
</a>
</g>
</g>
<!-- Node1&#45;&gt;Node4 -->
<g id="edge3" class="edge">
<title>Node1&#45;&gt;Node4</title>
<path fill="none" stroke="midnightblue" d="M134.93,-59.97C163.8,-53.04 202.34,-43.8 236.09,-35.71"/>
<polygon fill="midnightblue" stroke="midnightblue" points="237.02,-39.08 245.93,-33.35 235.39,-32.27 237.02,-39.08"/>
</g>
</g>
</svg>
