<?xml version="1.0" encoding="UTF-8" standalone="no"?>
<!DOCTYPE svg PUBLIC "-//W3C//DTD SVG 1.1//EN"
 "http://www.w3.org/Graphics/SVG/1.1/DTD/svg11.dtd">
<!-- Generated by graphviz version 2.43.0 (0)
 -->
<!-- Title: Markov::Edge::RightNode Pages: 1 -->
<svg width="404pt" height="202pt"
 viewBox="0.00 0.00 404.00 202.00" xmlns="http://www.w3.org/2000/svg" xmlns:xlink="http://www.w3.org/1999/xlink">
<g id="graph0" class="graph" transform="scale(1 1) rotate(0) translate(4 198)">
<title>Markov::Edge::RightNode</title>
<!-- Node1 -->
<g id="node1" class="node">
<title>Node1</title>
<g id="a_node1"><a xlink:title="return edge&#39;s RightNode">
<polygon fill="#bfbfbf" stroke="black" points="228,-86 228,-107 396,-107 396,-86 228,-86"/>
<text text-anchor="middle" x="312" y="-93.4" font-family="Helvetica,sans-Serif" font-size="12.00">Markov::Edge::RightNode</text>
</a>
</g>
</g>
<!-- Node2 -->
<g id="node2" class="node">
<title>Node2</title>
<g id="a_node2"><a xlink:href="class_markov_1_1_model.html#ad252913f83fa3eb14cc3f9f92c5ee37a" target="_top" xlink:title="Adjust the model with a single string.">
<polygon fill="none" stroke="black" points="23.5,-159.5 23.5,-193.5 168.5,-193.5 168.5,-159.5 23.5,-159.5"/>
<text text-anchor="start" x="31.5" y="-179.9" font-family="Helvetica,sans-Serif" font-size="12.00">Markov::Model&lt; char</text>
<text text-anchor="middle" x="96" y="-166.9" font-family="Helvetica,sans-Serif" font-size="12.00"> &gt;::AdjustEdge</text>
</a>
</g>
</g>
<!-- Node1&#45;&gt;Node2 -->
<g id="edge1" class="edge">
<title>Node1&#45;&gt;Node2</title>
<path fill="none" stroke="midnightblue" d="M281.17,-111.63C257.43,-123.29 223.13,-139.26 192,-150.5 183.15,-153.69 173.72,-156.72 164.37,-159.49"/>
<polygon fill="midnightblue" stroke="midnightblue" points="282.95,-114.66 290.35,-107.09 279.84,-108.39 282.95,-114.66"/>
</g>
<!-- Node3 -->
<g id="node3" class="node">
<title>Node3</title>
<g id="a_node3"><a xlink:href="class_markov_1_1_model.html#ae16027a94235d2988ac4be35ea07d939" target="_top" xlink:title="Export a file of the model.">
<polygon fill="none" stroke="black" points="23.5,-106.5 23.5,-140.5 168.5,-140.5 168.5,-106.5 23.5,-106.5"/>
<text text-anchor="start" x="31.5" y="-126.9" font-family="Helvetica,sans-Serif" font-size="12.00">Markov::Model&lt; char</text>
<text text-anchor="middle" x="96" y="-113.9" font-family="Helvetica,sans-Serif" font-size="12.00"> &gt;::Export</text>
</a>
</g>
</g>
<!-- Node1&#45;&gt;Node3 -->
<g id="edge2" class="edge">
<title>Node1&#45;&gt;Node3</title>
<path fill="none" stroke="midnightblue" d="M217.75,-108.26C201.25,-110.35 184.31,-112.48 168.52,-114.48"/>
<polygon fill="midnightblue" stroke="midnightblue" points="218.47,-111.7 227.96,-106.98 217.6,-104.76 218.47,-111.7"/>
</g>
<!-- Node4 -->
<g id="node4" class="node">
<title>Node4</title>
<g id="a_node4"><a xlink:href="namespace_testing_1_1_m_v_p_1_1_markov_model.html#a0e3a45b149abd9dff30adc9b877f94cd" target="_top" xlink:title="Test class for minimal viable Edge.">
<polygon fill="none" stroke="black" points="6.5,-53.5 6.5,-87.5 185.5,-87.5 185.5,-53.5 6.5,-53.5"/>
<text text-anchor="start" x="14.5" y="-73.9" font-family="Helvetica,sans-Serif" font-size="12.00">Testing::MVP::MarkovModel</text>
<text text-anchor="middle" x="96" y="-60.9" font-family="Helvetica,sans-Serif" font-size="12.00">::TEST_CLASS</text>
</a>
</g>
</g>
<!-- Node1&#45;&gt;Node4 -->
<g id="edge3" class="edge">
<title>Node1&#45;&gt;Node4</title>
<path fill="none" stroke="midnightblue" d="M217.8,-85.18C207.13,-83.88 196.27,-82.56 185.67,-81.27"/>
<polygon fill="midnightblue" stroke="midnightblue" points="217.61,-88.68 227.96,-86.41 218.45,-81.73 217.61,-88.68"/>
</g>
<!-- Node5 -->
<g id="node5" class="node">
<title>Node5</title>
<g id="a_node5"><a xlink:href="class_markov_1_1_node.html#a77dbb90420f6199790a4fa986b93f85c" target="_top" xlink:title="Insert a new edge to the this.edges.">
<polygon fill="none" stroke="black" points="0,-0.5 0,-34.5 192,-34.5 192,-0.5 0,-0.5"/>
<text text-anchor="start" x="8" y="-20.9" font-family="Helvetica,sans-Serif" font-size="12.00">Markov::Node&lt; NodeStorage</text>
<text text-anchor="middle" x="96" y="-7.9" font-family="Helvetica,sans-Serif" font-size="12.00">Type &gt;::UpdateEdges</text>
</a>
</g>
</g>
<!-- Node1&#45;&gt;Node5 -->
<g id="edge4" class="edge">
<title>Node1&#45;&gt;Node5</title>
<path fill="none" stroke="midnightblue" d="M279.78,-81.47C256.05,-70.39 222.4,-55.41 192,-44.5 182.24,-41 171.78,-37.64 161.51,-34.56"/>
<polygon fill="midnightblue" stroke="midnightblue" points="278.45,-84.72 288.99,-85.81 281.44,-78.38 278.45,-84.72"/>
</g>
</g>
</svg>
