<?xml version="1.0" encoding="UTF-8" standalone="no"?>
<!DOCTYPE svg PUBLIC "-//W3C//DTD SVG 1.1//EN"
 "http://www.w3.org/Graphics/SVG/1.1/DTD/svg11.dtd">
<!-- Generated by graphviz version 2.43.0 (0)
 -->
<!-- Title: Markov::GUI::MarkovPasswordsGUI Pages: 1 -->
<svg width="232pt" height="224pt"
 viewBox="0.00 0.00 232.00 224.00" xmlns="http://www.w3.org/2000/svg" xmlns:xlink="http://www.w3.org/1999/xlink">
<g id="graph0" class="graph" transform="scale(1 1) rotate(0) translate(4 220)">
<title>Markov::GUI::MarkovPasswordsGUI</title>
<!-- Node1 -->
<g id="node1" class="node">
<title>Node1</title>
<g id="a_node1"><a xlink:title="Reporting UI.">
<polygon fill="#bfbfbf" stroke="black" points="0,-0.5 0,-115.5 224,-115.5 224,-0.5 0,-0.5"/>
<text text-anchor="middle" x="112" y="-101.9" font-family="Helvetica,sans-Serif" font-size="12.00">Markov::GUI::MarkovPasswordsGUI</text>
<polyline fill="none" stroke="black" points="0,-94.5 224,-94.5 "/>
<text text-anchor="start" x="8" y="-80.9" font-family="Helvetica,sans-Serif" font-size="12.00">&#45; ui</text>
<polyline fill="none" stroke="black" points="0,-73.5 224,-73.5 "/>
<text text-anchor="start" x="8" y="-59.9" font-family="Helvetica,sans-Serif" font-size="12.00">+ MarkovPasswordsGUI()</text>
<text text-anchor="start" x="8" y="-46.9" font-family="Helvetica,sans-Serif" font-size="12.00">+ benchmarkSelected()</text>
<text text-anchor="start" x="8" y="-33.9" font-family="Helvetica,sans-Serif" font-size="12.00">+ home()</text>
<text text-anchor="start" x="8" y="-20.9" font-family="Helvetica,sans-Serif" font-size="12.00">+ pass()</text>
<text text-anchor="start" x="8" y="-7.9" font-family="Helvetica,sans-Serif" font-size="12.00">+ model()</text>
</a>
</g>
</g>
<!-- Node2 -->
<g id="node2" class="node">
<title>Node2</title>
<g id="a_node2"><a xlink:href="class_q_main_window.html" target="_top" xlink:title=" ">
<polygon fill="none" stroke="black" points="61,-152.5 61,-215.5 163,-215.5 163,-152.5 61,-152.5"/>
<text text-anchor="middle" x="112" y="-201.9" font-family="Helvetica,sans-Serif" font-size="12.00">QMainWindow</text>
<polyline fill="none" stroke="black" points="61,-194.5 163,-194.5 "/>
<text text-anchor="middle" x="112" y="-180.9" font-family="Helvetica,sans-Serif" font-size="12.00"> </text>
<polyline fill="none" stroke="black" points="61,-173.5 163,-173.5 "/>
<text text-anchor="middle" x="112" y="-159.9" font-family="Helvetica,sans-Serif" font-size="12.00"> </text>
</a>
</g>
</g>
<!-- Node2&#45;&gt;Node1 -->
<g id="edge1" class="edge">
<title>Node2&#45;&gt;Node1</title>
<path fill="none" stroke="midnightblue" d="M112,-142.09C112,-133.7 112,-124.73 112,-115.89"/>
<polygon fill="none" stroke="midnightblue" points="108.5,-142.35 112,-152.35 115.5,-142.35 108.5,-142.35"/>
</g>
</g>
</svg>
