<?xml version="1.0" encoding="UTF-8" standalone="no"?>
<!DOCTYPE svg PUBLIC "-//W3C//DTD SVG 1.1//EN"
 "http://www.w3.org/Graphics/SVG/1.1/DTD/svg11.dtd">
<!-- Generated by graphviz version 2.43.0 (0)
 -->
<!-- Title: Markov::Model&lt; NodeStorageType &gt; Pages: 1 -->
<!--zoomable 849 -->
<svg id="main" version="1.1" xmlns="http://www.w3.org/2000/svg" xmlns:xlink="http://www.w3.org/1999/xlink" xml:space="preserve" onload="init(evt)">
<style type="text/css"><![CDATA[
.edge:hover path { stroke: red; }
.edge:hover polygon { stroke: red; fill: red; }
]]></style>
<script type="text/javascript"><![CDATA[
var edges = document.getElementsByTagName('g');
if (edges && edges.length) {
  for (var i=0;i<edges.length;i++) {
    if (edges[i].id.substr(0,4)=='edge') {
      edges[i].setAttribute('class','edge');
    }
  }
}
]]></script>
        <defs>
                <circle id="rim" cx="0" cy="0" r="7"/>
                <circle id="rim2" cx="0" cy="0" r="3.5"/>
                <g id="zoomPlus">
                        <use xlink:href="#rim" fill="#404040">
                                <set attributeName="fill" to="#808080" begin="zoomplus.mouseover" end="zoomplus.mouseout"/>
                        </use>
                        <path d="M-4,0h8M0,-4v8" fill="none" stroke="white" stroke-width="1.5" pointer-events="none"/>
                </g>
                <g id="zoomMin">
                        <use xlink:href="#rim" fill="#404040">
                                <set attributeName="fill" to="#808080" begin="zoomminus.mouseover" end="zoomminus.mouseout"/>
                        </use>
                        <path d="M-4,0h8" fill="none" stroke="white" stroke-width="1.5" pointer-events="none"/>
                </g>
                <g id="dirArrow">
                        <path fill="none" stroke="white" stroke-width="1.5" d="M0,-3.0v7 M-2.5,-0.5L0,-3.0L2.5,-0.5"/>
                </g>
               <g id="resetDef">
                       <use xlink:href="#rim2" fill="#404040">
                               <set attributeName="fill" to="#808080" begin="reset.mouseover" end="reset.mouseout"/>
                       </use>
               </g>
        </defs>

<script type="text/javascript">
var viewWidth = 707;
var viewHeight = 849;
var sectionId = 'dynsection-0';
</script>
<script xlink:href="svgpan.js"/>
<svg id="graph" class="graph">
<g id="viewport">
<title>Markov::Model&lt; NodeStorageType &gt;</title>
<!-- Node1 -->
<g id="node1" class="node">
<title>Node1</title>
<g id="a_node1"><a xlink:title="class for the final Markov Model, constructed from nodes and edges.">
<polygon fill="#bfbfbf" stroke="black" points="198.53,-0.5 198.53,-206.5 395.53,-206.5 395.53,-0.5 198.53,-0.5"/>
<text text-anchor="start" x="206.53" y="-192.9" font-family="Helvetica,sans-Serif" font-size="12.00">Markov::Model&lt; NodeStorage</text>
<text text-anchor="middle" x="297.03" y="-179.9" font-family="Helvetica,sans-Serif" font-size="12.00">Type &gt;</text>
<polyline fill="none" stroke="black" points="198.53,-172.5 395.53,-172.5 "/>
<text text-anchor="middle" x="297.03" y="-158.9" font-family="Helvetica,sans-Serif" font-size="12.00"> </text>
<polyline fill="none" stroke="black" points="198.53,-151.5 395.53,-151.5 "/>
<text text-anchor="start" x="206.53" y="-137.9" font-family="Helvetica,sans-Serif" font-size="12.00">+ Model()</text>
<text text-anchor="start" x="206.53" y="-124.9" font-family="Helvetica,sans-Serif" font-size="12.00">+ RandomWalk()</text>
<text text-anchor="start" x="206.53" y="-111.9" font-family="Helvetica,sans-Serif" font-size="12.00">+ AdjustEdge()</text>
<text text-anchor="start" x="206.53" y="-98.9" font-family="Helvetica,sans-Serif" font-size="12.00">+ Import()</text>
<text text-anchor="start" x="206.53" y="-85.9" font-family="Helvetica,sans-Serif" font-size="12.00">+ Import()</text>
<text text-anchor="start" x="206.53" y="-72.9" font-family="Helvetica,sans-Serif" font-size="12.00">+ Export()</text>
<text text-anchor="start" x="206.53" y="-59.9" font-family="Helvetica,sans-Serif" font-size="12.00">+ Export()</text>
<text text-anchor="start" x="206.53" y="-46.9" font-family="Helvetica,sans-Serif" font-size="12.00">+ StarterNode()</text>
<text text-anchor="start" x="206.53" y="-33.9" font-family="Helvetica,sans-Serif" font-size="12.00">+ Edges()</text>
<text text-anchor="start" x="206.53" y="-20.9" font-family="Helvetica,sans-Serif" font-size="12.00">+ Nodes()</text>
<text text-anchor="start" x="206.53" y="-7.9" font-family="Helvetica,sans-Serif" font-size="12.00">+ OptimizeEdgeOrder()</text>
</a>
</g>
</g>
<!-- Node2 -->
<g id="node2" class="node">
<title>Node2</title>
<g id="a_node2"><a xlink:href="class_markov_1_1_node.html" target="_top" xlink:title=" ">
<polygon fill="none" stroke="black" points="139.03,-382.5 139.03,-601.5 331.03,-601.5 331.03,-382.5 139.03,-382.5"/>
<text text-anchor="start" x="147.03" y="-587.9" font-family="Helvetica,sans-Serif" font-size="12.00">Markov::Node&lt; NodeStorage</text>
<text text-anchor="middle" x="235.03" y="-574.9" font-family="Helvetica,sans-Serif" font-size="12.00">Type &gt;</text>
<polyline fill="none" stroke="black" points="139.03,-567.5 331.03,-567.5 "/>
<text text-anchor="middle" x="235.03" y="-553.9" font-family="Helvetica,sans-Serif" font-size="12.00"> </text>
<polyline fill="none" stroke="black" points="139.03,-546.5 331.03,-546.5 "/>
<text text-anchor="start" x="147.03" y="-532.9" font-family="Helvetica,sans-Serif" font-size="12.00">+ Node()</text>
<text text-anchor="start" x="147.03" y="-519.9" font-family="Helvetica,sans-Serif" font-size="12.00">+ Node()</text>
<text text-anchor="start" x="147.03" y="-506.9" font-family="Helvetica,sans-Serif" font-size="12.00">+ Link()</text>
<text text-anchor="start" x="147.03" y="-493.9" font-family="Helvetica,sans-Serif" font-size="12.00">+ Link()</text>
<text text-anchor="start" x="147.03" y="-480.9" font-family="Helvetica,sans-Serif" font-size="12.00">+ RandomNext()</text>
<text text-anchor="start" x="147.03" y="-467.9" font-family="Helvetica,sans-Serif" font-size="12.00">+ UpdateEdges()</text>
<text text-anchor="start" x="147.03" y="-454.9" font-family="Helvetica,sans-Serif" font-size="12.00">+ FindEdge()</text>
<text text-anchor="start" x="147.03" y="-441.9" font-family="Helvetica,sans-Serif" font-size="12.00">+ FindEdge()</text>
<text text-anchor="start" x="147.03" y="-428.9" font-family="Helvetica,sans-Serif" font-size="12.00">+ NodeValue()</text>
<text text-anchor="start" x="147.03" y="-415.9" font-family="Helvetica,sans-Serif" font-size="12.00">+ UpdateTotalVerticeWeight()</text>
<text text-anchor="start" x="147.03" y="-402.9" font-family="Helvetica,sans-Serif" font-size="12.00">+ Edges()</text>
<text text-anchor="start" x="147.03" y="-389.9" font-family="Helvetica,sans-Serif" font-size="12.00">+ TotalEdgeWeights()</text>
</a>
</g>
</g>
<!-- Node2&#45;&gt;Node1 -->
<g id="edge1" class="edge">
<title>Node2&#45;&gt;Node1</title>
<path fill="none" stroke="#404040" d="M260.57,-382.49C264.02,-365.96 267.31,-349.07 270.03,-333 276.29,-296.02 281.6,-255.43 285.8,-218.86"/>
<polygon fill="none" stroke="#404040" points="285.83,-218.54 282.53,-212.13 287.18,-206.62 290.48,-213.03 285.83,-218.54"/>
<text text-anchor="middle" x="321.53" y="-291.4" font-family="Helvetica,sans-Serif" font-size="12.00"> &#45;starterNode</text>
</g>
<!-- Node8 -->
<g id="node8" class="node">
<title>Node8</title>
<g id="a_node8"><a xlink:title=" ">
<polygon fill="none" stroke="#bfbfbf" points="1.03,-256.5 1.03,-332.5 261.03,-332.5 261.03,-256.5 1.03,-256.5"/>
<text text-anchor="start" x="9.03" y="-318.9" font-family="Helvetica,sans-Serif" font-size="12.00">std::map&lt; NodeStorageType,</text>
<text text-anchor="middle" x="131.03" y="-305.9" font-family="Helvetica,sans-Serif" font-size="12.00"> Markov::Node&lt; NodeStorageType &gt; * &gt;</text>
<polyline fill="none" stroke="#bfbfbf" points="1.03,-298.5 261.03,-298.5 "/>
<text text-anchor="middle" x="131.03" y="-284.9" font-family="Helvetica,sans-Serif" font-size="12.00"> </text>
<polyline fill="none" stroke="#bfbfbf" points="1.03,-277.5 261.03,-277.5 "/>
<text text-anchor="middle" x="131.03" y="-263.9" font-family="Helvetica,sans-Serif" font-size="12.00"> </text>
</a>
</g>
</g>
<!-- Node2&#45;&gt;Node8 -->
<g id="edge10" class="edge">
<title>Node2&#45;&gt;Node8</title>
<path fill="none" stroke="#404040" d="M177.25,-382.39C169.95,-368.66 162.8,-355.22 156.39,-343.18"/>
<polygon fill="none" stroke="#404040" points="156.37,-343.13 150.02,-339.71 150.73,-332.53 157.08,-335.95 156.37,-343.13"/>
<text text-anchor="middle" x="199.03" y="-354.4" font-family="Helvetica,sans-Serif" font-size="12.00"> +elements</text>
</g>
<!-- Node3 -->
<g id="node3" class="node">
<title>Node3</title>
<g id="a_node3"><a xlink:title=" ">
<polygon fill="none" stroke="#bfbfbf" points="34.03,-658 34.03,-721 66.03,-721 66.03,-658 34.03,-658"/>
<text text-anchor="middle" x="50.03" y="-707.4" font-family="Helvetica,sans-Serif" font-size="12.00">int</text>
<polyline fill="none" stroke="#bfbfbf" points="34.03,-700 66.03,-700 "/>
<text text-anchor="middle" x="50.03" y="-686.4" font-family="Helvetica,sans-Serif" font-size="12.00"> </text>
<polyline fill="none" stroke="#bfbfbf" points="34.03,-679 66.03,-679 "/>
<text text-anchor="middle" x="50.03" y="-665.4" font-family="Helvetica,sans-Serif" font-size="12.00"> </text>
</a>
</g>
</g>
<!-- Node3&#45;&gt;Node2 -->
<g id="edge2" class="edge">
<title>Node3&#45;&gt;Node2</title>
<path fill="none" stroke="#404040" d="M44.6,-657.99C43.83,-645.55 44.92,-631.43 51.03,-620 68.37,-587.55 98.09,-561.72 128.65,-542.05"/>
<polygon fill="none" stroke="#404040" points="128.83,-541.94 131.82,-535.38 139.03,-535.62 136.04,-542.18 128.83,-541.94"/>
<text text-anchor="middle" x="113.03" y="-623.4" font-family="Helvetica,sans-Serif" font-size="12.00"> &#45;total_edge_weights</text>
</g>
<!-- Node4 -->
<g id="node4" class="node">
<title>Node4</title>
<g id="a_node4"><a xlink:title=" ">
<polygon fill="none" stroke="#bfbfbf" points="83.53,-777.5 83.53,-840.5 206.53,-840.5 206.53,-777.5 83.53,-777.5"/>
<text text-anchor="middle" x="145.03" y="-826.9" font-family="Helvetica,sans-Serif" font-size="12.00">NodeStorageType</text>
<polyline fill="none" stroke="#bfbfbf" points="83.53,-819.5 206.53,-819.5 "/>
<text text-anchor="middle" x="145.03" y="-805.9" font-family="Helvetica,sans-Serif" font-size="12.00"> </text>
<polyline fill="none" stroke="#bfbfbf" points="83.53,-798.5 206.53,-798.5 "/>
<text text-anchor="middle" x="145.03" y="-784.9" font-family="Helvetica,sans-Serif" font-size="12.00"> </text>
</a>
</g>
</g>
<!-- Node4&#45;&gt;Node2 -->
<g id="edge3" class="edge">
<title>Node4&#45;&gt;Node2</title>
<path fill="none" stroke="#404040" d="M140.42,-777.36C136.9,-744.41 135.52,-691.32 155.03,-651 160.24,-640.24 168.07,-642.72 175.03,-633 179.69,-626.5 184.08,-619.58 188.2,-612.44"/>
<polygon fill="none" stroke="#404040" points="188.26,-612.33 187.66,-605.15 194.06,-601.83 194.66,-609.01 188.26,-612.33"/>
<text text-anchor="middle" x="178.53" y="-686.4" font-family="Helvetica,sans-Serif" font-size="12.00"> &#45;_value</text>
</g>
<!-- Node5 -->
<g id="node5" class="node">
<title>Node5</title>
<g id="a_node5"><a xlink:title=" ">
<polygon fill="none" stroke="#bfbfbf" points="210.53,-651.5 210.53,-727.5 469.53,-727.5 469.53,-651.5 210.53,-651.5"/>
<text text-anchor="start" x="218.53" y="-713.9" font-family="Helvetica,sans-Serif" font-size="12.00">std::map&lt; NodeStorageType,</text>
<text text-anchor="middle" x="340.03" y="-700.9" font-family="Helvetica,sans-Serif" font-size="12.00"> Markov::Edge&lt; NodeStorageType &gt; * &gt;</text>
<polyline fill="none" stroke="#bfbfbf" points="210.53,-693.5 469.53,-693.5 "/>
<text text-anchor="middle" x="340.03" y="-679.9" font-family="Helvetica,sans-Serif" font-size="12.00"> </text>
<polyline fill="none" stroke="#bfbfbf" points="210.53,-672.5 469.53,-672.5 "/>
<text text-anchor="middle" x="340.03" y="-658.9" font-family="Helvetica,sans-Serif" font-size="12.00"> </text>
</a>
</g>
</g>
<!-- Node4&#45;&gt;Node5 -->
<g id="edge6" class="edge">
<title>Node4&#45;&gt;Node5</title>
<path fill="none" stroke="#404040" d="M195.76,-777.43C217.78,-764.17 243.97,-748.39 267.95,-733.93"/>
<polygon fill="none" stroke="#404040" points="268.15,-733.81 271.23,-727.29 278.43,-727.62 275.36,-734.14 268.15,-733.81"/>
<text text-anchor="middle" x="262.53" y="-749.4" font-family="Helvetica,sans-Serif" font-size="12.00"> +keys</text>
</g>
<!-- Node4&#45;&gt;Node8 -->
<g id="edge11" class="edge">
<title>Node4&#45;&gt;Node8</title>
<path fill="none" stroke="#404040" d="M83.51,-779.08C62.12,-766.21 39.81,-749.14 25.03,-728 0.14,-692.4 7.18,-676.14 2.03,-633 -10.96,-524.14 53.91,-406.62 96.39,-343"/>
<polygon fill="none" stroke="#404040" points="96.51,-342.81 96.57,-335.6 103.25,-332.88 103.19,-340.09 96.51,-342.81"/>
<text text-anchor="middle" x="22.53" y="-623.4" font-family="Helvetica,sans-Serif" font-size="12.00"> +keys</text>
</g>
<!-- Node5&#45;&gt;Node2 -->
<g id="edge4" class="edge">
<title>Node5&#45;&gt;Node2</title>
<path fill="none" stroke="#404040" d="M320.03,-651.27C313.87,-639.79 306.72,-626.48 299.24,-612.55"/>
<polygon fill="none" stroke="#404040" points="299.14,-612.36 292.77,-608.97 293.46,-601.79 299.82,-605.18 299.14,-612.36"/>
<text text-anchor="middle" x="330.53" y="-623.4" font-family="Helvetica,sans-Serif" font-size="12.00"> &#45;edges</text>
</g>
<!-- Node6 -->
<g id="node6" class="node">
<title>Node6</title>
<g id="a_node6"><a xlink:title=" ">
<polygon fill="none" stroke="#bfbfbf" points="331.03,-777.5 331.03,-840.5 521.03,-840.5 521.03,-777.5 331.03,-777.5"/>
<text text-anchor="middle" x="426.03" y="-826.9" font-family="Helvetica,sans-Serif" font-size="12.00">Edge&lt; NodeStorageType &gt; *</text>
<polyline fill="none" stroke="#bfbfbf" points="331.03,-819.5 521.03,-819.5 "/>
<text text-anchor="middle" x="426.03" y="-805.9" font-family="Helvetica,sans-Serif" font-size="12.00"> </text>
<polyline fill="none" stroke="#bfbfbf" points="331.03,-798.5 521.03,-798.5 "/>
<text text-anchor="middle" x="426.03" y="-784.9" font-family="Helvetica,sans-Serif" font-size="12.00"> </text>
</a>
</g>
</g>
<!-- Node6&#45;&gt;Node5 -->
<g id="edge5" class="edge">
<title>Node6&#45;&gt;Node5</title>
<path fill="none" stroke="#404040" d="M403.66,-777.43C394.78,-765.3 384.35,-751.06 374.54,-737.65"/>
<polygon fill="none" stroke="#404040" points="374.29,-737.3 367.51,-734.82 367.2,-727.62 373.97,-730.1 374.29,-737.3"/>
<text text-anchor="middle" x="423.03" y="-749.4" font-family="Helvetica,sans-Serif" font-size="12.00"> +elements</text>
</g>
<!-- Node7 -->
<g id="node7" class="node">
<title>Node7</title>
<g id="a_node7"><a xlink:title=" ">
<polygon fill="none" stroke="#bfbfbf" points="487.53,-651.5 487.53,-727.5 698.53,-727.5 698.53,-651.5 487.53,-651.5"/>
<text text-anchor="start" x="495.53" y="-713.9" font-family="Helvetica,sans-Serif" font-size="12.00">std::vector&lt; Markov</text>
<text text-anchor="middle" x="593.03" y="-700.9" font-family="Helvetica,sans-Serif" font-size="12.00">::Edge&lt; NodeStorageType &gt; * &gt;</text>
<polyline fill="none" stroke="#bfbfbf" points="487.53,-693.5 698.53,-693.5 "/>
<text text-anchor="middle" x="593.03" y="-679.9" font-family="Helvetica,sans-Serif" font-size="12.00"> </text>
<polyline fill="none" stroke="#bfbfbf" points="487.53,-672.5 698.53,-672.5 "/>
<text text-anchor="middle" x="593.03" y="-658.9" font-family="Helvetica,sans-Serif" font-size="12.00"> </text>
</a>
</g>
</g>
<!-- Node6&#45;&gt;Node7 -->
<g id="edge8" class="edge">
<title>Node6&#45;&gt;Node7</title>
<path fill="none" stroke="#404040" d="M469.47,-777.43C487.99,-764.4 509.96,-748.95 530.19,-734.71"/>
<polygon fill="none" stroke="#404040" points="530.46,-734.52 533.07,-727.8 540.28,-727.62 537.67,-734.34 530.46,-734.52"/>
<text text-anchor="middle" x="544.03" y="-749.4" font-family="Helvetica,sans-Serif" font-size="12.00"> +elements</text>
</g>
<!-- Node7&#45;&gt;Node1 -->
<g id="edge12" class="edge">
<title>Node7&#45;&gt;Node1</title>
<path fill="none" stroke="#404040" d="M574.06,-651.08C530.53,-565.19 422.01,-351.09 354.44,-217.77"/>
<polygon fill="none" stroke="#404040" points="354.27,-217.42 347.99,-213.88 348.84,-206.72 355.12,-210.26 354.27,-217.42"/>
<text text-anchor="middle" x="449.53" y="-354.4" font-family="Helvetica,sans-Serif" font-size="12.00"> &#45;edges</text>
</g>
<!-- Node7&#45;&gt;Node2 -->
<g id="edge7" class="edge">
<title>Node7&#45;&gt;Node2</title>
<path fill="none" stroke="#404040" d="M514.39,-651.49C502.15,-645.46 489.69,-639.16 478.03,-633 432.79,-609.09 383.74,-581.22 341.64,-556.67"/>
<polygon fill="none" stroke="#404040" points="341.45,-556.56 334.25,-556.98 331.09,-550.5 338.29,-550.08 341.45,-556.56"/>
<text text-anchor="middle" x="507.03" y="-623.4" font-family="Helvetica,sans-Serif" font-size="12.00"> +edgesV</text>
</g>
<!-- Node8&#45;&gt;Node1 -->
<g id="edge9" class="edge">
<title>Node8&#45;&gt;Node1</title>
<path fill="none" stroke="#404040" d="M163.83,-256.16C174.31,-244.22 186.51,-230.33 199.18,-215.9"/>
<polygon fill="none" stroke="#404040" points="199.21,-215.88 200.16,-208.73 207.13,-206.86 206.17,-214.01 199.21,-215.88"/>
<text text-anchor="middle" x="211.53" y="-228.4" font-family="Helvetica,sans-Serif" font-size="12.00"> &#45;nodes</text>
</g>
</g>
</svg>
        <g id="navigator" transform="translate(0 0)" fill="#404254">
                <rect fill="#f2f5e9" fill-opacity="0.5" stroke="#606060" stroke-width=".5" x="0" y="0" width="60" height="60"/>
                <use id="zoomplus" xlink:href="#zoomPlus" x="17" y="9" onmousedown="handleZoom(evt,'in')"/>
                <use id="zoomminus" xlink:href="#zoomMin" x="42" y="9" onmousedown="handleZoom(evt,'out')"/>
                <use id="reset" xlink:href="#resetDef" x="30" y="36" onmousedown="handleReset()"/>
                <g id="arrowUp" xlink:href="#dirArrow" transform="translate(30 24)" onmousedown="handlePan(0,-1)">
                  <use xlink:href="#rim" fill="#404040">
                        <set attributeName="fill" to="#808080" begin="arrowUp.mouseover" end="arrowUp.mouseout"/>
                  </use>
                  <path fill="none" stroke="white" stroke-width="1.5" d="M0,-3.0v7 M-2.5,-0.5L0,-3.0L2.5,-0.5"/>
                </g>
                <g id="arrowRight" xlink:href="#dirArrow" transform="rotate(90) translate(36 -43)" onmousedown="handlePan(1,0)">
                  <use xlink:href="#rim" fill="#404040">
                        <set attributeName="fill" to="#808080" begin="arrowRight.mouseover" end="arrowRight.mouseout"/>
                  </use>
                  <path fill="none" stroke="white" stroke-width="1.5" d="M0,-3.0v7 M-2.5,-0.5L0,-3.0L2.5,-0.5"/>
                </g>
                <g id="arrowDown" xlink:href="#dirArrow" transform="rotate(180) translate(-30 -48)" onmousedown="handlePan(0,1)">
                  <use xlink:href="#rim" fill="#404040">
                        <set attributeName="fill" to="#808080" begin="arrowDown.mouseover" end="arrowDown.mouseout"/>
                  </use>
                  <path fill="none" stroke="white" stroke-width="1.5" d="M0,-3.0v7 M-2.5,-0.5L0,-3.0L2.5,-0.5"/>
                </g>
                <g id="arrowLeft" xlink:href="#dirArrow" transform="rotate(270) translate(-36 17)" onmousedown="handlePan(-1,0)">
                  <use xlink:href="#rim" fill="#404040">
                        <set attributeName="fill" to="#808080" begin="arrowLeft.mouseover" end="arrowLeft.mouseout"/>
                  </use>
                  <path fill="none" stroke="white" stroke-width="1.5" d="M0,-3.0v7 M-2.5,-0.5L0,-3.0L2.5,-0.5"/>
                </g>
        </g>
        <svg viewBox="0 0 15 15" width="100%" height="30px" preserveAspectRatio="xMaxYMin meet">
         <g id="arrow_out" transform="scale(0.3 0.3)">
          <a xlink:href="class_markov_1_1_model__coll__graph_org.svg" target="_base">
           <rect id="button" ry="5" rx="5" y="6" x="6" height="38" width="38"
                fill="#f2f5e9" fill-opacity="0.5" stroke="#606060" stroke-width="1.0"/>
           <path id="arrow"
             d="M 11.500037,31.436501 C 11.940474,20.09759 22.043105,11.32322 32.158766,21.979434 L 37.068811,17.246167 C 37.068811,17.246167 37.088388,32 37.088388,32 L 22.160133,31.978069 C 22.160133,31.978069 26.997745,27.140456 26.997745,27.140456 C 18.528582,18.264221 13.291696,25.230495 11.500037,31.436501 z"
             style="fill:#404040;"/>
          </a>
         </g>
        </svg>
</svg>
