<?xml version="1.0" encoding="UTF-8" standalone="no"?>
<!DOCTYPE svg PUBLIC "-//W3C//DTD SVG 1.1//EN"
 "http://www.w3.org/Graphics/SVG/1.1/DTD/svg11.dtd">
<!-- Generated by graphviz version 2.43.0 (0)
 -->
<!-- Title: Markov::API::CLI::Argparse Pages: 1 -->
<!--zoomable 542 -->
<svg id="main" version="1.1" xmlns="http://www.w3.org/2000/svg" xmlns:xlink="http://www.w3.org/1999/xlink" xml:space="preserve" onload="init(evt)">
<style type="text/css"><![CDATA[
.edge:hover path { stroke: red; }
.edge:hover polygon { stroke: red; fill: red; }
]]></style>
<script type="text/javascript"><![CDATA[
var edges = document.getElementsByTagName('g');
if (edges && edges.length) {
  for (var i=0;i<edges.length;i++) {
    if (edges[i].id.substr(0,4)=='edge') {
      edges[i].setAttribute('class','edge');
    }
  }
}
]]></script>
        <defs>
                <circle id="rim" cx="0" cy="0" r="7"/>
                <circle id="rim2" cx="0" cy="0" r="3.5"/>
                <g id="zoomPlus">
                        <use xlink:href="#rim" fill="#404040">
                                <set attributeName="fill" to="#808080" begin="zoomplus.mouseover" end="zoomplus.mouseout"/>
                        </use>
                        <path d="M-4,0h8M0,-4v8" fill="none" stroke="white" stroke-width="1.5" pointer-events="none"/>
                </g>
                <g id="zoomMin">
                        <use xlink:href="#rim" fill="#404040">
                                <set attributeName="fill" to="#808080" begin="zoomminus.mouseover" end="zoomminus.mouseout"/>
                        </use>
                        <path d="M-4,0h8" fill="none" stroke="white" stroke-width="1.5" pointer-events="none"/>
                </g>
                <g id="dirArrow">
                        <path fill="none" stroke="white" stroke-width="1.5" d="M0,-3.0v7 M-2.5,-0.5L0,-3.0L2.5,-0.5"/>
                </g>
               <g id="resetDef">
                       <use xlink:href="#rim2" fill="#404040">
                               <set attributeName="fill" to="#808080" begin="reset.mouseover" end="reset.mouseout"/>
                       </use>
               </g>
        </defs>

<script type="text/javascript">
var viewWidth = 412;
var viewHeight = 542;
var sectionId = 'dynsection-0';
</script>
<script xlink:href="svgpan.js"/>
<svg id="graph" class="graph">
<g id="viewport">
<title>Markov::API::CLI::Argparse</title>
<!-- Node1 -->
<g id="node1" class="node">
<title>Node1</title>
<g id="a_node1"><a xlink:title="Parse command line arguements.">
<polygon fill="#bfbfbf" stroke="black" points="80,-0.5 80,-128.5 256,-128.5 256,-0.5 80,-0.5"/>
<text text-anchor="middle" x="168" y="-114.9" font-family="Helvetica,sans-Serif" font-size="12.00">Markov::API::CLI::Argparse</text>
<polyline fill="none" stroke="black" points="80,-107.5 256,-107.5 "/>
<text text-anchor="middle" x="168" y="-93.9" font-family="Helvetica,sans-Serif" font-size="12.00"> </text>
<polyline fill="none" stroke="black" points="80,-86.5 256,-86.5 "/>
<text text-anchor="start" x="88" y="-72.9" font-family="Helvetica,sans-Serif" font-size="12.00">+ Argparse()</text>
<text text-anchor="start" x="88" y="-59.9" font-family="Helvetica,sans-Serif" font-size="12.00">+ Argparse()</text>
<text text-anchor="start" x="88" y="-46.9" font-family="Helvetica,sans-Serif" font-size="12.00">+ getProgramOptions()</text>
<text text-anchor="start" x="88" y="-33.9" font-family="Helvetica,sans-Serif" font-size="12.00">+ setProgramOptions()</text>
<text text-anchor="start" x="88" y="-20.9" font-family="Helvetica,sans-Serif" font-size="12.00">+ parse()</text>
<text text-anchor="start" x="88" y="-7.9" font-family="Helvetica,sans-Serif" font-size="12.00">+ help()</text>
</a>
</g>
</g>
<!-- Node2 -->
<g id="node2" class="node">
<title>Node2</title>
<g id="a_node2"><a xlink:href="struct_markov_1_1_a_p_i_1_1_c_l_i_1_1__program_options.html" target="_top" xlink:title="Structure to hold parsed cli arguements.">
<polygon fill="none" stroke="black" points="107,-178.5 107,-254.5 229,-254.5 229,-178.5 107,-178.5"/>
<text text-anchor="start" x="115" y="-240.9" font-family="Helvetica,sans-Serif" font-size="12.00">Markov::API::CLI::</text>
<text text-anchor="middle" x="168" y="-227.9" font-family="Helvetica,sans-Serif" font-size="12.00">_programOptions</text>
<polyline fill="none" stroke="black" points="107,-220.5 229,-220.5 "/>
<text text-anchor="middle" x="168" y="-206.9" font-family="Helvetica,sans-Serif" font-size="12.00"> </text>
<polyline fill="none" stroke="black" points="107,-199.5 229,-199.5 "/>
<text text-anchor="middle" x="168" y="-185.9" font-family="Helvetica,sans-Serif" font-size="12.00"> </text>
</a>
</g>
</g>
<!-- Node2&#45;&gt;Node1 -->
<g id="edge1" class="edge">
<title>Node2&#45;&gt;Node1</title>
<path fill="none" stroke="#404040" d="M168,-178.42C168,-167.05 168,-154.09 168,-141.12"/>
<polygon fill="none" stroke="#404040" points="168,-140.72 164,-134.72 168,-128.72 172,-134.72 168,-140.72"/>
<text text-anchor="middle" x="180" y="-150.4" font-family="Helvetica,sans-Serif" font-size="12.00"> &#45;po</text>
</g>
<!-- Node3 -->
<g id="node3" class="node">
<title>Node3</title>
<g id="a_node3"><a xlink:href="classchar.html" target="_top" xlink:title=" ">
<polygon fill="none" stroke="black" points="0,-356.5 0,-419.5 44,-419.5 44,-356.5 0,-356.5"/>
<text text-anchor="middle" x="22" y="-405.9" font-family="Helvetica,sans-Serif" font-size="12.00">char</text>
<polyline fill="none" stroke="black" points="0,-398.5 44,-398.5 "/>
<text text-anchor="middle" x="22" y="-384.9" font-family="Helvetica,sans-Serif" font-size="12.00"> </text>
<polyline fill="none" stroke="black" points="0,-377.5 44,-377.5 "/>
<text text-anchor="middle" x="22" y="-363.9" font-family="Helvetica,sans-Serif" font-size="12.00"> </text>
</a>
</g>
</g>
<!-- Node3&#45;&gt;Node2 -->
<g id="edge2" class="edge">
<title>Node3&#45;&gt;Node2</title>
<path fill="none" stroke="#404040" d="M17.24,-356.35C15.1,-331.48 16.26,-296.76 34,-273 48.89,-253.07 72.25,-240.25 95.32,-232.03"/>
<polygon fill="none" stroke="#404040" points="95.53,-231.96 100,-226.3 106.94,-228.25 102.48,-233.91 95.53,-231.96"/>
<text text-anchor="middle" x="70.5" y="-302.4" font-family="Helvetica,sans-Serif" font-size="12.00"> +seperator</text>
</g>
<!-- Node4 -->
<g id="node4" class="node">
<title>Node4</title>
<g id="a_node4"><a xlink:title=" ">
<polygon fill="none" stroke="#bfbfbf" points="102,-356.5 102,-419.5 134,-419.5 134,-356.5 102,-356.5"/>
<text text-anchor="middle" x="118" y="-405.9" font-family="Helvetica,sans-Serif" font-size="12.00">int</text>
<polyline fill="none" stroke="#bfbfbf" points="102,-398.5 134,-398.5 "/>
<text text-anchor="middle" x="118" y="-384.9" font-family="Helvetica,sans-Serif" font-size="12.00"> </text>
<polyline fill="none" stroke="#bfbfbf" points="102,-377.5 134,-377.5 "/>
<text text-anchor="middle" x="118" y="-363.9" font-family="Helvetica,sans-Serif" font-size="12.00"> </text>
</a>
</g>
</g>
<!-- Node4&#45;&gt;Node2 -->
<g id="edge3" class="edge">
<title>Node4&#45;&gt;Node2</title>
<path fill="none" stroke="#404040" d="M112.61,-356.4C109.77,-332.81 108.73,-299.8 119,-273 120.05,-270.27 121.3,-267.58 122.7,-264.95"/>
<polygon fill="none" stroke="#404040" points="122.87,-264.69 122.68,-257.48 129.26,-254.53 129.45,-261.74 122.87,-264.69"/>
<text text-anchor="middle" x="158" y="-302.4" font-family="Helvetica,sans-Serif" font-size="12.00"> +generateN</text>
</g>
<!-- Node5 -->
<g id="node5" class="node">
<title>Node5</title>
<g id="a_node5"><a xlink:title="STL class.">
<polygon fill="none" stroke="#bfbfbf" points="181,-356.5 181,-419.5 257,-419.5 257,-356.5 181,-356.5"/>
<text text-anchor="middle" x="219" y="-405.9" font-family="Helvetica,sans-Serif" font-size="12.00">std::string</text>
<polyline fill="none" stroke="#bfbfbf" points="181,-398.5 257,-398.5 "/>
<text text-anchor="middle" x="219" y="-384.9" font-family="Helvetica,sans-Serif" font-size="12.00"> </text>
<polyline fill="none" stroke="#bfbfbf" points="181,-377.5 257,-377.5 "/>
<text text-anchor="middle" x="219" y="-363.9" font-family="Helvetica,sans-Serif" font-size="12.00"> </text>
</a>
</g>
</g>
<!-- Node5&#45;&gt;Node2 -->
<g id="edge4" class="edge">
<title>Node5&#45;&gt;Node2</title>
<path fill="none" stroke="#404040" d="M215.55,-356.37C212.34,-333.05 206.57,-300.4 197,-273 196.17,-270.63 195.26,-268.25 194.28,-265.86"/>
<polygon fill="none" stroke="#404040" points="194.22,-265.72 188.12,-261.87 189.33,-254.76 195.43,-258.61 194.22,-265.72"/>
<text text-anchor="middle" x="264" y="-328.4" font-family="Helvetica,sans-Serif" font-size="12.00"> +importname</text>
<text text-anchor="middle" x="264" y="-315.4" font-family="Helvetica,sans-Serif" font-size="12.00">+outputfilename</text>
<text text-anchor="middle" x="264" y="-302.4" font-family="Helvetica,sans-Serif" font-size="12.00">+exportname</text>
<text text-anchor="middle" x="264" y="-289.4" font-family="Helvetica,sans-Serif" font-size="12.00">+datasetname</text>
<text text-anchor="middle" x="264" y="-276.4" font-family="Helvetica,sans-Serif" font-size="12.00">+wordlistname</text>
</g>
<!-- Node6 -->
<g id="node6" class="node">
<title>Node6</title>
<g id="a_node6"><a xlink:title="STL class.">
<polygon fill="none" stroke="#bfbfbf" points="158,-457.5 158,-533.5 280,-533.5 280,-457.5 158,-457.5"/>
<text text-anchor="start" x="166" y="-519.9" font-family="Helvetica,sans-Serif" font-size="12.00">std::basic_string&lt;</text>
<text text-anchor="middle" x="219" y="-506.9" font-family="Helvetica,sans-Serif" font-size="12.00"> char &gt;</text>
<polyline fill="none" stroke="#bfbfbf" points="158,-499.5 280,-499.5 "/>
<text text-anchor="middle" x="219" y="-485.9" font-family="Helvetica,sans-Serif" font-size="12.00"> </text>
<polyline fill="none" stroke="#bfbfbf" points="158,-478.5 280,-478.5 "/>
<text text-anchor="middle" x="219" y="-464.9" font-family="Helvetica,sans-Serif" font-size="12.00"> </text>
</a>
</g>
</g>
<!-- Node6&#45;&gt;Node5 -->
<g id="edge5" class="edge">
<title>Node6&#45;&gt;Node5</title>
<path fill="none" stroke="midnightblue" d="M219,-447.26C219,-437.87 219,-428.25 219,-419.59"/>
<polygon fill="none" stroke="midnightblue" points="215.5,-447.3 219,-457.3 222.5,-447.3 215.5,-447.3"/>
</g>
<!-- Node7 -->
<g id="node7" class="node">
<title>Node7</title>
<g id="a_node7"><a xlink:title=" ">
<polygon fill="none" stroke="#bfbfbf" points="323,-356.5 323,-419.5 365,-419.5 365,-356.5 323,-356.5"/>
<text text-anchor="middle" x="344" y="-405.9" font-family="Helvetica,sans-Serif" font-size="12.00">bool</text>
<polyline fill="none" stroke="#bfbfbf" points="323,-398.5 365,-398.5 "/>
<text text-anchor="middle" x="344" y="-384.9" font-family="Helvetica,sans-Serif" font-size="12.00"> </text>
<polyline fill="none" stroke="#bfbfbf" points="323,-377.5 365,-377.5 "/>
<text text-anchor="middle" x="344" y="-363.9" font-family="Helvetica,sans-Serif" font-size="12.00"> </text>
</a>
</g>
</g>
<!-- Node7&#45;&gt;Node2 -->
<g id="edge6" class="edge">
<title>Node7&#45;&gt;Node2</title>
<path fill="none" stroke="#404040" d="M344.97,-356.33C344.13,-331.11 338.98,-295.91 319,-273 299.16,-250.25 269.17,-236.82 241.12,-228.89"/>
<polygon fill="none" stroke="#404040" points="240.88,-228.83 234.06,-231.2 229.26,-225.82 236.07,-223.45 240.88,-228.83"/>
<text text-anchor="middle" x="373.5" y="-315.4" font-family="Helvetica,sans-Serif" font-size="12.00"> +bExport</text>
<text text-anchor="middle" x="373.5" y="-302.4" font-family="Helvetica,sans-Serif" font-size="12.00">+bImport</text>
<text text-anchor="middle" x="373.5" y="-289.4" font-family="Helvetica,sans-Serif" font-size="12.00">+bFailure</text>
</g>
</g>
</svg>
        <g id="navigator" transform="translate(0 0)" fill="#404254">
                <rect fill="#f2f5e9" fill-opacity="0.5" stroke="#606060" stroke-width=".5" x="0" y="0" width="60" height="60"/>
                <use id="zoomplus" xlink:href="#zoomPlus" x="17" y="9" onmousedown="handleZoom(evt,'in')"/>
                <use id="zoomminus" xlink:href="#zoomMin" x="42" y="9" onmousedown="handleZoom(evt,'out')"/>
                <use id="reset" xlink:href="#resetDef" x="30" y="36" onmousedown="handleReset()"/>
                <g id="arrowUp" xlink:href="#dirArrow" transform="translate(30 24)" onmousedown="handlePan(0,-1)">
                  <use xlink:href="#rim" fill="#404040">
                        <set attributeName="fill" to="#808080" begin="arrowUp.mouseover" end="arrowUp.mouseout"/>
                  </use>
                  <path fill="none" stroke="white" stroke-width="1.5" d="M0,-3.0v7 M-2.5,-0.5L0,-3.0L2.5,-0.5"/>
                </g>
                <g id="arrowRight" xlink:href="#dirArrow" transform="rotate(90) translate(36 -43)" onmousedown="handlePan(1,0)">
                  <use xlink:href="#rim" fill="#404040">
                        <set attributeName="fill" to="#808080" begin="arrowRight.mouseover" end="arrowRight.mouseout"/>
                  </use>
                  <path fill="none" stroke="white" stroke-width="1.5" d="M0,-3.0v7 M-2.5,-0.5L0,-3.0L2.5,-0.5"/>
                </g>
                <g id="arrowDown" xlink:href="#dirArrow" transform="rotate(180) translate(-30 -48)" onmousedown="handlePan(0,1)">
                  <use xlink:href="#rim" fill="#404040">
                        <set attributeName="fill" to="#808080" begin="arrowDown.mouseover" end="arrowDown.mouseout"/>
                  </use>
                  <path fill="none" stroke="white" stroke-width="1.5" d="M0,-3.0v7 M-2.5,-0.5L0,-3.0L2.5,-0.5"/>
                </g>
                <g id="arrowLeft" xlink:href="#dirArrow" transform="rotate(270) translate(-36 17)" onmousedown="handlePan(-1,0)">
                  <use xlink:href="#rim" fill="#404040">
                        <set attributeName="fill" to="#808080" begin="arrowLeft.mouseover" end="arrowLeft.mouseout"/>
                  </use>
                  <path fill="none" stroke="white" stroke-width="1.5" d="M0,-3.0v7 M-2.5,-0.5L0,-3.0L2.5,-0.5"/>
                </g>
        </g>
        <svg viewBox="0 0 15 15" width="100%" height="30px" preserveAspectRatio="xMaxYMin meet">
         <g id="arrow_out" transform="scale(0.3 0.3)">
          <a xlink:href="class_markov_1_1_a_p_i_1_1_c_l_i_1_1_argparse__coll__graph_org.svg" target="_base">
           <rect id="button" ry="5" rx="5" y="6" x="6" height="38" width="38"
                fill="#f2f5e9" fill-opacity="0.5" stroke="#606060" stroke-width="1.0"/>
           <path id="arrow"
             d="M 11.500037,31.436501 C 11.940474,20.09759 22.043105,11.32322 32.158766,21.979434 L 37.068811,17.246167 C 37.068811,17.246167 37.088388,32 37.088388,32 L 22.160133,31.978069 C 22.160133,31.978069 26.997745,27.140456 26.997745,27.140456 C 18.528582,18.264221 13.291696,25.230495 11.500037,31.436501 z"
             style="fill:#404040;"/>
          </a>
         </g>
        </svg>
</svg>
