<?xml version="1.0" encoding="UTF-8" standalone="no"?>
<!DOCTYPE svg PUBLIC "-//W3C//DTD SVG 1.1//EN"
 "http://www.w3.org/Graphics/SVG/1.1/DTD/svg11.dtd">
<!-- Generated by graphviz version 2.43.0 (0)
 -->
<!-- Title: Python.Markopy.ModelMatrix Pages: 1 -->
<!--zoomable 2346 -->
<svg id="main" version="1.1" xmlns="http://www.w3.org/2000/svg" xmlns:xlink="http://www.w3.org/1999/xlink" xml:space="preserve" onload="init(evt)">
<style type="text/css"><![CDATA[
.edge:hover path { stroke: red; }
.edge:hover polygon { stroke: red; fill: red; }
]]></style>
<script type="text/javascript"><![CDATA[
var edges = document.getElementsByTagName('g');
if (edges && edges.length) {
  for (var i=0;i<edges.length;i++) {
    if (edges[i].id.substr(0,4)=='edge') {
      edges[i].setAttribute('class','edge');
    }
  }
}
]]></script>
        <defs>
                <circle id="rim" cx="0" cy="0" r="7"/>
                <circle id="rim2" cx="0" cy="0" r="3.5"/>
                <g id="zoomPlus">
                        <use xlink:href="#rim" fill="#404040">
                                <set attributeName="fill" to="#808080" begin="zoomplus.mouseover" end="zoomplus.mouseout"/>
                        </use>
                        <path d="M-4,0h8M0,-4v8" fill="none" stroke="white" stroke-width="1.5" pointer-events="none"/>
                </g>
                <g id="zoomMin">
                        <use xlink:href="#rim" fill="#404040">
                                <set attributeName="fill" to="#808080" begin="zoomminus.mouseover" end="zoomminus.mouseout"/>
                        </use>
                        <path d="M-4,0h8" fill="none" stroke="white" stroke-width="1.5" pointer-events="none"/>
                </g>
                <g id="dirArrow">
                        <path fill="none" stroke="white" stroke-width="1.5" d="M0,-3.0v7 M-2.5,-0.5L0,-3.0L2.5,-0.5"/>
                </g>
               <g id="resetDef">
                       <use xlink:href="#rim2" fill="#404040">
                               <set attributeName="fill" to="#808080" begin="reset.mouseover" end="reset.mouseout"/>
                       </use>
               </g>
        </defs>

<script type="text/javascript">
var viewWidth = 1242;
var viewHeight = 2346;
var sectionId = 'dynsection-1';
</script>
<script xlink:href="svgpan.js"/>
<svg id="graph" class="graph">
<g id="viewport">
<title>Python.Markopy.ModelMatrix</title>
<!-- Node1 -->
<g id="node1" class="node">
<title>Node1</title>
<g id="a_node1"><a xlink:title="Abstract representation of a matrix based model.">
<polygon fill="#bfbfbf" stroke="black" points="951.5,-0.5 951.5,-89.5 1140.5,-89.5 1140.5,-0.5 951.5,-0.5"/>
<text text-anchor="middle" x="1046" y="-75.9" font-family="Helvetica,sans-Serif" font-size="12.00">Python.Markopy.ModelMatrix</text>
<polyline fill="none" stroke="black" points="951.5,-68.5 1140.5,-68.5 "/>
<text text-anchor="middle" x="1046" y="-54.9" font-family="Helvetica,sans-Serif" font-size="12.00"> </text>
<polyline fill="none" stroke="black" points="951.5,-47.5 1140.5,-47.5 "/>
<text text-anchor="start" x="959.5" y="-33.9" font-family="Helvetica,sans-Serif" font-size="12.00">+ def FastRandomWalk</text>
<text text-anchor="start" x="959.5" y="-20.9" font-family="Helvetica,sans-Serif" font-size="12.00">(int count, str wordlist,</text>
<text text-anchor="start" x="959.5" y="-7.9" font-family="Helvetica,sans-Serif" font-size="12.00"> int minlen, int maxlen)</text>
</a>
</g>
</g>
<!-- Node2 -->
<g id="node2" class="node">
<title>Node2</title>
<g id="a_node2"><a xlink:href="class_markov_1_1_a_p_i_1_1_model_matrix.html" target="_top" xlink:title="Class to flatten and reduce Markov::Model to a Matrix.">
<polygon fill="none" stroke="black" points="919,-127.5 919,-567.5 1173,-567.5 1173,-127.5 919,-127.5"/>
<text text-anchor="middle" x="1046" y="-553.9" font-family="Helvetica,sans-Serif" font-size="12.00">Markov::API::ModelMatrix</text>
<polyline fill="none" stroke="black" points="919,-546.5 1173,-546.5 "/>
<text text-anchor="middle" x="1046" y="-532.9" font-family="Helvetica,sans-Serif" font-size="12.00"> </text>
<polyline fill="none" stroke="black" points="919,-525.5 1173,-525.5 "/>
<text text-anchor="start" x="927" y="-511.9" font-family="Helvetica,sans-Serif" font-size="12.00">+ ModelMatrix()</text>
<text text-anchor="start" x="927" y="-498.9" font-family="Helvetica,sans-Serif" font-size="12.00">+ bool ConstructMatrix()</text>
<text text-anchor="start" x="927" y="-485.9" font-family="Helvetica,sans-Serif" font-size="12.00">+ void DumpJSON()</text>
<text text-anchor="start" x="927" y="-472.9" font-family="Helvetica,sans-Serif" font-size="12.00">+ int FastRandomWalk</text>
<text text-anchor="start" x="927" y="-459.9" font-family="Helvetica,sans-Serif" font-size="12.00">(unsigned long int n,</text>
<text text-anchor="start" x="927" y="-446.9" font-family="Helvetica,sans-Serif" font-size="12.00"> const char *wordlistFileName,</text>
<text text-anchor="start" x="927" y="-433.9" font-family="Helvetica,sans-Serif" font-size="12.00"> int minLen=6, int maxLen</text>
<text text-anchor="start" x="927" y="-420.9" font-family="Helvetica,sans-Serif" font-size="12.00">=12, int threads=20, bool bFileIO=true)</text>
<text text-anchor="start" x="927" y="-407.9" font-family="Helvetica,sans-Serif" font-size="12.00">+ void Import(const char</text>
<text text-anchor="start" x="927" y="-394.9" font-family="Helvetica,sans-Serif" font-size="12.00"> *filename)</text>
<text text-anchor="start" x="927" y="-381.9" font-family="Helvetica,sans-Serif" font-size="12.00">+ void Train(const char</text>
<text text-anchor="start" x="927" y="-368.9" font-family="Helvetica,sans-Serif" font-size="12.00"> *datasetFileName, char</text>
<text text-anchor="start" x="927" y="-355.9" font-family="Helvetica,sans-Serif" font-size="12.00"> delimiter, int threads)</text>
<text text-anchor="start" x="927" y="-342.9" font-family="Helvetica,sans-Serif" font-size="12.00"># int FastRandomWalk</text>
<text text-anchor="start" x="927" y="-329.9" font-family="Helvetica,sans-Serif" font-size="12.00">(unsigned long int n,</text>
<text text-anchor="start" x="927" y="-316.9" font-family="Helvetica,sans-Serif" font-size="12.00"> std::ofstream *wordlist,</text>
<text text-anchor="start" x="927" y="-303.9" font-family="Helvetica,sans-Serif" font-size="12.00"> int minLen=6, int maxLen</text>
<text text-anchor="start" x="927" y="-290.9" font-family="Helvetica,sans-Serif" font-size="12.00">=12, int threads=20, bool</text>
<text text-anchor="start" x="927" y="-277.9" font-family="Helvetica,sans-Serif" font-size="12.00"> bFileIO=true)</text>
<text text-anchor="start" x="927" y="-264.9" font-family="Helvetica,sans-Serif" font-size="12.00"># void FastRandomWalkPartition</text>
<text text-anchor="start" x="927" y="-251.9" font-family="Helvetica,sans-Serif" font-size="12.00">(std::mutex *mlock, std::</text>
<text text-anchor="start" x="927" y="-238.9" font-family="Helvetica,sans-Serif" font-size="12.00">ofstream *wordlist, unsigned</text>
<text text-anchor="start" x="927" y="-225.9" font-family="Helvetica,sans-Serif" font-size="12.00"> long int n, int minLen, int</text>
<text text-anchor="start" x="927" y="-212.9" font-family="Helvetica,sans-Serif" font-size="12.00"> maxLen, bool bFileIO, int threads)</text>
<text text-anchor="start" x="927" y="-199.9" font-family="Helvetica,sans-Serif" font-size="12.00"># void FastRandomWalkThread</text>
<text text-anchor="start" x="927" y="-186.9" font-family="Helvetica,sans-Serif" font-size="12.00">(std::mutex *mlock, std</text>
<text text-anchor="start" x="927" y="-173.9" font-family="Helvetica,sans-Serif" font-size="12.00">::ofstream *wordlist, unsigned</text>
<text text-anchor="start" x="927" y="-160.9" font-family="Helvetica,sans-Serif" font-size="12.00"> long int n, int minLen, int</text>
<text text-anchor="start" x="927" y="-147.9" font-family="Helvetica,sans-Serif" font-size="12.00"> maxLen, int id, bool bFileIO)</text>
<text text-anchor="start" x="927" y="-134.9" font-family="Helvetica,sans-Serif" font-size="12.00"># bool DeallocateMatrix()</text>
</a>
</g>
</g>
<!-- Node2&#45;&gt;Node1 -->
<g id="edge1" class="edge">
<title>Node2&#45;&gt;Node1</title>
<path fill="none" stroke="midnightblue" d="M1046,-117.22C1046,-107.33 1046,-98.08 1046,-89.73"/>
<polygon fill="none" stroke="midnightblue" points="1042.5,-117.32 1046,-127.32 1049.5,-117.32 1042.5,-117.32"/>
</g>
<!-- Node3 -->
<g id="node3" class="node">
<title>Node3</title>
<g id="a_node3"><a xlink:href="class_markov_1_1_a_p_i_1_1_markov_passwords.html" target="_top" xlink:title="Markov::Model with char represented nodes.">
<polygon fill="none" stroke="black" points="317.5,-643.5 317.5,-1057.5 612.5,-1057.5 612.5,-643.5 317.5,-643.5"/>
<text text-anchor="middle" x="465" y="-1043.9" font-family="Helvetica,sans-Serif" font-size="12.00">Markov::API::MarkovPasswords</text>
<polyline fill="none" stroke="black" points="317.5,-1036.5 612.5,-1036.5 "/>
<text text-anchor="middle" x="465" y="-1022.9" font-family="Helvetica,sans-Serif" font-size="12.00"> </text>
<polyline fill="none" stroke="black" points="317.5,-1015.5 612.5,-1015.5 "/>
<text text-anchor="start" x="325.5" y="-1001.9" font-family="Helvetica,sans-Serif" font-size="12.00">+ MarkovPasswords()</text>
<text text-anchor="start" x="325.5" y="-988.9" font-family="Helvetica,sans-Serif" font-size="12.00">+ MarkovPasswords(const</text>
<text text-anchor="start" x="325.5" y="-975.9" font-family="Helvetica,sans-Serif" font-size="12.00"> char *filename)</text>
<text text-anchor="start" x="325.5" y="-962.9" font-family="Helvetica,sans-Serif" font-size="12.00">+ std::ifstream * OpenDataset</text>
<text text-anchor="start" x="325.5" y="-949.9" font-family="Helvetica,sans-Serif" font-size="12.00">File(const char *filename)</text>
<text text-anchor="start" x="325.5" y="-936.9" font-family="Helvetica,sans-Serif" font-size="12.00">+ void Train(const char</text>
<text text-anchor="start" x="325.5" y="-923.9" font-family="Helvetica,sans-Serif" font-size="12.00"> *datasetFileName, char</text>
<text text-anchor="start" x="325.5" y="-910.9" font-family="Helvetica,sans-Serif" font-size="12.00"> delimiter, int threads)</text>
<text text-anchor="start" x="325.5" y="-897.9" font-family="Helvetica,sans-Serif" font-size="12.00">+ std::ofstream * Save</text>
<text text-anchor="start" x="325.5" y="-884.9" font-family="Helvetica,sans-Serif" font-size="12.00">(const char *filename)</text>
<text text-anchor="start" x="325.5" y="-871.9" font-family="Helvetica,sans-Serif" font-size="12.00">+ void Generate(unsigned</text>
<text text-anchor="start" x="325.5" y="-858.9" font-family="Helvetica,sans-Serif" font-size="12.00"> long int n, const char</text>
<text text-anchor="start" x="325.5" y="-845.9" font-family="Helvetica,sans-Serif" font-size="12.00"> *wordlistFileName, int</text>
<text text-anchor="start" x="325.5" y="-832.9" font-family="Helvetica,sans-Serif" font-size="12.00"> minLen=6, int maxLen=12,</text>
<text text-anchor="start" x="325.5" y="-819.9" font-family="Helvetica,sans-Serif" font-size="12.00"> int threads=20)</text>
<text text-anchor="start" x="325.5" y="-806.9" font-family="Helvetica,sans-Serif" font-size="12.00">+ void Buff(const char</text>
<text text-anchor="start" x="325.5" y="-793.9" font-family="Helvetica,sans-Serif" font-size="12.00"> *str, double multiplier,</text>
<text text-anchor="start" x="325.5" y="-780.9" font-family="Helvetica,sans-Serif" font-size="12.00"> bool bDontAdjustSelfLoops</text>
<text text-anchor="start" x="325.5" y="-767.9" font-family="Helvetica,sans-Serif" font-size="12.00">=true, bool bDontAdjustExtendedLoops=false)</text>
<text text-anchor="start" x="325.5" y="-754.9" font-family="Helvetica,sans-Serif" font-size="12.00">&#45; void TrainThread(Markov</text>
<text text-anchor="start" x="325.5" y="-741.9" font-family="Helvetica,sans-Serif" font-size="12.00">::API::Concurrency::ThreadShared</text>
<text text-anchor="start" x="325.5" y="-728.9" font-family="Helvetica,sans-Serif" font-size="12.00">ListHandler *listhandler, char</text>
<text text-anchor="start" x="325.5" y="-715.9" font-family="Helvetica,sans-Serif" font-size="12.00"> delimiter)</text>
<text text-anchor="start" x="325.5" y="-702.9" font-family="Helvetica,sans-Serif" font-size="12.00">&#45; void GenerateThread</text>
<text text-anchor="start" x="325.5" y="-689.9" font-family="Helvetica,sans-Serif" font-size="12.00">(std::mutex *outputLock,</text>
<text text-anchor="start" x="325.5" y="-676.9" font-family="Helvetica,sans-Serif" font-size="12.00"> unsigned long int n, std</text>
<text text-anchor="start" x="325.5" y="-663.9" font-family="Helvetica,sans-Serif" font-size="12.00">::ofstream *wordlist, int</text>
<text text-anchor="start" x="325.5" y="-650.9" font-family="Helvetica,sans-Serif" font-size="12.00"> minLen, int maxLen)</text>
</a>
</g>
</g>
<!-- Node3&#45;&gt;Node2 -->
<g id="edge2" class="edge">
<title>Node3&#45;&gt;Node2</title>
<path fill="none" stroke="midnightblue" d="M620.55,-715.37C713.82,-634.94 830.95,-533.94 918.69,-458.28"/>
<polygon fill="none" stroke="midnightblue" points="618.03,-712.92 612.74,-722.1 622.6,-718.22 618.03,-712.92"/>
</g>
<!-- Node4 -->
<g id="node4" class="node">
<title>Node4</title>
<g id="a_node4"><a xlink:href="class_markov_1_1_model.html" target="_top" xlink:title=" ">
<polygon fill="none" stroke="black" points="491,-1120.5 491,-1430.5 703,-1430.5 703,-1120.5 491,-1120.5"/>
<text text-anchor="middle" x="597" y="-1416.9" font-family="Helvetica,sans-Serif" font-size="12.00">Markov::Model&lt; char &gt;</text>
<polyline fill="none" stroke="black" points="491,-1409.5 703,-1409.5 "/>
<text text-anchor="middle" x="597" y="-1395.9" font-family="Helvetica,sans-Serif" font-size="12.00"> </text>
<polyline fill="none" stroke="black" points="491,-1388.5 703,-1388.5 "/>
<text text-anchor="start" x="499" y="-1374.9" font-family="Helvetica,sans-Serif" font-size="12.00">+ Model()</text>
<text text-anchor="start" x="499" y="-1361.9" font-family="Helvetica,sans-Serif" font-size="12.00">+ char * RandomWalk(Markov</text>
<text text-anchor="start" x="499" y="-1348.9" font-family="Helvetica,sans-Serif" font-size="12.00">::Random::RandomEngine</text>
<text text-anchor="start" x="499" y="-1335.9" font-family="Helvetica,sans-Serif" font-size="12.00"> *randomEngine, int minSetting,</text>
<text text-anchor="start" x="499" y="-1322.9" font-family="Helvetica,sans-Serif" font-size="12.00"> int maxSetting, char *buffer)</text>
<text text-anchor="start" x="499" y="-1309.9" font-family="Helvetica,sans-Serif" font-size="12.00">+ void AdjustEdge(const</text>
<text text-anchor="start" x="499" y="-1296.9" font-family="Helvetica,sans-Serif" font-size="12.00"> char *payload, long</text>
<text text-anchor="start" x="499" y="-1283.9" font-family="Helvetica,sans-Serif" font-size="12.00"> int occurrence)</text>
<text text-anchor="start" x="499" y="-1270.9" font-family="Helvetica,sans-Serif" font-size="12.00">+ bool Import(std::ifstream *)</text>
<text text-anchor="start" x="499" y="-1257.9" font-family="Helvetica,sans-Serif" font-size="12.00">+ bool Import(const char</text>
<text text-anchor="start" x="499" y="-1244.9" font-family="Helvetica,sans-Serif" font-size="12.00"> *filename)</text>
<text text-anchor="start" x="499" y="-1231.9" font-family="Helvetica,sans-Serif" font-size="12.00">+ bool Export(std::ofstream *)</text>
<text text-anchor="start" x="499" y="-1218.9" font-family="Helvetica,sans-Serif" font-size="12.00">+ bool Export(const char</text>
<text text-anchor="start" x="499" y="-1205.9" font-family="Helvetica,sans-Serif" font-size="12.00"> *filename)</text>
<text text-anchor="start" x="499" y="-1192.9" font-family="Helvetica,sans-Serif" font-size="12.00">+ Node&lt; char &gt; * StarterNode()</text>
<text text-anchor="start" x="499" y="-1179.9" font-family="Helvetica,sans-Serif" font-size="12.00">+ std::vector&lt; Edge&lt;</text>
<text text-anchor="start" x="499" y="-1166.9" font-family="Helvetica,sans-Serif" font-size="12.00"> char &gt; * &gt; * Edges()</text>
<text text-anchor="start" x="499" y="-1153.9" font-family="Helvetica,sans-Serif" font-size="12.00">+ std::map&lt; char, Node</text>
<text text-anchor="start" x="499" y="-1140.9" font-family="Helvetica,sans-Serif" font-size="12.00">&lt; char &gt; * &gt; * Nodes()</text>
<text text-anchor="start" x="499" y="-1127.9" font-family="Helvetica,sans-Serif" font-size="12.00">+ void OptimizeEdgeOrder()</text>
</a>
</g>
</g>
<!-- Node4&#45;&gt;Node3 -->
<g id="edge3" class="edge">
<title>Node4&#45;&gt;Node3</title>
<path fill="none" stroke="midnightblue" d="M545.87,-1110.66C540.44,-1093.25 534.86,-1075.37 529.3,-1057.55"/>
<polygon fill="none" stroke="midnightblue" points="542.56,-1111.79 548.88,-1120.29 549.24,-1109.7 542.56,-1111.79"/>
</g>
<!-- Node5 -->
<g id="node5" class="node">
<title>Node5</title>
<g id="a_node5"><a xlink:title=" ">
<polygon fill="none" stroke="#bfbfbf" points="837.5,-1684.5 837.5,-1760.5 998.5,-1760.5 998.5,-1684.5 837.5,-1684.5"/>
<text text-anchor="start" x="845.5" y="-1746.9" font-family="Helvetica,sans-Serif" font-size="12.00">std::map&lt; char, Markov</text>
<text text-anchor="middle" x="918" y="-1733.9" font-family="Helvetica,sans-Serif" font-size="12.00">::Node&lt; char &gt; * &gt;</text>
<polyline fill="none" stroke="#bfbfbf" points="837.5,-1726.5 998.5,-1726.5 "/>
<text text-anchor="middle" x="918" y="-1712.9" font-family="Helvetica,sans-Serif" font-size="12.00"> </text>
<polyline fill="none" stroke="#bfbfbf" points="837.5,-1705.5 998.5,-1705.5 "/>
<text text-anchor="middle" x="918" y="-1691.9" font-family="Helvetica,sans-Serif" font-size="12.00"> </text>
</a>
</g>
</g>
<!-- Node5&#45;&gt;Node4 -->
<g id="edge4" class="edge">
<title>Node5&#45;&gt;Node4</title>
<path fill="none" stroke="#404040" d="M894.92,-1684.28C876.11,-1654.37 848.59,-1611.48 823,-1575 787.48,-1524.36 747.14,-1470.13 710.48,-1421.97"/>
<polygon fill="none" stroke="#404040" points="710.47,-1421.96 703.65,-1419.61 703.19,-1412.42 710.01,-1414.76 710.47,-1421.96"/>
<text text-anchor="middle" x="833.5" y="-1515.4" font-family="Helvetica,sans-Serif" font-size="12.00"> &#45;nodes</text>
</g>
<!-- Node6 -->
<g id="node6" class="node">
<title>Node6</title>
<g id="a_node6"><a xlink:title=" ">
<polygon fill="none" stroke="#bfbfbf" points="841,-2274.5 841,-2337.5 885,-2337.5 885,-2274.5 841,-2274.5"/>
<text text-anchor="middle" x="863" y="-2323.9" font-family="Helvetica,sans-Serif" font-size="12.00">char</text>
<polyline fill="none" stroke="#bfbfbf" points="841,-2316.5 885,-2316.5 "/>
<text text-anchor="middle" x="863" y="-2302.9" font-family="Helvetica,sans-Serif" font-size="12.00"> </text>
<polyline fill="none" stroke="#bfbfbf" points="841,-2295.5 885,-2295.5 "/>
<text text-anchor="middle" x="863" y="-2281.9" font-family="Helvetica,sans-Serif" font-size="12.00"> </text>
</a>
</g>
</g>
<!-- Node6&#45;&gt;Node2 -->
<g id="edge27" class="edge">
<title>Node6&#45;&gt;Node2</title>
<path fill="none" stroke="#404040" d="M885.12,-2288.38C929.88,-2252.67 1027,-2163.7 1027,-2064 1027,-2064 1027,-2064 1027,-849.5 1027,-761.37 1029.97,-664.58 1033.57,-579.76"/>
<polygon fill="none" stroke="#404040" points="1033.57,-579.6 1029.83,-573.43 1034.09,-567.61 1037.83,-573.77 1033.57,-579.6"/>
<text text-anchor="middle" x="1068" y="-1521.9" font-family="Helvetica,sans-Serif" font-size="12.00"> #edgeMatrix</text>
<text text-anchor="middle" x="1068" y="-1508.9" font-family="Helvetica,sans-Serif" font-size="12.00">#matrixIndex</text>
</g>
<!-- Node6&#45;&gt;Node5 -->
<g id="edge5" class="edge">
<title>Node6&#45;&gt;Node5</title>
<path fill="none" stroke="#404040" d="M865.92,-2274.15C874.93,-2178.88 902.36,-1888.83 913.36,-1772.52"/>
<polygon fill="none" stroke="#404040" points="913.37,-1772.46 909.95,-1766.11 914.5,-1760.51 917.92,-1766.86 913.37,-1772.46"/>
<text text-anchor="middle" x="921.5" y="-2059.9" font-family="Helvetica,sans-Serif" font-size="12.00"> +keys</text>
</g>
<!-- Node7 -->
<g id="node7" class="node">
<title>Node7</title>
<g id="a_node7"><a xlink:href="class_markov_1_1_node.html" target="_top" xlink:title=" ">
<polygon fill="none" stroke="black" points="529.5,-1901.5 529.5,-2224.5 750.5,-2224.5 750.5,-1901.5 529.5,-1901.5"/>
<text text-anchor="middle" x="640" y="-2210.9" font-family="Helvetica,sans-Serif" font-size="12.00">Markov::Node&lt; char &gt;</text>
<polyline fill="none" stroke="black" points="529.5,-2203.5 750.5,-2203.5 "/>
<text text-anchor="middle" x="640" y="-2189.9" font-family="Helvetica,sans-Serif" font-size="12.00"> </text>
<polyline fill="none" stroke="black" points="529.5,-2182.5 750.5,-2182.5 "/>
<text text-anchor="start" x="537.5" y="-2168.9" font-family="Helvetica,sans-Serif" font-size="12.00">+ Node()</text>
<text text-anchor="start" x="537.5" y="-2155.9" font-family="Helvetica,sans-Serif" font-size="12.00">+ Node(char _value)</text>
<text text-anchor="start" x="537.5" y="-2142.9" font-family="Helvetica,sans-Serif" font-size="12.00">+ Edge&lt; char &gt; * Link</text>
<text text-anchor="start" x="537.5" y="-2129.9" font-family="Helvetica,sans-Serif" font-size="12.00">(Node&lt; char &gt; *)</text>
<text text-anchor="start" x="537.5" y="-2116.9" font-family="Helvetica,sans-Serif" font-size="12.00">+ Edge&lt; char &gt; * Link</text>
<text text-anchor="start" x="537.5" y="-2103.9" font-family="Helvetica,sans-Serif" font-size="12.00">(Edge&lt; char &gt; *)</text>
<text text-anchor="start" x="537.5" y="-2090.9" font-family="Helvetica,sans-Serif" font-size="12.00">+ Node&lt; char &gt; * RandomNext</text>
<text text-anchor="start" x="537.5" y="-2077.9" font-family="Helvetica,sans-Serif" font-size="12.00">(Markov::Random::RandomEngine</text>
<text text-anchor="start" x="537.5" y="-2064.9" font-family="Helvetica,sans-Serif" font-size="12.00"> *randomEngine)</text>
<text text-anchor="start" x="537.5" y="-2051.9" font-family="Helvetica,sans-Serif" font-size="12.00">+ bool UpdateEdges(Edge</text>
<text text-anchor="start" x="537.5" y="-2038.9" font-family="Helvetica,sans-Serif" font-size="12.00">&lt; char &gt; *)</text>
<text text-anchor="start" x="537.5" y="-2025.9" font-family="Helvetica,sans-Serif" font-size="12.00">+ Edge&lt; char &gt; * FindEdge</text>
<text text-anchor="start" x="537.5" y="-2012.9" font-family="Helvetica,sans-Serif" font-size="12.00">(char repr)</text>
<text text-anchor="start" x="537.5" y="-1999.9" font-family="Helvetica,sans-Serif" font-size="12.00">+ Edge&lt; char &gt; * FindEdge</text>
<text text-anchor="start" x="537.5" y="-1986.9" font-family="Helvetica,sans-Serif" font-size="12.00">(Node&lt; char &gt; *target)</text>
<text text-anchor="start" x="537.5" y="-1973.9" font-family="Helvetica,sans-Serif" font-size="12.00">+ unsigned char NodeValue()</text>
<text text-anchor="start" x="537.5" y="-1960.9" font-family="Helvetica,sans-Serif" font-size="12.00">+ void UpdateTotalVerticeWeight</text>
<text text-anchor="start" x="537.5" y="-1947.9" font-family="Helvetica,sans-Serif" font-size="12.00">(long int offset)</text>
<text text-anchor="start" x="537.5" y="-1934.9" font-family="Helvetica,sans-Serif" font-size="12.00">+ std::map&lt; char, Edge</text>
<text text-anchor="start" x="537.5" y="-1921.9" font-family="Helvetica,sans-Serif" font-size="12.00">&lt; char &gt; * &gt; * Edges()</text>
<text text-anchor="start" x="537.5" y="-1908.9" font-family="Helvetica,sans-Serif" font-size="12.00">+ long int TotalEdgeWeights()</text>
</a>
</g>
</g>
<!-- Node6&#45;&gt;Node7 -->
<g id="edge7" class="edge">
<title>Node6&#45;&gt;Node7</title>
<path fill="none" stroke="#404040" d="M840.62,-2298.32C818.44,-2290.83 784.46,-2276.92 761,-2256 753.39,-2249.22 746.08,-2241.84 739.09,-2234.06"/>
<polygon fill="none" stroke="#404040" points="738.89,-2233.83 731.94,-2231.92 731.04,-2224.76 737.99,-2226.68 738.89,-2233.83"/>
<text text-anchor="middle" x="784.5" y="-2246.4" font-family="Helvetica,sans-Serif" font-size="12.00"> &#45;_value</text>
</g>
<!-- Node8 -->
<g id="node8" class="node">
<title>Node8</title>
<g id="a_node8"><a xlink:title=" ">
<polygon fill="none" stroke="#bfbfbf" points="523.5,-1480.5 523.5,-1556.5 684.5,-1556.5 684.5,-1480.5 523.5,-1480.5"/>
<text text-anchor="start" x="531.5" y="-1542.9" font-family="Helvetica,sans-Serif" font-size="12.00">std::map&lt; char, Markov</text>
<text text-anchor="middle" x="604" y="-1529.9" font-family="Helvetica,sans-Serif" font-size="12.00">::Edge&lt; char &gt; * &gt;</text>
<polyline fill="none" stroke="#bfbfbf" points="523.5,-1522.5 684.5,-1522.5 "/>
<text text-anchor="middle" x="604" y="-1508.9" font-family="Helvetica,sans-Serif" font-size="12.00"> </text>
<polyline fill="none" stroke="#bfbfbf" points="523.5,-1501.5 684.5,-1501.5 "/>
<text text-anchor="middle" x="604" y="-1487.9" font-family="Helvetica,sans-Serif" font-size="12.00"> </text>
</a>
</g>
</g>
<!-- Node6&#45;&gt;Node8 -->
<g id="edge9" class="edge">
<title>Node6&#45;&gt;Node8</title>
<path fill="none" stroke="#404040" d="M860.61,-2274.28C849.9,-2137.34 806.35,-1588.74 795,-1575 791.46,-1570.72 743.25,-1556.73 696.15,-1543.86"/>
<polygon fill="none" stroke="#404040" points="696.13,-1543.86 689.29,-1546.14 684.55,-1540.71 691.39,-1538.42 696.13,-1543.86"/>
<text text-anchor="middle" x="849.5" y="-1866.9" font-family="Helvetica,sans-Serif" font-size="12.00"> +keys</text>
</g>
<!-- Node7&#45;&gt;Node4 -->
<g id="edge16" class="edge">
<title>Node7&#45;&gt;Node4</title>
<path fill="none" stroke="#404040" d="M687.77,-1901.29C692.4,-1880.49 696.35,-1859.35 699,-1839 719.58,-1680.75 731.58,-1634.84 693,-1480 689.87,-1467.45 685.95,-1454.74 681.49,-1442.12"/>
<polygon fill="none" stroke="#404040" points="681.38,-1441.83 675.56,-1437.58 677.24,-1430.57 683.07,-1434.82 681.38,-1441.83"/>
<text text-anchor="middle" x="754.5" y="-1578.4" font-family="Helvetica,sans-Serif" font-size="12.00"> &#45;starterNode</text>
</g>
<!-- Node7&#45;&gt;Node5 -->
<g id="edge6" class="edge">
<title>Node7&#45;&gt;Node5</title>
<path fill="none" stroke="#404040" d="M700.12,-1901.42C709.01,-1885.69 718.95,-1870.56 730,-1857 759.34,-1820.98 800.71,-1790.19 837.17,-1767.28"/>
<polygon fill="none" stroke="#404040" points="837.59,-1767.02 840.61,-1760.47 847.81,-1760.73 844.8,-1767.28 837.59,-1767.02"/>
<text text-anchor="middle" x="765" y="-1866.9" font-family="Helvetica,sans-Serif" font-size="12.00"> +elements</text>
</g>
<!-- Node9 -->
<g id="node9" class="node">
<title>Node9</title>
<g id="a_node9"><a xlink:href="class_markov_1_1_edge.html" target="_top" xlink:title=" ">
<polygon fill="none" stroke="black" points="382.5,-1606.5 382.5,-1838.5 603.5,-1838.5 603.5,-1606.5 382.5,-1606.5"/>
<text text-anchor="middle" x="493" y="-1824.9" font-family="Helvetica,sans-Serif" font-size="12.00">Markov::Edge&lt; char &gt;</text>
<polyline fill="none" stroke="black" points="382.5,-1817.5 603.5,-1817.5 "/>
<text text-anchor="middle" x="493" y="-1803.9" font-family="Helvetica,sans-Serif" font-size="12.00"> </text>
<polyline fill="none" stroke="black" points="382.5,-1796.5 603.5,-1796.5 "/>
<text text-anchor="start" x="390.5" y="-1782.9" font-family="Helvetica,sans-Serif" font-size="12.00">+ Edge()</text>
<text text-anchor="start" x="390.5" y="-1769.9" font-family="Helvetica,sans-Serif" font-size="12.00">+ Edge(Node&lt; char &gt;</text>
<text text-anchor="start" x="390.5" y="-1756.9" font-family="Helvetica,sans-Serif" font-size="12.00"> *_left, Node&lt; char</text>
<text text-anchor="start" x="390.5" y="-1743.9" font-family="Helvetica,sans-Serif" font-size="12.00"> &gt; *_right)</text>
<text text-anchor="start" x="390.5" y="-1730.9" font-family="Helvetica,sans-Serif" font-size="12.00">+ void AdjustEdge(long</text>
<text text-anchor="start" x="390.5" y="-1717.9" font-family="Helvetica,sans-Serif" font-size="12.00"> int offset)</text>
<text text-anchor="start" x="390.5" y="-1704.9" font-family="Helvetica,sans-Serif" font-size="12.00">+ Node&lt; char &gt; * TraverseNode()</text>
<text text-anchor="start" x="390.5" y="-1691.9" font-family="Helvetica,sans-Serif" font-size="12.00">+ void SetLeftEdge(Node</text>
<text text-anchor="start" x="390.5" y="-1678.9" font-family="Helvetica,sans-Serif" font-size="12.00">&lt; char &gt; *)</text>
<text text-anchor="start" x="390.5" y="-1665.9" font-family="Helvetica,sans-Serif" font-size="12.00">+ void SetRightEdge(Node</text>
<text text-anchor="start" x="390.5" y="-1652.9" font-family="Helvetica,sans-Serif" font-size="12.00">&lt; char &gt; *)</text>
<text text-anchor="start" x="390.5" y="-1639.9" font-family="Helvetica,sans-Serif" font-size="12.00">+ uint64_t EdgeWeight()</text>
<text text-anchor="start" x="390.5" y="-1626.9" font-family="Helvetica,sans-Serif" font-size="12.00">+ Node&lt; char &gt; * LeftNode()</text>
<text text-anchor="start" x="390.5" y="-1613.9" font-family="Helvetica,sans-Serif" font-size="12.00">+ Node&lt; char &gt; * RightNode()</text>
</a>
</g>
</g>
<!-- Node7&#45;&gt;Node9 -->
<g id="edge12" class="edge">
<title>Node7&#45;&gt;Node9</title>
<path fill="none" stroke="#404040" d="M570.16,-1901.18C562.7,-1883.99 555.18,-1866.69 547.93,-1849.98"/>
<polygon fill="none" stroke="#404040" points="547.73,-1849.52 541.67,-1845.61 542.95,-1838.52 549.01,-1842.43 547.73,-1849.52"/>
<text text-anchor="middle" x="582.5" y="-1873.4" font-family="Helvetica,sans-Serif" font-size="12.00"> &#45;_left</text>
<text text-anchor="middle" x="582.5" y="-1860.4" font-family="Helvetica,sans-Serif" font-size="12.00">&#45;_right</text>
</g>
<!-- Node8&#45;&gt;Node7 -->
<g id="edge8" class="edge">
<title>Node8&#45;&gt;Node7</title>
<path fill="none" stroke="#404040" d="M620.74,-1556.57C622.87,-1562.62 624.75,-1568.91 626,-1575 647.16,-1677.78 651.1,-1795.32 649.54,-1889.17"/>
<polygon fill="none" stroke="#404040" points="649.54,-1889.37 653.42,-1895.45 649.3,-1901.37 645.42,-1895.29 649.54,-1889.37"/>
<text text-anchor="middle" x="672.5" y="-1719.4" font-family="Helvetica,sans-Serif" font-size="12.00"> &#45;edges</text>
</g>
<!-- Node9&#45;&gt;Node8 -->
<g id="edge10" class="edge">
<title>Node9&#45;&gt;Node8</title>
<path fill="none" stroke="#404040" d="M538.53,-1606.19C543.98,-1595.42 549.83,-1584.85 556,-1575 557.84,-1572.06 559.83,-1569.13 561.92,-1566.22"/>
<polygon fill="none" stroke="#404040" points="562.04,-1566.05 562.5,-1558.86 569.31,-1556.51 568.86,-1563.7 562.04,-1566.05"/>
<text text-anchor="middle" x="591" y="-1578.4" font-family="Helvetica,sans-Serif" font-size="12.00"> +elements</text>
</g>
<!-- Node11 -->
<g id="node11" class="node">
<title>Node11</title>
<g id="a_node11"><a xlink:title=" ">
<polygon fill="none" stroke="#bfbfbf" points="367,-1480.5 367,-1556.5 505,-1556.5 505,-1480.5 367,-1480.5"/>
<text text-anchor="start" x="375" y="-1542.9" font-family="Helvetica,sans-Serif" font-size="12.00">std::vector&lt; Markov</text>
<text text-anchor="middle" x="436" y="-1529.9" font-family="Helvetica,sans-Serif" font-size="12.00">::Edge&lt; char &gt; * &gt;</text>
<polyline fill="none" stroke="#bfbfbf" points="367,-1522.5 505,-1522.5 "/>
<text text-anchor="middle" x="436" y="-1508.9" font-family="Helvetica,sans-Serif" font-size="12.00"> </text>
<polyline fill="none" stroke="#bfbfbf" points="367,-1501.5 505,-1501.5 "/>
<text text-anchor="middle" x="436" y="-1487.9" font-family="Helvetica,sans-Serif" font-size="12.00"> </text>
</a>
</g>
</g>
<!-- Node9&#45;&gt;Node11 -->
<g id="edge15" class="edge">
<title>Node9&#45;&gt;Node11</title>
<path fill="none" stroke="#404040" d="M460.5,-1606.34C456.76,-1593.06 453.1,-1580.11 449.81,-1568.43"/>
<polygon fill="none" stroke="#404040" points="449.78,-1568.32 444.3,-1563.63 446.52,-1556.77 452,-1561.46 449.78,-1568.32"/>
<text text-anchor="middle" x="490" y="-1578.4" font-family="Helvetica,sans-Serif" font-size="12.00"> +elements</text>
</g>
<!-- Node10 -->
<g id="node10" class="node">
<title>Node10</title>
<g id="a_node10"><a xlink:href="classlong_01int.html" target="_top" xlink:title=" ">
<polygon fill="none" stroke="black" points="318.5,-2274.5 318.5,-2337.5 379.5,-2337.5 379.5,-2274.5 318.5,-2274.5"/>
<text text-anchor="middle" x="349" y="-2323.9" font-family="Helvetica,sans-Serif" font-size="12.00">long int</text>
<polyline fill="none" stroke="black" points="318.5,-2316.5 379.5,-2316.5 "/>
<text text-anchor="middle" x="349" y="-2302.9" font-family="Helvetica,sans-Serif" font-size="12.00"> </text>
<polyline fill="none" stroke="black" points="318.5,-2295.5 379.5,-2295.5 "/>
<text text-anchor="middle" x="349" y="-2281.9" font-family="Helvetica,sans-Serif" font-size="12.00"> </text>
</a>
</g>
</g>
<!-- Node10&#45;&gt;Node7 -->
<g id="edge13" class="edge">
<title>Node10&#45;&gt;Node7</title>
<path fill="none" stroke="#404040" d="M379.59,-2279.66C412.97,-2252.02 468.51,-2206.02 519.74,-2163.6"/>
<polygon fill="none" stroke="#404040" points="520.01,-2163.37 522.08,-2156.47 529.25,-2155.72 527.18,-2162.63 520.01,-2163.37"/>
<text text-anchor="middle" x="482" y="-2246.4" font-family="Helvetica,sans-Serif" font-size="12.00"> &#45;total_edge_weights</text>
</g>
<!-- Node10&#45;&gt;Node9 -->
<g id="edge11" class="edge">
<title>Node10&#45;&gt;Node9</title>
<path fill="none" stroke="#404040" d="M356.64,-2274.15C375.96,-2196.12 427.65,-1987.41 461.54,-1850.53"/>
<polygon fill="none" stroke="#404040" points="461.58,-1850.39 459.14,-1843.61 464.46,-1838.75 466.9,-1845.53 461.58,-1850.39"/>
<text text-anchor="middle" x="474.5" y="-2059.9" font-family="Helvetica,sans-Serif" font-size="12.00"> &#45;_weight</text>
</g>
<!-- Node11&#45;&gt;Node4 -->
<g id="edge17" class="edge">
<title>Node11&#45;&gt;Node4</title>
<path fill="none" stroke="#404040" d="M460.8,-1480.37C468.51,-1468.84 477.55,-1455.31 487.24,-1440.8"/>
<polygon fill="none" stroke="#404040" points="487.38,-1440.58 487.39,-1433.37 494.05,-1430.61 494.04,-1437.82 487.38,-1440.58"/>
<text text-anchor="middle" x="502.5" y="-1452.4" font-family="Helvetica,sans-Serif" font-size="12.00"> &#45;edges</text>
</g>
<!-- Node11&#45;&gt;Node7 -->
<g id="edge14" class="edge">
<title>Node11&#45;&gt;Node7</title>
<path fill="none" stroke="#404040" d="M366.89,-1552.59C346.4,-1566.1 326.4,-1583.84 315,-1606 291.32,-1652.04 284.56,-1797.12 315,-1839 367.47,-1911.2 432.1,-1850.95 506,-1901 510.74,-1904.21 515.4,-1907.63 519.98,-1911.23"/>
<polygon fill="none" stroke="#404040" points="519.98,-1911.23 527.15,-1911.95 529.25,-1918.85 522.07,-1918.13 519.98,-1911.23"/>
<text text-anchor="middle" x="344" y="-1719.4" font-family="Helvetica,sans-Serif" font-size="12.00"> +edgesV</text>
</g>
<!-- Node12 -->
<g id="node12" class="node">
<title>Node12</title>
<g id="a_node12"><a xlink:title=" ">
<polygon fill="none" stroke="#bfbfbf" points="345,-1244 345,-1307 437,-1307 437,-1244 345,-1244"/>
<text text-anchor="middle" x="391" y="-1293.4" font-family="Helvetica,sans-Serif" font-size="12.00">std::ifstream</text>
<polyline fill="none" stroke="#bfbfbf" points="345,-1286 437,-1286 "/>
<text text-anchor="middle" x="391" y="-1272.4" font-family="Helvetica,sans-Serif" font-size="12.00"> </text>
<polyline fill="none" stroke="#bfbfbf" points="345,-1265 437,-1265 "/>
<text text-anchor="middle" x="391" y="-1251.4" font-family="Helvetica,sans-Serif" font-size="12.00"> </text>
</a>
</g>
</g>
<!-- Node12&#45;&gt;Node3 -->
<g id="edge18" class="edge">
<title>Node12&#45;&gt;Node3</title>
<path fill="none" stroke="#404040" d="M396.38,-1243.74C403,-1205.91 414.84,-1138.24 426.84,-1069.63"/>
<polygon fill="none" stroke="#404040" points="426.86,-1069.54 423.95,-1062.94 428.92,-1057.72 431.83,-1064.32 426.86,-1069.54"/>
<text text-anchor="middle" x="461" y="-1085.9" font-family="Helvetica,sans-Serif" font-size="12.00"> &#45;datasetFile</text>
</g>
<!-- Node13 -->
<g id="node13" class="node">
<title>Node13</title>
<g id="a_node13"><a xlink:title=" ">
<polygon fill="none" stroke="#bfbfbf" points="212,-1480.5 212,-1556.5 340,-1556.5 340,-1480.5 212,-1480.5"/>
<text text-anchor="start" x="220" y="-1542.9" font-family="Helvetica,sans-Serif" font-size="12.00">std::basic_ifstream</text>
<text text-anchor="middle" x="276" y="-1529.9" font-family="Helvetica,sans-Serif" font-size="12.00">&lt; Char &gt;</text>
<polyline fill="none" stroke="#bfbfbf" points="212,-1522.5 340,-1522.5 "/>
<text text-anchor="middle" x="276" y="-1508.9" font-family="Helvetica,sans-Serif" font-size="12.00"> </text>
<polyline fill="none" stroke="#bfbfbf" points="212,-1501.5 340,-1501.5 "/>
<text text-anchor="middle" x="276" y="-1487.9" font-family="Helvetica,sans-Serif" font-size="12.00"> </text>
</a>
</g>
</g>
<!-- Node13&#45;&gt;Node12 -->
<g id="edge19" class="edge">
<title>Node13&#45;&gt;Node12</title>
<path fill="none" stroke="midnightblue" d="M298.15,-1471.08C321.19,-1422.8 356.6,-1348.6 376.37,-1307.17"/>
<polygon fill="none" stroke="midnightblue" points="294.86,-1469.84 293.72,-1480.37 301.18,-1472.85 294.86,-1469.84"/>
</g>
<!-- Node14 -->
<g id="node14" class="node">
<title>Node14</title>
<g id="a_node14"><a xlink:title=" ">
<polygon fill="none" stroke="#bfbfbf" points="146,-1684.5 146,-1760.5 270,-1760.5 270,-1684.5 146,-1684.5"/>
<text text-anchor="start" x="154" y="-1746.9" font-family="Helvetica,sans-Serif" font-size="12.00">std::basic_istream</text>
<text text-anchor="middle" x="208" y="-1733.9" font-family="Helvetica,sans-Serif" font-size="12.00">&lt; Char &gt;</text>
<polyline fill="none" stroke="#bfbfbf" points="146,-1726.5 270,-1726.5 "/>
<text text-anchor="middle" x="208" y="-1712.9" font-family="Helvetica,sans-Serif" font-size="12.00"> </text>
<polyline fill="none" stroke="#bfbfbf" points="146,-1705.5 270,-1705.5 "/>
<text text-anchor="middle" x="208" y="-1691.9" font-family="Helvetica,sans-Serif" font-size="12.00"> </text>
</a>
</g>
</g>
<!-- Node14&#45;&gt;Node13 -->
<g id="edge20" class="edge">
<title>Node14&#45;&gt;Node13</title>
<path fill="none" stroke="midnightblue" d="M223.76,-1674.69C235.84,-1638.79 252.3,-1589.9 263.49,-1556.66"/>
<polygon fill="none" stroke="midnightblue" points="220.35,-1673.86 220.47,-1684.45 226.98,-1676.09 220.35,-1673.86"/>
</g>
<!-- Node15 -->
<g id="node15" class="node">
<title>Node15</title>
<g id="a_node15"><a xlink:title=" ">
<polygon fill="none" stroke="#bfbfbf" points="67.5,-2031.5 67.5,-2094.5 218.5,-2094.5 218.5,-2031.5 67.5,-2031.5"/>
<text text-anchor="middle" x="143" y="-2080.9" font-family="Helvetica,sans-Serif" font-size="12.00">std::basic_ios&lt; Char &gt;</text>
<polyline fill="none" stroke="#bfbfbf" points="67.5,-2073.5 218.5,-2073.5 "/>
<text text-anchor="middle" x="143" y="-2059.9" font-family="Helvetica,sans-Serif" font-size="12.00"> </text>
<polyline fill="none" stroke="#bfbfbf" points="67.5,-2052.5 218.5,-2052.5 "/>
<text text-anchor="middle" x="143" y="-2038.9" font-family="Helvetica,sans-Serif" font-size="12.00"> </text>
</a>
</g>
</g>
<!-- Node15&#45;&gt;Node14 -->
<g id="edge21" class="edge">
<title>Node15&#45;&gt;Node14</title>
<path fill="none" stroke="midnightblue" d="M150.82,-2021.29C163.55,-1954.98 188.58,-1824.63 200.86,-1760.68"/>
<polygon fill="none" stroke="midnightblue" points="147.33,-2020.88 148.88,-2031.36 154.21,-2022.2 147.33,-2020.88"/>
</g>
<!-- Node19 -->
<g id="node19" class="node">
<title>Node19</title>
<g id="a_node19"><a xlink:title=" ">
<polygon fill="none" stroke="#bfbfbf" points="0,-1684.5 0,-1760.5 128,-1760.5 128,-1684.5 0,-1684.5"/>
<text text-anchor="start" x="8" y="-1746.9" font-family="Helvetica,sans-Serif" font-size="12.00">std::basic_ostream</text>
<text text-anchor="middle" x="64" y="-1733.9" font-family="Helvetica,sans-Serif" font-size="12.00">&lt; Char &gt;</text>
<polyline fill="none" stroke="#bfbfbf" points="0,-1726.5 128,-1726.5 "/>
<text text-anchor="middle" x="64" y="-1712.9" font-family="Helvetica,sans-Serif" font-size="12.00"> </text>
<polyline fill="none" stroke="#bfbfbf" points="0,-1705.5 128,-1705.5 "/>
<text text-anchor="middle" x="64" y="-1691.9" font-family="Helvetica,sans-Serif" font-size="12.00"> </text>
</a>
</g>
</g>
<!-- Node15&#45;&gt;Node19 -->
<g id="edge26" class="edge">
<title>Node15&#45;&gt;Node19</title>
<path fill="none" stroke="midnightblue" d="M133.5,-2021.29C118.02,-1954.98 87.6,-1824.63 72.68,-1760.68"/>
<polygon fill="none" stroke="midnightblue" points="130.17,-2022.42 135.85,-2031.36 136.99,-2020.83 130.17,-2022.42"/>
</g>
<!-- Node16 -->
<g id="node16" class="node">
<title>Node16</title>
<g id="a_node16"><a xlink:title=" ">
<polygon fill="none" stroke="#bfbfbf" points="96.5,-2274.5 96.5,-2337.5 189.5,-2337.5 189.5,-2274.5 96.5,-2274.5"/>
<text text-anchor="middle" x="143" y="-2323.9" font-family="Helvetica,sans-Serif" font-size="12.00">std::ios_base</text>
<polyline fill="none" stroke="#bfbfbf" points="96.5,-2316.5 189.5,-2316.5 "/>
<text text-anchor="middle" x="143" y="-2302.9" font-family="Helvetica,sans-Serif" font-size="12.00"> </text>
<polyline fill="none" stroke="#bfbfbf" points="96.5,-2295.5 189.5,-2295.5 "/>
<text text-anchor="middle" x="143" y="-2281.9" font-family="Helvetica,sans-Serif" font-size="12.00"> </text>
</a>
</g>
</g>
<!-- Node16&#45;&gt;Node15 -->
<g id="edge22" class="edge">
<title>Node16&#45;&gt;Node15</title>
<path fill="none" stroke="midnightblue" d="M143,-2264.45C143,-2216.5 143,-2137.8 143,-2094.65"/>
<polygon fill="none" stroke="midnightblue" points="139.5,-2264.48 143,-2274.48 146.5,-2264.48 139.5,-2264.48"/>
</g>
<!-- Node17 -->
<g id="node17" class="node">
<title>Node17</title>
<g id="a_node17"><a xlink:title=" ">
<polygon fill="none" stroke="#bfbfbf" points="159,-1244 159,-1307 255,-1307 255,-1244 159,-1244"/>
<text text-anchor="middle" x="207" y="-1293.4" font-family="Helvetica,sans-Serif" font-size="12.00">std::ofstream</text>
<polyline fill="none" stroke="#bfbfbf" points="159,-1286 255,-1286 "/>
<text text-anchor="middle" x="207" y="-1272.4" font-family="Helvetica,sans-Serif" font-size="12.00"> </text>
<polyline fill="none" stroke="#bfbfbf" points="159,-1265 255,-1265 "/>
<text text-anchor="middle" x="207" y="-1251.4" font-family="Helvetica,sans-Serif" font-size="12.00"> </text>
</a>
</g>
</g>
<!-- Node17&#45;&gt;Node3 -->
<g id="edge23" class="edge">
<title>Node17&#45;&gt;Node3</title>
<path fill="none" stroke="#404040" d="M224.77,-1243.74C247.47,-1204.58 288.13,-1134.95 324,-1076 325.6,-1073.38 327.21,-1070.74 328.83,-1068.09"/>
<polygon fill="none" stroke="#404040" points="328.86,-1068.03 328.58,-1060.83 335.12,-1057.8 335.4,-1065 328.86,-1068.03"/>
<text text-anchor="middle" x="371" y="-1092.4" font-family="Helvetica,sans-Serif" font-size="12.00"> &#45;modelSavefile</text>
<text text-anchor="middle" x="371" y="-1079.4" font-family="Helvetica,sans-Serif" font-size="12.00">&#45;outputFile</text>
</g>
<!-- Node18 -->
<g id="node18" class="node">
<title>Node18</title>
<g id="a_node18"><a xlink:title=" ">
<polygon fill="none" stroke="#bfbfbf" points="42.5,-1480.5 42.5,-1556.5 175.5,-1556.5 175.5,-1480.5 42.5,-1480.5"/>
<text text-anchor="start" x="50.5" y="-1542.9" font-family="Helvetica,sans-Serif" font-size="12.00">std::basic_ofstream</text>
<text text-anchor="middle" x="109" y="-1529.9" font-family="Helvetica,sans-Serif" font-size="12.00">&lt; Char &gt;</text>
<polyline fill="none" stroke="#bfbfbf" points="42.5,-1522.5 175.5,-1522.5 "/>
<text text-anchor="middle" x="109" y="-1508.9" font-family="Helvetica,sans-Serif" font-size="12.00"> </text>
<polyline fill="none" stroke="#bfbfbf" points="42.5,-1501.5 175.5,-1501.5 "/>
<text text-anchor="middle" x="109" y="-1487.9" font-family="Helvetica,sans-Serif" font-size="12.00"> </text>
</a>
</g>
</g>
<!-- Node18&#45;&gt;Node17 -->
<g id="edge24" class="edge">
<title>Node18&#45;&gt;Node17</title>
<path fill="none" stroke="midnightblue" d="M127.88,-1471.08C147.51,-1422.8 177.68,-1348.6 194.53,-1307.17"/>
<polygon fill="none" stroke="midnightblue" points="124.62,-1469.79 124.1,-1480.37 131.11,-1472.43 124.62,-1469.79"/>
</g>
<!-- Node19&#45;&gt;Node18 -->
<g id="edge25" class="edge">
<title>Node19&#45;&gt;Node18</title>
<path fill="none" stroke="midnightblue" d="M74.53,-1674.23C82.52,-1638.37 93.35,-1589.76 100.72,-1556.66"/>
<polygon fill="none" stroke="midnightblue" points="71.01,-1673.93 72.25,-1684.45 77.84,-1675.45 71.01,-1673.93"/>
</g>
<!-- Node20 -->
<g id="node20" class="node">
<title>Node20</title>
<g id="a_node20"><a xlink:title=" ">
<polygon fill="none" stroke="#bfbfbf" points="1055,-819 1055,-882 1087,-882 1087,-819 1055,-819"/>
<text text-anchor="middle" x="1071" y="-868.4" font-family="Helvetica,sans-Serif" font-size="12.00">int</text>
<polyline fill="none" stroke="#bfbfbf" points="1055,-861 1087,-861 "/>
<text text-anchor="middle" x="1071" y="-847.4" font-family="Helvetica,sans-Serif" font-size="12.00"> </text>
<polyline fill="none" stroke="#bfbfbf" points="1055,-840 1087,-840 "/>
<text text-anchor="middle" x="1071" y="-826.4" font-family="Helvetica,sans-Serif" font-size="12.00"> </text>
</a>
</g>
</g>
<!-- Node20&#45;&gt;Node2 -->
<g id="edge28" class="edge">
<title>Node20&#45;&gt;Node2</title>
<path fill="none" stroke="#404040" d="M1069.47,-818.91C1067.07,-770.83 1062.21,-673.34 1057.53,-579.52"/>
<polygon fill="none" stroke="#404040" points="1057.53,-579.49 1053.23,-573.7 1056.93,-567.51 1061.22,-573.3 1057.53,-579.49"/>
<text text-anchor="middle" x="1116" y="-615.4" font-family="Helvetica,sans-Serif" font-size="12.00"> #matrixSize</text>
<text text-anchor="middle" x="1116" y="-602.4" font-family="Helvetica,sans-Serif" font-size="12.00">#totalEdgeWeights</text>
<text text-anchor="middle" x="1116" y="-589.4" font-family="Helvetica,sans-Serif" font-size="12.00">#valueMatrix</text>
</g>
<!-- Node21 -->
<g id="node21" class="node">
<title>Node21</title>
<g id="a_node21"><a xlink:title=" ">
<polygon fill="none" stroke="#bfbfbf" points="1181,-819 1181,-882 1223,-882 1223,-819 1181,-819"/>
<text text-anchor="middle" x="1202" y="-868.4" font-family="Helvetica,sans-Serif" font-size="12.00">bool</text>
<polyline fill="none" stroke="#bfbfbf" points="1181,-861 1223,-861 "/>
<text text-anchor="middle" x="1202" y="-847.4" font-family="Helvetica,sans-Serif" font-size="12.00"> </text>
<polyline fill="none" stroke="#bfbfbf" points="1181,-840 1223,-840 "/>
<text text-anchor="middle" x="1202" y="-826.4" font-family="Helvetica,sans-Serif" font-size="12.00"> </text>
</a>
</g>
</g>
<!-- Node21&#45;&gt;Node2 -->
<g id="edge29" class="edge">
<title>Node21&#45;&gt;Node2</title>
<path fill="none" stroke="#404040" d="M1203.08,-818.68C1203.96,-768.67 1202.07,-667.23 1177,-586 1176.3,-583.72 1175.57,-581.44 1174.82,-579.16"/>
<polygon fill="none" stroke="#404040" points="1174.8,-579.09 1169.07,-574.71 1170.9,-567.74 1176.63,-572.11 1174.8,-579.09"/>
<text text-anchor="middle" x="1210" y="-602.4" font-family="Helvetica,sans-Serif" font-size="12.00"> #ready</text>
</g>
</g>
</svg>
        <g id="navigator" transform="translate(0 0)" fill="#404254">
                <rect fill="#f2f5e9" fill-opacity="0.5" stroke="#606060" stroke-width=".5" x="0" y="0" width="60" height="60"/>
                <use id="zoomplus" xlink:href="#zoomPlus" x="17" y="9" onmousedown="handleZoom(evt,'in')"/>
                <use id="zoomminus" xlink:href="#zoomMin" x="42" y="9" onmousedown="handleZoom(evt,'out')"/>
                <use id="reset" xlink:href="#resetDef" x="30" y="36" onmousedown="handleReset()"/>
                <g id="arrowUp" xlink:href="#dirArrow" transform="translate(30 24)" onmousedown="handlePan(0,-1)">
                  <use xlink:href="#rim" fill="#404040">
                        <set attributeName="fill" to="#808080" begin="arrowUp.mouseover" end="arrowUp.mouseout"/>
                  </use>
                  <path fill="none" stroke="white" stroke-width="1.5" d="M0,-3.0v7 M-2.5,-0.5L0,-3.0L2.5,-0.5"/>
                </g>
                <g id="arrowRight" xlink:href="#dirArrow" transform="rotate(90) translate(36 -43)" onmousedown="handlePan(1,0)">
                  <use xlink:href="#rim" fill="#404040">
                        <set attributeName="fill" to="#808080" begin="arrowRight.mouseover" end="arrowRight.mouseout"/>
                  </use>
                  <path fill="none" stroke="white" stroke-width="1.5" d="M0,-3.0v7 M-2.5,-0.5L0,-3.0L2.5,-0.5"/>
                </g>
                <g id="arrowDown" xlink:href="#dirArrow" transform="rotate(180) translate(-30 -48)" onmousedown="handlePan(0,1)">
                  <use xlink:href="#rim" fill="#404040">
                        <set attributeName="fill" to="#808080" begin="arrowDown.mouseover" end="arrowDown.mouseout"/>
                  </use>
                  <path fill="none" stroke="white" stroke-width="1.5" d="M0,-3.0v7 M-2.5,-0.5L0,-3.0L2.5,-0.5"/>
                </g>
                <g id="arrowLeft" xlink:href="#dirArrow" transform="rotate(270) translate(-36 17)" onmousedown="handlePan(-1,0)">
                  <use xlink:href="#rim" fill="#404040">
                        <set attributeName="fill" to="#808080" begin="arrowLeft.mouseover" end="arrowLeft.mouseout"/>
                  </use>
                  <path fill="none" stroke="white" stroke-width="1.5" d="M0,-3.0v7 M-2.5,-0.5L0,-3.0L2.5,-0.5"/>
                </g>
        </g>
        <svg viewBox="0 0 15 15" width="100%" height="30px" preserveAspectRatio="xMaxYMin meet">
         <g id="arrow_out" transform="scale(0.3 0.3)">
          <a xlink:href="class_python_1_1_markopy_1_1_model_matrix__coll__graph_org.svg" target="_base">
           <rect id="button" ry="5" rx="5" y="6" x="6" height="38" width="38"
                fill="#f2f5e9" fill-opacity="0.5" stroke="#606060" stroke-width="1.0"/>
           <path id="arrow"
             d="M 11.500037,31.436501 C 11.940474,20.09759 22.043105,11.32322 32.158766,21.979434 L 37.068811,17.246167 C 37.068811,17.246167 37.088388,32 37.088388,32 L 22.160133,31.978069 C 22.160133,31.978069 26.997745,27.140456 26.997745,27.140456 C 18.528582,18.264221 13.291696,25.230495 11.500037,31.436501 z"
             style="fill:#404040;"/>
          </a>
         </g>
        </svg>
</svg>
