<?xml version="1.0" encoding="UTF-8" standalone="no"?>
<!DOCTYPE svg PUBLIC "-//W3C//DTD SVG 1.1//EN"
 "http://www.w3.org/Graphics/SVG/1.1/DTD/svg11.dtd">
<!-- Generated by graphviz version 2.43.0 (0)
 -->
<!-- Title: Markov::GUI::MarkovPasswordsGUI Pages: 1 -->
<svg width="302pt" height="250pt"
 viewBox="0.00 0.00 302.00 250.00" xmlns="http://www.w3.org/2000/svg" xmlns:xlink="http://www.w3.org/1999/xlink">
<g id="graph0" class="graph" transform="scale(1 1) rotate(0) translate(4 246)">
<title>Markov::GUI::MarkovPasswordsGUI</title>
<!-- Node1 -->
<g id="node1" class="node">
<title>Node1</title>
<g id="a_node1"><a xlink:title="Reporting UI.">
<polygon fill="#bfbfbf" stroke="black" points="17,-0.5 17,-128.5 241,-128.5 241,-0.5 17,-0.5"/>
<text text-anchor="middle" x="129" y="-114.9" font-family="Helvetica,sans-Serif" font-size="12.00">Markov::GUI::MarkovPasswordsGUI</text>
<polyline fill="none" stroke="black" points="17,-107.5 241,-107.5 "/>
<text text-anchor="middle" x="129" y="-93.9" font-family="Helvetica,sans-Serif" font-size="12.00"> </text>
<polyline fill="none" stroke="black" points="17,-86.5 241,-86.5 "/>
<text text-anchor="start" x="25" y="-72.9" font-family="Helvetica,sans-Serif" font-size="12.00">+ MarkovPasswordsGUI</text>
<text text-anchor="start" x="25" y="-59.9" font-family="Helvetica,sans-Serif" font-size="12.00">(QWidget *parent=Q_NULLPTR)</text>
<text text-anchor="start" x="25" y="-46.9" font-family="Helvetica,sans-Serif" font-size="12.00">+ void benchmarkSelected()</text>
<text text-anchor="start" x="25" y="-33.9" font-family="Helvetica,sans-Serif" font-size="12.00">+ void home()</text>
<text text-anchor="start" x="25" y="-20.9" font-family="Helvetica,sans-Serif" font-size="12.00">+ void pass()</text>
<text text-anchor="start" x="25" y="-7.9" font-family="Helvetica,sans-Serif" font-size="12.00">+ void model()</text>
</a>
</g>
</g>
<!-- Node2 -->
<g id="node2" class="node">
<title>Node2</title>
<g id="a_node2"><a xlink:href="class_q_main_window.html" target="_top" xlink:title=" ">
<polygon fill="none" stroke="black" points="0,-178.5 0,-241.5 102,-241.5 102,-178.5 0,-178.5"/>
<text text-anchor="middle" x="51" y="-227.9" font-family="Helvetica,sans-Serif" font-size="12.00">QMainWindow</text>
<polyline fill="none" stroke="black" points="0,-220.5 102,-220.5 "/>
<text text-anchor="middle" x="51" y="-206.9" font-family="Helvetica,sans-Serif" font-size="12.00"> </text>
<polyline fill="none" stroke="black" points="0,-199.5 102,-199.5 "/>
<text text-anchor="middle" x="51" y="-185.9" font-family="Helvetica,sans-Serif" font-size="12.00"> </text>
</a>
</g>
</g>
<!-- Node2&#45;&gt;Node1 -->
<g id="edge1" class="edge">
<title>Node2&#45;&gt;Node1</title>
<path fill="none" stroke="midnightblue" d="M72.54,-169.37C79.39,-156.77 87.14,-142.52 94.65,-128.69"/>
<polygon fill="none" stroke="midnightblue" points="69.43,-167.76 67.73,-178.22 75.58,-171.1 69.43,-167.76"/>
</g>
<!-- Node3 -->
<g id="node3" class="node">
<title>Node3</title>
<g id="a_node3"><a xlink:title=" ">
<polygon fill="none" stroke="#bfbfbf" points="120,-178.5 120,-241.5 294,-241.5 294,-178.5 120,-178.5"/>
<text text-anchor="middle" x="207" y="-227.9" font-family="Helvetica,sans-Serif" font-size="12.00">MarkovPasswordsGUIClass</text>
<polyline fill="none" stroke="#bfbfbf" points="120,-220.5 294,-220.5 "/>
<text text-anchor="middle" x="207" y="-206.9" font-family="Helvetica,sans-Serif" font-size="12.00"> </text>
<polyline fill="none" stroke="#bfbfbf" points="120,-199.5 294,-199.5 "/>
<text text-anchor="middle" x="207" y="-185.9" font-family="Helvetica,sans-Serif" font-size="12.00"> </text>
</a>
</g>
</g>
<!-- Node3&#45;&gt;Node1 -->
<g id="edge2" class="edge">
<title>Node3&#45;&gt;Node1</title>
<path fill="none" stroke="#404040" d="M190.27,-178.22C184.05,-166.78 176.7,-153.25 169.29,-139.61"/>
<polygon fill="none" stroke="#404040" points="169.08,-139.23 162.7,-135.87 163.35,-128.69 169.73,-132.05 169.08,-139.23"/>
<text text-anchor="middle" x="188.5" y="-150.4" font-family="Helvetica,sans-Serif" font-size="12.00"> &#45;ui</text>
</g>
</g>
</svg>
