<?xml version="1.0" encoding="UTF-8" standalone="no"?>
<!DOCTYPE svg PUBLIC "-//W3C//DTD SVG 1.1//EN"
 "http://www.w3.org/Graphics/SVG/1.1/DTD/svg11.dtd">
<!-- Generated by graphviz version 2.43.0 (0)
 -->
<!-- Title: Markov::Edge::AdjustEdge Pages: 1 -->
<svg width="396pt" height="202pt"
 viewBox="0.00 0.00 396.00 202.00" xmlns="http://www.w3.org/2000/svg" xmlns:xlink="http://www.w3.org/1999/xlink">
<g id="graph0" class="graph" transform="scale(1 1) rotate(0) translate(4 198)">
<title>Markov::Edge::AdjustEdge</title>
<!-- Node1 -->
<g id="node1" class="node">
<title>Node1</title>
<g id="a_node1"><a xlink:title="Adjust the edge EdgeWeight with offset. Adds the offset parameter to the edge EdgeWeight.">
<polygon fill="#bfbfbf" stroke="black" points="215,-86 215,-107 388,-107 388,-86 215,-86"/>
<text text-anchor="middle" x="301.5" y="-93.4" font-family="Helvetica,sans-Serif" font-size="12.00">Markov::Edge::AdjustEdge</text>
</a>
</g>
</g>
<!-- Node2 -->
<g id="node2" class="node">
<title>Node2</title>
<g id="a_node2"><a xlink:href="class_markov_1_1_model.html#ad252913f83fa3eb14cc3f9f92c5ee37a" target="_top" xlink:title="Adjust the model with a single string.">
<polygon fill="none" stroke="black" points="17,-159.5 17,-193.5 162,-193.5 162,-159.5 17,-159.5"/>
<text text-anchor="start" x="25" y="-179.9" font-family="Helvetica,sans-Serif" font-size="12.00">Markov::Model&lt; char</text>
<text text-anchor="middle" x="89.5" y="-166.9" font-family="Helvetica,sans-Serif" font-size="12.00"> &gt;::AdjustEdge</text>
</a>
</g>
</g>
<!-- Node1&#45;&gt;Node2 -->
<g id="edge1" class="edge">
<title>Node1&#45;&gt;Node2</title>
<path fill="none" stroke="midnightblue" d="M269.83,-111.49C245.54,-123.02 210.56,-138.91 179,-150.5 170.43,-153.65 161.29,-156.68 152.26,-159.5"/>
<polygon fill="midnightblue" stroke="midnightblue" points="271.4,-114.62 278.91,-107.14 268.38,-108.3 271.4,-114.62"/>
</g>
<!-- Node3 -->
<g id="node3" class="node">
<title>Node3</title>
<g id="a_node3"><a xlink:href="class_markov_1_1_model.html#a379ea9943f9d4c212e1140d4a9af64f5" target="_top" xlink:title="Import a file to construct the model.">
<polygon fill="none" stroke="black" points="17,-106.5 17,-140.5 162,-140.5 162,-106.5 17,-106.5"/>
<text text-anchor="start" x="25" y="-126.9" font-family="Helvetica,sans-Serif" font-size="12.00">Markov::Model&lt; char</text>
<text text-anchor="middle" x="89.5" y="-113.9" font-family="Helvetica,sans-Serif" font-size="12.00"> &gt;::Import</text>
</a>
</g>
</g>
<!-- Node1&#45;&gt;Node3 -->
<g id="edge2" class="edge">
<title>Node1&#45;&gt;Node3</title>
<path fill="none" stroke="midnightblue" d="M208.56,-108.32C193.02,-110.32 177.1,-112.37 162.17,-114.29"/>
<polygon fill="midnightblue" stroke="midnightblue" points="209.24,-111.76 218.71,-107.02 208.34,-104.82 209.24,-111.76"/>
</g>
<!-- Node4 -->
<g id="node4" class="node">
<title>Node4</title>
<g id="a_node4"><a xlink:href="namespace_testing_1_1_m_v_p_1_1_markov_model.html#a0e3a45b149abd9dff30adc9b877f94cd" target="_top" xlink:title="Test class for minimal viable Edge.">
<polygon fill="none" stroke="black" points="0,-53.5 0,-87.5 179,-87.5 179,-53.5 0,-53.5"/>
<text text-anchor="start" x="8" y="-73.9" font-family="Helvetica,sans-Serif" font-size="12.00">Testing::MVP::MarkovModel</text>
<text text-anchor="middle" x="89.5" y="-60.9" font-family="Helvetica,sans-Serif" font-size="12.00">::TEST_CLASS</text>
</a>
</g>
</g>
<!-- Node1&#45;&gt;Node4 -->
<g id="edge3" class="edge">
<title>Node1&#45;&gt;Node4</title>
<path fill="none" stroke="midnightblue" d="M205.72,-84.77C196.85,-83.67 187.87,-82.56 179.05,-81.46"/>
<polygon fill="midnightblue" stroke="midnightblue" points="205.34,-88.24 215.69,-86 206.2,-81.3 205.34,-88.24"/>
</g>
<!-- Node5 -->
<g id="node5" class="node">
<title>Node5</title>
<g id="a_node5"><a xlink:href="namespace_testing_1_1_markov_model.html#a2f641a67bea75fff3e4c55c74926132f" target="_top" xlink:title="Test class for rest of Edge cases.">
<polygon fill="none" stroke="black" points="17,-0.5 17,-34.5 162,-34.5 162,-0.5 17,-0.5"/>
<text text-anchor="start" x="25" y="-20.9" font-family="Helvetica,sans-Serif" font-size="12.00">Testing::MarkovModel</text>
<text text-anchor="middle" x="89.5" y="-7.9" font-family="Helvetica,sans-Serif" font-size="12.00">::TEST_CLASS</text>
</a>
</g>
</g>
<!-- Node1&#45;&gt;Node5 -->
<g id="edge4" class="edge">
<title>Node1&#45;&gt;Node5</title>
<path fill="none" stroke="midnightblue" d="M268.85,-81.84C244.55,-70.85 210.01,-55.83 179,-44.5 169.65,-41.08 159.63,-37.74 149.82,-34.63"/>
<polygon fill="midnightblue" stroke="midnightblue" points="267.4,-85.02 277.95,-85.98 270.3,-78.65 267.4,-85.02"/>
</g>
</g>
</svg>
