<?xml version="1.0" encoding="UTF-8" standalone="no"?>
<!DOCTYPE svg PUBLIC "-//W3C//DTD SVG 1.1//EN"
 "http://www.w3.org/Graphics/SVG/1.1/DTD/svg11.dtd">
<!-- Generated by graphviz version 2.43.0 (0)
 -->
<!-- Title: Python.Markopy.BaseCLI Pages: 1 -->
<!--zoomable 1352 -->
<svg id="main" version="1.1" xmlns="http://www.w3.org/2000/svg" xmlns:xlink="http://www.w3.org/1999/xlink" xml:space="preserve" onload="init(evt)">
<style type="text/css"><![CDATA[
.edge:hover path { stroke: red; }
.edge:hover polygon { stroke: red; fill: red; }
]]></style>
<script type="text/javascript"><![CDATA[
var edges = document.getElementsByTagName('g');
if (edges && edges.length) {
  for (var i=0;i<edges.length;i++) {
    if (edges[i].id.substr(0,4)=='edge') {
      edges[i].setAttribute('class','edge');
    }
  }
}
]]></script>
        <defs>
                <circle id="rim" cx="0" cy="0" r="7"/>
                <circle id="rim2" cx="0" cy="0" r="3.5"/>
                <g id="zoomPlus">
                        <use xlink:href="#rim" fill="#404040">
                                <set attributeName="fill" to="#808080" begin="zoomplus.mouseover" end="zoomplus.mouseout"/>
                        </use>
                        <path d="M-4,0h8M0,-4v8" fill="none" stroke="white" stroke-width="1.5" pointer-events="none"/>
                </g>
                <g id="zoomMin">
                        <use xlink:href="#rim" fill="#404040">
                                <set attributeName="fill" to="#808080" begin="zoomminus.mouseover" end="zoomminus.mouseout"/>
                        </use>
                        <path d="M-4,0h8" fill="none" stroke="white" stroke-width="1.5" pointer-events="none"/>
                </g>
                <g id="dirArrow">
                        <path fill="none" stroke="white" stroke-width="1.5" d="M0,-3.0v7 M-2.5,-0.5L0,-3.0L2.5,-0.5"/>
                </g>
               <g id="resetDef">
                       <use xlink:href="#rim2" fill="#404040">
                               <set attributeName="fill" to="#808080" begin="reset.mouseover" end="reset.mouseout"/>
                       </use>
               </g>
        </defs>

<script type="text/javascript">
var viewWidth = 575;
var viewHeight = 1352;
var sectionId = 'dynsection-0';
</script>
<script xlink:href="svgpan.js"/>
<svg id="graph" class="graph">
<g id="viewport">
<title>Python.Markopy.BaseCLI</title>
<!-- Node1 -->
<g id="node1" class="node">
<title>Node1</title>
<g id="a_node1"><a xlink:title="Base CLI class to handle user interactions">
<polygon fill="#bfbfbf" stroke="black" points="301,-877.5 301,-1343.5 506,-1343.5 506,-877.5 301,-877.5"/>
<text text-anchor="middle" x="403.5" y="-1329.9" font-family="Helvetica,sans-Serif" font-size="12.00">Python.Markopy.BaseCLI</text>
<polyline fill="none" stroke="black" points="301,-1322.5 506,-1322.5 "/>
<text text-anchor="start" x="309" y="-1308.9" font-family="Helvetica,sans-Serif" font-size="12.00">+ parser</text>
<text text-anchor="start" x="309" y="-1295.9" font-family="Helvetica,sans-Serif" font-size="12.00">+ print_help</text>
<text text-anchor="start" x="309" y="-1282.9" font-family="Helvetica,sans-Serif" font-size="12.00">+ model</text>
<text text-anchor="start" x="309" y="-1269.9" font-family="Helvetica,sans-Serif" font-size="12.00">+ args</text>
<polyline fill="none" stroke="black" points="301,-1262.5 506,-1262.5 "/>
<text text-anchor="start" x="309" y="-1248.9" font-family="Helvetica,sans-Serif" font-size="12.00">+ def __init__(self,</text>
<text text-anchor="start" x="309" y="-1235.9" font-family="Helvetica,sans-Serif" font-size="12.00"> bool add_help=True)</text>
<text text-anchor="start" x="309" y="-1222.9" font-family="Helvetica,sans-Serif" font-size="12.00">+ def add_arguments(self)</text>
<text text-anchor="start" x="309" y="-1209.9" font-family="Helvetica,sans-Serif" font-size="12.00">+ def help(self)</text>
<text text-anchor="start" x="309" y="-1196.9" font-family="Helvetica,sans-Serif" font-size="12.00">+ def parse(self)</text>
<text text-anchor="start" x="309" y="-1183.9" font-family="Helvetica,sans-Serif" font-size="12.00">+ def init_post_arguments</text>
<text text-anchor="start" x="309" y="-1170.9" font-family="Helvetica,sans-Serif" font-size="12.00">(self)</text>
<text text-anchor="start" x="309" y="-1157.9" font-family="Helvetica,sans-Serif" font-size="12.00">+ def parse_arguments</text>
<text text-anchor="start" x="309" y="-1144.9" font-family="Helvetica,sans-Serif" font-size="12.00">(self)</text>
<text text-anchor="start" x="309" y="-1131.9" font-family="Helvetica,sans-Serif" font-size="12.00">+ def import_model(self,</text>
<text text-anchor="start" x="309" y="-1118.9" font-family="Helvetica,sans-Serif" font-size="12.00"> str filename)</text>
<text text-anchor="start" x="309" y="-1105.9" font-family="Helvetica,sans-Serif" font-size="12.00">+ def train(self, str</text>
<text text-anchor="start" x="309" y="-1092.9" font-family="Helvetica,sans-Serif" font-size="12.00"> dataset, str seperator,</text>
<text text-anchor="start" x="309" y="-1079.9" font-family="Helvetica,sans-Serif" font-size="12.00"> str output, bool output</text>
<text text-anchor="start" x="309" y="-1066.9" font-family="Helvetica,sans-Serif" font-size="12.00">_forced=False, bool bulk=False)</text>
<text text-anchor="start" x="309" y="-1053.9" font-family="Helvetica,sans-Serif" font-size="12.00">+ def export(self, str</text>
<text text-anchor="start" x="309" y="-1040.9" font-family="Helvetica,sans-Serif" font-size="12.00"> filename)</text>
<text text-anchor="start" x="309" y="-1027.9" font-family="Helvetica,sans-Serif" font-size="12.00">+ def generate(self,</text>
<text text-anchor="start" x="309" y="-1014.9" font-family="Helvetica,sans-Serif" font-size="12.00"> str wordlist, bool</text>
<text text-anchor="start" x="309" y="-1001.9" font-family="Helvetica,sans-Serif" font-size="12.00"> bulk=False)</text>
<text text-anchor="start" x="309" y="-988.9" font-family="Helvetica,sans-Serif" font-size="12.00">+ def process(self)</text>
<text text-anchor="start" x="309" y="-975.9" font-family="Helvetica,sans-Serif" font-size="12.00">+ def check_import_path</text>
<text text-anchor="start" x="309" y="-962.9" font-family="Helvetica,sans-Serif" font-size="12.00">(str filename)</text>
<text text-anchor="start" x="309" y="-949.9" font-family="Helvetica,sans-Serif" font-size="12.00">+ def check_corpus_path</text>
<text text-anchor="start" x="309" y="-936.9" font-family="Helvetica,sans-Serif" font-size="12.00">(str filename)</text>
<text text-anchor="start" x="309" y="-923.9" font-family="Helvetica,sans-Serif" font-size="12.00">+ def check_export_path</text>
<text text-anchor="start" x="309" y="-910.9" font-family="Helvetica,sans-Serif" font-size="12.00">(str filename)</text>
<text text-anchor="start" x="309" y="-897.9" font-family="Helvetica,sans-Serif" font-size="12.00">&#45; def _generate(self,</text>
<text text-anchor="start" x="309" y="-884.9" font-family="Helvetica,sans-Serif" font-size="12.00"> str wordlist)</text>
</a>
</g>
</g>
<!-- Node2 -->
<g id="node2" class="node">
<title>Node2</title>
<g id="a_node2"><a xlink:href="class_python_1_1_markopy_1_1_abstract_generation_model_c_l_i.html" target="_top" xlink:title="abstract class for generation capable models">
<polygon fill="none" stroke="black" points="101,-764.5 101,-840.5 334,-840.5 334,-764.5 101,-764.5"/>
<text text-anchor="start" x="109" y="-826.9" font-family="Helvetica,sans-Serif" font-size="12.00">Python.Markopy.AbstractGeneration</text>
<text text-anchor="middle" x="217.5" y="-813.9" font-family="Helvetica,sans-Serif" font-size="12.00">ModelCLI</text>
<polyline fill="none" stroke="black" points="101,-806.5 334,-806.5 "/>
<text text-anchor="middle" x="217.5" y="-792.9" font-family="Helvetica,sans-Serif" font-size="12.00"> </text>
<polyline fill="none" stroke="black" points="101,-785.5 334,-785.5 "/>
<text text-anchor="start" x="109" y="-771.9" font-family="Helvetica,sans-Serif" font-size="12.00">+ def add_arguments(self)</text>
</a>
</g>
</g>
<!-- Node1&#45;&gt;Node2 -->
<g id="edge1" class="edge">
<title>Node1&#45;&gt;Node2</title>
<path fill="none" stroke="midnightblue" d="M295.61,-932C274.56,-897.37 254.55,-864.46 240.06,-840.61"/>
<polygon fill="none" stroke="midnightblue" points="292.79,-934.11 300.98,-940.84 298.78,-930.47 292.79,-934.11"/>
</g>
<!-- Node5 -->
<g id="node5" class="node">
<title>Node5</title>
<g id="a_node5"><a xlink:href="class_python_1_1_markopy_1_1_abstract_training_model_c_l_i.html" target="_top" xlink:title="abstract class for training capable models">
<polygon fill="none" stroke="black" points="297.5,-612.5 297.5,-688.5 509.5,-688.5 509.5,-612.5 297.5,-612.5"/>
<text text-anchor="start" x="305.5" y="-674.9" font-family="Helvetica,sans-Serif" font-size="12.00">Python.Markopy.AbstractTraining</text>
<text text-anchor="middle" x="403.5" y="-661.9" font-family="Helvetica,sans-Serif" font-size="12.00">ModelCLI</text>
<polyline fill="none" stroke="black" points="297.5,-654.5 509.5,-654.5 "/>
<text text-anchor="middle" x="403.5" y="-640.9" font-family="Helvetica,sans-Serif" font-size="12.00"> </text>
<polyline fill="none" stroke="black" points="297.5,-633.5 509.5,-633.5 "/>
<text text-anchor="start" x="305.5" y="-619.9" font-family="Helvetica,sans-Serif" font-size="12.00">+ def add_arguments(self)</text>
</a>
</g>
</g>
<!-- Node1&#45;&gt;Node5 -->
<g id="edge11" class="edge">
<title>Node1&#45;&gt;Node5</title>
<path fill="none" stroke="midnightblue" d="M403.5,-867.17C403.5,-797.34 403.5,-729.17 403.5,-688.75"/>
<polygon fill="none" stroke="midnightblue" points="400,-867.48 403.5,-877.48 407,-867.48 400,-867.48"/>
</g>
<!-- Node7 -->
<g id="node7" class="node">
<title>Node7</title>
<g id="a_node7"><a xlink:href="class_python_1_1_markopy_1_1_markopy_c_l_i.html" target="_top" xlink:title="Top level model selector for Markopy CLI.">
<polygon fill="none" stroke="black" points="222.5,-152.5 222.5,-345.5 408.5,-345.5 408.5,-152.5 222.5,-152.5"/>
<text text-anchor="middle" x="315.5" y="-331.9" font-family="Helvetica,sans-Serif" font-size="12.00">Python.Markopy.MarkopyCLI</text>
<polyline fill="none" stroke="black" points="222.5,-324.5 408.5,-324.5 "/>
<text text-anchor="start" x="230.5" y="-310.9" font-family="Helvetica,sans-Serif" font-size="12.00">+ args</text>
<text text-anchor="start" x="230.5" y="-297.9" font-family="Helvetica,sans-Serif" font-size="12.00">+ cli</text>
<polyline fill="none" stroke="black" points="222.5,-290.5 408.5,-290.5 "/>
<text text-anchor="start" x="230.5" y="-276.9" font-family="Helvetica,sans-Serif" font-size="12.00">+ def __init__(self,</text>
<text text-anchor="start" x="230.5" y="-263.9" font-family="Helvetica,sans-Serif" font-size="12.00"> add_help=False)</text>
<text text-anchor="start" x="230.5" y="-250.9" font-family="Helvetica,sans-Serif" font-size="12.00">+ def add_arguments(self)</text>
<text text-anchor="start" x="230.5" y="-237.9" font-family="Helvetica,sans-Serif" font-size="12.00">+ def help(self)</text>
<text text-anchor="start" x="230.5" y="-224.9" font-family="Helvetica,sans-Serif" font-size="12.00">+ def parse(self)</text>
<text text-anchor="start" x="230.5" y="-211.9" font-family="Helvetica,sans-Serif" font-size="12.00">+ def init_post_arguments</text>
<text text-anchor="start" x="230.5" y="-198.9" font-family="Helvetica,sans-Serif" font-size="12.00">(self)</text>
<text text-anchor="start" x="230.5" y="-185.9" font-family="Helvetica,sans-Serif" font-size="12.00">+ def parse_fail(self)</text>
<text text-anchor="start" x="230.5" y="-172.9" font-family="Helvetica,sans-Serif" font-size="12.00">+ def process(self)</text>
<text text-anchor="start" x="230.5" y="-159.9" font-family="Helvetica,sans-Serif" font-size="12.00">+ def stub(self)</text>
</a>
</g>
</g>
<!-- Node1&#45;&gt;Node7 -->
<g id="edge12" class="edge">
<title>Node1&#45;&gt;Node7</title>
<path fill="none" stroke="midnightblue" d="M509.69,-882.23C563.52,-732.07 601.74,-535.42 518.5,-382 494.89,-338.49 450.06,-307.08 408.51,-285.84"/>
<polygon fill="none" stroke="midnightblue" points="506.25,-881.46 506.12,-892.05 512.83,-883.84 506.25,-881.46"/>
</g>
<!-- Node3 -->
<g id="node3" class="node">
<title>Node3</title>
<g id="a_node3"><a xlink:href="class_python_1_1_cuda_markopy_1_1_cuda_model_matrix_c_l_i.html" target="_top" xlink:title="Python CLI wrapper for CudaModelMatrix.">
<polygon fill="none" stroke="black" points="0,-382.5 0,-536.5 213,-536.5 213,-382.5 0,-382.5"/>
<text text-anchor="start" x="8" y="-522.9" font-family="Helvetica,sans-Serif" font-size="12.00">Python.CudaMarkopy.CudaModel</text>
<text text-anchor="middle" x="106.5" y="-509.9" font-family="Helvetica,sans-Serif" font-size="12.00">MatrixCLI</text>
<polyline fill="none" stroke="black" points="0,-502.5 213,-502.5 "/>
<text text-anchor="start" x="8" y="-488.9" font-family="Helvetica,sans-Serif" font-size="12.00">+ model</text>
<text text-anchor="start" x="8" y="-475.9" font-family="Helvetica,sans-Serif" font-size="12.00">+ bInfinite</text>
<polyline fill="none" stroke="black" points="0,-468.5 213,-468.5 "/>
<text text-anchor="start" x="8" y="-454.9" font-family="Helvetica,sans-Serif" font-size="12.00">+ def __init__(self)</text>
<text text-anchor="start" x="8" y="-441.9" font-family="Helvetica,sans-Serif" font-size="12.00">+ def add_arguments(self)</text>
<text text-anchor="start" x="8" y="-428.9" font-family="Helvetica,sans-Serif" font-size="12.00">+ def init_post_arguments</text>
<text text-anchor="start" x="8" y="-415.9" font-family="Helvetica,sans-Serif" font-size="12.00">(self)</text>
<text text-anchor="start" x="8" y="-402.9" font-family="Helvetica,sans-Serif" font-size="12.00">&#45; def _generate(self,</text>
<text text-anchor="start" x="8" y="-389.9" font-family="Helvetica,sans-Serif" font-size="12.00"> str wordlist)</text>
</a>
</g>
</g>
<!-- Node2&#45;&gt;Node3 -->
<g id="edge2" class="edge">
<title>Node2&#45;&gt;Node3</title>
<path fill="none" stroke="midnightblue" d="M92.48,-759.11C80.69,-750.53 70.26,-740.27 62.5,-728 26.33,-670.82 44.66,-593.51 67.68,-536.71"/>
<polygon fill="none" stroke="midnightblue" points="90.61,-762.06 100.85,-764.78 94.54,-756.27 90.61,-762.06"/>
</g>
<!-- Node2&#45;&gt;Node5 -->
<g id="edge4" class="edge">
<title>Node2&#45;&gt;Node5</title>
<path fill="none" stroke="midnightblue" d="M271.37,-758.05C298.62,-736.08 331.34,-709.69 357.41,-688.67"/>
<polygon fill="none" stroke="midnightblue" points="269.06,-755.42 263.48,-764.42 273.46,-760.87 269.06,-755.42"/>
</g>
<!-- Node8 -->
<g id="node8" class="node">
<title>Node8</title>
<g id="a_node8"><a xlink:href="class_python_1_1_markopy_1_1_model_matrix_c_l_i.html" target="_top" xlink:title="Extension of Python.Markopy.Base.BaseCLI for Markov::API::ModelMatrix.">
<polygon fill="none" stroke="black" points="71.5,-573.5 71.5,-727.5 279.5,-727.5 279.5,-573.5 71.5,-573.5"/>
<text text-anchor="middle" x="175.5" y="-713.9" font-family="Helvetica,sans-Serif" font-size="12.00">Python.Markopy.ModelMatrixCLI</text>
<polyline fill="none" stroke="black" points="71.5,-706.5 279.5,-706.5 "/>
<text text-anchor="start" x="79.5" y="-692.9" font-family="Helvetica,sans-Serif" font-size="12.00">+ model</text>
<text text-anchor="start" x="79.5" y="-679.9" font-family="Helvetica,sans-Serif" font-size="12.00">+ fileIO</text>
<polyline fill="none" stroke="black" points="71.5,-672.5 279.5,-672.5 "/>
<text text-anchor="start" x="79.5" y="-658.9" font-family="Helvetica,sans-Serif" font-size="12.00">+ def __init__(self,</text>
<text text-anchor="start" x="79.5" y="-645.9" font-family="Helvetica,sans-Serif" font-size="12.00"> bool add_help=True)</text>
<text text-anchor="start" x="79.5" y="-632.9" font-family="Helvetica,sans-Serif" font-size="12.00">+ def add_arguments(self)</text>
<text text-anchor="start" x="79.5" y="-619.9" font-family="Helvetica,sans-Serif" font-size="12.00">+ def init_post_arguments</text>
<text text-anchor="start" x="79.5" y="-606.9" font-family="Helvetica,sans-Serif" font-size="12.00">(self)</text>
<text text-anchor="start" x="79.5" y="-593.9" font-family="Helvetica,sans-Serif" font-size="12.00">&#45; def _generate(self,</text>
<text text-anchor="start" x="79.5" y="-580.9" font-family="Helvetica,sans-Serif" font-size="12.00"> str wordlist)</text>
</a>
</g>
</g>
<!-- Node2&#45;&gt;Node8 -->
<g id="edge8" class="edge">
<title>Node2&#45;&gt;Node8</title>
<path fill="none" stroke="midnightblue" d="M204.38,-754.65C201.98,-746.07 199.42,-736.92 196.85,-727.74"/>
<polygon fill="none" stroke="midnightblue" points="201.05,-755.74 207.12,-764.42 207.79,-753.85 201.05,-755.74"/>
</g>
<!-- Node4 -->
<g id="node4" class="node">
<title>Node4</title>
<g id="a_node4"><a xlink:href="class_python_1_1_cuda_markopy_1_1_cuda_markopy_c_l_i.html" target="_top" xlink:title="CUDA extension to MarkopyCLI.">
<polygon fill="none" stroke="black" points="123.5,-0.5 123.5,-115.5 371.5,-115.5 371.5,-0.5 123.5,-0.5"/>
<text text-anchor="middle" x="247.5" y="-101.9" font-family="Helvetica,sans-Serif" font-size="12.00">Python.CudaMarkopy.CudaMarkopyCLI</text>
<polyline fill="none" stroke="black" points="123.5,-94.5 371.5,-94.5 "/>
<text text-anchor="start" x="131.5" y="-80.9" font-family="Helvetica,sans-Serif" font-size="12.00">+ args</text>
<text text-anchor="start" x="131.5" y="-67.9" font-family="Helvetica,sans-Serif" font-size="12.00">+ cli</text>
<polyline fill="none" stroke="black" points="123.5,-60.5 371.5,-60.5 "/>
<text text-anchor="start" x="131.5" y="-46.9" font-family="Helvetica,sans-Serif" font-size="12.00">+ None __init__(self)</text>
<text text-anchor="start" x="131.5" y="-33.9" font-family="Helvetica,sans-Serif" font-size="12.00">+ def help(self)</text>
<text text-anchor="start" x="131.5" y="-20.9" font-family="Helvetica,sans-Serif" font-size="12.00">+ def parse(self)</text>
<text text-anchor="start" x="131.5" y="-7.9" font-family="Helvetica,sans-Serif" font-size="12.00">+ def parse_fail(self)</text>
</a>
</g>
</g>
<!-- Node3&#45;&gt;Node4 -->
<g id="edge3" class="edge">
<title>Node3&#45;&gt;Node4</title>
<path fill="none" stroke="midnightblue" d="M136.14,-372.52C157.43,-311.02 186.95,-226.31 213.5,-152 217.72,-140.18 222.3,-127.54 226.69,-115.51"/>
<polygon fill="none" stroke="midnightblue" points="132.76,-371.59 132.79,-382.19 139.37,-373.88 132.76,-371.59"/>
</g>
<!-- Node6 -->
<g id="node6" class="node">
<title>Node6</title>
<g id="a_node6"><a xlink:href="class_python_1_1_markopy_1_1_markov_passwords_c_l_i.html" target="_top" xlink:title="Extension of Python.Markopy.Base.BaseCLI for Markov::API::MarkovPasswords.">
<polygon fill="none" stroke="black" points="270,-408.5 270,-510.5 509,-510.5 509,-408.5 270,-408.5"/>
<text text-anchor="middle" x="389.5" y="-496.9" font-family="Helvetica,sans-Serif" font-size="12.00">Python.Markopy.MarkovPasswordsCLI</text>
<polyline fill="none" stroke="black" points="270,-489.5 509,-489.5 "/>
<text text-anchor="start" x="278" y="-475.9" font-family="Helvetica,sans-Serif" font-size="12.00">+ model</text>
<polyline fill="none" stroke="black" points="270,-468.5 509,-468.5 "/>
<text text-anchor="start" x="278" y="-454.9" font-family="Helvetica,sans-Serif" font-size="12.00">+ def __init__(self,</text>
<text text-anchor="start" x="278" y="-441.9" font-family="Helvetica,sans-Serif" font-size="12.00"> bool add_help=True)</text>
<text text-anchor="start" x="278" y="-428.9" font-family="Helvetica,sans-Serif" font-size="12.00">&#45; def _generate(self,</text>
<text text-anchor="start" x="278" y="-415.9" font-family="Helvetica,sans-Serif" font-size="12.00"> wordlist)</text>
</a>
</g>
</g>
<!-- Node5&#45;&gt;Node6 -->
<g id="edge5" class="edge">
<title>Node5&#45;&gt;Node6</title>
<path fill="none" stroke="midnightblue" d="M399.97,-601.87C397.91,-574.03 395.31,-538.92 393.21,-510.65"/>
<polygon fill="none" stroke="midnightblue" points="396.5,-602.45 400.73,-612.16 403.49,-601.93 396.5,-602.45"/>
</g>
<!-- Node6&#45;&gt;Node7 -->
<g id="edge6" class="edge">
<title>Node6&#45;&gt;Node7</title>
<path fill="none" stroke="midnightblue" d="M368.31,-398.8C362.45,-382.28 355.93,-363.92 349.54,-345.9"/>
<polygon fill="none" stroke="midnightblue" points="365.04,-400.04 371.68,-408.29 371.63,-397.7 365.04,-400.04"/>
</g>
<!-- Node7&#45;&gt;Node4 -->
<g id="edge7" class="edge">
<title>Node7&#45;&gt;Node4</title>
<path fill="none" stroke="midnightblue" d="M277.62,-142.71C274.29,-133.46 271.01,-124.34 267.91,-115.72"/>
<polygon fill="none" stroke="midnightblue" points="274.42,-144.17 281.1,-152.39 281.01,-141.8 274.42,-144.17"/>
</g>
<!-- Node8&#45;&gt;Node3 -->
<g id="edge9" class="edge">
<title>Node8&#45;&gt;Node3</title>
<path fill="none" stroke="midnightblue" d="M144.29,-564.01C140.97,-554.91 137.6,-545.69 134.32,-536.71"/>
<polygon fill="none" stroke="midnightblue" points="141.02,-565.25 147.73,-573.44 147.59,-562.85 141.02,-565.25"/>
</g>
<!-- Node8&#45;&gt;Node7 -->
<g id="edge10" class="edge">
<title>Node8&#45;&gt;Node7</title>
<path fill="none" stroke="midnightblue" d="M212.81,-563.88C216.27,-554.87 219.57,-545.8 222.5,-537 244.92,-469.6 239.33,-449.49 261.5,-382 265.4,-370.12 269.87,-357.79 274.52,-345.65"/>
<polygon fill="none" stroke="midnightblue" points="209.54,-562.64 209.16,-573.22 216.06,-565.19 209.54,-562.64"/>
</g>
</g>
</svg>
        <g id="navigator" transform="translate(0 0)" fill="#404254">
                <rect fill="#f2f5e9" fill-opacity="0.5" stroke="#606060" stroke-width=".5" x="0" y="0" width="60" height="60"/>
                <use id="zoomplus" xlink:href="#zoomPlus" x="17" y="9" onmousedown="handleZoom(evt,'in')"/>
                <use id="zoomminus" xlink:href="#zoomMin" x="42" y="9" onmousedown="handleZoom(evt,'out')"/>
                <use id="reset" xlink:href="#resetDef" x="30" y="36" onmousedown="handleReset()"/>
                <g id="arrowUp" xlink:href="#dirArrow" transform="translate(30 24)" onmousedown="handlePan(0,-1)">
                  <use xlink:href="#rim" fill="#404040">
                        <set attributeName="fill" to="#808080" begin="arrowUp.mouseover" end="arrowUp.mouseout"/>
                  </use>
                  <path fill="none" stroke="white" stroke-width="1.5" d="M0,-3.0v7 M-2.5,-0.5L0,-3.0L2.5,-0.5"/>
                </g>
                <g id="arrowRight" xlink:href="#dirArrow" transform="rotate(90) translate(36 -43)" onmousedown="handlePan(1,0)">
                  <use xlink:href="#rim" fill="#404040">
                        <set attributeName="fill" to="#808080" begin="arrowRight.mouseover" end="arrowRight.mouseout"/>
                  </use>
                  <path fill="none" stroke="white" stroke-width="1.5" d="M0,-3.0v7 M-2.5,-0.5L0,-3.0L2.5,-0.5"/>
                </g>
                <g id="arrowDown" xlink:href="#dirArrow" transform="rotate(180) translate(-30 -48)" onmousedown="handlePan(0,1)">
                  <use xlink:href="#rim" fill="#404040">
                        <set attributeName="fill" to="#808080" begin="arrowDown.mouseover" end="arrowDown.mouseout"/>
                  </use>
                  <path fill="none" stroke="white" stroke-width="1.5" d="M0,-3.0v7 M-2.5,-0.5L0,-3.0L2.5,-0.5"/>
                </g>
                <g id="arrowLeft" xlink:href="#dirArrow" transform="rotate(270) translate(-36 17)" onmousedown="handlePan(-1,0)">
                  <use xlink:href="#rim" fill="#404040">
                        <set attributeName="fill" to="#808080" begin="arrowLeft.mouseover" end="arrowLeft.mouseout"/>
                  </use>
                  <path fill="none" stroke="white" stroke-width="1.5" d="M0,-3.0v7 M-2.5,-0.5L0,-3.0L2.5,-0.5"/>
                </g>
        </g>
        <svg viewBox="0 0 15 15" width="100%" height="30px" preserveAspectRatio="xMaxYMin meet">
         <g id="arrow_out" transform="scale(0.3 0.3)">
          <a xlink:href="class_python_1_1_markopy_1_1_base_c_l_i__inherit__graph_org.svg" target="_base">
           <rect id="button" ry="5" rx="5" y="6" x="6" height="38" width="38"
                fill="#f2f5e9" fill-opacity="0.5" stroke="#606060" stroke-width="1.0"/>
           <path id="arrow"
             d="M 11.500037,31.436501 C 11.940474,20.09759 22.043105,11.32322 32.158766,21.979434 L 37.068811,17.246167 C 37.068811,17.246167 37.088388,32 37.088388,32 L 22.160133,31.978069 C 22.160133,31.978069 26.997745,27.140456 26.997745,27.140456 C 18.528582,18.264221 13.291696,25.230495 11.500037,31.436501 z"
             style="fill:#404040;"/>
          </a>
         </g>
        </svg>
</svg>
