<?xml version="1.0" encoding="UTF-8" standalone="no"?>
<!DOCTYPE svg PUBLIC "-//W3C//DTD SVG 1.1//EN"
 "http://www.w3.org/Graphics/SVG/1.1/DTD/svg11.dtd">
<!-- Generated by graphviz version 2.43.0 (0)
 -->
<!-- Title: base.BaseCLI.train Pages: 1 -->
<svg width="551pt" height="163pt"
 viewBox="0.00 0.00 551.00 163.00" xmlns="http://www.w3.org/2000/svg" xmlns:xlink="http://www.w3.org/1999/xlink">
<g id="graph0" class="graph" transform="scale(1 1) rotate(0) translate(4 159)">
<title>base.BaseCLI.train</title>
<!-- Node1 -->
<g id="node1" class="node">
<title>Node1</title>
<g id="a_node1"><a xlink:title=" ">
<polygon fill="#bfbfbf" stroke="black" points="0,-50 0,-71 128,-71 128,-50 0,-50"/>
<text text-anchor="middle" x="64" y="-57.4" font-family="Helvetica,sans-Serif" font-size="12.00">base.BaseCLI.train</text>
</a>
</g>
</g>
<!-- Node2 -->
<g id="node2" class="node">
<title>Node2</title>
<g id="a_node2"><a xlink:href="classbase_1_1_base_c_l_i.html#ac5ed1fa9866d7b2ae8942cedaf30f1c4" target="_top" xlink:title=" ">
<polygon fill="none" stroke="black" points="166,-120.5 166,-154.5 302,-154.5 302,-120.5 166,-120.5"/>
<text text-anchor="start" x="174" y="-140.9" font-family="Helvetica,sans-Serif" font-size="12.00">base.BaseCLI.check</text>
<text text-anchor="middle" x="234" y="-127.9" font-family="Helvetica,sans-Serif" font-size="12.00">_corpus_path</text>
</a>
</g>
</g>
<!-- Node1&#45;&gt;Node2 -->
<g id="edge1" class="edge">
<title>Node1&#45;&gt;Node2</title>
<path fill="none" stroke="midnightblue" d="M84.03,-71.14C103.73,-81.95 135.55,-98.86 164,-111.5 167.88,-113.22 171.92,-114.94 176,-116.62"/>
<polygon fill="midnightblue" stroke="midnightblue" points="174.98,-119.98 185.57,-120.45 177.59,-113.48 174.98,-119.98"/>
</g>
<!-- Node3 -->
<g id="node3" class="node">
<title>Node3</title>
<g id="a_node3"><a xlink:href="classbase_1_1_base_c_l_i.html#a9cadc9a6993e1f53418c8fe9403ac941" target="_top" xlink:title=" ">
<polygon fill="none" stroke="black" points="166,-67.5 166,-101.5 302,-101.5 302,-67.5 166,-67.5"/>
<text text-anchor="start" x="174" y="-87.9" font-family="Helvetica,sans-Serif" font-size="12.00">base.BaseCLI.check</text>
<text text-anchor="middle" x="234" y="-74.9" font-family="Helvetica,sans-Serif" font-size="12.00">_export_path</text>
</a>
</g>
</g>
<!-- Node1&#45;&gt;Node3 -->
<g id="edge2" class="edge">
<title>Node1&#45;&gt;Node3</title>
<path fill="none" stroke="midnightblue" d="M128.03,-69.5C137.13,-70.8 146.57,-72.15 155.9,-73.49"/>
<polygon fill="midnightblue" stroke="midnightblue" points="155.57,-76.97 165.96,-74.92 156.56,-70.04 155.57,-76.97"/>
</g>
<!-- Node4 -->
<g id="node4" class="node">
<title>Node4</title>
<g id="a_node4"><a xlink:href="classbase_1_1_base_c_l_i.html#a61612a5271d78046d11f000ae47b5ece" target="_top" xlink:title=" ">
<polygon fill="none" stroke="black" points="164,-27 164,-48 304,-48 304,-27 164,-27"/>
<text text-anchor="middle" x="234" y="-34.4" font-family="Helvetica,sans-Serif" font-size="12.00">base.BaseCLI.export</text>
</a>
</g>
</g>
<!-- Node1&#45;&gt;Node4 -->
<g id="edge3" class="edge">
<title>Node1&#45;&gt;Node4</title>
<path fill="none" stroke="midnightblue" d="M128.03,-51.87C136.47,-50.72 145.2,-49.52 153.86,-48.33"/>
<polygon fill="midnightblue" stroke="midnightblue" points="154.55,-51.77 163.98,-46.95 153.6,-44.84 154.55,-51.77"/>
</g>
<!-- Node5 -->
<g id="node5" class="node">
<title>Node5</title>
<g id="a_node5"><a xlink:href="class_markov_1_1_g_u_i_1_1_markov_passwords_g_u_i.html#a99619a46f49b909fafeaa6ac8076a333" target="_top" xlink:title=" ">
<polygon fill="none" stroke="black" points="340,-0.5 340,-34.5 543,-34.5 543,-0.5 340,-0.5"/>
<text text-anchor="start" x="348" y="-20.9" font-family="Helvetica,sans-Serif" font-size="12.00">Markov::GUI::MarkovPasswords</text>
<text text-anchor="middle" x="441.5" y="-7.9" font-family="Helvetica,sans-Serif" font-size="12.00">GUI::model</text>
</a>
</g>
</g>
<!-- Node1&#45;&gt;Node5 -->
<g id="edge5" class="edge">
<title>Node1&#45;&gt;Node5</title>
<path fill="none" stroke="midnightblue" d="M83.22,-49.86C102.53,-39.25 134.28,-23.68 164,-17.5 217.87,-6.31 278.92,-5.14 329.93,-7.26"/>
<polygon fill="midnightblue" stroke="midnightblue" points="329.84,-10.76 339.99,-7.72 330.16,-3.76 329.84,-10.76"/>
</g>
<!-- Node4&#45;&gt;Node5 -->
<g id="edge4" class="edge">
<title>Node4&#45;&gt;Node5</title>
<path fill="none" stroke="midnightblue" d="M304,-30.78C312.39,-29.97 321.11,-29.12 329.91,-28.26"/>
<polygon fill="midnightblue" stroke="midnightblue" points="330.26,-31.75 339.87,-27.29 329.58,-24.78 330.26,-31.75"/>
</g>
</g>
</svg>
