<?xml version="1.0" encoding="UTF-8" standalone="no"?>
<!DOCTYPE svg PUBLIC "-//W3C//DTD SVG 1.1//EN"
 "http://www.w3.org/Graphics/SVG/1.1/DTD/svg11.dtd">
<!-- Generated by graphviz version 2.43.0 (0)
 -->
<!-- Title: Markov::GUI::menu Pages: 1 -->
<svg width="190pt" height="224pt"
 viewBox="0.00 0.00 190.00 224.00" xmlns="http://www.w3.org/2000/svg" xmlns:xlink="http://www.w3.org/1999/xlink">
<g id="graph0" class="graph" transform="scale(1 1) rotate(0) translate(4 220)">
<title>Markov::GUI::menu</title>
<!-- Node1 -->
<g id="node1" class="node">
<title>Node1</title>
<g id="a_node1"><a xlink:title="QT Menu class.">
<polygon fill="#bfbfbf" stroke="black" points="12,-0.5 12,-102.5 182,-102.5 182,-0.5 12,-0.5"/>
<text text-anchor="middle" x="97" y="-88.9" font-family="Helvetica,sans-Serif" font-size="12.00">Markov::GUI::menu</text>
<polyline fill="none" stroke="black" points="12,-81.5 182,-81.5 "/>
<text text-anchor="middle" x="97" y="-67.9" font-family="Helvetica,sans-Serif" font-size="12.00"> </text>
<polyline fill="none" stroke="black" points="12,-60.5 182,-60.5 "/>
<text text-anchor="start" x="20" y="-46.9" font-family="Helvetica,sans-Serif" font-size="12.00">+ menu(QWidget *parent</text>
<text text-anchor="start" x="20" y="-33.9" font-family="Helvetica,sans-Serif" font-size="12.00">=Q_NULLPTR)</text>
<text text-anchor="start" x="20" y="-20.9" font-family="Helvetica,sans-Serif" font-size="12.00">+ void about()</text>
<text text-anchor="start" x="20" y="-7.9" font-family="Helvetica,sans-Serif" font-size="12.00">+ void visualization()</text>
</a>
</g>
</g>
<!-- Node2 -->
<g id="node2" class="node">
<title>Node2</title>
<g id="a_node2"><a xlink:href="class_q_main_window.html" target="_top" xlink:title=" ">
<polygon fill="none" stroke="black" points="0,-152.5 0,-215.5 102,-215.5 102,-152.5 0,-152.5"/>
<text text-anchor="middle" x="51" y="-201.9" font-family="Helvetica,sans-Serif" font-size="12.00">QMainWindow</text>
<polyline fill="none" stroke="black" points="0,-194.5 102,-194.5 "/>
<text text-anchor="middle" x="51" y="-180.9" font-family="Helvetica,sans-Serif" font-size="12.00"> </text>
<polyline fill="none" stroke="black" points="0,-173.5 102,-173.5 "/>
<text text-anchor="middle" x="51" y="-159.9" font-family="Helvetica,sans-Serif" font-size="12.00"> </text>
</a>
</g>
</g>
<!-- Node2&#45;&gt;Node1 -->
<g id="edge1" class="edge">
<title>Node2&#45;&gt;Node1</title>
<path fill="none" stroke="midnightblue" d="M65.24,-142.61C69.7,-129.94 74.68,-115.81 79.35,-102.56"/>
<polygon fill="none" stroke="midnightblue" points="61.81,-141.81 61.78,-152.4 68.41,-144.14 61.81,-141.81"/>
</g>
<!-- Node3 -->
<g id="node3" class="node">
<title>Node3</title>
<g id="a_node3"><a xlink:title=" ">
<polygon fill="none" stroke="#bfbfbf" points="120.5,-152.5 120.5,-215.5 167.5,-215.5 167.5,-152.5 120.5,-152.5"/>
<text text-anchor="middle" x="144" y="-201.9" font-family="Helvetica,sans-Serif" font-size="12.00">main</text>
<polyline fill="none" stroke="#bfbfbf" points="120.5,-194.5 167.5,-194.5 "/>
<text text-anchor="middle" x="144" y="-180.9" font-family="Helvetica,sans-Serif" font-size="12.00"> </text>
<polyline fill="none" stroke="#bfbfbf" points="120.5,-173.5 167.5,-173.5 "/>
<text text-anchor="middle" x="144" y="-159.9" font-family="Helvetica,sans-Serif" font-size="12.00"> </text>
</a>
</g>
</g>
<!-- Node3&#45;&gt;Node1 -->
<g id="edge2" class="edge">
<title>Node3&#45;&gt;Node1</title>
<path fill="none" stroke="#404040" d="M132.98,-152.4C128.85,-140.92 123.99,-127.43 119.2,-114.14"/>
<polygon fill="none" stroke="#404040" points="119.1,-113.85 113.3,-109.56 115.03,-102.56 120.83,-106.85 119.1,-113.85"/>
<text text-anchor="middle" x="135.5" y="-124.4" font-family="Helvetica,sans-Serif" font-size="12.00"> &#45;ui</text>
</g>
</g>
</svg>
