<?xml version="1.0" encoding="UTF-8" standalone="no"?>
<!DOCTYPE svg PUBLIC "-//W3C//DTD SVG 1.1//EN"
 "http://www.w3.org/Graphics/SVG/1.1/DTD/svg11.dtd">
<!-- Generated by graphviz version 2.43.0 (0)
 -->
<!-- Title: Markov::GUI::Generate Pages: 1 -->
<svg width="202pt" height="237pt"
 viewBox="0.00 0.00 201.50 237.00" xmlns="http://www.w3.org/2000/svg" xmlns:xlink="http://www.w3.org/1999/xlink">
<g id="graph0" class="graph" transform="scale(1 1) rotate(0) translate(4 233)">
<title>Markov::GUI::Generate</title>
<!-- Node1 -->
<g id="node1" class="node">
<title>Node1</title>
<g id="a_node1"><a xlink:title="QT Generation page class.">
<polygon fill="#bfbfbf" stroke="black" points="27,-0.5 27,-115.5 181,-115.5 181,-0.5 27,-0.5"/>
<text text-anchor="middle" x="104" y="-101.9" font-family="Helvetica,sans-Serif" font-size="12.00">Markov::GUI::Generate</text>
<polyline fill="none" stroke="black" points="27,-94.5 181,-94.5 "/>
<text text-anchor="middle" x="104" y="-80.9" font-family="Helvetica,sans-Serif" font-size="12.00"> </text>
<polyline fill="none" stroke="black" points="27,-73.5 181,-73.5 "/>
<text text-anchor="start" x="35" y="-59.9" font-family="Helvetica,sans-Serif" font-size="12.00">+ Generate()</text>
<text text-anchor="start" x="35" y="-46.9" font-family="Helvetica,sans-Serif" font-size="12.00">+ home()</text>
<text text-anchor="start" x="35" y="-33.9" font-family="Helvetica,sans-Serif" font-size="12.00">+ generation()</text>
<text text-anchor="start" x="35" y="-20.9" font-family="Helvetica,sans-Serif" font-size="12.00">+ train()</text>
<text text-anchor="start" x="35" y="-7.9" font-family="Helvetica,sans-Serif" font-size="12.00">+ vis()</text>
</a>
</g>
</g>
<!-- Node2 -->
<g id="node2" class="node">
<title>Node2</title>
<g id="a_node2"><a xlink:href="class_q_main_window.html" target="_top" xlink:title=" ">
<polygon fill="none" stroke="black" points="0,-165.5 0,-228.5 102,-228.5 102,-165.5 0,-165.5"/>
<text text-anchor="middle" x="51" y="-214.9" font-family="Helvetica,sans-Serif" font-size="12.00">QMainWindow</text>
<polyline fill="none" stroke="black" points="0,-207.5 102,-207.5 "/>
<text text-anchor="middle" x="51" y="-193.9" font-family="Helvetica,sans-Serif" font-size="12.00"> </text>
<polyline fill="none" stroke="black" points="0,-186.5 102,-186.5 "/>
<text text-anchor="middle" x="51" y="-172.9" font-family="Helvetica,sans-Serif" font-size="12.00"> </text>
</a>
</g>
</g>
<!-- Node2&#45;&gt;Node1 -->
<g id="edge1" class="edge">
<title>Node2&#45;&gt;Node1</title>
<path fill="none" stroke="midnightblue" d="M66.64,-155.56C71.5,-143.02 76.94,-128.96 82.13,-115.53"/>
<polygon fill="none" stroke="midnightblue" points="63.24,-154.67 62.89,-165.25 69.77,-157.19 63.24,-154.67"/>
</g>
<!-- Node3 -->
<g id="node3" class="node">
<title>Node3</title>
<g id="a_node3"><a xlink:title=" ">
<polygon fill="none" stroke="#bfbfbf" points="120.5,-165.5 120.5,-228.5 193.5,-228.5 193.5,-165.5 120.5,-165.5"/>
<text text-anchor="middle" x="157" y="-214.9" font-family="Helvetica,sans-Serif" font-size="12.00">Generate</text>
<polyline fill="none" stroke="#bfbfbf" points="120.5,-207.5 193.5,-207.5 "/>
<text text-anchor="middle" x="157" y="-193.9" font-family="Helvetica,sans-Serif" font-size="12.00"> </text>
<polyline fill="none" stroke="#bfbfbf" points="120.5,-186.5 193.5,-186.5 "/>
<text text-anchor="middle" x="157" y="-172.9" font-family="Helvetica,sans-Serif" font-size="12.00"> </text>
</a>
</g>
</g>
<!-- Node3&#45;&gt;Node1 -->
<g id="edge2" class="edge">
<title>Node3&#45;&gt;Node1</title>
<path fill="none" stroke="#404040" d="M145.11,-165.25C140.67,-153.79 135.44,-140.28 130.23,-126.8"/>
<polygon fill="none" stroke="#404040" points="130.2,-126.72 124.3,-122.57 125.87,-115.53 131.76,-119.68 130.2,-126.72"/>
<text text-anchor="middle" x="145.5" y="-137.4" font-family="Helvetica,sans-Serif" font-size="12.00"> &#45;ui</text>
</g>
</g>
</svg>
