<?xml version="1.0" encoding="UTF-8" standalone="no"?>
<!DOCTYPE svg PUBLIC "-//W3C//DTD SVG 1.1//EN"
 "http://www.w3.org/Graphics/SVG/1.1/DTD/svg11.dtd">
<!-- Generated by graphviz version 2.43.0 (0)
 -->
<!-- Title: Markov::GUI::Train::train Pages: 1 -->
<svg width="851pt" height="173pt"
 viewBox="0.00 0.00 851.00 172.50" xmlns="http://www.w3.org/2000/svg" xmlns:xlink="http://www.w3.org/1999/xlink">
<g id="graph0" class="graph" transform="scale(1 1) rotate(0) translate(4 168.5)">
<title>Markov::GUI::Train::train</title>
<!-- Node1 -->
<g id="node1" class="node">
<title>Node1</title>
<g id="a_node1"><a xlink:title=" ">
<polygon fill="#bfbfbf" stroke="black" points="0,-83.5 0,-117.5 126,-117.5 126,-83.5 0,-83.5"/>
<text text-anchor="start" x="8" y="-103.9" font-family="Helvetica,sans-Serif" font-size="12.00">Markov::GUI::Train</text>
<text text-anchor="middle" x="63" y="-90.9" font-family="Helvetica,sans-Serif" font-size="12.00">::train</text>
</a>
</g>
</g>
<!-- Node2 -->
<g id="node2" class="node">
<title>Node2</title>
<g id="a_node2"><a xlink:href="class_markov_1_1_a_p_i_1_1_markov_passwords.html#a2fd4423ae3850e258dcb6b11a7feb9b2" target="_top" xlink:title="Train the model with the dataset file.">
<polygon fill="none" stroke="black" points="162,-83.5 162,-117.5 362,-117.5 362,-83.5 162,-83.5"/>
<text text-anchor="start" x="170" y="-103.9" font-family="Helvetica,sans-Serif" font-size="12.00">Markov::API::MarkovPasswords</text>
<text text-anchor="middle" x="262" y="-90.9" font-family="Helvetica,sans-Serif" font-size="12.00">::Train</text>
</a>
</g>
</g>
<!-- Node1&#45;&gt;Node2 -->
<g id="edge1" class="edge">
<title>Node1&#45;&gt;Node2</title>
<path fill="none" stroke="midnightblue" d="M126.06,-100.5C134.25,-100.5 142.83,-100.5 151.52,-100.5"/>
<polygon fill="midnightblue" stroke="midnightblue" points="151.76,-104 161.76,-100.5 151.76,-97 151.76,-104"/>
</g>
<!-- Node3 -->
<g id="node3" class="node">
<title>Node3</title>
<g id="a_node3"><a xlink:href="markov_passwords_8cpp.html#a3b33e6f48f5d988f336e915c5346eb95" target="_top" xlink:title=" ">
<polygon fill="none" stroke="black" points="458.5,-143 458.5,-164 537.5,-164 537.5,-143 458.5,-143"/>
<text text-anchor="middle" x="498" y="-150.4" font-family="Helvetica,sans-Serif" font-size="12.00">intHandler</text>
</a>
</g>
</g>
<!-- Node2&#45;&gt;Node3 -->
<g id="edge2" class="edge">
<title>Node2&#45;&gt;Node3</title>
<path fill="none" stroke="midnightblue" d="M330.51,-117.57C352.04,-122.86 375.98,-128.59 398,-133.5 414.28,-137.13 432.14,-140.83 448.15,-144.04"/>
<polygon fill="midnightblue" stroke="midnightblue" points="447.88,-147.55 458.37,-146.07 449.25,-140.69 447.88,-147.55"/>
</g>
<!-- Node4 -->
<g id="node4" class="node">
<title>Node4</title>
<g id="a_node4"><a xlink:href="class_markov_1_1_a_p_i_1_1_concurrency_1_1_thread_shared_list_handler.html#a08d468aa4146a30f4176bc91a40ed292" target="_top" xlink:title="Construct the Thread Handler with a filename.">
<polygon fill="none" stroke="black" points="410,-77 410,-124 586,-124 586,-77 410,-77"/>
<text text-anchor="start" x="418" y="-110.4" font-family="Helvetica,sans-Serif" font-size="12.00">Markov::API::Concurrency</text>
<text text-anchor="start" x="418" y="-97.4" font-family="Helvetica,sans-Serif" font-size="12.00">::ThreadSharedListHandler</text>
<text text-anchor="middle" x="498" y="-84.4" font-family="Helvetica,sans-Serif" font-size="12.00">::ThreadSharedListHandler</text>
</a>
</g>
</g>
<!-- Node2&#45;&gt;Node4 -->
<g id="edge3" class="edge">
<title>Node2&#45;&gt;Node4</title>
<path fill="none" stroke="midnightblue" d="M362.24,-100.5C374.6,-100.5 387.23,-100.5 399.56,-100.5"/>
<polygon fill="midnightblue" stroke="midnightblue" points="399.83,-104 409.83,-100.5 399.83,-97 399.83,-104"/>
</g>
<!-- Node5 -->
<g id="node5" class="node">
<title>Node5</title>
<g id="a_node5"><a xlink:href="class_markov_1_1_a_p_i_1_1_markov_passwords.html#a5f51b0fdb75101b797f38b08da84848e" target="_top" xlink:title="A single thread invoked by the Train function.">
<polygon fill="none" stroke="black" points="398,-23.5 398,-57.5 598,-57.5 598,-23.5 398,-23.5"/>
<text text-anchor="start" x="406" y="-43.9" font-family="Helvetica,sans-Serif" font-size="12.00">Markov::API::MarkovPasswords</text>
<text text-anchor="middle" x="498" y="-30.9" font-family="Helvetica,sans-Serif" font-size="12.00">::TrainThread</text>
</a>
</g>
</g>
<!-- Node2&#45;&gt;Node5 -->
<g id="edge4" class="edge">
<title>Node2&#45;&gt;Node5</title>
<path fill="none" stroke="midnightblue" d="M329.43,-83.47C357.84,-76.18 391.17,-67.64 420.59,-60.09"/>
<polygon fill="midnightblue" stroke="midnightblue" points="421.59,-63.45 430.4,-57.58 419.85,-56.67 421.59,-63.45"/>
</g>
<!-- Node6 -->
<g id="node6" class="node">
<title>Node6</title>
<g id="a_node6"><a xlink:href="class_markov_1_1_model.html#ad252913f83fa3eb14cc3f9f92c5ee37a" target="_top" xlink:title="Adjust the model with a single string.">
<polygon fill="none" stroke="black" points="649,-54 649,-75 828,-75 828,-54 649,-54"/>
<text text-anchor="middle" x="738.5" y="-61.4" font-family="Helvetica,sans-Serif" font-size="12.00">Markov::Model::AdjustEdge</text>
</a>
</g>
</g>
<!-- Node5&#45;&gt;Node6 -->
<g id="edge5" class="edge">
<title>Node5&#45;&gt;Node6</title>
<path fill="none" stroke="midnightblue" d="M598.07,-50.47C611.43,-51.81 625.14,-53.19 638.5,-54.54"/>
<polygon fill="midnightblue" stroke="midnightblue" points="638.34,-58.04 648.64,-55.56 639.04,-51.07 638.34,-58.04"/>
</g>
<!-- Node7 -->
<g id="node7" class="node">
<title>Node7</title>
<g id="a_node7"><a xlink:href="class_markov_1_1_a_p_i_1_1_concurrency_1_1_thread_shared_list_handler.html#a068e1a9ff477de23a44c10230df416a5" target="_top" xlink:title="Read the next line from the file.">
<polygon fill="none" stroke="black" points="634,-0.5 634,-34.5 843,-34.5 843,-0.5 634,-0.5"/>
<text text-anchor="start" x="642" y="-20.9" font-family="Helvetica,sans-Serif" font-size="12.00">Markov::API::Concurrency</text>
<text text-anchor="middle" x="738.5" y="-7.9" font-family="Helvetica,sans-Serif" font-size="12.00">::ThreadSharedListHandler::next</text>
</a>
</g>
</g>
<!-- Node5&#45;&gt;Node7 -->
<g id="edge6" class="edge">
<title>Node5&#45;&gt;Node7</title>
<path fill="none" stroke="midnightblue" d="M598.07,-30.95C606.54,-30.13 615.14,-29.3 623.7,-28.47"/>
<polygon fill="midnightblue" stroke="midnightblue" points="624.11,-31.95 633.73,-27.51 623.44,-24.98 624.11,-31.95"/>
</g>
</g>
</svg>
