<?xml version="1.0" encoding="UTF-8" standalone="no"?>
<!DOCTYPE svg PUBLIC "-//W3C//DTD SVG 1.1//EN"
 "http://www.w3.org/Graphics/SVG/1.1/DTD/svg11.dtd">
<!-- Generated by graphviz version 2.43.0 (0)
 -->
<!-- Title: Markov::API::CUDA::CUDADeviceController::CudaMemcpy2DToFlat Pages: 1 -->
<svg width="350pt" height="74pt"
 viewBox="0.00 0.00 350.00 74.00" xmlns="http://www.w3.org/2000/svg" xmlns:xlink="http://www.w3.org/1999/xlink">
<g id="graph0" class="graph" transform="scale(1 1) rotate(0) translate(4 70)">
<title>Markov::API::CUDA::CUDADeviceController::CudaMemcpy2DToFlat</title>
<!-- Node1 -->
<g id="node1" class="node">
<title>Node1</title>
<g id="a_node1"><a xlink:title="Memcpy a 2D array in device space after flattening.">
<polygon fill="#bfbfbf" stroke="black" points="0,-0.5 0,-47.5 156,-47.5 156,-0.5 0,-0.5"/>
<text text-anchor="start" x="8" y="-33.9" font-family="Helvetica,sans-Serif" font-size="12.00">Markov::API::CUDA::</text>
<text text-anchor="start" x="8" y="-20.9" font-family="Helvetica,sans-Serif" font-size="12.00">CUDADeviceController</text>
<text text-anchor="middle" x="78" y="-7.9" font-family="Helvetica,sans-Serif" font-size="12.00">::CudaMemcpy2DToFlat</text>
</a>
</g>
</g>
<!-- Node2 -->
<g id="node2" class="node">
<title>Node2</title>
<g id="a_node2"><a xlink:href="class_markov_1_1_a_p_i_1_1_c_u_d_a_1_1_c_u_d_a_device_controller.html#abb56db7c9437eb4d71c390fa2b22c738" target="_top" xlink:title="Both malloc and memcpy a 2D array into device VRAM.">
<polygon fill="none" stroke="black" points="192,-0.5 192,-47.5 342,-47.5 342,-0.5 192,-0.5"/>
<text text-anchor="start" x="200" y="-33.9" font-family="Helvetica,sans-Serif" font-size="12.00">Markov::API::CUDA::</text>
<text text-anchor="start" x="200" y="-20.9" font-family="Helvetica,sans-Serif" font-size="12.00">CUDADeviceController</text>
<text text-anchor="middle" x="267" y="-7.9" font-family="Helvetica,sans-Serif" font-size="12.00">::CudaMigrate2DFlat</text>
</a>
</g>
</g>
<!-- Node1&#45;&gt;Node2 -->
<g id="edge1" class="edge">
<title>Node1&#45;&gt;Node2</title>
<path fill="none" stroke="midnightblue" d="M156.14,-24C164.51,-24 173.06,-24 181.51,-24"/>
<polygon fill="midnightblue" stroke="midnightblue" points="181.75,-27.5 191.75,-24 181.75,-20.5 181.75,-27.5"/>
</g>
<!-- Node2&#45;&gt;Node2 -->
<g id="edge2" class="edge">
<title>Node2&#45;&gt;Node2</title>
<path fill="none" stroke="midnightblue" d="M232.06,-47.75C229.65,-57.63 241.3,-66 267,-66 283.47,-66 294.16,-62.56 299.09,-57.5"/>
<polygon fill="midnightblue" stroke="midnightblue" points="302.5,-58.33 301.94,-47.75 295.78,-56.36 302.5,-58.33"/>
</g>
</g>
</svg>
