<?xml version="1.0" encoding="UTF-8" standalone="no"?>
<!DOCTYPE svg PUBLIC "-//W3C//DTD SVG 1.1//EN"
 "http://www.w3.org/Graphics/SVG/1.1/DTD/svg11.dtd">
<!-- Generated by graphviz version 2.43.0 (0)
 -->
<!-- Title: Markov::Random::Marsaglia::random Pages: 1 -->
<svg width="895pt" height="43pt"
 viewBox="0.00 0.00 895.00 43.00" xmlns="http://www.w3.org/2000/svg" xmlns:xlink="http://www.w3.org/1999/xlink">
<g id="graph0" class="graph" transform="scale(1 1) rotate(0) translate(4 39)">
<title>Markov::Random::Marsaglia::random</title>
<!-- Node1 -->
<g id="node1" class="node">
<title>Node1</title>
<g id="a_node1"><a xlink:title="Generate Random Number.">
<polygon fill="#bfbfbf" stroke="black" points="703,-0.5 703,-34.5 887,-34.5 887,-0.5 703,-0.5"/>
<text text-anchor="start" x="711" y="-20.9" font-family="Helvetica,sans-Serif" font-size="12.00">Markov::Random::Marsaglia</text>
<text text-anchor="middle" x="795" y="-7.9" font-family="Helvetica,sans-Serif" font-size="12.00">::random</text>
</a>
</g>
</g>
<!-- Node2 -->
<g id="node2" class="node">
<title>Node2</title>
<g id="a_node2"><a xlink:href="class_markov_1_1_a_p_i_1_1_model_matrix.html#a96f2885aac69b49b21c66ad5a32514b9" target="_top" xlink:title="A single thread of a single partition of FastRandomWalk.">
<polygon fill="none" stroke="black" points="498,-0.5 498,-34.5 667,-34.5 667,-0.5 498,-0.5"/>
<text text-anchor="start" x="506" y="-20.9" font-family="Helvetica,sans-Serif" font-size="12.00">Markov::API::ModelMatrix</text>
<text text-anchor="middle" x="582.5" y="-7.9" font-family="Helvetica,sans-Serif" font-size="12.00">::FastRandomWalkThread</text>
</a>
</g>
</g>
<!-- Node1&#45;&gt;Node2 -->
<g id="edge1" class="edge">
<title>Node1&#45;&gt;Node2</title>
<path fill="none" stroke="midnightblue" d="M692.82,-17.5C684.21,-17.5 675.57,-17.5 667.11,-17.5"/>
<polygon fill="midnightblue" stroke="midnightblue" points="692.9,-21 702.9,-17.5 692.9,-14 692.9,-21"/>
</g>
<!-- Node3 -->
<g id="node3" class="node">
<title>Node3</title>
<g id="a_node3"><a xlink:href="class_markov_1_1_a_p_i_1_1_model_matrix.html#ad775d2e9c35e6f78c53f796df11405b5" target="_top" xlink:title="A single partition of FastRandomWalk event.">
<polygon fill="none" stroke="black" points="288,-0.5 288,-34.5 462,-34.5 462,-0.5 288,-0.5"/>
<text text-anchor="start" x="296" y="-20.9" font-family="Helvetica,sans-Serif" font-size="12.00">Markov::API::ModelMatrix</text>
<text text-anchor="middle" x="375" y="-7.9" font-family="Helvetica,sans-Serif" font-size="12.00">::FastRandomWalkPartition</text>
</a>
</g>
</g>
<!-- Node2&#45;&gt;Node3 -->
<g id="edge2" class="edge">
<title>Node2&#45;&gt;Node3</title>
<path fill="none" stroke="midnightblue" d="M487.91,-17.5C479.34,-17.5 470.68,-17.5 462.18,-17.5"/>
<polygon fill="midnightblue" stroke="midnightblue" points="487.92,-21 497.92,-17.5 487.92,-14 487.92,-21"/>
</g>
<!-- Node4 -->
<g id="node4" class="node">
<title>Node4</title>
<g id="a_node4"><a xlink:href="class_markov_1_1_a_p_i_1_1_model_matrix.html#a9e5a9885d48e95b9f5d1ed082d83db24" target="_top" xlink:title="Random walk on the Matrix&#45;reduced Markov::Model.">
<polygon fill="none" stroke="black" points="83,-0.5 83,-34.5 252,-34.5 252,-0.5 83,-0.5"/>
<text text-anchor="start" x="91" y="-20.9" font-family="Helvetica,sans-Serif" font-size="12.00">Markov::API::ModelMatrix</text>
<text text-anchor="middle" x="167.5" y="-7.9" font-family="Helvetica,sans-Serif" font-size="12.00">::FastRandomWalk</text>
</a>
</g>
</g>
<!-- Node3&#45;&gt;Node4 -->
<g id="edge3" class="edge">
<title>Node3&#45;&gt;Node4</title>
<path fill="none" stroke="midnightblue" d="M277.49,-17.5C269.05,-17.5 260.56,-17.5 252.23,-17.5"/>
<polygon fill="midnightblue" stroke="midnightblue" points="277.74,-21 287.74,-17.5 277.74,-14 277.74,-21"/>
</g>
<!-- Node5 -->
<g id="node5" class="node">
<title>Node5</title>
<g id="a_node5"><a xlink:href="src_2main_8cpp.html#a3c04138a5bfe5d72780bb7e82a18e627" target="_top" xlink:title="Launch CLI tool.">
<polygon fill="none" stroke="black" points="0,-7 0,-28 47,-28 47,-7 0,-7"/>
<text text-anchor="middle" x="23.5" y="-14.4" font-family="Helvetica,sans-Serif" font-size="12.00">main</text>
</a>
</g>
</g>
<!-- Node4&#45;&gt;Node5 -->
<g id="edge4" class="edge">
<title>Node4&#45;&gt;Node5</title>
<path fill="none" stroke="midnightblue" d="M72.4,-17.5C63.12,-17.5 54.43,-17.5 47.06,-17.5"/>
<polygon fill="midnightblue" stroke="midnightblue" points="72.67,-21 82.67,-17.5 72.67,-14 72.67,-21"/>
</g>
</g>
</svg>
