<?xml version="1.0" encoding="UTF-8" standalone="no"?>
<!DOCTYPE svg PUBLIC "-//W3C//DTD SVG 1.1//EN"
 "http://www.w3.org/Graphics/SVG/1.1/DTD/svg11.dtd">
<!-- Generated by graphviz version 2.43.0 (0)
 -->
<!-- Title: Markov::API::ModelMatrix::Train Pages: 1 -->
<!--zoomable 413 -->
<svg id="main" version="1.1" xmlns="http://www.w3.org/2000/svg" xmlns:xlink="http://www.w3.org/1999/xlink" xml:space="preserve" onload="init(evt)">
<style type="text/css"><![CDATA[
.edge:hover path { stroke: red; }
.edge:hover polygon { stroke: red; fill: red; }
]]></style>
<script type="text/javascript"><![CDATA[
var edges = document.getElementsByTagName('g');
if (edges && edges.length) {
  for (var i=0;i<edges.length;i++) {
    if (edges[i].id.substr(0,4)=='edge') {
      edges[i].setAttribute('class','edge');
    }
  }
}
]]></script>
        <defs>
                <circle id="rim" cx="0" cy="0" r="7"/>
                <circle id="rim2" cx="0" cy="0" r="3.5"/>
                <g id="zoomPlus">
                        <use xlink:href="#rim" fill="#404040">
                                <set attributeName="fill" to="#808080" begin="zoomplus.mouseover" end="zoomplus.mouseout"/>
                        </use>
                        <path d="M-4,0h8M0,-4v8" fill="none" stroke="white" stroke-width="1.5" pointer-events="none"/>
                </g>
                <g id="zoomMin">
                        <use xlink:href="#rim" fill="#404040">
                                <set attributeName="fill" to="#808080" begin="zoomminus.mouseover" end="zoomminus.mouseout"/>
                        </use>
                        <path d="M-4,0h8" fill="none" stroke="white" stroke-width="1.5" pointer-events="none"/>
                </g>
                <g id="dirArrow">
                        <path fill="none" stroke="white" stroke-width="1.5" d="M0,-3.0v7 M-2.5,-0.5L0,-3.0L2.5,-0.5"/>
                </g>
               <g id="resetDef">
                       <use xlink:href="#rim2" fill="#404040">
                               <set attributeName="fill" to="#808080" begin="reset.mouseover" end="reset.mouseout"/>
                       </use>
               </g>
        </defs>

<script type="text/javascript">
var viewWidth = 905;
var viewHeight = 413;
var sectionId = 'dynsection-20';
</script>
<script xlink:href="svgpan.js"/>
<svg id="graph" class="graph">
<g id="viewport">
<title>Markov::API::ModelMatrix::Train</title>
<!-- Node1 -->
<g id="node1" class="node">
<title>Node1</title>
<g id="a_node1"><a xlink:title="Train the model with the dataset file.">
<polygon fill="#bfbfbf" stroke="black" points="0,-196.5 0,-230.5 169,-230.5 169,-196.5 0,-196.5"/>
<text text-anchor="start" x="8" y="-216.9" font-family="Helvetica,sans-Serif" font-size="12.00">Markov::API::ModelMatrix</text>
<text text-anchor="middle" x="84.5" y="-203.9" font-family="Helvetica,sans-Serif" font-size="12.00">::Train</text>
</a>
</g>
</g>
<!-- Node2 -->
<g id="node2" class="node">
<title>Node2</title>
<g id="a_node2"><a xlink:href="class_markov_1_1_a_p_i_1_1_model_matrix.html#aafb5809808b9b0450a0bc98740121b5f" target="_top" xlink:title="Construct the related Matrix data for the model.">
<polygon fill="none" stroke="black" points="220.5,-256.5 220.5,-290.5 389.5,-290.5 389.5,-256.5 220.5,-256.5"/>
<text text-anchor="start" x="228.5" y="-276.9" font-family="Helvetica,sans-Serif" font-size="12.00">Markov::API::ModelMatrix</text>
<text text-anchor="middle" x="305" y="-263.9" font-family="Helvetica,sans-Serif" font-size="12.00">::ConstructMatrix</text>
</a>
</g>
</g>
<!-- Node1&#45;&gt;Node2 -->
<g id="edge1" class="edge">
<title>Node1&#45;&gt;Node2</title>
<path fill="none" stroke="midnightblue" d="M147.53,-230.53C173.82,-237.75 204.64,-246.21 231.93,-253.71"/>
<polygon fill="midnightblue" stroke="midnightblue" points="231.25,-257.15 241.82,-256.42 233.1,-250.4 231.25,-257.15"/>
</g>
<!-- Node9 -->
<g id="node9" class="node">
<title>Node9</title>
<g id="a_node9"><a xlink:href="class_markov_1_1_a_p_i_1_1_model_matrix.html#a0f95257e1344225233ab49602cd9551c" target="_top" xlink:title="Deallocate matrix and make it ready for re&#45;construction.">
<polygon fill="none" stroke="black" points="220.5,-196.5 220.5,-230.5 389.5,-230.5 389.5,-196.5 220.5,-196.5"/>
<text text-anchor="start" x="228.5" y="-216.9" font-family="Helvetica,sans-Serif" font-size="12.00">Markov::API::ModelMatrix</text>
<text text-anchor="middle" x="305" y="-203.9" font-family="Helvetica,sans-Serif" font-size="12.00">::DeallocateMatrix</text>
</a>
</g>
</g>
<!-- Node1&#45;&gt;Node9 -->
<g id="edge8" class="edge">
<title>Node1&#45;&gt;Node9</title>
<path fill="none" stroke="midnightblue" d="M169.04,-213.5C182.39,-213.5 196.27,-213.5 209.84,-213.5"/>
<polygon fill="midnightblue" stroke="midnightblue" points="210.14,-217 220.14,-213.5 210.14,-210 210.14,-217"/>
</g>
<!-- Node10 -->
<g id="node10" class="node">
<title>Node10</title>
<g id="a_node10"><a xlink:href="class_markov_1_1_a_p_i_1_1_markov_passwords.html#a2fd4423ae3850e258dcb6b11a7feb9b2" target="_top" xlink:title="Train the model with the dataset file.">
<polygon fill="none" stroke="black" points="205,-110.5 205,-144.5 405,-144.5 405,-110.5 205,-110.5"/>
<text text-anchor="start" x="213" y="-130.9" font-family="Helvetica,sans-Serif" font-size="12.00">Markov::API::MarkovPasswords</text>
<text text-anchor="middle" x="305" y="-117.9" font-family="Helvetica,sans-Serif" font-size="12.00">::Train</text>
</a>
</g>
</g>
<!-- Node1&#45;&gt;Node10 -->
<g id="edge9" class="edge">
<title>Node1&#45;&gt;Node10</title>
<path fill="none" stroke="midnightblue" d="M128.93,-196.41C164,-182.6 213.51,-163.12 250.93,-148.39"/>
<polygon fill="midnightblue" stroke="midnightblue" points="252.63,-151.48 260.65,-144.56 250.07,-144.97 252.63,-151.48"/>
</g>
<!-- Node3 -->
<g id="node3" class="node">
<title>Node3</title>
<g id="a_node3"><a xlink:href="class_markov_1_1_edge.html#a2b1e5a6e6f81502cd8ac6b20ed38b677" target="_top" xlink:title="return edge&#39;s EdgeWeight.">
<polygon fill="none" stroke="black" points="458.5,-383 458.5,-404 634.5,-404 634.5,-383 458.5,-383"/>
<text text-anchor="middle" x="546.5" y="-390.4" font-family="Helvetica,sans-Serif" font-size="12.00">Markov::Edge::EdgeWeight</text>
</a>
</g>
</g>
<!-- Node2&#45;&gt;Node3 -->
<g id="edge2" class="edge">
<title>Node2&#45;&gt;Node3</title>
<path fill="none" stroke="midnightblue" d="M323.54,-290.65C347.81,-313.35 393.99,-352.88 441,-373.5 446.77,-376.03 452.86,-378.24 459.08,-380.18"/>
<polygon fill="midnightblue" stroke="midnightblue" points="458.36,-383.61 468.94,-382.99 460.29,-376.88 458.36,-383.61"/>
</g>
<!-- Node4 -->
<g id="node4" class="node">
<title>Node4</title>
<g id="a_node4"><a xlink:href="class_markov_1_1_model.html#a71f6df805e340ce96e9dc4ee4ebc6537" target="_top" xlink:title="Return starter Node.">
<polygon fill="none" stroke="black" points="472,-343 472,-364 621,-364 621,-343 472,-343"/>
<text text-anchor="middle" x="546.5" y="-350.4" font-family="Helvetica,sans-Serif" font-size="12.00">Markov::Model::Nodes</text>
</a>
</g>
</g>
<!-- Node2&#45;&gt;Node4 -->
<g id="edge3" class="edge">
<title>Node2&#45;&gt;Node4</title>
<path fill="none" stroke="midnightblue" d="M338.74,-290.6C365.58,-303.99 404.9,-322.19 441,-333.5 449.67,-336.22 458.87,-338.63 468.08,-340.75"/>
<polygon fill="midnightblue" stroke="midnightblue" points="467.52,-344.21 478.04,-342.94 469.02,-337.38 467.52,-344.21"/>
</g>
<!-- Node5 -->
<g id="node5" class="node">
<title>Node5</title>
<g id="a_node5"><a xlink:href="class_markov_1_1_node.html#ac7cce56376f2a00764f64a0194cbb498" target="_top" xlink:title="Return character representation of this node.">
<polygon fill="none" stroke="black" points="461,-303 461,-324 632,-324 632,-303 461,-303"/>
<text text-anchor="middle" x="546.5" y="-310.4" font-family="Helvetica,sans-Serif" font-size="12.00">Markov::Node::NodeValue</text>
</a>
</g>
</g>
<!-- Node2&#45;&gt;Node5 -->
<g id="edge4" class="edge">
<title>Node2&#45;&gt;Node5</title>
<path fill="none" stroke="midnightblue" d="M389.77,-287.49C416.68,-291.98 446.27,-296.93 472.35,-301.28"/>
<polygon fill="midnightblue" stroke="midnightblue" points="472.1,-304.79 482.54,-302.99 473.26,-297.89 472.1,-304.79"/>
</g>
<!-- Node6 -->
<g id="node6" class="node">
<title>Node6</title>
<g id="a_node6"><a xlink:href="class_markov_1_1_edge.html#a2e7d14e46631c85c84f6f8f1dd2949cd" target="_top" xlink:title="return edge&#39;s RightNode">
<polygon fill="none" stroke="black" points="462.5,-263 462.5,-284 630.5,-284 630.5,-263 462.5,-263"/>
<text text-anchor="middle" x="546.5" y="-270.4" font-family="Helvetica,sans-Serif" font-size="12.00">Markov::Edge::RightNode</text>
</a>
</g>
</g>
<!-- Node2&#45;&gt;Node6 -->
<g id="edge5" class="edge">
<title>Node2&#45;&gt;Node6</title>
<path fill="none" stroke="midnightblue" d="M389.77,-273.5C409.94,-273.5 431.61,-273.5 452.18,-273.5"/>
<polygon fill="midnightblue" stroke="midnightblue" points="452.19,-277 462.19,-273.5 452.19,-270 452.19,-277"/>
</g>
<!-- Node7 -->
<g id="node7" class="node">
<title>Node7</title>
<g id="a_node7"><a xlink:href="class_markov_1_1_model.html#a35cb15a14d034f3365b9d2d3efa1ffc0" target="_top" xlink:title="Return starter Node.">
<polygon fill="none" stroke="black" points="454,-223 454,-244 639,-244 639,-223 454,-223"/>
<text text-anchor="middle" x="546.5" y="-230.4" font-family="Helvetica,sans-Serif" font-size="12.00">Markov::Model::StarterNode</text>
</a>
</g>
</g>
<!-- Node2&#45;&gt;Node7 -->
<g id="edge6" class="edge">
<title>Node2&#45;&gt;Node7</title>
<path fill="none" stroke="midnightblue" d="M389.77,-259.51C416.68,-255.02 446.27,-250.07 472.35,-245.72"/>
<polygon fill="midnightblue" stroke="midnightblue" points="473.26,-249.11 482.54,-244.01 472.1,-242.21 473.26,-249.11"/>
</g>
<!-- Node8 -->
<g id="node8" class="node">
<title>Node8</title>
<g id="a_node8"><a xlink:href="class_markov_1_1_node.html#a60166d8f501c016de104f48e46bff223" target="_top" xlink:title="return total edge weights">
<polygon fill="none" stroke="black" points="441,-183 441,-204 652,-204 652,-183 441,-183"/>
<text text-anchor="middle" x="546.5" y="-190.4" font-family="Helvetica,sans-Serif" font-size="12.00">Markov::Node::TotalEdgeWeights</text>
</a>
</g>
</g>
<!-- Node2&#45;&gt;Node8 -->
<g id="edge7" class="edge">
<title>Node2&#45;&gt;Node8</title>
<path fill="none" stroke="midnightblue" d="M367.48,-256.43C380.2,-251.96 393.29,-246.64 405,-240.5 422.72,-231.22 422.71,-221.59 441,-213.5 446.71,-210.98 452.73,-208.77 458.89,-206.84"/>
<polygon fill="midnightblue" stroke="midnightblue" points="460,-210.16 468.64,-204.03 458.06,-203.44 460,-210.16"/>
</g>
<!-- Node11 -->
<g id="node11" class="node">
<title>Node11</title>
<g id="a_node11"><a xlink:href="markov_passwords_8cpp.html#a3b33e6f48f5d988f336e915c5346eb95" target="_top" xlink:title=" ">
<polygon fill="none" stroke="black" points="507,-143 507,-164 586,-164 586,-143 507,-143"/>
<text text-anchor="middle" x="546.5" y="-150.4" font-family="Helvetica,sans-Serif" font-size="12.00">intHandler</text>
</a>
</g>
</g>
<!-- Node10&#45;&gt;Node11 -->
<g id="edge10" class="edge">
<title>Node10&#45;&gt;Node11</title>
<path fill="none" stroke="midnightblue" d="M405.14,-138.26C436.73,-141.69 470.28,-145.33 496.66,-148.2"/>
<polygon fill="midnightblue" stroke="midnightblue" points="496.44,-151.69 506.76,-149.29 497.2,-144.74 496.44,-151.69"/>
</g>
<!-- Node12 -->
<g id="node12" class="node">
<title>Node12</title>
<g id="a_node12"><a xlink:href="class_markov_1_1_a_p_i_1_1_concurrency_1_1_thread_shared_list_handler.html#a08d468aa4146a30f4176bc91a40ed292" target="_top" xlink:title="Construct the Thread Handler with a filename.">
<polygon fill="none" stroke="black" points="458.5,-77 458.5,-124 634.5,-124 634.5,-77 458.5,-77"/>
<text text-anchor="start" x="466.5" y="-110.4" font-family="Helvetica,sans-Serif" font-size="12.00">Markov::API::Concurrency</text>
<text text-anchor="start" x="466.5" y="-97.4" font-family="Helvetica,sans-Serif" font-size="12.00">::ThreadSharedListHandler</text>
<text text-anchor="middle" x="546.5" y="-84.4" font-family="Helvetica,sans-Serif" font-size="12.00">::ThreadSharedListHandler</text>
</a>
</g>
</g>
<!-- Node10&#45;&gt;Node12 -->
<g id="edge11" class="edge">
<title>Node10&#45;&gt;Node12</title>
<path fill="none" stroke="midnightblue" d="M405.14,-116.32C419.33,-114.72 433.91,-113.08 448.07,-111.48"/>
<polygon fill="midnightblue" stroke="midnightblue" points="448.74,-114.93 458.29,-110.33 447.96,-107.97 448.74,-114.93"/>
</g>
<!-- Node13 -->
<g id="node13" class="node">
<title>Node13</title>
<g id="a_node13"><a xlink:href="class_markov_1_1_a_p_i_1_1_markov_passwords.html#a5f51b0fdb75101b797f38b08da84848e" target="_top" xlink:title="A single thread invoked by the Train function.">
<polygon fill="none" stroke="black" points="446.5,-23.5 446.5,-57.5 646.5,-57.5 646.5,-23.5 446.5,-23.5"/>
<text text-anchor="start" x="454.5" y="-43.9" font-family="Helvetica,sans-Serif" font-size="12.00">Markov::API::MarkovPasswords</text>
<text text-anchor="middle" x="546.5" y="-30.9" font-family="Helvetica,sans-Serif" font-size="12.00">::TrainThread</text>
</a>
</g>
</g>
<!-- Node10&#45;&gt;Node13 -->
<g id="edge12" class="edge">
<title>Node10&#45;&gt;Node13</title>
<path fill="none" stroke="midnightblue" d="M340.05,-110.48C366.97,-97.49 405.76,-79.79 441,-67.5 448.22,-64.98 455.78,-62.58 463.41,-60.33"/>
<polygon fill="midnightblue" stroke="midnightblue" points="464.43,-63.67 473.08,-57.55 462.5,-56.95 464.43,-63.67"/>
</g>
<!-- Node14 -->
<g id="node14" class="node">
<title>Node14</title>
<g id="a_node14"><a xlink:href="class_markov_1_1_model.html#ad252913f83fa3eb14cc3f9f92c5ee37a" target="_top" xlink:title="Adjust the model with a single string.">
<polygon fill="none" stroke="black" points="703,-54 703,-75 882,-75 882,-54 703,-54"/>
<text text-anchor="middle" x="792.5" y="-61.4" font-family="Helvetica,sans-Serif" font-size="12.00">Markov::Model::AdjustEdge</text>
</a>
</g>
</g>
<!-- Node13&#45;&gt;Node14 -->
<g id="edge13" class="edge">
<title>Node13&#45;&gt;Node14</title>
<path fill="none" stroke="midnightblue" d="M646.74,-50.26C661.86,-51.75 677.46,-53.28 692.57,-54.77"/>
<polygon fill="midnightblue" stroke="midnightblue" points="692.64,-58.29 702.94,-55.79 693.33,-51.33 692.64,-58.29"/>
</g>
<!-- Node15 -->
<g id="node15" class="node">
<title>Node15</title>
<g id="a_node15"><a xlink:href="class_markov_1_1_a_p_i_1_1_concurrency_1_1_thread_shared_list_handler.html#a068e1a9ff477de23a44c10230df416a5" target="_top" xlink:title="Read the next line from the file.">
<polygon fill="none" stroke="black" points="688,-0.5 688,-34.5 897,-34.5 897,-0.5 688,-0.5"/>
<text text-anchor="start" x="696" y="-20.9" font-family="Helvetica,sans-Serif" font-size="12.00">Markov::API::Concurrency</text>
<text text-anchor="middle" x="792.5" y="-7.9" font-family="Helvetica,sans-Serif" font-size="12.00">::ThreadSharedListHandler::next</text>
</a>
</g>
</g>
<!-- Node13&#45;&gt;Node15 -->
<g id="edge14" class="edge">
<title>Node13&#45;&gt;Node15</title>
<path fill="none" stroke="midnightblue" d="M646.74,-31.15C657.04,-30.17 667.57,-29.18 678,-28.2"/>
<polygon fill="midnightblue" stroke="midnightblue" points="678.35,-31.68 687.98,-27.26 677.69,-24.71 678.35,-31.68"/>
</g>
</g>
</svg>
        <g id="navigator" transform="translate(0 0)" fill="#404254">
                <rect fill="#f2f5e9" fill-opacity="0.5" stroke="#606060" stroke-width=".5" x="0" y="0" width="60" height="60"/>
                <use id="zoomplus" xlink:href="#zoomPlus" x="17" y="9" onmousedown="handleZoom(evt,'in')"/>
                <use id="zoomminus" xlink:href="#zoomMin" x="42" y="9" onmousedown="handleZoom(evt,'out')"/>
                <use id="reset" xlink:href="#resetDef" x="30" y="36" onmousedown="handleReset()"/>
                <g id="arrowUp" xlink:href="#dirArrow" transform="translate(30 24)" onmousedown="handlePan(0,-1)">
                  <use xlink:href="#rim" fill="#404040">
                        <set attributeName="fill" to="#808080" begin="arrowUp.mouseover" end="arrowUp.mouseout"/>
                  </use>
                  <path fill="none" stroke="white" stroke-width="1.5" d="M0,-3.0v7 M-2.5,-0.5L0,-3.0L2.5,-0.5"/>
                </g>
                <g id="arrowRight" xlink:href="#dirArrow" transform="rotate(90) translate(36 -43)" onmousedown="handlePan(1,0)">
                  <use xlink:href="#rim" fill="#404040">
                        <set attributeName="fill" to="#808080" begin="arrowRight.mouseover" end="arrowRight.mouseout"/>
                  </use>
                  <path fill="none" stroke="white" stroke-width="1.5" d="M0,-3.0v7 M-2.5,-0.5L0,-3.0L2.5,-0.5"/>
                </g>
                <g id="arrowDown" xlink:href="#dirArrow" transform="rotate(180) translate(-30 -48)" onmousedown="handlePan(0,1)">
                  <use xlink:href="#rim" fill="#404040">
                        <set attributeName="fill" to="#808080" begin="arrowDown.mouseover" end="arrowDown.mouseout"/>
                  </use>
                  <path fill="none" stroke="white" stroke-width="1.5" d="M0,-3.0v7 M-2.5,-0.5L0,-3.0L2.5,-0.5"/>
                </g>
                <g id="arrowLeft" xlink:href="#dirArrow" transform="rotate(270) translate(-36 17)" onmousedown="handlePan(-1,0)">
                  <use xlink:href="#rim" fill="#404040">
                        <set attributeName="fill" to="#808080" begin="arrowLeft.mouseover" end="arrowLeft.mouseout"/>
                  </use>
                  <path fill="none" stroke="white" stroke-width="1.5" d="M0,-3.0v7 M-2.5,-0.5L0,-3.0L2.5,-0.5"/>
                </g>
        </g>
        <svg viewBox="0 0 15 15" width="100%" height="30px" preserveAspectRatio="xMaxYMin meet">
         <g id="arrow_out" transform="scale(0.3 0.3)">
          <a xlink:href="class_markov_1_1_a_p_i_1_1_model_matrix_af42d40d7a5c80f0dfe126a574a17f423_cgraph_org.svg" target="_base">
           <rect id="button" ry="5" rx="5" y="6" x="6" height="38" width="38"
                fill="#f2f5e9" fill-opacity="0.5" stroke="#606060" stroke-width="1.0"/>
           <path id="arrow"
             d="M 11.500037,31.436501 C 11.940474,20.09759 22.043105,11.32322 32.158766,21.979434 L 37.068811,17.246167 C 37.068811,17.246167 37.088388,32 37.088388,32 L 22.160133,31.978069 C 22.160133,31.978069 26.997745,27.140456 26.997745,27.140456 C 18.528582,18.264221 13.291696,25.230495 11.500037,31.436501 z"
             style="fill:#404040;"/>
          </a>
         </g>
        </svg>
</svg>
