<?xml version="1.0" encoding="UTF-8" standalone="no"?>
<!DOCTYPE svg PUBLIC "-//W3C//DTD SVG 1.1//EN"
 "http://www.w3.org/Graphics/SVG/1.1/DTD/svg11.dtd">
<!-- Generated by graphviz version 2.43.0 (0)
 -->
<!-- Title: Markov::API::Concurrency::ThreadSharedListHandler Pages: 1 -->
<svg width="250pt" height="641pt"
 viewBox="0.00 0.00 250.00 641.00" xmlns="http://www.w3.org/2000/svg" xmlns:xlink="http://www.w3.org/1999/xlink">
<g id="graph0" class="graph" transform="scale(1 1) rotate(0) translate(4 637)">
<title>Markov::API::Concurrency::ThreadSharedListHandler</title>
<!-- Node1 -->
<g id="node1" class="node">
<title>Node1</title>
<g id="a_node1"><a xlink:title="Simple class for managing shared access to file.">
<polygon fill="#bfbfbf" stroke="black" points="51,-0.5 51,-89.5 242,-89.5 242,-0.5 51,-0.5"/>
<text text-anchor="start" x="59" y="-75.9" font-family="Helvetica,sans-Serif" font-size="12.00">Markov::API::Concurrency</text>
<text text-anchor="middle" x="146.5" y="-62.9" font-family="Helvetica,sans-Serif" font-size="12.00">::ThreadSharedListHandler</text>
<polyline fill="none" stroke="black" points="51,-55.5 242,-55.5 "/>
<text text-anchor="middle" x="146.5" y="-41.9" font-family="Helvetica,sans-Serif" font-size="12.00"> </text>
<polyline fill="none" stroke="black" points="51,-34.5 242,-34.5 "/>
<text text-anchor="start" x="59" y="-20.9" font-family="Helvetica,sans-Serif" font-size="12.00">+ ThreadSharedListHandler()</text>
<text text-anchor="start" x="59" y="-7.9" font-family="Helvetica,sans-Serif" font-size="12.00">+ next()</text>
</a>
</g>
</g>
<!-- Node2 -->
<g id="node2" class="node">
<title>Node2</title>
<g id="a_node2"><a xlink:title="STL class.">
<polygon fill="none" stroke="#bfbfbf" points="29.5,-139.5 29.5,-202.5 121.5,-202.5 121.5,-139.5 29.5,-139.5"/>
<text text-anchor="middle" x="75.5" y="-188.9" font-family="Helvetica,sans-Serif" font-size="12.00">std::ifstream</text>
<polyline fill="none" stroke="#bfbfbf" points="29.5,-181.5 121.5,-181.5 "/>
<text text-anchor="middle" x="75.5" y="-167.9" font-family="Helvetica,sans-Serif" font-size="12.00"> </text>
<polyline fill="none" stroke="#bfbfbf" points="29.5,-160.5 121.5,-160.5 "/>
<text text-anchor="middle" x="75.5" y="-146.9" font-family="Helvetica,sans-Serif" font-size="12.00"> </text>
</a>
</g>
</g>
<!-- Node2&#45;&gt;Node1 -->
<g id="edge1" class="edge">
<title>Node2&#45;&gt;Node1</title>
<path fill="none" stroke="#404040" d="M93.05,-139.35C99.79,-127.58 107.7,-113.76 115.34,-100.42"/>
<polygon fill="none" stroke="#404040" points="115.42,-100.28 114.93,-93.09 121.38,-89.87 121.87,-97.06 115.42,-100.28"/>
<text text-anchor="middle" x="133" y="-111.4" font-family="Helvetica,sans-Serif" font-size="12.00"> &#45;listfile</text>
</g>
<!-- Node3 -->
<g id="node3" class="node">
<title>Node3</title>
<g id="a_node3"><a xlink:title="STL class.">
<polygon fill="none" stroke="#bfbfbf" points="11.5,-240.5 11.5,-316.5 139.5,-316.5 139.5,-240.5 11.5,-240.5"/>
<text text-anchor="start" x="19.5" y="-302.9" font-family="Helvetica,sans-Serif" font-size="12.00">std::basic_ifstream</text>
<text text-anchor="middle" x="75.5" y="-289.9" font-family="Helvetica,sans-Serif" font-size="12.00">&lt; char &gt;</text>
<polyline fill="none" stroke="#bfbfbf" points="11.5,-282.5 139.5,-282.5 "/>
<text text-anchor="middle" x="75.5" y="-268.9" font-family="Helvetica,sans-Serif" font-size="12.00"> </text>
<polyline fill="none" stroke="#bfbfbf" points="11.5,-261.5 139.5,-261.5 "/>
<text text-anchor="middle" x="75.5" y="-247.9" font-family="Helvetica,sans-Serif" font-size="12.00"> </text>
</a>
</g>
</g>
<!-- Node3&#45;&gt;Node2 -->
<g id="edge2" class="edge">
<title>Node3&#45;&gt;Node2</title>
<path fill="none" stroke="midnightblue" d="M75.5,-230.26C75.5,-220.87 75.5,-211.25 75.5,-202.59"/>
<polygon fill="none" stroke="midnightblue" points="72,-230.3 75.5,-240.3 79,-230.3 72,-230.3"/>
</g>
<!-- Node4 -->
<g id="node4" class="node">
<title>Node4</title>
<g id="a_node4"><a xlink:title="STL class.">
<polygon fill="none" stroke="#bfbfbf" points="13.5,-354.5 13.5,-430.5 137.5,-430.5 137.5,-354.5 13.5,-354.5"/>
<text text-anchor="start" x="21.5" y="-416.9" font-family="Helvetica,sans-Serif" font-size="12.00">std::basic_istream</text>
<text text-anchor="middle" x="75.5" y="-403.9" font-family="Helvetica,sans-Serif" font-size="12.00">&lt; Char &gt;</text>
<polyline fill="none" stroke="#bfbfbf" points="13.5,-396.5 137.5,-396.5 "/>
<text text-anchor="middle" x="75.5" y="-382.9" font-family="Helvetica,sans-Serif" font-size="12.00"> </text>
<polyline fill="none" stroke="#bfbfbf" points="13.5,-375.5 137.5,-375.5 "/>
<text text-anchor="middle" x="75.5" y="-361.9" font-family="Helvetica,sans-Serif" font-size="12.00"> </text>
</a>
</g>
</g>
<!-- Node4&#45;&gt;Node3 -->
<g id="edge3" class="edge">
<title>Node4&#45;&gt;Node3</title>
<path fill="none" stroke="midnightblue" d="M75.5,-344.05C75.5,-334.88 75.5,-325.41 75.5,-316.63"/>
<polygon fill="none" stroke="midnightblue" points="72,-344.21 75.5,-354.21 79,-344.21 72,-344.21"/>
</g>
<!-- Node5 -->
<g id="node5" class="node">
<title>Node5</title>
<g id="a_node5"><a xlink:title="STL class.">
<polygon fill="none" stroke="#bfbfbf" points="0,-468.5 0,-531.5 151,-531.5 151,-468.5 0,-468.5"/>
<text text-anchor="middle" x="75.5" y="-517.9" font-family="Helvetica,sans-Serif" font-size="12.00">std::basic_ios&lt; Char &gt;</text>
<polyline fill="none" stroke="#bfbfbf" points="0,-510.5 151,-510.5 "/>
<text text-anchor="middle" x="75.5" y="-496.9" font-family="Helvetica,sans-Serif" font-size="12.00"> </text>
<polyline fill="none" stroke="#bfbfbf" points="0,-489.5 151,-489.5 "/>
<text text-anchor="middle" x="75.5" y="-475.9" font-family="Helvetica,sans-Serif" font-size="12.00"> </text>
</a>
</g>
</g>
<!-- Node5&#45;&gt;Node4 -->
<g id="edge4" class="edge">
<title>Node5&#45;&gt;Node4</title>
<path fill="none" stroke="midnightblue" d="M75.5,-458.46C75.5,-449.32 75.5,-439.67 75.5,-430.68"/>
<polygon fill="none" stroke="midnightblue" points="72,-458.48 75.5,-468.49 79,-458.49 72,-458.48"/>
</g>
<!-- Node6 -->
<g id="node6" class="node">
<title>Node6</title>
<g id="a_node6"><a xlink:title="STL class.">
<polygon fill="none" stroke="#bfbfbf" points="29,-569.5 29,-632.5 122,-632.5 122,-569.5 29,-569.5"/>
<text text-anchor="middle" x="75.5" y="-618.9" font-family="Helvetica,sans-Serif" font-size="12.00">std::ios_base</text>
<polyline fill="none" stroke="#bfbfbf" points="29,-611.5 122,-611.5 "/>
<text text-anchor="middle" x="75.5" y="-597.9" font-family="Helvetica,sans-Serif" font-size="12.00"> </text>
<polyline fill="none" stroke="#bfbfbf" points="29,-590.5 122,-590.5 "/>
<text text-anchor="middle" x="75.5" y="-576.9" font-family="Helvetica,sans-Serif" font-size="12.00"> </text>
</a>
</g>
</g>
<!-- Node6&#45;&gt;Node5 -->
<g id="edge5" class="edge">
<title>Node6&#45;&gt;Node5</title>
<path fill="none" stroke="midnightblue" d="M75.5,-559.28C75.5,-550.02 75.5,-540.34 75.5,-531.58"/>
<polygon fill="none" stroke="midnightblue" points="72,-559.49 75.5,-569.49 79,-559.49 72,-559.49"/>
</g>
<!-- Node7 -->
<g id="node7" class="node">
<title>Node7</title>
<g id="a_node7"><a xlink:title="STL class.">
<polygon fill="none" stroke="#bfbfbf" points="139.5,-139.5 139.5,-202.5 219.5,-202.5 219.5,-139.5 139.5,-139.5"/>
<text text-anchor="middle" x="179.5" y="-188.9" font-family="Helvetica,sans-Serif" font-size="12.00">std::mutex</text>
<polyline fill="none" stroke="#bfbfbf" points="139.5,-181.5 219.5,-181.5 "/>
<text text-anchor="middle" x="179.5" y="-167.9" font-family="Helvetica,sans-Serif" font-size="12.00"> </text>
<polyline fill="none" stroke="#bfbfbf" points="139.5,-160.5 219.5,-160.5 "/>
<text text-anchor="middle" x="179.5" y="-146.9" font-family="Helvetica,sans-Serif" font-size="12.00"> </text>
</a>
</g>
</g>
<!-- Node7&#45;&gt;Node1 -->
<g id="edge6" class="edge">
<title>Node7&#45;&gt;Node1</title>
<path fill="none" stroke="#404040" d="M171.34,-139.35C168.3,-127.93 164.75,-114.58 161.3,-101.61"/>
<polygon fill="none" stroke="#404040" points="161.26,-101.47 155.85,-96.7 158.18,-89.87 163.58,-94.64 161.26,-101.47"/>
<text text-anchor="middle" x="188" y="-111.4" font-family="Helvetica,sans-Serif" font-size="12.00"> &#45;mlock</text>
</g>
</g>
</svg>
