<?xml version="1.0" encoding="UTF-8" standalone="no"?>
<!DOCTYPE svg PUBLIC "-//W3C//DTD SVG 1.1//EN"
 "http://www.w3.org/Graphics/SVG/1.1/DTD/svg11.dtd">
<!-- Generated by graphviz version 2.43.0 (0)
 -->
<!-- Title: Markov::GUI::MarkovPasswordsGUI Pages: 1 -->
<svg width="232pt" height="302pt"
 viewBox="0.00 0.00 232.00 302.00" xmlns="http://www.w3.org/2000/svg" xmlns:xlink="http://www.w3.org/1999/xlink">
<g id="graph0" class="graph" transform="scale(1 1) rotate(0) translate(4 298)">
<title>Markov::GUI::MarkovPasswordsGUI</title>
<!-- Node1 -->
<g id="node1" class="node">
<title>Node1</title>
<g id="a_node1"><a xlink:title="Reporting UI.">
<polygon fill="#bfbfbf" stroke="black" points="0,-0.5 0,-193.5 224,-193.5 224,-0.5 0,-0.5"/>
<text text-anchor="middle" x="112" y="-179.9" font-family="Helvetica,sans-Serif" font-size="12.00">Markov::GUI::MarkovPasswordsGUI</text>
<polyline fill="none" stroke="black" points="0,-172.5 224,-172.5 "/>
<text text-anchor="start" x="8" y="-158.9" font-family="Helvetica,sans-Serif" font-size="12.00">&#45; ui</text>
<polyline fill="none" stroke="black" points="0,-151.5 224,-151.5 "/>
<text text-anchor="start" x="8" y="-137.9" font-family="Helvetica,sans-Serif" font-size="12.00">+ MarkovPasswordsGUI()</text>
<text text-anchor="start" x="8" y="-124.9" font-family="Helvetica,sans-Serif" font-size="12.00">+ renderHTMLFile()</text>
<text text-anchor="start" x="8" y="-111.9" font-family="Helvetica,sans-Serif" font-size="12.00">+ loadDataset()</text>
<text text-anchor="start" x="8" y="-98.9" font-family="Helvetica,sans-Serif" font-size="12.00">+ MarkovPasswordsGUI</text>
<text text-anchor="start" x="8" y="-85.9" font-family="Helvetica,sans-Serif" font-size="12.00">::benchmarkSelected()</text>
<text text-anchor="start" x="8" y="-72.9" font-family="Helvetica,sans-Serif" font-size="12.00">+ MarkovPasswordsGUI</text>
<text text-anchor="start" x="8" y="-59.9" font-family="Helvetica,sans-Serif" font-size="12.00">::modelvisSelected()</text>
<text text-anchor="start" x="8" y="-46.9" font-family="Helvetica,sans-Serif" font-size="12.00">+ MarkovPasswordsGUI</text>
<text text-anchor="start" x="8" y="-33.9" font-family="Helvetica,sans-Serif" font-size="12.00">::visualDebugSelected()</text>
<text text-anchor="start" x="8" y="-20.9" font-family="Helvetica,sans-Serif" font-size="12.00">+ MarkovPasswordsGUI</text>
<text text-anchor="start" x="8" y="-7.9" font-family="Helvetica,sans-Serif" font-size="12.00">::comparisonSelected()</text>
</a>
</g>
</g>
<!-- Node2 -->
<g id="node2" class="node">
<title>Node2</title>
<g id="a_node2"><a xlink:title=" ">
<polygon fill="none" stroke="#bfbfbf" points="61,-230.5 61,-293.5 163,-293.5 163,-230.5 61,-230.5"/>
<text text-anchor="middle" x="112" y="-279.9" font-family="Helvetica,sans-Serif" font-size="12.00">QMainWindow</text>
<polyline fill="none" stroke="#bfbfbf" points="61,-272.5 163,-272.5 "/>
<text text-anchor="middle" x="112" y="-258.9" font-family="Helvetica,sans-Serif" font-size="12.00"> </text>
<polyline fill="none" stroke="#bfbfbf" points="61,-251.5 163,-251.5 "/>
<text text-anchor="middle" x="112" y="-237.9" font-family="Helvetica,sans-Serif" font-size="12.00"> </text>
</a>
</g>
</g>
<!-- Node2&#45;&gt;Node1 -->
<g id="edge1" class="edge">
<title>Node2&#45;&gt;Node1</title>
<path fill="none" stroke="midnightblue" d="M112,-220.25C112,-211.92 112,-202.84 112,-193.5"/>
<polygon fill="none" stroke="midnightblue" points="108.5,-220.34 112,-230.34 115.5,-220.34 108.5,-220.34"/>
</g>
</g>
</svg>
