<?xml version="1.0" encoding="UTF-8" standalone="no"?>
<!DOCTYPE svg PUBLIC "-//W3C//DTD SVG 1.1//EN"
 "http://www.w3.org/Graphics/SVG/1.1/DTD/svg11.dtd">
<!-- Generated by graphviz version 2.43.0 (0)
 -->
<!-- Title: Markov::API::Concurrency::ThreadSharedListHandler Pages: 1 -->
<svg width="246pt" height="667pt"
 viewBox="0.00 0.00 245.50 667.00" xmlns="http://www.w3.org/2000/svg" xmlns:xlink="http://www.w3.org/1999/xlink">
<g id="graph0" class="graph" transform="scale(1 1) rotate(0) translate(4 663)">
<title>Markov::API::Concurrency::ThreadSharedListHandler</title>
<!-- Node1 -->
<g id="node1" class="node">
<title>Node1</title>
<g id="a_node1"><a xlink:title="Simple class for managing shared access to file.">
<polygon fill="#bfbfbf" stroke="black" points="55.5,-0.5 55.5,-115.5 237.5,-115.5 237.5,-0.5 55.5,-0.5"/>
<text text-anchor="start" x="63.5" y="-101.9" font-family="Helvetica,sans-Serif" font-size="12.00">Markov::API::Concurrency</text>
<text text-anchor="middle" x="146.5" y="-88.9" font-family="Helvetica,sans-Serif" font-size="12.00">::ThreadSharedListHandler</text>
<polyline fill="none" stroke="black" points="55.5,-81.5 237.5,-81.5 "/>
<text text-anchor="middle" x="146.5" y="-67.9" font-family="Helvetica,sans-Serif" font-size="12.00"> </text>
<polyline fill="none" stroke="black" points="55.5,-60.5 237.5,-60.5 "/>
<text text-anchor="start" x="63.5" y="-46.9" font-family="Helvetica,sans-Serif" font-size="12.00">+ ThreadSharedListHandler</text>
<text text-anchor="start" x="63.5" y="-33.9" font-family="Helvetica,sans-Serif" font-size="12.00">(const char *filename)</text>
<text text-anchor="start" x="63.5" y="-20.9" font-family="Helvetica,sans-Serif" font-size="12.00">+ bool next(std::string</text>
<text text-anchor="start" x="63.5" y="-7.9" font-family="Helvetica,sans-Serif" font-size="12.00"> *line)</text>
</a>
</g>
</g>
<!-- Node2 -->
<g id="node2" class="node">
<title>Node2</title>
<g id="a_node2"><a xlink:title=" ">
<polygon fill="none" stroke="#bfbfbf" points="29.5,-165.5 29.5,-228.5 121.5,-228.5 121.5,-165.5 29.5,-165.5"/>
<text text-anchor="middle" x="75.5" y="-214.9" font-family="Helvetica,sans-Serif" font-size="12.00">std::ifstream</text>
<polyline fill="none" stroke="#bfbfbf" points="29.5,-207.5 121.5,-207.5 "/>
<text text-anchor="middle" x="75.5" y="-193.9" font-family="Helvetica,sans-Serif" font-size="12.00"> </text>
<polyline fill="none" stroke="#bfbfbf" points="29.5,-186.5 121.5,-186.5 "/>
<text text-anchor="middle" x="75.5" y="-172.9" font-family="Helvetica,sans-Serif" font-size="12.00"> </text>
</a>
</g>
</g>
<!-- Node2&#45;&gt;Node1 -->
<g id="edge1" class="edge">
<title>Node2&#45;&gt;Node1</title>
<path fill="none" stroke="#404040" d="M91.43,-165.25C97.43,-153.68 104.52,-140 111.57,-126.39"/>
<polygon fill="none" stroke="#404040" points="111.68,-126.18 110.89,-119.01 117.2,-115.53 118,-122.7 111.68,-126.18"/>
<text text-anchor="middle" x="129" y="-137.4" font-family="Helvetica,sans-Serif" font-size="12.00"> &#45;listfile</text>
</g>
<!-- Node3 -->
<g id="node3" class="node">
<title>Node3</title>
<g id="a_node3"><a xlink:title=" ">
<polygon fill="none" stroke="#bfbfbf" points="11.5,-266.5 11.5,-342.5 139.5,-342.5 139.5,-266.5 11.5,-266.5"/>
<text text-anchor="start" x="19.5" y="-328.9" font-family="Helvetica,sans-Serif" font-size="12.00">std::basic_ifstream</text>
<text text-anchor="middle" x="75.5" y="-315.9" font-family="Helvetica,sans-Serif" font-size="12.00">&lt; Char &gt;</text>
<polyline fill="none" stroke="#bfbfbf" points="11.5,-308.5 139.5,-308.5 "/>
<text text-anchor="middle" x="75.5" y="-294.9" font-family="Helvetica,sans-Serif" font-size="12.00"> </text>
<polyline fill="none" stroke="#bfbfbf" points="11.5,-287.5 139.5,-287.5 "/>
<text text-anchor="middle" x="75.5" y="-273.9" font-family="Helvetica,sans-Serif" font-size="12.00"> </text>
</a>
</g>
</g>
<!-- Node3&#45;&gt;Node2 -->
<g id="edge2" class="edge">
<title>Node3&#45;&gt;Node2</title>
<path fill="none" stroke="midnightblue" d="M75.5,-256.26C75.5,-246.87 75.5,-237.25 75.5,-228.59"/>
<polygon fill="none" stroke="midnightblue" points="72,-256.3 75.5,-266.3 79,-256.3 72,-256.3"/>
</g>
<!-- Node4 -->
<g id="node4" class="node">
<title>Node4</title>
<g id="a_node4"><a xlink:title=" ">
<polygon fill="none" stroke="#bfbfbf" points="13.5,-380.5 13.5,-456.5 137.5,-456.5 137.5,-380.5 13.5,-380.5"/>
<text text-anchor="start" x="21.5" y="-442.9" font-family="Helvetica,sans-Serif" font-size="12.00">std::basic_istream</text>
<text text-anchor="middle" x="75.5" y="-429.9" font-family="Helvetica,sans-Serif" font-size="12.00">&lt; Char &gt;</text>
<polyline fill="none" stroke="#bfbfbf" points="13.5,-422.5 137.5,-422.5 "/>
<text text-anchor="middle" x="75.5" y="-408.9" font-family="Helvetica,sans-Serif" font-size="12.00"> </text>
<polyline fill="none" stroke="#bfbfbf" points="13.5,-401.5 137.5,-401.5 "/>
<text text-anchor="middle" x="75.5" y="-387.9" font-family="Helvetica,sans-Serif" font-size="12.00"> </text>
</a>
</g>
</g>
<!-- Node4&#45;&gt;Node3 -->
<g id="edge3" class="edge">
<title>Node4&#45;&gt;Node3</title>
<path fill="none" stroke="midnightblue" d="M75.5,-370.05C75.5,-360.88 75.5,-351.41 75.5,-342.63"/>
<polygon fill="none" stroke="midnightblue" points="72,-370.21 75.5,-380.21 79,-370.21 72,-370.21"/>
</g>
<!-- Node5 -->
<g id="node5" class="node">
<title>Node5</title>
<g id="a_node5"><a xlink:title=" ">
<polygon fill="none" stroke="#bfbfbf" points="0,-494.5 0,-557.5 151,-557.5 151,-494.5 0,-494.5"/>
<text text-anchor="middle" x="75.5" y="-543.9" font-family="Helvetica,sans-Serif" font-size="12.00">std::basic_ios&lt; Char &gt;</text>
<polyline fill="none" stroke="#bfbfbf" points="0,-536.5 151,-536.5 "/>
<text text-anchor="middle" x="75.5" y="-522.9" font-family="Helvetica,sans-Serif" font-size="12.00"> </text>
<polyline fill="none" stroke="#bfbfbf" points="0,-515.5 151,-515.5 "/>
<text text-anchor="middle" x="75.5" y="-501.9" font-family="Helvetica,sans-Serif" font-size="12.00"> </text>
</a>
</g>
</g>
<!-- Node5&#45;&gt;Node4 -->
<g id="edge4" class="edge">
<title>Node5&#45;&gt;Node4</title>
<path fill="none" stroke="midnightblue" d="M75.5,-484.46C75.5,-475.32 75.5,-465.67 75.5,-456.68"/>
<polygon fill="none" stroke="midnightblue" points="72,-484.48 75.5,-494.49 79,-484.49 72,-484.48"/>
</g>
<!-- Node6 -->
<g id="node6" class="node">
<title>Node6</title>
<g id="a_node6"><a xlink:title=" ">
<polygon fill="none" stroke="#bfbfbf" points="29,-595.5 29,-658.5 122,-658.5 122,-595.5 29,-595.5"/>
<text text-anchor="middle" x="75.5" y="-644.9" font-family="Helvetica,sans-Serif" font-size="12.00">std::ios_base</text>
<polyline fill="none" stroke="#bfbfbf" points="29,-637.5 122,-637.5 "/>
<text text-anchor="middle" x="75.5" y="-623.9" font-family="Helvetica,sans-Serif" font-size="12.00"> </text>
<polyline fill="none" stroke="#bfbfbf" points="29,-616.5 122,-616.5 "/>
<text text-anchor="middle" x="75.5" y="-602.9" font-family="Helvetica,sans-Serif" font-size="12.00"> </text>
</a>
</g>
</g>
<!-- Node6&#45;&gt;Node5 -->
<g id="edge5" class="edge">
<title>Node6&#45;&gt;Node5</title>
<path fill="none" stroke="midnightblue" d="M75.5,-585.28C75.5,-576.02 75.5,-566.34 75.5,-557.58"/>
<polygon fill="none" stroke="midnightblue" points="72,-585.49 75.5,-595.49 79,-585.49 72,-585.49"/>
</g>
<!-- Node7 -->
<g id="node7" class="node">
<title>Node7</title>
<g id="a_node7"><a xlink:title=" ">
<polygon fill="none" stroke="#bfbfbf" points="139.5,-165.5 139.5,-228.5 219.5,-228.5 219.5,-165.5 139.5,-165.5"/>
<text text-anchor="middle" x="179.5" y="-214.9" font-family="Helvetica,sans-Serif" font-size="12.00">std::mutex</text>
<polyline fill="none" stroke="#bfbfbf" points="139.5,-207.5 219.5,-207.5 "/>
<text text-anchor="middle" x="179.5" y="-193.9" font-family="Helvetica,sans-Serif" font-size="12.00"> </text>
<polyline fill="none" stroke="#bfbfbf" points="139.5,-186.5 219.5,-186.5 "/>
<text text-anchor="middle" x="179.5" y="-172.9" font-family="Helvetica,sans-Serif" font-size="12.00"> </text>
</a>
</g>
</g>
<!-- Node7&#45;&gt;Node1 -->
<g id="edge6" class="edge">
<title>Node7&#45;&gt;Node1</title>
<path fill="none" stroke="#404040" d="M172.09,-165.25C169.36,-153.91 166.14,-140.55 162.93,-127.2"/>
<polygon fill="none" stroke="#404040" points="162.93,-127.19 157.63,-122.3 160.12,-115.53 165.41,-120.42 162.93,-127.19"/>
<text text-anchor="middle" x="189" y="-137.4" font-family="Helvetica,sans-Serif" font-size="12.00"> &#45;mlock</text>
</g>
</g>
</svg>
