<?xml version="1.0" encoding="UTF-8" standalone="no"?>
<!DOCTYPE svg PUBLIC "-//W3C//DTD SVG 1.1//EN"
 "http://www.w3.org/Graphics/SVG/1.1/DTD/svg11.dtd">
<!-- Generated by graphviz version 2.43.0 (0)
 -->
<!-- Title: Markov::Random::DefaultRandomEngine::generator Pages: 1 -->
<svg width="484pt" height="96pt"
 viewBox="0.00 0.00 484.00 96.00" xmlns="http://www.w3.org/2000/svg" xmlns:xlink="http://www.w3.org/1999/xlink">
<g id="graph0" class="graph" transform="scale(1 1) rotate(0) translate(4 92)">
<title>Markov::Random::DefaultRandomEngine::generator</title>
<!-- Node1 -->
<g id="node1" class="node">
<title>Node1</title>
<g id="a_node1"><a xlink:title="Default random engine for seeding.">
<polygon fill="#bfbfbf" stroke="black" points="256,-26.5 256,-60.5 476,-60.5 476,-26.5 256,-26.5"/>
<text text-anchor="start" x="264" y="-46.9" font-family="Helvetica,sans-Serif" font-size="12.00">Markov::Random::DefaultRandom</text>
<text text-anchor="middle" x="366" y="-33.9" font-family="Helvetica,sans-Serif" font-size="12.00">Engine::generator</text>
</a>
</g>
</g>
<!-- Node2 -->
<g id="node2" class="node">
<title>Node2</title>
<g id="a_node2"><a xlink:href="class_markov_1_1_random_1_1_marsaglia.html#aafadb3ac016ff0dac8df73a93e594e3b" target="_top" xlink:title="Construct Marsaglia Engine.">
<polygon fill="none" stroke="black" points="18,-53.5 18,-87.5 202,-87.5 202,-53.5 18,-53.5"/>
<text text-anchor="start" x="26" y="-73.9" font-family="Helvetica,sans-Serif" font-size="12.00">Markov::Random::Marsaglia</text>
<text text-anchor="middle" x="110" y="-60.9" font-family="Helvetica,sans-Serif" font-size="12.00">::Marsaglia</text>
</a>
</g>
</g>
<!-- Node1&#45;&gt;Node2 -->
<g id="edge1" class="edge">
<title>Node1&#45;&gt;Node2</title>
<path fill="none" stroke="midnightblue" d="M245.71,-56.18C231.07,-57.74 216.3,-59.31 202.17,-60.81"/>
<polygon fill="midnightblue" stroke="midnightblue" points="246.23,-59.64 255.81,-55.11 245.49,-52.68 246.23,-59.64"/>
</g>
<!-- Node3 -->
<g id="node3" class="node">
<title>Node3</title>
<g id="a_node3"><a xlink:href="class_markov_1_1_random_1_1_default_random_engine.html#afd4233366727e5c2dd14d7e5c3ebfec1" target="_top" xlink:title="Generate Random Number.">
<polygon fill="none" stroke="black" points="0,-0.5 0,-34.5 220,-34.5 220,-0.5 0,-0.5"/>
<text text-anchor="start" x="8" y="-20.9" font-family="Helvetica,sans-Serif" font-size="12.00">Markov::Random::DefaultRandom</text>
<text text-anchor="middle" x="110" y="-7.9" font-family="Helvetica,sans-Serif" font-size="12.00">Engine::random</text>
</a>
</g>
</g>
<!-- Node1&#45;&gt;Node3 -->
<g id="edge2" class="edge">
<title>Node1&#45;&gt;Node3</title>
<path fill="none" stroke="midnightblue" d="M245.78,-31.3C237.22,-30.42 228.6,-29.54 220.1,-28.67"/>
<polygon fill="midnightblue" stroke="midnightblue" points="245.5,-34.79 255.81,-32.32 246.22,-27.82 245.5,-34.79"/>
</g>
</g>
</svg>
