<?xml version="1.0" encoding="UTF-8" standalone="no"?>
<!DOCTYPE svg PUBLIC "-//W3C//DTD SVG 1.1//EN"
 "http://www.w3.org/Graphics/SVG/1.1/DTD/svg11.dtd">
<!-- Generated by graphviz version 2.43.0 (0)
 -->
<!-- Title: Markov::API::CUDA::Random::Marsaglia Pages: 1 -->
<svg width="406pt" height="775pt"
 viewBox="0.00 0.00 406.00 775.00" xmlns="http://www.w3.org/2000/svg" xmlns:xlink="http://www.w3.org/1999/xlink">
<g id="graph0" class="graph" transform="scale(1 1) rotate(0) translate(4 771)">
<title>Markov::API::CUDA::Random::Marsaglia</title>
<!-- Node1 -->
<g id="node1" class="node">
<title>Node1</title>
<g id="a_node1"><a xlink:title="Extension of Markov::Random::Marsaglia which is capable o working on device space.">
<polygon fill="#bfbfbf" stroke="black" points="104.5,-0.5 104.5,-115.5 313.5,-115.5 313.5,-0.5 104.5,-0.5"/>
<text text-anchor="start" x="112.5" y="-101.9" font-family="Helvetica,sans-Serif" font-size="12.00">Markov::API::CUDA::</text>
<text text-anchor="middle" x="209" y="-88.9" font-family="Helvetica,sans-Serif" font-size="12.00">Random::Marsaglia</text>
<polyline fill="none" stroke="black" points="104.5,-81.5 313.5,-81.5 "/>
<text text-anchor="middle" x="209" y="-67.9" font-family="Helvetica,sans-Serif" font-size="12.00"> </text>
<polyline fill="none" stroke="black" points="104.5,-60.5 313.5,-60.5 "/>
<text text-anchor="start" x="112.5" y="-46.9" font-family="Helvetica,sans-Serif" font-size="12.00">+ static unsigned long</text>
<text text-anchor="start" x="112.5" y="-33.9" font-family="Helvetica,sans-Serif" font-size="12.00"> * MigrateToVRAM(Markov</text>
<text text-anchor="start" x="112.5" y="-20.9" font-family="Helvetica,sans-Serif" font-size="12.00">::API::CUDA::Random::Marsaglia</text>
<text text-anchor="start" x="112.5" y="-7.9" font-family="Helvetica,sans-Serif" font-size="12.00"> *MEarr, long int gridSize)</text>
</a>
</g>
</g>
<!-- Node2 -->
<g id="node2" class="node">
<title>Node2</title>
<g id="a_node2"><a xlink:href="class_markov_1_1_random_1_1_marsaglia.html" target="_top" xlink:title="Implementation of Marsaglia Random Engine.">
<polygon fill="none" stroke="black" points="18,-250 18,-352 202,-352 202,-250 18,-250"/>
<text text-anchor="middle" x="110" y="-338.4" font-family="Helvetica,sans-Serif" font-size="12.00">Markov::Random::Marsaglia</text>
<polyline fill="none" stroke="black" points="18,-331 202,-331 "/>
<text text-anchor="start" x="26" y="-317.4" font-family="Helvetica,sans-Serif" font-size="12.00">+ unsigned long x</text>
<text text-anchor="start" x="26" y="-304.4" font-family="Helvetica,sans-Serif" font-size="12.00">+ unsigned long y</text>
<text text-anchor="start" x="26" y="-291.4" font-family="Helvetica,sans-Serif" font-size="12.00">+ unsigned long z</text>
<polyline fill="none" stroke="black" points="18,-284 202,-284 "/>
<text text-anchor="start" x="26" y="-270.4" font-family="Helvetica,sans-Serif" font-size="12.00">+ Marsaglia()</text>
<text text-anchor="start" x="26" y="-257.4" font-family="Helvetica,sans-Serif" font-size="12.00">+ unsigned long random()</text>
</a>
</g>
</g>
<!-- Node2&#45;&gt;Node1 -->
<g id="edge1" class="edge">
<title>Node2&#45;&gt;Node1</title>
<path fill="none" stroke="midnightblue" d="M134.5,-240.36C150.11,-202.35 170.23,-153.39 185.62,-115.92"/>
<polygon fill="none" stroke="midnightblue" points="131.2,-239.19 130.63,-249.77 137.67,-241.85 131.2,-239.19"/>
</g>
<!-- Node3 -->
<g id="node3" class="node">
<title>Node3</title>
<g id="a_node3"><a xlink:href="class_markov_1_1_random_1_1_default_random_engine.html" target="_top" xlink:title="Implementation using Random.h default random engine.">
<polygon fill="none" stroke="black" points="0,-486.5 0,-653.5 220,-653.5 220,-486.5 0,-486.5"/>
<text text-anchor="start" x="8" y="-639.9" font-family="Helvetica,sans-Serif" font-size="12.00">Markov::Random::DefaultRandom</text>
<text text-anchor="middle" x="110" y="-626.9" font-family="Helvetica,sans-Serif" font-size="12.00">Engine</text>
<polyline fill="none" stroke="black" points="0,-619.5 220,-619.5 "/>
<text text-anchor="middle" x="110" y="-605.9" font-family="Helvetica,sans-Serif" font-size="12.00"> </text>
<polyline fill="none" stroke="black" points="0,-598.5 220,-598.5 "/>
<text text-anchor="start" x="8" y="-584.9" font-family="Helvetica,sans-Serif" font-size="12.00">+ unsigned long random()</text>
<text text-anchor="start" x="8" y="-571.9" font-family="Helvetica,sans-Serif" font-size="12.00"># std::random_device</text>
<text text-anchor="start" x="8" y="-558.9" font-family="Helvetica,sans-Serif" font-size="12.00"> &amp; rd()</text>
<text text-anchor="start" x="8" y="-545.9" font-family="Helvetica,sans-Serif" font-size="12.00"># std::default_random</text>
<text text-anchor="start" x="8" y="-532.9" font-family="Helvetica,sans-Serif" font-size="12.00">_engine &amp; generator()</text>
<text text-anchor="start" x="8" y="-519.9" font-family="Helvetica,sans-Serif" font-size="12.00"># std::uniform_int_distribution</text>
<text text-anchor="start" x="8" y="-506.9" font-family="Helvetica,sans-Serif" font-size="12.00">&lt; long long unsigned &gt; &amp;</text>
<text text-anchor="start" x="8" y="-493.9" font-family="Helvetica,sans-Serif" font-size="12.00"> distribution()</text>
</a>
</g>
</g>
<!-- Node3&#45;&gt;Node2 -->
<g id="edge2" class="edge">
<title>Node3&#45;&gt;Node2</title>
<path fill="none" stroke="midnightblue" d="M110,-476.16C110,-434.47 110,-386.92 110,-352.05"/>
<polygon fill="none" stroke="midnightblue" points="106.5,-476.35 110,-486.35 113.5,-476.35 106.5,-476.35"/>
</g>
<!-- Node4 -->
<g id="node4" class="node">
<title>Node4</title>
<g id="a_node4"><a xlink:href="class_markov_1_1_random_1_1_random_engine.html" target="_top" xlink:title="An abstract class for Random Engine.">
<polygon fill="none" stroke="black" points="1.5,-690.5 1.5,-766.5 218.5,-766.5 218.5,-690.5 1.5,-690.5"/>
<text text-anchor="middle" x="110" y="-752.9" font-family="Helvetica,sans-Serif" font-size="12.00">Markov::Random::RandomEngine</text>
<polyline fill="none" stroke="black" points="1.5,-745.5 218.5,-745.5 "/>
<text text-anchor="middle" x="110" y="-731.9" font-family="Helvetica,sans-Serif" font-size="12.00"> </text>
<polyline fill="none" stroke="black" points="1.5,-724.5 218.5,-724.5 "/>
<text text-anchor="start" x="9.5" y="-710.9" font-family="Helvetica,sans-Serif" font-size="12.00">+ virtual unsigned long</text>
<text text-anchor="start" x="9.5" y="-697.9" font-family="Helvetica,sans-Serif" font-size="12.00"> random()=0</text>
</a>
</g>
</g>
<!-- Node4&#45;&gt;Node3 -->
<g id="edge3" class="edge">
<title>Node4&#45;&gt;Node3</title>
<path fill="none" stroke="midnightblue" d="M110,-680.14C110,-671.76 110,-662.82 110,-653.8"/>
<polygon fill="none" stroke="midnightblue" points="106.5,-680.41 110,-690.41 113.5,-680.41 106.5,-680.41"/>
</g>
<!-- Node5 -->
<g id="node5" class="node">
<title>Node5</title>
<g id="a_node5"><a xlink:href="class_markov_1_1_a_p_i_1_1_c_u_d_a_1_1_c_u_d_a_device_controller.html" target="_top" xlink:title="Controller class for CUDA device.">
<polygon fill="none" stroke="black" points="220,-152.5 220,-449.5 398,-449.5 398,-152.5 220,-152.5"/>
<text text-anchor="start" x="228" y="-435.9" font-family="Helvetica,sans-Serif" font-size="12.00">Markov::API::CUDA::</text>
<text text-anchor="middle" x="309" y="-422.9" font-family="Helvetica,sans-Serif" font-size="12.00">CUDADeviceController</text>
<polyline fill="none" stroke="black" points="220,-415.5 398,-415.5 "/>
<text text-anchor="middle" x="309" y="-401.9" font-family="Helvetica,sans-Serif" font-size="12.00"> </text>
<polyline fill="none" stroke="black" points="220,-394.5 398,-394.5 "/>
<text text-anchor="start" x="228" y="-380.9" font-family="Helvetica,sans-Serif" font-size="12.00">+ static __host__ void</text>
<text text-anchor="start" x="228" y="-367.9" font-family="Helvetica,sans-Serif" font-size="12.00"> ListCudaDevices()</text>
<text text-anchor="start" x="228" y="-354.9" font-family="Helvetica,sans-Serif" font-size="12.00"># static __host__ int</text>
<text text-anchor="start" x="228" y="-341.9" font-family="Helvetica,sans-Serif" font-size="12.00"> CudaCheckNotifyErr</text>
<text text-anchor="start" x="228" y="-328.9" font-family="Helvetica,sans-Serif" font-size="12.00">(cudaError_t _status,</text>
<text text-anchor="start" x="228" y="-315.9" font-family="Helvetica,sans-Serif" font-size="12.00"> const char *msg, bool</text>
<text text-anchor="start" x="228" y="-302.9" font-family="Helvetica,sans-Serif" font-size="12.00"> bExit=true)</text>
<text text-anchor="start" x="228" y="-289.9" font-family="Helvetica,sans-Serif" font-size="12.00"># static __host__ cudaError</text>
<text text-anchor="start" x="228" y="-276.9" font-family="Helvetica,sans-Serif" font-size="12.00">_t CudaMalloc2DToFlat(T</text>
<text text-anchor="start" x="228" y="-263.9" font-family="Helvetica,sans-Serif" font-size="12.00"> **dst, int row, int col)</text>
<text text-anchor="start" x="228" y="-250.9" font-family="Helvetica,sans-Serif" font-size="12.00"># static __host__ cudaError</text>
<text text-anchor="start" x="228" y="-237.9" font-family="Helvetica,sans-Serif" font-size="12.00">_t CudaMemcpy2DToFlat(T</text>
<text text-anchor="start" x="228" y="-224.9" font-family="Helvetica,sans-Serif" font-size="12.00"> *dst, T **src, int row,</text>
<text text-anchor="start" x="228" y="-211.9" font-family="Helvetica,sans-Serif" font-size="12.00"> int col)</text>
<text text-anchor="start" x="228" y="-198.9" font-family="Helvetica,sans-Serif" font-size="12.00"># static __host__ cudaError</text>
<text text-anchor="start" x="228" y="-185.9" font-family="Helvetica,sans-Serif" font-size="12.00">_t CudaMigrate2DFlat(T</text>
<text text-anchor="start" x="228" y="-172.9" font-family="Helvetica,sans-Serif" font-size="12.00"> **dst, T **src, int row,</text>
<text text-anchor="start" x="228" y="-159.9" font-family="Helvetica,sans-Serif" font-size="12.00"> int col)</text>
</a>
</g>
</g>
<!-- Node5&#45;&gt;Node1 -->
<g id="edge4" class="edge">
<title>Node5&#45;&gt;Node1</title>
<path fill="none" stroke="midnightblue" d="M243.82,-142.92C239.86,-133.36 236.03,-124.14 232.46,-115.54"/>
<polygon fill="none" stroke="midnightblue" points="240.6,-144.28 247.66,-152.18 247.06,-141.6 240.6,-144.28"/>
</g>
</g>
</svg>
