<?xml version="1.0" encoding="UTF-8" standalone="no"?>
<!DOCTYPE svg PUBLIC "-//W3C//DTD SVG 1.1//EN"
 "http://www.w3.org/Graphics/SVG/1.1/DTD/svg11.dtd">
<!-- Generated by graphviz version 2.43.0 (0)
 -->
<!-- Title: Markov::Node::NodeValue Pages: 1 -->
<svg width="394pt" height="149pt"
 viewBox="0.00 0.00 394.00 149.00" xmlns="http://www.w3.org/2000/svg" xmlns:xlink="http://www.w3.org/1999/xlink">
<g id="graph0" class="graph" transform="scale(1 1) rotate(0) translate(4 145)">
<title>Markov::Node::NodeValue</title>
<!-- Node1 -->
<g id="node1" class="node">
<title>Node1</title>
<g id="a_node1"><a xlink:title="Return character representation of this node.">
<polygon fill="#bfbfbf" stroke="black" points="215,-60 215,-81 386,-81 386,-60 215,-60"/>
<text text-anchor="middle" x="300.5" y="-67.4" font-family="Helvetica,sans-Serif" font-size="12.00">Markov::Node::NodeValue</text>
</a>
</g>
</g>
<!-- Node2 -->
<g id="node2" class="node">
<title>Node2</title>
<g id="a_node2"><a xlink:href="class_markov_1_1_model.html#ae16027a94235d2988ac4be35ea07d939" target="_top" xlink:title="Export a file of the model.">
<polygon fill="none" stroke="black" points="17,-106.5 17,-140.5 162,-140.5 162,-106.5 17,-106.5"/>
<text text-anchor="start" x="25" y="-126.9" font-family="Helvetica,sans-Serif" font-size="12.00">Markov::Model&lt; char</text>
<text text-anchor="middle" x="89.5" y="-113.9" font-family="Helvetica,sans-Serif" font-size="12.00"> &gt;::Export</text>
</a>
</g>
</g>
<!-- Node1&#45;&gt;Node2 -->
<g id="edge1" class="edge">
<title>Node1&#45;&gt;Node2</title>
<path fill="none" stroke="midnightblue" d="M248.24,-83.5C221.02,-90.4 187.21,-98.98 157.88,-106.41"/>
<polygon fill="midnightblue" stroke="midnightblue" points="249.13,-86.89 257.96,-81.03 247.4,-80.1 249.13,-86.89"/>
</g>
<!-- Node3 -->
<g id="node3" class="node">
<title>Node3</title>
<g id="a_node3"><a xlink:href="class_markov_1_1_model.html#aa4a11c6679c998936332f8409ae95375" target="_top" xlink:title="Do a random walk on this model.">
<polygon fill="none" stroke="black" points="17,-53.5 17,-87.5 162,-87.5 162,-53.5 17,-53.5"/>
<text text-anchor="start" x="25" y="-73.9" font-family="Helvetica,sans-Serif" font-size="12.00">Markov::Model&lt; char</text>
<text text-anchor="middle" x="89.5" y="-60.9" font-family="Helvetica,sans-Serif" font-size="12.00"> &gt;::RandomWalk</text>
</a>
</g>
</g>
<!-- Node1&#45;&gt;Node3 -->
<g id="edge2" class="edge">
<title>Node1&#45;&gt;Node3</title>
<path fill="none" stroke="midnightblue" d="M204.51,-70.5C190.31,-70.5 175.88,-70.5 162.26,-70.5"/>
<polygon fill="midnightblue" stroke="midnightblue" points="204.79,-74 214.79,-70.5 204.79,-67 204.79,-74"/>
</g>
<!-- Node4 -->
<g id="node4" class="node">
<title>Node4</title>
<g id="a_node4"><a xlink:href="namespace_testing_1_1_m_v_p_1_1_markov_model.html#a6e9e664c5a60cb3af863f384a47952ce" target="_top" xlink:title="Test class for minimal viable Node.">
<polygon fill="none" stroke="black" points="0,-0.5 0,-34.5 179,-34.5 179,-0.5 0,-0.5"/>
<text text-anchor="start" x="8" y="-20.9" font-family="Helvetica,sans-Serif" font-size="12.00">Testing::MVP::MarkovModel</text>
<text text-anchor="middle" x="89.5" y="-7.9" font-family="Helvetica,sans-Serif" font-size="12.00">::TEST_CLASS</text>
</a>
</g>
</g>
<!-- Node1&#45;&gt;Node4 -->
<g id="edge3" class="edge">
<title>Node1&#45;&gt;Node4</title>
<path fill="none" stroke="midnightblue" d="M248.24,-57.5C221.02,-50.6 187.21,-42.02 157.88,-34.59"/>
<polygon fill="midnightblue" stroke="midnightblue" points="247.4,-60.9 257.96,-59.97 249.13,-54.11 247.4,-60.9"/>
</g>
</g>
</svg>
