<?xml version="1.0" encoding="UTF-8" standalone="no"?>
<!DOCTYPE svg PUBLIC "-//W3C//DTD SVG 1.1//EN"
 "http://www.w3.org/Graphics/SVG/1.1/DTD/svg11.dtd">
<!-- Generated by graphviz version 2.43.0 (0)
 -->
<!-- Title: Markov::Node::RandomNext Pages: 1 -->
<svg width="408pt" height="149pt"
 viewBox="0.00 0.00 408.00 149.00" xmlns="http://www.w3.org/2000/svg" xmlns:xlink="http://www.w3.org/1999/xlink">
<g id="graph0" class="graph" transform="scale(1 1) rotate(0) translate(4 145)">
<title>Markov::Node::RandomNext</title>
<!-- Node1 -->
<g id="node1" class="node">
<title>Node1</title>
<g id="a_node1"><a xlink:title="Chose a random node from the list of edges, with regards to its EdgeWeight, and TraverseNode to that.">
<polygon fill="#bfbfbf" stroke="black" points="215,-60 215,-81 400,-81 400,-60 215,-60"/>
<text text-anchor="middle" x="307.5" y="-67.4" font-family="Helvetica,sans-Serif" font-size="12.00">Markov::Node::RandomNext</text>
</a>
</g>
</g>
<!-- Node2 -->
<g id="node2" class="node">
<title>Node2</title>
<g id="a_node2"><a xlink:href="class_markov_1_1_model.html#aa4a11c6679c998936332f8409ae95375" target="_top" xlink:title="Do a random walk on this model.">
<polygon fill="none" stroke="black" points="17,-106.5 17,-140.5 162,-140.5 162,-106.5 17,-106.5"/>
<text text-anchor="start" x="25" y="-126.9" font-family="Helvetica,sans-Serif" font-size="12.00">Markov::Model&lt; char</text>
<text text-anchor="middle" x="89.5" y="-113.9" font-family="Helvetica,sans-Serif" font-size="12.00"> &gt;::RandomWalk</text>
</a>
</g>
</g>
<!-- Node1&#45;&gt;Node2 -->
<g id="edge1" class="edge">
<title>Node1&#45;&gt;Node2</title>
<path fill="none" stroke="midnightblue" d="M253.53,-83.5C225.39,-90.4 190.44,-98.98 160.14,-106.41"/>
<polygon fill="midnightblue" stroke="midnightblue" points="254.69,-86.82 263.57,-81.03 253.02,-80.02 254.69,-86.82"/>
</g>
<!-- Node3 -->
<g id="node3" class="node">
<title>Node3</title>
<g id="a_node3"><a xlink:href="namespace_testing_1_1_m_v_p_1_1_markov_model.html#a6e9e664c5a60cb3af863f384a47952ce" target="_top" xlink:title="Test class for minimal viable Node.">
<polygon fill="none" stroke="black" points="0,-53.5 0,-87.5 179,-87.5 179,-53.5 0,-53.5"/>
<text text-anchor="start" x="8" y="-73.9" font-family="Helvetica,sans-Serif" font-size="12.00">Testing::MVP::MarkovModel</text>
<text text-anchor="middle" x="89.5" y="-60.9" font-family="Helvetica,sans-Serif" font-size="12.00">::TEST_CLASS</text>
</a>
</g>
</g>
<!-- Node1&#45;&gt;Node3 -->
<g id="edge2" class="edge">
<title>Node1&#45;&gt;Node3</title>
<path fill="none" stroke="midnightblue" d="M204.85,-70.5C196.27,-70.5 187.62,-70.5 179.15,-70.5"/>
<polygon fill="midnightblue" stroke="midnightblue" points="204.9,-74 214.9,-70.5 204.9,-67 204.9,-74"/>
</g>
<!-- Node4 -->
<g id="node4" class="node">
<title>Node4</title>
<g id="a_node4"><a xlink:href="namespace_testing_1_1_markov_model.html#ad59534ad9237abf1a8b09bd7f9263da2" target="_top" xlink:title="Test class for rest of Node cases.">
<polygon fill="none" stroke="black" points="17,-0.5 17,-34.5 162,-34.5 162,-0.5 17,-0.5"/>
<text text-anchor="start" x="25" y="-20.9" font-family="Helvetica,sans-Serif" font-size="12.00">Testing::MarkovModel</text>
<text text-anchor="middle" x="89.5" y="-7.9" font-family="Helvetica,sans-Serif" font-size="12.00">::TEST_CLASS</text>
</a>
</g>
</g>
<!-- Node1&#45;&gt;Node4 -->
<g id="edge3" class="edge">
<title>Node1&#45;&gt;Node4</title>
<path fill="none" stroke="midnightblue" d="M253.53,-57.5C225.39,-50.6 190.44,-42.02 160.14,-34.59"/>
<polygon fill="midnightblue" stroke="midnightblue" points="253.02,-60.98 263.57,-59.97 254.69,-54.18 253.02,-60.98"/>
</g>
</g>
</svg>
