<?xml version="1.0" encoding="UTF-8" standalone="no"?>
<!DOCTYPE svg PUBLIC "-//W3C//DTD SVG 1.1//EN"
 "http://www.w3.org/Graphics/SVG/1.1/DTD/svg11.dtd">
<!-- Generated by graphviz version 2.43.0 (0)
 -->
<!-- Title: Markov::API::ModelMatrix::ConstructMatrix Pages: 1 -->
<svg width="424pt" height="230pt"
 viewBox="0.00 0.00 424.00 230.00" xmlns="http://www.w3.org/2000/svg" xmlns:xlink="http://www.w3.org/1999/xlink">
<g id="graph0" class="graph" transform="scale(1 1) rotate(0) translate(4 226)">
<title>Markov::API::ModelMatrix::ConstructMatrix</title>
<!-- Node1 -->
<g id="node1" class="node">
<title>Node1</title>
<g id="a_node1"><a xlink:title="Construct the related Matrix data for the model.">
<polygon fill="#bfbfbf" stroke="black" points="0,-94 0,-128 169,-128 169,-94 0,-94"/>
<text text-anchor="start" x="8" y="-114.4" font-family="Helvetica,sans-Serif" font-size="12.00">Markov::API::ModelMatrix</text>
<text text-anchor="middle" x="84.5" y="-101.4" font-family="Helvetica,sans-Serif" font-size="12.00">::ConstructMatrix</text>
</a>
</g>
</g>
<!-- Node2 -->
<g id="node2" class="node">
<title>Node2</title>
<g id="a_node2"><a xlink:href="class_markov_1_1_edge.html#a2b1e5a6e6f81502cd8ac6b20ed38b677" target="_top" xlink:title="return edge&#39;s EdgeWeight.">
<polygon fill="none" stroke="black" points="222.5,-200.5 222.5,-221.5 398.5,-221.5 398.5,-200.5 222.5,-200.5"/>
<text text-anchor="middle" x="310.5" y="-207.9" font-family="Helvetica,sans-Serif" font-size="12.00">Markov::Edge::EdgeWeight</text>
</a>
</g>
</g>
<!-- Node1&#45;&gt;Node2 -->
<g id="edge1" class="edge">
<title>Node1&#45;&gt;Node2</title>
<path fill="none" stroke="midnightblue" d="M105.62,-128.21C128.26,-146.64 166.89,-175.36 205,-191 211.26,-193.57 217.86,-195.81 224.59,-197.77"/>
<polygon fill="midnightblue" stroke="midnightblue" points="223.94,-201.22 234.5,-200.44 225.76,-194.46 223.94,-201.22"/>
</g>
<!-- Node3 -->
<g id="node3" class="node">
<title>Node3</title>
<g id="a_node3"><a xlink:href="class_markov_1_1_model.html#a71f6df805e340ce96e9dc4ee4ebc6537" target="_top" xlink:title="Return starter Node.">
<polygon fill="none" stroke="black" points="236,-160.5 236,-181.5 385,-181.5 385,-160.5 236,-160.5"/>
<text text-anchor="middle" x="310.5" y="-167.9" font-family="Helvetica,sans-Serif" font-size="12.00">Markov::Model::Nodes</text>
</a>
</g>
</g>
<!-- Node1&#45;&gt;Node3 -->
<g id="edge2" class="edge">
<title>Node1&#45;&gt;Node3</title>
<path fill="none" stroke="midnightblue" d="M131.6,-128.04C153.61,-135.76 180.45,-144.57 205,-151 215.33,-153.7 226.32,-156.21 237.15,-158.46"/>
<polygon fill="midnightblue" stroke="midnightblue" points="236.53,-161.91 247.03,-160.46 237.92,-155.05 236.53,-161.91"/>
</g>
<!-- Node4 -->
<g id="node4" class="node">
<title>Node4</title>
<g id="a_node4"><a xlink:href="class_markov_1_1_node.html#ac7cce56376f2a00764f64a0194cbb498" target="_top" xlink:title="Return character representation of this node.">
<polygon fill="none" stroke="black" points="225,-120.5 225,-141.5 396,-141.5 396,-120.5 225,-120.5"/>
<text text-anchor="middle" x="310.5" y="-127.9" font-family="Helvetica,sans-Serif" font-size="12.00">Markov::Node::NodeValue</text>
</a>
</g>
</g>
<!-- Node1&#45;&gt;Node4 -->
<g id="edge3" class="edge">
<title>Node1&#45;&gt;Node4</title>
<path fill="none" stroke="midnightblue" d="M169.23,-118.48C183.97,-119.79 199.41,-121.17 214.43,-122.51"/>
<polygon fill="midnightblue" stroke="midnightblue" points="214.48,-126.03 224.75,-123.43 215.11,-119.06 214.48,-126.03"/>
</g>
<!-- Node5 -->
<g id="node5" class="node">
<title>Node5</title>
<g id="a_node5"><a xlink:href="class_markov_1_1_edge.html#a2e7d14e46631c85c84f6f8f1dd2949cd" target="_top" xlink:title="return edge&#39;s RightNode">
<polygon fill="none" stroke="black" points="226.5,-80.5 226.5,-101.5 394.5,-101.5 394.5,-80.5 226.5,-80.5"/>
<text text-anchor="middle" x="310.5" y="-87.9" font-family="Helvetica,sans-Serif" font-size="12.00">Markov::Edge::RightNode</text>
</a>
</g>
</g>
<!-- Node1&#45;&gt;Node5 -->
<g id="edge4" class="edge">
<title>Node1&#45;&gt;Node5</title>
<path fill="none" stroke="midnightblue" d="M169.23,-103.52C184.52,-102.16 200.56,-100.73 216.11,-99.34"/>
<polygon fill="midnightblue" stroke="midnightblue" points="216.6,-102.81 226.25,-98.43 215.97,-95.84 216.6,-102.81"/>
</g>
<!-- Node6 -->
<g id="node6" class="node">
<title>Node6</title>
<g id="a_node6"><a xlink:href="class_markov_1_1_model.html#a0e53104e4ec665f005529f51a80c857d" target="_top" xlink:title="Return starter Node.">
<polygon fill="none" stroke="black" points="218,-40.5 218,-61.5 403,-61.5 403,-40.5 218,-40.5"/>
<text text-anchor="middle" x="310.5" y="-47.9" font-family="Helvetica,sans-Serif" font-size="12.00">Markov::Model::StarterNode</text>
</a>
</g>
</g>
<!-- Node1&#45;&gt;Node6 -->
<g id="edge5" class="edge">
<title>Node1&#45;&gt;Node6</title>
<path fill="none" stroke="midnightblue" d="M131.6,-93.96C153.61,-86.24 180.45,-77.43 205,-71 215.33,-68.3 226.32,-65.79 237.15,-63.54"/>
<polygon fill="midnightblue" stroke="midnightblue" points="237.92,-66.95 247.03,-61.54 236.53,-60.09 237.92,-66.95"/>
</g>
<!-- Node7 -->
<g id="node7" class="node">
<title>Node7</title>
<g id="a_node7"><a xlink:href="class_markov_1_1_node.html#a60166d8f501c016de104f48e46bff223" target="_top" xlink:title="return total edge weights">
<polygon fill="none" stroke="black" points="205,-0.5 205,-21.5 416,-21.5 416,-0.5 205,-0.5"/>
<text text-anchor="middle" x="310.5" y="-7.9" font-family="Helvetica,sans-Serif" font-size="12.00">Markov::Node::TotalEdgeWeights</text>
</a>
</g>
</g>
<!-- Node1&#45;&gt;Node7 -->
<g id="edge6" class="edge">
<title>Node1&#45;&gt;Node7</title>
<path fill="none" stroke="midnightblue" d="M105.62,-93.79C128.26,-75.36 166.89,-46.64 205,-31 211.26,-28.43 217.86,-26.19 224.59,-24.23"/>
<polygon fill="midnightblue" stroke="midnightblue" points="225.76,-27.54 234.5,-21.56 223.94,-20.78 225.76,-27.54"/>
</g>
</g>
</svg>
