<?xml version="1.0" encoding="UTF-8" standalone="no"?>
<!DOCTYPE svg PUBLIC "-//W3C//DTD SVG 1.1//EN"
 "http://www.w3.org/Graphics/SVG/1.1/DTD/svg11.dtd">
<!-- Generated by graphviz version 2.43.0 (0)
 -->
<!-- Title: Markov::GUI::about Pages: 1 -->
<svg width="140pt" height="172pt"
 viewBox="0.00 0.00 140.00 172.00" xmlns="http://www.w3.org/2000/svg" xmlns:xlink="http://www.w3.org/1999/xlink">
<g id="graph0" class="graph" transform="scale(1 1) rotate(0) translate(4 168)">
<title>Markov::GUI::about</title>
<!-- Node1 -->
<g id="node1" class="node">
<title>Node1</title>
<g id="a_node1"><a xlink:title="QT Class for about page.">
<polygon fill="#bfbfbf" stroke="black" points="0,-0.5 0,-63.5 132,-63.5 132,-0.5 0,-0.5"/>
<text text-anchor="middle" x="66" y="-49.9" font-family="Helvetica,sans-Serif" font-size="12.00">Markov::GUI::about</text>
<polyline fill="none" stroke="black" points="0,-42.5 132,-42.5 "/>
<text text-anchor="start" x="8" y="-28.9" font-family="Helvetica,sans-Serif" font-size="12.00">&#45; ui</text>
<polyline fill="none" stroke="black" points="0,-21.5 132,-21.5 "/>
<text text-anchor="start" x="8" y="-7.9" font-family="Helvetica,sans-Serif" font-size="12.00">+ about()</text>
</a>
</g>
</g>
<!-- Node2 -->
<g id="node2" class="node">
<title>Node2</title>
<g id="a_node2"><a xlink:href="class_q_main_window.html" target="_top" xlink:title=" ">
<polygon fill="none" stroke="black" points="15,-100.5 15,-163.5 117,-163.5 117,-100.5 15,-100.5"/>
<text text-anchor="middle" x="66" y="-149.9" font-family="Helvetica,sans-Serif" font-size="12.00">QMainWindow</text>
<polyline fill="none" stroke="black" points="15,-142.5 117,-142.5 "/>
<text text-anchor="middle" x="66" y="-128.9" font-family="Helvetica,sans-Serif" font-size="12.00"> </text>
<polyline fill="none" stroke="black" points="15,-121.5 117,-121.5 "/>
<text text-anchor="middle" x="66" y="-107.9" font-family="Helvetica,sans-Serif" font-size="12.00"> </text>
</a>
</g>
</g>
<!-- Node2&#45;&gt;Node1 -->
<g id="edge1" class="edge">
<title>Node2&#45;&gt;Node1</title>
<path fill="none" stroke="midnightblue" d="M66,-90.1C66,-81.24 66,-72.01 66,-63.63"/>
<polygon fill="none" stroke="midnightblue" points="62.5,-90.26 66,-100.26 69.5,-90.26 62.5,-90.26"/>
</g>
</g>
</svg>
