<?xml version="1.0" encoding="UTF-8" standalone="no"?>
<!DOCTYPE svg PUBLIC "-//W3C//DTD SVG 1.1//EN"
 "http://www.w3.org/Graphics/SVG/1.1/DTD/svg11.dtd">
<!-- Generated by graphviz version 2.43.0 (0)
 -->
<!-- Title: Markov::Random::Marsaglia Pages: 1 -->
<svg width="228pt" height="580pt"
 viewBox="0.00 0.00 228.00 580.00" xmlns="http://www.w3.org/2000/svg" xmlns:xlink="http://www.w3.org/1999/xlink">
<g id="graph0" class="graph" transform="scale(1 1) rotate(0) translate(4 576)">
<title>Markov::Random::Marsaglia</title>
<!-- Node1 -->
<g id="node1" class="node">
<title>Node1</title>
<g id="a_node1"><a xlink:title="Implementation of Marsaglia Random Engine.">
<polygon fill="#bfbfbf" stroke="black" points="18,-152.5 18,-254.5 202,-254.5 202,-152.5 18,-152.5"/>
<text text-anchor="middle" x="110" y="-240.9" font-family="Helvetica,sans-Serif" font-size="12.00">Markov::Random::Marsaglia</text>
<polyline fill="none" stroke="black" points="18,-233.5 202,-233.5 "/>
<text text-anchor="start" x="26" y="-219.9" font-family="Helvetica,sans-Serif" font-size="12.00">+ unsigned long x</text>
<text text-anchor="start" x="26" y="-206.9" font-family="Helvetica,sans-Serif" font-size="12.00">+ unsigned long y</text>
<text text-anchor="start" x="26" y="-193.9" font-family="Helvetica,sans-Serif" font-size="12.00">+ unsigned long z</text>
<polyline fill="none" stroke="black" points="18,-186.5 202,-186.5 "/>
<text text-anchor="start" x="26" y="-172.9" font-family="Helvetica,sans-Serif" font-size="12.00">+ Marsaglia()</text>
<text text-anchor="start" x="26" y="-159.9" font-family="Helvetica,sans-Serif" font-size="12.00">+ unsigned long random()</text>
</a>
</g>
</g>
<!-- Node4 -->
<g id="node4" class="node">
<title>Node4</title>
<g id="a_node4"><a xlink:href="class_markov_1_1_a_p_i_1_1_c_u_d_a_1_1_random_1_1_marsaglia.html" target="_top" xlink:title="Extension of Markov::Random::Marsaglia which is capable o working on device space.">
<polygon fill="none" stroke="black" points="5.5,-0.5 5.5,-115.5 214.5,-115.5 214.5,-0.5 5.5,-0.5"/>
<text text-anchor="start" x="13.5" y="-101.9" font-family="Helvetica,sans-Serif" font-size="12.00">Markov::API::CUDA::</text>
<text text-anchor="middle" x="110" y="-88.9" font-family="Helvetica,sans-Serif" font-size="12.00">Random::Marsaglia</text>
<polyline fill="none" stroke="black" points="5.5,-81.5 214.5,-81.5 "/>
<text text-anchor="middle" x="110" y="-67.9" font-family="Helvetica,sans-Serif" font-size="12.00"> </text>
<polyline fill="none" stroke="black" points="5.5,-60.5 214.5,-60.5 "/>
<text text-anchor="start" x="13.5" y="-46.9" font-family="Helvetica,sans-Serif" font-size="12.00">+ static unsigned long</text>
<text text-anchor="start" x="13.5" y="-33.9" font-family="Helvetica,sans-Serif" font-size="12.00"> * MigrateToVRAM(Markov</text>
<text text-anchor="start" x="13.5" y="-20.9" font-family="Helvetica,sans-Serif" font-size="12.00">::API::CUDA::Random::Marsaglia</text>
<text text-anchor="start" x="13.5" y="-7.9" font-family="Helvetica,sans-Serif" font-size="12.00"> *MEarr, long int gridSize)</text>
</a>
</g>
</g>
<!-- Node1&#45;&gt;Node4 -->
<g id="edge3" class="edge">
<title>Node1&#45;&gt;Node4</title>
<path fill="none" stroke="midnightblue" d="M110,-142.18C110,-133.44 110,-124.46 110,-115.79"/>
<polygon fill="none" stroke="midnightblue" points="106.5,-142.31 110,-152.31 113.5,-142.31 106.5,-142.31"/>
</g>
<!-- Node2 -->
<g id="node2" class="node">
<title>Node2</title>
<g id="a_node2"><a xlink:href="class_markov_1_1_random_1_1_default_random_engine.html" target="_top" xlink:title="Implementation using Random.h default random engine.">
<polygon fill="none" stroke="black" points="0,-291.5 0,-458.5 220,-458.5 220,-291.5 0,-291.5"/>
<text text-anchor="start" x="8" y="-444.9" font-family="Helvetica,sans-Serif" font-size="12.00">Markov::Random::DefaultRandom</text>
<text text-anchor="middle" x="110" y="-431.9" font-family="Helvetica,sans-Serif" font-size="12.00">Engine</text>
<polyline fill="none" stroke="black" points="0,-424.5 220,-424.5 "/>
<text text-anchor="middle" x="110" y="-410.9" font-family="Helvetica,sans-Serif" font-size="12.00"> </text>
<polyline fill="none" stroke="black" points="0,-403.5 220,-403.5 "/>
<text text-anchor="start" x="8" y="-389.9" font-family="Helvetica,sans-Serif" font-size="12.00">+ unsigned long random()</text>
<text text-anchor="start" x="8" y="-376.9" font-family="Helvetica,sans-Serif" font-size="12.00"># std::random_device</text>
<text text-anchor="start" x="8" y="-363.9" font-family="Helvetica,sans-Serif" font-size="12.00"> &amp; rd()</text>
<text text-anchor="start" x="8" y="-350.9" font-family="Helvetica,sans-Serif" font-size="12.00"># std::default_random</text>
<text text-anchor="start" x="8" y="-337.9" font-family="Helvetica,sans-Serif" font-size="12.00">_engine &amp; generator()</text>
<text text-anchor="start" x="8" y="-324.9" font-family="Helvetica,sans-Serif" font-size="12.00"># std::uniform_int_distribution</text>
<text text-anchor="start" x="8" y="-311.9" font-family="Helvetica,sans-Serif" font-size="12.00">&lt; long long unsigned &gt; &amp;</text>
<text text-anchor="start" x="8" y="-298.9" font-family="Helvetica,sans-Serif" font-size="12.00"> distribution()</text>
</a>
</g>
</g>
<!-- Node2&#45;&gt;Node1 -->
<g id="edge1" class="edge">
<title>Node2&#45;&gt;Node1</title>
<path fill="none" stroke="midnightblue" d="M110,-281.04C110,-272.04 110,-263.17 110,-254.83"/>
<polygon fill="none" stroke="midnightblue" points="106.5,-281.24 110,-291.24 113.5,-281.24 106.5,-281.24"/>
</g>
<!-- Node3 -->
<g id="node3" class="node">
<title>Node3</title>
<g id="a_node3"><a xlink:href="class_markov_1_1_random_1_1_random_engine.html" target="_top" xlink:title="An abstract class for Random Engine.">
<polygon fill="none" stroke="black" points="1.5,-495.5 1.5,-571.5 218.5,-571.5 218.5,-495.5 1.5,-495.5"/>
<text text-anchor="middle" x="110" y="-557.9" font-family="Helvetica,sans-Serif" font-size="12.00">Markov::Random::RandomEngine</text>
<polyline fill="none" stroke="black" points="1.5,-550.5 218.5,-550.5 "/>
<text text-anchor="middle" x="110" y="-536.9" font-family="Helvetica,sans-Serif" font-size="12.00"> </text>
<polyline fill="none" stroke="black" points="1.5,-529.5 218.5,-529.5 "/>
<text text-anchor="start" x="9.5" y="-515.9" font-family="Helvetica,sans-Serif" font-size="12.00">+ virtual unsigned long</text>
<text text-anchor="start" x="9.5" y="-502.9" font-family="Helvetica,sans-Serif" font-size="12.00"> random()=0</text>
</a>
</g>
</g>
<!-- Node3&#45;&gt;Node2 -->
<g id="edge2" class="edge">
<title>Node3&#45;&gt;Node2</title>
<path fill="none" stroke="midnightblue" d="M110,-485.14C110,-476.76 110,-467.82 110,-458.8"/>
<polygon fill="none" stroke="midnightblue" points="106.5,-485.41 110,-495.41 113.5,-485.41 106.5,-485.41"/>
</g>
</g>
</svg>
