<?xml version="1.0" encoding="UTF-8" standalone="no"?>
<!DOCTYPE svg PUBLIC "-//W3C//DTD SVG 1.1//EN"
 "http://www.w3.org/Graphics/SVG/1.1/DTD/svg11.dtd">
<!-- Generated by graphviz version 2.43.0 (0)
 -->
<!-- Title: base.AbstractTrainingModelCLI Pages: 1 -->
<!--zoomable 480 -->
<svg id="main" version="1.1" xmlns="http://www.w3.org/2000/svg" xmlns:xlink="http://www.w3.org/1999/xlink" xml:space="preserve" onload="init(evt)">
<style type="text/css"><![CDATA[
.edge:hover path { stroke: red; }
.edge:hover polygon { stroke: red; fill: red; }
]]></style>
<script type="text/javascript"><![CDATA[
var edges = document.getElementsByTagName('g');
if (edges && edges.length) {
  for (var i=0;i<edges.length;i++) {
    if (edges[i].id.substr(0,4)=='edge') {
      edges[i].setAttribute('class','edge');
    }
  }
}
]]></script>
        <defs>
                <circle id="rim" cx="0" cy="0" r="7"/>
                <circle id="rim2" cx="0" cy="0" r="3.5"/>
                <g id="zoomPlus">
                        <use xlink:href="#rim" fill="#404040">
                                <set attributeName="fill" to="#808080" begin="zoomplus.mouseover" end="zoomplus.mouseout"/>
                        </use>
                        <path d="M-4,0h8M0,-4v8" fill="none" stroke="white" stroke-width="1.5" pointer-events="none"/>
                </g>
                <g id="zoomMin">
                        <use xlink:href="#rim" fill="#404040">
                                <set attributeName="fill" to="#808080" begin="zoomminus.mouseover" end="zoomminus.mouseout"/>
                        </use>
                        <path d="M-4,0h8" fill="none" stroke="white" stroke-width="1.5" pointer-events="none"/>
                </g>
                <g id="dirArrow">
                        <path fill="none" stroke="white" stroke-width="1.5" d="M0,-3.0v7 M-2.5,-0.5L0,-3.0L2.5,-0.5"/>
                </g>
               <g id="resetDef">
                       <use xlink:href="#rim2" fill="#404040">
                               <set attributeName="fill" to="#808080" begin="reset.mouseover" end="reset.mouseout"/>
                       </use>
               </g>
        </defs>

<script type="text/javascript">
var viewWidth = 289;
var viewHeight = 480;
var sectionId = 'dynsection-1';
</script>
<script xlink:href="svgpan.js"/>
<svg id="graph" class="graph">
<g id="viewport">
<title>base.AbstractTrainingModelCLI</title>
<!-- Node1 -->
<g id="node1" class="node">
<title>Node1</title>
<g id="a_node1"><a xlink:title=" ">
<polygon fill="#bfbfbf" stroke="black" points="0,-0.5 0,-63.5 200,-63.5 200,-0.5 0,-0.5"/>
<text text-anchor="middle" x="100" y="-49.9" font-family="Helvetica,sans-Serif" font-size="12.00">base.AbstractTrainingModelCLI</text>
<polyline fill="none" stroke="black" points="0,-42.5 200,-42.5 "/>
<text text-anchor="middle" x="100" y="-28.9" font-family="Helvetica,sans-Serif" font-size="12.00"> </text>
<polyline fill="none" stroke="black" points="0,-21.5 200,-21.5 "/>
<text text-anchor="start" x="8" y="-7.9" font-family="Helvetica,sans-Serif" font-size="12.00">+ add_arguments()</text>
</a>
</g>
</g>
<!-- Node2 -->
<g id="node2" class="node">
<title>Node2</title>
<g id="a_node2"><a xlink:href="classbase_1_1_abstract_generation_model_c_l_i.html" target="_top" xlink:title=" ">
<polygon fill="none" stroke="black" points="59.5,-100.5 59.5,-163.5 280.5,-163.5 280.5,-100.5 59.5,-100.5"/>
<text text-anchor="middle" x="170" y="-149.9" font-family="Helvetica,sans-Serif" font-size="12.00">base.AbstractGenerationModelCLI</text>
<polyline fill="none" stroke="black" points="59.5,-142.5 280.5,-142.5 "/>
<text text-anchor="middle" x="170" y="-128.9" font-family="Helvetica,sans-Serif" font-size="12.00"> </text>
<polyline fill="none" stroke="black" points="59.5,-121.5 280.5,-121.5 "/>
<text text-anchor="start" x="67.5" y="-107.9" font-family="Helvetica,sans-Serif" font-size="12.00">+ add_arguments()</text>
</a>
</g>
</g>
<!-- Node2&#45;&gt;Node1 -->
<g id="edge1" class="edge">
<title>Node2&#45;&gt;Node1</title>
<path fill="none" stroke="midnightblue" d="M142.22,-92.11C135.46,-82.65 128.32,-72.65 121.88,-63.63"/>
<polygon fill="none" stroke="midnightblue" points="139.38,-94.16 148.04,-100.26 145.08,-90.09 139.38,-94.16"/>
</g>
<!-- Node3 -->
<g id="node3" class="node">
<title>Node3</title>
<g id="a_node3"><a xlink:href="classbase_1_1_base_c_l_i.html" target="_top" xlink:title=" ">
<polygon fill="none" stroke="black" points="20.5,-200.5 20.5,-471.5 179.5,-471.5 179.5,-200.5 20.5,-200.5"/>
<text text-anchor="middle" x="100" y="-457.9" font-family="Helvetica,sans-Serif" font-size="12.00">base.BaseCLI</text>
<polyline fill="none" stroke="black" points="20.5,-450.5 179.5,-450.5 "/>
<text text-anchor="start" x="28.5" y="-436.9" font-family="Helvetica,sans-Serif" font-size="12.00">+ parser</text>
<text text-anchor="start" x="28.5" y="-423.9" font-family="Helvetica,sans-Serif" font-size="12.00">+ print_help</text>
<text text-anchor="start" x="28.5" y="-410.9" font-family="Helvetica,sans-Serif" font-size="12.00">+ args</text>
<polyline fill="none" stroke="black" points="20.5,-403.5 179.5,-403.5 "/>
<text text-anchor="start" x="28.5" y="-389.9" font-family="Helvetica,sans-Serif" font-size="12.00">+ __init__()</text>
<text text-anchor="start" x="28.5" y="-376.9" font-family="Helvetica,sans-Serif" font-size="12.00">+ add_arguments()</text>
<text text-anchor="start" x="28.5" y="-363.9" font-family="Helvetica,sans-Serif" font-size="12.00">+ help()</text>
<text text-anchor="start" x="28.5" y="-350.9" font-family="Helvetica,sans-Serif" font-size="12.00">+ parse()</text>
<text text-anchor="start" x="28.5" y="-337.9" font-family="Helvetica,sans-Serif" font-size="12.00">+ init_post_arguments()</text>
<text text-anchor="start" x="28.5" y="-324.9" font-family="Helvetica,sans-Serif" font-size="12.00">+ parse_arguments()</text>
<text text-anchor="start" x="28.5" y="-311.9" font-family="Helvetica,sans-Serif" font-size="12.00">+ import_model()</text>
<text text-anchor="start" x="28.5" y="-298.9" font-family="Helvetica,sans-Serif" font-size="12.00">+ train()</text>
<text text-anchor="start" x="28.5" y="-285.9" font-family="Helvetica,sans-Serif" font-size="12.00">+ export()</text>
<text text-anchor="start" x="28.5" y="-272.9" font-family="Helvetica,sans-Serif" font-size="12.00">+ generate()</text>
<text text-anchor="start" x="28.5" y="-259.9" font-family="Helvetica,sans-Serif" font-size="12.00">+ process()</text>
<text text-anchor="start" x="28.5" y="-246.9" font-family="Helvetica,sans-Serif" font-size="12.00">+ check_import_path()</text>
<text text-anchor="start" x="28.5" y="-233.9" font-family="Helvetica,sans-Serif" font-size="12.00">+ check_corpus_path()</text>
<text text-anchor="start" x="28.5" y="-220.9" font-family="Helvetica,sans-Serif" font-size="12.00">+ check_export_path()</text>
<text text-anchor="start" x="28.5" y="-207.9" font-family="Helvetica,sans-Serif" font-size="12.00">&#45; _generate()</text>
</a>
</g>
</g>
<!-- Node3&#45;&gt;Node1 -->
<g id="edge3" class="edge">
<title>Node3&#45;&gt;Node1</title>
<path fill="none" stroke="midnightblue" d="M46.11,-190.2C41.48,-160.07 41.61,-128.74 51,-100 55.25,-86.99 63.09,-74.4 71.28,-63.73"/>
<polygon fill="none" stroke="midnightblue" points="42.72,-191.11 47.86,-200.37 49.62,-189.92 42.72,-191.11"/>
</g>
<!-- Node3&#45;&gt;Node2 -->
<g id="edge2" class="edge">
<title>Node3&#45;&gt;Node2</title>
<path fill="none" stroke="midnightblue" d="M150.02,-190.66C153.42,-180.84 156.59,-171.69 159.36,-163.71"/>
<polygon fill="none" stroke="midnightblue" points="146.66,-189.67 146.69,-200.26 153.27,-191.96 146.66,-189.67"/>
</g>
</g>
</svg>
        <g id="navigator" transform="translate(0 0)" fill="#404254">
                <rect fill="#f2f5e9" fill-opacity="0.5" stroke="#606060" stroke-width=".5" x="0" y="0" width="60" height="60"/>
                <use id="zoomplus" xlink:href="#zoomPlus" x="17" y="9" onmousedown="handleZoom(evt,'in')"/>
                <use id="zoomminus" xlink:href="#zoomMin" x="42" y="9" onmousedown="handleZoom(evt,'out')"/>
                <use id="reset" xlink:href="#resetDef" x="30" y="36" onmousedown="handleReset()"/>
                <g id="arrowUp" xlink:href="#dirArrow" transform="translate(30 24)" onmousedown="handlePan(0,-1)">
                  <use xlink:href="#rim" fill="#404040">
                        <set attributeName="fill" to="#808080" begin="arrowUp.mouseover" end="arrowUp.mouseout"/>
                  </use>
                  <path fill="none" stroke="white" stroke-width="1.5" d="M0,-3.0v7 M-2.5,-0.5L0,-3.0L2.5,-0.5"/>
                </g>
                <g id="arrowRight" xlink:href="#dirArrow" transform="rotate(90) translate(36 -43)" onmousedown="handlePan(1,0)">
                  <use xlink:href="#rim" fill="#404040">
                        <set attributeName="fill" to="#808080" begin="arrowRight.mouseover" end="arrowRight.mouseout"/>
                  </use>
                  <path fill="none" stroke="white" stroke-width="1.5" d="M0,-3.0v7 M-2.5,-0.5L0,-3.0L2.5,-0.5"/>
                </g>
                <g id="arrowDown" xlink:href="#dirArrow" transform="rotate(180) translate(-30 -48)" onmousedown="handlePan(0,1)">
                  <use xlink:href="#rim" fill="#404040">
                        <set attributeName="fill" to="#808080" begin="arrowDown.mouseover" end="arrowDown.mouseout"/>
                  </use>
                  <path fill="none" stroke="white" stroke-width="1.5" d="M0,-3.0v7 M-2.5,-0.5L0,-3.0L2.5,-0.5"/>
                </g>
                <g id="arrowLeft" xlink:href="#dirArrow" transform="rotate(270) translate(-36 17)" onmousedown="handlePan(-1,0)">
                  <use xlink:href="#rim" fill="#404040">
                        <set attributeName="fill" to="#808080" begin="arrowLeft.mouseover" end="arrowLeft.mouseout"/>
                  </use>
                  <path fill="none" stroke="white" stroke-width="1.5" d="M0,-3.0v7 M-2.5,-0.5L0,-3.0L2.5,-0.5"/>
                </g>
        </g>
        <svg viewBox="0 0 15 15" width="100%" height="30px" preserveAspectRatio="xMaxYMin meet">
         <g id="arrow_out" transform="scale(0.3 0.3)">
          <a xlink:href="classbase_1_1_abstract_training_model_c_l_i__coll__graph_org.svg" target="_base">
           <rect id="button" ry="5" rx="5" y="6" x="6" height="38" width="38"
                fill="#f2f5e9" fill-opacity="0.5" stroke="#606060" stroke-width="1.0"/>
           <path id="arrow"
             d="M 11.500037,31.436501 C 11.940474,20.09759 22.043105,11.32322 32.158766,21.979434 L 37.068811,17.246167 C 37.068811,17.246167 37.088388,32 37.088388,32 L 22.160133,31.978069 C 22.160133,31.978069 26.997745,27.140456 26.997745,27.140456 C 18.528582,18.264221 13.291696,25.230495 11.500037,31.436501 z"
             style="fill:#404040;"/>
          </a>
         </g>
        </svg>
</svg>
