<?xml version="1.0" encoding="UTF-8" standalone="no"?>
<!DOCTYPE svg PUBLIC "-//W3C//DTD SVG 1.1//EN"
 "http://www.w3.org/Graphics/SVG/1.1/DTD/svg11.dtd">
<!-- Generated by graphviz version 2.43.0 (0)
 -->
<!-- Title: Markov::GUI::Generate Pages: 1 -->
<svg width="208pt" height="250pt"
 viewBox="0.00 0.00 207.50 250.00" xmlns="http://www.w3.org/2000/svg" xmlns:xlink="http://www.w3.org/1999/xlink">
<g id="graph0" class="graph" transform="scale(1 1) rotate(0) translate(4 246)">
<title>Markov::GUI::Generate</title>
<!-- Node1 -->
<g id="node1" class="node">
<title>Node1</title>
<g id="a_node1"><a xlink:title="QT Generation page class.">
<polygon fill="#bfbfbf" stroke="black" points="8.5,-0.5 8.5,-128.5 199.5,-128.5 199.5,-0.5 8.5,-0.5"/>
<text text-anchor="middle" x="104" y="-114.9" font-family="Helvetica,sans-Serif" font-size="12.00">Markov::GUI::Generate</text>
<polyline fill="none" stroke="black" points="8.5,-107.5 199.5,-107.5 "/>
<text text-anchor="middle" x="104" y="-93.9" font-family="Helvetica,sans-Serif" font-size="12.00"> </text>
<polyline fill="none" stroke="black" points="8.5,-86.5 199.5,-86.5 "/>
<text text-anchor="start" x="16.5" y="-72.9" font-family="Helvetica,sans-Serif" font-size="12.00">+ Generate(QWidget *parent</text>
<text text-anchor="start" x="16.5" y="-59.9" font-family="Helvetica,sans-Serif" font-size="12.00">=Q_NULLPTR)</text>
<text text-anchor="start" x="16.5" y="-46.9" font-family="Helvetica,sans-Serif" font-size="12.00">+ void home()</text>
<text text-anchor="start" x="16.5" y="-33.9" font-family="Helvetica,sans-Serif" font-size="12.00">+ void generation()</text>
<text text-anchor="start" x="16.5" y="-20.9" font-family="Helvetica,sans-Serif" font-size="12.00">+ void train()</text>
<text text-anchor="start" x="16.5" y="-7.9" font-family="Helvetica,sans-Serif" font-size="12.00">+ void vis()</text>
</a>
</g>
</g>
<!-- Node2 -->
<g id="node2" class="node">
<title>Node2</title>
<g id="a_node2"><a xlink:href="class_q_main_window.html" target="_top" xlink:title=" ">
<polygon fill="none" stroke="black" points="0,-178.5 0,-241.5 102,-241.5 102,-178.5 0,-178.5"/>
<text text-anchor="middle" x="51" y="-227.9" font-family="Helvetica,sans-Serif" font-size="12.00">QMainWindow</text>
<polyline fill="none" stroke="black" points="0,-220.5 102,-220.5 "/>
<text text-anchor="middle" x="51" y="-206.9" font-family="Helvetica,sans-Serif" font-size="12.00"> </text>
<polyline fill="none" stroke="black" points="0,-199.5 102,-199.5 "/>
<text text-anchor="middle" x="51" y="-185.9" font-family="Helvetica,sans-Serif" font-size="12.00"> </text>
</a>
</g>
</g>
<!-- Node2&#45;&gt;Node1 -->
<g id="edge1" class="edge">
<title>Node2&#45;&gt;Node1</title>
<path fill="none" stroke="midnightblue" d="M65.91,-168.63C70.49,-156.22 75.65,-142.25 80.66,-128.69"/>
<polygon fill="none" stroke="midnightblue" points="62.55,-167.62 62.37,-178.22 69.12,-170.05 62.55,-167.62"/>
</g>
<!-- Node3 -->
<g id="node3" class="node">
<title>Node3</title>
<g id="a_node3"><a xlink:title=" ">
<polygon fill="none" stroke="#bfbfbf" points="120.5,-178.5 120.5,-241.5 193.5,-241.5 193.5,-178.5 120.5,-178.5"/>
<text text-anchor="middle" x="157" y="-227.9" font-family="Helvetica,sans-Serif" font-size="12.00">Generate</text>
<polyline fill="none" stroke="#bfbfbf" points="120.5,-220.5 193.5,-220.5 "/>
<text text-anchor="middle" x="157" y="-206.9" font-family="Helvetica,sans-Serif" font-size="12.00"> </text>
<polyline fill="none" stroke="#bfbfbf" points="120.5,-199.5 193.5,-199.5 "/>
<text text-anchor="middle" x="157" y="-185.9" font-family="Helvetica,sans-Serif" font-size="12.00"> </text>
</a>
</g>
</g>
<!-- Node3&#45;&gt;Node1 -->
<g id="edge2" class="edge">
<title>Node3&#45;&gt;Node1</title>
<path fill="none" stroke="#404040" d="M145.63,-178.22C141.45,-166.89 136.51,-153.52 131.52,-140.02"/>
<polygon fill="none" stroke="#404040" points="131.5,-139.95 125.66,-135.7 127.34,-128.69 133.17,-132.93 131.5,-139.95"/>
<text text-anchor="middle" x="147.5" y="-150.4" font-family="Helvetica,sans-Serif" font-size="12.00"> &#45;ui</text>
</g>
</g>
</svg>
