<?xml version="1.0" encoding="UTF-8" standalone="no"?>
<!DOCTYPE svg PUBLIC "-//W3C//DTD SVG 1.1//EN"
 "http://www.w3.org/Graphics/SVG/1.1/DTD/svg11.dtd">
<!-- Generated by graphviz version 2.43.0 (0)
 -->
<!-- Title: Markov::GUI::about Pages: 1 -->
<svg width="178pt" height="185pt"
 viewBox="0.00 0.00 178.00 185.00" xmlns="http://www.w3.org/2000/svg" xmlns:xlink="http://www.w3.org/1999/xlink">
<g id="graph0" class="graph" transform="scale(1 1) rotate(0) translate(4 181)">
<title>Markov::GUI::about</title>
<!-- Node1 -->
<g id="node1" class="node">
<title>Node1</title>
<g id="a_node1"><a xlink:title="QT Class for about page.">
<polygon fill="#bfbfbf" stroke="black" points="0,-0.5 0,-76.5 170,-76.5 170,-0.5 0,-0.5"/>
<text text-anchor="middle" x="85" y="-62.9" font-family="Helvetica,sans-Serif" font-size="12.00">Markov::GUI::about</text>
<polyline fill="none" stroke="black" points="0,-55.5 170,-55.5 "/>
<text text-anchor="start" x="8" y="-41.9" font-family="Helvetica,sans-Serif" font-size="12.00">&#45; Ui::main ui</text>
<polyline fill="none" stroke="black" points="0,-34.5 170,-34.5 "/>
<text text-anchor="start" x="8" y="-20.9" font-family="Helvetica,sans-Serif" font-size="12.00">+ about(QWidget *parent</text>
<text text-anchor="start" x="8" y="-7.9" font-family="Helvetica,sans-Serif" font-size="12.00">=Q_NULLPTR)</text>
</a>
</g>
</g>
<!-- Node2 -->
<g id="node2" class="node">
<title>Node2</title>
<g id="a_node2"><a xlink:href="class_q_main_window.html" target="_top" xlink:title=" ">
<polygon fill="none" stroke="black" points="34,-113.5 34,-176.5 136,-176.5 136,-113.5 34,-113.5"/>
<text text-anchor="middle" x="85" y="-162.9" font-family="Helvetica,sans-Serif" font-size="12.00">QMainWindow</text>
<polyline fill="none" stroke="black" points="34,-155.5 136,-155.5 "/>
<text text-anchor="middle" x="85" y="-141.9" font-family="Helvetica,sans-Serif" font-size="12.00"> </text>
<polyline fill="none" stroke="black" points="34,-134.5 136,-134.5 "/>
<text text-anchor="middle" x="85" y="-120.9" font-family="Helvetica,sans-Serif" font-size="12.00"> </text>
</a>
</g>
</g>
<!-- Node2&#45;&gt;Node1 -->
<g id="edge1" class="edge">
<title>Node2&#45;&gt;Node1</title>
<path fill="none" stroke="midnightblue" d="M85,-103.39C85,-94.54 85,-85.23 85,-76.53"/>
<polygon fill="none" stroke="midnightblue" points="81.5,-103.49 85,-113.49 88.5,-103.49 81.5,-103.49"/>
</g>
</g>
</svg>
