<?xml version="1.0" encoding="UTF-8" standalone="no"?>
<!DOCTYPE svg PUBLIC "-//W3C//DTD SVG 1.1//EN"
 "http://www.w3.org/Graphics/SVG/1.1/DTD/svg11.dtd">
<!-- Generated by graphviz version 2.43.0 (0)
 -->
<!-- Title: Python.Markopy.MarkovPasswordsCLI._generate Pages: 1 -->
<svg width="468pt" height="96pt"
 viewBox="0.00 0.00 468.00 96.00" xmlns="http://www.w3.org/2000/svg" xmlns:xlink="http://www.w3.org/1999/xlink">
<g id="graph0" class="graph" transform="scale(1 1) rotate(0) translate(4 92)">
<title>Python.Markopy.MarkovPasswordsCLI._generate</title>
<!-- Node1 -->
<g id="node1" class="node">
<title>Node1</title>
<g id="a_node1"><a xlink:title=" ">
<polygon fill="#bfbfbf" stroke="black" points="0,-26.5 0,-60.5 221,-60.5 221,-26.5 0,-26.5"/>
<text text-anchor="start" x="8" y="-46.9" font-family="Helvetica,sans-Serif" font-size="12.00">Python.Markopy.MarkovPasswords</text>
<text text-anchor="middle" x="110.5" y="-33.9" font-family="Helvetica,sans-Serif" font-size="12.00">CLI._generate</text>
</a>
</g>
</g>
<!-- Node2 -->
<g id="node2" class="node">
<title>Node2</title>
<g id="a_node2"><a xlink:href="class_python_1_1_markopy_1_1_markov_model.html#a053683d627aaab8dec11ae020a2d09d3" target="_top" xlink:title=" ">
<polygon fill="none" stroke="black" points="258.5,-53.5 258.5,-87.5 458.5,-87.5 458.5,-53.5 258.5,-53.5"/>
<text text-anchor="start" x="266.5" y="-73.9" font-family="Helvetica,sans-Serif" font-size="12.00">Python.Markopy.MarkovModel.</text>
<text text-anchor="middle" x="358.5" y="-60.9" font-family="Helvetica,sans-Serif" font-size="12.00">Generate</text>
</a>
</g>
</g>
<!-- Node1&#45;&gt;Node2 -->
<g id="edge1" class="edge">
<title>Node1&#45;&gt;Node2</title>
<path fill="none" stroke="midnightblue" d="M221.19,-55.54C230.13,-56.52 239.16,-57.51 248.09,-58.49"/>
<polygon fill="midnightblue" stroke="midnightblue" points="247.81,-61.98 258.13,-59.59 248.57,-55.02 247.81,-61.98"/>
</g>
<!-- Node3 -->
<g id="node3" class="node">
<title>Node3</title>
<g id="a_node3"><a xlink:href="class_markov_1_1_g_u_i_1_1_markov_passwords_g_u_i.html#a99619a46f49b909fafeaa6ac8076a333" target="_top" xlink:title=" ">
<polygon fill="none" stroke="black" points="257,-0.5 257,-34.5 460,-34.5 460,-0.5 257,-0.5"/>
<text text-anchor="start" x="265" y="-20.9" font-family="Helvetica,sans-Serif" font-size="12.00">Markov::GUI::MarkovPasswords</text>
<text text-anchor="middle" x="358.5" y="-7.9" font-family="Helvetica,sans-Serif" font-size="12.00">GUI::model</text>
</a>
</g>
</g>
<!-- Node1&#45;&gt;Node3 -->
<g id="edge2" class="edge">
<title>Node1&#45;&gt;Node3</title>
<path fill="none" stroke="midnightblue" d="M221.19,-31.91C229.75,-31 238.41,-30.09 246.98,-29.18"/>
<polygon fill="midnightblue" stroke="midnightblue" points="247.41,-32.65 256.99,-28.12 246.68,-25.69 247.41,-32.65"/>
</g>
</g>
</svg>
