<?xml version="1.0" encoding="UTF-8" standalone="no"?>
<!DOCTYPE svg PUBLIC "-//W3C//DTD SVG 1.1//EN"
 "http://www.w3.org/Graphics/SVG/1.1/DTD/svg11.dtd">
<!-- Generated by graphviz version 2.43.0 (0)
 -->
<!-- Title: Markov::API::CUDA::Random::Marsaglia Pages: 1 -->
<svg width="400pt" height="502pt"
 viewBox="0.00 0.00 399.50 502.00" xmlns="http://www.w3.org/2000/svg" xmlns:xlink="http://www.w3.org/1999/xlink">
<g id="graph0" class="graph" transform="scale(1 1) rotate(0) translate(4 498)">
<title>Markov::API::CUDA::Random::Marsaglia</title>
<!-- Node1 -->
<g id="node1" class="node">
<title>Node1</title>
<g id="a_node1"><a xlink:title="Extension of Markov::Random::Marsaglia which is capable o working on device space.">
<polygon fill="#bfbfbf" stroke="black" points="139.5,-0.5 139.5,-76.5 276.5,-76.5 276.5,-0.5 139.5,-0.5"/>
<text text-anchor="start" x="147.5" y="-62.9" font-family="Helvetica,sans-Serif" font-size="12.00">Markov::API::CUDA::</text>
<text text-anchor="middle" x="208" y="-49.9" font-family="Helvetica,sans-Serif" font-size="12.00">Random::Marsaglia</text>
<polyline fill="none" stroke="black" points="139.5,-42.5 276.5,-42.5 "/>
<text text-anchor="middle" x="208" y="-28.9" font-family="Helvetica,sans-Serif" font-size="12.00"> </text>
<polyline fill="none" stroke="black" points="139.5,-21.5 276.5,-21.5 "/>
<text text-anchor="start" x="147.5" y="-7.9" font-family="Helvetica,sans-Serif" font-size="12.00">+ MigrateToVRAM()</text>
</a>
</g>
</g>
<!-- Node2 -->
<g id="node2" class="node">
<title>Node2</title>
<g id="a_node2"><a xlink:href="class_markov_1_1_random_1_1_marsaglia.html" target="_top" xlink:title="Implementation of Marsaglia Random Engine.">
<polygon fill="none" stroke="black" points="18,-126.5 18,-228.5 202,-228.5 202,-126.5 18,-126.5"/>
<text text-anchor="middle" x="110" y="-214.9" font-family="Helvetica,sans-Serif" font-size="12.00">Markov::Random::Marsaglia</text>
<polyline fill="none" stroke="black" points="18,-207.5 202,-207.5 "/>
<text text-anchor="start" x="26" y="-193.9" font-family="Helvetica,sans-Serif" font-size="12.00">+ x</text>
<text text-anchor="start" x="26" y="-180.9" font-family="Helvetica,sans-Serif" font-size="12.00">+ y</text>
<text text-anchor="start" x="26" y="-167.9" font-family="Helvetica,sans-Serif" font-size="12.00">+ z</text>
<polyline fill="none" stroke="black" points="18,-160.5 202,-160.5 "/>
<text text-anchor="start" x="26" y="-146.9" font-family="Helvetica,sans-Serif" font-size="12.00">+ Marsaglia()</text>
<text text-anchor="start" x="26" y="-133.9" font-family="Helvetica,sans-Serif" font-size="12.00">+ random()</text>
</a>
</g>
</g>
<!-- Node2&#45;&gt;Node1 -->
<g id="edge1" class="edge">
<title>Node2&#45;&gt;Node1</title>
<path fill="none" stroke="midnightblue" d="M151.76,-118.12C161.76,-104.14 172.17,-89.58 181.28,-76.85"/>
<polygon fill="none" stroke="midnightblue" points="148.91,-116.09 145.94,-126.26 154.6,-120.17 148.91,-116.09"/>
</g>
<!-- Node3 -->
<g id="node3" class="node">
<title>Node3</title>
<g id="a_node3"><a xlink:href="class_markov_1_1_random_1_1_default_random_engine.html" target="_top" xlink:title="Implementation using Random.h default random engine.">
<polygon fill="none" stroke="black" points="0,-278.5 0,-393.5 220,-393.5 220,-278.5 0,-278.5"/>
<text text-anchor="start" x="8" y="-379.9" font-family="Helvetica,sans-Serif" font-size="12.00">Markov::Random::DefaultRandom</text>
<text text-anchor="middle" x="110" y="-366.9" font-family="Helvetica,sans-Serif" font-size="12.00">Engine</text>
<polyline fill="none" stroke="black" points="0,-359.5 220,-359.5 "/>
<text text-anchor="middle" x="110" y="-345.9" font-family="Helvetica,sans-Serif" font-size="12.00"> </text>
<polyline fill="none" stroke="black" points="0,-338.5 220,-338.5 "/>
<text text-anchor="start" x="8" y="-324.9" font-family="Helvetica,sans-Serif" font-size="12.00">+ random()</text>
<text text-anchor="start" x="8" y="-311.9" font-family="Helvetica,sans-Serif" font-size="12.00"># rd()</text>
<text text-anchor="start" x="8" y="-298.9" font-family="Helvetica,sans-Serif" font-size="12.00"># generator()</text>
<text text-anchor="start" x="8" y="-285.9" font-family="Helvetica,sans-Serif" font-size="12.00"># distribution()</text>
</a>
</g>
</g>
<!-- Node3&#45;&gt;Node2 -->
<g id="edge2" class="edge">
<title>Node3&#45;&gt;Node2</title>
<path fill="none" stroke="midnightblue" d="M110,-268.43C110,-255.12 110,-241.34 110,-228.69"/>
<polygon fill="none" stroke="midnightblue" points="106.5,-268.5 110,-278.5 113.5,-268.5 106.5,-268.5"/>
</g>
<!-- Node4 -->
<g id="node4" class="node">
<title>Node4</title>
<g id="a_node4"><a xlink:href="class_markov_1_1_random_1_1_random_engine.html" target="_top" xlink:title="An abstract class for Random Engine.">
<polygon fill="none" stroke="black" points="1.5,-430.5 1.5,-493.5 218.5,-493.5 218.5,-430.5 1.5,-430.5"/>
<text text-anchor="middle" x="110" y="-479.9" font-family="Helvetica,sans-Serif" font-size="12.00">Markov::Random::RandomEngine</text>
<polyline fill="none" stroke="black" points="1.5,-472.5 218.5,-472.5 "/>
<text text-anchor="middle" x="110" y="-458.9" font-family="Helvetica,sans-Serif" font-size="12.00"> </text>
<polyline fill="none" stroke="black" points="1.5,-451.5 218.5,-451.5 "/>
<text text-anchor="start" x="9.5" y="-437.9" font-family="Helvetica,sans-Serif" font-size="12.00">+ random()</text>
</a>
</g>
</g>
<!-- Node4&#45;&gt;Node3 -->
<g id="edge3" class="edge">
<title>Node4&#45;&gt;Node3</title>
<path fill="none" stroke="midnightblue" d="M110,-420.09C110,-411.7 110,-402.73 110,-393.89"/>
<polygon fill="none" stroke="midnightblue" points="106.5,-420.35 110,-430.35 113.5,-420.35 106.5,-420.35"/>
</g>
<!-- Node5 -->
<g id="node5" class="node">
<title>Node5</title>
<g id="a_node5"><a xlink:href="class_markov_1_1_a_p_i_1_1_c_u_d_a_1_1_c_u_d_a_device_controller.html" target="_top" xlink:title="Controller class for CUDA device.">
<polygon fill="none" stroke="black" points="220.5,-113.5 220.5,-241.5 391.5,-241.5 391.5,-113.5 220.5,-113.5"/>
<text text-anchor="start" x="228.5" y="-227.9" font-family="Helvetica,sans-Serif" font-size="12.00">Markov::API::CUDA::</text>
<text text-anchor="middle" x="306" y="-214.9" font-family="Helvetica,sans-Serif" font-size="12.00">CUDADeviceController</text>
<polyline fill="none" stroke="black" points="220.5,-207.5 391.5,-207.5 "/>
<text text-anchor="middle" x="306" y="-193.9" font-family="Helvetica,sans-Serif" font-size="12.00"> </text>
<polyline fill="none" stroke="black" points="220.5,-186.5 391.5,-186.5 "/>
<text text-anchor="start" x="228.5" y="-172.9" font-family="Helvetica,sans-Serif" font-size="12.00">+ ListCudaDevices()</text>
<text text-anchor="start" x="228.5" y="-159.9" font-family="Helvetica,sans-Serif" font-size="12.00"># CudaCheckNotifyErr()</text>
<text text-anchor="start" x="228.5" y="-146.9" font-family="Helvetica,sans-Serif" font-size="12.00"># CudaMalloc2DToFlat()</text>
<text text-anchor="start" x="228.5" y="-133.9" font-family="Helvetica,sans-Serif" font-size="12.00"># CudaMemcpy2DToFlat()</text>
<text text-anchor="start" x="228.5" y="-120.9" font-family="Helvetica,sans-Serif" font-size="12.00"># CudaMigrate2DFlat()</text>
</a>
</g>
</g>
<!-- Node5&#45;&gt;Node1 -->
<g id="edge4" class="edge">
<title>Node5&#45;&gt;Node1</title>
<path fill="none" stroke="midnightblue" d="M254.86,-105.01C247.87,-95.24 240.94,-85.56 234.64,-76.75"/>
<polygon fill="none" stroke="midnightblue" points="252.06,-107.12 260.73,-113.21 257.76,-103.04 252.06,-107.12"/>
</g>
</g>
</svg>
