<?xml version="1.0" encoding="UTF-8" standalone="no"?>
<!DOCTYPE svg PUBLIC "-//W3C//DTD SVG 1.1//EN"
 "http://www.w3.org/Graphics/SVG/1.1/DTD/svg11.dtd">
<!-- Generated by graphviz version 2.43.0 (0)
 -->
<!-- Title: Python.Markopy.BaseCLI._generate Pages: 1 -->
<svg width="682pt" height="43pt"
 viewBox="0.00 0.00 682.00 43.00" xmlns="http://www.w3.org/2000/svg" xmlns:xlink="http://www.w3.org/1999/xlink">
<g id="graph0" class="graph" transform="scale(1 1) rotate(0) translate(4 39)">
<title>Python.Markopy.BaseCLI._generate</title>
<!-- Node1 -->
<g id="node1" class="node">
<title>Node1</title>
<g id="a_node1"><a xlink:title="wrapper for generate function.">
<polygon fill="#bfbfbf" stroke="black" points="507,-0.5 507,-34.5 674,-34.5 674,-0.5 507,-0.5"/>
<text text-anchor="start" x="515" y="-20.9" font-family="Helvetica,sans-Serif" font-size="12.00">Python.Markopy.BaseCLI.</text>
<text text-anchor="middle" x="590.5" y="-7.9" font-family="Helvetica,sans-Serif" font-size="12.00">_generate</text>
</a>
</g>
</g>
<!-- Node2 -->
<g id="node2" class="node">
<title>Node2</title>
<g id="a_node2"><a xlink:href="class_python_1_1_markopy_1_1_base_c_l_i.html#ad2823b484ee975432aebb4e50875f8a6" target="_top" xlink:title="Generate strings from the model.">
<polygon fill="none" stroke="black" points="249,-7 249,-28 471,-28 471,-7 249,-7"/>
<text text-anchor="middle" x="360" y="-14.4" font-family="Helvetica,sans-Serif" font-size="12.00">Python.Markopy.BaseCLI.generate</text>
</a>
</g>
</g>
<!-- Node1&#45;&gt;Node2 -->
<g id="edge1" class="edge">
<title>Node1&#45;&gt;Node2</title>
<path fill="none" stroke="midnightblue" d="M496.61,-17.5C488.28,-17.5 479.79,-17.5 471.33,-17.5"/>
<polygon fill="midnightblue" stroke="midnightblue" points="496.68,-21 506.68,-17.5 496.68,-14 496.68,-21"/>
</g>
<!-- Node3 -->
<g id="node3" class="node">
<title>Node3</title>
<g id="a_node3"><a xlink:href="class_python_1_1_markopy_1_1_base_c_l_i.html#aab389488e1f530cf444d9d2ef59a6998" target="_top" xlink:title="Process parameters for operation.">
<polygon fill="none" stroke="black" points="0,-7 0,-28 213,-28 213,-7 0,-7"/>
<text text-anchor="middle" x="106.5" y="-14.4" font-family="Helvetica,sans-Serif" font-size="12.00">Python.Markopy.BaseCLI.process</text>
</a>
</g>
</g>
<!-- Node2&#45;&gt;Node3 -->
<g id="edge2" class="edge">
<title>Node2&#45;&gt;Node3</title>
<path fill="none" stroke="midnightblue" d="M238.47,-17.5C230.07,-17.5 221.63,-17.5 213.32,-17.5"/>
<polygon fill="midnightblue" stroke="midnightblue" points="238.69,-21 248.69,-17.5 238.69,-14 238.69,-21"/>
</g>
</g>
</svg>
