<?xml version="1.0" encoding="UTF-8" standalone="no"?>
<!DOCTYPE svg PUBLIC "-//W3C//DTD SVG 1.1//EN"
 "http://www.w3.org/Graphics/SVG/1.1/DTD/svg11.dtd">
<!-- Generated by graphviz version 2.43.0 (0)
 -->
<!-- Title: Python.Markopy.BaseCLI.import_model Pages: 1 -->
<svg width="454pt" height="96pt"
 viewBox="0.00 0.00 454.00 96.00" xmlns="http://www.w3.org/2000/svg" xmlns:xlink="http://www.w3.org/1999/xlink">
<g id="graph0" class="graph" transform="scale(1 1) rotate(0) translate(4 92)">
<title>Python.Markopy.BaseCLI.import_model</title>
<!-- Node1 -->
<g id="node1" class="node">
<title>Node1</title>
<g id="a_node1"><a xlink:title="Import a model file.">
<polygon fill="#bfbfbf" stroke="black" points="0,-26.5 0,-60.5 207,-60.5 207,-26.5 0,-26.5"/>
<text text-anchor="start" x="8" y="-46.9" font-family="Helvetica,sans-Serif" font-size="12.00">Python.Markopy.BaseCLI.import</text>
<text text-anchor="middle" x="103.5" y="-33.9" font-family="Helvetica,sans-Serif" font-size="12.00">_model</text>
</a>
</g>
</g>
<!-- Node2 -->
<g id="node2" class="node">
<title>Node2</title>
<g id="a_node2"><a xlink:href="class_python_1_1_markopy_1_1_base_c_l_i.html#a14f0a0280b7cc4a16ff018eeefdf1020" target="_top" xlink:title="check import path for validity">
<polygon fill="none" stroke="black" points="243,-53.5 243,-87.5 446,-87.5 446,-53.5 243,-53.5"/>
<text text-anchor="start" x="251" y="-73.9" font-family="Helvetica,sans-Serif" font-size="12.00">Python.Markopy.BaseCLI.check</text>
<text text-anchor="middle" x="344.5" y="-60.9" font-family="Helvetica,sans-Serif" font-size="12.00">_import_path</text>
</a>
</g>
</g>
<!-- Node1&#45;&gt;Node2 -->
<g id="edge1" class="edge">
<title>Node1&#45;&gt;Node2</title>
<path fill="none" stroke="midnightblue" d="M207.24,-55.11C215.7,-56.06 224.27,-57.03 232.78,-57.99"/>
<polygon fill="midnightblue" stroke="midnightblue" points="232.41,-61.47 242.74,-59.12 233.19,-54.52 232.41,-61.47"/>
</g>
<!-- Node3 -->
<g id="node3" class="node">
<title>Node3</title>
<g id="a_node3"><a xlink:href="class_markov_1_1_g_u_i_1_1_markov_passwords_g_u_i.html#a99619a46f49b909fafeaa6ac8076a333" target="_top" xlink:title=" ">
<polygon fill="none" stroke="black" points="243,-0.5 243,-34.5 446,-34.5 446,-0.5 243,-0.5"/>
<text text-anchor="start" x="251" y="-20.9" font-family="Helvetica,sans-Serif" font-size="12.00">Markov::GUI::MarkovPasswords</text>
<text text-anchor="middle" x="344.5" y="-7.9" font-family="Helvetica,sans-Serif" font-size="12.00">GUI::model</text>
</a>
</g>
</g>
<!-- Node1&#45;&gt;Node3 -->
<g id="edge2" class="edge">
<title>Node1&#45;&gt;Node3</title>
<path fill="none" stroke="midnightblue" d="M207.24,-32.32C215.7,-31.4 224.27,-30.47 232.78,-29.54"/>
<polygon fill="midnightblue" stroke="midnightblue" points="233.18,-33.02 242.74,-28.46 232.42,-26.06 233.18,-33.02"/>
</g>
</g>
</svg>
