<?xml version="1.0" encoding="UTF-8" standalone="no"?>
<!DOCTYPE svg PUBLIC "-//W3C//DTD SVG 1.1//EN"
 "http://www.w3.org/Graphics/SVG/1.1/DTD/svg11.dtd">
<!-- Generated by graphviz version 2.43.0 (0)
 -->
<!-- Title: Python.Markopy.MarkopyCLI.init_post_arguments Pages: 1 -->
<svg width="720pt" height="74pt"
 viewBox="0.00 0.00 720.00 73.50" xmlns="http://www.w3.org/2000/svg" xmlns:xlink="http://www.w3.org/1999/xlink">
<g id="graph0" class="graph" transform="scale(1 1) rotate(0) translate(4 69.5)">
<title>Python.Markopy.MarkopyCLI.init_post_arguments</title>
<!-- Node1 -->
<g id="node1" class="node">
<title>Node1</title>
<g id="a_node1"><a xlink:title=" ">
<polygon fill="#bfbfbf" stroke="black" points="504,-16 504,-50 712,-50 712,-16 504,-16"/>
<text text-anchor="start" x="512" y="-36.4" font-family="Helvetica,sans-Serif" font-size="12.00">Python.Markopy.MarkopyCLI.init</text>
<text text-anchor="middle" x="608" y="-23.4" font-family="Helvetica,sans-Serif" font-size="12.00">_post_arguments</text>
</a>
</g>
</g>
<!-- Node2 -->
<g id="node2" class="node">
<title>Node2</title>
<g id="a_node2"><a xlink:href="class_python_1_1_markopy_1_1_markopy_c_l_i.html#ae9f51d30f8e019c21c5068da1dfca533" target="_top" xlink:title=" ">
<polygon fill="none" stroke="black" points="260,-16 260,-50 468,-50 468,-16 260,-16"/>
<text text-anchor="start" x="268" y="-36.4" font-family="Helvetica,sans-Serif" font-size="12.00">Python.Markopy.MarkopyCLI.init</text>
<text text-anchor="middle" x="364" y="-23.4" font-family="Helvetica,sans-Serif" font-size="12.00">_post_arguments</text>
</a>
</g>
</g>
<!-- Node1&#45;&gt;Node2 -->
<g id="edge1" class="edge">
<title>Node1&#45;&gt;Node2</title>
<path fill="none" stroke="midnightblue" d="M493.48,-33C485.11,-33 476.68,-33 468.37,-33"/>
<polygon fill="midnightblue" stroke="midnightblue" points="493.67,-36.5 503.67,-33 493.67,-29.5 493.67,-36.5"/>
</g>
<!-- Node3 -->
<g id="node3" class="node">
<title>Node3</title>
<g id="a_node3"><a xlink:href="class_python_1_1_markopy_1_1_base_c_l_i.html#a290240acf366fc65cf0639698dbf662b" target="_top" xlink:title=" ">
<polygon fill="none" stroke="black" points="11.5,-43.5 11.5,-64.5 212.5,-64.5 212.5,-43.5 11.5,-43.5"/>
<text text-anchor="middle" x="112" y="-50.9" font-family="Helvetica,sans-Serif" font-size="12.00">Python.Markopy.BaseCLI.parse</text>
</a>
</g>
</g>
<!-- Node1&#45;&gt;Node3 -->
<g id="edge4" class="edge">
<title>Node1&#45;&gt;Node3</title>
<path fill="none" stroke="midnightblue" d="M523.46,-51.92C505.27,-55.28 486.07,-58.26 468,-60 382.1,-68.27 283.98,-65.7 212.7,-61.67"/>
<polygon fill="midnightblue" stroke="midnightblue" points="524.28,-55.33 533.44,-50.02 522.97,-48.45 524.28,-55.33"/>
</g>
<!-- Node4 -->
<g id="node4" class="node">
<title>Node4</title>
<g id="a_node4"><a xlink:href="class_python_1_1_markopy_1_1_markopy_c_l_i.html#ab3660c4d0e9e5ab1889e76264a2c6e02" target="_top" xlink:title=" ">
<polygon fill="none" stroke="black" points="0,-0.5 0,-21.5 224,-21.5 224,-0.5 0,-0.5"/>
<text text-anchor="middle" x="112" y="-7.9" font-family="Helvetica,sans-Serif" font-size="12.00">Python.Markopy.MarkopyCLI.parse</text>
</a>
</g>
</g>
<!-- Node1&#45;&gt;Node4 -->
<g id="edge5" class="edge">
<title>Node1&#45;&gt;Node4</title>
<path fill="none" stroke="midnightblue" d="M523.46,-14.08C505.27,-10.72 486.07,-7.74 468,-6 386.71,1.82 294.46,0.21 224.38,-3.17"/>
<polygon fill="midnightblue" stroke="midnightblue" points="522.97,-17.55 533.44,-15.98 524.28,-10.67 522.97,-17.55"/>
</g>
<!-- Node2&#45;&gt;Node3 -->
<g id="edge2" class="edge">
<title>Node2&#45;&gt;Node3</title>
<path fill="none" stroke="midnightblue" d="M249.58,-42.53C237.26,-43.56 224.8,-44.61 212.67,-45.63"/>
<polygon fill="midnightblue" stroke="midnightblue" points="250.2,-45.99 259.87,-41.66 249.61,-39.01 250.2,-45.99"/>
</g>
<!-- Node2&#45;&gt;Node4 -->
<g id="edge3" class="edge">
<title>Node2&#45;&gt;Node4</title>
<path fill="none" stroke="midnightblue" d="M249.67,-23.03C241.27,-22.29 232.79,-21.54 224.4,-20.8"/>
<polygon fill="midnightblue" stroke="midnightblue" points="249.6,-26.53 259.87,-23.92 250.22,-19.56 249.6,-26.53"/>
</g>
</g>
</svg>
