<?xml version="1.0" encoding="UTF-8" standalone="no"?>
<!DOCTYPE svg PUBLIC "-//W3C//DTD SVG 1.1//EN"
 "http://www.w3.org/Graphics/SVG/1.1/DTD/svg11.dtd">
<!-- Generated by graphviz version 2.43.0 (0)
 -->
<!-- Title: QMainWindow Pages: 1 -->
<svg width="982pt" height="224pt"
 viewBox="0.00 0.00 982.00 224.00" xmlns="http://www.w3.org/2000/svg" xmlns:xlink="http://www.w3.org/1999/xlink">
<g id="graph0" class="graph" transform="scale(1 1) rotate(0) translate(4 220)">
<title>QMainWindow</title>
<!-- Node1 -->
<g id="node1" class="node">
<title>Node1</title>
<g id="a_node1"><a xlink:title=" ">
<polygon fill="#bfbfbf" stroke="black" points="413,-152.5 413,-215.5 515,-215.5 515,-152.5 413,-152.5"/>
<text text-anchor="middle" x="464" y="-201.9" font-family="Helvetica,sans-Serif" font-size="12.00">QMainWindow</text>
<polyline fill="none" stroke="black" points="413,-194.5 515,-194.5 "/>
<text text-anchor="middle" x="464" y="-180.9" font-family="Helvetica,sans-Serif" font-size="12.00"> </text>
<polyline fill="none" stroke="black" points="413,-173.5 515,-173.5 "/>
<text text-anchor="middle" x="464" y="-159.9" font-family="Helvetica,sans-Serif" font-size="12.00"> </text>
</a>
</g>
</g>
<!-- Node2 -->
<g id="node2" class="node">
<title>Node2</title>
<g id="a_node2"><a xlink:href="class_markov_1_1_g_u_i_1_1about.html" target="_top" xlink:title="QT Class for about page.">
<polygon fill="none" stroke="black" points="0,-26.5 0,-89.5 132,-89.5 132,-26.5 0,-26.5"/>
<text text-anchor="middle" x="66" y="-75.9" font-family="Helvetica,sans-Serif" font-size="12.00">Markov::GUI::about</text>
<polyline fill="none" stroke="black" points="0,-68.5 132,-68.5 "/>
<text text-anchor="start" x="8" y="-54.9" font-family="Helvetica,sans-Serif" font-size="12.00">&#45; ui</text>
<polyline fill="none" stroke="black" points="0,-47.5 132,-47.5 "/>
<text text-anchor="start" x="8" y="-33.9" font-family="Helvetica,sans-Serif" font-size="12.00">+ about()</text>
</a>
</g>
</g>
<!-- Node1&#45;&gt;Node2 -->
<g id="edge1" class="edge">
<title>Node1&#45;&gt;Node2</title>
<path fill="none" stroke="midnightblue" d="M402.92,-178.44C336.05,-171.63 226.89,-155.1 141,-116 126.41,-109.36 112,-99.45 99.77,-89.75"/>
<polygon fill="none" stroke="midnightblue" points="402.58,-181.92 412.88,-179.41 403.27,-174.95 402.58,-181.92"/>
</g>
<!-- Node3 -->
<g id="node3" class="node">
<title>Node3</title>
<g id="a_node3"><a xlink:href="class_markov_1_1_g_u_i_1_1_c_l_i.html" target="_top" xlink:title="QT CLI Class.">
<polygon fill="none" stroke="black" points="150,-7 150,-109 266,-109 266,-7 150,-7"/>
<text text-anchor="middle" x="208" y="-95.4" font-family="Helvetica,sans-Serif" font-size="12.00">Markov::GUI::CLI</text>
<polyline fill="none" stroke="black" points="150,-88 266,-88 "/>
<text text-anchor="start" x="158" y="-74.4" font-family="Helvetica,sans-Serif" font-size="12.00">&#45; ui</text>
<polyline fill="none" stroke="black" points="150,-67 266,-67 "/>
<text text-anchor="start" x="158" y="-53.4" font-family="Helvetica,sans-Serif" font-size="12.00">+ CLI()</text>
<text text-anchor="start" x="158" y="-40.4" font-family="Helvetica,sans-Serif" font-size="12.00">+ start()</text>
<text text-anchor="start" x="158" y="-27.4" font-family="Helvetica,sans-Serif" font-size="12.00">+ statistics()</text>
<text text-anchor="start" x="158" y="-14.4" font-family="Helvetica,sans-Serif" font-size="12.00">+ about()</text>
</a>
</g>
</g>
<!-- Node1&#45;&gt;Node3 -->
<g id="edge2" class="edge">
<title>Node1&#45;&gt;Node3</title>
<path fill="none" stroke="midnightblue" d="M402.91,-167.5C364.64,-156.33 315.15,-139.14 275,-116 271.3,-113.86 267.6,-111.51 263.95,-109.02"/>
<polygon fill="none" stroke="midnightblue" points="402.31,-170.97 412.88,-170.35 404.23,-164.24 402.31,-170.97"/>
</g>
<!-- Node4 -->
<g id="node4" class="node">
<title>Node4</title>
<g id="a_node4"><a xlink:href="class_markov_1_1_g_u_i_1_1_generate.html" target="_top" xlink:title="QT Generation page class.">
<polygon fill="none" stroke="black" points="284,-0.5 284,-115.5 438,-115.5 438,-0.5 284,-0.5"/>
<text text-anchor="middle" x="361" y="-101.9" font-family="Helvetica,sans-Serif" font-size="12.00">Markov::GUI::Generate</text>
<polyline fill="none" stroke="black" points="284,-94.5 438,-94.5 "/>
<text text-anchor="start" x="292" y="-80.9" font-family="Helvetica,sans-Serif" font-size="12.00">&#45; ui</text>
<polyline fill="none" stroke="black" points="284,-73.5 438,-73.5 "/>
<text text-anchor="start" x="292" y="-59.9" font-family="Helvetica,sans-Serif" font-size="12.00">+ Generate()</text>
<text text-anchor="start" x="292" y="-46.9" font-family="Helvetica,sans-Serif" font-size="12.00">+ home()</text>
<text text-anchor="start" x="292" y="-33.9" font-family="Helvetica,sans-Serif" font-size="12.00">+ generation()</text>
<text text-anchor="start" x="292" y="-20.9" font-family="Helvetica,sans-Serif" font-size="12.00">+ train()</text>
<text text-anchor="start" x="292" y="-7.9" font-family="Helvetica,sans-Serif" font-size="12.00">+ vis()</text>
</a>
</g>
</g>
<!-- Node1&#45;&gt;Node4 -->
<g id="edge3" class="edge">
<title>Node1&#45;&gt;Node4</title>
<path fill="none" stroke="midnightblue" d="M432.09,-144.59C424.54,-135.5 416.33,-125.61 408.26,-115.89"/>
<polygon fill="none" stroke="midnightblue" points="429.46,-146.89 438.54,-152.35 434.84,-142.42 429.46,-146.89"/>
</g>
<!-- Node5 -->
<g id="node5" class="node">
<title>Node5</title>
<g id="a_node5"><a xlink:href="class_markov_1_1_g_u_i_1_1_markov_passwords_g_u_i.html" target="_top" xlink:title="Reporting UI.">
<polygon fill="none" stroke="black" points="456,-0.5 456,-115.5 680,-115.5 680,-0.5 456,-0.5"/>
<text text-anchor="middle" x="568" y="-101.9" font-family="Helvetica,sans-Serif" font-size="12.00">Markov::GUI::MarkovPasswordsGUI</text>
<polyline fill="none" stroke="black" points="456,-94.5 680,-94.5 "/>
<text text-anchor="start" x="464" y="-80.9" font-family="Helvetica,sans-Serif" font-size="12.00">&#45; ui</text>
<polyline fill="none" stroke="black" points="456,-73.5 680,-73.5 "/>
<text text-anchor="start" x="464" y="-59.9" font-family="Helvetica,sans-Serif" font-size="12.00">+ MarkovPasswordsGUI()</text>
<text text-anchor="start" x="464" y="-46.9" font-family="Helvetica,sans-Serif" font-size="12.00">+ benchmarkSelected()</text>
<text text-anchor="start" x="464" y="-33.9" font-family="Helvetica,sans-Serif" font-size="12.00">+ home()</text>
<text text-anchor="start" x="464" y="-20.9" font-family="Helvetica,sans-Serif" font-size="12.00">+ pass()</text>
<text text-anchor="start" x="464" y="-7.9" font-family="Helvetica,sans-Serif" font-size="12.00">+ model()</text>
</a>
</g>
</g>
<!-- Node1&#45;&gt;Node5 -->
<g id="edge4" class="edge">
<title>Node1&#45;&gt;Node5</title>
<path fill="none" stroke="midnightblue" d="M496.22,-144.59C503.84,-135.5 512.13,-125.61 520.28,-115.89"/>
<polygon fill="none" stroke="midnightblue" points="493.45,-142.44 489.71,-152.35 498.82,-146.94 493.45,-142.44"/>
</g>
<!-- Node6 -->
<g id="node6" class="node">
<title>Node6</title>
<g id="a_node6"><a xlink:href="class_markov_1_1_g_u_i_1_1menu.html" target="_top" xlink:title="QT Menu class.">
<polygon fill="none" stroke="black" points="698,-13.5 698,-102.5 830,-102.5 830,-13.5 698,-13.5"/>
<text text-anchor="middle" x="764" y="-88.9" font-family="Helvetica,sans-Serif" font-size="12.00">Markov::GUI::menu</text>
<polyline fill="none" stroke="black" points="698,-81.5 830,-81.5 "/>
<text text-anchor="start" x="706" y="-67.9" font-family="Helvetica,sans-Serif" font-size="12.00">&#45; ui</text>
<polyline fill="none" stroke="black" points="698,-60.5 830,-60.5 "/>
<text text-anchor="start" x="706" y="-46.9" font-family="Helvetica,sans-Serif" font-size="12.00">+ menu()</text>
<text text-anchor="start" x="706" y="-33.9" font-family="Helvetica,sans-Serif" font-size="12.00">+ about()</text>
<text text-anchor="start" x="706" y="-20.9" font-family="Helvetica,sans-Serif" font-size="12.00">+ visualization()</text>
</a>
</g>
</g>
<!-- Node1&#45;&gt;Node6 -->
<g id="edge5" class="edge">
<title>Node1&#45;&gt;Node6</title>
<path fill="none" stroke="midnightblue" d="M525.07,-171.09C571.65,-160.54 636.52,-142.64 689,-116 696.58,-112.15 704.18,-107.51 711.47,-102.57"/>
<polygon fill="none" stroke="midnightblue" points="524.13,-167.71 515.13,-173.29 525.65,-174.55 524.13,-167.71"/>
</g>
<!-- Node7 -->
<g id="node7" class="node">
<title>Node7</title>
<g id="a_node7"><a xlink:href="class_markov_1_1_g_u_i_1_1_train.html" target="_top" xlink:title="QT Training page class.">
<polygon fill="none" stroke="black" points="848,-13.5 848,-102.5 974,-102.5 974,-13.5 848,-13.5"/>
<text text-anchor="middle" x="911" y="-88.9" font-family="Helvetica,sans-Serif" font-size="12.00">Markov::GUI::Train</text>
<polyline fill="none" stroke="black" points="848,-81.5 974,-81.5 "/>
<text text-anchor="start" x="856" y="-67.9" font-family="Helvetica,sans-Serif" font-size="12.00">&#45; ui</text>
<polyline fill="none" stroke="black" points="848,-60.5 974,-60.5 "/>
<text text-anchor="start" x="856" y="-46.9" font-family="Helvetica,sans-Serif" font-size="12.00">+ Train()</text>
<text text-anchor="start" x="856" y="-33.9" font-family="Helvetica,sans-Serif" font-size="12.00">+ home()</text>
<text text-anchor="start" x="856" y="-20.9" font-family="Helvetica,sans-Serif" font-size="12.00">+ train()</text>
</a>
</g>
</g>
<!-- Node1&#45;&gt;Node7 -->
<g id="edge6" class="edge">
<title>Node1&#45;&gt;Node7</title>
<path fill="none" stroke="midnightblue" d="M525.56,-181.16C602.16,-176.85 735.48,-162.63 839,-116 846.99,-112.4 854.88,-107.71 862.33,-102.58"/>
<polygon fill="none" stroke="midnightblue" points="524.94,-177.69 515.14,-181.7 525.31,-184.68 524.94,-177.69"/>
</g>
</g>
</svg>
