<?xml version="1.0" encoding="UTF-8" standalone="no"?>
<!DOCTYPE svg PUBLIC "-//W3C//DTD SVG 1.1//EN"
 "http://www.w3.org/Graphics/SVG/1.1/DTD/svg11.dtd">
<!-- Generated by graphviz version 2.43.0 (0)
 -->
<!-- Title: Markov::API::CUDA::CUDADeviceController::CudaMalloc2DToFlat Pages: 1 -->
<svg width="344pt" height="74pt"
 viewBox="0.00 0.00 344.00 74.00" xmlns="http://www.w3.org/2000/svg" xmlns:xlink="http://www.w3.org/1999/xlink">
<g id="graph0" class="graph" transform="scale(1 1) rotate(0) translate(4 70)">
<title>Markov::API::CUDA::CUDADeviceController::CudaMalloc2DToFlat</title>
<!-- Node1 -->
<g id="node1" class="node">
<title>Node1</title>
<g id="a_node1"><a xlink:title="Malloc a 2D array in device space.">
<polygon fill="#bfbfbf" stroke="black" points="0,-0.5 0,-47.5 150,-47.5 150,-0.5 0,-0.5"/>
<text text-anchor="start" x="8" y="-33.9" font-family="Helvetica,sans-Serif" font-size="12.00">Markov::API::CUDA::</text>
<text text-anchor="start" x="8" y="-20.9" font-family="Helvetica,sans-Serif" font-size="12.00">CUDADeviceController</text>
<text text-anchor="middle" x="75" y="-7.9" font-family="Helvetica,sans-Serif" font-size="12.00">::CudaMalloc2DToFlat</text>
</a>
</g>
</g>
<!-- Node2 -->
<g id="node2" class="node">
<title>Node2</title>
<g id="a_node2"><a xlink:href="class_markov_1_1_a_p_i_1_1_c_u_d_a_1_1_c_u_d_a_device_controller.html#abb56db7c9437eb4d71c390fa2b22c738" target="_top" xlink:title="Both malloc and memcpy a 2D array into device VRAM.">
<polygon fill="none" stroke="black" points="186,-0.5 186,-47.5 336,-47.5 336,-0.5 186,-0.5"/>
<text text-anchor="start" x="194" y="-33.9" font-family="Helvetica,sans-Serif" font-size="12.00">Markov::API::CUDA::</text>
<text text-anchor="start" x="194" y="-20.9" font-family="Helvetica,sans-Serif" font-size="12.00">CUDADeviceController</text>
<text text-anchor="middle" x="261" y="-7.9" font-family="Helvetica,sans-Serif" font-size="12.00">::CudaMigrate2DFlat</text>
</a>
</g>
</g>
<!-- Node1&#45;&gt;Node2 -->
<g id="edge1" class="edge">
<title>Node1&#45;&gt;Node2</title>
<path fill="none" stroke="midnightblue" d="M150.04,-24C158.51,-24 167.19,-24 175.78,-24"/>
<polygon fill="midnightblue" stroke="midnightblue" points="175.81,-27.5 185.81,-24 175.81,-20.5 175.81,-27.5"/>
</g>
<!-- Node2&#45;&gt;Node2 -->
<g id="edge2" class="edge">
<title>Node2&#45;&gt;Node2</title>
<path fill="none" stroke="midnightblue" d="M226.8,-47.75C224.44,-57.63 235.84,-66 261,-66 277.12,-66 287.59,-62.56 292.41,-57.5"/>
<polygon fill="midnightblue" stroke="midnightblue" points="295.81,-58.32 295.2,-47.75 289.08,-56.4 295.81,-58.32"/>
</g>
</g>
</svg>
