<?xml version="1.0" encoding="UTF-8" standalone="no"?>
<!DOCTYPE svg PUBLIC "-//W3C//DTD SVG 1.1//EN"
 "http://www.w3.org/Graphics/SVG/1.1/DTD/svg11.dtd">
<!-- Generated by graphviz version 2.43.0 (0)
 -->
<!-- Title: Markov::Model&lt; NodeStorageType &gt; Pages: 1 -->
<svg width="707pt" height="1200pt"
 viewBox="0.00 0.00 707.08 1200.00" xmlns="http://www.w3.org/2000/svg" xmlns:xlink="http://www.w3.org/1999/xlink">
<g id="graph0" class="graph" transform="scale(1 1) rotate(0) translate(4 1196)">
<title>Markov::Model&lt; NodeStorageType &gt;</title>
<!-- Node1 -->
<g id="node1" class="node">
<title>Node1</title>
<g id="a_node1"><a xlink:title="class for the final Markov Model, constructed from nodes and edges.">
<polygon fill="#bfbfbf" stroke="black" points="161.58,-0.5 161.58,-362.5 433.58,-362.5 433.58,-0.5 161.58,-0.5"/>
<text text-anchor="start" x="169.58" y="-348.9" font-family="Helvetica,sans-Serif" font-size="12.00">Markov::Model&lt; NodeStorage</text>
<text text-anchor="middle" x="297.58" y="-335.9" font-family="Helvetica,sans-Serif" font-size="12.00">Type &gt;</text>
<polyline fill="none" stroke="black" points="161.58,-328.5 433.58,-328.5 "/>
<text text-anchor="middle" x="297.58" y="-314.9" font-family="Helvetica,sans-Serif" font-size="12.00"> </text>
<polyline fill="none" stroke="black" points="161.58,-307.5 433.58,-307.5 "/>
<text text-anchor="start" x="169.58" y="-293.9" font-family="Helvetica,sans-Serif" font-size="12.00">+ Model()</text>
<text text-anchor="start" x="169.58" y="-280.9" font-family="Helvetica,sans-Serif" font-size="12.00">+ NodeStorageType * Random</text>
<text text-anchor="start" x="169.58" y="-267.9" font-family="Helvetica,sans-Serif" font-size="12.00">Walk(Markov::Random::RandomEngine</text>
<text text-anchor="start" x="169.58" y="-254.9" font-family="Helvetica,sans-Serif" font-size="12.00"> *randomEngine, int minSetting,</text>
<text text-anchor="start" x="169.58" y="-241.9" font-family="Helvetica,sans-Serif" font-size="12.00"> int maxSetting, NodeStorageType *buffer)</text>
<text text-anchor="start" x="169.58" y="-228.9" font-family="Helvetica,sans-Serif" font-size="12.00">+ void AdjustEdge(const</text>
<text text-anchor="start" x="169.58" y="-215.9" font-family="Helvetica,sans-Serif" font-size="12.00"> NodeStorageType *payload,</text>
<text text-anchor="start" x="169.58" y="-202.9" font-family="Helvetica,sans-Serif" font-size="12.00"> long int occurrence)</text>
<text text-anchor="start" x="169.58" y="-189.9" font-family="Helvetica,sans-Serif" font-size="12.00">+ bool Import(std::ifstream *)</text>
<text text-anchor="start" x="169.58" y="-176.9" font-family="Helvetica,sans-Serif" font-size="12.00">+ bool Import(const char</text>
<text text-anchor="start" x="169.58" y="-163.9" font-family="Helvetica,sans-Serif" font-size="12.00"> *filename)</text>
<text text-anchor="start" x="169.58" y="-150.9" font-family="Helvetica,sans-Serif" font-size="12.00">+ bool Export(std::ofstream *)</text>
<text text-anchor="start" x="169.58" y="-137.9" font-family="Helvetica,sans-Serif" font-size="12.00">+ bool Export(const char</text>
<text text-anchor="start" x="169.58" y="-124.9" font-family="Helvetica,sans-Serif" font-size="12.00"> *filename)</text>
<text text-anchor="start" x="169.58" y="-111.9" font-family="Helvetica,sans-Serif" font-size="12.00">+ Node&lt; NodeStorageType</text>
<text text-anchor="start" x="169.58" y="-98.9" font-family="Helvetica,sans-Serif" font-size="12.00"> &gt; * StarterNode()</text>
<text text-anchor="start" x="169.58" y="-85.9" font-family="Helvetica,sans-Serif" font-size="12.00">+ std::vector&lt; Edge&lt;</text>
<text text-anchor="start" x="169.58" y="-72.9" font-family="Helvetica,sans-Serif" font-size="12.00"> NodeStorageType &gt; *</text>
<text text-anchor="start" x="169.58" y="-59.9" font-family="Helvetica,sans-Serif" font-size="12.00"> &gt; * Edges()</text>
<text text-anchor="start" x="169.58" y="-46.9" font-family="Helvetica,sans-Serif" font-size="12.00">+ std::map&lt; NodeStorageType,</text>
<text text-anchor="start" x="169.58" y="-33.9" font-family="Helvetica,sans-Serif" font-size="12.00"> Node&lt; NodeStorageType</text>
<text text-anchor="start" x="169.58" y="-20.9" font-family="Helvetica,sans-Serif" font-size="12.00"> &gt; * &gt; * Nodes()</text>
<text text-anchor="start" x="169.58" y="-7.9" font-family="Helvetica,sans-Serif" font-size="12.00">+ void OptimizeEdgeOrder()</text>
</a>
</g>
</g>
<!-- Node2 -->
<g id="node2" class="node">
<title>Node2</title>
<g id="a_node2"><a xlink:href="class_markov_1_1_node.html" target="_top" xlink:title=" ">
<polygon fill="none" stroke="black" points="114.58,-538.5 114.58,-952.5 356.58,-952.5 356.58,-538.5 114.58,-538.5"/>
<text text-anchor="start" x="122.58" y="-938.9" font-family="Helvetica,sans-Serif" font-size="12.00">Markov::Node&lt; NodeStorage</text>
<text text-anchor="middle" x="235.58" y="-925.9" font-family="Helvetica,sans-Serif" font-size="12.00">Type &gt;</text>
<polyline fill="none" stroke="black" points="114.58,-918.5 356.58,-918.5 "/>
<text text-anchor="middle" x="235.58" y="-904.9" font-family="Helvetica,sans-Serif" font-size="12.00"> </text>
<polyline fill="none" stroke="black" points="114.58,-897.5 356.58,-897.5 "/>
<text text-anchor="start" x="122.58" y="-883.9" font-family="Helvetica,sans-Serif" font-size="12.00">+ Node()</text>
<text text-anchor="start" x="122.58" y="-870.9" font-family="Helvetica,sans-Serif" font-size="12.00">+ Node(NodeStorageType</text>
<text text-anchor="start" x="122.58" y="-857.9" font-family="Helvetica,sans-Serif" font-size="12.00"> _value)</text>
<text text-anchor="start" x="122.58" y="-844.9" font-family="Helvetica,sans-Serif" font-size="12.00">+ Edge&lt; NodeStorageType</text>
<text text-anchor="start" x="122.58" y="-831.9" font-family="Helvetica,sans-Serif" font-size="12.00"> &gt; * Link(Node&lt; NodeStorage</text>
<text text-anchor="start" x="122.58" y="-818.9" font-family="Helvetica,sans-Serif" font-size="12.00">Type &gt; *)</text>
<text text-anchor="start" x="122.58" y="-805.9" font-family="Helvetica,sans-Serif" font-size="12.00">+ Edge&lt; NodeStorageType</text>
<text text-anchor="start" x="122.58" y="-792.9" font-family="Helvetica,sans-Serif" font-size="12.00"> &gt; * Link(Edge&lt; NodeStorage</text>
<text text-anchor="start" x="122.58" y="-779.9" font-family="Helvetica,sans-Serif" font-size="12.00">Type &gt; *)</text>
<text text-anchor="start" x="122.58" y="-766.9" font-family="Helvetica,sans-Serif" font-size="12.00">+ Node&lt; NodeStorageType</text>
<text text-anchor="start" x="122.58" y="-753.9" font-family="Helvetica,sans-Serif" font-size="12.00"> &gt; * RandomNext(Markov</text>
<text text-anchor="start" x="122.58" y="-740.9" font-family="Helvetica,sans-Serif" font-size="12.00">::Random::RandomEngine</text>
<text text-anchor="start" x="122.58" y="-727.9" font-family="Helvetica,sans-Serif" font-size="12.00"> *randomEngine)</text>
<text text-anchor="start" x="122.58" y="-714.9" font-family="Helvetica,sans-Serif" font-size="12.00">+ bool UpdateEdges(Edge</text>
<text text-anchor="start" x="122.58" y="-701.9" font-family="Helvetica,sans-Serif" font-size="12.00">&lt; NodeStorageType &gt; *)</text>
<text text-anchor="start" x="122.58" y="-688.9" font-family="Helvetica,sans-Serif" font-size="12.00">+ Edge&lt; NodeStorageType</text>
<text text-anchor="start" x="122.58" y="-675.9" font-family="Helvetica,sans-Serif" font-size="12.00"> &gt; * FindEdge(NodeStorageType repr)</text>
<text text-anchor="start" x="122.58" y="-662.9" font-family="Helvetica,sans-Serif" font-size="12.00">+ Edge&lt; NodeStorageType</text>
<text text-anchor="start" x="122.58" y="-649.9" font-family="Helvetica,sans-Serif" font-size="12.00"> &gt; * FindEdge(Node&lt; NodeStorage</text>
<text text-anchor="start" x="122.58" y="-636.9" font-family="Helvetica,sans-Serif" font-size="12.00">Type &gt; *target)</text>
<text text-anchor="start" x="122.58" y="-623.9" font-family="Helvetica,sans-Serif" font-size="12.00">+ unsigned char NodeValue()</text>
<text text-anchor="start" x="122.58" y="-610.9" font-family="Helvetica,sans-Serif" font-size="12.00">+ void UpdateTotalVerticeWeight</text>
<text text-anchor="start" x="122.58" y="-597.9" font-family="Helvetica,sans-Serif" font-size="12.00">(long int offset)</text>
<text text-anchor="start" x="122.58" y="-584.9" font-family="Helvetica,sans-Serif" font-size="12.00">+ std::map&lt; NodeStorageType,</text>
<text text-anchor="start" x="122.58" y="-571.9" font-family="Helvetica,sans-Serif" font-size="12.00"> Edge&lt; NodeStorageType</text>
<text text-anchor="start" x="122.58" y="-558.9" font-family="Helvetica,sans-Serif" font-size="12.00"> &gt; * &gt; * Edges()</text>
<text text-anchor="start" x="122.58" y="-545.9" font-family="Helvetica,sans-Serif" font-size="12.00">+ long int TotalEdgeWeights()</text>
</a>
</g>
</g>
<!-- Node2&#45;&gt;Node1 -->
<g id="edge1" class="edge">
<title>Node2&#45;&gt;Node1</title>
<path fill="none" stroke="#404040" d="M264.71,-538.22C266.79,-521.58 268.78,-505.02 270.58,-489 274.73,-452.12 278.61,-412.68 282.07,-374.79"/>
<polygon fill="none" stroke="#404040" points="282.1,-374.49 278.66,-368.16 283.18,-362.54 286.62,-368.88 282.1,-374.49"/>
<text text-anchor="middle" x="318.08" y="-447.4" font-family="Helvetica,sans-Serif" font-size="12.00"> &#45;starterNode</text>
</g>
<!-- Node8 -->
<g id="node8" class="node">
<title>Node8</title>
<g id="a_node8"><a xlink:title=" ">
<polygon fill="none" stroke="#bfbfbf" points="1.58,-412.5 1.58,-488.5 261.58,-488.5 261.58,-412.5 1.58,-412.5"/>
<text text-anchor="start" x="9.58" y="-474.9" font-family="Helvetica,sans-Serif" font-size="12.00">std::map&lt; NodeStorageType,</text>
<text text-anchor="middle" x="131.58" y="-461.9" font-family="Helvetica,sans-Serif" font-size="12.00"> Markov::Node&lt; NodeStorageType &gt; * &gt;</text>
<polyline fill="none" stroke="#bfbfbf" points="1.58,-454.5 261.58,-454.5 "/>
<text text-anchor="middle" x="131.58" y="-440.9" font-family="Helvetica,sans-Serif" font-size="12.00"> </text>
<polyline fill="none" stroke="#bfbfbf" points="1.58,-433.5 261.58,-433.5 "/>
<text text-anchor="middle" x="131.58" y="-419.9" font-family="Helvetica,sans-Serif" font-size="12.00"> </text>
</a>
</g>
</g>
<!-- Node2&#45;&gt;Node8 -->
<g id="edge10" class="edge">
<title>Node2&#45;&gt;Node8</title>
<path fill="none" stroke="#404040" d="M162.36,-538.22C157.45,-524.39 152.85,-511.42 148.77,-499.94"/>
<polygon fill="none" stroke="#404040" points="148.74,-499.84 142.96,-495.52 144.72,-488.53 150.5,-492.85 148.74,-499.84"/>
<text text-anchor="middle" x="188.58" y="-510.4" font-family="Helvetica,sans-Serif" font-size="12.00"> +elements</text>
</g>
<!-- Node3 -->
<g id="node3" class="node">
<title>Node3</title>
<g id="a_node3"><a xlink:title=" ">
<polygon fill="none" stroke="#bfbfbf" points="34.58,-1009 34.58,-1072 66.58,-1072 66.58,-1009 34.58,-1009"/>
<text text-anchor="middle" x="50.58" y="-1058.4" font-family="Helvetica,sans-Serif" font-size="12.00">int</text>
<polyline fill="none" stroke="#bfbfbf" points="34.58,-1051 66.58,-1051 "/>
<text text-anchor="middle" x="50.58" y="-1037.4" font-family="Helvetica,sans-Serif" font-size="12.00"> </text>
<polyline fill="none" stroke="#bfbfbf" points="34.58,-1030 66.58,-1030 "/>
<text text-anchor="middle" x="50.58" y="-1016.4" font-family="Helvetica,sans-Serif" font-size="12.00"> </text>
</a>
</g>
</g>
<!-- Node3&#45;&gt;Node2 -->
<g id="edge2" class="edge">
<title>Node3&#45;&gt;Node2</title>
<path fill="none" stroke="#404040" d="M46.75,-1008.7C46.33,-996.62 47.25,-982.84 51.58,-971 64.15,-936.62 84.4,-903.68 106.96,-874.12"/>
<polygon fill="none" stroke="#404040" points="106.98,-874.1 107.52,-866.91 114.36,-864.65 113.82,-871.84 106.98,-874.1"/>
<text text-anchor="middle" x="113.58" y="-974.4" font-family="Helvetica,sans-Serif" font-size="12.00"> &#45;total_edge_weights</text>
</g>
<!-- Node4 -->
<g id="node4" class="node">
<title>Node4</title>
<g id="a_node4"><a xlink:href="class_node_storage_type.html" target="_top" xlink:title=" ">
<polygon fill="none" stroke="black" points="84.08,-1128.5 84.08,-1191.5 207.08,-1191.5 207.08,-1128.5 84.08,-1128.5"/>
<text text-anchor="middle" x="145.58" y="-1177.9" font-family="Helvetica,sans-Serif" font-size="12.00">NodeStorageType</text>
<polyline fill="none" stroke="black" points="84.08,-1170.5 207.08,-1170.5 "/>
<text text-anchor="middle" x="145.58" y="-1156.9" font-family="Helvetica,sans-Serif" font-size="12.00"> </text>
<polyline fill="none" stroke="black" points="84.08,-1149.5 207.08,-1149.5 "/>
<text text-anchor="middle" x="145.58" y="-1135.9" font-family="Helvetica,sans-Serif" font-size="12.00"> </text>
</a>
</g>
</g>
<!-- Node4&#45;&gt;Node2 -->
<g id="edge3" class="edge">
<title>Node4&#45;&gt;Node2</title>
<path fill="none" stroke="#404040" d="M140.96,-1128.36C137.45,-1095.41 136.06,-1042.32 155.58,-1002 160.79,-991.24 169.4,-994.24 175.58,-984 179.51,-977.49 183.18,-970.73 186.61,-963.78"/>
<polygon fill="none" stroke="#404040" points="186.7,-963.59 185.64,-956.46 191.81,-952.73 192.88,-959.86 186.7,-963.59"/>
<text text-anchor="middle" x="179.08" y="-1037.4" font-family="Helvetica,sans-Serif" font-size="12.00"> &#45;_value</text>
</g>
<!-- Node5 -->
<g id="node5" class="node">
<title>Node5</title>
<g id="a_node5"><a xlink:title=" ">
<polygon fill="none" stroke="#bfbfbf" points="211.08,-1002.5 211.08,-1078.5 470.08,-1078.5 470.08,-1002.5 211.08,-1002.5"/>
<text text-anchor="start" x="219.08" y="-1064.9" font-family="Helvetica,sans-Serif" font-size="12.00">std::map&lt; NodeStorageType,</text>
<text text-anchor="middle" x="340.58" y="-1051.9" font-family="Helvetica,sans-Serif" font-size="12.00"> Markov::Edge&lt; NodeStorageType &gt; * &gt;</text>
<polyline fill="none" stroke="#bfbfbf" points="211.08,-1044.5 470.08,-1044.5 "/>
<text text-anchor="middle" x="340.58" y="-1030.9" font-family="Helvetica,sans-Serif" font-size="12.00"> </text>
<polyline fill="none" stroke="#bfbfbf" points="211.08,-1023.5 470.08,-1023.5 "/>
<text text-anchor="middle" x="340.58" y="-1009.9" font-family="Helvetica,sans-Serif" font-size="12.00"> </text>
</a>
</g>
</g>
<!-- Node4&#45;&gt;Node5 -->
<g id="edge6" class="edge">
<title>Node4&#45;&gt;Node5</title>
<path fill="none" stroke="#404040" d="M196.3,-1128.43C218.32,-1115.17 244.51,-1099.39 268.5,-1084.93"/>
<polygon fill="none" stroke="#404040" points="268.7,-1084.81 271.78,-1078.29 278.98,-1078.62 275.9,-1085.14 268.7,-1084.81"/>
<text text-anchor="middle" x="263.08" y="-1100.4" font-family="Helvetica,sans-Serif" font-size="12.00"> +keys</text>
</g>
<!-- Node4&#45;&gt;Node8 -->
<g id="edge11" class="edge">
<title>Node4&#45;&gt;Node8</title>
<path fill="none" stroke="#404040" d="M83.95,-1130.16C62.54,-1117.3 40.25,-1100.21 25.58,-1079 0.92,-1043.36 8.5,-1027.06 3.58,-984 -17.23,-801.95 65.83,-592.23 108.16,-499.66"/>
<polygon fill="none" stroke="#404040" points="108.2,-499.59 107.09,-492.47 113.24,-488.7 114.35,-495.83 108.2,-499.59"/>
<text text-anchor="middle" x="24.08" y="-974.4" font-family="Helvetica,sans-Serif" font-size="12.00"> +keys</text>
</g>
<!-- Node5&#45;&gt;Node2 -->
<g id="edge4" class="edge">
<title>Node5&#45;&gt;Node2</title>
<path fill="none" stroke="#404040" d="M327.28,-1002.39C323.32,-991.33 318.66,-978.35 313.59,-964.18"/>
<polygon fill="none" stroke="#404040" points="313.48,-963.89 307.69,-959.59 309.43,-952.59 315.22,-956.89 313.48,-963.89"/>
<text text-anchor="middle" x="342.08" y="-974.4" font-family="Helvetica,sans-Serif" font-size="12.00"> &#45;edges</text>
</g>
<!-- Node6 -->
<g id="node6" class="node">
<title>Node6</title>
<g id="a_node6"><a xlink:title=" ">
<polygon fill="none" stroke="#bfbfbf" points="331.58,-1128.5 331.58,-1191.5 521.58,-1191.5 521.58,-1128.5 331.58,-1128.5"/>
<text text-anchor="middle" x="426.58" y="-1177.9" font-family="Helvetica,sans-Serif" font-size="12.00">Edge&lt; NodeStorageType &gt; *</text>
<polyline fill="none" stroke="#bfbfbf" points="331.58,-1170.5 521.58,-1170.5 "/>
<text text-anchor="middle" x="426.58" y="-1156.9" font-family="Helvetica,sans-Serif" font-size="12.00"> </text>
<polyline fill="none" stroke="#bfbfbf" points="331.58,-1149.5 521.58,-1149.5 "/>
<text text-anchor="middle" x="426.58" y="-1135.9" font-family="Helvetica,sans-Serif" font-size="12.00"> </text>
</a>
</g>
</g>
<!-- Node6&#45;&gt;Node5 -->
<g id="edge5" class="edge">
<title>Node6&#45;&gt;Node5</title>
<path fill="none" stroke="#404040" d="M404.21,-1128.43C395.32,-1116.3 384.9,-1102.06 375.09,-1088.65"/>
<polygon fill="none" stroke="#404040" points="374.83,-1088.3 368.06,-1085.82 367.74,-1078.62 374.52,-1081.1 374.83,-1088.3"/>
<text text-anchor="middle" x="423.58" y="-1100.4" font-family="Helvetica,sans-Serif" font-size="12.00"> +elements</text>
</g>
<!-- Node7 -->
<g id="node7" class="node">
<title>Node7</title>
<g id="a_node7"><a xlink:title=" ">
<polygon fill="none" stroke="#bfbfbf" points="488.08,-1002.5 488.08,-1078.5 699.08,-1078.5 699.08,-1002.5 488.08,-1002.5"/>
<text text-anchor="start" x="496.08" y="-1064.9" font-family="Helvetica,sans-Serif" font-size="12.00">std::vector&lt; Markov</text>
<text text-anchor="middle" x="593.58" y="-1051.9" font-family="Helvetica,sans-Serif" font-size="12.00">::Edge&lt; NodeStorageType &gt; * &gt;</text>
<polyline fill="none" stroke="#bfbfbf" points="488.08,-1044.5 699.08,-1044.5 "/>
<text text-anchor="middle" x="593.58" y="-1030.9" font-family="Helvetica,sans-Serif" font-size="12.00"> </text>
<polyline fill="none" stroke="#bfbfbf" points="488.08,-1023.5 699.08,-1023.5 "/>
<text text-anchor="middle" x="593.58" y="-1009.9" font-family="Helvetica,sans-Serif" font-size="12.00"> </text>
</a>
</g>
</g>
<!-- Node6&#45;&gt;Node7 -->
<g id="edge8" class="edge">
<title>Node6&#45;&gt;Node7</title>
<path fill="none" stroke="#404040" d="M470.02,-1128.43C488.54,-1115.4 510.5,-1099.95 530.74,-1085.71"/>
<polygon fill="none" stroke="#404040" points="531.01,-1085.52 533.62,-1078.8 540.82,-1078.62 538.22,-1085.34 531.01,-1085.52"/>
<text text-anchor="middle" x="544.58" y="-1100.4" font-family="Helvetica,sans-Serif" font-size="12.00"> +elements</text>
</g>
<!-- Node7&#45;&gt;Node1 -->
<g id="edge12" class="edge">
<title>Node7&#45;&gt;Node1</title>
<path fill="none" stroke="#404040" d="M580.76,-1002.4C543.85,-895.51 435.33,-581.32 363.85,-374.38"/>
<polygon fill="none" stroke="#404040" points="363.76,-374.1 358.02,-369.74 359.84,-362.76 365.58,-367.13 363.76,-374.1"/>
<text text-anchor="middle" x="434.08" y="-510.4" font-family="Helvetica,sans-Serif" font-size="12.00"> &#45;edges</text>
</g>
<!-- Node7&#45;&gt;Node2 -->
<g id="edge7" class="edge">
<title>Node7&#45;&gt;Node2</title>
<path fill="none" stroke="#404040" d="M508.56,-1002.39C498.16,-996.72 487.92,-990.56 478.58,-984 439.18,-956.36 400.21,-922.21 365.4,-888.52"/>
<polygon fill="none" stroke="#404040" points="365.23,-888.35 358.14,-887.02 356.65,-879.96 363.73,-881.29 365.23,-888.35"/>
<text text-anchor="middle" x="507.58" y="-974.4" font-family="Helvetica,sans-Serif" font-size="12.00"> +edgesV</text>
</g>
<!-- Node8&#45;&gt;Node1 -->
<g id="edge9" class="edge">
<title>Node8&#45;&gt;Node1</title>
<path fill="none" stroke="#404040" d="M154.66,-412.37C161.79,-400.91 170.18,-387.41 179.27,-372.79"/>
<polygon fill="none" stroke="#404040" points="179.33,-372.7 179.1,-365.49 185.66,-362.51 185.89,-369.71 179.33,-372.7"/>
<text text-anchor="middle" x="194.08" y="-384.4" font-family="Helvetica,sans-Serif" font-size="12.00"> &#45;nodes</text>
</g>
</g>
</svg>
