<?xml version="1.0" encoding="UTF-8" standalone="no"?>
<!DOCTYPE svg PUBLIC "-//W3C//DTD SVG 1.1//EN"
 "http://www.w3.org/Graphics/SVG/1.1/DTD/svg11.dtd">
<!-- Generated by graphviz version 2.43.0 (0)
 -->
<!-- Title: Markov::API::MarkovPasswords Pages: 1 -->
<svg width="1031pt" height="1703pt"
 viewBox="0.00 0.00 1031.00 1703.00" xmlns="http://www.w3.org/2000/svg" xmlns:xlink="http://www.w3.org/1999/xlink">
<g id="graph0" class="graph" transform="scale(1 1) rotate(0) translate(4 1699)">
<title>Markov::API::MarkovPasswords</title>
<!-- Node1 -->
<g id="node1" class="node">
<title>Node1</title>
<g id="a_node1"><a xlink:title="Markov::Model with char represented nodes.">
<polygon fill="#bfbfbf" stroke="black" points="660,-0.5 660,-414.5 955,-414.5 955,-0.5 660,-0.5"/>
<text text-anchor="middle" x="807.5" y="-400.9" font-family="Helvetica,sans-Serif" font-size="12.00">Markov::API::MarkovPasswords</text>
<polyline fill="none" stroke="black" points="660,-393.5 955,-393.5 "/>
<text text-anchor="middle" x="807.5" y="-379.9" font-family="Helvetica,sans-Serif" font-size="12.00"> </text>
<polyline fill="none" stroke="black" points="660,-372.5 955,-372.5 "/>
<text text-anchor="start" x="668" y="-358.9" font-family="Helvetica,sans-Serif" font-size="12.00">+ MarkovPasswords()</text>
<text text-anchor="start" x="668" y="-345.9" font-family="Helvetica,sans-Serif" font-size="12.00">+ MarkovPasswords(const</text>
<text text-anchor="start" x="668" y="-332.9" font-family="Helvetica,sans-Serif" font-size="12.00"> char *filename)</text>
<text text-anchor="start" x="668" y="-319.9" font-family="Helvetica,sans-Serif" font-size="12.00">+ std::ifstream * OpenDataset</text>
<text text-anchor="start" x="668" y="-306.9" font-family="Helvetica,sans-Serif" font-size="12.00">File(const char *filename)</text>
<text text-anchor="start" x="668" y="-293.9" font-family="Helvetica,sans-Serif" font-size="12.00">+ void Train(const char</text>
<text text-anchor="start" x="668" y="-280.9" font-family="Helvetica,sans-Serif" font-size="12.00"> *datasetFileName, char</text>
<text text-anchor="start" x="668" y="-267.9" font-family="Helvetica,sans-Serif" font-size="12.00"> delimiter, int threads)</text>
<text text-anchor="start" x="668" y="-254.9" font-family="Helvetica,sans-Serif" font-size="12.00">+ std::ofstream * Save</text>
<text text-anchor="start" x="668" y="-241.9" font-family="Helvetica,sans-Serif" font-size="12.00">(const char *filename)</text>
<text text-anchor="start" x="668" y="-228.9" font-family="Helvetica,sans-Serif" font-size="12.00">+ void Generate(unsigned</text>
<text text-anchor="start" x="668" y="-215.9" font-family="Helvetica,sans-Serif" font-size="12.00"> long int n, const char</text>
<text text-anchor="start" x="668" y="-202.9" font-family="Helvetica,sans-Serif" font-size="12.00"> *wordlistFileName, int</text>
<text text-anchor="start" x="668" y="-189.9" font-family="Helvetica,sans-Serif" font-size="12.00"> minLen=6, int maxLen=12,</text>
<text text-anchor="start" x="668" y="-176.9" font-family="Helvetica,sans-Serif" font-size="12.00"> int threads=20)</text>
<text text-anchor="start" x="668" y="-163.9" font-family="Helvetica,sans-Serif" font-size="12.00">+ void Buff(const char</text>
<text text-anchor="start" x="668" y="-150.9" font-family="Helvetica,sans-Serif" font-size="12.00"> *str, double multiplier,</text>
<text text-anchor="start" x="668" y="-137.9" font-family="Helvetica,sans-Serif" font-size="12.00"> bool bDontAdjustSelfLoops</text>
<text text-anchor="start" x="668" y="-124.9" font-family="Helvetica,sans-Serif" font-size="12.00">=true, bool bDontAdjustExtendedLoops=false)</text>
<text text-anchor="start" x="668" y="-111.9" font-family="Helvetica,sans-Serif" font-size="12.00">&#45; void TrainThread(Markov</text>
<text text-anchor="start" x="668" y="-98.9" font-family="Helvetica,sans-Serif" font-size="12.00">::API::Concurrency::ThreadShared</text>
<text text-anchor="start" x="668" y="-85.9" font-family="Helvetica,sans-Serif" font-size="12.00">ListHandler *listhandler, char</text>
<text text-anchor="start" x="668" y="-72.9" font-family="Helvetica,sans-Serif" font-size="12.00"> delimiter)</text>
<text text-anchor="start" x="668" y="-59.9" font-family="Helvetica,sans-Serif" font-size="12.00">&#45; void GenerateThread</text>
<text text-anchor="start" x="668" y="-46.9" font-family="Helvetica,sans-Serif" font-size="12.00">(std::mutex *outputLock,</text>
<text text-anchor="start" x="668" y="-33.9" font-family="Helvetica,sans-Serif" font-size="12.00"> unsigned long int n, std</text>
<text text-anchor="start" x="668" y="-20.9" font-family="Helvetica,sans-Serif" font-size="12.00">::ofstream *wordlist, int</text>
<text text-anchor="start" x="668" y="-7.9" font-family="Helvetica,sans-Serif" font-size="12.00"> minLen, int maxLen)</text>
</a>
</g>
</g>
<!-- Node2 -->
<g id="node2" class="node">
<title>Node2</title>
<g id="a_node2"><a xlink:href="class_markov_1_1_model.html" target="_top" xlink:title=" ">
<polygon fill="none" stroke="black" points="249.5,-477.5 249.5,-787.5 461.5,-787.5 461.5,-477.5 249.5,-477.5"/>
<text text-anchor="middle" x="355.5" y="-773.9" font-family="Helvetica,sans-Serif" font-size="12.00">Markov::Model&lt; char &gt;</text>
<polyline fill="none" stroke="black" points="249.5,-766.5 461.5,-766.5 "/>
<text text-anchor="middle" x="355.5" y="-752.9" font-family="Helvetica,sans-Serif" font-size="12.00"> </text>
<polyline fill="none" stroke="black" points="249.5,-745.5 461.5,-745.5 "/>
<text text-anchor="start" x="257.5" y="-731.9" font-family="Helvetica,sans-Serif" font-size="12.00">+ Model()</text>
<text text-anchor="start" x="257.5" y="-718.9" font-family="Helvetica,sans-Serif" font-size="12.00">+ char * RandomWalk(Markov</text>
<text text-anchor="start" x="257.5" y="-705.9" font-family="Helvetica,sans-Serif" font-size="12.00">::Random::RandomEngine</text>
<text text-anchor="start" x="257.5" y="-692.9" font-family="Helvetica,sans-Serif" font-size="12.00"> *randomEngine, int minSetting,</text>
<text text-anchor="start" x="257.5" y="-679.9" font-family="Helvetica,sans-Serif" font-size="12.00"> int maxSetting, char *buffer)</text>
<text text-anchor="start" x="257.5" y="-666.9" font-family="Helvetica,sans-Serif" font-size="12.00">+ void AdjustEdge(const</text>
<text text-anchor="start" x="257.5" y="-653.9" font-family="Helvetica,sans-Serif" font-size="12.00"> char *payload, long</text>
<text text-anchor="start" x="257.5" y="-640.9" font-family="Helvetica,sans-Serif" font-size="12.00"> int occurrence)</text>
<text text-anchor="start" x="257.5" y="-627.9" font-family="Helvetica,sans-Serif" font-size="12.00">+ bool Import(std::ifstream *)</text>
<text text-anchor="start" x="257.5" y="-614.9" font-family="Helvetica,sans-Serif" font-size="12.00">+ bool Import(const char</text>
<text text-anchor="start" x="257.5" y="-601.9" font-family="Helvetica,sans-Serif" font-size="12.00"> *filename)</text>
<text text-anchor="start" x="257.5" y="-588.9" font-family="Helvetica,sans-Serif" font-size="12.00">+ bool Export(std::ofstream *)</text>
<text text-anchor="start" x="257.5" y="-575.9" font-family="Helvetica,sans-Serif" font-size="12.00">+ bool Export(const char</text>
<text text-anchor="start" x="257.5" y="-562.9" font-family="Helvetica,sans-Serif" font-size="12.00"> *filename)</text>
<text text-anchor="start" x="257.5" y="-549.9" font-family="Helvetica,sans-Serif" font-size="12.00">+ Node&lt; char &gt; * StarterNode()</text>
<text text-anchor="start" x="257.5" y="-536.9" font-family="Helvetica,sans-Serif" font-size="12.00">+ std::vector&lt; Edge&lt;</text>
<text text-anchor="start" x="257.5" y="-523.9" font-family="Helvetica,sans-Serif" font-size="12.00"> char &gt; * &gt; * Edges()</text>
<text text-anchor="start" x="257.5" y="-510.9" font-family="Helvetica,sans-Serif" font-size="12.00">+ std::map&lt; char, Node</text>
<text text-anchor="start" x="257.5" y="-497.9" font-family="Helvetica,sans-Serif" font-size="12.00">&lt; char &gt; * &gt; * Nodes()</text>
<text text-anchor="start" x="257.5" y="-484.9" font-family="Helvetica,sans-Serif" font-size="12.00">+ void OptimizeEdgeOrder()</text>
</a>
</g>
</g>
<!-- Node2&#45;&gt;Node1 -->
<g id="edge1" class="edge">
<title>Node2&#45;&gt;Node1</title>
<path fill="none" stroke="midnightblue" d="M469.09,-525.2C526.81,-471.18 597.66,-404.88 659.59,-346.92"/>
<polygon fill="none" stroke="midnightblue" points="466.67,-522.67 461.76,-532.06 471.45,-527.78 466.67,-522.67"/>
</g>
<!-- Node3 -->
<g id="node3" class="node">
<title>Node3</title>
<g id="a_node3"><a xlink:title=" ">
<polygon fill="none" stroke="#bfbfbf" points="0,-1041.5 0,-1117.5 161,-1117.5 161,-1041.5 0,-1041.5"/>
<text text-anchor="start" x="8" y="-1103.9" font-family="Helvetica,sans-Serif" font-size="12.00">std::map&lt; char, Markov</text>
<text text-anchor="middle" x="80.5" y="-1090.9" font-family="Helvetica,sans-Serif" font-size="12.00">::Node&lt; char &gt; * &gt;</text>
<polyline fill="none" stroke="#bfbfbf" points="0,-1083.5 161,-1083.5 "/>
<text text-anchor="middle" x="80.5" y="-1069.9" font-family="Helvetica,sans-Serif" font-size="12.00"> </text>
<polyline fill="none" stroke="#bfbfbf" points="0,-1062.5 161,-1062.5 "/>
<text text-anchor="middle" x="80.5" y="-1048.9" font-family="Helvetica,sans-Serif" font-size="12.00"> </text>
</a>
</g>
</g>
<!-- Node3&#45;&gt;Node2 -->
<g id="edge2" class="edge">
<title>Node3&#45;&gt;Node2</title>
<path fill="none" stroke="#404040" d="M102.77,-1041.12C131.19,-993.53 182.01,-908.86 226.5,-837 234.32,-824.37 242.45,-811.33 250.66,-798.24"/>
<polygon fill="none" stroke="#404040" points="250.87,-797.89 250.67,-790.69 257.25,-787.73 257.45,-794.94 250.87,-797.89"/>
<text text-anchor="middle" x="249" y="-872.4" font-family="Helvetica,sans-Serif" font-size="12.00"> &#45;nodes</text>
</g>
<!-- Node4 -->
<g id="node4" class="node">
<title>Node4</title>
<g id="a_node4"><a xlink:title=" ">
<polygon fill="none" stroke="#bfbfbf" points="157.5,-1631.5 157.5,-1694.5 201.5,-1694.5 201.5,-1631.5 157.5,-1631.5"/>
<text text-anchor="middle" x="179.5" y="-1680.9" font-family="Helvetica,sans-Serif" font-size="12.00">char</text>
<polyline fill="none" stroke="#bfbfbf" points="157.5,-1673.5 201.5,-1673.5 "/>
<text text-anchor="middle" x="179.5" y="-1659.9" font-family="Helvetica,sans-Serif" font-size="12.00"> </text>
<polyline fill="none" stroke="#bfbfbf" points="157.5,-1652.5 201.5,-1652.5 "/>
<text text-anchor="middle" x="179.5" y="-1638.9" font-family="Helvetica,sans-Serif" font-size="12.00"> </text>
</a>
</g>
</g>
<!-- Node4&#45;&gt;Node3 -->
<g id="edge3" class="edge">
<title>Node4&#45;&gt;Node3</title>
<path fill="none" stroke="#404040" d="M157.47,-1637.23C145.54,-1622.3 131.79,-1602.3 124.5,-1582 67.91,-1424.49 71.36,-1222.02 76.69,-1129.98"/>
<polygon fill="none" stroke="#404040" points="76.71,-1129.72 73.09,-1123.48 77.45,-1117.74 81.07,-1123.97 76.71,-1129.72"/>
<text text-anchor="middle" x="145" y="-1416.9" font-family="Helvetica,sans-Serif" font-size="12.00"> +keys</text>
</g>
<!-- Node5 -->
<g id="node5" class="node">
<title>Node5</title>
<g id="a_node5"><a xlink:href="class_markov_1_1_node.html" target="_top" xlink:title=" ">
<polygon fill="none" stroke="black" points="243,-1258.5 243,-1581.5 464,-1581.5 464,-1258.5 243,-1258.5"/>
<text text-anchor="middle" x="353.5" y="-1567.9" font-family="Helvetica,sans-Serif" font-size="12.00">Markov::Node&lt; char &gt;</text>
<polyline fill="none" stroke="black" points="243,-1560.5 464,-1560.5 "/>
<text text-anchor="middle" x="353.5" y="-1546.9" font-family="Helvetica,sans-Serif" font-size="12.00"> </text>
<polyline fill="none" stroke="black" points="243,-1539.5 464,-1539.5 "/>
<text text-anchor="start" x="251" y="-1525.9" font-family="Helvetica,sans-Serif" font-size="12.00">+ Node()</text>
<text text-anchor="start" x="251" y="-1512.9" font-family="Helvetica,sans-Serif" font-size="12.00">+ Node(char _value)</text>
<text text-anchor="start" x="251" y="-1499.9" font-family="Helvetica,sans-Serif" font-size="12.00">+ Edge&lt; char &gt; * Link</text>
<text text-anchor="start" x="251" y="-1486.9" font-family="Helvetica,sans-Serif" font-size="12.00">(Node&lt; char &gt; *)</text>
<text text-anchor="start" x="251" y="-1473.9" font-family="Helvetica,sans-Serif" font-size="12.00">+ Edge&lt; char &gt; * Link</text>
<text text-anchor="start" x="251" y="-1460.9" font-family="Helvetica,sans-Serif" font-size="12.00">(Edge&lt; char &gt; *)</text>
<text text-anchor="start" x="251" y="-1447.9" font-family="Helvetica,sans-Serif" font-size="12.00">+ Node&lt; char &gt; * RandomNext</text>
<text text-anchor="start" x="251" y="-1434.9" font-family="Helvetica,sans-Serif" font-size="12.00">(Markov::Random::RandomEngine</text>
<text text-anchor="start" x="251" y="-1421.9" font-family="Helvetica,sans-Serif" font-size="12.00"> *randomEngine)</text>
<text text-anchor="start" x="251" y="-1408.9" font-family="Helvetica,sans-Serif" font-size="12.00">+ bool UpdateEdges(Edge</text>
<text text-anchor="start" x="251" y="-1395.9" font-family="Helvetica,sans-Serif" font-size="12.00">&lt; char &gt; *)</text>
<text text-anchor="start" x="251" y="-1382.9" font-family="Helvetica,sans-Serif" font-size="12.00">+ Edge&lt; char &gt; * FindEdge</text>
<text text-anchor="start" x="251" y="-1369.9" font-family="Helvetica,sans-Serif" font-size="12.00">(char repr)</text>
<text text-anchor="start" x="251" y="-1356.9" font-family="Helvetica,sans-Serif" font-size="12.00">+ Edge&lt; char &gt; * FindEdge</text>
<text text-anchor="start" x="251" y="-1343.9" font-family="Helvetica,sans-Serif" font-size="12.00">(Node&lt; char &gt; *target)</text>
<text text-anchor="start" x="251" y="-1330.9" font-family="Helvetica,sans-Serif" font-size="12.00">+ unsigned char NodeValue()</text>
<text text-anchor="start" x="251" y="-1317.9" font-family="Helvetica,sans-Serif" font-size="12.00">+ void UpdateTotalVerticeWeight</text>
<text text-anchor="start" x="251" y="-1304.9" font-family="Helvetica,sans-Serif" font-size="12.00">(long int offset)</text>
<text text-anchor="start" x="251" y="-1291.9" font-family="Helvetica,sans-Serif" font-size="12.00">+ std::map&lt; char, Edge</text>
<text text-anchor="start" x="251" y="-1278.9" font-family="Helvetica,sans-Serif" font-size="12.00">&lt; char &gt; * &gt; * Edges()</text>
<text text-anchor="start" x="251" y="-1265.9" font-family="Helvetica,sans-Serif" font-size="12.00">+ long int TotalEdgeWeights()</text>
</a>
</g>
</g>
<!-- Node4&#45;&gt;Node5 -->
<g id="edge5" class="edge">
<title>Node4&#45;&gt;Node5</title>
<path fill="none" stroke="#404040" d="M201.54,-1631.48C210.99,-1618.39 222.82,-1602 235.68,-1584.19"/>
<polygon fill="none" stroke="#404040" points="235.9,-1583.89 236.17,-1576.68 242.92,-1574.16 242.65,-1581.36 235.9,-1583.89"/>
<text text-anchor="middle" x="246" y="-1603.4" font-family="Helvetica,sans-Serif" font-size="12.00"> &#45;_value</text>
</g>
<!-- Node6 -->
<g id="node6" class="node">
<title>Node6</title>
<g id="a_node6"><a xlink:title=" ">
<polygon fill="none" stroke="#bfbfbf" points="314,-837.5 314,-913.5 475,-913.5 475,-837.5 314,-837.5"/>
<text text-anchor="start" x="322" y="-899.9" font-family="Helvetica,sans-Serif" font-size="12.00">std::map&lt; char, Markov</text>
<text text-anchor="middle" x="394.5" y="-886.9" font-family="Helvetica,sans-Serif" font-size="12.00">::Edge&lt; char &gt; * &gt;</text>
<polyline fill="none" stroke="#bfbfbf" points="314,-879.5 475,-879.5 "/>
<text text-anchor="middle" x="394.5" y="-865.9" font-family="Helvetica,sans-Serif" font-size="12.00"> </text>
<polyline fill="none" stroke="#bfbfbf" points="314,-858.5 475,-858.5 "/>
<text text-anchor="middle" x="394.5" y="-844.9" font-family="Helvetica,sans-Serif" font-size="12.00"> </text>
</a>
</g>
</g>
<!-- Node4&#45;&gt;Node6 -->
<g id="edge7" class="edge">
<title>Node4&#45;&gt;Node6</title>
<path fill="none" stroke="#404040" d="M177.85,-1631.28C173.38,-1543.77 162.29,-1294.32 176.5,-1214 199.74,-1082.61 189.96,-1030.92 279.5,-932 286.4,-924.38 294.57,-917.7 303.32,-911.87"/>
<polygon fill="none" stroke="#404040" points="303.61,-911.7 306.62,-905.15 313.83,-905.41 310.81,-911.96 303.61,-911.7"/>
<text text-anchor="middle" x="197" y="-1223.9" font-family="Helvetica,sans-Serif" font-size="12.00"> +keys</text>
</g>
<!-- Node5&#45;&gt;Node2 -->
<g id="edge14" class="edge">
<title>Node5&#45;&gt;Node2</title>
<path fill="none" stroke="#404040" d="M323.8,-1258.4C308.39,-1166.91 291.21,-1049.95 283.5,-945 279.92,-896.23 293.28,-884.59 304.5,-837 307.4,-824.72 310.44,-812.03 313.54,-799.28"/>
<polygon fill="none" stroke="#404040" points="313.56,-799.22 311.1,-792.44 316.41,-787.56 318.87,-794.34 313.56,-799.22"/>
<text text-anchor="middle" x="324" y="-935.4" font-family="Helvetica,sans-Serif" font-size="12.00"> &#45;starterNode</text>
</g>
<!-- Node5&#45;&gt;Node3 -->
<g id="edge4" class="edge">
<title>Node5&#45;&gt;Node3</title>
<path fill="none" stroke="#404040" d="M255.36,-1258.24C244.43,-1242.92 233.05,-1227.93 221.5,-1214 195.2,-1182.3 161.89,-1150.44 134.25,-1125.81"/>
<polygon fill="none" stroke="#404040" points="134.1,-1125.68 126.96,-1124.71 125.11,-1117.74 132.25,-1118.71 134.1,-1125.68"/>
<text text-anchor="middle" x="273.5" y="-1223.9" font-family="Helvetica,sans-Serif" font-size="12.00"> +elements</text>
</g>
<!-- Node7 -->
<g id="node7" class="node">
<title>Node7</title>
<g id="a_node7"><a xlink:href="class_markov_1_1_edge.html" target="_top" xlink:title=" ">
<polygon fill="none" stroke="black" points="417,-963.5 417,-1195.5 638,-1195.5 638,-963.5 417,-963.5"/>
<text text-anchor="middle" x="527.5" y="-1181.9" font-family="Helvetica,sans-Serif" font-size="12.00">Markov::Edge&lt; char &gt;</text>
<polyline fill="none" stroke="black" points="417,-1174.5 638,-1174.5 "/>
<text text-anchor="middle" x="527.5" y="-1160.9" font-family="Helvetica,sans-Serif" font-size="12.00"> </text>
<polyline fill="none" stroke="black" points="417,-1153.5 638,-1153.5 "/>
<text text-anchor="start" x="425" y="-1139.9" font-family="Helvetica,sans-Serif" font-size="12.00">+ Edge()</text>
<text text-anchor="start" x="425" y="-1126.9" font-family="Helvetica,sans-Serif" font-size="12.00">+ Edge(Node&lt; char &gt;</text>
<text text-anchor="start" x="425" y="-1113.9" font-family="Helvetica,sans-Serif" font-size="12.00"> *_left, Node&lt; char</text>
<text text-anchor="start" x="425" y="-1100.9" font-family="Helvetica,sans-Serif" font-size="12.00"> &gt; *_right)</text>
<text text-anchor="start" x="425" y="-1087.9" font-family="Helvetica,sans-Serif" font-size="12.00">+ void AdjustEdge(long</text>
<text text-anchor="start" x="425" y="-1074.9" font-family="Helvetica,sans-Serif" font-size="12.00"> int offset)</text>
<text text-anchor="start" x="425" y="-1061.9" font-family="Helvetica,sans-Serif" font-size="12.00">+ Node&lt; char &gt; * TraverseNode()</text>
<text text-anchor="start" x="425" y="-1048.9" font-family="Helvetica,sans-Serif" font-size="12.00">+ void SetLeftEdge(Node</text>
<text text-anchor="start" x="425" y="-1035.9" font-family="Helvetica,sans-Serif" font-size="12.00">&lt; char &gt; *)</text>
<text text-anchor="start" x="425" y="-1022.9" font-family="Helvetica,sans-Serif" font-size="12.00">+ void SetRightEdge(Node</text>
<text text-anchor="start" x="425" y="-1009.9" font-family="Helvetica,sans-Serif" font-size="12.00">&lt; char &gt; *)</text>
<text text-anchor="start" x="425" y="-996.9" font-family="Helvetica,sans-Serif" font-size="12.00">+ uint64_t EdgeWeight()</text>
<text text-anchor="start" x="425" y="-983.9" font-family="Helvetica,sans-Serif" font-size="12.00">+ Node&lt; char &gt; * LeftNode()</text>
<text text-anchor="start" x="425" y="-970.9" font-family="Helvetica,sans-Serif" font-size="12.00">+ Node&lt; char &gt; * RightNode()</text>
</a>
</g>
</g>
<!-- Node5&#45;&gt;Node7 -->
<g id="edge10" class="edge">
<title>Node5&#45;&gt;Node7</title>
<path fill="none" stroke="#404040" d="M436.17,-1258.18C445.09,-1240.82 454.07,-1223.36 462.73,-1206.5"/>
<polygon fill="none" stroke="#404040" points="462.89,-1206.19 462.08,-1199.03 468.38,-1195.52 469.19,-1202.68 462.89,-1206.19"/>
<text text-anchor="middle" x="476" y="-1230.4" font-family="Helvetica,sans-Serif" font-size="12.00"> &#45;_left</text>
<text text-anchor="middle" x="476" y="-1217.4" font-family="Helvetica,sans-Serif" font-size="12.00">&#45;_right</text>
</g>
<!-- Node6&#45;&gt;Node5 -->
<g id="edge6" class="edge">
<title>Node6&#45;&gt;Node5</title>
<path fill="none" stroke="#404040" d="M379.4,-913.55C372.03,-932.31 364.36,-953.17 362.5,-963 345.01,-1055.42 341.81,-1160.25 343.41,-1246.07"/>
<polygon fill="none" stroke="#404040" points="343.42,-1246.33 347.54,-1252.24 343.67,-1258.32 339.55,-1252.41 343.42,-1246.33"/>
<text text-anchor="middle" x="385" y="-1076.4" font-family="Helvetica,sans-Serif" font-size="12.00"> &#45;edges</text>
</g>
<!-- Node7&#45;&gt;Node6 -->
<g id="edge8" class="edge">
<title>Node7&#45;&gt;Node6</title>
<path fill="none" stroke="#404040" d="M451.68,-963.34C442.56,-949.5 433.69,-936.02 425.75,-923.97"/>
<polygon fill="none" stroke="#404040" points="425.64,-923.79 419,-920.98 419.04,-913.77 425.68,-916.58 425.64,-923.79"/>
<text text-anchor="middle" x="473.5" y="-935.4" font-family="Helvetica,sans-Serif" font-size="12.00"> +elements</text>
</g>
<!-- Node9 -->
<g id="node9" class="node">
<title>Node9</title>
<g id="a_node9"><a xlink:title=" ">
<polygon fill="none" stroke="#bfbfbf" points="493.5,-837.5 493.5,-913.5 631.5,-913.5 631.5,-837.5 493.5,-837.5"/>
<text text-anchor="start" x="501.5" y="-899.9" font-family="Helvetica,sans-Serif" font-size="12.00">std::vector&lt; Markov</text>
<text text-anchor="middle" x="562.5" y="-886.9" font-family="Helvetica,sans-Serif" font-size="12.00">::Edge&lt; char &gt; * &gt;</text>
<polyline fill="none" stroke="#bfbfbf" points="493.5,-879.5 631.5,-879.5 "/>
<text text-anchor="middle" x="562.5" y="-865.9" font-family="Helvetica,sans-Serif" font-size="12.00"> </text>
<polyline fill="none" stroke="#bfbfbf" points="493.5,-858.5 631.5,-858.5 "/>
<text text-anchor="middle" x="562.5" y="-844.9" font-family="Helvetica,sans-Serif" font-size="12.00"> </text>
</a>
</g>
</g>
<!-- Node7&#45;&gt;Node9 -->
<g id="edge13" class="edge">
<title>Node7&#45;&gt;Node9</title>
<path fill="none" stroke="#404040" d="M547.45,-963.34C549.73,-950.2 551.95,-937.38 553.96,-925.8"/>
<polygon fill="none" stroke="#404040" points="553.99,-925.59 551.08,-919 556.04,-913.77 558.96,-920.37 553.99,-925.59"/>
<text text-anchor="middle" x="587.5" y="-935.4" font-family="Helvetica,sans-Serif" font-size="12.00"> +elements</text>
</g>
<!-- Node8 -->
<g id="node8" class="node">
<title>Node8</title>
<g id="a_node8"><a xlink:href="classlong_01int.html" target="_top" xlink:title=" ">
<polygon fill="none" stroke="black" points="565,-1631.5 565,-1694.5 626,-1694.5 626,-1631.5 565,-1631.5"/>
<text text-anchor="middle" x="595.5" y="-1680.9" font-family="Helvetica,sans-Serif" font-size="12.00">long int</text>
<polyline fill="none" stroke="black" points="565,-1673.5 626,-1673.5 "/>
<text text-anchor="middle" x="595.5" y="-1659.9" font-family="Helvetica,sans-Serif" font-size="12.00"> </text>
<polyline fill="none" stroke="black" points="565,-1652.5 626,-1652.5 "/>
<text text-anchor="middle" x="595.5" y="-1638.9" font-family="Helvetica,sans-Serif" font-size="12.00"> </text>
</a>
</g>
</g>
<!-- Node8&#45;&gt;Node5 -->
<g id="edge11" class="edge">
<title>Node8&#45;&gt;Node5</title>
<path fill="none" stroke="#404040" d="M564.85,-1631.48C541.22,-1607.95 506.92,-1573.79 472.8,-1539.81"/>
<polygon fill="none" stroke="#404040" points="472.64,-1539.65 465.56,-1538.25 464.14,-1531.18 471.21,-1532.58 472.64,-1539.65"/>
<text text-anchor="middle" x="605.5" y="-1603.4" font-family="Helvetica,sans-Serif" font-size="12.00"> &#45;total_edge_weights</text>
</g>
<!-- Node8&#45;&gt;Node7 -->
<g id="edge9" class="edge">
<title>Node8&#45;&gt;Node7</title>
<path fill="none" stroke="#404040" d="M626.29,-1650.73C642.88,-1642.89 661.88,-1630.64 671.5,-1613 674.27,-1607.93 672.28,-1605.73 671.5,-1600 652.87,-1463.01 607.79,-1311.15 573,-1207.19"/>
<polygon fill="none" stroke="#404040" points="572.96,-1207.07 567.25,-1202.67 569.13,-1195.7 574.83,-1200.11 572.96,-1207.07"/>
<text text-anchor="middle" x="696" y="-1416.9" font-family="Helvetica,sans-Serif" font-size="12.00"> &#45;_weight</text>
</g>
<!-- Node9&#45;&gt;Node2 -->
<g id="edge15" class="edge">
<title>Node9&#45;&gt;Node2</title>
<path fill="none" stroke="#404040" d="M530.61,-837.37C513.77,-817.77 491.97,-792.38 469.5,-766.22"/>
<polygon fill="none" stroke="#404040" points="469.35,-766.05 462.41,-764.11 461.53,-756.95 468.48,-758.89 469.35,-766.05"/>
<text text-anchor="middle" x="535" y="-809.4" font-family="Helvetica,sans-Serif" font-size="12.00"> &#45;edges</text>
</g>
<!-- Node9&#45;&gt;Node5 -->
<g id="edge12" class="edge">
<title>Node9&#45;&gt;Node5</title>
<path fill="none" stroke="#404040" d="M614.16,-913.9C628.14,-927.45 640.94,-944.12 646.5,-963 675.76,-1062.34 692.48,-1103.21 646.5,-1196 636.62,-1215.94 550.8,-1280.17 474.57,-1334.6"/>
<polygon fill="none" stroke="#404040" points="474.15,-1334.91 471.58,-1341.65 464.37,-1341.87 466.94,-1335.13 474.15,-1334.91"/>
<text text-anchor="middle" x="704.5" y="-1076.4" font-family="Helvetica,sans-Serif" font-size="12.00"> +edgesV</text>
</g>
<!-- Node10 -->
<g id="node10" class="node">
<title>Node10</title>
<g id="a_node10"><a xlink:title=" ">
<polygon fill="none" stroke="#bfbfbf" points="761.5,-601 761.5,-664 853.5,-664 853.5,-601 761.5,-601"/>
<text text-anchor="middle" x="807.5" y="-650.4" font-family="Helvetica,sans-Serif" font-size="12.00">std::ifstream</text>
<polyline fill="none" stroke="#bfbfbf" points="761.5,-643 853.5,-643 "/>
<text text-anchor="middle" x="807.5" y="-629.4" font-family="Helvetica,sans-Serif" font-size="12.00"> </text>
<polyline fill="none" stroke="#bfbfbf" points="761.5,-622 853.5,-622 "/>
<text text-anchor="middle" x="807.5" y="-608.4" font-family="Helvetica,sans-Serif" font-size="12.00"> </text>
</a>
</g>
</g>
<!-- Node10&#45;&gt;Node1 -->
<g id="edge16" class="edge">
<title>Node10&#45;&gt;Node1</title>
<path fill="none" stroke="#404040" d="M807.5,-600.74C807.5,-562.99 807.5,-495.51 807.5,-427.06"/>
<polygon fill="none" stroke="#404040" points="807.5,-426.72 803.5,-420.72 807.5,-414.72 811.5,-420.72 807.5,-426.72"/>
<text text-anchor="middle" x="844.5" y="-442.9" font-family="Helvetica,sans-Serif" font-size="12.00"> &#45;datasetFile</text>
</g>
<!-- Node11 -->
<g id="node11" class="node">
<title>Node11</title>
<g id="a_node11"><a xlink:title=" ">
<polygon fill="none" stroke="#bfbfbf" points="743.5,-837.5 743.5,-913.5 871.5,-913.5 871.5,-837.5 743.5,-837.5"/>
<text text-anchor="start" x="751.5" y="-899.9" font-family="Helvetica,sans-Serif" font-size="12.00">std::basic_ifstream</text>
<text text-anchor="middle" x="807.5" y="-886.9" font-family="Helvetica,sans-Serif" font-size="12.00">&lt; Char &gt;</text>
<polyline fill="none" stroke="#bfbfbf" points="743.5,-879.5 871.5,-879.5 "/>
<text text-anchor="middle" x="807.5" y="-865.9" font-family="Helvetica,sans-Serif" font-size="12.00"> </text>
<polyline fill="none" stroke="#bfbfbf" points="743.5,-858.5 871.5,-858.5 "/>
<text text-anchor="middle" x="807.5" y="-844.9" font-family="Helvetica,sans-Serif" font-size="12.00"> </text>
</a>
</g>
</g>
<!-- Node11&#45;&gt;Node10 -->
<g id="edge17" class="edge">
<title>Node11&#45;&gt;Node10</title>
<path fill="none" stroke="midnightblue" d="M807.5,-827.17C807.5,-778.87 807.5,-705.34 807.5,-664.17"/>
<polygon fill="none" stroke="midnightblue" points="804,-827.37 807.5,-837.37 811,-827.37 804,-827.37"/>
</g>
<!-- Node12 -->
<g id="node12" class="node">
<title>Node12</title>
<g id="a_node12"><a xlink:title=" ">
<polygon fill="none" stroke="#bfbfbf" points="750.5,-1041.5 750.5,-1117.5 874.5,-1117.5 874.5,-1041.5 750.5,-1041.5"/>
<text text-anchor="start" x="758.5" y="-1103.9" font-family="Helvetica,sans-Serif" font-size="12.00">std::basic_istream</text>
<text text-anchor="middle" x="812.5" y="-1090.9" font-family="Helvetica,sans-Serif" font-size="12.00">&lt; Char &gt;</text>
<polyline fill="none" stroke="#bfbfbf" points="750.5,-1083.5 874.5,-1083.5 "/>
<text text-anchor="middle" x="812.5" y="-1069.9" font-family="Helvetica,sans-Serif" font-size="12.00"> </text>
<polyline fill="none" stroke="#bfbfbf" points="750.5,-1062.5 874.5,-1062.5 "/>
<text text-anchor="middle" x="812.5" y="-1048.9" font-family="Helvetica,sans-Serif" font-size="12.00"> </text>
</a>
</g>
</g>
<!-- Node12&#45;&gt;Node11 -->
<g id="edge18" class="edge">
<title>Node12&#45;&gt;Node11</title>
<path fill="none" stroke="midnightblue" d="M811.33,-1031.23C810.44,-995.37 809.24,-946.76 808.42,-913.66"/>
<polygon fill="none" stroke="midnightblue" points="807.84,-1031.54 811.58,-1041.45 814.83,-1031.37 807.84,-1031.54"/>
</g>
<!-- Node13 -->
<g id="node13" class="node">
<title>Node13</title>
<g id="a_node13"><a xlink:title=" ">
<polygon fill="none" stroke="#bfbfbf" points="827,-1388.5 827,-1451.5 978,-1451.5 978,-1388.5 827,-1388.5"/>
<text text-anchor="middle" x="902.5" y="-1437.9" font-family="Helvetica,sans-Serif" font-size="12.00">std::basic_ios&lt; Char &gt;</text>
<polyline fill="none" stroke="#bfbfbf" points="827,-1430.5 978,-1430.5 "/>
<text text-anchor="middle" x="902.5" y="-1416.9" font-family="Helvetica,sans-Serif" font-size="12.00"> </text>
<polyline fill="none" stroke="#bfbfbf" points="827,-1409.5 978,-1409.5 "/>
<text text-anchor="middle" x="902.5" y="-1395.9" font-family="Helvetica,sans-Serif" font-size="12.00"> </text>
</a>
</g>
</g>
<!-- Node13&#45;&gt;Node12 -->
<g id="edge19" class="edge">
<title>Node13&#45;&gt;Node12</title>
<path fill="none" stroke="midnightblue" d="M891.78,-1378.7C874.19,-1312.51 839.42,-1181.76 822.38,-1117.68"/>
<polygon fill="none" stroke="midnightblue" points="888.4,-1379.6 894.35,-1388.36 895.17,-1377.8 888.4,-1379.6"/>
</g>
<!-- Node17 -->
<g id="node17" class="node">
<title>Node17</title>
<g id="a_node17"><a xlink:title=" ">
<polygon fill="none" stroke="#bfbfbf" points="892.5,-1041.5 892.5,-1117.5 1020.5,-1117.5 1020.5,-1041.5 892.5,-1041.5"/>
<text text-anchor="start" x="900.5" y="-1103.9" font-family="Helvetica,sans-Serif" font-size="12.00">std::basic_ostream</text>
<text text-anchor="middle" x="956.5" y="-1090.9" font-family="Helvetica,sans-Serif" font-size="12.00">&lt; Char &gt;</text>
<polyline fill="none" stroke="#bfbfbf" points="892.5,-1083.5 1020.5,-1083.5 "/>
<text text-anchor="middle" x="956.5" y="-1069.9" font-family="Helvetica,sans-Serif" font-size="12.00"> </text>
<polyline fill="none" stroke="#bfbfbf" points="892.5,-1062.5 1020.5,-1062.5 "/>
<text text-anchor="middle" x="956.5" y="-1048.9" font-family="Helvetica,sans-Serif" font-size="12.00"> </text>
</a>
</g>
</g>
<!-- Node13&#45;&gt;Node17 -->
<g id="edge24" class="edge">
<title>Node13&#45;&gt;Node17</title>
<path fill="none" stroke="midnightblue" d="M908.99,-1378.29C919.57,-1311.98 940.37,-1181.63 950.57,-1117.68"/>
<polygon fill="none" stroke="midnightblue" points="905.51,-1377.94 907.39,-1388.36 912.42,-1379.04 905.51,-1377.94"/>
</g>
<!-- Node14 -->
<g id="node14" class="node">
<title>Node14</title>
<g id="a_node14"><a xlink:title=" ">
<polygon fill="none" stroke="#bfbfbf" points="856,-1631.5 856,-1694.5 949,-1694.5 949,-1631.5 856,-1631.5"/>
<text text-anchor="middle" x="902.5" y="-1680.9" font-family="Helvetica,sans-Serif" font-size="12.00">std::ios_base</text>
<polyline fill="none" stroke="#bfbfbf" points="856,-1673.5 949,-1673.5 "/>
<text text-anchor="middle" x="902.5" y="-1659.9" font-family="Helvetica,sans-Serif" font-size="12.00"> </text>
<polyline fill="none" stroke="#bfbfbf" points="856,-1652.5 949,-1652.5 "/>
<text text-anchor="middle" x="902.5" y="-1638.9" font-family="Helvetica,sans-Serif" font-size="12.00"> </text>
</a>
</g>
</g>
<!-- Node14&#45;&gt;Node13 -->
<g id="edge20" class="edge">
<title>Node14&#45;&gt;Node13</title>
<path fill="none" stroke="midnightblue" d="M902.5,-1621.45C902.5,-1573.5 902.5,-1494.8 902.5,-1451.65"/>
<polygon fill="none" stroke="midnightblue" points="899,-1621.48 902.5,-1631.48 906,-1621.48 899,-1621.48"/>
</g>
<!-- Node15 -->
<g id="node15" class="node">
<title>Node15</title>
<g id="a_node15"><a xlink:title=" ">
<polygon fill="none" stroke="#bfbfbf" points="889.5,-601 889.5,-664 985.5,-664 985.5,-601 889.5,-601"/>
<text text-anchor="middle" x="937.5" y="-650.4" font-family="Helvetica,sans-Serif" font-size="12.00">std::ofstream</text>
<polyline fill="none" stroke="#bfbfbf" points="889.5,-643 985.5,-643 "/>
<text text-anchor="middle" x="937.5" y="-629.4" font-family="Helvetica,sans-Serif" font-size="12.00"> </text>
<polyline fill="none" stroke="#bfbfbf" points="889.5,-622 985.5,-622 "/>
<text text-anchor="middle" x="937.5" y="-608.4" font-family="Helvetica,sans-Serif" font-size="12.00"> </text>
</a>
</g>
</g>
<!-- Node15&#45;&gt;Node1 -->
<g id="edge21" class="edge">
<title>Node15&#45;&gt;Node1</title>
<path fill="none" stroke="#404040" d="M930.22,-600.69C920.78,-561.48 903.38,-491.79 885.5,-433 884.81,-430.74 884.12,-428.47 883.42,-426.2"/>
<polygon fill="none" stroke="#404040" points="883.41,-426.19 877.81,-421.65 879.84,-414.73 885.45,-419.27 883.41,-426.19"/>
<text text-anchor="middle" x="939.5" y="-449.4" font-family="Helvetica,sans-Serif" font-size="12.00"> &#45;modelSavefile</text>
<text text-anchor="middle" x="939.5" y="-436.4" font-family="Helvetica,sans-Serif" font-size="12.00">&#45;outputFile</text>
</g>
<!-- Node16 -->
<g id="node16" class="node">
<title>Node16</title>
<g id="a_node16"><a xlink:title=" ">
<polygon fill="none" stroke="#bfbfbf" points="890,-837.5 890,-913.5 1023,-913.5 1023,-837.5 890,-837.5"/>
<text text-anchor="start" x="898" y="-899.9" font-family="Helvetica,sans-Serif" font-size="12.00">std::basic_ofstream</text>
<text text-anchor="middle" x="956.5" y="-886.9" font-family="Helvetica,sans-Serif" font-size="12.00">&lt; Char &gt;</text>
<polyline fill="none" stroke="#bfbfbf" points="890,-879.5 1023,-879.5 "/>
<text text-anchor="middle" x="956.5" y="-865.9" font-family="Helvetica,sans-Serif" font-size="12.00"> </text>
<polyline fill="none" stroke="#bfbfbf" points="890,-858.5 1023,-858.5 "/>
<text text-anchor="middle" x="956.5" y="-844.9" font-family="Helvetica,sans-Serif" font-size="12.00"> </text>
</a>
</g>
</g>
<!-- Node16&#45;&gt;Node15 -->
<g id="edge22" class="edge">
<title>Node16&#45;&gt;Node15</title>
<path fill="none" stroke="midnightblue" d="M952.77,-827.17C948.96,-778.87 943.16,-705.34 939.92,-664.17"/>
<polygon fill="none" stroke="midnightblue" points="949.3,-827.68 953.57,-837.37 956.28,-827.13 949.3,-827.68"/>
</g>
<!-- Node17&#45;&gt;Node16 -->
<g id="edge23" class="edge">
<title>Node17&#45;&gt;Node16</title>
<path fill="none" stroke="midnightblue" d="M956.5,-1031.23C956.5,-995.37 956.5,-946.76 956.5,-913.66"/>
<polygon fill="none" stroke="midnightblue" points="953,-1031.45 956.5,-1041.45 960,-1031.45 953,-1031.45"/>
</g>
</g>
</svg>
