<?xml version="1.0" encoding="UTF-8" standalone="no"?>
<!DOCTYPE svg PUBLIC "-//W3C//DTD SVG 1.1//EN"
 "http://www.w3.org/Graphics/SVG/1.1/DTD/svg11.dtd">
<!-- Generated by graphviz version 2.43.0 (0)
 -->
<!-- Title: base.BaseCLI.init_post_arguments Pages: 1 -->
<svg width="374pt" height="70pt"
 viewBox="0.00 0.00 374.00 70.00" xmlns="http://www.w3.org/2000/svg" xmlns:xlink="http://www.w3.org/1999/xlink">
<g id="graph0" class="graph" transform="scale(1 1) rotate(0) translate(4 66)">
<title>base.BaseCLI.init_post_arguments</title>
<!-- Node1 -->
<g id="node1" class="node">
<title>Node1</title>
<g id="a_node1"><a xlink:title=" ">
<polygon fill="#bfbfbf" stroke="black" points="216,-14 216,-48 366,-48 366,-14 216,-14"/>
<text text-anchor="start" x="224" y="-34.4" font-family="Helvetica,sans-Serif" font-size="12.00">base.BaseCLI.init_post</text>
<text text-anchor="middle" x="291" y="-21.4" font-family="Helvetica,sans-Serif" font-size="12.00">_arguments</text>
</a>
</g>
</g>
<!-- Node2 -->
<g id="node2" class="node">
<title>Node2</title>
<g id="a_node2"><a xlink:href="classbase_1_1_base_c_l_i.html#a5f12b66168de1b9393ab69b663ab32a1" target="_top" xlink:title=" ">
<polygon fill="none" stroke="black" points="23,-40.5 23,-61.5 157,-61.5 157,-40.5 23,-40.5"/>
<text text-anchor="middle" x="90" y="-47.9" font-family="Helvetica,sans-Serif" font-size="12.00">base.BaseCLI.parse</text>
</a>
</g>
</g>
<!-- Node1&#45;&gt;Node2 -->
<g id="edge1" class="edge">
<title>Node1&#45;&gt;Node2</title>
<path fill="none" stroke="midnightblue" d="M205.88,-39.45C189.65,-41.09 172.86,-42.77 157.29,-44.34"/>
<polygon fill="midnightblue" stroke="midnightblue" points="206.3,-42.93 215.9,-38.45 205.6,-35.96 206.3,-42.93"/>
</g>
<!-- Node3 -->
<g id="node3" class="node">
<title>Node3</title>
<g id="a_node3"><a xlink:href="classmarkopy_1_1_markopy_c_l_i.html#a7a8c5f443dfed60a0c6fe8b41ea1d345" target="_top" xlink:title=" ">
<polygon fill="none" stroke="black" points="0,-0.5 0,-21.5 180,-21.5 180,-0.5 0,-0.5"/>
<text text-anchor="middle" x="90" y="-7.9" font-family="Helvetica,sans-Serif" font-size="12.00">markopy.MarkopyCLI.parse</text>
</a>
</g>
</g>
<!-- Node1&#45;&gt;Node3 -->
<g id="edge2" class="edge">
<title>Node1&#45;&gt;Node3</title>
<path fill="none" stroke="midnightblue" d="M205.73,-22.53C197.32,-21.69 188.76,-20.83 180.3,-19.97"/>
<polygon fill="midnightblue" stroke="midnightblue" points="205.6,-26.04 215.9,-23.55 206.3,-19.07 205.6,-26.04"/>
</g>
</g>
</svg>
