<?xml version="1.0" encoding="UTF-8" standalone="no"?>
<!DOCTYPE svg PUBLIC "-//W3C//DTD SVG 1.1//EN"
 "http://www.w3.org/Graphics/SVG/1.1/DTD/svg11.dtd">
<!-- Generated by graphviz version 2.43.0 (0)
 -->
<!-- Title: Markov::API::ModelMatrix::Import Pages: 1 -->
<!--zoomable 230 -->
<svg id="main" version="1.1" xmlns="http://www.w3.org/2000/svg" xmlns:xlink="http://www.w3.org/1999/xlink" xml:space="preserve" onload="init(evt)">
<style type="text/css"><![CDATA[
.edge:hover path { stroke: red; }
.edge:hover polygon { stroke: red; fill: red; }
]]></style>
<script type="text/javascript"><![CDATA[
var edges = document.getElementsByTagName('g');
if (edges && edges.length) {
  for (var i=0;i<edges.length;i++) {
    if (edges[i].id.substr(0,4)=='edge') {
      edges[i].setAttribute('class','edge');
    }
  }
}
]]></script>
        <defs>
                <circle id="rim" cx="0" cy="0" r="7"/>
                <circle id="rim2" cx="0" cy="0" r="3.5"/>
                <g id="zoomPlus">
                        <use xlink:href="#rim" fill="#404040">
                                <set attributeName="fill" to="#808080" begin="zoomplus.mouseover" end="zoomplus.mouseout"/>
                        </use>
                        <path d="M-4,0h8M0,-4v8" fill="none" stroke="white" stroke-width="1.5" pointer-events="none"/>
                </g>
                <g id="zoomMin">
                        <use xlink:href="#rim" fill="#404040">
                                <set attributeName="fill" to="#808080" begin="zoomminus.mouseover" end="zoomminus.mouseout"/>
                        </use>
                        <path d="M-4,0h8" fill="none" stroke="white" stroke-width="1.5" pointer-events="none"/>
                </g>
                <g id="dirArrow">
                        <path fill="none" stroke="white" stroke-width="1.5" d="M0,-3.0v7 M-2.5,-0.5L0,-3.0L2.5,-0.5"/>
                </g>
               <g id="resetDef">
                       <use xlink:href="#rim2" fill="#404040">
                               <set attributeName="fill" to="#808080" begin="reset.mouseover" end="reset.mouseout"/>
                       </use>
               </g>
        </defs>

<script type="text/javascript">
var viewWidth = 629;
var viewHeight = 230;
var sectionId = 'dynsection-20';
</script>
<script xlink:href="svgpan.js"/>
<svg id="graph" class="graph">
<g id="viewport">
<title>Markov::API::ModelMatrix::Import</title>
<!-- Node1 -->
<g id="node1" class="node">
<title>Node1</title>
<g id="a_node1"><a xlink:title="Open a file to import with filename, and call bool Model::Import with std::ifstream.">
<polygon fill="#bfbfbf" stroke="black" points="0,-41 0,-75 169,-75 169,-41 0,-41"/>
<text text-anchor="start" x="8" y="-61.4" font-family="Helvetica,sans-Serif" font-size="12.00">Markov::API::ModelMatrix</text>
<text text-anchor="middle" x="84.5" y="-48.4" font-family="Helvetica,sans-Serif" font-size="12.00">::Import</text>
</a>
</g>
</g>
<!-- Node2 -->
<g id="node2" class="node">
<title>Node2</title>
<g id="a_node2"><a xlink:href="class_markov_1_1_a_p_i_1_1_model_matrix.html#aafb5809808b9b0450a0bc98740121b5f" target="_top" xlink:title="Construct the related Matrix data for the model.">
<polygon fill="none" stroke="black" points="205,-94 205,-128 374,-128 374,-94 205,-94"/>
<text text-anchor="start" x="213" y="-114.4" font-family="Helvetica,sans-Serif" font-size="12.00">Markov::API::ModelMatrix</text>
<text text-anchor="middle" x="289.5" y="-101.4" font-family="Helvetica,sans-Serif" font-size="12.00">::ConstructMatrix</text>
</a>
</g>
</g>
<!-- Node1&#45;&gt;Node2 -->
<g id="edge1" class="edge">
<title>Node1&#45;&gt;Node2</title>
<path fill="none" stroke="midnightblue" d="M150.85,-75.06C170.77,-80.26 192.83,-86.02 213.34,-91.38"/>
<polygon fill="midnightblue" stroke="midnightblue" points="212.71,-94.83 223.27,-93.97 214.48,-88.06 212.71,-94.83"/>
</g>
<!-- Node9 -->
<g id="node9" class="node">
<title>Node9</title>
<g id="a_node9"><a xlink:href="class_markov_1_1_a_p_i_1_1_model_matrix.html#a0f95257e1344225233ab49602cd9551c" target="_top" xlink:title="Deallocate matrix and make it ready for re&#45;construction.">
<polygon fill="none" stroke="black" points="205,-41 205,-75 374,-75 374,-41 205,-41"/>
<text text-anchor="start" x="213" y="-61.4" font-family="Helvetica,sans-Serif" font-size="12.00">Markov::API::ModelMatrix</text>
<text text-anchor="middle" x="289.5" y="-48.4" font-family="Helvetica,sans-Serif" font-size="12.00">::DeallocateMatrix</text>
</a>
</g>
</g>
<!-- Node1&#45;&gt;Node9 -->
<g id="edge8" class="edge">
<title>Node1&#45;&gt;Node9</title>
<path fill="none" stroke="midnightblue" d="M169.24,-58C177.72,-58 186.37,-58 194.94,-58"/>
<polygon fill="midnightblue" stroke="midnightblue" points="194.95,-61.5 204.95,-58 194.95,-54.5 194.95,-61.5"/>
</g>
<!-- Node10 -->
<g id="node10" class="node">
<title>Node10</title>
<g id="a_node10"><a xlink:href="class_markov_1_1_model.html#a3f872a3af96a91d4627c1a5d5e66b19a" target="_top" xlink:title="Open a file to import with filename, and call bool Model::Import with std::ifstream.">
<polygon fill="none" stroke="black" points="213.5,-0.5 213.5,-21.5 365.5,-21.5 365.5,-0.5 213.5,-0.5"/>
<text text-anchor="middle" x="289.5" y="-7.9" font-family="Helvetica,sans-Serif" font-size="12.00">Markov::Model::Import</text>
</a>
</g>
</g>
<!-- Node1&#45;&gt;Node10 -->
<g id="edge9" class="edge">
<title>Node1&#45;&gt;Node10</title>
<path fill="none" stroke="midnightblue" d="M159.07,-40.97C183.49,-35.31 210.24,-29.12 233.05,-23.84"/>
<polygon fill="midnightblue" stroke="midnightblue" points="233.95,-27.22 242.9,-21.56 232.37,-20.4 233.95,-27.22"/>
</g>
<!-- Node3 -->
<g id="node3" class="node">
<title>Node3</title>
<g id="a_node3"><a xlink:href="class_markov_1_1_edge.html#a2b1e5a6e6f81502cd8ac6b20ed38b677" target="_top" xlink:title="return edge&#39;s EdgeWeight.">
<polygon fill="none" stroke="black" points="427.5,-200.5 427.5,-221.5 603.5,-221.5 603.5,-200.5 427.5,-200.5"/>
<text text-anchor="middle" x="515.5" y="-207.9" font-family="Helvetica,sans-Serif" font-size="12.00">Markov::Edge::EdgeWeight</text>
</a>
</g>
</g>
<!-- Node2&#45;&gt;Node3 -->
<g id="edge2" class="edge">
<title>Node2&#45;&gt;Node3</title>
<path fill="none" stroke="midnightblue" d="M310.62,-128.21C333.26,-146.64 371.89,-175.36 410,-191 416.26,-193.57 422.86,-195.81 429.59,-197.77"/>
<polygon fill="midnightblue" stroke="midnightblue" points="428.94,-201.22 439.5,-200.44 430.76,-194.46 428.94,-201.22"/>
</g>
<!-- Node4 -->
<g id="node4" class="node">
<title>Node4</title>
<g id="a_node4"><a xlink:href="class_markov_1_1_model.html#a71f6df805e340ce96e9dc4ee4ebc6537" target="_top" xlink:title="Return starter Node.">
<polygon fill="none" stroke="black" points="441,-160.5 441,-181.5 590,-181.5 590,-160.5 441,-160.5"/>
<text text-anchor="middle" x="515.5" y="-167.9" font-family="Helvetica,sans-Serif" font-size="12.00">Markov::Model::Nodes</text>
</a>
</g>
</g>
<!-- Node2&#45;&gt;Node4 -->
<g id="edge3" class="edge">
<title>Node2&#45;&gt;Node4</title>
<path fill="none" stroke="midnightblue" d="M336.6,-128.04C358.61,-135.76 385.45,-144.57 410,-151 420.33,-153.7 431.32,-156.21 442.15,-158.46"/>
<polygon fill="midnightblue" stroke="midnightblue" points="441.53,-161.91 452.03,-160.46 442.92,-155.05 441.53,-161.91"/>
</g>
<!-- Node5 -->
<g id="node5" class="node">
<title>Node5</title>
<g id="a_node5"><a xlink:href="class_markov_1_1_node.html#ac7cce56376f2a00764f64a0194cbb498" target="_top" xlink:title="Return character representation of this node.">
<polygon fill="none" stroke="black" points="430,-120.5 430,-141.5 601,-141.5 601,-120.5 430,-120.5"/>
<text text-anchor="middle" x="515.5" y="-127.9" font-family="Helvetica,sans-Serif" font-size="12.00">Markov::Node::NodeValue</text>
</a>
</g>
</g>
<!-- Node2&#45;&gt;Node5 -->
<g id="edge4" class="edge">
<title>Node2&#45;&gt;Node5</title>
<path fill="none" stroke="midnightblue" d="M374.23,-118.48C388.97,-119.79 404.41,-121.17 419.43,-122.51"/>
<polygon fill="midnightblue" stroke="midnightblue" points="419.48,-126.03 429.75,-123.43 420.11,-119.06 419.48,-126.03"/>
</g>
<!-- Node6 -->
<g id="node6" class="node">
<title>Node6</title>
<g id="a_node6"><a xlink:href="class_markov_1_1_edge.html#a2e7d14e46631c85c84f6f8f1dd2949cd" target="_top" xlink:title="return edge&#39;s RightNode">
<polygon fill="none" stroke="black" points="431.5,-80.5 431.5,-101.5 599.5,-101.5 599.5,-80.5 431.5,-80.5"/>
<text text-anchor="middle" x="515.5" y="-87.9" font-family="Helvetica,sans-Serif" font-size="12.00">Markov::Edge::RightNode</text>
</a>
</g>
</g>
<!-- Node2&#45;&gt;Node6 -->
<g id="edge5" class="edge">
<title>Node2&#45;&gt;Node6</title>
<path fill="none" stroke="midnightblue" d="M374.23,-103.52C389.52,-102.16 405.56,-100.73 421.11,-99.34"/>
<polygon fill="midnightblue" stroke="midnightblue" points="421.6,-102.81 431.25,-98.43 420.97,-95.84 421.6,-102.81"/>
</g>
<!-- Node7 -->
<g id="node7" class="node">
<title>Node7</title>
<g id="a_node7"><a xlink:href="class_markov_1_1_model.html#a0e53104e4ec665f005529f51a80c857d" target="_top" xlink:title="Return starter Node.">
<polygon fill="none" stroke="black" points="423,-40.5 423,-61.5 608,-61.5 608,-40.5 423,-40.5"/>
<text text-anchor="middle" x="515.5" y="-47.9" font-family="Helvetica,sans-Serif" font-size="12.00">Markov::Model::StarterNode</text>
</a>
</g>
</g>
<!-- Node2&#45;&gt;Node7 -->
<g id="edge6" class="edge">
<title>Node2&#45;&gt;Node7</title>
<path fill="none" stroke="midnightblue" d="M347.27,-93.9C356.25,-91.03 365.4,-88.01 374,-85 390.21,-79.33 393.5,-75.74 410,-71 419.52,-68.26 429.64,-65.79 439.68,-63.6"/>
<polygon fill="midnightblue" stroke="midnightblue" points="440.61,-66.98 449.68,-61.5 439.17,-60.13 440.61,-66.98"/>
</g>
<!-- Node8 -->
<g id="node8" class="node">
<title>Node8</title>
<g id="a_node8"><a xlink:href="class_markov_1_1_node.html#a60166d8f501c016de104f48e46bff223" target="_top" xlink:title="return total edge weights">
<polygon fill="none" stroke="black" points="410,-0.5 410,-21.5 621,-21.5 621,-0.5 410,-0.5"/>
<text text-anchor="middle" x="515.5" y="-7.9" font-family="Helvetica,sans-Serif" font-size="12.00">Markov::Node::TotalEdgeWeights</text>
</a>
</g>
</g>
<!-- Node2&#45;&gt;Node8 -->
<g id="edge7" class="edge">
<title>Node2&#45;&gt;Node8</title>
<path fill="none" stroke="midnightblue" d="M359.4,-93.86C364.56,-91.3 369.5,-88.37 374,-85 397.1,-67.72 385.97,-46.95 410,-31 412.94,-29.05 416.02,-27.28 419.2,-25.68"/>
<polygon fill="midnightblue" stroke="midnightblue" points="420.71,-28.84 428.42,-21.57 417.86,-22.44 420.71,-28.84"/>
</g>
</g>
</svg>
        <g id="navigator" transform="translate(0 0)" fill="#404254">
                <rect fill="#f2f5e9" fill-opacity="0.5" stroke="#606060" stroke-width=".5" x="0" y="0" width="60" height="60"/>
                <use id="zoomplus" xlink:href="#zoomPlus" x="17" y="9" onmousedown="handleZoom(evt,'in')"/>
                <use id="zoomminus" xlink:href="#zoomMin" x="42" y="9" onmousedown="handleZoom(evt,'out')"/>
                <use id="reset" xlink:href="#resetDef" x="30" y="36" onmousedown="handleReset()"/>
                <g id="arrowUp" xlink:href="#dirArrow" transform="translate(30 24)" onmousedown="handlePan(0,-1)">
                  <use xlink:href="#rim" fill="#404040">
                        <set attributeName="fill" to="#808080" begin="arrowUp.mouseover" end="arrowUp.mouseout"/>
                  </use>
                  <path fill="none" stroke="white" stroke-width="1.5" d="M0,-3.0v7 M-2.5,-0.5L0,-3.0L2.5,-0.5"/>
                </g>
                <g id="arrowRight" xlink:href="#dirArrow" transform="rotate(90) translate(36 -43)" onmousedown="handlePan(1,0)">
                  <use xlink:href="#rim" fill="#404040">
                        <set attributeName="fill" to="#808080" begin="arrowRight.mouseover" end="arrowRight.mouseout"/>
                  </use>
                  <path fill="none" stroke="white" stroke-width="1.5" d="M0,-3.0v7 M-2.5,-0.5L0,-3.0L2.5,-0.5"/>
                </g>
                <g id="arrowDown" xlink:href="#dirArrow" transform="rotate(180) translate(-30 -48)" onmousedown="handlePan(0,1)">
                  <use xlink:href="#rim" fill="#404040">
                        <set attributeName="fill" to="#808080" begin="arrowDown.mouseover" end="arrowDown.mouseout"/>
                  </use>
                  <path fill="none" stroke="white" stroke-width="1.5" d="M0,-3.0v7 M-2.5,-0.5L0,-3.0L2.5,-0.5"/>
                </g>
                <g id="arrowLeft" xlink:href="#dirArrow" transform="rotate(270) translate(-36 17)" onmousedown="handlePan(-1,0)">
                  <use xlink:href="#rim" fill="#404040">
                        <set attributeName="fill" to="#808080" begin="arrowLeft.mouseover" end="arrowLeft.mouseout"/>
                  </use>
                  <path fill="none" stroke="white" stroke-width="1.5" d="M0,-3.0v7 M-2.5,-0.5L0,-3.0L2.5,-0.5"/>
                </g>
        </g>
        <svg viewBox="0 0 15 15" width="100%" height="30px" preserveAspectRatio="xMaxYMin meet">
         <g id="arrow_out" transform="scale(0.3 0.3)">
          <a xlink:href="class_markov_1_1_a_p_i_1_1_model_matrix_aeba8bb79aa4dc2cfeda310f34b7c9427_cgraph_org.svg" target="_base">
           <rect id="button" ry="5" rx="5" y="6" x="6" height="38" width="38"
                fill="#f2f5e9" fill-opacity="0.5" stroke="#606060" stroke-width="1.0"/>
           <path id="arrow"
             d="M 11.500037,31.436501 C 11.940474,20.09759 22.043105,11.32322 32.158766,21.979434 L 37.068811,17.246167 C 37.068811,17.246167 37.088388,32 37.088388,32 L 22.160133,31.978069 C 22.160133,31.978069 26.997745,27.140456 26.997745,27.140456 C 18.528582,18.264221 13.291696,25.230495 11.500037,31.436501 z"
             style="fill:#404040;"/>
          </a>
         </g>
        </svg>
</svg>
