<?xml version="1.0" encoding="UTF-8" standalone="no"?>
<!DOCTYPE svg PUBLIC "-//W3C//DTD SVG 1.1//EN"
 "http://www.w3.org/Graphics/SVG/1.1/DTD/svg11.dtd">
<!-- Generated by graphviz version 2.43.0 (0)
 -->
<!-- Title: Markov::API::MarkovPasswords::Generate Pages: 1 -->
<svg width="670pt" height="43pt"
 viewBox="0.00 0.00 670.00 43.00" xmlns="http://www.w3.org/2000/svg" xmlns:xlink="http://www.w3.org/1999/xlink">
<g id="graph0" class="graph" transform="scale(1 1) rotate(0) translate(4 39)">
<title>Markov::API::MarkovPasswords::Generate</title>
<!-- Node1 -->
<g id="node1" class="node">
<title>Node1</title>
<g id="a_node1"><a xlink:title="Call Markov::Model::RandomWalk n times, and collect output.">
<polygon fill="#bfbfbf" stroke="black" points="0,-0.5 0,-34.5 200,-34.5 200,-0.5 0,-0.5"/>
<text text-anchor="start" x="8" y="-20.9" font-family="Helvetica,sans-Serif" font-size="12.00">Markov::API::MarkovPasswords</text>
<text text-anchor="middle" x="100" y="-7.9" font-family="Helvetica,sans-Serif" font-size="12.00">::Generate</text>
</a>
</g>
</g>
<!-- Node2 -->
<g id="node2" class="node">
<title>Node2</title>
<g id="a_node2"><a xlink:href="class_markov_1_1_a_p_i_1_1_markov_passwords.html#ac2703ec2d5c97adaf8d205000ca34756" target="_top" xlink:title="A single thread invoked by the Generate function.">
<polygon fill="none" stroke="black" points="236,-0.5 236,-34.5 436,-34.5 436,-0.5 236,-0.5"/>
<text text-anchor="start" x="244" y="-20.9" font-family="Helvetica,sans-Serif" font-size="12.00">Markov::API::MarkovPasswords</text>
<text text-anchor="middle" x="336" y="-7.9" font-family="Helvetica,sans-Serif" font-size="12.00">::GenerateThread</text>
</a>
</g>
</g>
<!-- Node1&#45;&gt;Node2 -->
<g id="edge1" class="edge">
<title>Node1&#45;&gt;Node2</title>
<path fill="none" stroke="midnightblue" d="M200.24,-17.5C208.74,-17.5 217.38,-17.5 225.95,-17.5"/>
<polygon fill="midnightblue" stroke="midnightblue" points="225.98,-21 235.98,-17.5 225.98,-14 225.98,-21"/>
</g>
<!-- Node3 -->
<g id="node3" class="node">
<title>Node3</title>
<g id="a_node3"><a xlink:href="class_markov_1_1_model.html#aa4a11c6679c998936332f8409ae95375" target="_top" xlink:title="Do a random walk on this model.">
<polygon fill="none" stroke="black" points="472,-7 472,-28 662,-28 662,-7 472,-7"/>
<text text-anchor="middle" x="567" y="-14.4" font-family="Helvetica,sans-Serif" font-size="12.00">Markov::Model::RandomWalk</text>
</a>
</g>
</g>
<!-- Node2&#45;&gt;Node3 -->
<g id="edge2" class="edge">
<title>Node2&#45;&gt;Node3</title>
<path fill="none" stroke="midnightblue" d="M436.11,-17.5C444.53,-17.5 453.07,-17.5 461.53,-17.5"/>
<polygon fill="midnightblue" stroke="midnightblue" points="461.8,-21 471.8,-17.5 461.8,-14 461.8,-21"/>
</g>
</g>
</svg>
