<?xml version="1.0" encoding="UTF-8" standalone="no"?>
<!DOCTYPE svg PUBLIC "-//W3C//DTD SVG 1.1//EN"
 "http://www.w3.org/Graphics/SVG/1.1/DTD/svg11.dtd">
<!-- Generated by graphviz version 2.43.0 (0)
 -->
<!-- Title: Markov::GUI::Generate Pages: 1 -->
<svg width="199pt" height="237pt"
 viewBox="0.00 0.00 199.00 237.00" xmlns="http://www.w3.org/2000/svg" xmlns:xlink="http://www.w3.org/1999/xlink">
<g id="graph0" class="graph" transform="scale(1 1) rotate(0) translate(4 233)">
<title>Markov::GUI::Generate</title>
<!-- Node1 -->
<g id="node1" class="node">
<title>Node1</title>
<g id="a_node1"><a xlink:title="QT Generation page class.">
<polygon fill="#bfbfbf" stroke="black" points="0,-0.5 0,-128.5 191,-128.5 191,-0.5 0,-0.5"/>
<text text-anchor="middle" x="95.5" y="-114.9" font-family="Helvetica,sans-Serif" font-size="12.00">Markov::GUI::Generate</text>
<polyline fill="none" stroke="black" points="0,-107.5 191,-107.5 "/>
<text text-anchor="start" x="8" y="-93.9" font-family="Helvetica,sans-Serif" font-size="12.00">&#45; Ui::Generate ui</text>
<polyline fill="none" stroke="black" points="0,-86.5 191,-86.5 "/>
<text text-anchor="start" x="8" y="-72.9" font-family="Helvetica,sans-Serif" font-size="12.00">+ Generate(QWidget *parent</text>
<text text-anchor="start" x="8" y="-59.9" font-family="Helvetica,sans-Serif" font-size="12.00">=Q_NULLPTR)</text>
<text text-anchor="start" x="8" y="-46.9" font-family="Helvetica,sans-Serif" font-size="12.00">+ void home()</text>
<text text-anchor="start" x="8" y="-33.9" font-family="Helvetica,sans-Serif" font-size="12.00">+ void generation()</text>
<text text-anchor="start" x="8" y="-20.9" font-family="Helvetica,sans-Serif" font-size="12.00">+ void train()</text>
<text text-anchor="start" x="8" y="-7.9" font-family="Helvetica,sans-Serif" font-size="12.00">+ void vis()</text>
</a>
</g>
</g>
<!-- Node2 -->
<g id="node2" class="node">
<title>Node2</title>
<g id="a_node2"><a xlink:href="class_q_main_window.html" target="_top" xlink:title=" ">
<polygon fill="none" stroke="black" points="44.5,-165.5 44.5,-228.5 146.5,-228.5 146.5,-165.5 44.5,-165.5"/>
<text text-anchor="middle" x="95.5" y="-214.9" font-family="Helvetica,sans-Serif" font-size="12.00">QMainWindow</text>
<polyline fill="none" stroke="black" points="44.5,-207.5 146.5,-207.5 "/>
<text text-anchor="middle" x="95.5" y="-193.9" font-family="Helvetica,sans-Serif" font-size="12.00"> </text>
<polyline fill="none" stroke="black" points="44.5,-186.5 146.5,-186.5 "/>
<text text-anchor="middle" x="95.5" y="-172.9" font-family="Helvetica,sans-Serif" font-size="12.00"> </text>
</a>
</g>
</g>
<!-- Node2&#45;&gt;Node1 -->
<g id="edge1" class="edge">
<title>Node2&#45;&gt;Node1</title>
<path fill="none" stroke="midnightblue" d="M95.5,-155.38C95.5,-146.85 95.5,-137.67 95.5,-128.54"/>
<polygon fill="none" stroke="midnightblue" points="92,-155.4 95.5,-165.4 99,-155.4 92,-155.4"/>
</g>
</g>
</svg>
