<?xml version="1.0" encoding="UTF-8" standalone="no"?>
<!DOCTYPE svg PUBLIC "-//W3C//DTD SVG 1.1//EN"
 "http://www.w3.org/Graphics/SVG/1.1/DTD/svg11.dtd">
<!-- Generated by graphviz version 2.43.0 (0)
 -->
<!-- Title: Markov::Node::FindEdge Pages: 1 -->
<svg width="385pt" height="149pt"
 viewBox="0.00 0.00 385.00 149.00" xmlns="http://www.w3.org/2000/svg" xmlns:xlink="http://www.w3.org/1999/xlink">
<g id="graph0" class="graph" transform="scale(1 1) rotate(0) translate(4 145)">
<title>Markov::Node::FindEdge</title>
<!-- Node1 -->
<g id="node1" class="node">
<title>Node1</title>
<g id="a_node1"><a xlink:title="Find an edge with its character representation.">
<polygon fill="#bfbfbf" stroke="black" points="215,-60 215,-81 377,-81 377,-60 215,-60"/>
<text text-anchor="middle" x="296" y="-67.4" font-family="Helvetica,sans-Serif" font-size="12.00">Markov::Node::FindEdge</text>
</a>
</g>
</g>
<!-- Node2 -->
<g id="node2" class="node">
<title>Node2</title>
<g id="a_node2"><a xlink:href="class_markov_1_1_model.html#ad252913f83fa3eb14cc3f9f92c5ee37a" target="_top" xlink:title="Adjust the model with a single string.">
<polygon fill="none" stroke="black" points="17,-106.5 17,-140.5 162,-140.5 162,-106.5 17,-106.5"/>
<text text-anchor="start" x="25" y="-126.9" font-family="Helvetica,sans-Serif" font-size="12.00">Markov::Model&lt; char</text>
<text text-anchor="middle" x="89.5" y="-113.9" font-family="Helvetica,sans-Serif" font-size="12.00"> &gt;::AdjustEdge</text>
</a>
</g>
</g>
<!-- Node1&#45;&gt;Node2 -->
<g id="edge1" class="edge">
<title>Node1&#45;&gt;Node2</title>
<path fill="none" stroke="midnightblue" d="M244.25,-83.65C217.66,-90.54 184.79,-99.06 156.28,-106.45"/>
<polygon fill="midnightblue" stroke="midnightblue" points="245.31,-86.99 254.11,-81.1 243.55,-80.22 245.31,-86.99"/>
</g>
<!-- Node3 -->
<g id="node3" class="node">
<title>Node3</title>
<g id="a_node3"><a xlink:href="namespace_testing_1_1_m_v_p_1_1_markov_model.html#a6e9e664c5a60cb3af863f384a47952ce" target="_top" xlink:title="Test class for minimal viable Node.">
<polygon fill="none" stroke="black" points="0,-53.5 0,-87.5 179,-87.5 179,-53.5 0,-53.5"/>
<text text-anchor="start" x="8" y="-73.9" font-family="Helvetica,sans-Serif" font-size="12.00">Testing::MVP::MarkovModel</text>
<text text-anchor="middle" x="89.5" y="-60.9" font-family="Helvetica,sans-Serif" font-size="12.00">::TEST_CLASS</text>
</a>
</g>
</g>
<!-- Node1&#45;&gt;Node3 -->
<g id="edge2" class="edge">
<title>Node1&#45;&gt;Node3</title>
<path fill="none" stroke="midnightblue" d="M204.59,-70.5C196.19,-70.5 187.68,-70.5 179.3,-70.5"/>
<polygon fill="midnightblue" stroke="midnightblue" points="204.76,-74 214.76,-70.5 204.76,-67 204.76,-74"/>
</g>
<!-- Node4 -->
<g id="node4" class="node">
<title>Node4</title>
<g id="a_node4"><a xlink:href="namespace_testing_1_1_markov_model.html#a84a573ca81cb8cb3db9845b0cdcf06a6" target="_top" xlink:title="Test class for rest of model cases.">
<polygon fill="none" stroke="black" points="17,-0.5 17,-34.5 162,-34.5 162,-0.5 17,-0.5"/>
<text text-anchor="start" x="25" y="-20.9" font-family="Helvetica,sans-Serif" font-size="12.00">Testing::MarkovModel</text>
<text text-anchor="middle" x="89.5" y="-7.9" font-family="Helvetica,sans-Serif" font-size="12.00">::TEST_CLASS</text>
</a>
</g>
</g>
<!-- Node1&#45;&gt;Node4 -->
<g id="edge3" class="edge">
<title>Node1&#45;&gt;Node4</title>
<path fill="none" stroke="midnightblue" d="M244.25,-57.35C217.66,-50.46 184.79,-41.94 156.28,-34.55"/>
<polygon fill="midnightblue" stroke="midnightblue" points="243.55,-60.78 254.11,-59.9 245.31,-54.01 243.55,-60.78"/>
</g>
</g>
</svg>
