<?xml version="1.0" encoding="UTF-8" standalone="no"?>
<!DOCTYPE svg PUBLIC "-//W3C//DTD SVG 1.1//EN"
 "http://www.w3.org/Graphics/SVG/1.1/DTD/svg11.dtd">
<!-- Generated by graphviz version 2.43.0 (0)
 -->
<!-- Title: Markov::API::CLI::Argparse Pages: 1 -->
<svg width="412pt" height="672pt"
 viewBox="0.00 0.00 412.00 672.00" xmlns="http://www.w3.org/2000/svg" xmlns:xlink="http://www.w3.org/1999/xlink">
<g id="graph0" class="graph" transform="scale(1 1) rotate(0) translate(4 668)">
<title>Markov::API::CLI::Argparse</title>
<!-- Node1 -->
<g id="node1" class="node">
<title>Node1</title>
<g id="a_node1"><a xlink:title="Parse command line arguements.">
<polygon fill="#bfbfbf" stroke="black" points="59.5,-0.5 59.5,-258.5 276.5,-258.5 276.5,-0.5 59.5,-0.5"/>
<text text-anchor="middle" x="168" y="-244.9" font-family="Helvetica,sans-Serif" font-size="12.00">Markov::API::CLI::Argparse</text>
<polyline fill="none" stroke="black" points="59.5,-237.5 276.5,-237.5 "/>
<text text-anchor="middle" x="168" y="-223.9" font-family="Helvetica,sans-Serif" font-size="12.00"> </text>
<polyline fill="none" stroke="black" points="59.5,-216.5 276.5,-216.5 "/>
<text text-anchor="start" x="67.5" y="-202.9" font-family="Helvetica,sans-Serif" font-size="12.00">+ Argparse()</text>
<text text-anchor="start" x="67.5" y="-189.9" font-family="Helvetica,sans-Serif" font-size="12.00">+ Argparse(int argc,</text>
<text text-anchor="start" x="67.5" y="-176.9" font-family="Helvetica,sans-Serif" font-size="12.00"> char **argv)</text>
<text text-anchor="start" x="67.5" y="-163.9" font-family="Helvetica,sans-Serif" font-size="12.00">+ Markov::API::CLI::Program</text>
<text text-anchor="start" x="67.5" y="-150.9" font-family="Helvetica,sans-Serif" font-size="12.00">Options getProgramOptions(void)</text>
<text text-anchor="start" x="67.5" y="-137.9" font-family="Helvetica,sans-Serif" font-size="12.00">+ void setProgramOptions</text>
<text text-anchor="start" x="67.5" y="-124.9" font-family="Helvetica,sans-Serif" font-size="12.00">(bool i, bool e, bool</text>
<text text-anchor="start" x="67.5" y="-111.9" font-family="Helvetica,sans-Serif" font-size="12.00"> bf, char s, std::string</text>
<text text-anchor="start" x="67.5" y="-98.9" font-family="Helvetica,sans-Serif" font-size="12.00"> iName, std::string exName,</text>
<text text-anchor="start" x="67.5" y="-85.9" font-family="Helvetica,sans-Serif" font-size="12.00"> std::string oName, std::string</text>
<text text-anchor="start" x="67.5" y="-72.9" font-family="Helvetica,sans-Serif" font-size="12.00"> dName, int n)</text>
<text text-anchor="start" x="67.5" y="-59.9" font-family="Helvetica,sans-Serif" font-size="12.00">+ static Markov::API</text>
<text text-anchor="start" x="67.5" y="-46.9" font-family="Helvetica,sans-Serif" font-size="12.00">::CLI::ProgramOptions</text>
<text text-anchor="start" x="67.5" y="-33.9" font-family="Helvetica,sans-Serif" font-size="12.00"> * parse(int argc, char</text>
<text text-anchor="start" x="67.5" y="-20.9" font-family="Helvetica,sans-Serif" font-size="12.00"> **argv)</text>
<text text-anchor="start" x="67.5" y="-7.9" font-family="Helvetica,sans-Serif" font-size="12.00">+ static void help()</text>
</a>
</g>
</g>
<!-- Node2 -->
<g id="node2" class="node">
<title>Node2</title>
<g id="a_node2"><a xlink:href="struct_markov_1_1_a_p_i_1_1_c_l_i_1_1__program_options.html" target="_top" xlink:title="Structure to hold parsed cli arguements.">
<polygon fill="none" stroke="black" points="107,-308.5 107,-384.5 229,-384.5 229,-308.5 107,-308.5"/>
<text text-anchor="start" x="115" y="-370.9" font-family="Helvetica,sans-Serif" font-size="12.00">Markov::API::CLI::</text>
<text text-anchor="middle" x="168" y="-357.9" font-family="Helvetica,sans-Serif" font-size="12.00">_programOptions</text>
<polyline fill="none" stroke="black" points="107,-350.5 229,-350.5 "/>
<text text-anchor="middle" x="168" y="-336.9" font-family="Helvetica,sans-Serif" font-size="12.00"> </text>
<polyline fill="none" stroke="black" points="107,-329.5 229,-329.5 "/>
<text text-anchor="middle" x="168" y="-315.9" font-family="Helvetica,sans-Serif" font-size="12.00"> </text>
</a>
</g>
</g>
<!-- Node2&#45;&gt;Node1 -->
<g id="edge1" class="edge">
<title>Node2&#45;&gt;Node1</title>
<path fill="none" stroke="#404040" d="M168,-308.05C168,-297.07 168,-284.36 168,-270.89"/>
<polygon fill="none" stroke="#404040" points="168,-270.88 164,-264.88 168,-258.88 172,-264.88 168,-270.88"/>
<text text-anchor="middle" x="180" y="-280.4" font-family="Helvetica,sans-Serif" font-size="12.00"> &#45;po</text>
</g>
<!-- Node3 -->
<g id="node3" class="node">
<title>Node3</title>
<g id="a_node3"><a xlink:title=" ">
<polygon fill="none" stroke="#bfbfbf" points="0,-486.5 0,-549.5 44,-549.5 44,-486.5 0,-486.5"/>
<text text-anchor="middle" x="22" y="-535.9" font-family="Helvetica,sans-Serif" font-size="12.00">char</text>
<polyline fill="none" stroke="#bfbfbf" points="0,-528.5 44,-528.5 "/>
<text text-anchor="middle" x="22" y="-514.9" font-family="Helvetica,sans-Serif" font-size="12.00"> </text>
<polyline fill="none" stroke="#bfbfbf" points="0,-507.5 44,-507.5 "/>
<text text-anchor="middle" x="22" y="-493.9" font-family="Helvetica,sans-Serif" font-size="12.00"> </text>
</a>
</g>
</g>
<!-- Node3&#45;&gt;Node2 -->
<g id="edge2" class="edge">
<title>Node3&#45;&gt;Node2</title>
<path fill="none" stroke="#404040" d="M17.24,-486.35C15.1,-461.48 16.26,-426.76 34,-403 48.89,-383.07 72.25,-370.25 95.32,-362.03"/>
<polygon fill="none" stroke="#404040" points="95.53,-361.96 100,-356.3 106.94,-358.25 102.48,-363.91 95.53,-361.96"/>
<text text-anchor="middle" x="70.5" y="-432.4" font-family="Helvetica,sans-Serif" font-size="12.00"> +seperator</text>
</g>
<!-- Node4 -->
<g id="node4" class="node">
<title>Node4</title>
<g id="a_node4"><a xlink:title=" ">
<polygon fill="none" stroke="#bfbfbf" points="102,-486.5 102,-549.5 134,-549.5 134,-486.5 102,-486.5"/>
<text text-anchor="middle" x="118" y="-535.9" font-family="Helvetica,sans-Serif" font-size="12.00">int</text>
<polyline fill="none" stroke="#bfbfbf" points="102,-528.5 134,-528.5 "/>
<text text-anchor="middle" x="118" y="-514.9" font-family="Helvetica,sans-Serif" font-size="12.00"> </text>
<polyline fill="none" stroke="#bfbfbf" points="102,-507.5 134,-507.5 "/>
<text text-anchor="middle" x="118" y="-493.9" font-family="Helvetica,sans-Serif" font-size="12.00"> </text>
</a>
</g>
</g>
<!-- Node4&#45;&gt;Node2 -->
<g id="edge3" class="edge">
<title>Node4&#45;&gt;Node2</title>
<path fill="none" stroke="#404040" d="M112.61,-486.4C109.77,-462.81 108.73,-429.8 119,-403 120.05,-400.27 121.3,-397.58 122.7,-394.95"/>
<polygon fill="none" stroke="#404040" points="122.87,-394.69 122.68,-387.48 129.26,-384.53 129.45,-391.74 122.87,-394.69"/>
<text text-anchor="middle" x="158" y="-432.4" font-family="Helvetica,sans-Serif" font-size="12.00"> +generateN</text>
</g>
<!-- Node5 -->
<g id="node5" class="node">
<title>Node5</title>
<g id="a_node5"><a xlink:title=" ">
<polygon fill="none" stroke="#bfbfbf" points="181,-486.5 181,-549.5 257,-549.5 257,-486.5 181,-486.5"/>
<text text-anchor="middle" x="219" y="-535.9" font-family="Helvetica,sans-Serif" font-size="12.00">std::string</text>
<polyline fill="none" stroke="#bfbfbf" points="181,-528.5 257,-528.5 "/>
<text text-anchor="middle" x="219" y="-514.9" font-family="Helvetica,sans-Serif" font-size="12.00"> </text>
<polyline fill="none" stroke="#bfbfbf" points="181,-507.5 257,-507.5 "/>
<text text-anchor="middle" x="219" y="-493.9" font-family="Helvetica,sans-Serif" font-size="12.00"> </text>
</a>
</g>
</g>
<!-- Node5&#45;&gt;Node2 -->
<g id="edge4" class="edge">
<title>Node5&#45;&gt;Node2</title>
<path fill="none" stroke="#404040" d="M215.55,-486.37C212.34,-463.05 206.57,-430.4 197,-403 196.17,-400.63 195.26,-398.25 194.28,-395.86"/>
<polygon fill="none" stroke="#404040" points="194.22,-395.72 188.12,-391.87 189.33,-384.76 195.43,-388.61 194.22,-395.72"/>
<text text-anchor="middle" x="264" y="-458.4" font-family="Helvetica,sans-Serif" font-size="12.00"> +datasetname</text>
<text text-anchor="middle" x="264" y="-445.4" font-family="Helvetica,sans-Serif" font-size="12.00">+exportname</text>
<text text-anchor="middle" x="264" y="-432.4" font-family="Helvetica,sans-Serif" font-size="12.00">+importname</text>
<text text-anchor="middle" x="264" y="-419.4" font-family="Helvetica,sans-Serif" font-size="12.00">+outputfilename</text>
<text text-anchor="middle" x="264" y="-406.4" font-family="Helvetica,sans-Serif" font-size="12.00">+wordlistname</text>
</g>
<!-- Node6 -->
<g id="node6" class="node">
<title>Node6</title>
<g id="a_node6"><a xlink:title=" ">
<polygon fill="none" stroke="#bfbfbf" points="158,-587.5 158,-663.5 280,-663.5 280,-587.5 158,-587.5"/>
<text text-anchor="start" x="166" y="-649.9" font-family="Helvetica,sans-Serif" font-size="12.00">std::basic_string&lt;</text>
<text text-anchor="middle" x="219" y="-636.9" font-family="Helvetica,sans-Serif" font-size="12.00"> Char &gt;</text>
<polyline fill="none" stroke="#bfbfbf" points="158,-629.5 280,-629.5 "/>
<text text-anchor="middle" x="219" y="-615.9" font-family="Helvetica,sans-Serif" font-size="12.00"> </text>
<polyline fill="none" stroke="#bfbfbf" points="158,-608.5 280,-608.5 "/>
<text text-anchor="middle" x="219" y="-594.9" font-family="Helvetica,sans-Serif" font-size="12.00"> </text>
</a>
</g>
</g>
<!-- Node6&#45;&gt;Node5 -->
<g id="edge5" class="edge">
<title>Node6&#45;&gt;Node5</title>
<path fill="none" stroke="midnightblue" d="M219,-577.26C219,-567.87 219,-558.25 219,-549.59"/>
<polygon fill="none" stroke="midnightblue" points="215.5,-577.3 219,-587.3 222.5,-577.3 215.5,-577.3"/>
</g>
<!-- Node7 -->
<g id="node7" class="node">
<title>Node7</title>
<g id="a_node7"><a xlink:title=" ">
<polygon fill="none" stroke="#bfbfbf" points="323,-486.5 323,-549.5 365,-549.5 365,-486.5 323,-486.5"/>
<text text-anchor="middle" x="344" y="-535.9" font-family="Helvetica,sans-Serif" font-size="12.00">bool</text>
<polyline fill="none" stroke="#bfbfbf" points="323,-528.5 365,-528.5 "/>
<text text-anchor="middle" x="344" y="-514.9" font-family="Helvetica,sans-Serif" font-size="12.00"> </text>
<polyline fill="none" stroke="#bfbfbf" points="323,-507.5 365,-507.5 "/>
<text text-anchor="middle" x="344" y="-493.9" font-family="Helvetica,sans-Serif" font-size="12.00"> </text>
</a>
</g>
</g>
<!-- Node7&#45;&gt;Node2 -->
<g id="edge6" class="edge">
<title>Node7&#45;&gt;Node2</title>
<path fill="none" stroke="#404040" d="M344.97,-486.33C344.13,-461.11 338.98,-425.91 319,-403 299.16,-380.25 269.17,-366.82 241.12,-358.89"/>
<polygon fill="none" stroke="#404040" points="240.88,-358.83 234.06,-361.2 229.26,-355.82 236.07,-353.45 240.88,-358.83"/>
<text text-anchor="middle" x="373.5" y="-445.4" font-family="Helvetica,sans-Serif" font-size="12.00"> +bExport</text>
<text text-anchor="middle" x="373.5" y="-432.4" font-family="Helvetica,sans-Serif" font-size="12.00">+bFailure</text>
<text text-anchor="middle" x="373.5" y="-419.4" font-family="Helvetica,sans-Serif" font-size="12.00">+bImport</text>
</g>
</g>
</svg>
