<?xml version="1.0" encoding="UTF-8" standalone="no"?>
<!DOCTYPE svg PUBLIC "-//W3C//DTD SVG 1.1//EN"
 "http://www.w3.org/Graphics/SVG/1.1/DTD/svg11.dtd">
<!-- Generated by graphviz version 2.43.0 (0)
 -->
<!-- Title: Markov::API::CUDA::Random::Marsaglia Pages: 1 -->
<!--zoomable 816 -->
<svg id="main" version="1.1" xmlns="http://www.w3.org/2000/svg" xmlns:xlink="http://www.w3.org/1999/xlink" xml:space="preserve" onload="init(evt)">
<style type="text/css"><![CDATA[
.edge:hover path { stroke: red; }
.edge:hover polygon { stroke: red; fill: red; }
]]></style>
<script type="text/javascript"><![CDATA[
var edges = document.getElementsByTagName('g');
if (edges && edges.length) {
  for (var i=0;i<edges.length;i++) {
    if (edges[i].id.substr(0,4)=='edge') {
      edges[i].setAttribute('class','edge');
    }
  }
}
]]></script>
        <defs>
                <circle id="rim" cx="0" cy="0" r="7"/>
                <circle id="rim2" cx="0" cy="0" r="3.5"/>
                <g id="zoomPlus">
                        <use xlink:href="#rim" fill="#404040">
                                <set attributeName="fill" to="#808080" begin="zoomplus.mouseover" end="zoomplus.mouseout"/>
                        </use>
                        <path d="M-4,0h8M0,-4v8" fill="none" stroke="white" stroke-width="1.5" pointer-events="none"/>
                </g>
                <g id="zoomMin">
                        <use xlink:href="#rim" fill="#404040">
                                <set attributeName="fill" to="#808080" begin="zoomminus.mouseover" end="zoomminus.mouseout"/>
                        </use>
                        <path d="M-4,0h8" fill="none" stroke="white" stroke-width="1.5" pointer-events="none"/>
                </g>
                <g id="dirArrow">
                        <path fill="none" stroke="white" stroke-width="1.5" d="M0,-3.0v7 M-2.5,-0.5L0,-3.0L2.5,-0.5"/>
                </g>
               <g id="resetDef">
                       <use xlink:href="#rim2" fill="#404040">
                               <set attributeName="fill" to="#808080" begin="reset.mouseover" end="reset.mouseout"/>
                       </use>
               </g>
        </defs>

<script type="text/javascript">
var viewWidth = 495;
var viewHeight = 816;
var sectionId = 'dynsection-1';
</script>
<script xlink:href="svgpan.js"/>
<svg id="graph" class="graph">
<g id="viewport">
<title>Markov::API::CUDA::Random::Marsaglia</title>
<!-- Node1 -->
<g id="node1" class="node">
<title>Node1</title>
<g id="a_node1"><a xlink:title="Extension of Markov::Random::Marsaglia which is capable o working on device space.">
<polygon fill="#bfbfbf" stroke="black" points="243.5,-0.5 243.5,-115.5 452.5,-115.5 452.5,-0.5 243.5,-0.5"/>
<text text-anchor="start" x="251.5" y="-101.9" font-family="Helvetica,sans-Serif" font-size="12.00">Markov::API::CUDA::</text>
<text text-anchor="middle" x="348" y="-88.9" font-family="Helvetica,sans-Serif" font-size="12.00">Random::Marsaglia</text>
<polyline fill="none" stroke="black" points="243.5,-81.5 452.5,-81.5 "/>
<text text-anchor="middle" x="348" y="-67.9" font-family="Helvetica,sans-Serif" font-size="12.00"> </text>
<polyline fill="none" stroke="black" points="243.5,-60.5 452.5,-60.5 "/>
<text text-anchor="start" x="251.5" y="-46.9" font-family="Helvetica,sans-Serif" font-size="12.00">+ static unsigned long</text>
<text text-anchor="start" x="251.5" y="-33.9" font-family="Helvetica,sans-Serif" font-size="12.00"> * MigrateToVRAM(Markov</text>
<text text-anchor="start" x="251.5" y="-20.9" font-family="Helvetica,sans-Serif" font-size="12.00">::API::CUDA::Random::Marsaglia</text>
<text text-anchor="start" x="251.5" y="-7.9" font-family="Helvetica,sans-Serif" font-size="12.00"> *MEarr, long int gridSize)</text>
</a>
</g>
</g>
<!-- Node2 -->
<g id="node2" class="node">
<title>Node2</title>
<g id="a_node2"><a xlink:href="class_markov_1_1_random_1_1_marsaglia.html" target="_top" xlink:title="Implementation of Marsaglia Random Engine.">
<polygon fill="none" stroke="black" points="107,-264 107,-340 291,-340 291,-264 107,-264"/>
<text text-anchor="middle" x="199" y="-326.4" font-family="Helvetica,sans-Serif" font-size="12.00">Markov::Random::Marsaglia</text>
<polyline fill="none" stroke="black" points="107,-319 291,-319 "/>
<text text-anchor="middle" x="199" y="-305.4" font-family="Helvetica,sans-Serif" font-size="12.00"> </text>
<polyline fill="none" stroke="black" points="107,-298 291,-298 "/>
<text text-anchor="start" x="115" y="-284.4" font-family="Helvetica,sans-Serif" font-size="12.00">+ Marsaglia()</text>
<text text-anchor="start" x="115" y="-271.4" font-family="Helvetica,sans-Serif" font-size="12.00">+ unsigned long random()</text>
</a>
</g>
</g>
<!-- Node2&#45;&gt;Node1 -->
<g id="edge1" class="edge">
<title>Node2&#45;&gt;Node1</title>
<path fill="none" stroke="midnightblue" d="M227.12,-255.32C251.49,-215.76 286.83,-158.34 313.02,-115.82"/>
<polygon fill="none" stroke="midnightblue" points="224.05,-253.63 221.79,-263.98 230.02,-257.3 224.05,-253.63"/>
</g>
<!-- Node3 -->
<g id="node3" class="node">
<title>Node3</title>
<g id="a_node3"><a xlink:href="class_markov_1_1_random_1_1_default_random_engine.html" target="_top" xlink:title="Implementation using Random.h default random engine.">
<polygon fill="none" stroke="black" points="0,-526.5 0,-693.5 220,-693.5 220,-526.5 0,-526.5"/>
<text text-anchor="start" x="8" y="-679.9" font-family="Helvetica,sans-Serif" font-size="12.00">Markov::Random::DefaultRandom</text>
<text text-anchor="middle" x="110" y="-666.9" font-family="Helvetica,sans-Serif" font-size="12.00">Engine</text>
<polyline fill="none" stroke="black" points="0,-659.5 220,-659.5 "/>
<text text-anchor="middle" x="110" y="-645.9" font-family="Helvetica,sans-Serif" font-size="12.00"> </text>
<polyline fill="none" stroke="black" points="0,-638.5 220,-638.5 "/>
<text text-anchor="start" x="8" y="-624.9" font-family="Helvetica,sans-Serif" font-size="12.00">+ unsigned long random()</text>
<text text-anchor="start" x="8" y="-611.9" font-family="Helvetica,sans-Serif" font-size="12.00"># std::random_device</text>
<text text-anchor="start" x="8" y="-598.9" font-family="Helvetica,sans-Serif" font-size="12.00"> &amp; rd()</text>
<text text-anchor="start" x="8" y="-585.9" font-family="Helvetica,sans-Serif" font-size="12.00"># std::default_random</text>
<text text-anchor="start" x="8" y="-572.9" font-family="Helvetica,sans-Serif" font-size="12.00">_engine &amp; generator()</text>
<text text-anchor="start" x="8" y="-559.9" font-family="Helvetica,sans-Serif" font-size="12.00"># std::uniform_int_distribution</text>
<text text-anchor="start" x="8" y="-546.9" font-family="Helvetica,sans-Serif" font-size="12.00">&lt; long long unsigned &gt; &amp;</text>
<text text-anchor="start" x="8" y="-533.9" font-family="Helvetica,sans-Serif" font-size="12.00"> distribution()</text>
</a>
</g>
</g>
<!-- Node3&#45;&gt;Node2 -->
<g id="edge2" class="edge">
<title>Node3&#45;&gt;Node2</title>
<path fill="none" stroke="midnightblue" d="M136.92,-516.44C154.15,-457.19 175.58,-383.53 188.22,-340.05"/>
<polygon fill="none" stroke="midnightblue" points="133.52,-515.61 134.08,-526.19 140.24,-517.57 133.52,-515.61"/>
</g>
<!-- Node4 -->
<g id="node4" class="node">
<title>Node4</title>
<g id="a_node4"><a xlink:href="class_markov_1_1_random_1_1_random_engine.html" target="_top" xlink:title="An abstract class for Random Engine.">
<polygon fill="none" stroke="black" points="1.5,-731.5 1.5,-807.5 218.5,-807.5 218.5,-731.5 1.5,-731.5"/>
<text text-anchor="middle" x="110" y="-793.9" font-family="Helvetica,sans-Serif" font-size="12.00">Markov::Random::RandomEngine</text>
<polyline fill="none" stroke="black" points="1.5,-786.5 218.5,-786.5 "/>
<text text-anchor="middle" x="110" y="-772.9" font-family="Helvetica,sans-Serif" font-size="12.00"> </text>
<polyline fill="none" stroke="black" points="1.5,-765.5 218.5,-765.5 "/>
<text text-anchor="start" x="9.5" y="-751.9" font-family="Helvetica,sans-Serif" font-size="12.00">+ virtual unsigned long</text>
<text text-anchor="start" x="9.5" y="-738.9" font-family="Helvetica,sans-Serif" font-size="12.00"> random()=0</text>
</a>
</g>
</g>
<!-- Node4&#45;&gt;Node3 -->
<g id="edge3" class="edge">
<title>Node4&#45;&gt;Node3</title>
<path fill="none" stroke="midnightblue" d="M110,-720.95C110,-712.29 110,-703.03 110,-693.69"/>
<polygon fill="none" stroke="midnightblue" points="106.5,-721.17 110,-731.17 113.5,-721.17 106.5,-721.17"/>
</g>
<!-- Node5 -->
<g id="node5" class="node">
<title>Node5</title>
<g id="a_node5"><a xlink:title=" ">
<polygon fill="none" stroke="#bfbfbf" points="238,-578.5 238,-641.5 338,-641.5 338,-578.5 238,-578.5"/>
<text text-anchor="middle" x="288" y="-627.9" font-family="Helvetica,sans-Serif" font-size="12.00">unsigned long</text>
<polyline fill="none" stroke="#bfbfbf" points="238,-620.5 338,-620.5 "/>
<text text-anchor="middle" x="288" y="-606.9" font-family="Helvetica,sans-Serif" font-size="12.00"> </text>
<polyline fill="none" stroke="#bfbfbf" points="238,-599.5 338,-599.5 "/>
<text text-anchor="middle" x="288" y="-585.9" font-family="Helvetica,sans-Serif" font-size="12.00"> </text>
</a>
</g>
</g>
<!-- Node5&#45;&gt;Node2 -->
<g id="edge4" class="edge">
<title>Node5&#45;&gt;Node2</title>
<path fill="none" stroke="#404040" d="M279.06,-578.26C263.61,-525.15 231.81,-415.8 213.27,-352.07"/>
<polygon fill="none" stroke="#404040" points="213.21,-351.87 207.7,-347.23 209.86,-340.35 215.38,-344.99 213.21,-351.87"/>
<text text-anchor="middle" x="267.5" y="-498.4" font-family="Helvetica,sans-Serif" font-size="12.00"> +x</text>
<text text-anchor="middle" x="267.5" y="-485.4" font-family="Helvetica,sans-Serif" font-size="12.00">+y</text>
<text text-anchor="middle" x="267.5" y="-472.4" font-family="Helvetica,sans-Serif" font-size="12.00">+z</text>
</g>
<!-- Node6 -->
<g id="node6" class="node">
<title>Node6</title>
<g id="a_node6"><a xlink:href="class_markov_1_1_a_p_i_1_1_c_u_d_a_1_1_c_u_d_a_device_controller.html" target="_top" xlink:title="Controller class for CUDA device.">
<polygon fill="none" stroke="black" points="309,-153.5 309,-450.5 487,-450.5 487,-153.5 309,-153.5"/>
<text text-anchor="start" x="317" y="-436.9" font-family="Helvetica,sans-Serif" font-size="12.00">Markov::API::CUDA::</text>
<text text-anchor="middle" x="398" y="-423.9" font-family="Helvetica,sans-Serif" font-size="12.00">CUDADeviceController</text>
<polyline fill="none" stroke="black" points="309,-416.5 487,-416.5 "/>
<text text-anchor="middle" x="398" y="-402.9" font-family="Helvetica,sans-Serif" font-size="12.00"> </text>
<polyline fill="none" stroke="black" points="309,-395.5 487,-395.5 "/>
<text text-anchor="start" x="317" y="-381.9" font-family="Helvetica,sans-Serif" font-size="12.00">+ static __host__ void</text>
<text text-anchor="start" x="317" y="-368.9" font-family="Helvetica,sans-Serif" font-size="12.00"> ListCudaDevices()</text>
<text text-anchor="start" x="317" y="-355.9" font-family="Helvetica,sans-Serif" font-size="12.00"># static __host__ int</text>
<text text-anchor="start" x="317" y="-342.9" font-family="Helvetica,sans-Serif" font-size="12.00"> CudaCheckNotifyErr</text>
<text text-anchor="start" x="317" y="-329.9" font-family="Helvetica,sans-Serif" font-size="12.00">(cudaError_t _status,</text>
<text text-anchor="start" x="317" y="-316.9" font-family="Helvetica,sans-Serif" font-size="12.00"> const char *msg, bool</text>
<text text-anchor="start" x="317" y="-303.9" font-family="Helvetica,sans-Serif" font-size="12.00"> bExit=true)</text>
<text text-anchor="start" x="317" y="-290.9" font-family="Helvetica,sans-Serif" font-size="12.00"># static __host__ cudaError</text>
<text text-anchor="start" x="317" y="-277.9" font-family="Helvetica,sans-Serif" font-size="12.00">_t CudaMalloc2DToFlat(T</text>
<text text-anchor="start" x="317" y="-264.9" font-family="Helvetica,sans-Serif" font-size="12.00"> **dst, int row, int col)</text>
<text text-anchor="start" x="317" y="-251.9" font-family="Helvetica,sans-Serif" font-size="12.00"># static __host__ cudaError</text>
<text text-anchor="start" x="317" y="-238.9" font-family="Helvetica,sans-Serif" font-size="12.00">_t CudaMemcpy2DToFlat(T</text>
<text text-anchor="start" x="317" y="-225.9" font-family="Helvetica,sans-Serif" font-size="12.00"> *dst, T **src, int row,</text>
<text text-anchor="start" x="317" y="-212.9" font-family="Helvetica,sans-Serif" font-size="12.00"> int col)</text>
<text text-anchor="start" x="317" y="-199.9" font-family="Helvetica,sans-Serif" font-size="12.00"># static __host__ cudaError</text>
<text text-anchor="start" x="317" y="-186.9" font-family="Helvetica,sans-Serif" font-size="12.00">_t CudaMigrate2DFlat(T</text>
<text text-anchor="start" x="317" y="-173.9" font-family="Helvetica,sans-Serif" font-size="12.00"> **dst, T **src, int row,</text>
<text text-anchor="start" x="317" y="-160.9" font-family="Helvetica,sans-Serif" font-size="12.00"> int col)</text>
</a>
</g>
</g>
<!-- Node6&#45;&gt;Node1 -->
<g id="edge5" class="edge">
<title>Node6&#45;&gt;Node1</title>
<path fill="none" stroke="midnightblue" d="M365.45,-143.46C363.45,-133.77 361.52,-124.42 359.72,-115.7"/>
<polygon fill="none" stroke="midnightblue" points="362.02,-144.17 367.47,-153.26 368.88,-142.76 362.02,-144.17"/>
</g>
</g>
</svg>
        <g id="navigator" transform="translate(0 0)" fill="#404254">
                <rect fill="#f2f5e9" fill-opacity="0.5" stroke="#606060" stroke-width=".5" x="0" y="0" width="60" height="60"/>
                <use id="zoomplus" xlink:href="#zoomPlus" x="17" y="9" onmousedown="handleZoom(evt,'in')"/>
                <use id="zoomminus" xlink:href="#zoomMin" x="42" y="9" onmousedown="handleZoom(evt,'out')"/>
                <use id="reset" xlink:href="#resetDef" x="30" y="36" onmousedown="handleReset()"/>
                <g id="arrowUp" xlink:href="#dirArrow" transform="translate(30 24)" onmousedown="handlePan(0,-1)">
                  <use xlink:href="#rim" fill="#404040">
                        <set attributeName="fill" to="#808080" begin="arrowUp.mouseover" end="arrowUp.mouseout"/>
                  </use>
                  <path fill="none" stroke="white" stroke-width="1.5" d="M0,-3.0v7 M-2.5,-0.5L0,-3.0L2.5,-0.5"/>
                </g>
                <g id="arrowRight" xlink:href="#dirArrow" transform="rotate(90) translate(36 -43)" onmousedown="handlePan(1,0)">
                  <use xlink:href="#rim" fill="#404040">
                        <set attributeName="fill" to="#808080" begin="arrowRight.mouseover" end="arrowRight.mouseout"/>
                  </use>
                  <path fill="none" stroke="white" stroke-width="1.5" d="M0,-3.0v7 M-2.5,-0.5L0,-3.0L2.5,-0.5"/>
                </g>
                <g id="arrowDown" xlink:href="#dirArrow" transform="rotate(180) translate(-30 -48)" onmousedown="handlePan(0,1)">
                  <use xlink:href="#rim" fill="#404040">
                        <set attributeName="fill" to="#808080" begin="arrowDown.mouseover" end="arrowDown.mouseout"/>
                  </use>
                  <path fill="none" stroke="white" stroke-width="1.5" d="M0,-3.0v7 M-2.5,-0.5L0,-3.0L2.5,-0.5"/>
                </g>
                <g id="arrowLeft" xlink:href="#dirArrow" transform="rotate(270) translate(-36 17)" onmousedown="handlePan(-1,0)">
                  <use xlink:href="#rim" fill="#404040">
                        <set attributeName="fill" to="#808080" begin="arrowLeft.mouseover" end="arrowLeft.mouseout"/>
                  </use>
                  <path fill="none" stroke="white" stroke-width="1.5" d="M0,-3.0v7 M-2.5,-0.5L0,-3.0L2.5,-0.5"/>
                </g>
        </g>
        <svg viewBox="0 0 15 15" width="100%" height="30px" preserveAspectRatio="xMaxYMin meet">
         <g id="arrow_out" transform="scale(0.3 0.3)">
          <a xlink:href="class_markov_1_1_a_p_i_1_1_c_u_d_a_1_1_random_1_1_marsaglia__coll__graph_org.svg" target="_base">
           <rect id="button" ry="5" rx="5" y="6" x="6" height="38" width="38"
                fill="#f2f5e9" fill-opacity="0.5" stroke="#606060" stroke-width="1.0"/>
           <path id="arrow"
             d="M 11.500037,31.436501 C 11.940474,20.09759 22.043105,11.32322 32.158766,21.979434 L 37.068811,17.246167 C 37.068811,17.246167 37.088388,32 37.088388,32 L 22.160133,31.978069 C 22.160133,31.978069 26.997745,27.140456 26.997745,27.140456 C 18.528582,18.264221 13.291696,25.230495 11.500037,31.436501 z"
             style="fill:#404040;"/>
          </a>
         </g>
        </svg>
</svg>
