<?xml version="1.0" encoding="UTF-8" standalone="no"?>
<!DOCTYPE svg PUBLIC "-//W3C//DTD SVG 1.1//EN"
 "http://www.w3.org/Graphics/SVG/1.1/DTD/svg11.dtd">
<!-- Generated by graphviz version 2.43.0 (0)
 -->
<!-- Title: Python.Markopy.MarkovModel.Generate Pages: 1 -->
<svg width="972pt" height="43pt"
 viewBox="0.00 0.00 972.00 43.00" xmlns="http://www.w3.org/2000/svg" xmlns:xlink="http://www.w3.org/1999/xlink">
<g id="graph0" class="graph" transform="scale(1 1) rotate(0) translate(4 39)">
<title>Python.Markopy.MarkovModel.Generate</title>
<!-- Node1 -->
<g id="node1" class="node">
<title>Node1</title>
<g id="a_node1"><a xlink:title=" ">
<polygon fill="#bfbfbf" stroke="black" points="764,-0.5 764,-34.5 964,-34.5 964,-0.5 764,-0.5"/>
<text text-anchor="start" x="772" y="-20.9" font-family="Helvetica,sans-Serif" font-size="12.00">Python.Markopy.MarkovModel.</text>
<text text-anchor="middle" x="864" y="-7.9" font-family="Helvetica,sans-Serif" font-size="12.00">Generate</text>
</a>
</g>
</g>
<!-- Node2 -->
<g id="node2" class="node">
<title>Node2</title>
<g id="a_node2"><a xlink:href="class_python_1_1_markopy_1_1_markov_passwords_c_l_i.html#a9da87ee9e7809f86dbff169a14229cef" target="_top" xlink:title=" ">
<polygon fill="none" stroke="black" points="507,-0.5 507,-34.5 728,-34.5 728,-0.5 507,-0.5"/>
<text text-anchor="start" x="515" y="-20.9" font-family="Helvetica,sans-Serif" font-size="12.00">Python.Markopy.MarkovPasswords</text>
<text text-anchor="middle" x="617.5" y="-7.9" font-family="Helvetica,sans-Serif" font-size="12.00">CLI._generate</text>
</a>
</g>
</g>
<!-- Node1&#45;&gt;Node2 -->
<g id="edge1" class="edge">
<title>Node1&#45;&gt;Node2</title>
<path fill="none" stroke="midnightblue" d="M753.9,-17.5C745.34,-17.5 736.69,-17.5 728.13,-17.5"/>
<polygon fill="midnightblue" stroke="midnightblue" points="753.9,-21 763.9,-17.5 753.9,-14 753.9,-21"/>
</g>
<!-- Node3 -->
<g id="node3" class="node">
<title>Node3</title>
<g id="a_node3"><a xlink:href="class_python_1_1_markopy_1_1_base_c_l_i.html#ad2823b484ee975432aebb4e50875f8a6" target="_top" xlink:title="Generate strings from the model.">
<polygon fill="none" stroke="black" points="249,-7 249,-28 471,-28 471,-7 249,-7"/>
<text text-anchor="middle" x="360" y="-14.4" font-family="Helvetica,sans-Serif" font-size="12.00">Python.Markopy.BaseCLI.generate</text>
</a>
</g>
</g>
<!-- Node2&#45;&gt;Node3 -->
<g id="edge2" class="edge">
<title>Node2&#45;&gt;Node3</title>
<path fill="none" stroke="midnightblue" d="M496.42,-17.5C487.99,-17.5 479.52,-17.5 471.15,-17.5"/>
<polygon fill="midnightblue" stroke="midnightblue" points="496.66,-21 506.66,-17.5 496.66,-14 496.66,-21"/>
</g>
<!-- Node4 -->
<g id="node4" class="node">
<title>Node4</title>
<g id="a_node4"><a xlink:href="class_python_1_1_markopy_1_1_base_c_l_i.html#aab389488e1f530cf444d9d2ef59a6998" target="_top" xlink:title="Process parameters for operation.">
<polygon fill="none" stroke="black" points="0,-7 0,-28 213,-28 213,-7 0,-7"/>
<text text-anchor="middle" x="106.5" y="-14.4" font-family="Helvetica,sans-Serif" font-size="12.00">Python.Markopy.BaseCLI.process</text>
</a>
</g>
</g>
<!-- Node3&#45;&gt;Node4 -->
<g id="edge3" class="edge">
<title>Node3&#45;&gt;Node4</title>
<path fill="none" stroke="midnightblue" d="M238.47,-17.5C230.07,-17.5 221.63,-17.5 213.32,-17.5"/>
<polygon fill="midnightblue" stroke="midnightblue" points="238.69,-21 248.69,-17.5 238.69,-14 238.69,-21"/>
</g>
</g>
</svg>
