<?xml version="1.0" encoding="UTF-8" standalone="no"?>
<!DOCTYPE svg PUBLIC "-//W3C//DTD SVG 1.1//EN"
 "http://www.w3.org/Graphics/SVG/1.1/DTD/svg11.dtd">
<!-- Generated by graphviz version 2.43.0 (0)
 -->
<!-- Title: Markov::Edge&lt; NodeStorageType &gt; Pages: 1 -->
<svg width="778pt" height="710pt"
 viewBox="0.00 0.00 778.00 710.00" xmlns="http://www.w3.org/2000/svg" xmlns:xlink="http://www.w3.org/1999/xlink">
<g id="graph0" class="graph" transform="scale(1 1) rotate(0) translate(4 706)">
<title>Markov::Edge&lt; NodeStorageType &gt;</title>
<!-- Node1 -->
<g id="node1" class="node">
<title>Node1</title>
<g id="a_node1"><a xlink:title="Edge class used to link nodes in the model together.">
<polygon fill="#bfbfbf" stroke="black" points="0,-0.5 0,-180.5 191,-180.5 191,-0.5 0,-0.5"/>
<text text-anchor="start" x="8" y="-166.9" font-family="Helvetica,sans-Serif" font-size="12.00">Markov::Edge&lt; NodeStorage</text>
<text text-anchor="middle" x="95.5" y="-153.9" font-family="Helvetica,sans-Serif" font-size="12.00">Type &gt;</text>
<polyline fill="none" stroke="black" points="0,-146.5 191,-146.5 "/>
<text text-anchor="middle" x="95.5" y="-132.9" font-family="Helvetica,sans-Serif" font-size="12.00"> </text>
<polyline fill="none" stroke="black" points="0,-125.5 191,-125.5 "/>
<text text-anchor="start" x="8" y="-111.9" font-family="Helvetica,sans-Serif" font-size="12.00">+ Edge()</text>
<text text-anchor="start" x="8" y="-98.9" font-family="Helvetica,sans-Serif" font-size="12.00">+ Edge()</text>
<text text-anchor="start" x="8" y="-85.9" font-family="Helvetica,sans-Serif" font-size="12.00">+ AdjustEdge()</text>
<text text-anchor="start" x="8" y="-72.9" font-family="Helvetica,sans-Serif" font-size="12.00">+ TraverseNode()</text>
<text text-anchor="start" x="8" y="-59.9" font-family="Helvetica,sans-Serif" font-size="12.00">+ SetLeftEdge()</text>
<text text-anchor="start" x="8" y="-46.9" font-family="Helvetica,sans-Serif" font-size="12.00">+ SetRightEdge()</text>
<text text-anchor="start" x="8" y="-33.9" font-family="Helvetica,sans-Serif" font-size="12.00">+ EdgeWeight()</text>
<text text-anchor="start" x="8" y="-20.9" font-family="Helvetica,sans-Serif" font-size="12.00">+ LeftNode()</text>
<text text-anchor="start" x="8" y="-7.9" font-family="Helvetica,sans-Serif" font-size="12.00">+ RightNode()</text>
</a>
</g>
</g>
<!-- Node2 -->
<g id="node2" class="node">
<title>Node2</title>
<g id="a_node2"><a xlink:href="class_markov_1_1_node.html" target="_top" xlink:title=" ">
<polygon fill="none" stroke="black" points="120.5,-243.5 120.5,-462.5 312.5,-462.5 312.5,-243.5 120.5,-243.5"/>
<text text-anchor="start" x="128.5" y="-448.9" font-family="Helvetica,sans-Serif" font-size="12.00">Markov::Node&lt; NodeStorage</text>
<text text-anchor="middle" x="216.5" y="-435.9" font-family="Helvetica,sans-Serif" font-size="12.00">Type &gt;</text>
<polyline fill="none" stroke="black" points="120.5,-428.5 312.5,-428.5 "/>
<text text-anchor="middle" x="216.5" y="-414.9" font-family="Helvetica,sans-Serif" font-size="12.00"> </text>
<polyline fill="none" stroke="black" points="120.5,-407.5 312.5,-407.5 "/>
<text text-anchor="start" x="128.5" y="-393.9" font-family="Helvetica,sans-Serif" font-size="12.00">+ Node()</text>
<text text-anchor="start" x="128.5" y="-380.9" font-family="Helvetica,sans-Serif" font-size="12.00">+ Node()</text>
<text text-anchor="start" x="128.5" y="-367.9" font-family="Helvetica,sans-Serif" font-size="12.00">+ Link()</text>
<text text-anchor="start" x="128.5" y="-354.9" font-family="Helvetica,sans-Serif" font-size="12.00">+ Link()</text>
<text text-anchor="start" x="128.5" y="-341.9" font-family="Helvetica,sans-Serif" font-size="12.00">+ RandomNext()</text>
<text text-anchor="start" x="128.5" y="-328.9" font-family="Helvetica,sans-Serif" font-size="12.00">+ UpdateEdges()</text>
<text text-anchor="start" x="128.5" y="-315.9" font-family="Helvetica,sans-Serif" font-size="12.00">+ FindEdge()</text>
<text text-anchor="start" x="128.5" y="-302.9" font-family="Helvetica,sans-Serif" font-size="12.00">+ FindEdge()</text>
<text text-anchor="start" x="128.5" y="-289.9" font-family="Helvetica,sans-Serif" font-size="12.00">+ NodeValue()</text>
<text text-anchor="start" x="128.5" y="-276.9" font-family="Helvetica,sans-Serif" font-size="12.00">+ UpdateTotalVerticeWeight()</text>
<text text-anchor="start" x="128.5" y="-263.9" font-family="Helvetica,sans-Serif" font-size="12.00">+ Edges()</text>
<text text-anchor="start" x="128.5" y="-250.9" font-family="Helvetica,sans-Serif" font-size="12.00">+ TotalEdgeWeights()</text>
</a>
</g>
</g>
<!-- Node2&#45;&gt;Node1 -->
<g id="edge1" class="edge">
<title>Node2&#45;&gt;Node1</title>
<path fill="none" stroke="#404040" d="M166.06,-243.41C158.08,-226.23 149.86,-208.54 141.98,-191.57"/>
<polygon fill="none" stroke="#404040" points="141.91,-191.41 135.75,-187.66 136.85,-180.53 143.01,-184.29 141.91,-191.41"/>
<text text-anchor="middle" x="176" y="-215.4" font-family="Helvetica,sans-Serif" font-size="12.00"> &#45;_left</text>
<text text-anchor="middle" x="176" y="-202.4" font-family="Helvetica,sans-Serif" font-size="12.00">&#45;_right</text>
</g>
<!-- Node3 -->
<g id="node3" class="node">
<title>Node3</title>
<g id="a_node3"><a xlink:title=" ">
<polygon fill="none" stroke="#bfbfbf" points="45.5,-519 45.5,-582 77.5,-582 77.5,-519 45.5,-519"/>
<text text-anchor="middle" x="61.5" y="-568.4" font-family="Helvetica,sans-Serif" font-size="12.00">int</text>
<polyline fill="none" stroke="#bfbfbf" points="45.5,-561 77.5,-561 "/>
<text text-anchor="middle" x="61.5" y="-547.4" font-family="Helvetica,sans-Serif" font-size="12.00"> </text>
<polyline fill="none" stroke="#bfbfbf" points="45.5,-540 77.5,-540 "/>
<text text-anchor="middle" x="61.5" y="-526.4" font-family="Helvetica,sans-Serif" font-size="12.00"> </text>
</a>
</g>
</g>
<!-- Node3&#45;&gt;Node1 -->
<g id="edge9" class="edge">
<title>Node3&#45;&gt;Node1</title>
<path fill="none" stroke="#404040" d="M59.29,-518.69C58.21,-502.19 57.03,-481.49 56.5,-463 53.68,-365.26 44.21,-340 56.5,-243 58.57,-226.63 61.86,-209.5 65.66,-192.89"/>
<polygon fill="none" stroke="#404040" points="65.74,-192.57 63.24,-185.81 68.52,-180.9 71.02,-187.66 65.74,-192.57"/>
<text text-anchor="middle" x="84" y="-349.9" font-family="Helvetica,sans-Serif" font-size="12.00"> &#45;_weight</text>
</g>
<!-- Node3&#45;&gt;Node2 -->
<g id="edge2" class="edge">
<title>Node3&#45;&gt;Node2</title>
<path fill="none" stroke="#404040" d="M64.41,-518.96C66.74,-506.38 70.95,-492.16 78.5,-481 86.17,-469.66 92.99,-471.78 103.5,-463 106.01,-460.9 108.54,-458.76 111.07,-456.59"/>
<polygon fill="none" stroke="#404040" points="111.21,-456.47 113.1,-449.51 120.25,-448.58 118.36,-455.53 111.21,-456.47"/>
<text text-anchor="middle" x="140.5" y="-484.4" font-family="Helvetica,sans-Serif" font-size="12.00"> &#45;total_edge_weights</text>
</g>
<!-- Node4 -->
<g id="node4" class="node">
<title>Node4</title>
<g id="a_node4"><a xlink:title=" ">
<polygon fill="none" stroke="#bfbfbf" points="228,-638.5 228,-701.5 351,-701.5 351,-638.5 228,-638.5"/>
<text text-anchor="middle" x="289.5" y="-687.9" font-family="Helvetica,sans-Serif" font-size="12.00">NodeStorageType</text>
<polyline fill="none" stroke="#bfbfbf" points="228,-680.5 351,-680.5 "/>
<text text-anchor="middle" x="289.5" y="-666.9" font-family="Helvetica,sans-Serif" font-size="12.00"> </text>
<polyline fill="none" stroke="#bfbfbf" points="228,-659.5 351,-659.5 "/>
<text text-anchor="middle" x="289.5" y="-645.9" font-family="Helvetica,sans-Serif" font-size="12.00"> </text>
</a>
</g>
</g>
<!-- Node4&#45;&gt;Node2 -->
<g id="edge3" class="edge">
<title>Node4&#45;&gt;Node2</title>
<path fill="none" stroke="#404040" d="M257.12,-638.13C244.87,-624.37 232.27,-607.17 225.5,-589 212.19,-553.27 207.4,-512.33 206.67,-474.74"/>
<polygon fill="none" stroke="#404040" points="206.67,-474.66 202.62,-468.7 206.58,-462.67 210.62,-468.63 206.67,-474.66"/>
<text text-anchor="middle" x="249" y="-547.4" font-family="Helvetica,sans-Serif" font-size="12.00"> &#45;_value</text>
</g>
<!-- Node5 -->
<g id="node5" class="node">
<title>Node5</title>
<g id="a_node5"><a xlink:title=" ">
<polygon fill="none" stroke="#bfbfbf" points="282,-512.5 282,-588.5 541,-588.5 541,-512.5 282,-512.5"/>
<text text-anchor="start" x="290" y="-574.9" font-family="Helvetica,sans-Serif" font-size="12.00">std::map&lt; NodeStorageType,</text>
<text text-anchor="middle" x="411.5" y="-561.9" font-family="Helvetica,sans-Serif" font-size="12.00"> Markov::Edge&lt; NodeStorageType &gt; * &gt;</text>
<polyline fill="none" stroke="#bfbfbf" points="282,-554.5 541,-554.5 "/>
<text text-anchor="middle" x="411.5" y="-540.9" font-family="Helvetica,sans-Serif" font-size="12.00"> </text>
<polyline fill="none" stroke="#bfbfbf" points="282,-533.5 541,-533.5 "/>
<text text-anchor="middle" x="411.5" y="-519.9" font-family="Helvetica,sans-Serif" font-size="12.00"> </text>
</a>
</g>
</g>
<!-- Node4&#45;&gt;Node5 -->
<g id="edge6" class="edge">
<title>Node4&#45;&gt;Node5</title>
<path fill="none" stroke="#404040" d="M321.24,-638.43C334.33,-625.82 349.79,-610.94 364.17,-597.08"/>
<polygon fill="none" stroke="#404040" points="364.32,-596.94 365.86,-589.9 372.96,-588.62 371.41,-595.66 364.32,-596.94"/>
<text text-anchor="middle" x="371" y="-610.4" font-family="Helvetica,sans-Serif" font-size="12.00"> +keys</text>
</g>
<!-- Node5&#45;&gt;Node2 -->
<g id="edge4" class="edge">
<title>Node5&#45;&gt;Node2</title>
<path fill="none" stroke="#404040" d="M374.36,-512.27C358.96,-496.83 340.25,-478.06 321.17,-458.93"/>
<polygon fill="none" stroke="#404040" points="321.15,-458.92 314.08,-457.5 312.68,-450.43 319.75,-451.85 321.15,-458.92"/>
<text text-anchor="middle" x="376" y="-484.4" font-family="Helvetica,sans-Serif" font-size="12.00"> &#45;edges</text>
</g>
<!-- Node6 -->
<g id="node6" class="node">
<title>Node6</title>
<g id="a_node6"><a xlink:title=" ">
<polygon fill="none" stroke="#bfbfbf" points="402.5,-638.5 402.5,-701.5 592.5,-701.5 592.5,-638.5 402.5,-638.5"/>
<text text-anchor="middle" x="497.5" y="-687.9" font-family="Helvetica,sans-Serif" font-size="12.00">Edge&lt; NodeStorageType &gt; *</text>
<polyline fill="none" stroke="#bfbfbf" points="402.5,-680.5 592.5,-680.5 "/>
<text text-anchor="middle" x="497.5" y="-666.9" font-family="Helvetica,sans-Serif" font-size="12.00"> </text>
<polyline fill="none" stroke="#bfbfbf" points="402.5,-659.5 592.5,-659.5 "/>
<text text-anchor="middle" x="497.5" y="-645.9" font-family="Helvetica,sans-Serif" font-size="12.00"> </text>
</a>
</g>
</g>
<!-- Node6&#45;&gt;Node5 -->
<g id="edge5" class="edge">
<title>Node6&#45;&gt;Node5</title>
<path fill="none" stroke="#404040" d="M475.13,-638.43C466.25,-626.3 455.82,-612.06 446.01,-598.65"/>
<polygon fill="none" stroke="#404040" points="445.75,-598.3 438.98,-595.82 438.67,-588.62 445.44,-591.1 445.75,-598.3"/>
<text text-anchor="middle" x="494.5" y="-610.4" font-family="Helvetica,sans-Serif" font-size="12.00"> +elements</text>
</g>
<!-- Node7 -->
<g id="node7" class="node">
<title>Node7</title>
<g id="a_node7"><a xlink:title=" ">
<polygon fill="none" stroke="#bfbfbf" points="559,-512.5 559,-588.5 770,-588.5 770,-512.5 559,-512.5"/>
<text text-anchor="start" x="567" y="-574.9" font-family="Helvetica,sans-Serif" font-size="12.00">std::vector&lt; Markov</text>
<text text-anchor="middle" x="664.5" y="-561.9" font-family="Helvetica,sans-Serif" font-size="12.00">::Edge&lt; NodeStorageType &gt; * &gt;</text>
<polyline fill="none" stroke="#bfbfbf" points="559,-554.5 770,-554.5 "/>
<text text-anchor="middle" x="664.5" y="-540.9" font-family="Helvetica,sans-Serif" font-size="12.00"> </text>
<polyline fill="none" stroke="#bfbfbf" points="559,-533.5 770,-533.5 "/>
<text text-anchor="middle" x="664.5" y="-519.9" font-family="Helvetica,sans-Serif" font-size="12.00"> </text>
</a>
</g>
</g>
<!-- Node6&#45;&gt;Node7 -->
<g id="edge8" class="edge">
<title>Node6&#45;&gt;Node7</title>
<path fill="none" stroke="#404040" d="M540.94,-638.43C559.46,-625.4 581.43,-609.95 601.66,-595.71"/>
<polygon fill="none" stroke="#404040" points="601.93,-595.52 604.54,-588.8 611.75,-588.62 609.14,-595.34 601.93,-595.52"/>
<text text-anchor="middle" x="615.5" y="-610.4" font-family="Helvetica,sans-Serif" font-size="12.00"> +elements</text>
</g>
<!-- Node7&#45;&gt;Node2 -->
<g id="edge7" class="edge">
<title>Node7&#45;&gt;Node2</title>
<path fill="none" stroke="#404040" d="M579.71,-512.5C507.17,-480.85 402.37,-435.11 323.97,-400.9"/>
<polygon fill="none" stroke="#404040" points="323.6,-400.74 316.5,-402 312.6,-395.94 319.7,-394.67 323.6,-400.74"/>
<text text-anchor="middle" x="560.5" y="-484.4" font-family="Helvetica,sans-Serif" font-size="12.00"> +edgesV</text>
</g>
</g>
</svg>
