<?xml version="1.0" encoding="UTF-8" standalone="no"?>
<!DOCTYPE svg PUBLIC "-//W3C//DTD SVG 1.1//EN"
 "http://www.w3.org/Graphics/SVG/1.1/DTD/svg11.dtd">
<!-- Generated by graphviz version 2.43.0 (0)
 -->
<!-- Title: Markov::GUI::Train Pages: 1 -->
<svg width="134pt" height="198pt"
 viewBox="0.00 0.00 134.00 198.00" xmlns="http://www.w3.org/2000/svg" xmlns:xlink="http://www.w3.org/1999/xlink">
<g id="graph0" class="graph" transform="scale(1 1) rotate(0) translate(4 194)">
<title>Markov::GUI::Train</title>
<!-- Node1 -->
<g id="node1" class="node">
<title>Node1</title>
<g id="a_node1"><a xlink:title="QT Training page class.">
<polygon fill="#bfbfbf" stroke="black" points="0,-0.5 0,-89.5 126,-89.5 126,-0.5 0,-0.5"/>
<text text-anchor="middle" x="63" y="-75.9" font-family="Helvetica,sans-Serif" font-size="12.00">Markov::GUI::Train</text>
<polyline fill="none" stroke="black" points="0,-68.5 126,-68.5 "/>
<text text-anchor="start" x="8" y="-54.9" font-family="Helvetica,sans-Serif" font-size="12.00">&#45; ui</text>
<polyline fill="none" stroke="black" points="0,-47.5 126,-47.5 "/>
<text text-anchor="start" x="8" y="-33.9" font-family="Helvetica,sans-Serif" font-size="12.00">+ Train()</text>
<text text-anchor="start" x="8" y="-20.9" font-family="Helvetica,sans-Serif" font-size="12.00">+ home()</text>
<text text-anchor="start" x="8" y="-7.9" font-family="Helvetica,sans-Serif" font-size="12.00">+ train()</text>
</a>
</g>
</g>
<!-- Node2 -->
<g id="node2" class="node">
<title>Node2</title>
<g id="a_node2"><a xlink:title=" ">
<polygon fill="none" stroke="#bfbfbf" points="12,-126.5 12,-189.5 114,-189.5 114,-126.5 12,-126.5"/>
<text text-anchor="middle" x="63" y="-175.9" font-family="Helvetica,sans-Serif" font-size="12.00">QMainWindow</text>
<polyline fill="none" stroke="#bfbfbf" points="12,-168.5 114,-168.5 "/>
<text text-anchor="middle" x="63" y="-154.9" font-family="Helvetica,sans-Serif" font-size="12.00"> </text>
<polyline fill="none" stroke="#bfbfbf" points="12,-147.5 114,-147.5 "/>
<text text-anchor="middle" x="63" y="-133.9" font-family="Helvetica,sans-Serif" font-size="12.00"> </text>
</a>
</g>
</g>
<!-- Node2&#45;&gt;Node1 -->
<g id="edge1" class="edge">
<title>Node2&#45;&gt;Node1</title>
<path fill="none" stroke="midnightblue" d="M63,-116.21C63,-107.62 63,-98.52 63,-89.82"/>
<polygon fill="none" stroke="midnightblue" points="59.5,-116.37 63,-126.37 66.5,-116.37 59.5,-116.37"/>
</g>
</g>
</svg>
