<?xml version="1.0" encoding="UTF-8" standalone="no"?>
<!DOCTYPE svg PUBLIC "-//W3C//DTD SVG 1.1//EN"
 "http://www.w3.org/Graphics/SVG/1.1/DTD/svg11.dtd">
<!-- Generated by graphviz version 2.43.0 (0)
 -->
<!-- Title: Python.Markopy.BaseCLI.process Pages: 1 -->
<!--zoomable 615 -->
<svg id="main" version="1.1" xmlns="http://www.w3.org/2000/svg" xmlns:xlink="http://www.w3.org/1999/xlink" xml:space="preserve" onload="init(evt)">
<style type="text/css"><![CDATA[
.edge:hover path { stroke: red; }
.edge:hover polygon { stroke: red; fill: red; }
]]></style>
<script type="text/javascript"><![CDATA[
var edges = document.getElementsByTagName('g');
if (edges && edges.length) {
  for (var i=0;i<edges.length;i++) {
    if (edges[i].id.substr(0,4)=='edge') {
      edges[i].setAttribute('class','edge');
    }
  }
}
]]></script>
        <defs>
                <circle id="rim" cx="0" cy="0" r="7"/>
                <circle id="rim2" cx="0" cy="0" r="3.5"/>
                <g id="zoomPlus">
                        <use xlink:href="#rim" fill="#404040">
                                <set attributeName="fill" to="#808080" begin="zoomplus.mouseover" end="zoomplus.mouseout"/>
                        </use>
                        <path d="M-4,0h8M0,-4v8" fill="none" stroke="white" stroke-width="1.5" pointer-events="none"/>
                </g>
                <g id="zoomMin">
                        <use xlink:href="#rim" fill="#404040">
                                <set attributeName="fill" to="#808080" begin="zoomminus.mouseover" end="zoomminus.mouseout"/>
                        </use>
                        <path d="M-4,0h8" fill="none" stroke="white" stroke-width="1.5" pointer-events="none"/>
                </g>
                <g id="dirArrow">
                        <path fill="none" stroke="white" stroke-width="1.5" d="M0,-3.0v7 M-2.5,-0.5L0,-3.0L2.5,-0.5"/>
                </g>
               <g id="resetDef">
                       <use xlink:href="#rim2" fill="#404040">
                               <set attributeName="fill" to="#808080" begin="reset.mouseover" end="reset.mouseout"/>
                       </use>
               </g>
        </defs>

<script type="text/javascript">
var viewWidth = 1250;
var viewHeight = 615;
var sectionId = 'dynsection-77';
</script>
<script xlink:href="svgpan.js"/>
<svg id="graph" class="graph">
<g id="viewport">
<title>Python.Markopy.BaseCLI.process</title>
<!-- Node1 -->
<g id="node1" class="node">
<title>Node1</title>
<g id="a_node1"><a xlink:title="Process parameters for operation.">
<polygon fill="#bfbfbf" stroke="black" points="0,-219 0,-240 213,-240 213,-219 0,-219"/>
<text text-anchor="middle" x="106.5" y="-226.4" font-family="Helvetica,sans-Serif" font-size="12.00">Python.Markopy.BaseCLI.process</text>
</a>
</g>
</g>
<!-- Node2 -->
<g id="node2" class="node">
<title>Node2</title>
<g id="a_node2"><a xlink:href="class_python_1_1_markopy_1_1_base_c_l_i.html#ad2823b484ee975432aebb4e50875f8a6" target="_top" xlink:title="Generate strings from the model.">
<polygon fill="none" stroke="black" points="249,-473 249,-494 471,-494 471,-473 249,-473"/>
<text text-anchor="middle" x="360" y="-480.4" font-family="Helvetica,sans-Serif" font-size="12.00">Python.Markopy.BaseCLI.generate</text>
</a>
</g>
</g>
<!-- Node1&#45;&gt;Node2 -->
<g id="edge1" class="edge">
<title>Node1&#45;&gt;Node2</title>
<path fill="none" stroke="midnightblue" d="M117.99,-240.09C156.81,-279.3 292.67,-416.51 341.42,-465.75"/>
<polygon fill="midnightblue" stroke="midnightblue" points="338.95,-468.22 348.47,-472.86 343.92,-463.3 338.95,-468.22"/>
</g>
<!-- Node11 -->
<g id="node11" class="node">
<title>Node11</title>
<g id="a_node11"><a xlink:href="class_python_1_1_markopy_1_1_base_c_l_i.html#a70c7dc0679d8e37e1b5d6c65405eeedb" target="_top" xlink:title="Import a model file.">
<polygon fill="none" stroke="black" points="256.5,-321.5 256.5,-355.5 463.5,-355.5 463.5,-321.5 256.5,-321.5"/>
<text text-anchor="start" x="264.5" y="-341.9" font-family="Helvetica,sans-Serif" font-size="12.00">Python.Markopy.BaseCLI.import</text>
<text text-anchor="middle" x="360" y="-328.9" font-family="Helvetica,sans-Serif" font-size="12.00">_model</text>
</a>
</g>
</g>
<!-- Node1&#45;&gt;Node11 -->
<g id="edge13" class="edge">
<title>Node1&#45;&gt;Node11</title>
<path fill="none" stroke="midnightblue" d="M132.07,-240.15C173.23,-257.99 256.85,-294.23 310.28,-317.38"/>
<polygon fill="midnightblue" stroke="midnightblue" points="308.99,-320.64 319.56,-321.41 311.78,-314.22 308.99,-320.64"/>
</g>
<!-- Node13 -->
<g id="node13" class="node">
<title>Node13</title>
<g id="a_node13"><a xlink:href="class_markov_1_1_g_u_i_1_1_generate.html#af5f5d0fcc5530157d882e35e35d1649e" target="_top" xlink:title=" ">
<polygon fill="none" stroke="black" points="283,-108.5 283,-142.5 437,-142.5 437,-108.5 283,-108.5"/>
<text text-anchor="start" x="291" y="-128.9" font-family="Helvetica,sans-Serif" font-size="12.00">Markov::GUI::Generate</text>
<text text-anchor="middle" x="360" y="-115.9" font-family="Helvetica,sans-Serif" font-size="12.00">::train</text>
</a>
</g>
</g>
<!-- Node1&#45;&gt;Node13 -->
<g id="edge16" class="edge">
<title>Node1&#45;&gt;Node13</title>
<path fill="none" stroke="midnightblue" d="M124.32,-218.94C150.23,-203.06 201.87,-172.92 249,-154.5 257.38,-151.23 266.25,-148.2 275.18,-145.44"/>
<polygon fill="midnightblue" stroke="midnightblue" points="276.3,-148.76 284.88,-142.54 274.3,-142.05 276.3,-148.76"/>
</g>
<!-- Node20 -->
<g id="node20" class="node">
<title>Node20</title>
<g id="a_node20"><a xlink:href="class_markov_1_1_g_u_i_1_1_train.html#a6f74c2948379df5e7f0d8eba96c97fb0" target="_top" xlink:title=" ">
<polygon fill="none" stroke="black" points="297,-164.5 297,-198.5 423,-198.5 423,-164.5 297,-164.5"/>
<text text-anchor="start" x="305" y="-184.9" font-family="Helvetica,sans-Serif" font-size="12.00">Markov::GUI::Train</text>
<text text-anchor="middle" x="360" y="-171.9" font-family="Helvetica,sans-Serif" font-size="12.00">::train</text>
</a>
</g>
</g>
<!-- Node1&#45;&gt;Node20 -->
<g id="edge23" class="edge">
<title>Node1&#45;&gt;Node20</title>
<path fill="none" stroke="midnightblue" d="M162.69,-218.97C199.22,-212 247.48,-202.78 287.01,-195.24"/>
<polygon fill="midnightblue" stroke="midnightblue" points="287.7,-198.67 296.86,-193.36 286.39,-191.8 287.7,-198.67"/>
</g>
<!-- Node21 -->
<g id="node21" class="node">
<title>Node21</title>
<g id="a_node21"><a xlink:href="class_python_1_1_markopy_1_1_base_c_l_i.html#a4d0f291accfd276eb967e1121124274b" target="_top" xlink:title="Train a model via CLI parameters.">
<polygon fill="none" stroke="black" points="262.5,-219 262.5,-240 457.5,-240 457.5,-219 262.5,-219"/>
<text text-anchor="middle" x="360" y="-226.4" font-family="Helvetica,sans-Serif" font-size="12.00">Python.Markopy.BaseCLI.train</text>
</a>
</g>
</g>
<!-- Node1&#45;&gt;Node21 -->
<g id="edge25" class="edge">
<title>Node1&#45;&gt;Node21</title>
<path fill="none" stroke="midnightblue" d="M213.07,-229.5C225.9,-229.5 239.02,-229.5 251.88,-229.5"/>
<polygon fill="midnightblue" stroke="midnightblue" points="252.12,-233 262.12,-229.5 252.12,-226 252.12,-233"/>
</g>
<!-- Node3 -->
<g id="node3" class="node">
<title>Node3</title>
<g id="a_node3"><a xlink:href="class_python_1_1_cuda_markopy_1_1_cuda_model_matrix_c_l_i.html#acfaa19f0478a88a143282431aa89786d" target="_top" xlink:title="wrapper for generate function.">
<polygon fill="none" stroke="black" points="511,-572.5 511,-606.5 724,-606.5 724,-572.5 511,-572.5"/>
<text text-anchor="start" x="519" y="-592.9" font-family="Helvetica,sans-Serif" font-size="12.00">Python.CudaMarkopy.CudaModel</text>
<text text-anchor="middle" x="617.5" y="-579.9" font-family="Helvetica,sans-Serif" font-size="12.00">MatrixCLI._generate</text>
</a>
</g>
</g>
<!-- Node2&#45;&gt;Node3 -->
<g id="edge2" class="edge">
<title>Node2&#45;&gt;Node3</title>
<path fill="none" stroke="midnightblue" d="M376.95,-494.12C403.07,-511.07 457.09,-544.3 507,-563.5 512.55,-565.63 518.33,-567.63 524.2,-569.49"/>
<polygon fill="midnightblue" stroke="midnightblue" points="523.56,-572.95 534.15,-572.48 525.58,-566.25 523.56,-572.95"/>
</g>
<!-- Node6 -->
<g id="node6" class="node">
<title>Node6</title>
<g id="a_node6"><a xlink:href="class_python_1_1_markopy_1_1_base_c_l_i.html#acbe1962e0ebdc177414fc4eb7f70be69" target="_top" xlink:title="wrapper for generate function.">
<polygon fill="none" stroke="black" points="534,-413.5 534,-447.5 701,-447.5 701,-413.5 534,-413.5"/>
<text text-anchor="start" x="542" y="-433.9" font-family="Helvetica,sans-Serif" font-size="12.00">Python.Markopy.BaseCLI.</text>
<text text-anchor="middle" x="617.5" y="-420.9" font-family="Helvetica,sans-Serif" font-size="12.00">_generate</text>
</a>
</g>
</g>
<!-- Node2&#45;&gt;Node6 -->
<g id="edge5" class="edge">
<title>Node2&#45;&gt;Node6</title>
<path fill="none" stroke="midnightblue" d="M411.78,-472.97C443.91,-466.3 486.4,-457.49 524.33,-449.62"/>
<polygon fill="midnightblue" stroke="midnightblue" points="525.3,-452.99 534.38,-447.53 523.88,-446.14 525.3,-452.99"/>
</g>
<!-- Node7 -->
<g id="node7" class="node">
<title>Node7</title>
<g id="a_node7"><a xlink:href="class_python_1_1_markopy_1_1_model_matrix_c_l_i.html#a734d179536d25323ae0b421c48f61716" target="_top" xlink:title="wrapper for generate function.">
<polygon fill="none" stroke="black" points="523,-519.5 523,-553.5 712,-553.5 712,-519.5 523,-519.5"/>
<text text-anchor="start" x="531" y="-539.9" font-family="Helvetica,sans-Serif" font-size="12.00">Python.Markopy.ModelMatrix</text>
<text text-anchor="middle" x="617.5" y="-526.9" font-family="Helvetica,sans-Serif" font-size="12.00">CLI._generate</text>
</a>
</g>
</g>
<!-- Node2&#45;&gt;Node7 -->
<g id="edge7" class="edge">
<title>Node2&#45;&gt;Node7</title>
<path fill="none" stroke="midnightblue" d="M411.78,-494.03C443.91,-500.7 486.4,-509.51 524.33,-517.38"/>
<polygon fill="midnightblue" stroke="midnightblue" points="523.88,-520.86 534.38,-519.47 525.3,-514.01 523.88,-520.86"/>
</g>
<!-- Node9 -->
<g id="node9" class="node">
<title>Node9</title>
<g id="a_node9"><a xlink:href="class_python_1_1_markopy_1_1_markov_passwords_c_l_i.html#a9da87ee9e7809f86dbff169a14229cef" target="_top" xlink:title=" ">
<polygon fill="none" stroke="black" points="507,-466.5 507,-500.5 728,-500.5 728,-466.5 507,-466.5"/>
<text text-anchor="start" x="515" y="-486.9" font-family="Helvetica,sans-Serif" font-size="12.00">Python.Markopy.MarkovPasswords</text>
<text text-anchor="middle" x="617.5" y="-473.9" font-family="Helvetica,sans-Serif" font-size="12.00">CLI._generate</text>
</a>
</g>
</g>
<!-- Node2&#45;&gt;Node9 -->
<g id="edge10" class="edge">
<title>Node2&#45;&gt;Node9</title>
<path fill="none" stroke="midnightblue" d="M471.21,-483.5C479.56,-483.5 488.02,-483.5 496.43,-483.5"/>
<polygon fill="midnightblue" stroke="midnightblue" points="496.66,-487 506.66,-483.5 496.66,-480 496.66,-487"/>
</g>
<!-- Node4 -->
<g id="node4" class="node">
<title>Node4</title>
<g id="a_node4"><a xlink:href="class_markov_1_1_a_p_i_1_1_c_u_d_a_1_1_c_u_d_a_model_matrix.html#ac9d971ef67f5062f2fe756a7286a15b9" target="_top" xlink:title="Random walk on the Matrix&#45;reduced Markov::Model.">
<polygon fill="none" stroke="black" points="764,-572.5 764,-606.5 997,-606.5 997,-572.5 764,-572.5"/>
<text text-anchor="start" x="772" y="-592.9" font-family="Helvetica,sans-Serif" font-size="12.00">Markov::API::CUDA::</text>
<text text-anchor="middle" x="880.5" y="-579.9" font-family="Helvetica,sans-Serif" font-size="12.00">CUDAModelMatrix::FastRandomWalk</text>
</a>
</g>
</g>
<!-- Node3&#45;&gt;Node4 -->
<g id="edge3" class="edge">
<title>Node3&#45;&gt;Node4</title>
<path fill="none" stroke="midnightblue" d="M724.28,-589.5C733.93,-589.5 743.77,-589.5 753.57,-589.5"/>
<polygon fill="midnightblue" stroke="midnightblue" points="753.76,-593 763.76,-589.5 753.76,-586 753.76,-593"/>
</g>
<!-- Node5 -->
<g id="node5" class="node">
<title>Node5</title>
<g id="a_node5"><a xlink:href="class_markov_1_1_g_u_i_1_1_markov_passwords_g_u_i.html#a99619a46f49b909fafeaa6ac8076a333" target="_top" xlink:title=" ">
<polygon fill="none" stroke="black" points="779,-413.5 779,-447.5 982,-447.5 982,-413.5 779,-413.5"/>
<text text-anchor="start" x="787" y="-433.9" font-family="Helvetica,sans-Serif" font-size="12.00">Markov::GUI::MarkovPasswords</text>
<text text-anchor="middle" x="880.5" y="-420.9" font-family="Helvetica,sans-Serif" font-size="12.00">GUI::model</text>
</a>
</g>
</g>
<!-- Node3&#45;&gt;Node5 -->
<g id="edge4" class="edge">
<title>Node3&#45;&gt;Node5</title>
<path fill="none" stroke="midnightblue" d="M715.99,-572.38C720.28,-569.8 724.31,-566.85 728,-563.5 764.8,-530.02 727.14,-490.92 764,-457.5 765.97,-455.71 768.03,-454.04 770.18,-452.47"/>
<polygon fill="midnightblue" stroke="midnightblue" points="772.29,-455.27 778.82,-446.92 768.51,-449.38 772.29,-455.27"/>
</g>
<!-- Node6&#45;&gt;Node5 -->
<g id="edge6" class="edge">
<title>Node6&#45;&gt;Node5</title>
<path fill="none" stroke="midnightblue" d="M701.08,-430.5C722.45,-430.5 745.81,-430.5 768.38,-430.5"/>
<polygon fill="midnightblue" stroke="midnightblue" points="768.68,-434 778.68,-430.5 768.68,-427 768.68,-434"/>
</g>
<!-- Node7&#45;&gt;Node5 -->
<g id="edge9" class="edge">
<title>Node7&#45;&gt;Node5</title>
<path fill="none" stroke="midnightblue" d="M712.02,-519.52C717.63,-516.92 723.01,-513.94 728,-510.5 751.44,-494.34 740.53,-473.62 764,-457.5 766.89,-455.52 769.9,-453.68 773.01,-451.97"/>
<polygon fill="midnightblue" stroke="midnightblue" points="774.61,-455.09 782.01,-447.51 771.5,-448.82 774.61,-455.09"/>
</g>
<!-- Node8 -->
<g id="node8" class="node">
<title>Node8</title>
<g id="a_node8"><a xlink:href="class_python_1_1_markopy_1_1_model_matrix.html#ae42271d3f464fd17b5e91a95b3cffd27" target="_top" xlink:title=" ">
<polygon fill="none" stroke="black" points="784,-519.5 784,-553.5 977,-553.5 977,-519.5 784,-519.5"/>
<text text-anchor="start" x="792" y="-539.9" font-family="Helvetica,sans-Serif" font-size="12.00">Python.Markopy.ModelMatrix.</text>
<text text-anchor="middle" x="880.5" y="-526.9" font-family="Helvetica,sans-Serif" font-size="12.00">FastRandomWalk</text>
</a>
</g>
</g>
<!-- Node7&#45;&gt;Node8 -->
<g id="edge8" class="edge">
<title>Node7&#45;&gt;Node8</title>
<path fill="none" stroke="midnightblue" d="M712.36,-536.5C732.24,-536.5 753.35,-536.5 773.64,-536.5"/>
<polygon fill="midnightblue" stroke="midnightblue" points="773.84,-540 783.84,-536.5 773.84,-533 773.84,-540"/>
</g>
<!-- Node9&#45;&gt;Node5 -->
<g id="edge12" class="edge">
<title>Node9&#45;&gt;Node5</title>
<path fill="none" stroke="midnightblue" d="M702.52,-466.44C729.06,-461.05 758.56,-455.06 785.74,-449.54"/>
<polygon fill="midnightblue" stroke="midnightblue" points="786.54,-452.95 795.64,-447.53 785.14,-446.09 786.54,-452.95"/>
</g>
<!-- Node10 -->
<g id="node10" class="node">
<title>Node10</title>
<g id="a_node10"><a xlink:href="class_python_1_1_markopy_1_1_markov_model.html#a053683d627aaab8dec11ae020a2d09d3" target="_top" xlink:title=" ">
<polygon fill="none" stroke="black" points="780.5,-466.5 780.5,-500.5 980.5,-500.5 980.5,-466.5 780.5,-466.5"/>
<text text-anchor="start" x="788.5" y="-486.9" font-family="Helvetica,sans-Serif" font-size="12.00">Python.Markopy.MarkovModel.</text>
<text text-anchor="middle" x="880.5" y="-473.9" font-family="Helvetica,sans-Serif" font-size="12.00">Generate</text>
</a>
</g>
</g>
<!-- Node9&#45;&gt;Node10 -->
<g id="edge11" class="edge">
<title>Node9&#45;&gt;Node10</title>
<path fill="none" stroke="midnightblue" d="M728.05,-483.5C741.97,-483.5 756.22,-483.5 770.14,-483.5"/>
<polygon fill="midnightblue" stroke="midnightblue" points="770.2,-487 780.2,-483.5 770.2,-480 770.2,-487"/>
</g>
<!-- Node11&#45;&gt;Node5 -->
<g id="edge15" class="edge">
<title>Node11&#45;&gt;Node5</title>
<path fill="none" stroke="midnightblue" d="M452.49,-355.57C470.55,-358.89 489.37,-362.33 507,-365.5 595.4,-381.39 695.7,-398.86 769.94,-411.68"/>
<polygon fill="midnightblue" stroke="midnightblue" points="769.79,-415.21 780.24,-413.46 770.98,-408.31 769.79,-415.21"/>
</g>
<!-- Node12 -->
<g id="node12" class="node">
<title>Node12</title>
<g id="a_node12"><a xlink:href="class_python_1_1_markopy_1_1_base_c_l_i.html#a14f0a0280b7cc4a16ff018eeefdf1020" target="_top" xlink:title="check import path for validity">
<polygon fill="none" stroke="black" points="516,-321.5 516,-355.5 719,-355.5 719,-321.5 516,-321.5"/>
<text text-anchor="start" x="524" y="-341.9" font-family="Helvetica,sans-Serif" font-size="12.00">Python.Markopy.BaseCLI.check</text>
<text text-anchor="middle" x="617.5" y="-328.9" font-family="Helvetica,sans-Serif" font-size="12.00">_import_path</text>
</a>
</g>
</g>
<!-- Node11&#45;&gt;Node12 -->
<g id="edge14" class="edge">
<title>Node11&#45;&gt;Node12</title>
<path fill="none" stroke="midnightblue" d="M463.82,-338.5C477.65,-338.5 491.9,-338.5 505.86,-338.5"/>
<polygon fill="midnightblue" stroke="midnightblue" points="505.97,-342 515.97,-338.5 505.97,-335 505.97,-342"/>
</g>
<!-- Node14 -->
<g id="node14" class="node">
<title>Node14</title>
<g id="a_node14"><a xlink:href="class_markov_1_1_a_p_i_1_1_markov_passwords.html#a2fd4423ae3850e258dcb6b11a7feb9b2" target="_top" xlink:title="Train the model with the dataset file.">
<polygon fill="none" stroke="black" points="517.5,-83.5 517.5,-117.5 717.5,-117.5 717.5,-83.5 517.5,-83.5"/>
<text text-anchor="start" x="525.5" y="-103.9" font-family="Helvetica,sans-Serif" font-size="12.00">Markov::API::MarkovPasswords</text>
<text text-anchor="middle" x="617.5" y="-90.9" font-family="Helvetica,sans-Serif" font-size="12.00">::Train</text>
</a>
</g>
</g>
<!-- Node13&#45;&gt;Node14 -->
<g id="edge17" class="edge">
<title>Node13&#45;&gt;Node14</title>
<path fill="none" stroke="midnightblue" d="M437.31,-118.03C459.31,-115.88 483.76,-113.49 507.34,-111.18"/>
<polygon fill="midnightblue" stroke="midnightblue" points="507.77,-114.66 517.38,-110.2 507.09,-107.69 507.77,-114.66"/>
</g>
<!-- Node15 -->
<g id="node15" class="node">
<title>Node15</title>
<g id="a_node15"><a xlink:href="markov_passwords_8cpp.html#a3b33e6f48f5d988f336e915c5346eb95" target="_top" xlink:title=" ">
<polygon fill="none" stroke="black" points="841,-143 841,-164 920,-164 920,-143 841,-143"/>
<text text-anchor="middle" x="880.5" y="-150.4" font-family="Helvetica,sans-Serif" font-size="12.00">intHandler</text>
</a>
</g>
</g>
<!-- Node14&#45;&gt;Node15 -->
<g id="edge18" class="edge">
<title>Node14&#45;&gt;Node15</title>
<path fill="none" stroke="midnightblue" d="M690.13,-117.52C713.61,-122.89 739.87,-128.68 764,-133.5 785.85,-137.87 810.14,-142.16 830.79,-145.64"/>
<polygon fill="midnightblue" stroke="midnightblue" points="830.47,-149.13 840.91,-147.33 831.62,-142.23 830.47,-149.13"/>
</g>
<!-- Node16 -->
<g id="node16" class="node">
<title>Node16</title>
<g id="a_node16"><a xlink:href="class_markov_1_1_a_p_i_1_1_concurrency_1_1_thread_shared_list_handler.html#a08d468aa4146a30f4176bc91a40ed292" target="_top" xlink:title="Construct the Thread Handler with a filename.">
<polygon fill="none" stroke="black" points="792.5,-77 792.5,-124 968.5,-124 968.5,-77 792.5,-77"/>
<text text-anchor="start" x="800.5" y="-110.4" font-family="Helvetica,sans-Serif" font-size="12.00">Markov::API::Concurrency</text>
<text text-anchor="start" x="800.5" y="-97.4" font-family="Helvetica,sans-Serif" font-size="12.00">::ThreadSharedListHandler</text>
<text text-anchor="middle" x="880.5" y="-84.4" font-family="Helvetica,sans-Serif" font-size="12.00">::ThreadSharedListHandler</text>
</a>
</g>
</g>
<!-- Node14&#45;&gt;Node16 -->
<g id="edge19" class="edge">
<title>Node14&#45;&gt;Node16</title>
<path fill="none" stroke="midnightblue" d="M717.55,-100.5C738.74,-100.5 761.11,-100.5 782.23,-100.5"/>
<polygon fill="midnightblue" stroke="midnightblue" points="782.49,-104 792.49,-100.5 782.49,-97 782.49,-104"/>
</g>
<!-- Node17 -->
<g id="node17" class="node">
<title>Node17</title>
<g id="a_node17"><a xlink:href="class_markov_1_1_a_p_i_1_1_markov_passwords.html#a5f51b0fdb75101b797f38b08da84848e" target="_top" xlink:title="A single thread invoked by the Train function.">
<polygon fill="none" stroke="black" points="780.5,-23.5 780.5,-57.5 980.5,-57.5 980.5,-23.5 780.5,-23.5"/>
<text text-anchor="start" x="788.5" y="-43.9" font-family="Helvetica,sans-Serif" font-size="12.00">Markov::API::MarkovPasswords</text>
<text text-anchor="middle" x="880.5" y="-30.9" font-family="Helvetica,sans-Serif" font-size="12.00">::TrainThread</text>
</a>
</g>
</g>
<!-- Node14&#45;&gt;Node17 -->
<g id="edge20" class="edge">
<title>Node14&#45;&gt;Node17</title>
<path fill="none" stroke="midnightblue" d="M692.59,-83.47C724.55,-76.12 762.1,-67.49 795.13,-59.9"/>
<polygon fill="midnightblue" stroke="midnightblue" points="796.26,-63.23 805.22,-57.58 794.69,-56.41 796.26,-63.23"/>
</g>
<!-- Node18 -->
<g id="node18" class="node">
<title>Node18</title>
<g id="a_node18"><a xlink:href="class_markov_1_1_model.html#ad252913f83fa3eb14cc3f9f92c5ee37a" target="_top" xlink:title="Adjust the model with a single string.">
<polygon fill="none" stroke="black" points="1048,-54 1048,-75 1227,-75 1227,-54 1048,-54"/>
<text text-anchor="middle" x="1137.5" y="-61.4" font-family="Helvetica,sans-Serif" font-size="12.00">Markov::Model::AdjustEdge</text>
</a>
</g>
</g>
<!-- Node17&#45;&gt;Node18 -->
<g id="edge21" class="edge">
<title>Node17&#45;&gt;Node18</title>
<path fill="none" stroke="midnightblue" d="M980.82,-49.85C999.55,-51.61 1019.13,-53.45 1037.84,-55.21"/>
<polygon fill="midnightblue" stroke="midnightblue" points="1037.55,-58.7 1047.83,-56.15 1038.21,-51.73 1037.55,-58.7"/>
</g>
<!-- Node19 -->
<g id="node19" class="node">
<title>Node19</title>
<g id="a_node19"><a xlink:href="class_markov_1_1_a_p_i_1_1_concurrency_1_1_thread_shared_list_handler.html#a068e1a9ff477de23a44c10230df416a5" target="_top" xlink:title="Read the next line from the file.">
<polygon fill="none" stroke="black" points="1033,-0.5 1033,-34.5 1242,-34.5 1242,-0.5 1033,-0.5"/>
<text text-anchor="start" x="1041" y="-20.9" font-family="Helvetica,sans-Serif" font-size="12.00">Markov::API::Concurrency</text>
<text text-anchor="middle" x="1137.5" y="-7.9" font-family="Helvetica,sans-Serif" font-size="12.00">::ThreadSharedListHandler::next</text>
</a>
</g>
</g>
<!-- Node17&#45;&gt;Node19 -->
<g id="edge22" class="edge">
<title>Node17&#45;&gt;Node19</title>
<path fill="none" stroke="midnightblue" d="M980.82,-31.54C994.55,-30.3 1008.74,-29.02 1022.7,-27.76"/>
<polygon fill="midnightblue" stroke="midnightblue" points="1023.18,-31.24 1032.82,-26.85 1022.55,-24.26 1023.18,-31.24"/>
</g>
<!-- Node20&#45;&gt;Node14 -->
<g id="edge24" class="edge">
<title>Node20&#45;&gt;Node14</title>
<path fill="none" stroke="midnightblue" d="M423.12,-168.51C439.11,-164.11 456.02,-158.49 471,-151.5 488.65,-143.26 489.21,-134.44 507,-126.5 511.62,-124.44 516.43,-122.52 521.33,-120.75"/>
<polygon fill="midnightblue" stroke="midnightblue" points="522.52,-124.05 530.87,-117.52 520.28,-117.42 522.52,-124.05"/>
</g>
<!-- Node21&#45;&gt;Node5 -->
<g id="edge30" class="edge">
<title>Node21&#45;&gt;Node5</title>
<path fill="none" stroke="midnightblue" d="M457.74,-233.15C550.19,-237.95 682.07,-248.64 728,-271.5 789.36,-302.04 839.25,-368.09 863.52,-404.72"/>
<polygon fill="midnightblue" stroke="midnightblue" points="860.75,-406.88 869.13,-413.36 866.62,-403.07 860.75,-406.88"/>
</g>
<!-- Node22 -->
<g id="node22" class="node">
<title>Node22</title>
<g id="a_node22"><a xlink:href="class_python_1_1_markopy_1_1_base_c_l_i.html#a2ec72a3621f55a9b4e995ade128e1b60" target="_top" xlink:title="check import path for validity">
<polygon fill="none" stroke="black" points="516,-189.5 516,-223.5 719,-223.5 719,-189.5 516,-189.5"/>
<text text-anchor="start" x="524" y="-209.9" font-family="Helvetica,sans-Serif" font-size="12.00">Python.Markopy.BaseCLI.check</text>
<text text-anchor="middle" x="617.5" y="-196.9" font-family="Helvetica,sans-Serif" font-size="12.00">_corpus_path</text>
</a>
</g>
</g>
<!-- Node21&#45;&gt;Node22 -->
<g id="edge26" class="edge">
<title>Node21&#45;&gt;Node22</title>
<path fill="none" stroke="midnightblue" d="M457.59,-220.8C473.39,-219.38 489.87,-217.9 505.97,-216.45"/>
<polygon fill="midnightblue" stroke="midnightblue" points="506.29,-219.93 515.94,-215.55 505.67,-212.96 506.29,-219.93"/>
</g>
<!-- Node23 -->
<g id="node23" class="node">
<title>Node23</title>
<g id="a_node23"><a xlink:href="class_python_1_1_markopy_1_1_base_c_l_i.html#abd2f15b87ebfedc510ad7e95375f1a5c" target="_top" xlink:title="check import path for validity">
<polygon fill="none" stroke="black" points="516,-136.5 516,-170.5 719,-170.5 719,-136.5 516,-136.5"/>
<text text-anchor="start" x="524" y="-156.9" font-family="Helvetica,sans-Serif" font-size="12.00">Python.Markopy.BaseCLI.check</text>
<text text-anchor="middle" x="617.5" y="-143.9" font-family="Helvetica,sans-Serif" font-size="12.00">_export_path</text>
</a>
</g>
</g>
<!-- Node21&#45;&gt;Node23 -->
<g id="edge27" class="edge">
<title>Node21&#45;&gt;Node23</title>
<path fill="none" stroke="midnightblue" d="M437.6,-218.96C449.08,-216.03 460.55,-212.28 471,-207.5 489.43,-199.06 488.72,-188.26 507,-179.5 511.07,-177.55 515.31,-175.73 519.63,-174.05"/>
<polygon fill="midnightblue" stroke="midnightblue" points="521.02,-177.27 529.24,-170.58 518.64,-170.69 521.02,-177.27"/>
</g>
<!-- Node24 -->
<g id="node24" class="node">
<title>Node24</title>
<g id="a_node24"><a xlink:href="class_python_1_1_markopy_1_1_base_c_l_i.html#ad8e1d099c1958e06177c034d1d2ed52e" target="_top" xlink:title="Export model to a file.">
<polygon fill="none" stroke="black" points="514.5,-281 514.5,-302 720.5,-302 720.5,-281 514.5,-281"/>
<text text-anchor="middle" x="617.5" y="-288.4" font-family="Helvetica,sans-Serif" font-size="12.00">Python.Markopy.BaseCLI.export</text>
</a>
</g>
</g>
<!-- Node21&#45;&gt;Node24 -->
<g id="edge28" class="edge">
<title>Node21&#45;&gt;Node24</title>
<path fill="none" stroke="midnightblue" d="M401.53,-240.05C430.79,-247.59 471.28,-257.9 507,-266.5 524.04,-270.6 542.6,-274.91 559.53,-278.76"/>
<polygon fill="midnightblue" stroke="midnightblue" points="558.76,-282.18 569.28,-280.98 560.31,-275.35 558.76,-282.18"/>
</g>
<!-- Node24&#45;&gt;Node5 -->
<g id="edge29" class="edge">
<title>Node24&#45;&gt;Node5</title>
<path fill="none" stroke="midnightblue" d="M697.66,-302.03C708.1,-304.76 718.48,-308.18 728,-312.5 778.79,-335.52 827.89,-378.84 855.82,-406.1"/>
<polygon fill="midnightblue" stroke="midnightblue" points="853.56,-408.78 863.12,-413.33 858.48,-403.81 853.56,-408.78"/>
</g>
</g>
</svg>
        <g id="navigator" transform="translate(0 0)" fill="#404254">
                <rect fill="#f2f5e9" fill-opacity="0.5" stroke="#606060" stroke-width=".5" x="0" y="0" width="60" height="60"/>
                <use id="zoomplus" xlink:href="#zoomPlus" x="17" y="9" onmousedown="handleZoom(evt,'in')"/>
                <use id="zoomminus" xlink:href="#zoomMin" x="42" y="9" onmousedown="handleZoom(evt,'out')"/>
                <use id="reset" xlink:href="#resetDef" x="30" y="36" onmousedown="handleReset()"/>
                <g id="arrowUp" xlink:href="#dirArrow" transform="translate(30 24)" onmousedown="handlePan(0,-1)">
                  <use xlink:href="#rim" fill="#404040">
                        <set attributeName="fill" to="#808080" begin="arrowUp.mouseover" end="arrowUp.mouseout"/>
                  </use>
                  <path fill="none" stroke="white" stroke-width="1.5" d="M0,-3.0v7 M-2.5,-0.5L0,-3.0L2.5,-0.5"/>
                </g>
                <g id="arrowRight" xlink:href="#dirArrow" transform="rotate(90) translate(36 -43)" onmousedown="handlePan(1,0)">
                  <use xlink:href="#rim" fill="#404040">
                        <set attributeName="fill" to="#808080" begin="arrowRight.mouseover" end="arrowRight.mouseout"/>
                  </use>
                  <path fill="none" stroke="white" stroke-width="1.5" d="M0,-3.0v7 M-2.5,-0.5L0,-3.0L2.5,-0.5"/>
                </g>
                <g id="arrowDown" xlink:href="#dirArrow" transform="rotate(180) translate(-30 -48)" onmousedown="handlePan(0,1)">
                  <use xlink:href="#rim" fill="#404040">
                        <set attributeName="fill" to="#808080" begin="arrowDown.mouseover" end="arrowDown.mouseout"/>
                  </use>
                  <path fill="none" stroke="white" stroke-width="1.5" d="M0,-3.0v7 M-2.5,-0.5L0,-3.0L2.5,-0.5"/>
                </g>
                <g id="arrowLeft" xlink:href="#dirArrow" transform="rotate(270) translate(-36 17)" onmousedown="handlePan(-1,0)">
                  <use xlink:href="#rim" fill="#404040">
                        <set attributeName="fill" to="#808080" begin="arrowLeft.mouseover" end="arrowLeft.mouseout"/>
                  </use>
                  <path fill="none" stroke="white" stroke-width="1.5" d="M0,-3.0v7 M-2.5,-0.5L0,-3.0L2.5,-0.5"/>
                </g>
        </g>
        <svg viewBox="0 0 15 15" width="100%" height="30px" preserveAspectRatio="xMaxYMin meet">
         <g id="arrow_out" transform="scale(0.3 0.3)">
          <a xlink:href="class_python_1_1_markopy_1_1_base_c_l_i_aab389488e1f530cf444d9d2ef59a6998_cgraph_org.svg" target="_base">
           <rect id="button" ry="5" rx="5" y="6" x="6" height="38" width="38"
                fill="#f2f5e9" fill-opacity="0.5" stroke="#606060" stroke-width="1.0"/>
           <path id="arrow"
             d="M 11.500037,31.436501 C 11.940474,20.09759 22.043105,11.32322 32.158766,21.979434 L 37.068811,17.246167 C 37.068811,17.246167 37.088388,32 37.088388,32 L 22.160133,31.978069 C 22.160133,31.978069 26.997745,27.140456 26.997745,27.140456 C 18.528582,18.264221 13.291696,25.230495 11.500037,31.436501 z"
             style="fill:#404040;"/>
          </a>
         </g>
        </svg>
</svg>
