<?xml version="1.0" encoding="UTF-8" standalone="no"?>
<!DOCTYPE svg PUBLIC "-//W3C//DTD SVG 1.1//EN"
 "http://www.w3.org/Graphics/SVG/1.1/DTD/svg11.dtd">
<!-- Generated by graphviz version 2.43.0 (0)
 -->
<!-- Title: Markov::Edge::TraverseNode Pages: 1 -->
<svg width="424pt" height="96pt"
 viewBox="0.00 0.00 424.00 96.00" xmlns="http://www.w3.org/2000/svg" xmlns:xlink="http://www.w3.org/1999/xlink">
<g id="graph0" class="graph" transform="scale(1 1) rotate(0) translate(4 92)">
<title>Markov::Edge::TraverseNode</title>
<!-- Node1 -->
<g id="node1" class="node">
<title>Node1</title>
<g id="a_node1"><a xlink:title="Traverse this edge to RightNode.">
<polygon fill="#bfbfbf" stroke="black" points="228,-33 228,-54 416,-54 416,-33 228,-33"/>
<text text-anchor="middle" x="322" y="-40.4" font-family="Helvetica,sans-Serif" font-size="12.00">Markov::Edge::TraverseNode</text>
</a>
</g>
</g>
<!-- Node2 -->
<g id="node2" class="node">
<title>Node2</title>
<g id="a_node2"><a xlink:href="namespace_testing_1_1_m_v_p_1_1_markov_model.html#a0e3a45b149abd9dff30adc9b877f94cd" target="_top" xlink:title="Test class for minimal viable Edge.">
<polygon fill="none" stroke="black" points="6.5,-53.5 6.5,-87.5 185.5,-87.5 185.5,-53.5 6.5,-53.5"/>
<text text-anchor="start" x="14.5" y="-73.9" font-family="Helvetica,sans-Serif" font-size="12.00">Testing::MVP::MarkovModel</text>
<text text-anchor="middle" x="96" y="-60.9" font-family="Helvetica,sans-Serif" font-size="12.00">::TEST_CLASS</text>
</a>
</g>
</g>
<!-- Node1&#45;&gt;Node2 -->
<g id="edge1" class="edge">
<title>Node1&#45;&gt;Node2</title>
<path fill="none" stroke="midnightblue" d="M223.73,-55.23C211.14,-56.74 198.3,-58.29 185.85,-59.79"/>
<polygon fill="midnightblue" stroke="midnightblue" points="224.25,-58.69 233.75,-54.02 223.41,-51.74 224.25,-58.69"/>
</g>
<!-- Node3 -->
<g id="node3" class="node">
<title>Node3</title>
<g id="a_node3"><a xlink:href="class_markov_1_1_node.html#a77dbb90420f6199790a4fa986b93f85c" target="_top" xlink:title="Insert a new edge to the this.edges.">
<polygon fill="none" stroke="black" points="0,-0.5 0,-34.5 192,-34.5 192,-0.5 0,-0.5"/>
<text text-anchor="start" x="8" y="-20.9" font-family="Helvetica,sans-Serif" font-size="12.00">Markov::Node&lt; NodeStorage</text>
<text text-anchor="middle" x="96" y="-7.9" font-family="Helvetica,sans-Serif" font-size="12.00">Type &gt;::UpdateEdges</text>
</a>
</g>
</g>
<!-- Node1&#45;&gt;Node3 -->
<g id="edge2" class="edge">
<title>Node1&#45;&gt;Node3</title>
<path fill="none" stroke="midnightblue" d="M220.41,-31.82C211.02,-30.73 201.52,-29.63 192.19,-28.55"/>
<polygon fill="midnightblue" stroke="midnightblue" points="220.2,-35.32 230.54,-33 221.01,-28.37 220.2,-35.32"/>
</g>
</g>
</svg>
