<?xml version="1.0" encoding="UTF-8" standalone="no"?>
<!DOCTYPE svg PUBLIC "-//W3C//DTD SVG 1.1//EN"
 "http://www.w3.org/Graphics/SVG/1.1/DTD/svg11.dtd">
<!-- Generated by graphviz version 2.43.0 (0)
 -->
<!-- Title: Markov::Random::RandomEngine Pages: 1 -->
<svg width="396pt" height="363pt"
 viewBox="0.00 0.00 395.50 363.00" xmlns="http://www.w3.org/2000/svg" xmlns:xlink="http://www.w3.org/1999/xlink">
<g id="graph0" class="graph" transform="scale(1 1) rotate(0) translate(4 359)">
<title>Markov::Random::RandomEngine</title>
<!-- Node1 -->
<g id="node1" class="node">
<title>Node1</title>
<g id="a_node1"><a xlink:title="An abstract class for Random Engine.">
<polygon fill="#bfbfbf" stroke="black" points="84.5,-291.5 84.5,-354.5 301.5,-354.5 301.5,-291.5 84.5,-291.5"/>
<text text-anchor="middle" x="193" y="-340.9" font-family="Helvetica,sans-Serif" font-size="12.00">Markov::Random::RandomEngine</text>
<polyline fill="none" stroke="black" points="84.5,-333.5 301.5,-333.5 "/>
<text text-anchor="middle" x="193" y="-319.9" font-family="Helvetica,sans-Serif" font-size="12.00"> </text>
<polyline fill="none" stroke="black" points="84.5,-312.5 301.5,-312.5 "/>
<text text-anchor="start" x="92.5" y="-298.9" font-family="Helvetica,sans-Serif" font-size="12.00">+ random()</text>
</a>
</g>
</g>
<!-- Node2 -->
<g id="node2" class="node">
<title>Node2</title>
<g id="a_node2"><a xlink:href="class_markov_1_1_random_1_1_default_random_engine.html" target="_top" xlink:title="Implementation using Random.h default random engine.">
<polygon fill="none" stroke="black" points="83,-139.5 83,-254.5 303,-254.5 303,-139.5 83,-139.5"/>
<text text-anchor="start" x="91" y="-240.9" font-family="Helvetica,sans-Serif" font-size="12.00">Markov::Random::DefaultRandom</text>
<text text-anchor="middle" x="193" y="-227.9" font-family="Helvetica,sans-Serif" font-size="12.00">Engine</text>
<polyline fill="none" stroke="black" points="83,-220.5 303,-220.5 "/>
<text text-anchor="middle" x="193" y="-206.9" font-family="Helvetica,sans-Serif" font-size="12.00"> </text>
<polyline fill="none" stroke="black" points="83,-199.5 303,-199.5 "/>
<text text-anchor="start" x="91" y="-185.9" font-family="Helvetica,sans-Serif" font-size="12.00">+ random()</text>
<text text-anchor="start" x="91" y="-172.9" font-family="Helvetica,sans-Serif" font-size="12.00"># rd()</text>
<text text-anchor="start" x="91" y="-159.9" font-family="Helvetica,sans-Serif" font-size="12.00"># generator()</text>
<text text-anchor="start" x="91" y="-146.9" font-family="Helvetica,sans-Serif" font-size="12.00"># distribution()</text>
</a>
</g>
</g>
<!-- Node1&#45;&gt;Node2 -->
<g id="edge1" class="edge">
<title>Node1&#45;&gt;Node2</title>
<path fill="none" stroke="midnightblue" d="M193,-281.09C193,-272.7 193,-263.73 193,-254.89"/>
<polygon fill="none" stroke="midnightblue" points="189.5,-281.35 193,-291.35 196.5,-281.35 189.5,-281.35"/>
</g>
<!-- Node3 -->
<g id="node3" class="node">
<title>Node3</title>
<g id="a_node3"><a xlink:href="class_markov_1_1_random_1_1_marsaglia.html" target="_top" xlink:title="Implementation of Marsaglia Random Engine.">
<polygon fill="none" stroke="black" points="0,-0.5 0,-102.5 184,-102.5 184,-0.5 0,-0.5"/>
<text text-anchor="middle" x="92" y="-88.9" font-family="Helvetica,sans-Serif" font-size="12.00">Markov::Random::Marsaglia</text>
<polyline fill="none" stroke="black" points="0,-81.5 184,-81.5 "/>
<text text-anchor="start" x="8" y="-67.9" font-family="Helvetica,sans-Serif" font-size="12.00">+ x</text>
<text text-anchor="start" x="8" y="-54.9" font-family="Helvetica,sans-Serif" font-size="12.00">+ y</text>
<text text-anchor="start" x="8" y="-41.9" font-family="Helvetica,sans-Serif" font-size="12.00">+ z</text>
<polyline fill="none" stroke="black" points="0,-34.5 184,-34.5 "/>
<text text-anchor="start" x="8" y="-20.9" font-family="Helvetica,sans-Serif" font-size="12.00">+ Marsaglia()</text>
<text text-anchor="start" x="8" y="-7.9" font-family="Helvetica,sans-Serif" font-size="12.00">+ random()</text>
</a>
</g>
</g>
<!-- Node2&#45;&gt;Node3 -->
<g id="edge2" class="edge">
<title>Node2&#45;&gt;Node3</title>
<path fill="none" stroke="midnightblue" d="M147.26,-131.01C140.58,-121.53 133.8,-111.89 127.37,-102.76"/>
<polygon fill="none" stroke="midnightblue" points="144.46,-133.12 153.08,-139.29 150.19,-129.09 144.46,-133.12"/>
</g>
<!-- Node4 -->
<g id="node4" class="node">
<title>Node4</title>
<g id="a_node4"><a xlink:href="class_markov_1_1_random_1_1_mersenne.html" target="_top" xlink:title="Implementation of Mersenne Twister Engine.">
<polygon fill="none" stroke="black" points="202.5,-20 202.5,-83 387.5,-83 387.5,-20 202.5,-20"/>
<text text-anchor="middle" x="295" y="-69.4" font-family="Helvetica,sans-Serif" font-size="12.00">Markov::Random::Mersenne</text>
<polyline fill="none" stroke="black" points="202.5,-62 387.5,-62 "/>
<text text-anchor="middle" x="295" y="-48.4" font-family="Helvetica,sans-Serif" font-size="12.00"> </text>
<polyline fill="none" stroke="black" points="202.5,-41 387.5,-41 "/>
<text text-anchor="middle" x="295" y="-27.4" font-family="Helvetica,sans-Serif" font-size="12.00"> </text>
</a>
</g>
</g>
<!-- Node2&#45;&gt;Node4 -->
<g id="edge3" class="edge">
<title>Node2&#45;&gt;Node4</title>
<path fill="none" stroke="midnightblue" d="M239.42,-130.69C251.18,-114.15 263.27,-97.14 273.16,-83.23"/>
<polygon fill="none" stroke="midnightblue" points="236.25,-129.11 233.31,-139.29 241.96,-133.16 236.25,-129.11"/>
</g>
</g>
</svg>
