<?xml version="1.0" encoding="UTF-8" standalone="no"?>
<!DOCTYPE svg PUBLIC "-//W3C//DTD SVG 1.1//EN"
 "http://www.w3.org/Graphics/SVG/1.1/DTD/svg11.dtd">
<!-- Generated by graphviz version 2.43.0 (0)
 -->
<!-- Title: Markov::API::CLI::Terminal Pages: 1 -->
<svg width="304pt" height="577pt"
 viewBox="0.00 0.00 303.50 577.00" xmlns="http://www.w3.org/2000/svg" xmlns:xlink="http://www.w3.org/1999/xlink">
<g id="graph0" class="graph" transform="scale(1 1) rotate(0) translate(4 573)">
<title>Markov::API::CLI::Terminal</title>
<!-- Node1 -->
<g id="node1" class="node">
<title>Node1</title>
<g id="a_node1"><a xlink:title="pretty colors for Terminal. Windows Only.">
<polygon fill="#bfbfbf" stroke="black" points="62,-0.5 62,-63.5 232,-63.5 232,-0.5 62,-0.5"/>
<text text-anchor="middle" x="147" y="-49.9" font-family="Helvetica,sans-Serif" font-size="12.00">Markov::API::CLI::Terminal</text>
<polyline fill="none" stroke="black" points="62,-42.5 232,-42.5 "/>
<text text-anchor="middle" x="147" y="-28.9" font-family="Helvetica,sans-Serif" font-size="12.00"> </text>
<polyline fill="none" stroke="black" points="62,-21.5 232,-21.5 "/>
<text text-anchor="start" x="70" y="-7.9" font-family="Helvetica,sans-Serif" font-size="12.00">+ Terminal()</text>
</a>
</g>
</g>
<!-- Node2 -->
<g id="node2" class="node">
<title>Node2</title>
<g id="a_node2"><a xlink:title=" ">
<polygon fill="none" stroke="#bfbfbf" points="0,-113.5 0,-215.5 154,-215.5 154,-113.5 0,-113.5"/>
<text text-anchor="start" x="8" y="-201.9" font-family="Helvetica,sans-Serif" font-size="12.00">std::map&lt; Markov::API</text>
<text text-anchor="start" x="8" y="-188.9" font-family="Helvetica,sans-Serif" font-size="12.00">::CLI::Terminal::color,</text>
<text text-anchor="middle" x="77" y="-175.9" font-family="Helvetica,sans-Serif" font-size="12.00"> int &gt;</text>
<polyline fill="none" stroke="#bfbfbf" points="0,-168.5 154,-168.5 "/>
<text text-anchor="start" x="8" y="-154.9" font-family="Helvetica,sans-Serif" font-size="12.00">+ keys</text>
<text text-anchor="start" x="8" y="-141.9" font-family="Helvetica,sans-Serif" font-size="12.00">+ elements</text>
<polyline fill="none" stroke="#bfbfbf" points="0,-134.5 154,-134.5 "/>
<text text-anchor="middle" x="77" y="-120.9" font-family="Helvetica,sans-Serif" font-size="12.00"> </text>
</a>
</g>
</g>
<!-- Node2&#45;&gt;Node1 -->
<g id="edge1" class="edge">
<title>Node2&#45;&gt;Node1</title>
<path fill="none" stroke="#404040" d="M98.21,-113.28C103.08,-102.79 108.47,-91.9 114,-82 115.49,-79.34 117.08,-76.63 118.72,-73.93"/>
<polygon fill="none" stroke="#404040" points="118.83,-73.75 118.66,-66.54 125.25,-63.61 125.42,-70.82 118.83,-73.75"/>
<text text-anchor="middle" x="149" y="-85.4" font-family="Helvetica,sans-Serif" font-size="12.00"> +colormap</text>
</g>
<!-- Node3 -->
<g id="node3" class="node">
<title>Node3</title>
<g id="a_node3"><a xlink:title="STL class.">
<polygon fill="none" stroke="#bfbfbf" points="15.5,-285 15.5,-348 134.5,-348 134.5,-285 15.5,-285"/>
<text text-anchor="middle" x="75" y="-334.4" font-family="Helvetica,sans-Serif" font-size="12.00">std::map&lt; K, T &gt;</text>
<polyline fill="none" stroke="#bfbfbf" points="15.5,-327 134.5,-327 "/>
<text text-anchor="middle" x="75" y="-313.4" font-family="Helvetica,sans-Serif" font-size="12.00"> </text>
<polyline fill="none" stroke="#bfbfbf" points="15.5,-306 134.5,-306 "/>
<text text-anchor="middle" x="75" y="-292.4" font-family="Helvetica,sans-Serif" font-size="12.00"> </text>
</a>
</g>
</g>
<!-- Node3&#45;&gt;Node2 -->
<g id="edge2" class="edge">
<title>Node3&#45;&gt;Node2</title>
<path fill="none" stroke="orange" d="M75.54,-274.77C75.79,-256.55 76.07,-234.88 76.33,-215.66"/>
<polygon fill="orange" stroke="orange" points="72.04,-274.74 75.41,-284.78 79.04,-274.83 72.04,-274.74"/>
<text text-anchor="start" x="77" y="-250.4" font-family="Helvetica,sans-Serif" font-size="12.00"> &lt; Markov::API::CLI</text>
<text text-anchor="middle" x="142" y="-237.4" font-family="Helvetica,sans-Serif" font-size="12.00">::Terminal::color, int &gt;</text>
</g>
<!-- Node4 -->
<g id="node4" class="node">
<title>Node4</title>
<g id="a_node4"><a xlink:title=" ">
<polygon fill="none" stroke="#bfbfbf" points="15.5,-404.5 15.5,-467.5 44.5,-467.5 44.5,-404.5 15.5,-404.5"/>
<text text-anchor="middle" x="30" y="-453.9" font-family="Helvetica,sans-Serif" font-size="12.00">K</text>
<polyline fill="none" stroke="#bfbfbf" points="15.5,-446.5 44.5,-446.5 "/>
<text text-anchor="middle" x="30" y="-432.9" font-family="Helvetica,sans-Serif" font-size="12.00"> </text>
<polyline fill="none" stroke="#bfbfbf" points="15.5,-425.5 44.5,-425.5 "/>
<text text-anchor="middle" x="30" y="-411.9" font-family="Helvetica,sans-Serif" font-size="12.00"> </text>
</a>
</g>
</g>
<!-- Node4&#45;&gt;Node3 -->
<g id="edge3" class="edge">
<title>Node4&#45;&gt;Node3</title>
<path fill="none" stroke="#404040" d="M32.45,-404.41C33.92,-394.19 36.26,-382.89 40,-373 41.81,-368.2 44.07,-363.38 46.56,-358.69"/>
<polygon fill="none" stroke="#404040" points="46.7,-358.44 46.23,-351.24 52.69,-348.04 53.16,-355.24 46.7,-358.44"/>
<text text-anchor="middle" x="60.5" y="-376.4" font-family="Helvetica,sans-Serif" font-size="12.00"> +keys</text>
</g>
<!-- Node5 -->
<g id="node5" class="node">
<title>Node5</title>
<g id="a_node5"><a xlink:title=" ">
<polygon fill="none" stroke="#bfbfbf" points="79.5,-404.5 79.5,-467.5 108.5,-467.5 108.5,-404.5 79.5,-404.5"/>
<text text-anchor="middle" x="94" y="-453.9" font-family="Helvetica,sans-Serif" font-size="12.00">T</text>
<polyline fill="none" stroke="#bfbfbf" points="79.5,-446.5 108.5,-446.5 "/>
<text text-anchor="middle" x="94" y="-432.9" font-family="Helvetica,sans-Serif" font-size="12.00"> </text>
<polyline fill="none" stroke="#bfbfbf" points="79.5,-425.5 108.5,-425.5 "/>
<text text-anchor="middle" x="94" y="-411.9" font-family="Helvetica,sans-Serif" font-size="12.00"> </text>
</a>
</g>
</g>
<!-- Node5&#45;&gt;Node3 -->
<g id="edge4" class="edge">
<title>Node5&#45;&gt;Node3</title>
<path fill="none" stroke="#404040" d="M89.06,-404.43C86.88,-390.94 84.27,-374.85 81.9,-360.2"/>
<polygon fill="none" stroke="#404040" points="81.9,-360.17 76.99,-354.88 79.98,-348.32 84.89,-353.6 81.9,-360.17"/>
<text text-anchor="middle" x="121" y="-376.4" font-family="Helvetica,sans-Serif" font-size="12.00"> +elements</text>
</g>
<!-- Node6 -->
<g id="node6" class="node">
<title>Node6</title>
<g id="a_node6"><a xlink:title="STL class.">
<polygon fill="none" stroke="#bfbfbf" points="173,-133 173,-196 265,-196 265,-133 173,-133"/>
<text text-anchor="middle" x="219" y="-182.4" font-family="Helvetica,sans-Serif" font-size="12.00">std::ostream</text>
<polyline fill="none" stroke="#bfbfbf" points="173,-175 265,-175 "/>
<text text-anchor="middle" x="219" y="-161.4" font-family="Helvetica,sans-Serif" font-size="12.00"> </text>
<polyline fill="none" stroke="#bfbfbf" points="173,-154 265,-154 "/>
<text text-anchor="middle" x="219" y="-140.4" font-family="Helvetica,sans-Serif" font-size="12.00"> </text>
</a>
</g>
</g>
<!-- Node6&#45;&gt;Node1 -->
<g id="edge5" class="edge">
<title>Node6&#45;&gt;Node1</title>
<path fill="none" stroke="#404040" d="M207.87,-132.85C201.69,-117.2 193.36,-98.11 184,-82 182.37,-79.2 180.61,-76.38 178.77,-73.57"/>
<polygon fill="none" stroke="#404040" points="178.69,-73.45 171.99,-70.8 171.86,-63.59 178.56,-66.24 178.69,-73.45"/>
<text text-anchor="middle" x="211" y="-85.4" font-family="Helvetica,sans-Serif" font-size="12.00"> +endl</text>
</g>
<!-- Node7 -->
<g id="node7" class="node">
<title>Node7</title>
<g id="a_node7"><a xlink:title="STL class.">
<polygon fill="none" stroke="#bfbfbf" points="156,-278.5 156,-354.5 284,-354.5 284,-278.5 156,-278.5"/>
<text text-anchor="start" x="164" y="-340.9" font-family="Helvetica,sans-Serif" font-size="12.00">std::basic_ostream</text>
<text text-anchor="middle" x="220" y="-327.9" font-family="Helvetica,sans-Serif" font-size="12.00">&lt; char &gt;</text>
<polyline fill="none" stroke="#bfbfbf" points="156,-320.5 284,-320.5 "/>
<text text-anchor="middle" x="220" y="-306.9" font-family="Helvetica,sans-Serif" font-size="12.00"> </text>
<polyline fill="none" stroke="#bfbfbf" points="156,-299.5 284,-299.5 "/>
<text text-anchor="middle" x="220" y="-285.9" font-family="Helvetica,sans-Serif" font-size="12.00"> </text>
</a>
</g>
</g>
<!-- Node7&#45;&gt;Node6 -->
<g id="edge6" class="edge">
<title>Node7&#45;&gt;Node6</title>
<path fill="none" stroke="midnightblue" d="M219.69,-268.27C219.53,-244.69 219.34,-216.85 219.2,-196.1"/>
<polygon fill="none" stroke="midnightblue" points="216.19,-268.44 219.75,-278.42 223.19,-268.4 216.19,-268.44"/>
</g>
<!-- Node8 -->
<g id="node8" class="node">
<title>Node8</title>
<g id="a_node8"><a xlink:title="STL class.">
<polygon fill="none" stroke="#bfbfbf" points="144.5,-404.5 144.5,-467.5 295.5,-467.5 295.5,-404.5 144.5,-404.5"/>
<text text-anchor="middle" x="220" y="-453.9" font-family="Helvetica,sans-Serif" font-size="12.00">std::basic_ios&lt; Char &gt;</text>
<polyline fill="none" stroke="#bfbfbf" points="144.5,-446.5 295.5,-446.5 "/>
<text text-anchor="middle" x="220" y="-432.9" font-family="Helvetica,sans-Serif" font-size="12.00"> </text>
<polyline fill="none" stroke="#bfbfbf" points="144.5,-425.5 295.5,-425.5 "/>
<text text-anchor="middle" x="220" y="-411.9" font-family="Helvetica,sans-Serif" font-size="12.00"> </text>
</a>
</g>
</g>
<!-- Node8&#45;&gt;Node7 -->
<g id="edge7" class="edge">
<title>Node8&#45;&gt;Node7</title>
<path fill="none" stroke="midnightblue" d="M220,-394.41C220,-381.49 220,-367.28 220,-354.62"/>
<polygon fill="none" stroke="midnightblue" points="216.5,-394.43 220,-404.43 223.5,-394.44 216.5,-394.43"/>
</g>
<!-- Node9 -->
<g id="node9" class="node">
<title>Node9</title>
<g id="a_node9"><a xlink:title="STL class.">
<polygon fill="none" stroke="#bfbfbf" points="173.5,-505.5 173.5,-568.5 266.5,-568.5 266.5,-505.5 173.5,-505.5"/>
<text text-anchor="middle" x="220" y="-554.9" font-family="Helvetica,sans-Serif" font-size="12.00">std::ios_base</text>
<polyline fill="none" stroke="#bfbfbf" points="173.5,-547.5 266.5,-547.5 "/>
<text text-anchor="middle" x="220" y="-533.9" font-family="Helvetica,sans-Serif" font-size="12.00"> </text>
<polyline fill="none" stroke="#bfbfbf" points="173.5,-526.5 266.5,-526.5 "/>
<text text-anchor="middle" x="220" y="-512.9" font-family="Helvetica,sans-Serif" font-size="12.00"> </text>
</a>
</g>
</g>
<!-- Node9&#45;&gt;Node8 -->
<g id="edge8" class="edge">
<title>Node9&#45;&gt;Node8</title>
<path fill="none" stroke="midnightblue" d="M220,-495.28C220,-486.02 220,-476.34 220,-467.58"/>
<polygon fill="none" stroke="midnightblue" points="216.5,-495.49 220,-505.49 223.5,-495.49 216.5,-495.49"/>
</g>
</g>
</svg>
