<?xml version="1.0" encoding="UTF-8" standalone="no"?>
<!DOCTYPE svg PUBLIC "-//W3C//DTD SVG 1.1//EN"
 "http://www.w3.org/Graphics/SVG/1.1/DTD/svg11.dtd">
<!-- Generated by graphviz version 2.43.0 (0)
 -->
<!-- Title: Python.Markopy.BaseCLI.train Pages: 1 -->
<!--zoomable 163 -->
<svg id="main" version="1.1" xmlns="http://www.w3.org/2000/svg" xmlns:xlink="http://www.w3.org/1999/xlink" xml:space="preserve" onload="init(evt)">
<style type="text/css"><![CDATA[
.edge:hover path { stroke: red; }
.edge:hover polygon { stroke: red; fill: red; }
]]></style>
<script type="text/javascript"><![CDATA[
var edges = document.getElementsByTagName('g');
if (edges && edges.length) {
  for (var i=0;i<edges.length;i++) {
    if (edges[i].id.substr(0,4)=='edge') {
      edges[i].setAttribute('class','edge');
    }
  }
}
]]></script>
        <defs>
                <circle id="rim" cx="0" cy="0" r="7"/>
                <circle id="rim2" cx="0" cy="0" r="3.5"/>
                <g id="zoomPlus">
                        <use xlink:href="#rim" fill="#404040">
                                <set attributeName="fill" to="#808080" begin="zoomplus.mouseover" end="zoomplus.mouseout"/>
                        </use>
                        <path d="M-4,0h8M0,-4v8" fill="none" stroke="white" stroke-width="1.5" pointer-events="none"/>
                </g>
                <g id="zoomMin">
                        <use xlink:href="#rim" fill="#404040">
                                <set attributeName="fill" to="#808080" begin="zoomminus.mouseover" end="zoomminus.mouseout"/>
                        </use>
                        <path d="M-4,0h8" fill="none" stroke="white" stroke-width="1.5" pointer-events="none"/>
                </g>
                <g id="dirArrow">
                        <path fill="none" stroke="white" stroke-width="1.5" d="M0,-3.0v7 M-2.5,-0.5L0,-3.0L2.5,-0.5"/>
                </g>
               <g id="resetDef">
                       <use xlink:href="#rim2" fill="#404040">
                               <set attributeName="fill" to="#808080" begin="reset.mouseover" end="reset.mouseout"/>
                       </use>
               </g>
        </defs>

<script type="text/javascript">
var viewWidth = 684;
var viewHeight = 163;
var sectionId = 'dynsection-158';
</script>
<script xlink:href="svgpan.js"/>
<svg id="graph" class="graph">
<g id="viewport">
<title>Python.Markopy.BaseCLI.train</title>
<!-- Node1 -->
<g id="node1" class="node">
<title>Node1</title>
<g id="a_node1"><a xlink:title="Train a model via CLI parameters.">
<polygon fill="#bfbfbf" stroke="black" points="0,-50 0,-71 195,-71 195,-50 0,-50"/>
<text text-anchor="middle" x="97.5" y="-57.4" font-family="Helvetica,sans-Serif" font-size="12.00">Python.Markopy.BaseCLI.train</text>
</a>
</g>
</g>
<!-- Node2 -->
<g id="node2" class="node">
<title>Node2</title>
<g id="a_node2"><a xlink:href="class_python_1_1_markopy_1_1_base_c_l_i.html#a2ec72a3621f55a9b4e995ade128e1b60" target="_top" xlink:title="check import path for validity">
<polygon fill="none" stroke="black" points="232.5,-120.5 232.5,-154.5 435.5,-154.5 435.5,-120.5 232.5,-120.5"/>
<text text-anchor="start" x="240.5" y="-140.9" font-family="Helvetica,sans-Serif" font-size="12.00">Python.Markopy.BaseCLI.check</text>
<text text-anchor="middle" x="334" y="-127.9" font-family="Helvetica,sans-Serif" font-size="12.00">_corpus_path</text>
</a>
</g>
</g>
<!-- Node1&#45;&gt;Node2 -->
<g id="edge1" class="edge">
<title>Node1&#45;&gt;Node2</title>
<path fill="none" stroke="midnightblue" d="M123.59,-71.17C150,-82.17 192.95,-99.38 231,-111.5 237.76,-113.66 244.82,-115.76 251.93,-117.77"/>
<polygon fill="midnightblue" stroke="midnightblue" points="251.06,-121.16 261.64,-120.45 252.93,-114.41 251.06,-121.16"/>
</g>
<!-- Node3 -->
<g id="node3" class="node">
<title>Node3</title>
<g id="a_node3"><a xlink:href="class_python_1_1_markopy_1_1_base_c_l_i.html#abd2f15b87ebfedc510ad7e95375f1a5c" target="_top" xlink:title="check import path for validity">
<polygon fill="none" stroke="black" points="232.5,-67.5 232.5,-101.5 435.5,-101.5 435.5,-67.5 232.5,-67.5"/>
<text text-anchor="start" x="240.5" y="-87.9" font-family="Helvetica,sans-Serif" font-size="12.00">Python.Markopy.BaseCLI.check</text>
<text text-anchor="middle" x="334" y="-74.9" font-family="Helvetica,sans-Serif" font-size="12.00">_export_path</text>
</a>
</g>
</g>
<!-- Node1&#45;&gt;Node3 -->
<g id="edge2" class="edge">
<title>Node1&#45;&gt;Node3</title>
<path fill="none" stroke="midnightblue" d="M195.23,-70.4C204.13,-71.31 213.18,-72.24 222.18,-73.16"/>
<polygon fill="midnightblue" stroke="midnightblue" points="222.01,-76.66 232.31,-74.2 222.72,-69.7 222.01,-76.66"/>
</g>
<!-- Node4 -->
<g id="node4" class="node">
<title>Node4</title>
<g id="a_node4"><a xlink:href="class_python_1_1_markopy_1_1_base_c_l_i.html#ad8e1d099c1958e06177c034d1d2ed52e" target="_top" xlink:title="Export model to a file.">
<polygon fill="none" stroke="black" points="231,-27 231,-48 437,-48 437,-27 231,-27"/>
<text text-anchor="middle" x="334" y="-34.4" font-family="Helvetica,sans-Serif" font-size="12.00">Python.Markopy.BaseCLI.export</text>
</a>
</g>
</g>
<!-- Node1&#45;&gt;Node4 -->
<g id="edge3" class="edge">
<title>Node1&#45;&gt;Node4</title>
<path fill="none" stroke="midnightblue" d="M195.23,-51.01C203.67,-50.19 212.25,-49.34 220.79,-48.51"/>
<polygon fill="midnightblue" stroke="midnightblue" points="221.18,-51.98 230.79,-47.52 220.5,-45.02 221.18,-51.98"/>
</g>
<!-- Node5 -->
<g id="node5" class="node">
<title>Node5</title>
<g id="a_node5"><a xlink:href="class_markov_1_1_g_u_i_1_1_markov_passwords_g_u_i.html#a99619a46f49b909fafeaa6ac8076a333" target="_top" xlink:title=" ">
<polygon fill="none" stroke="black" points="473,-0.5 473,-34.5 676,-34.5 676,-0.5 473,-0.5"/>
<text text-anchor="start" x="481" y="-20.9" font-family="Helvetica,sans-Serif" font-size="12.00">Markov::GUI::MarkovPasswords</text>
<text text-anchor="middle" x="574.5" y="-7.9" font-family="Helvetica,sans-Serif" font-size="12.00">GUI::model</text>
</a>
</g>
</g>
<!-- Node1&#45;&gt;Node5 -->
<g id="edge5" class="edge">
<title>Node1&#45;&gt;Node5</title>
<path fill="none" stroke="midnightblue" d="M123.32,-49.84C149.52,-39.22 192.3,-23.62 231,-17.5 307.67,-5.37 395.21,-5.61 462.6,-8.76"/>
<polygon fill="midnightblue" stroke="midnightblue" points="462.65,-12.27 472.82,-9.27 463,-5.28 462.65,-12.27"/>
</g>
<!-- Node4&#45;&gt;Node5 -->
<g id="edge4" class="edge">
<title>Node4&#45;&gt;Node5</title>
<path fill="none" stroke="midnightblue" d="M437.18,-28.93C445.54,-28.23 454.02,-27.52 462.44,-26.81"/>
<polygon fill="midnightblue" stroke="midnightblue" points="462.99,-30.28 472.67,-25.96 462.41,-23.3 462.99,-30.28"/>
</g>
</g>
</svg>
        <g id="navigator" transform="translate(0 0)" fill="#404254">
                <rect fill="#f2f5e9" fill-opacity="0.5" stroke="#606060" stroke-width=".5" x="0" y="0" width="60" height="60"/>
                <use id="zoomplus" xlink:href="#zoomPlus" x="17" y="9" onmousedown="handleZoom(evt,'in')"/>
                <use id="zoomminus" xlink:href="#zoomMin" x="42" y="9" onmousedown="handleZoom(evt,'out')"/>
                <use id="reset" xlink:href="#resetDef" x="30" y="36" onmousedown="handleReset()"/>
                <g id="arrowUp" xlink:href="#dirArrow" transform="translate(30 24)" onmousedown="handlePan(0,-1)">
                  <use xlink:href="#rim" fill="#404040">
                        <set attributeName="fill" to="#808080" begin="arrowUp.mouseover" end="arrowUp.mouseout"/>
                  </use>
                  <path fill="none" stroke="white" stroke-width="1.5" d="M0,-3.0v7 M-2.5,-0.5L0,-3.0L2.5,-0.5"/>
                </g>
                <g id="arrowRight" xlink:href="#dirArrow" transform="rotate(90) translate(36 -43)" onmousedown="handlePan(1,0)">
                  <use xlink:href="#rim" fill="#404040">
                        <set attributeName="fill" to="#808080" begin="arrowRight.mouseover" end="arrowRight.mouseout"/>
                  </use>
                  <path fill="none" stroke="white" stroke-width="1.5" d="M0,-3.0v7 M-2.5,-0.5L0,-3.0L2.5,-0.5"/>
                </g>
                <g id="arrowDown" xlink:href="#dirArrow" transform="rotate(180) translate(-30 -48)" onmousedown="handlePan(0,1)">
                  <use xlink:href="#rim" fill="#404040">
                        <set attributeName="fill" to="#808080" begin="arrowDown.mouseover" end="arrowDown.mouseout"/>
                  </use>
                  <path fill="none" stroke="white" stroke-width="1.5" d="M0,-3.0v7 M-2.5,-0.5L0,-3.0L2.5,-0.5"/>
                </g>
                <g id="arrowLeft" xlink:href="#dirArrow" transform="rotate(270) translate(-36 17)" onmousedown="handlePan(-1,0)">
                  <use xlink:href="#rim" fill="#404040">
                        <set attributeName="fill" to="#808080" begin="arrowLeft.mouseover" end="arrowLeft.mouseout"/>
                  </use>
                  <path fill="none" stroke="white" stroke-width="1.5" d="M0,-3.0v7 M-2.5,-0.5L0,-3.0L2.5,-0.5"/>
                </g>
        </g>
        <svg viewBox="0 0 15 15" width="100%" height="30px" preserveAspectRatio="xMaxYMin meet">
         <g id="arrow_out" transform="scale(0.3 0.3)">
          <a xlink:href="class_python_1_1_markopy_1_1_base_c_l_i_a4d0f291accfd276eb967e1121124274b_cgraph_org.svg" target="_base">
           <rect id="button" ry="5" rx="5" y="6" x="6" height="38" width="38"
                fill="#f2f5e9" fill-opacity="0.5" stroke="#606060" stroke-width="1.0"/>
           <path id="arrow"
             d="M 11.500037,31.436501 C 11.940474,20.09759 22.043105,11.32322 32.158766,21.979434 L 37.068811,17.246167 C 37.068811,17.246167 37.088388,32 37.088388,32 L 22.160133,31.978069 C 22.160133,31.978069 26.997745,27.140456 26.997745,27.140456 C 18.528582,18.264221 13.291696,25.230495 11.500037,31.436501 z"
             style="fill:#404040;"/>
          </a>
         </g>
        </svg>
</svg>
