<?xml version="1.0" encoding="UTF-8" standalone="no"?>
<!DOCTYPE svg PUBLIC "-//W3C//DTD SVG 1.1//EN"
 "http://www.w3.org/Graphics/SVG/1.1/DTD/svg11.dtd">
<!-- Generated by graphviz version 2.43.0 (0)
 -->
<!-- Title: Markov::GUI::CLI::CLI Pages: 1 -->
<svg width="363pt" height="110pt"
 viewBox="0.00 0.00 363.00 110.00" xmlns="http://www.w3.org/2000/svg" xmlns:xlink="http://www.w3.org/1999/xlink">
<g id="graph0" class="graph" transform="scale(1 1) rotate(0) translate(4 106)">
<title>Markov::GUI::CLI::CLI</title>
<!-- Node1 -->
<g id="node1" class="node">
<title>Node1</title>
<g id="a_node1"><a xlink:title=" ">
<polygon fill="#bfbfbf" stroke="black" points="0,-40.5 0,-61.5 143,-61.5 143,-40.5 0,-40.5"/>
<text text-anchor="middle" x="71.5" y="-47.9" font-family="Helvetica,sans-Serif" font-size="12.00">Markov::GUI::CLI::CLI</text>
</a>
</g>
</g>
<!-- Node2 -->
<g id="node2" class="node">
<title>Node2</title>
<g id="a_node2"><a xlink:href="class_markov_1_1_g_u_i_1_1_c_l_i.html#afd53e83febbbb8bdaed5f58b084f3ce2" target="_top" xlink:title=" ">
<polygon fill="none" stroke="black" points="188,-80.5 188,-101.5 346,-101.5 346,-80.5 188,-80.5"/>
<text text-anchor="middle" x="267" y="-87.9" font-family="Helvetica,sans-Serif" font-size="12.00">Markov::GUI::CLI::about</text>
</a>
</g>
</g>
<!-- Node1&#45;&gt;Node2 -->
<g id="edge1" class="edge">
<title>Node1&#45;&gt;Node2</title>
<path fill="none" stroke="midnightblue" d="M123.34,-61.51C148.46,-66.7 178.96,-73.01 205.29,-78.45"/>
<polygon fill="midnightblue" stroke="midnightblue" points="204.66,-81.89 215.16,-80.49 206.08,-75.04 204.66,-81.89"/>
</g>
<!-- Node3 -->
<g id="node3" class="node">
<title>Node3</title>
<g id="a_node3"><a xlink:href="class_markov_1_1_g_u_i_1_1_c_l_i.html#aff8081f3baac288e70163e720a60a1e7" target="_top" xlink:title=" ">
<polygon fill="none" stroke="black" points="191,-40.5 191,-61.5 343,-61.5 343,-40.5 191,-40.5"/>
<text text-anchor="middle" x="267" y="-47.9" font-family="Helvetica,sans-Serif" font-size="12.00">Markov::GUI::CLI::start</text>
</a>
</g>
</g>
<!-- Node1&#45;&gt;Node3 -->
<g id="edge2" class="edge">
<title>Node1&#45;&gt;Node3</title>
<path fill="none" stroke="midnightblue" d="M143.18,-51C155.45,-51 168.32,-51 180.92,-51"/>
<polygon fill="midnightblue" stroke="midnightblue" points="180.95,-54.5 190.95,-51 180.95,-47.5 180.95,-54.5"/>
</g>
<!-- Node4 -->
<g id="node4" class="node">
<title>Node4</title>
<g id="a_node4"><a xlink:href="class_markov_1_1_g_u_i_1_1_c_l_i.html#a1695cccf724c76f48e4931e2f636512d" target="_top" xlink:title=" ">
<polygon fill="none" stroke="black" points="179,-0.5 179,-21.5 355,-21.5 355,-0.5 179,-0.5"/>
<text text-anchor="middle" x="267" y="-7.9" font-family="Helvetica,sans-Serif" font-size="12.00">Markov::GUI::CLI::statistics</text>
</a>
</g>
</g>
<!-- Node1&#45;&gt;Node4 -->
<g id="edge3" class="edge">
<title>Node1&#45;&gt;Node4</title>
<path fill="none" stroke="midnightblue" d="M123.34,-40.49C148.46,-35.3 178.96,-28.99 205.29,-23.55"/>
<polygon fill="midnightblue" stroke="midnightblue" points="206.08,-26.96 215.16,-21.51 204.66,-20.11 206.08,-26.96"/>
</g>
</g>
</svg>
