<?xml version="1.0" encoding="UTF-8" standalone="no"?>
<!DOCTYPE svg PUBLIC "-//W3C//DTD SVG 1.1//EN"
 "http://www.w3.org/Graphics/SVG/1.1/DTD/svg11.dtd">
<!-- Generated by graphviz version 2.43.0 (0)
 -->
<!-- Title: Python.Markopy.MarkopyCLI.parse Pages: 1 -->
<!--zoomable 773 -->
<svg id="main" version="1.1" xmlns="http://www.w3.org/2000/svg" xmlns:xlink="http://www.w3.org/1999/xlink" xml:space="preserve" onload="init(evt)">
<style type="text/css"><![CDATA[
.edge:hover path { stroke: red; }
.edge:hover polygon { stroke: red; fill: red; }
]]></style>
<script type="text/javascript"><![CDATA[
var edges = document.getElementsByTagName('g');
if (edges && edges.length) {
  for (var i=0;i<edges.length;i++) {
    if (edges[i].id.substr(0,4)=='edge') {
      edges[i].setAttribute('class','edge');
    }
  }
}
]]></script>
        <defs>
                <circle id="rim" cx="0" cy="0" r="7"/>
                <circle id="rim2" cx="0" cy="0" r="3.5"/>
                <g id="zoomPlus">
                        <use xlink:href="#rim" fill="#404040">
                                <set attributeName="fill" to="#808080" begin="zoomplus.mouseover" end="zoomplus.mouseout"/>
                        </use>
                        <path d="M-4,0h8M0,-4v8" fill="none" stroke="white" stroke-width="1.5" pointer-events="none"/>
                </g>
                <g id="zoomMin">
                        <use xlink:href="#rim" fill="#404040">
                                <set attributeName="fill" to="#808080" begin="zoomminus.mouseover" end="zoomminus.mouseout"/>
                        </use>
                        <path d="M-4,0h8" fill="none" stroke="white" stroke-width="1.5" pointer-events="none"/>
                </g>
                <g id="dirArrow">
                        <path fill="none" stroke="white" stroke-width="1.5" d="M0,-3.0v7 M-2.5,-0.5L0,-3.0L2.5,-0.5"/>
                </g>
               <g id="resetDef">
                       <use xlink:href="#rim2" fill="#404040">
                               <set attributeName="fill" to="#808080" begin="reset.mouseover" end="reset.mouseout"/>
                       </use>
               </g>
        </defs>

<script type="text/javascript">
var viewWidth = 1026;
var viewHeight = 773;
var sectionId = 'dynsection-76';
</script>
<script xlink:href="svgpan.js"/>
<svg id="graph" class="graph">
<g id="viewport">
<title>Python.Markopy.MarkopyCLI.parse</title>
<!-- Node1 -->
<g id="node1" class="node">
<title>Node1</title>
<g id="a_node1"><a xlink:title=" ">
<polygon fill="#bfbfbf" stroke="black" points="0,-366 0,-387 224,-387 224,-366 0,-366"/>
<text text-anchor="middle" x="112" y="-373.4" font-family="Helvetica,sans-Serif" font-size="12.00">Python.Markopy.MarkopyCLI.parse</text>
</a>
</g>
</g>
<!-- Node2 -->
<g id="node2" class="node">
<title>Node2</title>
<g id="a_node2"><a xlink:href="class_python_1_1_cuda_markopy_1_1_cuda_model_matrix_c_l_i.html#abde98354ae5895627039bf702a02ecaa" target="_top" xlink:title=" ">
<polygon fill="none" stroke="black" points="274.5,-730.5 274.5,-764.5 487.5,-764.5 487.5,-730.5 274.5,-730.5"/>
<text text-anchor="start" x="282.5" y="-750.9" font-family="Helvetica,sans-Serif" font-size="12.00">Python.CudaMarkopy.CudaModel</text>
<text text-anchor="middle" x="381" y="-737.9" font-family="Helvetica,sans-Serif" font-size="12.00">MatrixCLI.add_arguments</text>
</a>
</g>
</g>
<!-- Node1&#45;&gt;Node2 -->
<g id="edge1" class="edge">
<title>Node1&#45;&gt;Node2</title>
<path fill="none" stroke="midnightblue" d="M114.08,-387.29C119.48,-435 147.84,-628.8 260,-721.5 261.8,-722.99 263.67,-724.4 265.6,-725.73"/>
<polygon fill="midnightblue" stroke="midnightblue" points="264.02,-728.87 274.37,-731.11 267.67,-722.9 264.02,-728.87"/>
</g>
<!-- Node3 -->
<g id="node3" class="node">
<title>Node3</title>
<g id="a_node3"><a xlink:href="class_python_1_1_markopy_1_1_base_c_l_i.html#a7d5836dec84f1a14565fee372d31323b" target="_top" xlink:title=" ">
<polygon fill="none" stroke="black" points="286,-677.5 286,-711.5 476,-711.5 476,-677.5 286,-677.5"/>
<text text-anchor="start" x="294" y="-697.9" font-family="Helvetica,sans-Serif" font-size="12.00">Python.Markopy.BaseCLI.add</text>
<text text-anchor="middle" x="381" y="-684.9" font-family="Helvetica,sans-Serif" font-size="12.00">_arguments</text>
</a>
</g>
</g>
<!-- Node1&#45;&gt;Node3 -->
<g id="edge2" class="edge">
<title>Node1&#45;&gt;Node3</title>
<path fill="none" stroke="midnightblue" d="M114.93,-387.08C123.33,-429.89 160.83,-591.71 260,-668.5 265.09,-672.44 270.64,-675.81 276.49,-678.7"/>
<polygon fill="midnightblue" stroke="midnightblue" points="275.32,-682.01 285.88,-682.84 278.14,-675.6 275.32,-682.01"/>
</g>
<!-- Node4 -->
<g id="node4" class="node">
<title>Node4</title>
<g id="a_node4"><a xlink:href="class_python_1_1_markopy_1_1_abstract_generation_model_c_l_i.html#a12cdb40dd92b92141b9ecb0a30b5d943" target="_top" xlink:title=" ">
<polygon fill="none" stroke="black" points="264.5,-624.5 264.5,-658.5 497.5,-658.5 497.5,-624.5 264.5,-624.5"/>
<text text-anchor="start" x="272.5" y="-644.9" font-family="Helvetica,sans-Serif" font-size="12.00">Python.Markopy.AbstractGeneration</text>
<text text-anchor="middle" x="381" y="-631.9" font-family="Helvetica,sans-Serif" font-size="12.00">ModelCLI.add_arguments</text>
</a>
</g>
</g>
<!-- Node1&#45;&gt;Node4 -->
<g id="edge3" class="edge">
<title>Node1&#45;&gt;Node4</title>
<path fill="none" stroke="midnightblue" d="M116.19,-387.2C128.1,-425.15 173.74,-554.39 260,-615.5 262.09,-616.98 264.25,-618.38 266.47,-619.71"/>
<polygon fill="midnightblue" stroke="midnightblue" points="264.82,-622.79 275.29,-624.44 268.13,-616.62 264.82,-622.79"/>
</g>
<!-- Node5 -->
<g id="node5" class="node">
<title>Node5</title>
<g id="a_node5"><a xlink:href="class_python_1_1_markopy_1_1_abstract_training_model_c_l_i.html#a714875f2e1227f1d152492a100983b69" target="_top" xlink:title=" ">
<polygon fill="none" stroke="black" points="275,-571.5 275,-605.5 487,-605.5 487,-571.5 275,-571.5"/>
<text text-anchor="start" x="283" y="-591.9" font-family="Helvetica,sans-Serif" font-size="12.00">Python.Markopy.AbstractTraining</text>
<text text-anchor="middle" x="381" y="-578.9" font-family="Helvetica,sans-Serif" font-size="12.00">ModelCLI.add_arguments</text>
</a>
</g>
</g>
<!-- Node1&#45;&gt;Node5 -->
<g id="edge4" class="edge">
<title>Node1&#45;&gt;Node5</title>
<path fill="none" stroke="midnightblue" d="M117.97,-387C133.74,-419.07 185.96,-516.32 260,-562.5 262.63,-564.14 265.34,-565.68 268.13,-567.12"/>
<polygon fill="midnightblue" stroke="midnightblue" points="266.71,-570.31 277.24,-571.4 269.68,-563.98 266.71,-570.31"/>
</g>
<!-- Node6 -->
<g id="node6" class="node">
<title>Node6</title>
<g id="a_node6"><a xlink:href="class_python_1_1_markopy_1_1_markopy_c_l_i.html#a8f169bd88086d1711dd06c974e87c69b" target="_top" xlink:title="add &#45;mt/–model_type constructor">
<polygon fill="none" stroke="black" points="275,-518.5 275,-552.5 487,-552.5 487,-518.5 275,-518.5"/>
<text text-anchor="start" x="283" y="-538.9" font-family="Helvetica,sans-Serif" font-size="12.00">Python.Markopy.MarkopyCLI.add</text>
<text text-anchor="middle" x="381" y="-525.9" font-family="Helvetica,sans-Serif" font-size="12.00">_arguments</text>
</a>
</g>
</g>
<!-- Node1&#45;&gt;Node6 -->
<g id="edge5" class="edge">
<title>Node1&#45;&gt;Node6</title>
<path fill="none" stroke="midnightblue" d="M121.3,-387.14C141.83,-412.65 197.85,-477.59 260,-509.5 263.73,-511.42 267.6,-513.19 271.56,-514.84"/>
<polygon fill="midnightblue" stroke="midnightblue" points="270.36,-518.13 280.95,-518.44 272.87,-511.59 270.36,-518.13"/>
</g>
<!-- Node12 -->
<g id="node12" class="node">
<title>Node12</title>
<g id="a_node12"><a xlink:href="class_python_1_1_markopy_1_1_model_matrix_c_l_i.html#a8a335e71b4f9ff50511ff1d646f30969" target="_top" xlink:title=" ">
<polygon fill="none" stroke="black" points="286.5,-465.5 286.5,-499.5 475.5,-499.5 475.5,-465.5 286.5,-465.5"/>
<text text-anchor="start" x="294.5" y="-485.9" font-family="Helvetica,sans-Serif" font-size="12.00">Python.Markopy.ModelMatrix</text>
<text text-anchor="middle" x="381" y="-472.9" font-family="Helvetica,sans-Serif" font-size="12.00">CLI.add_arguments</text>
</a>
</g>
</g>
<!-- Node1&#45;&gt;Node12 -->
<g id="edge12" class="edge">
<title>Node1&#45;&gt;Node12</title>
<path fill="none" stroke="midnightblue" d="M129.02,-387.23C155.28,-404.33 209.62,-437.77 260,-456.5 265.9,-458.69 272.04,-460.73 278.28,-462.61"/>
<polygon fill="midnightblue" stroke="midnightblue" points="277.57,-466.05 288.14,-465.44 279.5,-459.32 277.57,-466.05"/>
</g>
<!-- Node13 -->
<g id="node13" class="node">
<title>Node13</title>
<g id="a_node13"><a xlink:href="class_python_1_1_markopy_1_1_evaluation_1_1_evaluator.html#a46497ca96abd975e6c7642a9bc0d4d8e" target="_top" xlink:title=" ">
<polygon fill="none" stroke="black" points="290,-359.5 290,-393.5 472,-393.5 472,-359.5 290,-359.5"/>
<text text-anchor="start" x="298" y="-379.9" font-family="Helvetica,sans-Serif" font-size="12.00">Python.Markopy.Evaluation.</text>
<text text-anchor="middle" x="381" y="-366.9" font-family="Helvetica,sans-Serif" font-size="12.00">Evaluator.evaluate</text>
</a>
</g>
</g>
<!-- Node1&#45;&gt;Node13 -->
<g id="edge13" class="edge">
<title>Node1&#45;&gt;Node13</title>
<path fill="none" stroke="midnightblue" d="M224.3,-376.5C242.69,-376.5 261.65,-376.5 279.74,-376.5"/>
<polygon fill="midnightblue" stroke="midnightblue" points="279.99,-380 289.99,-376.5 279.99,-373 279.99,-380"/>
</g>
<!-- Node16 -->
<g id="node16" class="node">
<title>Node16</title>
<g id="a_node16"><a xlink:href="class_python_1_1_markopy_1_1_evaluation_1_1_model_evaluator.html#ac80c86bf9e698c571aacb30027fc664f" target="_top" xlink:title=" ">
<polygon fill="none" stroke="black" points="290,-412.5 290,-446.5 472,-446.5 472,-412.5 290,-412.5"/>
<text text-anchor="start" x="298" y="-432.9" font-family="Helvetica,sans-Serif" font-size="12.00">Python.Markopy.Evaluation.</text>
<text text-anchor="middle" x="381" y="-419.9" font-family="Helvetica,sans-Serif" font-size="12.00">ModelEvaluator.evaluate</text>
</a>
</g>
</g>
<!-- Node1&#45;&gt;Node16 -->
<g id="edge16" class="edge">
<title>Node1&#45;&gt;Node16</title>
<path fill="none" stroke="midnightblue" d="M166.07,-387.03C199.79,-393.73 244.42,-402.59 284.19,-410.48"/>
<polygon fill="midnightblue" stroke="midnightblue" points="283.7,-413.95 294.19,-412.47 285.06,-407.09 283.7,-413.95"/>
</g>
<!-- Node17 -->
<g id="node17" class="node">
<title>Node17</title>
<g id="a_node17"><a xlink:href="class_python_1_1_markopy_1_1_evaluation_1_1_corpus_evaluator.html#a509189084e44b78353ac8662851e894c" target="_top" xlink:title=" ">
<polygon fill="none" stroke="black" points="290,-306.5 290,-340.5 472,-340.5 472,-306.5 290,-306.5"/>
<text text-anchor="start" x="298" y="-326.9" font-family="Helvetica,sans-Serif" font-size="12.00">Python.Markopy.Evaluation.</text>
<text text-anchor="middle" x="381" y="-313.9" font-family="Helvetica,sans-Serif" font-size="12.00">CorpusEvaluator.evaluate</text>
</a>
</g>
</g>
<!-- Node1&#45;&gt;Node17 -->
<g id="edge18" class="edge">
<title>Node1&#45;&gt;Node17</title>
<path fill="none" stroke="midnightblue" d="M166.07,-365.97C199.79,-359.27 244.42,-350.41 284.19,-342.52"/>
<polygon fill="midnightblue" stroke="midnightblue" points="285.06,-345.91 294.19,-340.53 283.7,-339.05 285.06,-345.91"/>
</g>
<!-- Node21 -->
<g id="node21" class="node">
<title>Node21</title>
<g id="a_node21"><a xlink:href="class_python_1_1_markopy_1_1_markopy_c_l_i.html#a91448c929c358188dc9d1bdb4bcf823d" target="_top" xlink:title=" ">
<polygon fill="none" stroke="black" points="260,-266 260,-287 502,-287 502,-266 260,-266"/>
<text text-anchor="middle" x="381" y="-273.4" font-family="Helvetica,sans-Serif" font-size="12.00">Python.Markopy.MarkopyCLI.evaluate</text>
</a>
</g>
</g>
<!-- Node1&#45;&gt;Node21 -->
<g id="edge22" class="edge">
<title>Node1&#45;&gt;Node21</title>
<path fill="none" stroke="midnightblue" d="M128.54,-365.96C154.55,-348.84 209.07,-315.12 260,-297.5 269.29,-294.28 279.17,-291.54 289.11,-289.21"/>
<polygon fill="midnightblue" stroke="midnightblue" points="290.05,-292.59 299.06,-287.01 288.54,-285.75 290.05,-292.59"/>
</g>
<!-- Node22 -->
<g id="node22" class="node">
<title>Node22</title>
<g id="a_node22"><a xlink:href="class_python_1_1_cuda_markopy_1_1_cuda_model_matrix_c_l_i.html#a824030379405eded4fa2561c1a1e8610" target="_top" xlink:title=" ">
<polygon fill="none" stroke="black" points="274.5,-212.5 274.5,-246.5 487.5,-246.5 487.5,-212.5 274.5,-212.5"/>
<text text-anchor="start" x="282.5" y="-232.9" font-family="Helvetica,sans-Serif" font-size="12.00">Python.CudaMarkopy.CudaModel</text>
<text text-anchor="middle" x="381" y="-219.9" font-family="Helvetica,sans-Serif" font-size="12.00">MatrixCLI.init_post_arguments</text>
</a>
</g>
</g>
<!-- Node1&#45;&gt;Node22 -->
<g id="edge23" class="edge">
<title>Node1&#45;&gt;Node22</title>
<path fill="none" stroke="midnightblue" d="M122.52,-365.93C144.36,-342.36 200.76,-285.34 260,-256.5 264.92,-254.11 270.06,-251.92 275.32,-249.92"/>
<polygon fill="midnightblue" stroke="midnightblue" points="276.64,-253.17 284.91,-246.54 274.31,-246.57 276.64,-253.17"/>
</g>
<!-- Node23 -->
<g id="node23" class="node">
<title>Node23</title>
<g id="a_node23"><a xlink:href="class_python_1_1_markopy_1_1_base_c_l_i.html#a4c7fdd1e03b5bf1ac6a6c0cb40df13da" target="_top" xlink:title=" ">
<polygon fill="none" stroke="black" points="288.5,-159.5 288.5,-193.5 473.5,-193.5 473.5,-159.5 288.5,-159.5"/>
<text text-anchor="start" x="296.5" y="-179.9" font-family="Helvetica,sans-Serif" font-size="12.00">Python.Markopy.BaseCLI.init</text>
<text text-anchor="middle" x="381" y="-166.9" font-family="Helvetica,sans-Serif" font-size="12.00">_post_arguments</text>
</a>
</g>
</g>
<!-- Node1&#45;&gt;Node23 -->
<g id="edge24" class="edge">
<title>Node1&#45;&gt;Node23</title>
<path fill="none" stroke="midnightblue" d="M118.64,-365.81C135.5,-334.97 188.83,-245.29 260,-202.5 265.89,-198.96 272.2,-195.9 278.74,-193.25"/>
<polygon fill="midnightblue" stroke="midnightblue" points="280.28,-196.41 288.44,-189.66 277.85,-189.84 280.28,-196.41"/>
</g>
<!-- Node24 -->
<g id="node24" class="node">
<title>Node24</title>
<g id="a_node24"><a xlink:href="class_python_1_1_markopy_1_1_markopy_c_l_i.html#a84df41ce62183c3c41afee0389d7a3d4" target="_top" xlink:title=" ">
<polygon fill="none" stroke="black" points="277,-106.5 277,-140.5 485,-140.5 485,-106.5 277,-106.5"/>
<text text-anchor="start" x="285" y="-126.9" font-family="Helvetica,sans-Serif" font-size="12.00">Python.Markopy.MarkopyCLI.init</text>
<text text-anchor="middle" x="381" y="-113.9" font-family="Helvetica,sans-Serif" font-size="12.00">_post_arguments</text>
</a>
</g>
</g>
<!-- Node1&#45;&gt;Node24 -->
<g id="edge25" class="edge">
<title>Node1&#45;&gt;Node24</title>
<path fill="none" stroke="midnightblue" d="M116.53,-365.83C129.28,-329.12 176.57,-207.16 260,-149.5 262.55,-147.74 265.19,-146.09 267.92,-144.56"/>
<polygon fill="midnightblue" stroke="midnightblue" points="269.53,-147.66 276.86,-140.01 266.36,-141.42 269.53,-147.66"/>
</g>
<!-- Node25 -->
<g id="node25" class="node">
<title>Node25</title>
<g id="a_node25"><a xlink:href="class_python_1_1_markopy_1_1_model_matrix_c_l_i.html#aedd02a1510ad98bec9b755686fbcec23" target="_top" xlink:title=" ">
<polygon fill="none" stroke="black" points="286.5,-53.5 286.5,-87.5 475.5,-87.5 475.5,-53.5 286.5,-53.5"/>
<text text-anchor="start" x="294.5" y="-73.9" font-family="Helvetica,sans-Serif" font-size="12.00">Python.Markopy.ModelMatrix</text>
<text text-anchor="middle" x="381" y="-60.9" font-family="Helvetica,sans-Serif" font-size="12.00">CLI.init_post_arguments</text>
</a>
</g>
</g>
<!-- Node1&#45;&gt;Node25 -->
<g id="edge26" class="edge">
<title>Node1&#45;&gt;Node25</title>
<path fill="none" stroke="midnightblue" d="M115.2,-365.78C124.4,-323.86 163.87,-169.63 260,-96.5 265.18,-92.56 270.82,-89.19 276.76,-86.31"/>
<polygon fill="midnightblue" stroke="midnightblue" points="278.51,-89.37 286.29,-82.18 275.72,-82.95 278.51,-89.37"/>
</g>
<!-- Node26 -->
<g id="node26" class="node">
<title>Node26</title>
<g id="a_node26"><a xlink:href="class_python_1_1_markopy_1_1_base_c_l_i.html#a9ad725de8fe9de68dc7c4f4aece8bb83" target="_top" xlink:title=" ">
<polygon fill="none" stroke="black" points="280.5,-0.5 280.5,-34.5 481.5,-34.5 481.5,-0.5 280.5,-0.5"/>
<text text-anchor="start" x="288.5" y="-20.9" font-family="Helvetica,sans-Serif" font-size="12.00">Python.Markopy.BaseCLI.parse</text>
<text text-anchor="middle" x="381" y="-7.9" font-family="Helvetica,sans-Serif" font-size="12.00">_arguments</text>
</a>
</g>
</g>
<!-- Node1&#45;&gt;Node26 -->
<g id="edge27" class="edge">
<title>Node1&#45;&gt;Node26</title>
<path fill="none" stroke="midnightblue" d="M114.25,-365.77C120.3,-319.15 150.8,-132.57 260,-43.5 263.53,-40.62 267.31,-38.04 271.28,-35.72"/>
<polygon fill="midnightblue" stroke="midnightblue" points="272.95,-38.8 280.21,-31.08 269.73,-32.59 272.95,-38.8"/>
</g>
<!-- Node7 -->
<g id="node7" class="node">
<title>Node7</title>
<g id="a_node7"><a xlink:href="class_markov_1_1_a_p_i_1_1_c_l_i_1_1_argparse.html#ac7aaf4edf169e3aab32aca083984d914" target="_top" xlink:title="Print help string.">
<polygon fill="none" stroke="black" points="564.5,-609.5 564.5,-643.5 740.5,-643.5 740.5,-609.5 564.5,-609.5"/>
<text text-anchor="start" x="572.5" y="-629.9" font-family="Helvetica,sans-Serif" font-size="12.00">Markov::API::CLI::Argparse</text>
<text text-anchor="middle" x="652.5" y="-616.9" font-family="Helvetica,sans-Serif" font-size="12.00">::help</text>
</a>
</g>
</g>
<!-- Node6&#45;&gt;Node7 -->
<g id="edge6" class="edge">
<title>Node6&#45;&gt;Node7</title>
<path fill="none" stroke="midnightblue" d="M480.43,-552.52C487.94,-555.35 495.22,-558.65 502,-562.5 522.23,-574 517.8,-588.96 538,-600.5 543.23,-603.49 548.78,-606.13 554.5,-608.47"/>
<polygon fill="midnightblue" stroke="midnightblue" points="553.68,-611.9 564.27,-612.13 556.14,-605.34 553.68,-611.9"/>
</g>
<!-- Node8 -->
<g id="node8" class="node">
<title>Node8</title>
<g id="a_node8"><a xlink:href="class_python_1_1_cuda_markopy_1_1_cuda_markopy_c_l_i.html#acb946950d9dbc1402ba081523d497dd3" target="_top" xlink:title="overload help function to print submodel helps">
<polygon fill="none" stroke="black" points="538,-556.5 538,-590.5 767,-590.5 767,-556.5 538,-556.5"/>
<text text-anchor="start" x="546" y="-576.9" font-family="Helvetica,sans-Serif" font-size="12.00">Python.CudaMarkopy.CudaMarkopy</text>
<text text-anchor="middle" x="652.5" y="-563.9" font-family="Helvetica,sans-Serif" font-size="12.00">CLI.help</text>
</a>
</g>
</g>
<!-- Node6&#45;&gt;Node8 -->
<g id="edge7" class="edge">
<title>Node6&#45;&gt;Node8</title>
<path fill="none" stroke="midnightblue" d="M487.35,-550.36C500.53,-552.21 514.1,-554.13 527.53,-556.02"/>
<polygon fill="midnightblue" stroke="midnightblue" points="527.37,-559.53 537.76,-557.46 528.34,-552.6 527.37,-559.53"/>
</g>
<!-- Node10 -->
<g id="node10" class="node">
<title>Node10</title>
<g id="a_node10"><a xlink:href="class_python_1_1_markopy_1_1_base_c_l_i.html#ab367a1505f21191f550087707288b575" target="_top" xlink:title=" ">
<polygon fill="none" stroke="black" points="556,-516 556,-537 749,-537 749,-516 556,-516"/>
<text text-anchor="middle" x="652.5" y="-523.4" font-family="Helvetica,sans-Serif" font-size="12.00">Python.Markopy.BaseCLI.help</text>
</a>
</g>
</g>
<!-- Node6&#45;&gt;Node10 -->
<g id="edge9" class="edge">
<title>Node6&#45;&gt;Node10</title>
<path fill="none" stroke="midnightblue" d="M487.35,-531.98C506.5,-531.34 526.48,-530.68 545.64,-530.04"/>
<polygon fill="midnightblue" stroke="midnightblue" points="546,-533.53 555.88,-529.69 545.77,-526.53 546,-533.53"/>
</g>
<!-- Node11 -->
<g id="node11" class="node">
<title>Node11</title>
<g id="a_node11"><a xlink:href="class_python_1_1_markopy_1_1_markopy_c_l_i.html#a76e6c5fbea009bb2cc5cd1fc7278e2fd" target="_top" xlink:title="overload help function to print submodel helps">
<polygon fill="none" stroke="black" points="545,-476 545,-497 760,-497 760,-476 545,-476"/>
<text text-anchor="middle" x="652.5" y="-483.4" font-family="Helvetica,sans-Serif" font-size="12.00">Python.Markopy.MarkopyCLI.help</text>
</a>
</g>
</g>
<!-- Node6&#45;&gt;Node11 -->
<g id="edge10" class="edge">
<title>Node6&#45;&gt;Node11</title>
<path fill="none" stroke="midnightblue" d="M472.71,-518.49C494.12,-514.52 516.86,-510.33 538,-506.5 551.86,-503.99 566.69,-501.35 580.89,-498.84"/>
<polygon fill="midnightblue" stroke="midnightblue" points="581.87,-502.22 591.1,-497.03 580.65,-495.33 581.87,-502.22"/>
</g>
<!-- Node9 -->
<g id="node9" class="node">
<title>Node9</title>
<g id="a_node9"><a xlink:href="class_python_1_1_markopy_1_1_markopy_c_l_i.html#a80bd3c93aead66d0d7c264a7d387196f" target="_top" xlink:title=" ">
<polygon fill="none" stroke="black" points="803,-519 803,-540 1018,-540 1018,-519 803,-519"/>
<text text-anchor="middle" x="910.5" y="-526.4" font-family="Helvetica,sans-Serif" font-size="12.00">Python.Markopy.MarkopyCLI.stub</text>
</a>
</g>
</g>
<!-- Node8&#45;&gt;Node9 -->
<g id="edge8" class="edge">
<title>Node8&#45;&gt;Node9</title>
<path fill="none" stroke="midnightblue" d="M752.48,-556.49C781.05,-551.58 811.65,-546.32 838.19,-541.76"/>
<polygon fill="midnightblue" stroke="midnightblue" points="838.88,-545.19 848.14,-540.05 837.7,-538.29 838.88,-545.19"/>
</g>
<!-- Node11&#45;&gt;Node9 -->
<g id="edge11" class="edge">
<title>Node11&#45;&gt;Node9</title>
<path fill="none" stroke="midnightblue" d="M716.12,-497.02C752.54,-503.14 798.61,-510.87 836.64,-517.26"/>
<polygon fill="midnightblue" stroke="midnightblue" points="836.19,-520.74 846.63,-518.94 837.35,-513.83 836.19,-520.74"/>
</g>
<!-- Node14 -->
<g id="node14" class="node">
<title>Node14</title>
<g id="a_node14"><a xlink:href="class_python_1_1_markopy_1_1_evaluation_1_1_evaluator.html#aa57707bfef91275599ca96b73bc311a8" target="_top" xlink:title="internal evaluation function for a single file">
<polygon fill="none" stroke="black" points="561.5,-412.5 561.5,-446.5 743.5,-446.5 743.5,-412.5 561.5,-412.5"/>
<text text-anchor="start" x="569.5" y="-432.9" font-family="Helvetica,sans-Serif" font-size="12.00">Python.Markopy.Evaluation.</text>
<text text-anchor="middle" x="652.5" y="-419.9" font-family="Helvetica,sans-Serif" font-size="12.00">Evaluator._evaluate</text>
</a>
</g>
</g>
<!-- Node13&#45;&gt;Node14 -->
<g id="edge14" class="edge">
<title>Node13&#45;&gt;Node14</title>
<path fill="none" stroke="midnightblue" d="M468.75,-393.56C496.28,-398.98 526.89,-404.99 555.05,-410.53"/>
<polygon fill="midnightblue" stroke="midnightblue" points="554.42,-413.98 564.91,-412.47 555.77,-407.11 554.42,-413.98"/>
</g>
<!-- Node15 -->
<g id="node15" class="node">
<title>Node15</title>
<g id="a_node15"><a xlink:href="class_python_1_1_markopy_1_1_evaluation_1_1_corpus_evaluator.html#afadf95a3683955a265fcd85c32369178" target="_top" xlink:title="evaluate a single file.">
<polygon fill="none" stroke="black" points="561.5,-359.5 561.5,-393.5 743.5,-393.5 743.5,-359.5 561.5,-359.5"/>
<text text-anchor="start" x="569.5" y="-379.9" font-family="Helvetica,sans-Serif" font-size="12.00">Python.Markopy.Evaluation.</text>
<text text-anchor="middle" x="652.5" y="-366.9" font-family="Helvetica,sans-Serif" font-size="12.00">CorpusEvaluator._evaluate</text>
</a>
</g>
</g>
<!-- Node13&#45;&gt;Node15 -->
<g id="edge15" class="edge">
<title>Node13&#45;&gt;Node15</title>
<path fill="none" stroke="midnightblue" d="M472.11,-376.5C497.51,-376.5 525.29,-376.5 551.24,-376.5"/>
<polygon fill="midnightblue" stroke="midnightblue" points="551.47,-380 561.47,-376.5 551.47,-373 551.47,-380"/>
</g>
<!-- Node16&#45;&gt;Node14 -->
<g id="edge17" class="edge">
<title>Node16&#45;&gt;Node14</title>
<path fill="none" stroke="midnightblue" d="M472.11,-429.5C497.51,-429.5 525.29,-429.5 551.24,-429.5"/>
<polygon fill="midnightblue" stroke="midnightblue" points="551.47,-433 561.47,-429.5 551.47,-426 551.47,-433"/>
</g>
<!-- Node18 -->
<g id="node18" class="node">
<title>Node18</title>
<g id="a_node18"><a xlink:href="class_python_1_1_markopy_1_1_evaluation_1_1_evaluator.html#ae1cab4d74df6a4dc4493b909ca2b923e" target="_top" xlink:title="fail a test">
<polygon fill="none" stroke="black" points="561.5,-306.5 561.5,-340.5 743.5,-340.5 743.5,-306.5 561.5,-306.5"/>
<text text-anchor="start" x="569.5" y="-326.9" font-family="Helvetica,sans-Serif" font-size="12.00">Python.Markopy.Evaluation.</text>
<text text-anchor="middle" x="652.5" y="-313.9" font-family="Helvetica,sans-Serif" font-size="12.00">Evaluator.fail</text>
</a>
</g>
</g>
<!-- Node17&#45;&gt;Node18 -->
<g id="edge19" class="edge">
<title>Node17&#45;&gt;Node18</title>
<path fill="none" stroke="midnightblue" d="M472.11,-323.5C497.51,-323.5 525.29,-323.5 551.24,-323.5"/>
<polygon fill="midnightblue" stroke="midnightblue" points="551.47,-327 561.47,-323.5 551.47,-320 551.47,-327"/>
</g>
<!-- Node19 -->
<g id="node19" class="node">
<title>Node19</title>
<g id="a_node19"><a xlink:href="class_python_1_1_markopy_1_1_evaluation_1_1_evaluator.html#a52996cbe300222dda1d22cc022485181" target="_top" xlink:title=" ">
<polygon fill="none" stroke="black" points="561.5,-253.5 561.5,-287.5 743.5,-287.5 743.5,-253.5 561.5,-253.5"/>
<text text-anchor="start" x="569.5" y="-273.9" font-family="Helvetica,sans-Serif" font-size="12.00">Python.Markopy.Evaluation.</text>
<text text-anchor="middle" x="652.5" y="-260.9" font-family="Helvetica,sans-Serif" font-size="12.00">Evaluator.finalize</text>
</a>
</g>
</g>
<!-- Node17&#45;&gt;Node19 -->
<g id="edge20" class="edge">
<title>Node17&#45;&gt;Node19</title>
<path fill="none" stroke="midnightblue" d="M468.75,-306.44C496.28,-301.02 526.89,-295.01 555.05,-289.47"/>
<polygon fill="midnightblue" stroke="midnightblue" points="555.77,-292.89 564.91,-287.53 554.42,-286.02 555.77,-292.89"/>
</g>
<!-- Node20 -->
<g id="node20" class="node">
<title>Node20</title>
<g id="a_node20"><a xlink:href="class_python_1_1_markopy_1_1_evaluation_1_1_evaluator.html#a4a25bdb9fcea367eff440d824cdb7227" target="_top" xlink:title="pass a test">
<polygon fill="none" stroke="black" points="561.5,-200.5 561.5,-234.5 743.5,-234.5 743.5,-200.5 561.5,-200.5"/>
<text text-anchor="start" x="569.5" y="-220.9" font-family="Helvetica,sans-Serif" font-size="12.00">Python.Markopy.Evaluation.</text>
<text text-anchor="middle" x="652.5" y="-207.9" font-family="Helvetica,sans-Serif" font-size="12.00">Evaluator.success</text>
</a>
</g>
</g>
<!-- Node17&#45;&gt;Node20 -->
<g id="edge21" class="edge">
<title>Node17&#45;&gt;Node20</title>
<path fill="none" stroke="midnightblue" d="M472.29,-311.08C482.82,-307.39 493,-302.63 502,-296.5 525.54,-280.47 514.49,-259.57 538,-243.5 542.37,-240.51 547.04,-237.86 551.89,-235.51"/>
<polygon fill="midnightblue" stroke="midnightblue" points="553.66,-238.56 561.43,-231.36 550.87,-232.14 553.66,-238.56"/>
</g>
</g>
</svg>
        <g id="navigator" transform="translate(0 0)" fill="#404254">
                <rect fill="#f2f5e9" fill-opacity="0.5" stroke="#606060" stroke-width=".5" x="0" y="0" width="60" height="60"/>
                <use id="zoomplus" xlink:href="#zoomPlus" x="17" y="9" onmousedown="handleZoom(evt,'in')"/>
                <use id="zoomminus" xlink:href="#zoomMin" x="42" y="9" onmousedown="handleZoom(evt,'out')"/>
                <use id="reset" xlink:href="#resetDef" x="30" y="36" onmousedown="handleReset()"/>
                <g id="arrowUp" xlink:href="#dirArrow" transform="translate(30 24)" onmousedown="handlePan(0,-1)">
                  <use xlink:href="#rim" fill="#404040">
                        <set attributeName="fill" to="#808080" begin="arrowUp.mouseover" end="arrowUp.mouseout"/>
                  </use>
                  <path fill="none" stroke="white" stroke-width="1.5" d="M0,-3.0v7 M-2.5,-0.5L0,-3.0L2.5,-0.5"/>
                </g>
                <g id="arrowRight" xlink:href="#dirArrow" transform="rotate(90) translate(36 -43)" onmousedown="handlePan(1,0)">
                  <use xlink:href="#rim" fill="#404040">
                        <set attributeName="fill" to="#808080" begin="arrowRight.mouseover" end="arrowRight.mouseout"/>
                  </use>
                  <path fill="none" stroke="white" stroke-width="1.5" d="M0,-3.0v7 M-2.5,-0.5L0,-3.0L2.5,-0.5"/>
                </g>
                <g id="arrowDown" xlink:href="#dirArrow" transform="rotate(180) translate(-30 -48)" onmousedown="handlePan(0,1)">
                  <use xlink:href="#rim" fill="#404040">
                        <set attributeName="fill" to="#808080" begin="arrowDown.mouseover" end="arrowDown.mouseout"/>
                  </use>
                  <path fill="none" stroke="white" stroke-width="1.5" d="M0,-3.0v7 M-2.5,-0.5L0,-3.0L2.5,-0.5"/>
                </g>
                <g id="arrowLeft" xlink:href="#dirArrow" transform="rotate(270) translate(-36 17)" onmousedown="handlePan(-1,0)">
                  <use xlink:href="#rim" fill="#404040">
                        <set attributeName="fill" to="#808080" begin="arrowLeft.mouseover" end="arrowLeft.mouseout"/>
                  </use>
                  <path fill="none" stroke="white" stroke-width="1.5" d="M0,-3.0v7 M-2.5,-0.5L0,-3.0L2.5,-0.5"/>
                </g>
        </g>
        <svg viewBox="0 0 15 15" width="100%" height="30px" preserveAspectRatio="xMaxYMin meet">
         <g id="arrow_out" transform="scale(0.3 0.3)">
          <a xlink:href="class_python_1_1_markopy_1_1_markopy_c_l_i_ab3660c4d0e9e5ab1889e76264a2c6e02_cgraph_org.svg" target="_base">
           <rect id="button" ry="5" rx="5" y="6" x="6" height="38" width="38"
                fill="#f2f5e9" fill-opacity="0.5" stroke="#606060" stroke-width="1.0"/>
           <path id="arrow"
             d="M 11.500037,31.436501 C 11.940474,20.09759 22.043105,11.32322 32.158766,21.979434 L 37.068811,17.246167 C 37.068811,17.246167 37.088388,32 37.088388,32 L 22.160133,31.978069 C 22.160133,31.978069 26.997745,27.140456 26.997745,27.140456 C 18.528582,18.264221 13.291696,25.230495 11.500037,31.436501 z"
             style="fill:#404040;"/>
          </a>
         </g>
        </svg>
</svg>
