<?xml version="1.0" encoding="UTF-8" standalone="no"?>
<!DOCTYPE svg PUBLIC "-//W3C//DTD SVG 1.1//EN"
 "http://www.w3.org/Graphics/SVG/1.1/DTD/svg11.dtd">
<!-- Generated by graphviz version 2.43.0 (0)
 -->
<!-- Title: Markov::Node&lt; storageType &gt; Pages: 1 -->
<svg width="1017pt" height="1374pt"
 viewBox="0.00 0.00 1017.00 1374.00" xmlns="http://www.w3.org/2000/svg" xmlns:xlink="http://www.w3.org/1999/xlink">
<g id="graph0" class="graph" transform="scale(1 1) rotate(0) translate(4 1370)">
<title>Markov::Node&lt; storageType &gt;</title>
<!-- Node1 -->
<g id="node1" class="node">
<title>Node1</title>
<g id="a_node1"><a xlink:title="A node class that for the vertices of model. Connected with eachother using Edge.">
<polygon fill="#bfbfbf" stroke="black" points="77,-894.5 77,-1113.5 277,-1113.5 277,-894.5 77,-894.5"/>
<text text-anchor="middle" x="177" y="-1099.9" font-family="Helvetica,sans-Serif" font-size="12.00">Markov::Node&lt; storageType &gt;</text>
<polyline fill="none" stroke="black" points="77,-1092.5 277,-1092.5 "/>
<text text-anchor="start" x="85" y="-1078.9" font-family="Helvetica,sans-Serif" font-size="12.00">&#45; _value</text>
<text text-anchor="start" x="85" y="-1065.9" font-family="Helvetica,sans-Serif" font-size="12.00">&#45; total_edge_weights</text>
<polyline fill="none" stroke="black" points="77,-1058.5 277,-1058.5 "/>
<text text-anchor="start" x="85" y="-1044.9" font-family="Helvetica,sans-Serif" font-size="12.00">+ Node()</text>
<text text-anchor="start" x="85" y="-1031.9" font-family="Helvetica,sans-Serif" font-size="12.00">+ Node()</text>
<text text-anchor="start" x="85" y="-1018.9" font-family="Helvetica,sans-Serif" font-size="12.00">+ Link()</text>
<text text-anchor="start" x="85" y="-1005.9" font-family="Helvetica,sans-Serif" font-size="12.00">+ Link()</text>
<text text-anchor="start" x="85" y="-992.9" font-family="Helvetica,sans-Serif" font-size="12.00">+ RandomNext()</text>
<text text-anchor="start" x="85" y="-979.9" font-family="Helvetica,sans-Serif" font-size="12.00">+ UpdateEdges()</text>
<text text-anchor="start" x="85" y="-966.9" font-family="Helvetica,sans-Serif" font-size="12.00">+ FindEdge()</text>
<text text-anchor="start" x="85" y="-953.9" font-family="Helvetica,sans-Serif" font-size="12.00">+ FindEdge()</text>
<text text-anchor="start" x="85" y="-940.9" font-family="Helvetica,sans-Serif" font-size="12.00">+ NodeValue()</text>
<text text-anchor="start" x="85" y="-927.9" font-family="Helvetica,sans-Serif" font-size="12.00">+ UpdateTotalVerticeWeight()</text>
<text text-anchor="start" x="85" y="-914.9" font-family="Helvetica,sans-Serif" font-size="12.00">+ Edges()</text>
<text text-anchor="start" x="85" y="-901.9" font-family="Helvetica,sans-Serif" font-size="12.00">+ TotalEdgeWeights()</text>
</a>
</g>
</g>
<!-- Node5 -->
<g id="node5" class="node">
<title>Node5</title>
<g id="a_node5"><a xlink:href="class_markov_1_1_node.html" target="_top" xlink:title=" ">
<polygon fill="none" stroke="black" points="355,-612.5 355,-844.5 547,-844.5 547,-612.5 355,-612.5"/>
<text text-anchor="start" x="363" y="-830.9" font-family="Helvetica,sans-Serif" font-size="12.00">Markov::Node&lt; NodeStorage</text>
<text text-anchor="middle" x="451" y="-817.9" font-family="Helvetica,sans-Serif" font-size="12.00">Type &gt;</text>
<polyline fill="none" stroke="black" points="355,-810.5 547,-810.5 "/>
<text text-anchor="start" x="363" y="-796.9" font-family="Helvetica,sans-Serif" font-size="12.00">&#45; _value</text>
<text text-anchor="start" x="363" y="-783.9" font-family="Helvetica,sans-Serif" font-size="12.00">&#45; total_edge_weights</text>
<polyline fill="none" stroke="black" points="355,-776.5 547,-776.5 "/>
<text text-anchor="start" x="363" y="-762.9" font-family="Helvetica,sans-Serif" font-size="12.00">+ Node()</text>
<text text-anchor="start" x="363" y="-749.9" font-family="Helvetica,sans-Serif" font-size="12.00">+ Node()</text>
<text text-anchor="start" x="363" y="-736.9" font-family="Helvetica,sans-Serif" font-size="12.00">+ Link()</text>
<text text-anchor="start" x="363" y="-723.9" font-family="Helvetica,sans-Serif" font-size="12.00">+ Link()</text>
<text text-anchor="start" x="363" y="-710.9" font-family="Helvetica,sans-Serif" font-size="12.00">+ RandomNext()</text>
<text text-anchor="start" x="363" y="-697.9" font-family="Helvetica,sans-Serif" font-size="12.00">+ UpdateEdges()</text>
<text text-anchor="start" x="363" y="-684.9" font-family="Helvetica,sans-Serif" font-size="12.00">+ FindEdge()</text>
<text text-anchor="start" x="363" y="-671.9" font-family="Helvetica,sans-Serif" font-size="12.00">+ FindEdge()</text>
<text text-anchor="start" x="363" y="-658.9" font-family="Helvetica,sans-Serif" font-size="12.00">+ NodeValue()</text>
<text text-anchor="start" x="363" y="-645.9" font-family="Helvetica,sans-Serif" font-size="12.00">+ UpdateTotalVerticeWeight()</text>
<text text-anchor="start" x="363" y="-632.9" font-family="Helvetica,sans-Serif" font-size="12.00">+ Edges()</text>
<text text-anchor="start" x="363" y="-619.9" font-family="Helvetica,sans-Serif" font-size="12.00">+ TotalEdgeWeights()</text>
</a>
</g>
</g>
<!-- Node1&#45;&gt;Node5 -->
<g id="edge12" class="edge">
<title>Node1&#45;&gt;Node5</title>
<path fill="none" stroke="orange" d="M273.23,-886.88C280.78,-878.66 288.43,-870.62 296,-863 314.27,-844.61 334.73,-825.85 354.63,-808.43"/>
<polygon fill="orange" stroke="orange" points="270.46,-884.72 266.31,-894.47 275.63,-889.44 270.46,-884.72"/>
<text text-anchor="middle" x="365" y="-866.4" font-family="Helvetica,sans-Serif" font-size="12.00"> &lt; NodeStorageType &gt;</text>
</g>
<!-- Node2 -->
<g id="node2" class="node">
<title>Node2</title>
<g id="a_node2"><a xlink:title=" ">
<polygon fill="none" stroke="#bfbfbf" points="317,-0.5 317,-76.5 495,-76.5 495,-0.5 317,-0.5"/>
<text text-anchor="start" x="325" y="-62.9" font-family="Helvetica,sans-Serif" font-size="12.00">std::vector&lt; Markov</text>
<text text-anchor="middle" x="406" y="-49.9" font-family="Helvetica,sans-Serif" font-size="12.00">::Edge&lt; storageType &gt; * &gt;</text>
<polyline fill="none" stroke="#bfbfbf" points="317,-42.5 495,-42.5 "/>
<text text-anchor="middle" x="406" y="-28.9" font-family="Helvetica,sans-Serif" font-size="12.00"> </text>
<polyline fill="none" stroke="#bfbfbf" points="317,-21.5 495,-21.5 "/>
<text text-anchor="middle" x="406" y="-7.9" font-family="Helvetica,sans-Serif" font-size="12.00"> </text>
</a>
</g>
</g>
<!-- Node2&#45;&gt;Node1 -->
<g id="edge1" class="edge">
<title>Node2&#45;&gt;Node1</title>
<path fill="none" stroke="#404040" d="M316.84,-72.51C294.36,-81.62 275.53,-90.29 272,-95 237.91,-140.41 258,-165.21 258,-222 258,-729.5 258,-729.5 258,-729.5 258,-781.08 244.59,-835.97 228.68,-882.93"/>
<polygon fill="none" stroke="#404040" points="228.64,-883.04 230.45,-890.02 224.7,-894.38 222.9,-887.4 228.64,-883.04"/>
<text text-anchor="middle" x="287" y="-456.4" font-family="Helvetica,sans-Serif" font-size="12.00"> +edgesV</text>
</g>
<!-- Node3 -->
<g id="node3" class="node">
<title>Node3</title>
<g id="a_node3"><a xlink:href="class_markov_1_1_edge.html" target="_top" xlink:title=" ">
<polygon fill="none" stroke="black" points="306.5,-126.5 306.5,-319.5 505.5,-319.5 505.5,-126.5 306.5,-126.5"/>
<text text-anchor="middle" x="406" y="-305.9" font-family="Helvetica,sans-Serif" font-size="12.00">Markov::Edge&lt; storageType &gt;</text>
<polyline fill="none" stroke="black" points="306.5,-298.5 505.5,-298.5 "/>
<text text-anchor="start" x="314.5" y="-284.9" font-family="Helvetica,sans-Serif" font-size="12.00">&#45; _left</text>
<text text-anchor="start" x="314.5" y="-271.9" font-family="Helvetica,sans-Serif" font-size="12.00">&#45; _right</text>
<text text-anchor="start" x="314.5" y="-258.9" font-family="Helvetica,sans-Serif" font-size="12.00">&#45; _weight</text>
<polyline fill="none" stroke="black" points="306.5,-251.5 505.5,-251.5 "/>
<text text-anchor="start" x="314.5" y="-237.9" font-family="Helvetica,sans-Serif" font-size="12.00">+ Edge()</text>
<text text-anchor="start" x="314.5" y="-224.9" font-family="Helvetica,sans-Serif" font-size="12.00">+ Edge()</text>
<text text-anchor="start" x="314.5" y="-211.9" font-family="Helvetica,sans-Serif" font-size="12.00">+ AdjustEdge()</text>
<text text-anchor="start" x="314.5" y="-198.9" font-family="Helvetica,sans-Serif" font-size="12.00">+ TraverseNode()</text>
<text text-anchor="start" x="314.5" y="-185.9" font-family="Helvetica,sans-Serif" font-size="12.00">+ SetLeftEdge()</text>
<text text-anchor="start" x="314.5" y="-172.9" font-family="Helvetica,sans-Serif" font-size="12.00">+ SetRightEdge()</text>
<text text-anchor="start" x="314.5" y="-159.9" font-family="Helvetica,sans-Serif" font-size="12.00">+ EdgeWeight()</text>
<text text-anchor="start" x="314.5" y="-146.9" font-family="Helvetica,sans-Serif" font-size="12.00">+ LeftNode()</text>
<text text-anchor="start" x="314.5" y="-133.9" font-family="Helvetica,sans-Serif" font-size="12.00">+ RightNode()</text>
</a>
</g>
</g>
<!-- Node3&#45;&gt;Node2 -->
<g id="edge2" class="edge">
<title>Node3&#45;&gt;Node2</title>
<path fill="none" stroke="#404040" d="M406,-126.47C406,-113.43 406,-100.5 406,-88.75"/>
<polygon fill="none" stroke="#404040" points="406,-88.53 402,-82.53 406,-76.53 410,-82.53 406,-88.53"/>
<text text-anchor="middle" x="441" y="-98.4" font-family="Helvetica,sans-Serif" font-size="12.00"> +elements</text>
</g>
<!-- Node12 -->
<g id="node12" class="node">
<title>Node12</title>
<g id="a_node12"><a xlink:title=" ">
<polygon fill="none" stroke="#bfbfbf" points="64,-0.5 64,-76.5 290,-76.5 290,-0.5 64,-0.5"/>
<text text-anchor="start" x="72" y="-62.9" font-family="Helvetica,sans-Serif" font-size="12.00">std::map&lt; storageType,</text>
<text text-anchor="middle" x="177" y="-49.9" font-family="Helvetica,sans-Serif" font-size="12.00"> Markov::Edge&lt; storageType &gt; * &gt;</text>
<polyline fill="none" stroke="#bfbfbf" points="64,-42.5 290,-42.5 "/>
<text text-anchor="start" x="72" y="-28.9" font-family="Helvetica,sans-Serif" font-size="12.00">+ keys</text>
<polyline fill="none" stroke="#bfbfbf" points="64,-21.5 290,-21.5 "/>
<text text-anchor="middle" x="177" y="-7.9" font-family="Helvetica,sans-Serif" font-size="12.00"> </text>
</a>
</g>
</g>
<!-- Node3&#45;&gt;Node12 -->
<g id="edge15" class="edge">
<title>Node3&#45;&gt;Node12</title>
<path fill="none" stroke="#404040" d="M306.22,-142.48C281.13,-122.49 255.08,-101.72 233,-84.13"/>
<polygon fill="none" stroke="#404040" points="232.85,-84.01 225.67,-83.4 223.47,-76.53 230.65,-77.14 232.85,-84.01"/>
<text text-anchor="middle" x="293" y="-98.4" font-family="Helvetica,sans-Serif" font-size="12.00"> +elements</text>
</g>
<!-- Node4 -->
<g id="node4" class="node">
<title>Node4</title>
<g id="a_node4"><a xlink:href="class_markov_1_1_edge.html" target="_top" xlink:title="Edge class used to link nodes in the model together.">
<polygon fill="none" stroke="black" points="347.5,-369.5 347.5,-549.5 538.5,-549.5 538.5,-369.5 347.5,-369.5"/>
<text text-anchor="start" x="355.5" y="-535.9" font-family="Helvetica,sans-Serif" font-size="12.00">Markov::Edge&lt; NodeStorage</text>
<text text-anchor="middle" x="443" y="-522.9" font-family="Helvetica,sans-Serif" font-size="12.00">Type &gt;</text>
<polyline fill="none" stroke="black" points="347.5,-515.5 538.5,-515.5 "/>
<text text-anchor="start" x="355.5" y="-501.9" font-family="Helvetica,sans-Serif" font-size="12.00">&#45; _weight</text>
<polyline fill="none" stroke="black" points="347.5,-494.5 538.5,-494.5 "/>
<text text-anchor="start" x="355.5" y="-480.9" font-family="Helvetica,sans-Serif" font-size="12.00">+ Edge()</text>
<text text-anchor="start" x="355.5" y="-467.9" font-family="Helvetica,sans-Serif" font-size="12.00">+ Edge()</text>
<text text-anchor="start" x="355.5" y="-454.9" font-family="Helvetica,sans-Serif" font-size="12.00">+ AdjustEdge()</text>
<text text-anchor="start" x="355.5" y="-441.9" font-family="Helvetica,sans-Serif" font-size="12.00">+ TraverseNode()</text>
<text text-anchor="start" x="355.5" y="-428.9" font-family="Helvetica,sans-Serif" font-size="12.00">+ SetLeftEdge()</text>
<text text-anchor="start" x="355.5" y="-415.9" font-family="Helvetica,sans-Serif" font-size="12.00">+ SetRightEdge()</text>
<text text-anchor="start" x="355.5" y="-402.9" font-family="Helvetica,sans-Serif" font-size="12.00">+ EdgeWeight()</text>
<text text-anchor="start" x="355.5" y="-389.9" font-family="Helvetica,sans-Serif" font-size="12.00">+ LeftNode()</text>
<text text-anchor="start" x="355.5" y="-376.9" font-family="Helvetica,sans-Serif" font-size="12.00">+ RightNode()</text>
</a>
</g>
</g>
<!-- Node4&#45;&gt;Node3 -->
<g id="edge3" class="edge">
<title>Node4&#45;&gt;Node3</title>
<path fill="none" stroke="orange" d="M427.34,-359.24C425.27,-346.14 423.16,-332.74 421.1,-319.71"/>
<polygon fill="orange" stroke="orange" points="423.89,-359.84 428.91,-369.18 430.8,-358.75 423.89,-359.84"/>
<text text-anchor="middle" x="478.5" y="-341.4" font-family="Helvetica,sans-Serif" font-size="12.00"> &lt; storageType &gt;</text>
</g>
<!-- Node5&#45;&gt;Node4 -->
<g id="edge4" class="edge">
<title>Node5&#45;&gt;Node4</title>
<path fill="none" stroke="#404040" d="M447.55,-612.33C447.05,-595.57 446.53,-578.42 446.04,-561.96"/>
<polygon fill="none" stroke="#404040" points="446.03,-561.52 441.85,-555.64 445.67,-549.53 449.85,-555.4 446.03,-561.52"/>
<text text-anchor="middle" x="466.5" y="-584.4" font-family="Helvetica,sans-Serif" font-size="12.00"> &#45;_left</text>
<text text-anchor="middle" x="466.5" y="-571.4" font-family="Helvetica,sans-Serif" font-size="12.00">&#45;_right</text>
</g>
<!-- Node6 -->
<g id="node6" class="node">
<title>Node6</title>
<g id="a_node6"><a xlink:title=" ">
<polygon fill="none" stroke="#bfbfbf" points="295.5,-959.5 295.5,-1048.5 554.5,-1048.5 554.5,-959.5 295.5,-959.5"/>
<text text-anchor="start" x="303.5" y="-1034.9" font-family="Helvetica,sans-Serif" font-size="12.00">std::map&lt; NodeStorageType,</text>
<text text-anchor="middle" x="425" y="-1021.9" font-family="Helvetica,sans-Serif" font-size="12.00"> Markov::Edge&lt; NodeStorageType &gt; * &gt;</text>
<polyline fill="none" stroke="#bfbfbf" points="295.5,-1014.5 554.5,-1014.5 "/>
<text text-anchor="start" x="303.5" y="-1000.9" font-family="Helvetica,sans-Serif" font-size="12.00">+ keys</text>
<text text-anchor="start" x="303.5" y="-987.9" font-family="Helvetica,sans-Serif" font-size="12.00">+ elements</text>
<polyline fill="none" stroke="#bfbfbf" points="295.5,-980.5 554.5,-980.5 "/>
<text text-anchor="middle" x="425" y="-966.9" font-family="Helvetica,sans-Serif" font-size="12.00"> </text>
</a>
</g>
</g>
<!-- Node6&#45;&gt;Node5 -->
<g id="edge5" class="edge">
<title>Node6&#45;&gt;Node5</title>
<path fill="none" stroke="#404040" d="M429.15,-959.36C431.8,-931.52 435.37,-893.86 438.87,-857.1"/>
<polygon fill="none" stroke="#404040" points="438.92,-856.62 435.5,-850.27 440.05,-844.68 443.46,-851.03 438.92,-856.62"/>
<text text-anchor="middle" x="460.5" y="-866.4" font-family="Helvetica,sans-Serif" font-size="12.00"> &#45;edges</text>
</g>
<!-- Node7 -->
<g id="node7" class="node">
<title>Node7</title>
<g id="a_node7"><a xlink:title="STL class.">
<polygon fill="none" stroke="#bfbfbf" points="354.5,-1189.5 354.5,-1252.5 473.5,-1252.5 473.5,-1189.5 354.5,-1189.5"/>
<text text-anchor="middle" x="414" y="-1238.9" font-family="Helvetica,sans-Serif" font-size="12.00">std::map&lt; K, T &gt;</text>
<polyline fill="none" stroke="#bfbfbf" points="354.5,-1231.5 473.5,-1231.5 "/>
<text text-anchor="middle" x="414" y="-1217.9" font-family="Helvetica,sans-Serif" font-size="12.00"> </text>
<polyline fill="none" stroke="#bfbfbf" points="354.5,-1210.5 473.5,-1210.5 "/>
<text text-anchor="middle" x="414" y="-1196.9" font-family="Helvetica,sans-Serif" font-size="12.00"> </text>
</a>
</g>
</g>
<!-- Node7&#45;&gt;Node6 -->
<g id="edge6" class="edge">
<title>Node7&#45;&gt;Node6</title>
<path fill="none" stroke="orange" d="M413.89,-1179.06C414.01,-1164.23 414.31,-1147.35 415,-1132 416.25,-1104.27 418.68,-1073.21 420.83,-1048.74"/>
<polygon fill="orange" stroke="orange" points="410.39,-1179.42 413.84,-1189.44 417.39,-1179.46 410.39,-1179.42"/>
<text text-anchor="start" x="415" y="-1161.4" font-family="Helvetica,sans-Serif" font-size="12.00"> &lt; NodeStorageType,</text>
<text text-anchor="start" x="415" y="-1148.4" font-family="Helvetica,sans-Serif" font-size="12.00"> Markov::Edge&lt; NodeStorage</text>
<text text-anchor="middle" x="504" y="-1135.4" font-family="Helvetica,sans-Serif" font-size="12.00">Type &gt; * &gt;</text>
</g>
<!-- Node7&#45;&gt;Node12 -->
<g id="edge16" class="edge">
<title>Node7&#45;&gt;Node12</title>
<path fill="none" stroke="orange" d="M344.21,-1215.03C226.22,-1202.42 0,-1158.26 0,-1005 0,-1005 0,-1005 0,-222 0,-158 56.78,-107.95 106.03,-76.58"/>
<polygon fill="orange" stroke="orange" points="343.94,-1218.52 354.24,-1216.05 344.65,-1211.56 343.94,-1218.52"/>
<text text-anchor="start" x="0" y="-584.4" font-family="Helvetica,sans-Serif" font-size="12.00"> &lt; storageType, Markov</text>
<text text-anchor="middle" x="81" y="-571.4" font-family="Helvetica,sans-Serif" font-size="12.00">::Edge&lt; storageType &gt; * &gt;</text>
</g>
<!-- Node8 -->
<g id="node8" class="node">
<title>Node8</title>
<g id="a_node8"><a xlink:title=" ">
<polygon fill="none" stroke="#bfbfbf" points="399.5,-1302.5 399.5,-1365.5 428.5,-1365.5 428.5,-1302.5 399.5,-1302.5"/>
<text text-anchor="middle" x="414" y="-1351.9" font-family="Helvetica,sans-Serif" font-size="12.00">K</text>
<polyline fill="none" stroke="#bfbfbf" points="399.5,-1344.5 428.5,-1344.5 "/>
<text text-anchor="middle" x="414" y="-1330.9" font-family="Helvetica,sans-Serif" font-size="12.00"> </text>
<polyline fill="none" stroke="#bfbfbf" points="399.5,-1323.5 428.5,-1323.5 "/>
<text text-anchor="middle" x="414" y="-1309.9" font-family="Helvetica,sans-Serif" font-size="12.00"> </text>
</a>
</g>
</g>
<!-- Node8&#45;&gt;Node7 -->
<g id="edge7" class="edge">
<title>Node8&#45;&gt;Node7</title>
<path fill="none" stroke="#404040" d="M414,-1302.37C414,-1290.73 414,-1277.24 414,-1264.68"/>
<polygon fill="none" stroke="#404040" points="414,-1264.53 410,-1258.53 414,-1252.53 418,-1258.53 414,-1264.53"/>
<text text-anchor="middle" x="434.5" y="-1274.4" font-family="Helvetica,sans-Serif" font-size="12.00"> +keys</text>
</g>
<!-- Node9 -->
<g id="node9" class="node">
<title>Node9</title>
<g id="a_node9"><a xlink:title=" ">
<polygon fill="none" stroke="#bfbfbf" points="531.5,-1302.5 531.5,-1365.5 560.5,-1365.5 560.5,-1302.5 531.5,-1302.5"/>
<text text-anchor="middle" x="546" y="-1351.9" font-family="Helvetica,sans-Serif" font-size="12.00">T</text>
<polyline fill="none" stroke="#bfbfbf" points="531.5,-1344.5 560.5,-1344.5 "/>
<text text-anchor="middle" x="546" y="-1330.9" font-family="Helvetica,sans-Serif" font-size="12.00"> </text>
<polyline fill="none" stroke="#bfbfbf" points="531.5,-1323.5 560.5,-1323.5 "/>
<text text-anchor="middle" x="546" y="-1309.9" font-family="Helvetica,sans-Serif" font-size="12.00"> </text>
</a>
</g>
</g>
<!-- Node9&#45;&gt;Node7 -->
<g id="edge8" class="edge">
<title>Node9&#45;&gt;Node7</title>
<path fill="none" stroke="#404040" d="M531.37,-1320.7C514.17,-1306.23 484.78,-1281.52 459.72,-1260.45"/>
<polygon fill="none" stroke="#404040" points="459.54,-1260.3 452.38,-1259.5 450.36,-1252.58 457.53,-1253.38 459.54,-1260.3"/>
<text text-anchor="middle" x="518" y="-1274.4" font-family="Helvetica,sans-Serif" font-size="12.00"> +elements</text>
</g>
<!-- Node11 -->
<g id="node11" class="node">
<title>Node11</title>
<g id="a_node11"><a xlink:title="STL class.">
<polygon fill="none" stroke="#bfbfbf" points="557.5,-1189.5 557.5,-1252.5 672.5,-1252.5 672.5,-1189.5 557.5,-1189.5"/>
<text text-anchor="middle" x="615" y="-1238.9" font-family="Helvetica,sans-Serif" font-size="12.00">std::vector&lt; T &gt;</text>
<polyline fill="none" stroke="#bfbfbf" points="557.5,-1231.5 672.5,-1231.5 "/>
<text text-anchor="middle" x="615" y="-1217.9" font-family="Helvetica,sans-Serif" font-size="12.00"> </text>
<polyline fill="none" stroke="#bfbfbf" points="557.5,-1210.5 672.5,-1210.5 "/>
<text text-anchor="middle" x="615" y="-1196.9" font-family="Helvetica,sans-Serif" font-size="12.00"> </text>
</a>
</g>
</g>
<!-- Node9&#45;&gt;Node11 -->
<g id="edge11" class="edge">
<title>Node9&#45;&gt;Node11</title>
<path fill="none" stroke="#404040" d="M560.63,-1309.46C568.99,-1296.02 579.71,-1278.78 589.41,-1263.16"/>
<polygon fill="none" stroke="#404040" points="589.59,-1262.87 589.36,-1255.66 595.93,-1252.68 596.16,-1259.89 589.59,-1262.87"/>
<text text-anchor="middle" x="617" y="-1274.4" font-family="Helvetica,sans-Serif" font-size="12.00"> +elements</text>
</g>
<!-- Node10 -->
<g id="node10" class="node">
<title>Node10</title>
<g id="a_node10"><a xlink:title=" ">
<polygon fill="none" stroke="#bfbfbf" points="572.5,-966 572.5,-1042 783.5,-1042 783.5,-966 572.5,-966"/>
<text text-anchor="start" x="580.5" y="-1028.4" font-family="Helvetica,sans-Serif" font-size="12.00">std::vector&lt; Markov</text>
<text text-anchor="middle" x="678" y="-1015.4" font-family="Helvetica,sans-Serif" font-size="12.00">::Edge&lt; NodeStorageType &gt; * &gt;</text>
<polyline fill="none" stroke="#bfbfbf" points="572.5,-1008 783.5,-1008 "/>
<text text-anchor="start" x="580.5" y="-994.4" font-family="Helvetica,sans-Serif" font-size="12.00">+ elements</text>
<polyline fill="none" stroke="#bfbfbf" points="572.5,-987 783.5,-987 "/>
<text text-anchor="middle" x="678" y="-973.4" font-family="Helvetica,sans-Serif" font-size="12.00"> </text>
</a>
</g>
</g>
<!-- Node10&#45;&gt;Node5 -->
<g id="edge9" class="edge">
<title>Node10&#45;&gt;Node5</title>
<path fill="none" stroke="#404040" d="M647.15,-965.83C623.08,-936.83 588.19,-894.79 554.48,-854.18"/>
<polygon fill="none" stroke="#404040" points="554.29,-853.95 547.38,-851.89 546.63,-844.72 553.54,-846.78 554.29,-853.95"/>
<text text-anchor="middle" x="600" y="-866.4" font-family="Helvetica,sans-Serif" font-size="12.00"> +edgesV</text>
</g>
<!-- Node11&#45;&gt;Node2 -->
<g id="edge13" class="edge">
<title>Node11&#45;&gt;Node2</title>
<path fill="none" stroke="orange" d="M682.77,-1211.21C731.63,-1203.39 791.74,-1190.18 808,-1171 855.88,-1114.52 822,-1079.04 822,-1005 822,-1005 822,-1005 822,-222 822,-80.43 617.48,-47.67 495.24,-40.73"/>
<polygon fill="orange" stroke="orange" points="682.19,-1207.76 672.84,-1212.75 683.26,-1214.68 682.19,-1207.76"/>
<text text-anchor="start" x="822" y="-584.4" font-family="Helvetica,sans-Serif" font-size="12.00"> &lt; Markov::Edge&lt; storageType</text>
<text text-anchor="middle" x="915.5" y="-571.4" font-family="Helvetica,sans-Serif" font-size="12.00"> &gt; * &gt;</text>
</g>
<!-- Node11&#45;&gt;Node10 -->
<g id="edge10" class="edge">
<title>Node11&#45;&gt;Node10</title>
<path fill="none" stroke="orange" d="M611.75,-1179.41C611.51,-1164.34 612.39,-1147.22 616,-1132 623.58,-1100.01 640.22,-1066.71 654.35,-1042.24"/>
<polygon fill="orange" stroke="orange" points="608.25,-1179.58 612.08,-1189.46 615.25,-1179.35 608.25,-1179.58"/>
<text text-anchor="start" x="616" y="-1154.9" font-family="Helvetica,sans-Serif" font-size="12.00"> &lt; Markov::Edge&lt; NodeStorage</text>
<text text-anchor="middle" x="712" y="-1141.9" font-family="Helvetica,sans-Serif" font-size="12.00">Type &gt; * &gt;</text>
</g>
<!-- Node12&#45;&gt;Node1 -->
<g id="edge14" class="edge">
<title>Node12&#45;&gt;Node1</title>
<path fill="none" stroke="#404040" d="M177,-76.55C177,-113.42 177,-171.62 177,-222 177,-729.5 177,-729.5 177,-729.5 177,-779.4 177,-834.43 177,-881.96"/>
<polygon fill="none" stroke="#404040" points="177,-882.2 181,-888.2 177,-894.2 173,-888.2 177,-882.2"/>
<text text-anchor="middle" x="199.5" y="-456.4" font-family="Helvetica,sans-Serif" font-size="12.00"> &#45;edges</text>
</g>
</g>
</svg>
