<?xml version="1.0" encoding="UTF-8" standalone="no"?>
<!DOCTYPE svg PUBLIC "-//W3C//DTD SVG 1.1//EN"
 "http://www.w3.org/Graphics/SVG/1.1/DTD/svg11.dtd">
<!-- Generated by graphviz version 2.43.0 (0)
 -->
<!-- Title: QMainWindow Pages: 1 -->
<svg width="1172pt" height="237pt"
 viewBox="0.00 0.00 1172.00 237.00" xmlns="http://www.w3.org/2000/svg" xmlns:xlink="http://www.w3.org/1999/xlink">
<g id="graph0" class="graph" transform="scale(1 1) rotate(0) translate(4 233)">
<title>QMainWindow</title>
<!-- Node1 -->
<g id="node1" class="node">
<title>Node1</title>
<g id="a_node1"><a xlink:title=" ">
<polygon fill="#bfbfbf" stroke="black" points="549,-165.5 549,-228.5 651,-228.5 651,-165.5 549,-165.5"/>
<text text-anchor="middle" x="600" y="-214.9" font-family="Helvetica,sans-Serif" font-size="12.00">QMainWindow</text>
<polyline fill="none" stroke="black" points="549,-207.5 651,-207.5 "/>
<text text-anchor="middle" x="600" y="-193.9" font-family="Helvetica,sans-Serif" font-size="12.00"> </text>
<polyline fill="none" stroke="black" points="549,-186.5 651,-186.5 "/>
<text text-anchor="middle" x="600" y="-172.9" font-family="Helvetica,sans-Serif" font-size="12.00"> </text>
</a>
</g>
</g>
<!-- Node2 -->
<g id="node2" class="node">
<title>Node2</title>
<g id="a_node2"><a xlink:href="class_markov_1_1_g_u_i_1_1_c_l_i.html" target="_top" xlink:title="QT CLI Class.">
<polygon fill="none" stroke="black" points="0,-7 0,-122 154,-122 154,-7 0,-7"/>
<text text-anchor="middle" x="77" y="-108.4" font-family="Helvetica,sans-Serif" font-size="12.00">Markov::GUI::CLI</text>
<polyline fill="none" stroke="black" points="0,-101 154,-101 "/>
<text text-anchor="start" x="8" y="-87.4" font-family="Helvetica,sans-Serif" font-size="12.00">&#45; Ui::CLI ui</text>
<polyline fill="none" stroke="black" points="0,-80 154,-80 "/>
<text text-anchor="start" x="8" y="-66.4" font-family="Helvetica,sans-Serif" font-size="12.00">+ CLI(QWidget *parent</text>
<text text-anchor="start" x="8" y="-53.4" font-family="Helvetica,sans-Serif" font-size="12.00">=Q_NULLPTR)</text>
<text text-anchor="start" x="8" y="-40.4" font-family="Helvetica,sans-Serif" font-size="12.00">+ void start()</text>
<text text-anchor="start" x="8" y="-27.4" font-family="Helvetica,sans-Serif" font-size="12.00">+ void statistics()</text>
<text text-anchor="start" x="8" y="-14.4" font-family="Helvetica,sans-Serif" font-size="12.00">+ void about()</text>
</a>
</g>
</g>
<!-- Node1&#45;&gt;Node2 -->
<g id="edge1" class="edge">
<title>Node1&#45;&gt;Node2</title>
<path fill="none" stroke="midnightblue" d="M538.52,-195.75C451.61,-193.39 289.33,-181.53 163,-129 158.12,-126.97 153.25,-124.6 148.47,-122"/>
<polygon fill="none" stroke="midnightblue" points="538.66,-199.25 548.74,-195.99 538.83,-192.26 538.66,-199.25"/>
</g>
<!-- Node3 -->
<g id="node3" class="node">
<title>Node3</title>
<g id="a_node3"><a xlink:href="class_markov_1_1_g_u_i_1_1_generate.html" target="_top" xlink:title="QT Generation page class.">
<polygon fill="none" stroke="black" points="172.5,-0.5 172.5,-128.5 363.5,-128.5 363.5,-0.5 172.5,-0.5"/>
<text text-anchor="middle" x="268" y="-114.9" font-family="Helvetica,sans-Serif" font-size="12.00">Markov::GUI::Generate</text>
<polyline fill="none" stroke="black" points="172.5,-107.5 363.5,-107.5 "/>
<text text-anchor="start" x="180.5" y="-93.9" font-family="Helvetica,sans-Serif" font-size="12.00">&#45; Ui::Generate ui</text>
<polyline fill="none" stroke="black" points="172.5,-86.5 363.5,-86.5 "/>
<text text-anchor="start" x="180.5" y="-72.9" font-family="Helvetica,sans-Serif" font-size="12.00">+ Generate(QWidget *parent</text>
<text text-anchor="start" x="180.5" y="-59.9" font-family="Helvetica,sans-Serif" font-size="12.00">=Q_NULLPTR)</text>
<text text-anchor="start" x="180.5" y="-46.9" font-family="Helvetica,sans-Serif" font-size="12.00">+ void home()</text>
<text text-anchor="start" x="180.5" y="-33.9" font-family="Helvetica,sans-Serif" font-size="12.00">+ void generation()</text>
<text text-anchor="start" x="180.5" y="-20.9" font-family="Helvetica,sans-Serif" font-size="12.00">+ void train()</text>
<text text-anchor="start" x="180.5" y="-7.9" font-family="Helvetica,sans-Serif" font-size="12.00">+ void vis()</text>
</a>
</g>
</g>
<!-- Node1&#45;&gt;Node3 -->
<g id="edge2" class="edge">
<title>Node1&#45;&gt;Node3</title>
<path fill="none" stroke="midnightblue" d="M538.7,-182.45C492.14,-171.08 427.11,-152.87 373,-129 369.88,-127.62 366.74,-126.17 363.6,-124.66"/>
<polygon fill="none" stroke="midnightblue" points="538.09,-185.9 548.64,-184.84 539.73,-179.1 538.09,-185.9"/>
</g>
<!-- Node4 -->
<g id="node4" class="node">
<title>Node4</title>
<g id="a_node4"><a xlink:href="class_markov_1_1_g_u_i_1_1_markov_passwords_g_u_i.html" target="_top" xlink:title="Reporting UI.">
<polygon fill="none" stroke="black" points="382,-0.5 382,-128.5 606,-128.5 606,-0.5 382,-0.5"/>
<text text-anchor="middle" x="494" y="-114.9" font-family="Helvetica,sans-Serif" font-size="12.00">Markov::GUI::MarkovPasswordsGUI</text>
<polyline fill="none" stroke="black" points="382,-107.5 606,-107.5 "/>
<text text-anchor="start" x="390" y="-93.9" font-family="Helvetica,sans-Serif" font-size="12.00">&#45; Ui::MarkovPasswordsGUIClass ui</text>
<polyline fill="none" stroke="black" points="382,-86.5 606,-86.5 "/>
<text text-anchor="start" x="390" y="-72.9" font-family="Helvetica,sans-Serif" font-size="12.00">+ MarkovPasswordsGUI</text>
<text text-anchor="start" x="390" y="-59.9" font-family="Helvetica,sans-Serif" font-size="12.00">(QWidget *parent=Q_NULLPTR)</text>
<text text-anchor="start" x="390" y="-46.9" font-family="Helvetica,sans-Serif" font-size="12.00">+ void benchmarkSelected()</text>
<text text-anchor="start" x="390" y="-33.9" font-family="Helvetica,sans-Serif" font-size="12.00">+ void home()</text>
<text text-anchor="start" x="390" y="-20.9" font-family="Helvetica,sans-Serif" font-size="12.00">+ void pass()</text>
<text text-anchor="start" x="390" y="-7.9" font-family="Helvetica,sans-Serif" font-size="12.00">+ void model()</text>
</a>
</g>
</g>
<!-- Node1&#45;&gt;Node4 -->
<g id="edge3" class="edge">
<title>Node1&#45;&gt;Node4</title>
<path fill="none" stroke="midnightblue" d="M568.82,-157.61C561.39,-148.47 553.27,-138.47 545.21,-128.54"/>
<polygon fill="none" stroke="midnightblue" points="566.13,-159.85 575.15,-165.4 571.56,-155.43 566.13,-159.85"/>
</g>
<!-- Node5 -->
<g id="node5" class="node">
<title>Node5</title>
<g id="a_node5"><a xlink:href="class_markov_1_1_g_u_i_1_1_train.html" target="_top" xlink:title="QT Training page class.">
<polygon fill="none" stroke="black" points="624,-13.5 624,-115.5 788,-115.5 788,-13.5 624,-13.5"/>
<text text-anchor="middle" x="706" y="-101.9" font-family="Helvetica,sans-Serif" font-size="12.00">Markov::GUI::Train</text>
<polyline fill="none" stroke="black" points="624,-94.5 788,-94.5 "/>
<text text-anchor="start" x="632" y="-80.9" font-family="Helvetica,sans-Serif" font-size="12.00">&#45; Ui::Train ui</text>
<polyline fill="none" stroke="black" points="624,-73.5 788,-73.5 "/>
<text text-anchor="start" x="632" y="-59.9" font-family="Helvetica,sans-Serif" font-size="12.00">+ Train(QWidget *parent</text>
<text text-anchor="start" x="632" y="-46.9" font-family="Helvetica,sans-Serif" font-size="12.00">=Q_NULLPTR)</text>
<text text-anchor="start" x="632" y="-33.9" font-family="Helvetica,sans-Serif" font-size="12.00">+ void home()</text>
<text text-anchor="start" x="632" y="-20.9" font-family="Helvetica,sans-Serif" font-size="12.00">+ void train()</text>
</a>
</g>
</g>
<!-- Node1&#45;&gt;Node5 -->
<g id="edge4" class="edge">
<title>Node1&#45;&gt;Node5</title>
<path fill="none" stroke="midnightblue" d="M631.29,-157.48C641.96,-144.34 654.04,-129.47 665.34,-115.56"/>
<polygon fill="none" stroke="midnightblue" points="628.44,-155.43 624.85,-165.4 633.87,-159.85 628.44,-155.43"/>
</g>
<!-- Node6 -->
<g id="node6" class="node">
<title>Node6</title>
<g id="a_node6"><a xlink:href="class_markov_1_1_g_u_i_1_1about.html" target="_top" xlink:title="QT Class for about page.">
<polygon fill="none" stroke="black" points="806,-26.5 806,-102.5 976,-102.5 976,-26.5 806,-26.5"/>
<text text-anchor="middle" x="891" y="-88.9" font-family="Helvetica,sans-Serif" font-size="12.00">Markov::GUI::about</text>
<polyline fill="none" stroke="black" points="806,-81.5 976,-81.5 "/>
<text text-anchor="start" x="814" y="-67.9" font-family="Helvetica,sans-Serif" font-size="12.00">&#45; Ui::main ui</text>
<polyline fill="none" stroke="black" points="806,-60.5 976,-60.5 "/>
<text text-anchor="start" x="814" y="-46.9" font-family="Helvetica,sans-Serif" font-size="12.00">+ about(QWidget *parent</text>
<text text-anchor="start" x="814" y="-33.9" font-family="Helvetica,sans-Serif" font-size="12.00">=Q_NULLPTR)</text>
</a>
</g>
</g>
<!-- Node1&#45;&gt;Node6 -->
<g id="edge5" class="edge">
<title>Node1&#45;&gt;Node6</title>
<path fill="none" stroke="midnightblue" d="M661.11,-179.8C700.88,-168.15 753.3,-150.7 797,-129 811.99,-121.55 827.39,-112.05 841.28,-102.68"/>
<polygon fill="none" stroke="midnightblue" points="659.92,-176.5 651.28,-182.63 661.86,-183.22 659.92,-176.5"/>
</g>
<!-- Node7 -->
<g id="node7" class="node">
<title>Node7</title>
<g id="a_node7"><a xlink:href="class_markov_1_1_g_u_i_1_1menu.html" target="_top" xlink:title="QT Menu class.">
<polygon fill="none" stroke="black" points="994,-13.5 994,-115.5 1164,-115.5 1164,-13.5 994,-13.5"/>
<text text-anchor="middle" x="1079" y="-101.9" font-family="Helvetica,sans-Serif" font-size="12.00">Markov::GUI::menu</text>
<polyline fill="none" stroke="black" points="994,-94.5 1164,-94.5 "/>
<text text-anchor="start" x="1002" y="-80.9" font-family="Helvetica,sans-Serif" font-size="12.00">&#45; Ui::main ui</text>
<polyline fill="none" stroke="black" points="994,-73.5 1164,-73.5 "/>
<text text-anchor="start" x="1002" y="-59.9" font-family="Helvetica,sans-Serif" font-size="12.00">+ menu(QWidget *parent</text>
<text text-anchor="start" x="1002" y="-46.9" font-family="Helvetica,sans-Serif" font-size="12.00">=Q_NULLPTR)</text>
<text text-anchor="start" x="1002" y="-33.9" font-family="Helvetica,sans-Serif" font-size="12.00">+ void about()</text>
<text text-anchor="start" x="1002" y="-20.9" font-family="Helvetica,sans-Serif" font-size="12.00">+ void visualization()</text>
</a>
</g>
</g>
<!-- Node1&#45;&gt;Node7 -->
<g id="edge6" class="edge">
<title>Node1&#45;&gt;Node7</title>
<path fill="none" stroke="midnightblue" d="M661.18,-193.25C739,-188.01 876.3,-172.82 985,-129 994.13,-125.32 1003.28,-120.65 1012.1,-115.53"/>
<polygon fill="none" stroke="midnightblue" points="660.83,-189.77 651.07,-193.9 661.28,-196.76 660.83,-189.77"/>
</g>
</g>
</svg>
