<?xml version="1.0" encoding="UTF-8" standalone="no"?>
<!DOCTYPE svg PUBLIC "-//W3C//DTD SVG 1.1//EN"
 "http://www.w3.org/Graphics/SVG/1.1/DTD/svg11.dtd">
<!-- Generated by graphviz version 2.43.0 (0)
 -->
<!-- Title: Markov::Model&lt; NodeStorageType &gt; Pages: 1 -->
<!--zoomable 1539 -->
<svg id="main" version="1.1" xmlns="http://www.w3.org/2000/svg" xmlns:xlink="http://www.w3.org/1999/xlink" xml:space="preserve" onload="init(evt)">
<style type="text/css"><![CDATA[
.edge:hover path { stroke: red; }
.edge:hover polygon { stroke: red; fill: red; }
]]></style>
<script type="text/javascript"><![CDATA[
var edges = document.getElementsByTagName('g');
if (edges && edges.length) {
  for (var i=0;i<edges.length;i++) {
    if (edges[i].id.substr(0,4)=='edge') {
      edges[i].setAttribute('class','edge');
    }
  }
}
]]></script>
        <defs>
                <circle id="rim" cx="0" cy="0" r="7"/>
                <circle id="rim2" cx="0" cy="0" r="3.5"/>
                <g id="zoomPlus">
                        <use xlink:href="#rim" fill="#404040">
                                <set attributeName="fill" to="#808080" begin="zoomplus.mouseover" end="zoomplus.mouseout"/>
                        </use>
                        <path d="M-4,0h8M0,-4v8" fill="none" stroke="white" stroke-width="1.5" pointer-events="none"/>
                </g>
                <g id="zoomMin">
                        <use xlink:href="#rim" fill="#404040">
                                <set attributeName="fill" to="#808080" begin="zoomminus.mouseover" end="zoomminus.mouseout"/>
                        </use>
                        <path d="M-4,0h8" fill="none" stroke="white" stroke-width="1.5" pointer-events="none"/>
                </g>
                <g id="dirArrow">
                        <path fill="none" stroke="white" stroke-width="1.5" d="M0,-3.0v7 M-2.5,-0.5L0,-3.0L2.5,-0.5"/>
                </g>
               <g id="resetDef">
                       <use xlink:href="#rim2" fill="#404040">
                               <set attributeName="fill" to="#808080" begin="reset.mouseover" end="reset.mouseout"/>
                       </use>
               </g>
        </defs>

<script type="text/javascript">
var viewWidth = 1004;
var viewHeight = 1539;
var sectionId = 'dynsection-1';
</script>
<script xlink:href="svgpan.js"/>
<svg id="graph" class="graph">
<g id="viewport">
<title>Markov::Model&lt; NodeStorageType &gt;</title>
<!-- Node1 -->
<g id="node1" class="node">
<title>Node1</title>
<g id="a_node1"><a xlink:title="class for the final Markov Model, constructed from nodes and edges.">
<polygon fill="#bfbfbf" stroke="black" points="190.5,-395.5 190.5,-588.5 387.5,-588.5 387.5,-395.5 190.5,-395.5"/>
<text text-anchor="start" x="198.5" y="-574.9" font-family="Helvetica,sans-Serif" font-size="12.00">Markov::Model&lt; NodeStorage</text>
<text text-anchor="middle" x="289" y="-561.9" font-family="Helvetica,sans-Serif" font-size="12.00">Type &gt;</text>
<polyline fill="none" stroke="black" points="190.5,-554.5 387.5,-554.5 "/>
<text text-anchor="middle" x="289" y="-540.9" font-family="Helvetica,sans-Serif" font-size="12.00"> </text>
<polyline fill="none" stroke="black" points="190.5,-533.5 387.5,-533.5 "/>
<text text-anchor="start" x="198.5" y="-519.9" font-family="Helvetica,sans-Serif" font-size="12.00">+ Model()</text>
<text text-anchor="start" x="198.5" y="-506.9" font-family="Helvetica,sans-Serif" font-size="12.00">+ RandomWalk()</text>
<text text-anchor="start" x="198.5" y="-493.9" font-family="Helvetica,sans-Serif" font-size="12.00">+ AdjustEdge()</text>
<text text-anchor="start" x="198.5" y="-480.9" font-family="Helvetica,sans-Serif" font-size="12.00">+ Import()</text>
<text text-anchor="start" x="198.5" y="-467.9" font-family="Helvetica,sans-Serif" font-size="12.00">+ Import()</text>
<text text-anchor="start" x="198.5" y="-454.9" font-family="Helvetica,sans-Serif" font-size="12.00">+ Export()</text>
<text text-anchor="start" x="198.5" y="-441.9" font-family="Helvetica,sans-Serif" font-size="12.00">+ Export()</text>
<text text-anchor="start" x="198.5" y="-428.9" font-family="Helvetica,sans-Serif" font-size="12.00">+ StarterNode()</text>
<text text-anchor="start" x="198.5" y="-415.9" font-family="Helvetica,sans-Serif" font-size="12.00">+ Edges()</text>
<text text-anchor="start" x="198.5" y="-402.9" font-family="Helvetica,sans-Serif" font-size="12.00">+ Nodes()</text>
</a>
</g>
</g>
<!-- Node2 -->
<g id="node2" class="node">
<title>Node2</title>
<g id="a_node2"><a xlink:href="class_markov_1_1_node.html" target="_top" xlink:title=" ">
<polygon fill="none" stroke="black" points="337,-881.5 337,-1113.5 529,-1113.5 529,-881.5 337,-881.5"/>
<text text-anchor="start" x="345" y="-1099.9" font-family="Helvetica,sans-Serif" font-size="12.00">Markov::Node&lt; NodeStorage</text>
<text text-anchor="middle" x="433" y="-1086.9" font-family="Helvetica,sans-Serif" font-size="12.00">Type &gt;</text>
<polyline fill="none" stroke="black" points="337,-1079.5 529,-1079.5 "/>
<text text-anchor="start" x="345" y="-1065.9" font-family="Helvetica,sans-Serif" font-size="12.00">&#45; _value</text>
<text text-anchor="start" x="345" y="-1052.9" font-family="Helvetica,sans-Serif" font-size="12.00">&#45; total_edge_weights</text>
<polyline fill="none" stroke="black" points="337,-1045.5 529,-1045.5 "/>
<text text-anchor="start" x="345" y="-1031.9" font-family="Helvetica,sans-Serif" font-size="12.00">+ Node()</text>
<text text-anchor="start" x="345" y="-1018.9" font-family="Helvetica,sans-Serif" font-size="12.00">+ Node()</text>
<text text-anchor="start" x="345" y="-1005.9" font-family="Helvetica,sans-Serif" font-size="12.00">+ Link()</text>
<text text-anchor="start" x="345" y="-992.9" font-family="Helvetica,sans-Serif" font-size="12.00">+ Link()</text>
<text text-anchor="start" x="345" y="-979.9" font-family="Helvetica,sans-Serif" font-size="12.00">+ RandomNext()</text>
<text text-anchor="start" x="345" y="-966.9" font-family="Helvetica,sans-Serif" font-size="12.00">+ UpdateEdges()</text>
<text text-anchor="start" x="345" y="-953.9" font-family="Helvetica,sans-Serif" font-size="12.00">+ FindEdge()</text>
<text text-anchor="start" x="345" y="-940.9" font-family="Helvetica,sans-Serif" font-size="12.00">+ FindEdge()</text>
<text text-anchor="start" x="345" y="-927.9" font-family="Helvetica,sans-Serif" font-size="12.00">+ NodeValue()</text>
<text text-anchor="start" x="345" y="-914.9" font-family="Helvetica,sans-Serif" font-size="12.00">+ UpdateTotalVerticeWeight()</text>
<text text-anchor="start" x="345" y="-901.9" font-family="Helvetica,sans-Serif" font-size="12.00">+ Edges()</text>
<text text-anchor="start" x="345" y="-888.9" font-family="Helvetica,sans-Serif" font-size="12.00">+ TotalEdgeWeights()</text>
</a>
</g>
</g>
<!-- Node2&#45;&gt;Node1 -->
<g id="edge1" class="edge">
<title>Node2&#45;&gt;Node1</title>
<path fill="none" stroke="#404040" d="M360.02,-881.5C349.59,-861.26 340.03,-839.96 333,-819 319.79,-779.6 307.38,-679.65 299.13,-600.72"/>
<polygon fill="none" stroke="#404040" points="299.12,-600.67 294.53,-595.12 297.89,-588.74 302.48,-594.29 299.12,-600.67"/>
<text text-anchor="middle" x="373.5" y="-725.4" font-family="Helvetica,sans-Serif" font-size="12.00"> &#45;starterNode</text>
</g>
<!-- Node12 -->
<g id="node12" class="node">
<title>Node12</title>
<g id="a_node12"><a xlink:href="class_markov_1_1_edge.html" target="_top" xlink:title="Edge class used to link nodes in the model together.">
<polygon fill="none" stroke="black" points="423.5,-638.5 423.5,-818.5 614.5,-818.5 614.5,-638.5 423.5,-638.5"/>
<text text-anchor="start" x="431.5" y="-804.9" font-family="Helvetica,sans-Serif" font-size="12.00">Markov::Edge&lt; NodeStorage</text>
<text text-anchor="middle" x="519" y="-791.9" font-family="Helvetica,sans-Serif" font-size="12.00">Type &gt;</text>
<polyline fill="none" stroke="black" points="423.5,-784.5 614.5,-784.5 "/>
<text text-anchor="start" x="431.5" y="-770.9" font-family="Helvetica,sans-Serif" font-size="12.00">&#45; _weight</text>
<polyline fill="none" stroke="black" points="423.5,-763.5 614.5,-763.5 "/>
<text text-anchor="start" x="431.5" y="-749.9" font-family="Helvetica,sans-Serif" font-size="12.00">+ Edge()</text>
<text text-anchor="start" x="431.5" y="-736.9" font-family="Helvetica,sans-Serif" font-size="12.00">+ Edge()</text>
<text text-anchor="start" x="431.5" y="-723.9" font-family="Helvetica,sans-Serif" font-size="12.00">+ AdjustEdge()</text>
<text text-anchor="start" x="431.5" y="-710.9" font-family="Helvetica,sans-Serif" font-size="12.00">+ TraverseNode()</text>
<text text-anchor="start" x="431.5" y="-697.9" font-family="Helvetica,sans-Serif" font-size="12.00">+ SetLeftEdge()</text>
<text text-anchor="start" x="431.5" y="-684.9" font-family="Helvetica,sans-Serif" font-size="12.00">+ SetRightEdge()</text>
<text text-anchor="start" x="431.5" y="-671.9" font-family="Helvetica,sans-Serif" font-size="12.00">+ EdgeWeight()</text>
<text text-anchor="start" x="431.5" y="-658.9" font-family="Helvetica,sans-Serif" font-size="12.00">+ LeftNode()</text>
<text text-anchor="start" x="431.5" y="-645.9" font-family="Helvetica,sans-Serif" font-size="12.00">+ RightNode()</text>
</a>
</g>
</g>
<!-- Node2&#45;&gt;Node12 -->
<g id="edge13" class="edge">
<title>Node2&#45;&gt;Node12</title>
<path fill="none" stroke="#404040" d="M470.1,-881.33C475.6,-864.24 481.23,-846.75 486.63,-829.99"/>
<polygon fill="none" stroke="#404040" points="486.65,-829.95 484.68,-823.01 490.32,-818.53 492.29,-825.46 486.65,-829.95"/>
<text text-anchor="middle" x="503.5" y="-853.4" font-family="Helvetica,sans-Serif" font-size="12.00"> &#45;_left</text>
<text text-anchor="middle" x="503.5" y="-840.4" font-family="Helvetica,sans-Serif" font-size="12.00">&#45;_right</text>
</g>
<!-- Node14 -->
<g id="node14" class="node">
<title>Node14</title>
<g id="a_node14"><a xlink:title=" ">
<polygon fill="none" stroke="#bfbfbf" points="28,-690.5 28,-766.5 288,-766.5 288,-690.5 28,-690.5"/>
<text text-anchor="start" x="36" y="-752.9" font-family="Helvetica,sans-Serif" font-size="12.00">std::map&lt; NodeStorageType,</text>
<text text-anchor="middle" x="158" y="-739.9" font-family="Helvetica,sans-Serif" font-size="12.00"> Markov::Node&lt; NodeStorageType &gt; * &gt;</text>
<polyline fill="none" stroke="#bfbfbf" points="28,-732.5 288,-732.5 "/>
<text text-anchor="start" x="36" y="-718.9" font-family="Helvetica,sans-Serif" font-size="12.00">+ keys</text>
<polyline fill="none" stroke="#bfbfbf" points="28,-711.5 288,-711.5 "/>
<text text-anchor="middle" x="158" y="-697.9" font-family="Helvetica,sans-Serif" font-size="12.00"> </text>
</a>
</g>
</g>
<!-- Node2&#45;&gt;Node14 -->
<g id="edge19" class="edge">
<title>Node2&#45;&gt;Node14</title>
<path fill="none" stroke="#404040" d="M336.55,-941.15C303.59,-919.42 268.02,-892.58 240,-863 216.08,-837.75 195.6,-804.41 181.08,-777.37"/>
<polygon fill="none" stroke="#404040" points="181,-777.21 174.68,-773.76 175.43,-766.59 181.76,-770.04 181,-777.21"/>
<text text-anchor="middle" x="275" y="-846.9" font-family="Helvetica,sans-Serif" font-size="12.00"> +elements</text>
</g>
<!-- Node3 -->
<g id="node3" class="node">
<title>Node3</title>
<g id="a_node3"><a xlink:title=" ">
<polygon fill="none" stroke="#bfbfbf" points="214.5,-1189.5 214.5,-1278.5 473.5,-1278.5 473.5,-1189.5 214.5,-1189.5"/>
<text text-anchor="start" x="222.5" y="-1264.9" font-family="Helvetica,sans-Serif" font-size="12.00">std::map&lt; NodeStorageType,</text>
<text text-anchor="middle" x="344" y="-1251.9" font-family="Helvetica,sans-Serif" font-size="12.00"> Markov::Edge&lt; NodeStorageType &gt; * &gt;</text>
<polyline fill="none" stroke="#bfbfbf" points="214.5,-1244.5 473.5,-1244.5 "/>
<text text-anchor="start" x="222.5" y="-1230.9" font-family="Helvetica,sans-Serif" font-size="12.00">+ keys</text>
<text text-anchor="start" x="222.5" y="-1217.9" font-family="Helvetica,sans-Serif" font-size="12.00">+ elements</text>
<polyline fill="none" stroke="#bfbfbf" points="214.5,-1210.5 473.5,-1210.5 "/>
<text text-anchor="middle" x="344" y="-1196.9" font-family="Helvetica,sans-Serif" font-size="12.00"> </text>
</a>
</g>
</g>
<!-- Node3&#45;&gt;Node2 -->
<g id="edge2" class="edge">
<title>Node3&#45;&gt;Node2</title>
<path fill="none" stroke="#404040" d="M360.53,-1189.44C367.57,-1170.89 376.19,-1148.19 384.98,-1125.01"/>
<polygon fill="none" stroke="#404040" points="385.05,-1124.83 383.44,-1117.8 389.31,-1113.61 390.92,-1120.64 385.05,-1124.83"/>
<text text-anchor="middle" x="403.5" y="-1148.4" font-family="Helvetica,sans-Serif" font-size="12.00"> &#45;edges</text>
</g>
<!-- Node4 -->
<g id="node4" class="node">
<title>Node4</title>
<g id="a_node4"><a xlink:title="STL class.">
<polygon fill="none" stroke="#bfbfbf" points="198.5,-1354.5 198.5,-1417.5 317.5,-1417.5 317.5,-1354.5 198.5,-1354.5"/>
<text text-anchor="middle" x="258" y="-1403.9" font-family="Helvetica,sans-Serif" font-size="12.00">std::map&lt; K, T &gt;</text>
<polyline fill="none" stroke="#bfbfbf" points="198.5,-1396.5 317.5,-1396.5 "/>
<text text-anchor="middle" x="258" y="-1382.9" font-family="Helvetica,sans-Serif" font-size="12.00"> </text>
<polyline fill="none" stroke="#bfbfbf" points="198.5,-1375.5 317.5,-1375.5 "/>
<text text-anchor="middle" x="258" y="-1361.9" font-family="Helvetica,sans-Serif" font-size="12.00"> </text>
</a>
</g>
</g>
<!-- Node4&#45;&gt;Node3 -->
<g id="edge3" class="edge">
<title>Node4&#45;&gt;Node3</title>
<path fill="none" stroke="orange" d="M280.64,-1345.51C292.41,-1324.99 306.81,-1299.86 318.91,-1278.76"/>
<polygon fill="orange" stroke="orange" points="277.55,-1343.87 275.61,-1354.28 283.62,-1347.35 277.55,-1343.87"/>
<text text-anchor="start" x="307" y="-1326.4" font-family="Helvetica,sans-Serif" font-size="12.00"> &lt; NodeStorageType,</text>
<text text-anchor="start" x="307" y="-1313.4" font-family="Helvetica,sans-Serif" font-size="12.00"> Markov::Edge&lt; NodeStorage</text>
<text text-anchor="middle" x="396" y="-1300.4" font-family="Helvetica,sans-Serif" font-size="12.00">Type &gt; * &gt;</text>
</g>
<!-- Node13 -->
<g id="node13" class="node">
<title>Node13</title>
<g id="a_node13"><a xlink:title=" ">
<polygon fill="none" stroke="#bfbfbf" points="389,-269.5 389,-345.5 615,-345.5 615,-269.5 389,-269.5"/>
<text text-anchor="start" x="397" y="-331.9" font-family="Helvetica,sans-Serif" font-size="12.00">std::map&lt; storageType,</text>
<text text-anchor="middle" x="502" y="-318.9" font-family="Helvetica,sans-Serif" font-size="12.00"> Markov::Edge&lt; storageType &gt; * &gt;</text>
<polyline fill="none" stroke="#bfbfbf" points="389,-311.5 615,-311.5 "/>
<text text-anchor="start" x="397" y="-297.9" font-family="Helvetica,sans-Serif" font-size="12.00">+ keys</text>
<polyline fill="none" stroke="#bfbfbf" points="389,-290.5 615,-290.5 "/>
<text text-anchor="middle" x="502" y="-276.9" font-family="Helvetica,sans-Serif" font-size="12.00"> </text>
</a>
</g>
</g>
<!-- Node4&#45;&gt;Node13 -->
<g id="edge17" class="edge">
<title>Node4&#45;&gt;Node13</title>
<path fill="none" stroke="orange" d="M188.42,-1375.05C112.01,-1359.74 0,-1322.39 0,-1235 0,-1235 0,-1235 0,-491 0,-408.82 240.66,-352.95 388.72,-326.35"/>
<polygon fill="orange" stroke="orange" points="188.01,-1378.54 198.49,-1376.99 189.32,-1371.66 188.01,-1378.54"/>
<text text-anchor="start" x="0" y="-853.4" font-family="Helvetica,sans-Serif" font-size="12.00"> &lt; storageType, Markov</text>
<text text-anchor="middle" x="81" y="-840.4" font-family="Helvetica,sans-Serif" font-size="12.00">::Edge&lt; storageType &gt; * &gt;</text>
</g>
<!-- Node4&#45;&gt;Node14 -->
<g id="edge20" class="edge">
<title>Node4&#45;&gt;Node14</title>
<path fill="none" stroke="orange" d="M235.06,-1345.54C224.57,-1326.06 212.78,-1301.87 205,-1279 141.49,-1092.26 177.01,-1033.88 165,-837 163.58,-813.66 161.87,-787.49 160.5,-766.81"/>
<polygon fill="orange" stroke="orange" points="232.05,-1347.34 239.92,-1354.42 238.19,-1343.97 232.05,-1347.34"/>
<text text-anchor="start" x="176" y="-1161.4" font-family="Helvetica,sans-Serif" font-size="12.00"> &lt; NodeStorageType,</text>
<text text-anchor="start" x="176" y="-1148.4" font-family="Helvetica,sans-Serif" font-size="12.00"> Markov::Node&lt; NodeStorage</text>
<text text-anchor="middle" x="266" y="-1135.4" font-family="Helvetica,sans-Serif" font-size="12.00">Type &gt; * &gt;</text>
</g>
<!-- Node5 -->
<g id="node5" class="node">
<title>Node5</title>
<g id="a_node5"><a xlink:title=" ">
<polygon fill="none" stroke="#bfbfbf" points="243.5,-1467.5 243.5,-1530.5 272.5,-1530.5 272.5,-1467.5 243.5,-1467.5"/>
<text text-anchor="middle" x="258" y="-1516.9" font-family="Helvetica,sans-Serif" font-size="12.00">K</text>
<polyline fill="none" stroke="#bfbfbf" points="243.5,-1509.5 272.5,-1509.5 "/>
<text text-anchor="middle" x="258" y="-1495.9" font-family="Helvetica,sans-Serif" font-size="12.00"> </text>
<polyline fill="none" stroke="#bfbfbf" points="243.5,-1488.5 272.5,-1488.5 "/>
<text text-anchor="middle" x="258" y="-1474.9" font-family="Helvetica,sans-Serif" font-size="12.00"> </text>
</a>
</g>
</g>
<!-- Node5&#45;&gt;Node4 -->
<g id="edge4" class="edge">
<title>Node5&#45;&gt;Node4</title>
<path fill="none" stroke="#404040" d="M258,-1467.37C258,-1455.73 258,-1442.24 258,-1429.68"/>
<polygon fill="none" stroke="#404040" points="258,-1429.53 254,-1423.53 258,-1417.53 262,-1423.53 258,-1429.53"/>
<text text-anchor="middle" x="278.5" y="-1439.4" font-family="Helvetica,sans-Serif" font-size="12.00"> +keys</text>
</g>
<!-- Node6 -->
<g id="node6" class="node">
<title>Node6</title>
<g id="a_node6"><a xlink:title=" ">
<polygon fill="none" stroke="#bfbfbf" points="462.5,-1467.5 462.5,-1530.5 491.5,-1530.5 491.5,-1467.5 462.5,-1467.5"/>
<text text-anchor="middle" x="477" y="-1516.9" font-family="Helvetica,sans-Serif" font-size="12.00">T</text>
<polyline fill="none" stroke="#bfbfbf" points="462.5,-1509.5 491.5,-1509.5 "/>
<text text-anchor="middle" x="477" y="-1495.9" font-family="Helvetica,sans-Serif" font-size="12.00"> </text>
<polyline fill="none" stroke="#bfbfbf" points="462.5,-1488.5 491.5,-1488.5 "/>
<text text-anchor="middle" x="477" y="-1474.9" font-family="Helvetica,sans-Serif" font-size="12.00"> </text>
</a>
</g>
</g>
<!-- Node6&#45;&gt;Node4 -->
<g id="edge5" class="edge">
<title>Node6&#45;&gt;Node4</title>
<path fill="none" stroke="#404040" d="M462.29,-1490.54C435.33,-1476.88 376.4,-1447.01 328.72,-1422.84"/>
<polygon fill="none" stroke="#404040" points="328.51,-1422.74 321.35,-1423.59 317.81,-1417.31 324.97,-1416.46 328.51,-1422.74"/>
<text text-anchor="middle" x="410" y="-1439.4" font-family="Helvetica,sans-Serif" font-size="12.00"> +elements</text>
</g>
<!-- Node8 -->
<g id="node8" class="node">
<title>Node8</title>
<g id="a_node8"><a xlink:title="STL class.">
<polygon fill="none" stroke="#bfbfbf" points="542.5,-1354.5 542.5,-1417.5 657.5,-1417.5 657.5,-1354.5 542.5,-1354.5"/>
<text text-anchor="middle" x="600" y="-1403.9" font-family="Helvetica,sans-Serif" font-size="12.00">std::vector&lt; T &gt;</text>
<polyline fill="none" stroke="#bfbfbf" points="542.5,-1396.5 657.5,-1396.5 "/>
<text text-anchor="middle" x="600" y="-1382.9" font-family="Helvetica,sans-Serif" font-size="12.00"> </text>
<polyline fill="none" stroke="#bfbfbf" points="542.5,-1375.5 657.5,-1375.5 "/>
<text text-anchor="middle" x="600" y="-1361.9" font-family="Helvetica,sans-Serif" font-size="12.00"> </text>
</a>
</g>
</g>
<!-- Node6&#45;&gt;Node8 -->
<g id="edge8" class="edge">
<title>Node6&#45;&gt;Node8</title>
<path fill="none" stroke="#404040" d="M491.59,-1484.83C507.64,-1470.35 534.19,-1446.39 557,-1425.81"/>
<polygon fill="none" stroke="#404040" points="557.27,-1425.56 559.04,-1418.58 566.17,-1417.53 564.4,-1424.51 557.27,-1425.56"/>
<text text-anchor="middle" x="578" y="-1439.4" font-family="Helvetica,sans-Serif" font-size="12.00"> +elements</text>
</g>
<!-- Node7 -->
<g id="node7" class="node">
<title>Node7</title>
<g id="a_node7"><a xlink:title=" ">
<polygon fill="none" stroke="#bfbfbf" points="494.5,-1196 494.5,-1272 705.5,-1272 705.5,-1196 494.5,-1196"/>
<text text-anchor="start" x="502.5" y="-1258.4" font-family="Helvetica,sans-Serif" font-size="12.00">std::vector&lt; Markov</text>
<text text-anchor="middle" x="600" y="-1245.4" font-family="Helvetica,sans-Serif" font-size="12.00">::Edge&lt; NodeStorageType &gt; * &gt;</text>
<polyline fill="none" stroke="#bfbfbf" points="494.5,-1238 705.5,-1238 "/>
<text text-anchor="start" x="502.5" y="-1224.4" font-family="Helvetica,sans-Serif" font-size="12.00">+ elements</text>
<polyline fill="none" stroke="#bfbfbf" points="494.5,-1217 705.5,-1217 "/>
<text text-anchor="middle" x="600" y="-1203.4" font-family="Helvetica,sans-Serif" font-size="12.00"> </text>
</a>
</g>
</g>
<!-- Node7&#45;&gt;Node1 -->
<g id="edge21" class="edge">
<title>Node7&#45;&gt;Node1</title>
<path fill="none" stroke="#404040" d="M612.5,-1195.98C614.75,-1187.84 616.77,-1179.2 618,-1171 653.02,-936.7 687.31,-866 623,-638 596.02,-542.35 498.34,-623.51 399.28,-589.59"/>
<polygon fill="none" stroke="#404040" points="399.01,-589.49 391.97,-591.04 387.83,-585.14 394.87,-583.59 399.01,-589.49"/>
<text text-anchor="middle" x="682.5" y="-846.9" font-family="Helvetica,sans-Serif" font-size="12.00"> &#45;edges</text>
</g>
<!-- Node7&#45;&gt;Node2 -->
<g id="edge6" class="edge">
<title>Node7&#45;&gt;Node2</title>
<path fill="none" stroke="#404040" d="M573.54,-1195.84C559.29,-1175.83 540.79,-1149.85 521.92,-1123.35"/>
<polygon fill="none" stroke="#404040" points="521.92,-1123.35 515.18,-1120.79 514.95,-1113.58 521.69,-1116.15 521.92,-1123.35"/>
<text text-anchor="middle" x="585" y="-1148.4" font-family="Helvetica,sans-Serif" font-size="12.00"> +edgesV</text>
</g>
<!-- Node8&#45;&gt;Node7 -->
<g id="edge7" class="edge">
<title>Node8&#45;&gt;Node7</title>
<path fill="none" stroke="orange" d="M600,-1344.03C600,-1321.55 600,-1293.88 600,-1272.04"/>
<polygon fill="orange" stroke="orange" points="596.5,-1344.28 600,-1354.28 603.5,-1344.28 596.5,-1344.28"/>
<text text-anchor="start" x="600" y="-1319.9" font-family="Helvetica,sans-Serif" font-size="12.00"> &lt; Markov::Edge&lt; NodeStorage</text>
<text text-anchor="middle" x="696" y="-1306.9" font-family="Helvetica,sans-Serif" font-size="12.00">Type &gt; * &gt;</text>
</g>
<!-- Node10 -->
<g id="node10" class="node">
<title>Node10</title>
<g id="a_node10"><a xlink:title=" ">
<polygon fill="none" stroke="#bfbfbf" points="671,-269.5 671,-345.5 849,-345.5 849,-269.5 671,-269.5"/>
<text text-anchor="start" x="679" y="-331.9" font-family="Helvetica,sans-Serif" font-size="12.00">std::vector&lt; Markov</text>
<text text-anchor="middle" x="760" y="-318.9" font-family="Helvetica,sans-Serif" font-size="12.00">::Edge&lt; storageType &gt; * &gt;</text>
<polyline fill="none" stroke="#bfbfbf" points="671,-311.5 849,-311.5 "/>
<text text-anchor="middle" x="760" y="-297.9" font-family="Helvetica,sans-Serif" font-size="12.00"> </text>
<polyline fill="none" stroke="#bfbfbf" points="671,-290.5 849,-290.5 "/>
<text text-anchor="middle" x="760" y="-276.9" font-family="Helvetica,sans-Serif" font-size="12.00"> </text>
</a>
</g>
</g>
<!-- Node8&#45;&gt;Node10 -->
<g id="edge14" class="edge">
<title>Node8&#45;&gt;Node10</title>
<path fill="none" stroke="orange" d="M667.7,-1376.13C717,-1368.23 777.99,-1354.96 795,-1336 825.26,-1302.27 809,-1280.32 809,-1235 809,-1235 809,-1235 809,-491 809,-439.33 790.45,-382.16 776.18,-345.81"/>
<polygon fill="orange" stroke="orange" points="667.04,-1372.69 657.7,-1377.69 668.11,-1379.61 667.04,-1372.69"/>
<text text-anchor="start" x="809" y="-853.4" font-family="Helvetica,sans-Serif" font-size="12.00"> &lt; Markov::Edge&lt; storageType</text>
<text text-anchor="middle" x="902.5" y="-840.4" font-family="Helvetica,sans-Serif" font-size="12.00"> &gt; * &gt;</text>
</g>
<!-- Node9 -->
<g id="node9" class="node">
<title>Node9</title>
<g id="a_node9"><a xlink:href="class_markov_1_1_node.html" target="_top" xlink:title="A node class that for the vertices of model. Connected with eachother using Edge.">
<polygon fill="none" stroke="black" points="543,-0.5 543,-219.5 743,-219.5 743,-0.5 543,-0.5"/>
<text text-anchor="middle" x="643" y="-205.9" font-family="Helvetica,sans-Serif" font-size="12.00">Markov::Node&lt; storageType &gt;</text>
<polyline fill="none" stroke="black" points="543,-198.5 743,-198.5 "/>
<text text-anchor="start" x="551" y="-184.9" font-family="Helvetica,sans-Serif" font-size="12.00">&#45; _value</text>
<text text-anchor="start" x="551" y="-171.9" font-family="Helvetica,sans-Serif" font-size="12.00">&#45; total_edge_weights</text>
<polyline fill="none" stroke="black" points="543,-164.5 743,-164.5 "/>
<text text-anchor="start" x="551" y="-150.9" font-family="Helvetica,sans-Serif" font-size="12.00">+ Node()</text>
<text text-anchor="start" x="551" y="-137.9" font-family="Helvetica,sans-Serif" font-size="12.00">+ Node()</text>
<text text-anchor="start" x="551" y="-124.9" font-family="Helvetica,sans-Serif" font-size="12.00">+ Link()</text>
<text text-anchor="start" x="551" y="-111.9" font-family="Helvetica,sans-Serif" font-size="12.00">+ Link()</text>
<text text-anchor="start" x="551" y="-98.9" font-family="Helvetica,sans-Serif" font-size="12.00">+ RandomNext()</text>
<text text-anchor="start" x="551" y="-85.9" font-family="Helvetica,sans-Serif" font-size="12.00">+ UpdateEdges()</text>
<text text-anchor="start" x="551" y="-72.9" font-family="Helvetica,sans-Serif" font-size="12.00">+ FindEdge()</text>
<text text-anchor="start" x="551" y="-59.9" font-family="Helvetica,sans-Serif" font-size="12.00">+ FindEdge()</text>
<text text-anchor="start" x="551" y="-46.9" font-family="Helvetica,sans-Serif" font-size="12.00">+ NodeValue()</text>
<text text-anchor="start" x="551" y="-33.9" font-family="Helvetica,sans-Serif" font-size="12.00">+ UpdateTotalVerticeWeight()</text>
<text text-anchor="start" x="551" y="-20.9" font-family="Helvetica,sans-Serif" font-size="12.00">+ Edges()</text>
<text text-anchor="start" x="551" y="-7.9" font-family="Helvetica,sans-Serif" font-size="12.00">+ TotalEdgeWeights()</text>
</a>
</g>
</g>
<!-- Node9&#45;&gt;Node2 -->
<g id="edge9" class="edge">
<title>Node9&#45;&gt;Node2</title>
<path fill="none" stroke="orange" d="M643,-229.61C643,-254.98 643,-281.63 643,-306.5 643,-729.5 643,-729.5 643,-729.5 643,-770.26 643.24,-783.62 623,-819 599.58,-859.95 563.62,-897.04 529.26,-926.6"/>
<polygon fill="orange" stroke="orange" points="646.5,-229.58 643,-219.58 639.5,-229.58 646.5,-229.58"/>
<text text-anchor="middle" x="712" y="-488.9" font-family="Helvetica,sans-Serif" font-size="12.00"> &lt; NodeStorageType &gt;</text>
</g>
<!-- Node10&#45;&gt;Node9 -->
<g id="edge10" class="edge">
<title>Node10&#45;&gt;Node9</title>
<path fill="none" stroke="#404040" d="M737.72,-269.27C730.78,-257.68 722.73,-244.22 714.3,-230.14"/>
<polygon fill="none" stroke="#404040" points="714.27,-230.08 707.75,-226.99 708.11,-219.79 714.62,-222.88 714.27,-230.08"/>
<text text-anchor="middle" x="755" y="-241.4" font-family="Helvetica,sans-Serif" font-size="12.00"> +edgesV</text>
</g>
<!-- Node11 -->
<g id="node11" class="node">
<title>Node11</title>
<g id="a_node11"><a xlink:href="class_markov_1_1_edge.html" target="_top" xlink:title=" ">
<polygon fill="none" stroke="black" points="405.5,-395.5 405.5,-588.5 604.5,-588.5 604.5,-395.5 405.5,-395.5"/>
<text text-anchor="middle" x="505" y="-574.9" font-family="Helvetica,sans-Serif" font-size="12.00">Markov::Edge&lt; storageType &gt;</text>
<polyline fill="none" stroke="black" points="405.5,-567.5 604.5,-567.5 "/>
<text text-anchor="start" x="413.5" y="-553.9" font-family="Helvetica,sans-Serif" font-size="12.00">&#45; _left</text>
<text text-anchor="start" x="413.5" y="-540.9" font-family="Helvetica,sans-Serif" font-size="12.00">&#45; _right</text>
<text text-anchor="start" x="413.5" y="-527.9" font-family="Helvetica,sans-Serif" font-size="12.00">&#45; _weight</text>
<polyline fill="none" stroke="black" points="405.5,-520.5 604.5,-520.5 "/>
<text text-anchor="start" x="413.5" y="-506.9" font-family="Helvetica,sans-Serif" font-size="12.00">+ Edge()</text>
<text text-anchor="start" x="413.5" y="-493.9" font-family="Helvetica,sans-Serif" font-size="12.00">+ Edge()</text>
<text text-anchor="start" x="413.5" y="-480.9" font-family="Helvetica,sans-Serif" font-size="12.00">+ AdjustEdge()</text>
<text text-anchor="start" x="413.5" y="-467.9" font-family="Helvetica,sans-Serif" font-size="12.00">+ TraverseNode()</text>
<text text-anchor="start" x="413.5" y="-454.9" font-family="Helvetica,sans-Serif" font-size="12.00">+ SetLeftEdge()</text>
<text text-anchor="start" x="413.5" y="-441.9" font-family="Helvetica,sans-Serif" font-size="12.00">+ SetRightEdge()</text>
<text text-anchor="start" x="413.5" y="-428.9" font-family="Helvetica,sans-Serif" font-size="12.00">+ EdgeWeight()</text>
<text text-anchor="start" x="413.5" y="-415.9" font-family="Helvetica,sans-Serif" font-size="12.00">+ LeftNode()</text>
<text text-anchor="start" x="413.5" y="-402.9" font-family="Helvetica,sans-Serif" font-size="12.00">+ RightNode()</text>
</a>
</g>
</g>
<!-- Node11&#45;&gt;Node10 -->
<g id="edge11" class="edge">
<title>Node11&#45;&gt;Node10</title>
<path fill="none" stroke="#404040" d="M604.62,-407.14C610.11,-402.97 615.59,-398.89 621,-395 641.62,-380.16 664.78,-365.14 686.2,-351.87"/>
<polygon fill="none" stroke="#404040" points="686.33,-351.79 689.35,-345.24 696.55,-345.5 693.54,-352.05 686.33,-351.79"/>
<text text-anchor="middle" x="701" y="-367.4" font-family="Helvetica,sans-Serif" font-size="12.00"> +elements</text>
</g>
<!-- Node11&#45;&gt;Node13 -->
<g id="edge16" class="edge">
<title>Node11&#45;&gt;Node13</title>
<path fill="none" stroke="#404040" d="M503.43,-395.47C503.22,-382.43 503,-369.5 502.81,-357.75"/>
<polygon fill="none" stroke="#404040" points="502.81,-357.53 498.71,-351.59 502.61,-345.53 506.71,-351.46 502.81,-357.53"/>
<text text-anchor="middle" x="539" y="-367.4" font-family="Helvetica,sans-Serif" font-size="12.00"> +elements</text>
</g>
<!-- Node12&#45;&gt;Node11 -->
<g id="edge12" class="edge">
<title>Node12&#45;&gt;Node11</title>
<path fill="none" stroke="orange" d="M513.05,-627.85C512.28,-614.88 511.48,-601.62 510.71,-588.71"/>
<polygon fill="orange" stroke="orange" points="509.58,-628.4 513.67,-638.18 516.56,-627.99 509.58,-628.4"/>
<text text-anchor="middle" x="565.5" y="-610.4" font-family="Helvetica,sans-Serif" font-size="12.00"> &lt; storageType &gt;</text>
</g>
<!-- Node13&#45;&gt;Node9 -->
<g id="edge15" class="edge">
<title>Node13&#45;&gt;Node9</title>
<path fill="none" stroke="#404040" d="M528.85,-269.27C537.29,-257.57 547.11,-243.96 557.37,-229.72"/>
<polygon fill="none" stroke="#404040" points="557.52,-229.52 557.78,-222.31 564.54,-219.79 564.27,-226.99 557.52,-229.52"/>
<text text-anchor="middle" x="570.5" y="-241.4" font-family="Helvetica,sans-Serif" font-size="12.00"> &#45;edges</text>
</g>
<!-- Node14&#45;&gt;Node1 -->
<g id="edge18" class="edge">
<title>Node14&#45;&gt;Node1</title>
<path fill="none" stroke="#404040" d="M178.76,-690.34C192.56,-665.64 211.44,-631.84 229.67,-599.2"/>
<polygon fill="none" stroke="#404040" points="229.71,-599.14 229.14,-591.95 235.56,-588.66 236.13,-595.85 229.71,-599.14"/>
<text text-anchor="middle" x="246.5" y="-610.4" font-family="Helvetica,sans-Serif" font-size="12.00"> &#45;nodes</text>
</g>
</g>
</svg>
        <g id="navigator" transform="translate(0 0)" fill="#404254">
                <rect fill="#f2f5e9" fill-opacity="0.5" stroke="#606060" stroke-width=".5" x="0" y="0" width="60" height="60"/>
                <use id="zoomplus" xlink:href="#zoomPlus" x="17" y="9" onmousedown="handleZoom(evt,'in')"/>
                <use id="zoomminus" xlink:href="#zoomMin" x="42" y="9" onmousedown="handleZoom(evt,'out')"/>
                <use id="reset" xlink:href="#resetDef" x="30" y="36" onmousedown="handleReset()"/>
                <g id="arrowUp" xlink:href="#dirArrow" transform="translate(30 24)" onmousedown="handlePan(0,-1)">
                  <use xlink:href="#rim" fill="#404040">
                        <set attributeName="fill" to="#808080" begin="arrowUp.mouseover" end="arrowUp.mouseout"/>
                  </use>
                  <path fill="none" stroke="white" stroke-width="1.5" d="M0,-3.0v7 M-2.5,-0.5L0,-3.0L2.5,-0.5"/>
                </g>
                <g id="arrowRight" xlink:href="#dirArrow" transform="rotate(90) translate(36 -43)" onmousedown="handlePan(1,0)">
                  <use xlink:href="#rim" fill="#404040">
                        <set attributeName="fill" to="#808080" begin="arrowRight.mouseover" end="arrowRight.mouseout"/>
                  </use>
                  <path fill="none" stroke="white" stroke-width="1.5" d="M0,-3.0v7 M-2.5,-0.5L0,-3.0L2.5,-0.5"/>
                </g>
                <g id="arrowDown" xlink:href="#dirArrow" transform="rotate(180) translate(-30 -48)" onmousedown="handlePan(0,1)">
                  <use xlink:href="#rim" fill="#404040">
                        <set attributeName="fill" to="#808080" begin="arrowDown.mouseover" end="arrowDown.mouseout"/>
                  </use>
                  <path fill="none" stroke="white" stroke-width="1.5" d="M0,-3.0v7 M-2.5,-0.5L0,-3.0L2.5,-0.5"/>
                </g>
                <g id="arrowLeft" xlink:href="#dirArrow" transform="rotate(270) translate(-36 17)" onmousedown="handlePan(-1,0)">
                  <use xlink:href="#rim" fill="#404040">
                        <set attributeName="fill" to="#808080" begin="arrowLeft.mouseover" end="arrowLeft.mouseout"/>
                  </use>
                  <path fill="none" stroke="white" stroke-width="1.5" d="M0,-3.0v7 M-2.5,-0.5L0,-3.0L2.5,-0.5"/>
                </g>
        </g>
        <svg viewBox="0 0 15 15" width="100%" height="30px" preserveAspectRatio="xMaxYMin meet">
         <g id="arrow_out" transform="scale(0.3 0.3)">
          <a xlink:href="class_markov_1_1_model__coll__graph_org.svg" target="_base">
           <rect id="button" ry="5" rx="5" y="6" x="6" height="38" width="38"
                fill="#f2f5e9" fill-opacity="0.5" stroke="#606060" stroke-width="1.0"/>
           <path id="arrow"
             d="M 11.500037,31.436501 C 11.940474,20.09759 22.043105,11.32322 32.158766,21.979434 L 37.068811,17.246167 C 37.068811,17.246167 37.088388,32 37.088388,32 L 22.160133,31.978069 C 22.160133,31.978069 26.997745,27.140456 26.997745,27.140456 C 18.528582,18.264221 13.291696,25.230495 11.500037,31.436501 z"
             style="fill:#404040;"/>
          </a>
         </g>
        </svg>
</svg>
