<?xml version="1.0" encoding="UTF-8" standalone="no"?>
<!DOCTYPE svg PUBLIC "-//W3C//DTD SVG 1.1//EN"
 "http://www.w3.org/Graphics/SVG/1.1/DTD/svg11.dtd">
<!-- Generated by graphviz version 2.43.0 (0)
 -->
<!-- Title: Markov::GUI::MarkovPasswordsGUI Pages: 1 -->
<svg width="232pt" height="237pt"
 viewBox="0.00 0.00 232.00 237.00" xmlns="http://www.w3.org/2000/svg" xmlns:xlink="http://www.w3.org/1999/xlink">
<g id="graph0" class="graph" transform="scale(1 1) rotate(0) translate(4 233)">
<title>Markov::GUI::MarkovPasswordsGUI</title>
<!-- Node1 -->
<g id="node1" class="node">
<title>Node1</title>
<g id="a_node1"><a xlink:title="Reporting UI.">
<polygon fill="#bfbfbf" stroke="black" points="0,-0.5 0,-128.5 224,-128.5 224,-0.5 0,-0.5"/>
<text text-anchor="middle" x="112" y="-114.9" font-family="Helvetica,sans-Serif" font-size="12.00">Markov::GUI::MarkovPasswordsGUI</text>
<polyline fill="none" stroke="black" points="0,-107.5 224,-107.5 "/>
<text text-anchor="start" x="8" y="-93.9" font-family="Helvetica,sans-Serif" font-size="12.00">&#45; Ui::MarkovPasswordsGUIClass ui</text>
<polyline fill="none" stroke="black" points="0,-86.5 224,-86.5 "/>
<text text-anchor="start" x="8" y="-72.9" font-family="Helvetica,sans-Serif" font-size="12.00">+ MarkovPasswordsGUI</text>
<text text-anchor="start" x="8" y="-59.9" font-family="Helvetica,sans-Serif" font-size="12.00">(QWidget *parent=Q_NULLPTR)</text>
<text text-anchor="start" x="8" y="-46.9" font-family="Helvetica,sans-Serif" font-size="12.00">+ void benchmarkSelected()</text>
<text text-anchor="start" x="8" y="-33.9" font-family="Helvetica,sans-Serif" font-size="12.00">+ void home()</text>
<text text-anchor="start" x="8" y="-20.9" font-family="Helvetica,sans-Serif" font-size="12.00">+ void pass()</text>
<text text-anchor="start" x="8" y="-7.9" font-family="Helvetica,sans-Serif" font-size="12.00">+ void model()</text>
</a>
</g>
</g>
<!-- Node2 -->
<g id="node2" class="node">
<title>Node2</title>
<g id="a_node2"><a xlink:href="class_q_main_window.html" target="_top" xlink:title=" ">
<polygon fill="none" stroke="black" points="61,-165.5 61,-228.5 163,-228.5 163,-165.5 61,-165.5"/>
<text text-anchor="middle" x="112" y="-214.9" font-family="Helvetica,sans-Serif" font-size="12.00">QMainWindow</text>
<polyline fill="none" stroke="black" points="61,-207.5 163,-207.5 "/>
<text text-anchor="middle" x="112" y="-193.9" font-family="Helvetica,sans-Serif" font-size="12.00"> </text>
<polyline fill="none" stroke="black" points="61,-186.5 163,-186.5 "/>
<text text-anchor="middle" x="112" y="-172.9" font-family="Helvetica,sans-Serif" font-size="12.00"> </text>
</a>
</g>
</g>
<!-- Node2&#45;&gt;Node1 -->
<g id="edge1" class="edge">
<title>Node2&#45;&gt;Node1</title>
<path fill="none" stroke="midnightblue" d="M112,-155.38C112,-146.85 112,-137.67 112,-128.54"/>
<polygon fill="none" stroke="midnightblue" points="108.5,-155.4 112,-165.4 115.5,-155.4 108.5,-155.4"/>
</g>
</g>
</svg>
