<?xml version="1.0" encoding="UTF-8" standalone="no"?>
<!DOCTYPE svg PUBLIC "-//W3C//DTD SVG 1.1//EN"
 "http://www.w3.org/Graphics/SVG/1.1/DTD/svg11.dtd">
<!-- Generated by graphviz version 2.43.0 (0)
 -->
<!-- Title: Markov::API::MarkovPasswords::TrainThread Pages: 1 -->
<svg width="453pt" height="84pt"
 viewBox="0.00 0.00 453.00 83.50" xmlns="http://www.w3.org/2000/svg" xmlns:xlink="http://www.w3.org/1999/xlink">
<g id="graph0" class="graph" transform="scale(1 1) rotate(0) translate(4 79.5)">
<title>Markov::API::MarkovPasswords::TrainThread</title>
<!-- Node1 -->
<g id="node1" class="node">
<title>Node1</title>
<g id="a_node1"><a xlink:title="A single thread invoked by the Train function.">
<polygon fill="#bfbfbf" stroke="black" points="0,-23.5 0,-57.5 200,-57.5 200,-23.5 0,-23.5"/>
<text text-anchor="start" x="8" y="-43.9" font-family="Helvetica,sans-Serif" font-size="12.00">Markov::API::MarkovPasswords</text>
<text text-anchor="middle" x="100" y="-30.9" font-family="Helvetica,sans-Serif" font-size="12.00">::TrainThread</text>
</a>
</g>
</g>
<!-- Node2 -->
<g id="node2" class="node">
<title>Node2</title>
<g id="a_node2"><a xlink:href="class_markov_1_1_model.html#ad252913f83fa3eb14cc3f9f92c5ee37a" target="_top" xlink:title="Adjust the model with a single string.">
<polygon fill="none" stroke="black" points="251,-54 251,-75 430,-75 430,-54 251,-54"/>
<text text-anchor="middle" x="340.5" y="-61.4" font-family="Helvetica,sans-Serif" font-size="12.00">Markov::Model::AdjustEdge</text>
</a>
</g>
</g>
<!-- Node1&#45;&gt;Node2 -->
<g id="edge1" class="edge">
<title>Node1&#45;&gt;Node2</title>
<path fill="none" stroke="midnightblue" d="M200.07,-50.47C213.43,-51.81 227.14,-53.19 240.5,-54.54"/>
<polygon fill="midnightblue" stroke="midnightblue" points="240.34,-58.04 250.64,-55.56 241.04,-51.07 240.34,-58.04"/>
</g>
<!-- Node3 -->
<g id="node3" class="node">
<title>Node3</title>
<g id="a_node3"><a xlink:href="class_markov_1_1_a_p_i_1_1_concurrency_1_1_thread_shared_list_handler.html#a068e1a9ff477de23a44c10230df416a5" target="_top" xlink:title="Read the next line from the file.">
<polygon fill="none" stroke="black" points="236,-0.5 236,-34.5 445,-34.5 445,-0.5 236,-0.5"/>
<text text-anchor="start" x="244" y="-20.9" font-family="Helvetica,sans-Serif" font-size="12.00">Markov::API::Concurrency</text>
<text text-anchor="middle" x="340.5" y="-7.9" font-family="Helvetica,sans-Serif" font-size="12.00">::ThreadSharedListHandler::next</text>
</a>
</g>
</g>
<!-- Node1&#45;&gt;Node3 -->
<g id="edge2" class="edge">
<title>Node1&#45;&gt;Node3</title>
<path fill="none" stroke="midnightblue" d="M200.07,-30.95C208.54,-30.13 217.14,-29.3 225.7,-28.47"/>
<polygon fill="midnightblue" stroke="midnightblue" points="226.11,-31.95 235.73,-27.51 225.44,-24.98 226.11,-31.95"/>
</g>
</g>
</svg>
