<?xml version="1.0" encoding="UTF-8" standalone="no"?>
<!DOCTYPE svg PUBLIC "-//W3C//DTD SVG 1.1//EN"
 "http://www.w3.org/Graphics/SVG/1.1/DTD/svg11.dtd">
<!-- Generated by graphviz version 2.43.0 (0)
 -->
<!-- Title: Markov::Random::Marsaglia Pages: 1 -->
<svg width="228pt" height="363pt"
 viewBox="0.00 0.00 228.00 363.00" xmlns="http://www.w3.org/2000/svg" xmlns:xlink="http://www.w3.org/1999/xlink">
<g id="graph0" class="graph" transform="scale(1 1) rotate(0) translate(4 359)">
<title>Markov::Random::Marsaglia</title>
<!-- Node1 -->
<g id="node1" class="node">
<title>Node1</title>
<g id="a_node1"><a xlink:title="Implementation of Marsaglia Random Engine.">
<polygon fill="#bfbfbf" stroke="black" points="18,-0.5 18,-102.5 202,-102.5 202,-0.5 18,-0.5"/>
<text text-anchor="middle" x="110" y="-88.9" font-family="Helvetica,sans-Serif" font-size="12.00">Markov::Random::Marsaglia</text>
<polyline fill="none" stroke="black" points="18,-81.5 202,-81.5 "/>
<text text-anchor="start" x="26" y="-67.9" font-family="Helvetica,sans-Serif" font-size="12.00">+ x</text>
<text text-anchor="start" x="26" y="-54.9" font-family="Helvetica,sans-Serif" font-size="12.00">+ y</text>
<text text-anchor="start" x="26" y="-41.9" font-family="Helvetica,sans-Serif" font-size="12.00">+ z</text>
<polyline fill="none" stroke="black" points="18,-34.5 202,-34.5 "/>
<text text-anchor="start" x="26" y="-20.9" font-family="Helvetica,sans-Serif" font-size="12.00">+ Marsaglia()</text>
<text text-anchor="start" x="26" y="-7.9" font-family="Helvetica,sans-Serif" font-size="12.00">+ random()</text>
</a>
</g>
</g>
<!-- Node2 -->
<g id="node2" class="node">
<title>Node2</title>
<g id="a_node2"><a xlink:href="class_markov_1_1_random_1_1_default_random_engine.html" target="_top" xlink:title="Implementation using Random.h default random engine.">
<polygon fill="none" stroke="black" points="0,-139.5 0,-254.5 220,-254.5 220,-139.5 0,-139.5"/>
<text text-anchor="start" x="8" y="-240.9" font-family="Helvetica,sans-Serif" font-size="12.00">Markov::Random::DefaultRandom</text>
<text text-anchor="middle" x="110" y="-227.9" font-family="Helvetica,sans-Serif" font-size="12.00">Engine</text>
<polyline fill="none" stroke="black" points="0,-220.5 220,-220.5 "/>
<text text-anchor="middle" x="110" y="-206.9" font-family="Helvetica,sans-Serif" font-size="12.00"> </text>
<polyline fill="none" stroke="black" points="0,-199.5 220,-199.5 "/>
<text text-anchor="start" x="8" y="-185.9" font-family="Helvetica,sans-Serif" font-size="12.00">+ random()</text>
<text text-anchor="start" x="8" y="-172.9" font-family="Helvetica,sans-Serif" font-size="12.00"># rd()</text>
<text text-anchor="start" x="8" y="-159.9" font-family="Helvetica,sans-Serif" font-size="12.00"># generator()</text>
<text text-anchor="start" x="8" y="-146.9" font-family="Helvetica,sans-Serif" font-size="12.00"># distribution()</text>
</a>
</g>
</g>
<!-- Node2&#45;&gt;Node1 -->
<g id="edge1" class="edge">
<title>Node2&#45;&gt;Node1</title>
<path fill="none" stroke="midnightblue" d="M110,-129.28C110,-120.36 110,-111.33 110,-102.76"/>
<polygon fill="none" stroke="midnightblue" points="106.5,-129.28 110,-139.29 113.5,-129.29 106.5,-129.28"/>
</g>
<!-- Node3 -->
<g id="node3" class="node">
<title>Node3</title>
<g id="a_node3"><a xlink:href="class_markov_1_1_random_1_1_random_engine.html" target="_top" xlink:title="An abstract class for Random Engine.">
<polygon fill="none" stroke="black" points="1.5,-291.5 1.5,-354.5 218.5,-354.5 218.5,-291.5 1.5,-291.5"/>
<text text-anchor="middle" x="110" y="-340.9" font-family="Helvetica,sans-Serif" font-size="12.00">Markov::Random::RandomEngine</text>
<polyline fill="none" stroke="black" points="1.5,-333.5 218.5,-333.5 "/>
<text text-anchor="middle" x="110" y="-319.9" font-family="Helvetica,sans-Serif" font-size="12.00"> </text>
<polyline fill="none" stroke="black" points="1.5,-312.5 218.5,-312.5 "/>
<text text-anchor="start" x="9.5" y="-298.9" font-family="Helvetica,sans-Serif" font-size="12.00">+ random()</text>
</a>
</g>
</g>
<!-- Node3&#45;&gt;Node2 -->
<g id="edge2" class="edge">
<title>Node3&#45;&gt;Node2</title>
<path fill="none" stroke="midnightblue" d="M110,-281.09C110,-272.7 110,-263.73 110,-254.89"/>
<polygon fill="none" stroke="midnightblue" points="106.5,-281.35 110,-291.35 113.5,-281.35 106.5,-281.35"/>
</g>
</g>
</svg>
