<?xml version="1.0" encoding="UTF-8" standalone="no"?>
<!DOCTYPE svg PUBLIC "-//W3C//DTD SVG 1.1//EN"
 "http://www.w3.org/Graphics/SVG/1.1/DTD/svg11.dtd">
<!-- Generated by graphviz version 2.43.0 (0)
 -->
<!-- Title: Markov::API::Concurrency::ThreadSharedListHandler::next Pages: 1 -->
<svg width="1100pt" height="170pt"
 viewBox="0.00 0.00 1100.00 170.17" xmlns="http://www.w3.org/2000/svg" xmlns:xlink="http://www.w3.org/1999/xlink">
<g id="graph0" class="graph" transform="scale(1 1) rotate(0) translate(4 166.17)">
<title>Markov::API::Concurrency::ThreadSharedListHandler::next</title>
<!-- Node1 -->
<g id="node1" class="node">
<title>Node1</title>
<g id="a_node1"><a xlink:title="Read the next line from the file.">
<polygon fill="#bfbfbf" stroke="black" points="883,-79.5 883,-113.5 1092,-113.5 1092,-79.5 883,-79.5"/>
<text text-anchor="start" x="891" y="-99.9" font-family="Helvetica,sans-Serif" font-size="12.00">Markov::API::Concurrency</text>
<text text-anchor="middle" x="987.5" y="-86.9" font-family="Helvetica,sans-Serif" font-size="12.00">::ThreadSharedListHandler::next</text>
</a>
</g>
</g>
<!-- Node2 -->
<g id="node2" class="node">
<title>Node2</title>
<g id="a_node2"><a xlink:href="class_markov_1_1_a_p_i_1_1_markov_passwords.html#a5f51b0fdb75101b797f38b08da84848e" target="_top" xlink:title="A single thread invoked by the Train function.">
<polygon fill="none" stroke="black" points="647,-79.5 647,-113.5 847,-113.5 847,-79.5 647,-79.5"/>
<text text-anchor="start" x="655" y="-99.9" font-family="Helvetica,sans-Serif" font-size="12.00">Markov::API::MarkovPasswords</text>
<text text-anchor="middle" x="747" y="-86.9" font-family="Helvetica,sans-Serif" font-size="12.00">::TrainThread</text>
</a>
</g>
</g>
<!-- Node1&#45;&gt;Node2 -->
<g id="edge1" class="edge">
<title>Node1&#45;&gt;Node2</title>
<path fill="none" stroke="midnightblue" d="M872.92,-96.5C864.37,-96.5 855.78,-96.5 847.33,-96.5"/>
<polygon fill="midnightblue" stroke="midnightblue" points="872.93,-100 882.93,-96.5 872.93,-93 872.93,-100"/>
</g>
<!-- Node3 -->
<g id="node3" class="node">
<title>Node3</title>
<g id="a_node3"><a xlink:href="class_markov_1_1_a_p_i_1_1_markov_passwords.html#a2fd4423ae3850e258dcb6b11a7feb9b2" target="_top" xlink:title="Train the model with the dataset file.">
<polygon fill="none" stroke="black" points="411,-79.5 411,-113.5 611,-113.5 611,-79.5 411,-79.5"/>
<text text-anchor="start" x="419" y="-99.9" font-family="Helvetica,sans-Serif" font-size="12.00">Markov::API::MarkovPasswords</text>
<text text-anchor="middle" x="511" y="-86.9" font-family="Helvetica,sans-Serif" font-size="12.00">::Train</text>
</a>
</g>
</g>
<!-- Node2&#45;&gt;Node3 -->
<g id="edge2" class="edge">
<title>Node2&#45;&gt;Node3</title>
<path fill="none" stroke="midnightblue" d="M636.73,-96.5C628.15,-96.5 619.52,-96.5 611.02,-96.5"/>
<polygon fill="midnightblue" stroke="midnightblue" points="636.76,-100 646.76,-96.5 636.76,-93 636.76,-100"/>
</g>
<!-- Node4 -->
<g id="node4" class="node">
<title>Node4</title>
<g id="a_node4"><a xlink:href="namespace_markov_1_1_markopy.html#a379628c09859652215496b63af2bcac9" target="_top" xlink:title=" ">
<polygon fill="none" stroke="black" points="0,-76.5 0,-110.5 170,-110.5 170,-76.5 0,-76.5"/>
<text text-anchor="start" x="8" y="-96.9" font-family="Helvetica,sans-Serif" font-size="12.00">Markov::Markopy::BOOST</text>
<text text-anchor="middle" x="85" y="-83.9" font-family="Helvetica,sans-Serif" font-size="12.00">_PYTHON_MODULE</text>
</a>
</g>
</g>
<!-- Node3&#45;&gt;Node4 -->
<g id="edge3" class="edge">
<title>Node3&#45;&gt;Node4</title>
<path fill="none" stroke="midnightblue" d="M468.32,-117.98C442.26,-130.17 407.56,-144.23 375,-150.5 301.24,-164.7 279.27,-167.02 206,-150.5 172.03,-142.84 136.38,-124.39 112.86,-110.54"/>
<polygon fill="midnightblue" stroke="midnightblue" points="469.99,-121.05 477.51,-113.58 466.98,-114.74 469.99,-121.05"/>
</g>
<!-- Node5 -->
<g id="node5" class="node">
<title>Node5</title>
<g id="a_node5"><a xlink:href="class_markov_1_1_g_u_i_1_1_train.html#a6f74c2948379df5e7f0d8eba96c97fb0" target="_top" xlink:title=" ">
<polygon fill="none" stroke="black" points="227.5,-106.5 227.5,-140.5 353.5,-140.5 353.5,-106.5 227.5,-106.5"/>
<text text-anchor="start" x="235.5" y="-126.9" font-family="Helvetica,sans-Serif" font-size="12.00">Markov::GUI::Train</text>
<text text-anchor="middle" x="290.5" y="-113.9" font-family="Helvetica,sans-Serif" font-size="12.00">::train</text>
</a>
</g>
</g>
<!-- Node3&#45;&gt;Node5 -->
<g id="edge4" class="edge">
<title>Node3&#45;&gt;Node5</title>
<path fill="none" stroke="midnightblue" d="M400.88,-109.98C384.64,-111.99 368.4,-114 353.58,-115.83"/>
<polygon fill="midnightblue" stroke="midnightblue" points="401.48,-113.44 410.98,-108.74 400.63,-106.49 401.48,-113.44"/>
</g>
<!-- Node6 -->
<g id="node6" class="node">
<title>Node6</title>
<g id="a_node6"><a xlink:href="class_markov_1_1_g_u_i_1_1_generate.html#af5f5d0fcc5530157d882e35e35d1649e" target="_top" xlink:title=" ">
<polygon fill="none" stroke="black" points="213.5,-53.5 213.5,-87.5 367.5,-87.5 367.5,-53.5 213.5,-53.5"/>
<text text-anchor="start" x="221.5" y="-73.9" font-family="Helvetica,sans-Serif" font-size="12.00">Markov::GUI::Generate</text>
<text text-anchor="middle" x="290.5" y="-60.9" font-family="Helvetica,sans-Serif" font-size="12.00">::train</text>
</a>
</g>
</g>
<!-- Node3&#45;&gt;Node6 -->
<g id="edge5" class="edge">
<title>Node3&#45;&gt;Node6</title>
<path fill="none" stroke="midnightblue" d="M400.71,-83.5C389.51,-82.16 378.32,-80.83 367.59,-79.55"/>
<polygon fill="midnightblue" stroke="midnightblue" points="400.64,-87.01 410.98,-84.72 401.46,-80.06 400.64,-87.01"/>
</g>
<!-- Node7 -->
<g id="node7" class="node">
<title>Node7</title>
<g id="a_node7"><a xlink:href="class_markov_1_1_a_p_i_1_1_model_matrix.html#af42d40d7a5c80f0dfe126a574a17f423" target="_top" xlink:title="Train the model with the dataset file.">
<polygon fill="none" stroke="black" points="206,-0.5 206,-34.5 375,-34.5 375,-0.5 206,-0.5"/>
<text text-anchor="start" x="214" y="-20.9" font-family="Helvetica,sans-Serif" font-size="12.00">Markov::API::ModelMatrix</text>
<text text-anchor="middle" x="290.5" y="-7.9" font-family="Helvetica,sans-Serif" font-size="12.00">::Train</text>
</a>
</g>
</g>
<!-- Node3&#45;&gt;Node7 -->
<g id="edge6" class="edge">
<title>Node3&#45;&gt;Node7</title>
<path fill="none" stroke="midnightblue" d="M457.74,-75.6C432.81,-65.83 402.49,-54.23 375,-44.5 365.66,-41.2 355.69,-37.83 345.99,-34.64"/>
<polygon fill="midnightblue" stroke="midnightblue" points="456.77,-78.98 467.36,-79.39 459.33,-72.47 456.77,-78.98"/>
</g>
<!-- Node7&#45;&gt;Node4 -->
<g id="edge7" class="edge">
<title>Node7&#45;&gt;Node4</title>
<path fill="none" stroke="midnightblue" d="M224.61,-37.96C218.3,-40.1 212.01,-42.3 206,-44.5 178.94,-54.38 148.94,-66.63 125.71,-76.41"/>
<polygon fill="midnightblue" stroke="midnightblue" points="226.13,-41.13 234.5,-34.64 223.91,-34.5 226.13,-41.13"/>
</g>
</g>
</svg>
