<?xml version="1.0" encoding="UTF-8" standalone="no"?>
<!DOCTYPE svg PUBLIC "-//W3C//DTD SVG 1.1//EN"
 "http://www.w3.org/Graphics/SVG/1.1/DTD/svg11.dtd">
<!-- Generated by graphviz version 2.43.0 (0)
 -->
<!-- Title: base.AbstractGenerationModelCLI Pages: 1 -->
<svg width="386pt" height="645pt"
 viewBox="0.00 0.00 385.50 645.00" xmlns="http://www.w3.org/2000/svg" xmlns:xlink="http://www.w3.org/1999/xlink">
<g id="graph0" class="graph" transform="scale(1 1) rotate(0) translate(4 641)">
<title>base.AbstractGenerationModelCLI</title>
<!-- Node1 -->
<g id="node1" class="node">
<title>Node1</title>
<g id="a_node1"><a xlink:title=" ">
<polygon fill="#bfbfbf" stroke="black" points="88.5,-265.5 88.5,-328.5 309.5,-328.5 309.5,-265.5 88.5,-265.5"/>
<text text-anchor="middle" x="199" y="-314.9" font-family="Helvetica,sans-Serif" font-size="12.00">base.AbstractGenerationModelCLI</text>
<polyline fill="none" stroke="black" points="88.5,-307.5 309.5,-307.5 "/>
<text text-anchor="middle" x="199" y="-293.9" font-family="Helvetica,sans-Serif" font-size="12.00"> </text>
<polyline fill="none" stroke="black" points="88.5,-286.5 309.5,-286.5 "/>
<text text-anchor="start" x="96.5" y="-272.9" font-family="Helvetica,sans-Serif" font-size="12.00">+ add_arguments()</text>
</a>
</g>
</g>
<!-- Node3 -->
<g id="node3" class="node">
<title>Node3</title>
<g id="a_node3"><a xlink:href="classbase_1_1_abstract_training_model_c_l_i.html" target="_top" xlink:title=" ">
<polygon fill="none" stroke="black" points="0,-139.5 0,-202.5 200,-202.5 200,-139.5 0,-139.5"/>
<text text-anchor="middle" x="100" y="-188.9" font-family="Helvetica,sans-Serif" font-size="12.00">base.AbstractTrainingModelCLI</text>
<polyline fill="none" stroke="black" points="0,-181.5 200,-181.5 "/>
<text text-anchor="middle" x="100" y="-167.9" font-family="Helvetica,sans-Serif" font-size="12.00"> </text>
<polyline fill="none" stroke="black" points="0,-160.5 200,-160.5 "/>
<text text-anchor="start" x="8" y="-146.9" font-family="Helvetica,sans-Serif" font-size="12.00">+ add_arguments()</text>
</a>
</g>
</g>
<!-- Node1&#45;&gt;Node3 -->
<g id="edge2" class="edge">
<title>Node1&#45;&gt;Node3</title>
<path fill="none" stroke="midnightblue" d="M168.25,-257.49C154.19,-239.87 137.75,-219.28 124.53,-202.73"/>
<polygon fill="none" stroke="midnightblue" points="165.55,-259.72 174.53,-265.35 171.02,-255.35 165.55,-259.72"/>
</g>
<!-- Node5 -->
<g id="node5" class="node">
<title>Node5</title>
<g id="a_node5"><a xlink:href="classmmx_1_1_model_matrix_c_l_i.html" target="_top" xlink:title=" ">
<polygon fill="none" stroke="black" points="218.5,-113.5 218.5,-228.5 377.5,-228.5 377.5,-113.5 218.5,-113.5"/>
<text text-anchor="middle" x="298" y="-214.9" font-family="Helvetica,sans-Serif" font-size="12.00">mmx.ModelMatrixCLI</text>
<polyline fill="none" stroke="black" points="218.5,-207.5 377.5,-207.5 "/>
<text text-anchor="start" x="226.5" y="-193.9" font-family="Helvetica,sans-Serif" font-size="12.00">+ model</text>
<text text-anchor="start" x="226.5" y="-180.9" font-family="Helvetica,sans-Serif" font-size="12.00">+ fileIO</text>
<polyline fill="none" stroke="black" points="218.5,-173.5 377.5,-173.5 "/>
<text text-anchor="start" x="226.5" y="-159.9" font-family="Helvetica,sans-Serif" font-size="12.00">+ __init__()</text>
<text text-anchor="start" x="226.5" y="-146.9" font-family="Helvetica,sans-Serif" font-size="12.00">+ add_arguments()</text>
<text text-anchor="start" x="226.5" y="-133.9" font-family="Helvetica,sans-Serif" font-size="12.00">+ init_post_arguments()</text>
<text text-anchor="start" x="226.5" y="-120.9" font-family="Helvetica,sans-Serif" font-size="12.00">&#45; _generate()</text>
</a>
</g>
</g>
<!-- Node1&#45;&gt;Node5 -->
<g id="edge4" class="edge">
<title>Node1&#45;&gt;Node5</title>
<path fill="none" stroke="midnightblue" d="M229.89,-257.31C237.08,-248.3 244.9,-238.51 252.58,-228.89"/>
<polygon fill="none" stroke="midnightblue" points="226.98,-255.35 223.47,-265.35 232.45,-259.72 226.98,-255.35"/>
</g>
<!-- Node2 -->
<g id="node2" class="node">
<title>Node2</title>
<g id="a_node2"><a xlink:href="classbase_1_1_base_c_l_i.html" target="_top" xlink:title=" ">
<polygon fill="none" stroke="black" points="119.5,-365.5 119.5,-636.5 278.5,-636.5 278.5,-365.5 119.5,-365.5"/>
<text text-anchor="middle" x="199" y="-622.9" font-family="Helvetica,sans-Serif" font-size="12.00">base.BaseCLI</text>
<polyline fill="none" stroke="black" points="119.5,-615.5 278.5,-615.5 "/>
<text text-anchor="start" x="127.5" y="-601.9" font-family="Helvetica,sans-Serif" font-size="12.00">+ parser</text>
<text text-anchor="start" x="127.5" y="-588.9" font-family="Helvetica,sans-Serif" font-size="12.00">+ print_help</text>
<text text-anchor="start" x="127.5" y="-575.9" font-family="Helvetica,sans-Serif" font-size="12.00">+ args</text>
<polyline fill="none" stroke="black" points="119.5,-568.5 278.5,-568.5 "/>
<text text-anchor="start" x="127.5" y="-554.9" font-family="Helvetica,sans-Serif" font-size="12.00">+ __init__()</text>
<text text-anchor="start" x="127.5" y="-541.9" font-family="Helvetica,sans-Serif" font-size="12.00">+ add_arguments()</text>
<text text-anchor="start" x="127.5" y="-528.9" font-family="Helvetica,sans-Serif" font-size="12.00">+ help()</text>
<text text-anchor="start" x="127.5" y="-515.9" font-family="Helvetica,sans-Serif" font-size="12.00">+ parse()</text>
<text text-anchor="start" x="127.5" y="-502.9" font-family="Helvetica,sans-Serif" font-size="12.00">+ init_post_arguments()</text>
<text text-anchor="start" x="127.5" y="-489.9" font-family="Helvetica,sans-Serif" font-size="12.00">+ parse_arguments()</text>
<text text-anchor="start" x="127.5" y="-476.9" font-family="Helvetica,sans-Serif" font-size="12.00">+ import_model()</text>
<text text-anchor="start" x="127.5" y="-463.9" font-family="Helvetica,sans-Serif" font-size="12.00">+ train()</text>
<text text-anchor="start" x="127.5" y="-450.9" font-family="Helvetica,sans-Serif" font-size="12.00">+ export()</text>
<text text-anchor="start" x="127.5" y="-437.9" font-family="Helvetica,sans-Serif" font-size="12.00">+ generate()</text>
<text text-anchor="start" x="127.5" y="-424.9" font-family="Helvetica,sans-Serif" font-size="12.00">+ process()</text>
<text text-anchor="start" x="127.5" y="-411.9" font-family="Helvetica,sans-Serif" font-size="12.00">+ check_import_path()</text>
<text text-anchor="start" x="127.5" y="-398.9" font-family="Helvetica,sans-Serif" font-size="12.00">+ check_corpus_path()</text>
<text text-anchor="start" x="127.5" y="-385.9" font-family="Helvetica,sans-Serif" font-size="12.00">+ check_export_path()</text>
<text text-anchor="start" x="127.5" y="-372.9" font-family="Helvetica,sans-Serif" font-size="12.00">&#45; _generate()</text>
</a>
</g>
</g>
<!-- Node2&#45;&gt;Node1 -->
<g id="edge1" class="edge">
<title>Node2&#45;&gt;Node1</title>
<path fill="none" stroke="midnightblue" d="M199,-355.05C199,-345.46 199,-336.53 199,-328.71"/>
<polygon fill="none" stroke="midnightblue" points="195.5,-355.26 199,-365.26 202.5,-355.26 195.5,-355.26"/>
</g>
<!-- Node4 -->
<g id="node4" class="node">
<title>Node4</title>
<g id="a_node4"><a xlink:href="classmp_1_1_markov_passwords_c_l_i.html" target="_top" xlink:title=" ">
<polygon fill="none" stroke="black" points="18,-0.5 18,-76.5 182,-76.5 182,-0.5 18,-0.5"/>
<text text-anchor="middle" x="100" y="-62.9" font-family="Helvetica,sans-Serif" font-size="12.00">mp.MarkovPasswordsCLI</text>
<polyline fill="none" stroke="black" points="18,-55.5 182,-55.5 "/>
<text text-anchor="start" x="26" y="-41.9" font-family="Helvetica,sans-Serif" font-size="12.00">+ model</text>
<polyline fill="none" stroke="black" points="18,-34.5 182,-34.5 "/>
<text text-anchor="start" x="26" y="-20.9" font-family="Helvetica,sans-Serif" font-size="12.00">+ __init__()</text>
<text text-anchor="start" x="26" y="-7.9" font-family="Helvetica,sans-Serif" font-size="12.00">&#45; _generate()</text>
</a>
</g>
</g>
<!-- Node3&#45;&gt;Node4 -->
<g id="edge3" class="edge">
<title>Node3&#45;&gt;Node4</title>
<path fill="none" stroke="midnightblue" d="M100,-129.35C100,-112.59 100,-93.29 100,-76.89"/>
<polygon fill="none" stroke="midnightblue" points="96.5,-129.4 100,-139.4 103.5,-129.4 96.5,-129.4"/>
</g>
</g>
</svg>
