<?xml version="1.0" encoding="UTF-8" standalone="no"?>
<!DOCTYPE svg PUBLIC "-//W3C//DTD SVG 1.1//EN"
 "http://www.w3.org/Graphics/SVG/1.1/DTD/svg11.dtd">
<!-- Generated by graphviz version 2.43.0 (0)
 -->
<!-- Title: Python.Markopy.BaseCLI.check_import_path Pages: 1 -->
<svg width="703pt" height="43pt"
 viewBox="0.00 0.00 703.00 43.00" xmlns="http://www.w3.org/2000/svg" xmlns:xlink="http://www.w3.org/1999/xlink">
<g id="graph0" class="graph" transform="scale(1 1) rotate(0) translate(4 39)">
<title>Python.Markopy.BaseCLI.check_import_path</title>
<!-- Node1 -->
<g id="node1" class="node">
<title>Node1</title>
<g id="a_node1"><a xlink:title="check import path for validity">
<polygon fill="#bfbfbf" stroke="black" points="492,-0.5 492,-34.5 695,-34.5 695,-0.5 492,-0.5"/>
<text text-anchor="start" x="500" y="-20.9" font-family="Helvetica,sans-Serif" font-size="12.00">Python.Markopy.BaseCLI.check</text>
<text text-anchor="middle" x="593.5" y="-7.9" font-family="Helvetica,sans-Serif" font-size="12.00">_import_path</text>
</a>
</g>
</g>
<!-- Node2 -->
<g id="node2" class="node">
<title>Node2</title>
<g id="a_node2"><a xlink:href="class_python_1_1_markopy_1_1_base_c_l_i.html#a70c7dc0679d8e37e1b5d6c65405eeedb" target="_top" xlink:title="Import a model file.">
<polygon fill="none" stroke="black" points="249,-0.5 249,-34.5 456,-34.5 456,-0.5 249,-0.5"/>
<text text-anchor="start" x="257" y="-20.9" font-family="Helvetica,sans-Serif" font-size="12.00">Python.Markopy.BaseCLI.import</text>
<text text-anchor="middle" x="352.5" y="-7.9" font-family="Helvetica,sans-Serif" font-size="12.00">_model</text>
</a>
</g>
</g>
<!-- Node1&#45;&gt;Node2 -->
<g id="edge1" class="edge">
<title>Node1&#45;&gt;Node2</title>
<path fill="none" stroke="midnightblue" d="M481.61,-17.5C473.19,-17.5 464.71,-17.5 456.35,-17.5"/>
<polygon fill="midnightblue" stroke="midnightblue" points="481.84,-21 491.84,-17.5 481.84,-14 481.84,-21"/>
</g>
<!-- Node3 -->
<g id="node3" class="node">
<title>Node3</title>
<g id="a_node3"><a xlink:href="class_python_1_1_markopy_1_1_base_c_l_i.html#aab389488e1f530cf444d9d2ef59a6998" target="_top" xlink:title="Process parameters for operation.">
<polygon fill="none" stroke="black" points="0,-7 0,-28 213,-28 213,-7 0,-7"/>
<text text-anchor="middle" x="106.5" y="-14.4" font-family="Helvetica,sans-Serif" font-size="12.00">Python.Markopy.BaseCLI.process</text>
</a>
</g>
</g>
<!-- Node2&#45;&gt;Node3 -->
<g id="edge2" class="edge">
<title>Node2&#45;&gt;Node3</title>
<path fill="none" stroke="midnightblue" d="M238.51,-17.5C230.11,-17.5 221.64,-17.5 213.28,-17.5"/>
<polygon fill="midnightblue" stroke="midnightblue" points="238.73,-21 248.73,-17.5 238.73,-14 238.73,-21"/>
</g>
</g>
</svg>
