<?xml version="1.0" encoding="UTF-8" standalone="no"?>
<!DOCTYPE svg PUBLIC "-//W3C//DTD SVG 1.1//EN"
 "http://www.w3.org/Graphics/SVG/1.1/DTD/svg11.dtd">
<!-- Generated by graphviz version 2.43.0 (0)
 -->
<!-- Title: Markov::Random::RandomEngine Pages: 1 -->
<svg width="408pt" height="580pt"
 viewBox="0.00 0.00 408.00 580.00" xmlns="http://www.w3.org/2000/svg" xmlns:xlink="http://www.w3.org/1999/xlink">
<g id="graph0" class="graph" transform="scale(1 1) rotate(0) translate(4 576)">
<title>Markov::Random::RandomEngine</title>
<!-- Node1 -->
<g id="node1" class="node">
<title>Node1</title>
<g id="a_node1"><a xlink:title="An abstract class for Random Engine.">
<polygon fill="#bfbfbf" stroke="black" points="97,-495.5 97,-571.5 314,-571.5 314,-495.5 97,-495.5"/>
<text text-anchor="middle" x="205.5" y="-557.9" font-family="Helvetica,sans-Serif" font-size="12.00">Markov::Random::RandomEngine</text>
<polyline fill="none" stroke="black" points="97,-550.5 314,-550.5 "/>
<text text-anchor="middle" x="205.5" y="-536.9" font-family="Helvetica,sans-Serif" font-size="12.00"> </text>
<polyline fill="none" stroke="black" points="97,-529.5 314,-529.5 "/>
<text text-anchor="start" x="105" y="-515.9" font-family="Helvetica,sans-Serif" font-size="12.00">+ virtual unsigned long</text>
<text text-anchor="start" x="105" y="-502.9" font-family="Helvetica,sans-Serif" font-size="12.00"> random()=0</text>
</a>
</g>
</g>
<!-- Node2 -->
<g id="node2" class="node">
<title>Node2</title>
<g id="a_node2"><a xlink:href="class_markov_1_1_random_1_1_default_random_engine.html" target="_top" xlink:title="Implementation using Random.h default random engine.">
<polygon fill="none" stroke="black" points="95.5,-291.5 95.5,-458.5 315.5,-458.5 315.5,-291.5 95.5,-291.5"/>
<text text-anchor="start" x="103.5" y="-444.9" font-family="Helvetica,sans-Serif" font-size="12.00">Markov::Random::DefaultRandom</text>
<text text-anchor="middle" x="205.5" y="-431.9" font-family="Helvetica,sans-Serif" font-size="12.00">Engine</text>
<polyline fill="none" stroke="black" points="95.5,-424.5 315.5,-424.5 "/>
<text text-anchor="middle" x="205.5" y="-410.9" font-family="Helvetica,sans-Serif" font-size="12.00"> </text>
<polyline fill="none" stroke="black" points="95.5,-403.5 315.5,-403.5 "/>
<text text-anchor="start" x="103.5" y="-389.9" font-family="Helvetica,sans-Serif" font-size="12.00">+ unsigned long random()</text>
<text text-anchor="start" x="103.5" y="-376.9" font-family="Helvetica,sans-Serif" font-size="12.00"># std::random_device</text>
<text text-anchor="start" x="103.5" y="-363.9" font-family="Helvetica,sans-Serif" font-size="12.00"> &amp; rd()</text>
<text text-anchor="start" x="103.5" y="-350.9" font-family="Helvetica,sans-Serif" font-size="12.00"># std::default_random</text>
<text text-anchor="start" x="103.5" y="-337.9" font-family="Helvetica,sans-Serif" font-size="12.00">_engine &amp; generator()</text>
<text text-anchor="start" x="103.5" y="-324.9" font-family="Helvetica,sans-Serif" font-size="12.00"># std::uniform_int_distribution</text>
<text text-anchor="start" x="103.5" y="-311.9" font-family="Helvetica,sans-Serif" font-size="12.00">&lt; long long unsigned &gt; &amp;</text>
<text text-anchor="start" x="103.5" y="-298.9" font-family="Helvetica,sans-Serif" font-size="12.00"> distribution()</text>
</a>
</g>
</g>
<!-- Node1&#45;&gt;Node2 -->
<g id="edge1" class="edge">
<title>Node1&#45;&gt;Node2</title>
<path fill="none" stroke="midnightblue" d="M205.5,-485.14C205.5,-476.76 205.5,-467.82 205.5,-458.8"/>
<polygon fill="none" stroke="midnightblue" points="202,-485.41 205.5,-495.41 209,-485.41 202,-485.41"/>
</g>
<!-- Node3 -->
<g id="node3" class="node">
<title>Node3</title>
<g id="a_node3"><a xlink:href="class_markov_1_1_random_1_1_marsaglia.html" target="_top" xlink:title="Implementation of Marsaglia Random Engine.">
<polygon fill="none" stroke="black" points="12.5,-152.5 12.5,-254.5 196.5,-254.5 196.5,-152.5 12.5,-152.5"/>
<text text-anchor="middle" x="104.5" y="-240.9" font-family="Helvetica,sans-Serif" font-size="12.00">Markov::Random::Marsaglia</text>
<polyline fill="none" stroke="black" points="12.5,-233.5 196.5,-233.5 "/>
<text text-anchor="start" x="20.5" y="-219.9" font-family="Helvetica,sans-Serif" font-size="12.00">+ unsigned long x</text>
<text text-anchor="start" x="20.5" y="-206.9" font-family="Helvetica,sans-Serif" font-size="12.00">+ unsigned long y</text>
<text text-anchor="start" x="20.5" y="-193.9" font-family="Helvetica,sans-Serif" font-size="12.00">+ unsigned long z</text>
<polyline fill="none" stroke="black" points="12.5,-186.5 196.5,-186.5 "/>
<text text-anchor="start" x="20.5" y="-172.9" font-family="Helvetica,sans-Serif" font-size="12.00">+ Marsaglia()</text>
<text text-anchor="start" x="20.5" y="-159.9" font-family="Helvetica,sans-Serif" font-size="12.00">+ unsigned long random()</text>
</a>
</g>
</g>
<!-- Node2&#45;&gt;Node3 -->
<g id="edge2" class="edge">
<title>Node2&#45;&gt;Node3</title>
<path fill="none" stroke="midnightblue" d="M150.98,-282.5C145.32,-273 139.72,-263.61 134.49,-254.83"/>
<polygon fill="none" stroke="midnightblue" points="148.06,-284.44 156.18,-291.24 154.07,-280.85 148.06,-284.44"/>
</g>
<!-- Node5 -->
<g id="node5" class="node">
<title>Node5</title>
<g id="a_node5"><a xlink:href="class_markov_1_1_random_1_1_mersenne.html" target="_top" xlink:title="Implementation of Mersenne Twister Engine.">
<polygon fill="none" stroke="black" points="215,-172 215,-235 400,-235 400,-172 215,-172"/>
<text text-anchor="middle" x="307.5" y="-221.4" font-family="Helvetica,sans-Serif" font-size="12.00">Markov::Random::Mersenne</text>
<polyline fill="none" stroke="black" points="215,-214 400,-214 "/>
<text text-anchor="middle" x="307.5" y="-200.4" font-family="Helvetica,sans-Serif" font-size="12.00"> </text>
<polyline fill="none" stroke="black" points="215,-193 400,-193 "/>
<text text-anchor="middle" x="307.5" y="-179.4" font-family="Helvetica,sans-Serif" font-size="12.00"> </text>
</a>
</g>
</g>
<!-- Node2&#45;&gt;Node5 -->
<g id="edge4" class="edge">
<title>Node2&#45;&gt;Node5</title>
<path fill="none" stroke="midnightblue" d="M260.66,-282.33C270.88,-265.35 280.88,-248.74 289,-235.25"/>
<polygon fill="none" stroke="midnightblue" points="257.46,-280.86 255.3,-291.24 263.46,-284.47 257.46,-280.86"/>
</g>
<!-- Node4 -->
<g id="node4" class="node">
<title>Node4</title>
<g id="a_node4"><a xlink:href="class_markov_1_1_a_p_i_1_1_c_u_d_a_1_1_random_1_1_marsaglia.html" target="_top" xlink:title="Extension of Markov::Random::Marsaglia which is capable o working on device space.">
<polygon fill="none" stroke="black" points="0,-0.5 0,-115.5 209,-115.5 209,-0.5 0,-0.5"/>
<text text-anchor="start" x="8" y="-101.9" font-family="Helvetica,sans-Serif" font-size="12.00">Markov::API::CUDA::</text>
<text text-anchor="middle" x="104.5" y="-88.9" font-family="Helvetica,sans-Serif" font-size="12.00">Random::Marsaglia</text>
<polyline fill="none" stroke="black" points="0,-81.5 209,-81.5 "/>
<text text-anchor="middle" x="104.5" y="-67.9" font-family="Helvetica,sans-Serif" font-size="12.00"> </text>
<polyline fill="none" stroke="black" points="0,-60.5 209,-60.5 "/>
<text text-anchor="start" x="8" y="-46.9" font-family="Helvetica,sans-Serif" font-size="12.00">+ static unsigned long</text>
<text text-anchor="start" x="8" y="-33.9" font-family="Helvetica,sans-Serif" font-size="12.00"> * MigrateToVRAM(Markov</text>
<text text-anchor="start" x="8" y="-20.9" font-family="Helvetica,sans-Serif" font-size="12.00">::API::CUDA::Random::Marsaglia</text>
<text text-anchor="start" x="8" y="-7.9" font-family="Helvetica,sans-Serif" font-size="12.00"> *MEarr, long int gridSize)</text>
</a>
</g>
</g>
<!-- Node3&#45;&gt;Node4 -->
<g id="edge3" class="edge">
<title>Node3&#45;&gt;Node4</title>
<path fill="none" stroke="midnightblue" d="M104.5,-142.18C104.5,-133.44 104.5,-124.46 104.5,-115.79"/>
<polygon fill="none" stroke="midnightblue" points="101,-142.31 104.5,-152.31 108,-142.31 101,-142.31"/>
</g>
</g>
</svg>
