<?xml version="1.0" encoding="UTF-8" standalone="no"?>
<!DOCTYPE svg PUBLIC "-//W3C//DTD SVG 1.1//EN"
 "http://www.w3.org/Graphics/SVG/1.1/DTD/svg11.dtd">
<!-- Generated by graphviz version 2.43.0 (0)
 -->
<!-- Title: Markov::API::MarkovPasswords::Buff Pages: 1 -->
<svg width="439pt" height="204pt"
 viewBox="0.00 0.00 439.00 203.50" xmlns="http://www.w3.org/2000/svg" xmlns:xlink="http://www.w3.org/1999/xlink">
<g id="graph0" class="graph" transform="scale(1 1) rotate(0) translate(4 199.5)">
<title>Markov::API::MarkovPasswords::Buff</title>
<!-- Node1 -->
<g id="node1" class="node">
<title>Node1</title>
<g id="a_node1"><a xlink:title="Buff expression of some characters in the model.">
<polygon fill="#bfbfbf" stroke="black" points="0,-87.5 0,-121.5 200,-121.5 200,-87.5 0,-87.5"/>
<text text-anchor="start" x="8" y="-107.9" font-family="Helvetica,sans-Serif" font-size="12.00">Markov::API::MarkovPasswords</text>
<text text-anchor="middle" x="100" y="-94.9" font-family="Helvetica,sans-Serif" font-size="12.00">::Buff</text>
</a>
</g>
</g>
<!-- Node2 -->
<g id="node2" class="node">
<title>Node2</title>
<g id="a_node2"><a xlink:href="class_markov_1_1_edge.html#aa9d6cc6e631f1b515b4db604c96ad4ad" target="_top" xlink:title="Adjust the edge EdgeWeight with offset. Adds the offset parameter to the edge EdgeWeight.">
<polygon fill="none" stroke="black" points="247,-174 247,-195 420,-195 420,-174 247,-174"/>
<text text-anchor="middle" x="333.5" y="-181.4" font-family="Helvetica,sans-Serif" font-size="12.00">Markov::Edge::AdjustEdge</text>
</a>
</g>
</g>
<!-- Node1&#45;&gt;Node2 -->
<g id="edge1" class="edge">
<title>Node1&#45;&gt;Node2</title>
<path fill="none" stroke="midnightblue" d="M134.06,-121.59C160.92,-134.88 200.11,-152.95 236,-164.5 244.28,-167.17 253.08,-169.56 261.87,-171.69"/>
<polygon fill="midnightblue" stroke="midnightblue" points="261.22,-175.13 271.76,-173.98 262.8,-168.31 261.22,-175.13"/>
</g>
<!-- Node3 -->
<g id="node3" class="node">
<title>Node3</title>
<g id="a_node3"><a xlink:href="class_markov_1_1_node.html#ad404ccc317ef8413881b8d7b72b4f4f0" target="_top" xlink:title="return edges">
<polygon fill="none" stroke="black" points="262,-134 262,-155 405,-155 405,-134 262,-134"/>
<text text-anchor="middle" x="333.5" y="-141.4" font-family="Helvetica,sans-Serif" font-size="12.00">Markov::Node::Edges</text>
</a>
</g>
</g>
<!-- Node1&#45;&gt;Node3 -->
<g id="edge2" class="edge">
<title>Node1&#45;&gt;Node3</title>
<path fill="none" stroke="midnightblue" d="M199.51,-121.52C220.37,-125.12 241.98,-128.86 261.58,-132.25"/>
<polygon fill="midnightblue" stroke="midnightblue" points="261.17,-135.73 271.62,-133.98 262.36,-128.83 261.17,-135.73"/>
</g>
<!-- Node4 -->
<g id="node4" class="node">
<title>Node4</title>
<g id="a_node4"><a xlink:href="class_markov_1_1_edge.html#a2b1e5a6e6f81502cd8ac6b20ed38b677" target="_top" xlink:title="return edge&#39;s EdgeWeight.">
<polygon fill="none" stroke="black" points="245.5,-94 245.5,-115 421.5,-115 421.5,-94 245.5,-94"/>
<text text-anchor="middle" x="333.5" y="-101.4" font-family="Helvetica,sans-Serif" font-size="12.00">Markov::Edge::EdgeWeight</text>
</a>
</g>
</g>
<!-- Node1&#45;&gt;Node4 -->
<g id="edge3" class="edge">
<title>Node1&#45;&gt;Node4</title>
<path fill="none" stroke="midnightblue" d="M200.18,-104.5C211.76,-104.5 223.57,-104.5 235.12,-104.5"/>
<polygon fill="midnightblue" stroke="midnightblue" points="235.2,-108 245.2,-104.5 235.2,-101 235.2,-108"/>
</g>
<!-- Node5 -->
<g id="node5" class="node">
<title>Node5</title>
<g id="a_node5"><a xlink:href="class_markov_1_1_model.html#a71f6df805e340ce96e9dc4ee4ebc6537" target="_top" xlink:title="Return starter Node.">
<polygon fill="none" stroke="black" points="259,-54 259,-75 408,-75 408,-54 259,-54"/>
<text text-anchor="middle" x="333.5" y="-61.4" font-family="Helvetica,sans-Serif" font-size="12.00">Markov::Model::Nodes</text>
</a>
</g>
</g>
<!-- Node1&#45;&gt;Node5 -->
<g id="edge4" class="edge">
<title>Node1&#45;&gt;Node5</title>
<path fill="none" stroke="midnightblue" d="M199.51,-87.48C220.37,-83.88 241.98,-80.14 261.58,-76.75"/>
<polygon fill="midnightblue" stroke="midnightblue" points="262.36,-80.17 271.62,-75.02 261.17,-73.27 262.36,-80.17"/>
</g>
<!-- Node6 -->
<g id="node6" class="node">
<title>Node6</title>
<g id="a_node6"><a xlink:href="class_markov_1_1_model.html#adf22db37833ae6a4c707b446bef4359d" target="_top" xlink:title="Sort edges of all nodes in the model ordered by edge weights.">
<polygon fill="none" stroke="black" points="236,-0.5 236,-34.5 431,-34.5 431,-0.5 236,-0.5"/>
<text text-anchor="start" x="244" y="-20.9" font-family="Helvetica,sans-Serif" font-size="12.00">Markov::Model::OptimizeEdge</text>
<text text-anchor="middle" x="333.5" y="-7.9" font-family="Helvetica,sans-Serif" font-size="12.00">Order</text>
</a>
</g>
</g>
<!-- Node1&#45;&gt;Node6 -->
<g id="edge5" class="edge">
<title>Node1&#45;&gt;Node6</title>
<path fill="none" stroke="midnightblue" d="M135.68,-87.41C162.61,-74.55 201.13,-57.05 236,-44.5 242.75,-42.07 249.83,-39.72 256.96,-37.49"/>
<polygon fill="midnightblue" stroke="midnightblue" points="258.14,-40.79 266.69,-34.53 256.1,-34.1 258.14,-40.79"/>
</g>
</g>
</svg>
