<?xml version="1.0" encoding="UTF-8" standalone="no"?>
<!DOCTYPE svg PUBLIC "-//W3C//DTD SVG 1.1//EN"
 "http://www.w3.org/Graphics/SVG/1.1/DTD/svg11.dtd">
<!-- Generated by graphviz version 2.43.0 (0)
 -->
<!-- Title: base.BaseCLI.check_import_path Pages: 1 -->
<svg width="502pt" height="43pt"
 viewBox="0.00 0.00 502.00 43.00" xmlns="http://www.w3.org/2000/svg" xmlns:xlink="http://www.w3.org/1999/xlink">
<g id="graph0" class="graph" transform="scale(1 1) rotate(0) translate(4 39)">
<title>base.BaseCLI.check_import_path</title>
<!-- Node1 -->
<g id="node1" class="node">
<title>Node1</title>
<g id="a_node1"><a xlink:title=" ">
<polygon fill="#bfbfbf" stroke="black" points="358,-0.5 358,-34.5 494,-34.5 494,-0.5 358,-0.5"/>
<text text-anchor="start" x="366" y="-20.9" font-family="Helvetica,sans-Serif" font-size="12.00">base.BaseCLI.check</text>
<text text-anchor="middle" x="426" y="-7.9" font-family="Helvetica,sans-Serif" font-size="12.00">_import_path</text>
</a>
</g>
</g>
<!-- Node2 -->
<g id="node2" class="node">
<title>Node2</title>
<g id="a_node2"><a xlink:href="classbase_1_1_base_c_l_i.html#a9a07289c27ee0b79f1f886df237075ae" target="_top" xlink:title=" ">
<polygon fill="none" stroke="black" points="182,-0.5 182,-34.5 322,-34.5 322,-0.5 182,-0.5"/>
<text text-anchor="start" x="190" y="-20.9" font-family="Helvetica,sans-Serif" font-size="12.00">base.BaseCLI.import</text>
<text text-anchor="middle" x="252" y="-7.9" font-family="Helvetica,sans-Serif" font-size="12.00">_model</text>
</a>
</g>
</g>
<!-- Node1&#45;&gt;Node2 -->
<g id="edge1" class="edge">
<title>Node1&#45;&gt;Node2</title>
<path fill="none" stroke="midnightblue" d="M347.38,-17.5C339.01,-17.5 330.53,-17.5 322.27,-17.5"/>
<polygon fill="midnightblue" stroke="midnightblue" points="347.51,-21 357.51,-17.5 347.51,-14 347.51,-21"/>
</g>
<!-- Node3 -->
<g id="node3" class="node">
<title>Node3</title>
<g id="a_node3"><a xlink:href="classbase_1_1_base_c_l_i.html#a81415f28ab1efa8b74cb6d5fe063a2d3" target="_top" xlink:title=" ">
<polygon fill="none" stroke="black" points="0,-7 0,-28 146,-28 146,-7 0,-7"/>
<text text-anchor="middle" x="73" y="-14.4" font-family="Helvetica,sans-Serif" font-size="12.00">base.BaseCLI.process</text>
</a>
</g>
</g>
<!-- Node2&#45;&gt;Node3 -->
<g id="edge2" class="edge">
<title>Node2&#45;&gt;Node3</title>
<path fill="none" stroke="midnightblue" d="M171.53,-17.5C163.05,-17.5 154.45,-17.5 146.06,-17.5"/>
<polygon fill="midnightblue" stroke="midnightblue" points="171.81,-21 181.81,-17.5 171.81,-14 171.81,-21"/>
</g>
</g>
</svg>
