<?xml version="1.0" encoding="UTF-8" standalone="no"?>
<!DOCTYPE svg PUBLIC "-//W3C//DTD SVG 1.1//EN"
 "http://www.w3.org/Graphics/SVG/1.1/DTD/svg11.dtd">
<!-- Generated by graphviz version 2.43.0 (0)
 -->
<!-- Title: Markov::API::MarkovPasswords::Train Pages: 1 -->
<svg width="619pt" height="89pt"
 viewBox="0.00 0.00 619.00 89.00" xmlns="http://www.w3.org/2000/svg" xmlns:xlink="http://www.w3.org/1999/xlink">
<g id="graph0" class="graph" transform="scale(1 1) rotate(0) translate(4 85)">
<title>Markov::API::MarkovPasswords::Train</title>
<!-- Node1 -->
<g id="node1" class="node">
<title>Node1</title>
<g id="a_node1"><a xlink:title="Train the model with the dataset file.">
<polygon fill="#bfbfbf" stroke="black" points="411,-23.5 411,-57.5 611,-57.5 611,-23.5 411,-23.5"/>
<text text-anchor="start" x="419" y="-43.9" font-family="Helvetica,sans-Serif" font-size="12.00">Markov::API::MarkovPasswords</text>
<text text-anchor="middle" x="511" y="-30.9" font-family="Helvetica,sans-Serif" font-size="12.00">::Train</text>
</a>
</g>
</g>
<!-- Node2 -->
<g id="node2" class="node">
<title>Node2</title>
<g id="a_node2"><a xlink:href="namespace_markov_1_1_markopy.html#a379628c09859652215496b63af2bcac9" target="_top" xlink:title=" ">
<polygon fill="none" stroke="black" points="0,-46.5 0,-80.5 170,-80.5 170,-46.5 0,-46.5"/>
<text text-anchor="start" x="8" y="-66.9" font-family="Helvetica,sans-Serif" font-size="12.00">Markov::Markopy::BOOST</text>
<text text-anchor="middle" x="85" y="-53.9" font-family="Helvetica,sans-Serif" font-size="12.00">_PYTHON_MODULE</text>
</a>
</g>
</g>
<!-- Node1&#45;&gt;Node2 -->
<g id="edge1" class="edge">
<title>Node1&#45;&gt;Node2</title>
<path fill="none" stroke="midnightblue" d="M400.87,-46.42C329.03,-50.32 236.4,-55.34 170.24,-58.93"/>
<polygon fill="midnightblue" stroke="midnightblue" points="401.06,-49.91 410.86,-45.88 400.68,-42.92 401.06,-49.91"/>
</g>
<!-- Node3 -->
<g id="node3" class="node">
<title>Node3</title>
<g id="a_node3"><a xlink:href="class_markov_1_1_a_p_i_1_1_model_matrix.html#af42d40d7a5c80f0dfe126a574a17f423" target="_top" xlink:title="Train the model with the dataset file.">
<polygon fill="none" stroke="black" points="206,-0.5 206,-34.5 375,-34.5 375,-0.5 206,-0.5"/>
<text text-anchor="start" x="214" y="-20.9" font-family="Helvetica,sans-Serif" font-size="12.00">Markov::API::ModelMatrix</text>
<text text-anchor="middle" x="290.5" y="-7.9" font-family="Helvetica,sans-Serif" font-size="12.00">::Train</text>
</a>
</g>
</g>
<!-- Node1&#45;&gt;Node3 -->
<g id="edge2" class="edge">
<title>Node1&#45;&gt;Node3</title>
<path fill="none" stroke="midnightblue" d="M400.85,-29.01C392.22,-28.1 383.58,-27.19 375.16,-26.31"/>
<polygon fill="midnightblue" stroke="midnightblue" points="400.67,-32.51 410.98,-30.08 401.4,-25.55 400.67,-32.51"/>
</g>
<!-- Node3&#45;&gt;Node2 -->
<g id="edge3" class="edge">
<title>Node3&#45;&gt;Node2</title>
<path fill="none" stroke="midnightblue" d="M204.24,-36.77C190.01,-39.99 175.33,-43.31 161.36,-46.46"/>
<polygon fill="midnightblue" stroke="midnightblue" points="205.03,-40.18 214.01,-34.56 203.49,-33.35 205.03,-40.18"/>
</g>
<!-- Node4 -->
<g id="node4" class="node">
<title>Node4</title>
<g id="a_node4"><a xlink:href="src_2main_8cpp.html#a3c04138a5bfe5d72780bb7e82a18e627" target="_top" xlink:title="Launch CLI tool.">
<polygon fill="none" stroke="black" points="61.5,-6 61.5,-27 108.5,-27 108.5,-6 61.5,-6"/>
<text text-anchor="middle" x="85" y="-13.4" font-family="Helvetica,sans-Serif" font-size="12.00">main</text>
</a>
</g>
</g>
<!-- Node3&#45;&gt;Node4 -->
<g id="edge4" class="edge">
<title>Node3&#45;&gt;Node4</title>
<path fill="none" stroke="midnightblue" d="M195.44,-17.04C163.21,-16.88 129.95,-16.72 108.68,-16.61"/>
<polygon fill="midnightblue" stroke="midnightblue" points="195.83,-20.54 205.85,-17.09 195.87,-13.54 195.83,-20.54"/>
</g>
</g>
</svg>
