<?xml version="1.0" encoding="UTF-8" standalone="no"?>
<!DOCTYPE svg PUBLIC "-//W3C//DTD SVG 1.1//EN"
 "http://www.w3.org/Graphics/SVG/1.1/DTD/svg11.dtd">
<!-- Generated by graphviz version 2.43.0 (0)
 -->
<!-- Title: Python.Markopy.ModelMatrixCLI._generate Pages: 1 -->
<svg width="436pt" height="96pt"
 viewBox="0.00 0.00 436.00 96.00" xmlns="http://www.w3.org/2000/svg" xmlns:xlink="http://www.w3.org/1999/xlink">
<g id="graph0" class="graph" transform="scale(1 1) rotate(0) translate(4 92)">
<title>Python.Markopy.ModelMatrixCLI._generate</title>
<!-- Node1 -->
<g id="node1" class="node">
<title>Node1</title>
<g id="a_node1"><a xlink:title="wrapper for generate function.">
<polygon fill="#bfbfbf" stroke="black" points="0,-26.5 0,-60.5 189,-60.5 189,-26.5 0,-26.5"/>
<text text-anchor="start" x="8" y="-46.9" font-family="Helvetica,sans-Serif" font-size="12.00">Python.Markopy.ModelMatrix</text>
<text text-anchor="middle" x="94.5" y="-33.9" font-family="Helvetica,sans-Serif" font-size="12.00">CLI._generate</text>
</a>
</g>
</g>
<!-- Node2 -->
<g id="node2" class="node">
<title>Node2</title>
<g id="a_node2"><a xlink:href="class_python_1_1_markopy_1_1_model_matrix.html#ae42271d3f464fd17b5e91a95b3cffd27" target="_top" xlink:title=" ">
<polygon fill="none" stroke="black" points="230,-53.5 230,-87.5 423,-87.5 423,-53.5 230,-53.5"/>
<text text-anchor="start" x="238" y="-73.9" font-family="Helvetica,sans-Serif" font-size="12.00">Python.Markopy.ModelMatrix.</text>
<text text-anchor="middle" x="326.5" y="-60.9" font-family="Helvetica,sans-Serif" font-size="12.00">FastRandomWalk</text>
</a>
</g>
</g>
<!-- Node1&#45;&gt;Node2 -->
<g id="edge1" class="edge">
<title>Node1&#45;&gt;Node2</title>
<path fill="none" stroke="midnightblue" d="M189.05,-54.48C199.12,-55.66 209.43,-56.87 219.63,-58.07"/>
<polygon fill="midnightblue" stroke="midnightblue" points="219.45,-61.57 229.79,-59.26 220.27,-54.62 219.45,-61.57"/>
</g>
<!-- Node3 -->
<g id="node3" class="node">
<title>Node3</title>
<g id="a_node3"><a xlink:href="class_markov_1_1_g_u_i_1_1_markov_passwords_g_u_i.html#a99619a46f49b909fafeaa6ac8076a333" target="_top" xlink:title=" ">
<polygon fill="none" stroke="black" points="225,-0.5 225,-34.5 428,-34.5 428,-0.5 225,-0.5"/>
<text text-anchor="start" x="233" y="-20.9" font-family="Helvetica,sans-Serif" font-size="12.00">Markov::GUI::MarkovPasswords</text>
<text text-anchor="middle" x="326.5" y="-7.9" font-family="Helvetica,sans-Serif" font-size="12.00">GUI::model</text>
</a>
</g>
</g>
<!-- Node1&#45;&gt;Node3 -->
<g id="edge2" class="edge">
<title>Node1&#45;&gt;Node3</title>
<path fill="none" stroke="midnightblue" d="M189.05,-32.92C197.54,-31.96 206.2,-30.99 214.82,-30.01"/>
<polygon fill="midnightblue" stroke="midnightblue" points="215.37,-33.47 224.91,-28.87 214.58,-26.52 215.37,-33.47"/>
</g>
</g>
</svg>
