<?xml version="1.0" encoding="UTF-8" standalone="no"?>
<!DOCTYPE svg PUBLIC "-//W3C//DTD SVG 1.1//EN"
 "http://www.w3.org/Graphics/SVG/1.1/DTD/svg11.dtd">
<!-- Generated by graphviz version 2.43.0 (0)
 -->
<!-- Title: Markov::Node&lt; storageType &gt; Pages: 1 -->
<svg width="657pt" height="957pt"
 viewBox="0.00 0.00 656.92 957.00" xmlns="http://www.w3.org/2000/svg" xmlns:xlink="http://www.w3.org/1999/xlink">
<g id="graph0" class="graph" transform="scale(1 1) rotate(0) translate(4 953)">
<title>Markov::Node&lt; storageType &gt;</title>
<!-- Node1 -->
<g id="node1" class="node">
<title>Node1</title>
<g id="a_node1"><a xlink:title="A node class that for the vertices of model. Connected with eachother using Edge.">
<polygon fill="#bfbfbf" stroke="black" points="213.42,-0.5 213.42,-375.5 424.42,-375.5 424.42,-0.5 213.42,-0.5"/>
<text text-anchor="middle" x="318.92" y="-361.9" font-family="Helvetica,sans-Serif" font-size="12.00">Markov::Node&lt; storageType &gt;</text>
<polyline fill="none" stroke="black" points="213.42,-354.5 424.42,-354.5 "/>
<text text-anchor="middle" x="318.92" y="-340.9" font-family="Helvetica,sans-Serif" font-size="12.00"> </text>
<polyline fill="none" stroke="black" points="213.42,-333.5 424.42,-333.5 "/>
<text text-anchor="start" x="221.42" y="-319.9" font-family="Helvetica,sans-Serif" font-size="12.00">+ Node()</text>
<text text-anchor="start" x="221.42" y="-306.9" font-family="Helvetica,sans-Serif" font-size="12.00">+ Node(storageType </text>
<text text-anchor="start" x="221.42" y="-293.9" font-family="Helvetica,sans-Serif" font-size="12.00">_value)</text>
<text text-anchor="start" x="221.42" y="-280.9" font-family="Helvetica,sans-Serif" font-size="12.00">+ Edge&lt; storageType &gt;</text>
<text text-anchor="start" x="221.42" y="-267.9" font-family="Helvetica,sans-Serif" font-size="12.00"> * Link(Node&lt; storageType &gt; *)</text>
<text text-anchor="start" x="221.42" y="-254.9" font-family="Helvetica,sans-Serif" font-size="12.00">+ Edge&lt; storageType &gt;</text>
<text text-anchor="start" x="221.42" y="-241.9" font-family="Helvetica,sans-Serif" font-size="12.00"> * Link(Edge&lt; storageType &gt; *)</text>
<text text-anchor="start" x="221.42" y="-228.9" font-family="Helvetica,sans-Serif" font-size="12.00">+ Node&lt; storageType &gt;</text>
<text text-anchor="start" x="221.42" y="-215.9" font-family="Helvetica,sans-Serif" font-size="12.00"> * RandomNext(Markov</text>
<text text-anchor="start" x="221.42" y="-202.9" font-family="Helvetica,sans-Serif" font-size="12.00">::Random::RandomEngine</text>
<text text-anchor="start" x="221.42" y="-189.9" font-family="Helvetica,sans-Serif" font-size="12.00"> *randomEngine)</text>
<text text-anchor="start" x="221.42" y="-176.9" font-family="Helvetica,sans-Serif" font-size="12.00">+ bool UpdateEdges(Edge</text>
<text text-anchor="start" x="221.42" y="-163.9" font-family="Helvetica,sans-Serif" font-size="12.00">&lt; storageType &gt; *)</text>
<text text-anchor="start" x="221.42" y="-150.9" font-family="Helvetica,sans-Serif" font-size="12.00">+ Edge&lt; storageType &gt;</text>
<text text-anchor="start" x="221.42" y="-137.9" font-family="Helvetica,sans-Serif" font-size="12.00"> * FindEdge(storageType repr)</text>
<text text-anchor="start" x="221.42" y="-124.9" font-family="Helvetica,sans-Serif" font-size="12.00">+ Edge&lt; storageType &gt;</text>
<text text-anchor="start" x="221.42" y="-111.9" font-family="Helvetica,sans-Serif" font-size="12.00"> * FindEdge(Node&lt; storageType</text>
<text text-anchor="start" x="221.42" y="-98.9" font-family="Helvetica,sans-Serif" font-size="12.00"> &gt; *target)</text>
<text text-anchor="start" x="221.42" y="-85.9" font-family="Helvetica,sans-Serif" font-size="12.00">+ unsigned char NodeValue()</text>
<text text-anchor="start" x="221.42" y="-72.9" font-family="Helvetica,sans-Serif" font-size="12.00">+ void UpdateTotalVerticeWeight</text>
<text text-anchor="start" x="221.42" y="-59.9" font-family="Helvetica,sans-Serif" font-size="12.00">(long int offset)</text>
<text text-anchor="start" x="221.42" y="-46.9" font-family="Helvetica,sans-Serif" font-size="12.00">+ std::map&lt; storageType,</text>
<text text-anchor="start" x="221.42" y="-33.9" font-family="Helvetica,sans-Serif" font-size="12.00"> Edge&lt; storageType &gt;</text>
<text text-anchor="start" x="221.42" y="-20.9" font-family="Helvetica,sans-Serif" font-size="12.00"> * &gt; * Edges()</text>
<text text-anchor="start" x="221.42" y="-7.9" font-family="Helvetica,sans-Serif" font-size="12.00">+ long int TotalEdgeWeights()</text>
</a>
</g>
</g>
<!-- Node2 -->
<g id="node2" class="node">
<title>Node2</title>
<g id="a_node2"><a xlink:title=" ">
<polygon fill="none" stroke="#bfbfbf" points="312.92,-425.5 312.92,-501.5 490.92,-501.5 490.92,-425.5 312.92,-425.5"/>
<text text-anchor="start" x="320.92" y="-487.9" font-family="Helvetica,sans-Serif" font-size="12.00">std::vector&lt; Markov</text>
<text text-anchor="middle" x="401.92" y="-474.9" font-family="Helvetica,sans-Serif" font-size="12.00">::Edge&lt; storageType &gt; * &gt;</text>
<polyline fill="none" stroke="#bfbfbf" points="312.92,-467.5 490.92,-467.5 "/>
<text text-anchor="middle" x="401.92" y="-453.9" font-family="Helvetica,sans-Serif" font-size="12.00"> </text>
<polyline fill="none" stroke="#bfbfbf" points="312.92,-446.5 490.92,-446.5 "/>
<text text-anchor="middle" x="401.92" y="-432.9" font-family="Helvetica,sans-Serif" font-size="12.00"> </text>
</a>
</g>
</g>
<!-- Node2&#45;&gt;Node1 -->
<g id="edge1" class="edge">
<title>Node2&#45;&gt;Node1</title>
<path fill="none" stroke="#404040" d="M390.64,-425.33C387.28,-414.27 383.35,-401.3 379.08,-387.25"/>
<polygon fill="none" stroke="#404040" points="379.08,-387.23 373.51,-382.65 375.59,-375.75 381.16,-380.33 379.08,-387.23"/>
<text text-anchor="middle" x="412.92" y="-397.4" font-family="Helvetica,sans-Serif" font-size="12.00"> +edgesV</text>
</g>
<!-- Node3 -->
<g id="node3" class="node">
<title>Node3</title>
<g id="a_node3"><a xlink:href="class_markov_1_1_edge.html" target="_top" xlink:title=" ">
<polygon fill="none" stroke="black" points="289.42,-551.5 289.42,-822.5 488.42,-822.5 488.42,-551.5 289.42,-551.5"/>
<text text-anchor="middle" x="388.92" y="-808.9" font-family="Helvetica,sans-Serif" font-size="12.00">Markov::Edge&lt; storageType &gt;</text>
<polyline fill="none" stroke="black" points="289.42,-801.5 488.42,-801.5 "/>
<text text-anchor="middle" x="388.92" y="-787.9" font-family="Helvetica,sans-Serif" font-size="12.00"> </text>
<polyline fill="none" stroke="black" points="289.42,-780.5 488.42,-780.5 "/>
<text text-anchor="start" x="297.42" y="-766.9" font-family="Helvetica,sans-Serif" font-size="12.00">+ Edge()</text>
<text text-anchor="start" x="297.42" y="-753.9" font-family="Helvetica,sans-Serif" font-size="12.00">+ Edge(Node&lt; storageType</text>
<text text-anchor="start" x="297.42" y="-740.9" font-family="Helvetica,sans-Serif" font-size="12.00"> &gt; *_left, Node&lt; storageType</text>
<text text-anchor="start" x="297.42" y="-727.9" font-family="Helvetica,sans-Serif" font-size="12.00"> &gt; *_right)</text>
<text text-anchor="start" x="297.42" y="-714.9" font-family="Helvetica,sans-Serif" font-size="12.00">+ void AdjustEdge(long</text>
<text text-anchor="start" x="297.42" y="-701.9" font-family="Helvetica,sans-Serif" font-size="12.00"> int offset)</text>
<text text-anchor="start" x="297.42" y="-688.9" font-family="Helvetica,sans-Serif" font-size="12.00">+ Node&lt; storageType &gt;</text>
<text text-anchor="start" x="297.42" y="-675.9" font-family="Helvetica,sans-Serif" font-size="12.00"> * TraverseNode()</text>
<text text-anchor="start" x="297.42" y="-662.9" font-family="Helvetica,sans-Serif" font-size="12.00">+ void SetLeftEdge(Node</text>
<text text-anchor="start" x="297.42" y="-649.9" font-family="Helvetica,sans-Serif" font-size="12.00">&lt; storageType &gt; *)</text>
<text text-anchor="start" x="297.42" y="-636.9" font-family="Helvetica,sans-Serif" font-size="12.00">+ void SetRightEdge(Node</text>
<text text-anchor="start" x="297.42" y="-623.9" font-family="Helvetica,sans-Serif" font-size="12.00">&lt; storageType &gt; *)</text>
<text text-anchor="start" x="297.42" y="-610.9" font-family="Helvetica,sans-Serif" font-size="12.00">+ uint64_t EdgeWeight()</text>
<text text-anchor="start" x="297.42" y="-597.9" font-family="Helvetica,sans-Serif" font-size="12.00">+ Node&lt; storageType &gt;</text>
<text text-anchor="start" x="297.42" y="-584.9" font-family="Helvetica,sans-Serif" font-size="12.00"> * LeftNode()</text>
<text text-anchor="start" x="297.42" y="-571.9" font-family="Helvetica,sans-Serif" font-size="12.00">+ Node&lt; storageType &gt;</text>
<text text-anchor="start" x="297.42" y="-558.9" font-family="Helvetica,sans-Serif" font-size="12.00"> * RightNode()</text>
</a>
</g>
</g>
<!-- Node3&#45;&gt;Node2 -->
<g id="edge2" class="edge">
<title>Node3&#45;&gt;Node2</title>
<path fill="none" stroke="#404040" d="M396.82,-551.41C397.59,-538.24 398.33,-525.55 399.01,-514.12"/>
<polygon fill="none" stroke="#404040" points="399.03,-513.78 395.38,-507.56 399.73,-501.8 403.37,-508.02 399.03,-513.78"/>
<text text-anchor="middle" x="432.92" y="-523.4" font-family="Helvetica,sans-Serif" font-size="12.00"> +elements</text>
</g>
<!-- Node7 -->
<g id="node7" class="node">
<title>Node7</title>
<g id="a_node7"><a xlink:title=" ">
<polygon fill="none" stroke="#bfbfbf" points="68.92,-425.5 68.92,-501.5 294.92,-501.5 294.92,-425.5 68.92,-425.5"/>
<text text-anchor="start" x="76.92" y="-487.9" font-family="Helvetica,sans-Serif" font-size="12.00">std::map&lt; storageType,</text>
<text text-anchor="middle" x="181.92" y="-474.9" font-family="Helvetica,sans-Serif" font-size="12.00"> Markov::Edge&lt; storageType &gt; * &gt;</text>
<polyline fill="none" stroke="#bfbfbf" points="68.92,-467.5 294.92,-467.5 "/>
<text text-anchor="middle" x="181.92" y="-453.9" font-family="Helvetica,sans-Serif" font-size="12.00"> </text>
<polyline fill="none" stroke="#bfbfbf" points="68.92,-446.5 294.92,-446.5 "/>
<text text-anchor="middle" x="181.92" y="-432.9" font-family="Helvetica,sans-Serif" font-size="12.00"> </text>
</a>
</g>
</g>
<!-- Node3&#45;&gt;Node7 -->
<g id="edge8" class="edge">
<title>Node3&#45;&gt;Node7</title>
<path fill="none" stroke="#404040" d="M289.36,-579.47C266.72,-555.25 243.84,-530.76 225.04,-510.64"/>
<polygon fill="none" stroke="#404040" points="224.9,-510.49 217.88,-508.84 216.71,-501.72 223.72,-503.38 224.9,-510.49"/>
<text text-anchor="middle" x="278.92" y="-523.4" font-family="Helvetica,sans-Serif" font-size="12.00"> +elements</text>
</g>
<!-- Node4 -->
<g id="node4" class="node">
<title>Node4</title>
<g id="a_node4"><a xlink:title=" ">
<polygon fill="none" stroke="#bfbfbf" points="492.92,-885.5 492.92,-948.5 524.92,-948.5 524.92,-885.5 492.92,-885.5"/>
<text text-anchor="middle" x="508.92" y="-934.9" font-family="Helvetica,sans-Serif" font-size="12.00">int</text>
<polyline fill="none" stroke="#bfbfbf" points="492.92,-927.5 524.92,-927.5 "/>
<text text-anchor="middle" x="508.92" y="-913.9" font-family="Helvetica,sans-Serif" font-size="12.00"> </text>
<polyline fill="none" stroke="#bfbfbf" points="492.92,-906.5 524.92,-906.5 "/>
<text text-anchor="middle" x="508.92" y="-892.9" font-family="Helvetica,sans-Serif" font-size="12.00"> </text>
</a>
</g>
</g>
<!-- Node4&#45;&gt;Node1 -->
<g id="edge5" class="edge">
<title>Node4&#45;&gt;Node1</title>
<path fill="none" stroke="#404040" d="M514.8,-885.24C528.6,-806.12 557.66,-590.19 499.92,-425 485.12,-382.67 459.54,-341.91 432.19,-306.51"/>
<polygon fill="none" stroke="#404040" points="431.86,-306.1 425.01,-303.87 424.43,-296.68 431.29,-298.91 431.86,-306.1"/>
<text text-anchor="middle" x="586.92" y="-523.4" font-family="Helvetica,sans-Serif" font-size="12.00"> &#45;total_edge_weights</text>
</g>
<!-- Node4&#45;&gt;Node3 -->
<g id="edge3" class="edge">
<title>Node4&#45;&gt;Node3</title>
<path fill="none" stroke="#404040" d="M492.65,-900.47C487.14,-895.4 480.87,-889.83 474.92,-885 464.29,-876.37 458.07,-878 449.92,-867 442.29,-856.7 435.56,-845.38 429.65,-833.58"/>
<polygon fill="none" stroke="#404040" points="429.6,-833.47 423.41,-829.77 424.44,-822.64 430.63,-826.34 429.6,-833.47"/>
<text text-anchor="middle" x="477.42" y="-850.9" font-family="Helvetica,sans-Serif" font-size="12.00"> &#45;_weight</text>
</g>
<!-- Node5 -->
<g id="node5" class="node">
<title>Node5</title>
<g id="a_node5"><a xlink:href="class_node_3_01storage_type_01_4_01_5.html" target="_top" xlink:title=" ">
<polygon fill="none" stroke="black" points="307.92,-885.5 307.92,-948.5 465.92,-948.5 465.92,-885.5 307.92,-885.5"/>
<text text-anchor="middle" x="386.92" y="-934.9" font-family="Helvetica,sans-Serif" font-size="12.00">Node&lt; storageType &gt; *</text>
<polyline fill="none" stroke="black" points="307.92,-927.5 465.92,-927.5 "/>
<text text-anchor="middle" x="386.92" y="-913.9" font-family="Helvetica,sans-Serif" font-size="12.00"> </text>
<polyline fill="none" stroke="black" points="307.92,-906.5 465.92,-906.5 "/>
<text text-anchor="middle" x="386.92" y="-892.9" font-family="Helvetica,sans-Serif" font-size="12.00"> </text>
</a>
</g>
</g>
<!-- Node5&#45;&gt;Node3 -->
<g id="edge4" class="edge">
<title>Node5&#45;&gt;Node3</title>
<path fill="none" stroke="#404040" d="M387.19,-885.25C387.31,-871.33 387.46,-853.76 387.63,-834.87"/>
<polygon fill="none" stroke="#404040" points="387.63,-834.63 383.68,-828.59 387.74,-822.63 391.68,-828.66 387.63,-834.63"/>
<text text-anchor="middle" x="406.42" y="-857.4" font-family="Helvetica,sans-Serif" font-size="12.00"> &#45;_left</text>
<text text-anchor="middle" x="406.42" y="-844.4" font-family="Helvetica,sans-Serif" font-size="12.00">&#45;_right</text>
</g>
<!-- Node6 -->
<g id="node6" class="node">
<title>Node6</title>
<g id="a_node6"><a xlink:title=" ">
<polygon fill="none" stroke="#bfbfbf" points="47.92,-655.5 47.92,-718.5 137.92,-718.5 137.92,-655.5 47.92,-655.5"/>
<text text-anchor="middle" x="92.92" y="-704.9" font-family="Helvetica,sans-Serif" font-size="12.00">storageType</text>
<polyline fill="none" stroke="#bfbfbf" points="47.92,-697.5 137.92,-697.5 "/>
<text text-anchor="middle" x="92.92" y="-683.9" font-family="Helvetica,sans-Serif" font-size="12.00"> </text>
<polyline fill="none" stroke="#bfbfbf" points="47.92,-676.5 137.92,-676.5 "/>
<text text-anchor="middle" x="92.92" y="-662.9" font-family="Helvetica,sans-Serif" font-size="12.00"> </text>
</a>
</g>
</g>
<!-- Node6&#45;&gt;Node1 -->
<g id="edge6" class="edge">
<title>Node6&#45;&gt;Node1</title>
<path fill="none" stroke="#404040" d="M69.23,-655.47C33.56,-605.49 -25.87,-503.9 12.92,-425 52.4,-344.68 133.83,-283.99 202.76,-244.27"/>
<polygon fill="none" stroke="#404040" points="202.83,-244.24 206.08,-237.8 213.27,-238.32 210.02,-244.76 202.83,-244.24"/>
<text text-anchor="middle" x="36.42" y="-460.4" font-family="Helvetica,sans-Serif" font-size="12.00"> &#45;_value</text>
</g>
<!-- Node6&#45;&gt;Node7 -->
<g id="edge9" class="edge">
<title>Node6&#45;&gt;Node7</title>
<path fill="none" stroke="#404040" d="M105.29,-655.2C120.08,-618.4 145,-556.37 162.4,-513.08"/>
<polygon fill="none" stroke="#404040" points="162.5,-512.82 161.03,-505.76 166.98,-501.68 168.45,-508.74 162.5,-512.82"/>
<text text-anchor="middle" x="179.42" y="-523.4" font-family="Helvetica,sans-Serif" font-size="12.00"> +keys</text>
</g>
<!-- Node7&#45;&gt;Node1 -->
<g id="edge7" class="edge">
<title>Node7&#45;&gt;Node1</title>
<path fill="none" stroke="#404040" d="M200.54,-425.33C206.13,-414.16 212.7,-401.05 219.82,-386.83"/>
<polygon fill="none" stroke="#404040" points="220,-386.48 219.11,-379.32 225.37,-375.75 226.26,-382.91 220,-386.48"/>
<text text-anchor="middle" x="238.42" y="-397.4" font-family="Helvetica,sans-Serif" font-size="12.00"> &#45;edges</text>
</g>
</g>
</svg>
