<?xml version="1.0" encoding="UTF-8" standalone="no"?>
<!DOCTYPE svg PUBLIC "-//W3C//DTD SVG 1.1//EN"
 "http://www.w3.org/Graphics/SVG/1.1/DTD/svg11.dtd">
<!-- Generated by graphviz version 2.43.0 (0)
 -->
<!-- Title: Markov::API::MarkovPasswords::Train Pages: 1 -->
<svg width="689pt" height="173pt"
 viewBox="0.00 0.00 689.00 172.50" xmlns="http://www.w3.org/2000/svg" xmlns:xlink="http://www.w3.org/1999/xlink">
<g id="graph0" class="graph" transform="scale(1 1) rotate(0) translate(4 168.5)">
<title>Markov::API::MarkovPasswords::Train</title>
<!-- Node1 -->
<g id="node1" class="node">
<title>Node1</title>
<g id="a_node1"><a xlink:title="Train the model with the dataset file.">
<polygon fill="#bfbfbf" stroke="black" points="0,-83.5 0,-117.5 200,-117.5 200,-83.5 0,-83.5"/>
<text text-anchor="start" x="8" y="-103.9" font-family="Helvetica,sans-Serif" font-size="12.00">Markov::API::MarkovPasswords</text>
<text text-anchor="middle" x="100" y="-90.9" font-family="Helvetica,sans-Serif" font-size="12.00">::Train</text>
</a>
</g>
</g>
<!-- Node2 -->
<g id="node2" class="node">
<title>Node2</title>
<g id="a_node2"><a xlink:href="markov_passwords_8cpp.html#a3b33e6f48f5d988f336e915c5346eb95" target="_top" xlink:title=" ">
<polygon fill="none" stroke="black" points="296.5,-143 296.5,-164 375.5,-164 375.5,-143 296.5,-143"/>
<text text-anchor="middle" x="336" y="-150.4" font-family="Helvetica,sans-Serif" font-size="12.00">intHandler</text>
</a>
</g>
</g>
<!-- Node1&#45;&gt;Node2 -->
<g id="edge1" class="edge">
<title>Node1&#45;&gt;Node2</title>
<path fill="none" stroke="midnightblue" d="M168.51,-117.57C190.04,-122.86 213.98,-128.59 236,-133.5 252.28,-137.13 270.14,-140.83 286.15,-144.04"/>
<polygon fill="midnightblue" stroke="midnightblue" points="285.88,-147.55 296.37,-146.07 287.25,-140.69 285.88,-147.55"/>
</g>
<!-- Node3 -->
<g id="node3" class="node">
<title>Node3</title>
<g id="a_node3"><a xlink:href="class_markov_1_1_a_p_i_1_1_concurrency_1_1_thread_shared_list_handler.html#a08d468aa4146a30f4176bc91a40ed292" target="_top" xlink:title="Construct the Thread Handler with a filename.">
<polygon fill="none" stroke="black" points="248,-77 248,-124 424,-124 424,-77 248,-77"/>
<text text-anchor="start" x="256" y="-110.4" font-family="Helvetica,sans-Serif" font-size="12.00">Markov::API::Concurrency</text>
<text text-anchor="start" x="256" y="-97.4" font-family="Helvetica,sans-Serif" font-size="12.00">::ThreadSharedListHandler</text>
<text text-anchor="middle" x="336" y="-84.4" font-family="Helvetica,sans-Serif" font-size="12.00">::ThreadSharedListHandler</text>
</a>
</g>
</g>
<!-- Node1&#45;&gt;Node3 -->
<g id="edge2" class="edge">
<title>Node1&#45;&gt;Node3</title>
<path fill="none" stroke="midnightblue" d="M200.24,-100.5C212.6,-100.5 225.23,-100.5 237.56,-100.5"/>
<polygon fill="midnightblue" stroke="midnightblue" points="237.83,-104 247.83,-100.5 237.83,-97 237.83,-104"/>
</g>
<!-- Node4 -->
<g id="node4" class="node">
<title>Node4</title>
<g id="a_node4"><a xlink:href="class_markov_1_1_a_p_i_1_1_markov_passwords.html#a5f51b0fdb75101b797f38b08da84848e" target="_top" xlink:title="A single thread invoked by the Train function.">
<polygon fill="none" stroke="black" points="236,-23.5 236,-57.5 436,-57.5 436,-23.5 236,-23.5"/>
<text text-anchor="start" x="244" y="-43.9" font-family="Helvetica,sans-Serif" font-size="12.00">Markov::API::MarkovPasswords</text>
<text text-anchor="middle" x="336" y="-30.9" font-family="Helvetica,sans-Serif" font-size="12.00">::TrainThread</text>
</a>
</g>
</g>
<!-- Node1&#45;&gt;Node4 -->
<g id="edge3" class="edge">
<title>Node1&#45;&gt;Node4</title>
<path fill="none" stroke="midnightblue" d="M167.43,-83.47C195.84,-76.18 229.17,-67.64 258.59,-60.09"/>
<polygon fill="midnightblue" stroke="midnightblue" points="259.59,-63.45 268.4,-57.58 257.85,-56.67 259.59,-63.45"/>
</g>
<!-- Node5 -->
<g id="node5" class="node">
<title>Node5</title>
<g id="a_node5"><a xlink:href="class_markov_1_1_model.html#ad252913f83fa3eb14cc3f9f92c5ee37a" target="_top" xlink:title="Adjust the model with a single string.">
<polygon fill="none" stroke="black" points="487,-54 487,-75 666,-75 666,-54 487,-54"/>
<text text-anchor="middle" x="576.5" y="-61.4" font-family="Helvetica,sans-Serif" font-size="12.00">Markov::Model::AdjustEdge</text>
</a>
</g>
</g>
<!-- Node4&#45;&gt;Node5 -->
<g id="edge4" class="edge">
<title>Node4&#45;&gt;Node5</title>
<path fill="none" stroke="midnightblue" d="M436.07,-50.47C449.43,-51.81 463.14,-53.19 476.5,-54.54"/>
<polygon fill="midnightblue" stroke="midnightblue" points="476.34,-58.04 486.64,-55.56 477.04,-51.07 476.34,-58.04"/>
</g>
<!-- Node6 -->
<g id="node6" class="node">
<title>Node6</title>
<g id="a_node6"><a xlink:href="class_markov_1_1_a_p_i_1_1_concurrency_1_1_thread_shared_list_handler.html#a068e1a9ff477de23a44c10230df416a5" target="_top" xlink:title="Read the next line from the file.">
<polygon fill="none" stroke="black" points="472,-0.5 472,-34.5 681,-34.5 681,-0.5 472,-0.5"/>
<text text-anchor="start" x="480" y="-20.9" font-family="Helvetica,sans-Serif" font-size="12.00">Markov::API::Concurrency</text>
<text text-anchor="middle" x="576.5" y="-7.9" font-family="Helvetica,sans-Serif" font-size="12.00">::ThreadSharedListHandler::next</text>
</a>
</g>
</g>
<!-- Node4&#45;&gt;Node6 -->
<g id="edge5" class="edge">
<title>Node4&#45;&gt;Node6</title>
<path fill="none" stroke="midnightblue" d="M436.07,-30.95C444.54,-30.13 453.14,-29.3 461.7,-28.47"/>
<polygon fill="midnightblue" stroke="midnightblue" points="462.11,-31.95 471.73,-27.51 461.44,-24.98 462.11,-31.95"/>
</g>
</g>
</svg>
