<?xml version="1.0" encoding="UTF-8" standalone="no"?>
<!DOCTYPE svg PUBLIC "-//W3C//DTD SVG 1.1//EN"
 "http://www.w3.org/Graphics/SVG/1.1/DTD/svg11.dtd">
<!-- Generated by graphviz version 2.43.0 (0)
 -->
<!-- Title: Python.Markopy.AbstractGenerationModelCLI Pages: 1 -->
<!--zoomable 1391 -->
<svg id="main" version="1.1" xmlns="http://www.w3.org/2000/svg" xmlns:xlink="http://www.w3.org/1999/xlink" xml:space="preserve" onload="init(evt)">
<style type="text/css"><![CDATA[
.edge:hover path { stroke: red; }
.edge:hover polygon { stroke: red; fill: red; }
]]></style>
<script type="text/javascript"><![CDATA[
var edges = document.getElementsByTagName('g');
if (edges && edges.length) {
  for (var i=0;i<edges.length;i++) {
    if (edges[i].id.substr(0,4)=='edge') {
      edges[i].setAttribute('class','edge');
    }
  }
}
]]></script>
        <defs>
                <circle id="rim" cx="0" cy="0" r="7"/>
                <circle id="rim2" cx="0" cy="0" r="3.5"/>
                <g id="zoomPlus">
                        <use xlink:href="#rim" fill="#404040">
                                <set attributeName="fill" to="#808080" begin="zoomplus.mouseover" end="zoomplus.mouseout"/>
                        </use>
                        <path d="M-4,0h8M0,-4v8" fill="none" stroke="white" stroke-width="1.5" pointer-events="none"/>
                </g>
                <g id="zoomMin">
                        <use xlink:href="#rim" fill="#404040">
                                <set attributeName="fill" to="#808080" begin="zoomminus.mouseover" end="zoomminus.mouseout"/>
                        </use>
                        <path d="M-4,0h8" fill="none" stroke="white" stroke-width="1.5" pointer-events="none"/>
                </g>
                <g id="dirArrow">
                        <path fill="none" stroke="white" stroke-width="1.5" d="M0,-3.0v7 M-2.5,-0.5L0,-3.0L2.5,-0.5"/>
                </g>
               <g id="resetDef">
                       <use xlink:href="#rim2" fill="#404040">
                               <set attributeName="fill" to="#808080" begin="reset.mouseover" end="reset.mouseout"/>
                       </use>
               </g>
        </defs>

<script type="text/javascript">
var viewWidth = 543;
var viewHeight = 1391;
var sectionId = 'dynsection-0';
</script>
<script xlink:href="svgpan.js"/>
<svg id="graph" class="graph">
<g id="viewport">
<title>Python.Markopy.AbstractGenerationModelCLI</title>
<!-- Node1 -->
<g id="node1" class="node">
<title>Node1</title>
<g id="a_node1"><a xlink:title="abstract class for generation capable models">
<polygon fill="#bfbfbf" stroke="black" points="84,-803.5 84,-879.5 317,-879.5 317,-803.5 84,-803.5"/>
<text text-anchor="start" x="92" y="-865.9" font-family="Helvetica,sans-Serif" font-size="12.00">Python.Markopy.AbstractGeneration</text>
<text text-anchor="middle" x="200.5" y="-852.9" font-family="Helvetica,sans-Serif" font-size="12.00">ModelCLI</text>
<polyline fill="none" stroke="black" points="84,-845.5 317,-845.5 "/>
<text text-anchor="middle" x="200.5" y="-831.9" font-family="Helvetica,sans-Serif" font-size="12.00"> </text>
<polyline fill="none" stroke="black" points="84,-824.5 317,-824.5 "/>
<text text-anchor="start" x="92" y="-810.9" font-family="Helvetica,sans-Serif" font-size="12.00">+ def add_arguments(self)</text>
</a>
</g>
</g>
<!-- Node3 -->
<g id="node3" class="node">
<title>Node3</title>
<g id="a_node3"><a xlink:href="class_python_1_1_cuda_markopy_1_1_cuda_model_matrix_c_l_i.html" target="_top" xlink:title="Python CLI wrapper for CudaModelMatrix.">
<polygon fill="none" stroke="black" points="0,-421.5 0,-575.5 213,-575.5 213,-421.5 0,-421.5"/>
<text text-anchor="start" x="8" y="-561.9" font-family="Helvetica,sans-Serif" font-size="12.00">Python.CudaMarkopy.CudaModel</text>
<text text-anchor="middle" x="106.5" y="-548.9" font-family="Helvetica,sans-Serif" font-size="12.00">MatrixCLI</text>
<polyline fill="none" stroke="black" points="0,-541.5 213,-541.5 "/>
<text text-anchor="start" x="8" y="-527.9" font-family="Helvetica,sans-Serif" font-size="12.00">+ model</text>
<text text-anchor="start" x="8" y="-514.9" font-family="Helvetica,sans-Serif" font-size="12.00">+ bInfinite</text>
<polyline fill="none" stroke="black" points="0,-507.5 213,-507.5 "/>
<text text-anchor="start" x="8" y="-493.9" font-family="Helvetica,sans-Serif" font-size="12.00">+ def __init__(self)</text>
<text text-anchor="start" x="8" y="-480.9" font-family="Helvetica,sans-Serif" font-size="12.00">+ def add_arguments(self)</text>
<text text-anchor="start" x="8" y="-467.9" font-family="Helvetica,sans-Serif" font-size="12.00">+ def init_post_arguments</text>
<text text-anchor="start" x="8" y="-454.9" font-family="Helvetica,sans-Serif" font-size="12.00">(self)</text>
<text text-anchor="start" x="8" y="-441.9" font-family="Helvetica,sans-Serif" font-size="12.00">&#45; def _generate(self,</text>
<text text-anchor="start" x="8" y="-428.9" font-family="Helvetica,sans-Serif" font-size="12.00"> str wordlist)</text>
</a>
</g>
</g>
<!-- Node1&#45;&gt;Node3 -->
<g id="edge2" class="edge">
<title>Node1&#45;&gt;Node3</title>
<path fill="none" stroke="midnightblue" d="M112.9,-797.19C102.73,-788.58 93.77,-778.56 87.5,-767 55.75,-708.48 65.4,-631.87 80.11,-575.64"/>
<polygon fill="none" stroke="midnightblue" points="110.87,-800.04 120.88,-803.5 115.2,-794.55 110.87,-800.04"/>
</g>
<!-- Node5 -->
<g id="node5" class="node">
<title>Node5</title>
<g id="a_node5"><a xlink:href="class_python_1_1_markopy_1_1_abstract_training_model_c_l_i.html" target="_top" xlink:title="abstract class for training capable models">
<polygon fill="none" stroke="black" points="322.5,-651.5 322.5,-727.5 534.5,-727.5 534.5,-651.5 322.5,-651.5"/>
<text text-anchor="start" x="330.5" y="-713.9" font-family="Helvetica,sans-Serif" font-size="12.00">Python.Markopy.AbstractTraining</text>
<text text-anchor="middle" x="428.5" y="-700.9" font-family="Helvetica,sans-Serif" font-size="12.00">ModelCLI</text>
<polyline fill="none" stroke="black" points="322.5,-693.5 534.5,-693.5 "/>
<text text-anchor="middle" x="428.5" y="-679.9" font-family="Helvetica,sans-Serif" font-size="12.00"> </text>
<polyline fill="none" stroke="black" points="322.5,-672.5 534.5,-672.5 "/>
<text text-anchor="start" x="330.5" y="-658.9" font-family="Helvetica,sans-Serif" font-size="12.00">+ def add_arguments(self)</text>
</a>
</g>
</g>
<!-- Node1&#45;&gt;Node5 -->
<g id="edge4" class="edge">
<title>Node1&#45;&gt;Node5</title>
<path fill="none" stroke="midnightblue" d="M266.27,-797.88C281.78,-787.79 298.24,-777.04 313.5,-767 332.93,-754.22 354.15,-740.14 373.01,-727.58"/>
<polygon fill="none" stroke="midnightblue" points="264.25,-795.03 257.77,-803.41 268.06,-800.89 264.25,-795.03"/>
</g>
<!-- Node8 -->
<g id="node8" class="node">
<title>Node8</title>
<g id="a_node8"><a xlink:href="class_python_1_1_markopy_1_1_model_matrix_c_l_i.html" target="_top" xlink:title="Extension of Python.Markopy.Base.BaseCLI for Markov::API::ModelMatrix.">
<polygon fill="none" stroke="black" points="96.5,-612.5 96.5,-766.5 304.5,-766.5 304.5,-612.5 96.5,-612.5"/>
<text text-anchor="middle" x="200.5" y="-752.9" font-family="Helvetica,sans-Serif" font-size="12.00">Python.Markopy.ModelMatrixCLI</text>
<polyline fill="none" stroke="black" points="96.5,-745.5 304.5,-745.5 "/>
<text text-anchor="start" x="104.5" y="-731.9" font-family="Helvetica,sans-Serif" font-size="12.00">+ model</text>
<text text-anchor="start" x="104.5" y="-718.9" font-family="Helvetica,sans-Serif" font-size="12.00">+ fileIO</text>
<polyline fill="none" stroke="black" points="96.5,-711.5 304.5,-711.5 "/>
<text text-anchor="start" x="104.5" y="-697.9" font-family="Helvetica,sans-Serif" font-size="12.00">+ def __init__(self,</text>
<text text-anchor="start" x="104.5" y="-684.9" font-family="Helvetica,sans-Serif" font-size="12.00"> bool add_help=True)</text>
<text text-anchor="start" x="104.5" y="-671.9" font-family="Helvetica,sans-Serif" font-size="12.00">+ def add_arguments(self)</text>
<text text-anchor="start" x="104.5" y="-658.9" font-family="Helvetica,sans-Serif" font-size="12.00">+ def init_post_arguments</text>
<text text-anchor="start" x="104.5" y="-645.9" font-family="Helvetica,sans-Serif" font-size="12.00">(self)</text>
<text text-anchor="start" x="104.5" y="-632.9" font-family="Helvetica,sans-Serif" font-size="12.00">&#45; def _generate(self,</text>
<text text-anchor="start" x="104.5" y="-619.9" font-family="Helvetica,sans-Serif" font-size="12.00"> str wordlist)</text>
</a>
</g>
</g>
<!-- Node1&#45;&gt;Node8 -->
<g id="edge8" class="edge">
<title>Node1&#45;&gt;Node8</title>
<path fill="none" stroke="midnightblue" d="M200.5,-793.37C200.5,-784.87 200.5,-775.82 200.5,-766.74"/>
<polygon fill="none" stroke="midnightblue" points="197,-793.42 200.5,-803.42 204,-793.42 197,-793.42"/>
</g>
<!-- Node2 -->
<g id="node2" class="node">
<title>Node2</title>
<g id="a_node2"><a xlink:href="class_python_1_1_markopy_1_1_base_c_l_i.html" target="_top" xlink:title="Base CLI class to handle user interactions">
<polygon fill="none" stroke="black" points="98,-916.5 98,-1382.5 303,-1382.5 303,-916.5 98,-916.5"/>
<text text-anchor="middle" x="200.5" y="-1368.9" font-family="Helvetica,sans-Serif" font-size="12.00">Python.Markopy.BaseCLI</text>
<polyline fill="none" stroke="black" points="98,-1361.5 303,-1361.5 "/>
<text text-anchor="start" x="106" y="-1347.9" font-family="Helvetica,sans-Serif" font-size="12.00">+ parser</text>
<text text-anchor="start" x="106" y="-1334.9" font-family="Helvetica,sans-Serif" font-size="12.00">+ print_help</text>
<text text-anchor="start" x="106" y="-1321.9" font-family="Helvetica,sans-Serif" font-size="12.00">+ model</text>
<text text-anchor="start" x="106" y="-1308.9" font-family="Helvetica,sans-Serif" font-size="12.00">+ args</text>
<polyline fill="none" stroke="black" points="98,-1301.5 303,-1301.5 "/>
<text text-anchor="start" x="106" y="-1287.9" font-family="Helvetica,sans-Serif" font-size="12.00">+ def __init__(self,</text>
<text text-anchor="start" x="106" y="-1274.9" font-family="Helvetica,sans-Serif" font-size="12.00"> bool add_help=True)</text>
<text text-anchor="start" x="106" y="-1261.9" font-family="Helvetica,sans-Serif" font-size="12.00">+ def add_arguments(self)</text>
<text text-anchor="start" x="106" y="-1248.9" font-family="Helvetica,sans-Serif" font-size="12.00">+ def help(self)</text>
<text text-anchor="start" x="106" y="-1235.9" font-family="Helvetica,sans-Serif" font-size="12.00">+ def parse(self)</text>
<text text-anchor="start" x="106" y="-1222.9" font-family="Helvetica,sans-Serif" font-size="12.00">+ def init_post_arguments</text>
<text text-anchor="start" x="106" y="-1209.9" font-family="Helvetica,sans-Serif" font-size="12.00">(self)</text>
<text text-anchor="start" x="106" y="-1196.9" font-family="Helvetica,sans-Serif" font-size="12.00">+ def parse_arguments</text>
<text text-anchor="start" x="106" y="-1183.9" font-family="Helvetica,sans-Serif" font-size="12.00">(self)</text>
<text text-anchor="start" x="106" y="-1170.9" font-family="Helvetica,sans-Serif" font-size="12.00">+ def import_model(self,</text>
<text text-anchor="start" x="106" y="-1157.9" font-family="Helvetica,sans-Serif" font-size="12.00"> str filename)</text>
<text text-anchor="start" x="106" y="-1144.9" font-family="Helvetica,sans-Serif" font-size="12.00">+ def train(self, str</text>
<text text-anchor="start" x="106" y="-1131.9" font-family="Helvetica,sans-Serif" font-size="12.00"> dataset, str seperator,</text>
<text text-anchor="start" x="106" y="-1118.9" font-family="Helvetica,sans-Serif" font-size="12.00"> str output, bool output</text>
<text text-anchor="start" x="106" y="-1105.9" font-family="Helvetica,sans-Serif" font-size="12.00">_forced=False, bool bulk=False)</text>
<text text-anchor="start" x="106" y="-1092.9" font-family="Helvetica,sans-Serif" font-size="12.00">+ def export(self, str</text>
<text text-anchor="start" x="106" y="-1079.9" font-family="Helvetica,sans-Serif" font-size="12.00"> filename)</text>
<text text-anchor="start" x="106" y="-1066.9" font-family="Helvetica,sans-Serif" font-size="12.00">+ def generate(self,</text>
<text text-anchor="start" x="106" y="-1053.9" font-family="Helvetica,sans-Serif" font-size="12.00"> str wordlist, bool</text>
<text text-anchor="start" x="106" y="-1040.9" font-family="Helvetica,sans-Serif" font-size="12.00"> bulk=False)</text>
<text text-anchor="start" x="106" y="-1027.9" font-family="Helvetica,sans-Serif" font-size="12.00">+ def process(self)</text>
<text text-anchor="start" x="106" y="-1014.9" font-family="Helvetica,sans-Serif" font-size="12.00">+ def check_import_path</text>
<text text-anchor="start" x="106" y="-1001.9" font-family="Helvetica,sans-Serif" font-size="12.00">(str filename)</text>
<text text-anchor="start" x="106" y="-988.9" font-family="Helvetica,sans-Serif" font-size="12.00">+ def check_corpus_path</text>
<text text-anchor="start" x="106" y="-975.9" font-family="Helvetica,sans-Serif" font-size="12.00">(str filename)</text>
<text text-anchor="start" x="106" y="-962.9" font-family="Helvetica,sans-Serif" font-size="12.00">+ def check_export_path</text>
<text text-anchor="start" x="106" y="-949.9" font-family="Helvetica,sans-Serif" font-size="12.00">(str filename)</text>
<text text-anchor="start" x="106" y="-936.9" font-family="Helvetica,sans-Serif" font-size="12.00">&#45; def _generate(self,</text>
<text text-anchor="start" x="106" y="-923.9" font-family="Helvetica,sans-Serif" font-size="12.00"> str wordlist)</text>
</a>
</g>
</g>
<!-- Node2&#45;&gt;Node1 -->
<g id="edge1" class="edge">
<title>Node2&#45;&gt;Node1</title>
<path fill="none" stroke="midnightblue" d="M200.5,-906.02C200.5,-896.51 200.5,-887.71 200.5,-879.88"/>
<polygon fill="none" stroke="midnightblue" points="197,-906.18 200.5,-916.18 204,-906.18 197,-906.18"/>
</g>
<!-- Node4 -->
<g id="node4" class="node">
<title>Node4</title>
<g id="a_node4"><a xlink:href="class_python_1_1_cuda_markopy_1_1_cuda_markopy_c_l_i.html" target="_top" xlink:title="CUDA extension to MarkopyCLI.">
<polygon fill="none" stroke="black" points="50.5,-0.5 50.5,-115.5 298.5,-115.5 298.5,-0.5 50.5,-0.5"/>
<text text-anchor="middle" x="174.5" y="-101.9" font-family="Helvetica,sans-Serif" font-size="12.00">Python.CudaMarkopy.CudaMarkopyCLI</text>
<polyline fill="none" stroke="black" points="50.5,-94.5 298.5,-94.5 "/>
<text text-anchor="start" x="58.5" y="-80.9" font-family="Helvetica,sans-Serif" font-size="12.00">+ args</text>
<text text-anchor="start" x="58.5" y="-67.9" font-family="Helvetica,sans-Serif" font-size="12.00">+ cli</text>
<polyline fill="none" stroke="black" points="50.5,-60.5 298.5,-60.5 "/>
<text text-anchor="start" x="58.5" y="-46.9" font-family="Helvetica,sans-Serif" font-size="12.00">+ None __init__(self)</text>
<text text-anchor="start" x="58.5" y="-33.9" font-family="Helvetica,sans-Serif" font-size="12.00">+ def help(self)</text>
<text text-anchor="start" x="58.5" y="-20.9" font-family="Helvetica,sans-Serif" font-size="12.00">+ def parse(self)</text>
<text text-anchor="start" x="58.5" y="-7.9" font-family="Helvetica,sans-Serif" font-size="12.00">+ def parse_fail(self)</text>
</a>
</g>
</g>
<!-- Node3&#45;&gt;Node4 -->
<g id="edge3" class="edge">
<title>Node3&#45;&gt;Node4</title>
<path fill="none" stroke="midnightblue" d="M104.73,-411.27C105.24,-340.55 110.47,-238.39 132.5,-152 135.56,-139.98 140.09,-127.58 145.06,-115.91"/>
<polygon fill="none" stroke="midnightblue" points="101.23,-411.46 104.69,-421.47 108.23,-411.49 101.23,-411.46"/>
</g>
<!-- Node6 -->
<g id="node6" class="node">
<title>Node6</title>
<g id="a_node6"><a xlink:href="class_python_1_1_markopy_1_1_markov_passwords_c_l_i.html" target="_top" xlink:title="Extension of Python.Markopy.Base.BaseCLI for Markov::API::MarkovPasswords.">
<polygon fill="none" stroke="black" points="289,-447.5 289,-549.5 528,-549.5 528,-447.5 289,-447.5"/>
<text text-anchor="middle" x="408.5" y="-535.9" font-family="Helvetica,sans-Serif" font-size="12.00">Python.Markopy.MarkovPasswordsCLI</text>
<polyline fill="none" stroke="black" points="289,-528.5 528,-528.5 "/>
<text text-anchor="start" x="297" y="-514.9" font-family="Helvetica,sans-Serif" font-size="12.00">+ model</text>
<polyline fill="none" stroke="black" points="289,-507.5 528,-507.5 "/>
<text text-anchor="start" x="297" y="-493.9" font-family="Helvetica,sans-Serif" font-size="12.00">+ def __init__(self,</text>
<text text-anchor="start" x="297" y="-480.9" font-family="Helvetica,sans-Serif" font-size="12.00"> bool add_help=True)</text>
<text text-anchor="start" x="297" y="-467.9" font-family="Helvetica,sans-Serif" font-size="12.00">&#45; def _generate(self,</text>
<text text-anchor="start" x="297" y="-454.9" font-family="Helvetica,sans-Serif" font-size="12.00"> wordlist)</text>
</a>
</g>
</g>
<!-- Node5&#45;&gt;Node6 -->
<g id="edge5" class="edge">
<title>Node5&#45;&gt;Node6</title>
<path fill="none" stroke="midnightblue" d="M423.46,-640.87C420.51,-613.03 416.8,-577.92 413.81,-549.65"/>
<polygon fill="none" stroke="midnightblue" points="420.02,-641.58 424.55,-651.16 426.98,-640.85 420.02,-641.58"/>
</g>
<!-- Node7 -->
<g id="node7" class="node">
<title>Node7</title>
<g id="a_node7"><a xlink:href="class_python_1_1_markopy_1_1_markopy_c_l_i.html" target="_top" xlink:title="Top level model selector for Markopy CLI.">
<polygon fill="none" stroke="black" points="142,-152.5 142,-384.5 341,-384.5 341,-152.5 142,-152.5"/>
<text text-anchor="middle" x="241.5" y="-370.9" font-family="Helvetica,sans-Serif" font-size="12.00">Python.Markopy.MarkopyCLI</text>
<polyline fill="none" stroke="black" points="142,-363.5 341,-363.5 "/>
<text text-anchor="start" x="150" y="-349.9" font-family="Helvetica,sans-Serif" font-size="12.00">+ args</text>
<text text-anchor="start" x="150" y="-336.9" font-family="Helvetica,sans-Serif" font-size="12.00">+ cli</text>
<polyline fill="none" stroke="black" points="142,-329.5 341,-329.5 "/>
<text text-anchor="start" x="150" y="-315.9" font-family="Helvetica,sans-Serif" font-size="12.00">+ def __init__(self,</text>
<text text-anchor="start" x="150" y="-302.9" font-family="Helvetica,sans-Serif" font-size="12.00"> add_help=False)</text>
<text text-anchor="start" x="150" y="-289.9" font-family="Helvetica,sans-Serif" font-size="12.00">+ def add_arguments(self)</text>
<text text-anchor="start" x="150" y="-276.9" font-family="Helvetica,sans-Serif" font-size="12.00">+ def help(self)</text>
<text text-anchor="start" x="150" y="-263.9" font-family="Helvetica,sans-Serif" font-size="12.00">+ def parse(self)</text>
<text text-anchor="start" x="150" y="-250.9" font-family="Helvetica,sans-Serif" font-size="12.00">+ def init_post_arguments</text>
<text text-anchor="start" x="150" y="-237.9" font-family="Helvetica,sans-Serif" font-size="12.00">(self)</text>
<text text-anchor="start" x="150" y="-224.9" font-family="Helvetica,sans-Serif" font-size="12.00">+ def parse_fail(self)</text>
<text text-anchor="start" x="150" y="-211.9" font-family="Helvetica,sans-Serif" font-size="12.00">+ def process(self)</text>
<text text-anchor="start" x="150" y="-198.9" font-family="Helvetica,sans-Serif" font-size="12.00">+ def stub(self)</text>
<text text-anchor="start" x="150" y="-185.9" font-family="Helvetica,sans-Serif" font-size="12.00">+ def evaluate(self,</text>
<text text-anchor="start" x="150" y="-172.9" font-family="Helvetica,sans-Serif" font-size="12.00"> str filename)</text>
<text text-anchor="start" x="150" y="-159.9" font-family="Helvetica,sans-Serif" font-size="12.00">+ def init_post_arguments(sel)</text>
</a>
</g>
</g>
<!-- Node6&#45;&gt;Node7 -->
<g id="edge6" class="edge">
<title>Node6&#45;&gt;Node7</title>
<path fill="none" stroke="midnightblue" d="M365.62,-438.96C353.44,-422.32 339.72,-403.6 325.97,-384.83"/>
<polygon fill="none" stroke="midnightblue" points="363.12,-441.47 371.85,-447.46 368.77,-437.33 363.12,-441.47"/>
</g>
<!-- Node7&#45;&gt;Node4 -->
<g id="edge7" class="edge">
<title>Node7&#45;&gt;Node4</title>
<path fill="none" stroke="midnightblue" d="M201.33,-142.5C198.34,-133.18 195.42,-124.1 192.67,-115.56"/>
<polygon fill="none" stroke="midnightblue" points="198.08,-143.82 204.47,-152.27 204.75,-141.68 198.08,-143.82"/>
</g>
<!-- Node8&#45;&gt;Node3 -->
<g id="edge9" class="edge">
<title>Node8&#45;&gt;Node3</title>
<path fill="none" stroke="midnightblue" d="M158.13,-603.3C153.55,-594.1 148.92,-584.79 144.4,-575.71"/>
<polygon fill="none" stroke="midnightblue" points="155.09,-605.05 162.67,-612.44 161.35,-601.93 155.09,-605.05"/>
</g>
<!-- Node8&#45;&gt;Node7 -->
<g id="edge10" class="edge">
<title>Node8&#45;&gt;Node7</title>
<path fill="none" stroke="midnightblue" d="M217.65,-602.42C219.1,-593.52 220.42,-584.59 221.5,-576 229.4,-513.04 234.28,-442.38 237.24,-384.79"/>
<polygon fill="none" stroke="midnightblue" points="214.18,-602 215.97,-612.44 221.08,-603.16 214.18,-602"/>
</g>
</g>
</svg>
        <g id="navigator" transform="translate(0 0)" fill="#404254">
                <rect fill="#f2f5e9" fill-opacity="0.5" stroke="#606060" stroke-width=".5" x="0" y="0" width="60" height="60"/>
                <use id="zoomplus" xlink:href="#zoomPlus" x="17" y="9" onmousedown="handleZoom(evt,'in')"/>
                <use id="zoomminus" xlink:href="#zoomMin" x="42" y="9" onmousedown="handleZoom(evt,'out')"/>
                <use id="reset" xlink:href="#resetDef" x="30" y="36" onmousedown="handleReset()"/>
                <g id="arrowUp" xlink:href="#dirArrow" transform="translate(30 24)" onmousedown="handlePan(0,-1)">
                  <use xlink:href="#rim" fill="#404040">
                        <set attributeName="fill" to="#808080" begin="arrowUp.mouseover" end="arrowUp.mouseout"/>
                  </use>
                  <path fill="none" stroke="white" stroke-width="1.5" d="M0,-3.0v7 M-2.5,-0.5L0,-3.0L2.5,-0.5"/>
                </g>
                <g id="arrowRight" xlink:href="#dirArrow" transform="rotate(90) translate(36 -43)" onmousedown="handlePan(1,0)">
                  <use xlink:href="#rim" fill="#404040">
                        <set attributeName="fill" to="#808080" begin="arrowRight.mouseover" end="arrowRight.mouseout"/>
                  </use>
                  <path fill="none" stroke="white" stroke-width="1.5" d="M0,-3.0v7 M-2.5,-0.5L0,-3.0L2.5,-0.5"/>
                </g>
                <g id="arrowDown" xlink:href="#dirArrow" transform="rotate(180) translate(-30 -48)" onmousedown="handlePan(0,1)">
                  <use xlink:href="#rim" fill="#404040">
                        <set attributeName="fill" to="#808080" begin="arrowDown.mouseover" end="arrowDown.mouseout"/>
                  </use>
                  <path fill="none" stroke="white" stroke-width="1.5" d="M0,-3.0v7 M-2.5,-0.5L0,-3.0L2.5,-0.5"/>
                </g>
                <g id="arrowLeft" xlink:href="#dirArrow" transform="rotate(270) translate(-36 17)" onmousedown="handlePan(-1,0)">
                  <use xlink:href="#rim" fill="#404040">
                        <set attributeName="fill" to="#808080" begin="arrowLeft.mouseover" end="arrowLeft.mouseout"/>
                  </use>
                  <path fill="none" stroke="white" stroke-width="1.5" d="M0,-3.0v7 M-2.5,-0.5L0,-3.0L2.5,-0.5"/>
                </g>
        </g>
        <svg viewBox="0 0 15 15" width="100%" height="30px" preserveAspectRatio="xMaxYMin meet">
         <g id="arrow_out" transform="scale(0.3 0.3)">
          <a xlink:href="class_python_1_1_markopy_1_1_abstract_generation_model_c_l_i__inherit__graph_org.svg" target="_base">
           <rect id="button" ry="5" rx="5" y="6" x="6" height="38" width="38"
                fill="#f2f5e9" fill-opacity="0.5" stroke="#606060" stroke-width="1.0"/>
           <path id="arrow"
             d="M 11.500037,31.436501 C 11.940474,20.09759 22.043105,11.32322 32.158766,21.979434 L 37.068811,17.246167 C 37.068811,17.246167 37.088388,32 37.088388,32 L 22.160133,31.978069 C 22.160133,31.978069 26.997745,27.140456 26.997745,27.140456 C 18.528582,18.264221 13.291696,25.230495 11.500037,31.436501 z"
             style="fill:#404040;"/>
          </a>
         </g>
        </svg>
</svg>
