<?xml version="1.0" encoding="UTF-8" standalone="no"?>
<!DOCTYPE svg PUBLIC "-//W3C//DTD SVG 1.1//EN"
 "http://www.w3.org/Graphics/SVG/1.1/DTD/svg11.dtd">
<!-- Generated by graphviz version 2.43.0 (0)
 -->
<!-- Title: markopy.MarkopyCLI.add_arguments Pages: 1 -->
<svg width="389pt" height="84pt"
 viewBox="0.00 0.00 389.00 83.50" xmlns="http://www.w3.org/2000/svg" xmlns:xlink="http://www.w3.org/1999/xlink">
<g id="graph0" class="graph" transform="scale(1 1) rotate(0) translate(4 79.5)">
<title>markopy.MarkopyCLI.add_arguments</title>
<!-- Node1 -->
<g id="node1" class="node">
<title>Node1</title>
<g id="a_node1"><a xlink:title=" ">
<polygon fill="#bfbfbf" stroke="black" points="0,-23.5 0,-57.5 169,-57.5 169,-23.5 0,-23.5"/>
<text text-anchor="start" x="8" y="-43.9" font-family="Helvetica,sans-Serif" font-size="12.00">markopy.MarkopyCLI.add</text>
<text text-anchor="middle" x="84.5" y="-30.9" font-family="Helvetica,sans-Serif" font-size="12.00">_arguments</text>
</a>
</g>
</g>
<!-- Node2 -->
<g id="node2" class="node">
<title>Node2</title>
<g id="a_node2"><a xlink:href="classbase_1_1_base_c_l_i.html#a0d820ca7ee4743284b4f2c8fdb2828cb" target="_top" xlink:title=" ">
<polygon fill="none" stroke="black" points="230,-54 230,-75 356,-75 356,-54 230,-54"/>
<text text-anchor="middle" x="293" y="-61.4" font-family="Helvetica,sans-Serif" font-size="12.00">base.BaseCLI.help</text>
</a>
</g>
</g>
<!-- Node1&#45;&gt;Node2 -->
<g id="edge1" class="edge">
<title>Node1&#45;&gt;Node2</title>
<path fill="none" stroke="midnightblue" d="M169.19,-50.23C185.95,-52.17 203.42,-54.21 219.75,-56.1"/>
<polygon fill="midnightblue" stroke="midnightblue" points="219.42,-59.59 229.76,-57.27 220.23,-52.63 219.42,-59.59"/>
</g>
<!-- Node3 -->
<g id="node3" class="node">
<title>Node3</title>
<g id="a_node3"><a xlink:href="class_markov_1_1_a_p_i_1_1_c_l_i_1_1_argparse.html#ac7aaf4edf169e3aab32aca083984d914" target="_top" xlink:title="Print help string.">
<polygon fill="none" stroke="black" points="205,-0.5 205,-34.5 381,-34.5 381,-0.5 205,-0.5"/>
<text text-anchor="start" x="213" y="-20.9" font-family="Helvetica,sans-Serif" font-size="12.00">Markov::API::CLI::Argparse</text>
<text text-anchor="middle" x="293" y="-7.9" font-family="Helvetica,sans-Serif" font-size="12.00">::help</text>
</a>
</g>
</g>
<!-- Node1&#45;&gt;Node3 -->
<g id="edge2" class="edge">
<title>Node1&#45;&gt;Node3</title>
<path fill="none" stroke="midnightblue" d="M169.19,-31.18C177.63,-30.24 186.25,-29.28 194.81,-28.32"/>
<polygon fill="midnightblue" stroke="midnightblue" points="195.27,-31.8 204.82,-27.21 194.5,-24.84 195.27,-31.8"/>
</g>
</g>
</svg>
