<?xml version="1.0" encoding="UTF-8" standalone="no"?>
<!DOCTYPE svg PUBLIC "-//W3C//DTD SVG 1.1//EN"
 "http://www.w3.org/Graphics/SVG/1.1/DTD/svg11.dtd">
<!-- Generated by graphviz version 2.43.0 (0)
 -->
<!-- Title: Markov::API::ModelMatrix::ConstructMatrix Pages: 1 -->
<svg width="588pt" height="112pt"
 viewBox="0.00 0.00 588.00 111.74" xmlns="http://www.w3.org/2000/svg" xmlns:xlink="http://www.w3.org/1999/xlink">
<g id="graph0" class="graph" transform="scale(1 1) rotate(0) translate(4 107.74)">
<title>Markov::API::ModelMatrix::ConstructMatrix</title>
<!-- Node1 -->
<g id="node1" class="node">
<title>Node1</title>
<g id="a_node1"><a xlink:title="Construct the related Matrix data for the model.">
<polygon fill="#bfbfbf" stroke="black" points="411,-53.5 411,-87.5 580,-87.5 580,-53.5 411,-53.5"/>
<text text-anchor="start" x="419" y="-73.9" font-family="Helvetica,sans-Serif" font-size="12.00">Markov::API::ModelMatrix</text>
<text text-anchor="middle" x="495.5" y="-60.9" font-family="Helvetica,sans-Serif" font-size="12.00">::ConstructMatrix</text>
</a>
</g>
</g>
<!-- Node2 -->
<g id="node2" class="node">
<title>Node2</title>
<g id="a_node2"><a xlink:href="namespace_markov_1_1_markopy.html#a379628c09859652215496b63af2bcac9" target="_top" xlink:title=" ">
<polygon fill="none" stroke="black" points="0,-53.5 0,-87.5 170,-87.5 170,-53.5 0,-53.5"/>
<text text-anchor="start" x="8" y="-73.9" font-family="Helvetica,sans-Serif" font-size="12.00">Markov::Markopy::BOOST</text>
<text text-anchor="middle" x="85" y="-60.9" font-family="Helvetica,sans-Serif" font-size="12.00">_PYTHON_MODULE</text>
</a>
</g>
</g>
<!-- Node1&#45;&gt;Node2 -->
<g id="edge1" class="edge">
<title>Node1&#45;&gt;Node2</title>
<path fill="none" stroke="midnightblue" d="M421.49,-89.69C406.23,-92.94 390.17,-95.81 375,-97.5 300.35,-105.83 280.65,-105.79 206,-97.5 187.43,-95.44 167.53,-91.63 149.39,-87.51"/>
<polygon fill="midnightblue" stroke="midnightblue" points="422.37,-93.08 431.38,-87.51 420.86,-86.25 422.37,-93.08"/>
</g>
<!-- Node3 -->
<g id="node3" class="node">
<title>Node3</title>
<g id="a_node3"><a xlink:href="class_markov_1_1_a_p_i_1_1_model_matrix.html#aeba8bb79aa4dc2cfeda310f34b7c9427" target="_top" xlink:title="Open a file to import with filename, and call bool Model::Import with std::ifstream.">
<polygon fill="none" stroke="black" points="206,-0.5 206,-34.5 375,-34.5 375,-0.5 206,-0.5"/>
<text text-anchor="start" x="214" y="-20.9" font-family="Helvetica,sans-Serif" font-size="12.00">Markov::API::ModelMatrix</text>
<text text-anchor="middle" x="290.5" y="-7.9" font-family="Helvetica,sans-Serif" font-size="12.00">::Import</text>
</a>
</g>
</g>
<!-- Node1&#45;&gt;Node3 -->
<g id="edge2" class="edge">
<title>Node1&#45;&gt;Node3</title>
<path fill="none" stroke="midnightblue" d="M419.22,-50.84C398.69,-45.49 376.64,-39.73 356.73,-34.53"/>
<polygon fill="midnightblue" stroke="midnightblue" points="418.59,-54.3 429.15,-53.44 420.36,-47.53 418.59,-54.3"/>
</g>
<!-- Node5 -->
<g id="node5" class="node">
<title>Node5</title>
<g id="a_node5"><a xlink:href="class_markov_1_1_a_p_i_1_1_model_matrix.html#af42d40d7a5c80f0dfe126a574a17f423" target="_top" xlink:title="Train the model with the dataset file.">
<polygon fill="none" stroke="black" points="206,-53.5 206,-87.5 375,-87.5 375,-53.5 206,-53.5"/>
<text text-anchor="start" x="214" y="-73.9" font-family="Helvetica,sans-Serif" font-size="12.00">Markov::API::ModelMatrix</text>
<text text-anchor="middle" x="290.5" y="-60.9" font-family="Helvetica,sans-Serif" font-size="12.00">::Train</text>
</a>
</g>
</g>
<!-- Node1&#45;&gt;Node5 -->
<g id="edge5" class="edge">
<title>Node1&#45;&gt;Node5</title>
<path fill="none" stroke="midnightblue" d="M400.74,-70.5C392.17,-70.5 383.52,-70.5 375.05,-70.5"/>
<polygon fill="midnightblue" stroke="midnightblue" points="400.76,-74 410.76,-70.5 400.76,-67 400.76,-74"/>
</g>
<!-- Node3&#45;&gt;Node2 -->
<g id="edge3" class="edge">
<title>Node3&#45;&gt;Node2</title>
<path fill="none" stroke="midnightblue" d="M214.31,-37.08C193.66,-42.46 171.44,-48.25 151.39,-53.47"/>
<polygon fill="midnightblue" stroke="midnightblue" points="215.2,-40.47 223.99,-34.56 213.43,-33.69 215.2,-40.47"/>
</g>
<!-- Node4 -->
<g id="node4" class="node">
<title>Node4</title>
<g id="a_node4"><a xlink:href="_markov_a_p_i_c_l_i_2src_2main_8cpp.html#a3c04138a5bfe5d72780bb7e82a18e627" target="_top" xlink:title="Launch CLI tool.">
<polygon fill="none" stroke="black" points="61.5,-7 61.5,-28 108.5,-28 108.5,-7 61.5,-7"/>
<text text-anchor="middle" x="85" y="-14.4" font-family="Helvetica,sans-Serif" font-size="12.00">main</text>
</a>
</g>
</g>
<!-- Node3&#45;&gt;Node4 -->
<g id="edge4" class="edge">
<title>Node3&#45;&gt;Node4</title>
<path fill="none" stroke="midnightblue" d="M195.44,-17.5C163.21,-17.5 129.95,-17.5 108.68,-17.5"/>
<polygon fill="midnightblue" stroke="midnightblue" points="195.85,-21 205.85,-17.5 195.85,-14 195.85,-21"/>
</g>
<!-- Node5&#45;&gt;Node2 -->
<g id="edge6" class="edge">
<title>Node5&#45;&gt;Node2</title>
<path fill="none" stroke="midnightblue" d="M195.61,-70.5C187.17,-70.5 178.66,-70.5 170.31,-70.5"/>
<polygon fill="midnightblue" stroke="midnightblue" points="195.85,-74 205.85,-70.5 195.85,-67 195.85,-74"/>
</g>
</g>
</svg>
