<?xml version="1.0" encoding="UTF-8" standalone="no"?>
<!DOCTYPE svg PUBLIC "-//W3C//DTD SVG 1.1//EN"
 "http://www.w3.org/Graphics/SVG/1.1/DTD/svg11.dtd">
<!-- Generated by graphviz version 2.43.0 (0)
 -->
<!-- Title: Python.Markopy.MarkovModel Pages: 1 -->
<svg width="1031pt" height="1882pt"
 viewBox="0.00 0.00 1031.00 1882.00" xmlns="http://www.w3.org/2000/svg" xmlns:xlink="http://www.w3.org/1999/xlink">
<g id="graph0" class="graph" transform="scale(1 1) rotate(0) translate(4 1878)">
<title>Python.Markopy.MarkovModel</title>
<!-- Node1 -->
<g id="node1" class="node">
<title>Node1</title>
<g id="a_node1"><a xlink:title="Abstract representation of a markov model.">
<polygon fill="#bfbfbf" stroke="black" points="709.5,-0.5 709.5,-141.5 905.5,-141.5 905.5,-0.5 709.5,-0.5"/>
<text text-anchor="middle" x="807.5" y="-127.9" font-family="Helvetica,sans-Serif" font-size="12.00">Python.Markopy.MarkovModel</text>
<polyline fill="none" stroke="black" points="709.5,-120.5 905.5,-120.5 "/>
<text text-anchor="middle" x="807.5" y="-106.9" font-family="Helvetica,sans-Serif" font-size="12.00"> </text>
<polyline fill="none" stroke="black" points="709.5,-99.5 905.5,-99.5 "/>
<text text-anchor="start" x="717.5" y="-85.9" font-family="Helvetica,sans-Serif" font-size="12.00">+ def Import(str filename)</text>
<text text-anchor="start" x="717.5" y="-72.9" font-family="Helvetica,sans-Serif" font-size="12.00">+ def Export(str filename)</text>
<text text-anchor="start" x="717.5" y="-59.9" font-family="Helvetica,sans-Serif" font-size="12.00">+ def Train(str dataset,</text>
<text text-anchor="start" x="717.5" y="-46.9" font-family="Helvetica,sans-Serif" font-size="12.00"> str seperator, int threads)</text>
<text text-anchor="start" x="717.5" y="-33.9" font-family="Helvetica,sans-Serif" font-size="12.00">+ def Generate(int count,</text>
<text text-anchor="start" x="717.5" y="-20.9" font-family="Helvetica,sans-Serif" font-size="12.00"> str wordlist, int minlen,</text>
<text text-anchor="start" x="717.5" y="-7.9" font-family="Helvetica,sans-Serif" font-size="12.00"> int maxlen, int threads)</text>
</a>
</g>
</g>
<!-- Node2 -->
<g id="node2" class="node">
<title>Node2</title>
<g id="a_node2"><a xlink:href="class_markov_1_1_a_p_i_1_1_markov_passwords.html" target="_top" xlink:title="Markov::Model with char represented nodes.">
<polygon fill="none" stroke="black" points="660,-179.5 660,-593.5 955,-593.5 955,-179.5 660,-179.5"/>
<text text-anchor="middle" x="807.5" y="-579.9" font-family="Helvetica,sans-Serif" font-size="12.00">Markov::API::MarkovPasswords</text>
<polyline fill="none" stroke="black" points="660,-572.5 955,-572.5 "/>
<text text-anchor="middle" x="807.5" y="-558.9" font-family="Helvetica,sans-Serif" font-size="12.00"> </text>
<polyline fill="none" stroke="black" points="660,-551.5 955,-551.5 "/>
<text text-anchor="start" x="668" y="-537.9" font-family="Helvetica,sans-Serif" font-size="12.00">+ MarkovPasswords()</text>
<text text-anchor="start" x="668" y="-524.9" font-family="Helvetica,sans-Serif" font-size="12.00">+ MarkovPasswords(const</text>
<text text-anchor="start" x="668" y="-511.9" font-family="Helvetica,sans-Serif" font-size="12.00"> char *filename)</text>
<text text-anchor="start" x="668" y="-498.9" font-family="Helvetica,sans-Serif" font-size="12.00">+ std::ifstream * OpenDataset</text>
<text text-anchor="start" x="668" y="-485.9" font-family="Helvetica,sans-Serif" font-size="12.00">File(const char *filename)</text>
<text text-anchor="start" x="668" y="-472.9" font-family="Helvetica,sans-Serif" font-size="12.00">+ void Train(const char</text>
<text text-anchor="start" x="668" y="-459.9" font-family="Helvetica,sans-Serif" font-size="12.00"> *datasetFileName, char</text>
<text text-anchor="start" x="668" y="-446.9" font-family="Helvetica,sans-Serif" font-size="12.00"> delimiter, int threads)</text>
<text text-anchor="start" x="668" y="-433.9" font-family="Helvetica,sans-Serif" font-size="12.00">+ std::ofstream * Save</text>
<text text-anchor="start" x="668" y="-420.9" font-family="Helvetica,sans-Serif" font-size="12.00">(const char *filename)</text>
<text text-anchor="start" x="668" y="-407.9" font-family="Helvetica,sans-Serif" font-size="12.00">+ void Generate(unsigned</text>
<text text-anchor="start" x="668" y="-394.9" font-family="Helvetica,sans-Serif" font-size="12.00"> long int n, const char</text>
<text text-anchor="start" x="668" y="-381.9" font-family="Helvetica,sans-Serif" font-size="12.00"> *wordlistFileName, int</text>
<text text-anchor="start" x="668" y="-368.9" font-family="Helvetica,sans-Serif" font-size="12.00"> minLen=6, int maxLen=12,</text>
<text text-anchor="start" x="668" y="-355.9" font-family="Helvetica,sans-Serif" font-size="12.00"> int threads=20)</text>
<text text-anchor="start" x="668" y="-342.9" font-family="Helvetica,sans-Serif" font-size="12.00">+ void Buff(const char</text>
<text text-anchor="start" x="668" y="-329.9" font-family="Helvetica,sans-Serif" font-size="12.00"> *str, double multiplier,</text>
<text text-anchor="start" x="668" y="-316.9" font-family="Helvetica,sans-Serif" font-size="12.00"> bool bDontAdjustSelfLoops</text>
<text text-anchor="start" x="668" y="-303.9" font-family="Helvetica,sans-Serif" font-size="12.00">=true, bool bDontAdjustExtendedLoops=false)</text>
<text text-anchor="start" x="668" y="-290.9" font-family="Helvetica,sans-Serif" font-size="12.00">&#45; void TrainThread(Markov</text>
<text text-anchor="start" x="668" y="-277.9" font-family="Helvetica,sans-Serif" font-size="12.00">::API::Concurrency::ThreadShared</text>
<text text-anchor="start" x="668" y="-264.9" font-family="Helvetica,sans-Serif" font-size="12.00">ListHandler *listhandler, char</text>
<text text-anchor="start" x="668" y="-251.9" font-family="Helvetica,sans-Serif" font-size="12.00"> delimiter)</text>
<text text-anchor="start" x="668" y="-238.9" font-family="Helvetica,sans-Serif" font-size="12.00">&#45; void GenerateThread</text>
<text text-anchor="start" x="668" y="-225.9" font-family="Helvetica,sans-Serif" font-size="12.00">(std::mutex *outputLock,</text>
<text text-anchor="start" x="668" y="-212.9" font-family="Helvetica,sans-Serif" font-size="12.00"> unsigned long int n, std</text>
<text text-anchor="start" x="668" y="-199.9" font-family="Helvetica,sans-Serif" font-size="12.00">::ofstream *wordlist, int</text>
<text text-anchor="start" x="668" y="-186.9" font-family="Helvetica,sans-Serif" font-size="12.00"> minLen, int maxLen)</text>
</a>
</g>
</g>
<!-- Node2&#45;&gt;Node1 -->
<g id="edge1" class="edge">
<title>Node2&#45;&gt;Node1</title>
<path fill="none" stroke="midnightblue" d="M807.5,-169.33C807.5,-159.73 807.5,-150.49 807.5,-141.76"/>
<polygon fill="none" stroke="midnightblue" points="804,-169.45 807.5,-179.45 811,-169.45 804,-169.45"/>
</g>
<!-- Node3 -->
<g id="node3" class="node">
<title>Node3</title>
<g id="a_node3"><a xlink:href="class_markov_1_1_model.html" target="_top" xlink:title=" ">
<polygon fill="none" stroke="black" points="249.5,-656.5 249.5,-966.5 461.5,-966.5 461.5,-656.5 249.5,-656.5"/>
<text text-anchor="middle" x="355.5" y="-952.9" font-family="Helvetica,sans-Serif" font-size="12.00">Markov::Model&lt; char &gt;</text>
<polyline fill="none" stroke="black" points="249.5,-945.5 461.5,-945.5 "/>
<text text-anchor="middle" x="355.5" y="-931.9" font-family="Helvetica,sans-Serif" font-size="12.00"> </text>
<polyline fill="none" stroke="black" points="249.5,-924.5 461.5,-924.5 "/>
<text text-anchor="start" x="257.5" y="-910.9" font-family="Helvetica,sans-Serif" font-size="12.00">+ Model()</text>
<text text-anchor="start" x="257.5" y="-897.9" font-family="Helvetica,sans-Serif" font-size="12.00">+ char * RandomWalk(Markov</text>
<text text-anchor="start" x="257.5" y="-884.9" font-family="Helvetica,sans-Serif" font-size="12.00">::Random::RandomEngine</text>
<text text-anchor="start" x="257.5" y="-871.9" font-family="Helvetica,sans-Serif" font-size="12.00"> *randomEngine, int minSetting,</text>
<text text-anchor="start" x="257.5" y="-858.9" font-family="Helvetica,sans-Serif" font-size="12.00"> int maxSetting, char *buffer)</text>
<text text-anchor="start" x="257.5" y="-845.9" font-family="Helvetica,sans-Serif" font-size="12.00">+ void AdjustEdge(const</text>
<text text-anchor="start" x="257.5" y="-832.9" font-family="Helvetica,sans-Serif" font-size="12.00"> char *payload, long</text>
<text text-anchor="start" x="257.5" y="-819.9" font-family="Helvetica,sans-Serif" font-size="12.00"> int occurrence)</text>
<text text-anchor="start" x="257.5" y="-806.9" font-family="Helvetica,sans-Serif" font-size="12.00">+ bool Import(std::ifstream *)</text>
<text text-anchor="start" x="257.5" y="-793.9" font-family="Helvetica,sans-Serif" font-size="12.00">+ bool Import(const char</text>
<text text-anchor="start" x="257.5" y="-780.9" font-family="Helvetica,sans-Serif" font-size="12.00"> *filename)</text>
<text text-anchor="start" x="257.5" y="-767.9" font-family="Helvetica,sans-Serif" font-size="12.00">+ bool Export(std::ofstream *)</text>
<text text-anchor="start" x="257.5" y="-754.9" font-family="Helvetica,sans-Serif" font-size="12.00">+ bool Export(const char</text>
<text text-anchor="start" x="257.5" y="-741.9" font-family="Helvetica,sans-Serif" font-size="12.00"> *filename)</text>
<text text-anchor="start" x="257.5" y="-728.9" font-family="Helvetica,sans-Serif" font-size="12.00">+ Node&lt; char &gt; * StarterNode()</text>
<text text-anchor="start" x="257.5" y="-715.9" font-family="Helvetica,sans-Serif" font-size="12.00">+ std::vector&lt; Edge&lt;</text>
<text text-anchor="start" x="257.5" y="-702.9" font-family="Helvetica,sans-Serif" font-size="12.00"> char &gt; * &gt; * Edges()</text>
<text text-anchor="start" x="257.5" y="-689.9" font-family="Helvetica,sans-Serif" font-size="12.00">+ std::map&lt; char, Node</text>
<text text-anchor="start" x="257.5" y="-676.9" font-family="Helvetica,sans-Serif" font-size="12.00">&lt; char &gt; * &gt; * Nodes()</text>
<text text-anchor="start" x="257.5" y="-663.9" font-family="Helvetica,sans-Serif" font-size="12.00">+ void OptimizeEdgeOrder()</text>
</a>
</g>
</g>
<!-- Node3&#45;&gt;Node2 -->
<g id="edge2" class="edge">
<title>Node3&#45;&gt;Node2</title>
<path fill="none" stroke="midnightblue" d="M469.09,-704.2C526.81,-650.18 597.66,-583.88 659.59,-525.92"/>
<polygon fill="none" stroke="midnightblue" points="466.67,-701.67 461.76,-711.06 471.45,-706.78 466.67,-701.67"/>
</g>
<!-- Node4 -->
<g id="node4" class="node">
<title>Node4</title>
<g id="a_node4"><a xlink:title=" ">
<polygon fill="none" stroke="#bfbfbf" points="0,-1220.5 0,-1296.5 161,-1296.5 161,-1220.5 0,-1220.5"/>
<text text-anchor="start" x="8" y="-1282.9" font-family="Helvetica,sans-Serif" font-size="12.00">std::map&lt; char, Markov</text>
<text text-anchor="middle" x="80.5" y="-1269.9" font-family="Helvetica,sans-Serif" font-size="12.00">::Node&lt; char &gt; * &gt;</text>
<polyline fill="none" stroke="#bfbfbf" points="0,-1262.5 161,-1262.5 "/>
<text text-anchor="middle" x="80.5" y="-1248.9" font-family="Helvetica,sans-Serif" font-size="12.00"> </text>
<polyline fill="none" stroke="#bfbfbf" points="0,-1241.5 161,-1241.5 "/>
<text text-anchor="middle" x="80.5" y="-1227.9" font-family="Helvetica,sans-Serif" font-size="12.00"> </text>
</a>
</g>
</g>
<!-- Node4&#45;&gt;Node3 -->
<g id="edge3" class="edge">
<title>Node4&#45;&gt;Node3</title>
<path fill="none" stroke="#404040" d="M102.77,-1220.12C131.19,-1172.53 182.01,-1087.86 226.5,-1016 234.32,-1003.37 242.45,-990.33 250.66,-977.24"/>
<polygon fill="none" stroke="#404040" points="250.87,-976.89 250.67,-969.69 257.25,-966.73 257.45,-973.94 250.87,-976.89"/>
<text text-anchor="middle" x="249" y="-1051.4" font-family="Helvetica,sans-Serif" font-size="12.00"> &#45;nodes</text>
</g>
<!-- Node5 -->
<g id="node5" class="node">
<title>Node5</title>
<g id="a_node5"><a xlink:title=" ">
<polygon fill="none" stroke="#bfbfbf" points="157.5,-1810.5 157.5,-1873.5 201.5,-1873.5 201.5,-1810.5 157.5,-1810.5"/>
<text text-anchor="middle" x="179.5" y="-1859.9" font-family="Helvetica,sans-Serif" font-size="12.00">char</text>
<polyline fill="none" stroke="#bfbfbf" points="157.5,-1852.5 201.5,-1852.5 "/>
<text text-anchor="middle" x="179.5" y="-1838.9" font-family="Helvetica,sans-Serif" font-size="12.00"> </text>
<polyline fill="none" stroke="#bfbfbf" points="157.5,-1831.5 201.5,-1831.5 "/>
<text text-anchor="middle" x="179.5" y="-1817.9" font-family="Helvetica,sans-Serif" font-size="12.00"> </text>
</a>
</g>
</g>
<!-- Node5&#45;&gt;Node4 -->
<g id="edge4" class="edge">
<title>Node5&#45;&gt;Node4</title>
<path fill="none" stroke="#404040" d="M157.47,-1816.23C145.54,-1801.3 131.79,-1781.3 124.5,-1761 67.91,-1603.49 71.36,-1401.02 76.69,-1308.98"/>
<polygon fill="none" stroke="#404040" points="76.71,-1308.72 73.09,-1302.48 77.45,-1296.74 81.07,-1302.97 76.71,-1308.72"/>
<text text-anchor="middle" x="145" y="-1595.9" font-family="Helvetica,sans-Serif" font-size="12.00"> +keys</text>
</g>
<!-- Node6 -->
<g id="node6" class="node">
<title>Node6</title>
<g id="a_node6"><a xlink:href="class_markov_1_1_node.html" target="_top" xlink:title=" ">
<polygon fill="none" stroke="black" points="243,-1437.5 243,-1760.5 464,-1760.5 464,-1437.5 243,-1437.5"/>
<text text-anchor="middle" x="353.5" y="-1746.9" font-family="Helvetica,sans-Serif" font-size="12.00">Markov::Node&lt; char &gt;</text>
<polyline fill="none" stroke="black" points="243,-1739.5 464,-1739.5 "/>
<text text-anchor="middle" x="353.5" y="-1725.9" font-family="Helvetica,sans-Serif" font-size="12.00"> </text>
<polyline fill="none" stroke="black" points="243,-1718.5 464,-1718.5 "/>
<text text-anchor="start" x="251" y="-1704.9" font-family="Helvetica,sans-Serif" font-size="12.00">+ Node()</text>
<text text-anchor="start" x="251" y="-1691.9" font-family="Helvetica,sans-Serif" font-size="12.00">+ Node(char _value)</text>
<text text-anchor="start" x="251" y="-1678.9" font-family="Helvetica,sans-Serif" font-size="12.00">+ Edge&lt; char &gt; * Link</text>
<text text-anchor="start" x="251" y="-1665.9" font-family="Helvetica,sans-Serif" font-size="12.00">(Node&lt; char &gt; *)</text>
<text text-anchor="start" x="251" y="-1652.9" font-family="Helvetica,sans-Serif" font-size="12.00">+ Edge&lt; char &gt; * Link</text>
<text text-anchor="start" x="251" y="-1639.9" font-family="Helvetica,sans-Serif" font-size="12.00">(Edge&lt; char &gt; *)</text>
<text text-anchor="start" x="251" y="-1626.9" font-family="Helvetica,sans-Serif" font-size="12.00">+ Node&lt; char &gt; * RandomNext</text>
<text text-anchor="start" x="251" y="-1613.9" font-family="Helvetica,sans-Serif" font-size="12.00">(Markov::Random::RandomEngine</text>
<text text-anchor="start" x="251" y="-1600.9" font-family="Helvetica,sans-Serif" font-size="12.00"> *randomEngine)</text>
<text text-anchor="start" x="251" y="-1587.9" font-family="Helvetica,sans-Serif" font-size="12.00">+ bool UpdateEdges(Edge</text>
<text text-anchor="start" x="251" y="-1574.9" font-family="Helvetica,sans-Serif" font-size="12.00">&lt; char &gt; *)</text>
<text text-anchor="start" x="251" y="-1561.9" font-family="Helvetica,sans-Serif" font-size="12.00">+ Edge&lt; char &gt; * FindEdge</text>
<text text-anchor="start" x="251" y="-1548.9" font-family="Helvetica,sans-Serif" font-size="12.00">(char repr)</text>
<text text-anchor="start" x="251" y="-1535.9" font-family="Helvetica,sans-Serif" font-size="12.00">+ Edge&lt; char &gt; * FindEdge</text>
<text text-anchor="start" x="251" y="-1522.9" font-family="Helvetica,sans-Serif" font-size="12.00">(Node&lt; char &gt; *target)</text>
<text text-anchor="start" x="251" y="-1509.9" font-family="Helvetica,sans-Serif" font-size="12.00">+ unsigned char NodeValue()</text>
<text text-anchor="start" x="251" y="-1496.9" font-family="Helvetica,sans-Serif" font-size="12.00">+ void UpdateTotalVerticeWeight</text>
<text text-anchor="start" x="251" y="-1483.9" font-family="Helvetica,sans-Serif" font-size="12.00">(long int offset)</text>
<text text-anchor="start" x="251" y="-1470.9" font-family="Helvetica,sans-Serif" font-size="12.00">+ std::map&lt; char, Edge</text>
<text text-anchor="start" x="251" y="-1457.9" font-family="Helvetica,sans-Serif" font-size="12.00">&lt; char &gt; * &gt; * Edges()</text>
<text text-anchor="start" x="251" y="-1444.9" font-family="Helvetica,sans-Serif" font-size="12.00">+ long int TotalEdgeWeights()</text>
</a>
</g>
</g>
<!-- Node5&#45;&gt;Node6 -->
<g id="edge6" class="edge">
<title>Node5&#45;&gt;Node6</title>
<path fill="none" stroke="#404040" d="M201.54,-1810.48C210.99,-1797.39 222.82,-1781 235.68,-1763.19"/>
<polygon fill="none" stroke="#404040" points="235.9,-1762.89 236.17,-1755.68 242.92,-1753.16 242.65,-1760.36 235.9,-1762.89"/>
<text text-anchor="middle" x="246" y="-1782.4" font-family="Helvetica,sans-Serif" font-size="12.00"> &#45;_value</text>
</g>
<!-- Node7 -->
<g id="node7" class="node">
<title>Node7</title>
<g id="a_node7"><a xlink:title=" ">
<polygon fill="none" stroke="#bfbfbf" points="314,-1016.5 314,-1092.5 475,-1092.5 475,-1016.5 314,-1016.5"/>
<text text-anchor="start" x="322" y="-1078.9" font-family="Helvetica,sans-Serif" font-size="12.00">std::map&lt; char, Markov</text>
<text text-anchor="middle" x="394.5" y="-1065.9" font-family="Helvetica,sans-Serif" font-size="12.00">::Edge&lt; char &gt; * &gt;</text>
<polyline fill="none" stroke="#bfbfbf" points="314,-1058.5 475,-1058.5 "/>
<text text-anchor="middle" x="394.5" y="-1044.9" font-family="Helvetica,sans-Serif" font-size="12.00"> </text>
<polyline fill="none" stroke="#bfbfbf" points="314,-1037.5 475,-1037.5 "/>
<text text-anchor="middle" x="394.5" y="-1023.9" font-family="Helvetica,sans-Serif" font-size="12.00"> </text>
</a>
</g>
</g>
<!-- Node5&#45;&gt;Node7 -->
<g id="edge8" class="edge">
<title>Node5&#45;&gt;Node7</title>
<path fill="none" stroke="#404040" d="M177.85,-1810.28C173.38,-1722.77 162.29,-1473.32 176.5,-1393 199.74,-1261.61 189.96,-1209.92 279.5,-1111 286.4,-1103.38 294.57,-1096.7 303.32,-1090.87"/>
<polygon fill="none" stroke="#404040" points="303.61,-1090.7 306.62,-1084.15 313.83,-1084.41 310.81,-1090.96 303.61,-1090.7"/>
<text text-anchor="middle" x="197" y="-1402.9" font-family="Helvetica,sans-Serif" font-size="12.00"> +keys</text>
</g>
<!-- Node6&#45;&gt;Node3 -->
<g id="edge15" class="edge">
<title>Node6&#45;&gt;Node3</title>
<path fill="none" stroke="#404040" d="M323.8,-1437.4C308.39,-1345.91 291.21,-1228.95 283.5,-1124 279.92,-1075.23 293.28,-1063.59 304.5,-1016 307.4,-1003.72 310.44,-991.03 313.54,-978.28"/>
<polygon fill="none" stroke="#404040" points="313.56,-978.22 311.1,-971.44 316.41,-966.56 318.87,-973.34 313.56,-978.22"/>
<text text-anchor="middle" x="324" y="-1114.4" font-family="Helvetica,sans-Serif" font-size="12.00"> &#45;starterNode</text>
</g>
<!-- Node6&#45;&gt;Node4 -->
<g id="edge5" class="edge">
<title>Node6&#45;&gt;Node4</title>
<path fill="none" stroke="#404040" d="M255.36,-1437.24C244.43,-1421.92 233.05,-1406.93 221.5,-1393 195.2,-1361.3 161.89,-1329.44 134.25,-1304.81"/>
<polygon fill="none" stroke="#404040" points="134.1,-1304.68 126.96,-1303.71 125.11,-1296.74 132.25,-1297.71 134.1,-1304.68"/>
<text text-anchor="middle" x="273.5" y="-1402.9" font-family="Helvetica,sans-Serif" font-size="12.00"> +elements</text>
</g>
<!-- Node8 -->
<g id="node8" class="node">
<title>Node8</title>
<g id="a_node8"><a xlink:href="class_markov_1_1_edge.html" target="_top" xlink:title=" ">
<polygon fill="none" stroke="black" points="417,-1142.5 417,-1374.5 638,-1374.5 638,-1142.5 417,-1142.5"/>
<text text-anchor="middle" x="527.5" y="-1360.9" font-family="Helvetica,sans-Serif" font-size="12.00">Markov::Edge&lt; char &gt;</text>
<polyline fill="none" stroke="black" points="417,-1353.5 638,-1353.5 "/>
<text text-anchor="middle" x="527.5" y="-1339.9" font-family="Helvetica,sans-Serif" font-size="12.00"> </text>
<polyline fill="none" stroke="black" points="417,-1332.5 638,-1332.5 "/>
<text text-anchor="start" x="425" y="-1318.9" font-family="Helvetica,sans-Serif" font-size="12.00">+ Edge()</text>
<text text-anchor="start" x="425" y="-1305.9" font-family="Helvetica,sans-Serif" font-size="12.00">+ Edge(Node&lt; char &gt;</text>
<text text-anchor="start" x="425" y="-1292.9" font-family="Helvetica,sans-Serif" font-size="12.00"> *_left, Node&lt; char</text>
<text text-anchor="start" x="425" y="-1279.9" font-family="Helvetica,sans-Serif" font-size="12.00"> &gt; *_right)</text>
<text text-anchor="start" x="425" y="-1266.9" font-family="Helvetica,sans-Serif" font-size="12.00">+ void AdjustEdge(long</text>
<text text-anchor="start" x="425" y="-1253.9" font-family="Helvetica,sans-Serif" font-size="12.00"> int offset)</text>
<text text-anchor="start" x="425" y="-1240.9" font-family="Helvetica,sans-Serif" font-size="12.00">+ Node&lt; char &gt; * TraverseNode()</text>
<text text-anchor="start" x="425" y="-1227.9" font-family="Helvetica,sans-Serif" font-size="12.00">+ void SetLeftEdge(Node</text>
<text text-anchor="start" x="425" y="-1214.9" font-family="Helvetica,sans-Serif" font-size="12.00">&lt; char &gt; *)</text>
<text text-anchor="start" x="425" y="-1201.9" font-family="Helvetica,sans-Serif" font-size="12.00">+ void SetRightEdge(Node</text>
<text text-anchor="start" x="425" y="-1188.9" font-family="Helvetica,sans-Serif" font-size="12.00">&lt; char &gt; *)</text>
<text text-anchor="start" x="425" y="-1175.9" font-family="Helvetica,sans-Serif" font-size="12.00">+ uint64_t EdgeWeight()</text>
<text text-anchor="start" x="425" y="-1162.9" font-family="Helvetica,sans-Serif" font-size="12.00">+ Node&lt; char &gt; * LeftNode()</text>
<text text-anchor="start" x="425" y="-1149.9" font-family="Helvetica,sans-Serif" font-size="12.00">+ Node&lt; char &gt; * RightNode()</text>
</a>
</g>
</g>
<!-- Node6&#45;&gt;Node8 -->
<g id="edge11" class="edge">
<title>Node6&#45;&gt;Node8</title>
<path fill="none" stroke="#404040" d="M436.17,-1437.18C445.09,-1419.82 454.07,-1402.36 462.73,-1385.5"/>
<polygon fill="none" stroke="#404040" points="462.89,-1385.19 462.08,-1378.03 468.38,-1374.52 469.19,-1381.68 462.89,-1385.19"/>
<text text-anchor="middle" x="476" y="-1409.4" font-family="Helvetica,sans-Serif" font-size="12.00"> &#45;_left</text>
<text text-anchor="middle" x="476" y="-1396.4" font-family="Helvetica,sans-Serif" font-size="12.00">&#45;_right</text>
</g>
<!-- Node7&#45;&gt;Node6 -->
<g id="edge7" class="edge">
<title>Node7&#45;&gt;Node6</title>
<path fill="none" stroke="#404040" d="M379.4,-1092.55C372.03,-1111.31 364.36,-1132.17 362.5,-1142 345.01,-1234.42 341.81,-1339.25 343.41,-1425.07"/>
<polygon fill="none" stroke="#404040" points="343.42,-1425.33 347.54,-1431.24 343.67,-1437.32 339.55,-1431.41 343.42,-1425.33"/>
<text text-anchor="middle" x="385" y="-1255.4" font-family="Helvetica,sans-Serif" font-size="12.00"> &#45;edges</text>
</g>
<!-- Node8&#45;&gt;Node7 -->
<g id="edge9" class="edge">
<title>Node8&#45;&gt;Node7</title>
<path fill="none" stroke="#404040" d="M451.68,-1142.34C442.56,-1128.5 433.69,-1115.02 425.75,-1102.97"/>
<polygon fill="none" stroke="#404040" points="425.64,-1102.79 419,-1099.98 419.04,-1092.77 425.68,-1095.58 425.64,-1102.79"/>
<text text-anchor="middle" x="473.5" y="-1114.4" font-family="Helvetica,sans-Serif" font-size="12.00"> +elements</text>
</g>
<!-- Node10 -->
<g id="node10" class="node">
<title>Node10</title>
<g id="a_node10"><a xlink:title=" ">
<polygon fill="none" stroke="#bfbfbf" points="493.5,-1016.5 493.5,-1092.5 631.5,-1092.5 631.5,-1016.5 493.5,-1016.5"/>
<text text-anchor="start" x="501.5" y="-1078.9" font-family="Helvetica,sans-Serif" font-size="12.00">std::vector&lt; Markov</text>
<text text-anchor="middle" x="562.5" y="-1065.9" font-family="Helvetica,sans-Serif" font-size="12.00">::Edge&lt; char &gt; * &gt;</text>
<polyline fill="none" stroke="#bfbfbf" points="493.5,-1058.5 631.5,-1058.5 "/>
<text text-anchor="middle" x="562.5" y="-1044.9" font-family="Helvetica,sans-Serif" font-size="12.00"> </text>
<polyline fill="none" stroke="#bfbfbf" points="493.5,-1037.5 631.5,-1037.5 "/>
<text text-anchor="middle" x="562.5" y="-1023.9" font-family="Helvetica,sans-Serif" font-size="12.00"> </text>
</a>
</g>
</g>
<!-- Node8&#45;&gt;Node10 -->
<g id="edge14" class="edge">
<title>Node8&#45;&gt;Node10</title>
<path fill="none" stroke="#404040" d="M547.45,-1142.34C549.73,-1129.2 551.95,-1116.38 553.96,-1104.8"/>
<polygon fill="none" stroke="#404040" points="553.99,-1104.59 551.08,-1098 556.04,-1092.77 558.96,-1099.37 553.99,-1104.59"/>
<text text-anchor="middle" x="587.5" y="-1114.4" font-family="Helvetica,sans-Serif" font-size="12.00"> +elements</text>
</g>
<!-- Node9 -->
<g id="node9" class="node">
<title>Node9</title>
<g id="a_node9"><a xlink:href="classlong_01int.html" target="_top" xlink:title=" ">
<polygon fill="none" stroke="black" points="565,-1810.5 565,-1873.5 626,-1873.5 626,-1810.5 565,-1810.5"/>
<text text-anchor="middle" x="595.5" y="-1859.9" font-family="Helvetica,sans-Serif" font-size="12.00">long int</text>
<polyline fill="none" stroke="black" points="565,-1852.5 626,-1852.5 "/>
<text text-anchor="middle" x="595.5" y="-1838.9" font-family="Helvetica,sans-Serif" font-size="12.00"> </text>
<polyline fill="none" stroke="black" points="565,-1831.5 626,-1831.5 "/>
<text text-anchor="middle" x="595.5" y="-1817.9" font-family="Helvetica,sans-Serif" font-size="12.00"> </text>
</a>
</g>
</g>
<!-- Node9&#45;&gt;Node6 -->
<g id="edge12" class="edge">
<title>Node9&#45;&gt;Node6</title>
<path fill="none" stroke="#404040" d="M564.85,-1810.48C541.22,-1786.95 506.92,-1752.79 472.8,-1718.81"/>
<polygon fill="none" stroke="#404040" points="472.64,-1718.65 465.56,-1717.25 464.14,-1710.18 471.21,-1711.58 472.64,-1718.65"/>
<text text-anchor="middle" x="605.5" y="-1782.4" font-family="Helvetica,sans-Serif" font-size="12.00"> &#45;total_edge_weights</text>
</g>
<!-- Node9&#45;&gt;Node8 -->
<g id="edge10" class="edge">
<title>Node9&#45;&gt;Node8</title>
<path fill="none" stroke="#404040" d="M626.29,-1829.73C642.88,-1821.89 661.88,-1809.64 671.5,-1792 674.27,-1786.93 672.28,-1784.73 671.5,-1779 652.87,-1642.01 607.79,-1490.15 573,-1386.19"/>
<polygon fill="none" stroke="#404040" points="572.96,-1386.07 567.25,-1381.67 569.13,-1374.7 574.83,-1379.11 572.96,-1386.07"/>
<text text-anchor="middle" x="696" y="-1595.9" font-family="Helvetica,sans-Serif" font-size="12.00"> &#45;_weight</text>
</g>
<!-- Node10&#45;&gt;Node3 -->
<g id="edge16" class="edge">
<title>Node10&#45;&gt;Node3</title>
<path fill="none" stroke="#404040" d="M530.61,-1016.37C513.77,-996.77 491.97,-971.38 469.5,-945.22"/>
<polygon fill="none" stroke="#404040" points="469.35,-945.05 462.41,-943.11 461.53,-935.95 468.48,-937.89 469.35,-945.05"/>
<text text-anchor="middle" x="535" y="-988.4" font-family="Helvetica,sans-Serif" font-size="12.00"> &#45;edges</text>
</g>
<!-- Node10&#45;&gt;Node6 -->
<g id="edge13" class="edge">
<title>Node10&#45;&gt;Node6</title>
<path fill="none" stroke="#404040" d="M614.16,-1092.9C628.14,-1106.45 640.94,-1123.12 646.5,-1142 675.76,-1241.34 692.48,-1282.21 646.5,-1375 636.62,-1394.94 550.8,-1459.17 474.57,-1513.6"/>
<polygon fill="none" stroke="#404040" points="474.15,-1513.91 471.58,-1520.65 464.37,-1520.87 466.94,-1514.13 474.15,-1513.91"/>
<text text-anchor="middle" x="704.5" y="-1255.4" font-family="Helvetica,sans-Serif" font-size="12.00"> +edgesV</text>
</g>
<!-- Node11 -->
<g id="node11" class="node">
<title>Node11</title>
<g id="a_node11"><a xlink:title=" ">
<polygon fill="none" stroke="#bfbfbf" points="761.5,-780 761.5,-843 853.5,-843 853.5,-780 761.5,-780"/>
<text text-anchor="middle" x="807.5" y="-829.4" font-family="Helvetica,sans-Serif" font-size="12.00">std::ifstream</text>
<polyline fill="none" stroke="#bfbfbf" points="761.5,-822 853.5,-822 "/>
<text text-anchor="middle" x="807.5" y="-808.4" font-family="Helvetica,sans-Serif" font-size="12.00"> </text>
<polyline fill="none" stroke="#bfbfbf" points="761.5,-801 853.5,-801 "/>
<text text-anchor="middle" x="807.5" y="-787.4" font-family="Helvetica,sans-Serif" font-size="12.00"> </text>
</a>
</g>
</g>
<!-- Node11&#45;&gt;Node2 -->
<g id="edge17" class="edge">
<title>Node11&#45;&gt;Node2</title>
<path fill="none" stroke="#404040" d="M807.5,-779.74C807.5,-741.99 807.5,-674.51 807.5,-606.06"/>
<polygon fill="none" stroke="#404040" points="807.5,-605.72 803.5,-599.72 807.5,-593.72 811.5,-599.72 807.5,-605.72"/>
<text text-anchor="middle" x="844.5" y="-621.9" font-family="Helvetica,sans-Serif" font-size="12.00"> &#45;datasetFile</text>
</g>
<!-- Node12 -->
<g id="node12" class="node">
<title>Node12</title>
<g id="a_node12"><a xlink:title=" ">
<polygon fill="none" stroke="#bfbfbf" points="743.5,-1016.5 743.5,-1092.5 871.5,-1092.5 871.5,-1016.5 743.5,-1016.5"/>
<text text-anchor="start" x="751.5" y="-1078.9" font-family="Helvetica,sans-Serif" font-size="12.00">std::basic_ifstream</text>
<text text-anchor="middle" x="807.5" y="-1065.9" font-family="Helvetica,sans-Serif" font-size="12.00">&lt; Char &gt;</text>
<polyline fill="none" stroke="#bfbfbf" points="743.5,-1058.5 871.5,-1058.5 "/>
<text text-anchor="middle" x="807.5" y="-1044.9" font-family="Helvetica,sans-Serif" font-size="12.00"> </text>
<polyline fill="none" stroke="#bfbfbf" points="743.5,-1037.5 871.5,-1037.5 "/>
<text text-anchor="middle" x="807.5" y="-1023.9" font-family="Helvetica,sans-Serif" font-size="12.00"> </text>
</a>
</g>
</g>
<!-- Node12&#45;&gt;Node11 -->
<g id="edge18" class="edge">
<title>Node12&#45;&gt;Node11</title>
<path fill="none" stroke="midnightblue" d="M807.5,-1006.17C807.5,-957.87 807.5,-884.34 807.5,-843.17"/>
<polygon fill="none" stroke="midnightblue" points="804,-1006.37 807.5,-1016.37 811,-1006.37 804,-1006.37"/>
</g>
<!-- Node13 -->
<g id="node13" class="node">
<title>Node13</title>
<g id="a_node13"><a xlink:title=" ">
<polygon fill="none" stroke="#bfbfbf" points="750.5,-1220.5 750.5,-1296.5 874.5,-1296.5 874.5,-1220.5 750.5,-1220.5"/>
<text text-anchor="start" x="758.5" y="-1282.9" font-family="Helvetica,sans-Serif" font-size="12.00">std::basic_istream</text>
<text text-anchor="middle" x="812.5" y="-1269.9" font-family="Helvetica,sans-Serif" font-size="12.00">&lt; Char &gt;</text>
<polyline fill="none" stroke="#bfbfbf" points="750.5,-1262.5 874.5,-1262.5 "/>
<text text-anchor="middle" x="812.5" y="-1248.9" font-family="Helvetica,sans-Serif" font-size="12.00"> </text>
<polyline fill="none" stroke="#bfbfbf" points="750.5,-1241.5 874.5,-1241.5 "/>
<text text-anchor="middle" x="812.5" y="-1227.9" font-family="Helvetica,sans-Serif" font-size="12.00"> </text>
</a>
</g>
</g>
<!-- Node13&#45;&gt;Node12 -->
<g id="edge19" class="edge">
<title>Node13&#45;&gt;Node12</title>
<path fill="none" stroke="midnightblue" d="M811.33,-1210.23C810.44,-1174.37 809.24,-1125.76 808.42,-1092.66"/>
<polygon fill="none" stroke="midnightblue" points="807.84,-1210.54 811.58,-1220.45 814.83,-1210.37 807.84,-1210.54"/>
</g>
<!-- Node14 -->
<g id="node14" class="node">
<title>Node14</title>
<g id="a_node14"><a xlink:title=" ">
<polygon fill="none" stroke="#bfbfbf" points="827,-1567.5 827,-1630.5 978,-1630.5 978,-1567.5 827,-1567.5"/>
<text text-anchor="middle" x="902.5" y="-1616.9" font-family="Helvetica,sans-Serif" font-size="12.00">std::basic_ios&lt; Char &gt;</text>
<polyline fill="none" stroke="#bfbfbf" points="827,-1609.5 978,-1609.5 "/>
<text text-anchor="middle" x="902.5" y="-1595.9" font-family="Helvetica,sans-Serif" font-size="12.00"> </text>
<polyline fill="none" stroke="#bfbfbf" points="827,-1588.5 978,-1588.5 "/>
<text text-anchor="middle" x="902.5" y="-1574.9" font-family="Helvetica,sans-Serif" font-size="12.00"> </text>
</a>
</g>
</g>
<!-- Node14&#45;&gt;Node13 -->
<g id="edge20" class="edge">
<title>Node14&#45;&gt;Node13</title>
<path fill="none" stroke="midnightblue" d="M891.78,-1557.7C874.19,-1491.51 839.42,-1360.76 822.38,-1296.68"/>
<polygon fill="none" stroke="midnightblue" points="888.4,-1558.6 894.35,-1567.36 895.17,-1556.8 888.4,-1558.6"/>
</g>
<!-- Node18 -->
<g id="node18" class="node">
<title>Node18</title>
<g id="a_node18"><a xlink:title=" ">
<polygon fill="none" stroke="#bfbfbf" points="892.5,-1220.5 892.5,-1296.5 1020.5,-1296.5 1020.5,-1220.5 892.5,-1220.5"/>
<text text-anchor="start" x="900.5" y="-1282.9" font-family="Helvetica,sans-Serif" font-size="12.00">std::basic_ostream</text>
<text text-anchor="middle" x="956.5" y="-1269.9" font-family="Helvetica,sans-Serif" font-size="12.00">&lt; Char &gt;</text>
<polyline fill="none" stroke="#bfbfbf" points="892.5,-1262.5 1020.5,-1262.5 "/>
<text text-anchor="middle" x="956.5" y="-1248.9" font-family="Helvetica,sans-Serif" font-size="12.00"> </text>
<polyline fill="none" stroke="#bfbfbf" points="892.5,-1241.5 1020.5,-1241.5 "/>
<text text-anchor="middle" x="956.5" y="-1227.9" font-family="Helvetica,sans-Serif" font-size="12.00"> </text>
</a>
</g>
</g>
<!-- Node14&#45;&gt;Node18 -->
<g id="edge25" class="edge">
<title>Node14&#45;&gt;Node18</title>
<path fill="none" stroke="midnightblue" d="M908.99,-1557.29C919.57,-1490.98 940.37,-1360.63 950.57,-1296.68"/>
<polygon fill="none" stroke="midnightblue" points="905.51,-1556.94 907.39,-1567.36 912.42,-1558.04 905.51,-1556.94"/>
</g>
<!-- Node15 -->
<g id="node15" class="node">
<title>Node15</title>
<g id="a_node15"><a xlink:title=" ">
<polygon fill="none" stroke="#bfbfbf" points="856,-1810.5 856,-1873.5 949,-1873.5 949,-1810.5 856,-1810.5"/>
<text text-anchor="middle" x="902.5" y="-1859.9" font-family="Helvetica,sans-Serif" font-size="12.00">std::ios_base</text>
<polyline fill="none" stroke="#bfbfbf" points="856,-1852.5 949,-1852.5 "/>
<text text-anchor="middle" x="902.5" y="-1838.9" font-family="Helvetica,sans-Serif" font-size="12.00"> </text>
<polyline fill="none" stroke="#bfbfbf" points="856,-1831.5 949,-1831.5 "/>
<text text-anchor="middle" x="902.5" y="-1817.9" font-family="Helvetica,sans-Serif" font-size="12.00"> </text>
</a>
</g>
</g>
<!-- Node15&#45;&gt;Node14 -->
<g id="edge21" class="edge">
<title>Node15&#45;&gt;Node14</title>
<path fill="none" stroke="midnightblue" d="M902.5,-1800.45C902.5,-1752.5 902.5,-1673.8 902.5,-1630.65"/>
<polygon fill="none" stroke="midnightblue" points="899,-1800.48 902.5,-1810.48 906,-1800.48 899,-1800.48"/>
</g>
<!-- Node16 -->
<g id="node16" class="node">
<title>Node16</title>
<g id="a_node16"><a xlink:title=" ">
<polygon fill="none" stroke="#bfbfbf" points="889.5,-780 889.5,-843 985.5,-843 985.5,-780 889.5,-780"/>
<text text-anchor="middle" x="937.5" y="-829.4" font-family="Helvetica,sans-Serif" font-size="12.00">std::ofstream</text>
<polyline fill="none" stroke="#bfbfbf" points="889.5,-822 985.5,-822 "/>
<text text-anchor="middle" x="937.5" y="-808.4" font-family="Helvetica,sans-Serif" font-size="12.00"> </text>
<polyline fill="none" stroke="#bfbfbf" points="889.5,-801 985.5,-801 "/>
<text text-anchor="middle" x="937.5" y="-787.4" font-family="Helvetica,sans-Serif" font-size="12.00"> </text>
</a>
</g>
</g>
<!-- Node16&#45;&gt;Node2 -->
<g id="edge22" class="edge">
<title>Node16&#45;&gt;Node2</title>
<path fill="none" stroke="#404040" d="M930.22,-779.69C920.78,-740.48 903.38,-670.79 885.5,-612 884.81,-609.74 884.12,-607.47 883.42,-605.2"/>
<polygon fill="none" stroke="#404040" points="883.41,-605.19 877.81,-600.65 879.84,-593.73 885.45,-598.27 883.41,-605.19"/>
<text text-anchor="middle" x="939.5" y="-628.4" font-family="Helvetica,sans-Serif" font-size="12.00"> &#45;modelSavefile</text>
<text text-anchor="middle" x="939.5" y="-615.4" font-family="Helvetica,sans-Serif" font-size="12.00">&#45;outputFile</text>
</g>
<!-- Node17 -->
<g id="node17" class="node">
<title>Node17</title>
<g id="a_node17"><a xlink:title=" ">
<polygon fill="none" stroke="#bfbfbf" points="890,-1016.5 890,-1092.5 1023,-1092.5 1023,-1016.5 890,-1016.5"/>
<text text-anchor="start" x="898" y="-1078.9" font-family="Helvetica,sans-Serif" font-size="12.00">std::basic_ofstream</text>
<text text-anchor="middle" x="956.5" y="-1065.9" font-family="Helvetica,sans-Serif" font-size="12.00">&lt; Char &gt;</text>
<polyline fill="none" stroke="#bfbfbf" points="890,-1058.5 1023,-1058.5 "/>
<text text-anchor="middle" x="956.5" y="-1044.9" font-family="Helvetica,sans-Serif" font-size="12.00"> </text>
<polyline fill="none" stroke="#bfbfbf" points="890,-1037.5 1023,-1037.5 "/>
<text text-anchor="middle" x="956.5" y="-1023.9" font-family="Helvetica,sans-Serif" font-size="12.00"> </text>
</a>
</g>
</g>
<!-- Node17&#45;&gt;Node16 -->
<g id="edge23" class="edge">
<title>Node17&#45;&gt;Node16</title>
<path fill="none" stroke="midnightblue" d="M952.77,-1006.17C948.96,-957.87 943.16,-884.34 939.92,-843.17"/>
<polygon fill="none" stroke="midnightblue" points="949.3,-1006.68 953.57,-1016.37 956.28,-1006.13 949.3,-1006.68"/>
</g>
<!-- Node18&#45;&gt;Node17 -->
<g id="edge24" class="edge">
<title>Node18&#45;&gt;Node17</title>
<path fill="none" stroke="midnightblue" d="M956.5,-1210.23C956.5,-1174.37 956.5,-1125.76 956.5,-1092.66"/>
<polygon fill="none" stroke="midnightblue" points="953,-1210.45 956.5,-1220.45 960,-1210.45 953,-1210.45"/>
</g>
</g>
</svg>
