<?xml version="1.0" encoding="UTF-8" standalone="no"?>
<!DOCTYPE svg PUBLIC "-//W3C//DTD SVG 1.1//EN"
 "http://www.w3.org/Graphics/SVG/1.1/DTD/svg11.dtd">
<!-- Generated by graphviz version 2.43.0 (0)
 -->
<!-- Title: base.BaseCLI.generate Pages: 1 -->
<svg width="599pt" height="43pt"
 viewBox="0.00 0.00 599.00 43.00" xmlns="http://www.w3.org/2000/svg" xmlns:xlink="http://www.w3.org/1999/xlink">
<g id="graph0" class="graph" transform="scale(1 1) rotate(0) translate(4 39)">
<title>base.BaseCLI.generate</title>
<!-- Node1 -->
<g id="node1" class="node">
<title>Node1</title>
<g id="a_node1"><a xlink:title=" ">
<polygon fill="#bfbfbf" stroke="black" points="0,-7 0,-28 155,-28 155,-7 0,-7"/>
<text text-anchor="middle" x="77.5" y="-14.4" font-family="Helvetica,sans-Serif" font-size="12.00">base.BaseCLI.generate</text>
</a>
</g>
</g>
<!-- Node2 -->
<g id="node2" class="node">
<title>Node2</title>
<g id="a_node2"><a xlink:href="classbase_1_1_base_c_l_i.html#a4e56de0ebfeb7d595e1463bf23ecfe88" target="_top" xlink:title=" ">
<polygon fill="none" stroke="black" points="191,-7 191,-28 352,-28 352,-7 191,-7"/>
<text text-anchor="middle" x="271.5" y="-14.4" font-family="Helvetica,sans-Serif" font-size="12.00">base.BaseCLI._generate</text>
</a>
</g>
</g>
<!-- Node1&#45;&gt;Node2 -->
<g id="edge1" class="edge">
<title>Node1&#45;&gt;Node2</title>
<path fill="none" stroke="midnightblue" d="M155.21,-17.5C163.53,-17.5 172.05,-17.5 180.5,-17.5"/>
<polygon fill="midnightblue" stroke="midnightblue" points="180.77,-21 190.77,-17.5 180.77,-14 180.77,-21"/>
</g>
<!-- Node3 -->
<g id="node3" class="node">
<title>Node3</title>
<g id="a_node3"><a xlink:href="class_markov_1_1_g_u_i_1_1_markov_passwords_g_u_i.html#a99619a46f49b909fafeaa6ac8076a333" target="_top" xlink:title=" ">
<polygon fill="none" stroke="black" points="388,-0.5 388,-34.5 591,-34.5 591,-0.5 388,-0.5"/>
<text text-anchor="start" x="396" y="-20.9" font-family="Helvetica,sans-Serif" font-size="12.00">Markov::GUI::MarkovPasswords</text>
<text text-anchor="middle" x="489.5" y="-7.9" font-family="Helvetica,sans-Serif" font-size="12.00">GUI::model</text>
</a>
</g>
</g>
<!-- Node2&#45;&gt;Node3 -->
<g id="edge2" class="edge">
<title>Node2&#45;&gt;Node3</title>
<path fill="none" stroke="midnightblue" d="M352.01,-17.5C360.4,-17.5 369.03,-17.5 377.69,-17.5"/>
<polygon fill="midnightblue" stroke="midnightblue" points="377.85,-21 387.85,-17.5 377.85,-14 377.85,-21"/>
</g>
</g>
</svg>
