<?xml version="1.0" encoding="UTF-8" standalone="no"?>
<!DOCTYPE svg PUBLIC "-//W3C//DTD SVG 1.1//EN"
 "http://www.w3.org/Graphics/SVG/1.1/DTD/svg11.dtd">
<!-- Generated by graphviz version 2.43.0 (0)
 -->
<!-- Title: Markov::API::CLI::Terminal Pages: 1 -->
<svg width="316pt" height="539pt"
 viewBox="0.00 0.00 315.50 539.00" xmlns="http://www.w3.org/2000/svg" xmlns:xlink="http://www.w3.org/1999/xlink">
<g id="graph0" class="graph" transform="scale(1 1) rotate(0) translate(4 535)">
<title>Markov::API::CLI::Terminal</title>
<!-- Node1 -->
<g id="node1" class="node">
<title>Node1</title>
<g id="a_node1"><a xlink:title="pretty colors for Terminal. Windows Only.">
<polygon fill="#bfbfbf" stroke="black" points="76,-0.5 76,-63.5 246,-63.5 246,-0.5 76,-0.5"/>
<text text-anchor="middle" x="161" y="-49.9" font-family="Helvetica,sans-Serif" font-size="12.00">Markov::API::CLI::Terminal</text>
<polyline fill="none" stroke="black" points="76,-42.5 246,-42.5 "/>
<text text-anchor="middle" x="161" y="-28.9" font-family="Helvetica,sans-Serif" font-size="12.00"> </text>
<polyline fill="none" stroke="black" points="76,-21.5 246,-21.5 "/>
<text text-anchor="start" x="84" y="-7.9" font-family="Helvetica,sans-Serif" font-size="12.00">+ Terminal()</text>
</a>
</g>
</g>
<!-- Node2 -->
<g id="node2" class="node">
<title>Node2</title>
<g id="a_node2"><a xlink:title=" ">
<polygon fill="none" stroke="#bfbfbf" points="14,-113.5 14,-202.5 168,-202.5 168,-113.5 14,-113.5"/>
<text text-anchor="start" x="22" y="-188.9" font-family="Helvetica,sans-Serif" font-size="12.00">std::map&lt; Markov::API</text>
<text text-anchor="start" x="22" y="-175.9" font-family="Helvetica,sans-Serif" font-size="12.00">::CLI::Terminal::color,</text>
<text text-anchor="middle" x="91" y="-162.9" font-family="Helvetica,sans-Serif" font-size="12.00"> int &gt;</text>
<polyline fill="none" stroke="#bfbfbf" points="14,-155.5 168,-155.5 "/>
<text text-anchor="middle" x="91" y="-141.9" font-family="Helvetica,sans-Serif" font-size="12.00"> </text>
<polyline fill="none" stroke="#bfbfbf" points="14,-134.5 168,-134.5 "/>
<text text-anchor="middle" x="91" y="-120.9" font-family="Helvetica,sans-Serif" font-size="12.00"> </text>
</a>
</g>
</g>
<!-- Node2&#45;&gt;Node1 -->
<g id="edge1" class="edge">
<title>Node2&#45;&gt;Node1</title>
<path fill="none" stroke="#404040" d="M111.35,-113.25C116.52,-102.86 122.25,-91.92 128,-82 129.53,-79.36 131.15,-76.67 132.82,-73.98"/>
<polygon fill="none" stroke="#404040" points="132.93,-73.81 132.8,-66.6 139.41,-63.7 139.54,-70.91 132.93,-73.81"/>
<text text-anchor="middle" x="163" y="-85.4" font-family="Helvetica,sans-Serif" font-size="12.00"> +colormap</text>
</g>
<!-- Node3 -->
<g id="node3" class="node">
<title>Node3</title>
<g id="a_node3"><a xlink:title=" ">
<polygon fill="none" stroke="#bfbfbf" points="0,-259 0,-322 32,-322 32,-259 0,-259"/>
<text text-anchor="middle" x="16" y="-308.4" font-family="Helvetica,sans-Serif" font-size="12.00">int</text>
<polyline fill="none" stroke="#bfbfbf" points="0,-301 32,-301 "/>
<text text-anchor="middle" x="16" y="-287.4" font-family="Helvetica,sans-Serif" font-size="12.00"> </text>
<polyline fill="none" stroke="#bfbfbf" points="0,-280 32,-280 "/>
<text text-anchor="middle" x="16" y="-266.4" font-family="Helvetica,sans-Serif" font-size="12.00"> </text>
</a>
</g>
</g>
<!-- Node3&#45;&gt;Node2 -->
<g id="edge2" class="edge">
<title>Node3&#45;&gt;Node2</title>
<path fill="none" stroke="#404040" d="M16.19,-258.85C17.33,-246.52 20.04,-232.53 26,-221 27.49,-218.11 29.17,-215.28 31,-212.52"/>
<polygon fill="none" stroke="#404040" points="31.03,-212.48 31.4,-205.28 38.19,-202.85 37.82,-210.05 31.03,-212.48"/>
<text text-anchor="middle" x="61" y="-224.4" font-family="Helvetica,sans-Serif" font-size="12.00"> +elements</text>
</g>
<!-- Node4 -->
<g id="node4" class="node">
<title>Node4</title>
<g id="a_node4"><a xlink:title=" ">
<polygon fill="none" stroke="#bfbfbf" points="85.5,-259 85.5,-322 132.5,-322 132.5,-259 85.5,-259"/>
<text text-anchor="middle" x="109" y="-308.4" font-family="Helvetica,sans-Serif" font-size="12.00">color</text>
<polyline fill="none" stroke="#bfbfbf" points="85.5,-301 132.5,-301 "/>
<text text-anchor="middle" x="109" y="-287.4" font-family="Helvetica,sans-Serif" font-size="12.00"> </text>
<polyline fill="none" stroke="#bfbfbf" points="85.5,-280 132.5,-280 "/>
<text text-anchor="middle" x="109" y="-266.4" font-family="Helvetica,sans-Serif" font-size="12.00"> </text>
</a>
</g>
</g>
<!-- Node4&#45;&gt;Node2 -->
<g id="edge3" class="edge">
<title>Node4&#45;&gt;Node2</title>
<path fill="none" stroke="#404040" d="M104.78,-258.9C102.96,-245.71 100.77,-229.85 98.68,-214.69"/>
<polygon fill="none" stroke="#404040" points="98.67,-214.64 93.89,-209.24 97.03,-202.75 101.82,-208.15 98.67,-214.64"/>
<text text-anchor="middle" x="122.5" y="-224.4" font-family="Helvetica,sans-Serif" font-size="12.00"> +keys</text>
</g>
<!-- Node5 -->
<g id="node5" class="node">
<title>Node5</title>
<g id="a_node5"><a xlink:title=" ">
<polygon fill="none" stroke="#bfbfbf" points="186,-126.5 186,-189.5 278,-189.5 278,-126.5 186,-126.5"/>
<text text-anchor="middle" x="232" y="-175.9" font-family="Helvetica,sans-Serif" font-size="12.00">std::ostream</text>
<polyline fill="none" stroke="#bfbfbf" points="186,-168.5 278,-168.5 "/>
<text text-anchor="middle" x="232" y="-154.9" font-family="Helvetica,sans-Serif" font-size="12.00"> </text>
<polyline fill="none" stroke="#bfbfbf" points="186,-147.5 278,-147.5 "/>
<text text-anchor="middle" x="232" y="-133.9" font-family="Helvetica,sans-Serif" font-size="12.00"> </text>
</a>
</g>
</g>
<!-- Node5&#45;&gt;Node1 -->
<g id="edge4" class="edge">
<title>Node5&#45;&gt;Node1</title>
<path fill="none" stroke="#404040" d="M219.91,-126.3C213.98,-112.42 206.33,-96.01 198,-82 196.35,-79.22 194.57,-76.41 192.71,-73.61"/>
<polygon fill="none" stroke="#404040" points="192.62,-73.49 185.91,-70.86 185.76,-63.65 192.47,-66.28 192.62,-73.49"/>
<text text-anchor="middle" x="225" y="-85.4" font-family="Helvetica,sans-Serif" font-size="12.00"> +endl</text>
</g>
<!-- Node6 -->
<g id="node6" class="node">
<title>Node6</title>
<g id="a_node6"><a xlink:title=" ">
<polygon fill="none" stroke="#bfbfbf" points="168,-252.5 168,-328.5 296,-328.5 296,-252.5 168,-252.5"/>
<text text-anchor="start" x="176" y="-314.9" font-family="Helvetica,sans-Serif" font-size="12.00">std::basic_ostream</text>
<text text-anchor="middle" x="232" y="-301.9" font-family="Helvetica,sans-Serif" font-size="12.00">&lt; Char &gt;</text>
<polyline fill="none" stroke="#bfbfbf" points="168,-294.5 296,-294.5 "/>
<text text-anchor="middle" x="232" y="-280.9" font-family="Helvetica,sans-Serif" font-size="12.00"> </text>
<polyline fill="none" stroke="#bfbfbf" points="168,-273.5 296,-273.5 "/>
<text text-anchor="middle" x="232" y="-259.9" font-family="Helvetica,sans-Serif" font-size="12.00"> </text>
</a>
</g>
</g>
<!-- Node6&#45;&gt;Node5 -->
<g id="edge5" class="edge">
<title>Node6&#45;&gt;Node5</title>
<path fill="none" stroke="midnightblue" d="M232,-242.35C232,-224.76 232,-205.25 232,-189.53"/>
<polygon fill="none" stroke="midnightblue" points="228.5,-242.45 232,-252.45 235.5,-242.45 228.5,-242.45"/>
</g>
<!-- Node7 -->
<g id="node7" class="node">
<title>Node7</title>
<g id="a_node7"><a xlink:title=" ">
<polygon fill="none" stroke="#bfbfbf" points="156.5,-366.5 156.5,-429.5 307.5,-429.5 307.5,-366.5 156.5,-366.5"/>
<text text-anchor="middle" x="232" y="-415.9" font-family="Helvetica,sans-Serif" font-size="12.00">std::basic_ios&lt; Char &gt;</text>
<polyline fill="none" stroke="#bfbfbf" points="156.5,-408.5 307.5,-408.5 "/>
<text text-anchor="middle" x="232" y="-394.9" font-family="Helvetica,sans-Serif" font-size="12.00"> </text>
<polyline fill="none" stroke="#bfbfbf" points="156.5,-387.5 307.5,-387.5 "/>
<text text-anchor="middle" x="232" y="-373.9" font-family="Helvetica,sans-Serif" font-size="12.00"> </text>
</a>
</g>
</g>
<!-- Node7&#45;&gt;Node6 -->
<g id="edge6" class="edge">
<title>Node7&#45;&gt;Node6</title>
<path fill="none" stroke="midnightblue" d="M232,-356.46C232,-347.32 232,-337.67 232,-328.68"/>
<polygon fill="none" stroke="midnightblue" points="228.5,-356.48 232,-366.49 235.5,-356.49 228.5,-356.48"/>
</g>
<!-- Node8 -->
<g id="node8" class="node">
<title>Node8</title>
<g id="a_node8"><a xlink:title=" ">
<polygon fill="none" stroke="#bfbfbf" points="185.5,-467.5 185.5,-530.5 278.5,-530.5 278.5,-467.5 185.5,-467.5"/>
<text text-anchor="middle" x="232" y="-516.9" font-family="Helvetica,sans-Serif" font-size="12.00">std::ios_base</text>
<polyline fill="none" stroke="#bfbfbf" points="185.5,-509.5 278.5,-509.5 "/>
<text text-anchor="middle" x="232" y="-495.9" font-family="Helvetica,sans-Serif" font-size="12.00"> </text>
<polyline fill="none" stroke="#bfbfbf" points="185.5,-488.5 278.5,-488.5 "/>
<text text-anchor="middle" x="232" y="-474.9" font-family="Helvetica,sans-Serif" font-size="12.00"> </text>
</a>
</g>
</g>
<!-- Node8&#45;&gt;Node7 -->
<g id="edge7" class="edge">
<title>Node8&#45;&gt;Node7</title>
<path fill="none" stroke="midnightblue" d="M232,-457.28C232,-448.02 232,-438.34 232,-429.58"/>
<polygon fill="none" stroke="midnightblue" points="228.5,-457.49 232,-467.49 235.5,-457.49 228.5,-457.49"/>
</g>
</g>
</svg>
