<?xml version="1.0" encoding="UTF-8" standalone="no"?>
<!DOCTYPE svg PUBLIC "-//W3C//DTD SVG 1.1//EN"
 "http://www.w3.org/Graphics/SVG/1.1/DTD/svg11.dtd">
<!-- Generated by graphviz version 2.43.0 (0)
 -->
<!-- Title: Markov::Model::Import Pages: 1 -->
<svg width="396pt" height="137pt"
 viewBox="0.00 0.00 396.00 137.00" xmlns="http://www.w3.org/2000/svg" xmlns:xlink="http://www.w3.org/1999/xlink">
<g id="graph0" class="graph" transform="scale(1 1) rotate(0) translate(4 133)">
<title>Markov::Model::Import</title>
<!-- Node1 -->
<g id="node1" class="node">
<title>Node1</title>
<g id="a_node1"><a xlink:title="Open a file to import with filename, and call bool Model::Import with std::ifstream.">
<polygon fill="#bfbfbf" stroke="black" points="236,-54 236,-75 388,-75 388,-54 236,-54"/>
<text text-anchor="middle" x="312" y="-61.4" font-family="Helvetica,sans-Serif" font-size="12.00">Markov::Model::Import</text>
</a>
</g>
</g>
<!-- Node2 -->
<g id="node2" class="node">
<title>Node2</title>
<g id="a_node2"><a xlink:href="namespace_markov_1_1_markopy.html#a379628c09859652215496b63af2bcac9" target="_top" xlink:title=" ">
<polygon fill="none" stroke="black" points="15,-94.5 15,-128.5 185,-128.5 185,-94.5 15,-94.5"/>
<text text-anchor="start" x="23" y="-114.9" font-family="Helvetica,sans-Serif" font-size="12.00">Markov::Markopy::BOOST</text>
<text text-anchor="middle" x="100" y="-101.9" font-family="Helvetica,sans-Serif" font-size="12.00">_PYTHON_MODULE</text>
</a>
</g>
</g>
<!-- Node1&#45;&gt;Node2 -->
<g id="edge1" class="edge">
<title>Node1&#45;&gt;Node2</title>
<path fill="none" stroke="midnightblue" d="M254.01,-77.25C230.37,-82.55 202.59,-88.76 177.23,-94.44"/>
<polygon fill="midnightblue" stroke="midnightblue" points="254.88,-80.65 263.87,-75.05 253.35,-73.82 254.88,-80.65"/>
</g>
<!-- Node3 -->
<g id="node3" class="node">
<title>Node3</title>
<g id="a_node3"><a xlink:href="src_2main_8cpp.html#a3c04138a5bfe5d72780bb7e82a18e627" target="_top" xlink:title="Launch CLI tool.">
<polygon fill="none" stroke="black" points="76.5,-54 76.5,-75 123.5,-75 123.5,-54 76.5,-54"/>
<text text-anchor="middle" x="100" y="-61.4" font-family="Helvetica,sans-Serif" font-size="12.00">main</text>
</a>
</g>
</g>
<!-- Node1&#45;&gt;Node3 -->
<g id="edge2" class="edge">
<title>Node1&#45;&gt;Node3</title>
<path fill="none" stroke="midnightblue" d="M225.46,-64.5C188.52,-64.5 148.25,-64.5 123.81,-64.5"/>
<polygon fill="midnightblue" stroke="midnightblue" points="225.78,-68 235.78,-64.5 225.78,-61 225.78,-68"/>
</g>
<!-- Node4 -->
<g id="node4" class="node">
<title>Node4</title>
<g id="a_node4"><a xlink:href="class_markov_1_1_a_p_i_1_1_markov_passwords.html#ab7f0caaea1f96d4fdeea126f78d7081f" target="_top" xlink:title="Initialize the markov model from MarkovModel::Markov::Model, with an import file.">
<polygon fill="none" stroke="black" points="0,-0.5 0,-34.5 200,-34.5 200,-0.5 0,-0.5"/>
<text text-anchor="start" x="8" y="-20.9" font-family="Helvetica,sans-Serif" font-size="12.00">Markov::API::MarkovPasswords</text>
<text text-anchor="middle" x="100" y="-7.9" font-family="Helvetica,sans-Serif" font-size="12.00">::MarkovPasswords</text>
</a>
</g>
</g>
<!-- Node1&#45;&gt;Node4 -->
<g id="edge3" class="edge">
<title>Node1&#45;&gt;Node4</title>
<path fill="none" stroke="midnightblue" d="M254.01,-51.75C230.37,-46.45 202.59,-40.24 177.23,-34.56"/>
<polygon fill="midnightblue" stroke="midnightblue" points="253.35,-55.18 263.87,-53.95 254.88,-48.35 253.35,-55.18"/>
</g>
</g>
</svg>
