<?xml version="1.0" encoding="UTF-8" standalone="no"?>
<!DOCTYPE svg PUBLIC "-//W3C//DTD SVG 1.1//EN"
 "http://www.w3.org/Graphics/SVG/1.1/DTD/svg11.dtd">
<!-- Generated by graphviz version 2.43.0 (0)
 -->
<!-- Title: Markov::Random::Marsaglia Pages: 1 -->
<svg width="228pt" height="476pt"
 viewBox="0.00 0.00 228.00 476.00" xmlns="http://www.w3.org/2000/svg" xmlns:xlink="http://www.w3.org/1999/xlink">
<g id="graph0" class="graph" transform="scale(1 1) rotate(0) translate(4 472)">
<title>Markov::Random::Marsaglia</title>
<!-- Node1 -->
<g id="node1" class="node">
<title>Node1</title>
<g id="a_node1"><a xlink:title="Implementation of Marsaglia Random Engine.">
<polygon fill="#bfbfbf" stroke="black" points="18,-113.5 18,-215.5 202,-215.5 202,-113.5 18,-113.5"/>
<text text-anchor="middle" x="110" y="-201.9" font-family="Helvetica,sans-Serif" font-size="12.00">Markov::Random::Marsaglia</text>
<polyline fill="none" stroke="black" points="18,-194.5 202,-194.5 "/>
<text text-anchor="start" x="26" y="-180.9" font-family="Helvetica,sans-Serif" font-size="12.00">+ x</text>
<text text-anchor="start" x="26" y="-167.9" font-family="Helvetica,sans-Serif" font-size="12.00">+ y</text>
<text text-anchor="start" x="26" y="-154.9" font-family="Helvetica,sans-Serif" font-size="12.00">+ z</text>
<polyline fill="none" stroke="black" points="18,-147.5 202,-147.5 "/>
<text text-anchor="start" x="26" y="-133.9" font-family="Helvetica,sans-Serif" font-size="12.00">+ Marsaglia()</text>
<text text-anchor="start" x="26" y="-120.9" font-family="Helvetica,sans-Serif" font-size="12.00">+ random()</text>
</a>
</g>
</g>
<!-- Node4 -->
<g id="node4" class="node">
<title>Node4</title>
<g id="a_node4"><a xlink:href="class_markov_1_1_a_p_i_1_1_c_u_d_a_1_1_random_1_1_marsaglia.html" target="_top" xlink:title="Extension of Markov::Random::Marsaglia which is capable o working on device space.">
<polygon fill="none" stroke="black" points="41.5,-0.5 41.5,-76.5 178.5,-76.5 178.5,-0.5 41.5,-0.5"/>
<text text-anchor="start" x="49.5" y="-62.9" font-family="Helvetica,sans-Serif" font-size="12.00">Markov::API::CUDA::</text>
<text text-anchor="middle" x="110" y="-49.9" font-family="Helvetica,sans-Serif" font-size="12.00">Random::Marsaglia</text>
<polyline fill="none" stroke="black" points="41.5,-42.5 178.5,-42.5 "/>
<text text-anchor="middle" x="110" y="-28.9" font-family="Helvetica,sans-Serif" font-size="12.00"> </text>
<polyline fill="none" stroke="black" points="41.5,-21.5 178.5,-21.5 "/>
<text text-anchor="start" x="49.5" y="-7.9" font-family="Helvetica,sans-Serif" font-size="12.00">+ MigrateToVRAM()</text>
</a>
</g>
</g>
<!-- Node1&#45;&gt;Node4 -->
<g id="edge3" class="edge">
<title>Node1&#45;&gt;Node4</title>
<path fill="none" stroke="midnightblue" d="M110,-103.28C110,-94.25 110,-85.16 110,-76.79"/>
<polygon fill="none" stroke="midnightblue" points="106.5,-103.42 110,-113.42 113.5,-103.42 106.5,-103.42"/>
</g>
<!-- Node2 -->
<g id="node2" class="node">
<title>Node2</title>
<g id="a_node2"><a xlink:href="class_markov_1_1_random_1_1_default_random_engine.html" target="_top" xlink:title="Implementation using Random.h default random engine.">
<polygon fill="none" stroke="black" points="0,-252.5 0,-367.5 220,-367.5 220,-252.5 0,-252.5"/>
<text text-anchor="start" x="8" y="-353.9" font-family="Helvetica,sans-Serif" font-size="12.00">Markov::Random::DefaultRandom</text>
<text text-anchor="middle" x="110" y="-340.9" font-family="Helvetica,sans-Serif" font-size="12.00">Engine</text>
<polyline fill="none" stroke="black" points="0,-333.5 220,-333.5 "/>
<text text-anchor="middle" x="110" y="-319.9" font-family="Helvetica,sans-Serif" font-size="12.00"> </text>
<polyline fill="none" stroke="black" points="0,-312.5 220,-312.5 "/>
<text text-anchor="start" x="8" y="-298.9" font-family="Helvetica,sans-Serif" font-size="12.00">+ random()</text>
<text text-anchor="start" x="8" y="-285.9" font-family="Helvetica,sans-Serif" font-size="12.00"># rd()</text>
<text text-anchor="start" x="8" y="-272.9" font-family="Helvetica,sans-Serif" font-size="12.00"># generator()</text>
<text text-anchor="start" x="8" y="-259.9" font-family="Helvetica,sans-Serif" font-size="12.00"># distribution()</text>
</a>
</g>
</g>
<!-- Node2&#45;&gt;Node1 -->
<g id="edge1" class="edge">
<title>Node2&#45;&gt;Node1</title>
<path fill="none" stroke="midnightblue" d="M110,-242.28C110,-233.36 110,-224.33 110,-215.76"/>
<polygon fill="none" stroke="midnightblue" points="106.5,-242.28 110,-252.29 113.5,-242.29 106.5,-242.28"/>
</g>
<!-- Node3 -->
<g id="node3" class="node">
<title>Node3</title>
<g id="a_node3"><a xlink:href="class_markov_1_1_random_1_1_random_engine.html" target="_top" xlink:title="An abstract class for Random Engine.">
<polygon fill="none" stroke="black" points="1.5,-404.5 1.5,-467.5 218.5,-467.5 218.5,-404.5 1.5,-404.5"/>
<text text-anchor="middle" x="110" y="-453.9" font-family="Helvetica,sans-Serif" font-size="12.00">Markov::Random::RandomEngine</text>
<polyline fill="none" stroke="black" points="1.5,-446.5 218.5,-446.5 "/>
<text text-anchor="middle" x="110" y="-432.9" font-family="Helvetica,sans-Serif" font-size="12.00"> </text>
<polyline fill="none" stroke="black" points="1.5,-425.5 218.5,-425.5 "/>
<text text-anchor="start" x="9.5" y="-411.9" font-family="Helvetica,sans-Serif" font-size="12.00">+ random()</text>
</a>
</g>
</g>
<!-- Node3&#45;&gt;Node2 -->
<g id="edge2" class="edge">
<title>Node3&#45;&gt;Node2</title>
<path fill="none" stroke="midnightblue" d="M110,-394.09C110,-385.7 110,-376.73 110,-367.89"/>
<polygon fill="none" stroke="midnightblue" points="106.5,-394.35 110,-404.35 113.5,-394.35 106.5,-394.35"/>
</g>
</g>
</svg>
