<?xml version="1.0" encoding="UTF-8" standalone="no"?>
<!DOCTYPE svg PUBLIC "-//W3C//DTD SVG 1.1//EN"
 "http://www.w3.org/Graphics/SVG/1.1/DTD/svg11.dtd">
<!-- Generated by graphviz version 2.43.0 (0)
 -->
<!-- Title: Python.Markopy.ModelMatrixCLI.init_post_arguments Pages: 1 -->
<svg width="457pt" height="70pt"
 viewBox="0.00 0.00 457.00 70.00" xmlns="http://www.w3.org/2000/svg" xmlns:xlink="http://www.w3.org/1999/xlink">
<g id="graph0" class="graph" transform="scale(1 1) rotate(0) translate(4 66)">
<title>Python.Markopy.ModelMatrixCLI.init_post_arguments</title>
<!-- Node1 -->
<g id="node1" class="node">
<title>Node1</title>
<g id="a_node1"><a xlink:title=" ">
<polygon fill="#bfbfbf" stroke="black" points="260,-14 260,-48 449,-48 449,-14 260,-14"/>
<text text-anchor="start" x="268" y="-34.4" font-family="Helvetica,sans-Serif" font-size="12.00">Python.Markopy.ModelMatrix</text>
<text text-anchor="middle" x="354.5" y="-21.4" font-family="Helvetica,sans-Serif" font-size="12.00">CLI.init_post_arguments</text>
</a>
</g>
</g>
<!-- Node2 -->
<g id="node2" class="node">
<title>Node2</title>
<g id="a_node2"><a xlink:href="class_python_1_1_markopy_1_1_base_c_l_i.html#a290240acf366fc65cf0639698dbf662b" target="_top" xlink:title=" ">
<polygon fill="none" stroke="black" points="11.5,-40.5 11.5,-61.5 212.5,-61.5 212.5,-40.5 11.5,-40.5"/>
<text text-anchor="middle" x="112" y="-47.9" font-family="Helvetica,sans-Serif" font-size="12.00">Python.Markopy.BaseCLI.parse</text>
</a>
</g>
</g>
<!-- Node1&#45;&gt;Node2 -->
<g id="edge1" class="edge">
<title>Node1&#45;&gt;Node2</title>
<path fill="none" stroke="midnightblue" d="M249.62,-39.64C237.4,-40.65 224.94,-41.69 212.78,-42.7"/>
<polygon fill="midnightblue" stroke="midnightblue" points="250.15,-43.11 259.83,-38.79 249.57,-36.13 250.15,-43.11"/>
</g>
<!-- Node3 -->
<g id="node3" class="node">
<title>Node3</title>
<g id="a_node3"><a xlink:href="class_python_1_1_markopy_1_1_markopy_c_l_i.html#ab3660c4d0e9e5ab1889e76264a2c6e02" target="_top" xlink:title=" ">
<polygon fill="none" stroke="black" points="0,-0.5 0,-21.5 224,-21.5 224,-0.5 0,-0.5"/>
<text text-anchor="middle" x="112" y="-7.9" font-family="Helvetica,sans-Serif" font-size="12.00">Python.Markopy.MarkopyCLI.parse</text>
</a>
</g>
</g>
<!-- Node1&#45;&gt;Node3 -->
<g id="edge2" class="edge">
<title>Node1&#45;&gt;Node3</title>
<path fill="none" stroke="midnightblue" d="M249.85,-22.38C241.3,-21.67 232.63,-20.95 224.02,-20.23"/>
<polygon fill="midnightblue" stroke="midnightblue" points="249.57,-25.87 259.83,-23.21 250.15,-18.89 249.57,-25.87"/>
</g>
</g>
</svg>
