<?xml version="1.0" encoding="UTF-8" standalone="no"?>
<!DOCTYPE svg PUBLIC "-//W3C//DTD SVG 1.1//EN"
 "http://www.w3.org/Graphics/SVG/1.1/DTD/svg11.dtd">
<!-- Generated by graphviz version 2.43.0 (0)
 -->
<!-- Title: Markov::Random::Marsaglia::Marsaglia Pages: 1 -->
<svg width="704pt" height="96pt"
 viewBox="0.00 0.00 704.00 96.00" xmlns="http://www.w3.org/2000/svg" xmlns:xlink="http://www.w3.org/1999/xlink">
<g id="graph0" class="graph" transform="scale(1 1) rotate(0) translate(4 92)">
<title>Markov::Random::Marsaglia::Marsaglia</title>
<!-- Node1 -->
<g id="node1" class="node">
<title>Node1</title>
<g id="a_node1"><a xlink:title="Construct Marsaglia Engine.">
<polygon fill="#bfbfbf" stroke="black" points="0,-26.5 0,-60.5 184,-60.5 184,-26.5 0,-26.5"/>
<text text-anchor="start" x="8" y="-46.9" font-family="Helvetica,sans-Serif" font-size="12.00">Markov::Random::Marsaglia</text>
<text text-anchor="middle" x="92" y="-33.9" font-family="Helvetica,sans-Serif" font-size="12.00">::Marsaglia</text>
</a>
</g>
</g>
<!-- Node2 -->
<g id="node2" class="node">
<title>Node2</title>
<g id="a_node2"><a xlink:href="class_markov_1_1_random_1_1_default_random_engine.html#a53c9c440002ed1adb2b18292ca82d1c9" target="_top" xlink:title="Distribution schema for seeding.">
<polygon fill="none" stroke="black" points="220,-53.5 220,-87.5 440,-87.5 440,-53.5 220,-53.5"/>
<text text-anchor="start" x="228" y="-73.9" font-family="Helvetica,sans-Serif" font-size="12.00">Markov::Random::DefaultRandom</text>
<text text-anchor="middle" x="330" y="-60.9" font-family="Helvetica,sans-Serif" font-size="12.00">Engine::distribution</text>
</a>
</g>
</g>
<!-- Node1&#45;&gt;Node2 -->
<g id="edge1" class="edge">
<title>Node1&#45;&gt;Node2</title>
<path fill="none" stroke="midnightblue" d="M184.24,-53.94C192.63,-54.9 201.22,-55.88 209.8,-56.86"/>
<polygon fill="midnightblue" stroke="midnightblue" points="209.55,-60.36 219.88,-58.02 210.34,-53.4 209.55,-60.36"/>
</g>
<!-- Node3 -->
<g id="node3" class="node">
<title>Node3</title>
<g id="a_node3"><a xlink:href="class_markov_1_1_random_1_1_default_random_engine.html#aee6d9202d0aa50c16f46ecec0a2b05de" target="_top" xlink:title="Default random engine for seeding.">
<polygon fill="none" stroke="black" points="220,-0.5 220,-34.5 440,-34.5 440,-0.5 220,-0.5"/>
<text text-anchor="start" x="228" y="-20.9" font-family="Helvetica,sans-Serif" font-size="12.00">Markov::Random::DefaultRandom</text>
<text text-anchor="middle" x="330" y="-7.9" font-family="Helvetica,sans-Serif" font-size="12.00">Engine::generator</text>
</a>
</g>
</g>
<!-- Node1&#45;&gt;Node3 -->
<g id="edge2" class="edge">
<title>Node1&#45;&gt;Node3</title>
<path fill="none" stroke="midnightblue" d="M184.24,-33.45C192.63,-32.52 201.22,-31.58 209.8,-30.63"/>
<polygon fill="midnightblue" stroke="midnightblue" points="210.32,-34.1 219.88,-29.52 209.56,-27.14 210.32,-34.1"/>
</g>
<!-- Node4 -->
<g id="node4" class="node">
<title>Node4</title>
<g id="a_node4"><a xlink:href="class_markov_1_1_random_1_1_default_random_engine.html#a411c66837939f7f787272f1c6aa78e23" target="_top" xlink:title="Default random device for seeding.">
<polygon fill="none" stroke="black" points="476,-0.5 476,-34.5 696,-34.5 696,-0.5 476,-0.5"/>
<text text-anchor="start" x="484" y="-20.9" font-family="Helvetica,sans-Serif" font-size="12.00">Markov::Random::DefaultRandom</text>
<text text-anchor="middle" x="586" y="-7.9" font-family="Helvetica,sans-Serif" font-size="12.00">Engine::rd</text>
</a>
</g>
</g>
<!-- Node3&#45;&gt;Node4 -->
<g id="edge3" class="edge">
<title>Node3&#45;&gt;Node4</title>
<path fill="none" stroke="midnightblue" d="M440.19,-17.5C448.7,-17.5 457.31,-17.5 465.88,-17.5"/>
<polygon fill="midnightblue" stroke="midnightblue" points="465.9,-21 475.9,-17.5 465.9,-14 465.9,-21"/>
</g>
</g>
</svg>
