<?xml version="1.0" encoding="UTF-8" standalone="no"?>
<!DOCTYPE svg PUBLIC "-//W3C//DTD SVG 1.1//EN"
 "http://www.w3.org/Graphics/SVG/1.1/DTD/svg11.dtd">
<!-- Generated by graphviz version 2.43.0 (0)
 -->
<!-- Title: Markov::Model::Export Pages: 1 -->
<svg width="375pt" height="137pt"
 viewBox="0.00 0.00 375.00 136.50" xmlns="http://www.w3.org/2000/svg" xmlns:xlink="http://www.w3.org/1999/xlink">
<g id="graph0" class="graph" transform="scale(1 1) rotate(0) translate(4 132.5)">
<title>Markov::Model::Export</title>
<!-- Node1 -->
<g id="node1" class="node">
<title>Node1</title>
<g id="a_node1"><a xlink:title="Open a file to export with filename, and call bool Model::Export with std::ofstream.">
<polygon fill="#bfbfbf" stroke="black" points="216,-47.5 216,-68.5 367,-68.5 367,-47.5 216,-47.5"/>
<text text-anchor="middle" x="291.5" y="-54.9" font-family="Helvetica,sans-Serif" font-size="12.00">Markov::Model::Export</text>
</a>
</g>
</g>
<!-- Node2 -->
<g id="node2" class="node">
<title>Node2</title>
<g id="a_node2"><a xlink:href="namespace_markov_1_1_markopy_1_1_c_u_d_a.html#a584fc8e70bb6cf08f544f52805245e19" target="_top" xlink:title=" ">
<polygon fill="none" stroke="black" points="0,-94 0,-128 180,-128 180,-94 0,-94"/>
<text text-anchor="start" x="8" y="-114.4" font-family="Helvetica,sans-Serif" font-size="12.00">Markov::Markopy::CUDA</text>
<text text-anchor="middle" x="90" y="-101.4" font-family="Helvetica,sans-Serif" font-size="12.00">::BOOST_PYTHON_MODULE</text>
</a>
</g>
</g>
<!-- Node1&#45;&gt;Node2 -->
<g id="edge1" class="edge">
<title>Node1&#45;&gt;Node2</title>
<path fill="none" stroke="midnightblue" d="M240.65,-71.24C214.77,-78.12 182.87,-86.59 155.17,-93.95"/>
<polygon fill="midnightblue" stroke="midnightblue" points="241.84,-74.55 250.61,-68.6 240.04,-67.78 241.84,-74.55"/>
</g>
<!-- Node3 -->
<g id="node3" class="node">
<title>Node3</title>
<g id="a_node3"><a xlink:href="namespace_markov_1_1_markopy.html#a379628c09859652215496b63af2bcac9" target="_top" xlink:title=" ">
<polygon fill="none" stroke="black" points="5,-41 5,-75 175,-75 175,-41 5,-41"/>
<text text-anchor="start" x="13" y="-61.4" font-family="Helvetica,sans-Serif" font-size="12.00">Markov::Markopy::BOOST</text>
<text text-anchor="middle" x="90" y="-48.4" font-family="Helvetica,sans-Serif" font-size="12.00">_PYTHON_MODULE</text>
</a>
</g>
</g>
<!-- Node1&#45;&gt;Node3 -->
<g id="edge2" class="edge">
<title>Node1&#45;&gt;Node3</title>
<path fill="none" stroke="midnightblue" d="M205.87,-58C195.71,-58 185.35,-58 175.2,-58"/>
<polygon fill="midnightblue" stroke="midnightblue" points="205.93,-61.5 215.93,-58 205.93,-54.5 205.93,-61.5"/>
</g>
<!-- Node4 -->
<g id="node4" class="node">
<title>Node4</title>
<g id="a_node4"><a xlink:href="_markov_a_p_i_c_l_i_2src_2main_8cpp.html#a3c04138a5bfe5d72780bb7e82a18e627" target="_top" xlink:title="Launch CLI tool.">
<polygon fill="none" stroke="black" points="66.5,-0.5 66.5,-21.5 113.5,-21.5 113.5,-0.5 66.5,-0.5"/>
<text text-anchor="middle" x="90" y="-7.9" font-family="Helvetica,sans-Serif" font-size="12.00">main</text>
</a>
</g>
</g>
<!-- Node1&#45;&gt;Node4 -->
<g id="edge3" class="edge">
<title>Node1&#45;&gt;Node4</title>
<path fill="none" stroke="midnightblue" d="M235.81,-45.12C195.66,-35.66 143.17,-23.29 113.68,-16.34"/>
<polygon fill="midnightblue" stroke="midnightblue" points="235.19,-48.57 245.73,-47.45 236.8,-41.75 235.19,-48.57"/>
</g>
</g>
</svg>
