<?xml version="1.0" encoding="UTF-8" standalone="no"?>
<!DOCTYPE svg PUBLIC "-//W3C//DTD SVG 1.1//EN"
 "http://www.w3.org/Graphics/SVG/1.1/DTD/svg11.dtd">
<!-- Generated by graphviz version 2.43.0 (0)
 -->
<!-- Title: Markov::API::Concurrency::ThreadSharedListHandler::ThreadSharedListHandler Pages: 1 -->
<svg width="626pt" height="56pt"
 viewBox="0.00 0.00 626.00 56.00" xmlns="http://www.w3.org/2000/svg" xmlns:xlink="http://www.w3.org/1999/xlink">
<g id="graph0" class="graph" transform="scale(1 1) rotate(0) translate(4 52)">
<title>Markov::API::Concurrency::ThreadSharedListHandler::ThreadSharedListHandler</title>
<!-- Node1 -->
<g id="node1" class="node">
<title>Node1</title>
<g id="a_node1"><a xlink:title="Construct the Thread Handler with a filename.">
<polygon fill="#bfbfbf" stroke="black" points="442,-0.5 442,-47.5 618,-47.5 618,-0.5 442,-0.5"/>
<text text-anchor="start" x="450" y="-33.9" font-family="Helvetica,sans-Serif" font-size="12.00">Markov::API::Concurrency</text>
<text text-anchor="start" x="450" y="-20.9" font-family="Helvetica,sans-Serif" font-size="12.00">::ThreadSharedListHandler</text>
<text text-anchor="middle" x="530" y="-7.9" font-family="Helvetica,sans-Serif" font-size="12.00">::ThreadSharedListHandler</text>
</a>
</g>
</g>
<!-- Node2 -->
<g id="node2" class="node">
<title>Node2</title>
<g id="a_node2"><a xlink:href="class_markov_1_1_a_p_i_1_1_markov_passwords.html#a2fd4423ae3850e258dcb6b11a7feb9b2" target="_top" xlink:title="Train the model with the dataset file.">
<polygon fill="none" stroke="black" points="206,-7 206,-41 406,-41 406,-7 206,-7"/>
<text text-anchor="start" x="214" y="-27.4" font-family="Helvetica,sans-Serif" font-size="12.00">Markov::API::MarkovPasswords</text>
<text text-anchor="middle" x="306" y="-14.4" font-family="Helvetica,sans-Serif" font-size="12.00">::Train</text>
</a>
</g>
</g>
<!-- Node1&#45;&gt;Node2 -->
<g id="edge1" class="edge">
<title>Node1&#45;&gt;Node2</title>
<path fill="none" stroke="midnightblue" d="M431.7,-24C423.3,-24 414.78,-24 406.35,-24"/>
<polygon fill="midnightblue" stroke="midnightblue" points="431.9,-27.5 441.9,-24 431.9,-20.5 431.9,-27.5"/>
</g>
<!-- Node3 -->
<g id="node3" class="node">
<title>Node3</title>
<g id="a_node3"><a xlink:href="namespace_markov_1_1_markopy.html#a379628c09859652215496b63af2bcac9" target="_top" xlink:title=" ">
<polygon fill="none" stroke="black" points="0,-7 0,-41 170,-41 170,-7 0,-7"/>
<text text-anchor="start" x="8" y="-27.4" font-family="Helvetica,sans-Serif" font-size="12.00">Markov::Markopy::BOOST</text>
<text text-anchor="middle" x="85" y="-14.4" font-family="Helvetica,sans-Serif" font-size="12.00">_PYTHON_MODULE</text>
</a>
</g>
</g>
<!-- Node2&#45;&gt;Node3 -->
<g id="edge2" class="edge">
<title>Node2&#45;&gt;Node3</title>
<path fill="none" stroke="midnightblue" d="M195.7,-24C187.13,-24 178.55,-24 170.18,-24"/>
<polygon fill="midnightblue" stroke="midnightblue" points="195.75,-27.5 205.75,-24 195.75,-20.5 195.75,-27.5"/>
</g>
</g>
</svg>
