<?xml version="1.0" encoding="UTF-8" standalone="no"?>
<!DOCTYPE svg PUBLIC "-//W3C//DTD SVG 1.1//EN"
 "http://www.w3.org/Graphics/SVG/1.1/DTD/svg11.dtd">
<!-- Generated by graphviz version 2.43.0 (0)
 -->
<!-- Title: Markov::API::CUDA::Random::Marsaglia Pages: 1 -->
<svg width="489pt" height="543pt"
 viewBox="0.00 0.00 488.50 543.00" xmlns="http://www.w3.org/2000/svg" xmlns:xlink="http://www.w3.org/1999/xlink">
<g id="graph0" class="graph" transform="scale(1 1) rotate(0) translate(4 539)">
<title>Markov::API::CUDA::Random::Marsaglia</title>
<!-- Node1 -->
<g id="node1" class="node">
<title>Node1</title>
<g id="a_node1"><a xlink:title="Extension of Markov::Random::Marsaglia which is capable o working on device space.">
<polygon fill="#bfbfbf" stroke="black" points="228.5,-0.5 228.5,-76.5 365.5,-76.5 365.5,-0.5 228.5,-0.5"/>
<text text-anchor="start" x="236.5" y="-62.9" font-family="Helvetica,sans-Serif" font-size="12.00">Markov::API::CUDA::</text>
<text text-anchor="middle" x="297" y="-49.9" font-family="Helvetica,sans-Serif" font-size="12.00">Random::Marsaglia</text>
<polyline fill="none" stroke="black" points="228.5,-42.5 365.5,-42.5 "/>
<text text-anchor="middle" x="297" y="-28.9" font-family="Helvetica,sans-Serif" font-size="12.00"> </text>
<polyline fill="none" stroke="black" points="228.5,-21.5 365.5,-21.5 "/>
<text text-anchor="start" x="236.5" y="-7.9" font-family="Helvetica,sans-Serif" font-size="12.00">+ MigrateToVRAM()</text>
</a>
</g>
</g>
<!-- Node2 -->
<g id="node2" class="node">
<title>Node2</title>
<g id="a_node2"><a xlink:href="class_markov_1_1_random_1_1_marsaglia.html" target="_top" xlink:title="Implementation of Marsaglia Random Engine.">
<polygon fill="none" stroke="black" points="107,-140.5 107,-216.5 291,-216.5 291,-140.5 107,-140.5"/>
<text text-anchor="middle" x="199" y="-202.9" font-family="Helvetica,sans-Serif" font-size="12.00">Markov::Random::Marsaglia</text>
<polyline fill="none" stroke="black" points="107,-195.5 291,-195.5 "/>
<text text-anchor="middle" x="199" y="-181.9" font-family="Helvetica,sans-Serif" font-size="12.00"> </text>
<polyline fill="none" stroke="black" points="107,-174.5 291,-174.5 "/>
<text text-anchor="start" x="115" y="-160.9" font-family="Helvetica,sans-Serif" font-size="12.00">+ Marsaglia()</text>
<text text-anchor="start" x="115" y="-147.9" font-family="Helvetica,sans-Serif" font-size="12.00">+ random()</text>
</a>
</g>
</g>
<!-- Node2&#45;&gt;Node1 -->
<g id="edge1" class="edge">
<title>Node2&#45;&gt;Node1</title>
<path fill="none" stroke="midnightblue" d="M231.57,-131.64C244.2,-113.85 258.47,-93.75 270.46,-76.87"/>
<polygon fill="none" stroke="midnightblue" points="228.46,-129.98 225.52,-140.16 234.16,-134.03 228.46,-129.98"/>
</g>
<!-- Node3 -->
<g id="node3" class="node">
<title>Node3</title>
<g id="a_node3"><a xlink:href="class_markov_1_1_random_1_1_default_random_engine.html" target="_top" xlink:title="Implementation using Random.h default random engine.">
<polygon fill="none" stroke="black" points="0,-318.5 0,-433.5 220,-433.5 220,-318.5 0,-318.5"/>
<text text-anchor="start" x="8" y="-419.9" font-family="Helvetica,sans-Serif" font-size="12.00">Markov::Random::DefaultRandom</text>
<text text-anchor="middle" x="110" y="-406.9" font-family="Helvetica,sans-Serif" font-size="12.00">Engine</text>
<polyline fill="none" stroke="black" points="0,-399.5 220,-399.5 "/>
<text text-anchor="middle" x="110" y="-385.9" font-family="Helvetica,sans-Serif" font-size="12.00"> </text>
<polyline fill="none" stroke="black" points="0,-378.5 220,-378.5 "/>
<text text-anchor="start" x="8" y="-364.9" font-family="Helvetica,sans-Serif" font-size="12.00">+ random()</text>
<text text-anchor="start" x="8" y="-351.9" font-family="Helvetica,sans-Serif" font-size="12.00"># rd()</text>
<text text-anchor="start" x="8" y="-338.9" font-family="Helvetica,sans-Serif" font-size="12.00"># generator()</text>
<text text-anchor="start" x="8" y="-325.9" font-family="Helvetica,sans-Serif" font-size="12.00"># distribution()</text>
</a>
</g>
</g>
<!-- Node3&#45;&gt;Node2 -->
<g id="edge2" class="edge">
<title>Node3&#45;&gt;Node2</title>
<path fill="none" stroke="midnightblue" d="M140.01,-309.07C154.02,-278.31 170.17,-242.82 182.03,-216.77"/>
<polygon fill="none" stroke="midnightblue" points="136.7,-307.9 135.74,-318.45 143.07,-310.8 136.7,-307.9"/>
</g>
<!-- Node4 -->
<g id="node4" class="node">
<title>Node4</title>
<g id="a_node4"><a xlink:href="class_markov_1_1_random_1_1_random_engine.html" target="_top" xlink:title="An abstract class for Random Engine.">
<polygon fill="none" stroke="black" points="1.5,-471.5 1.5,-534.5 218.5,-534.5 218.5,-471.5 1.5,-471.5"/>
<text text-anchor="middle" x="110" y="-520.9" font-family="Helvetica,sans-Serif" font-size="12.00">Markov::Random::RandomEngine</text>
<polyline fill="none" stroke="black" points="1.5,-513.5 218.5,-513.5 "/>
<text text-anchor="middle" x="110" y="-499.9" font-family="Helvetica,sans-Serif" font-size="12.00"> </text>
<polyline fill="none" stroke="black" points="1.5,-492.5 218.5,-492.5 "/>
<text text-anchor="start" x="9.5" y="-478.9" font-family="Helvetica,sans-Serif" font-size="12.00">+ random()</text>
</a>
</g>
</g>
<!-- Node4&#45;&gt;Node3 -->
<g id="edge3" class="edge">
<title>Node4&#45;&gt;Node3</title>
<path fill="none" stroke="midnightblue" d="M110,-461.38C110,-452.51 110,-442.98 110,-433.62"/>
<polygon fill="none" stroke="midnightblue" points="106.5,-461.42 110,-471.42 113.5,-461.42 106.5,-461.42"/>
</g>
<!-- Node5 -->
<g id="node5" class="node">
<title>Node5</title>
<g id="a_node5"><a xlink:title=" ">
<polygon fill="none" stroke="#bfbfbf" points="238,-344.5 238,-407.5 338,-407.5 338,-344.5 238,-344.5"/>
<text text-anchor="middle" x="288" y="-393.9" font-family="Helvetica,sans-Serif" font-size="12.00">unsigned long</text>
<polyline fill="none" stroke="#bfbfbf" points="238,-386.5 338,-386.5 "/>
<text text-anchor="middle" x="288" y="-372.9" font-family="Helvetica,sans-Serif" font-size="12.00"> </text>
<polyline fill="none" stroke="#bfbfbf" points="238,-365.5 338,-365.5 "/>
<text text-anchor="middle" x="288" y="-351.9" font-family="Helvetica,sans-Serif" font-size="12.00"> </text>
</a>
</g>
</g>
<!-- Node5&#45;&gt;Node2 -->
<g id="edge4" class="edge">
<title>Node5&#45;&gt;Node2</title>
<path fill="none" stroke="#404040" d="M274.09,-344.45C259.89,-313.25 237.62,-264.34 221.02,-227.87"/>
<polygon fill="none" stroke="#404040" points="220.82,-227.42 214.69,-223.62 215.84,-216.5 221.97,-220.31 220.82,-227.42"/>
<text text-anchor="middle" x="262.5" y="-290.4" font-family="Helvetica,sans-Serif" font-size="12.00"> +x</text>
<text text-anchor="middle" x="262.5" y="-277.4" font-family="Helvetica,sans-Serif" font-size="12.00">+y</text>
<text text-anchor="middle" x="262.5" y="-264.4" font-family="Helvetica,sans-Serif" font-size="12.00">+z</text>
</g>
<!-- Node6 -->
<g id="node6" class="node">
<title>Node6</title>
<g id="a_node6"><a xlink:href="class_markov_1_1_a_p_i_1_1_c_u_d_a_1_1_c_u_d_a_device_controller.html" target="_top" xlink:title="Controller class for CUDA device.">
<polygon fill="none" stroke="black" points="309.5,-114.5 309.5,-242.5 480.5,-242.5 480.5,-114.5 309.5,-114.5"/>
<text text-anchor="start" x="317.5" y="-228.9" font-family="Helvetica,sans-Serif" font-size="12.00">Markov::API::CUDA::</text>
<text text-anchor="middle" x="395" y="-215.9" font-family="Helvetica,sans-Serif" font-size="12.00">CUDADeviceController</text>
<polyline fill="none" stroke="black" points="309.5,-208.5 480.5,-208.5 "/>
<text text-anchor="middle" x="395" y="-194.9" font-family="Helvetica,sans-Serif" font-size="12.00"> </text>
<polyline fill="none" stroke="black" points="309.5,-187.5 480.5,-187.5 "/>
<text text-anchor="start" x="317.5" y="-173.9" font-family="Helvetica,sans-Serif" font-size="12.00">+ ListCudaDevices()</text>
<text text-anchor="start" x="317.5" y="-160.9" font-family="Helvetica,sans-Serif" font-size="12.00"># CudaCheckNotifyErr()</text>
<text text-anchor="start" x="317.5" y="-147.9" font-family="Helvetica,sans-Serif" font-size="12.00"># CudaMalloc2DToFlat()</text>
<text text-anchor="start" x="317.5" y="-134.9" font-family="Helvetica,sans-Serif" font-size="12.00"># CudaMemcpy2DToFlat()</text>
<text text-anchor="start" x="317.5" y="-121.9" font-family="Helvetica,sans-Serif" font-size="12.00"># CudaMigrate2DFlat()</text>
</a>
</g>
</g>
<!-- Node6&#45;&gt;Node1 -->
<g id="edge5" class="edge">
<title>Node6&#45;&gt;Node1</title>
<path fill="none" stroke="midnightblue" d="M344.06,-105.77C336.97,-95.78 329.93,-85.87 323.54,-76.87"/>
<polygon fill="none" stroke="midnightblue" points="341.37,-108.03 350.02,-114.15 347.08,-103.97 341.37,-108.03"/>
</g>
</g>
</svg>
