<?xml version="1.0" encoding="UTF-8" standalone="no"?>
<!DOCTYPE svg PUBLIC "-//W3C//DTD SVG 1.1//EN"
 "http://www.w3.org/Graphics/SVG/1.1/DTD/svg11.dtd">
<!-- Generated by graphviz version 2.43.0 (0)
 -->
<!-- Title: Markov::Random::Mersenne Pages: 1 -->
<svg width="228pt" height="324pt"
 viewBox="0.00 0.00 228.00 324.00" xmlns="http://www.w3.org/2000/svg" xmlns:xlink="http://www.w3.org/1999/xlink">
<g id="graph0" class="graph" transform="scale(1 1) rotate(0) translate(4 320)">
<title>Markov::Random::Mersenne</title>
<!-- Node1 -->
<g id="node1" class="node">
<title>Node1</title>
<g id="a_node1"><a xlink:title="Implementation of Mersenne Twister Engine.">
<polygon fill="#bfbfbf" stroke="black" points="17.5,-0.5 17.5,-63.5 202.5,-63.5 202.5,-0.5 17.5,-0.5"/>
<text text-anchor="middle" x="110" y="-49.9" font-family="Helvetica,sans-Serif" font-size="12.00">Markov::Random::Mersenne</text>
<polyline fill="none" stroke="black" points="17.5,-42.5 202.5,-42.5 "/>
<text text-anchor="middle" x="110" y="-28.9" font-family="Helvetica,sans-Serif" font-size="12.00"> </text>
<polyline fill="none" stroke="black" points="17.5,-21.5 202.5,-21.5 "/>
<text text-anchor="middle" x="110" y="-7.9" font-family="Helvetica,sans-Serif" font-size="12.00"> </text>
</a>
</g>
</g>
<!-- Node2 -->
<g id="node2" class="node">
<title>Node2</title>
<g id="a_node2"><a xlink:href="class_markov_1_1_random_1_1_default_random_engine.html" target="_top" xlink:title="Implementation using Random.h default random engine.">
<polygon fill="none" stroke="black" points="0,-100.5 0,-215.5 220,-215.5 220,-100.5 0,-100.5"/>
<text text-anchor="start" x="8" y="-201.9" font-family="Helvetica,sans-Serif" font-size="12.00">Markov::Random::DefaultRandom</text>
<text text-anchor="middle" x="110" y="-188.9" font-family="Helvetica,sans-Serif" font-size="12.00">Engine</text>
<polyline fill="none" stroke="black" points="0,-181.5 220,-181.5 "/>
<text text-anchor="middle" x="110" y="-167.9" font-family="Helvetica,sans-Serif" font-size="12.00"> </text>
<polyline fill="none" stroke="black" points="0,-160.5 220,-160.5 "/>
<text text-anchor="start" x="8" y="-146.9" font-family="Helvetica,sans-Serif" font-size="12.00">+ random()</text>
<text text-anchor="start" x="8" y="-133.9" font-family="Helvetica,sans-Serif" font-size="12.00"># rd()</text>
<text text-anchor="start" x="8" y="-120.9" font-family="Helvetica,sans-Serif" font-size="12.00"># generator()</text>
<text text-anchor="start" x="8" y="-107.9" font-family="Helvetica,sans-Serif" font-size="12.00"># distribution()</text>
</a>
</g>
</g>
<!-- Node2&#45;&gt;Node1 -->
<g id="edge1" class="edge">
<title>Node2&#45;&gt;Node1</title>
<path fill="none" stroke="midnightblue" d="M110,-90.34C110,-81.04 110,-71.89 110,-63.72"/>
<polygon fill="none" stroke="midnightblue" points="106.5,-90.44 110,-100.44 113.5,-90.44 106.5,-90.44"/>
</g>
<!-- Node3 -->
<g id="node3" class="node">
<title>Node3</title>
<g id="a_node3"><a xlink:href="class_markov_1_1_random_1_1_random_engine.html" target="_top" xlink:title="An abstract class for Random Engine.">
<polygon fill="none" stroke="black" points="1.5,-252.5 1.5,-315.5 218.5,-315.5 218.5,-252.5 1.5,-252.5"/>
<text text-anchor="middle" x="110" y="-301.9" font-family="Helvetica,sans-Serif" font-size="12.00">Markov::Random::RandomEngine</text>
<polyline fill="none" stroke="black" points="1.5,-294.5 218.5,-294.5 "/>
<text text-anchor="middle" x="110" y="-280.9" font-family="Helvetica,sans-Serif" font-size="12.00"> </text>
<polyline fill="none" stroke="black" points="1.5,-273.5 218.5,-273.5 "/>
<text text-anchor="start" x="9.5" y="-259.9" font-family="Helvetica,sans-Serif" font-size="12.00">+ random()</text>
</a>
</g>
</g>
<!-- Node3&#45;&gt;Node2 -->
<g id="edge2" class="edge">
<title>Node3&#45;&gt;Node2</title>
<path fill="none" stroke="midnightblue" d="M110,-242.09C110,-233.7 110,-224.73 110,-215.89"/>
<polygon fill="none" stroke="midnightblue" points="106.5,-242.35 110,-252.35 113.5,-242.35 106.5,-242.35"/>
</g>
</g>
</svg>
