<?xml version="1.0" encoding="UTF-8" standalone="no"?>
<!DOCTYPE svg PUBLIC "-//W3C//DTD SVG 1.1//EN"
 "http://www.w3.org/Graphics/SVG/1.1/DTD/svg11.dtd">
<!-- Generated by graphviz version 2.43.0 (0)
 -->
<!-- Title: Markov::GUI::about Pages: 1 -->
<svg width="190pt" height="198pt"
 viewBox="0.00 0.00 190.00 198.00" xmlns="http://www.w3.org/2000/svg" xmlns:xlink="http://www.w3.org/1999/xlink">
<g id="graph0" class="graph" transform="scale(1 1) rotate(0) translate(4 194)">
<title>Markov::GUI::about</title>
<!-- Node1 -->
<g id="node1" class="node">
<title>Node1</title>
<g id="a_node1"><a xlink:title="QT Class for about page.">
<polygon fill="#bfbfbf" stroke="black" points="12,-0.5 12,-76.5 182,-76.5 182,-0.5 12,-0.5"/>
<text text-anchor="middle" x="97" y="-62.9" font-family="Helvetica,sans-Serif" font-size="12.00">Markov::GUI::about</text>
<polyline fill="none" stroke="black" points="12,-55.5 182,-55.5 "/>
<text text-anchor="middle" x="97" y="-41.9" font-family="Helvetica,sans-Serif" font-size="12.00"> </text>
<polyline fill="none" stroke="black" points="12,-34.5 182,-34.5 "/>
<text text-anchor="start" x="20" y="-20.9" font-family="Helvetica,sans-Serif" font-size="12.00">+ about(QWidget *parent</text>
<text text-anchor="start" x="20" y="-7.9" font-family="Helvetica,sans-Serif" font-size="12.00">=Q_NULLPTR)</text>
</a>
</g>
</g>
<!-- Node2 -->
<g id="node2" class="node">
<title>Node2</title>
<g id="a_node2"><a xlink:href="class_q_main_window.html" target="_top" xlink:title=" ">
<polygon fill="none" stroke="black" points="0,-126.5 0,-189.5 102,-189.5 102,-126.5 0,-126.5"/>
<text text-anchor="middle" x="51" y="-175.9" font-family="Helvetica,sans-Serif" font-size="12.00">QMainWindow</text>
<polyline fill="none" stroke="black" points="0,-168.5 102,-168.5 "/>
<text text-anchor="middle" x="51" y="-154.9" font-family="Helvetica,sans-Serif" font-size="12.00"> </text>
<polyline fill="none" stroke="black" points="0,-147.5 102,-147.5 "/>
<text text-anchor="middle" x="51" y="-133.9" font-family="Helvetica,sans-Serif" font-size="12.00"> </text>
</a>
</g>
</g>
<!-- Node2&#45;&gt;Node1 -->
<g id="edge1" class="edge">
<title>Node2&#45;&gt;Node1</title>
<path fill="none" stroke="midnightblue" d="M66.74,-116.79C71.84,-103.77 77.46,-89.4 82.47,-76.62"/>
<polygon fill="none" stroke="midnightblue" points="63.35,-115.85 62.97,-126.43 69.87,-118.4 63.35,-115.85"/>
</g>
<!-- Node3 -->
<g id="node3" class="node">
<title>Node3</title>
<g id="a_node3"><a xlink:title=" ">
<polygon fill="none" stroke="#bfbfbf" points="120.5,-126.5 120.5,-189.5 167.5,-189.5 167.5,-126.5 120.5,-126.5"/>
<text text-anchor="middle" x="144" y="-175.9" font-family="Helvetica,sans-Serif" font-size="12.00">main</text>
<polyline fill="none" stroke="#bfbfbf" points="120.5,-168.5 167.5,-168.5 "/>
<text text-anchor="middle" x="144" y="-154.9" font-family="Helvetica,sans-Serif" font-size="12.00"> </text>
<polyline fill="none" stroke="#bfbfbf" points="120.5,-147.5 167.5,-147.5 "/>
<text text-anchor="middle" x="144" y="-133.9" font-family="Helvetica,sans-Serif" font-size="12.00"> </text>
</a>
</g>
</g>
<!-- Node3&#45;&gt;Node1 -->
<g id="edge2" class="edge">
<title>Node3&#45;&gt;Node1</title>
<path fill="none" stroke="#404040" d="M131.77,-126.43C127.06,-114.65 121.56,-100.89 116.34,-87.84"/>
<polygon fill="none" stroke="#404040" points="116.3,-87.76 110.36,-83.67 111.85,-76.62 117.79,-80.7 116.3,-87.76"/>
<text text-anchor="middle" x="132.5" y="-98.4" font-family="Helvetica,sans-Serif" font-size="12.00"> &#45;ui</text>
</g>
</g>
</svg>
