<?xml version="1.0" encoding="UTF-8" standalone="no"?>
<!DOCTYPE svg PUBLIC "-//W3C//DTD SVG 1.1//EN"
 "http://www.w3.org/Graphics/SVG/1.1/DTD/svg11.dtd">
<!-- Generated by graphviz version 2.43.0 (0)
 -->
<!-- Title: Markov::GUI::CLI Pages: 1 -->
<svg width="124pt" height="211pt"
 viewBox="0.00 0.00 124.00 211.00" xmlns="http://www.w3.org/2000/svg" xmlns:xlink="http://www.w3.org/1999/xlink">
<g id="graph0" class="graph" transform="scale(1 1) rotate(0) translate(4 207)">
<title>Markov::GUI::CLI</title>
<!-- Node1 -->
<g id="node1" class="node">
<title>Node1</title>
<g id="a_node1"><a xlink:title="QT CLI Class.">
<polygon fill="#bfbfbf" stroke="black" points="0,-0.5 0,-102.5 116,-102.5 116,-0.5 0,-0.5"/>
<text text-anchor="middle" x="58" y="-88.9" font-family="Helvetica,sans-Serif" font-size="12.00">Markov::GUI::CLI</text>
<polyline fill="none" stroke="black" points="0,-81.5 116,-81.5 "/>
<text text-anchor="start" x="8" y="-67.9" font-family="Helvetica,sans-Serif" font-size="12.00">&#45; ui</text>
<polyline fill="none" stroke="black" points="0,-60.5 116,-60.5 "/>
<text text-anchor="start" x="8" y="-46.9" font-family="Helvetica,sans-Serif" font-size="12.00">+ CLI()</text>
<text text-anchor="start" x="8" y="-33.9" font-family="Helvetica,sans-Serif" font-size="12.00">+ start()</text>
<text text-anchor="start" x="8" y="-20.9" font-family="Helvetica,sans-Serif" font-size="12.00">+ statistics()</text>
<text text-anchor="start" x="8" y="-7.9" font-family="Helvetica,sans-Serif" font-size="12.00">+ about()</text>
</a>
</g>
</g>
<!-- Node2 -->
<g id="node2" class="node">
<title>Node2</title>
<g id="a_node2"><a xlink:title=" ">
<polygon fill="none" stroke="#bfbfbf" points="7,-139.5 7,-202.5 109,-202.5 109,-139.5 7,-139.5"/>
<text text-anchor="middle" x="58" y="-188.9" font-family="Helvetica,sans-Serif" font-size="12.00">QMainWindow</text>
<polyline fill="none" stroke="#bfbfbf" points="7,-181.5 109,-181.5 "/>
<text text-anchor="middle" x="58" y="-167.9" font-family="Helvetica,sans-Serif" font-size="12.00"> </text>
<polyline fill="none" stroke="#bfbfbf" points="7,-160.5 109,-160.5 "/>
<text text-anchor="middle" x="58" y="-146.9" font-family="Helvetica,sans-Serif" font-size="12.00"> </text>
</a>
</g>
</g>
<!-- Node2&#45;&gt;Node1 -->
<g id="edge1" class="edge">
<title>Node2&#45;&gt;Node1</title>
<path fill="none" stroke="midnightblue" d="M58,-129.37C58,-120.85 58,-111.77 58,-102.94"/>
<polygon fill="none" stroke="midnightblue" points="54.5,-129.43 58,-139.43 61.5,-129.44 54.5,-129.43"/>
</g>
</g>
</svg>
