<?xml version="1.0" encoding="UTF-8" standalone="no"?>
<!DOCTYPE svg PUBLIC "-//W3C//DTD SVG 1.1//EN"
 "http://www.w3.org/Graphics/SVG/1.1/DTD/svg11.dtd">
<!-- Generated by graphviz version 2.43.0 (0)
 -->
<!-- Title: base.BaseCLI Pages: 1 -->
<svg width="519pt" height="736pt"
 viewBox="0.00 0.00 518.50 736.00" xmlns="http://www.w3.org/2000/svg" xmlns:xlink="http://www.w3.org/1999/xlink">
<g id="graph0" class="graph" transform="scale(1 1) rotate(0) translate(4 732)">
<title>base.BaseCLI</title>
<!-- Node1 -->
<g id="node1" class="node">
<title>Node1</title>
<g id="a_node1"><a xlink:title=" ">
<polygon fill="#bfbfbf" stroke="black" points="159.5,-456.5 159.5,-727.5 318.5,-727.5 318.5,-456.5 159.5,-456.5"/>
<text text-anchor="middle" x="239" y="-713.9" font-family="Helvetica,sans-Serif" font-size="12.00">base.BaseCLI</text>
<polyline fill="none" stroke="black" points="159.5,-706.5 318.5,-706.5 "/>
<text text-anchor="start" x="167.5" y="-692.9" font-family="Helvetica,sans-Serif" font-size="12.00">+ parser</text>
<text text-anchor="start" x="167.5" y="-679.9" font-family="Helvetica,sans-Serif" font-size="12.00">+ print_help</text>
<text text-anchor="start" x="167.5" y="-666.9" font-family="Helvetica,sans-Serif" font-size="12.00">+ args</text>
<polyline fill="none" stroke="black" points="159.5,-659.5 318.5,-659.5 "/>
<text text-anchor="start" x="167.5" y="-645.9" font-family="Helvetica,sans-Serif" font-size="12.00">+ __init__()</text>
<text text-anchor="start" x="167.5" y="-632.9" font-family="Helvetica,sans-Serif" font-size="12.00">+ add_arguments()</text>
<text text-anchor="start" x="167.5" y="-619.9" font-family="Helvetica,sans-Serif" font-size="12.00">+ help()</text>
<text text-anchor="start" x="167.5" y="-606.9" font-family="Helvetica,sans-Serif" font-size="12.00">+ parse()</text>
<text text-anchor="start" x="167.5" y="-593.9" font-family="Helvetica,sans-Serif" font-size="12.00">+ init_post_arguments()</text>
<text text-anchor="start" x="167.5" y="-580.9" font-family="Helvetica,sans-Serif" font-size="12.00">+ parse_arguments()</text>
<text text-anchor="start" x="167.5" y="-567.9" font-family="Helvetica,sans-Serif" font-size="12.00">+ import_model()</text>
<text text-anchor="start" x="167.5" y="-554.9" font-family="Helvetica,sans-Serif" font-size="12.00">+ train()</text>
<text text-anchor="start" x="167.5" y="-541.9" font-family="Helvetica,sans-Serif" font-size="12.00">+ export()</text>
<text text-anchor="start" x="167.5" y="-528.9" font-family="Helvetica,sans-Serif" font-size="12.00">+ generate()</text>
<text text-anchor="start" x="167.5" y="-515.9" font-family="Helvetica,sans-Serif" font-size="12.00">+ process()</text>
<text text-anchor="start" x="167.5" y="-502.9" font-family="Helvetica,sans-Serif" font-size="12.00">+ check_import_path()</text>
<text text-anchor="start" x="167.5" y="-489.9" font-family="Helvetica,sans-Serif" font-size="12.00">+ check_corpus_path()</text>
<text text-anchor="start" x="167.5" y="-476.9" font-family="Helvetica,sans-Serif" font-size="12.00">+ check_export_path()</text>
<text text-anchor="start" x="167.5" y="-463.9" font-family="Helvetica,sans-Serif" font-size="12.00">&#45; _generate()</text>
</a>
</g>
</g>
<!-- Node2 -->
<g id="node2" class="node">
<title>Node2</title>
<g id="a_node2"><a xlink:href="classbase_1_1_abstract_generation_model_c_l_i.html" target="_top" xlink:title=" ">
<polygon fill="none" stroke="black" points="128.5,-311 128.5,-374 349.5,-374 349.5,-311 128.5,-311"/>
<text text-anchor="middle" x="239" y="-360.4" font-family="Helvetica,sans-Serif" font-size="12.00">base.AbstractGenerationModelCLI</text>
<polyline fill="none" stroke="black" points="128.5,-353 349.5,-353 "/>
<text text-anchor="middle" x="239" y="-339.4" font-family="Helvetica,sans-Serif" font-size="12.00"> </text>
<polyline fill="none" stroke="black" points="128.5,-332 349.5,-332 "/>
<text text-anchor="start" x="136.5" y="-318.4" font-family="Helvetica,sans-Serif" font-size="12.00">+ add_arguments()</text>
</a>
</g>
</g>
<!-- Node1&#45;&gt;Node2 -->
<g id="edge1" class="edge">
<title>Node1&#45;&gt;Node2</title>
<path fill="none" stroke="midnightblue" d="M239,-446.31C239,-419.1 239,-393.29 239,-374.33"/>
<polygon fill="none" stroke="midnightblue" points="235.5,-446.39 239,-456.39 242.5,-446.39 235.5,-446.39"/>
</g>
<!-- Node3 -->
<g id="node3" class="node">
<title>Node3</title>
<g id="a_node3"><a xlink:href="classbase_1_1_abstract_training_model_c_l_i.html" target="_top" xlink:title=" ">
<polygon fill="none" stroke="black" points="0,-139.5 0,-202.5 200,-202.5 200,-139.5 0,-139.5"/>
<text text-anchor="middle" x="100" y="-188.9" font-family="Helvetica,sans-Serif" font-size="12.00">base.AbstractTrainingModelCLI</text>
<polyline fill="none" stroke="black" points="0,-181.5 200,-181.5 "/>
<text text-anchor="middle" x="100" y="-167.9" font-family="Helvetica,sans-Serif" font-size="12.00"> </text>
<polyline fill="none" stroke="black" points="0,-160.5 200,-160.5 "/>
<text text-anchor="start" x="8" y="-146.9" font-family="Helvetica,sans-Serif" font-size="12.00">+ add_arguments()</text>
</a>
</g>
</g>
<!-- Node1&#45;&gt;Node3 -->
<g id="edge5" class="edge">
<title>Node1&#45;&gt;Node3</title>
<path fill="none" stroke="midnightblue" d="M153.7,-486.53C140.31,-465.55 128.21,-442.89 120,-420 93.32,-345.59 94.57,-250.83 97.44,-202.84"/>
<polygon fill="none" stroke="midnightblue" points="150.9,-488.64 159.3,-495.1 156.76,-484.81 150.9,-488.64"/>
</g>
<!-- Node6 -->
<g id="node6" class="node">
<title>Node6</title>
<g id="a_node6"><a xlink:href="classmarkopy_1_1_markopy_c_l_i.html" target="_top" xlink:title=" ">
<polygon fill="none" stroke="black" points="367.5,-265.5 367.5,-419.5 510.5,-419.5 510.5,-265.5 367.5,-265.5"/>
<text text-anchor="middle" x="439" y="-405.9" font-family="Helvetica,sans-Serif" font-size="12.00">markopy.MarkopyCLI</text>
<polyline fill="none" stroke="black" points="367.5,-398.5 510.5,-398.5 "/>
<text text-anchor="start" x="375.5" y="-384.9" font-family="Helvetica,sans-Serif" font-size="12.00">+ args</text>
<text text-anchor="start" x="375.5" y="-371.9" font-family="Helvetica,sans-Serif" font-size="12.00">+ cli</text>
<polyline fill="none" stroke="black" points="367.5,-364.5 510.5,-364.5 "/>
<text text-anchor="start" x="375.5" y="-350.9" font-family="Helvetica,sans-Serif" font-size="12.00">+ __init__()</text>
<text text-anchor="start" x="375.5" y="-337.9" font-family="Helvetica,sans-Serif" font-size="12.00">+ add_arguments()</text>
<text text-anchor="start" x="375.5" y="-324.9" font-family="Helvetica,sans-Serif" font-size="12.00">+ help()</text>
<text text-anchor="start" x="375.5" y="-311.9" font-family="Helvetica,sans-Serif" font-size="12.00">+ parse()</text>
<text text-anchor="start" x="375.5" y="-298.9" font-family="Helvetica,sans-Serif" font-size="12.00">+ parse_fail()</text>
<text text-anchor="start" x="375.5" y="-285.9" font-family="Helvetica,sans-Serif" font-size="12.00">+ process()</text>
<text text-anchor="start" x="375.5" y="-272.9" font-family="Helvetica,sans-Serif" font-size="12.00">+ stub()</text>
</a>
</g>
</g>
<!-- Node1&#45;&gt;Node6 -->
<g id="edge6" class="edge">
<title>Node1&#45;&gt;Node6</title>
<path fill="none" stroke="midnightblue" d="M325.09,-484.47C342.73,-462.63 360.96,-440.07 377.53,-419.57"/>
<polygon fill="none" stroke="midnightblue" points="322.18,-482.49 318.62,-492.47 327.63,-486.89 322.18,-482.49"/>
</g>
<!-- Node2&#45;&gt;Node3 -->
<g id="edge2" class="edge">
<title>Node2&#45;&gt;Node3</title>
<path fill="none" stroke="midnightblue" d="M207.4,-302.96C182.51,-272.61 148.29,-230.88 125.22,-202.75"/>
<polygon fill="none" stroke="midnightblue" points="204.78,-305.29 213.83,-310.8 210.19,-300.85 204.78,-305.29"/>
</g>
<!-- Node5 -->
<g id="node5" class="node">
<title>Node5</title>
<g id="a_node5"><a xlink:href="classmmx_1_1_model_matrix_c_l_i.html" target="_top" xlink:title=" ">
<polygon fill="none" stroke="black" points="218.5,-113.5 218.5,-228.5 377.5,-228.5 377.5,-113.5 218.5,-113.5"/>
<text text-anchor="middle" x="298" y="-214.9" font-family="Helvetica,sans-Serif" font-size="12.00">mmx.ModelMatrixCLI</text>
<polyline fill="none" stroke="black" points="218.5,-207.5 377.5,-207.5 "/>
<text text-anchor="start" x="226.5" y="-193.9" font-family="Helvetica,sans-Serif" font-size="12.00">+ model</text>
<text text-anchor="start" x="226.5" y="-180.9" font-family="Helvetica,sans-Serif" font-size="12.00">+ fileIO</text>
<polyline fill="none" stroke="black" points="218.5,-173.5 377.5,-173.5 "/>
<text text-anchor="start" x="226.5" y="-159.9" font-family="Helvetica,sans-Serif" font-size="12.00">+ __init__()</text>
<text text-anchor="start" x="226.5" y="-146.9" font-family="Helvetica,sans-Serif" font-size="12.00">+ add_arguments()</text>
<text text-anchor="start" x="226.5" y="-133.9" font-family="Helvetica,sans-Serif" font-size="12.00">+ init_post_arguments()</text>
<text text-anchor="start" x="226.5" y="-120.9" font-family="Helvetica,sans-Serif" font-size="12.00">&#45; _generate()</text>
</a>
</g>
</g>
<!-- Node2&#45;&gt;Node5 -->
<g id="edge4" class="edge">
<title>Node2&#45;&gt;Node5</title>
<path fill="none" stroke="midnightblue" d="M253.02,-301.24C260.58,-279.51 270.04,-252.33 278.33,-228.51"/>
<polygon fill="none" stroke="midnightblue" points="249.67,-300.21 249.68,-310.8 256.28,-302.51 249.67,-300.21"/>
</g>
<!-- Node4 -->
<g id="node4" class="node">
<title>Node4</title>
<g id="a_node4"><a xlink:href="classmp_1_1_markov_passwords_c_l_i.html" target="_top" xlink:title=" ">
<polygon fill="none" stroke="black" points="18,-0.5 18,-76.5 182,-76.5 182,-0.5 18,-0.5"/>
<text text-anchor="middle" x="100" y="-62.9" font-family="Helvetica,sans-Serif" font-size="12.00">mp.MarkovPasswordsCLI</text>
<polyline fill="none" stroke="black" points="18,-55.5 182,-55.5 "/>
<text text-anchor="start" x="26" y="-41.9" font-family="Helvetica,sans-Serif" font-size="12.00">+ model</text>
<polyline fill="none" stroke="black" points="18,-34.5 182,-34.5 "/>
<text text-anchor="start" x="26" y="-20.9" font-family="Helvetica,sans-Serif" font-size="12.00">+ __init__()</text>
<text text-anchor="start" x="26" y="-7.9" font-family="Helvetica,sans-Serif" font-size="12.00">&#45; _generate()</text>
</a>
</g>
</g>
<!-- Node3&#45;&gt;Node4 -->
<g id="edge3" class="edge">
<title>Node3&#45;&gt;Node4</title>
<path fill="none" stroke="midnightblue" d="M100,-129.35C100,-112.59 100,-93.29 100,-76.89"/>
<polygon fill="none" stroke="midnightblue" points="96.5,-129.4 100,-139.4 103.5,-129.4 96.5,-129.4"/>
</g>
</g>
</svg>
