<?xml version="1.0" encoding="UTF-8" standalone="no"?>
<!DOCTYPE svg PUBLIC "-//W3C//DTD SVG 1.1//EN"
 "http://www.w3.org/Graphics/SVG/1.1/DTD/svg11.dtd">
<!-- Generated by graphviz version 2.43.0 (0)
 -->
<!-- Title: Markov::Random::Marsaglia Pages: 1 -->
<svg width="346pt" height="442pt"
 viewBox="0.00 0.00 346.00 442.00" xmlns="http://www.w3.org/2000/svg" xmlns:xlink="http://www.w3.org/1999/xlink">
<g id="graph0" class="graph" transform="scale(1 1) rotate(0) translate(4 438)">
<title>Markov::Random::Marsaglia</title>
<!-- Node1 -->
<g id="node1" class="node">
<title>Node1</title>
<g id="a_node1"><a xlink:title="Implementation of Marsaglia Random Engine.">
<polygon fill="#bfbfbf" stroke="black" points="151,-0.5 151,-76.5 335,-76.5 335,-0.5 151,-0.5"/>
<text text-anchor="middle" x="243" y="-62.9" font-family="Helvetica,sans-Serif" font-size="12.00">Markov::Random::Marsaglia</text>
<polyline fill="none" stroke="black" points="151,-55.5 335,-55.5 "/>
<text text-anchor="middle" x="243" y="-41.9" font-family="Helvetica,sans-Serif" font-size="12.00"> </text>
<polyline fill="none" stroke="black" points="151,-34.5 335,-34.5 "/>
<text text-anchor="start" x="159" y="-20.9" font-family="Helvetica,sans-Serif" font-size="12.00">+ Marsaglia()</text>
<text text-anchor="start" x="159" y="-7.9" font-family="Helvetica,sans-Serif" font-size="12.00">+ unsigned long random()</text>
</a>
</g>
</g>
<!-- Node2 -->
<g id="node2" class="node">
<title>Node2</title>
<g id="a_node2"><a xlink:href="class_markov_1_1_random_1_1_default_random_engine.html" target="_top" xlink:title="Implementation using Random.h default random engine.">
<polygon fill="none" stroke="black" points="0,-152.5 0,-319.5 220,-319.5 220,-152.5 0,-152.5"/>
<text text-anchor="start" x="8" y="-305.9" font-family="Helvetica,sans-Serif" font-size="12.00">Markov::Random::DefaultRandom</text>
<text text-anchor="middle" x="110" y="-292.9" font-family="Helvetica,sans-Serif" font-size="12.00">Engine</text>
<polyline fill="none" stroke="black" points="0,-285.5 220,-285.5 "/>
<text text-anchor="middle" x="110" y="-271.9" font-family="Helvetica,sans-Serif" font-size="12.00"> </text>
<polyline fill="none" stroke="black" points="0,-264.5 220,-264.5 "/>
<text text-anchor="start" x="8" y="-250.9" font-family="Helvetica,sans-Serif" font-size="12.00">+ unsigned long random()</text>
<text text-anchor="start" x="8" y="-237.9" font-family="Helvetica,sans-Serif" font-size="12.00"># std::random_device</text>
<text text-anchor="start" x="8" y="-224.9" font-family="Helvetica,sans-Serif" font-size="12.00"> &amp; rd()</text>
<text text-anchor="start" x="8" y="-211.9" font-family="Helvetica,sans-Serif" font-size="12.00"># std::default_random</text>
<text text-anchor="start" x="8" y="-198.9" font-family="Helvetica,sans-Serif" font-size="12.00">_engine &amp; generator()</text>
<text text-anchor="start" x="8" y="-185.9" font-family="Helvetica,sans-Serif" font-size="12.00"># std::uniform_int_distribution</text>
<text text-anchor="start" x="8" y="-172.9" font-family="Helvetica,sans-Serif" font-size="12.00">&lt; long long unsigned &gt; &amp;</text>
<text text-anchor="start" x="8" y="-159.9" font-family="Helvetica,sans-Serif" font-size="12.00"> distribution()</text>
</a>
</g>
</g>
<!-- Node2&#45;&gt;Node1 -->
<g id="edge1" class="edge">
<title>Node2&#45;&gt;Node1</title>
<path fill="none" stroke="midnightblue" d="M171.91,-143.99C188.1,-120.2 204.65,-95.88 217.7,-76.69"/>
<polygon fill="none" stroke="midnightblue" points="168.94,-142.14 166.21,-152.37 174.73,-146.07 168.94,-142.14"/>
</g>
<!-- Node3 -->
<g id="node3" class="node">
<title>Node3</title>
<g id="a_node3"><a xlink:href="class_markov_1_1_random_1_1_random_engine.html" target="_top" xlink:title="An abstract class for Random Engine.">
<polygon fill="none" stroke="black" points="1.5,-357.5 1.5,-433.5 218.5,-433.5 218.5,-357.5 1.5,-357.5"/>
<text text-anchor="middle" x="110" y="-419.9" font-family="Helvetica,sans-Serif" font-size="12.00">Markov::Random::RandomEngine</text>
<polyline fill="none" stroke="black" points="1.5,-412.5 218.5,-412.5 "/>
<text text-anchor="middle" x="110" y="-398.9" font-family="Helvetica,sans-Serif" font-size="12.00"> </text>
<polyline fill="none" stroke="black" points="1.5,-391.5 218.5,-391.5 "/>
<text text-anchor="start" x="9.5" y="-377.9" font-family="Helvetica,sans-Serif" font-size="12.00">+ virtual unsigned long</text>
<text text-anchor="start" x="9.5" y="-364.9" font-family="Helvetica,sans-Serif" font-size="12.00"> random()=0</text>
</a>
</g>
</g>
<!-- Node3&#45;&gt;Node2 -->
<g id="edge2" class="edge">
<title>Node3&#45;&gt;Node2</title>
<path fill="none" stroke="midnightblue" d="M110,-346.95C110,-338.29 110,-329.03 110,-319.69"/>
<polygon fill="none" stroke="midnightblue" points="106.5,-347.17 110,-357.17 113.5,-347.17 106.5,-347.17"/>
</g>
<!-- Node4 -->
<g id="node4" class="node">
<title>Node4</title>
<g id="a_node4"><a xlink:title=" ">
<polygon fill="none" stroke="#bfbfbf" points="238,-204.5 238,-267.5 338,-267.5 338,-204.5 238,-204.5"/>
<text text-anchor="middle" x="288" y="-253.9" font-family="Helvetica,sans-Serif" font-size="12.00">unsigned long</text>
<polyline fill="none" stroke="#bfbfbf" points="238,-246.5 338,-246.5 "/>
<text text-anchor="middle" x="288" y="-232.9" font-family="Helvetica,sans-Serif" font-size="12.00"> </text>
<polyline fill="none" stroke="#bfbfbf" points="238,-225.5 338,-225.5 "/>
<text text-anchor="middle" x="288" y="-211.9" font-family="Helvetica,sans-Serif" font-size="12.00"> </text>
</a>
</g>
</g>
<!-- Node4&#45;&gt;Node1 -->
<g id="edge3" class="edge">
<title>Node4&#45;&gt;Node1</title>
<path fill="none" stroke="#404040" d="M280.97,-204.45C273.82,-173.39 262.63,-124.76 254.24,-88.34"/>
<polygon fill="none" stroke="#404040" points="254.21,-88.2 248.96,-83.25 251.52,-76.5 256.76,-81.45 254.21,-88.2"/>
<text text-anchor="middle" x="274.5" y="-124.4" font-family="Helvetica,sans-Serif" font-size="12.00"> +x</text>
<text text-anchor="middle" x="274.5" y="-111.4" font-family="Helvetica,sans-Serif" font-size="12.00">+y</text>
<text text-anchor="middle" x="274.5" y="-98.4" font-family="Helvetica,sans-Serif" font-size="12.00">+z</text>
</g>
</g>
</svg>
