<?xml version="1.0" encoding="UTF-8" standalone="no"?>
<!DOCTYPE svg PUBLIC "-//W3C//DTD SVG 1.1//EN"
 "http://www.w3.org/Graphics/SVG/1.1/DTD/svg11.dtd">
<!-- Generated by graphviz version 2.43.0 (0)
 -->
<!-- Title: Markov::GUI::Generate::generation Pages: 1 -->
<svg width="860pt" height="43pt"
 viewBox="0.00 0.00 860.00 43.00" xmlns="http://www.w3.org/2000/svg" xmlns:xlink="http://www.w3.org/1999/xlink">
<g id="graph0" class="graph" transform="scale(1 1) rotate(0) translate(4 39)">
<title>Markov::GUI::Generate::generation</title>
<!-- Node1 -->
<g id="node1" class="node">
<title>Node1</title>
<g id="a_node1"><a xlink:title=" ">
<polygon fill="#bfbfbf" stroke="black" points="0,-0.5 0,-34.5 154,-34.5 154,-0.5 0,-0.5"/>
<text text-anchor="start" x="8" y="-20.9" font-family="Helvetica,sans-Serif" font-size="12.00">Markov::GUI::Generate</text>
<text text-anchor="middle" x="77" y="-7.9" font-family="Helvetica,sans-Serif" font-size="12.00">::generation</text>
</a>
</g>
</g>
<!-- Node2 -->
<g id="node2" class="node">
<title>Node2</title>
<g id="a_node2"><a xlink:href="class_markov_1_1_a_p_i_1_1_markov_passwords.html#a13886b29051abf3edeed97bd7f985f39" target="_top" xlink:title="Call Markov::Model::RandomWalk n times, and collect output.">
<polygon fill="none" stroke="black" points="190,-0.5 190,-34.5 390,-34.5 390,-0.5 190,-0.5"/>
<text text-anchor="start" x="198" y="-20.9" font-family="Helvetica,sans-Serif" font-size="12.00">Markov::API::MarkovPasswords</text>
<text text-anchor="middle" x="290" y="-7.9" font-family="Helvetica,sans-Serif" font-size="12.00">::Generate</text>
</a>
</g>
</g>
<!-- Node1&#45;&gt;Node2 -->
<g id="edge1" class="edge">
<title>Node1&#45;&gt;Node2</title>
<path fill="none" stroke="midnightblue" d="M154.18,-17.5C162.49,-17.5 171.07,-17.5 179.68,-17.5"/>
<polygon fill="midnightblue" stroke="midnightblue" points="179.79,-21 189.79,-17.5 179.79,-14 179.79,-21"/>
</g>
<!-- Node3 -->
<g id="node3" class="node">
<title>Node3</title>
<g id="a_node3"><a xlink:href="class_markov_1_1_a_p_i_1_1_markov_passwords.html#ac2703ec2d5c97adaf8d205000ca34756" target="_top" xlink:title="A single thread invoked by the Generate function.">
<polygon fill="none" stroke="black" points="426,-0.5 426,-34.5 626,-34.5 626,-0.5 426,-0.5"/>
<text text-anchor="start" x="434" y="-20.9" font-family="Helvetica,sans-Serif" font-size="12.00">Markov::API::MarkovPasswords</text>
<text text-anchor="middle" x="526" y="-7.9" font-family="Helvetica,sans-Serif" font-size="12.00">::GenerateThread</text>
</a>
</g>
</g>
<!-- Node2&#45;&gt;Node3 -->
<g id="edge2" class="edge">
<title>Node2&#45;&gt;Node3</title>
<path fill="none" stroke="midnightblue" d="M390.24,-17.5C398.74,-17.5 407.38,-17.5 415.95,-17.5"/>
<polygon fill="midnightblue" stroke="midnightblue" points="415.98,-21 425.98,-17.5 415.98,-14 415.98,-21"/>
</g>
<!-- Node4 -->
<g id="node4" class="node">
<title>Node4</title>
<g id="a_node4"><a xlink:href="class_markov_1_1_model.html#aa4a11c6679c998936332f8409ae95375" target="_top" xlink:title="Do a random walk on this model.">
<polygon fill="none" stroke="black" points="662,-7 662,-28 852,-28 852,-7 662,-7"/>
<text text-anchor="middle" x="757" y="-14.4" font-family="Helvetica,sans-Serif" font-size="12.00">Markov::Model::RandomWalk</text>
</a>
</g>
</g>
<!-- Node3&#45;&gt;Node4 -->
<g id="edge3" class="edge">
<title>Node3&#45;&gt;Node4</title>
<path fill="none" stroke="midnightblue" d="M626.11,-17.5C634.53,-17.5 643.07,-17.5 651.53,-17.5"/>
<polygon fill="midnightblue" stroke="midnightblue" points="651.8,-21 661.8,-17.5 651.8,-14 651.8,-21"/>
</g>
</g>
</svg>
