<?xml version="1.0" encoding="UTF-8" standalone="no"?>
<!DOCTYPE svg PUBLIC "-//W3C//DTD SVG 1.1//EN"
 "http://www.w3.org/Graphics/SVG/1.1/DTD/svg11.dtd">
<!-- Generated by graphviz version 2.43.0 (0)
 -->
<!-- Title: Python.Markopy.BaseCLI.generate Pages: 1 -->
<svg width="756pt" height="202pt"
 viewBox="0.00 0.00 756.00 202.00" xmlns="http://www.w3.org/2000/svg" xmlns:xlink="http://www.w3.org/1999/xlink">
<g id="graph0" class="graph" transform="scale(1 1) rotate(0) translate(4 198)">
<title>Python.Markopy.BaseCLI.generate</title>
<!-- Node1 -->
<g id="node1" class="node">
<title>Node1</title>
<g id="a_node1"><a xlink:title="Generate strings from the model.">
<polygon fill="#bfbfbf" stroke="black" points="0,-86 0,-107 222,-107 222,-86 0,-86"/>
<text text-anchor="middle" x="111" y="-93.4" font-family="Helvetica,sans-Serif" font-size="12.00">Python.Markopy.BaseCLI.generate</text>
</a>
</g>
</g>
<!-- Node2 -->
<g id="node2" class="node">
<title>Node2</title>
<g id="a_node2"><a xlink:href="class_python_1_1_cuda_markopy_1_1_cuda_model_matrix_c_l_i.html#acfaa19f0478a88a143282431aa89786d" target="_top" xlink:title="wrapper for generate function.">
<polygon fill="none" stroke="black" points="262,-159.5 262,-193.5 475,-193.5 475,-159.5 262,-159.5"/>
<text text-anchor="start" x="270" y="-179.9" font-family="Helvetica,sans-Serif" font-size="12.00">Python.CudaMarkopy.CudaModel</text>
<text text-anchor="middle" x="368.5" y="-166.9" font-family="Helvetica,sans-Serif" font-size="12.00">MatrixCLI._generate</text>
</a>
</g>
</g>
<!-- Node1&#45;&gt;Node2 -->
<g id="edge1" class="edge">
<title>Node1&#45;&gt;Node2</title>
<path fill="none" stroke="midnightblue" d="M137.53,-107.01C166.42,-118.66 215.06,-137.51 258,-150.5 265.36,-152.73 273.05,-154.88 280.79,-156.94"/>
<polygon fill="midnightblue" stroke="midnightblue" points="280.05,-160.36 290.6,-159.49 281.8,-153.59 280.05,-160.36"/>
</g>
<!-- Node5 -->
<g id="node5" class="node">
<title>Node5</title>
<g id="a_node5"><a xlink:href="class_python_1_1_markopy_1_1_base_c_l_i.html#acbe1962e0ebdc177414fc4eb7f70be69" target="_top" xlink:title="wrapper for generate function.">
<polygon fill="none" stroke="black" points="285,-106.5 285,-140.5 452,-140.5 452,-106.5 285,-106.5"/>
<text text-anchor="start" x="293" y="-126.9" font-family="Helvetica,sans-Serif" font-size="12.00">Python.Markopy.BaseCLI.</text>
<text text-anchor="middle" x="368.5" y="-113.9" font-family="Helvetica,sans-Serif" font-size="12.00">_generate</text>
</a>
</g>
</g>
<!-- Node1&#45;&gt;Node5 -->
<g id="edge4" class="edge">
<title>Node1&#45;&gt;Node5</title>
<path fill="none" stroke="midnightblue" d="M211.51,-107.02C232.35,-109.22 254.23,-111.53 274.8,-113.7"/>
<polygon fill="midnightblue" stroke="midnightblue" points="274.47,-117.19 284.79,-114.76 275.21,-110.23 274.47,-117.19"/>
</g>
<!-- Node6 -->
<g id="node6" class="node">
<title>Node6</title>
<g id="a_node6"><a xlink:href="class_python_1_1_markopy_1_1_model_matrix_c_l_i.html#a734d179536d25323ae0b421c48f61716" target="_top" xlink:title="wrapper for generate function.">
<polygon fill="none" stroke="black" points="274,-53.5 274,-87.5 463,-87.5 463,-53.5 274,-53.5"/>
<text text-anchor="start" x="282" y="-73.9" font-family="Helvetica,sans-Serif" font-size="12.00">Python.Markopy.ModelMatrix</text>
<text text-anchor="middle" x="368.5" y="-60.9" font-family="Helvetica,sans-Serif" font-size="12.00">CLI._generate</text>
</a>
</g>
</g>
<!-- Node1&#45;&gt;Node6 -->
<g id="edge6" class="edge">
<title>Node1&#45;&gt;Node6</title>
<path fill="none" stroke="midnightblue" d="M215.19,-86C231.09,-84.38 247.52,-82.71 263.45,-81.09"/>
<polygon fill="midnightblue" stroke="midnightblue" points="264.23,-84.53 273.83,-80.03 263.53,-77.56 264.23,-84.53"/>
</g>
<!-- Node8 -->
<g id="node8" class="node">
<title>Node8</title>
<g id="a_node8"><a xlink:href="class_python_1_1_markopy_1_1_markov_passwords_c_l_i.html#a9da87ee9e7809f86dbff169a14229cef" target="_top" xlink:title=" ">
<polygon fill="none" stroke="black" points="258,-0.5 258,-34.5 479,-34.5 479,-0.5 258,-0.5"/>
<text text-anchor="start" x="266" y="-20.9" font-family="Helvetica,sans-Serif" font-size="12.00">Python.Markopy.MarkovPasswords</text>
<text text-anchor="middle" x="368.5" y="-7.9" font-family="Helvetica,sans-Serif" font-size="12.00">CLI._generate</text>
</a>
</g>
</g>
<!-- Node1&#45;&gt;Node8 -->
<g id="edge9" class="edge">
<title>Node1&#45;&gt;Node8</title>
<path fill="none" stroke="midnightblue" d="M138.91,-86C168,-74.86 215.87,-57.16 258,-44.5 266.38,-41.98 275.17,-39.52 283.97,-37.17"/>
<polygon fill="midnightblue" stroke="midnightblue" points="285.11,-40.49 293.89,-34.57 283.33,-33.72 285.11,-40.49"/>
</g>
<!-- Node3 -->
<g id="node3" class="node">
<title>Node3</title>
<g id="a_node3"><a xlink:href="class_markov_1_1_a_p_i_1_1_c_u_d_a_1_1_c_u_d_a_model_matrix.html#ac9d971ef67f5062f2fe756a7286a15b9" target="_top" xlink:title="Random walk on the Matrix&#45;reduced Markov::Model.">
<polygon fill="none" stroke="black" points="515,-159.5 515,-193.5 748,-193.5 748,-159.5 515,-159.5"/>
<text text-anchor="start" x="523" y="-179.9" font-family="Helvetica,sans-Serif" font-size="12.00">Markov::API::CUDA::</text>
<text text-anchor="middle" x="631.5" y="-166.9" font-family="Helvetica,sans-Serif" font-size="12.00">CUDAModelMatrix::FastRandomWalk</text>
</a>
</g>
</g>
<!-- Node2&#45;&gt;Node3 -->
<g id="edge2" class="edge">
<title>Node2&#45;&gt;Node3</title>
<path fill="none" stroke="midnightblue" d="M475.28,-176.5C484.93,-176.5 494.77,-176.5 504.57,-176.5"/>
<polygon fill="midnightblue" stroke="midnightblue" points="504.76,-180 514.76,-176.5 504.76,-173 504.76,-180"/>
</g>
<!-- Node4 -->
<g id="node4" class="node">
<title>Node4</title>
<g id="a_node4"><a xlink:href="class_markov_1_1_g_u_i_1_1_markov_passwords_g_u_i.html#a99619a46f49b909fafeaa6ac8076a333" target="_top" xlink:title=" ">
<polygon fill="none" stroke="black" points="530,-106.5 530,-140.5 733,-140.5 733,-106.5 530,-106.5"/>
<text text-anchor="start" x="538" y="-126.9" font-family="Helvetica,sans-Serif" font-size="12.00">Markov::GUI::MarkovPasswords</text>
<text text-anchor="middle" x="631.5" y="-113.9" font-family="Helvetica,sans-Serif" font-size="12.00">GUI::model</text>
</a>
</g>
</g>
<!-- Node2&#45;&gt;Node4 -->
<g id="edge3" class="edge">
<title>Node2&#45;&gt;Node4</title>
<path fill="none" stroke="midnightblue" d="M453.52,-159.44C480.06,-154.05 509.56,-148.06 536.74,-142.54"/>
<polygon fill="midnightblue" stroke="midnightblue" points="537.54,-145.95 546.64,-140.53 536.14,-139.09 537.54,-145.95"/>
</g>
<!-- Node5&#45;&gt;Node4 -->
<g id="edge5" class="edge">
<title>Node5&#45;&gt;Node4</title>
<path fill="none" stroke="midnightblue" d="M452.08,-123.5C473.45,-123.5 496.81,-123.5 519.38,-123.5"/>
<polygon fill="midnightblue" stroke="midnightblue" points="519.68,-127 529.68,-123.5 519.68,-120 519.68,-127"/>
</g>
<!-- Node6&#45;&gt;Node4 -->
<g id="edge8" class="edge">
<title>Node6&#45;&gt;Node4</title>
<path fill="none" stroke="midnightblue" d="M453.52,-87.56C480.06,-92.95 509.56,-98.94 536.74,-104.46"/>
<polygon fill="midnightblue" stroke="midnightblue" points="536.14,-107.91 546.64,-106.47 537.54,-101.05 536.14,-107.91"/>
</g>
<!-- Node7 -->
<g id="node7" class="node">
<title>Node7</title>
<g id="a_node7"><a xlink:href="class_python_1_1_markopy_1_1_model_matrix.html#ae42271d3f464fd17b5e91a95b3cffd27" target="_top" xlink:title=" ">
<polygon fill="none" stroke="black" points="535,-53.5 535,-87.5 728,-87.5 728,-53.5 535,-53.5"/>
<text text-anchor="start" x="543" y="-73.9" font-family="Helvetica,sans-Serif" font-size="12.00">Python.Markopy.ModelMatrix.</text>
<text text-anchor="middle" x="631.5" y="-60.9" font-family="Helvetica,sans-Serif" font-size="12.00">FastRandomWalk</text>
</a>
</g>
</g>
<!-- Node6&#45;&gt;Node7 -->
<g id="edge7" class="edge">
<title>Node6&#45;&gt;Node7</title>
<path fill="none" stroke="midnightblue" d="M463.36,-70.5C483.24,-70.5 504.35,-70.5 524.64,-70.5"/>
<polygon fill="midnightblue" stroke="midnightblue" points="524.84,-74 534.84,-70.5 524.84,-67 524.84,-74"/>
</g>
<!-- Node8&#45;&gt;Node4 -->
<g id="edge11" class="edge">
<title>Node8&#45;&gt;Node4</title>
<path fill="none" stroke="midnightblue" d="M461.39,-34.62C467.59,-37.43 473.54,-40.7 479,-44.5 502.37,-60.76 491.46,-81.47 515,-97.5 517.19,-98.99 519.46,-100.4 521.78,-101.73"/>
<polygon fill="midnightblue" stroke="midnightblue" points="520.52,-105.02 531.02,-106.47 523.72,-98.79 520.52,-105.02"/>
</g>
<!-- Node9 -->
<g id="node9" class="node">
<title>Node9</title>
<g id="a_node9"><a xlink:href="class_python_1_1_markopy_1_1_markov_model.html#a053683d627aaab8dec11ae020a2d09d3" target="_top" xlink:title=" ">
<polygon fill="none" stroke="black" points="531.5,-0.5 531.5,-34.5 731.5,-34.5 731.5,-0.5 531.5,-0.5"/>
<text text-anchor="start" x="539.5" y="-20.9" font-family="Helvetica,sans-Serif" font-size="12.00">Python.Markopy.MarkovModel.</text>
<text text-anchor="middle" x="631.5" y="-7.9" font-family="Helvetica,sans-Serif" font-size="12.00">Generate</text>
</a>
</g>
</g>
<!-- Node8&#45;&gt;Node9 -->
<g id="edge10" class="edge">
<title>Node8&#45;&gt;Node9</title>
<path fill="none" stroke="midnightblue" d="M479.05,-17.5C492.97,-17.5 507.22,-17.5 521.14,-17.5"/>
<polygon fill="midnightblue" stroke="midnightblue" points="521.2,-21 531.2,-17.5 521.2,-14 521.2,-21"/>
</g>
</g>
</svg>
