<?xml version="1.0" encoding="UTF-8" standalone="no"?>
<!DOCTYPE svg PUBLIC "-//W3C//DTD SVG 1.1//EN"
 "http://www.w3.org/Graphics/SVG/1.1/DTD/svg11.dtd">
<!-- Generated by graphviz version 2.43.0 (0)
 -->
<!-- Title: base.BaseCLI.parse Pages: 1 -->
<svg width="372pt" height="137pt"
 viewBox="0.00 0.00 372.00 136.50" xmlns="http://www.w3.org/2000/svg" xmlns:xlink="http://www.w3.org/1999/xlink">
<g id="graph0" class="graph" transform="scale(1 1) rotate(0) translate(4 132.5)">
<title>base.BaseCLI.parse</title>
<!-- Node1 -->
<g id="node1" class="node">
<title>Node1</title>
<g id="a_node1"><a xlink:title=" ">
<polygon fill="#bfbfbf" stroke="black" points="0,-60 0,-81 134,-81 134,-60 0,-60"/>
<text text-anchor="middle" x="67" y="-67.4" font-family="Helvetica,sans-Serif" font-size="12.00">base.BaseCLI.parse</text>
</a>
</g>
</g>
<!-- Node2 -->
<g id="node2" class="node">
<title>Node2</title>
<g id="a_node2"><a xlink:href="classbase_1_1_base_c_l_i.html#ae6dfeda797cbd1d32cf42d66d3caf225" target="_top" xlink:title=" ">
<polygon fill="none" stroke="black" points="170,-107 170,-128 364,-128 364,-107 170,-107"/>
<text text-anchor="middle" x="267" y="-114.4" font-family="Helvetica,sans-Serif" font-size="12.00">base.BaseCLI.add_arguments</text>
</a>
</g>
</g>
<!-- Node1&#45;&gt;Node2 -->
<g id="edge1" class="edge">
<title>Node1&#45;&gt;Node2</title>
<path fill="none" stroke="midnightblue" d="M106.14,-81.11C125.25,-86.3 148.79,-92.49 170,-97.5 180.59,-100 191.88,-102.5 202.86,-104.85"/>
<polygon fill="midnightblue" stroke="midnightblue" points="202.31,-108.31 212.82,-106.95 203.76,-101.46 202.31,-108.31"/>
</g>
<!-- Node3 -->
<g id="node3" class="node">
<title>Node3</title>
<g id="a_node3"><a xlink:href="classbase_1_1_base_c_l_i.html#aa1e67059dd0b710f61a58aed603fe4ed" target="_top" xlink:title=" ">
<polygon fill="none" stroke="black" points="192,-53.5 192,-87.5 342,-87.5 342,-53.5 192,-53.5"/>
<text text-anchor="start" x="200" y="-73.9" font-family="Helvetica,sans-Serif" font-size="12.00">base.BaseCLI.init_post</text>
<text text-anchor="middle" x="267" y="-60.9" font-family="Helvetica,sans-Serif" font-size="12.00">_arguments</text>
</a>
</g>
</g>
<!-- Node1&#45;&gt;Node3 -->
<g id="edge2" class="edge">
<title>Node1&#45;&gt;Node3</title>
<path fill="none" stroke="midnightblue" d="M134.21,-70.5C149.33,-70.5 165.61,-70.5 181.38,-70.5"/>
<polygon fill="midnightblue" stroke="midnightblue" points="181.66,-74 191.66,-70.5 181.66,-67 181.66,-74"/>
</g>
<!-- Node4 -->
<g id="node4" class="node">
<title>Node4</title>
<g id="a_node4"><a xlink:href="classbase_1_1_base_c_l_i.html#af7dd474789ac13215823e6ba0d7f1c95" target="_top" xlink:title=" ">
<polygon fill="none" stroke="black" points="200,-0.5 200,-34.5 334,-34.5 334,-0.5 200,-0.5"/>
<text text-anchor="start" x="208" y="-20.9" font-family="Helvetica,sans-Serif" font-size="12.00">base.BaseCLI.parse</text>
<text text-anchor="middle" x="267" y="-7.9" font-family="Helvetica,sans-Serif" font-size="12.00">_arguments</text>
</a>
</g>
</g>
<!-- Node1&#45;&gt;Node4 -->
<g id="edge3" class="edge">
<title>Node1&#45;&gt;Node4</title>
<path fill="none" stroke="midnightblue" d="M107.59,-59.9C131.82,-53.42 163.58,-44.91 192.3,-37.23"/>
<polygon fill="midnightblue" stroke="midnightblue" points="193.56,-40.51 202.31,-34.55 191.75,-33.75 193.56,-40.51"/>
</g>
</g>
</svg>
