<?xml version="1.0" encoding="UTF-8" standalone="no"?>
<!DOCTYPE svg PUBLIC "-//W3C//DTD SVG 1.1//EN"
 "http://www.w3.org/Graphics/SVG/1.1/DTD/svg11.dtd">
<!-- Generated by graphviz version 2.43.0 (0)
 -->
<!-- Title: base.BaseCLI.import_model Pages: 1 -->
<svg width="387pt" height="96pt"
 viewBox="0.00 0.00 387.00 96.00" xmlns="http://www.w3.org/2000/svg" xmlns:xlink="http://www.w3.org/1999/xlink">
<g id="graph0" class="graph" transform="scale(1 1) rotate(0) translate(4 92)">
<title>base.BaseCLI.import_model</title>
<!-- Node1 -->
<g id="node1" class="node">
<title>Node1</title>
<g id="a_node1"><a xlink:title=" ">
<polygon fill="#bfbfbf" stroke="black" points="0,-26.5 0,-60.5 140,-60.5 140,-26.5 0,-26.5"/>
<text text-anchor="start" x="8" y="-46.9" font-family="Helvetica,sans-Serif" font-size="12.00">base.BaseCLI.import</text>
<text text-anchor="middle" x="70" y="-33.9" font-family="Helvetica,sans-Serif" font-size="12.00">_model</text>
</a>
</g>
</g>
<!-- Node2 -->
<g id="node2" class="node">
<title>Node2</title>
<g id="a_node2"><a xlink:href="classbase_1_1_base_c_l_i.html#a8839aad437c2dfba5481a744274ff580" target="_top" xlink:title=" ">
<polygon fill="none" stroke="black" points="209.5,-53.5 209.5,-87.5 345.5,-87.5 345.5,-53.5 209.5,-53.5"/>
<text text-anchor="start" x="217.5" y="-73.9" font-family="Helvetica,sans-Serif" font-size="12.00">base.BaseCLI.check</text>
<text text-anchor="middle" x="277.5" y="-60.9" font-family="Helvetica,sans-Serif" font-size="12.00">_import_path</text>
</a>
</g>
</g>
<!-- Node1&#45;&gt;Node2 -->
<g id="edge1" class="edge">
<title>Node1&#45;&gt;Node2</title>
<path fill="none" stroke="midnightblue" d="M140,-52.57C159.06,-55.07 179.87,-57.8 199.37,-60.37"/>
<polygon fill="midnightblue" stroke="midnightblue" points="199.05,-63.85 209.42,-61.69 199.97,-56.91 199.05,-63.85"/>
</g>
<!-- Node3 -->
<g id="node3" class="node">
<title>Node3</title>
<g id="a_node3"><a xlink:href="class_markov_1_1_g_u_i_1_1_markov_passwords_g_u_i.html#a99619a46f49b909fafeaa6ac8076a333" target="_top" xlink:title=" ">
<polygon fill="none" stroke="black" points="176,-0.5 176,-34.5 379,-34.5 379,-0.5 176,-0.5"/>
<text text-anchor="start" x="184" y="-20.9" font-family="Helvetica,sans-Serif" font-size="12.00">Markov::GUI::MarkovPasswords</text>
<text text-anchor="middle" x="277.5" y="-7.9" font-family="Helvetica,sans-Serif" font-size="12.00">GUI::model</text>
</a>
</g>
</g>
<!-- Node1&#45;&gt;Node3 -->
<g id="edge2" class="edge">
<title>Node1&#45;&gt;Node3</title>
<path fill="none" stroke="midnightblue" d="M140,-34.77C148.39,-33.71 157.11,-32.61 165.91,-31.49"/>
<polygon fill="midnightblue" stroke="midnightblue" points="166.39,-34.96 175.87,-30.23 165.51,-28.01 166.39,-34.96"/>
</g>
</g>
</svg>
