<?xml version="1.0" encoding="UTF-8" standalone="no"?>
<!DOCTYPE svg PUBLIC "-//W3C//DTD SVG 1.1//EN"
 "http://www.w3.org/Graphics/SVG/1.1/DTD/svg11.dtd">
<!-- Generated by graphviz version 2.43.0 (0)
 -->
<!-- Title: Markov::API::CUDA::CUDAModelMatrix Pages: 1 -->
<svg width="1269pt" height="1682pt"
 viewBox="0.00 0.00 1269.31 1682.00" xmlns="http://www.w3.org/2000/svg" xmlns:xlink="http://www.w3.org/1999/xlink">
<g id="graph0" class="graph" transform="scale(1 1) rotate(0) translate(4 1678)">
<title>Markov::API::CUDA::CUDAModelMatrix</title>
<!-- Node1 -->
<g id="node1" class="node">
<title>Node1</title>
<g id="a_node1"><a xlink:title="Extension of Markov::API::ModelMatrix which is modified to run on GPU devices.">
<polygon fill="#bfbfbf" stroke="black" points="381.31,-0.5 381.31,-180.5 582.31,-180.5 582.31,-0.5 381.31,-0.5"/>
<text text-anchor="start" x="389.31" y="-166.9" font-family="Helvetica,sans-Serif" font-size="12.00">Markov::API::CUDA::</text>
<text text-anchor="middle" x="481.81" y="-153.9" font-family="Helvetica,sans-Serif" font-size="12.00">CUDAModelMatrix</text>
<polyline fill="none" stroke="black" points="381.31,-146.5 582.31,-146.5 "/>
<text text-anchor="start" x="389.31" y="-132.9" font-family="Helvetica,sans-Serif" font-size="12.00">&#45; cudaBlocks</text>
<text text-anchor="start" x="389.31" y="-119.9" font-family="Helvetica,sans-Serif" font-size="12.00">&#45; iterationsPerKernelThread</text>
<text text-anchor="start" x="389.31" y="-106.9" font-family="Helvetica,sans-Serif" font-size="12.00">&#45; totalOutputPerKernel</text>
<polyline fill="none" stroke="black" points="381.31,-99.5 582.31,-99.5 "/>
<text text-anchor="start" x="389.31" y="-85.9" font-family="Helvetica,sans-Serif" font-size="12.00">+ MigrateMatrix()</text>
<text text-anchor="start" x="389.31" y="-72.9" font-family="Helvetica,sans-Serif" font-size="12.00">+ FlattenMatrix()</text>
<text text-anchor="start" x="389.31" y="-59.9" font-family="Helvetica,sans-Serif" font-size="12.00">+ FastRandomWalk()</text>
<text text-anchor="start" x="389.31" y="-46.9" font-family="Helvetica,sans-Serif" font-size="12.00"># AllocVRAMOutputBuffer()</text>
<text text-anchor="start" x="389.31" y="-33.9" font-family="Helvetica,sans-Serif" font-size="12.00"># LaunchAsyncKernel()</text>
<text text-anchor="start" x="389.31" y="-20.9" font-family="Helvetica,sans-Serif" font-size="12.00"># prepKernelMemoryChannel()</text>
<text text-anchor="start" x="389.31" y="-7.9" font-family="Helvetica,sans-Serif" font-size="12.00"># GatherAsyncKernelOutput()</text>
</a>
</g>
</g>
<!-- Node2 -->
<g id="node2" class="node">
<title>Node2</title>
<g id="a_node2"><a xlink:href="class_markov_1_1_a_p_i_1_1_model_matrix.html" target="_top" xlink:title="Class to flatten and reduce Markov::Model to a Matrix.">
<polygon fill="none" stroke="black" points="239.31,-230.5 239.31,-410.5 428.31,-410.5 428.31,-230.5 239.31,-230.5"/>
<text text-anchor="middle" x="333.81" y="-396.9" font-family="Helvetica,sans-Serif" font-size="12.00">Markov::API::ModelMatrix</text>
<polyline fill="none" stroke="black" points="239.31,-389.5 428.31,-389.5 "/>
<text text-anchor="middle" x="333.81" y="-375.9" font-family="Helvetica,sans-Serif" font-size="12.00"> </text>
<polyline fill="none" stroke="black" points="239.31,-368.5 428.31,-368.5 "/>
<text text-anchor="start" x="247.31" y="-354.9" font-family="Helvetica,sans-Serif" font-size="12.00">+ ModelMatrix()</text>
<text text-anchor="start" x="247.31" y="-341.9" font-family="Helvetica,sans-Serif" font-size="12.00">+ ConstructMatrix()</text>
<text text-anchor="start" x="247.31" y="-328.9" font-family="Helvetica,sans-Serif" font-size="12.00">+ DumpJSON()</text>
<text text-anchor="start" x="247.31" y="-315.9" font-family="Helvetica,sans-Serif" font-size="12.00">+ FastRandomWalk()</text>
<text text-anchor="start" x="247.31" y="-302.9" font-family="Helvetica,sans-Serif" font-size="12.00">+ Import()</text>
<text text-anchor="start" x="247.31" y="-289.9" font-family="Helvetica,sans-Serif" font-size="12.00">+ Train()</text>
<text text-anchor="start" x="247.31" y="-276.9" font-family="Helvetica,sans-Serif" font-size="12.00"># FastRandomWalk()</text>
<text text-anchor="start" x="247.31" y="-263.9" font-family="Helvetica,sans-Serif" font-size="12.00"># FastRandomWalkPartition()</text>
<text text-anchor="start" x="247.31" y="-250.9" font-family="Helvetica,sans-Serif" font-size="12.00"># FastRandomWalkThread()</text>
<text text-anchor="start" x="247.31" y="-237.9" font-family="Helvetica,sans-Serif" font-size="12.00"># DeallocateMatrix()</text>
</a>
</g>
</g>
<!-- Node2&#45;&gt;Node1 -->
<g id="edge1" class="edge">
<title>Node2&#45;&gt;Node1</title>
<path fill="none" stroke="midnightblue" d="M397.18,-221.88C406.09,-208.16 415.2,-194.12 424,-180.57"/>
<polygon fill="none" stroke="midnightblue" points="394.18,-220.08 391.67,-230.37 400.05,-223.89 394.18,-220.08"/>
</g>
<!-- Node3 -->
<g id="node3" class="node">
<title>Node3</title>
<g id="a_node3"><a xlink:href="class_markov_1_1_a_p_i_1_1_markov_passwords.html" target="_top" xlink:title="Markov::Model with char represented nodes.">
<polygon fill="none" stroke="black" points="682.81,-473.5 682.81,-640.5 882.81,-640.5 882.81,-473.5 682.81,-473.5"/>
<text text-anchor="middle" x="782.81" y="-626.9" font-family="Helvetica,sans-Serif" font-size="12.00">Markov::API::MarkovPasswords</text>
<polyline fill="none" stroke="black" points="682.81,-619.5 882.81,-619.5 "/>
<text text-anchor="middle" x="782.81" y="-605.9" font-family="Helvetica,sans-Serif" font-size="12.00"> </text>
<polyline fill="none" stroke="black" points="682.81,-598.5 882.81,-598.5 "/>
<text text-anchor="start" x="690.81" y="-584.9" font-family="Helvetica,sans-Serif" font-size="12.00">+ MarkovPasswords()</text>
<text text-anchor="start" x="690.81" y="-571.9" font-family="Helvetica,sans-Serif" font-size="12.00">+ MarkovPasswords()</text>
<text text-anchor="start" x="690.81" y="-558.9" font-family="Helvetica,sans-Serif" font-size="12.00">+ OpenDatasetFile()</text>
<text text-anchor="start" x="690.81" y="-545.9" font-family="Helvetica,sans-Serif" font-size="12.00">+ Train()</text>
<text text-anchor="start" x="690.81" y="-532.9" font-family="Helvetica,sans-Serif" font-size="12.00">+ Save()</text>
<text text-anchor="start" x="690.81" y="-519.9" font-family="Helvetica,sans-Serif" font-size="12.00">+ Generate()</text>
<text text-anchor="start" x="690.81" y="-506.9" font-family="Helvetica,sans-Serif" font-size="12.00">+ Buff()</text>
<text text-anchor="start" x="690.81" y="-493.9" font-family="Helvetica,sans-Serif" font-size="12.00">&#45; TrainThread()</text>
<text text-anchor="start" x="690.81" y="-480.9" font-family="Helvetica,sans-Serif" font-size="12.00">&#45; GenerateThread()</text>
</a>
</g>
</g>
<!-- Node3&#45;&gt;Node2 -->
<g id="edge2" class="edge">
<title>Node3&#45;&gt;Node2</title>
<path fill="none" stroke="midnightblue" d="M672.77,-520.09C602.52,-494.75 511.04,-457.14 436.81,-411 434,-409.25 431.18,-407.42 428.37,-405.53"/>
<polygon fill="none" stroke="midnightblue" points="671.94,-523.51 682.54,-523.59 674.3,-516.92 671.94,-523.51"/>
</g>
<!-- Node4 -->
<g id="node4" class="node">
<title>Node4</title>
<g id="a_node4"><a xlink:href="class_markov_1_1_model.html" target="_top" xlink:title=" ">
<polygon fill="none" stroke="black" points="703.81,-703.5 703.81,-896.5 861.81,-896.5 861.81,-703.5 703.81,-703.5"/>
<text text-anchor="middle" x="782.81" y="-882.9" font-family="Helvetica,sans-Serif" font-size="12.00">Markov::Model&lt; char &gt;</text>
<polyline fill="none" stroke="black" points="703.81,-875.5 861.81,-875.5 "/>
<text text-anchor="middle" x="782.81" y="-861.9" font-family="Helvetica,sans-Serif" font-size="12.00"> </text>
<polyline fill="none" stroke="black" points="703.81,-854.5 861.81,-854.5 "/>
<text text-anchor="start" x="711.81" y="-840.9" font-family="Helvetica,sans-Serif" font-size="12.00">+ Model()</text>
<text text-anchor="start" x="711.81" y="-827.9" font-family="Helvetica,sans-Serif" font-size="12.00">+ RandomWalk()</text>
<text text-anchor="start" x="711.81" y="-814.9" font-family="Helvetica,sans-Serif" font-size="12.00">+ AdjustEdge()</text>
<text text-anchor="start" x="711.81" y="-801.9" font-family="Helvetica,sans-Serif" font-size="12.00">+ Import()</text>
<text text-anchor="start" x="711.81" y="-788.9" font-family="Helvetica,sans-Serif" font-size="12.00">+ Import()</text>
<text text-anchor="start" x="711.81" y="-775.9" font-family="Helvetica,sans-Serif" font-size="12.00">+ Export()</text>
<text text-anchor="start" x="711.81" y="-762.9" font-family="Helvetica,sans-Serif" font-size="12.00">+ Export()</text>
<text text-anchor="start" x="711.81" y="-749.9" font-family="Helvetica,sans-Serif" font-size="12.00">+ StarterNode()</text>
<text text-anchor="start" x="711.81" y="-736.9" font-family="Helvetica,sans-Serif" font-size="12.00">+ Edges()</text>
<text text-anchor="start" x="711.81" y="-723.9" font-family="Helvetica,sans-Serif" font-size="12.00">+ Nodes()</text>
<text text-anchor="start" x="711.81" y="-710.9" font-family="Helvetica,sans-Serif" font-size="12.00">+ OptimizeEdgeOrder()</text>
</a>
</g>
</g>
<!-- Node4&#45;&gt;Node3 -->
<g id="edge3" class="edge">
<title>Node4&#45;&gt;Node3</title>
<path fill="none" stroke="midnightblue" d="M782.81,-693.11C782.81,-675.53 782.81,-657.53 782.81,-640.63"/>
<polygon fill="none" stroke="midnightblue" points="779.31,-693.4 782.81,-703.4 786.31,-693.4 779.31,-693.4"/>
</g>
<!-- Node5 -->
<g id="node5" class="node">
<title>Node5</title>
<g id="a_node5"><a xlink:title=" ">
<polygon fill="none" stroke="#bfbfbf" points="500.31,-1170 500.31,-1246 661.31,-1246 661.31,-1170 500.31,-1170"/>
<text text-anchor="start" x="508.31" y="-1232.4" font-family="Helvetica,sans-Serif" font-size="12.00">std::map&lt; char, Markov</text>
<text text-anchor="middle" x="580.81" y="-1219.4" font-family="Helvetica,sans-Serif" font-size="12.00">::Node&lt; char &gt; * &gt;</text>
<polyline fill="none" stroke="#bfbfbf" points="500.31,-1212 661.31,-1212 "/>
<text text-anchor="middle" x="580.81" y="-1198.4" font-family="Helvetica,sans-Serif" font-size="12.00"> </text>
<polyline fill="none" stroke="#bfbfbf" points="500.31,-1191 661.31,-1191 "/>
<text text-anchor="middle" x="580.81" y="-1177.4" font-family="Helvetica,sans-Serif" font-size="12.00"> </text>
</a>
</g>
</g>
<!-- Node5&#45;&gt;Node4 -->
<g id="edge4" class="edge">
<title>Node5&#45;&gt;Node4</title>
<path fill="none" stroke="#404040" d="M592.4,-1169.83C606.21,-1127.31 631.07,-1056.05 659.81,-998 674.87,-967.59 693.32,-935.88 711.31,-907.02"/>
<polygon fill="none" stroke="#404040" points="711.52,-906.68 711.33,-899.47 717.91,-896.52 718.1,-903.73 711.52,-906.68"/>
<text text-anchor="middle" x="682.31" y="-1033.4" font-family="Helvetica,sans-Serif" font-size="12.00"> &#45;nodes</text>
</g>
<!-- Node6 -->
<g id="node6" class="node">
<title>Node6</title>
<g id="a_node6"><a xlink:href="classchar.html" target="_top" xlink:title=" ">
<polygon fill="none" stroke="black" points="333.81,-1610.5 333.81,-1673.5 377.81,-1673.5 377.81,-1610.5 333.81,-1610.5"/>
<text text-anchor="middle" x="355.81" y="-1659.9" font-family="Helvetica,sans-Serif" font-size="12.00">char</text>
<polyline fill="none" stroke="black" points="333.81,-1652.5 377.81,-1652.5 "/>
<text text-anchor="middle" x="355.81" y="-1638.9" font-family="Helvetica,sans-Serif" font-size="12.00"> </text>
<polyline fill="none" stroke="black" points="333.81,-1631.5 377.81,-1631.5 "/>
<text text-anchor="middle" x="355.81" y="-1617.9" font-family="Helvetica,sans-Serif" font-size="12.00"> </text>
</a>
</g>
</g>
<!-- Node6&#45;&gt;Node1 -->
<g id="edge33" class="edge">
<title>Node6&#45;&gt;Node1</title>
<path fill="none" stroke="#404040" d="M333.67,-1640.03C256.17,-1635.35 1.81,-1608.54 1.81,-1458.5 1.81,-1458.5 1.81,-1458.5 1.81,-319.5 1.81,-279.09 -5.44,-263.04 17.81,-230 33.74,-207.37 46.21,-209.49 71.81,-199 169.11,-159.15 285.51,-130.29 369.39,-112.58"/>
<polygon fill="none" stroke="#404040" points="369.51,-112.55 374.57,-107.41 381.26,-110.1 376.2,-115.24 369.51,-112.55"/>
<text text-anchor="middle" x="66.81" y="-970.4" font-family="Helvetica,sans-Serif" font-size="12.00"> &#45;device_outputBuffer</text>
<text text-anchor="middle" x="66.81" y="-957.4" font-family="Helvetica,sans-Serif" font-size="12.00">&#45;outputBuffer</text>
<text text-anchor="middle" x="66.81" y="-944.4" font-family="Helvetica,sans-Serif" font-size="12.00">&#45;device_matrixIndex</text>
<text text-anchor="middle" x="66.81" y="-931.4" font-family="Helvetica,sans-Serif" font-size="12.00">&#45;flatEdgeMatrix</text>
<text text-anchor="middle" x="66.81" y="-918.4" font-family="Helvetica,sans-Serif" font-size="12.00">&#45;device_edgeMatrix</text>
</g>
<!-- Node6&#45;&gt;Node2 -->
<g id="edge27" class="edge">
<title>Node6&#45;&gt;Node2</title>
<path fill="none" stroke="#404040" d="M345.16,-1610.43C333.61,-1574.52 316.81,-1512.93 316.81,-1458.5 316.81,-1458.5 316.81,-1458.5 316.81,-556 316.81,-512.25 319.79,-464.04 323.26,-422.76"/>
<polygon fill="none" stroke="#404040" points="323.26,-422.71 319.79,-416.38 324.3,-410.75 327.76,-417.07 323.26,-422.71"/>
<text text-anchor="middle" x="359.81" y="-1039.9" font-family="Helvetica,sans-Serif" font-size="12.00"> #matrixIndex</text>
<text text-anchor="middle" x="359.81" y="-1026.9" font-family="Helvetica,sans-Serif" font-size="12.00">#edgeMatrix</text>
</g>
<!-- Node6&#45;&gt;Node5 -->
<g id="edge5" class="edge">
<title>Node6&#45;&gt;Node5</title>
<path fill="none" stroke="#404040" d="M371.82,-1610.28C410.47,-1536.06 509.18,-1346.53 555.76,-1257.1"/>
<polygon fill="none" stroke="#404040" points="555.9,-1256.83 555.13,-1249.66 561.44,-1246.19 562.22,-1253.36 555.9,-1256.83"/>
<text text-anchor="middle" x="526.31" y="-1454.4" font-family="Helvetica,sans-Serif" font-size="12.00"> +keys</text>
</g>
<!-- Node7 -->
<g id="node7" class="node">
<title>Node7</title>
<g id="a_node7"><a xlink:href="class_markov_1_1_node.html" target="_top" xlink:title=" ">
<polygon fill="none" stroke="black" points="602.31,-1354.5 602.31,-1560.5 793.31,-1560.5 793.31,-1354.5 602.31,-1354.5"/>
<text text-anchor="middle" x="697.81" y="-1546.9" font-family="Helvetica,sans-Serif" font-size="12.00">Markov::Node&lt; char &gt;</text>
<polyline fill="none" stroke="black" points="602.31,-1539.5 793.31,-1539.5 "/>
<text text-anchor="middle" x="697.81" y="-1525.9" font-family="Helvetica,sans-Serif" font-size="12.00"> </text>
<polyline fill="none" stroke="black" points="602.31,-1518.5 793.31,-1518.5 "/>
<text text-anchor="start" x="610.31" y="-1504.9" font-family="Helvetica,sans-Serif" font-size="12.00">+ Node()</text>
<text text-anchor="start" x="610.31" y="-1491.9" font-family="Helvetica,sans-Serif" font-size="12.00">+ Node()</text>
<text text-anchor="start" x="610.31" y="-1478.9" font-family="Helvetica,sans-Serif" font-size="12.00">+ Link()</text>
<text text-anchor="start" x="610.31" y="-1465.9" font-family="Helvetica,sans-Serif" font-size="12.00">+ Link()</text>
<text text-anchor="start" x="610.31" y="-1452.9" font-family="Helvetica,sans-Serif" font-size="12.00">+ RandomNext()</text>
<text text-anchor="start" x="610.31" y="-1439.9" font-family="Helvetica,sans-Serif" font-size="12.00">+ UpdateEdges()</text>
<text text-anchor="start" x="610.31" y="-1426.9" font-family="Helvetica,sans-Serif" font-size="12.00">+ FindEdge()</text>
<text text-anchor="start" x="610.31" y="-1413.9" font-family="Helvetica,sans-Serif" font-size="12.00">+ FindEdge()</text>
<text text-anchor="start" x="610.31" y="-1400.9" font-family="Helvetica,sans-Serif" font-size="12.00">+ NodeValue()</text>
<text text-anchor="start" x="610.31" y="-1387.9" font-family="Helvetica,sans-Serif" font-size="12.00">+ UpdateTotalVerticeWeight()</text>
<text text-anchor="start" x="610.31" y="-1374.9" font-family="Helvetica,sans-Serif" font-size="12.00">+ Edges()</text>
<text text-anchor="start" x="610.31" y="-1361.9" font-family="Helvetica,sans-Serif" font-size="12.00">+ TotalEdgeWeights()</text>
</a>
</g>
</g>
<!-- Node6&#45;&gt;Node7 -->
<g id="edge7" class="edge">
<title>Node6&#45;&gt;Node7</title>
<path fill="none" stroke="#404040" d="M377.99,-1629.17C420.38,-1606.54 515.43,-1555.82 590.96,-1515.52"/>
<polygon fill="none" stroke="#404040" points="591.36,-1515.31 594.77,-1508.95 601.95,-1509.66 598.54,-1516.01 591.36,-1515.31"/>
<text text-anchor="middle" x="490.31" y="-1582.4" font-family="Helvetica,sans-Serif" font-size="12.00"> &#45;_value</text>
</g>
<!-- Node8 -->
<g id="node8" class="node">
<title>Node8</title>
<g id="a_node8"><a xlink:title=" ">
<polygon fill="none" stroke="#bfbfbf" points="421.31,-998.5 421.31,-1074.5 582.31,-1074.5 582.31,-998.5 421.31,-998.5"/>
<text text-anchor="start" x="429.31" y="-1060.9" font-family="Helvetica,sans-Serif" font-size="12.00">std::map&lt; char, Markov</text>
<text text-anchor="middle" x="501.81" y="-1047.9" font-family="Helvetica,sans-Serif" font-size="12.00">::Edge&lt; char &gt; * &gt;</text>
<polyline fill="none" stroke="#bfbfbf" points="421.31,-1040.5 582.31,-1040.5 "/>
<text text-anchor="middle" x="501.81" y="-1026.9" font-family="Helvetica,sans-Serif" font-size="12.00"> </text>
<polyline fill="none" stroke="#bfbfbf" points="421.31,-1019.5 582.31,-1019.5 "/>
<text text-anchor="middle" x="501.81" y="-1005.9" font-family="Helvetica,sans-Serif" font-size="12.00"> </text>
</a>
</g>
</g>
<!-- Node6&#45;&gt;Node8 -->
<g id="edge9" class="edge">
<title>Node6&#45;&gt;Node8</title>
<path fill="none" stroke="#404040" d="M353.33,-1610.36C347.89,-1527.49 341.2,-1293.74 420.81,-1124 427.64,-1109.45 437.83,-1095.73 448.71,-1083.69"/>
<polygon fill="none" stroke="#404040" points="448.87,-1083.53 450.09,-1076.42 457.12,-1074.82 455.9,-1081.92 448.87,-1083.53"/>
<text text-anchor="middle" x="387.31" y="-1319.9" font-family="Helvetica,sans-Serif" font-size="12.00"> +keys</text>
</g>
<!-- Node7&#45;&gt;Node4 -->
<g id="edge16" class="edge">
<title>Node7&#45;&gt;Node4</title>
<path fill="none" stroke="#404040" d="M793.42,-1417.17C845.38,-1390.25 904.98,-1349.03 934.81,-1292 1000.1,-1167.21 927.11,-1009.66 861.53,-907.18"/>
<polygon fill="none" stroke="#404040" points="861.34,-906.89 854.72,-904.03 854.81,-896.82 861.43,-899.68 861.34,-906.89"/>
<text text-anchor="middle" x="990.31" y="-1096.4" font-family="Helvetica,sans-Serif" font-size="12.00"> &#45;starterNode</text>
</g>
<!-- Node7&#45;&gt;Node5 -->
<g id="edge6" class="edge">
<title>Node7&#45;&gt;Node5</title>
<path fill="none" stroke="#404040" d="M623.14,-1354.41C619.78,-1348.3 616.64,-1342.14 613.81,-1336 602.44,-1311.31 594.5,-1282.04 589.27,-1257.82"/>
<polygon fill="none" stroke="#404040" points="589.26,-1257.78 584.13,-1252.71 586.84,-1246.03 591.97,-1251.1 589.26,-1257.78"/>
<text text-anchor="middle" x="648.81" y="-1319.9" font-family="Helvetica,sans-Serif" font-size="12.00"> +elements</text>
</g>
<!-- Node9 -->
<g id="node9" class="node">
<title>Node9</title>
<g id="a_node9"><a xlink:href="class_markov_1_1_edge.html" target="_top" xlink:title=" ">
<polygon fill="none" stroke="black" points="773.81,-1124.5 773.81,-1291.5 925.81,-1291.5 925.81,-1124.5 773.81,-1124.5"/>
<text text-anchor="middle" x="849.81" y="-1277.9" font-family="Helvetica,sans-Serif" font-size="12.00">Markov::Edge&lt; char &gt;</text>
<polyline fill="none" stroke="black" points="773.81,-1270.5 925.81,-1270.5 "/>
<text text-anchor="middle" x="849.81" y="-1256.9" font-family="Helvetica,sans-Serif" font-size="12.00"> </text>
<polyline fill="none" stroke="black" points="773.81,-1249.5 925.81,-1249.5 "/>
<text text-anchor="start" x="781.81" y="-1235.9" font-family="Helvetica,sans-Serif" font-size="12.00">+ Edge()</text>
<text text-anchor="start" x="781.81" y="-1222.9" font-family="Helvetica,sans-Serif" font-size="12.00">+ Edge()</text>
<text text-anchor="start" x="781.81" y="-1209.9" font-family="Helvetica,sans-Serif" font-size="12.00">+ AdjustEdge()</text>
<text text-anchor="start" x="781.81" y="-1196.9" font-family="Helvetica,sans-Serif" font-size="12.00">+ TraverseNode()</text>
<text text-anchor="start" x="781.81" y="-1183.9" font-family="Helvetica,sans-Serif" font-size="12.00">+ SetLeftEdge()</text>
<text text-anchor="start" x="781.81" y="-1170.9" font-family="Helvetica,sans-Serif" font-size="12.00">+ SetRightEdge()</text>
<text text-anchor="start" x="781.81" y="-1157.9" font-family="Helvetica,sans-Serif" font-size="12.00">+ EdgeWeight()</text>
<text text-anchor="start" x="781.81" y="-1144.9" font-family="Helvetica,sans-Serif" font-size="12.00">+ LeftNode()</text>
<text text-anchor="start" x="781.81" y="-1131.9" font-family="Helvetica,sans-Serif" font-size="12.00">+ RightNode()</text>
</a>
</g>
</g>
<!-- Node7&#45;&gt;Node9 -->
<g id="edge12" class="edge">
<title>Node7&#45;&gt;Node9</title>
<path fill="none" stroke="#404040" d="M760.52,-1354.4C771.15,-1337.09 782.14,-1319.19 792.62,-1302.13"/>
<polygon fill="none" stroke="#404040" points="792.79,-1301.85 792.52,-1294.64 799.07,-1291.62 799.34,-1298.83 792.79,-1301.85"/>
<text text-anchor="middle" x="806.31" y="-1326.4" font-family="Helvetica,sans-Serif" font-size="12.00"> &#45;_left</text>
<text text-anchor="middle" x="806.31" y="-1313.4" font-family="Helvetica,sans-Serif" font-size="12.00">&#45;_right</text>
</g>
<!-- Node8&#45;&gt;Node7 -->
<g id="edge8" class="edge">
<title>Node8&#45;&gt;Node7</title>
<path fill="none" stroke="#404040" d="M471.01,-1074.75C460.92,-1089.21 450.98,-1106.5 445.81,-1124 424.66,-1195.61 410.26,-1226.34 445.81,-1292 476.77,-1349.17 537.16,-1389.62 591.07,-1416.11"/>
<polygon fill="none" stroke="#404040" points="591.28,-1416.21 598.42,-1415.19 602.11,-1421.39 594.97,-1422.41 591.28,-1416.21"/>
<text text-anchor="middle" x="468.31" y="-1204.9" font-family="Helvetica,sans-Serif" font-size="12.00"> &#45;edges</text>
</g>
<!-- Node9&#45;&gt;Node8 -->
<g id="edge10" class="edge">
<title>Node9&#45;&gt;Node8</title>
<path fill="none" stroke="#404040" d="M773.76,-1132.84C769.18,-1129.66 764.52,-1126.69 759.81,-1124 694.11,-1086.51 668.28,-1099.8 596.81,-1075 595.93,-1074.69 595.05,-1074.39 594.16,-1074.08"/>
<polygon fill="none" stroke="#404040" points="593.78,-1073.94 586.79,-1075.67 582.49,-1069.88 589.49,-1068.14 593.78,-1073.94"/>
<text text-anchor="middle" x="755.81" y="-1096.4" font-family="Helvetica,sans-Serif" font-size="12.00"> +elements</text>
</g>
<!-- Node11 -->
<g id="node11" class="node">
<title>Node11</title>
<g id="a_node11"><a xlink:title=" ">
<polygon fill="none" stroke="#bfbfbf" points="713.81,-998.5 713.81,-1074.5 851.81,-1074.5 851.81,-998.5 713.81,-998.5"/>
<text text-anchor="start" x="721.81" y="-1060.9" font-family="Helvetica,sans-Serif" font-size="12.00">std::vector&lt; Markov</text>
<text text-anchor="middle" x="782.81" y="-1047.9" font-family="Helvetica,sans-Serif" font-size="12.00">::Edge&lt; char &gt; * &gt;</text>
<polyline fill="none" stroke="#bfbfbf" points="713.81,-1040.5 851.81,-1040.5 "/>
<text text-anchor="middle" x="782.81" y="-1026.9" font-family="Helvetica,sans-Serif" font-size="12.00"> </text>
<polyline fill="none" stroke="#bfbfbf" points="713.81,-1019.5 851.81,-1019.5 "/>
<text text-anchor="middle" x="782.81" y="-1005.9" font-family="Helvetica,sans-Serif" font-size="12.00"> </text>
</a>
</g>
</g>
<!-- Node9&#45;&gt;Node11 -->
<g id="edge15" class="edge">
<title>Node9&#45;&gt;Node11</title>
<path fill="none" stroke="#404040" d="M817.1,-1124.24C811.97,-1111.25 806.81,-1098.21 802.11,-1086.32"/>
<polygon fill="none" stroke="#404040" points="801.99,-1086.02 796.07,-1081.91 797.58,-1074.86 803.51,-1078.97 801.99,-1086.02"/>
<text text-anchor="middle" x="842.81" y="-1096.4" font-family="Helvetica,sans-Serif" font-size="12.00"> +elements</text>
</g>
<!-- Node10 -->
<g id="node10" class="node">
<title>Node10</title>
<g id="a_node10"><a xlink:href="classlong_01int.html" target="_top" xlink:title=" ">
<polygon fill="none" stroke="black" points="861.31,-1610.5 861.31,-1673.5 922.31,-1673.5 922.31,-1610.5 861.31,-1610.5"/>
<text text-anchor="middle" x="891.81" y="-1659.9" font-family="Helvetica,sans-Serif" font-size="12.00">long int</text>
<polyline fill="none" stroke="black" points="861.31,-1652.5 922.31,-1652.5 "/>
<text text-anchor="middle" x="891.81" y="-1638.9" font-family="Helvetica,sans-Serif" font-size="12.00"> </text>
<polyline fill="none" stroke="black" points="861.31,-1631.5 922.31,-1631.5 "/>
<text text-anchor="middle" x="891.81" y="-1617.9" font-family="Helvetica,sans-Serif" font-size="12.00"> </text>
</a>
</g>
</g>
<!-- Node10&#45;&gt;Node7 -->
<g id="edge13" class="edge">
<title>Node10&#45;&gt;Node7</title>
<path fill="none" stroke="#404040" d="M861.07,-1612.08C844.83,-1596.8 823.83,-1577.05 802.34,-1556.83"/>
<polygon fill="none" stroke="#404040" points="802.18,-1556.68 795.07,-1555.48 793.44,-1548.46 800.55,-1549.66 802.18,-1556.68"/>
<text text-anchor="middle" x="895.81" y="-1582.4" font-family="Helvetica,sans-Serif" font-size="12.00"> &#45;total_edge_weights</text>
</g>
<!-- Node10&#45;&gt;Node9 -->
<g id="edge11" class="edge">
<title>Node10&#45;&gt;Node9</title>
<path fill="none" stroke="#404040" d="M922.4,-1627.97C937.17,-1619.93 953.46,-1608.05 961.81,-1592 964.48,-1586.88 962.66,-1584.72 961.81,-1579 947.56,-1482.74 913.53,-1376.83 886.69,-1303.08"/>
<polygon fill="none" stroke="#404040" points="886.58,-1302.79 880.76,-1298.53 882.45,-1291.52 888.27,-1295.78 886.58,-1302.79"/>
<text text-anchor="middle" x="985.31" y="-1454.4" font-family="Helvetica,sans-Serif" font-size="12.00"> &#45;_weight</text>
</g>
<!-- Node11&#45;&gt;Node4 -->
<g id="edge17" class="edge">
<title>Node11&#45;&gt;Node4</title>
<path fill="none" stroke="#404040" d="M782.81,-998.34C782.81,-974.07 782.81,-941.01 782.81,-908.9"/>
<polygon fill="none" stroke="#404040" points="782.81,-908.66 778.81,-902.66 782.81,-896.66 786.81,-902.66 782.81,-908.66"/>
<text text-anchor="middle" x="805.31" y="-944.4" font-family="Helvetica,sans-Serif" font-size="12.00"> &#45;edges</text>
</g>
<!-- Node11&#45;&gt;Node7 -->
<g id="edge14" class="edge">
<title>Node11&#45;&gt;Node7</title>
<path fill="none" stroke="#404040" d="M739.88,-1074.84C726.79,-1088.81 713.97,-1105.76 706.81,-1124 691.72,-1162.48 690.69,-1261.89 692.72,-1342.06"/>
<polygon fill="none" stroke="#404040" points="692.72,-1342.25 696.89,-1348.14 693.05,-1354.24 688.89,-1348.36 692.72,-1342.25"/>
<text text-anchor="middle" x="735.81" y="-1204.9" font-family="Helvetica,sans-Serif" font-size="12.00"> +edgesV</text>
</g>
<!-- Node12 -->
<g id="node12" class="node">
<title>Node12</title>
<g id="a_node12"><a xlink:title="STL class.">
<polygon fill="none" stroke="#bfbfbf" points="904.81,-768.5 904.81,-831.5 996.81,-831.5 996.81,-768.5 904.81,-768.5"/>
<text text-anchor="middle" x="950.81" y="-817.9" font-family="Helvetica,sans-Serif" font-size="12.00">std::ifstream</text>
<polyline fill="none" stroke="#bfbfbf" points="904.81,-810.5 996.81,-810.5 "/>
<text text-anchor="middle" x="950.81" y="-796.9" font-family="Helvetica,sans-Serif" font-size="12.00"> </text>
<polyline fill="none" stroke="#bfbfbf" points="904.81,-789.5 996.81,-789.5 "/>
<text text-anchor="middle" x="950.81" y="-775.9" font-family="Helvetica,sans-Serif" font-size="12.00"> </text>
</a>
</g>
</g>
<!-- Node12&#45;&gt;Node3 -->
<g id="edge18" class="edge">
<title>Node12&#45;&gt;Node3</title>
<path fill="none" stroke="#404040" d="M929.54,-768.48C908.9,-738.87 876.52,-692.42 847.43,-650.69"/>
<polygon fill="none" stroke="#404040" points="847.36,-650.59 840.65,-647.96 840.5,-640.75 847.21,-643.38 847.36,-650.59"/>
<text text-anchor="middle" x="903.81" y="-668.9" font-family="Helvetica,sans-Serif" font-size="12.00"> &#45;datasetFile</text>
</g>
<!-- Node13 -->
<g id="node13" class="node">
<title>Node13</title>
<g id="a_node13"><a xlink:title="STL class.">
<polygon fill="none" stroke="#bfbfbf" points="981.81,-998.5 981.81,-1074.5 1109.81,-1074.5 1109.81,-998.5 981.81,-998.5"/>
<text text-anchor="start" x="989.81" y="-1060.9" font-family="Helvetica,sans-Serif" font-size="12.00">std::basic_ifstream</text>
<text text-anchor="middle" x="1045.81" y="-1047.9" font-family="Helvetica,sans-Serif" font-size="12.00">&lt; char &gt;</text>
<polyline fill="none" stroke="#bfbfbf" points="981.81,-1040.5 1109.81,-1040.5 "/>
<text text-anchor="middle" x="1045.81" y="-1026.9" font-family="Helvetica,sans-Serif" font-size="12.00"> </text>
<polyline fill="none" stroke="#bfbfbf" points="981.81,-1019.5 1109.81,-1019.5 "/>
<text text-anchor="middle" x="1045.81" y="-1005.9" font-family="Helvetica,sans-Serif" font-size="12.00"> </text>
</a>
</g>
</g>
<!-- Node13&#45;&gt;Node12 -->
<g id="edge19" class="edge">
<title>Node13&#45;&gt;Node12</title>
<path fill="none" stroke="midnightblue" d="M1027,-989.05C1008.08,-942.36 979.46,-871.72 963.22,-831.63"/>
<polygon fill="none" stroke="midnightblue" points="1023.76,-990.39 1030.76,-998.34 1030.25,-987.76 1023.76,-990.39"/>
</g>
<!-- Node14 -->
<g id="node14" class="node">
<title>Node14</title>
<g id="a_node14"><a xlink:title="STL class.">
<polygon fill="none" stroke="#bfbfbf" points="988.81,-1170 988.81,-1246 1112.81,-1246 1112.81,-1170 988.81,-1170"/>
<text text-anchor="start" x="996.81" y="-1232.4" font-family="Helvetica,sans-Serif" font-size="12.00">std::basic_istream</text>
<text text-anchor="middle" x="1050.81" y="-1219.4" font-family="Helvetica,sans-Serif" font-size="12.00">&lt; Char &gt;</text>
<polyline fill="none" stroke="#bfbfbf" points="988.81,-1212 1112.81,-1212 "/>
<text text-anchor="middle" x="1050.81" y="-1198.4" font-family="Helvetica,sans-Serif" font-size="12.00"> </text>
<polyline fill="none" stroke="#bfbfbf" points="988.81,-1191 1112.81,-1191 "/>
<text text-anchor="middle" x="1050.81" y="-1177.4" font-family="Helvetica,sans-Serif" font-size="12.00"> </text>
</a>
</g>
</g>
<!-- Node14&#45;&gt;Node13 -->
<g id="edge20" class="edge">
<title>Node14&#45;&gt;Node13</title>
<path fill="none" stroke="midnightblue" d="M1049.41,-1159.47C1048.62,-1132.62 1047.64,-1099.54 1046.91,-1074.61"/>
<polygon fill="none" stroke="midnightblue" points="1045.92,-1159.91 1049.72,-1169.8 1052.92,-1159.7 1045.92,-1159.91"/>
</g>
<!-- Node15 -->
<g id="node15" class="node">
<title>Node15</title>
<g id="a_node15"><a xlink:title="STL class.">
<polygon fill="none" stroke="#bfbfbf" points="1085.31,-1426 1085.31,-1489 1236.31,-1489 1236.31,-1426 1085.31,-1426"/>
<text text-anchor="middle" x="1160.81" y="-1475.4" font-family="Helvetica,sans-Serif" font-size="12.00">std::basic_ios&lt; Char &gt;</text>
<polyline fill="none" stroke="#bfbfbf" points="1085.31,-1468 1236.31,-1468 "/>
<text text-anchor="middle" x="1160.81" y="-1454.4" font-family="Helvetica,sans-Serif" font-size="12.00"> </text>
<polyline fill="none" stroke="#bfbfbf" points="1085.31,-1447 1236.31,-1447 "/>
<text text-anchor="middle" x="1160.81" y="-1433.4" font-family="Helvetica,sans-Serif" font-size="12.00"> </text>
</a>
</g>
</g>
<!-- Node15&#45;&gt;Node14 -->
<g id="edge21" class="edge">
<title>Node15&#45;&gt;Node14</title>
<path fill="none" stroke="midnightblue" d="M1143.1,-1416.65C1122.23,-1369.69 1087.82,-1292.25 1067.43,-1246.39"/>
<polygon fill="none" stroke="midnightblue" points="1139.96,-1418.19 1147.22,-1425.9 1146.35,-1415.34 1139.96,-1418.19"/>
</g>
<!-- Node19 -->
<g id="node19" class="node">
<title>Node19</title>
<g id="a_node19"><a xlink:title="STL class.">
<polygon fill="none" stroke="#bfbfbf" points="1130.81,-1170 1130.81,-1246 1258.81,-1246 1258.81,-1170 1130.81,-1170"/>
<text text-anchor="start" x="1138.81" y="-1232.4" font-family="Helvetica,sans-Serif" font-size="12.00">std::basic_ostream</text>
<text text-anchor="middle" x="1194.81" y="-1219.4" font-family="Helvetica,sans-Serif" font-size="12.00">&lt; Char &gt;</text>
<polyline fill="none" stroke="#bfbfbf" points="1130.81,-1212 1258.81,-1212 "/>
<text text-anchor="middle" x="1194.81" y="-1198.4" font-family="Helvetica,sans-Serif" font-size="12.00"> </text>
<polyline fill="none" stroke="#bfbfbf" points="1130.81,-1191 1258.81,-1191 "/>
<text text-anchor="middle" x="1194.81" y="-1177.4" font-family="Helvetica,sans-Serif" font-size="12.00"> </text>
</a>
</g>
</g>
<!-- Node15&#45;&gt;Node19 -->
<g id="edge26" class="edge">
<title>Node15&#45;&gt;Node19</title>
<path fill="none" stroke="midnightblue" d="M1166.41,-1415.77C1172.87,-1368.72 1183.42,-1291.97 1189.68,-1246.39"/>
<polygon fill="none" stroke="midnightblue" points="1162.91,-1415.52 1165.02,-1425.9 1169.85,-1416.47 1162.91,-1415.52"/>
</g>
<!-- Node16 -->
<g id="node16" class="node">
<title>Node16</title>
<g id="a_node16"><a xlink:title="STL class.">
<polygon fill="none" stroke="#bfbfbf" points="1114.31,-1610.5 1114.31,-1673.5 1207.31,-1673.5 1207.31,-1610.5 1114.31,-1610.5"/>
<text text-anchor="middle" x="1160.81" y="-1659.9" font-family="Helvetica,sans-Serif" font-size="12.00">std::ios_base</text>
<polyline fill="none" stroke="#bfbfbf" points="1114.31,-1652.5 1207.31,-1652.5 "/>
<text text-anchor="middle" x="1160.81" y="-1638.9" font-family="Helvetica,sans-Serif" font-size="12.00"> </text>
<polyline fill="none" stroke="#bfbfbf" points="1114.31,-1631.5 1207.31,-1631.5 "/>
<text text-anchor="middle" x="1160.81" y="-1617.9" font-family="Helvetica,sans-Serif" font-size="12.00"> </text>
</a>
</g>
</g>
<!-- Node16&#45;&gt;Node15 -->
<g id="edge22" class="edge">
<title>Node16&#45;&gt;Node15</title>
<path fill="none" stroke="midnightblue" d="M1160.81,-1600.04C1160.81,-1566.43 1160.81,-1519.58 1160.81,-1489.15"/>
<polygon fill="none" stroke="midnightblue" points="1157.31,-1600.45 1160.81,-1610.45 1164.31,-1600.45 1157.31,-1600.45"/>
</g>
<!-- Node17 -->
<g id="node17" class="node">
<title>Node17</title>
<g id="a_node17"><a xlink:title="STL class.">
<polygon fill="none" stroke="#bfbfbf" points="1026.81,-768.5 1026.81,-831.5 1122.81,-831.5 1122.81,-768.5 1026.81,-768.5"/>
<text text-anchor="middle" x="1074.81" y="-817.9" font-family="Helvetica,sans-Serif" font-size="12.00">std::ofstream</text>
<polyline fill="none" stroke="#bfbfbf" points="1026.81,-810.5 1122.81,-810.5 "/>
<text text-anchor="middle" x="1074.81" y="-796.9" font-family="Helvetica,sans-Serif" font-size="12.00"> </text>
<polyline fill="none" stroke="#bfbfbf" points="1026.81,-789.5 1122.81,-789.5 "/>
<text text-anchor="middle" x="1074.81" y="-775.9" font-family="Helvetica,sans-Serif" font-size="12.00"> </text>
</a>
</g>
</g>
<!-- Node17&#45;&gt;Node3 -->
<g id="edge23" class="edge">
<title>Node17&#45;&gt;Node3</title>
<path fill="none" stroke="#404040" d="M1056.26,-768.08C1043.51,-748.23 1025.39,-722.61 1005.81,-703 982.2,-679.34 974.52,-674.32 944.81,-659 925.55,-649.07 916.3,-651.65 893.88,-641.51"/>
<polygon fill="none" stroke="#404040" points="893.73,-641.44 886.58,-642.34 882.99,-636.09 890.15,-635.18 893.73,-641.44"/>
<text text-anchor="middle" x="1031.81" y="-675.4" font-family="Helvetica,sans-Serif" font-size="12.00"> &#45;modelSavefile</text>
<text text-anchor="middle" x="1031.81" y="-662.4" font-family="Helvetica,sans-Serif" font-size="12.00">&#45;outputFile</text>
</g>
<!-- Node18 -->
<g id="node18" class="node">
<title>Node18</title>
<g id="a_node18"><a xlink:title="STL class.">
<polygon fill="none" stroke="#bfbfbf" points="1128.31,-998.5 1128.31,-1074.5 1261.31,-1074.5 1261.31,-998.5 1128.31,-998.5"/>
<text text-anchor="start" x="1136.31" y="-1060.9" font-family="Helvetica,sans-Serif" font-size="12.00">std::basic_ofstream</text>
<text text-anchor="middle" x="1194.81" y="-1047.9" font-family="Helvetica,sans-Serif" font-size="12.00">&lt; char &gt;</text>
<polyline fill="none" stroke="#bfbfbf" points="1128.31,-1040.5 1261.31,-1040.5 "/>
<text text-anchor="middle" x="1194.81" y="-1026.9" font-family="Helvetica,sans-Serif" font-size="12.00"> </text>
<polyline fill="none" stroke="#bfbfbf" points="1128.31,-1019.5 1261.31,-1019.5 "/>
<text text-anchor="middle" x="1194.81" y="-1005.9" font-family="Helvetica,sans-Serif" font-size="12.00"> </text>
</a>
</g>
</g>
<!-- Node18&#45;&gt;Node17 -->
<g id="edge24" class="edge">
<title>Node18&#45;&gt;Node17</title>
<path fill="none" stroke="midnightblue" d="M1171.19,-989.34C1147.3,-942.65 1111.05,-871.81 1090.49,-831.63"/>
<polygon fill="none" stroke="midnightblue" points="1168.13,-991.04 1175.8,-998.34 1174.36,-987.85 1168.13,-991.04"/>
</g>
<!-- Node19&#45;&gt;Node18 -->
<g id="edge25" class="edge">
<title>Node19&#45;&gt;Node18</title>
<path fill="none" stroke="midnightblue" d="M1194.81,-1159.47C1194.81,-1132.62 1194.81,-1099.54 1194.81,-1074.61"/>
<polygon fill="none" stroke="midnightblue" points="1191.31,-1159.8 1194.81,-1169.8 1198.31,-1159.8 1191.31,-1159.8"/>
</g>
<!-- Node20 -->
<g id="node20" class="node">
<title>Node20</title>
<g id="a_node20"><a xlink:title=" ">
<polygon fill="none" stroke="#bfbfbf" points="48.81,-525.5 48.81,-588.5 80.81,-588.5 80.81,-525.5 48.81,-525.5"/>
<text text-anchor="middle" x="64.81" y="-574.9" font-family="Helvetica,sans-Serif" font-size="12.00">int</text>
<polyline fill="none" stroke="#bfbfbf" points="48.81,-567.5 80.81,-567.5 "/>
<text text-anchor="middle" x="64.81" y="-553.9" font-family="Helvetica,sans-Serif" font-size="12.00"> </text>
<polyline fill="none" stroke="#bfbfbf" points="48.81,-546.5 80.81,-546.5 "/>
<text text-anchor="middle" x="64.81" y="-532.9" font-family="Helvetica,sans-Serif" font-size="12.00"> </text>
</a>
</g>
</g>
<!-- Node20&#45;&gt;Node1 -->
<g id="edge34" class="edge">
<title>Node20&#45;&gt;Node1</title>
<path fill="none" stroke="#404040" d="M52.96,-525.47C30.95,-463.19 -8.37,-319.8 56.81,-230 94.02,-178.75 256.55,-136.55 369.47,-112.69"/>
<polygon fill="none" stroke="#404040" points="369.52,-112.68 374.58,-107.54 381.27,-110.23 376.21,-115.37 369.52,-112.68"/>
<text text-anchor="middle" x="143.31" y="-382.4" font-family="Helvetica,sans-Serif" font-size="12.00"> &#45;device_totalEdgeWeights</text>
<text text-anchor="middle" x="143.31" y="-369.4" font-family="Helvetica,sans-Serif" font-size="12.00">&#45;numberOfPartitions</text>
<text text-anchor="middle" x="143.31" y="-356.4" font-family="Helvetica,sans-Serif" font-size="12.00">&#45;cudaGridSize</text>
<text text-anchor="middle" x="143.31" y="-343.4" font-family="Helvetica,sans-Serif" font-size="12.00">&#45;totalOutputPerSync</text>
<text text-anchor="middle" x="143.31" y="-330.4" font-family="Helvetica,sans-Serif" font-size="12.00">&#45;cudaThreads</text>
<text text-anchor="middle" x="143.31" y="-317.4" font-family="Helvetica,sans-Serif" font-size="12.00">&#45;device_valueMatrix</text>
<text text-anchor="middle" x="143.31" y="-304.4" font-family="Helvetica,sans-Serif" font-size="12.00">&#45;alternatingKernels</text>
<text text-anchor="middle" x="143.31" y="-291.4" font-family="Helvetica,sans-Serif" font-size="12.00">&#45;cudaPerKernelAllocationSize</text>
<text text-anchor="middle" x="143.31" y="-278.4" font-family="Helvetica,sans-Serif" font-size="12.00">&#45;cudaMemPerGrid</text>
<text text-anchor="middle" x="143.31" y="-265.4" font-family="Helvetica,sans-Serif" font-size="12.00">&#45;flatValueMatrix</text>
<text text-anchor="middle" x="143.31" y="-252.4" font-family="Helvetica,sans-Serif" font-size="12.00">...</text>
</g>
<!-- Node20&#45;&gt;Node2 -->
<g id="edge28" class="edge">
<title>Node20&#45;&gt;Node2</title>
<path fill="none" stroke="#404040" d="M62.73,-525.3C62.56,-496.12 67.38,-453.21 93.81,-429 137.16,-389.31 170.96,-434.53 224.81,-411 226.02,-410.47 227.22,-409.93 228.42,-409.37"/>
<polygon fill="none" stroke="#404040" points="228.44,-409.36 231.97,-403.07 239.13,-403.91 235.61,-410.19 228.44,-409.36"/>
<text text-anchor="middle" x="150.81" y="-445.4" font-family="Helvetica,sans-Serif" font-size="12.00"> #matrixSize</text>
<text text-anchor="middle" x="150.81" y="-432.4" font-family="Helvetica,sans-Serif" font-size="12.00">#totalEdgeWeights</text>
</g>
<!-- Node21 -->
<g id="node21" class="node">
<title>Node21</title>
<g id="a_node21"><a xlink:title=" ">
<polygon fill="none" stroke="#bfbfbf" points="900.81,-525.5 900.81,-588.5 942.81,-588.5 942.81,-525.5 900.81,-525.5"/>
<text text-anchor="middle" x="921.81" y="-574.9" font-family="Helvetica,sans-Serif" font-size="12.00">bool</text>
<polyline fill="none" stroke="#bfbfbf" points="900.81,-567.5 942.81,-567.5 "/>
<text text-anchor="middle" x="921.81" y="-553.9" font-family="Helvetica,sans-Serif" font-size="12.00"> </text>
<polyline fill="none" stroke="#bfbfbf" points="900.81,-546.5 942.81,-546.5 "/>
<text text-anchor="middle" x="921.81" y="-532.9" font-family="Helvetica,sans-Serif" font-size="12.00"> </text>
</a>
</g>
</g>
<!-- Node21&#45;&gt;Node2 -->
<g id="edge29" class="edge">
<title>Node21&#45;&gt;Node2</title>
<path fill="none" stroke="#404040" d="M918.59,-525.39C915.03,-507.38 907.54,-485.71 891.81,-473 815.24,-411.11 549.39,-450.14 439.8,-411.44"/>
<polygon fill="none" stroke="#404040" points="439.6,-411.36 432.54,-412.84 428.46,-406.9 435.52,-405.42 439.6,-411.36"/>
<text text-anchor="middle" x="878.81" y="-438.9" font-family="Helvetica,sans-Serif" font-size="12.00"> #ready</text>
</g>
<!-- Node22 -->
<g id="node22" class="node">
<title>Node22</title>
<g id="a_node22"><a xlink:title=" ">
<polygon fill="none" stroke="#bfbfbf" points="179.31,-525.5 179.31,-588.5 256.31,-588.5 256.31,-525.5 179.31,-525.5"/>
<text text-anchor="middle" x="217.81" y="-574.9" font-family="Helvetica,sans-Serif" font-size="12.00">long int **</text>
<polyline fill="none" stroke="#bfbfbf" points="179.31,-567.5 256.31,-567.5 "/>
<text text-anchor="middle" x="217.81" y="-553.9" font-family="Helvetica,sans-Serif" font-size="12.00"> </text>
<polyline fill="none" stroke="#bfbfbf" points="179.31,-546.5 256.31,-546.5 "/>
<text text-anchor="middle" x="217.81" y="-532.9" font-family="Helvetica,sans-Serif" font-size="12.00"> </text>
</a>
</g>
</g>
<!-- Node22&#45;&gt;Node2 -->
<g id="edge30" class="edge">
<title>Node22&#45;&gt;Node2</title>
<path fill="none" stroke="#404040" d="M211.51,-525.35C207.52,-498.71 205.35,-459.69 218.81,-429 222.32,-421 226.75,-413.32 231.81,-406.01"/>
<polygon fill="none" stroke="#404040" points="231.9,-405.89 232.28,-398.68 239.08,-396.27 238.7,-403.47 231.9,-405.89"/>
<text text-anchor="middle" x="260.81" y="-438.9" font-family="Helvetica,sans-Serif" font-size="12.00"> #valueMatrix</text>
</g>
<!-- Node23 -->
<g id="node23" class="node">
<title>Node23</title>
<g id="a_node23"><a xlink:href="class_markov_1_1_a_p_i_1_1_c_u_d_a_1_1_c_u_d_a_device_controller.html" target="_top" xlink:title="Controller class for CUDA device.">
<polygon fill="none" stroke="black" points="446.31,-256.5 446.31,-384.5 617.31,-384.5 617.31,-256.5 446.31,-256.5"/>
<text text-anchor="start" x="454.31" y="-370.9" font-family="Helvetica,sans-Serif" font-size="12.00">Markov::API::CUDA::</text>
<text text-anchor="middle" x="531.81" y="-357.9" font-family="Helvetica,sans-Serif" font-size="12.00">CUDADeviceController</text>
<polyline fill="none" stroke="black" points="446.31,-350.5 617.31,-350.5 "/>
<text text-anchor="middle" x="531.81" y="-336.9" font-family="Helvetica,sans-Serif" font-size="12.00"> </text>
<polyline fill="none" stroke="black" points="446.31,-329.5 617.31,-329.5 "/>
<text text-anchor="start" x="454.31" y="-315.9" font-family="Helvetica,sans-Serif" font-size="12.00">+ ListCudaDevices()</text>
<text text-anchor="start" x="454.31" y="-302.9" font-family="Helvetica,sans-Serif" font-size="12.00"># CudaCheckNotifyErr()</text>
<text text-anchor="start" x="454.31" y="-289.9" font-family="Helvetica,sans-Serif" font-size="12.00"># CudaMalloc2DToFlat()</text>
<text text-anchor="start" x="454.31" y="-276.9" font-family="Helvetica,sans-Serif" font-size="12.00"># CudaMemcpy2DToFlat()</text>
<text text-anchor="start" x="454.31" y="-263.9" font-family="Helvetica,sans-Serif" font-size="12.00"># CudaMigrate2DFlat()</text>
</a>
</g>
</g>
<!-- Node23&#45;&gt;Node1 -->
<g id="edge31" class="edge">
<title>Node23&#45;&gt;Node1</title>
<path fill="none" stroke="midnightblue" d="M515.75,-246.25C511.19,-225.44 506.16,-202.53 501.41,-180.87"/>
<polygon fill="none" stroke="midnightblue" points="512.39,-247.27 517.95,-256.29 519.23,-245.77 512.39,-247.27"/>
</g>
<!-- Node24 -->
<g id="node24" class="node">
<title>Node24</title>
<g id="a_node24"><a xlink:title=" ">
<polygon fill="none" stroke="#bfbfbf" points="635.81,-289 635.81,-352 745.81,-352 745.81,-289 635.81,-289"/>
<text text-anchor="middle" x="690.81" y="-338.4" font-family="Helvetica,sans-Serif" font-size="12.00">cudaStream_t *</text>
<polyline fill="none" stroke="#bfbfbf" points="635.81,-331 745.81,-331 "/>
<text text-anchor="middle" x="690.81" y="-317.4" font-family="Helvetica,sans-Serif" font-size="12.00"> </text>
<polyline fill="none" stroke="#bfbfbf" points="635.81,-310 745.81,-310 "/>
<text text-anchor="middle" x="690.81" y="-296.4" font-family="Helvetica,sans-Serif" font-size="12.00"> </text>
</a>
</g>
</g>
<!-- Node24&#45;&gt;Node1 -->
<g id="edge32" class="edge">
<title>Node24&#45;&gt;Node1</title>
<path fill="none" stroke="#404040" d="M670.83,-288.6C658.84,-270.84 642.84,-248.47 626.81,-230 615.03,-216.41 602.09,-202.66 588.94,-189.38"/>
<polygon fill="none" stroke="#404040" points="588.77,-189.2 581.7,-187.79 580.29,-180.72 587.36,-182.13 588.77,-189.2"/>
<text text-anchor="middle" x="650.81" y="-202.4" font-family="Helvetica,sans-Serif" font-size="12.00"> &#45;cudastreams</text>
</g>
<!-- Node25 -->
<g id="node25" class="node">
<title>Node25</title>
<g id="a_node25"><a xlink:title=" ">
<polygon fill="none" stroke="#bfbfbf" points="763.81,-289 763.81,-352 879.81,-352 879.81,-289 763.81,-289"/>
<text text-anchor="middle" x="821.81" y="-338.4" font-family="Helvetica,sans-Serif" font-size="12.00">unsigned long **</text>
<polyline fill="none" stroke="#bfbfbf" points="763.81,-331 879.81,-331 "/>
<text text-anchor="middle" x="821.81" y="-317.4" font-family="Helvetica,sans-Serif" font-size="12.00"> </text>
<polyline fill="none" stroke="#bfbfbf" points="763.81,-310 879.81,-310 "/>
<text text-anchor="middle" x="821.81" y="-296.4" font-family="Helvetica,sans-Serif" font-size="12.00"> </text>
</a>
</g>
</g>
<!-- Node25&#45;&gt;Node1 -->
<g id="edge35" class="edge">
<title>Node25&#45;&gt;Node1</title>
<path fill="none" stroke="#404040" d="M803.52,-288.64C791.4,-270.03 774.19,-246.76 754.81,-230 707.53,-189.1 646.06,-156.54 593.42,-133.3"/>
<polygon fill="none" stroke="#404040" points="593.34,-133.26 586.24,-134.54 582.33,-128.48 589.43,-127.2 593.34,-133.26"/>
<text text-anchor="middle" x="772.81" y="-202.4" font-family="Helvetica,sans-Serif" font-size="12.00"> &#45;device_seeds</text>
</g>
</g>
</svg>
