<?xml version="1.0" encoding="UTF-8" standalone="no"?>
<!DOCTYPE svg PUBLIC "-//W3C//DTD SVG 1.1//EN"
 "http://www.w3.org/Graphics/SVG/1.1/DTD/svg11.dtd">
<!-- Generated by graphviz version 2.43.0 (0)
 -->
<!-- Title: Markov::Edge::EdgeWeight Pages: 1 -->
<!--zoomable 180 -->
<svg id="main" version="1.1" xmlns="http://www.w3.org/2000/svg" xmlns:xlink="http://www.w3.org/1999/xlink" xml:space="preserve" onload="init(evt)">
<style type="text/css"><![CDATA[
.edge:hover path { stroke: red; }
.edge:hover polygon { stroke: red; fill: red; }
]]></style>
<script type="text/javascript"><![CDATA[
var edges = document.getElementsByTagName('g');
if (edges && edges.length) {
  for (var i=0;i<edges.length;i++) {
    if (edges[i].id.substr(0,4)=='edge') {
      edges[i].setAttribute('class','edge');
    }
  }
}
]]></script>
        <defs>
                <circle id="rim" cx="0" cy="0" r="7"/>
                <circle id="rim2" cx="0" cy="0" r="3.5"/>
                <g id="zoomPlus">
                        <use xlink:href="#rim" fill="#404040">
                                <set attributeName="fill" to="#808080" begin="zoomplus.mouseover" end="zoomplus.mouseout"/>
                        </use>
                        <path d="M-4,0h8M0,-4v8" fill="none" stroke="white" stroke-width="1.5" pointer-events="none"/>
                </g>
                <g id="zoomMin">
                        <use xlink:href="#rim" fill="#404040">
                                <set attributeName="fill" to="#808080" begin="zoomminus.mouseover" end="zoomminus.mouseout"/>
                        </use>
                        <path d="M-4,0h8" fill="none" stroke="white" stroke-width="1.5" pointer-events="none"/>
                </g>
                <g id="dirArrow">
                        <path fill="none" stroke="white" stroke-width="1.5" d="M0,-3.0v7 M-2.5,-0.5L0,-3.0L2.5,-0.5"/>
                </g>
               <g id="resetDef">
                       <use xlink:href="#rim2" fill="#404040">
                               <set attributeName="fill" to="#808080" begin="reset.mouseover" end="reset.mouseout"/>
                       </use>
               </g>
        </defs>

<script type="text/javascript">
var viewWidth = 841;
var viewHeight = 180;
var sectionId = 'dynsection-2';
</script>
<script xlink:href="svgpan.js"/>
<svg id="graph" class="graph">
<g id="viewport">
<title>Markov::Edge::EdgeWeight</title>
<!-- Node1 -->
<g id="node1" class="node">
<title>Node1</title>
<g id="a_node1"><a xlink:title="return edge&#39;s EdgeWeight.">
<polygon fill="#bfbfbf" stroke="black" points="657,-97.87 657,-118.87 833,-118.87 833,-97.87 657,-97.87"/>
<text text-anchor="middle" x="745" y="-105.27" font-family="Helvetica,sans-Serif" font-size="12.00">Markov::Edge::EdgeWeight</text>
</a>
</g>
</g>
<!-- Node2 -->
<g id="node2" class="node">
<title>Node2</title>
<g id="a_node2"><a xlink:href="class_markov_1_1_a_p_i_1_1_markov_passwords.html#ad490665eae3beb022afc7e2491583d0a" target="_top" xlink:title="Buff expression of some characters in the model.">
<polygon fill="none" stroke="black" points="421,-137.37 421,-171.37 621,-171.37 621,-137.37 421,-137.37"/>
<text text-anchor="start" x="429" y="-157.77" font-family="Helvetica,sans-Serif" font-size="12.00">Markov::API::MarkovPasswords</text>
<text text-anchor="middle" x="521" y="-144.77" font-family="Helvetica,sans-Serif" font-size="12.00">::Buff</text>
</a>
</g>
</g>
<!-- Node1&#45;&gt;Node2 -->
<g id="edge1" class="edge">
<title>Node1&#45;&gt;Node2</title>
<path fill="none" stroke="midnightblue" d="M683.27,-120.96C658.96,-125.99 630.57,-131.88 604.45,-137.29"/>
<polygon fill="midnightblue" stroke="midnightblue" points="683.99,-124.38 693.07,-118.93 682.57,-117.53 683.99,-124.38"/>
</g>
<!-- Node4 -->
<g id="node4" class="node">
<title>Node4</title>
<g id="a_node4"><a xlink:href="class_markov_1_1_a_p_i_1_1_model_matrix.html#aafb5809808b9b0450a0bc98740121b5f" target="_top" xlink:title="Construct the related Matrix data for the model.">
<polygon fill="none" stroke="black" points="436.5,-65.37 436.5,-99.37 605.5,-99.37 605.5,-65.37 436.5,-65.37"/>
<text text-anchor="start" x="444.5" y="-85.77" font-family="Helvetica,sans-Serif" font-size="12.00">Markov::API::ModelMatrix</text>
<text text-anchor="middle" x="521" y="-72.77" font-family="Helvetica,sans-Serif" font-size="12.00">::ConstructMatrix</text>
</a>
</g>
</g>
<!-- Node1&#45;&gt;Node4 -->
<g id="edge3" class="edge">
<title>Node1&#45;&gt;Node4</title>
<path fill="none" stroke="midnightblue" d="M646.93,-97C633.15,-95.39 619.08,-93.74 605.58,-92.16"/>
<polygon fill="midnightblue" stroke="midnightblue" points="646.56,-100.48 656.9,-98.17 647.37,-93.53 646.56,-100.48"/>
</g>
<!-- Node3 -->
<g id="node3" class="node">
<title>Node3</title>
<g id="a_node3"><a xlink:href="_markov_a_p_i_c_l_i_2src_2main_8cpp.html#a3c04138a5bfe5d72780bb7e82a18e627" target="_top" xlink:title="Launch CLI tool.">
<polygon fill="none" stroke="black" points="66.5,-143.87 66.5,-164.87 113.5,-164.87 113.5,-143.87 66.5,-143.87"/>
<text text-anchor="middle" x="90" y="-151.27" font-family="Helvetica,sans-Serif" font-size="12.00">main</text>
</a>
</g>
</g>
<!-- Node2&#45;&gt;Node3 -->
<g id="edge2" class="edge">
<title>Node2&#45;&gt;Node3</title>
<path fill="none" stroke="midnightblue" d="M410.64,-155.25C401.97,-155.3 393.34,-155.34 385,-155.37 309.89,-155.65 291.11,-155.67 216,-155.37 180.19,-155.23 138.62,-154.86 113.58,-154.61"/>
<polygon fill="midnightblue" stroke="midnightblue" points="410.86,-158.75 420.84,-155.19 410.82,-151.75 410.86,-158.75"/>
</g>
<!-- Node5 -->
<g id="node5" class="node">
<title>Node5</title>
<g id="a_node5"><a xlink:href="namespace_markov_1_1_markopy_1_1_c_u_d_a.html#a584fc8e70bb6cf08f544f52805245e19" target="_top" xlink:title=" ">
<polygon fill="none" stroke="black" points="0,-15.37 0,-49.37 180,-49.37 180,-15.37 0,-15.37"/>
<text text-anchor="start" x="8" y="-35.77" font-family="Helvetica,sans-Serif" font-size="12.00">Markov::Markopy::CUDA</text>
<text text-anchor="middle" x="90" y="-22.77" font-family="Helvetica,sans-Serif" font-size="12.00">::BOOST_PYTHON_MODULE</text>
</a>
</g>
</g>
<!-- Node4&#45;&gt;Node5 -->
<g id="edge4" class="edge">
<title>Node4&#45;&gt;Node5</title>
<path fill="none" stroke="midnightblue" d="M488.21,-59.6C461.95,-42.28 422.97,-19.87 385,-10.37 309.03,8.62 218.85,-2.95 158.59,-15.33"/>
<polygon fill="midnightblue" stroke="midnightblue" points="486.35,-62.57 496.6,-65.25 490.26,-56.77 486.35,-62.57"/>
</g>
<!-- Node6 -->
<g id="node6" class="node">
<title>Node6</title>
<g id="a_node6"><a xlink:href="namespace_markov_1_1_markopy.html#a379628c09859652215496b63af2bcac9" target="_top" xlink:title=" ">
<polygon fill="none" stroke="black" points="5,-68.37 5,-102.37 175,-102.37 175,-68.37 5,-68.37"/>
<text text-anchor="start" x="13" y="-88.77" font-family="Helvetica,sans-Serif" font-size="12.00">Markov::Markopy::BOOST</text>
<text text-anchor="middle" x="90" y="-75.77" font-family="Helvetica,sans-Serif" font-size="12.00">_PYTHON_MODULE</text>
</a>
</g>
</g>
<!-- Node4&#45;&gt;Node6 -->
<g id="edge5" class="edge">
<title>Node4&#45;&gt;Node6</title>
<path fill="none" stroke="midnightblue" d="M425.91,-83.03C351.09,-83.55 247.37,-84.28 175.25,-84.78"/>
<polygon fill="midnightblue" stroke="midnightblue" points="426.29,-86.53 436.27,-82.96 426.24,-79.53 426.29,-86.53"/>
</g>
<!-- Node7 -->
<g id="node7" class="node">
<title>Node7</title>
<g id="a_node7"><a xlink:href="class_markov_1_1_a_p_i_1_1_model_matrix.html#aeba8bb79aa4dc2cfeda310f34b7c9427" target="_top" xlink:title="Open a file to import with filename, and call bool Model::Import with std::ifstream.">
<polygon fill="none" stroke="black" points="216,-111.37 216,-145.37 385,-145.37 385,-111.37 216,-111.37"/>
<text text-anchor="start" x="224" y="-131.77" font-family="Helvetica,sans-Serif" font-size="12.00">Markov::API::ModelMatrix</text>
<text text-anchor="middle" x="300.5" y="-118.77" font-family="Helvetica,sans-Serif" font-size="12.00">::Import</text>
</a>
</g>
</g>
<!-- Node4&#45;&gt;Node7 -->
<g id="edge6" class="edge">
<title>Node4&#45;&gt;Node7</title>
<path fill="none" stroke="midnightblue" d="M428.9,-101.55C413.48,-104.8 397.56,-108.15 382.42,-111.34"/>
<polygon fill="midnightblue" stroke="midnightblue" points="429.88,-104.92 438.95,-99.44 428.44,-98.07 429.88,-104.92"/>
</g>
<!-- Node8 -->
<g id="node8" class="node">
<title>Node8</title>
<g id="a_node8"><a xlink:href="class_markov_1_1_a_p_i_1_1_model_matrix.html#af42d40d7a5c80f0dfe126a574a17f423" target="_top" xlink:title="Train the model with the dataset file.">
<polygon fill="none" stroke="black" points="216,-19.37 216,-53.37 385,-53.37 385,-19.37 216,-19.37"/>
<text text-anchor="start" x="224" y="-39.77" font-family="Helvetica,sans-Serif" font-size="12.00">Markov::API::ModelMatrix</text>
<text text-anchor="middle" x="300.5" y="-26.77" font-family="Helvetica,sans-Serif" font-size="12.00">::Train</text>
</a>
</g>
</g>
<!-- Node4&#45;&gt;Node8 -->
<g id="edge10" class="edge">
<title>Node4&#45;&gt;Node8</title>
<path fill="none" stroke="midnightblue" d="M428.9,-63.19C413.48,-59.95 397.56,-56.6 382.42,-53.41"/>
<polygon fill="midnightblue" stroke="midnightblue" points="428.44,-66.67 438.95,-65.31 429.88,-59.82 428.44,-66.67"/>
</g>
<!-- Node7&#45;&gt;Node3 -->
<g id="edge9" class="edge">
<title>Node7&#45;&gt;Node3</title>
<path fill="none" stroke="midnightblue" d="M205.87,-140.05C171.81,-144.3 136.22,-148.73 113.85,-151.52"/>
<polygon fill="midnightblue" stroke="midnightblue" points="206.41,-143.51 215.9,-138.8 205.54,-136.56 206.41,-143.51"/>
</g>
<!-- Node7&#45;&gt;Node5 -->
<g id="edge7" class="edge">
<title>Node7&#45;&gt;Node5</title>
<path fill="none" stroke="midnightblue" d="M265.33,-105.82C242.01,-91.15 210.01,-72.39 180,-59.37 171.7,-55.78 162.78,-52.46 153.9,-49.48"/>
<polygon fill="midnightblue" stroke="midnightblue" points="263.51,-108.81 273.83,-111.23 267.27,-102.91 263.51,-108.81"/>
</g>
<!-- Node7&#45;&gt;Node6 -->
<g id="edge8" class="edge">
<title>Node7&#45;&gt;Node6</title>
<path fill="none" stroke="midnightblue" d="M206.73,-109.24C195.69,-106.96 184.48,-104.65 173.6,-102.41"/>
<polygon fill="midnightblue" stroke="midnightblue" points="206.29,-112.72 216.8,-111.32 207.71,-105.87 206.29,-112.72"/>
</g>
<!-- Node8&#45;&gt;Node5 -->
<g id="edge11" class="edge">
<title>Node8&#45;&gt;Node5</title>
<path fill="none" stroke="midnightblue" d="M205.88,-34.58C197.3,-34.41 188.62,-34.25 180.08,-34.08"/>
<polygon fill="midnightblue" stroke="midnightblue" points="205.83,-38.08 215.9,-34.77 205.97,-31.08 205.83,-38.08"/>
</g>
<!-- Node8&#45;&gt;Node6 -->
<g id="edge12" class="edge">
<title>Node8&#45;&gt;Node6</title>
<path fill="none" stroke="midnightblue" d="M217.39,-55.67C199.62,-59.85 180.94,-64.24 163.56,-68.32"/>
<polygon fill="midnightblue" stroke="midnightblue" points="218.23,-59.07 227.16,-53.37 216.63,-52.25 218.23,-59.07"/>
</g>
</g>
</svg>
        <g id="navigator" transform="translate(0 0)" fill="#404254">
                <rect fill="#f2f5e9" fill-opacity="0.5" stroke="#606060" stroke-width=".5" x="0" y="0" width="60" height="60"/>
                <use id="zoomplus" xlink:href="#zoomPlus" x="17" y="9" onmousedown="handleZoom(evt,'in')"/>
                <use id="zoomminus" xlink:href="#zoomMin" x="42" y="9" onmousedown="handleZoom(evt,'out')"/>
                <use id="reset" xlink:href="#resetDef" x="30" y="36" onmousedown="handleReset()"/>
                <g id="arrowUp" xlink:href="#dirArrow" transform="translate(30 24)" onmousedown="handlePan(0,-1)">
                  <use xlink:href="#rim" fill="#404040">
                        <set attributeName="fill" to="#808080" begin="arrowUp.mouseover" end="arrowUp.mouseout"/>
                  </use>
                  <path fill="none" stroke="white" stroke-width="1.5" d="M0,-3.0v7 M-2.5,-0.5L0,-3.0L2.5,-0.5"/>
                </g>
                <g id="arrowRight" xlink:href="#dirArrow" transform="rotate(90) translate(36 -43)" onmousedown="handlePan(1,0)">
                  <use xlink:href="#rim" fill="#404040">
                        <set attributeName="fill" to="#808080" begin="arrowRight.mouseover" end="arrowRight.mouseout"/>
                  </use>
                  <path fill="none" stroke="white" stroke-width="1.5" d="M0,-3.0v7 M-2.5,-0.5L0,-3.0L2.5,-0.5"/>
                </g>
                <g id="arrowDown" xlink:href="#dirArrow" transform="rotate(180) translate(-30 -48)" onmousedown="handlePan(0,1)">
                  <use xlink:href="#rim" fill="#404040">
                        <set attributeName="fill" to="#808080" begin="arrowDown.mouseover" end="arrowDown.mouseout"/>
                  </use>
                  <path fill="none" stroke="white" stroke-width="1.5" d="M0,-3.0v7 M-2.5,-0.5L0,-3.0L2.5,-0.5"/>
                </g>
                <g id="arrowLeft" xlink:href="#dirArrow" transform="rotate(270) translate(-36 17)" onmousedown="handlePan(-1,0)">
                  <use xlink:href="#rim" fill="#404040">
                        <set attributeName="fill" to="#808080" begin="arrowLeft.mouseover" end="arrowLeft.mouseout"/>
                  </use>
                  <path fill="none" stroke="white" stroke-width="1.5" d="M0,-3.0v7 M-2.5,-0.5L0,-3.0L2.5,-0.5"/>
                </g>
        </g>
        <svg viewBox="0 0 15 15" width="100%" height="30px" preserveAspectRatio="xMaxYMin meet">
         <g id="arrow_out" transform="scale(0.3 0.3)">
          <a xlink:href="class_markov_1_1_edge_a2b1e5a6e6f81502cd8ac6b20ed38b677_icgraph_org.svg" target="_base">
           <rect id="button" ry="5" rx="5" y="6" x="6" height="38" width="38"
                fill="#f2f5e9" fill-opacity="0.5" stroke="#606060" stroke-width="1.0"/>
           <path id="arrow"
             d="M 11.500037,31.436501 C 11.940474,20.09759 22.043105,11.32322 32.158766,21.979434 L 37.068811,17.246167 C 37.068811,17.246167 37.088388,32 37.088388,32 L 22.160133,31.978069 C 22.160133,31.978069 26.997745,27.140456 26.997745,27.140456 C 18.528582,18.264221 13.291696,25.230495 11.500037,31.436501 z"
             style="fill:#404040;"/>
          </a>
         </g>
        </svg>
</svg>
