<?xml version="1.0" encoding="UTF-8" standalone="no"?>
<!DOCTYPE svg PUBLIC "-//W3C//DTD SVG 1.1//EN"
 "http://www.w3.org/Graphics/SVG/1.1/DTD/svg11.dtd">
<!-- Generated by graphviz version 2.43.0 (0)
 -->
<!-- Title: Markov::Model::Export Pages: 1 -->
<svg width="365pt" height="84pt"
 viewBox="0.00 0.00 365.00 83.50" xmlns="http://www.w3.org/2000/svg" xmlns:xlink="http://www.w3.org/1999/xlink">
<g id="graph0" class="graph" transform="scale(1 1) rotate(0) translate(4 79.5)">
<title>Markov::Model::Export</title>
<!-- Node1 -->
<g id="node1" class="node">
<title>Node1</title>
<g id="a_node1"><a xlink:title="Open a file to export with filename, and call bool Model::Export with std::ofstream.">
<polygon fill="#bfbfbf" stroke="black" points="206,-23.5 206,-44.5 357,-44.5 357,-23.5 206,-23.5"/>
<text text-anchor="middle" x="281.5" y="-30.9" font-family="Helvetica,sans-Serif" font-size="12.00">Markov::Model::Export</text>
</a>
</g>
</g>
<!-- Node2 -->
<g id="node2" class="node">
<title>Node2</title>
<g id="a_node2"><a xlink:href="namespace_markov_1_1_markopy.html#a379628c09859652215496b63af2bcac9" target="_top" xlink:title=" ">
<polygon fill="none" stroke="black" points="0,-41 0,-75 170,-75 170,-41 0,-41"/>
<text text-anchor="start" x="8" y="-61.4" font-family="Helvetica,sans-Serif" font-size="12.00">Markov::Markopy::BOOST</text>
<text text-anchor="middle" x="85" y="-48.4" font-family="Helvetica,sans-Serif" font-size="12.00">_PYTHON_MODULE</text>
</a>
</g>
</g>
<!-- Node1&#45;&gt;Node2 -->
<g id="edge1" class="edge">
<title>Node1&#45;&gt;Node2</title>
<path fill="none" stroke="midnightblue" d="M195.91,-44.44C187.37,-45.49 178.7,-46.56 170.17,-47.61"/>
<polygon fill="midnightblue" stroke="midnightblue" points="196.36,-47.91 205.86,-43.21 195.5,-40.96 196.36,-47.91"/>
</g>
<!-- Node3 -->
<g id="node3" class="node">
<title>Node3</title>
<g id="a_node3"><a xlink:href="_markov_a_p_i_c_l_i_2src_2main_8cpp.html#a3c04138a5bfe5d72780bb7e82a18e627" target="_top" xlink:title="Launch CLI tool.">
<polygon fill="none" stroke="black" points="61.5,-0.5 61.5,-21.5 108.5,-21.5 108.5,-0.5 61.5,-0.5"/>
<text text-anchor="middle" x="85" y="-7.9" font-family="Helvetica,sans-Serif" font-size="12.00">main</text>
</a>
</g>
</g>
<!-- Node1&#45;&gt;Node3 -->
<g id="edge2" class="edge">
<title>Node1&#45;&gt;Node3</title>
<path fill="none" stroke="midnightblue" d="M195.59,-23.96C163.72,-20.19 130.05,-16.21 108.57,-13.67"/>
<polygon fill="midnightblue" stroke="midnightblue" points="195.52,-27.47 205.86,-25.17 196.34,-20.52 195.52,-27.47"/>
</g>
</g>
</svg>
