<?xml version="1.0" encoding="UTF-8" standalone="no"?>
<!DOCTYPE svg PUBLIC "-//W3C//DTD SVG 1.1//EN"
 "http://www.w3.org/Graphics/SVG/1.1/DTD/svg11.dtd">
<!-- Generated by graphviz version 2.43.0 (0)
 -->
<!-- Title: Markov::GUI::menu Pages: 1 -->
<svg width="176pt" height="211pt"
 viewBox="0.00 0.00 175.50 211.00" xmlns="http://www.w3.org/2000/svg" xmlns:xlink="http://www.w3.org/1999/xlink">
<g id="graph0" class="graph" transform="scale(1 1) rotate(0) translate(4 207)">
<title>Markov::GUI::menu</title>
<!-- Node1 -->
<g id="node1" class="node">
<title>Node1</title>
<g id="a_node1"><a xlink:title="QT Menu class.">
<polygon fill="#bfbfbf" stroke="black" points="31,-0.5 31,-89.5 163,-89.5 163,-0.5 31,-0.5"/>
<text text-anchor="middle" x="97" y="-75.9" font-family="Helvetica,sans-Serif" font-size="12.00">Markov::GUI::menu</text>
<polyline fill="none" stroke="black" points="31,-68.5 163,-68.5 "/>
<text text-anchor="middle" x="97" y="-54.9" font-family="Helvetica,sans-Serif" font-size="12.00"> </text>
<polyline fill="none" stroke="black" points="31,-47.5 163,-47.5 "/>
<text text-anchor="start" x="39" y="-33.9" font-family="Helvetica,sans-Serif" font-size="12.00">+ menu()</text>
<text text-anchor="start" x="39" y="-20.9" font-family="Helvetica,sans-Serif" font-size="12.00">+ about()</text>
<text text-anchor="start" x="39" y="-7.9" font-family="Helvetica,sans-Serif" font-size="12.00">+ visualization()</text>
</a>
</g>
</g>
<!-- Node2 -->
<g id="node2" class="node">
<title>Node2</title>
<g id="a_node2"><a xlink:href="class_q_main_window.html" target="_top" xlink:title=" ">
<polygon fill="none" stroke="black" points="0,-139.5 0,-202.5 102,-202.5 102,-139.5 0,-139.5"/>
<text text-anchor="middle" x="51" y="-188.9" font-family="Helvetica,sans-Serif" font-size="12.00">QMainWindow</text>
<polyline fill="none" stroke="black" points="0,-181.5 102,-181.5 "/>
<text text-anchor="middle" x="51" y="-167.9" font-family="Helvetica,sans-Serif" font-size="12.00"> </text>
<polyline fill="none" stroke="black" points="0,-160.5 102,-160.5 "/>
<text text-anchor="middle" x="51" y="-146.9" font-family="Helvetica,sans-Serif" font-size="12.00"> </text>
</a>
</g>
</g>
<!-- Node2&#45;&gt;Node1 -->
<g id="edge1" class="edge">
<title>Node2&#45;&gt;Node1</title>
<path fill="none" stroke="midnightblue" d="M65.88,-129.89C70.62,-117.11 75.89,-102.91 80.73,-89.87"/>
<polygon fill="none" stroke="midnightblue" points="62.57,-128.76 62.37,-139.35 69.13,-131.19 62.57,-128.76"/>
</g>
<!-- Node3 -->
<g id="node3" class="node">
<title>Node3</title>
<g id="a_node3"><a xlink:title=" ">
<polygon fill="none" stroke="#bfbfbf" points="120.5,-139.5 120.5,-202.5 167.5,-202.5 167.5,-139.5 120.5,-139.5"/>
<text text-anchor="middle" x="144" y="-188.9" font-family="Helvetica,sans-Serif" font-size="12.00">main</text>
<polyline fill="none" stroke="#bfbfbf" points="120.5,-181.5 167.5,-181.5 "/>
<text text-anchor="middle" x="144" y="-167.9" font-family="Helvetica,sans-Serif" font-size="12.00"> </text>
<polyline fill="none" stroke="#bfbfbf" points="120.5,-160.5 167.5,-160.5 "/>
<text text-anchor="middle" x="144" y="-146.9" font-family="Helvetica,sans-Serif" font-size="12.00"> </text>
</a>
</g>
</g>
<!-- Node3&#45;&gt;Node1 -->
<g id="edge2" class="edge">
<title>Node3&#45;&gt;Node1</title>
<path fill="none" stroke="#404040" d="M132.38,-139.35C128.01,-127.81 122.89,-114.31 117.93,-101.21"/>
<polygon fill="none" stroke="#404040" points="117.88,-101.09 112.01,-96.9 113.63,-89.87 119.5,-94.06 117.88,-101.09"/>
<text text-anchor="middle" x="133.5" y="-111.4" font-family="Helvetica,sans-Serif" font-size="12.00"> &#45;ui</text>
</g>
</g>
</svg>
