<?xml version="1.0" encoding="UTF-8" standalone="no"?>
<!DOCTYPE svg PUBLIC "-//W3C//DTD SVG 1.1//EN"
 "http://www.w3.org/Graphics/SVG/1.1/DTD/svg11.dtd">
<!-- Generated by graphviz version 2.43.0 (0)
 -->
<!-- Title: base.BaseCLI.process Pages: 1 -->
<!--zoomable 419 -->
<svg id="main" version="1.1" xmlns="http://www.w3.org/2000/svg" xmlns:xlink="http://www.w3.org/1999/xlink" xml:space="preserve" onload="init(evt)">
<style type="text/css"><![CDATA[
.edge:hover path { stroke: red; }
.edge:hover polygon { stroke: red; fill: red; }
]]></style>
<script type="text/javascript"><![CDATA[
var edges = document.getElementsByTagName('g');
if (edges && edges.length) {
  for (var i=0;i<edges.length;i++) {
    if (edges[i].id.substr(0,4)=='edge') {
      edges[i].setAttribute('class','edge');
    }
  }
}
]]></script>
        <defs>
                <circle id="rim" cx="0" cy="0" r="7"/>
                <circle id="rim2" cx="0" cy="0" r="3.5"/>
                <g id="zoomPlus">
                        <use xlink:href="#rim" fill="#404040">
                                <set attributeName="fill" to="#808080" begin="zoomplus.mouseover" end="zoomplus.mouseout"/>
                        </use>
                        <path d="M-4,0h8M0,-4v8" fill="none" stroke="white" stroke-width="1.5" pointer-events="none"/>
                </g>
                <g id="zoomMin">
                        <use xlink:href="#rim" fill="#404040">
                                <set attributeName="fill" to="#808080" begin="zoomminus.mouseover" end="zoomminus.mouseout"/>
                        </use>
                        <path d="M-4,0h8" fill="none" stroke="white" stroke-width="1.5" pointer-events="none"/>
                </g>
                <g id="dirArrow">
                        <path fill="none" stroke="white" stroke-width="1.5" d="M0,-3.0v7 M-2.5,-0.5L0,-3.0L2.5,-0.5"/>
                </g>
               <g id="resetDef">
                       <use xlink:href="#rim2" fill="#404040">
                               <set attributeName="fill" to="#808080" begin="reset.mouseover" end="reset.mouseout"/>
                       </use>
               </g>
        </defs>

<script type="text/javascript">
var viewWidth = 1065;
var viewHeight = 419;
var sectionId = 'dynsection-17';
</script>
<script xlink:href="svgpan.js"/>
<svg id="graph" class="graph">
<g id="viewport">
<title>base.BaseCLI.process</title>
<!-- Node1 -->
<g id="node1" class="node">
<title>Node1</title>
<g id="a_node1"><a xlink:title=" ">
<polygon fill="#bfbfbf" stroke="black" points="0,-195.5 0,-216.5 146,-216.5 146,-195.5 0,-195.5"/>
<text text-anchor="middle" x="73" y="-202.9" font-family="Helvetica,sans-Serif" font-size="12.00">base.BaseCLI.process</text>
</a>
</g>
</g>
<!-- Node2 -->
<g id="node2" class="node">
<title>Node2</title>
<g id="a_node2"><a xlink:href="classbase_1_1_base_c_l_i.html#a3178017ad9900e1455460302122fe694" target="_top" xlink:title=" ">
<polygon fill="none" stroke="black" points="182,-370.5 182,-391.5 337,-391.5 337,-370.5 182,-370.5"/>
<text text-anchor="middle" x="259.5" y="-377.9" font-family="Helvetica,sans-Serif" font-size="12.00">base.BaseCLI.generate</text>
</a>
</g>
</g>
<!-- Node1&#45;&gt;Node2 -->
<g id="edge1" class="edge">
<title>Node1&#45;&gt;Node2</title>
<path fill="none" stroke="midnightblue" d="M80.32,-216.82C95.26,-241.67 135.09,-303.63 182,-342 193.79,-351.65 208.36,-359.8 221.61,-366.13"/>
<polygon fill="midnightblue" stroke="midnightblue" points="220.42,-369.43 230.97,-370.4 223.32,-363.06 220.42,-369.43"/>
</g>
<!-- Node5 -->
<g id="node5" class="node">
<title>Node5</title>
<g id="a_node5"><a xlink:href="classbase_1_1_base_c_l_i.html#a9a07289c27ee0b79f1f886df237075ae" target="_top" xlink:title=" ">
<polygon fill="none" stroke="black" points="189.5,-298 189.5,-332 329.5,-332 329.5,-298 189.5,-298"/>
<text text-anchor="start" x="197.5" y="-318.4" font-family="Helvetica,sans-Serif" font-size="12.00">base.BaseCLI.import</text>
<text text-anchor="middle" x="259.5" y="-305.4" font-family="Helvetica,sans-Serif" font-size="12.00">_model</text>
</a>
</g>
</g>
<!-- Node1&#45;&gt;Node5 -->
<g id="edge4" class="edge">
<title>Node1&#45;&gt;Node5</title>
<path fill="none" stroke="midnightblue" d="M92.03,-216.65C121.66,-234.16 181.29,-269.38 220.54,-292.58"/>
<polygon fill="midnightblue" stroke="midnightblue" points="219.18,-295.83 229.57,-297.91 222.74,-289.81 219.18,-295.83"/>
</g>
<!-- Node7 -->
<g id="node7" class="node">
<title>Node7</title>
<g id="a_node7"><a xlink:href="class_markov_1_1_g_u_i_1_1_train.html#a6f74c2948379df5e7f0d8eba96c97fb0" target="_top" xlink:title=" ">
<polygon fill="none" stroke="black" points="196.5,-141 196.5,-175 322.5,-175 322.5,-141 196.5,-141"/>
<text text-anchor="start" x="204.5" y="-161.4" font-family="Helvetica,sans-Serif" font-size="12.00">Markov::GUI::Train</text>
<text text-anchor="middle" x="259.5" y="-148.4" font-family="Helvetica,sans-Serif" font-size="12.00">::train</text>
</a>
</g>
</g>
<!-- Node1&#45;&gt;Node7 -->
<g id="edge7" class="edge">
<title>Node1&#45;&gt;Node7</title>
<path fill="none" stroke="midnightblue" d="M114.49,-195.47C135.56,-189.98 161.96,-183.12 186.37,-176.76"/>
<polygon fill="midnightblue" stroke="midnightblue" points="187.54,-180.08 196.34,-174.17 185.78,-173.3 187.54,-180.08"/>
</g>
<!-- Node14 -->
<g id="node14" class="node">
<title>Node14</title>
<g id="a_node14"><a xlink:href="class_markov_1_1_g_u_i_1_1_generate.html#af5f5d0fcc5530157d882e35e35d1649e" target="_top" xlink:title=" ">
<polygon fill="none" stroke="black" points="182.5,-85 182.5,-119 336.5,-119 336.5,-85 182.5,-85"/>
<text text-anchor="start" x="190.5" y="-105.4" font-family="Helvetica,sans-Serif" font-size="12.00">Markov::GUI::Generate</text>
<text text-anchor="middle" x="259.5" y="-92.4" font-family="Helvetica,sans-Serif" font-size="12.00">::train</text>
</a>
</g>
</g>
<!-- Node1&#45;&gt;Node14 -->
<g id="edge14" class="edge">
<title>Node1&#45;&gt;Node14</title>
<path fill="none" stroke="midnightblue" d="M87.35,-195.37C107.14,-179.96 145.85,-151.15 182,-132 187.93,-128.86 194.26,-125.86 200.65,-123.06"/>
<polygon fill="midnightblue" stroke="midnightblue" points="202.16,-126.22 210.01,-119.09 199.43,-119.77 202.16,-126.22"/>
</g>
<!-- Node15 -->
<g id="node15" class="node">
<title>Node15</title>
<g id="a_node15"><a xlink:href="classbase_1_1_base_c_l_i.html#a57cd9963d8dfbc42b2e560b0dacd871d" target="_top" xlink:title=" ">
<polygon fill="none" stroke="black" points="195.5,-195.5 195.5,-216.5 323.5,-216.5 323.5,-195.5 195.5,-195.5"/>
<text text-anchor="middle" x="259.5" y="-202.9" font-family="Helvetica,sans-Serif" font-size="12.00">base.BaseCLI.train</text>
</a>
</g>
</g>
<!-- Node1&#45;&gt;Node15 -->
<g id="edge16" class="edge">
<title>Node1&#45;&gt;Node15</title>
<path fill="none" stroke="midnightblue" d="M146.13,-206C158.96,-206 172.35,-206 185.22,-206"/>
<polygon fill="midnightblue" stroke="midnightblue" points="185.41,-209.5 195.41,-206 185.41,-202.5 185.41,-209.5"/>
</g>
<!-- Node3 -->
<g id="node3" class="node">
<title>Node3</title>
<g id="a_node3"><a xlink:href="classbase_1_1_base_c_l_i.html#a4e56de0ebfeb7d595e1463bf23ecfe88" target="_top" xlink:title=" ">
<polygon fill="none" stroke="black" points="392.5,-389.5 392.5,-410.5 553.5,-410.5 553.5,-389.5 392.5,-389.5"/>
<text text-anchor="middle" x="473" y="-396.9" font-family="Helvetica,sans-Serif" font-size="12.00">base.BaseCLI._generate</text>
</a>
</g>
</g>
<!-- Node2&#45;&gt;Node3 -->
<g id="edge2" class="edge">
<title>Node2&#45;&gt;Node3</title>
<path fill="none" stroke="midnightblue" d="M337.16,-387.89C351.76,-389.2 367.16,-390.58 382.13,-391.93"/>
<polygon fill="midnightblue" stroke="midnightblue" points="382.13,-395.44 392.4,-392.85 382.76,-388.47 382.13,-395.44"/>
</g>
<!-- Node4 -->
<g id="node4" class="node">
<title>Node4</title>
<g id="a_node4"><a xlink:href="class_markov_1_1_g_u_i_1_1_markov_passwords_g_u_i.html#a99619a46f49b909fafeaa6ac8076a333" target="_top" xlink:title=" ">
<polygon fill="none" stroke="black" points="609,-297 609,-331 812,-331 812,-297 609,-297"/>
<text text-anchor="start" x="617" y="-317.4" font-family="Helvetica,sans-Serif" font-size="12.00">Markov::GUI::MarkovPasswords</text>
<text text-anchor="middle" x="710.5" y="-304.4" font-family="Helvetica,sans-Serif" font-size="12.00">GUI::model</text>
</a>
</g>
</g>
<!-- Node3&#45;&gt;Node4 -->
<g id="edge3" class="edge">
<title>Node3&#45;&gt;Node4</title>
<path fill="none" stroke="midnightblue" d="M522.83,-389.44C538.98,-385.49 556.92,-380.58 573,-375 605.14,-363.85 640.14,-348.14 666.66,-335.45"/>
<polygon fill="midnightblue" stroke="midnightblue" points="668.18,-338.6 675.66,-331.1 665.14,-332.29 668.18,-338.6"/>
</g>
<!-- Node5&#45;&gt;Node4 -->
<g id="edge6" class="edge">
<title>Node5&#45;&gt;Node4</title>
<path fill="none" stroke="midnightblue" d="M319.87,-332.01C336.88,-336.13 355.55,-339.93 373,-342 461.27,-352.44 484.57,-350.98 573,-342 591.67,-340.11 611.55,-336.79 630.2,-333.09"/>
<polygon fill="midnightblue" stroke="midnightblue" points="631.03,-336.49 640.13,-331.06 629.63,-329.63 631.03,-336.49"/>
</g>
<!-- Node6 -->
<g id="node6" class="node">
<title>Node6</title>
<g id="a_node6"><a xlink:href="classbase_1_1_base_c_l_i.html#a8839aad437c2dfba5481a744274ff580" target="_top" xlink:title=" ">
<polygon fill="none" stroke="black" points="405,-298 405,-332 541,-332 541,-298 405,-298"/>
<text text-anchor="start" x="413" y="-318.4" font-family="Helvetica,sans-Serif" font-size="12.00">base.BaseCLI.check</text>
<text text-anchor="middle" x="473" y="-305.4" font-family="Helvetica,sans-Serif" font-size="12.00">_import_path</text>
</a>
</g>
</g>
<!-- Node5&#45;&gt;Node6 -->
<g id="edge5" class="edge">
<title>Node5&#45;&gt;Node6</title>
<path fill="none" stroke="midnightblue" d="M329.75,-315C350.46,-315 373.29,-315 394.49,-315"/>
<polygon fill="midnightblue" stroke="midnightblue" points="394.75,-318.5 404.75,-315 394.75,-311.5 394.75,-318.5"/>
</g>
<!-- Node8 -->
<g id="node8" class="node">
<title>Node8</title>
<g id="a_node8"><a xlink:href="class_markov_1_1_a_p_i_1_1_markov_passwords.html#a2fd4423ae3850e258dcb6b11a7feb9b2" target="_top" xlink:title="Train the model with the dataset file.">
<polygon fill="none" stroke="black" points="373,-60 373,-94 573,-94 573,-60 373,-60"/>
<text text-anchor="start" x="381" y="-80.4" font-family="Helvetica,sans-Serif" font-size="12.00">Markov::API::MarkovPasswords</text>
<text text-anchor="middle" x="473" y="-67.4" font-family="Helvetica,sans-Serif" font-size="12.00">::Train</text>
</a>
</g>
</g>
<!-- Node7&#45;&gt;Node8 -->
<g id="edge8" class="edge">
<title>Node7&#45;&gt;Node8</title>
<path fill="none" stroke="midnightblue" d="M309.02,-140.95C318.48,-137.08 328.19,-132.7 337,-128 354.18,-118.83 355.31,-111.15 373,-103 377.31,-101.01 381.8,-99.16 386.39,-97.43"/>
<polygon fill="midnightblue" stroke="midnightblue" points="387.65,-100.69 395.9,-94.05 385.31,-94.1 387.65,-100.69"/>
</g>
<!-- Node9 -->
<g id="node9" class="node">
<title>Node9</title>
<g id="a_node9"><a xlink:href="markov_passwords_8cpp.html#a3b33e6f48f5d988f336e915c5346eb95" target="_top" xlink:title=" ">
<polygon fill="none" stroke="black" points="671,-66.5 671,-87.5 750,-87.5 750,-66.5 671,-66.5"/>
<text text-anchor="middle" x="710.5" y="-73.9" font-family="Helvetica,sans-Serif" font-size="12.00">intHandler</text>
</a>
</g>
</g>
<!-- Node8&#45;&gt;Node9 -->
<g id="edge9" class="edge">
<title>Node8&#45;&gt;Node9</title>
<path fill="none" stroke="midnightblue" d="M573.19,-77C603.46,-77 635.41,-77 660.77,-77"/>
<polygon fill="midnightblue" stroke="midnightblue" points="660.85,-80.5 670.85,-77 660.85,-73.5 660.85,-80.5"/>
</g>
<!-- Node10 -->
<g id="node10" class="node">
<title>Node10</title>
<g id="a_node10"><a xlink:href="class_markov_1_1_a_p_i_1_1_concurrency_1_1_thread_shared_list_handler.html#a08d468aa4146a30f4176bc91a40ed292" target="_top" xlink:title="Construct the Thread Handler with a filename.">
<polygon fill="none" stroke="black" points="622.5,-0.5 622.5,-47.5 798.5,-47.5 798.5,-0.5 622.5,-0.5"/>
<text text-anchor="start" x="630.5" y="-33.9" font-family="Helvetica,sans-Serif" font-size="12.00">Markov::API::Concurrency</text>
<text text-anchor="start" x="630.5" y="-20.9" font-family="Helvetica,sans-Serif" font-size="12.00">::ThreadSharedListHandler</text>
<text text-anchor="middle" x="710.5" y="-7.9" font-family="Helvetica,sans-Serif" font-size="12.00">::ThreadSharedListHandler</text>
</a>
</g>
</g>
<!-- Node8&#45;&gt;Node10 -->
<g id="edge10" class="edge">
<title>Node8&#45;&gt;Node10</title>
<path fill="none" stroke="midnightblue" d="M549.81,-59.94C569.78,-55.45 591.59,-50.54 612.51,-45.83"/>
<polygon fill="midnightblue" stroke="midnightblue" points="613.38,-49.22 622.36,-43.61 611.84,-42.39 613.38,-49.22"/>
</g>
<!-- Node11 -->
<g id="node11" class="node">
<title>Node11</title>
<g id="a_node11"><a xlink:href="class_markov_1_1_a_p_i_1_1_markov_passwords.html#a5f51b0fdb75101b797f38b08da84848e" target="_top" xlink:title="A single thread invoked by the Train function.">
<polygon fill="none" stroke="black" points="610.5,-107 610.5,-141 810.5,-141 810.5,-107 610.5,-107"/>
<text text-anchor="start" x="618.5" y="-127.4" font-family="Helvetica,sans-Serif" font-size="12.00">Markov::API::MarkovPasswords</text>
<text text-anchor="middle" x="710.5" y="-114.4" font-family="Helvetica,sans-Serif" font-size="12.00">::TrainThread</text>
</a>
</g>
</g>
<!-- Node8&#45;&gt;Node11 -->
<g id="edge11" class="edge">
<title>Node8&#45;&gt;Node11</title>
<path fill="none" stroke="midnightblue" d="M559.35,-94.03C577.12,-97.58 595.96,-101.34 614.07,-104.95"/>
<polygon fill="midnightblue" stroke="midnightblue" points="613.55,-108.42 624.04,-106.94 614.92,-101.56 613.55,-108.42"/>
</g>
<!-- Node12 -->
<g id="node12" class="node">
<title>Node12</title>
<g id="a_node12"><a xlink:href="class_markov_1_1_model.html#ad252913f83fa3eb14cc3f9f92c5ee37a" target="_top" xlink:title="Adjust the model with a single string.">
<polygon fill="none" stroke="black" points="863,-136.5 863,-157.5 1042,-157.5 1042,-136.5 863,-136.5"/>
<text text-anchor="middle" x="952.5" y="-143.9" font-family="Helvetica,sans-Serif" font-size="12.00">Markov::Model::AdjustEdge</text>
</a>
</g>
</g>
<!-- Node11&#45;&gt;Node12 -->
<g id="edge12" class="edge">
<title>Node11&#45;&gt;Node12</title>
<path fill="none" stroke="midnightblue" d="M810.5,-133.49C824.43,-134.82 838.74,-136.19 852.66,-137.53"/>
<polygon fill="midnightblue" stroke="midnightblue" points="852.43,-141.02 862.71,-138.49 853.09,-134.05 852.43,-141.02"/>
</g>
<!-- Node13 -->
<g id="node13" class="node">
<title>Node13</title>
<g id="a_node13"><a xlink:href="class_markov_1_1_a_p_i_1_1_concurrency_1_1_thread_shared_list_handler.html#a068e1a9ff477de23a44c10230df416a5" target="_top" xlink:title="Read the next line from the file.">
<polygon fill="none" stroke="black" points="848,-83 848,-117 1057,-117 1057,-83 848,-83"/>
<text text-anchor="start" x="856" y="-103.4" font-family="Helvetica,sans-Serif" font-size="12.00">Markov::API::Concurrency</text>
<text text-anchor="middle" x="952.5" y="-90.4" font-family="Helvetica,sans-Serif" font-size="12.00">::ThreadSharedListHandler::next</text>
</a>
</g>
</g>
<!-- Node11&#45;&gt;Node13 -->
<g id="edge13" class="edge">
<title>Node11&#45;&gt;Node13</title>
<path fill="none" stroke="midnightblue" d="M810.5,-114.1C819.42,-113.21 828.49,-112.3 837.51,-111.4"/>
<polygon fill="midnightblue" stroke="midnightblue" points="838.07,-114.86 847.67,-110.38 837.38,-107.9 838.07,-114.86"/>
</g>
<!-- Node14&#45;&gt;Node8 -->
<g id="edge15" class="edge">
<title>Node14&#45;&gt;Node8</title>
<path fill="none" stroke="midnightblue" d="M336.56,-93.01C345.08,-92 353.87,-90.96 362.71,-89.92"/>
<polygon fill="midnightblue" stroke="midnightblue" points="363.16,-93.39 372.68,-88.74 362.34,-86.44 363.16,-93.39"/>
</g>
<!-- Node15&#45;&gt;Node4 -->
<g id="edge21" class="edge">
<title>Node15&#45;&gt;Node4</title>
<path fill="none" stroke="midnightblue" d="M323.69,-208.63C387.7,-212.65 488.99,-222.75 573,-248 608.07,-258.54 645.32,-277.11 672.04,-291.87"/>
<polygon fill="midnightblue" stroke="midnightblue" points="670.6,-295.08 681.03,-296.92 674.02,-288.97 670.6,-295.08"/>
</g>
<!-- Node16 -->
<g id="node16" class="node">
<title>Node16</title>
<g id="a_node16"><a xlink:href="classbase_1_1_base_c_l_i.html#ac5ed1fa9866d7b2ae8942cedaf30f1c4" target="_top" xlink:title=" ">
<polygon fill="none" stroke="black" points="405,-166 405,-200 541,-200 541,-166 405,-166"/>
<text text-anchor="start" x="413" y="-186.4" font-family="Helvetica,sans-Serif" font-size="12.00">base.BaseCLI.check</text>
<text text-anchor="middle" x="473" y="-173.4" font-family="Helvetica,sans-Serif" font-size="12.00">_corpus_path</text>
</a>
</g>
</g>
<!-- Node15&#45;&gt;Node16 -->
<g id="edge17" class="edge">
<title>Node15&#45;&gt;Node16</title>
<path fill="none" stroke="midnightblue" d="M323.67,-199.13C345.94,-196.71 371.23,-193.96 394.54,-191.42"/>
<polygon fill="midnightblue" stroke="midnightblue" points="395.18,-194.87 404.74,-190.31 394.42,-187.92 395.18,-194.87"/>
</g>
<!-- Node17 -->
<g id="node17" class="node">
<title>Node17</title>
<g id="a_node17"><a xlink:href="classbase_1_1_base_c_l_i.html#a9cadc9a6993e1f53418c8fe9403ac941" target="_top" xlink:title=" ">
<polygon fill="none" stroke="black" points="405,-113 405,-147 541,-147 541,-113 405,-113"/>
<text text-anchor="start" x="413" y="-133.4" font-family="Helvetica,sans-Serif" font-size="12.00">base.BaseCLI.check</text>
<text text-anchor="middle" x="473" y="-120.4" font-family="Helvetica,sans-Serif" font-size="12.00">_export_path</text>
</a>
</g>
</g>
<!-- Node15&#45;&gt;Node17 -->
<g id="edge18" class="edge">
<title>Node15&#45;&gt;Node17</title>
<path fill="none" stroke="midnightblue" d="M310.13,-195.45C319.3,-192.64 328.63,-189.2 337,-185 355.12,-175.92 354.87,-166.06 373,-157 380,-153.5 387.52,-150.4 395.16,-147.68"/>
<polygon fill="midnightblue" stroke="midnightblue" points="396.52,-150.92 404.89,-144.42 394.3,-144.28 396.52,-150.92"/>
</g>
<!-- Node18 -->
<g id="node18" class="node">
<title>Node18</title>
<g id="a_node18"><a xlink:href="classbase_1_1_base_c_l_i.html#a61612a5271d78046d11f000ae47b5ece" target="_top" xlink:title=" ">
<polygon fill="none" stroke="black" points="403,-257.5 403,-278.5 543,-278.5 543,-257.5 403,-257.5"/>
<text text-anchor="middle" x="473" y="-264.9" font-family="Helvetica,sans-Serif" font-size="12.00">base.BaseCLI.export</text>
</a>
</g>
</g>
<!-- Node15&#45;&gt;Node18 -->
<g id="edge19" class="edge">
<title>Node15&#45;&gt;Node18</title>
<path fill="none" stroke="midnightblue" d="M290.88,-216.63C313.41,-224.37 344.96,-234.86 373,-243 387.39,-247.18 403.06,-251.32 417.61,-255"/>
<polygon fill="midnightblue" stroke="midnightblue" points="416.92,-258.43 427.47,-257.46 418.61,-251.64 416.92,-258.43"/>
</g>
<!-- Node18&#45;&gt;Node4 -->
<g id="edge20" class="edge">
<title>Node18&#45;&gt;Node4</title>
<path fill="none" stroke="midnightblue" d="M528.03,-278.55C552.93,-283.42 583.27,-289.34 611.97,-294.95"/>
<polygon fill="midnightblue" stroke="midnightblue" points="611.55,-298.43 622.03,-296.92 612.89,-291.56 611.55,-298.43"/>
</g>
</g>
</svg>
        <g id="navigator" transform="translate(0 0)" fill="#404254">
                <rect fill="#f2f5e9" fill-opacity="0.5" stroke="#606060" stroke-width=".5" x="0" y="0" width="60" height="60"/>
                <use id="zoomplus" xlink:href="#zoomPlus" x="17" y="9" onmousedown="handleZoom(evt,'in')"/>
                <use id="zoomminus" xlink:href="#zoomMin" x="42" y="9" onmousedown="handleZoom(evt,'out')"/>
                <use id="reset" xlink:href="#resetDef" x="30" y="36" onmousedown="handleReset()"/>
                <g id="arrowUp" xlink:href="#dirArrow" transform="translate(30 24)" onmousedown="handlePan(0,-1)">
                  <use xlink:href="#rim" fill="#404040">
                        <set attributeName="fill" to="#808080" begin="arrowUp.mouseover" end="arrowUp.mouseout"/>
                  </use>
                  <path fill="none" stroke="white" stroke-width="1.5" d="M0,-3.0v7 M-2.5,-0.5L0,-3.0L2.5,-0.5"/>
                </g>
                <g id="arrowRight" xlink:href="#dirArrow" transform="rotate(90) translate(36 -43)" onmousedown="handlePan(1,0)">
                  <use xlink:href="#rim" fill="#404040">
                        <set attributeName="fill" to="#808080" begin="arrowRight.mouseover" end="arrowRight.mouseout"/>
                  </use>
                  <path fill="none" stroke="white" stroke-width="1.5" d="M0,-3.0v7 M-2.5,-0.5L0,-3.0L2.5,-0.5"/>
                </g>
                <g id="arrowDown" xlink:href="#dirArrow" transform="rotate(180) translate(-30 -48)" onmousedown="handlePan(0,1)">
                  <use xlink:href="#rim" fill="#404040">
                        <set attributeName="fill" to="#808080" begin="arrowDown.mouseover" end="arrowDown.mouseout"/>
                  </use>
                  <path fill="none" stroke="white" stroke-width="1.5" d="M0,-3.0v7 M-2.5,-0.5L0,-3.0L2.5,-0.5"/>
                </g>
                <g id="arrowLeft" xlink:href="#dirArrow" transform="rotate(270) translate(-36 17)" onmousedown="handlePan(-1,0)">
                  <use xlink:href="#rim" fill="#404040">
                        <set attributeName="fill" to="#808080" begin="arrowLeft.mouseover" end="arrowLeft.mouseout"/>
                  </use>
                  <path fill="none" stroke="white" stroke-width="1.5" d="M0,-3.0v7 M-2.5,-0.5L0,-3.0L2.5,-0.5"/>
                </g>
        </g>
        <svg viewBox="0 0 15 15" width="100%" height="30px" preserveAspectRatio="xMaxYMin meet">
         <g id="arrow_out" transform="scale(0.3 0.3)">
          <a xlink:href="classbase_1_1_base_c_l_i_a81415f28ab1efa8b74cb6d5fe063a2d3_cgraph_org.svg" target="_base">
           <rect id="button" ry="5" rx="5" y="6" x="6" height="38" width="38"
                fill="#f2f5e9" fill-opacity="0.5" stroke="#606060" stroke-width="1.0"/>
           <path id="arrow"
             d="M 11.500037,31.436501 C 11.940474,20.09759 22.043105,11.32322 32.158766,21.979434 L 37.068811,17.246167 C 37.068811,17.246167 37.088388,32 37.088388,32 L 22.160133,31.978069 C 22.160133,31.978069 26.997745,27.140456 26.997745,27.140456 C 18.528582,18.264221 13.291696,25.230495 11.500037,31.436501 z"
             style="fill:#404040;"/>
          </a>
         </g>
        </svg>
</svg>
