<?xml version="1.0" encoding="UTF-8" standalone="no"?>
<!DOCTYPE svg PUBLIC "-//W3C//DTD SVG 1.1//EN"
 "http://www.w3.org/Graphics/SVG/1.1/DTD/svg11.dtd">
<!-- Generated by graphviz version 2.43.0 (0)
 -->
<!-- Title: Markov::Edge&lt; NodeStorageType &gt; Pages: 1 -->
<!--zoomable 1009 -->
<svg id="main" version="1.1" xmlns="http://www.w3.org/2000/svg" xmlns:xlink="http://www.w3.org/1999/xlink" xml:space="preserve" onload="init(evt)">
<style type="text/css"><![CDATA[
.edge:hover path { stroke: red; }
.edge:hover polygon { stroke: red; fill: red; }
]]></style>
<script type="text/javascript"><![CDATA[
var edges = document.getElementsByTagName('g');
if (edges && edges.length) {
  for (var i=0;i<edges.length;i++) {
    if (edges[i].id.substr(0,4)=='edge') {
      edges[i].setAttribute('class','edge');
    }
  }
}
]]></script>
        <defs>
                <circle id="rim" cx="0" cy="0" r="7"/>
                <circle id="rim2" cx="0" cy="0" r="3.5"/>
                <g id="zoomPlus">
                        <use xlink:href="#rim" fill="#404040">
                                <set attributeName="fill" to="#808080" begin="zoomplus.mouseover" end="zoomplus.mouseout"/>
                        </use>
                        <path d="M-4,0h8M0,-4v8" fill="none" stroke="white" stroke-width="1.5" pointer-events="none"/>
                </g>
                <g id="zoomMin">
                        <use xlink:href="#rim" fill="#404040">
                                <set attributeName="fill" to="#808080" begin="zoomminus.mouseover" end="zoomminus.mouseout"/>
                        </use>
                        <path d="M-4,0h8" fill="none" stroke="white" stroke-width="1.5" pointer-events="none"/>
                </g>
                <g id="dirArrow">
                        <path fill="none" stroke="white" stroke-width="1.5" d="M0,-3.0v7 M-2.5,-0.5L0,-3.0L2.5,-0.5"/>
                </g>
               <g id="resetDef">
                       <use xlink:href="#rim2" fill="#404040">
                               <set attributeName="fill" to="#808080" begin="reset.mouseover" end="reset.mouseout"/>
                       </use>
               </g>
        </defs>

<script type="text/javascript">
var viewWidth = 790;
var viewHeight = 1009;
var sectionId = 'dynsection-0';
</script>
<script xlink:href="svgpan.js"/>
<svg id="graph" class="graph">
<g id="viewport">
<title>Markov::Edge&lt; NodeStorageType &gt;</title>
<!-- Node1 -->
<g id="node1" class="node">
<title>Node1</title>
<g id="a_node1"><a xlink:title="Edge class used to link nodes in the model together.">
<polygon fill="#bfbfbf" stroke="black" points="0,-0.5 0,-284.5 224,-284.5 224,-0.5 0,-0.5"/>
<text text-anchor="start" x="8" y="-270.9" font-family="Helvetica,sans-Serif" font-size="12.00">Markov::Edge&lt; NodeStorage</text>
<text text-anchor="middle" x="112" y="-257.9" font-family="Helvetica,sans-Serif" font-size="12.00">Type &gt;</text>
<polyline fill="none" stroke="black" points="0,-250.5 224,-250.5 "/>
<text text-anchor="middle" x="112" y="-236.9" font-family="Helvetica,sans-Serif" font-size="12.00"> </text>
<polyline fill="none" stroke="black" points="0,-229.5 224,-229.5 "/>
<text text-anchor="start" x="8" y="-215.9" font-family="Helvetica,sans-Serif" font-size="12.00">+ Edge()</text>
<text text-anchor="start" x="8" y="-202.9" font-family="Helvetica,sans-Serif" font-size="12.00">+ Edge(Node&lt; NodeStorageType</text>
<text text-anchor="start" x="8" y="-189.9" font-family="Helvetica,sans-Serif" font-size="12.00"> &gt; *_left, Node&lt; NodeStorageType</text>
<text text-anchor="start" x="8" y="-176.9" font-family="Helvetica,sans-Serif" font-size="12.00"> &gt; *_right)</text>
<text text-anchor="start" x="8" y="-163.9" font-family="Helvetica,sans-Serif" font-size="12.00">+ void AdjustEdge(long</text>
<text text-anchor="start" x="8" y="-150.9" font-family="Helvetica,sans-Serif" font-size="12.00"> int offset)</text>
<text text-anchor="start" x="8" y="-137.9" font-family="Helvetica,sans-Serif" font-size="12.00">+ Node&lt; NodeStorageType</text>
<text text-anchor="start" x="8" y="-124.9" font-family="Helvetica,sans-Serif" font-size="12.00"> &gt; * TraverseNode()</text>
<text text-anchor="start" x="8" y="-111.9" font-family="Helvetica,sans-Serif" font-size="12.00">+ void SetLeftEdge(Node</text>
<text text-anchor="start" x="8" y="-98.9" font-family="Helvetica,sans-Serif" font-size="12.00">&lt; NodeStorageType &gt; *)</text>
<text text-anchor="start" x="8" y="-85.9" font-family="Helvetica,sans-Serif" font-size="12.00">+ void SetRightEdge(Node</text>
<text text-anchor="start" x="8" y="-72.9" font-family="Helvetica,sans-Serif" font-size="12.00">&lt; NodeStorageType &gt; *)</text>
<text text-anchor="start" x="8" y="-59.9" font-family="Helvetica,sans-Serif" font-size="12.00">+ uint64_t EdgeWeight()</text>
<text text-anchor="start" x="8" y="-46.9" font-family="Helvetica,sans-Serif" font-size="12.00">+ Node&lt; NodeStorageType</text>
<text text-anchor="start" x="8" y="-33.9" font-family="Helvetica,sans-Serif" font-size="12.00"> &gt; * LeftNode()</text>
<text text-anchor="start" x="8" y="-20.9" font-family="Helvetica,sans-Serif" font-size="12.00">+ Node&lt; NodeStorageType</text>
<text text-anchor="start" x="8" y="-7.9" font-family="Helvetica,sans-Serif" font-size="12.00"> &gt; * RightNode()</text>
</a>
</g>
</g>
<!-- Node2 -->
<g id="node2" class="node">
<title>Node2</title>
<g id="a_node2"><a xlink:href="class_markov_1_1_node.html" target="_top" xlink:title=" ">
<polygon fill="none" stroke="black" points="129,-347.5 129,-761.5 371,-761.5 371,-347.5 129,-347.5"/>
<text text-anchor="start" x="137" y="-747.9" font-family="Helvetica,sans-Serif" font-size="12.00">Markov::Node&lt; NodeStorage</text>
<text text-anchor="middle" x="250" y="-734.9" font-family="Helvetica,sans-Serif" font-size="12.00">Type &gt;</text>
<polyline fill="none" stroke="black" points="129,-727.5 371,-727.5 "/>
<text text-anchor="middle" x="250" y="-713.9" font-family="Helvetica,sans-Serif" font-size="12.00"> </text>
<polyline fill="none" stroke="black" points="129,-706.5 371,-706.5 "/>
<text text-anchor="start" x="137" y="-692.9" font-family="Helvetica,sans-Serif" font-size="12.00">+ Node()</text>
<text text-anchor="start" x="137" y="-679.9" font-family="Helvetica,sans-Serif" font-size="12.00">+ Node(NodeStorageType</text>
<text text-anchor="start" x="137" y="-666.9" font-family="Helvetica,sans-Serif" font-size="12.00"> _value)</text>
<text text-anchor="start" x="137" y="-653.9" font-family="Helvetica,sans-Serif" font-size="12.00">+ Edge&lt; NodeStorageType</text>
<text text-anchor="start" x="137" y="-640.9" font-family="Helvetica,sans-Serif" font-size="12.00"> &gt; * Link(Node&lt; NodeStorage</text>
<text text-anchor="start" x="137" y="-627.9" font-family="Helvetica,sans-Serif" font-size="12.00">Type &gt; *)</text>
<text text-anchor="start" x="137" y="-614.9" font-family="Helvetica,sans-Serif" font-size="12.00">+ Edge&lt; NodeStorageType</text>
<text text-anchor="start" x="137" y="-601.9" font-family="Helvetica,sans-Serif" font-size="12.00"> &gt; * Link(Edge&lt; NodeStorage</text>
<text text-anchor="start" x="137" y="-588.9" font-family="Helvetica,sans-Serif" font-size="12.00">Type &gt; *)</text>
<text text-anchor="start" x="137" y="-575.9" font-family="Helvetica,sans-Serif" font-size="12.00">+ Node&lt; NodeStorageType</text>
<text text-anchor="start" x="137" y="-562.9" font-family="Helvetica,sans-Serif" font-size="12.00"> &gt; * RandomNext(Markov</text>
<text text-anchor="start" x="137" y="-549.9" font-family="Helvetica,sans-Serif" font-size="12.00">::Random::RandomEngine</text>
<text text-anchor="start" x="137" y="-536.9" font-family="Helvetica,sans-Serif" font-size="12.00"> *randomEngine)</text>
<text text-anchor="start" x="137" y="-523.9" font-family="Helvetica,sans-Serif" font-size="12.00">+ bool UpdateEdges(Edge</text>
<text text-anchor="start" x="137" y="-510.9" font-family="Helvetica,sans-Serif" font-size="12.00">&lt; NodeStorageType &gt; *)</text>
<text text-anchor="start" x="137" y="-497.9" font-family="Helvetica,sans-Serif" font-size="12.00">+ Edge&lt; NodeStorageType</text>
<text text-anchor="start" x="137" y="-484.9" font-family="Helvetica,sans-Serif" font-size="12.00"> &gt; * FindEdge(NodeStorageType repr)</text>
<text text-anchor="start" x="137" y="-471.9" font-family="Helvetica,sans-Serif" font-size="12.00">+ Edge&lt; NodeStorageType</text>
<text text-anchor="start" x="137" y="-458.9" font-family="Helvetica,sans-Serif" font-size="12.00"> &gt; * FindEdge(Node&lt; NodeStorage</text>
<text text-anchor="start" x="137" y="-445.9" font-family="Helvetica,sans-Serif" font-size="12.00">Type &gt; *target)</text>
<text text-anchor="start" x="137" y="-432.9" font-family="Helvetica,sans-Serif" font-size="12.00">+ unsigned char NodeValue()</text>
<text text-anchor="start" x="137" y="-419.9" font-family="Helvetica,sans-Serif" font-size="12.00">+ void UpdateTotalVerticeWeight</text>
<text text-anchor="start" x="137" y="-406.9" font-family="Helvetica,sans-Serif" font-size="12.00">(long int offset)</text>
<text text-anchor="start" x="137" y="-393.9" font-family="Helvetica,sans-Serif" font-size="12.00">+ std::map&lt; NodeStorageType,</text>
<text text-anchor="start" x="137" y="-380.9" font-family="Helvetica,sans-Serif" font-size="12.00"> Edge&lt; NodeStorageType</text>
<text text-anchor="start" x="137" y="-367.9" font-family="Helvetica,sans-Serif" font-size="12.00"> &gt; * &gt; * Edges()</text>
<text text-anchor="start" x="137" y="-354.9" font-family="Helvetica,sans-Serif" font-size="12.00">+ long int TotalEdgeWeights()</text>
</a>
</g>
</g>
<!-- Node2&#45;&gt;Node1 -->
<g id="edge1" class="edge">
<title>Node2&#45;&gt;Node1</title>
<path fill="none" stroke="#404040" d="M180.6,-347.3C174.79,-330.04 168.98,-312.8 163.35,-296.06"/>
<polygon fill="none" stroke="#404040" points="163.3,-295.92 157.6,-291.51 159.48,-284.55 165.18,-288.96 163.3,-295.92"/>
<text text-anchor="middle" x="192.5" y="-319.4" font-family="Helvetica,sans-Serif" font-size="12.00"> &#45;_left</text>
<text text-anchor="middle" x="192.5" y="-306.4" font-family="Helvetica,sans-Serif" font-size="12.00">&#45;_right</text>
</g>
<!-- Node3 -->
<g id="node3" class="node">
<title>Node3</title>
<g id="a_node3"><a xlink:title=" ">
<polygon fill="none" stroke="#bfbfbf" points="57,-818 57,-881 89,-881 89,-818 57,-818"/>
<text text-anchor="middle" x="73" y="-867.4" font-family="Helvetica,sans-Serif" font-size="12.00">int</text>
<polyline fill="none" stroke="#bfbfbf" points="57,-860 89,-860 "/>
<text text-anchor="middle" x="73" y="-846.4" font-family="Helvetica,sans-Serif" font-size="12.00"> </text>
<polyline fill="none" stroke="#bfbfbf" points="57,-839 89,-839 "/>
<text text-anchor="middle" x="73" y="-825.4" font-family="Helvetica,sans-Serif" font-size="12.00"> </text>
</a>
</g>
</g>
<!-- Node3&#45;&gt;Node1 -->
<g id="edge9" class="edge">
<title>Node3&#45;&gt;Node1</title>
<path fill="none" stroke="#404040" d="M69.77,-817.84C62.08,-739.25 44.78,-524.36 65,-347 66.87,-330.62 69.55,-313.64 72.71,-296.79"/>
<polygon fill="none" stroke="#404040" points="72.8,-296.33 70.01,-289.68 75.08,-284.55 77.87,-291.21 72.8,-296.33"/>
<text text-anchor="middle" x="92.5" y="-551.4" font-family="Helvetica,sans-Serif" font-size="12.00"> &#45;_weight</text>
</g>
<!-- Node3&#45;&gt;Node2 -->
<g id="edge2" class="edge">
<title>Node3&#45;&gt;Node2</title>
<path fill="none" stroke="#404040" d="M75.91,-817.96C78.24,-805.38 82.45,-791.16 90,-780 97.67,-768.66 105.54,-771.9 115,-762 116.86,-760.05 118.72,-758.07 120.56,-756.07"/>
<polygon fill="none" stroke="#404040" points="120.57,-756.06 121.59,-748.92 128.57,-747.11 127.55,-754.25 120.57,-756.06"/>
<text text-anchor="middle" x="152" y="-783.4" font-family="Helvetica,sans-Serif" font-size="12.00"> &#45;total_edge_weights</text>
</g>
<!-- Node4 -->
<g id="node4" class="node">
<title>Node4</title>
<g id="a_node4"><a xlink:href="class_node_storage_type.html" target="_top" xlink:title=" ">
<polygon fill="none" stroke="black" points="239.5,-937.5 239.5,-1000.5 362.5,-1000.5 362.5,-937.5 239.5,-937.5"/>
<text text-anchor="middle" x="301" y="-986.9" font-family="Helvetica,sans-Serif" font-size="12.00">NodeStorageType</text>
<polyline fill="none" stroke="black" points="239.5,-979.5 362.5,-979.5 "/>
<text text-anchor="middle" x="301" y="-965.9" font-family="Helvetica,sans-Serif" font-size="12.00"> </text>
<polyline fill="none" stroke="black" points="239.5,-958.5 362.5,-958.5 "/>
<text text-anchor="middle" x="301" y="-944.9" font-family="Helvetica,sans-Serif" font-size="12.00"> </text>
</a>
</g>
</g>
<!-- Node4&#45;&gt;Node2 -->
<g id="edge3" class="edge">
<title>Node4&#45;&gt;Node2</title>
<path fill="none" stroke="#404040" d="M268.28,-937.26C255.97,-923.51 243.42,-906.29 237,-888 224.39,-852.06 219.14,-812.58 218.29,-773.76"/>
<polygon fill="none" stroke="#404040" points="218.29,-773.74 214.23,-767.78 218.17,-761.74 222.23,-767.7 218.29,-773.74"/>
<text text-anchor="middle" x="260.5" y="-846.4" font-family="Helvetica,sans-Serif" font-size="12.00"> &#45;_value</text>
</g>
<!-- Node5 -->
<g id="node5" class="node">
<title>Node5</title>
<g id="a_node5"><a xlink:title=" ">
<polygon fill="none" stroke="#bfbfbf" points="293.5,-811.5 293.5,-887.5 552.5,-887.5 552.5,-811.5 293.5,-811.5"/>
<text text-anchor="start" x="301.5" y="-873.9" font-family="Helvetica,sans-Serif" font-size="12.00">std::map&lt; NodeStorageType,</text>
<text text-anchor="middle" x="423" y="-860.9" font-family="Helvetica,sans-Serif" font-size="12.00"> Markov::Edge&lt; NodeStorageType &gt; * &gt;</text>
<polyline fill="none" stroke="#bfbfbf" points="293.5,-853.5 552.5,-853.5 "/>
<text text-anchor="middle" x="423" y="-839.9" font-family="Helvetica,sans-Serif" font-size="12.00"> </text>
<polyline fill="none" stroke="#bfbfbf" points="293.5,-832.5 552.5,-832.5 "/>
<text text-anchor="middle" x="423" y="-818.9" font-family="Helvetica,sans-Serif" font-size="12.00"> </text>
</a>
</g>
</g>
<!-- Node4&#45;&gt;Node5 -->
<g id="edge6" class="edge">
<title>Node4&#45;&gt;Node5</title>
<path fill="none" stroke="#404040" d="M332.74,-937.43C345.83,-924.82 361.29,-909.94 375.67,-896.08"/>
<polygon fill="none" stroke="#404040" points="375.82,-895.94 377.36,-888.9 384.46,-887.62 382.91,-894.66 375.82,-895.94"/>
<text text-anchor="middle" x="382.5" y="-909.4" font-family="Helvetica,sans-Serif" font-size="12.00"> +keys</text>
</g>
<!-- Node5&#45;&gt;Node2 -->
<g id="edge4" class="edge">
<title>Node5&#45;&gt;Node2</title>
<path fill="none" stroke="#404040" d="M401.09,-811.39C394.26,-799.82 386.17,-786.13 377.36,-771.19"/>
<polygon fill="none" stroke="#404040" points="377.24,-771 370.75,-767.87 371.14,-760.67 377.63,-763.8 377.24,-771"/>
<text text-anchor="middle" x="411.5" y="-783.4" font-family="Helvetica,sans-Serif" font-size="12.00"> &#45;edges</text>
</g>
<!-- Node6 -->
<g id="node6" class="node">
<title>Node6</title>
<g id="a_node6"><a xlink:title=" ">
<polygon fill="none" stroke="#bfbfbf" points="414,-937.5 414,-1000.5 604,-1000.5 604,-937.5 414,-937.5"/>
<text text-anchor="middle" x="509" y="-986.9" font-family="Helvetica,sans-Serif" font-size="12.00">Edge&lt; NodeStorageType &gt; *</text>
<polyline fill="none" stroke="#bfbfbf" points="414,-979.5 604,-979.5 "/>
<text text-anchor="middle" x="509" y="-965.9" font-family="Helvetica,sans-Serif" font-size="12.00"> </text>
<polyline fill="none" stroke="#bfbfbf" points="414,-958.5 604,-958.5 "/>
<text text-anchor="middle" x="509" y="-944.9" font-family="Helvetica,sans-Serif" font-size="12.00"> </text>
</a>
</g>
</g>
<!-- Node6&#45;&gt;Node5 -->
<g id="edge5" class="edge">
<title>Node6&#45;&gt;Node5</title>
<path fill="none" stroke="#404040" d="M486.63,-937.43C477.75,-925.3 467.32,-911.06 457.51,-897.65"/>
<polygon fill="none" stroke="#404040" points="457.25,-897.3 450.48,-894.82 450.17,-887.62 456.94,-890.1 457.25,-897.3"/>
<text text-anchor="middle" x="506" y="-909.4" font-family="Helvetica,sans-Serif" font-size="12.00"> +elements</text>
</g>
<!-- Node7 -->
<g id="node7" class="node">
<title>Node7</title>
<g id="a_node7"><a xlink:title=" ">
<polygon fill="none" stroke="#bfbfbf" points="570.5,-811.5 570.5,-887.5 781.5,-887.5 781.5,-811.5 570.5,-811.5"/>
<text text-anchor="start" x="578.5" y="-873.9" font-family="Helvetica,sans-Serif" font-size="12.00">std::vector&lt; Markov</text>
<text text-anchor="middle" x="676" y="-860.9" font-family="Helvetica,sans-Serif" font-size="12.00">::Edge&lt; NodeStorageType &gt; * &gt;</text>
<polyline fill="none" stroke="#bfbfbf" points="570.5,-853.5 781.5,-853.5 "/>
<text text-anchor="middle" x="676" y="-839.9" font-family="Helvetica,sans-Serif" font-size="12.00"> </text>
<polyline fill="none" stroke="#bfbfbf" points="570.5,-832.5 781.5,-832.5 "/>
<text text-anchor="middle" x="676" y="-818.9" font-family="Helvetica,sans-Serif" font-size="12.00"> </text>
</a>
</g>
</g>
<!-- Node6&#45;&gt;Node7 -->
<g id="edge8" class="edge">
<title>Node6&#45;&gt;Node7</title>
<path fill="none" stroke="#404040" d="M552.44,-937.43C570.96,-924.4 592.93,-908.95 613.16,-894.71"/>
<polygon fill="none" stroke="#404040" points="613.43,-894.52 616.04,-887.8 623.25,-887.62 620.64,-894.34 613.43,-894.52"/>
<text text-anchor="middle" x="627" y="-909.4" font-family="Helvetica,sans-Serif" font-size="12.00"> +elements</text>
</g>
<!-- Node7&#45;&gt;Node2 -->
<g id="edge7" class="edge">
<title>Node7&#45;&gt;Node2</title>
<path fill="none" stroke="#404040" d="M622.05,-811.39C561.93,-770.04 462.54,-701.68 381.61,-646.02"/>
<polygon fill="none" stroke="#404040" points="381.21,-645.75 374,-645.64 371.33,-638.95 378.54,-639.05 381.21,-645.75"/>
<text text-anchor="middle" x="623" y="-783.4" font-family="Helvetica,sans-Serif" font-size="12.00"> +edgesV</text>
</g>
</g>
</svg>
        <g id="navigator" transform="translate(0 0)" fill="#404254">
                <rect fill="#f2f5e9" fill-opacity="0.5" stroke="#606060" stroke-width=".5" x="0" y="0" width="60" height="60"/>
                <use id="zoomplus" xlink:href="#zoomPlus" x="17" y="9" onmousedown="handleZoom(evt,'in')"/>
                <use id="zoomminus" xlink:href="#zoomMin" x="42" y="9" onmousedown="handleZoom(evt,'out')"/>
                <use id="reset" xlink:href="#resetDef" x="30" y="36" onmousedown="handleReset()"/>
                <g id="arrowUp" xlink:href="#dirArrow" transform="translate(30 24)" onmousedown="handlePan(0,-1)">
                  <use xlink:href="#rim" fill="#404040">
                        <set attributeName="fill" to="#808080" begin="arrowUp.mouseover" end="arrowUp.mouseout"/>
                  </use>
                  <path fill="none" stroke="white" stroke-width="1.5" d="M0,-3.0v7 M-2.5,-0.5L0,-3.0L2.5,-0.5"/>
                </g>
                <g id="arrowRight" xlink:href="#dirArrow" transform="rotate(90) translate(36 -43)" onmousedown="handlePan(1,0)">
                  <use xlink:href="#rim" fill="#404040">
                        <set attributeName="fill" to="#808080" begin="arrowRight.mouseover" end="arrowRight.mouseout"/>
                  </use>
                  <path fill="none" stroke="white" stroke-width="1.5" d="M0,-3.0v7 M-2.5,-0.5L0,-3.0L2.5,-0.5"/>
                </g>
                <g id="arrowDown" xlink:href="#dirArrow" transform="rotate(180) translate(-30 -48)" onmousedown="handlePan(0,1)">
                  <use xlink:href="#rim" fill="#404040">
                        <set attributeName="fill" to="#808080" begin="arrowDown.mouseover" end="arrowDown.mouseout"/>
                  </use>
                  <path fill="none" stroke="white" stroke-width="1.5" d="M0,-3.0v7 M-2.5,-0.5L0,-3.0L2.5,-0.5"/>
                </g>
                <g id="arrowLeft" xlink:href="#dirArrow" transform="rotate(270) translate(-36 17)" onmousedown="handlePan(-1,0)">
                  <use xlink:href="#rim" fill="#404040">
                        <set attributeName="fill" to="#808080" begin="arrowLeft.mouseover" end="arrowLeft.mouseout"/>
                  </use>
                  <path fill="none" stroke="white" stroke-width="1.5" d="M0,-3.0v7 M-2.5,-0.5L0,-3.0L2.5,-0.5"/>
                </g>
        </g>
        <svg viewBox="0 0 15 15" width="100%" height="30px" preserveAspectRatio="xMaxYMin meet">
         <g id="arrow_out" transform="scale(0.3 0.3)">
          <a xlink:href="class_markov_1_1_edge__coll__graph_org.svg" target="_base">
           <rect id="button" ry="5" rx="5" y="6" x="6" height="38" width="38"
                fill="#f2f5e9" fill-opacity="0.5" stroke="#606060" stroke-width="1.0"/>
           <path id="arrow"
             d="M 11.500037,31.436501 C 11.940474,20.09759 22.043105,11.32322 32.158766,21.979434 L 37.068811,17.246167 C 37.068811,17.246167 37.088388,32 37.088388,32 L 22.160133,31.978069 C 22.160133,31.978069 26.997745,27.140456 26.997745,27.140456 C 18.528582,18.264221 13.291696,25.230495 11.500037,31.436501 z"
             style="fill:#404040;"/>
          </a>
         </g>
        </svg>
</svg>
