<?xml version="1.0" encoding="UTF-8" standalone="no"?>
<!DOCTYPE svg PUBLIC "-//W3C//DTD SVG 1.1//EN"
 "http://www.w3.org/Graphics/SVG/1.1/DTD/svg11.dtd">
<!-- Generated by graphviz version 2.43.0 (0)
 -->
<!-- Title: Markov::Model::RandomWalk Pages: 1 -->
<svg width="413pt" height="96pt"
 viewBox="0.00 0.00 413.00 96.00" xmlns="http://www.w3.org/2000/svg" xmlns:xlink="http://www.w3.org/1999/xlink">
<g id="graph0" class="graph" transform="scale(1 1) rotate(0) translate(4 92)">
<title>Markov::Model::RandomWalk</title>
<!-- Node1 -->
<g id="node1" class="node">
<title>Node1</title>
<g id="a_node1"><a xlink:title="Do a random walk on this model.">
<polygon fill="#bfbfbf" stroke="black" points="215,-33 215,-54 405,-54 405,-33 215,-33"/>
<text text-anchor="middle" x="310" y="-40.4" font-family="Helvetica,sans-Serif" font-size="12.00">Markov::Model::RandomWalk</text>
</a>
</g>
</g>
<!-- Node2 -->
<g id="node2" class="node">
<title>Node2</title>
<g id="a_node2"><a xlink:href="namespace_testing_1_1_m_v_p_1_1_markov_model.html#af8b6c0d926618a1037c1f30bfc15b87a" target="_top" xlink:title="Test class for minimal viable Model.">
<polygon fill="none" stroke="black" points="0,-53.5 0,-87.5 179,-87.5 179,-53.5 0,-53.5"/>
<text text-anchor="start" x="8" y="-73.9" font-family="Helvetica,sans-Serif" font-size="12.00">Testing::MVP::MarkovModel</text>
<text text-anchor="middle" x="89.5" y="-60.9" font-family="Helvetica,sans-Serif" font-size="12.00">::TEST_CLASS</text>
</a>
</g>
</g>
<!-- Node1&#45;&gt;Node2 -->
<g id="edge1" class="edge">
<title>Node1&#45;&gt;Node2</title>
<path fill="none" stroke="midnightblue" d="M213.88,-55.25C202.4,-56.67 190.72,-58.12 179.34,-59.52"/>
<polygon fill="midnightblue" stroke="midnightblue" points="214.4,-58.72 223.9,-54.02 213.54,-51.77 214.4,-58.72"/>
</g>
<!-- Node3 -->
<g id="node3" class="node">
<title>Node3</title>
<g id="a_node3"><a xlink:href="namespace_testing_1_1_markov_model.html#a84a573ca81cb8cb3db9845b0cdcf06a6" target="_top" xlink:title="Test class for rest of model cases.">
<polygon fill="none" stroke="black" points="17,-0.5 17,-34.5 162,-34.5 162,-0.5 17,-0.5"/>
<text text-anchor="start" x="25" y="-20.9" font-family="Helvetica,sans-Serif" font-size="12.00">Testing::MarkovModel</text>
<text text-anchor="middle" x="89.5" y="-7.9" font-family="Helvetica,sans-Serif" font-size="12.00">::TEST_CLASS</text>
</a>
</g>
</g>
<!-- Node1&#45;&gt;Node3 -->
<g id="edge2" class="edge">
<title>Node1&#45;&gt;Node3</title>
<path fill="none" stroke="midnightblue" d="M210.67,-31.8C194.39,-29.86 177.78,-27.89 162.31,-26.04"/>
<polygon fill="midnightblue" stroke="midnightblue" points="210.41,-35.29 220.76,-33 211.24,-28.34 210.41,-35.29"/>
</g>
</g>
</svg>
