<?xml version="1.0" encoding="UTF-8" standalone="no"?>
<!DOCTYPE svg PUBLIC "-//W3C//DTD SVG 1.1//EN"
 "http://www.w3.org/Graphics/SVG/1.1/DTD/svg11.dtd">
<!-- Generated by graphviz version 2.43.0 (0)
 -->
<!-- Title: Python.Markopy.BaseCLI Pages: 1 -->
<!--zoomable 1391 -->
<svg id="main" version="1.1" xmlns="http://www.w3.org/2000/svg" xmlns:xlink="http://www.w3.org/1999/xlink" xml:space="preserve" onload="init(evt)">
<style type="text/css"><![CDATA[
.edge:hover path { stroke: red; }
.edge:hover polygon { stroke: red; fill: red; }
]]></style>
<script type="text/javascript"><![CDATA[
var edges = document.getElementsByTagName('g');
if (edges && edges.length) {
  for (var i=0;i<edges.length;i++) {
    if (edges[i].id.substr(0,4)=='edge') {
      edges[i].setAttribute('class','edge');
    }
  }
}
]]></script>
        <defs>
                <circle id="rim" cx="0" cy="0" r="7"/>
                <circle id="rim2" cx="0" cy="0" r="3.5"/>
                <g id="zoomPlus">
                        <use xlink:href="#rim" fill="#404040">
                                <set attributeName="fill" to="#808080" begin="zoomplus.mouseover" end="zoomplus.mouseout"/>
                        </use>
                        <path d="M-4,0h8M0,-4v8" fill="none" stroke="white" stroke-width="1.5" pointer-events="none"/>
                </g>
                <g id="zoomMin">
                        <use xlink:href="#rim" fill="#404040">
                                <set attributeName="fill" to="#808080" begin="zoomminus.mouseover" end="zoomminus.mouseout"/>
                        </use>
                        <path d="M-4,0h8" fill="none" stroke="white" stroke-width="1.5" pointer-events="none"/>
                </g>
                <g id="dirArrow">
                        <path fill="none" stroke="white" stroke-width="1.5" d="M0,-3.0v7 M-2.5,-0.5L0,-3.0L2.5,-0.5"/>
                </g>
               <g id="resetDef">
                       <use xlink:href="#rim2" fill="#404040">
                               <set attributeName="fill" to="#808080" begin="reset.mouseover" end="reset.mouseout"/>
                       </use>
               </g>
        </defs>

<script type="text/javascript">
var viewWidth = 572;
var viewHeight = 1391;
var sectionId = 'dynsection-0';
</script>
<script xlink:href="svgpan.js"/>
<svg id="graph" class="graph">
<g id="viewport">
<title>Python.Markopy.BaseCLI</title>
<!-- Node1 -->
<g id="node1" class="node">
<title>Node1</title>
<g id="a_node1"><a xlink:title="Base CLI class to handle user interactions">
<polygon fill="#bfbfbf" stroke="black" points="301,-916.5 301,-1382.5 506,-1382.5 506,-916.5 301,-916.5"/>
<text text-anchor="middle" x="403.5" y="-1368.9" font-family="Helvetica,sans-Serif" font-size="12.00">Python.Markopy.BaseCLI</text>
<polyline fill="none" stroke="black" points="301,-1361.5 506,-1361.5 "/>
<text text-anchor="start" x="309" y="-1347.9" font-family="Helvetica,sans-Serif" font-size="12.00">+ parser</text>
<text text-anchor="start" x="309" y="-1334.9" font-family="Helvetica,sans-Serif" font-size="12.00">+ print_help</text>
<text text-anchor="start" x="309" y="-1321.9" font-family="Helvetica,sans-Serif" font-size="12.00">+ model</text>
<text text-anchor="start" x="309" y="-1308.9" font-family="Helvetica,sans-Serif" font-size="12.00">+ args</text>
<polyline fill="none" stroke="black" points="301,-1301.5 506,-1301.5 "/>
<text text-anchor="start" x="309" y="-1287.9" font-family="Helvetica,sans-Serif" font-size="12.00">+ def __init__(self,</text>
<text text-anchor="start" x="309" y="-1274.9" font-family="Helvetica,sans-Serif" font-size="12.00"> bool add_help=True)</text>
<text text-anchor="start" x="309" y="-1261.9" font-family="Helvetica,sans-Serif" font-size="12.00">+ def add_arguments(self)</text>
<text text-anchor="start" x="309" y="-1248.9" font-family="Helvetica,sans-Serif" font-size="12.00">+ def help(self)</text>
<text text-anchor="start" x="309" y="-1235.9" font-family="Helvetica,sans-Serif" font-size="12.00">+ def parse(self)</text>
<text text-anchor="start" x="309" y="-1222.9" font-family="Helvetica,sans-Serif" font-size="12.00">+ def init_post_arguments</text>
<text text-anchor="start" x="309" y="-1209.9" font-family="Helvetica,sans-Serif" font-size="12.00">(self)</text>
<text text-anchor="start" x="309" y="-1196.9" font-family="Helvetica,sans-Serif" font-size="12.00">+ def parse_arguments</text>
<text text-anchor="start" x="309" y="-1183.9" font-family="Helvetica,sans-Serif" font-size="12.00">(self)</text>
<text text-anchor="start" x="309" y="-1170.9" font-family="Helvetica,sans-Serif" font-size="12.00">+ def import_model(self,</text>
<text text-anchor="start" x="309" y="-1157.9" font-family="Helvetica,sans-Serif" font-size="12.00"> str filename)</text>
<text text-anchor="start" x="309" y="-1144.9" font-family="Helvetica,sans-Serif" font-size="12.00">+ def train(self, str</text>
<text text-anchor="start" x="309" y="-1131.9" font-family="Helvetica,sans-Serif" font-size="12.00"> dataset, str seperator,</text>
<text text-anchor="start" x="309" y="-1118.9" font-family="Helvetica,sans-Serif" font-size="12.00"> str output, bool output</text>
<text text-anchor="start" x="309" y="-1105.9" font-family="Helvetica,sans-Serif" font-size="12.00">_forced=False, bool bulk=False)</text>
<text text-anchor="start" x="309" y="-1092.9" font-family="Helvetica,sans-Serif" font-size="12.00">+ def export(self, str</text>
<text text-anchor="start" x="309" y="-1079.9" font-family="Helvetica,sans-Serif" font-size="12.00"> filename)</text>
<text text-anchor="start" x="309" y="-1066.9" font-family="Helvetica,sans-Serif" font-size="12.00">+ def generate(self,</text>
<text text-anchor="start" x="309" y="-1053.9" font-family="Helvetica,sans-Serif" font-size="12.00"> str wordlist, bool</text>
<text text-anchor="start" x="309" y="-1040.9" font-family="Helvetica,sans-Serif" font-size="12.00"> bulk=False)</text>
<text text-anchor="start" x="309" y="-1027.9" font-family="Helvetica,sans-Serif" font-size="12.00">+ def process(self)</text>
<text text-anchor="start" x="309" y="-1014.9" font-family="Helvetica,sans-Serif" font-size="12.00">+ def check_import_path</text>
<text text-anchor="start" x="309" y="-1001.9" font-family="Helvetica,sans-Serif" font-size="12.00">(str filename)</text>
<text text-anchor="start" x="309" y="-988.9" font-family="Helvetica,sans-Serif" font-size="12.00">+ def check_corpus_path</text>
<text text-anchor="start" x="309" y="-975.9" font-family="Helvetica,sans-Serif" font-size="12.00">(str filename)</text>
<text text-anchor="start" x="309" y="-962.9" font-family="Helvetica,sans-Serif" font-size="12.00">+ def check_export_path</text>
<text text-anchor="start" x="309" y="-949.9" font-family="Helvetica,sans-Serif" font-size="12.00">(str filename)</text>
<text text-anchor="start" x="309" y="-936.9" font-family="Helvetica,sans-Serif" font-size="12.00">&#45; def _generate(self,</text>
<text text-anchor="start" x="309" y="-923.9" font-family="Helvetica,sans-Serif" font-size="12.00"> str wordlist)</text>
</a>
</g>
</g>
<!-- Node2 -->
<g id="node2" class="node">
<title>Node2</title>
<g id="a_node2"><a xlink:href="class_python_1_1_markopy_1_1_abstract_generation_model_c_l_i.html" target="_top" xlink:title="abstract class for generation capable models">
<polygon fill="none" stroke="black" points="101,-803.5 101,-879.5 334,-879.5 334,-803.5 101,-803.5"/>
<text text-anchor="start" x="109" y="-865.9" font-family="Helvetica,sans-Serif" font-size="12.00">Python.Markopy.AbstractGeneration</text>
<text text-anchor="middle" x="217.5" y="-852.9" font-family="Helvetica,sans-Serif" font-size="12.00">ModelCLI</text>
<polyline fill="none" stroke="black" points="101,-845.5 334,-845.5 "/>
<text text-anchor="middle" x="217.5" y="-831.9" font-family="Helvetica,sans-Serif" font-size="12.00"> </text>
<polyline fill="none" stroke="black" points="101,-824.5 334,-824.5 "/>
<text text-anchor="start" x="109" y="-810.9" font-family="Helvetica,sans-Serif" font-size="12.00">+ def add_arguments(self)</text>
</a>
</g>
</g>
<!-- Node1&#45;&gt;Node2 -->
<g id="edge1" class="edge">
<title>Node1&#45;&gt;Node2</title>
<path fill="none" stroke="midnightblue" d="M295.61,-971C274.56,-936.37 254.55,-903.46 240.06,-879.61"/>
<polygon fill="none" stroke="midnightblue" points="292.79,-973.11 300.98,-979.84 298.78,-969.47 292.79,-973.11"/>
</g>
<!-- Node5 -->
<g id="node5" class="node">
<title>Node5</title>
<g id="a_node5"><a xlink:href="class_python_1_1_markopy_1_1_abstract_training_model_c_l_i.html" target="_top" xlink:title="abstract class for training capable models">
<polygon fill="none" stroke="black" points="297.5,-651.5 297.5,-727.5 509.5,-727.5 509.5,-651.5 297.5,-651.5"/>
<text text-anchor="start" x="305.5" y="-713.9" font-family="Helvetica,sans-Serif" font-size="12.00">Python.Markopy.AbstractTraining</text>
<text text-anchor="middle" x="403.5" y="-700.9" font-family="Helvetica,sans-Serif" font-size="12.00">ModelCLI</text>
<polyline fill="none" stroke="black" points="297.5,-693.5 509.5,-693.5 "/>
<text text-anchor="middle" x="403.5" y="-679.9" font-family="Helvetica,sans-Serif" font-size="12.00"> </text>
<polyline fill="none" stroke="black" points="297.5,-672.5 509.5,-672.5 "/>
<text text-anchor="start" x="305.5" y="-658.9" font-family="Helvetica,sans-Serif" font-size="12.00">+ def add_arguments(self)</text>
</a>
</g>
</g>
<!-- Node1&#45;&gt;Node5 -->
<g id="edge11" class="edge">
<title>Node1&#45;&gt;Node5</title>
<path fill="none" stroke="midnightblue" d="M403.5,-906.17C403.5,-836.34 403.5,-768.17 403.5,-727.75"/>
<polygon fill="none" stroke="midnightblue" points="400,-906.48 403.5,-916.48 407,-906.48 400,-906.48"/>
</g>
<!-- Node7 -->
<g id="node7" class="node">
<title>Node7</title>
<g id="a_node7"><a xlink:href="class_python_1_1_markopy_1_1_markopy_c_l_i.html" target="_top" xlink:title="Top level model selector for Markopy CLI.">
<polygon fill="none" stroke="black" points="216,-152.5 216,-384.5 415,-384.5 415,-152.5 216,-152.5"/>
<text text-anchor="middle" x="315.5" y="-370.9" font-family="Helvetica,sans-Serif" font-size="12.00">Python.Markopy.MarkopyCLI</text>
<polyline fill="none" stroke="black" points="216,-363.5 415,-363.5 "/>
<text text-anchor="start" x="224" y="-349.9" font-family="Helvetica,sans-Serif" font-size="12.00">+ args</text>
<text text-anchor="start" x="224" y="-336.9" font-family="Helvetica,sans-Serif" font-size="12.00">+ cli</text>
<polyline fill="none" stroke="black" points="216,-329.5 415,-329.5 "/>
<text text-anchor="start" x="224" y="-315.9" font-family="Helvetica,sans-Serif" font-size="12.00">+ def __init__(self,</text>
<text text-anchor="start" x="224" y="-302.9" font-family="Helvetica,sans-Serif" font-size="12.00"> add_help=False)</text>
<text text-anchor="start" x="224" y="-289.9" font-family="Helvetica,sans-Serif" font-size="12.00">+ def add_arguments(self)</text>
<text text-anchor="start" x="224" y="-276.9" font-family="Helvetica,sans-Serif" font-size="12.00">+ def help(self)</text>
<text text-anchor="start" x="224" y="-263.9" font-family="Helvetica,sans-Serif" font-size="12.00">+ def parse(self)</text>
<text text-anchor="start" x="224" y="-250.9" font-family="Helvetica,sans-Serif" font-size="12.00">+ def init_post_arguments</text>
<text text-anchor="start" x="224" y="-237.9" font-family="Helvetica,sans-Serif" font-size="12.00">(self)</text>
<text text-anchor="start" x="224" y="-224.9" font-family="Helvetica,sans-Serif" font-size="12.00">+ def parse_fail(self)</text>
<text text-anchor="start" x="224" y="-211.9" font-family="Helvetica,sans-Serif" font-size="12.00">+ def process(self)</text>
<text text-anchor="start" x="224" y="-198.9" font-family="Helvetica,sans-Serif" font-size="12.00">+ def stub(self)</text>
<text text-anchor="start" x="224" y="-185.9" font-family="Helvetica,sans-Serif" font-size="12.00">+ def evaluate(self,</text>
<text text-anchor="start" x="224" y="-172.9" font-family="Helvetica,sans-Serif" font-size="12.00"> str filename)</text>
<text text-anchor="start" x="224" y="-159.9" font-family="Helvetica,sans-Serif" font-size="12.00">+ def init_post_arguments(sel)</text>
</a>
</g>
</g>
<!-- Node1&#45;&gt;Node7 -->
<g id="edge12" class="edge">
<title>Node1&#45;&gt;Node7</title>
<path fill="none" stroke="midnightblue" d="M509.51,-914.04C560.3,-765.77 595.2,-573.95 518.5,-421 496.47,-377.07 454.99,-342.63 415.24,-317.75"/>
<polygon fill="none" stroke="midnightblue" points="506.11,-913.15 506.14,-923.74 512.73,-915.44 506.11,-913.15"/>
</g>
<!-- Node3 -->
<g id="node3" class="node">
<title>Node3</title>
<g id="a_node3"><a xlink:href="class_python_1_1_cuda_markopy_1_1_cuda_model_matrix_c_l_i.html" target="_top" xlink:title="Python CLI wrapper for CudaModelMatrix.">
<polygon fill="none" stroke="black" points="0,-421.5 0,-575.5 213,-575.5 213,-421.5 0,-421.5"/>
<text text-anchor="start" x="8" y="-561.9" font-family="Helvetica,sans-Serif" font-size="12.00">Python.CudaMarkopy.CudaModel</text>
<text text-anchor="middle" x="106.5" y="-548.9" font-family="Helvetica,sans-Serif" font-size="12.00">MatrixCLI</text>
<polyline fill="none" stroke="black" points="0,-541.5 213,-541.5 "/>
<text text-anchor="start" x="8" y="-527.9" font-family="Helvetica,sans-Serif" font-size="12.00">+ model</text>
<text text-anchor="start" x="8" y="-514.9" font-family="Helvetica,sans-Serif" font-size="12.00">+ bInfinite</text>
<polyline fill="none" stroke="black" points="0,-507.5 213,-507.5 "/>
<text text-anchor="start" x="8" y="-493.9" font-family="Helvetica,sans-Serif" font-size="12.00">+ def __init__(self)</text>
<text text-anchor="start" x="8" y="-480.9" font-family="Helvetica,sans-Serif" font-size="12.00">+ def add_arguments(self)</text>
<text text-anchor="start" x="8" y="-467.9" font-family="Helvetica,sans-Serif" font-size="12.00">+ def init_post_arguments</text>
<text text-anchor="start" x="8" y="-454.9" font-family="Helvetica,sans-Serif" font-size="12.00">(self)</text>
<text text-anchor="start" x="8" y="-441.9" font-family="Helvetica,sans-Serif" font-size="12.00">&#45; def _generate(self,</text>
<text text-anchor="start" x="8" y="-428.9" font-family="Helvetica,sans-Serif" font-size="12.00"> str wordlist)</text>
</a>
</g>
</g>
<!-- Node2&#45;&gt;Node3 -->
<g id="edge2" class="edge">
<title>Node2&#45;&gt;Node3</title>
<path fill="none" stroke="midnightblue" d="M92.48,-798.11C80.69,-789.53 70.26,-779.27 62.5,-767 26.33,-709.82 44.66,-632.51 67.68,-575.71"/>
<polygon fill="none" stroke="midnightblue" points="90.61,-801.06 100.85,-803.78 94.54,-795.27 90.61,-801.06"/>
</g>
<!-- Node2&#45;&gt;Node5 -->
<g id="edge4" class="edge">
<title>Node2&#45;&gt;Node5</title>
<path fill="none" stroke="midnightblue" d="M271.37,-797.05C298.62,-775.08 331.34,-748.69 357.41,-727.67"/>
<polygon fill="none" stroke="midnightblue" points="269.06,-794.42 263.48,-803.42 273.46,-799.87 269.06,-794.42"/>
</g>
<!-- Node8 -->
<g id="node8" class="node">
<title>Node8</title>
<g id="a_node8"><a xlink:href="class_python_1_1_markopy_1_1_model_matrix_c_l_i.html" target="_top" xlink:title="Extension of Python.Markopy.Base.BaseCLI for Markov::API::ModelMatrix.">
<polygon fill="none" stroke="black" points="71.5,-612.5 71.5,-766.5 279.5,-766.5 279.5,-612.5 71.5,-612.5"/>
<text text-anchor="middle" x="175.5" y="-752.9" font-family="Helvetica,sans-Serif" font-size="12.00">Python.Markopy.ModelMatrixCLI</text>
<polyline fill="none" stroke="black" points="71.5,-745.5 279.5,-745.5 "/>
<text text-anchor="start" x="79.5" y="-731.9" font-family="Helvetica,sans-Serif" font-size="12.00">+ model</text>
<text text-anchor="start" x="79.5" y="-718.9" font-family="Helvetica,sans-Serif" font-size="12.00">+ fileIO</text>
<polyline fill="none" stroke="black" points="71.5,-711.5 279.5,-711.5 "/>
<text text-anchor="start" x="79.5" y="-697.9" font-family="Helvetica,sans-Serif" font-size="12.00">+ def __init__(self,</text>
<text text-anchor="start" x="79.5" y="-684.9" font-family="Helvetica,sans-Serif" font-size="12.00"> bool add_help=True)</text>
<text text-anchor="start" x="79.5" y="-671.9" font-family="Helvetica,sans-Serif" font-size="12.00">+ def add_arguments(self)</text>
<text text-anchor="start" x="79.5" y="-658.9" font-family="Helvetica,sans-Serif" font-size="12.00">+ def init_post_arguments</text>
<text text-anchor="start" x="79.5" y="-645.9" font-family="Helvetica,sans-Serif" font-size="12.00">(self)</text>
<text text-anchor="start" x="79.5" y="-632.9" font-family="Helvetica,sans-Serif" font-size="12.00">&#45; def _generate(self,</text>
<text text-anchor="start" x="79.5" y="-619.9" font-family="Helvetica,sans-Serif" font-size="12.00"> str wordlist)</text>
</a>
</g>
</g>
<!-- Node2&#45;&gt;Node8 -->
<g id="edge8" class="edge">
<title>Node2&#45;&gt;Node8</title>
<path fill="none" stroke="midnightblue" d="M204.38,-793.65C201.98,-785.07 199.42,-775.92 196.85,-766.74"/>
<polygon fill="none" stroke="midnightblue" points="201.05,-794.74 207.12,-803.42 207.79,-792.85 201.05,-794.74"/>
</g>
<!-- Node4 -->
<g id="node4" class="node">
<title>Node4</title>
<g id="a_node4"><a xlink:href="class_python_1_1_cuda_markopy_1_1_cuda_markopy_c_l_i.html" target="_top" xlink:title="CUDA extension to MarkopyCLI.">
<polygon fill="none" stroke="black" points="124.5,-0.5 124.5,-115.5 372.5,-115.5 372.5,-0.5 124.5,-0.5"/>
<text text-anchor="middle" x="248.5" y="-101.9" font-family="Helvetica,sans-Serif" font-size="12.00">Python.CudaMarkopy.CudaMarkopyCLI</text>
<polyline fill="none" stroke="black" points="124.5,-94.5 372.5,-94.5 "/>
<text text-anchor="start" x="132.5" y="-80.9" font-family="Helvetica,sans-Serif" font-size="12.00">+ args</text>
<text text-anchor="start" x="132.5" y="-67.9" font-family="Helvetica,sans-Serif" font-size="12.00">+ cli</text>
<polyline fill="none" stroke="black" points="124.5,-60.5 372.5,-60.5 "/>
<text text-anchor="start" x="132.5" y="-46.9" font-family="Helvetica,sans-Serif" font-size="12.00">+ None __init__(self)</text>
<text text-anchor="start" x="132.5" y="-33.9" font-family="Helvetica,sans-Serif" font-size="12.00">+ def help(self)</text>
<text text-anchor="start" x="132.5" y="-20.9" font-family="Helvetica,sans-Serif" font-size="12.00">+ def parse(self)</text>
<text text-anchor="start" x="132.5" y="-7.9" font-family="Helvetica,sans-Serif" font-size="12.00">+ def parse_fail(self)</text>
</a>
</g>
</g>
<!-- Node3&#45;&gt;Node4 -->
<g id="edge3" class="edge">
<title>Node3&#45;&gt;Node4</title>
<path fill="none" stroke="midnightblue" d="M128.23,-411.7C146.89,-341.17 175.74,-239.05 207.5,-152 211.85,-140.06 217,-127.49 222.15,-115.57"/>
<polygon fill="none" stroke="midnightblue" points="124.83,-410.87 125.67,-421.43 131.6,-412.65 124.83,-410.87"/>
</g>
<!-- Node6 -->
<g id="node6" class="node">
<title>Node6</title>
<g id="a_node6"><a xlink:href="class_python_1_1_markopy_1_1_markov_passwords_c_l_i.html" target="_top" xlink:title="Extension of Python.Markopy.Base.BaseCLI for Markov::API::MarkovPasswords.">
<polygon fill="none" stroke="black" points="270,-447.5 270,-549.5 509,-549.5 509,-447.5 270,-447.5"/>
<text text-anchor="middle" x="389.5" y="-535.9" font-family="Helvetica,sans-Serif" font-size="12.00">Python.Markopy.MarkovPasswordsCLI</text>
<polyline fill="none" stroke="black" points="270,-528.5 509,-528.5 "/>
<text text-anchor="start" x="278" y="-514.9" font-family="Helvetica,sans-Serif" font-size="12.00">+ model</text>
<polyline fill="none" stroke="black" points="270,-507.5 509,-507.5 "/>
<text text-anchor="start" x="278" y="-493.9" font-family="Helvetica,sans-Serif" font-size="12.00">+ def __init__(self,</text>
<text text-anchor="start" x="278" y="-480.9" font-family="Helvetica,sans-Serif" font-size="12.00"> bool add_help=True)</text>
<text text-anchor="start" x="278" y="-467.9" font-family="Helvetica,sans-Serif" font-size="12.00">&#45; def _generate(self,</text>
<text text-anchor="start" x="278" y="-454.9" font-family="Helvetica,sans-Serif" font-size="12.00"> wordlist)</text>
</a>
</g>
</g>
<!-- Node5&#45;&gt;Node6 -->
<g id="edge5" class="edge">
<title>Node5&#45;&gt;Node6</title>
<path fill="none" stroke="midnightblue" d="M399.97,-640.87C397.91,-613.03 395.31,-577.92 393.21,-549.65"/>
<polygon fill="none" stroke="midnightblue" points="396.5,-641.45 400.73,-651.16 403.49,-640.93 396.5,-641.45"/>
</g>
<!-- Node6&#45;&gt;Node7 -->
<g id="edge6" class="edge">
<title>Node6&#45;&gt;Node7</title>
<path fill="none" stroke="midnightblue" d="M370.05,-437.59C364.77,-421.29 358.86,-403.08 352.93,-384.83"/>
<polygon fill="none" stroke="midnightblue" points="366.84,-439.03 373.26,-447.46 373.5,-436.87 366.84,-439.03"/>
</g>
<!-- Node7&#45;&gt;Node4 -->
<g id="edge7" class="edge">
<title>Node7&#45;&gt;Node4</title>
<path fill="none" stroke="midnightblue" d="M275.33,-142.5C272.34,-133.18 269.42,-124.1 266.67,-115.56"/>
<polygon fill="none" stroke="midnightblue" points="272.08,-143.82 278.47,-152.27 278.75,-141.68 272.08,-143.82"/>
</g>
<!-- Node8&#45;&gt;Node3 -->
<g id="edge9" class="edge">
<title>Node8&#45;&gt;Node3</title>
<path fill="none" stroke="midnightblue" d="M144.29,-603.01C140.97,-593.91 137.6,-584.69 134.32,-575.71"/>
<polygon fill="none" stroke="midnightblue" points="141.02,-604.25 147.73,-612.44 147.59,-601.85 141.02,-604.25"/>
</g>
<!-- Node8&#45;&gt;Node7 -->
<g id="edge10" class="edge">
<title>Node8&#45;&gt;Node7</title>
<path fill="none" stroke="midnightblue" d="M212.81,-602.88C216.27,-593.87 219.57,-584.8 222.5,-576 244.92,-508.6 240.88,-488.98 261.5,-421 265.11,-409.11 269.09,-396.77 273.21,-384.51"/>
<polygon fill="none" stroke="midnightblue" points="209.54,-601.64 209.16,-612.22 216.06,-604.19 209.54,-601.64"/>
</g>
</g>
</svg>
        <g id="navigator" transform="translate(0 0)" fill="#404254">
                <rect fill="#f2f5e9" fill-opacity="0.5" stroke="#606060" stroke-width=".5" x="0" y="0" width="60" height="60"/>
                <use id="zoomplus" xlink:href="#zoomPlus" x="17" y="9" onmousedown="handleZoom(evt,'in')"/>
                <use id="zoomminus" xlink:href="#zoomMin" x="42" y="9" onmousedown="handleZoom(evt,'out')"/>
                <use id="reset" xlink:href="#resetDef" x="30" y="36" onmousedown="handleReset()"/>
                <g id="arrowUp" xlink:href="#dirArrow" transform="translate(30 24)" onmousedown="handlePan(0,-1)">
                  <use xlink:href="#rim" fill="#404040">
                        <set attributeName="fill" to="#808080" begin="arrowUp.mouseover" end="arrowUp.mouseout"/>
                  </use>
                  <path fill="none" stroke="white" stroke-width="1.5" d="M0,-3.0v7 M-2.5,-0.5L0,-3.0L2.5,-0.5"/>
                </g>
                <g id="arrowRight" xlink:href="#dirArrow" transform="rotate(90) translate(36 -43)" onmousedown="handlePan(1,0)">
                  <use xlink:href="#rim" fill="#404040">
                        <set attributeName="fill" to="#808080" begin="arrowRight.mouseover" end="arrowRight.mouseout"/>
                  </use>
                  <path fill="none" stroke="white" stroke-width="1.5" d="M0,-3.0v7 M-2.5,-0.5L0,-3.0L2.5,-0.5"/>
                </g>
                <g id="arrowDown" xlink:href="#dirArrow" transform="rotate(180) translate(-30 -48)" onmousedown="handlePan(0,1)">
                  <use xlink:href="#rim" fill="#404040">
                        <set attributeName="fill" to="#808080" begin="arrowDown.mouseover" end="arrowDown.mouseout"/>
                  </use>
                  <path fill="none" stroke="white" stroke-width="1.5" d="M0,-3.0v7 M-2.5,-0.5L0,-3.0L2.5,-0.5"/>
                </g>
                <g id="arrowLeft" xlink:href="#dirArrow" transform="rotate(270) translate(-36 17)" onmousedown="handlePan(-1,0)">
                  <use xlink:href="#rim" fill="#404040">
                        <set attributeName="fill" to="#808080" begin="arrowLeft.mouseover" end="arrowLeft.mouseout"/>
                  </use>
                  <path fill="none" stroke="white" stroke-width="1.5" d="M0,-3.0v7 M-2.5,-0.5L0,-3.0L2.5,-0.5"/>
                </g>
        </g>
        <svg viewBox="0 0 15 15" width="100%" height="30px" preserveAspectRatio="xMaxYMin meet">
         <g id="arrow_out" transform="scale(0.3 0.3)">
          <a xlink:href="class_python_1_1_markopy_1_1_base_c_l_i__inherit__graph_org.svg" target="_base">
           <rect id="button" ry="5" rx="5" y="6" x="6" height="38" width="38"
                fill="#f2f5e9" fill-opacity="0.5" stroke="#606060" stroke-width="1.0"/>
           <path id="arrow"
             d="M 11.500037,31.436501 C 11.940474,20.09759 22.043105,11.32322 32.158766,21.979434 L 37.068811,17.246167 C 37.068811,17.246167 37.088388,32 37.088388,32 L 22.160133,31.978069 C 22.160133,31.978069 26.997745,27.140456 26.997745,27.140456 C 18.528582,18.264221 13.291696,25.230495 11.500037,31.436501 z"
             style="fill:#404040;"/>
          </a>
         </g>
        </svg>
</svg>
