<?xml version="1.0" encoding="UTF-8" standalone="no"?>
<!DOCTYPE svg PUBLIC "-//W3C//DTD SVG 1.1//EN"
 "http://www.w3.org/Graphics/SVG/1.1/DTD/svg11.dtd">
<!-- Generated by graphviz version 2.43.0 (0)
 -->
<!-- Title: Python.Markopy.AbstractGenerationModelCLI Pages: 1 -->
<svg width="543pt" height="1352pt"
 viewBox="0.00 0.00 542.50 1352.00" xmlns="http://www.w3.org/2000/svg" xmlns:xlink="http://www.w3.org/1999/xlink">
<g id="graph0" class="graph" transform="scale(1 1) rotate(0) translate(4 1348)">
<title>Python.Markopy.AbstractGenerationModelCLI</title>
<!-- Node1 -->
<g id="node1" class="node">
<title>Node1</title>
<g id="a_node1"><a xlink:title="abstract class for generation capable models">
<polygon fill="#bfbfbf" stroke="black" points="84,-764.5 84,-840.5 317,-840.5 317,-764.5 84,-764.5"/>
<text text-anchor="start" x="92" y="-826.9" font-family="Helvetica,sans-Serif" font-size="12.00">Python.Markopy.AbstractGeneration</text>
<text text-anchor="middle" x="200.5" y="-813.9" font-family="Helvetica,sans-Serif" font-size="12.00">ModelCLI</text>
<polyline fill="none" stroke="black" points="84,-806.5 317,-806.5 "/>
<text text-anchor="middle" x="200.5" y="-792.9" font-family="Helvetica,sans-Serif" font-size="12.00"> </text>
<polyline fill="none" stroke="black" points="84,-785.5 317,-785.5 "/>
<text text-anchor="start" x="92" y="-771.9" font-family="Helvetica,sans-Serif" font-size="12.00">+ def add_arguments(self)</text>
</a>
</g>
</g>
<!-- Node3 -->
<g id="node3" class="node">
<title>Node3</title>
<g id="a_node3"><a xlink:href="class_python_1_1_cuda_markopy_1_1_cuda_model_matrix_c_l_i.html" target="_top" xlink:title="Python CLI wrapper for CudaModelMatrix.">
<polygon fill="none" stroke="black" points="0,-382.5 0,-536.5 213,-536.5 213,-382.5 0,-382.5"/>
<text text-anchor="start" x="8" y="-522.9" font-family="Helvetica,sans-Serif" font-size="12.00">Python.CudaMarkopy.CudaModel</text>
<text text-anchor="middle" x="106.5" y="-509.9" font-family="Helvetica,sans-Serif" font-size="12.00">MatrixCLI</text>
<polyline fill="none" stroke="black" points="0,-502.5 213,-502.5 "/>
<text text-anchor="start" x="8" y="-488.9" font-family="Helvetica,sans-Serif" font-size="12.00">+ model</text>
<text text-anchor="start" x="8" y="-475.9" font-family="Helvetica,sans-Serif" font-size="12.00">+ bInfinite</text>
<polyline fill="none" stroke="black" points="0,-468.5 213,-468.5 "/>
<text text-anchor="start" x="8" y="-454.9" font-family="Helvetica,sans-Serif" font-size="12.00">+ def __init__(self)</text>
<text text-anchor="start" x="8" y="-441.9" font-family="Helvetica,sans-Serif" font-size="12.00">+ def add_arguments(self)</text>
<text text-anchor="start" x="8" y="-428.9" font-family="Helvetica,sans-Serif" font-size="12.00">+ def init_post_arguments</text>
<text text-anchor="start" x="8" y="-415.9" font-family="Helvetica,sans-Serif" font-size="12.00">(self)</text>
<text text-anchor="start" x="8" y="-402.9" font-family="Helvetica,sans-Serif" font-size="12.00">&#45; def _generate(self,</text>
<text text-anchor="start" x="8" y="-389.9" font-family="Helvetica,sans-Serif" font-size="12.00"> str wordlist)</text>
</a>
</g>
</g>
<!-- Node1&#45;&gt;Node3 -->
<g id="edge2" class="edge">
<title>Node1&#45;&gt;Node3</title>
<path fill="none" stroke="midnightblue" d="M112.9,-758.19C102.73,-749.58 93.77,-739.56 87.5,-728 55.75,-669.48 65.4,-592.87 80.11,-536.64"/>
<polygon fill="none" stroke="midnightblue" points="110.87,-761.04 120.88,-764.5 115.2,-755.55 110.87,-761.04"/>
</g>
<!-- Node5 -->
<g id="node5" class="node">
<title>Node5</title>
<g id="a_node5"><a xlink:href="class_python_1_1_markopy_1_1_abstract_training_model_c_l_i.html" target="_top" xlink:title="abstract class for training capable models">
<polygon fill="none" stroke="black" points="322.5,-612.5 322.5,-688.5 534.5,-688.5 534.5,-612.5 322.5,-612.5"/>
<text text-anchor="start" x="330.5" y="-674.9" font-family="Helvetica,sans-Serif" font-size="12.00">Python.Markopy.AbstractTraining</text>
<text text-anchor="middle" x="428.5" y="-661.9" font-family="Helvetica,sans-Serif" font-size="12.00">ModelCLI</text>
<polyline fill="none" stroke="black" points="322.5,-654.5 534.5,-654.5 "/>
<text text-anchor="middle" x="428.5" y="-640.9" font-family="Helvetica,sans-Serif" font-size="12.00"> </text>
<polyline fill="none" stroke="black" points="322.5,-633.5 534.5,-633.5 "/>
<text text-anchor="start" x="330.5" y="-619.9" font-family="Helvetica,sans-Serif" font-size="12.00">+ def add_arguments(self)</text>
</a>
</g>
</g>
<!-- Node1&#45;&gt;Node5 -->
<g id="edge4" class="edge">
<title>Node1&#45;&gt;Node5</title>
<path fill="none" stroke="midnightblue" d="M266.27,-758.88C281.78,-748.79 298.24,-738.04 313.5,-728 332.93,-715.22 354.15,-701.14 373.01,-688.58"/>
<polygon fill="none" stroke="midnightblue" points="264.25,-756.03 257.77,-764.41 268.06,-761.89 264.25,-756.03"/>
</g>
<!-- Node8 -->
<g id="node8" class="node">
<title>Node8</title>
<g id="a_node8"><a xlink:href="class_python_1_1_markopy_1_1_model_matrix_c_l_i.html" target="_top" xlink:title="Extension of Python.Markopy.Base.BaseCLI for Markov::API::ModelMatrix.">
<polygon fill="none" stroke="black" points="96.5,-573.5 96.5,-727.5 304.5,-727.5 304.5,-573.5 96.5,-573.5"/>
<text text-anchor="middle" x="200.5" y="-713.9" font-family="Helvetica,sans-Serif" font-size="12.00">Python.Markopy.ModelMatrixCLI</text>
<polyline fill="none" stroke="black" points="96.5,-706.5 304.5,-706.5 "/>
<text text-anchor="start" x="104.5" y="-692.9" font-family="Helvetica,sans-Serif" font-size="12.00">+ model</text>
<text text-anchor="start" x="104.5" y="-679.9" font-family="Helvetica,sans-Serif" font-size="12.00">+ fileIO</text>
<polyline fill="none" stroke="black" points="96.5,-672.5 304.5,-672.5 "/>
<text text-anchor="start" x="104.5" y="-658.9" font-family="Helvetica,sans-Serif" font-size="12.00">+ def __init__(self,</text>
<text text-anchor="start" x="104.5" y="-645.9" font-family="Helvetica,sans-Serif" font-size="12.00"> bool add_help=True)</text>
<text text-anchor="start" x="104.5" y="-632.9" font-family="Helvetica,sans-Serif" font-size="12.00">+ def add_arguments(self)</text>
<text text-anchor="start" x="104.5" y="-619.9" font-family="Helvetica,sans-Serif" font-size="12.00">+ def init_post_arguments</text>
<text text-anchor="start" x="104.5" y="-606.9" font-family="Helvetica,sans-Serif" font-size="12.00">(self)</text>
<text text-anchor="start" x="104.5" y="-593.9" font-family="Helvetica,sans-Serif" font-size="12.00">&#45; def _generate(self,</text>
<text text-anchor="start" x="104.5" y="-580.9" font-family="Helvetica,sans-Serif" font-size="12.00"> str wordlist)</text>
</a>
</g>
</g>
<!-- Node1&#45;&gt;Node8 -->
<g id="edge8" class="edge">
<title>Node1&#45;&gt;Node8</title>
<path fill="none" stroke="midnightblue" d="M200.5,-754.37C200.5,-745.87 200.5,-736.82 200.5,-727.74"/>
<polygon fill="none" stroke="midnightblue" points="197,-754.42 200.5,-764.42 204,-754.42 197,-754.42"/>
</g>
<!-- Node2 -->
<g id="node2" class="node">
<title>Node2</title>
<g id="a_node2"><a xlink:href="class_python_1_1_markopy_1_1_base_c_l_i.html" target="_top" xlink:title="Base CLI class to handle user interactions">
<polygon fill="none" stroke="black" points="98,-877.5 98,-1343.5 303,-1343.5 303,-877.5 98,-877.5"/>
<text text-anchor="middle" x="200.5" y="-1329.9" font-family="Helvetica,sans-Serif" font-size="12.00">Python.Markopy.BaseCLI</text>
<polyline fill="none" stroke="black" points="98,-1322.5 303,-1322.5 "/>
<text text-anchor="start" x="106" y="-1308.9" font-family="Helvetica,sans-Serif" font-size="12.00">+ parser</text>
<text text-anchor="start" x="106" y="-1295.9" font-family="Helvetica,sans-Serif" font-size="12.00">+ print_help</text>
<text text-anchor="start" x="106" y="-1282.9" font-family="Helvetica,sans-Serif" font-size="12.00">+ model</text>
<text text-anchor="start" x="106" y="-1269.9" font-family="Helvetica,sans-Serif" font-size="12.00">+ args</text>
<polyline fill="none" stroke="black" points="98,-1262.5 303,-1262.5 "/>
<text text-anchor="start" x="106" y="-1248.9" font-family="Helvetica,sans-Serif" font-size="12.00">+ def __init__(self,</text>
<text text-anchor="start" x="106" y="-1235.9" font-family="Helvetica,sans-Serif" font-size="12.00"> bool add_help=True)</text>
<text text-anchor="start" x="106" y="-1222.9" font-family="Helvetica,sans-Serif" font-size="12.00">+ def add_arguments(self)</text>
<text text-anchor="start" x="106" y="-1209.9" font-family="Helvetica,sans-Serif" font-size="12.00">+ def help(self)</text>
<text text-anchor="start" x="106" y="-1196.9" font-family="Helvetica,sans-Serif" font-size="12.00">+ def parse(self)</text>
<text text-anchor="start" x="106" y="-1183.9" font-family="Helvetica,sans-Serif" font-size="12.00">+ def init_post_arguments</text>
<text text-anchor="start" x="106" y="-1170.9" font-family="Helvetica,sans-Serif" font-size="12.00">(self)</text>
<text text-anchor="start" x="106" y="-1157.9" font-family="Helvetica,sans-Serif" font-size="12.00">+ def parse_arguments</text>
<text text-anchor="start" x="106" y="-1144.9" font-family="Helvetica,sans-Serif" font-size="12.00">(self)</text>
<text text-anchor="start" x="106" y="-1131.9" font-family="Helvetica,sans-Serif" font-size="12.00">+ def import_model(self,</text>
<text text-anchor="start" x="106" y="-1118.9" font-family="Helvetica,sans-Serif" font-size="12.00"> str filename)</text>
<text text-anchor="start" x="106" y="-1105.9" font-family="Helvetica,sans-Serif" font-size="12.00">+ def train(self, str</text>
<text text-anchor="start" x="106" y="-1092.9" font-family="Helvetica,sans-Serif" font-size="12.00"> dataset, str seperator,</text>
<text text-anchor="start" x="106" y="-1079.9" font-family="Helvetica,sans-Serif" font-size="12.00"> str output, bool output</text>
<text text-anchor="start" x="106" y="-1066.9" font-family="Helvetica,sans-Serif" font-size="12.00">_forced=False, bool bulk=False)</text>
<text text-anchor="start" x="106" y="-1053.9" font-family="Helvetica,sans-Serif" font-size="12.00">+ def export(self, str</text>
<text text-anchor="start" x="106" y="-1040.9" font-family="Helvetica,sans-Serif" font-size="12.00"> filename)</text>
<text text-anchor="start" x="106" y="-1027.9" font-family="Helvetica,sans-Serif" font-size="12.00">+ def generate(self,</text>
<text text-anchor="start" x="106" y="-1014.9" font-family="Helvetica,sans-Serif" font-size="12.00"> str wordlist, bool</text>
<text text-anchor="start" x="106" y="-1001.9" font-family="Helvetica,sans-Serif" font-size="12.00"> bulk=False)</text>
<text text-anchor="start" x="106" y="-988.9" font-family="Helvetica,sans-Serif" font-size="12.00">+ def process(self)</text>
<text text-anchor="start" x="106" y="-975.9" font-family="Helvetica,sans-Serif" font-size="12.00">+ def check_import_path</text>
<text text-anchor="start" x="106" y="-962.9" font-family="Helvetica,sans-Serif" font-size="12.00">(str filename)</text>
<text text-anchor="start" x="106" y="-949.9" font-family="Helvetica,sans-Serif" font-size="12.00">+ def check_corpus_path</text>
<text text-anchor="start" x="106" y="-936.9" font-family="Helvetica,sans-Serif" font-size="12.00">(str filename)</text>
<text text-anchor="start" x="106" y="-923.9" font-family="Helvetica,sans-Serif" font-size="12.00">+ def check_export_path</text>
<text text-anchor="start" x="106" y="-910.9" font-family="Helvetica,sans-Serif" font-size="12.00">(str filename)</text>
<text text-anchor="start" x="106" y="-897.9" font-family="Helvetica,sans-Serif" font-size="12.00">&#45; def _generate(self,</text>
<text text-anchor="start" x="106" y="-884.9" font-family="Helvetica,sans-Serif" font-size="12.00"> str wordlist)</text>
</a>
</g>
</g>
<!-- Node2&#45;&gt;Node1 -->
<g id="edge1" class="edge">
<title>Node2&#45;&gt;Node1</title>
<path fill="none" stroke="midnightblue" d="M200.5,-867.02C200.5,-857.51 200.5,-848.71 200.5,-840.88"/>
<polygon fill="none" stroke="midnightblue" points="197,-867.18 200.5,-877.18 204,-867.18 197,-867.18"/>
</g>
<!-- Node4 -->
<g id="node4" class="node">
<title>Node4</title>
<g id="a_node4"><a xlink:href="class_python_1_1_cuda_markopy_1_1_cuda_markopy_c_l_i.html" target="_top" xlink:title="CUDA extension to MarkopyCLI.">
<polygon fill="none" stroke="black" points="49.5,-0.5 49.5,-115.5 297.5,-115.5 297.5,-0.5 49.5,-0.5"/>
<text text-anchor="middle" x="173.5" y="-101.9" font-family="Helvetica,sans-Serif" font-size="12.00">Python.CudaMarkopy.CudaMarkopyCLI</text>
<polyline fill="none" stroke="black" points="49.5,-94.5 297.5,-94.5 "/>
<text text-anchor="start" x="57.5" y="-80.9" font-family="Helvetica,sans-Serif" font-size="12.00">+ args</text>
<text text-anchor="start" x="57.5" y="-67.9" font-family="Helvetica,sans-Serif" font-size="12.00">+ cli</text>
<polyline fill="none" stroke="black" points="49.5,-60.5 297.5,-60.5 "/>
<text text-anchor="start" x="57.5" y="-46.9" font-family="Helvetica,sans-Serif" font-size="12.00">+ None __init__(self)</text>
<text text-anchor="start" x="57.5" y="-33.9" font-family="Helvetica,sans-Serif" font-size="12.00">+ def help(self)</text>
<text text-anchor="start" x="57.5" y="-20.9" font-family="Helvetica,sans-Serif" font-size="12.00">+ def parse(self)</text>
<text text-anchor="start" x="57.5" y="-7.9" font-family="Helvetica,sans-Serif" font-size="12.00">+ def parse_fail(self)</text>
</a>
</g>
</g>
<!-- Node3&#45;&gt;Node4 -->
<g id="edge3" class="edge">
<title>Node3&#45;&gt;Node4</title>
<path fill="none" stroke="midnightblue" d="M110.18,-372.26C114.17,-310.32 122.45,-225.2 139.5,-152 142.27,-140.11 146.12,-127.67 150.23,-115.88"/>
<polygon fill="none" stroke="midnightblue" points="106.68,-372.18 109.55,-382.38 113.66,-372.62 106.68,-372.18"/>
</g>
<!-- Node6 -->
<g id="node6" class="node">
<title>Node6</title>
<g id="a_node6"><a xlink:href="class_python_1_1_markopy_1_1_markov_passwords_c_l_i.html" target="_top" xlink:title="Extension of Python.Markopy.Base.BaseCLI for Markov::API::MarkovPasswords.">
<polygon fill="none" stroke="black" points="289,-408.5 289,-510.5 528,-510.5 528,-408.5 289,-408.5"/>
<text text-anchor="middle" x="408.5" y="-496.9" font-family="Helvetica,sans-Serif" font-size="12.00">Python.Markopy.MarkovPasswordsCLI</text>
<polyline fill="none" stroke="black" points="289,-489.5 528,-489.5 "/>
<text text-anchor="start" x="297" y="-475.9" font-family="Helvetica,sans-Serif" font-size="12.00">+ model</text>
<polyline fill="none" stroke="black" points="289,-468.5 528,-468.5 "/>
<text text-anchor="start" x="297" y="-454.9" font-family="Helvetica,sans-Serif" font-size="12.00">+ def __init__(self,</text>
<text text-anchor="start" x="297" y="-441.9" font-family="Helvetica,sans-Serif" font-size="12.00"> bool add_help=True)</text>
<text text-anchor="start" x="297" y="-428.9" font-family="Helvetica,sans-Serif" font-size="12.00">&#45; def _generate(self,</text>
<text text-anchor="start" x="297" y="-415.9" font-family="Helvetica,sans-Serif" font-size="12.00"> wordlist)</text>
</a>
</g>
</g>
<!-- Node5&#45;&gt;Node6 -->
<g id="edge5" class="edge">
<title>Node5&#45;&gt;Node6</title>
<path fill="none" stroke="midnightblue" d="M423.46,-601.87C420.51,-574.03 416.8,-538.92 413.81,-510.65"/>
<polygon fill="none" stroke="midnightblue" points="420.02,-602.58 424.55,-612.16 426.98,-601.85 420.02,-602.58"/>
</g>
<!-- Node7 -->
<g id="node7" class="node">
<title>Node7</title>
<g id="a_node7"><a xlink:href="class_python_1_1_markopy_1_1_markopy_c_l_i.html" target="_top" xlink:title="Top level model selector for Markopy CLI.">
<polygon fill="none" stroke="black" points="148.5,-152.5 148.5,-345.5 334.5,-345.5 334.5,-152.5 148.5,-152.5"/>
<text text-anchor="middle" x="241.5" y="-331.9" font-family="Helvetica,sans-Serif" font-size="12.00">Python.Markopy.MarkopyCLI</text>
<polyline fill="none" stroke="black" points="148.5,-324.5 334.5,-324.5 "/>
<text text-anchor="start" x="156.5" y="-310.9" font-family="Helvetica,sans-Serif" font-size="12.00">+ args</text>
<text text-anchor="start" x="156.5" y="-297.9" font-family="Helvetica,sans-Serif" font-size="12.00">+ cli</text>
<polyline fill="none" stroke="black" points="148.5,-290.5 334.5,-290.5 "/>
<text text-anchor="start" x="156.5" y="-276.9" font-family="Helvetica,sans-Serif" font-size="12.00">+ def __init__(self,</text>
<text text-anchor="start" x="156.5" y="-263.9" font-family="Helvetica,sans-Serif" font-size="12.00"> add_help=False)</text>
<text text-anchor="start" x="156.5" y="-250.9" font-family="Helvetica,sans-Serif" font-size="12.00">+ def add_arguments(self)</text>
<text text-anchor="start" x="156.5" y="-237.9" font-family="Helvetica,sans-Serif" font-size="12.00">+ def help(self)</text>
<text text-anchor="start" x="156.5" y="-224.9" font-family="Helvetica,sans-Serif" font-size="12.00">+ def parse(self)</text>
<text text-anchor="start" x="156.5" y="-211.9" font-family="Helvetica,sans-Serif" font-size="12.00">+ def init_post_arguments</text>
<text text-anchor="start" x="156.5" y="-198.9" font-family="Helvetica,sans-Serif" font-size="12.00">(self)</text>
<text text-anchor="start" x="156.5" y="-185.9" font-family="Helvetica,sans-Serif" font-size="12.00">+ def parse_fail(self)</text>
<text text-anchor="start" x="156.5" y="-172.9" font-family="Helvetica,sans-Serif" font-size="12.00">+ def process(self)</text>
<text text-anchor="start" x="156.5" y="-159.9" font-family="Helvetica,sans-Serif" font-size="12.00">+ def stub(self)</text>
</a>
</g>
</g>
<!-- Node6&#45;&gt;Node7 -->
<g id="edge6" class="edge">
<title>Node6&#45;&gt;Node7</title>
<path fill="none" stroke="midnightblue" d="M361.79,-400.18C348.27,-383.31 333.15,-364.43 318.31,-345.9"/>
<polygon fill="none" stroke="midnightblue" points="359.3,-402.68 368.29,-408.29 364.77,-398.3 359.3,-402.68"/>
</g>
<!-- Node7&#45;&gt;Node4 -->
<g id="edge7" class="edge">
<title>Node7&#45;&gt;Node4</title>
<path fill="none" stroke="midnightblue" d="M203.62,-142.71C200.29,-133.46 197.01,-124.34 193.91,-115.72"/>
<polygon fill="none" stroke="midnightblue" points="200.42,-144.17 207.1,-152.39 207.01,-141.8 200.42,-144.17"/>
</g>
<!-- Node8&#45;&gt;Node3 -->
<g id="edge9" class="edge">
<title>Node8&#45;&gt;Node3</title>
<path fill="none" stroke="midnightblue" d="M158.13,-564.3C153.55,-555.1 148.92,-545.79 144.4,-536.71"/>
<polygon fill="none" stroke="midnightblue" points="155.09,-566.05 162.67,-573.44 161.35,-562.93 155.09,-566.05"/>
</g>
<!-- Node8&#45;&gt;Node7 -->
<g id="edge10" class="edge">
<title>Node8&#45;&gt;Node7</title>
<path fill="none" stroke="midnightblue" d="M217.61,-563.42C219.07,-554.52 220.4,-545.59 221.5,-537 229.62,-473.46 234.62,-401.55 237.59,-345.61"/>
<polygon fill="none" stroke="midnightblue" points="214.14,-562.99 215.92,-573.44 221.04,-564.16 214.14,-562.99"/>
</g>
</g>
</svg>
