<?xml version="1.0" encoding="UTF-8" standalone="no"?>
<!DOCTYPE svg PUBLIC "-//W3C//DTD SVG 1.1//EN"
 "http://www.w3.org/Graphics/SVG/1.1/DTD/svg11.dtd">
<!-- Generated by graphviz version 2.43.0 (0)
 -->
<!-- Title: Markov::Random::DefaultRandomEngine::random Pages: 1 -->
<svg width="740pt" height="96pt"
 viewBox="0.00 0.00 740.00 96.00" xmlns="http://www.w3.org/2000/svg" xmlns:xlink="http://www.w3.org/1999/xlink">
<g id="graph0" class="graph" transform="scale(1 1) rotate(0) translate(4 92)">
<title>Markov::Random::DefaultRandomEngine::random</title>
<!-- Node1 -->
<g id="node1" class="node">
<title>Node1</title>
<g id="a_node1"><a xlink:title="Generate Random Number.">
<polygon fill="#bfbfbf" stroke="black" points="0,-26.5 0,-60.5 220,-60.5 220,-26.5 0,-26.5"/>
<text text-anchor="start" x="8" y="-46.9" font-family="Helvetica,sans-Serif" font-size="12.00">Markov::Random::DefaultRandom</text>
<text text-anchor="middle" x="110" y="-33.9" font-family="Helvetica,sans-Serif" font-size="12.00">Engine::random</text>
</a>
</g>
</g>
<!-- Node2 -->
<g id="node2" class="node">
<title>Node2</title>
<g id="a_node2"><a xlink:href="class_markov_1_1_random_1_1_default_random_engine.html#a53c9c440002ed1adb2b18292ca82d1c9" target="_top" xlink:title="Distribution schema for seeding.">
<polygon fill="none" stroke="black" points="256,-53.5 256,-87.5 476,-87.5 476,-53.5 256,-53.5"/>
<text text-anchor="start" x="264" y="-73.9" font-family="Helvetica,sans-Serif" font-size="12.00">Markov::Random::DefaultRandom</text>
<text text-anchor="middle" x="366" y="-60.9" font-family="Helvetica,sans-Serif" font-size="12.00">Engine::distribution</text>
</a>
</g>
</g>
<!-- Node1&#45;&gt;Node2 -->
<g id="edge1" class="edge">
<title>Node1&#45;&gt;Node2</title>
<path fill="none" stroke="midnightblue" d="M220.19,-55.11C228.7,-56.01 237.31,-56.93 245.88,-57.84"/>
<polygon fill="midnightblue" stroke="midnightblue" points="245.59,-61.33 255.9,-58.9 246.33,-54.37 245.59,-61.33"/>
</g>
<!-- Node3 -->
<g id="node3" class="node">
<title>Node3</title>
<g id="a_node3"><a xlink:href="class_markov_1_1_random_1_1_default_random_engine.html#aee6d9202d0aa50c16f46ecec0a2b05de" target="_top" xlink:title="Default random engine for seeding.">
<polygon fill="none" stroke="black" points="256,-0.5 256,-34.5 476,-34.5 476,-0.5 256,-0.5"/>
<text text-anchor="start" x="264" y="-20.9" font-family="Helvetica,sans-Serif" font-size="12.00">Markov::Random::DefaultRandom</text>
<text text-anchor="middle" x="366" y="-7.9" font-family="Helvetica,sans-Serif" font-size="12.00">Engine::generator</text>
</a>
</g>
</g>
<!-- Node1&#45;&gt;Node3 -->
<g id="edge2" class="edge">
<title>Node1&#45;&gt;Node3</title>
<path fill="none" stroke="midnightblue" d="M220.19,-32.32C228.7,-31.45 237.31,-30.57 245.88,-29.69"/>
<polygon fill="midnightblue" stroke="midnightblue" points="246.31,-33.17 255.9,-28.67 245.59,-26.2 246.31,-33.17"/>
</g>
<!-- Node4 -->
<g id="node4" class="node">
<title>Node4</title>
<g id="a_node4"><a xlink:href="class_markov_1_1_random_1_1_default_random_engine.html#a411c66837939f7f787272f1c6aa78e23" target="_top" xlink:title="Default random device for seeding.">
<polygon fill="none" stroke="black" points="512,-0.5 512,-34.5 732,-34.5 732,-0.5 512,-0.5"/>
<text text-anchor="start" x="520" y="-20.9" font-family="Helvetica,sans-Serif" font-size="12.00">Markov::Random::DefaultRandom</text>
<text text-anchor="middle" x="622" y="-7.9" font-family="Helvetica,sans-Serif" font-size="12.00">Engine::rd</text>
</a>
</g>
</g>
<!-- Node3&#45;&gt;Node4 -->
<g id="edge3" class="edge">
<title>Node3&#45;&gt;Node4</title>
<path fill="none" stroke="midnightblue" d="M476.19,-17.5C484.7,-17.5 493.31,-17.5 501.88,-17.5"/>
<polygon fill="midnightblue" stroke="midnightblue" points="501.9,-21 511.9,-17.5 501.9,-14 501.9,-21"/>
</g>
</g>
</svg>
