<?xml version="1.0" encoding="UTF-8" standalone="no"?>
<!DOCTYPE svg PUBLIC "-//W3C//DTD SVG 1.1//EN"
 "http://www.w3.org/Graphics/SVG/1.1/DTD/svg11.dtd">
<!-- Generated by graphviz version 2.43.0 (0)
 -->
<!-- Title: Markov::Random::Marsaglia::random Pages: 1 -->
<svg width="1223pt" height="43pt"
 viewBox="0.00 0.00 1223.00 43.00" xmlns="http://www.w3.org/2000/svg" xmlns:xlink="http://www.w3.org/1999/xlink">
<g id="graph0" class="graph" transform="scale(1 1) rotate(0) translate(4 39)">
<title>Markov::Random::Marsaglia::random</title>
<!-- Node1 -->
<g id="node1" class="node">
<title>Node1</title>
<g id="a_node1"><a xlink:title="Generate Random Number.">
<polygon fill="#bfbfbf" stroke="black" points="1031,-0.5 1031,-34.5 1215,-34.5 1215,-0.5 1031,-0.5"/>
<text text-anchor="start" x="1039" y="-20.9" font-family="Helvetica,sans-Serif" font-size="12.00">Markov::Random::Marsaglia</text>
<text text-anchor="middle" x="1123" y="-7.9" font-family="Helvetica,sans-Serif" font-size="12.00">::random</text>
</a>
</g>
</g>
<!-- Node2 -->
<g id="node2" class="node">
<title>Node2</title>
<g id="a_node2"><a xlink:href="class_markov_1_1_a_p_i_1_1_model_matrix.html#a96f2885aac69b49b21c66ad5a32514b9" target="_top" xlink:title="A single thread of a single partition of FastRandomWalk.">
<polygon fill="none" stroke="black" points="826,-0.5 826,-34.5 995,-34.5 995,-0.5 826,-0.5"/>
<text text-anchor="start" x="834" y="-20.9" font-family="Helvetica,sans-Serif" font-size="12.00">Markov::API::ModelMatrix</text>
<text text-anchor="middle" x="910.5" y="-7.9" font-family="Helvetica,sans-Serif" font-size="12.00">::FastRandomWalkThread</text>
</a>
</g>
</g>
<!-- Node1&#45;&gt;Node2 -->
<g id="edge1" class="edge">
<title>Node1&#45;&gt;Node2</title>
<path fill="none" stroke="midnightblue" d="M1020.82,-17.5C1012.21,-17.5 1003.57,-17.5 995.11,-17.5"/>
<polygon fill="midnightblue" stroke="midnightblue" points="1020.9,-21 1030.9,-17.5 1020.9,-14 1020.9,-21"/>
</g>
<!-- Node3 -->
<g id="node3" class="node">
<title>Node3</title>
<g id="a_node3"><a xlink:href="class_markov_1_1_a_p_i_1_1_model_matrix.html#ad775d2e9c35e6f78c53f796df11405b5" target="_top" xlink:title="A single partition of FastRandomWalk event.">
<polygon fill="none" stroke="black" points="616,-0.5 616,-34.5 790,-34.5 790,-0.5 616,-0.5"/>
<text text-anchor="start" x="624" y="-20.9" font-family="Helvetica,sans-Serif" font-size="12.00">Markov::API::ModelMatrix</text>
<text text-anchor="middle" x="703" y="-7.9" font-family="Helvetica,sans-Serif" font-size="12.00">::FastRandomWalkPartition</text>
</a>
</g>
</g>
<!-- Node2&#45;&gt;Node3 -->
<g id="edge2" class="edge">
<title>Node2&#45;&gt;Node3</title>
<path fill="none" stroke="midnightblue" d="M815.91,-17.5C807.34,-17.5 798.68,-17.5 790.18,-17.5"/>
<polygon fill="midnightblue" stroke="midnightblue" points="815.92,-21 825.92,-17.5 815.92,-14 815.92,-21"/>
</g>
<!-- Node4 -->
<g id="node4" class="node">
<title>Node4</title>
<g id="a_node4"><a xlink:href="class_markov_1_1_a_p_i_1_1_model_matrix.html#a09a6793164aeccc4875c25151ca2ab14" target="_top" xlink:title="Random walk on the Matrix&#45;reduced Markov::Model.">
<polygon fill="none" stroke="black" points="411,-0.5 411,-34.5 580,-34.5 580,-0.5 411,-0.5"/>
<text text-anchor="start" x="419" y="-20.9" font-family="Helvetica,sans-Serif" font-size="12.00">Markov::API::ModelMatrix</text>
<text text-anchor="middle" x="495.5" y="-7.9" font-family="Helvetica,sans-Serif" font-size="12.00">::FastRandomWalk</text>
</a>
</g>
</g>
<!-- Node3&#45;&gt;Node4 -->
<g id="edge3" class="edge">
<title>Node3&#45;&gt;Node4</title>
<path fill="none" stroke="midnightblue" d="M605.49,-17.5C597.05,-17.5 588.56,-17.5 580.23,-17.5"/>
<polygon fill="midnightblue" stroke="midnightblue" points="605.74,-21 615.74,-17.5 605.74,-14 605.74,-21"/>
</g>
<!-- Node5 -->
<g id="node5" class="node">
<title>Node5</title>
<g id="a_node5"><a xlink:href="class_markov_1_1_a_p_i_1_1_model_matrix.html#a3bb4d49f1fbc10e1649dc9bf73529520" target="_top" xlink:title="Random walk on the Matrix&#45;reduced Markov::Model.">
<polygon fill="none" stroke="black" points="206,-0.5 206,-34.5 375,-34.5 375,-0.5 206,-0.5"/>
<text text-anchor="start" x="214" y="-20.9" font-family="Helvetica,sans-Serif" font-size="12.00">Markov::API::ModelMatrix</text>
<text text-anchor="middle" x="290.5" y="-7.9" font-family="Helvetica,sans-Serif" font-size="12.00">::FastRandomWalk</text>
</a>
</g>
</g>
<!-- Node4&#45;&gt;Node5 -->
<g id="edge4" class="edge">
<title>Node4&#45;&gt;Node5</title>
<path fill="none" stroke="midnightblue" d="M400.74,-17.5C392.17,-17.5 383.52,-17.5 375.05,-17.5"/>
<polygon fill="midnightblue" stroke="midnightblue" points="400.76,-21 410.76,-17.5 400.76,-14 400.76,-21"/>
</g>
<!-- Node6 -->
<g id="node6" class="node">
<title>Node6</title>
<g id="a_node6"><a xlink:href="namespace_markov_1_1_markopy.html#a379628c09859652215496b63af2bcac9" target="_top" xlink:title=" ">
<polygon fill="none" stroke="black" points="0,-0.5 0,-34.5 170,-34.5 170,-0.5 0,-0.5"/>
<text text-anchor="start" x="8" y="-20.9" font-family="Helvetica,sans-Serif" font-size="12.00">Markov::Markopy::BOOST</text>
<text text-anchor="middle" x="85" y="-7.9" font-family="Helvetica,sans-Serif" font-size="12.00">_PYTHON_MODULE</text>
</a>
</g>
</g>
<!-- Node5&#45;&gt;Node6 -->
<g id="edge5" class="edge">
<title>Node5&#45;&gt;Node6</title>
<path fill="none" stroke="midnightblue" d="M195.61,-17.5C187.17,-17.5 178.66,-17.5 170.31,-17.5"/>
<polygon fill="midnightblue" stroke="midnightblue" points="195.85,-21 205.85,-17.5 195.85,-14 195.85,-21"/>
</g>
</g>
</svg>
