<?xml version="1.0" encoding="UTF-8" standalone="no"?>
<!DOCTYPE svg PUBLIC "-//W3C//DTD SVG 1.1//EN"
 "http://www.w3.org/Graphics/SVG/1.1/DTD/svg11.dtd">
<!-- Generated by graphviz version 2.43.0 (0)
 -->
<!-- Title: Markov::GUI::MarkovPasswordsGUI::model Pages: 1 -->
<!--zoomable 139 -->
<svg id="main" version="1.1" xmlns="http://www.w3.org/2000/svg" xmlns:xlink="http://www.w3.org/1999/xlink" xml:space="preserve" onload="init(evt)">
<style type="text/css"><![CDATA[
.edge:hover path { stroke: red; }
.edge:hover polygon { stroke: red; fill: red; }
]]></style>
<script type="text/javascript"><![CDATA[
var edges = document.getElementsByTagName('g');
if (edges && edges.length) {
  for (var i=0;i<edges.length;i++) {
    if (edges[i].id.substr(0,4)=='edge') {
      edges[i].setAttribute('class','edge');
    }
  }
}
]]></script>
        <defs>
                <circle id="rim" cx="0" cy="0" r="7"/>
                <circle id="rim2" cx="0" cy="0" r="3.5"/>
                <g id="zoomPlus">
                        <use xlink:href="#rim" fill="#404040">
                                <set attributeName="fill" to="#808080" begin="zoomplus.mouseover" end="zoomplus.mouseout"/>
                        </use>
                        <path d="M-4,0h8M0,-4v8" fill="none" stroke="white" stroke-width="1.5" pointer-events="none"/>
                </g>
                <g id="zoomMin">
                        <use xlink:href="#rim" fill="#404040">
                                <set attributeName="fill" to="#808080" begin="zoomminus.mouseover" end="zoomminus.mouseout"/>
                        </use>
                        <path d="M-4,0h8" fill="none" stroke="white" stroke-width="1.5" pointer-events="none"/>
                </g>
                <g id="dirArrow">
                        <path fill="none" stroke="white" stroke-width="1.5" d="M0,-3.0v7 M-2.5,-0.5L0,-3.0L2.5,-0.5"/>
                </g>
               <g id="resetDef">
                       <use xlink:href="#rim2" fill="#404040">
                               <set attributeName="fill" to="#808080" begin="reset.mouseover" end="reset.mouseout"/>
                       </use>
               </g>
        </defs>

<script type="text/javascript">
var viewWidth = 781;
var viewHeight = 139;
var sectionId = 'dynsection-2';
</script>
<script xlink:href="svgpan.js"/>
<svg id="graph" class="graph">
<g id="viewport">
<title>Markov::GUI::MarkovPasswordsGUI::model</title>
<!-- Node1 -->
<g id="node1" class="node">
<title>Node1</title>
<g id="a_node1"><a xlink:title=" ">
<polygon fill="#bfbfbf" stroke="black" points="570,-42.5 570,-76.5 773,-76.5 773,-42.5 570,-42.5"/>
<text text-anchor="start" x="578" y="-62.9" font-family="Helvetica,sans-Serif" font-size="12.00">Markov::GUI::MarkovPasswords</text>
<text text-anchor="middle" x="671.5" y="-49.9" font-family="Helvetica,sans-Serif" font-size="12.00">GUI::model</text>
</a>
</g>
</g>
<!-- Node2 -->
<g id="node2" class="node">
<title>Node2</title>
<g id="a_node2"><a xlink:href="classbase_1_1_base_c_l_i.html#a4e56de0ebfeb7d595e1463bf23ecfe88" target="_top" xlink:title=" ">
<polygon fill="none" stroke="black" points="373,-109 373,-130 534,-130 534,-109 373,-109"/>
<text text-anchor="middle" x="453.5" y="-116.4" font-family="Helvetica,sans-Serif" font-size="12.00">base.BaseCLI._generate</text>
</a>
</g>
</g>
<!-- Node1&#45;&gt;Node2 -->
<g id="edge1" class="edge">
<title>Node1&#45;&gt;Node2</title>
<path fill="none" stroke="midnightblue" d="M604.47,-79.41C582.15,-85.99 557.04,-93.23 534,-99.5 522.33,-102.68 509.64,-105.95 497.9,-108.9"/>
<polygon fill="midnightblue" stroke="midnightblue" points="605.59,-82.73 614.19,-76.53 603.61,-76.01 605.59,-82.73"/>
</g>
<!-- Node5 -->
<g id="node5" class="node">
<title>Node5</title>
<g id="a_node5"><a xlink:href="classbase_1_1_base_c_l_i.html#a61612a5271d78046d11f000ae47b5ece" target="_top" xlink:title=" ">
<polygon fill="none" stroke="black" points="383.5,-69 383.5,-90 523.5,-90 523.5,-69 383.5,-69"/>
<text text-anchor="middle" x="453.5" y="-76.4" font-family="Helvetica,sans-Serif" font-size="12.00">base.BaseCLI.export</text>
</a>
</g>
</g>
<!-- Node1&#45;&gt;Node5 -->
<g id="edge4" class="edge">
<title>Node1&#45;&gt;Node5</title>
<path fill="none" stroke="midnightblue" d="M559.51,-69.78C547.29,-70.91 535.12,-72.04 523.62,-73.1"/>
<polygon fill="midnightblue" stroke="midnightblue" points="560.14,-73.23 569.77,-68.83 559.49,-66.26 560.14,-73.23"/>
</g>
<!-- Node6 -->
<g id="node6" class="node">
<title>Node6</title>
<g id="a_node6"><a xlink:href="classbase_1_1_base_c_l_i.html#a57cd9963d8dfbc42b2e560b0dacd871d" target="_top" xlink:title=" ">
<polygon fill="none" stroke="black" points="195.5,-61 195.5,-82 323.5,-82 323.5,-61 195.5,-61"/>
<text text-anchor="middle" x="259.5" y="-68.4" font-family="Helvetica,sans-Serif" font-size="12.00">base.BaseCLI.train</text>
</a>
</g>
</g>
<!-- Node1&#45;&gt;Node6 -->
<g id="edge9" class="edge">
<title>Node1&#45;&gt;Node6</title>
<path fill="none" stroke="midnightblue" d="M559.61,-56.71C503.62,-56 434.66,-56.22 373,-59.5 357.01,-60.35 339.8,-61.88 323.77,-63.56"/>
<polygon fill="midnightblue" stroke="midnightblue" points="559.86,-60.21 569.9,-56.85 559.95,-53.21 559.86,-60.21"/>
</g>
<!-- Node7 -->
<g id="node7" class="node">
<title>Node7</title>
<g id="a_node7"><a xlink:href="classbase_1_1_base_c_l_i.html#a9a07289c27ee0b79f1f886df237075ae" target="_top" xlink:title=" ">
<polygon fill="none" stroke="black" points="189.5,-0.5 189.5,-34.5 329.5,-34.5 329.5,-0.5 189.5,-0.5"/>
<text text-anchor="start" x="197.5" y="-20.9" font-family="Helvetica,sans-Serif" font-size="12.00">base.BaseCLI.import</text>
<text text-anchor="middle" x="259.5" y="-7.9" font-family="Helvetica,sans-Serif" font-size="12.00">_model</text>
</a>
</g>
</g>
<!-- Node1&#45;&gt;Node7 -->
<g id="edge7" class="edge">
<title>Node1&#45;&gt;Node7</title>
<path fill="none" stroke="midnightblue" d="M559.73,-48.15C486.35,-40.64 392.39,-31.01 329.51,-24.57"/>
<polygon fill="midnightblue" stroke="midnightblue" points="559.64,-51.66 569.94,-49.2 560.35,-44.7 559.64,-51.66"/>
</g>
<!-- Node3 -->
<g id="node3" class="node">
<title>Node3</title>
<g id="a_node3"><a xlink:href="classbase_1_1_base_c_l_i.html#a3178017ad9900e1455460302122fe694" target="_top" xlink:title=" ">
<polygon fill="none" stroke="black" points="182,-105 182,-126 337,-126 337,-105 182,-105"/>
<text text-anchor="middle" x="259.5" y="-112.4" font-family="Helvetica,sans-Serif" font-size="12.00">base.BaseCLI.generate</text>
</a>
</g>
</g>
<!-- Node2&#45;&gt;Node3 -->
<g id="edge2" class="edge">
<title>Node2&#45;&gt;Node3</title>
<path fill="none" stroke="midnightblue" d="M362.49,-117.62C354.05,-117.45 345.54,-117.27 337.23,-117.1"/>
<polygon fill="midnightblue" stroke="midnightblue" points="362.67,-121.13 372.74,-117.84 362.82,-114.13 362.67,-121.13"/>
</g>
<!-- Node4 -->
<g id="node4" class="node">
<title>Node4</title>
<g id="a_node4"><a xlink:href="classbase_1_1_base_c_l_i.html#a81415f28ab1efa8b74cb6d5fe063a2d3" target="_top" xlink:title=" ">
<polygon fill="none" stroke="black" points="0,-61 0,-82 146,-82 146,-61 0,-61"/>
<text text-anchor="middle" x="73" y="-68.4" font-family="Helvetica,sans-Serif" font-size="12.00">base.BaseCLI.process</text>
</a>
</g>
</g>
<!-- Node3&#45;&gt;Node4 -->
<g id="edge3" class="edge">
<title>Node3&#45;&gt;Node4</title>
<path fill="none" stroke="midnightblue" d="M204.46,-102.61C177.01,-96.07 144.06,-88.21 118.15,-82.03"/>
<polygon fill="midnightblue" stroke="midnightblue" points="203.77,-106.05 214.31,-104.96 205.39,-99.24 203.77,-106.05"/>
</g>
<!-- Node5&#45;&gt;Node6 -->
<g id="edge5" class="edge">
<title>Node5&#45;&gt;Node6</title>
<path fill="none" stroke="midnightblue" d="M373.24,-76.2C356.66,-75.51 339.4,-74.79 323.51,-74.13"/>
<polygon fill="midnightblue" stroke="midnightblue" points="373.32,-79.7 383.45,-76.62 373.61,-72.71 373.32,-79.7"/>
</g>
<!-- Node6&#45;&gt;Node4 -->
<g id="edge6" class="edge">
<title>Node6&#45;&gt;Node4</title>
<path fill="none" stroke="midnightblue" d="M185.08,-71.5C172.22,-71.5 158.85,-71.5 146.03,-71.5"/>
<polygon fill="midnightblue" stroke="midnightblue" points="185.26,-75 195.26,-71.5 185.26,-68 185.26,-75"/>
</g>
<!-- Node7&#45;&gt;Node4 -->
<g id="edge8" class="edge">
<title>Node7&#45;&gt;Node4</title>
<path fill="none" stroke="midnightblue" d="M190.5,-37.4C163.25,-45.38 132.97,-54.24 110.11,-60.93"/>
<polygon fill="midnightblue" stroke="midnightblue" points="191.76,-40.68 200.38,-34.51 189.8,-33.96 191.76,-40.68"/>
</g>
</g>
</svg>
        <g id="navigator" transform="translate(0 0)" fill="#404254">
                <rect fill="#f2f5e9" fill-opacity="0.5" stroke="#606060" stroke-width=".5" x="0" y="0" width="60" height="60"/>
                <use id="zoomplus" xlink:href="#zoomPlus" x="17" y="9" onmousedown="handleZoom(evt,'in')"/>
                <use id="zoomminus" xlink:href="#zoomMin" x="42" y="9" onmousedown="handleZoom(evt,'out')"/>
                <use id="reset" xlink:href="#resetDef" x="30" y="36" onmousedown="handleReset()"/>
                <g id="arrowUp" xlink:href="#dirArrow" transform="translate(30 24)" onmousedown="handlePan(0,-1)">
                  <use xlink:href="#rim" fill="#404040">
                        <set attributeName="fill" to="#808080" begin="arrowUp.mouseover" end="arrowUp.mouseout"/>
                  </use>
                  <path fill="none" stroke="white" stroke-width="1.5" d="M0,-3.0v7 M-2.5,-0.5L0,-3.0L2.5,-0.5"/>
                </g>
                <g id="arrowRight" xlink:href="#dirArrow" transform="rotate(90) translate(36 -43)" onmousedown="handlePan(1,0)">
                  <use xlink:href="#rim" fill="#404040">
                        <set attributeName="fill" to="#808080" begin="arrowRight.mouseover" end="arrowRight.mouseout"/>
                  </use>
                  <path fill="none" stroke="white" stroke-width="1.5" d="M0,-3.0v7 M-2.5,-0.5L0,-3.0L2.5,-0.5"/>
                </g>
                <g id="arrowDown" xlink:href="#dirArrow" transform="rotate(180) translate(-30 -48)" onmousedown="handlePan(0,1)">
                  <use xlink:href="#rim" fill="#404040">
                        <set attributeName="fill" to="#808080" begin="arrowDown.mouseover" end="arrowDown.mouseout"/>
                  </use>
                  <path fill="none" stroke="white" stroke-width="1.5" d="M0,-3.0v7 M-2.5,-0.5L0,-3.0L2.5,-0.5"/>
                </g>
                <g id="arrowLeft" xlink:href="#dirArrow" transform="rotate(270) translate(-36 17)" onmousedown="handlePan(-1,0)">
                  <use xlink:href="#rim" fill="#404040">
                        <set attributeName="fill" to="#808080" begin="arrowLeft.mouseover" end="arrowLeft.mouseout"/>
                  </use>
                  <path fill="none" stroke="white" stroke-width="1.5" d="M0,-3.0v7 M-2.5,-0.5L0,-3.0L2.5,-0.5"/>
                </g>
        </g>
        <svg viewBox="0 0 15 15" width="100%" height="30px" preserveAspectRatio="xMaxYMin meet">
         <g id="arrow_out" transform="scale(0.3 0.3)">
          <a xlink:href="class_markov_1_1_g_u_i_1_1_markov_passwords_g_u_i_a99619a46f49b909fafeaa6ac8076a333_icgraph_org.svg" target="_base">
           <rect id="button" ry="5" rx="5" y="6" x="6" height="38" width="38"
                fill="#f2f5e9" fill-opacity="0.5" stroke="#606060" stroke-width="1.0"/>
           <path id="arrow"
             d="M 11.500037,31.436501 C 11.940474,20.09759 22.043105,11.32322 32.158766,21.979434 L 37.068811,17.246167 C 37.068811,17.246167 37.088388,32 37.088388,32 L 22.160133,31.978069 C 22.160133,31.978069 26.997745,27.140456 26.997745,27.140456 C 18.528582,18.264221 13.291696,25.230495 11.500037,31.436501 z"
             style="fill:#404040;"/>
          </a>
         </g>
        </svg>
</svg>
