<?xml version="1.0" encoding="UTF-8" standalone="no"?>
<!DOCTYPE svg PUBLIC "-//W3C//DTD SVG 1.1//EN"
 "http://www.w3.org/Graphics/SVG/1.1/DTD/svg11.dtd">
<!-- Generated by graphviz version 2.43.0 (0)
 -->
<!-- Title: Markov::API::ModelMatrix::FastRandomWalk Pages: 1 -->
<svg width="1017pt" height="43pt"
 viewBox="0.00 0.00 1017.00 43.00" xmlns="http://www.w3.org/2000/svg" xmlns:xlink="http://www.w3.org/1999/xlink">
<g id="graph0" class="graph" transform="scale(1 1) rotate(0) translate(4 39)">
<title>Markov::API::ModelMatrix::FastRandomWalk</title>
<!-- Node1 -->
<g id="node1" class="node">
<title>Node1</title>
<g id="a_node1"><a xlink:title="Random walk on the Matrix&#45;reduced Markov::Model.">
<polygon fill="#bfbfbf" stroke="black" points="0,-0.5 0,-34.5 169,-34.5 169,-0.5 0,-0.5"/>
<text text-anchor="start" x="8" y="-20.9" font-family="Helvetica,sans-Serif" font-size="12.00">Markov::API::ModelMatrix</text>
<text text-anchor="middle" x="84.5" y="-7.9" font-family="Helvetica,sans-Serif" font-size="12.00">::FastRandomWalk</text>
</a>
</g>
</g>
<!-- Node2 -->
<g id="node2" class="node">
<title>Node2</title>
<g id="a_node2"><a xlink:href="class_markov_1_1_a_p_i_1_1_model_matrix.html#a09a6793164aeccc4875c25151ca2ab14" target="_top" xlink:title="Random walk on the Matrix&#45;reduced Markov::Model.">
<polygon fill="none" stroke="black" points="205,-0.5 205,-34.5 374,-34.5 374,-0.5 205,-0.5"/>
<text text-anchor="start" x="213" y="-20.9" font-family="Helvetica,sans-Serif" font-size="12.00">Markov::API::ModelMatrix</text>
<text text-anchor="middle" x="289.5" y="-7.9" font-family="Helvetica,sans-Serif" font-size="12.00">::FastRandomWalk</text>
</a>
</g>
</g>
<!-- Node1&#45;&gt;Node2 -->
<g id="edge1" class="edge">
<title>Node1&#45;&gt;Node2</title>
<path fill="none" stroke="midnightblue" d="M169.24,-17.5C177.72,-17.5 186.37,-17.5 194.94,-17.5"/>
<polygon fill="midnightblue" stroke="midnightblue" points="194.95,-21 204.95,-17.5 194.95,-14 194.95,-21"/>
</g>
<!-- Node3 -->
<g id="node3" class="node">
<title>Node3</title>
<g id="a_node3"><a xlink:href="class_markov_1_1_a_p_i_1_1_model_matrix.html#ad775d2e9c35e6f78c53f796df11405b5" target="_top" xlink:title="A single partition of FastRandomWalk event.">
<polygon fill="none" stroke="black" points="410,-0.5 410,-34.5 584,-34.5 584,-0.5 410,-0.5"/>
<text text-anchor="start" x="418" y="-20.9" font-family="Helvetica,sans-Serif" font-size="12.00">Markov::API::ModelMatrix</text>
<text text-anchor="middle" x="497" y="-7.9" font-family="Helvetica,sans-Serif" font-size="12.00">::FastRandomWalkPartition</text>
</a>
</g>
</g>
<!-- Node2&#45;&gt;Node3 -->
<g id="edge2" class="edge">
<title>Node2&#45;&gt;Node3</title>
<path fill="none" stroke="midnightblue" d="M374.08,-17.5C382.55,-17.5 391.2,-17.5 399.78,-17.5"/>
<polygon fill="midnightblue" stroke="midnightblue" points="399.82,-21 409.82,-17.5 399.82,-14 399.82,-21"/>
</g>
<!-- Node4 -->
<g id="node4" class="node">
<title>Node4</title>
<g id="a_node4"><a xlink:href="class_markov_1_1_a_p_i_1_1_model_matrix.html#a96f2885aac69b49b21c66ad5a32514b9" target="_top" xlink:title="A single thread of a single partition of FastRandomWalk.">
<polygon fill="none" stroke="black" points="620,-0.5 620,-34.5 789,-34.5 789,-0.5 620,-0.5"/>
<text text-anchor="start" x="628" y="-20.9" font-family="Helvetica,sans-Serif" font-size="12.00">Markov::API::ModelMatrix</text>
<text text-anchor="middle" x="704.5" y="-7.9" font-family="Helvetica,sans-Serif" font-size="12.00">::FastRandomWalkThread</text>
</a>
</g>
</g>
<!-- Node3&#45;&gt;Node4 -->
<g id="edge3" class="edge">
<title>Node3&#45;&gt;Node4</title>
<path fill="none" stroke="midnightblue" d="M584.26,-17.5C592.61,-17.5 601.12,-17.5 609.54,-17.5"/>
<polygon fill="midnightblue" stroke="midnightblue" points="609.77,-21 619.77,-17.5 609.77,-14 609.77,-21"/>
</g>
<!-- Node5 -->
<g id="node5" class="node">
<title>Node5</title>
<g id="a_node5"><a xlink:href="class_markov_1_1_random_1_1_marsaglia.html#a0a56da316d520b80be6b6df6c9e0b537" target="_top" xlink:title="Generate Random Number.">
<polygon fill="none" stroke="black" points="825,-0.5 825,-34.5 1009,-34.5 1009,-0.5 825,-0.5"/>
<text text-anchor="start" x="833" y="-20.9" font-family="Helvetica,sans-Serif" font-size="12.00">Markov::Random::Marsaglia</text>
<text text-anchor="middle" x="917" y="-7.9" font-family="Helvetica,sans-Serif" font-size="12.00">::random</text>
</a>
</g>
</g>
<!-- Node4&#45;&gt;Node5 -->
<g id="edge4" class="edge">
<title>Node4&#45;&gt;Node5</title>
<path fill="none" stroke="midnightblue" d="M789.3,-17.5C797.71,-17.5 806.3,-17.5 814.86,-17.5"/>
<polygon fill="midnightblue" stroke="midnightblue" points="814.88,-21 824.88,-17.5 814.88,-14 814.88,-21"/>
</g>
</g>
</svg>
