<?xml version="1.0" encoding="UTF-8" standalone="no"?>
<!DOCTYPE svg PUBLIC "-//W3C//DTD SVG 1.1//EN"
 "http://www.w3.org/Graphics/SVG/1.1/DTD/svg11.dtd">
<!-- Generated by graphviz version 2.43.0 (0)
 -->
<!-- Title: Markov::Model::Import Pages: 1 -->
<svg width="602pt" height="142pt"
 viewBox="0.00 0.00 602.00 142.00" xmlns="http://www.w3.org/2000/svg" xmlns:xlink="http://www.w3.org/1999/xlink">
<g id="graph0" class="graph" transform="scale(1 1) rotate(0) translate(4 138)">
<title>Markov::Model::Import</title>
<!-- Node1 -->
<g id="node1" class="node">
<title>Node1</title>
<g id="a_node1"><a xlink:title="Open a file to import with filename, and call bool Model::Import with std::ifstream.">
<polygon fill="#bfbfbf" stroke="black" points="442,-60 442,-81 594,-81 594,-60 442,-60"/>
<text text-anchor="middle" x="518" y="-67.4" font-family="Helvetica,sans-Serif" font-size="12.00">Markov::Model::Import</text>
</a>
</g>
</g>
<!-- Node2 -->
<g id="node2" class="node">
<title>Node2</title>
<g id="a_node2"><a xlink:href="namespace_markov_1_1_markopy.html#a379628c09859652215496b63af2bcac9" target="_top" xlink:title=" ">
<polygon fill="none" stroke="black" points="0,-99.5 0,-133.5 170,-133.5 170,-99.5 0,-99.5"/>
<text text-anchor="start" x="8" y="-119.9" font-family="Helvetica,sans-Serif" font-size="12.00">Markov::Markopy::BOOST</text>
<text text-anchor="middle" x="85" y="-106.9" font-family="Helvetica,sans-Serif" font-size="12.00">_PYTHON_MODULE</text>
</a>
</g>
</g>
<!-- Node1&#45;&gt;Node2 -->
<g id="edge1" class="edge">
<title>Node1&#45;&gt;Node2</title>
<path fill="none" stroke="midnightblue" d="M469.19,-83.55C449.73,-88.38 426.93,-93.42 406,-96.5 326.56,-108.2 235.05,-113.07 170.28,-115.08"/>
<polygon fill="midnightblue" stroke="midnightblue" points="470.2,-86.91 479.03,-81.06 468.48,-80.12 470.2,-86.91"/>
</g>
<!-- Node3 -->
<g id="node3" class="node">
<title>Node3</title>
<g id="a_node3"><a xlink:href="class_markov_1_1_a_p_i_1_1_model_matrix.html#aeba8bb79aa4dc2cfeda310f34b7c9427" target="_top" xlink:title="Open a file to import with filename, and call bool Model::Import with std::ifstream.">
<polygon fill="none" stroke="black" points="221.5,-53.5 221.5,-87.5 390.5,-87.5 390.5,-53.5 221.5,-53.5"/>
<text text-anchor="start" x="229.5" y="-73.9" font-family="Helvetica,sans-Serif" font-size="12.00">Markov::API::ModelMatrix</text>
<text text-anchor="middle" x="306" y="-60.9" font-family="Helvetica,sans-Serif" font-size="12.00">::Import</text>
</a>
</g>
</g>
<!-- Node1&#45;&gt;Node3 -->
<g id="edge2" class="edge">
<title>Node1&#45;&gt;Node3</title>
<path fill="none" stroke="midnightblue" d="M431.55,-70.5C418.04,-70.5 404.07,-70.5 390.6,-70.5"/>
<polygon fill="midnightblue" stroke="midnightblue" points="431.78,-74 441.78,-70.5 431.78,-67 431.78,-74"/>
</g>
<!-- Node5 -->
<g id="node5" class="node">
<title>Node5</title>
<g id="a_node5"><a xlink:href="class_markov_1_1_a_p_i_1_1_markov_passwords.html#ab7f0caaea1f96d4fdeea126f78d7081f" target="_top" xlink:title="Initialize the markov model from MarkovModel::Markov::Model, with an import file.">
<polygon fill="none" stroke="black" points="206,-0.5 206,-34.5 406,-34.5 406,-0.5 206,-0.5"/>
<text text-anchor="start" x="214" y="-20.9" font-family="Helvetica,sans-Serif" font-size="12.00">Markov::API::MarkovPasswords</text>
<text text-anchor="middle" x="306" y="-7.9" font-family="Helvetica,sans-Serif" font-size="12.00">::MarkovPasswords</text>
</a>
</g>
</g>
<!-- Node1&#45;&gt;Node5 -->
<g id="edge5" class="edge">
<title>Node1&#45;&gt;Node5</title>
<path fill="none" stroke="midnightblue" d="M465.5,-57.5C438.14,-50.6 404.17,-42.02 374.7,-34.59"/>
<polygon fill="midnightblue" stroke="midnightblue" points="464.71,-60.91 475.26,-59.97 466.42,-54.12 464.71,-60.91"/>
</g>
<!-- Node3&#45;&gt;Node2 -->
<g id="edge3" class="edge">
<title>Node3&#45;&gt;Node2</title>
<path fill="none" stroke="midnightblue" d="M213.69,-89.68C198.23,-92.93 182.28,-96.28 167.11,-99.46"/>
<polygon fill="midnightblue" stroke="midnightblue" points="214.7,-93.04 223.76,-87.56 213.26,-86.19 214.7,-93.04"/>
</g>
<!-- Node4 -->
<g id="node4" class="node">
<title>Node4</title>
<g id="a_node4"><a xlink:href="_markov_a_p_i_c_l_i_2src_2main_8cpp.html#a3c04138a5bfe5d72780bb7e82a18e627" target="_top" xlink:title="Launch CLI tool.">
<polygon fill="none" stroke="black" points="61.5,-59 61.5,-80 108.5,-80 108.5,-59 61.5,-59"/>
<text text-anchor="middle" x="85" y="-66.4" font-family="Helvetica,sans-Serif" font-size="12.00">main</text>
</a>
</g>
</g>
<!-- Node3&#45;&gt;Node4 -->
<g id="edge4" class="edge">
<title>Node3&#45;&gt;Node4</title>
<path fill="none" stroke="midnightblue" d="M211.2,-70.07C173.35,-69.9 132.94,-69.71 108.58,-69.6"/>
<polygon fill="midnightblue" stroke="midnightblue" points="211.25,-73.57 221.27,-70.12 211.28,-66.57 211.25,-73.57"/>
</g>
</g>
</svg>
