<?xml version="1.0" encoding="UTF-8" standalone="no"?>
<!DOCTYPE svg PUBLIC "-//W3C//DTD SVG 1.1//EN"
 "http://www.w3.org/Graphics/SVG/1.1/DTD/svg11.dtd">
<!-- Generated by graphviz version 2.43.0 (0)
 -->
<!-- Title: Python.Markopy.MarkopyCLI.parse Pages: 1 -->
<svg width="1017pt" height="573pt"
 viewBox="0.00 0.00 1017.00 573.00" xmlns="http://www.w3.org/2000/svg" xmlns:xlink="http://www.w3.org/1999/xlink">
<g id="graph0" class="graph" transform="scale(1 1) rotate(0) translate(4 569)">
<title>Python.Markopy.MarkopyCLI.parse</title>
<!-- Node1 -->
<g id="node1" class="node">
<title>Node1</title>
<g id="a_node1"><a xlink:title=" ">
<polygon fill="#bfbfbf" stroke="black" points="0,-272 0,-293 224,-293 224,-272 0,-272"/>
<text text-anchor="middle" x="112" y="-279.4" font-family="Helvetica,sans-Serif" font-size="12.00">Python.Markopy.MarkopyCLI.parse</text>
</a>
</g>
</g>
<!-- Node2 -->
<g id="node2" class="node">
<title>Node2</title>
<g id="a_node2"><a xlink:href="class_python_1_1_cuda_markopy_1_1_cuda_model_matrix_c_l_i.html#abde98354ae5895627039bf702a02ecaa" target="_top" xlink:title=" ">
<polygon fill="none" stroke="black" points="270,-530.5 270,-564.5 483,-564.5 483,-530.5 270,-530.5"/>
<text text-anchor="start" x="278" y="-550.9" font-family="Helvetica,sans-Serif" font-size="12.00">Python.CudaMarkopy.CudaModel</text>
<text text-anchor="middle" x="376.5" y="-537.9" font-family="Helvetica,sans-Serif" font-size="12.00">MatrixCLI.add_arguments</text>
</a>
</g>
</g>
<!-- Node1&#45;&gt;Node2 -->
<g id="edge1" class="edge">
<title>Node1&#45;&gt;Node2</title>
<path fill="none" stroke="midnightblue" d="M116.21,-293.17C128.17,-331.05 173.99,-460.05 260,-521.5 262.09,-522.99 264.24,-524.4 266.46,-525.72"/>
<polygon fill="midnightblue" stroke="midnightblue" points="264.8,-528.81 275.27,-530.46 268.12,-522.64 264.8,-528.81"/>
</g>
<!-- Node3 -->
<g id="node3" class="node">
<title>Node3</title>
<g id="a_node3"><a xlink:href="class_python_1_1_markopy_1_1_base_c_l_i.html#a7d5836dec84f1a14565fee372d31323b" target="_top" xlink:title=" ">
<polygon fill="none" stroke="black" points="281.5,-477.5 281.5,-511.5 471.5,-511.5 471.5,-477.5 281.5,-477.5"/>
<text text-anchor="start" x="289.5" y="-497.9" font-family="Helvetica,sans-Serif" font-size="12.00">Python.Markopy.BaseCLI.add</text>
<text text-anchor="middle" x="376.5" y="-484.9" font-family="Helvetica,sans-Serif" font-size="12.00">_arguments</text>
</a>
</g>
</g>
<!-- Node1&#45;&gt;Node3 -->
<g id="edge2" class="edge">
<title>Node1&#45;&gt;Node3</title>
<path fill="none" stroke="midnightblue" d="M118.22,-293.43C134.3,-325.88 186.5,-422.24 260,-468.5 263.82,-470.91 267.84,-473.09 271.99,-475.07"/>
<polygon fill="midnightblue" stroke="midnightblue" points="270.69,-478.33 281.26,-479.1 273.48,-471.9 270.69,-478.33"/>
</g>
<!-- Node4 -->
<g id="node4" class="node">
<title>Node4</title>
<g id="a_node4"><a xlink:href="class_python_1_1_markopy_1_1_abstract_generation_model_c_l_i.html#a12cdb40dd92b92141b9ecb0a30b5d943" target="_top" xlink:title=" ">
<polygon fill="none" stroke="black" points="260,-424.5 260,-458.5 493,-458.5 493,-424.5 260,-424.5"/>
<text text-anchor="start" x="268" y="-444.9" font-family="Helvetica,sans-Serif" font-size="12.00">Python.Markopy.AbstractGeneration</text>
<text text-anchor="middle" x="376.5" y="-431.9" font-family="Helvetica,sans-Serif" font-size="12.00">ModelCLI.add_arguments</text>
</a>
</g>
</g>
<!-- Node1&#45;&gt;Node4 -->
<g id="edge3" class="edge">
<title>Node1&#45;&gt;Node4</title>
<path fill="none" stroke="midnightblue" d="M121.32,-293.11C141.89,-318.55 197.98,-383.34 260,-415.5 263.59,-417.36 267.31,-419.09 271.13,-420.7"/>
<polygon fill="midnightblue" stroke="midnightblue" points="270.17,-424.08 280.76,-424.45 272.71,-417.56 270.17,-424.08"/>
</g>
<!-- Node5 -->
<g id="node5" class="node">
<title>Node5</title>
<g id="a_node5"><a xlink:href="class_python_1_1_markopy_1_1_abstract_training_model_c_l_i.html#a714875f2e1227f1d152492a100983b69" target="_top" xlink:title=" ">
<polygon fill="none" stroke="black" points="270.5,-371.5 270.5,-405.5 482.5,-405.5 482.5,-371.5 270.5,-371.5"/>
<text text-anchor="start" x="278.5" y="-391.9" font-family="Helvetica,sans-Serif" font-size="12.00">Python.Markopy.AbstractTraining</text>
<text text-anchor="middle" x="376.5" y="-378.9" font-family="Helvetica,sans-Serif" font-size="12.00">ModelCLI.add_arguments</text>
</a>
</g>
</g>
<!-- Node1&#45;&gt;Node5 -->
<g id="edge4" class="edge">
<title>Node1&#45;&gt;Node5</title>
<path fill="none" stroke="midnightblue" d="M129.04,-293.18C155.33,-310.22 209.69,-343.57 260,-362.5 265.81,-364.69 271.85,-366.72 277.99,-368.6"/>
<polygon fill="midnightblue" stroke="midnightblue" points="277.13,-371.99 287.71,-371.44 279.09,-365.27 277.13,-371.99"/>
</g>
<!-- Node6 -->
<g id="node6" class="node">
<title>Node6</title>
<g id="a_node6"><a xlink:href="class_python_1_1_markopy_1_1_markopy_c_l_i.html#a8f169bd88086d1711dd06c974e87c69b" target="_top" xlink:title="add &#45;mt/–model_type constructor">
<polygon fill="none" stroke="black" points="270.5,-318.5 270.5,-352.5 482.5,-352.5 482.5,-318.5 270.5,-318.5"/>
<text text-anchor="start" x="278.5" y="-338.9" font-family="Helvetica,sans-Serif" font-size="12.00">Python.Markopy.MarkopyCLI.add</text>
<text text-anchor="middle" x="376.5" y="-325.9" font-family="Helvetica,sans-Serif" font-size="12.00">_arguments</text>
</a>
</g>
</g>
<!-- Node1&#45;&gt;Node6 -->
<g id="edge5" class="edge">
<title>Node1&#45;&gt;Node6</title>
<path fill="none" stroke="midnightblue" d="M165.18,-293.03C198.33,-299.73 242.2,-308.59 281.3,-316.48"/>
<polygon fill="midnightblue" stroke="midnightblue" points="280.64,-319.92 291.13,-318.47 282.02,-313.06 280.64,-319.92"/>
</g>
<!-- Node12 -->
<g id="node12" class="node">
<title>Node12</title>
<g id="a_node12"><a xlink:href="class_python_1_1_markopy_1_1_model_matrix_c_l_i.html#a8a335e71b4f9ff50511ff1d646f30969" target="_top" xlink:title=" ">
<polygon fill="none" stroke="black" points="282,-265.5 282,-299.5 471,-299.5 471,-265.5 282,-265.5"/>
<text text-anchor="start" x="290" y="-285.9" font-family="Helvetica,sans-Serif" font-size="12.00">Python.Markopy.ModelMatrix</text>
<text text-anchor="middle" x="376.5" y="-272.9" font-family="Helvetica,sans-Serif" font-size="12.00">CLI.add_arguments</text>
</a>
</g>
</g>
<!-- Node1&#45;&gt;Node12 -->
<g id="edge12" class="edge">
<title>Node1&#45;&gt;Node12</title>
<path fill="none" stroke="midnightblue" d="M224.32,-282.5C240.03,-282.5 256.12,-282.5 271.68,-282.5"/>
<polygon fill="midnightblue" stroke="midnightblue" points="271.81,-286 281.81,-282.5 271.81,-279 271.81,-286"/>
</g>
<!-- Node13 -->
<g id="node13" class="node">
<title>Node13</title>
<g id="a_node13"><a xlink:href="class_python_1_1_cuda_markopy_1_1_cuda_model_matrix_c_l_i.html#a824030379405eded4fa2561c1a1e8610" target="_top" xlink:title=" ">
<polygon fill="none" stroke="black" points="270,-212.5 270,-246.5 483,-246.5 483,-212.5 270,-212.5"/>
<text text-anchor="start" x="278" y="-232.9" font-family="Helvetica,sans-Serif" font-size="12.00">Python.CudaMarkopy.CudaModel</text>
<text text-anchor="middle" x="376.5" y="-219.9" font-family="Helvetica,sans-Serif" font-size="12.00">MatrixCLI.init_post_arguments</text>
</a>
</g>
</g>
<!-- Node1&#45;&gt;Node13 -->
<g id="edge13" class="edge">
<title>Node1&#45;&gt;Node13</title>
<path fill="none" stroke="midnightblue" d="M165.18,-271.97C198.33,-265.27 242.2,-256.41 281.3,-248.52"/>
<polygon fill="midnightblue" stroke="midnightblue" points="282.02,-251.94 291.13,-246.53 280.64,-245.08 282.02,-251.94"/>
</g>
<!-- Node14 -->
<g id="node14" class="node">
<title>Node14</title>
<g id="a_node14"><a xlink:href="class_python_1_1_markopy_1_1_base_c_l_i.html#a4c7fdd1e03b5bf1ac6a6c0cb40df13da" target="_top" xlink:title=" ">
<polygon fill="none" stroke="black" points="284,-159.5 284,-193.5 469,-193.5 469,-159.5 284,-159.5"/>
<text text-anchor="start" x="292" y="-179.9" font-family="Helvetica,sans-Serif" font-size="12.00">Python.Markopy.BaseCLI.init</text>
<text text-anchor="middle" x="376.5" y="-166.9" font-family="Helvetica,sans-Serif" font-size="12.00">_post_arguments</text>
</a>
</g>
</g>
<!-- Node1&#45;&gt;Node14 -->
<g id="edge14" class="edge">
<title>Node1&#45;&gt;Node14</title>
<path fill="none" stroke="midnightblue" d="M129.04,-271.82C155.33,-254.78 209.69,-221.43 260,-202.5 265.81,-200.31 271.85,-198.28 277.99,-196.4"/>
<polygon fill="midnightblue" stroke="midnightblue" points="279.09,-199.73 287.71,-193.56 277.13,-193.01 279.09,-199.73"/>
</g>
<!-- Node15 -->
<g id="node15" class="node">
<title>Node15</title>
<g id="a_node15"><a xlink:href="class_python_1_1_markopy_1_1_markopy_c_l_i.html#a84df41ce62183c3c41afee0389d7a3d4" target="_top" xlink:title=" ">
<polygon fill="none" stroke="black" points="272.5,-106.5 272.5,-140.5 480.5,-140.5 480.5,-106.5 272.5,-106.5"/>
<text text-anchor="start" x="280.5" y="-126.9" font-family="Helvetica,sans-Serif" font-size="12.00">Python.Markopy.MarkopyCLI.init</text>
<text text-anchor="middle" x="376.5" y="-113.9" font-family="Helvetica,sans-Serif" font-size="12.00">_post_arguments</text>
</a>
</g>
</g>
<!-- Node1&#45;&gt;Node15 -->
<g id="edge15" class="edge">
<title>Node1&#45;&gt;Node15</title>
<path fill="none" stroke="midnightblue" d="M121.32,-271.89C141.89,-246.45 197.98,-181.66 260,-149.5 263.59,-147.64 267.31,-145.91 271.13,-144.3"/>
<polygon fill="midnightblue" stroke="midnightblue" points="272.71,-147.44 280.76,-140.55 270.17,-140.92 272.71,-147.44"/>
</g>
<!-- Node16 -->
<g id="node16" class="node">
<title>Node16</title>
<g id="a_node16"><a xlink:href="class_python_1_1_markopy_1_1_model_matrix_c_l_i.html#aedd02a1510ad98bec9b755686fbcec23" target="_top" xlink:title=" ">
<polygon fill="none" stroke="black" points="282,-53.5 282,-87.5 471,-87.5 471,-53.5 282,-53.5"/>
<text text-anchor="start" x="290" y="-73.9" font-family="Helvetica,sans-Serif" font-size="12.00">Python.Markopy.ModelMatrix</text>
<text text-anchor="middle" x="376.5" y="-60.9" font-family="Helvetica,sans-Serif" font-size="12.00">CLI.init_post_arguments</text>
</a>
</g>
</g>
<!-- Node1&#45;&gt;Node16 -->
<g id="edge16" class="edge">
<title>Node1&#45;&gt;Node16</title>
<path fill="none" stroke="midnightblue" d="M118.22,-271.57C134.3,-239.12 186.5,-142.76 260,-96.5 263.92,-94.03 268.05,-91.8 272.32,-89.77"/>
<polygon fill="midnightblue" stroke="midnightblue" points="274.05,-92.84 281.85,-85.67 271.28,-86.41 274.05,-92.84"/>
</g>
<!-- Node17 -->
<g id="node17" class="node">
<title>Node17</title>
<g id="a_node17"><a xlink:href="class_python_1_1_markopy_1_1_base_c_l_i.html#a9ad725de8fe9de68dc7c4f4aece8bb83" target="_top" xlink:title=" ">
<polygon fill="none" stroke="black" points="276,-0.5 276,-34.5 477,-34.5 477,-0.5 276,-0.5"/>
<text text-anchor="start" x="284" y="-20.9" font-family="Helvetica,sans-Serif" font-size="12.00">Python.Markopy.BaseCLI.parse</text>
<text text-anchor="middle" x="376.5" y="-7.9" font-family="Helvetica,sans-Serif" font-size="12.00">_arguments</text>
</a>
</g>
</g>
<!-- Node1&#45;&gt;Node17 -->
<g id="edge17" class="edge">
<title>Node1&#45;&gt;Node17</title>
<path fill="none" stroke="midnightblue" d="M116.21,-271.83C128.17,-233.95 173.99,-104.95 260,-43.5 262.16,-41.96 264.39,-40.51 266.69,-39.14"/>
<polygon fill="midnightblue" stroke="midnightblue" points="268.65,-42.06 275.83,-34.27 265.36,-35.88 268.65,-42.06"/>
</g>
<!-- Node7 -->
<g id="node7" class="node">
<title>Node7</title>
<g id="a_node7"><a xlink:href="class_markov_1_1_a_p_i_1_1_c_l_i_1_1_argparse.html#ac7aaf4edf169e3aab32aca083984d914" target="_top" xlink:title="Print help string.">
<polygon fill="none" stroke="black" points="555.5,-395.5 555.5,-429.5 731.5,-429.5 731.5,-395.5 555.5,-395.5"/>
<text text-anchor="start" x="563.5" y="-415.9" font-family="Helvetica,sans-Serif" font-size="12.00">Markov::API::CLI::Argparse</text>
<text text-anchor="middle" x="643.5" y="-402.9" font-family="Helvetica,sans-Serif" font-size="12.00">::help</text>
</a>
</g>
</g>
<!-- Node6&#45;&gt;Node7 -->
<g id="edge6" class="edge">
<title>Node6&#45;&gt;Node7</title>
<path fill="none" stroke="midnightblue" d="M465.3,-352.5C474.81,-355.38 484.21,-358.69 493,-362.5 510.64,-370.14 511.34,-378.89 529,-386.5 534.35,-388.8 539.94,-390.92 545.64,-392.86"/>
<polygon fill="midnightblue" stroke="midnightblue" points="544.73,-396.24 555.32,-395.96 546.86,-389.58 544.73,-396.24"/>
</g>
<!-- Node8 -->
<g id="node8" class="node">
<title>Node8</title>
<g id="a_node8"><a xlink:href="class_python_1_1_cuda_markopy_1_1_cuda_markopy_c_l_i.html#acb946950d9dbc1402ba081523d497dd3" target="_top" xlink:title="overload help function to print submodel helps">
<polygon fill="none" stroke="black" points="529,-342.5 529,-376.5 758,-376.5 758,-342.5 529,-342.5"/>
<text text-anchor="start" x="537" y="-362.9" font-family="Helvetica,sans-Serif" font-size="12.00">Python.CudaMarkopy.CudaMarkopy</text>
<text text-anchor="middle" x="643.5" y="-349.9" font-family="Helvetica,sans-Serif" font-size="12.00">CLI.help</text>
</a>
</g>
</g>
<!-- Node6&#45;&gt;Node8 -->
<g id="edge7" class="edge">
<title>Node6&#45;&gt;Node8</title>
<path fill="none" stroke="midnightblue" d="M482.62,-345.02C494.47,-346.09 506.63,-347.19 518.69,-348.29"/>
<polygon fill="midnightblue" stroke="midnightblue" points="518.52,-351.79 528.79,-349.2 519.15,-344.81 518.52,-351.79"/>
</g>
<!-- Node10 -->
<g id="node10" class="node">
<title>Node10</title>
<g id="a_node10"><a xlink:href="class_python_1_1_markopy_1_1_base_c_l_i.html#ab367a1505f21191f550087707288b575" target="_top" xlink:title=" ">
<polygon fill="none" stroke="black" points="547,-302 547,-323 740,-323 740,-302 547,-302"/>
<text text-anchor="middle" x="643.5" y="-309.4" font-family="Helvetica,sans-Serif" font-size="12.00">Python.Markopy.BaseCLI.help</text>
</a>
</g>
</g>
<!-- Node6&#45;&gt;Node10 -->
<g id="edge9" class="edge">
<title>Node6&#45;&gt;Node10</title>
<path fill="none" stroke="midnightblue" d="M482.62,-326.38C500.37,-324.84 518.82,-323.23 536.59,-321.69"/>
<polygon fill="midnightblue" stroke="midnightblue" points="537.31,-325.14 546.97,-320.79 536.71,-318.17 537.31,-325.14"/>
</g>
<!-- Node11 -->
<g id="node11" class="node">
<title>Node11</title>
<g id="a_node11"><a xlink:href="class_python_1_1_markopy_1_1_markopy_c_l_i.html#a76e6c5fbea009bb2cc5cd1fc7278e2fd" target="_top" xlink:title="overload help function to print submodel helps">
<polygon fill="none" stroke="black" points="536,-262 536,-283 751,-283 751,-262 536,-262"/>
<text text-anchor="middle" x="643.5" y="-269.4" font-family="Helvetica,sans-Serif" font-size="12.00">Python.Markopy.MarkopyCLI.help</text>
</a>
</g>
</g>
<!-- Node6&#45;&gt;Node11 -->
<g id="edge10" class="edge">
<title>Node6&#45;&gt;Node11</title>
<path fill="none" stroke="midnightblue" d="M459.13,-318.45C470.6,-315.47 482.17,-312.14 493,-308.5 509.6,-302.93 512.25,-297.61 529,-292.5 538.26,-289.67 548.07,-287.2 557.89,-285.05"/>
<polygon fill="midnightblue" stroke="midnightblue" points="558.63,-288.47 567.7,-283 557.2,-281.62 558.63,-288.47"/>
</g>
<!-- Node9 -->
<g id="node9" class="node">
<title>Node9</title>
<g id="a_node9"><a xlink:href="class_python_1_1_markopy_1_1_markopy_c_l_i.html#a80bd3c93aead66d0d7c264a7d387196f" target="_top" xlink:title=" ">
<polygon fill="none" stroke="black" points="794,-305 794,-326 1009,-326 1009,-305 794,-305"/>
<text text-anchor="middle" x="901.5" y="-312.4" font-family="Helvetica,sans-Serif" font-size="12.00">Python.Markopy.MarkopyCLI.stub</text>
</a>
</g>
</g>
<!-- Node8&#45;&gt;Node9 -->
<g id="edge8" class="edge">
<title>Node8&#45;&gt;Node9</title>
<path fill="none" stroke="midnightblue" d="M743.48,-342.49C772.05,-337.58 802.65,-332.32 829.19,-327.76"/>
<polygon fill="midnightblue" stroke="midnightblue" points="829.88,-331.19 839.14,-326.05 828.7,-324.29 829.88,-331.19"/>
</g>
<!-- Node11&#45;&gt;Node9 -->
<g id="edge11" class="edge">
<title>Node11&#45;&gt;Node9</title>
<path fill="none" stroke="midnightblue" d="M707.12,-283.02C743.54,-289.14 789.61,-296.87 827.64,-303.26"/>
<polygon fill="midnightblue" stroke="midnightblue" points="827.19,-306.74 837.63,-304.94 828.35,-299.83 827.19,-306.74"/>
</g>
</g>
</svg>
