<?xml version="1.0" encoding="UTF-8" standalone="no"?>
<!DOCTYPE svg PUBLIC "-//W3C//DTD SVG 1.1//EN"
 "http://www.w3.org/Graphics/SVG/1.1/DTD/svg11.dtd">
<!-- Generated by graphviz version 2.43.0 (0)
 -->
<!-- Title: Markov::API::ModelMatrix Pages: 1 -->
<!--zoomable 1400 -->
<svg id="main" version="1.1" xmlns="http://www.w3.org/2000/svg" xmlns:xlink="http://www.w3.org/1999/xlink" xml:space="preserve" onload="init(evt)">
<style type="text/css"><![CDATA[
.edge:hover path { stroke: red; }
.edge:hover polygon { stroke: red; fill: red; }
]]></style>
<script type="text/javascript"><![CDATA[
var edges = document.getElementsByTagName('g');
if (edges && edges.length) {
  for (var i=0;i<edges.length;i++) {
    if (edges[i].id.substr(0,4)=='edge') {
      edges[i].setAttribute('class','edge');
    }
  }
}
]]></script>
        <defs>
                <circle id="rim" cx="0" cy="0" r="7"/>
                <circle id="rim2" cx="0" cy="0" r="3.5"/>
                <g id="zoomPlus">
                        <use xlink:href="#rim" fill="#404040">
                                <set attributeName="fill" to="#808080" begin="zoomplus.mouseover" end="zoomplus.mouseout"/>
                        </use>
                        <path d="M-4,0h8M0,-4v8" fill="none" stroke="white" stroke-width="1.5" pointer-events="none"/>
                </g>
                <g id="zoomMin">
                        <use xlink:href="#rim" fill="#404040">
                                <set attributeName="fill" to="#808080" begin="zoomminus.mouseover" end="zoomminus.mouseout"/>
                        </use>
                        <path d="M-4,0h8" fill="none" stroke="white" stroke-width="1.5" pointer-events="none"/>
                </g>
                <g id="dirArrow">
                        <path fill="none" stroke="white" stroke-width="1.5" d="M0,-3.0v7 M-2.5,-0.5L0,-3.0L2.5,-0.5"/>
                </g>
               <g id="resetDef">
                       <use xlink:href="#rim2" fill="#404040">
                               <set attributeName="fill" to="#808080" begin="reset.mouseover" end="reset.mouseout"/>
                       </use>
               </g>
        </defs>

<script type="text/javascript">
var viewWidth = 1280;
var viewHeight = 1400;
var sectionId = 'dynsection-1';
</script>
<script xlink:href="svgpan.js"/>
<svg id="graph" class="graph">
<g id="viewport">
<title>Markov::API::ModelMatrix</title>
<!-- Node1 -->
<g id="node1" class="node">
<title>Node1</title>
<g id="a_node1"><a xlink:title="Class to flatten and reduce Markov::Model to a Matrix.">
<polygon fill="#bfbfbf" stroke="black" points="902,-0.5 902,-180.5 1091,-180.5 1091,-0.5 902,-0.5"/>
<text text-anchor="middle" x="996.5" y="-166.9" font-family="Helvetica,sans-Serif" font-size="12.00">Markov::API::ModelMatrix</text>
<polyline fill="none" stroke="black" points="902,-159.5 1091,-159.5 "/>
<text text-anchor="middle" x="996.5" y="-145.9" font-family="Helvetica,sans-Serif" font-size="12.00"> </text>
<polyline fill="none" stroke="black" points="902,-138.5 1091,-138.5 "/>
<text text-anchor="start" x="910" y="-124.9" font-family="Helvetica,sans-Serif" font-size="12.00">+ ModelMatrix()</text>
<text text-anchor="start" x="910" y="-111.9" font-family="Helvetica,sans-Serif" font-size="12.00">+ ConstructMatrix()</text>
<text text-anchor="start" x="910" y="-98.9" font-family="Helvetica,sans-Serif" font-size="12.00">+ DumpJSON()</text>
<text text-anchor="start" x="910" y="-85.9" font-family="Helvetica,sans-Serif" font-size="12.00">+ FastRandomWalk()</text>
<text text-anchor="start" x="910" y="-72.9" font-family="Helvetica,sans-Serif" font-size="12.00">+ Import()</text>
<text text-anchor="start" x="910" y="-59.9" font-family="Helvetica,sans-Serif" font-size="12.00">+ Train()</text>
<text text-anchor="start" x="910" y="-46.9" font-family="Helvetica,sans-Serif" font-size="12.00"># FastRandomWalk()</text>
<text text-anchor="start" x="910" y="-33.9" font-family="Helvetica,sans-Serif" font-size="12.00"># FastRandomWalkPartition()</text>
<text text-anchor="start" x="910" y="-20.9" font-family="Helvetica,sans-Serif" font-size="12.00"># FastRandomWalkThread()</text>
<text text-anchor="start" x="910" y="-7.9" font-family="Helvetica,sans-Serif" font-size="12.00"># DeallocateMatrix()</text>
</a>
</g>
</g>
<!-- Node2 -->
<g id="node2" class="node">
<title>Node2</title>
<g id="a_node2"><a xlink:href="class_markov_1_1_a_p_i_1_1_markov_passwords.html" target="_top" xlink:title="Markov::Model with char represented nodes.">
<polygon fill="none" stroke="black" points="354.5,-243.5 354.5,-410.5 554.5,-410.5 554.5,-243.5 354.5,-243.5"/>
<text text-anchor="middle" x="454.5" y="-396.9" font-family="Helvetica,sans-Serif" font-size="12.00">Markov::API::MarkovPasswords</text>
<polyline fill="none" stroke="black" points="354.5,-389.5 554.5,-389.5 "/>
<text text-anchor="middle" x="454.5" y="-375.9" font-family="Helvetica,sans-Serif" font-size="12.00"> </text>
<polyline fill="none" stroke="black" points="354.5,-368.5 554.5,-368.5 "/>
<text text-anchor="start" x="362.5" y="-354.9" font-family="Helvetica,sans-Serif" font-size="12.00">+ MarkovPasswords()</text>
<text text-anchor="start" x="362.5" y="-341.9" font-family="Helvetica,sans-Serif" font-size="12.00">+ MarkovPasswords()</text>
<text text-anchor="start" x="362.5" y="-328.9" font-family="Helvetica,sans-Serif" font-size="12.00">+ OpenDatasetFile()</text>
<text text-anchor="start" x="362.5" y="-315.9" font-family="Helvetica,sans-Serif" font-size="12.00">+ Train()</text>
<text text-anchor="start" x="362.5" y="-302.9" font-family="Helvetica,sans-Serif" font-size="12.00">+ Save()</text>
<text text-anchor="start" x="362.5" y="-289.9" font-family="Helvetica,sans-Serif" font-size="12.00">+ Generate()</text>
<text text-anchor="start" x="362.5" y="-276.9" font-family="Helvetica,sans-Serif" font-size="12.00">+ Buff()</text>
<text text-anchor="start" x="362.5" y="-263.9" font-family="Helvetica,sans-Serif" font-size="12.00">&#45; TrainThread()</text>
<text text-anchor="start" x="362.5" y="-250.9" font-family="Helvetica,sans-Serif" font-size="12.00">&#45; GenerateThread()</text>
</a>
</g>
</g>
<!-- Node2&#45;&gt;Node1 -->
<g id="edge1" class="edge">
<title>Node2&#45;&gt;Node1</title>
<path fill="none" stroke="midnightblue" d="M563.98,-278.63C663.01,-235.79 807.34,-173.34 901.58,-132.57"/>
<polygon fill="none" stroke="midnightblue" points="562.33,-275.53 554.54,-282.72 565.11,-281.96 562.33,-275.53"/>
</g>
<!-- Node3 -->
<g id="node3" class="node">
<title>Node3</title>
<g id="a_node3"><a xlink:href="class_markov_1_1_model.html" target="_top" xlink:title=" ">
<polygon fill="none" stroke="black" points="482.5,-473.5 482.5,-666.5 640.5,-666.5 640.5,-473.5 482.5,-473.5"/>
<text text-anchor="middle" x="561.5" y="-652.9" font-family="Helvetica,sans-Serif" font-size="12.00">Markov::Model&lt; char &gt;</text>
<polyline fill="none" stroke="black" points="482.5,-645.5 640.5,-645.5 "/>
<text text-anchor="middle" x="561.5" y="-631.9" font-family="Helvetica,sans-Serif" font-size="12.00"> </text>
<polyline fill="none" stroke="black" points="482.5,-624.5 640.5,-624.5 "/>
<text text-anchor="start" x="490.5" y="-610.9" font-family="Helvetica,sans-Serif" font-size="12.00">+ Model()</text>
<text text-anchor="start" x="490.5" y="-597.9" font-family="Helvetica,sans-Serif" font-size="12.00">+ RandomWalk()</text>
<text text-anchor="start" x="490.5" y="-584.9" font-family="Helvetica,sans-Serif" font-size="12.00">+ AdjustEdge()</text>
<text text-anchor="start" x="490.5" y="-571.9" font-family="Helvetica,sans-Serif" font-size="12.00">+ Import()</text>
<text text-anchor="start" x="490.5" y="-558.9" font-family="Helvetica,sans-Serif" font-size="12.00">+ Import()</text>
<text text-anchor="start" x="490.5" y="-545.9" font-family="Helvetica,sans-Serif" font-size="12.00">+ Export()</text>
<text text-anchor="start" x="490.5" y="-532.9" font-family="Helvetica,sans-Serif" font-size="12.00">+ Export()</text>
<text text-anchor="start" x="490.5" y="-519.9" font-family="Helvetica,sans-Serif" font-size="12.00">+ StarterNode()</text>
<text text-anchor="start" x="490.5" y="-506.9" font-family="Helvetica,sans-Serif" font-size="12.00">+ Edges()</text>
<text text-anchor="start" x="490.5" y="-493.9" font-family="Helvetica,sans-Serif" font-size="12.00">+ Nodes()</text>
<text text-anchor="start" x="490.5" y="-480.9" font-family="Helvetica,sans-Serif" font-size="12.00">+ OptimizeEdgeOrder()</text>
</a>
</g>
</g>
<!-- Node3&#45;&gt;Node2 -->
<g id="edge2" class="edge">
<title>Node3&#45;&gt;Node2</title>
<path fill="none" stroke="midnightblue" d="M519.67,-463.87C514.68,-452.06 509.56,-440.23 504.5,-429 501.81,-423.02 498.97,-416.88 496.06,-410.72"/>
<polygon fill="none" stroke="midnightblue" points="516.54,-465.47 523.64,-473.34 523,-462.76 516.54,-465.47"/>
</g>
<!-- Node4 -->
<g id="node4" class="node">
<title>Node4</title>
<g id="a_node4"><a xlink:title=" ">
<polygon fill="none" stroke="#bfbfbf" points="769,-888 769,-964 930,-964 930,-888 769,-888"/>
<text text-anchor="start" x="777" y="-950.4" font-family="Helvetica,sans-Serif" font-size="12.00">std::map&lt; char, Markov</text>
<text text-anchor="middle" x="849.5" y="-937.4" font-family="Helvetica,sans-Serif" font-size="12.00">::Node&lt; char &gt; * &gt;</text>
<polyline fill="none" stroke="#bfbfbf" points="769,-930 930,-930 "/>
<text text-anchor="middle" x="849.5" y="-916.4" font-family="Helvetica,sans-Serif" font-size="12.00"> </text>
<polyline fill="none" stroke="#bfbfbf" points="769,-909 930,-909 "/>
<text text-anchor="middle" x="849.5" y="-895.4" font-family="Helvetica,sans-Serif" font-size="12.00"> </text>
</a>
</g>
</g>
<!-- Node4&#45;&gt;Node3 -->
<g id="edge3" class="edge">
<title>Node4&#45;&gt;Node3</title>
<path fill="none" stroke="#404040" d="M820.43,-887.69C783.3,-840.24 716.87,-755.93 658.5,-685 655.25,-681.05 651.92,-677.03 648.56,-672.98"/>
<polygon fill="none" stroke="#404040" points="648.32,-672.7 641.41,-670.66 640.63,-663.49 647.55,-665.53 648.32,-672.7"/>
<text text-anchor="middle" x="767" y="-751.4" font-family="Helvetica,sans-Serif" font-size="12.00"> &#45;nodes</text>
</g>
<!-- Node5 -->
<g id="node5" class="node">
<title>Node5</title>
<g id="a_node5"><a xlink:href="classchar.html" target="_top" xlink:title=" ">
<polygon fill="none" stroke="black" points="772.5,-1328.5 772.5,-1391.5 816.5,-1391.5 816.5,-1328.5 772.5,-1328.5"/>
<text text-anchor="middle" x="794.5" y="-1377.9" font-family="Helvetica,sans-Serif" font-size="12.00">char</text>
<polyline fill="none" stroke="black" points="772.5,-1370.5 816.5,-1370.5 "/>
<text text-anchor="middle" x="794.5" y="-1356.9" font-family="Helvetica,sans-Serif" font-size="12.00"> </text>
<polyline fill="none" stroke="black" points="772.5,-1349.5 816.5,-1349.5 "/>
<text text-anchor="middle" x="794.5" y="-1335.9" font-family="Helvetica,sans-Serif" font-size="12.00"> </text>
</a>
</g>
</g>
<!-- Node5&#45;&gt;Node1 -->
<g id="edge26" class="edge">
<title>Node5&#45;&gt;Node1</title>
<path fill="none" stroke="#404040" d="M816.62,-1347.76C861.38,-1323.25 958.5,-1260.42 958.5,-1176.5 958.5,-1176.5 958.5,-1176.5 958.5,-326 958.5,-281.89 965.13,-233.71 972.85,-192.56"/>
<polygon fill="none" stroke="#404040" points="972.89,-192.37 970.1,-185.72 975.17,-180.59 977.96,-187.24 972.89,-192.37"/>
<text text-anchor="middle" x="1001.5" y="-757.9" font-family="Helvetica,sans-Serif" font-size="12.00"> #matrixIndex</text>
<text text-anchor="middle" x="1001.5" y="-744.9" font-family="Helvetica,sans-Serif" font-size="12.00">#edgeMatrix</text>
</g>
<!-- Node5&#45;&gt;Node4 -->
<g id="edge4" class="edge">
<title>Node5&#45;&gt;Node4</title>
<path fill="none" stroke="#404040" d="M798.41,-1328.28C807.82,-1254.36 831.79,-1066.08 843.24,-976.2"/>
<polygon fill="none" stroke="#404040" points="843.25,-976.09 840.04,-969.64 844.77,-964.19 847.98,-970.65 843.25,-976.09"/>
<text text-anchor="middle" x="852" y="-1172.4" font-family="Helvetica,sans-Serif" font-size="12.00"> +keys</text>
</g>
<!-- Node6 -->
<g id="node6" class="node">
<title>Node6</title>
<g id="a_node6"><a xlink:href="class_markov_1_1_node.html" target="_top" xlink:title=" ">
<polygon fill="none" stroke="black" points="476,-1072.5 476,-1278.5 667,-1278.5 667,-1072.5 476,-1072.5"/>
<text text-anchor="middle" x="571.5" y="-1264.9" font-family="Helvetica,sans-Serif" font-size="12.00">Markov::Node&lt; char &gt;</text>
<polyline fill="none" stroke="black" points="476,-1257.5 667,-1257.5 "/>
<text text-anchor="middle" x="571.5" y="-1243.9" font-family="Helvetica,sans-Serif" font-size="12.00"> </text>
<polyline fill="none" stroke="black" points="476,-1236.5 667,-1236.5 "/>
<text text-anchor="start" x="484" y="-1222.9" font-family="Helvetica,sans-Serif" font-size="12.00">+ Node()</text>
<text text-anchor="start" x="484" y="-1209.9" font-family="Helvetica,sans-Serif" font-size="12.00">+ Node()</text>
<text text-anchor="start" x="484" y="-1196.9" font-family="Helvetica,sans-Serif" font-size="12.00">+ Link()</text>
<text text-anchor="start" x="484" y="-1183.9" font-family="Helvetica,sans-Serif" font-size="12.00">+ Link()</text>
<text text-anchor="start" x="484" y="-1170.9" font-family="Helvetica,sans-Serif" font-size="12.00">+ RandomNext()</text>
<text text-anchor="start" x="484" y="-1157.9" font-family="Helvetica,sans-Serif" font-size="12.00">+ UpdateEdges()</text>
<text text-anchor="start" x="484" y="-1144.9" font-family="Helvetica,sans-Serif" font-size="12.00">+ FindEdge()</text>
<text text-anchor="start" x="484" y="-1131.9" font-family="Helvetica,sans-Serif" font-size="12.00">+ FindEdge()</text>
<text text-anchor="start" x="484" y="-1118.9" font-family="Helvetica,sans-Serif" font-size="12.00">+ NodeValue()</text>
<text text-anchor="start" x="484" y="-1105.9" font-family="Helvetica,sans-Serif" font-size="12.00">+ UpdateTotalVerticeWeight()</text>
<text text-anchor="start" x="484" y="-1092.9" font-family="Helvetica,sans-Serif" font-size="12.00">+ Edges()</text>
<text text-anchor="start" x="484" y="-1079.9" font-family="Helvetica,sans-Serif" font-size="12.00">+ TotalEdgeWeights()</text>
</a>
</g>
</g>
<!-- Node5&#45;&gt;Node6 -->
<g id="edge6" class="edge">
<title>Node5&#45;&gt;Node6</title>
<path fill="none" stroke="#404040" d="M772.45,-1351.27C750.82,-1343.06 717.53,-1328.68 692.5,-1310 683.1,-1302.98 673.86,-1295.16 664.93,-1286.91"/>
<polygon fill="none" stroke="#404040" points="664.81,-1286.8 657.7,-1285.57 656.11,-1278.54 663.21,-1279.77 664.81,-1286.8"/>
<text text-anchor="middle" x="716" y="-1300.4" font-family="Helvetica,sans-Serif" font-size="12.00"> &#45;_value</text>
</g>
<!-- Node7 -->
<g id="node7" class="node">
<title>Node7</title>
<g id="a_node7"><a xlink:title=" ">
<polygon fill="none" stroke="#bfbfbf" points="455,-716.5 455,-792.5 616,-792.5 616,-716.5 455,-716.5"/>
<text text-anchor="start" x="463" y="-778.9" font-family="Helvetica,sans-Serif" font-size="12.00">std::map&lt; char, Markov</text>
<text text-anchor="middle" x="535.5" y="-765.9" font-family="Helvetica,sans-Serif" font-size="12.00">::Edge&lt; char &gt; * &gt;</text>
<polyline fill="none" stroke="#bfbfbf" points="455,-758.5 616,-758.5 "/>
<text text-anchor="middle" x="535.5" y="-744.9" font-family="Helvetica,sans-Serif" font-size="12.00"> </text>
<polyline fill="none" stroke="#bfbfbf" points="455,-737.5 616,-737.5 "/>
<text text-anchor="middle" x="535.5" y="-723.9" font-family="Helvetica,sans-Serif" font-size="12.00"> </text>
</a>
</g>
</g>
<!-- Node5&#45;&gt;Node7 -->
<g id="edge8" class="edge">
<title>Node5&#45;&gt;Node7</title>
<path fill="none" stroke="#404040" d="M791.64,-1328.45C781.01,-1216.05 743.48,-830.93 726.5,-811 722.9,-806.77 674.69,-792.78 627.61,-779.9"/>
<polygon fill="none" stroke="#404040" points="627.59,-779.9 620.75,-782.18 616.01,-776.75 622.85,-774.46 627.59,-779.9"/>
<text text-anchor="middle" x="784" y="-1037.9" font-family="Helvetica,sans-Serif" font-size="12.00"> +keys</text>
</g>
<!-- Node6&#45;&gt;Node3 -->
<g id="edge15" class="edge">
<title>Node6&#45;&gt;Node3</title>
<path fill="none" stroke="#404040" d="M611.32,-1072.24C617.63,-1051.91 623.16,-1030.51 626.5,-1010 647.49,-881.03 652.11,-843.72 624.5,-716 621.79,-703.47 617.97,-690.69 613.54,-678.16"/>
<polygon fill="none" stroke="#404040" points="613.48,-677.99 607.65,-673.76 609.32,-666.74 615.15,-670.98 613.48,-677.99"/>
<text text-anchor="middle" x="683" y="-814.4" font-family="Helvetica,sans-Serif" font-size="12.00"> &#45;starterNode</text>
</g>
<!-- Node6&#45;&gt;Node4 -->
<g id="edge5" class="edge">
<title>Node6&#45;&gt;Node4</title>
<path fill="none" stroke="#404040" d="M629.01,-1072.47C641.22,-1052.93 652.98,-1036.04 661.5,-1028 689.22,-1001.84 725.02,-980.4 757.93,-964.1"/>
<polygon fill="none" stroke="#404040" points="758.16,-963.99 761.82,-957.78 768.96,-958.77 765.3,-964.98 758.16,-963.99"/>
<text text-anchor="middle" x="696.5" y="-1037.9" font-family="Helvetica,sans-Serif" font-size="12.00"> +elements</text>
</g>
<!-- Node8 -->
<g id="node8" class="node">
<title>Node8</title>
<g id="a_node8"><a xlink:href="class_markov_1_1_edge.html" target="_top" xlink:title=" ">
<polygon fill="none" stroke="black" points="383.5,-842.5 383.5,-1009.5 535.5,-1009.5 535.5,-842.5 383.5,-842.5"/>
<text text-anchor="middle" x="459.5" y="-995.9" font-family="Helvetica,sans-Serif" font-size="12.00">Markov::Edge&lt; char &gt;</text>
<polyline fill="none" stroke="black" points="383.5,-988.5 535.5,-988.5 "/>
<text text-anchor="middle" x="459.5" y="-974.9" font-family="Helvetica,sans-Serif" font-size="12.00"> </text>
<polyline fill="none" stroke="black" points="383.5,-967.5 535.5,-967.5 "/>
<text text-anchor="start" x="391.5" y="-953.9" font-family="Helvetica,sans-Serif" font-size="12.00">+ Edge()</text>
<text text-anchor="start" x="391.5" y="-940.9" font-family="Helvetica,sans-Serif" font-size="12.00">+ Edge()</text>
<text text-anchor="start" x="391.5" y="-927.9" font-family="Helvetica,sans-Serif" font-size="12.00">+ AdjustEdge()</text>
<text text-anchor="start" x="391.5" y="-914.9" font-family="Helvetica,sans-Serif" font-size="12.00">+ TraverseNode()</text>
<text text-anchor="start" x="391.5" y="-901.9" font-family="Helvetica,sans-Serif" font-size="12.00">+ SetLeftEdge()</text>
<text text-anchor="start" x="391.5" y="-888.9" font-family="Helvetica,sans-Serif" font-size="12.00">+ SetRightEdge()</text>
<text text-anchor="start" x="391.5" y="-875.9" font-family="Helvetica,sans-Serif" font-size="12.00">+ EdgeWeight()</text>
<text text-anchor="start" x="391.5" y="-862.9" font-family="Helvetica,sans-Serif" font-size="12.00">+ LeftNode()</text>
<text text-anchor="start" x="391.5" y="-849.9" font-family="Helvetica,sans-Serif" font-size="12.00">+ RightNode()</text>
</a>
</g>
</g>
<!-- Node6&#45;&gt;Node8 -->
<g id="edge11" class="edge">
<title>Node6&#45;&gt;Node8</title>
<path fill="none" stroke="#404040" d="M525.3,-1072.4C517.54,-1055.25 509.52,-1037.53 501.86,-1020.61"/>
<polygon fill="none" stroke="#404040" points="501.84,-1020.55 495.72,-1016.74 496.89,-1009.62 503.01,-1013.44 501.84,-1020.55"/>
<text text-anchor="middle" x="535" y="-1044.4" font-family="Helvetica,sans-Serif" font-size="12.00"> &#45;_left</text>
<text text-anchor="middle" x="535" y="-1031.4" font-family="Helvetica,sans-Serif" font-size="12.00">&#45;_right</text>
</g>
<!-- Node7&#45;&gt;Node6 -->
<g id="edge7" class="edge">
<title>Node7&#45;&gt;Node6</title>
<path fill="none" stroke="#404040" d="M552.18,-792.58C554.33,-798.63 556.22,-804.92 557.5,-811 574.82,-893.07 577.93,-987.83 576.92,-1060.01"/>
<polygon fill="none" stroke="#404040" points="576.92,-1060.31 580.81,-1066.38 576.71,-1072.31 572.81,-1066.24 576.92,-1060.31"/>
<text text-anchor="middle" x="600" y="-922.9" font-family="Helvetica,sans-Serif" font-size="12.00"> &#45;edges</text>
</g>
<!-- Node8&#45;&gt;Node7 -->
<g id="edge9" class="edge">
<title>Node8&#45;&gt;Node7</title>
<path fill="none" stroke="#404040" d="M474.85,-842.34C478.28,-831.5 482.45,-820.78 487.5,-811 488.98,-808.13 490.65,-805.28 492.43,-802.48"/>
<polygon fill="none" stroke="#404040" points="492.48,-802.41 492.66,-795.2 499.38,-792.59 499.21,-799.8 492.48,-802.41"/>
<text text-anchor="middle" x="522.5" y="-814.4" font-family="Helvetica,sans-Serif" font-size="12.00"> +elements</text>
</g>
<!-- Node10 -->
<g id="node10" class="node">
<title>Node10</title>
<g id="a_node10"><a xlink:title=" ">
<polygon fill="none" stroke="#bfbfbf" points="298.5,-716.5 298.5,-792.5 436.5,-792.5 436.5,-716.5 298.5,-716.5"/>
<text text-anchor="start" x="306.5" y="-778.9" font-family="Helvetica,sans-Serif" font-size="12.00">std::vector&lt; Markov</text>
<text text-anchor="middle" x="367.5" y="-765.9" font-family="Helvetica,sans-Serif" font-size="12.00">::Edge&lt; char &gt; * &gt;</text>
<polyline fill="none" stroke="#bfbfbf" points="298.5,-758.5 436.5,-758.5 "/>
<text text-anchor="middle" x="367.5" y="-744.9" font-family="Helvetica,sans-Serif" font-size="12.00"> </text>
<polyline fill="none" stroke="#bfbfbf" points="298.5,-737.5 436.5,-737.5 "/>
<text text-anchor="middle" x="367.5" y="-723.9" font-family="Helvetica,sans-Serif" font-size="12.00"> </text>
</a>
</g>
</g>
<!-- Node8&#45;&gt;Node10 -->
<g id="edge14" class="edge">
<title>Node8&#45;&gt;Node10</title>
<path fill="none" stroke="#404040" d="M414.58,-842.24C407.38,-828.98 400.15,-815.66 393.59,-803.58"/>
<polygon fill="none" stroke="#404040" points="393.5,-803.41 387.13,-800.04 387.78,-792.86 394.16,-796.23 393.5,-803.41"/>
<text text-anchor="middle" x="438.5" y="-814.4" font-family="Helvetica,sans-Serif" font-size="12.00"> +elements</text>
</g>
<!-- Node9 -->
<g id="node9" class="node">
<title>Node9</title>
<g id="a_node9"><a xlink:href="classlong_01int.html" target="_top" xlink:title=" ">
<polygon fill="none" stroke="black" points="323,-1328.5 323,-1391.5 384,-1391.5 384,-1328.5 323,-1328.5"/>
<text text-anchor="middle" x="353.5" y="-1377.9" font-family="Helvetica,sans-Serif" font-size="12.00">long int</text>
<polyline fill="none" stroke="black" points="323,-1370.5 384,-1370.5 "/>
<text text-anchor="middle" x="353.5" y="-1356.9" font-family="Helvetica,sans-Serif" font-size="12.00"> </text>
<polyline fill="none" stroke="black" points="323,-1349.5 384,-1349.5 "/>
<text text-anchor="middle" x="353.5" y="-1335.9" font-family="Helvetica,sans-Serif" font-size="12.00"> </text>
</a>
</g>
</g>
<!-- Node9&#45;&gt;Node6 -->
<g id="edge12" class="edge">
<title>Node9&#45;&gt;Node6</title>
<path fill="none" stroke="#404040" d="M384.27,-1333.24C405.97,-1315.07 436.41,-1289.59 466.45,-1264.44"/>
<polygon fill="none" stroke="#404040" points="466.55,-1264.36 468.58,-1257.44 475.75,-1256.66 473.72,-1263.58 466.55,-1264.36"/>
<text text-anchor="middle" x="486.5" y="-1300.4" font-family="Helvetica,sans-Serif" font-size="12.00"> &#45;total_edge_weights</text>
</g>
<!-- Node9&#45;&gt;Node8 -->
<g id="edge10" class="edge">
<title>Node9&#45;&gt;Node8</title>
<path fill="none" stroke="#404040" d="M358.48,-1328.14C367.3,-1275.26 387.04,-1164.12 411.5,-1072 415.9,-1055.45 421.13,-1038.01 426.5,-1021.2"/>
<polygon fill="none" stroke="#404040" points="426.53,-1021.1 424.57,-1014.16 430.23,-1009.68 432.19,-1016.62 426.53,-1021.1"/>
<text text-anchor="middle" x="439" y="-1172.4" font-family="Helvetica,sans-Serif" font-size="12.00"> &#45;_weight</text>
</g>
<!-- Node10&#45;&gt;Node3 -->
<g id="edge16" class="edge">
<title>Node10&#45;&gt;Node3</title>
<path fill="none" stroke="#404040" d="M407.23,-716.13C426.39,-698.1 450.21,-675.69 473.35,-653.92"/>
<polygon fill="none" stroke="#404040" points="473.43,-653.85 475.06,-646.82 482.17,-645.62 480.54,-652.65 473.43,-653.85"/>
<text text-anchor="middle" x="459" y="-688.4" font-family="Helvetica,sans-Serif" font-size="12.00"> &#45;edges</text>
</g>
<!-- Node10&#45;&gt;Node6 -->
<g id="edge13" class="edge">
<title>Node10&#45;&gt;Node6</title>
<path fill="none" stroke="#404040" d="M339.69,-792.7C330.41,-807.29 321.23,-824.68 316.5,-842 296.85,-914.03 274.71,-948.12 316.5,-1010 355.62,-1067.92 403.72,-1035.03 465.36,-1069.26"/>
<polygon fill="none" stroke="#404040" points="465.54,-1069.38 472.75,-1069.09 475.78,-1075.63 468.58,-1075.92 465.54,-1069.38"/>
<text text-anchor="middle" x="345.5" y="-922.9" font-family="Helvetica,sans-Serif" font-size="12.00"> +edgesV</text>
</g>
<!-- Node11 -->
<g id="node11" class="node">
<title>Node11</title>
<g id="a_node11"><a xlink:title="STL class.">
<polygon fill="none" stroke="#bfbfbf" points="343.5,-538.5 343.5,-601.5 435.5,-601.5 435.5,-538.5 343.5,-538.5"/>
<text text-anchor="middle" x="389.5" y="-587.9" font-family="Helvetica,sans-Serif" font-size="12.00">std::ifstream</text>
<polyline fill="none" stroke="#bfbfbf" points="343.5,-580.5 435.5,-580.5 "/>
<text text-anchor="middle" x="389.5" y="-566.9" font-family="Helvetica,sans-Serif" font-size="12.00"> </text>
<polyline fill="none" stroke="#bfbfbf" points="343.5,-559.5 435.5,-559.5 "/>
<text text-anchor="middle" x="389.5" y="-545.9" font-family="Helvetica,sans-Serif" font-size="12.00"> </text>
</a>
</g>
</g>
<!-- Node11&#45;&gt;Node2 -->
<g id="edge17" class="edge">
<title>Node11&#45;&gt;Node2</title>
<path fill="none" stroke="#404040" d="M397.73,-538.48C405.6,-509.31 417.88,-463.79 429,-422.54"/>
<polygon fill="none" stroke="#404040" points="429.06,-422.34 426.76,-415.5 432.18,-410.75 434.48,-417.58 429.06,-422.34"/>
<text text-anchor="middle" x="463.5" y="-438.9" font-family="Helvetica,sans-Serif" font-size="12.00"> &#45;datasetFile</text>
</g>
<!-- Node12 -->
<g id="node12" class="node">
<title>Node12</title>
<g id="a_node12"><a xlink:title="STL class.">
<polygon fill="none" stroke="#bfbfbf" points="152.5,-716.5 152.5,-792.5 280.5,-792.5 280.5,-716.5 152.5,-716.5"/>
<text text-anchor="start" x="160.5" y="-778.9" font-family="Helvetica,sans-Serif" font-size="12.00">std::basic_ifstream</text>
<text text-anchor="middle" x="216.5" y="-765.9" font-family="Helvetica,sans-Serif" font-size="12.00">&lt; char &gt;</text>
<polyline fill="none" stroke="#bfbfbf" points="152.5,-758.5 280.5,-758.5 "/>
<text text-anchor="middle" x="216.5" y="-744.9" font-family="Helvetica,sans-Serif" font-size="12.00"> </text>
<polyline fill="none" stroke="#bfbfbf" points="152.5,-737.5 280.5,-737.5 "/>
<text text-anchor="middle" x="216.5" y="-723.9" font-family="Helvetica,sans-Serif" font-size="12.00"> </text>
</a>
</g>
</g>
<!-- Node12&#45;&gt;Node11 -->
<g id="edge18" class="edge">
<title>Node12&#45;&gt;Node11</title>
<path fill="none" stroke="midnightblue" d="M258.89,-708.78C290.42,-675.52 332.64,-630.98 360.43,-601.67"/>
<polygon fill="none" stroke="midnightblue" points="256.27,-706.46 251.93,-716.13 261.35,-711.28 256.27,-706.46"/>
</g>
<!-- Node13 -->
<g id="node13" class="node">
<title>Node13</title>
<g id="a_node13"><a xlink:title="STL class.">
<polygon fill="none" stroke="#bfbfbf" points="147.5,-888 147.5,-964 271.5,-964 271.5,-888 147.5,-888"/>
<text text-anchor="start" x="155.5" y="-950.4" font-family="Helvetica,sans-Serif" font-size="12.00">std::basic_istream</text>
<text text-anchor="middle" x="209.5" y="-937.4" font-family="Helvetica,sans-Serif" font-size="12.00">&lt; Char &gt;</text>
<polyline fill="none" stroke="#bfbfbf" points="147.5,-930 271.5,-930 "/>
<text text-anchor="middle" x="209.5" y="-916.4" font-family="Helvetica,sans-Serif" font-size="12.00"> </text>
<polyline fill="none" stroke="#bfbfbf" points="147.5,-909 271.5,-909 "/>
<text text-anchor="middle" x="209.5" y="-895.4" font-family="Helvetica,sans-Serif" font-size="12.00"> </text>
</a>
</g>
</g>
<!-- Node13&#45;&gt;Node12 -->
<g id="edge19" class="edge">
<title>Node13&#45;&gt;Node12</title>
<path fill="none" stroke="midnightblue" d="M211.46,-877.47C212.57,-850.62 213.94,-817.54 214.97,-792.61"/>
<polygon fill="none" stroke="midnightblue" points="207.95,-877.67 211.04,-887.8 214.95,-877.96 207.95,-877.67"/>
</g>
<!-- Node14 -->
<g id="node14" class="node">
<title>Node14</title>
<g id="a_node14"><a xlink:title="STL class.">
<polygon fill="none" stroke="#bfbfbf" points="49,-1144 49,-1207 200,-1207 200,-1144 49,-1144"/>
<text text-anchor="middle" x="124.5" y="-1193.4" font-family="Helvetica,sans-Serif" font-size="12.00">std::basic_ios&lt; Char &gt;</text>
<polyline fill="none" stroke="#bfbfbf" points="49,-1186 200,-1186 "/>
<text text-anchor="middle" x="124.5" y="-1172.4" font-family="Helvetica,sans-Serif" font-size="12.00"> </text>
<polyline fill="none" stroke="#bfbfbf" points="49,-1165 200,-1165 "/>
<text text-anchor="middle" x="124.5" y="-1151.4" font-family="Helvetica,sans-Serif" font-size="12.00"> </text>
</a>
</g>
</g>
<!-- Node14&#45;&gt;Node13 -->
<g id="edge20" class="edge">
<title>Node14&#45;&gt;Node13</title>
<path fill="none" stroke="midnightblue" d="M138.29,-1134.36C154.43,-1087.36 180.94,-1010.16 196.66,-964.39"/>
<polygon fill="none" stroke="midnightblue" points="134.95,-1133.31 135.01,-1143.9 141.57,-1135.58 134.95,-1133.31"/>
</g>
<!-- Node18 -->
<g id="node18" class="node">
<title>Node18</title>
<g id="a_node18"><a xlink:title="STL class.">
<polygon fill="none" stroke="#bfbfbf" points="1.5,-888 1.5,-964 129.5,-964 129.5,-888 1.5,-888"/>
<text text-anchor="start" x="9.5" y="-950.4" font-family="Helvetica,sans-Serif" font-size="12.00">std::basic_ostream</text>
<text text-anchor="middle" x="65.5" y="-937.4" font-family="Helvetica,sans-Serif" font-size="12.00">&lt; Char &gt;</text>
<polyline fill="none" stroke="#bfbfbf" points="1.5,-930 129.5,-930 "/>
<text text-anchor="middle" x="65.5" y="-916.4" font-family="Helvetica,sans-Serif" font-size="12.00"> </text>
<polyline fill="none" stroke="#bfbfbf" points="1.5,-909 129.5,-909 "/>
<text text-anchor="middle" x="65.5" y="-895.4" font-family="Helvetica,sans-Serif" font-size="12.00"> </text>
</a>
</g>
</g>
<!-- Node14&#45;&gt;Node18 -->
<g id="edge25" class="edge">
<title>Node14&#45;&gt;Node18</title>
<path fill="none" stroke="midnightblue" d="M114.86,-1134.06C103.65,-1087.04 85.3,-1010.06 74.41,-964.39"/>
<polygon fill="none" stroke="midnightblue" points="111.48,-1134.99 117.21,-1143.9 118.29,-1133.36 111.48,-1134.99"/>
</g>
<!-- Node15 -->
<g id="node15" class="node">
<title>Node15</title>
<g id="a_node15"><a xlink:title="STL class.">
<polygon fill="none" stroke="#bfbfbf" points="78,-1328.5 78,-1391.5 171,-1391.5 171,-1328.5 78,-1328.5"/>
<text text-anchor="middle" x="124.5" y="-1377.9" font-family="Helvetica,sans-Serif" font-size="12.00">std::ios_base</text>
<polyline fill="none" stroke="#bfbfbf" points="78,-1370.5 171,-1370.5 "/>
<text text-anchor="middle" x="124.5" y="-1356.9" font-family="Helvetica,sans-Serif" font-size="12.00"> </text>
<polyline fill="none" stroke="#bfbfbf" points="78,-1349.5 171,-1349.5 "/>
<text text-anchor="middle" x="124.5" y="-1335.9" font-family="Helvetica,sans-Serif" font-size="12.00"> </text>
</a>
</g>
</g>
<!-- Node15&#45;&gt;Node14 -->
<g id="edge21" class="edge">
<title>Node15&#45;&gt;Node14</title>
<path fill="none" stroke="midnightblue" d="M124.5,-1318.04C124.5,-1284.43 124.5,-1237.58 124.5,-1207.15"/>
<polygon fill="none" stroke="midnightblue" points="121,-1318.45 124.5,-1328.45 128,-1318.45 121,-1318.45"/>
</g>
<!-- Node16 -->
<g id="node16" class="node">
<title>Node16</title>
<g id="a_node16"><a xlink:title="STL class.">
<polygon fill="none" stroke="#bfbfbf" points="170.5,-538.5 170.5,-601.5 266.5,-601.5 266.5,-538.5 170.5,-538.5"/>
<text text-anchor="middle" x="218.5" y="-587.9" font-family="Helvetica,sans-Serif" font-size="12.00">std::ofstream</text>
<polyline fill="none" stroke="#bfbfbf" points="170.5,-580.5 266.5,-580.5 "/>
<text text-anchor="middle" x="218.5" y="-566.9" font-family="Helvetica,sans-Serif" font-size="12.00"> </text>
<polyline fill="none" stroke="#bfbfbf" points="170.5,-559.5 266.5,-559.5 "/>
<text text-anchor="middle" x="218.5" y="-545.9" font-family="Helvetica,sans-Serif" font-size="12.00"> </text>
</a>
</g>
</g>
<!-- Node16&#45;&gt;Node2 -->
<g id="edge22" class="edge">
<title>Node16&#45;&gt;Node2</title>
<path fill="none" stroke="#404040" d="M238.33,-538.23C258.21,-508.57 290.65,-463.27 324.5,-429 331,-422.42 337.93,-415.9 345.08,-409.51"/>
<polygon fill="none" stroke="#404040" points="345.2,-409.4 347.08,-402.44 354.23,-401.51 352.35,-408.47 345.2,-409.4"/>
<text text-anchor="middle" x="371.5" y="-445.4" font-family="Helvetica,sans-Serif" font-size="12.00"> &#45;modelSavefile</text>
<text text-anchor="middle" x="371.5" y="-432.4" font-family="Helvetica,sans-Serif" font-size="12.00">&#45;outputFile</text>
</g>
<!-- Node17 -->
<g id="node17" class="node">
<title>Node17</title>
<g id="a_node17"><a xlink:title="STL class.">
<polygon fill="none" stroke="#bfbfbf" points="0,-716.5 0,-792.5 133,-792.5 133,-716.5 0,-716.5"/>
<text text-anchor="start" x="8" y="-778.9" font-family="Helvetica,sans-Serif" font-size="12.00">std::basic_ofstream</text>
<text text-anchor="middle" x="66.5" y="-765.9" font-family="Helvetica,sans-Serif" font-size="12.00">&lt; char &gt;</text>
<polyline fill="none" stroke="#bfbfbf" points="0,-758.5 133,-758.5 "/>
<text text-anchor="middle" x="66.5" y="-744.9" font-family="Helvetica,sans-Serif" font-size="12.00"> </text>
<polyline fill="none" stroke="#bfbfbf" points="0,-737.5 133,-737.5 "/>
<text text-anchor="middle" x="66.5" y="-723.9" font-family="Helvetica,sans-Serif" font-size="12.00"> </text>
</a>
</g>
</g>
<!-- Node17&#45;&gt;Node16 -->
<g id="edge23" class="edge">
<title>Node17&#45;&gt;Node16</title>
<path fill="none" stroke="midnightblue" d="M104.09,-708.36C131.76,-675.14 168.65,-630.86 192.96,-601.67"/>
<polygon fill="none" stroke="midnightblue" points="101.34,-706.2 97.63,-716.13 106.72,-710.68 101.34,-706.2"/>
</g>
<!-- Node18&#45;&gt;Node17 -->
<g id="edge24" class="edge">
<title>Node18&#45;&gt;Node17</title>
<path fill="none" stroke="midnightblue" d="M65.78,-877.47C65.94,-850.62 66.13,-817.54 66.28,-792.61"/>
<polygon fill="none" stroke="midnightblue" points="62.28,-877.78 65.72,-887.8 69.28,-877.82 62.28,-877.78"/>
</g>
<!-- Node19 -->
<g id="node19" class="node">
<title>Node19</title>
<g id="a_node19"><a xlink:title=" ">
<polygon fill="none" stroke="#bfbfbf" points="986.5,-295.5 986.5,-358.5 1018.5,-358.5 1018.5,-295.5 986.5,-295.5"/>
<text text-anchor="middle" x="1002.5" y="-344.9" font-family="Helvetica,sans-Serif" font-size="12.00">int</text>
<polyline fill="none" stroke="#bfbfbf" points="986.5,-337.5 1018.5,-337.5 "/>
<text text-anchor="middle" x="1002.5" y="-323.9" font-family="Helvetica,sans-Serif" font-size="12.00"> </text>
<polyline fill="none" stroke="#bfbfbf" points="986.5,-316.5 1018.5,-316.5 "/>
<text text-anchor="middle" x="1002.5" y="-302.9" font-family="Helvetica,sans-Serif" font-size="12.00"> </text>
</a>
</g>
</g>
<!-- Node19&#45;&gt;Node1 -->
<g id="edge27" class="edge">
<title>Node19&#45;&gt;Node1</title>
<path fill="none" stroke="#404040" d="M1000.63,-295.07C999.51,-275.09 998.17,-248.52 997.5,-225 997.2,-214.56 996.98,-203.67 996.81,-192.79"/>
<polygon fill="none" stroke="#404040" points="996.81,-192.55 992.73,-186.61 996.65,-180.55 1000.73,-186.5 996.81,-192.55"/>
<text text-anchor="middle" x="1054.5" y="-215.4" font-family="Helvetica,sans-Serif" font-size="12.00"> #matrixSize</text>
<text text-anchor="middle" x="1054.5" y="-202.4" font-family="Helvetica,sans-Serif" font-size="12.00">#totalEdgeWeights</text>
</g>
<!-- Node20 -->
<g id="node20" class="node">
<title>Node20</title>
<g id="a_node20"><a xlink:title=" ">
<polygon fill="none" stroke="#bfbfbf" points="1112.5,-295.5 1112.5,-358.5 1154.5,-358.5 1154.5,-295.5 1112.5,-295.5"/>
<text text-anchor="middle" x="1133.5" y="-344.9" font-family="Helvetica,sans-Serif" font-size="12.00">bool</text>
<polyline fill="none" stroke="#bfbfbf" points="1112.5,-337.5 1154.5,-337.5 "/>
<text text-anchor="middle" x="1133.5" y="-323.9" font-family="Helvetica,sans-Serif" font-size="12.00"> </text>
<polyline fill="none" stroke="#bfbfbf" points="1112.5,-316.5 1154.5,-316.5 "/>
<text text-anchor="middle" x="1133.5" y="-302.9" font-family="Helvetica,sans-Serif" font-size="12.00"> </text>
</a>
</g>
</g>
<!-- Node20&#45;&gt;Node1 -->
<g id="edge28" class="edge">
<title>Node20&#45;&gt;Node1</title>
<path fill="none" stroke="#404040" d="M1133.58,-295.5C1132.45,-268.6 1127.77,-229.12 1111.5,-199 1107.83,-192.21 1103.58,-185.62 1098.91,-179.25"/>
<polygon fill="none" stroke="#404040" points="1098.64,-178.91 1091.79,-176.64 1091.26,-169.45 1098.1,-171.72 1098.64,-178.91"/>
<text text-anchor="middle" x="1145.5" y="-208.9" font-family="Helvetica,sans-Serif" font-size="12.00"> #ready</text>
</g>
<!-- Node21 -->
<g id="node21" class="node">
<title>Node21</title>
<g id="a_node21"><a xlink:title=" ">
<polygon fill="none" stroke="#bfbfbf" points="1173,-295.5 1173,-358.5 1250,-358.5 1250,-295.5 1173,-295.5"/>
<text text-anchor="middle" x="1211.5" y="-344.9" font-family="Helvetica,sans-Serif" font-size="12.00">long int **</text>
<polyline fill="none" stroke="#bfbfbf" points="1173,-337.5 1250,-337.5 "/>
<text text-anchor="middle" x="1211.5" y="-323.9" font-family="Helvetica,sans-Serif" font-size="12.00"> </text>
<polyline fill="none" stroke="#bfbfbf" points="1173,-316.5 1250,-316.5 "/>
<text text-anchor="middle" x="1211.5" y="-302.9" font-family="Helvetica,sans-Serif" font-size="12.00"> </text>
</a>
</g>
</g>
<!-- Node21&#45;&gt;Node1 -->
<g id="edge29" class="edge">
<title>Node21&#45;&gt;Node1</title>
<path fill="none" stroke="#404040" d="M1208.61,-295.48C1204.64,-267.83 1195.31,-227.23 1173.5,-199 1154.58,-174.51 1128.37,-154.34 1101.92,-138.35"/>
<polygon fill="none" stroke="#404040" points="1101.75,-138.25 1094.55,-138.68 1091.39,-132.2 1098.58,-131.77 1101.75,-138.25"/>
<text text-anchor="middle" x="1229.5" y="-208.9" font-family="Helvetica,sans-Serif" font-size="12.00"> #valueMatrix</text>
</g>
</g>
</svg>
        <g id="navigator" transform="translate(0 0)" fill="#404254">
                <rect fill="#f2f5e9" fill-opacity="0.5" stroke="#606060" stroke-width=".5" x="0" y="0" width="60" height="60"/>
                <use id="zoomplus" xlink:href="#zoomPlus" x="17" y="9" onmousedown="handleZoom(evt,'in')"/>
                <use id="zoomminus" xlink:href="#zoomMin" x="42" y="9" onmousedown="handleZoom(evt,'out')"/>
                <use id="reset" xlink:href="#resetDef" x="30" y="36" onmousedown="handleReset()"/>
                <g id="arrowUp" xlink:href="#dirArrow" transform="translate(30 24)" onmousedown="handlePan(0,-1)">
                  <use xlink:href="#rim" fill="#404040">
                        <set attributeName="fill" to="#808080" begin="arrowUp.mouseover" end="arrowUp.mouseout"/>
                  </use>
                  <path fill="none" stroke="white" stroke-width="1.5" d="M0,-3.0v7 M-2.5,-0.5L0,-3.0L2.5,-0.5"/>
                </g>
                <g id="arrowRight" xlink:href="#dirArrow" transform="rotate(90) translate(36 -43)" onmousedown="handlePan(1,0)">
                  <use xlink:href="#rim" fill="#404040">
                        <set attributeName="fill" to="#808080" begin="arrowRight.mouseover" end="arrowRight.mouseout"/>
                  </use>
                  <path fill="none" stroke="white" stroke-width="1.5" d="M0,-3.0v7 M-2.5,-0.5L0,-3.0L2.5,-0.5"/>
                </g>
                <g id="arrowDown" xlink:href="#dirArrow" transform="rotate(180) translate(-30 -48)" onmousedown="handlePan(0,1)">
                  <use xlink:href="#rim" fill="#404040">
                        <set attributeName="fill" to="#808080" begin="arrowDown.mouseover" end="arrowDown.mouseout"/>
                  </use>
                  <path fill="none" stroke="white" stroke-width="1.5" d="M0,-3.0v7 M-2.5,-0.5L0,-3.0L2.5,-0.5"/>
                </g>
                <g id="arrowLeft" xlink:href="#dirArrow" transform="rotate(270) translate(-36 17)" onmousedown="handlePan(-1,0)">
                  <use xlink:href="#rim" fill="#404040">
                        <set attributeName="fill" to="#808080" begin="arrowLeft.mouseover" end="arrowLeft.mouseout"/>
                  </use>
                  <path fill="none" stroke="white" stroke-width="1.5" d="M0,-3.0v7 M-2.5,-0.5L0,-3.0L2.5,-0.5"/>
                </g>
        </g>
        <svg viewBox="0 0 15 15" width="100%" height="30px" preserveAspectRatio="xMaxYMin meet">
         <g id="arrow_out" transform="scale(0.3 0.3)">
          <a xlink:href="class_markov_1_1_a_p_i_1_1_model_matrix__coll__graph_org.svg" target="_base">
           <rect id="button" ry="5" rx="5" y="6" x="6" height="38" width="38"
                fill="#f2f5e9" fill-opacity="0.5" stroke="#606060" stroke-width="1.0"/>
           <path id="arrow"
             d="M 11.500037,31.436501 C 11.940474,20.09759 22.043105,11.32322 32.158766,21.979434 L 37.068811,17.246167 C 37.068811,17.246167 37.088388,32 37.088388,32 L 22.160133,31.978069 C 22.160133,31.978069 26.997745,27.140456 26.997745,27.140456 C 18.528582,18.264221 13.291696,25.230495 11.500037,31.436501 z"
             style="fill:#404040;"/>
          </a>
         </g>
        </svg>
</svg>
