<?xml version="1.0" encoding="UTF-8" standalone="no"?>
<!DOCTYPE svg PUBLIC "-//W3C//DTD SVG 1.1//EN"
 "http://www.w3.org/Graphics/SVG/1.1/DTD/svg11.dtd">
<!-- Generated by graphviz version 2.43.0 (0)
 -->
<!-- Title: base.BaseCLI.add_arguments Pages: 1 -->
<svg width="418pt" height="70pt"
 viewBox="0.00 0.00 418.00 70.00" xmlns="http://www.w3.org/2000/svg" xmlns:xlink="http://www.w3.org/1999/xlink">
<g id="graph0" class="graph" transform="scale(1 1) rotate(0) translate(4 66)">
<title>base.BaseCLI.add_arguments</title>
<!-- Node1 -->
<g id="node1" class="node">
<title>Node1</title>
<g id="a_node1"><a xlink:title=" ">
<polygon fill="#bfbfbf" stroke="black" points="216,-20.5 216,-41.5 410,-41.5 410,-20.5 216,-20.5"/>
<text text-anchor="middle" x="313" y="-27.9" font-family="Helvetica,sans-Serif" font-size="12.00">base.BaseCLI.add_arguments</text>
</a>
</g>
</g>
<!-- Node2 -->
<g id="node2" class="node">
<title>Node2</title>
<g id="a_node2"><a xlink:href="classbase_1_1_base_c_l_i.html#a5f12b66168de1b9393ab69b663ab32a1" target="_top" xlink:title=" ">
<polygon fill="none" stroke="black" points="23,-40.5 23,-61.5 157,-61.5 157,-40.5 23,-40.5"/>
<text text-anchor="middle" x="90" y="-47.9" font-family="Helvetica,sans-Serif" font-size="12.00">base.BaseCLI.parse</text>
</a>
</g>
</g>
<!-- Node1&#45;&gt;Node2 -->
<g id="edge1" class="edge">
<title>Node1&#45;&gt;Node2</title>
<path fill="none" stroke="midnightblue" d="M205.47,-40.64C188.98,-42.13 172.38,-43.64 157.12,-45.02"/>
<polygon fill="midnightblue" stroke="midnightblue" points="206.07,-44.1 215.71,-39.71 205.43,-37.13 206.07,-44.1"/>
</g>
<!-- Node3 -->
<g id="node3" class="node">
<title>Node3</title>
<g id="a_node3"><a xlink:href="classmarkopy_1_1_markopy_c_l_i.html#a7a8c5f443dfed60a0c6fe8b41ea1d345" target="_top" xlink:title=" ">
<polygon fill="none" stroke="black" points="0,-0.5 0,-21.5 180,-21.5 180,-0.5 0,-0.5"/>
<text text-anchor="middle" x="90" y="-7.9" font-family="Helvetica,sans-Serif" font-size="12.00">markopy.MarkopyCLI.parse</text>
</a>
</g>
</g>
<!-- Node1&#45;&gt;Node3 -->
<g id="edge2" class="edge">
<title>Node1&#45;&gt;Node3</title>
<path fill="none" stroke="midnightblue" d="M205.66,-21.38C197.07,-20.6 188.45,-19.82 180.01,-19.06"/>
<polygon fill="midnightblue" stroke="midnightblue" points="205.43,-24.87 215.71,-22.29 206.07,-17.9 205.43,-24.87"/>
</g>
</g>
</svg>
