<?xml version="1.0" encoding="UTF-8" standalone="no"?>
<!DOCTYPE svg PUBLIC "-//W3C//DTD SVG 1.1//EN"
 "http://www.w3.org/Graphics/SVG/1.1/DTD/svg11.dtd">
<!-- Generated by graphviz version 2.43.0 (0)
 -->
<!-- Title: Markov::API::ModelMatrix Pages: 1 -->
<!--zoomable 2219 -->
<svg id="main" version="1.1" xmlns="http://www.w3.org/2000/svg" xmlns:xlink="http://www.w3.org/1999/xlink" xml:space="preserve" onload="init(evt)">
<style type="text/css"><![CDATA[
.edge:hover path { stroke: red; }
.edge:hover polygon { stroke: red; fill: red; }
]]></style>
<script type="text/javascript"><![CDATA[
var edges = document.getElementsByTagName('g');
if (edges && edges.length) {
  for (var i=0;i<edges.length;i++) {
    if (edges[i].id.substr(0,4)=='edge') {
      edges[i].setAttribute('class','edge');
    }
  }
}
]]></script>
        <defs>
                <circle id="rim" cx="0" cy="0" r="7"/>
                <circle id="rim2" cx="0" cy="0" r="3.5"/>
                <g id="zoomPlus">
                        <use xlink:href="#rim" fill="#404040">
                                <set attributeName="fill" to="#808080" begin="zoomplus.mouseover" end="zoomplus.mouseout"/>
                        </use>
                        <path d="M-4,0h8M0,-4v8" fill="none" stroke="white" stroke-width="1.5" pointer-events="none"/>
                </g>
                <g id="zoomMin">
                        <use xlink:href="#rim" fill="#404040">
                                <set attributeName="fill" to="#808080" begin="zoomminus.mouseover" end="zoomminus.mouseout"/>
                        </use>
                        <path d="M-4,0h8" fill="none" stroke="white" stroke-width="1.5" pointer-events="none"/>
                </g>
                <g id="dirArrow">
                        <path fill="none" stroke="white" stroke-width="1.5" d="M0,-3.0v7 M-2.5,-0.5L0,-3.0L2.5,-0.5"/>
                </g>
               <g id="resetDef">
                       <use xlink:href="#rim2" fill="#404040">
                               <set attributeName="fill" to="#808080" begin="reset.mouseover" end="reset.mouseout"/>
                       </use>
               </g>
        </defs>

<script type="text/javascript">
var viewWidth = 1242;
var viewHeight = 2219;
var sectionId = 'dynsection-1';
</script>
<script xlink:href="svgpan.js"/>
<svg id="graph" class="graph">
<g id="viewport">
<title>Markov::API::ModelMatrix</title>
<!-- Node1 -->
<g id="node1" class="node">
<title>Node1</title>
<g id="a_node1"><a xlink:title="Class to flatten and reduce Markov::Model to a Matrix.">
<polygon fill="#bfbfbf" stroke="black" points="919,-0.5 919,-440.5 1173,-440.5 1173,-0.5 919,-0.5"/>
<text text-anchor="middle" x="1046" y="-426.9" font-family="Helvetica,sans-Serif" font-size="12.00">Markov::API::ModelMatrix</text>
<polyline fill="none" stroke="black" points="919,-419.5 1173,-419.5 "/>
<text text-anchor="middle" x="1046" y="-405.9" font-family="Helvetica,sans-Serif" font-size="12.00"> </text>
<polyline fill="none" stroke="black" points="919,-398.5 1173,-398.5 "/>
<text text-anchor="start" x="927" y="-384.9" font-family="Helvetica,sans-Serif" font-size="12.00">+ ModelMatrix()</text>
<text text-anchor="start" x="927" y="-371.9" font-family="Helvetica,sans-Serif" font-size="12.00">+ bool ConstructMatrix()</text>
<text text-anchor="start" x="927" y="-358.9" font-family="Helvetica,sans-Serif" font-size="12.00">+ void DumpJSON()</text>
<text text-anchor="start" x="927" y="-345.9" font-family="Helvetica,sans-Serif" font-size="12.00">+ int FastRandomWalk</text>
<text text-anchor="start" x="927" y="-332.9" font-family="Helvetica,sans-Serif" font-size="12.00">(unsigned long int n,</text>
<text text-anchor="start" x="927" y="-319.9" font-family="Helvetica,sans-Serif" font-size="12.00"> const char *wordlistFileName,</text>
<text text-anchor="start" x="927" y="-306.9" font-family="Helvetica,sans-Serif" font-size="12.00"> int minLen=6, int maxLen</text>
<text text-anchor="start" x="927" y="-293.9" font-family="Helvetica,sans-Serif" font-size="12.00">=12, int threads=20, bool bFileIO=true)</text>
<text text-anchor="start" x="927" y="-280.9" font-family="Helvetica,sans-Serif" font-size="12.00">+ void Import(const char</text>
<text text-anchor="start" x="927" y="-267.9" font-family="Helvetica,sans-Serif" font-size="12.00"> *filename)</text>
<text text-anchor="start" x="927" y="-254.9" font-family="Helvetica,sans-Serif" font-size="12.00">+ void Train(const char</text>
<text text-anchor="start" x="927" y="-241.9" font-family="Helvetica,sans-Serif" font-size="12.00"> *datasetFileName, char</text>
<text text-anchor="start" x="927" y="-228.9" font-family="Helvetica,sans-Serif" font-size="12.00"> delimiter, int threads)</text>
<text text-anchor="start" x="927" y="-215.9" font-family="Helvetica,sans-Serif" font-size="12.00"># int FastRandomWalk</text>
<text text-anchor="start" x="927" y="-202.9" font-family="Helvetica,sans-Serif" font-size="12.00">(unsigned long int n,</text>
<text text-anchor="start" x="927" y="-189.9" font-family="Helvetica,sans-Serif" font-size="12.00"> std::ofstream *wordlist,</text>
<text text-anchor="start" x="927" y="-176.9" font-family="Helvetica,sans-Serif" font-size="12.00"> int minLen=6, int maxLen</text>
<text text-anchor="start" x="927" y="-163.9" font-family="Helvetica,sans-Serif" font-size="12.00">=12, int threads=20, bool</text>
<text text-anchor="start" x="927" y="-150.9" font-family="Helvetica,sans-Serif" font-size="12.00"> bFileIO=true)</text>
<text text-anchor="start" x="927" y="-137.9" font-family="Helvetica,sans-Serif" font-size="12.00"># void FastRandomWalkPartition</text>
<text text-anchor="start" x="927" y="-124.9" font-family="Helvetica,sans-Serif" font-size="12.00">(std::mutex *mlock, std::</text>
<text text-anchor="start" x="927" y="-111.9" font-family="Helvetica,sans-Serif" font-size="12.00">ofstream *wordlist, unsigned</text>
<text text-anchor="start" x="927" y="-98.9" font-family="Helvetica,sans-Serif" font-size="12.00"> long int n, int minLen, int</text>
<text text-anchor="start" x="927" y="-85.9" font-family="Helvetica,sans-Serif" font-size="12.00"> maxLen, bool bFileIO, int threads)</text>
<text text-anchor="start" x="927" y="-72.9" font-family="Helvetica,sans-Serif" font-size="12.00"># void FastRandomWalkThread</text>
<text text-anchor="start" x="927" y="-59.9" font-family="Helvetica,sans-Serif" font-size="12.00">(std::mutex *mlock, std</text>
<text text-anchor="start" x="927" y="-46.9" font-family="Helvetica,sans-Serif" font-size="12.00">::ofstream *wordlist, unsigned</text>
<text text-anchor="start" x="927" y="-33.9" font-family="Helvetica,sans-Serif" font-size="12.00"> long int n, int minLen, int</text>
<text text-anchor="start" x="927" y="-20.9" font-family="Helvetica,sans-Serif" font-size="12.00"> maxLen, int id, bool bFileIO)</text>
<text text-anchor="start" x="927" y="-7.9" font-family="Helvetica,sans-Serif" font-size="12.00"># bool DeallocateMatrix()</text>
</a>
</g>
</g>
<!-- Node2 -->
<g id="node2" class="node">
<title>Node2</title>
<g id="a_node2"><a xlink:href="class_markov_1_1_a_p_i_1_1_markov_passwords.html" target="_top" xlink:title="Markov::Model with char represented nodes.">
<polygon fill="none" stroke="black" points="317.5,-516.5 317.5,-930.5 612.5,-930.5 612.5,-516.5 317.5,-516.5"/>
<text text-anchor="middle" x="465" y="-916.9" font-family="Helvetica,sans-Serif" font-size="12.00">Markov::API::MarkovPasswords</text>
<polyline fill="none" stroke="black" points="317.5,-909.5 612.5,-909.5 "/>
<text text-anchor="middle" x="465" y="-895.9" font-family="Helvetica,sans-Serif" font-size="12.00"> </text>
<polyline fill="none" stroke="black" points="317.5,-888.5 612.5,-888.5 "/>
<text text-anchor="start" x="325.5" y="-874.9" font-family="Helvetica,sans-Serif" font-size="12.00">+ MarkovPasswords()</text>
<text text-anchor="start" x="325.5" y="-861.9" font-family="Helvetica,sans-Serif" font-size="12.00">+ MarkovPasswords(const</text>
<text text-anchor="start" x="325.5" y="-848.9" font-family="Helvetica,sans-Serif" font-size="12.00"> char *filename)</text>
<text text-anchor="start" x="325.5" y="-835.9" font-family="Helvetica,sans-Serif" font-size="12.00">+ std::ifstream * OpenDataset</text>
<text text-anchor="start" x="325.5" y="-822.9" font-family="Helvetica,sans-Serif" font-size="12.00">File(const char *filename)</text>
<text text-anchor="start" x="325.5" y="-809.9" font-family="Helvetica,sans-Serif" font-size="12.00">+ void Train(const char</text>
<text text-anchor="start" x="325.5" y="-796.9" font-family="Helvetica,sans-Serif" font-size="12.00"> *datasetFileName, char</text>
<text text-anchor="start" x="325.5" y="-783.9" font-family="Helvetica,sans-Serif" font-size="12.00"> delimiter, int threads)</text>
<text text-anchor="start" x="325.5" y="-770.9" font-family="Helvetica,sans-Serif" font-size="12.00">+ std::ofstream * Save</text>
<text text-anchor="start" x="325.5" y="-757.9" font-family="Helvetica,sans-Serif" font-size="12.00">(const char *filename)</text>
<text text-anchor="start" x="325.5" y="-744.9" font-family="Helvetica,sans-Serif" font-size="12.00">+ void Generate(unsigned</text>
<text text-anchor="start" x="325.5" y="-731.9" font-family="Helvetica,sans-Serif" font-size="12.00"> long int n, const char</text>
<text text-anchor="start" x="325.5" y="-718.9" font-family="Helvetica,sans-Serif" font-size="12.00"> *wordlistFileName, int</text>
<text text-anchor="start" x="325.5" y="-705.9" font-family="Helvetica,sans-Serif" font-size="12.00"> minLen=6, int maxLen=12,</text>
<text text-anchor="start" x="325.5" y="-692.9" font-family="Helvetica,sans-Serif" font-size="12.00"> int threads=20)</text>
<text text-anchor="start" x="325.5" y="-679.9" font-family="Helvetica,sans-Serif" font-size="12.00">+ void Buff(const char</text>
<text text-anchor="start" x="325.5" y="-666.9" font-family="Helvetica,sans-Serif" font-size="12.00"> *str, double multiplier,</text>
<text text-anchor="start" x="325.5" y="-653.9" font-family="Helvetica,sans-Serif" font-size="12.00"> bool bDontAdjustSelfLoops</text>
<text text-anchor="start" x="325.5" y="-640.9" font-family="Helvetica,sans-Serif" font-size="12.00">=true, bool bDontAdjustExtendedLoops=false)</text>
<text text-anchor="start" x="325.5" y="-627.9" font-family="Helvetica,sans-Serif" font-size="12.00">&#45; void TrainThread(Markov</text>
<text text-anchor="start" x="325.5" y="-614.9" font-family="Helvetica,sans-Serif" font-size="12.00">::API::Concurrency::ThreadShared</text>
<text text-anchor="start" x="325.5" y="-601.9" font-family="Helvetica,sans-Serif" font-size="12.00">ListHandler *listhandler, char</text>
<text text-anchor="start" x="325.5" y="-588.9" font-family="Helvetica,sans-Serif" font-size="12.00"> delimiter)</text>
<text text-anchor="start" x="325.5" y="-575.9" font-family="Helvetica,sans-Serif" font-size="12.00">&#45; void GenerateThread</text>
<text text-anchor="start" x="325.5" y="-562.9" font-family="Helvetica,sans-Serif" font-size="12.00">(std::mutex *outputLock,</text>
<text text-anchor="start" x="325.5" y="-549.9" font-family="Helvetica,sans-Serif" font-size="12.00"> unsigned long int n, std</text>
<text text-anchor="start" x="325.5" y="-536.9" font-family="Helvetica,sans-Serif" font-size="12.00">::ofstream *wordlist, int</text>
<text text-anchor="start" x="325.5" y="-523.9" font-family="Helvetica,sans-Serif" font-size="12.00"> minLen, int maxLen)</text>
</a>
</g>
</g>
<!-- Node2&#45;&gt;Node1 -->
<g id="edge1" class="edge">
<title>Node2&#45;&gt;Node1</title>
<path fill="none" stroke="midnightblue" d="M620.55,-588.37C713.82,-507.94 830.95,-406.94 918.69,-331.28"/>
<polygon fill="none" stroke="midnightblue" points="618.03,-585.92 612.74,-595.1 622.6,-591.22 618.03,-585.92"/>
</g>
<!-- Node3 -->
<g id="node3" class="node">
<title>Node3</title>
<g id="a_node3"><a xlink:href="class_markov_1_1_model.html" target="_top" xlink:title=" ">
<polygon fill="none" stroke="black" points="491,-993.5 491,-1303.5 703,-1303.5 703,-993.5 491,-993.5"/>
<text text-anchor="middle" x="597" y="-1289.9" font-family="Helvetica,sans-Serif" font-size="12.00">Markov::Model&lt; char &gt;</text>
<polyline fill="none" stroke="black" points="491,-1282.5 703,-1282.5 "/>
<text text-anchor="middle" x="597" y="-1268.9" font-family="Helvetica,sans-Serif" font-size="12.00"> </text>
<polyline fill="none" stroke="black" points="491,-1261.5 703,-1261.5 "/>
<text text-anchor="start" x="499" y="-1247.9" font-family="Helvetica,sans-Serif" font-size="12.00">+ Model()</text>
<text text-anchor="start" x="499" y="-1234.9" font-family="Helvetica,sans-Serif" font-size="12.00">+ char * RandomWalk(Markov</text>
<text text-anchor="start" x="499" y="-1221.9" font-family="Helvetica,sans-Serif" font-size="12.00">::Random::RandomEngine</text>
<text text-anchor="start" x="499" y="-1208.9" font-family="Helvetica,sans-Serif" font-size="12.00"> *randomEngine, int minSetting,</text>
<text text-anchor="start" x="499" y="-1195.9" font-family="Helvetica,sans-Serif" font-size="12.00"> int maxSetting, char *buffer)</text>
<text text-anchor="start" x="499" y="-1182.9" font-family="Helvetica,sans-Serif" font-size="12.00">+ void AdjustEdge(const</text>
<text text-anchor="start" x="499" y="-1169.9" font-family="Helvetica,sans-Serif" font-size="12.00"> char *payload, long</text>
<text text-anchor="start" x="499" y="-1156.9" font-family="Helvetica,sans-Serif" font-size="12.00"> int occurrence)</text>
<text text-anchor="start" x="499" y="-1143.9" font-family="Helvetica,sans-Serif" font-size="12.00">+ bool Import(std::ifstream *)</text>
<text text-anchor="start" x="499" y="-1130.9" font-family="Helvetica,sans-Serif" font-size="12.00">+ bool Import(const char</text>
<text text-anchor="start" x="499" y="-1117.9" font-family="Helvetica,sans-Serif" font-size="12.00"> *filename)</text>
<text text-anchor="start" x="499" y="-1104.9" font-family="Helvetica,sans-Serif" font-size="12.00">+ bool Export(std::ofstream *)</text>
<text text-anchor="start" x="499" y="-1091.9" font-family="Helvetica,sans-Serif" font-size="12.00">+ bool Export(const char</text>
<text text-anchor="start" x="499" y="-1078.9" font-family="Helvetica,sans-Serif" font-size="12.00"> *filename)</text>
<text text-anchor="start" x="499" y="-1065.9" font-family="Helvetica,sans-Serif" font-size="12.00">+ Node&lt; char &gt; * StarterNode()</text>
<text text-anchor="start" x="499" y="-1052.9" font-family="Helvetica,sans-Serif" font-size="12.00">+ std::vector&lt; Edge&lt;</text>
<text text-anchor="start" x="499" y="-1039.9" font-family="Helvetica,sans-Serif" font-size="12.00"> char &gt; * &gt; * Edges()</text>
<text text-anchor="start" x="499" y="-1026.9" font-family="Helvetica,sans-Serif" font-size="12.00">+ std::map&lt; char, Node</text>
<text text-anchor="start" x="499" y="-1013.9" font-family="Helvetica,sans-Serif" font-size="12.00">&lt; char &gt; * &gt; * Nodes()</text>
<text text-anchor="start" x="499" y="-1000.9" font-family="Helvetica,sans-Serif" font-size="12.00">+ void OptimizeEdgeOrder()</text>
</a>
</g>
</g>
<!-- Node3&#45;&gt;Node2 -->
<g id="edge2" class="edge">
<title>Node3&#45;&gt;Node2</title>
<path fill="none" stroke="midnightblue" d="M545.87,-983.66C540.44,-966.25 534.86,-948.37 529.3,-930.55"/>
<polygon fill="none" stroke="midnightblue" points="542.56,-984.79 548.88,-993.29 549.24,-982.7 542.56,-984.79"/>
</g>
<!-- Node4 -->
<g id="node4" class="node">
<title>Node4</title>
<g id="a_node4"><a xlink:title=" ">
<polygon fill="none" stroke="#bfbfbf" points="837.5,-1557.5 837.5,-1633.5 998.5,-1633.5 998.5,-1557.5 837.5,-1557.5"/>
<text text-anchor="start" x="845.5" y="-1619.9" font-family="Helvetica,sans-Serif" font-size="12.00">std::map&lt; char, Markov</text>
<text text-anchor="middle" x="918" y="-1606.9" font-family="Helvetica,sans-Serif" font-size="12.00">::Node&lt; char &gt; * &gt;</text>
<polyline fill="none" stroke="#bfbfbf" points="837.5,-1599.5 998.5,-1599.5 "/>
<text text-anchor="middle" x="918" y="-1585.9" font-family="Helvetica,sans-Serif" font-size="12.00"> </text>
<polyline fill="none" stroke="#bfbfbf" points="837.5,-1578.5 998.5,-1578.5 "/>
<text text-anchor="middle" x="918" y="-1564.9" font-family="Helvetica,sans-Serif" font-size="12.00"> </text>
</a>
</g>
</g>
<!-- Node4&#45;&gt;Node3 -->
<g id="edge3" class="edge">
<title>Node4&#45;&gt;Node3</title>
<path fill="none" stroke="#404040" d="M894.92,-1557.28C876.11,-1527.37 848.59,-1484.48 823,-1448 787.48,-1397.36 747.14,-1343.13 710.48,-1294.97"/>
<polygon fill="none" stroke="#404040" points="710.47,-1294.96 703.65,-1292.61 703.19,-1285.42 710.01,-1287.76 710.47,-1294.96"/>
<text text-anchor="middle" x="833.5" y="-1388.4" font-family="Helvetica,sans-Serif" font-size="12.00"> &#45;nodes</text>
</g>
<!-- Node5 -->
<g id="node5" class="node">
<title>Node5</title>
<g id="a_node5"><a xlink:title=" ">
<polygon fill="none" stroke="#bfbfbf" points="841,-2147.5 841,-2210.5 885,-2210.5 885,-2147.5 841,-2147.5"/>
<text text-anchor="middle" x="863" y="-2196.9" font-family="Helvetica,sans-Serif" font-size="12.00">char</text>
<polyline fill="none" stroke="#bfbfbf" points="841,-2189.5 885,-2189.5 "/>
<text text-anchor="middle" x="863" y="-2175.9" font-family="Helvetica,sans-Serif" font-size="12.00"> </text>
<polyline fill="none" stroke="#bfbfbf" points="841,-2168.5 885,-2168.5 "/>
<text text-anchor="middle" x="863" y="-2154.9" font-family="Helvetica,sans-Serif" font-size="12.00"> </text>
</a>
</g>
</g>
<!-- Node5&#45;&gt;Node1 -->
<g id="edge26" class="edge">
<title>Node5&#45;&gt;Node1</title>
<path fill="none" stroke="#404040" d="M885.12,-2161.38C929.88,-2125.67 1027,-2036.7 1027,-1937 1027,-1937 1027,-1937 1027,-722.5 1027,-634.37 1029.97,-537.58 1033.57,-452.76"/>
<polygon fill="none" stroke="#404040" points="1033.57,-452.6 1029.83,-446.43 1034.09,-440.61 1037.83,-446.77 1033.57,-452.6"/>
<text text-anchor="middle" x="1068" y="-1394.9" font-family="Helvetica,sans-Serif" font-size="12.00"> #edgeMatrix</text>
<text text-anchor="middle" x="1068" y="-1381.9" font-family="Helvetica,sans-Serif" font-size="12.00">#matrixIndex</text>
</g>
<!-- Node5&#45;&gt;Node4 -->
<g id="edge4" class="edge">
<title>Node5&#45;&gt;Node4</title>
<path fill="none" stroke="#404040" d="M865.92,-2147.15C874.93,-2051.88 902.36,-1761.83 913.36,-1645.52"/>
<polygon fill="none" stroke="#404040" points="913.37,-1645.46 909.95,-1639.11 914.5,-1633.51 917.92,-1639.86 913.37,-1645.46"/>
<text text-anchor="middle" x="921.5" y="-1932.9" font-family="Helvetica,sans-Serif" font-size="12.00"> +keys</text>
</g>
<!-- Node6 -->
<g id="node6" class="node">
<title>Node6</title>
<g id="a_node6"><a xlink:href="class_markov_1_1_node.html" target="_top" xlink:title=" ">
<polygon fill="none" stroke="black" points="529.5,-1774.5 529.5,-2097.5 750.5,-2097.5 750.5,-1774.5 529.5,-1774.5"/>
<text text-anchor="middle" x="640" y="-2083.9" font-family="Helvetica,sans-Serif" font-size="12.00">Markov::Node&lt; char &gt;</text>
<polyline fill="none" stroke="black" points="529.5,-2076.5 750.5,-2076.5 "/>
<text text-anchor="middle" x="640" y="-2062.9" font-family="Helvetica,sans-Serif" font-size="12.00"> </text>
<polyline fill="none" stroke="black" points="529.5,-2055.5 750.5,-2055.5 "/>
<text text-anchor="start" x="537.5" y="-2041.9" font-family="Helvetica,sans-Serif" font-size="12.00">+ Node()</text>
<text text-anchor="start" x="537.5" y="-2028.9" font-family="Helvetica,sans-Serif" font-size="12.00">+ Node(char _value)</text>
<text text-anchor="start" x="537.5" y="-2015.9" font-family="Helvetica,sans-Serif" font-size="12.00">+ Edge&lt; char &gt; * Link</text>
<text text-anchor="start" x="537.5" y="-2002.9" font-family="Helvetica,sans-Serif" font-size="12.00">(Node&lt; char &gt; *)</text>
<text text-anchor="start" x="537.5" y="-1989.9" font-family="Helvetica,sans-Serif" font-size="12.00">+ Edge&lt; char &gt; * Link</text>
<text text-anchor="start" x="537.5" y="-1976.9" font-family="Helvetica,sans-Serif" font-size="12.00">(Edge&lt; char &gt; *)</text>
<text text-anchor="start" x="537.5" y="-1963.9" font-family="Helvetica,sans-Serif" font-size="12.00">+ Node&lt; char &gt; * RandomNext</text>
<text text-anchor="start" x="537.5" y="-1950.9" font-family="Helvetica,sans-Serif" font-size="12.00">(Markov::Random::RandomEngine</text>
<text text-anchor="start" x="537.5" y="-1937.9" font-family="Helvetica,sans-Serif" font-size="12.00"> *randomEngine)</text>
<text text-anchor="start" x="537.5" y="-1924.9" font-family="Helvetica,sans-Serif" font-size="12.00">+ bool UpdateEdges(Edge</text>
<text text-anchor="start" x="537.5" y="-1911.9" font-family="Helvetica,sans-Serif" font-size="12.00">&lt; char &gt; *)</text>
<text text-anchor="start" x="537.5" y="-1898.9" font-family="Helvetica,sans-Serif" font-size="12.00">+ Edge&lt; char &gt; * FindEdge</text>
<text text-anchor="start" x="537.5" y="-1885.9" font-family="Helvetica,sans-Serif" font-size="12.00">(char repr)</text>
<text text-anchor="start" x="537.5" y="-1872.9" font-family="Helvetica,sans-Serif" font-size="12.00">+ Edge&lt; char &gt; * FindEdge</text>
<text text-anchor="start" x="537.5" y="-1859.9" font-family="Helvetica,sans-Serif" font-size="12.00">(Node&lt; char &gt; *target)</text>
<text text-anchor="start" x="537.5" y="-1846.9" font-family="Helvetica,sans-Serif" font-size="12.00">+ unsigned char NodeValue()</text>
<text text-anchor="start" x="537.5" y="-1833.9" font-family="Helvetica,sans-Serif" font-size="12.00">+ void UpdateTotalVerticeWeight</text>
<text text-anchor="start" x="537.5" y="-1820.9" font-family="Helvetica,sans-Serif" font-size="12.00">(long int offset)</text>
<text text-anchor="start" x="537.5" y="-1807.9" font-family="Helvetica,sans-Serif" font-size="12.00">+ std::map&lt; char, Edge</text>
<text text-anchor="start" x="537.5" y="-1794.9" font-family="Helvetica,sans-Serif" font-size="12.00">&lt; char &gt; * &gt; * Edges()</text>
<text text-anchor="start" x="537.5" y="-1781.9" font-family="Helvetica,sans-Serif" font-size="12.00">+ long int TotalEdgeWeights()</text>
</a>
</g>
</g>
<!-- Node5&#45;&gt;Node6 -->
<g id="edge6" class="edge">
<title>Node5&#45;&gt;Node6</title>
<path fill="none" stroke="#404040" d="M840.62,-2171.32C818.44,-2163.83 784.46,-2149.92 761,-2129 753.39,-2122.22 746.08,-2114.84 739.09,-2107.06"/>
<polygon fill="none" stroke="#404040" points="738.89,-2106.83 731.94,-2104.92 731.04,-2097.76 737.99,-2099.68 738.89,-2106.83"/>
<text text-anchor="middle" x="784.5" y="-2119.4" font-family="Helvetica,sans-Serif" font-size="12.00"> &#45;_value</text>
</g>
<!-- Node7 -->
<g id="node7" class="node">
<title>Node7</title>
<g id="a_node7"><a xlink:title=" ">
<polygon fill="none" stroke="#bfbfbf" points="523.5,-1353.5 523.5,-1429.5 684.5,-1429.5 684.5,-1353.5 523.5,-1353.5"/>
<text text-anchor="start" x="531.5" y="-1415.9" font-family="Helvetica,sans-Serif" font-size="12.00">std::map&lt; char, Markov</text>
<text text-anchor="middle" x="604" y="-1402.9" font-family="Helvetica,sans-Serif" font-size="12.00">::Edge&lt; char &gt; * &gt;</text>
<polyline fill="none" stroke="#bfbfbf" points="523.5,-1395.5 684.5,-1395.5 "/>
<text text-anchor="middle" x="604" y="-1381.9" font-family="Helvetica,sans-Serif" font-size="12.00"> </text>
<polyline fill="none" stroke="#bfbfbf" points="523.5,-1374.5 684.5,-1374.5 "/>
<text text-anchor="middle" x="604" y="-1360.9" font-family="Helvetica,sans-Serif" font-size="12.00"> </text>
</a>
</g>
</g>
<!-- Node5&#45;&gt;Node7 -->
<g id="edge8" class="edge">
<title>Node5&#45;&gt;Node7</title>
<path fill="none" stroke="#404040" d="M860.61,-2147.28C849.9,-2010.34 806.35,-1461.74 795,-1448 791.46,-1443.72 743.25,-1429.73 696.15,-1416.86"/>
<polygon fill="none" stroke="#404040" points="696.13,-1416.86 689.29,-1419.14 684.55,-1413.71 691.39,-1411.42 696.13,-1416.86"/>
<text text-anchor="middle" x="849.5" y="-1739.9" font-family="Helvetica,sans-Serif" font-size="12.00"> +keys</text>
</g>
<!-- Node6&#45;&gt;Node3 -->
<g id="edge15" class="edge">
<title>Node6&#45;&gt;Node3</title>
<path fill="none" stroke="#404040" d="M687.77,-1774.29C692.4,-1753.49 696.35,-1732.35 699,-1712 719.58,-1553.75 731.58,-1507.84 693,-1353 689.87,-1340.45 685.95,-1327.74 681.49,-1315.12"/>
<polygon fill="none" stroke="#404040" points="681.38,-1314.83 675.56,-1310.58 677.24,-1303.57 683.07,-1307.82 681.38,-1314.83"/>
<text text-anchor="middle" x="754.5" y="-1451.4" font-family="Helvetica,sans-Serif" font-size="12.00"> &#45;starterNode</text>
</g>
<!-- Node6&#45;&gt;Node4 -->
<g id="edge5" class="edge">
<title>Node6&#45;&gt;Node4</title>
<path fill="none" stroke="#404040" d="M700.12,-1774.42C709.01,-1758.69 718.95,-1743.56 730,-1730 759.34,-1693.98 800.71,-1663.19 837.17,-1640.28"/>
<polygon fill="none" stroke="#404040" points="837.59,-1640.02 840.61,-1633.47 847.81,-1633.73 844.8,-1640.28 837.59,-1640.02"/>
<text text-anchor="middle" x="765" y="-1739.9" font-family="Helvetica,sans-Serif" font-size="12.00"> +elements</text>
</g>
<!-- Node8 -->
<g id="node8" class="node">
<title>Node8</title>
<g id="a_node8"><a xlink:href="class_markov_1_1_edge.html" target="_top" xlink:title=" ">
<polygon fill="none" stroke="black" points="382.5,-1479.5 382.5,-1711.5 603.5,-1711.5 603.5,-1479.5 382.5,-1479.5"/>
<text text-anchor="middle" x="493" y="-1697.9" font-family="Helvetica,sans-Serif" font-size="12.00">Markov::Edge&lt; char &gt;</text>
<polyline fill="none" stroke="black" points="382.5,-1690.5 603.5,-1690.5 "/>
<text text-anchor="middle" x="493" y="-1676.9" font-family="Helvetica,sans-Serif" font-size="12.00"> </text>
<polyline fill="none" stroke="black" points="382.5,-1669.5 603.5,-1669.5 "/>
<text text-anchor="start" x="390.5" y="-1655.9" font-family="Helvetica,sans-Serif" font-size="12.00">+ Edge()</text>
<text text-anchor="start" x="390.5" y="-1642.9" font-family="Helvetica,sans-Serif" font-size="12.00">+ Edge(Node&lt; char &gt;</text>
<text text-anchor="start" x="390.5" y="-1629.9" font-family="Helvetica,sans-Serif" font-size="12.00"> *_left, Node&lt; char</text>
<text text-anchor="start" x="390.5" y="-1616.9" font-family="Helvetica,sans-Serif" font-size="12.00"> &gt; *_right)</text>
<text text-anchor="start" x="390.5" y="-1603.9" font-family="Helvetica,sans-Serif" font-size="12.00">+ void AdjustEdge(long</text>
<text text-anchor="start" x="390.5" y="-1590.9" font-family="Helvetica,sans-Serif" font-size="12.00"> int offset)</text>
<text text-anchor="start" x="390.5" y="-1577.9" font-family="Helvetica,sans-Serif" font-size="12.00">+ Node&lt; char &gt; * TraverseNode()</text>
<text text-anchor="start" x="390.5" y="-1564.9" font-family="Helvetica,sans-Serif" font-size="12.00">+ void SetLeftEdge(Node</text>
<text text-anchor="start" x="390.5" y="-1551.9" font-family="Helvetica,sans-Serif" font-size="12.00">&lt; char &gt; *)</text>
<text text-anchor="start" x="390.5" y="-1538.9" font-family="Helvetica,sans-Serif" font-size="12.00">+ void SetRightEdge(Node</text>
<text text-anchor="start" x="390.5" y="-1525.9" font-family="Helvetica,sans-Serif" font-size="12.00">&lt; char &gt; *)</text>
<text text-anchor="start" x="390.5" y="-1512.9" font-family="Helvetica,sans-Serif" font-size="12.00">+ uint64_t EdgeWeight()</text>
<text text-anchor="start" x="390.5" y="-1499.9" font-family="Helvetica,sans-Serif" font-size="12.00">+ Node&lt; char &gt; * LeftNode()</text>
<text text-anchor="start" x="390.5" y="-1486.9" font-family="Helvetica,sans-Serif" font-size="12.00">+ Node&lt; char &gt; * RightNode()</text>
</a>
</g>
</g>
<!-- Node6&#45;&gt;Node8 -->
<g id="edge11" class="edge">
<title>Node6&#45;&gt;Node8</title>
<path fill="none" stroke="#404040" d="M570.16,-1774.18C562.7,-1756.99 555.18,-1739.69 547.93,-1722.98"/>
<polygon fill="none" stroke="#404040" points="547.73,-1722.52 541.67,-1718.61 542.95,-1711.52 549.01,-1715.43 547.73,-1722.52"/>
<text text-anchor="middle" x="582.5" y="-1746.4" font-family="Helvetica,sans-Serif" font-size="12.00"> &#45;_left</text>
<text text-anchor="middle" x="582.5" y="-1733.4" font-family="Helvetica,sans-Serif" font-size="12.00">&#45;_right</text>
</g>
<!-- Node7&#45;&gt;Node6 -->
<g id="edge7" class="edge">
<title>Node7&#45;&gt;Node6</title>
<path fill="none" stroke="#404040" d="M620.74,-1429.57C622.87,-1435.62 624.75,-1441.91 626,-1448 647.16,-1550.78 651.1,-1668.32 649.54,-1762.17"/>
<polygon fill="none" stroke="#404040" points="649.54,-1762.37 653.42,-1768.45 649.3,-1774.37 645.42,-1768.29 649.54,-1762.37"/>
<text text-anchor="middle" x="672.5" y="-1592.4" font-family="Helvetica,sans-Serif" font-size="12.00"> &#45;edges</text>
</g>
<!-- Node8&#45;&gt;Node7 -->
<g id="edge9" class="edge">
<title>Node8&#45;&gt;Node7</title>
<path fill="none" stroke="#404040" d="M538.53,-1479.19C543.98,-1468.42 549.83,-1457.85 556,-1448 557.84,-1445.06 559.83,-1442.13 561.92,-1439.22"/>
<polygon fill="none" stroke="#404040" points="562.04,-1439.05 562.5,-1431.86 569.31,-1429.51 568.86,-1436.7 562.04,-1439.05"/>
<text text-anchor="middle" x="591" y="-1451.4" font-family="Helvetica,sans-Serif" font-size="12.00"> +elements</text>
</g>
<!-- Node10 -->
<g id="node10" class="node">
<title>Node10</title>
<g id="a_node10"><a xlink:title=" ">
<polygon fill="none" stroke="#bfbfbf" points="367,-1353.5 367,-1429.5 505,-1429.5 505,-1353.5 367,-1353.5"/>
<text text-anchor="start" x="375" y="-1415.9" font-family="Helvetica,sans-Serif" font-size="12.00">std::vector&lt; Markov</text>
<text text-anchor="middle" x="436" y="-1402.9" font-family="Helvetica,sans-Serif" font-size="12.00">::Edge&lt; char &gt; * &gt;</text>
<polyline fill="none" stroke="#bfbfbf" points="367,-1395.5 505,-1395.5 "/>
<text text-anchor="middle" x="436" y="-1381.9" font-family="Helvetica,sans-Serif" font-size="12.00"> </text>
<polyline fill="none" stroke="#bfbfbf" points="367,-1374.5 505,-1374.5 "/>
<text text-anchor="middle" x="436" y="-1360.9" font-family="Helvetica,sans-Serif" font-size="12.00"> </text>
</a>
</g>
</g>
<!-- Node8&#45;&gt;Node10 -->
<g id="edge14" class="edge">
<title>Node8&#45;&gt;Node10</title>
<path fill="none" stroke="#404040" d="M460.5,-1479.34C456.76,-1466.06 453.1,-1453.11 449.81,-1441.43"/>
<polygon fill="none" stroke="#404040" points="449.78,-1441.32 444.3,-1436.63 446.52,-1429.77 452,-1434.46 449.78,-1441.32"/>
<text text-anchor="middle" x="490" y="-1451.4" font-family="Helvetica,sans-Serif" font-size="12.00"> +elements</text>
</g>
<!-- Node9 -->
<g id="node9" class="node">
<title>Node9</title>
<g id="a_node9"><a xlink:href="classlong_01int.html" target="_top" xlink:title=" ">
<polygon fill="none" stroke="black" points="318.5,-2147.5 318.5,-2210.5 379.5,-2210.5 379.5,-2147.5 318.5,-2147.5"/>
<text text-anchor="middle" x="349" y="-2196.9" font-family="Helvetica,sans-Serif" font-size="12.00">long int</text>
<polyline fill="none" stroke="black" points="318.5,-2189.5 379.5,-2189.5 "/>
<text text-anchor="middle" x="349" y="-2175.9" font-family="Helvetica,sans-Serif" font-size="12.00"> </text>
<polyline fill="none" stroke="black" points="318.5,-2168.5 379.5,-2168.5 "/>
<text text-anchor="middle" x="349" y="-2154.9" font-family="Helvetica,sans-Serif" font-size="12.00"> </text>
</a>
</g>
</g>
<!-- Node9&#45;&gt;Node6 -->
<g id="edge12" class="edge">
<title>Node9&#45;&gt;Node6</title>
<path fill="none" stroke="#404040" d="M379.59,-2152.66C412.97,-2125.02 468.51,-2079.02 519.74,-2036.6"/>
<polygon fill="none" stroke="#404040" points="520.01,-2036.37 522.08,-2029.47 529.25,-2028.72 527.18,-2035.63 520.01,-2036.37"/>
<text text-anchor="middle" x="482" y="-2119.4" font-family="Helvetica,sans-Serif" font-size="12.00"> &#45;total_edge_weights</text>
</g>
<!-- Node9&#45;&gt;Node8 -->
<g id="edge10" class="edge">
<title>Node9&#45;&gt;Node8</title>
<path fill="none" stroke="#404040" d="M356.64,-2147.15C375.96,-2069.12 427.65,-1860.41 461.54,-1723.53"/>
<polygon fill="none" stroke="#404040" points="461.58,-1723.39 459.14,-1716.61 464.46,-1711.75 466.9,-1718.53 461.58,-1723.39"/>
<text text-anchor="middle" x="474.5" y="-1932.9" font-family="Helvetica,sans-Serif" font-size="12.00"> &#45;_weight</text>
</g>
<!-- Node10&#45;&gt;Node3 -->
<g id="edge16" class="edge">
<title>Node10&#45;&gt;Node3</title>
<path fill="none" stroke="#404040" d="M460.8,-1353.37C468.51,-1341.84 477.55,-1328.31 487.24,-1313.8"/>
<polygon fill="none" stroke="#404040" points="487.38,-1313.58 487.39,-1306.37 494.05,-1303.61 494.04,-1310.82 487.38,-1313.58"/>
<text text-anchor="middle" x="502.5" y="-1325.4" font-family="Helvetica,sans-Serif" font-size="12.00"> &#45;edges</text>
</g>
<!-- Node10&#45;&gt;Node6 -->
<g id="edge13" class="edge">
<title>Node10&#45;&gt;Node6</title>
<path fill="none" stroke="#404040" d="M366.89,-1425.59C346.4,-1439.1 326.4,-1456.84 315,-1479 291.32,-1525.04 284.56,-1670.12 315,-1712 367.47,-1784.2 432.1,-1723.95 506,-1774 510.74,-1777.21 515.4,-1780.63 519.98,-1784.23"/>
<polygon fill="none" stroke="#404040" points="519.98,-1784.23 527.15,-1784.95 529.25,-1791.85 522.07,-1791.13 519.98,-1784.23"/>
<text text-anchor="middle" x="344" y="-1592.4" font-family="Helvetica,sans-Serif" font-size="12.00"> +edgesV</text>
</g>
<!-- Node11 -->
<g id="node11" class="node">
<title>Node11</title>
<g id="a_node11"><a xlink:title=" ">
<polygon fill="none" stroke="#bfbfbf" points="345,-1117 345,-1180 437,-1180 437,-1117 345,-1117"/>
<text text-anchor="middle" x="391" y="-1166.4" font-family="Helvetica,sans-Serif" font-size="12.00">std::ifstream</text>
<polyline fill="none" stroke="#bfbfbf" points="345,-1159 437,-1159 "/>
<text text-anchor="middle" x="391" y="-1145.4" font-family="Helvetica,sans-Serif" font-size="12.00"> </text>
<polyline fill="none" stroke="#bfbfbf" points="345,-1138 437,-1138 "/>
<text text-anchor="middle" x="391" y="-1124.4" font-family="Helvetica,sans-Serif" font-size="12.00"> </text>
</a>
</g>
</g>
<!-- Node11&#45;&gt;Node2 -->
<g id="edge17" class="edge">
<title>Node11&#45;&gt;Node2</title>
<path fill="none" stroke="#404040" d="M396.38,-1116.74C403,-1078.91 414.84,-1011.24 426.84,-942.63"/>
<polygon fill="none" stroke="#404040" points="426.86,-942.54 423.95,-935.94 428.92,-930.72 431.83,-937.32 426.86,-942.54"/>
<text text-anchor="middle" x="461" y="-958.9" font-family="Helvetica,sans-Serif" font-size="12.00"> &#45;datasetFile</text>
</g>
<!-- Node12 -->
<g id="node12" class="node">
<title>Node12</title>
<g id="a_node12"><a xlink:title=" ">
<polygon fill="none" stroke="#bfbfbf" points="212,-1353.5 212,-1429.5 340,-1429.5 340,-1353.5 212,-1353.5"/>
<text text-anchor="start" x="220" y="-1415.9" font-family="Helvetica,sans-Serif" font-size="12.00">std::basic_ifstream</text>
<text text-anchor="middle" x="276" y="-1402.9" font-family="Helvetica,sans-Serif" font-size="12.00">&lt; Char &gt;</text>
<polyline fill="none" stroke="#bfbfbf" points="212,-1395.5 340,-1395.5 "/>
<text text-anchor="middle" x="276" y="-1381.9" font-family="Helvetica,sans-Serif" font-size="12.00"> </text>
<polyline fill="none" stroke="#bfbfbf" points="212,-1374.5 340,-1374.5 "/>
<text text-anchor="middle" x="276" y="-1360.9" font-family="Helvetica,sans-Serif" font-size="12.00"> </text>
</a>
</g>
</g>
<!-- Node12&#45;&gt;Node11 -->
<g id="edge18" class="edge">
<title>Node12&#45;&gt;Node11</title>
<path fill="none" stroke="midnightblue" d="M298.15,-1344.08C321.19,-1295.8 356.6,-1221.6 376.37,-1180.17"/>
<polygon fill="none" stroke="midnightblue" points="294.86,-1342.84 293.72,-1353.37 301.18,-1345.85 294.86,-1342.84"/>
</g>
<!-- Node13 -->
<g id="node13" class="node">
<title>Node13</title>
<g id="a_node13"><a xlink:title=" ">
<polygon fill="none" stroke="#bfbfbf" points="146,-1557.5 146,-1633.5 270,-1633.5 270,-1557.5 146,-1557.5"/>
<text text-anchor="start" x="154" y="-1619.9" font-family="Helvetica,sans-Serif" font-size="12.00">std::basic_istream</text>
<text text-anchor="middle" x="208" y="-1606.9" font-family="Helvetica,sans-Serif" font-size="12.00">&lt; Char &gt;</text>
<polyline fill="none" stroke="#bfbfbf" points="146,-1599.5 270,-1599.5 "/>
<text text-anchor="middle" x="208" y="-1585.9" font-family="Helvetica,sans-Serif" font-size="12.00"> </text>
<polyline fill="none" stroke="#bfbfbf" points="146,-1578.5 270,-1578.5 "/>
<text text-anchor="middle" x="208" y="-1564.9" font-family="Helvetica,sans-Serif" font-size="12.00"> </text>
</a>
</g>
</g>
<!-- Node13&#45;&gt;Node12 -->
<g id="edge19" class="edge">
<title>Node13&#45;&gt;Node12</title>
<path fill="none" stroke="midnightblue" d="M223.76,-1547.69C235.84,-1511.79 252.3,-1462.9 263.49,-1429.66"/>
<polygon fill="none" stroke="midnightblue" points="220.35,-1546.86 220.47,-1557.45 226.98,-1549.09 220.35,-1546.86"/>
</g>
<!-- Node14 -->
<g id="node14" class="node">
<title>Node14</title>
<g id="a_node14"><a xlink:title=" ">
<polygon fill="none" stroke="#bfbfbf" points="67.5,-1904.5 67.5,-1967.5 218.5,-1967.5 218.5,-1904.5 67.5,-1904.5"/>
<text text-anchor="middle" x="143" y="-1953.9" font-family="Helvetica,sans-Serif" font-size="12.00">std::basic_ios&lt; Char &gt;</text>
<polyline fill="none" stroke="#bfbfbf" points="67.5,-1946.5 218.5,-1946.5 "/>
<text text-anchor="middle" x="143" y="-1932.9" font-family="Helvetica,sans-Serif" font-size="12.00"> </text>
<polyline fill="none" stroke="#bfbfbf" points="67.5,-1925.5 218.5,-1925.5 "/>
<text text-anchor="middle" x="143" y="-1911.9" font-family="Helvetica,sans-Serif" font-size="12.00"> </text>
</a>
</g>
</g>
<!-- Node14&#45;&gt;Node13 -->
<g id="edge20" class="edge">
<title>Node14&#45;&gt;Node13</title>
<path fill="none" stroke="midnightblue" d="M150.82,-1894.29C163.55,-1827.98 188.58,-1697.63 200.86,-1633.68"/>
<polygon fill="none" stroke="midnightblue" points="147.33,-1893.88 148.88,-1904.36 154.21,-1895.2 147.33,-1893.88"/>
</g>
<!-- Node18 -->
<g id="node18" class="node">
<title>Node18</title>
<g id="a_node18"><a xlink:title=" ">
<polygon fill="none" stroke="#bfbfbf" points="0,-1557.5 0,-1633.5 128,-1633.5 128,-1557.5 0,-1557.5"/>
<text text-anchor="start" x="8" y="-1619.9" font-family="Helvetica,sans-Serif" font-size="12.00">std::basic_ostream</text>
<text text-anchor="middle" x="64" y="-1606.9" font-family="Helvetica,sans-Serif" font-size="12.00">&lt; Char &gt;</text>
<polyline fill="none" stroke="#bfbfbf" points="0,-1599.5 128,-1599.5 "/>
<text text-anchor="middle" x="64" y="-1585.9" font-family="Helvetica,sans-Serif" font-size="12.00"> </text>
<polyline fill="none" stroke="#bfbfbf" points="0,-1578.5 128,-1578.5 "/>
<text text-anchor="middle" x="64" y="-1564.9" font-family="Helvetica,sans-Serif" font-size="12.00"> </text>
</a>
</g>
</g>
<!-- Node14&#45;&gt;Node18 -->
<g id="edge25" class="edge">
<title>Node14&#45;&gt;Node18</title>
<path fill="none" stroke="midnightblue" d="M133.5,-1894.29C118.02,-1827.98 87.6,-1697.63 72.68,-1633.68"/>
<polygon fill="none" stroke="midnightblue" points="130.17,-1895.42 135.85,-1904.36 136.99,-1893.83 130.17,-1895.42"/>
</g>
<!-- Node15 -->
<g id="node15" class="node">
<title>Node15</title>
<g id="a_node15"><a xlink:title=" ">
<polygon fill="none" stroke="#bfbfbf" points="96.5,-2147.5 96.5,-2210.5 189.5,-2210.5 189.5,-2147.5 96.5,-2147.5"/>
<text text-anchor="middle" x="143" y="-2196.9" font-family="Helvetica,sans-Serif" font-size="12.00">std::ios_base</text>
<polyline fill="none" stroke="#bfbfbf" points="96.5,-2189.5 189.5,-2189.5 "/>
<text text-anchor="middle" x="143" y="-2175.9" font-family="Helvetica,sans-Serif" font-size="12.00"> </text>
<polyline fill="none" stroke="#bfbfbf" points="96.5,-2168.5 189.5,-2168.5 "/>
<text text-anchor="middle" x="143" y="-2154.9" font-family="Helvetica,sans-Serif" font-size="12.00"> </text>
</a>
</g>
</g>
<!-- Node15&#45;&gt;Node14 -->
<g id="edge21" class="edge">
<title>Node15&#45;&gt;Node14</title>
<path fill="none" stroke="midnightblue" d="M143,-2137.45C143,-2089.5 143,-2010.8 143,-1967.65"/>
<polygon fill="none" stroke="midnightblue" points="139.5,-2137.48 143,-2147.48 146.5,-2137.48 139.5,-2137.48"/>
</g>
<!-- Node16 -->
<g id="node16" class="node">
<title>Node16</title>
<g id="a_node16"><a xlink:title=" ">
<polygon fill="none" stroke="#bfbfbf" points="159,-1117 159,-1180 255,-1180 255,-1117 159,-1117"/>
<text text-anchor="middle" x="207" y="-1166.4" font-family="Helvetica,sans-Serif" font-size="12.00">std::ofstream</text>
<polyline fill="none" stroke="#bfbfbf" points="159,-1159 255,-1159 "/>
<text text-anchor="middle" x="207" y="-1145.4" font-family="Helvetica,sans-Serif" font-size="12.00"> </text>
<polyline fill="none" stroke="#bfbfbf" points="159,-1138 255,-1138 "/>
<text text-anchor="middle" x="207" y="-1124.4" font-family="Helvetica,sans-Serif" font-size="12.00"> </text>
</a>
</g>
</g>
<!-- Node16&#45;&gt;Node2 -->
<g id="edge22" class="edge">
<title>Node16&#45;&gt;Node2</title>
<path fill="none" stroke="#404040" d="M224.77,-1116.74C247.47,-1077.58 288.13,-1007.95 324,-949 325.6,-946.38 327.21,-943.74 328.83,-941.09"/>
<polygon fill="none" stroke="#404040" points="328.86,-941.03 328.58,-933.83 335.12,-930.8 335.4,-938 328.86,-941.03"/>
<text text-anchor="middle" x="371" y="-965.4" font-family="Helvetica,sans-Serif" font-size="12.00"> &#45;modelSavefile</text>
<text text-anchor="middle" x="371" y="-952.4" font-family="Helvetica,sans-Serif" font-size="12.00">&#45;outputFile</text>
</g>
<!-- Node17 -->
<g id="node17" class="node">
<title>Node17</title>
<g id="a_node17"><a xlink:title=" ">
<polygon fill="none" stroke="#bfbfbf" points="42.5,-1353.5 42.5,-1429.5 175.5,-1429.5 175.5,-1353.5 42.5,-1353.5"/>
<text text-anchor="start" x="50.5" y="-1415.9" font-family="Helvetica,sans-Serif" font-size="12.00">std::basic_ofstream</text>
<text text-anchor="middle" x="109" y="-1402.9" font-family="Helvetica,sans-Serif" font-size="12.00">&lt; Char &gt;</text>
<polyline fill="none" stroke="#bfbfbf" points="42.5,-1395.5 175.5,-1395.5 "/>
<text text-anchor="middle" x="109" y="-1381.9" font-family="Helvetica,sans-Serif" font-size="12.00"> </text>
<polyline fill="none" stroke="#bfbfbf" points="42.5,-1374.5 175.5,-1374.5 "/>
<text text-anchor="middle" x="109" y="-1360.9" font-family="Helvetica,sans-Serif" font-size="12.00"> </text>
</a>
</g>
</g>
<!-- Node17&#45;&gt;Node16 -->
<g id="edge23" class="edge">
<title>Node17&#45;&gt;Node16</title>
<path fill="none" stroke="midnightblue" d="M127.88,-1344.08C147.51,-1295.8 177.68,-1221.6 194.53,-1180.17"/>
<polygon fill="none" stroke="midnightblue" points="124.62,-1342.79 124.1,-1353.37 131.11,-1345.43 124.62,-1342.79"/>
</g>
<!-- Node18&#45;&gt;Node17 -->
<g id="edge24" class="edge">
<title>Node18&#45;&gt;Node17</title>
<path fill="none" stroke="midnightblue" d="M74.53,-1547.23C82.52,-1511.37 93.35,-1462.76 100.72,-1429.66"/>
<polygon fill="none" stroke="midnightblue" points="71.01,-1546.93 72.25,-1557.45 77.84,-1548.45 71.01,-1546.93"/>
</g>
<!-- Node19 -->
<g id="node19" class="node">
<title>Node19</title>
<g id="a_node19"><a xlink:title=" ">
<polygon fill="none" stroke="#bfbfbf" points="1055,-692 1055,-755 1087,-755 1087,-692 1055,-692"/>
<text text-anchor="middle" x="1071" y="-741.4" font-family="Helvetica,sans-Serif" font-size="12.00">int</text>
<polyline fill="none" stroke="#bfbfbf" points="1055,-734 1087,-734 "/>
<text text-anchor="middle" x="1071" y="-720.4" font-family="Helvetica,sans-Serif" font-size="12.00"> </text>
<polyline fill="none" stroke="#bfbfbf" points="1055,-713 1087,-713 "/>
<text text-anchor="middle" x="1071" y="-699.4" font-family="Helvetica,sans-Serif" font-size="12.00"> </text>
</a>
</g>
</g>
<!-- Node19&#45;&gt;Node1 -->
<g id="edge27" class="edge">
<title>Node19&#45;&gt;Node1</title>
<path fill="none" stroke="#404040" d="M1069.47,-691.91C1067.07,-643.83 1062.21,-546.34 1057.53,-452.52"/>
<polygon fill="none" stroke="#404040" points="1057.53,-452.49 1053.23,-446.7 1056.93,-440.51 1061.22,-446.3 1057.53,-452.49"/>
<text text-anchor="middle" x="1116" y="-488.4" font-family="Helvetica,sans-Serif" font-size="12.00"> #matrixSize</text>
<text text-anchor="middle" x="1116" y="-475.4" font-family="Helvetica,sans-Serif" font-size="12.00">#totalEdgeWeights</text>
<text text-anchor="middle" x="1116" y="-462.4" font-family="Helvetica,sans-Serif" font-size="12.00">#valueMatrix</text>
</g>
<!-- Node20 -->
<g id="node20" class="node">
<title>Node20</title>
<g id="a_node20"><a xlink:title=" ">
<polygon fill="none" stroke="#bfbfbf" points="1181,-692 1181,-755 1223,-755 1223,-692 1181,-692"/>
<text text-anchor="middle" x="1202" y="-741.4" font-family="Helvetica,sans-Serif" font-size="12.00">bool</text>
<polyline fill="none" stroke="#bfbfbf" points="1181,-734 1223,-734 "/>
<text text-anchor="middle" x="1202" y="-720.4" font-family="Helvetica,sans-Serif" font-size="12.00"> </text>
<polyline fill="none" stroke="#bfbfbf" points="1181,-713 1223,-713 "/>
<text text-anchor="middle" x="1202" y="-699.4" font-family="Helvetica,sans-Serif" font-size="12.00"> </text>
</a>
</g>
</g>
<!-- Node20&#45;&gt;Node1 -->
<g id="edge28" class="edge">
<title>Node20&#45;&gt;Node1</title>
<path fill="none" stroke="#404040" d="M1203.08,-691.68C1203.96,-641.67 1202.07,-540.23 1177,-459 1176.3,-456.72 1175.57,-454.44 1174.82,-452.16"/>
<polygon fill="none" stroke="#404040" points="1174.8,-452.09 1169.07,-447.71 1170.9,-440.74 1176.63,-445.11 1174.8,-452.09"/>
<text text-anchor="middle" x="1210" y="-475.4" font-family="Helvetica,sans-Serif" font-size="12.00"> #ready</text>
</g>
</g>
</svg>
        <g id="navigator" transform="translate(0 0)" fill="#404254">
                <rect fill="#f2f5e9" fill-opacity="0.5" stroke="#606060" stroke-width=".5" x="0" y="0" width="60" height="60"/>
                <use id="zoomplus" xlink:href="#zoomPlus" x="17" y="9" onmousedown="handleZoom(evt,'in')"/>
                <use id="zoomminus" xlink:href="#zoomMin" x="42" y="9" onmousedown="handleZoom(evt,'out')"/>
                <use id="reset" xlink:href="#resetDef" x="30" y="36" onmousedown="handleReset()"/>
                <g id="arrowUp" xlink:href="#dirArrow" transform="translate(30 24)" onmousedown="handlePan(0,-1)">
                  <use xlink:href="#rim" fill="#404040">
                        <set attributeName="fill" to="#808080" begin="arrowUp.mouseover" end="arrowUp.mouseout"/>
                  </use>
                  <path fill="none" stroke="white" stroke-width="1.5" d="M0,-3.0v7 M-2.5,-0.5L0,-3.0L2.5,-0.5"/>
                </g>
                <g id="arrowRight" xlink:href="#dirArrow" transform="rotate(90) translate(36 -43)" onmousedown="handlePan(1,0)">
                  <use xlink:href="#rim" fill="#404040">
                        <set attributeName="fill" to="#808080" begin="arrowRight.mouseover" end="arrowRight.mouseout"/>
                  </use>
                  <path fill="none" stroke="white" stroke-width="1.5" d="M0,-3.0v7 M-2.5,-0.5L0,-3.0L2.5,-0.5"/>
                </g>
                <g id="arrowDown" xlink:href="#dirArrow" transform="rotate(180) translate(-30 -48)" onmousedown="handlePan(0,1)">
                  <use xlink:href="#rim" fill="#404040">
                        <set attributeName="fill" to="#808080" begin="arrowDown.mouseover" end="arrowDown.mouseout"/>
                  </use>
                  <path fill="none" stroke="white" stroke-width="1.5" d="M0,-3.0v7 M-2.5,-0.5L0,-3.0L2.5,-0.5"/>
                </g>
                <g id="arrowLeft" xlink:href="#dirArrow" transform="rotate(270) translate(-36 17)" onmousedown="handlePan(-1,0)">
                  <use xlink:href="#rim" fill="#404040">
                        <set attributeName="fill" to="#808080" begin="arrowLeft.mouseover" end="arrowLeft.mouseout"/>
                  </use>
                  <path fill="none" stroke="white" stroke-width="1.5" d="M0,-3.0v7 M-2.5,-0.5L0,-3.0L2.5,-0.5"/>
                </g>
        </g>
        <svg viewBox="0 0 15 15" width="100%" height="30px" preserveAspectRatio="xMaxYMin meet">
         <g id="arrow_out" transform="scale(0.3 0.3)">
          <a xlink:href="class_markov_1_1_a_p_i_1_1_model_matrix__coll__graph_org.svg" target="_base">
           <rect id="button" ry="5" rx="5" y="6" x="6" height="38" width="38"
                fill="#f2f5e9" fill-opacity="0.5" stroke="#606060" stroke-width="1.0"/>
           <path id="arrow"
             d="M 11.500037,31.436501 C 11.940474,20.09759 22.043105,11.32322 32.158766,21.979434 L 37.068811,17.246167 C 37.068811,17.246167 37.088388,32 37.088388,32 L 22.160133,31.978069 C 22.160133,31.978069 26.997745,27.140456 26.997745,27.140456 C 18.528582,18.264221 13.291696,25.230495 11.500037,31.436501 z"
             style="fill:#404040;"/>
          </a>
         </g>
        </svg>
</svg>
