<?xml version="1.0" encoding="UTF-8" standalone="no"?>
<!DOCTYPE svg PUBLIC "-//W3C//DTD SVG 1.1//EN"
 "http://www.w3.org/Graphics/SVG/1.1/DTD/svg11.dtd">
<!-- Generated by graphviz version 2.43.0 (0)
 -->
<!-- Title: Markov::GUI::MarkovPasswordsGUI Pages: 1 -->
<svg width="302pt" height="237pt"
 viewBox="0.00 0.00 302.00 237.00" xmlns="http://www.w3.org/2000/svg" xmlns:xlink="http://www.w3.org/1999/xlink">
<g id="graph0" class="graph" transform="scale(1 1) rotate(0) translate(4 233)">
<title>Markov::GUI::MarkovPasswordsGUI</title>
<!-- Node1 -->
<g id="node1" class="node">
<title>Node1</title>
<g id="a_node1"><a xlink:title="Reporting UI.">
<polygon fill="#bfbfbf" stroke="black" points="17,-0.5 17,-115.5 241,-115.5 241,-0.5 17,-0.5"/>
<text text-anchor="middle" x="129" y="-101.9" font-family="Helvetica,sans-Serif" font-size="12.00">Markov::GUI::MarkovPasswordsGUI</text>
<polyline fill="none" stroke="black" points="17,-94.5 241,-94.5 "/>
<text text-anchor="middle" x="129" y="-80.9" font-family="Helvetica,sans-Serif" font-size="12.00"> </text>
<polyline fill="none" stroke="black" points="17,-73.5 241,-73.5 "/>
<text text-anchor="start" x="25" y="-59.9" font-family="Helvetica,sans-Serif" font-size="12.00">+ MarkovPasswordsGUI()</text>
<text text-anchor="start" x="25" y="-46.9" font-family="Helvetica,sans-Serif" font-size="12.00">+ benchmarkSelected()</text>
<text text-anchor="start" x="25" y="-33.9" font-family="Helvetica,sans-Serif" font-size="12.00">+ home()</text>
<text text-anchor="start" x="25" y="-20.9" font-family="Helvetica,sans-Serif" font-size="12.00">+ pass()</text>
<text text-anchor="start" x="25" y="-7.9" font-family="Helvetica,sans-Serif" font-size="12.00">+ model()</text>
</a>
</g>
</g>
<!-- Node2 -->
<g id="node2" class="node">
<title>Node2</title>
<g id="a_node2"><a xlink:href="class_q_main_window.html" target="_top" xlink:title=" ">
<polygon fill="none" stroke="black" points="0,-165.5 0,-228.5 102,-228.5 102,-165.5 0,-165.5"/>
<text text-anchor="middle" x="51" y="-214.9" font-family="Helvetica,sans-Serif" font-size="12.00">QMainWindow</text>
<polyline fill="none" stroke="black" points="0,-207.5 102,-207.5 "/>
<text text-anchor="middle" x="51" y="-193.9" font-family="Helvetica,sans-Serif" font-size="12.00"> </text>
<polyline fill="none" stroke="black" points="0,-186.5 102,-186.5 "/>
<text text-anchor="middle" x="51" y="-172.9" font-family="Helvetica,sans-Serif" font-size="12.00"> </text>
</a>
</g>
</g>
<!-- Node2&#45;&gt;Node1 -->
<g id="edge1" class="edge">
<title>Node2&#45;&gt;Node1</title>
<path fill="none" stroke="midnightblue" d="M73.6,-156.3C80.85,-143.57 89.02,-129.22 96.82,-115.53"/>
<polygon fill="none" stroke="midnightblue" points="70.41,-154.83 68.5,-165.25 76.49,-158.3 70.41,-154.83"/>
</g>
<!-- Node3 -->
<g id="node3" class="node">
<title>Node3</title>
<g id="a_node3"><a xlink:title=" ">
<polygon fill="none" stroke="#bfbfbf" points="120,-165.5 120,-228.5 294,-228.5 294,-165.5 120,-165.5"/>
<text text-anchor="middle" x="207" y="-214.9" font-family="Helvetica,sans-Serif" font-size="12.00">MarkovPasswordsGUIClass</text>
<polyline fill="none" stroke="#bfbfbf" points="120,-207.5 294,-207.5 "/>
<text text-anchor="middle" x="207" y="-193.9" font-family="Helvetica,sans-Serif" font-size="12.00"> </text>
<polyline fill="none" stroke="#bfbfbf" points="120,-186.5 294,-186.5 "/>
<text text-anchor="middle" x="207" y="-172.9" font-family="Helvetica,sans-Serif" font-size="12.00"> </text>
</a>
</g>
</g>
<!-- Node3&#45;&gt;Node1 -->
<g id="edge2" class="edge">
<title>Node3&#45;&gt;Node1</title>
<path fill="none" stroke="#404040" d="M189.5,-165.25C182.84,-153.56 174.97,-139.73 167.14,-125.99"/>
<polygon fill="none" stroke="#404040" points="167.12,-125.96 160.68,-122.72 161.18,-115.53 167.63,-118.76 167.12,-125.96"/>
<text text-anchor="middle" x="186.5" y="-137.4" font-family="Helvetica,sans-Serif" font-size="12.00"> &#45;ui</text>
</g>
</g>
</svg>
