<?xml version="1.0" encoding="UTF-8" standalone="no"?>
<!DOCTYPE svg PUBLIC "-//W3C//DTD SVG 1.1//EN"
 "http://www.w3.org/Graphics/SVG/1.1/DTD/svg11.dtd">
<!-- Generated by graphviz version 2.43.0 (0)
 -->
<!-- Title: Markov::Edge::LeftNode Pages: 1 -->
<svg width="383pt" height="96pt"
 viewBox="0.00 0.00 383.00 96.00" xmlns="http://www.w3.org/2000/svg" xmlns:xlink="http://www.w3.org/1999/xlink">
<g id="graph0" class="graph" transform="scale(1 1) rotate(0) translate(4 92)">
<title>Markov::Edge::LeftNode</title>
<!-- Node1 -->
<g id="node1" class="node">
<title>Node1</title>
<g id="a_node1"><a xlink:title="return edge&#39;s LeftNode">
<polygon fill="#bfbfbf" stroke="black" points="215,-33 215,-54 375,-54 375,-33 215,-33"/>
<text text-anchor="middle" x="295" y="-40.4" font-family="Helvetica,sans-Serif" font-size="12.00">Markov::Edge::LeftNode</text>
</a>
</g>
</g>
<!-- Node2 -->
<g id="node2" class="node">
<title>Node2</title>
<g id="a_node2"><a xlink:href="class_markov_1_1_model.html#ae16027a94235d2988ac4be35ea07d939" target="_top" xlink:title="Export a file of the model.">
<polygon fill="none" stroke="black" points="17,-53.5 17,-87.5 162,-87.5 162,-53.5 17,-53.5"/>
<text text-anchor="start" x="25" y="-73.9" font-family="Helvetica,sans-Serif" font-size="12.00">Markov::Model&lt; char</text>
<text text-anchor="middle" x="89.5" y="-60.9" font-family="Helvetica,sans-Serif" font-size="12.00"> &gt;::Export</text>
</a>
</g>
</g>
<!-- Node1&#45;&gt;Node2 -->
<g id="edge1" class="edge">
<title>Node1&#45;&gt;Node2</title>
<path fill="none" stroke="midnightblue" d="M204.51,-55.37C190.37,-57.25 175.91,-59.17 162.24,-60.98"/>
<polygon fill="midnightblue" stroke="midnightblue" points="205.29,-58.8 214.74,-54.02 204.37,-51.86 205.29,-58.8"/>
</g>
<!-- Node3 -->
<g id="node3" class="node">
<title>Node3</title>
<g id="a_node3"><a xlink:href="namespace_testing_1_1_m_v_p_1_1_markov_model.html#a0e3a45b149abd9dff30adc9b877f94cd" target="_top" xlink:title="Test class for minimal viable Edge.">
<polygon fill="none" stroke="black" points="0,-0.5 0,-34.5 179,-34.5 179,-0.5 0,-0.5"/>
<text text-anchor="start" x="8" y="-20.9" font-family="Helvetica,sans-Serif" font-size="12.00">Testing::MVP::MarkovModel</text>
<text text-anchor="middle" x="89.5" y="-7.9" font-family="Helvetica,sans-Serif" font-size="12.00">::TEST_CLASS</text>
</a>
</g>
</g>
<!-- Node1&#45;&gt;Node3 -->
<g id="edge2" class="edge">
<title>Node1&#45;&gt;Node3</title>
<path fill="none" stroke="midnightblue" d="M204.59,-32.08C196.2,-31.01 187.71,-29.92 179.33,-28.85"/>
<polygon fill="midnightblue" stroke="midnightblue" points="204.38,-35.58 214.74,-33.37 205.26,-28.63 204.38,-35.58"/>
</g>
</g>
</svg>
