<?xml version="1.0" encoding="UTF-8" standalone="no"?>
<!DOCTYPE svg PUBLIC "-//W3C//DTD SVG 1.1//EN"
 "http://www.w3.org/Graphics/SVG/1.1/DTD/svg11.dtd">
<!-- Generated by graphviz version 2.43.0 (0)
 -->
<!-- Title: Markov::Edge::EdgeWeight Pages: 1 -->
<svg width="831pt" height="171pt"
 viewBox="0.00 0.00 831.00 171.00" xmlns="http://www.w3.org/2000/svg" xmlns:xlink="http://www.w3.org/1999/xlink">
<g id="graph0" class="graph" transform="scale(1 1) rotate(0) translate(4 167)">
<title>Markov::Edge::EdgeWeight</title>
<!-- Node1 -->
<g id="node1" class="node">
<title>Node1</title>
<g id="a_node1"><a xlink:title="return edge&#39;s EdgeWeight.">
<polygon fill="#bfbfbf" stroke="black" points="647,-98 647,-119 823,-119 823,-98 647,-98"/>
<text text-anchor="middle" x="735" y="-105.4" font-family="Helvetica,sans-Serif" font-size="12.00">Markov::Edge::EdgeWeight</text>
</a>
</g>
</g>
<!-- Node2 -->
<g id="node2" class="node">
<title>Node2</title>
<g id="a_node2"><a xlink:href="class_markov_1_1_a_p_i_1_1_markov_passwords.html#ad490665eae3beb022afc7e2491583d0a" target="_top" xlink:title="Buff expression of some characters in the model.">
<polygon fill="none" stroke="black" points="411,-128.5 411,-162.5 611,-162.5 611,-128.5 411,-128.5"/>
<text text-anchor="start" x="419" y="-148.9" font-family="Helvetica,sans-Serif" font-size="12.00">Markov::API::MarkovPasswords</text>
<text text-anchor="middle" x="511" y="-135.9" font-family="Helvetica,sans-Serif" font-size="12.00">::Buff</text>
</a>
</g>
</g>
<!-- Node1&#45;&gt;Node2 -->
<g id="edge1" class="edge">
<title>Node1&#45;&gt;Node2</title>
<path fill="none" stroke="midnightblue" d="M660.76,-120.71C644.93,-123.35 627.94,-126.18 611.3,-128.95"/>
<polygon fill="midnightblue" stroke="midnightblue" points="661.69,-124.1 670.98,-119 660.54,-117.2 661.69,-124.1"/>
</g>
<!-- Node4 -->
<g id="node4" class="node">
<title>Node4</title>
<g id="a_node4"><a xlink:href="class_markov_1_1_a_p_i_1_1_model_matrix.html#aafb5809808b9b0450a0bc98740121b5f" target="_top" xlink:title="Construct the related Matrix data for the model.">
<polygon fill="none" stroke="black" points="426.5,-65.5 426.5,-99.5 595.5,-99.5 595.5,-65.5 426.5,-65.5"/>
<text text-anchor="start" x="434.5" y="-85.9" font-family="Helvetica,sans-Serif" font-size="12.00">Markov::API::ModelMatrix</text>
<text text-anchor="middle" x="511" y="-72.9" font-family="Helvetica,sans-Serif" font-size="12.00">::ConstructMatrix</text>
</a>
</g>
</g>
<!-- Node1&#45;&gt;Node4 -->
<g id="edge3" class="edge">
<title>Node1&#45;&gt;Node4</title>
<path fill="none" stroke="midnightblue" d="M636.93,-97.13C623.15,-95.52 609.08,-93.87 595.58,-92.29"/>
<polygon fill="midnightblue" stroke="midnightblue" points="636.56,-100.61 646.9,-98.3 637.37,-93.66 636.56,-100.61"/>
</g>
<!-- Node3 -->
<g id="node3" class="node">
<title>Node3</title>
<g id="a_node3"><a xlink:href="_markov_a_p_i_c_l_i_2src_2main_8cpp.html#a3c04138a5bfe5d72780bb7e82a18e627" target="_top" xlink:title="Launch CLI tool.">
<polygon fill="none" stroke="black" points="61.5,-122 61.5,-143 108.5,-143 108.5,-122 61.5,-122"/>
<text text-anchor="middle" x="85" y="-129.4" font-family="Helvetica,sans-Serif" font-size="12.00">main</text>
</a>
</g>
</g>
<!-- Node2&#45;&gt;Node3 -->
<g id="edge2" class="edge">
<title>Node2&#45;&gt;Node3</title>
<path fill="none" stroke="midnightblue" d="M400.48,-142.36C342.64,-140.67 270.47,-138.53 206,-136.5 172.04,-135.43 132.68,-134.1 108.56,-133.28"/>
<polygon fill="midnightblue" stroke="midnightblue" points="400.64,-145.86 410.73,-142.65 400.84,-138.87 400.64,-145.86"/>
</g>
<!-- Node5 -->
<g id="node5" class="node">
<title>Node5</title>
<g id="a_node5"><a xlink:href="namespace_markov_1_1_markopy.html#a379628c09859652215496b63af2bcac9" target="_top" xlink:title=" ">
<polygon fill="none" stroke="black" points="0,-46.5 0,-80.5 170,-80.5 170,-46.5 0,-46.5"/>
<text text-anchor="start" x="8" y="-66.9" font-family="Helvetica,sans-Serif" font-size="12.00">Markov::Markopy::BOOST</text>
<text text-anchor="middle" x="85" y="-53.9" font-family="Helvetica,sans-Serif" font-size="12.00">_PYTHON_MODULE</text>
</a>
</g>
</g>
<!-- Node4&#45;&gt;Node5 -->
<g id="edge4" class="edge">
<title>Node4&#45;&gt;Node5</title>
<path fill="none" stroke="midnightblue" d="M416.29,-78.3C342.67,-75 241.07,-70.45 170.06,-67.27"/>
<polygon fill="midnightblue" stroke="midnightblue" points="416.34,-81.81 426.48,-78.76 416.65,-74.81 416.34,-81.81"/>
</g>
<!-- Node6 -->
<g id="node6" class="node">
<title>Node6</title>
<g id="a_node6"><a xlink:href="class_markov_1_1_a_p_i_1_1_model_matrix.html#aeba8bb79aa4dc2cfeda310f34b7c9427" target="_top" xlink:title="Open a file to import with filename, and call bool Model::Import with std::ifstream.">
<polygon fill="none" stroke="black" points="206,-92.5 206,-126.5 375,-126.5 375,-92.5 206,-92.5"/>
<text text-anchor="start" x="214" y="-112.9" font-family="Helvetica,sans-Serif" font-size="12.00">Markov::API::ModelMatrix</text>
<text text-anchor="middle" x="290.5" y="-99.9" font-family="Helvetica,sans-Serif" font-size="12.00">::Import</text>
</a>
</g>
</g>
<!-- Node4&#45;&gt;Node6 -->
<g id="edge5" class="edge">
<title>Node4&#45;&gt;Node6</title>
<path fill="none" stroke="midnightblue" d="M416.16,-94.1C402.6,-95.77 388.71,-97.49 375.36,-99.14"/>
<polygon fill="midnightblue" stroke="midnightblue" points="416.96,-97.52 426.46,-92.82 416.11,-90.58 416.96,-97.52"/>
</g>
<!-- Node7 -->
<g id="node7" class="node">
<title>Node7</title>
<g id="a_node7"><a xlink:href="class_markov_1_1_a_p_i_1_1_model_matrix.html#af42d40d7a5c80f0dfe126a574a17f423" target="_top" xlink:title="Train the model with the dataset file.">
<polygon fill="none" stroke="black" points="206,-0.5 206,-34.5 375,-34.5 375,-0.5 206,-0.5"/>
<text text-anchor="start" x="214" y="-20.9" font-family="Helvetica,sans-Serif" font-size="12.00">Markov::API::ModelMatrix</text>
<text text-anchor="middle" x="290.5" y="-7.9" font-family="Helvetica,sans-Serif" font-size="12.00">::Train</text>
</a>
</g>
</g>
<!-- Node4&#45;&gt;Node7 -->
<g id="edge8" class="edge">
<title>Node4&#45;&gt;Node7</title>
<path fill="none" stroke="midnightblue" d="M442.62,-62.46C412.62,-53.53 377.64,-43.13 348.9,-34.58"/>
<polygon fill="midnightblue" stroke="midnightblue" points="442.01,-65.93 452.59,-65.42 444,-59.22 442.01,-65.93"/>
</g>
<!-- Node6&#45;&gt;Node3 -->
<g id="edge7" class="edge">
<title>Node6&#45;&gt;Node3</title>
<path fill="none" stroke="midnightblue" d="M195.86,-120.08C163.5,-123.74 130.04,-127.52 108.68,-129.94"/>
<polygon fill="midnightblue" stroke="midnightblue" points="196.3,-123.56 205.85,-118.95 195.52,-116.6 196.3,-123.56"/>
</g>
<!-- Node6&#45;&gt;Node5 -->
<g id="edge6" class="edge">
<title>Node6&#45;&gt;Node5</title>
<path fill="none" stroke="midnightblue" d="M204.24,-90.23C190.01,-87.01 175.33,-83.69 161.36,-80.54"/>
<polygon fill="midnightblue" stroke="midnightblue" points="203.49,-93.65 214.01,-92.44 205.03,-86.82 203.49,-93.65"/>
</g>
<!-- Node7&#45;&gt;Node5 -->
<g id="edge9" class="edge">
<title>Node7&#45;&gt;Node5</title>
<path fill="none" stroke="midnightblue" d="M204.24,-36.77C190.01,-39.99 175.33,-43.31 161.36,-46.46"/>
<polygon fill="midnightblue" stroke="midnightblue" points="205.03,-40.18 214.01,-34.56 203.49,-33.35 205.03,-40.18"/>
</g>
</g>
</svg>
