<?xml version="1.0" encoding="UTF-8" standalone="no"?>
<!DOCTYPE svg PUBLIC "-//W3C//DTD SVG 1.1//EN"
 "http://www.w3.org/Graphics/SVG/1.1/DTD/svg11.dtd">
<!-- Generated by graphviz version 2.43.0 (0)
 -->
<!-- Title: base.BaseCLI._generate Pages: 1 -->
<svg width="542pt" height="30pt"
 viewBox="0.00 0.00 542.00 30.00" xmlns="http://www.w3.org/2000/svg" xmlns:xlink="http://www.w3.org/1999/xlink">
<g id="graph0" class="graph" transform="scale(1 1) rotate(0) translate(4 26)">
<title>base.BaseCLI._generate</title>
<!-- Node1 -->
<g id="node1" class="node">
<title>Node1</title>
<g id="a_node1"><a xlink:title=" ">
<polygon fill="#bfbfbf" stroke="black" points="373,-0.5 373,-21.5 534,-21.5 534,-0.5 373,-0.5"/>
<text text-anchor="middle" x="453.5" y="-7.9" font-family="Helvetica,sans-Serif" font-size="12.00">base.BaseCLI._generate</text>
</a>
</g>
</g>
<!-- Node2 -->
<g id="node2" class="node">
<title>Node2</title>
<g id="a_node2"><a xlink:href="classbase_1_1_base_c_l_i.html#a3178017ad9900e1455460302122fe694" target="_top" xlink:title=" ">
<polygon fill="none" stroke="black" points="182,-0.5 182,-21.5 337,-21.5 337,-0.5 182,-0.5"/>
<text text-anchor="middle" x="259.5" y="-7.9" font-family="Helvetica,sans-Serif" font-size="12.00">base.BaseCLI.generate</text>
</a>
</g>
</g>
<!-- Node1&#45;&gt;Node2 -->
<g id="edge1" class="edge">
<title>Node1&#45;&gt;Node2</title>
<path fill="none" stroke="midnightblue" d="M362.49,-11C354.05,-11 345.54,-11 337.23,-11"/>
<polygon fill="midnightblue" stroke="midnightblue" points="362.74,-14.5 372.74,-11 362.74,-7.5 362.74,-14.5"/>
</g>
<!-- Node3 -->
<g id="node3" class="node">
<title>Node3</title>
<g id="a_node3"><a xlink:href="classbase_1_1_base_c_l_i.html#a81415f28ab1efa8b74cb6d5fe063a2d3" target="_top" xlink:title=" ">
<polygon fill="none" stroke="black" points="0,-0.5 0,-21.5 146,-21.5 146,-0.5 0,-0.5"/>
<text text-anchor="middle" x="73" y="-7.9" font-family="Helvetica,sans-Serif" font-size="12.00">base.BaseCLI.process</text>
</a>
</g>
</g>
<!-- Node2&#45;&gt;Node3 -->
<g id="edge2" class="edge">
<title>Node2&#45;&gt;Node3</title>
<path fill="none" stroke="midnightblue" d="M171.85,-11C163.29,-11 154.66,-11 146.26,-11"/>
<polygon fill="midnightblue" stroke="midnightblue" points="171.86,-14.5 181.86,-11 171.86,-7.5 171.86,-14.5"/>
</g>
</g>
</svg>
