<?xml version="1.0" encoding="UTF-8" standalone="no"?>
<!DOCTYPE svg PUBLIC "-//W3C//DTD SVG 1.1//EN"
 "http://www.w3.org/Graphics/SVG/1.1/DTD/svg11.dtd">
<!-- Generated by graphviz version 2.43.0 (0)
 -->
<!-- Title: Python.Markopy.MarkopyCLI.add_arguments Pages: 1 -->
<svg width="736pt" height="177pt"
 viewBox="0.00 0.00 736.00 176.50" xmlns="http://www.w3.org/2000/svg" xmlns:xlink="http://www.w3.org/1999/xlink">
<g id="graph0" class="graph" transform="scale(1 1) rotate(0) translate(4 172.5)">
<title>Python.Markopy.MarkopyCLI.add_arguments</title>
<!-- Node1 -->
<g id="node1" class="node">
<title>Node1</title>
<g id="a_node1"><a xlink:title="add &#45;mt/–model_type constructor">
<polygon fill="#bfbfbf" stroke="black" points="0,-57 0,-91 212,-91 212,-57 0,-57"/>
<text text-anchor="start" x="8" y="-77.4" font-family="Helvetica,sans-Serif" font-size="12.00">Python.Markopy.MarkopyCLI.add</text>
<text text-anchor="middle" x="106" y="-64.4" font-family="Helvetica,sans-Serif" font-size="12.00">_arguments</text>
</a>
</g>
</g>
<!-- Node2 -->
<g id="node2" class="node">
<title>Node2</title>
<g id="a_node2"><a xlink:href="class_markov_1_1_a_p_i_1_1_c_l_i_1_1_argparse.html#ac7aaf4edf169e3aab32aca083984d914" target="_top" xlink:title="Print help string.">
<polygon fill="none" stroke="black" points="274.5,-134 274.5,-168 450.5,-168 450.5,-134 274.5,-134"/>
<text text-anchor="start" x="282.5" y="-154.4" font-family="Helvetica,sans-Serif" font-size="12.00">Markov::API::CLI::Argparse</text>
<text text-anchor="middle" x="362.5" y="-141.4" font-family="Helvetica,sans-Serif" font-size="12.00">::help</text>
</a>
</g>
</g>
<!-- Node1&#45;&gt;Node2 -->
<g id="edge1" class="edge">
<title>Node1&#45;&gt;Node2</title>
<path fill="none" stroke="midnightblue" d="M149.75,-91C177.47,-101.64 214.54,-115.16 248,-125 255.65,-127.25 263.64,-129.43 271.68,-131.49"/>
<polygon fill="midnightblue" stroke="midnightblue" points="270.95,-134.92 281.5,-133.96 272.65,-128.13 270.95,-134.92"/>
</g>
<!-- Node3 -->
<g id="node3" class="node">
<title>Node3</title>
<g id="a_node3"><a xlink:href="class_python_1_1_cuda_markopy_1_1_cuda_markopy_c_l_i.html#acb946950d9dbc1402ba081523d497dd3" target="_top" xlink:title="overload help function to print submodel helps">
<polygon fill="none" stroke="black" points="248,-81 248,-115 477,-115 477,-81 248,-81"/>
<text text-anchor="start" x="256" y="-101.4" font-family="Helvetica,sans-Serif" font-size="12.00">Python.CudaMarkopy.CudaMarkopy</text>
<text text-anchor="middle" x="362.5" y="-88.4" font-family="Helvetica,sans-Serif" font-size="12.00">CLI.help</text>
</a>
</g>
</g>
<!-- Node1&#45;&gt;Node3 -->
<g id="edge2" class="edge">
<title>Node1&#45;&gt;Node3</title>
<path fill="none" stroke="midnightblue" d="M212.35,-83.93C220.8,-84.73 229.39,-85.54 237.95,-86.35"/>
<polygon fill="midnightblue" stroke="midnightblue" points="237.7,-89.84 247.99,-87.3 238.36,-82.87 237.7,-89.84"/>
</g>
<!-- Node5 -->
<g id="node5" class="node">
<title>Node5</title>
<g id="a_node5"><a xlink:href="class_python_1_1_markopy_1_1_base_c_l_i.html#ab367a1505f21191f550087707288b575" target="_top" xlink:title=" ">
<polygon fill="none" stroke="black" points="266,-40.5 266,-61.5 459,-61.5 459,-40.5 266,-40.5"/>
<text text-anchor="middle" x="362.5" y="-47.9" font-family="Helvetica,sans-Serif" font-size="12.00">Python.Markopy.BaseCLI.help</text>
</a>
</g>
</g>
<!-- Node1&#45;&gt;Node5 -->
<g id="edge4" class="edge">
<title>Node1&#45;&gt;Node5</title>
<path fill="none" stroke="midnightblue" d="M212.35,-64.48C226.55,-63.2 241.12,-61.88 255.33,-60.6"/>
<polygon fill="midnightblue" stroke="midnightblue" points="255.95,-64.05 265.6,-59.67 255.32,-57.08 255.95,-64.05"/>
</g>
<!-- Node6 -->
<g id="node6" class="node">
<title>Node6</title>
<g id="a_node6"><a xlink:href="class_python_1_1_markopy_1_1_markopy_c_l_i.html#a76e6c5fbea009bb2cc5cd1fc7278e2fd" target="_top" xlink:title="overload help function to print submodel helps">
<polygon fill="none" stroke="black" points="255,-0.5 255,-21.5 470,-21.5 470,-0.5 255,-0.5"/>
<text text-anchor="middle" x="362.5" y="-7.9" font-family="Helvetica,sans-Serif" font-size="12.00">Python.Markopy.MarkopyCLI.help</text>
</a>
</g>
</g>
<!-- Node1&#45;&gt;Node6 -->
<g id="edge5" class="edge">
<title>Node1&#45;&gt;Node6</title>
<path fill="none" stroke="midnightblue" d="M157.5,-56.97C184.19,-48.38 217.64,-38.28 248,-31 259.55,-28.23 271.85,-25.67 283.93,-23.37"/>
<polygon fill="midnightblue" stroke="midnightblue" points="284.81,-26.77 294,-21.5 283.53,-19.89 284.81,-26.77"/>
</g>
<!-- Node4 -->
<g id="node4" class="node">
<title>Node4</title>
<g id="a_node4"><a xlink:href="class_python_1_1_markopy_1_1_markopy_c_l_i.html#a80bd3c93aead66d0d7c264a7d387196f" target="_top" xlink:title=" ">
<polygon fill="none" stroke="black" points="513,-43.5 513,-64.5 728,-64.5 728,-43.5 513,-43.5"/>
<text text-anchor="middle" x="620.5" y="-50.9" font-family="Helvetica,sans-Serif" font-size="12.00">Python.Markopy.MarkopyCLI.stub</text>
</a>
</g>
</g>
<!-- Node3&#45;&gt;Node4 -->
<g id="edge3" class="edge">
<title>Node3&#45;&gt;Node4</title>
<path fill="none" stroke="midnightblue" d="M462.48,-80.99C491.05,-76.08 521.65,-70.82 548.19,-66.26"/>
<polygon fill="midnightblue" stroke="midnightblue" points="548.88,-69.69 558.14,-64.55 547.7,-62.79 548.88,-69.69"/>
</g>
<!-- Node6&#45;&gt;Node4 -->
<g id="edge6" class="edge">
<title>Node6&#45;&gt;Node4</title>
<path fill="none" stroke="midnightblue" d="M426.12,-21.52C462.54,-27.64 508.61,-35.37 546.64,-41.76"/>
<polygon fill="midnightblue" stroke="midnightblue" points="546.19,-45.24 556.63,-43.44 547.35,-38.33 546.19,-45.24"/>
</g>
</g>
</svg>
