<?xml version="1.0" encoding="UTF-8" standalone="no"?>
<!DOCTYPE svg PUBLIC "-//W3C//DTD SVG 1.1//EN"
 "http://www.w3.org/Graphics/SVG/1.1/DTD/svg11.dtd">
<!-- Generated by graphviz version 2.43.0 (0)
 -->
<!-- Title: Python.Markopy.BaseCLI.add_arguments Pages: 1 -->
<svg width="458pt" height="70pt"
 viewBox="0.00 0.00 458.00 70.00" xmlns="http://www.w3.org/2000/svg" xmlns:xlink="http://www.w3.org/1999/xlink">
<g id="graph0" class="graph" transform="scale(1 1) rotate(0) translate(4 66)">
<title>Python.Markopy.BaseCLI.add_arguments</title>
<!-- Node1 -->
<g id="node1" class="node">
<title>Node1</title>
<g id="a_node1"><a xlink:title=" ">
<polygon fill="#bfbfbf" stroke="black" points="260,-14 260,-48 450,-48 450,-14 260,-14"/>
<text text-anchor="start" x="268" y="-34.4" font-family="Helvetica,sans-Serif" font-size="12.00">Python.Markopy.BaseCLI.add</text>
<text text-anchor="middle" x="355" y="-21.4" font-family="Helvetica,sans-Serif" font-size="12.00">_arguments</text>
</a>
</g>
</g>
<!-- Node2 -->
<g id="node2" class="node">
<title>Node2</title>
<g id="a_node2"><a xlink:href="class_python_1_1_markopy_1_1_base_c_l_i.html#a290240acf366fc65cf0639698dbf662b" target="_top" xlink:title=" ">
<polygon fill="none" stroke="black" points="11.5,-40.5 11.5,-61.5 212.5,-61.5 212.5,-40.5 11.5,-40.5"/>
<text text-anchor="middle" x="112" y="-47.9" font-family="Helvetica,sans-Serif" font-size="12.00">Python.Markopy.BaseCLI.parse</text>
</a>
</g>
</g>
<!-- Node1&#45;&gt;Node2 -->
<g id="edge1" class="edge">
<title>Node1&#45;&gt;Node2</title>
<path fill="none" stroke="midnightblue" d="M249.58,-39.67C237.34,-40.68 224.88,-41.72 212.72,-42.72"/>
<polygon fill="midnightblue" stroke="midnightblue" points="250.11,-43.13 259.79,-38.82 249.53,-36.16 250.11,-43.13"/>
</g>
<!-- Node3 -->
<g id="node3" class="node">
<title>Node3</title>
<g id="a_node3"><a xlink:href="class_python_1_1_markopy_1_1_markopy_c_l_i.html#ab3660c4d0e9e5ab1889e76264a2c6e02" target="_top" xlink:title=" ">
<polygon fill="none" stroke="black" points="0,-0.5 0,-21.5 224,-21.5 224,-0.5 0,-0.5"/>
<text text-anchor="middle" x="112" y="-7.9" font-family="Helvetica,sans-Serif" font-size="12.00">Python.Markopy.MarkopyCLI.parse</text>
</a>
</g>
</g>
<!-- Node1&#45;&gt;Node3 -->
<g id="edge2" class="edge">
<title>Node1&#45;&gt;Node3</title>
<path fill="none" stroke="midnightblue" d="M249.64,-22.34C241.27,-21.64 232.79,-20.94 224.37,-20.24"/>
<polygon fill="midnightblue" stroke="midnightblue" points="249.53,-25.84 259.79,-23.18 250.11,-18.87 249.53,-25.84"/>
</g>
</g>
</svg>
