<?xml version="1.0" encoding="UTF-8" standalone="no"?>
<!DOCTYPE svg PUBLIC "-//W3C//DTD SVG 1.1//EN"
 "http://www.w3.org/Graphics/SVG/1.1/DTD/svg11.dtd">
<!-- Generated by graphviz version 2.43.0 (0)
 -->
<!-- Title: Markov::Model::OptimizeEdgeOrder Pages: 1 -->
<svg width="522pt" height="43pt"
 viewBox="0.00 0.00 522.00 43.00" xmlns="http://www.w3.org/2000/svg" xmlns:xlink="http://www.w3.org/1999/xlink">
<g id="graph0" class="graph" transform="scale(1 1) rotate(0) translate(4 39)">
<title>Markov::Model::OptimizeEdgeOrder</title>
<!-- Node1 -->
<g id="node1" class="node">
<title>Node1</title>
<g id="a_node1"><a xlink:title="Sort edges of all nodes in the model ordered by edge weights.">
<polygon fill="#bfbfbf" stroke="black" points="319,-0.5 319,-34.5 514,-34.5 514,-0.5 319,-0.5"/>
<text text-anchor="start" x="327" y="-20.9" font-family="Helvetica,sans-Serif" font-size="12.00">Markov::Model::OptimizeEdge</text>
<text text-anchor="middle" x="416.5" y="-7.9" font-family="Helvetica,sans-Serif" font-size="12.00">Order</text>
</a>
</g>
</g>
<!-- Node2 -->
<g id="node2" class="node">
<title>Node2</title>
<g id="a_node2"><a xlink:href="class_markov_1_1_a_p_i_1_1_markov_passwords.html#ad490665eae3beb022afc7e2491583d0a" target="_top" xlink:title="Buff expression of some characters in the model.">
<polygon fill="none" stroke="black" points="83,-0.5 83,-34.5 283,-34.5 283,-0.5 83,-0.5"/>
<text text-anchor="start" x="91" y="-20.9" font-family="Helvetica,sans-Serif" font-size="12.00">Markov::API::MarkovPasswords</text>
<text text-anchor="middle" x="183" y="-7.9" font-family="Helvetica,sans-Serif" font-size="12.00">::Buff</text>
</a>
</g>
</g>
<!-- Node1&#45;&gt;Node2 -->
<g id="edge1" class="edge">
<title>Node1&#45;&gt;Node2</title>
<path fill="none" stroke="midnightblue" d="M308.72,-17.5C300.26,-17.5 291.73,-17.5 283.33,-17.5"/>
<polygon fill="midnightblue" stroke="midnightblue" points="309,-21 319,-17.5 309,-14 309,-21"/>
</g>
<!-- Node3 -->
<g id="node3" class="node">
<title>Node3</title>
<g id="a_node3"><a xlink:href="_markov_a_p_i_c_l_i_2src_2main_8cpp.html#a3c04138a5bfe5d72780bb7e82a18e627" target="_top" xlink:title="Launch CLI tool.">
<polygon fill="none" stroke="black" points="0,-7 0,-28 47,-28 47,-7 0,-7"/>
<text text-anchor="middle" x="23.5" y="-14.4" font-family="Helvetica,sans-Serif" font-size="12.00">main</text>
</a>
</g>
</g>
<!-- Node2&#45;&gt;Node3 -->
<g id="edge2" class="edge">
<title>Node2&#45;&gt;Node3</title>
<path fill="none" stroke="midnightblue" d="M72.63,-17.5C63.19,-17.5 54.44,-17.5 47.06,-17.5"/>
<polygon fill="midnightblue" stroke="midnightblue" points="72.7,-21 82.7,-17.5 72.7,-14 72.7,-21"/>
</g>
</g>
</svg>
