<?xml version="1.0" encoding="UTF-8" standalone="no"?>
<!DOCTYPE svg PUBLIC "-//W3C//DTD SVG 1.1//EN"
 "http://www.w3.org/Graphics/SVG/1.1/DTD/svg11.dtd">
<!-- Generated by graphviz version 2.43.0 (0)
 -->
<!-- Title: Python.CudaMarkopy.CudaModelMatrixCLI._generate Pages: 1 -->
<svg width="490pt" height="96pt"
 viewBox="0.00 0.00 490.00 96.00" xmlns="http://www.w3.org/2000/svg" xmlns:xlink="http://www.w3.org/1999/xlink">
<g id="graph0" class="graph" transform="scale(1 1) rotate(0) translate(4 92)">
<title>Python.CudaMarkopy.CudaModelMatrixCLI._generate</title>
<!-- Node1 -->
<g id="node1" class="node">
<title>Node1</title>
<g id="a_node1"><a xlink:title="wrapper for generate function.">
<polygon fill="#bfbfbf" stroke="black" points="0,-26.5 0,-60.5 213,-60.5 213,-26.5 0,-26.5"/>
<text text-anchor="start" x="8" y="-46.9" font-family="Helvetica,sans-Serif" font-size="12.00">Python.CudaMarkopy.CudaModel</text>
<text text-anchor="middle" x="106.5" y="-33.9" font-family="Helvetica,sans-Serif" font-size="12.00">MatrixCLI._generate</text>
</a>
</g>
</g>
<!-- Node2 -->
<g id="node2" class="node">
<title>Node2</title>
<g id="a_node2"><a xlink:href="class_markov_1_1_a_p_i_1_1_c_u_d_a_1_1_c_u_d_a_model_matrix.html#ac9d971ef67f5062f2fe756a7286a15b9" target="_top" xlink:title="Random walk on the Matrix&#45;reduced Markov::Model.">
<polygon fill="none" stroke="black" points="249,-53.5 249,-87.5 482,-87.5 482,-53.5 249,-53.5"/>
<text text-anchor="start" x="257" y="-73.9" font-family="Helvetica,sans-Serif" font-size="12.00">Markov::API::CUDA::</text>
<text text-anchor="middle" x="365.5" y="-60.9" font-family="Helvetica,sans-Serif" font-size="12.00">CUDAModelMatrix::FastRandomWalk</text>
</a>
</g>
</g>
<!-- Node1&#45;&gt;Node2 -->
<g id="edge1" class="edge">
<title>Node1&#45;&gt;Node2</title>
<path fill="none" stroke="midnightblue" d="M213.14,-54.6C221.6,-55.49 230.2,-56.39 238.78,-57.29"/>
<polygon fill="midnightblue" stroke="midnightblue" points="238.52,-60.78 248.83,-58.35 239.25,-53.82 238.52,-60.78"/>
</g>
<!-- Node3 -->
<g id="node3" class="node">
<title>Node3</title>
<g id="a_node3"><a xlink:href="class_markov_1_1_g_u_i_1_1_markov_passwords_g_u_i.html#a99619a46f49b909fafeaa6ac8076a333" target="_top" xlink:title=" ">
<polygon fill="none" stroke="black" points="264,-0.5 264,-34.5 467,-34.5 467,-0.5 264,-0.5"/>
<text text-anchor="start" x="272" y="-20.9" font-family="Helvetica,sans-Serif" font-size="12.00">Markov::GUI::MarkovPasswords</text>
<text text-anchor="middle" x="365.5" y="-7.9" font-family="Helvetica,sans-Serif" font-size="12.00">GUI::model</text>
</a>
</g>
</g>
<!-- Node1&#45;&gt;Node3 -->
<g id="edge2" class="edge">
<title>Node1&#45;&gt;Node3</title>
<path fill="none" stroke="midnightblue" d="M213.14,-32.81C226.49,-31.46 240.18,-30.08 253.61,-28.72"/>
<polygon fill="midnightblue" stroke="midnightblue" points="254.22,-32.17 263.82,-27.69 253.52,-25.21 254.22,-32.17"/>
</g>
</g>
</svg>
