<?xml version="1.0" encoding="UTF-8" standalone="no"?>
<!DOCTYPE svg PUBLIC "-//W3C//DTD SVG 1.1//EN"
 "http://www.w3.org/Graphics/SVG/1.1/DTD/svg11.dtd">
<!-- Generated by graphviz version 2.43.0 (0)
 -->
<!-- Title: Markov::GUI::Generate Pages: 1 -->
<svg width="162pt" height="224pt"
 viewBox="0.00 0.00 162.00 224.00" xmlns="http://www.w3.org/2000/svg" xmlns:xlink="http://www.w3.org/1999/xlink">
<g id="graph0" class="graph" transform="scale(1 1) rotate(0) translate(4 220)">
<title>Markov::GUI::Generate</title>
<!-- Node1 -->
<g id="node1" class="node">
<title>Node1</title>
<g id="a_node1"><a xlink:title="QT Generation page class.">
<polygon fill="#bfbfbf" stroke="black" points="0,-0.5 0,-115.5 154,-115.5 154,-0.5 0,-0.5"/>
<text text-anchor="middle" x="77" y="-101.9" font-family="Helvetica,sans-Serif" font-size="12.00">Markov::GUI::Generate</text>
<polyline fill="none" stroke="black" points="0,-94.5 154,-94.5 "/>
<text text-anchor="start" x="8" y="-80.9" font-family="Helvetica,sans-Serif" font-size="12.00">&#45; ui</text>
<polyline fill="none" stroke="black" points="0,-73.5 154,-73.5 "/>
<text text-anchor="start" x="8" y="-59.9" font-family="Helvetica,sans-Serif" font-size="12.00">+ Generate()</text>
<text text-anchor="start" x="8" y="-46.9" font-family="Helvetica,sans-Serif" font-size="12.00">+ home()</text>
<text text-anchor="start" x="8" y="-33.9" font-family="Helvetica,sans-Serif" font-size="12.00">+ generation()</text>
<text text-anchor="start" x="8" y="-20.9" font-family="Helvetica,sans-Serif" font-size="12.00">+ train()</text>
<text text-anchor="start" x="8" y="-7.9" font-family="Helvetica,sans-Serif" font-size="12.00">+ vis()</text>
</a>
</g>
</g>
<!-- Node2 -->
<g id="node2" class="node">
<title>Node2</title>
<g id="a_node2"><a xlink:href="class_q_main_window.html" target="_top" xlink:title=" ">
<polygon fill="none" stroke="black" points="26,-152.5 26,-215.5 128,-215.5 128,-152.5 26,-152.5"/>
<text text-anchor="middle" x="77" y="-201.9" font-family="Helvetica,sans-Serif" font-size="12.00">QMainWindow</text>
<polyline fill="none" stroke="black" points="26,-194.5 128,-194.5 "/>
<text text-anchor="middle" x="77" y="-180.9" font-family="Helvetica,sans-Serif" font-size="12.00"> </text>
<polyline fill="none" stroke="black" points="26,-173.5 128,-173.5 "/>
<text text-anchor="middle" x="77" y="-159.9" font-family="Helvetica,sans-Serif" font-size="12.00"> </text>
</a>
</g>
</g>
<!-- Node2&#45;&gt;Node1 -->
<g id="edge1" class="edge">
<title>Node2&#45;&gt;Node1</title>
<path fill="none" stroke="midnightblue" d="M77,-142.09C77,-133.7 77,-124.73 77,-115.89"/>
<polygon fill="none" stroke="midnightblue" points="73.5,-142.35 77,-152.35 80.5,-142.35 73.5,-142.35"/>
</g>
</g>
</svg>
