<?xml version="1.0" encoding="UTF-8" standalone="no"?>
<!DOCTYPE svg PUBLIC "-//W3C//DTD SVG 1.1//EN"
 "http://www.w3.org/Graphics/SVG/1.1/DTD/svg11.dtd">
<!-- Generated by graphviz version 2.43.0 (0)
 -->
<!-- Title: Markov::GUI::about Pages: 1 -->
<svg width="176pt" height="185pt"
 viewBox="0.00 0.00 175.50 185.00" xmlns="http://www.w3.org/2000/svg" xmlns:xlink="http://www.w3.org/1999/xlink">
<g id="graph0" class="graph" transform="scale(1 1) rotate(0) translate(4 181)">
<title>Markov::GUI::about</title>
<!-- Node1 -->
<g id="node1" class="node">
<title>Node1</title>
<g id="a_node1"><a xlink:title="QT Class for about page.">
<polygon fill="#bfbfbf" stroke="black" points="31,-0.5 31,-63.5 163,-63.5 163,-0.5 31,-0.5"/>
<text text-anchor="middle" x="97" y="-49.9" font-family="Helvetica,sans-Serif" font-size="12.00">Markov::GUI::about</text>
<polyline fill="none" stroke="black" points="31,-42.5 163,-42.5 "/>
<text text-anchor="middle" x="97" y="-28.9" font-family="Helvetica,sans-Serif" font-size="12.00"> </text>
<polyline fill="none" stroke="black" points="31,-21.5 163,-21.5 "/>
<text text-anchor="start" x="39" y="-7.9" font-family="Helvetica,sans-Serif" font-size="12.00">+ about()</text>
</a>
</g>
</g>
<!-- Node2 -->
<g id="node2" class="node">
<title>Node2</title>
<g id="a_node2"><a xlink:href="class_q_main_window.html" target="_top" xlink:title=" ">
<polygon fill="none" stroke="black" points="0,-113.5 0,-176.5 102,-176.5 102,-113.5 0,-113.5"/>
<text text-anchor="middle" x="51" y="-162.9" font-family="Helvetica,sans-Serif" font-size="12.00">QMainWindow</text>
<polyline fill="none" stroke="black" points="0,-155.5 102,-155.5 "/>
<text text-anchor="middle" x="51" y="-141.9" font-family="Helvetica,sans-Serif" font-size="12.00"> </text>
<polyline fill="none" stroke="black" points="0,-134.5 102,-134.5 "/>
<text text-anchor="middle" x="51" y="-120.9" font-family="Helvetica,sans-Serif" font-size="12.00"> </text>
</a>
</g>
</g>
<!-- Node2&#45;&gt;Node1 -->
<g id="edge1" class="edge">
<title>Node2&#45;&gt;Node1</title>
<path fill="none" stroke="midnightblue" d="M67.6,-103.95C73.12,-90.63 79.18,-76.01 84.35,-63.53"/>
<polygon fill="none" stroke="midnightblue" points="64.29,-102.8 63.69,-113.37 70.75,-105.48 64.29,-102.8"/>
</g>
<!-- Node3 -->
<g id="node3" class="node">
<title>Node3</title>
<g id="a_node3"><a xlink:title=" ">
<polygon fill="none" stroke="#bfbfbf" points="120.5,-113.5 120.5,-176.5 167.5,-176.5 167.5,-113.5 120.5,-113.5"/>
<text text-anchor="middle" x="144" y="-162.9" font-family="Helvetica,sans-Serif" font-size="12.00">main</text>
<polyline fill="none" stroke="#bfbfbf" points="120.5,-155.5 167.5,-155.5 "/>
<text text-anchor="middle" x="144" y="-141.9" font-family="Helvetica,sans-Serif" font-size="12.00"> </text>
<polyline fill="none" stroke="#bfbfbf" points="120.5,-134.5 167.5,-134.5 "/>
<text text-anchor="middle" x="144" y="-120.9" font-family="Helvetica,sans-Serif" font-size="12.00"> </text>
</a>
</g>
</g>
<!-- Node3&#45;&gt;Node1 -->
<g id="edge2" class="edge">
<title>Node3&#45;&gt;Node1</title>
<path fill="none" stroke="#404040" d="M131.03,-113.37C126,-101.49 120.15,-87.68 114.74,-74.89"/>
<polygon fill="none" stroke="#404040" points="114.6,-74.58 108.58,-70.61 109.93,-63.53 115.95,-67.49 114.6,-74.58"/>
<text text-anchor="middle" x="130.5" y="-85.4" font-family="Helvetica,sans-Serif" font-size="12.00"> &#45;ui</text>
</g>
</g>
</svg>
