<?xml version="1.0" encoding="UTF-8" standalone="no"?>
<!DOCTYPE svg PUBLIC "-//W3C//DTD SVG 1.1//EN"
 "http://www.w3.org/Graphics/SVG/1.1/DTD/svg11.dtd">
<!-- Generated by graphviz version 2.43.0 (0)
 -->
<!-- Title: Markov::API::ModelMatrix::Import Pages: 1 -->
<svg width="393pt" height="137pt"
 viewBox="0.00 0.00 393.00 136.50" xmlns="http://www.w3.org/2000/svg" xmlns:xlink="http://www.w3.org/1999/xlink">
<g id="graph0" class="graph" transform="scale(1 1) rotate(0) translate(4 132.5)">
<title>Markov::API::ModelMatrix::Import</title>
<!-- Node1 -->
<g id="node1" class="node">
<title>Node1</title>
<g id="a_node1"><a xlink:title="Open a file to import with filename, and call bool Model::Import with std::ifstream.">
<polygon fill="#bfbfbf" stroke="black" points="216,-41 216,-75 385,-75 385,-41 216,-41"/>
<text text-anchor="start" x="224" y="-61.4" font-family="Helvetica,sans-Serif" font-size="12.00">Markov::API::ModelMatrix</text>
<text text-anchor="middle" x="300.5" y="-48.4" font-family="Helvetica,sans-Serif" font-size="12.00">::Import</text>
</a>
</g>
</g>
<!-- Node2 -->
<g id="node2" class="node">
<title>Node2</title>
<g id="a_node2"><a xlink:href="namespace_markov_1_1_markopy_1_1_c_u_d_a.html#a584fc8e70bb6cf08f544f52805245e19" target="_top" xlink:title=" ">
<polygon fill="none" stroke="black" points="0,-94 0,-128 180,-128 180,-94 0,-94"/>
<text text-anchor="start" x="8" y="-114.4" font-family="Helvetica,sans-Serif" font-size="12.00">Markov::Markopy::CUDA</text>
<text text-anchor="middle" x="90" y="-101.4" font-family="Helvetica,sans-Serif" font-size="12.00">::BOOST_PYTHON_MODULE</text>
</a>
</g>
</g>
<!-- Node1&#45;&gt;Node2 -->
<g id="edge1" class="edge">
<title>Node1&#45;&gt;Node2</title>
<path fill="none" stroke="midnightblue" d="M222.46,-77.58C201.31,-82.96 178.54,-88.75 157.99,-93.97"/>
<polygon fill="midnightblue" stroke="midnightblue" points="223.55,-80.92 232.38,-75.06 221.83,-74.13 223.55,-80.92"/>
</g>
<!-- Node3 -->
<g id="node3" class="node">
<title>Node3</title>
<g id="a_node3"><a xlink:href="namespace_markov_1_1_markopy.html#a379628c09859652215496b63af2bcac9" target="_top" xlink:title=" ">
<polygon fill="none" stroke="black" points="5,-41 5,-75 175,-75 175,-41 5,-41"/>
<text text-anchor="start" x="13" y="-61.4" font-family="Helvetica,sans-Serif" font-size="12.00">Markov::Markopy::BOOST</text>
<text text-anchor="middle" x="90" y="-48.4" font-family="Helvetica,sans-Serif" font-size="12.00">_PYTHON_MODULE</text>
</a>
</g>
</g>
<!-- Node1&#45;&gt;Node3 -->
<g id="edge2" class="edge">
<title>Node1&#45;&gt;Node3</title>
<path fill="none" stroke="midnightblue" d="M205.8,-58C195.64,-58 185.34,-58 175.3,-58"/>
<polygon fill="midnightblue" stroke="midnightblue" points="205.9,-61.5 215.9,-58 205.9,-54.5 205.9,-61.5"/>
</g>
<!-- Node4 -->
<g id="node4" class="node">
<title>Node4</title>
<g id="a_node4"><a xlink:href="_markov_a_p_i_c_l_i_2src_2main_8cpp.html#a3c04138a5bfe5d72780bb7e82a18e627" target="_top" xlink:title="Launch CLI tool.">
<polygon fill="none" stroke="black" points="66.5,-0.5 66.5,-21.5 113.5,-21.5 113.5,-0.5 66.5,-0.5"/>
<text text-anchor="middle" x="90" y="-7.9" font-family="Helvetica,sans-Serif" font-size="12.00">main</text>
</a>
</g>
</g>
<!-- Node1&#45;&gt;Node4 -->
<g id="edge3" class="edge">
<title>Node1&#45;&gt;Node4</title>
<path fill="none" stroke="midnightblue" d="M213.78,-38.68C177.46,-30.49 138.03,-21.6 113.92,-16.17"/>
<polygon fill="midnightblue" stroke="midnightblue" points="213.41,-42.18 223.93,-40.97 214.95,-35.35 213.41,-42.18"/>
</g>
</g>
</svg>
