<?xml version="1.0" encoding="UTF-8" standalone="no"?>
<!DOCTYPE svg PUBLIC "-//W3C//DTD SVG 1.1//EN"
 "http://www.w3.org/Graphics/SVG/1.1/DTD/svg11.dtd">
<!-- Generated by graphviz version 2.43.0 (0)
 -->
<!-- Title: Markov::Random::RandomEngine Pages: 1 -->
<svg width="396pt" height="476pt"
 viewBox="0.00 0.00 395.50 476.00" xmlns="http://www.w3.org/2000/svg" xmlns:xlink="http://www.w3.org/1999/xlink">
<g id="graph0" class="graph" transform="scale(1 1) rotate(0) translate(4 472)">
<title>Markov::Random::RandomEngine</title>
<!-- Node1 -->
<g id="node1" class="node">
<title>Node1</title>
<g id="a_node1"><a xlink:title="An abstract class for Random Engine.">
<polygon fill="#bfbfbf" stroke="black" points="84.5,-404.5 84.5,-467.5 301.5,-467.5 301.5,-404.5 84.5,-404.5"/>
<text text-anchor="middle" x="193" y="-453.9" font-family="Helvetica,sans-Serif" font-size="12.00">Markov::Random::RandomEngine</text>
<polyline fill="none" stroke="black" points="84.5,-446.5 301.5,-446.5 "/>
<text text-anchor="middle" x="193" y="-432.9" font-family="Helvetica,sans-Serif" font-size="12.00"> </text>
<polyline fill="none" stroke="black" points="84.5,-425.5 301.5,-425.5 "/>
<text text-anchor="start" x="92.5" y="-411.9" font-family="Helvetica,sans-Serif" font-size="12.00">+ random()</text>
</a>
</g>
</g>
<!-- Node2 -->
<g id="node2" class="node">
<title>Node2</title>
<g id="a_node2"><a xlink:href="class_markov_1_1_random_1_1_default_random_engine.html" target="_top" xlink:title="Implementation using Random.h default random engine.">
<polygon fill="none" stroke="black" points="83,-252.5 83,-367.5 303,-367.5 303,-252.5 83,-252.5"/>
<text text-anchor="start" x="91" y="-353.9" font-family="Helvetica,sans-Serif" font-size="12.00">Markov::Random::DefaultRandom</text>
<text text-anchor="middle" x="193" y="-340.9" font-family="Helvetica,sans-Serif" font-size="12.00">Engine</text>
<polyline fill="none" stroke="black" points="83,-333.5 303,-333.5 "/>
<text text-anchor="middle" x="193" y="-319.9" font-family="Helvetica,sans-Serif" font-size="12.00"> </text>
<polyline fill="none" stroke="black" points="83,-312.5 303,-312.5 "/>
<text text-anchor="start" x="91" y="-298.9" font-family="Helvetica,sans-Serif" font-size="12.00">+ random()</text>
<text text-anchor="start" x="91" y="-285.9" font-family="Helvetica,sans-Serif" font-size="12.00"># rd()</text>
<text text-anchor="start" x="91" y="-272.9" font-family="Helvetica,sans-Serif" font-size="12.00"># generator()</text>
<text text-anchor="start" x="91" y="-259.9" font-family="Helvetica,sans-Serif" font-size="12.00"># distribution()</text>
</a>
</g>
</g>
<!-- Node1&#45;&gt;Node2 -->
<g id="edge1" class="edge">
<title>Node1&#45;&gt;Node2</title>
<path fill="none" stroke="midnightblue" d="M193,-394.09C193,-385.7 193,-376.73 193,-367.89"/>
<polygon fill="none" stroke="midnightblue" points="189.5,-394.35 193,-404.35 196.5,-394.35 189.5,-394.35"/>
</g>
<!-- Node3 -->
<g id="node3" class="node">
<title>Node3</title>
<g id="a_node3"><a xlink:href="class_markov_1_1_random_1_1_marsaglia.html" target="_top" xlink:title="Implementation of Marsaglia Random Engine.">
<polygon fill="none" stroke="black" points="0,-113.5 0,-215.5 184,-215.5 184,-113.5 0,-113.5"/>
<text text-anchor="middle" x="92" y="-201.9" font-family="Helvetica,sans-Serif" font-size="12.00">Markov::Random::Marsaglia</text>
<polyline fill="none" stroke="black" points="0,-194.5 184,-194.5 "/>
<text text-anchor="start" x="8" y="-180.9" font-family="Helvetica,sans-Serif" font-size="12.00">+ x</text>
<text text-anchor="start" x="8" y="-167.9" font-family="Helvetica,sans-Serif" font-size="12.00">+ y</text>
<text text-anchor="start" x="8" y="-154.9" font-family="Helvetica,sans-Serif" font-size="12.00">+ z</text>
<polyline fill="none" stroke="black" points="0,-147.5 184,-147.5 "/>
<text text-anchor="start" x="8" y="-133.9" font-family="Helvetica,sans-Serif" font-size="12.00">+ Marsaglia()</text>
<text text-anchor="start" x="8" y="-120.9" font-family="Helvetica,sans-Serif" font-size="12.00">+ random()</text>
</a>
</g>
</g>
<!-- Node2&#45;&gt;Node3 -->
<g id="edge2" class="edge">
<title>Node2&#45;&gt;Node3</title>
<path fill="none" stroke="midnightblue" d="M147.26,-244.01C140.58,-234.53 133.8,-224.89 127.37,-215.76"/>
<polygon fill="none" stroke="midnightblue" points="144.46,-246.12 153.08,-252.29 150.19,-242.09 144.46,-246.12"/>
</g>
<!-- Node5 -->
<g id="node5" class="node">
<title>Node5</title>
<g id="a_node5"><a xlink:href="class_markov_1_1_random_1_1_mersenne.html" target="_top" xlink:title="Implementation of Mersenne Twister Engine.">
<polygon fill="none" stroke="black" points="202.5,-133 202.5,-196 387.5,-196 387.5,-133 202.5,-133"/>
<text text-anchor="middle" x="295" y="-182.4" font-family="Helvetica,sans-Serif" font-size="12.00">Markov::Random::Mersenne</text>
<polyline fill="none" stroke="black" points="202.5,-175 387.5,-175 "/>
<text text-anchor="middle" x="295" y="-161.4" font-family="Helvetica,sans-Serif" font-size="12.00"> </text>
<polyline fill="none" stroke="black" points="202.5,-154 387.5,-154 "/>
<text text-anchor="middle" x="295" y="-140.4" font-family="Helvetica,sans-Serif" font-size="12.00"> </text>
</a>
</g>
</g>
<!-- Node2&#45;&gt;Node5 -->
<g id="edge4" class="edge">
<title>Node2&#45;&gt;Node5</title>
<path fill="none" stroke="midnightblue" d="M239.42,-243.69C251.18,-227.15 263.27,-210.14 273.16,-196.23"/>
<polygon fill="none" stroke="midnightblue" points="236.25,-242.11 233.31,-252.29 241.96,-246.16 236.25,-242.11"/>
</g>
<!-- Node4 -->
<g id="node4" class="node">
<title>Node4</title>
<g id="a_node4"><a xlink:href="class_markov_1_1_a_p_i_1_1_c_u_d_a_1_1_random_1_1_marsaglia.html" target="_top" xlink:title="Extension of Markov::Random::Marsaglia which is capable o working on device space.">
<polygon fill="none" stroke="black" points="23.5,-0.5 23.5,-76.5 160.5,-76.5 160.5,-0.5 23.5,-0.5"/>
<text text-anchor="start" x="31.5" y="-62.9" font-family="Helvetica,sans-Serif" font-size="12.00">Markov::API::CUDA::</text>
<text text-anchor="middle" x="92" y="-49.9" font-family="Helvetica,sans-Serif" font-size="12.00">Random::Marsaglia</text>
<polyline fill="none" stroke="black" points="23.5,-42.5 160.5,-42.5 "/>
<text text-anchor="middle" x="92" y="-28.9" font-family="Helvetica,sans-Serif" font-size="12.00"> </text>
<polyline fill="none" stroke="black" points="23.5,-21.5 160.5,-21.5 "/>
<text text-anchor="start" x="31.5" y="-7.9" font-family="Helvetica,sans-Serif" font-size="12.00">+ MigrateToVRAM()</text>
</a>
</g>
</g>
<!-- Node3&#45;&gt;Node4 -->
<g id="edge3" class="edge">
<title>Node3&#45;&gt;Node4</title>
<path fill="none" stroke="midnightblue" d="M92,-103.28C92,-94.25 92,-85.16 92,-76.79"/>
<polygon fill="none" stroke="midnightblue" points="88.5,-103.42 92,-113.42 95.5,-103.42 88.5,-103.42"/>
</g>
</g>
</svg>
