<?xml version="1.0" encoding="UTF-8" standalone="no"?>
<!DOCTYPE svg PUBLIC "-//W3C//DTD SVG 1.1//EN"
 "http://www.w3.org/Graphics/SVG/1.1/DTD/svg11.dtd">
<!-- Generated by graphviz version 2.43.0 (0)
 -->
<!-- Title: Markov::API::CLI::Argparse Pages: 1 -->
<!--zoomable 594 -->
<svg id="main" version="1.1" xmlns="http://www.w3.org/2000/svg" xmlns:xlink="http://www.w3.org/1999/xlink" xml:space="preserve" onload="init(evt)">
<style type="text/css"><![CDATA[
.edge:hover path { stroke: red; }
.edge:hover polygon { stroke: red; fill: red; }
]]></style>
<script type="text/javascript"><![CDATA[
var edges = document.getElementsByTagName('g');
if (edges && edges.length) {
  for (var i=0;i<edges.length;i++) {
    if (edges[i].id.substr(0,4)=='edge') {
      edges[i].setAttribute('class','edge');
    }
  }
}
]]></script>
        <defs>
                <circle id="rim" cx="0" cy="0" r="7"/>
                <circle id="rim2" cx="0" cy="0" r="3.5"/>
                <g id="zoomPlus">
                        <use xlink:href="#rim" fill="#404040">
                                <set attributeName="fill" to="#808080" begin="zoomplus.mouseover" end="zoomplus.mouseout"/>
                        </use>
                        <path d="M-4,0h8M0,-4v8" fill="none" stroke="white" stroke-width="1.5" pointer-events="none"/>
                </g>
                <g id="zoomMin">
                        <use xlink:href="#rim" fill="#404040">
                                <set attributeName="fill" to="#808080" begin="zoomminus.mouseover" end="zoomminus.mouseout"/>
                        </use>
                        <path d="M-4,0h8" fill="none" stroke="white" stroke-width="1.5" pointer-events="none"/>
                </g>
                <g id="dirArrow">
                        <path fill="none" stroke="white" stroke-width="1.5" d="M0,-3.0v7 M-2.5,-0.5L0,-3.0L2.5,-0.5"/>
                </g>
               <g id="resetDef">
                       <use xlink:href="#rim2" fill="#404040">
                               <set attributeName="fill" to="#808080" begin="reset.mouseover" end="reset.mouseout"/>
                       </use>
               </g>
        </defs>

<script type="text/javascript">
var viewWidth = 198;
var viewHeight = 594;
var sectionId = 'dynsection-0';
</script>
<script xlink:href="svgpan.js"/>
<svg id="graph" class="graph">
<g id="viewport">
<title>Markov::API::CLI::Argparse</title>
<!-- Node1 -->
<g id="node1" class="node">
<title>Node1</title>
<g id="a_node1"><a xlink:title="Parse command line arguements.">
<polygon fill="#bfbfbf" stroke="black" points="0,-0.5 0,-128.5 176,-128.5 176,-0.5 0,-0.5"/>
<text text-anchor="middle" x="88" y="-114.9" font-family="Helvetica,sans-Serif" font-size="12.00">Markov::API::CLI::Argparse</text>
<polyline fill="none" stroke="black" points="0,-107.5 176,-107.5 "/>
<text text-anchor="middle" x="88" y="-93.9" font-family="Helvetica,sans-Serif" font-size="12.00"> </text>
<polyline fill="none" stroke="black" points="0,-86.5 176,-86.5 "/>
<text text-anchor="start" x="8" y="-72.9" font-family="Helvetica,sans-Serif" font-size="12.00">+ Argparse()</text>
<text text-anchor="start" x="8" y="-59.9" font-family="Helvetica,sans-Serif" font-size="12.00">+ Argparse()</text>
<text text-anchor="start" x="8" y="-46.9" font-family="Helvetica,sans-Serif" font-size="12.00">+ getProgramOptions()</text>
<text text-anchor="start" x="8" y="-33.9" font-family="Helvetica,sans-Serif" font-size="12.00">+ setProgramOptions()</text>
<text text-anchor="start" x="8" y="-20.9" font-family="Helvetica,sans-Serif" font-size="12.00">+ parse()</text>
<text text-anchor="start" x="8" y="-7.9" font-family="Helvetica,sans-Serif" font-size="12.00">+ help()</text>
</a>
</g>
</g>
<!-- Node2 -->
<g id="node2" class="node">
<title>Node2</title>
<g id="a_node2"><a xlink:href="struct_markov_1_1_a_p_i_1_1_c_l_i_1_1__program_options.html" target="_top" xlink:title="Structure to hold parsed cli arguements.">
<polygon fill="none" stroke="black" points="27,-178.5 27,-306.5 149,-306.5 149,-178.5 27,-178.5"/>
<text text-anchor="start" x="35" y="-292.9" font-family="Helvetica,sans-Serif" font-size="12.00">Markov::API::CLI::</text>
<text text-anchor="middle" x="88" y="-279.9" font-family="Helvetica,sans-Serif" font-size="12.00">_programOptions</text>
<polyline fill="none" stroke="black" points="27,-272.5 149,-272.5 "/>
<text text-anchor="start" x="35" y="-258.9" font-family="Helvetica,sans-Serif" font-size="12.00">+ bImport</text>
<text text-anchor="start" x="35" y="-245.9" font-family="Helvetica,sans-Serif" font-size="12.00">+ bExport</text>
<text text-anchor="start" x="35" y="-232.9" font-family="Helvetica,sans-Serif" font-size="12.00">+ bFailure</text>
<text text-anchor="start" x="35" y="-219.9" font-family="Helvetica,sans-Serif" font-size="12.00">+ seperator</text>
<text text-anchor="start" x="35" y="-206.9" font-family="Helvetica,sans-Serif" font-size="12.00">+ generateN</text>
<polyline fill="none" stroke="black" points="27,-199.5 149,-199.5 "/>
<text text-anchor="middle" x="88" y="-185.9" font-family="Helvetica,sans-Serif" font-size="12.00"> </text>
</a>
</g>
</g>
<!-- Node2&#45;&gt;Node1 -->
<g id="edge1" class="edge">
<title>Node2&#45;&gt;Node1</title>
<path fill="none" stroke="#404040" d="M88,-178.46C88,-166.32 88,-153.5 88,-141.02"/>
<polygon fill="none" stroke="#404040" points="88,-140.69 84,-134.69 88,-128.69 92,-134.69 88,-140.69"/>
<text text-anchor="middle" x="100" y="-150.4" font-family="Helvetica,sans-Serif" font-size="12.00"> &#45;po</text>
</g>
<!-- Node3 -->
<g id="node3" class="node">
<title>Node3</title>
<g id="a_node3"><a xlink:title="STL class.">
<polygon fill="none" stroke="#bfbfbf" points="50,-408.5 50,-471.5 126,-471.5 126,-408.5 50,-408.5"/>
<text text-anchor="middle" x="88" y="-457.9" font-family="Helvetica,sans-Serif" font-size="12.00">std::string</text>
<polyline fill="none" stroke="#bfbfbf" points="50,-450.5 126,-450.5 "/>
<text text-anchor="middle" x="88" y="-436.9" font-family="Helvetica,sans-Serif" font-size="12.00"> </text>
<polyline fill="none" stroke="#bfbfbf" points="50,-429.5 126,-429.5 "/>
<text text-anchor="middle" x="88" y="-415.9" font-family="Helvetica,sans-Serif" font-size="12.00"> </text>
</a>
</g>
</g>
<!-- Node3&#45;&gt;Node2 -->
<g id="edge2" class="edge">
<title>Node3&#45;&gt;Node2</title>
<path fill="none" stroke="#404040" d="M88,-408.45C88,-384.47 88,-350.02 88,-318.8"/>
<polygon fill="none" stroke="#404040" points="88,-318.57 84,-312.57 88,-306.57 92,-312.57 88,-318.57"/>
<text text-anchor="middle" x="139" y="-380.4" font-family="Helvetica,sans-Serif" font-size="12.00"> +importname</text>
<text text-anchor="middle" x="139" y="-367.4" font-family="Helvetica,sans-Serif" font-size="12.00">+outputfilename</text>
<text text-anchor="middle" x="139" y="-354.4" font-family="Helvetica,sans-Serif" font-size="12.00">+exportname</text>
<text text-anchor="middle" x="139" y="-341.4" font-family="Helvetica,sans-Serif" font-size="12.00">+datasetname</text>
<text text-anchor="middle" x="139" y="-328.4" font-family="Helvetica,sans-Serif" font-size="12.00">+wordlistname</text>
</g>
<!-- Node4 -->
<g id="node4" class="node">
<title>Node4</title>
<g id="a_node4"><a xlink:title="STL class.">
<polygon fill="none" stroke="#bfbfbf" points="27,-509.5 27,-585.5 149,-585.5 149,-509.5 27,-509.5"/>
<text text-anchor="start" x="35" y="-571.9" font-family="Helvetica,sans-Serif" font-size="12.00">std::basic_string&lt;</text>
<text text-anchor="middle" x="88" y="-558.9" font-family="Helvetica,sans-Serif" font-size="12.00"> char &gt;</text>
<polyline fill="none" stroke="#bfbfbf" points="27,-551.5 149,-551.5 "/>
<text text-anchor="middle" x="88" y="-537.9" font-family="Helvetica,sans-Serif" font-size="12.00"> </text>
<polyline fill="none" stroke="#bfbfbf" points="27,-530.5 149,-530.5 "/>
<text text-anchor="middle" x="88" y="-516.9" font-family="Helvetica,sans-Serif" font-size="12.00"> </text>
</a>
</g>
</g>
<!-- Node4&#45;&gt;Node3 -->
<g id="edge3" class="edge">
<title>Node4&#45;&gt;Node3</title>
<path fill="none" stroke="midnightblue" d="M88,-499.26C88,-489.87 88,-480.25 88,-471.59"/>
<polygon fill="none" stroke="midnightblue" points="84.5,-499.3 88,-509.3 91.5,-499.3 84.5,-499.3"/>
</g>
</g>
</svg>
        <g id="navigator" transform="translate(0 0)" fill="#404254">
                <rect fill="#f2f5e9" fill-opacity="0.5" stroke="#606060" stroke-width=".5" x="0" y="0" width="60" height="60"/>
                <use id="zoomplus" xlink:href="#zoomPlus" x="17" y="9" onmousedown="handleZoom(evt,'in')"/>
                <use id="zoomminus" xlink:href="#zoomMin" x="42" y="9" onmousedown="handleZoom(evt,'out')"/>
                <use id="reset" xlink:href="#resetDef" x="30" y="36" onmousedown="handleReset()"/>
                <g id="arrowUp" xlink:href="#dirArrow" transform="translate(30 24)" onmousedown="handlePan(0,-1)">
                  <use xlink:href="#rim" fill="#404040">
                        <set attributeName="fill" to="#808080" begin="arrowUp.mouseover" end="arrowUp.mouseout"/>
                  </use>
                  <path fill="none" stroke="white" stroke-width="1.5" d="M0,-3.0v7 M-2.5,-0.5L0,-3.0L2.5,-0.5"/>
                </g>
                <g id="arrowRight" xlink:href="#dirArrow" transform="rotate(90) translate(36 -43)" onmousedown="handlePan(1,0)">
                  <use xlink:href="#rim" fill="#404040">
                        <set attributeName="fill" to="#808080" begin="arrowRight.mouseover" end="arrowRight.mouseout"/>
                  </use>
                  <path fill="none" stroke="white" stroke-width="1.5" d="M0,-3.0v7 M-2.5,-0.5L0,-3.0L2.5,-0.5"/>
                </g>
                <g id="arrowDown" xlink:href="#dirArrow" transform="rotate(180) translate(-30 -48)" onmousedown="handlePan(0,1)">
                  <use xlink:href="#rim" fill="#404040">
                        <set attributeName="fill" to="#808080" begin="arrowDown.mouseover" end="arrowDown.mouseout"/>
                  </use>
                  <path fill="none" stroke="white" stroke-width="1.5" d="M0,-3.0v7 M-2.5,-0.5L0,-3.0L2.5,-0.5"/>
                </g>
                <g id="arrowLeft" xlink:href="#dirArrow" transform="rotate(270) translate(-36 17)" onmousedown="handlePan(-1,0)">
                  <use xlink:href="#rim" fill="#404040">
                        <set attributeName="fill" to="#808080" begin="arrowLeft.mouseover" end="arrowLeft.mouseout"/>
                  </use>
                  <path fill="none" stroke="white" stroke-width="1.5" d="M0,-3.0v7 M-2.5,-0.5L0,-3.0L2.5,-0.5"/>
                </g>
        </g>
        <svg viewBox="0 0 15 15" width="100%" height="30px" preserveAspectRatio="xMaxYMin meet">
         <g id="arrow_out" transform="scale(0.3 0.3)">
          <a xlink:href="class_markov_1_1_a_p_i_1_1_c_l_i_1_1_argparse__coll__graph_org.svg" target="_base">
           <rect id="button" ry="5" rx="5" y="6" x="6" height="38" width="38"
                fill="#f2f5e9" fill-opacity="0.5" stroke="#606060" stroke-width="1.0"/>
           <path id="arrow"
             d="M 11.500037,31.436501 C 11.940474,20.09759 22.043105,11.32322 32.158766,21.979434 L 37.068811,17.246167 C 37.068811,17.246167 37.088388,32 37.088388,32 L 22.160133,31.978069 C 22.160133,31.978069 26.997745,27.140456 26.997745,27.140456 C 18.528582,18.264221 13.291696,25.230495 11.500037,31.436501 z"
             style="fill:#404040;"/>
          </a>
         </g>
        </svg>
</svg>
