<?xml version="1.0" encoding="UTF-8" standalone="no"?>
<!DOCTYPE svg PUBLIC "-//W3C//DTD SVG 1.1//EN"
 "http://www.w3.org/Graphics/SVG/1.1/DTD/svg11.dtd">
<!-- Generated by graphviz version 2.43.0 (0)
 -->
<!-- Title: Markov::API::CUDA::CUDAModelMatrix Pages: 1 -->
<svg width="379pt" height="1099pt"
 viewBox="0.00 0.00 379.00 1099.00" xmlns="http://www.w3.org/2000/svg" xmlns:xlink="http://www.w3.org/1999/xlink">
<g id="graph0" class="graph" transform="scale(1 1) rotate(0) translate(4 1095)">
<title>Markov::API::CUDA::CUDAModelMatrix</title>
<!-- Node1 -->
<g id="node1" class="node">
<title>Node1</title>
<g id="a_node1"><a xlink:title="Extension of Markov::API::ModelMatrix which is modified to run on GPU devices.">
<polygon fill="#bfbfbf" stroke="black" points="109.5,-0.5 109.5,-141.5 282.5,-141.5 282.5,-0.5 109.5,-0.5"/>
<text text-anchor="start" x="117.5" y="-127.9" font-family="Helvetica,sans-Serif" font-size="12.00">Markov::API::CUDA::</text>
<text text-anchor="middle" x="196" y="-114.9" font-family="Helvetica,sans-Serif" font-size="12.00">CUDAModelMatrix</text>
<polyline fill="none" stroke="black" points="109.5,-107.5 282.5,-107.5 "/>
<text text-anchor="start" x="117.5" y="-93.9" font-family="Helvetica,sans-Serif" font-size="12.00">&#45; device_edgeMatrix</text>
<text text-anchor="start" x="117.5" y="-80.9" font-family="Helvetica,sans-Serif" font-size="12.00">&#45; device_valueMatrix</text>
<text text-anchor="start" x="117.5" y="-67.9" font-family="Helvetica,sans-Serif" font-size="12.00">&#45; device_matrixIndex</text>
<text text-anchor="start" x="117.5" y="-54.9" font-family="Helvetica,sans-Serif" font-size="12.00">&#45; device_totalEdgeWeights</text>
<polyline fill="none" stroke="black" points="109.5,-47.5 282.5,-47.5 "/>
<text text-anchor="start" x="117.5" y="-33.9" font-family="Helvetica,sans-Serif" font-size="12.00">+ MigrateMatrix()</text>
<text text-anchor="start" x="117.5" y="-20.9" font-family="Helvetica,sans-Serif" font-size="12.00">+ FastRandomWalk()</text>
<text text-anchor="start" x="117.5" y="-7.9" font-family="Helvetica,sans-Serif" font-size="12.00"># RetrieveCudaBuffer()</text>
</a>
</g>
</g>
<!-- Node2 -->
<g id="node2" class="node">
<title>Node2</title>
<g id="a_node2"><a xlink:href="class_markov_1_1_a_p_i_1_1_model_matrix.html" target="_top" xlink:title="Class to flatten and reduce Markov::Model to a Matrix.">
<polygon fill="none" stroke="black" points="5.5,-179.5 5.5,-359.5 194.5,-359.5 194.5,-179.5 5.5,-179.5"/>
<text text-anchor="middle" x="100" y="-345.9" font-family="Helvetica,sans-Serif" font-size="12.00">Markov::API::ModelMatrix</text>
<polyline fill="none" stroke="black" points="5.5,-338.5 194.5,-338.5 "/>
<text text-anchor="start" x="13.5" y="-324.9" font-family="Helvetica,sans-Serif" font-size="12.00"># edgeMatrix</text>
<text text-anchor="start" x="13.5" y="-311.9" font-family="Helvetica,sans-Serif" font-size="12.00"># valueMatrix</text>
<text text-anchor="start" x="13.5" y="-298.9" font-family="Helvetica,sans-Serif" font-size="12.00"># matrixSize</text>
<text text-anchor="start" x="13.5" y="-285.9" font-family="Helvetica,sans-Serif" font-size="12.00"># matrixIndex</text>
<text text-anchor="start" x="13.5" y="-272.9" font-family="Helvetica,sans-Serif" font-size="12.00"># totalEdgeWeights</text>
<polyline fill="none" stroke="black" points="5.5,-265.5 194.5,-265.5 "/>
<text text-anchor="start" x="13.5" y="-251.9" font-family="Helvetica,sans-Serif" font-size="12.00">+ ModelMatrix()</text>
<text text-anchor="start" x="13.5" y="-238.9" font-family="Helvetica,sans-Serif" font-size="12.00">+ ConstructMatrix()</text>
<text text-anchor="start" x="13.5" y="-225.9" font-family="Helvetica,sans-Serif" font-size="12.00">+ DumpJSON()</text>
<text text-anchor="start" x="13.5" y="-212.9" font-family="Helvetica,sans-Serif" font-size="12.00">+ FastRandomWalk()</text>
<text text-anchor="start" x="13.5" y="-199.9" font-family="Helvetica,sans-Serif" font-size="12.00"># FastRandomWalkPartition()</text>
<text text-anchor="start" x="13.5" y="-186.9" font-family="Helvetica,sans-Serif" font-size="12.00"># FastRandomWalkThread()</text>
</a>
</g>
</g>
<!-- Node2&#45;&gt;Node1 -->
<g id="edge1" class="edge">
<title>Node2&#45;&gt;Node1</title>
<path fill="none" stroke="midnightblue" d="M148.02,-170.2C152.74,-160.55 157.46,-150.89 161.99,-141.61"/>
<polygon fill="none" stroke="midnightblue" points="144.75,-168.93 143.51,-179.45 151.04,-172 144.75,-168.93"/>
</g>
<!-- Node3 -->
<g id="node3" class="node">
<title>Node3</title>
<g id="a_node3"><a xlink:href="class_markov_1_1_a_p_i_1_1_markov_passwords.html" target="_top" xlink:title="Markov::Model with char represented nodes.">
<polygon fill="none" stroke="black" points="0,-397.5 0,-577.5 200,-577.5 200,-397.5 0,-397.5"/>
<text text-anchor="middle" x="100" y="-563.9" font-family="Helvetica,sans-Serif" font-size="12.00">Markov::API::MarkovPasswords</text>
<polyline fill="none" stroke="black" points="0,-556.5 200,-556.5 "/>
<text text-anchor="start" x="8" y="-542.9" font-family="Helvetica,sans-Serif" font-size="12.00">&#45; datasetFile</text>
<text text-anchor="start" x="8" y="-529.9" font-family="Helvetica,sans-Serif" font-size="12.00">&#45; modelSavefile</text>
<text text-anchor="start" x="8" y="-516.9" font-family="Helvetica,sans-Serif" font-size="12.00">&#45; outputFile</text>
<polyline fill="none" stroke="black" points="0,-509.5 200,-509.5 "/>
<text text-anchor="start" x="8" y="-495.9" font-family="Helvetica,sans-Serif" font-size="12.00">+ MarkovPasswords()</text>
<text text-anchor="start" x="8" y="-482.9" font-family="Helvetica,sans-Serif" font-size="12.00">+ MarkovPasswords()</text>
<text text-anchor="start" x="8" y="-469.9" font-family="Helvetica,sans-Serif" font-size="12.00">+ OpenDatasetFile()</text>
<text text-anchor="start" x="8" y="-456.9" font-family="Helvetica,sans-Serif" font-size="12.00">+ Train()</text>
<text text-anchor="start" x="8" y="-443.9" font-family="Helvetica,sans-Serif" font-size="12.00">+ Save()</text>
<text text-anchor="start" x="8" y="-430.9" font-family="Helvetica,sans-Serif" font-size="12.00">+ Generate()</text>
<text text-anchor="start" x="8" y="-417.9" font-family="Helvetica,sans-Serif" font-size="12.00">&#45; TrainThread()</text>
<text text-anchor="start" x="8" y="-404.9" font-family="Helvetica,sans-Serif" font-size="12.00">&#45; GenerateThread()</text>
</a>
</g>
</g>
<!-- Node3&#45;&gt;Node2 -->
<g id="edge2" class="edge">
<title>Node3&#45;&gt;Node2</title>
<path fill="none" stroke="midnightblue" d="M100,-387.13C100,-378 100,-368.78 100,-359.75"/>
<polygon fill="none" stroke="midnightblue" points="96.5,-387.4 100,-397.4 103.5,-387.4 96.5,-387.4"/>
</g>
<!-- Node4 -->
<g id="node4" class="node">
<title>Node4</title>
<g id="a_node4"><a xlink:href="class_markov_1_1_model.html" target="_top" xlink:title=" ">
<polygon fill="none" stroke="black" points="21,-615.5 21,-821.5 179,-821.5 179,-615.5 21,-615.5"/>
<text text-anchor="middle" x="100" y="-807.9" font-family="Helvetica,sans-Serif" font-size="12.00">Markov::Model&lt; char &gt;</text>
<polyline fill="none" stroke="black" points="21,-800.5 179,-800.5 "/>
<text text-anchor="start" x="29" y="-786.9" font-family="Helvetica,sans-Serif" font-size="12.00">&#45; nodes</text>
<text text-anchor="start" x="29" y="-773.9" font-family="Helvetica,sans-Serif" font-size="12.00">&#45; starterNode</text>
<text text-anchor="start" x="29" y="-760.9" font-family="Helvetica,sans-Serif" font-size="12.00">&#45; edges</text>
<polyline fill="none" stroke="black" points="21,-753.5 179,-753.5 "/>
<text text-anchor="start" x="29" y="-739.9" font-family="Helvetica,sans-Serif" font-size="12.00">+ Model()</text>
<text text-anchor="start" x="29" y="-726.9" font-family="Helvetica,sans-Serif" font-size="12.00">+ RandomWalk()</text>
<text text-anchor="start" x="29" y="-713.9" font-family="Helvetica,sans-Serif" font-size="12.00">+ AdjustEdge()</text>
<text text-anchor="start" x="29" y="-700.9" font-family="Helvetica,sans-Serif" font-size="12.00">+ Import()</text>
<text text-anchor="start" x="29" y="-687.9" font-family="Helvetica,sans-Serif" font-size="12.00">+ Import()</text>
<text text-anchor="start" x="29" y="-674.9" font-family="Helvetica,sans-Serif" font-size="12.00">+ Export()</text>
<text text-anchor="start" x="29" y="-661.9" font-family="Helvetica,sans-Serif" font-size="12.00">+ Export()</text>
<text text-anchor="start" x="29" y="-648.9" font-family="Helvetica,sans-Serif" font-size="12.00">+ StarterNode()</text>
<text text-anchor="start" x="29" y="-635.9" font-family="Helvetica,sans-Serif" font-size="12.00">+ Edges()</text>
<text text-anchor="start" x="29" y="-622.9" font-family="Helvetica,sans-Serif" font-size="12.00">+ Nodes()</text>
</a>
</g>
</g>
<!-- Node4&#45;&gt;Node3 -->
<g id="edge3" class="edge">
<title>Node4&#45;&gt;Node3</title>
<path fill="none" stroke="midnightblue" d="M100,-605.38C100,-596.14 100,-586.87 100,-577.83"/>
<polygon fill="none" stroke="midnightblue" points="96.5,-605.39 100,-615.39 103.5,-605.39 96.5,-605.39"/>
</g>
<!-- Node5 -->
<g id="node5" class="node">
<title>Node5</title>
<g id="a_node5"><a xlink:href="class_markov_1_1_model.html" target="_top" xlink:title="class for the final Markov Model, constructed from nodes and edges.">
<polygon fill="none" stroke="black" points="1.5,-871.5 1.5,-1090.5 198.5,-1090.5 198.5,-871.5 1.5,-871.5"/>
<text text-anchor="start" x="9.5" y="-1076.9" font-family="Helvetica,sans-Serif" font-size="12.00">Markov::Model&lt; NodeStorage</text>
<text text-anchor="middle" x="100" y="-1063.9" font-family="Helvetica,sans-Serif" font-size="12.00">Type &gt;</text>
<polyline fill="none" stroke="black" points="1.5,-1056.5 198.5,-1056.5 "/>
<text text-anchor="start" x="9.5" y="-1042.9" font-family="Helvetica,sans-Serif" font-size="12.00">&#45; nodes</text>
<text text-anchor="start" x="9.5" y="-1029.9" font-family="Helvetica,sans-Serif" font-size="12.00">&#45; starterNode</text>
<text text-anchor="start" x="9.5" y="-1016.9" font-family="Helvetica,sans-Serif" font-size="12.00">&#45; edges</text>
<polyline fill="none" stroke="black" points="1.5,-1009.5 198.5,-1009.5 "/>
<text text-anchor="start" x="9.5" y="-995.9" font-family="Helvetica,sans-Serif" font-size="12.00">+ Model()</text>
<text text-anchor="start" x="9.5" y="-982.9" font-family="Helvetica,sans-Serif" font-size="12.00">+ RandomWalk()</text>
<text text-anchor="start" x="9.5" y="-969.9" font-family="Helvetica,sans-Serif" font-size="12.00">+ AdjustEdge()</text>
<text text-anchor="start" x="9.5" y="-956.9" font-family="Helvetica,sans-Serif" font-size="12.00">+ Import()</text>
<text text-anchor="start" x="9.5" y="-943.9" font-family="Helvetica,sans-Serif" font-size="12.00">+ Import()</text>
<text text-anchor="start" x="9.5" y="-930.9" font-family="Helvetica,sans-Serif" font-size="12.00">+ Export()</text>
<text text-anchor="start" x="9.5" y="-917.9" font-family="Helvetica,sans-Serif" font-size="12.00">+ Export()</text>
<text text-anchor="start" x="9.5" y="-904.9" font-family="Helvetica,sans-Serif" font-size="12.00">+ StarterNode()</text>
<text text-anchor="start" x="9.5" y="-891.9" font-family="Helvetica,sans-Serif" font-size="12.00">+ Edges()</text>
<text text-anchor="start" x="9.5" y="-878.9" font-family="Helvetica,sans-Serif" font-size="12.00">+ Nodes()</text>
</a>
</g>
</g>
<!-- Node5&#45;&gt;Node4 -->
<g id="edge4" class="edge">
<title>Node5&#45;&gt;Node4</title>
<path fill="none" stroke="orange" d="M100,-861.32C100,-848.08 100,-834.67 100,-821.66"/>
<polygon fill="orange" stroke="orange" points="96.5,-861.41 100,-871.41 103.5,-861.41 96.5,-861.41"/>
<text text-anchor="middle" x="129" y="-843.4" font-family="Helvetica,sans-Serif" font-size="12.00"> &lt; char &gt;</text>
</g>
<!-- Node6 -->
<g id="node6" class="node">
<title>Node6</title>
<g id="a_node6"><a xlink:href="class_markov_1_1_a_p_i_1_1_c_u_d_a_1_1_c_u_d_a_device_controller.html" target="_top" xlink:title="Controller class for CUDA device.">
<polygon fill="none" stroke="black" points="213,-225 213,-314 371,-314 371,-225 213,-225"/>
<text text-anchor="start" x="221" y="-300.4" font-family="Helvetica,sans-Serif" font-size="12.00">Markov::API::CUDA::</text>
<text text-anchor="middle" x="292" y="-287.4" font-family="Helvetica,sans-Serif" font-size="12.00">CUDADeviceController</text>
<polyline fill="none" stroke="black" points="213,-280 371,-280 "/>
<text text-anchor="middle" x="292" y="-266.4" font-family="Helvetica,sans-Serif" font-size="12.00"> </text>
<polyline fill="none" stroke="black" points="213,-259 371,-259 "/>
<text text-anchor="start" x="221" y="-245.4" font-family="Helvetica,sans-Serif" font-size="12.00">+ ListCudaDevices()</text>
<text text-anchor="start" x="221" y="-232.4" font-family="Helvetica,sans-Serif" font-size="12.00"># CudaCheckNotifyErr()</text>
</a>
</g>
</g>
<!-- Node6&#45;&gt;Node1 -->
<g id="edge5" class="edge">
<title>Node6&#45;&gt;Node1</title>
<path fill="none" stroke="midnightblue" d="M266.23,-215.75C255.12,-193 241.97,-166.08 230.07,-141.73"/>
<polygon fill="none" stroke="midnightblue" points="263.16,-217.44 270.69,-224.89 269.45,-214.37 263.16,-217.44"/>
</g>
</g>
</svg>
