<?xml version="1.0" encoding="UTF-8" standalone="no"?>
<!DOCTYPE svg PUBLIC "-//W3C//DTD SVG 1.1//EN"
 "http://www.w3.org/Graphics/SVG/1.1/DTD/svg11.dtd">
<!-- Generated by graphviz version 2.43.0 (0)
 -->
<!-- Title: Markov::GUI::Generate::train Pages: 1 -->
<svg width="879pt" height="173pt"
 viewBox="0.00 0.00 879.00 172.50" xmlns="http://www.w3.org/2000/svg" xmlns:xlink="http://www.w3.org/1999/xlink">
<g id="graph0" class="graph" transform="scale(1 1) rotate(0) translate(4 168.5)">
<title>Markov::GUI::Generate::train</title>
<!-- Node1 -->
<g id="node1" class="node">
<title>Node1</title>
<g id="a_node1"><a xlink:title=" ">
<polygon fill="#bfbfbf" stroke="black" points="0,-83.5 0,-117.5 154,-117.5 154,-83.5 0,-83.5"/>
<text text-anchor="start" x="8" y="-103.9" font-family="Helvetica,sans-Serif" font-size="12.00">Markov::GUI::Generate</text>
<text text-anchor="middle" x="77" y="-90.9" font-family="Helvetica,sans-Serif" font-size="12.00">::train</text>
</a>
</g>
</g>
<!-- Node2 -->
<g id="node2" class="node">
<title>Node2</title>
<g id="a_node2"><a xlink:href="class_markov_1_1_a_p_i_1_1_markov_passwords.html#a2fd4423ae3850e258dcb6b11a7feb9b2" target="_top" xlink:title="Train the model with the dataset file.">
<polygon fill="none" stroke="black" points="190,-83.5 190,-117.5 390,-117.5 390,-83.5 190,-83.5"/>
<text text-anchor="start" x="198" y="-103.9" font-family="Helvetica,sans-Serif" font-size="12.00">Markov::API::MarkovPasswords</text>
<text text-anchor="middle" x="290" y="-90.9" font-family="Helvetica,sans-Serif" font-size="12.00">::Train</text>
</a>
</g>
</g>
<!-- Node1&#45;&gt;Node2 -->
<g id="edge1" class="edge">
<title>Node1&#45;&gt;Node2</title>
<path fill="none" stroke="midnightblue" d="M154.18,-100.5C162.49,-100.5 171.07,-100.5 179.68,-100.5"/>
<polygon fill="midnightblue" stroke="midnightblue" points="179.79,-104 189.79,-100.5 179.79,-97 179.79,-104"/>
</g>
<!-- Node3 -->
<g id="node3" class="node">
<title>Node3</title>
<g id="a_node3"><a xlink:href="markov_passwords_8cpp.html#a3b33e6f48f5d988f336e915c5346eb95" target="_top" xlink:title=" ">
<polygon fill="none" stroke="black" points="486.5,-143 486.5,-164 565.5,-164 565.5,-143 486.5,-143"/>
<text text-anchor="middle" x="526" y="-150.4" font-family="Helvetica,sans-Serif" font-size="12.00">intHandler</text>
</a>
</g>
</g>
<!-- Node2&#45;&gt;Node3 -->
<g id="edge2" class="edge">
<title>Node2&#45;&gt;Node3</title>
<path fill="none" stroke="midnightblue" d="M358.51,-117.57C380.04,-122.86 403.98,-128.59 426,-133.5 442.28,-137.13 460.14,-140.83 476.15,-144.04"/>
<polygon fill="midnightblue" stroke="midnightblue" points="475.88,-147.55 486.37,-146.07 477.25,-140.69 475.88,-147.55"/>
</g>
<!-- Node4 -->
<g id="node4" class="node">
<title>Node4</title>
<g id="a_node4"><a xlink:href="class_markov_1_1_a_p_i_1_1_concurrency_1_1_thread_shared_list_handler.html#a08d468aa4146a30f4176bc91a40ed292" target="_top" xlink:title="Construct the Thread Handler with a filename.">
<polygon fill="none" stroke="black" points="438,-77 438,-124 614,-124 614,-77 438,-77"/>
<text text-anchor="start" x="446" y="-110.4" font-family="Helvetica,sans-Serif" font-size="12.00">Markov::API::Concurrency</text>
<text text-anchor="start" x="446" y="-97.4" font-family="Helvetica,sans-Serif" font-size="12.00">::ThreadSharedListHandler</text>
<text text-anchor="middle" x="526" y="-84.4" font-family="Helvetica,sans-Serif" font-size="12.00">::ThreadSharedListHandler</text>
</a>
</g>
</g>
<!-- Node2&#45;&gt;Node4 -->
<g id="edge3" class="edge">
<title>Node2&#45;&gt;Node4</title>
<path fill="none" stroke="midnightblue" d="M390.24,-100.5C402.6,-100.5 415.23,-100.5 427.56,-100.5"/>
<polygon fill="midnightblue" stroke="midnightblue" points="427.83,-104 437.83,-100.5 427.83,-97 427.83,-104"/>
</g>
<!-- Node5 -->
<g id="node5" class="node">
<title>Node5</title>
<g id="a_node5"><a xlink:href="class_markov_1_1_a_p_i_1_1_markov_passwords.html#a5f51b0fdb75101b797f38b08da84848e" target="_top" xlink:title="A single thread invoked by the Train function.">
<polygon fill="none" stroke="black" points="426,-23.5 426,-57.5 626,-57.5 626,-23.5 426,-23.5"/>
<text text-anchor="start" x="434" y="-43.9" font-family="Helvetica,sans-Serif" font-size="12.00">Markov::API::MarkovPasswords</text>
<text text-anchor="middle" x="526" y="-30.9" font-family="Helvetica,sans-Serif" font-size="12.00">::TrainThread</text>
</a>
</g>
</g>
<!-- Node2&#45;&gt;Node5 -->
<g id="edge4" class="edge">
<title>Node2&#45;&gt;Node5</title>
<path fill="none" stroke="midnightblue" d="M357.43,-83.47C385.84,-76.18 419.17,-67.64 448.59,-60.09"/>
<polygon fill="midnightblue" stroke="midnightblue" points="449.59,-63.45 458.4,-57.58 447.85,-56.67 449.59,-63.45"/>
</g>
<!-- Node6 -->
<g id="node6" class="node">
<title>Node6</title>
<g id="a_node6"><a xlink:href="class_markov_1_1_model.html#ad252913f83fa3eb14cc3f9f92c5ee37a" target="_top" xlink:title="Adjust the model with a single string.">
<polygon fill="none" stroke="black" points="677,-54 677,-75 856,-75 856,-54 677,-54"/>
<text text-anchor="middle" x="766.5" y="-61.4" font-family="Helvetica,sans-Serif" font-size="12.00">Markov::Model::AdjustEdge</text>
</a>
</g>
</g>
<!-- Node5&#45;&gt;Node6 -->
<g id="edge5" class="edge">
<title>Node5&#45;&gt;Node6</title>
<path fill="none" stroke="midnightblue" d="M626.07,-50.47C639.43,-51.81 653.14,-53.19 666.5,-54.54"/>
<polygon fill="midnightblue" stroke="midnightblue" points="666.34,-58.04 676.64,-55.56 667.04,-51.07 666.34,-58.04"/>
</g>
<!-- Node7 -->
<g id="node7" class="node">
<title>Node7</title>
<g id="a_node7"><a xlink:href="class_markov_1_1_a_p_i_1_1_concurrency_1_1_thread_shared_list_handler.html#a068e1a9ff477de23a44c10230df416a5" target="_top" xlink:title="Read the next line from the file.">
<polygon fill="none" stroke="black" points="662,-0.5 662,-34.5 871,-34.5 871,-0.5 662,-0.5"/>
<text text-anchor="start" x="670" y="-20.9" font-family="Helvetica,sans-Serif" font-size="12.00">Markov::API::Concurrency</text>
<text text-anchor="middle" x="766.5" y="-7.9" font-family="Helvetica,sans-Serif" font-size="12.00">::ThreadSharedListHandler::next</text>
</a>
</g>
</g>
<!-- Node5&#45;&gt;Node7 -->
<g id="edge6" class="edge">
<title>Node5&#45;&gt;Node7</title>
<path fill="none" stroke="midnightblue" d="M626.07,-30.95C634.54,-30.13 643.14,-29.3 651.7,-28.47"/>
<polygon fill="midnightblue" stroke="midnightblue" points="652.11,-31.95 661.73,-27.51 651.44,-24.98 652.11,-31.95"/>
</g>
</g>
</svg>
