<?xml version="1.0" encoding="UTF-8" standalone="no"?>
<!DOCTYPE svg PUBLIC "-//W3C//DTD SVG 1.1//EN"
 "http://www.w3.org/Graphics/SVG/1.1/DTD/svg11.dtd">
<!-- Generated by graphviz version 2.43.0 (0)
 -->
<!-- Title: Markov::Model::Import Pages: 1 -->
<svg width="612pt" height="147pt"
 viewBox="0.00 0.00 612.00 147.00" xmlns="http://www.w3.org/2000/svg" xmlns:xlink="http://www.w3.org/1999/xlink">
<g id="graph0" class="graph" transform="scale(1 1) rotate(0) translate(4 143)">
<title>Markov::Model::Import</title>
<!-- Node1 -->
<g id="node1" class="node">
<title>Node1</title>
<g id="a_node1"><a xlink:title="Open a file to import with filename, and call bool Model::Import with std::ifstream.">
<polygon fill="#bfbfbf" stroke="black" points="452,-60 452,-81 604,-81 604,-60 452,-60"/>
<text text-anchor="middle" x="528" y="-67.4" font-family="Helvetica,sans-Serif" font-size="12.00">Markov::Model::Import</text>
</a>
</g>
</g>
<!-- Node2 -->
<g id="node2" class="node">
<title>Node2</title>
<g id="a_node2"><a xlink:href="namespace_markov_1_1_markopy.html#a379628c09859652215496b63af2bcac9" target="_top" xlink:title=" ">
<polygon fill="none" stroke="black" points="5,-104.5 5,-138.5 175,-138.5 175,-104.5 5,-104.5"/>
<text text-anchor="start" x="13" y="-124.9" font-family="Helvetica,sans-Serif" font-size="12.00">Markov::Markopy::BOOST</text>
<text text-anchor="middle" x="90" y="-111.9" font-family="Helvetica,sans-Serif" font-size="12.00">_PYTHON_MODULE</text>
</a>
</g>
</g>
<!-- Node1&#45;&gt;Node2 -->
<g id="edge1" class="edge">
<title>Node1&#45;&gt;Node2</title>
<path fill="none" stroke="midnightblue" d="M480.63,-83.59C460.86,-88.69 437.45,-94.12 416,-97.5 334.82,-110.28 241.14,-116.28 175.27,-119.09"/>
<polygon fill="midnightblue" stroke="midnightblue" points="481.53,-86.97 490.31,-81.04 479.75,-80.2 481.53,-86.97"/>
</g>
<!-- Node3 -->
<g id="node3" class="node">
<title>Node3</title>
<g id="a_node3"><a xlink:href="class_markov_1_1_a_p_i_1_1_model_matrix.html#aeba8bb79aa4dc2cfeda310f34b7c9427" target="_top" xlink:title="Open a file to import with filename, and call bool Model::Import with std::ifstream.">
<polygon fill="none" stroke="black" points="231.5,-53.5 231.5,-87.5 400.5,-87.5 400.5,-53.5 231.5,-53.5"/>
<text text-anchor="start" x="239.5" y="-73.9" font-family="Helvetica,sans-Serif" font-size="12.00">Markov::API::ModelMatrix</text>
<text text-anchor="middle" x="316" y="-60.9" font-family="Helvetica,sans-Serif" font-size="12.00">::Import</text>
</a>
</g>
</g>
<!-- Node1&#45;&gt;Node3 -->
<g id="edge2" class="edge">
<title>Node1&#45;&gt;Node3</title>
<path fill="none" stroke="midnightblue" d="M441.55,-70.5C428.04,-70.5 414.07,-70.5 400.6,-70.5"/>
<polygon fill="midnightblue" stroke="midnightblue" points="441.78,-74 451.78,-70.5 441.78,-67 441.78,-74"/>
</g>
<!-- Node6 -->
<g id="node6" class="node">
<title>Node6</title>
<g id="a_node6"><a xlink:href="class_markov_1_1_a_p_i_1_1_markov_passwords.html#ab7f0caaea1f96d4fdeea126f78d7081f" target="_top" xlink:title="Initialize the markov model from MarkovModel::Markov::Model, with an import file.">
<polygon fill="none" stroke="black" points="216,-0.5 216,-34.5 416,-34.5 416,-0.5 216,-0.5"/>
<text text-anchor="start" x="224" y="-20.9" font-family="Helvetica,sans-Serif" font-size="12.00">Markov::API::MarkovPasswords</text>
<text text-anchor="middle" x="316" y="-7.9" font-family="Helvetica,sans-Serif" font-size="12.00">::MarkovPasswords</text>
</a>
</g>
</g>
<!-- Node1&#45;&gt;Node6 -->
<g id="edge6" class="edge">
<title>Node1&#45;&gt;Node6</title>
<path fill="none" stroke="midnightblue" d="M475.5,-57.5C448.14,-50.6 414.17,-42.02 384.7,-34.59"/>
<polygon fill="midnightblue" stroke="midnightblue" points="474.71,-60.91 485.26,-59.97 476.42,-54.12 474.71,-60.91"/>
</g>
<!-- Node3&#45;&gt;Node2 -->
<g id="edge4" class="edge">
<title>Node3&#45;&gt;Node2</title>
<path fill="none" stroke="midnightblue" d="M230.16,-89.82C209,-94.63 186.47,-99.76 165.83,-104.46"/>
<polygon fill="midnightblue" stroke="midnightblue" points="231.13,-93.19 240.1,-87.55 229.57,-86.36 231.13,-93.19"/>
</g>
<!-- Node4 -->
<g id="node4" class="node">
<title>Node4</title>
<g id="a_node4"><a xlink:href="namespace_markov_1_1_markopy_1_1_c_u_d_a.html#a584fc8e70bb6cf08f544f52805245e19" target="_top" xlink:title=" ">
<polygon fill="none" stroke="black" points="0,-51.5 0,-85.5 180,-85.5 180,-51.5 0,-51.5"/>
<text text-anchor="start" x="8" y="-71.9" font-family="Helvetica,sans-Serif" font-size="12.00">Markov::Markopy::CUDA</text>
<text text-anchor="middle" x="90" y="-58.9" font-family="Helvetica,sans-Serif" font-size="12.00">::BOOST_PYTHON_MODULE</text>
</a>
</g>
</g>
<!-- Node3&#45;&gt;Node4 -->
<g id="edge3" class="edge">
<title>Node3&#45;&gt;Node4</title>
<path fill="none" stroke="midnightblue" d="M221.03,-69.66C207.52,-69.54 193.66,-69.42 180.25,-69.3"/>
<polygon fill="midnightblue" stroke="midnightblue" points="221.24,-73.16 231.27,-69.75 221.3,-66.16 221.24,-73.16"/>
</g>
<!-- Node5 -->
<g id="node5" class="node">
<title>Node5</title>
<g id="a_node5"><a xlink:href="_markov_a_p_i_c_l_i_2src_2main_8cpp.html#a3c04138a5bfe5d72780bb7e82a18e627" target="_top" xlink:title="Launch CLI tool.">
<polygon fill="none" stroke="black" points="66.5,-11 66.5,-32 113.5,-32 113.5,-11 66.5,-11"/>
<text text-anchor="middle" x="90" y="-18.4" font-family="Helvetica,sans-Serif" font-size="12.00">main</text>
</a>
</g>
</g>
<!-- Node3&#45;&gt;Node5 -->
<g id="edge5" class="edge">
<title>Node3&#45;&gt;Node5</title>
<path fill="none" stroke="midnightblue" d="M227.49,-51.36C186.35,-42.36 140.58,-32.35 113.87,-26.5"/>
<polygon fill="midnightblue" stroke="midnightblue" points="226.77,-54.78 237.28,-53.5 228.26,-47.94 226.77,-54.78"/>
</g>
</g>
</svg>
