<?xml version="1.0" encoding="UTF-8" standalone="no"?>
<!DOCTYPE svg PUBLIC "-//W3C//DTD SVG 1.1//EN"
 "http://www.w3.org/Graphics/SVG/1.1/DTD/svg11.dtd">
<!-- Generated by graphviz version 2.43.0 (0)
 -->
<!-- Title: Markov::API::MarkovPasswords Pages: 1 -->
<svg width="961pt" height="1157pt"
 viewBox="0.00 0.00 961.00 1157.00" xmlns="http://www.w3.org/2000/svg" xmlns:xlink="http://www.w3.org/1999/xlink">
<g id="graph0" class="graph" transform="scale(1 1) rotate(0) translate(4 1153)">
<title>Markov::API::MarkovPasswords</title>
<!-- Node1 -->
<g id="node1" class="node">
<title>Node1</title>
<g id="a_node1"><a xlink:title="Markov::Model with char represented nodes.">
<polygon fill="#bfbfbf" stroke="black" points="637.5,-0.5 637.5,-167.5 837.5,-167.5 837.5,-0.5 637.5,-0.5"/>
<text text-anchor="middle" x="737.5" y="-153.9" font-family="Helvetica,sans-Serif" font-size="12.00">Markov::API::MarkovPasswords</text>
<polyline fill="none" stroke="black" points="637.5,-146.5 837.5,-146.5 "/>
<text text-anchor="middle" x="737.5" y="-132.9" font-family="Helvetica,sans-Serif" font-size="12.00"> </text>
<polyline fill="none" stroke="black" points="637.5,-125.5 837.5,-125.5 "/>
<text text-anchor="start" x="645.5" y="-111.9" font-family="Helvetica,sans-Serif" font-size="12.00">+ MarkovPasswords()</text>
<text text-anchor="start" x="645.5" y="-98.9" font-family="Helvetica,sans-Serif" font-size="12.00">+ MarkovPasswords()</text>
<text text-anchor="start" x="645.5" y="-85.9" font-family="Helvetica,sans-Serif" font-size="12.00">+ OpenDatasetFile()</text>
<text text-anchor="start" x="645.5" y="-72.9" font-family="Helvetica,sans-Serif" font-size="12.00">+ Train()</text>
<text text-anchor="start" x="645.5" y="-59.9" font-family="Helvetica,sans-Serif" font-size="12.00">+ Save()</text>
<text text-anchor="start" x="645.5" y="-46.9" font-family="Helvetica,sans-Serif" font-size="12.00">+ Generate()</text>
<text text-anchor="start" x="645.5" y="-33.9" font-family="Helvetica,sans-Serif" font-size="12.00">+ Buff()</text>
<text text-anchor="start" x="645.5" y="-20.9" font-family="Helvetica,sans-Serif" font-size="12.00">&#45; TrainThread()</text>
<text text-anchor="start" x="645.5" y="-7.9" font-family="Helvetica,sans-Serif" font-size="12.00">&#45; GenerateThread()</text>
</a>
</g>
</g>
<!-- Node2 -->
<g id="node2" class="node">
<title>Node2</title>
<g id="a_node2"><a xlink:href="class_markov_1_1_model.html" target="_top" xlink:title=" ">
<polygon fill="none" stroke="black" points="253.5,-230.5 253.5,-423.5 411.5,-423.5 411.5,-230.5 253.5,-230.5"/>
<text text-anchor="middle" x="332.5" y="-409.9" font-family="Helvetica,sans-Serif" font-size="12.00">Markov::Model&lt; char &gt;</text>
<polyline fill="none" stroke="black" points="253.5,-402.5 411.5,-402.5 "/>
<text text-anchor="middle" x="332.5" y="-388.9" font-family="Helvetica,sans-Serif" font-size="12.00"> </text>
<polyline fill="none" stroke="black" points="253.5,-381.5 411.5,-381.5 "/>
<text text-anchor="start" x="261.5" y="-367.9" font-family="Helvetica,sans-Serif" font-size="12.00">+ Model()</text>
<text text-anchor="start" x="261.5" y="-354.9" font-family="Helvetica,sans-Serif" font-size="12.00">+ RandomWalk()</text>
<text text-anchor="start" x="261.5" y="-341.9" font-family="Helvetica,sans-Serif" font-size="12.00">+ AdjustEdge()</text>
<text text-anchor="start" x="261.5" y="-328.9" font-family="Helvetica,sans-Serif" font-size="12.00">+ Import()</text>
<text text-anchor="start" x="261.5" y="-315.9" font-family="Helvetica,sans-Serif" font-size="12.00">+ Import()</text>
<text text-anchor="start" x="261.5" y="-302.9" font-family="Helvetica,sans-Serif" font-size="12.00">+ Export()</text>
<text text-anchor="start" x="261.5" y="-289.9" font-family="Helvetica,sans-Serif" font-size="12.00">+ Export()</text>
<text text-anchor="start" x="261.5" y="-276.9" font-family="Helvetica,sans-Serif" font-size="12.00">+ StarterNode()</text>
<text text-anchor="start" x="261.5" y="-263.9" font-family="Helvetica,sans-Serif" font-size="12.00">+ Edges()</text>
<text text-anchor="start" x="261.5" y="-250.9" font-family="Helvetica,sans-Serif" font-size="12.00">+ Nodes()</text>
<text text-anchor="start" x="261.5" y="-237.9" font-family="Helvetica,sans-Serif" font-size="12.00">+ OptimizeEdgeOrder()</text>
</a>
</g>
</g>
<!-- Node2&#45;&gt;Node1 -->
<g id="edge1" class="edge">
<title>Node2&#45;&gt;Node1</title>
<path fill="none" stroke="midnightblue" d="M420.41,-273.69C484.31,-235.66 570.9,-184.14 637.45,-144.53"/>
<polygon fill="none" stroke="midnightblue" points="418.35,-270.84 411.55,-278.96 421.93,-276.85 418.35,-270.84"/>
</g>
<!-- Node3 -->
<g id="node3" class="node">
<title>Node3</title>
<g id="a_node3"><a xlink:title=" ">
<polygon fill="none" stroke="#bfbfbf" points="0,-645 0,-721 161,-721 161,-645 0,-645"/>
<text text-anchor="start" x="8" y="-707.4" font-family="Helvetica,sans-Serif" font-size="12.00">std::map&lt; char, Markov</text>
<text text-anchor="middle" x="80.5" y="-694.4" font-family="Helvetica,sans-Serif" font-size="12.00">::Node&lt; char &gt; * &gt;</text>
<polyline fill="none" stroke="#bfbfbf" points="0,-687 161,-687 "/>
<text text-anchor="middle" x="80.5" y="-673.4" font-family="Helvetica,sans-Serif" font-size="12.00"> </text>
<polyline fill="none" stroke="#bfbfbf" points="0,-666 161,-666 "/>
<text text-anchor="middle" x="80.5" y="-652.4" font-family="Helvetica,sans-Serif" font-size="12.00"> </text>
</a>
</g>
</g>
<!-- Node3&#45;&gt;Node2 -->
<g id="edge2" class="edge">
<title>Node3&#45;&gt;Node2</title>
<path fill="none" stroke="#404040" d="M99.55,-644.77C122.14,-601.89 161.98,-530 203.5,-473 216.22,-455.54 230.66,-437.72 245.17,-420.83"/>
<polygon fill="none" stroke="#404040" points="245.35,-420.61 246.26,-413.46 253.22,-411.55 252.31,-418.7 245.35,-420.61"/>
<text text-anchor="middle" x="226" y="-508.4" font-family="Helvetica,sans-Serif" font-size="12.00"> &#45;nodes</text>
</g>
<!-- Node4 -->
<g id="node4" class="node">
<title>Node4</title>
<g id="a_node4"><a xlink:href="classchar.html" target="_top" xlink:title=" ">
<polygon fill="none" stroke="black" points="157.5,-1085.5 157.5,-1148.5 201.5,-1148.5 201.5,-1085.5 157.5,-1085.5"/>
<text text-anchor="middle" x="179.5" y="-1134.9" font-family="Helvetica,sans-Serif" font-size="12.00">char</text>
<polyline fill="none" stroke="black" points="157.5,-1127.5 201.5,-1127.5 "/>
<text text-anchor="middle" x="179.5" y="-1113.9" font-family="Helvetica,sans-Serif" font-size="12.00"> </text>
<polyline fill="none" stroke="black" points="157.5,-1106.5 201.5,-1106.5 "/>
<text text-anchor="middle" x="179.5" y="-1092.9" font-family="Helvetica,sans-Serif" font-size="12.00"> </text>
</a>
</g>
</g>
<!-- Node4&#45;&gt;Node3 -->
<g id="edge3" class="edge">
<title>Node4&#45;&gt;Node3</title>
<path fill="none" stroke="#404040" d="M157.47,-1090.77C145.7,-1075.85 132.11,-1056.01 124.5,-1036 85.51,-933.44 79.48,-803.15 79.41,-733.39"/>
<polygon fill="none" stroke="#404040" points="79.42,-733.09 75.44,-727.08 79.47,-721.09 83.44,-727.11 79.42,-733.09"/>
<text text-anchor="middle" x="145" y="-929.4" font-family="Helvetica,sans-Serif" font-size="12.00"> +keys</text>
</g>
<!-- Node5 -->
<g id="node5" class="node">
<title>Node5</title>
<g id="a_node5"><a xlink:href="class_markov_1_1_node.html" target="_top" xlink:title=" ">
<polygon fill="none" stroke="black" points="258,-829.5 258,-1035.5 449,-1035.5 449,-829.5 258,-829.5"/>
<text text-anchor="middle" x="353.5" y="-1021.9" font-family="Helvetica,sans-Serif" font-size="12.00">Markov::Node&lt; char &gt;</text>
<polyline fill="none" stroke="black" points="258,-1014.5 449,-1014.5 "/>
<text text-anchor="middle" x="353.5" y="-1000.9" font-family="Helvetica,sans-Serif" font-size="12.00"> </text>
<polyline fill="none" stroke="black" points="258,-993.5 449,-993.5 "/>
<text text-anchor="start" x="266" y="-979.9" font-family="Helvetica,sans-Serif" font-size="12.00">+ Node()</text>
<text text-anchor="start" x="266" y="-966.9" font-family="Helvetica,sans-Serif" font-size="12.00">+ Node()</text>
<text text-anchor="start" x="266" y="-953.9" font-family="Helvetica,sans-Serif" font-size="12.00">+ Link()</text>
<text text-anchor="start" x="266" y="-940.9" font-family="Helvetica,sans-Serif" font-size="12.00">+ Link()</text>
<text text-anchor="start" x="266" y="-927.9" font-family="Helvetica,sans-Serif" font-size="12.00">+ RandomNext()</text>
<text text-anchor="start" x="266" y="-914.9" font-family="Helvetica,sans-Serif" font-size="12.00">+ UpdateEdges()</text>
<text text-anchor="start" x="266" y="-901.9" font-family="Helvetica,sans-Serif" font-size="12.00">+ FindEdge()</text>
<text text-anchor="start" x="266" y="-888.9" font-family="Helvetica,sans-Serif" font-size="12.00">+ FindEdge()</text>
<text text-anchor="start" x="266" y="-875.9" font-family="Helvetica,sans-Serif" font-size="12.00">+ NodeValue()</text>
<text text-anchor="start" x="266" y="-862.9" font-family="Helvetica,sans-Serif" font-size="12.00">+ UpdateTotalVerticeWeight()</text>
<text text-anchor="start" x="266" y="-849.9" font-family="Helvetica,sans-Serif" font-size="12.00">+ Edges()</text>
<text text-anchor="start" x="266" y="-836.9" font-family="Helvetica,sans-Serif" font-size="12.00">+ TotalEdgeWeights()</text>
</a>
</g>
</g>
<!-- Node4&#45;&gt;Node5 -->
<g id="edge5" class="edge">
<title>Node4&#45;&gt;Node5</title>
<path fill="none" stroke="#404040" d="M201.54,-1092.89C214.3,-1079.49 231.41,-1061.56 249.54,-1042.54"/>
<polygon fill="none" stroke="#404040" points="249.64,-1042.43 250.89,-1035.33 257.92,-1033.74 256.68,-1040.85 249.64,-1042.43"/>
<text text-anchor="middle" x="260" y="-1057.4" font-family="Helvetica,sans-Serif" font-size="12.00"> &#45;_value</text>
</g>
<!-- Node6 -->
<g id="node6" class="node">
<title>Node6</title>
<g id="a_node6"><a xlink:title=" ">
<polygon fill="none" stroke="#bfbfbf" points="291,-473.5 291,-549.5 452,-549.5 452,-473.5 291,-473.5"/>
<text text-anchor="start" x="299" y="-535.9" font-family="Helvetica,sans-Serif" font-size="12.00">std::map&lt; char, Markov</text>
<text text-anchor="middle" x="371.5" y="-522.9" font-family="Helvetica,sans-Serif" font-size="12.00">::Edge&lt; char &gt; * &gt;</text>
<polyline fill="none" stroke="#bfbfbf" points="291,-515.5 452,-515.5 "/>
<text text-anchor="middle" x="371.5" y="-501.9" font-family="Helvetica,sans-Serif" font-size="12.00"> </text>
<polyline fill="none" stroke="#bfbfbf" points="291,-494.5 452,-494.5 "/>
<text text-anchor="middle" x="371.5" y="-480.9" font-family="Helvetica,sans-Serif" font-size="12.00"> </text>
</a>
</g>
</g>
<!-- Node4&#45;&gt;Node6 -->
<g id="edge7" class="edge">
<title>Node4&#45;&gt;Node6</title>
<path fill="none" stroke="#404040" d="M177.49,-1085.34C173.15,-1014.59 164.19,-841.65 176.5,-785 199.01,-681.41 204.23,-646.47 275.5,-568 278.92,-564.23 282.66,-560.65 286.61,-557.26"/>
<polygon fill="none" stroke="#404040" points="286.77,-557.13 289,-550.27 296.18,-549.68 293.96,-556.54 286.77,-557.13"/>
<text text-anchor="middle" x="197" y="-794.9" font-family="Helvetica,sans-Serif" font-size="12.00"> +keys</text>
</g>
<!-- Node5&#45;&gt;Node2 -->
<g id="edge14" class="edge">
<title>Node5&#45;&gt;Node2</title>
<path fill="none" stroke="#404040" d="M326.04,-829.26C308.84,-759.82 288.33,-665.59 279.5,-581 278.9,-575.25 279.44,-573.78 279.5,-568 279.94,-525.77 273.95,-514.55 281.5,-473 283.76,-460.54 286.94,-447.71 290.62,-435.08"/>
<polygon fill="none" stroke="#404040" points="290.63,-435.04 288.55,-428.14 294.12,-423.56 296.2,-430.46 290.63,-435.04"/>
<text text-anchor="middle" x="320" y="-571.4" font-family="Helvetica,sans-Serif" font-size="12.00"> &#45;starterNode</text>
</g>
<!-- Node5&#45;&gt;Node3 -->
<g id="edge4" class="edge">
<title>Node5&#45;&gt;Node3</title>
<path fill="none" stroke="#404040" d="M260.95,-829.34C255.38,-823.14 249.86,-816.99 244.5,-811 234.21,-799.5 232.95,-795.34 221.5,-785 199,-764.7 172.41,-744.76 148.41,-728.02"/>
<polygon fill="none" stroke="#404040" points="148.19,-727.87 140.97,-727.75 138.31,-721.06 145.52,-721.17 148.19,-727.87"/>
<text text-anchor="middle" x="279.5" y="-794.9" font-family="Helvetica,sans-Serif" font-size="12.00"> +elements</text>
</g>
<!-- Node7 -->
<g id="node7" class="node">
<title>Node7</title>
<g id="a_node7"><a xlink:href="class_markov_1_1_edge.html" target="_top" xlink:title=" ">
<polygon fill="none" stroke="black" points="416.5,-599.5 416.5,-766.5 568.5,-766.5 568.5,-599.5 416.5,-599.5"/>
<text text-anchor="middle" x="492.5" y="-752.9" font-family="Helvetica,sans-Serif" font-size="12.00">Markov::Edge&lt; char &gt;</text>
<polyline fill="none" stroke="black" points="416.5,-745.5 568.5,-745.5 "/>
<text text-anchor="middle" x="492.5" y="-731.9" font-family="Helvetica,sans-Serif" font-size="12.00"> </text>
<polyline fill="none" stroke="black" points="416.5,-724.5 568.5,-724.5 "/>
<text text-anchor="start" x="424.5" y="-710.9" font-family="Helvetica,sans-Serif" font-size="12.00">+ Edge()</text>
<text text-anchor="start" x="424.5" y="-697.9" font-family="Helvetica,sans-Serif" font-size="12.00">+ Edge()</text>
<text text-anchor="start" x="424.5" y="-684.9" font-family="Helvetica,sans-Serif" font-size="12.00">+ AdjustEdge()</text>
<text text-anchor="start" x="424.5" y="-671.9" font-family="Helvetica,sans-Serif" font-size="12.00">+ TraverseNode()</text>
<text text-anchor="start" x="424.5" y="-658.9" font-family="Helvetica,sans-Serif" font-size="12.00">+ SetLeftEdge()</text>
<text text-anchor="start" x="424.5" y="-645.9" font-family="Helvetica,sans-Serif" font-size="12.00">+ SetRightEdge()</text>
<text text-anchor="start" x="424.5" y="-632.9" font-family="Helvetica,sans-Serif" font-size="12.00">+ EdgeWeight()</text>
<text text-anchor="start" x="424.5" y="-619.9" font-family="Helvetica,sans-Serif" font-size="12.00">+ LeftNode()</text>
<text text-anchor="start" x="424.5" y="-606.9" font-family="Helvetica,sans-Serif" font-size="12.00">+ RightNode()</text>
</a>
</g>
</g>
<!-- Node5&#45;&gt;Node7 -->
<g id="edge10" class="edge">
<title>Node5&#45;&gt;Node7</title>
<path fill="none" stroke="#404040" d="M410.84,-829.4C420.56,-812.09 430.61,-794.19 440.2,-777.13"/>
<polygon fill="none" stroke="#404040" points="440.22,-777.08 439.67,-769.89 446.1,-766.62 446.65,-773.81 440.22,-777.08"/>
<text text-anchor="middle" x="455" y="-801.4" font-family="Helvetica,sans-Serif" font-size="12.00"> &#45;_left</text>
<text text-anchor="middle" x="455" y="-788.4" font-family="Helvetica,sans-Serif" font-size="12.00">&#45;_right</text>
</g>
<!-- Node6&#45;&gt;Node5 -->
<g id="edge6" class="edge">
<title>Node6&#45;&gt;Node5</title>
<path fill="none" stroke="#404040" d="M366.97,-549.91C365.3,-565.12 363.56,-582.88 362.5,-599 357.76,-671.41 355.51,-752.84 354.44,-816.99"/>
<polygon fill="none" stroke="#404040" points="354.43,-817.17 358.34,-823.24 354.25,-829.17 350.34,-823.11 354.43,-817.17"/>
<text text-anchor="middle" x="385" y="-679.9" font-family="Helvetica,sans-Serif" font-size="12.00"> &#45;edges</text>
</g>
<!-- Node7&#45;&gt;Node6 -->
<g id="edge8" class="edge">
<title>Node7&#45;&gt;Node6</title>
<path fill="none" stroke="#404040" d="M433.42,-599.24C423.76,-585.71 414.06,-572.12 405.29,-559.84"/>
<polygon fill="none" stroke="#404040" points="405.14,-559.63 398.4,-557.07 398.17,-549.86 404.91,-552.42 405.14,-559.63"/>
<text text-anchor="middle" x="453.5" y="-571.4" font-family="Helvetica,sans-Serif" font-size="12.00"> +elements</text>
</g>
<!-- Node9 -->
<g id="node9" class="node">
<title>Node9</title>
<g id="a_node9"><a xlink:title=" ">
<polygon fill="none" stroke="#bfbfbf" points="470.5,-473.5 470.5,-549.5 608.5,-549.5 608.5,-473.5 470.5,-473.5"/>
<text text-anchor="start" x="478.5" y="-535.9" font-family="Helvetica,sans-Serif" font-size="12.00">std::vector&lt; Markov</text>
<text text-anchor="middle" x="539.5" y="-522.9" font-family="Helvetica,sans-Serif" font-size="12.00">::Edge&lt; char &gt; * &gt;</text>
<polyline fill="none" stroke="#bfbfbf" points="470.5,-515.5 608.5,-515.5 "/>
<text text-anchor="middle" x="539.5" y="-501.9" font-family="Helvetica,sans-Serif" font-size="12.00"> </text>
<polyline fill="none" stroke="#bfbfbf" points="470.5,-494.5 608.5,-494.5 "/>
<text text-anchor="middle" x="539.5" y="-480.9" font-family="Helvetica,sans-Serif" font-size="12.00"> </text>
</a>
</g>
</g>
<!-- Node7&#45;&gt;Node9 -->
<g id="edge13" class="edge">
<title>Node7&#45;&gt;Node9</title>
<path fill="none" stroke="#404040" d="M511.9,-599.26C514.65,-588.7 517.55,-578.07 520.5,-568 521.16,-565.76 521.85,-563.49 522.56,-561.19"/>
<polygon fill="none" stroke="#404040" points="522.59,-561.09 520.62,-554.16 526.27,-549.67 528.24,-556.61 522.59,-561.09"/>
<text text-anchor="middle" x="555.5" y="-571.4" font-family="Helvetica,sans-Serif" font-size="12.00"> +elements</text>
</g>
<!-- Node8 -->
<g id="node8" class="node">
<title>Node8</title>
<g id="a_node8"><a xlink:href="classlong_01int.html" target="_top" xlink:title=" ">
<polygon fill="none" stroke="black" points="513,-1085.5 513,-1148.5 574,-1148.5 574,-1085.5 513,-1085.5"/>
<text text-anchor="middle" x="543.5" y="-1134.9" font-family="Helvetica,sans-Serif" font-size="12.00">long int</text>
<polyline fill="none" stroke="black" points="513,-1127.5 574,-1127.5 "/>
<text text-anchor="middle" x="543.5" y="-1113.9" font-family="Helvetica,sans-Serif" font-size="12.00"> </text>
<polyline fill="none" stroke="black" points="513,-1106.5 574,-1106.5 "/>
<text text-anchor="middle" x="543.5" y="-1092.9" font-family="Helvetica,sans-Serif" font-size="12.00"> </text>
</a>
</g>
</g>
<!-- Node8&#45;&gt;Node5 -->
<g id="edge11" class="edge">
<title>Node8&#45;&gt;Node5</title>
<path fill="none" stroke="#404040" d="M512.92,-1087.31C505.87,-1080.66 498.41,-1073.6 491.5,-1067 480.55,-1056.54 469.14,-1045.6 457.78,-1034.66"/>
<polygon fill="none" stroke="#404040" points="457.75,-1034.63 450.66,-1033.35 449.11,-1026.31 456.21,-1027.59 457.75,-1034.63"/>
<text text-anchor="middle" x="553.5" y="-1057.4" font-family="Helvetica,sans-Serif" font-size="12.00"> &#45;total_edge_weights</text>
</g>
<!-- Node8&#45;&gt;Node7 -->
<g id="edge9" class="edge">
<title>Node8&#45;&gt;Node7</title>
<path fill="none" stroke="#404040" d="M574.19,-1103.57C589.57,-1095.59 606.73,-1083.57 615.5,-1067 618.2,-1061.89 616.42,-1059.7 615.5,-1054 599.84,-957.27 562.57,-851.63 533.12,-778.08"/>
<polygon fill="none" stroke="#404040" points="532.96,-777.69 527.01,-773.62 528.47,-766.56 534.43,-770.63 532.96,-777.69"/>
<text text-anchor="middle" x="639" y="-929.4" font-family="Helvetica,sans-Serif" font-size="12.00"> &#45;_weight</text>
</g>
<!-- Node9&#45;&gt;Node2 -->
<g id="edge15" class="edge">
<title>Node9&#45;&gt;Node2</title>
<path fill="none" stroke="#404040" d="M497.36,-473.35C475.37,-453.96 447.59,-429.46 421.13,-406.14"/>
<polygon fill="none" stroke="#404040" points="420.84,-405.88 413.69,-404.92 411.84,-397.95 418.98,-398.92 420.84,-405.88"/>
<text text-anchor="middle" x="496" y="-445.4" font-family="Helvetica,sans-Serif" font-size="12.00"> &#45;edges</text>
</g>
<!-- Node9&#45;&gt;Node5 -->
<g id="edge12" class="edge">
<title>Node9&#45;&gt;Node5</title>
<path fill="none" stroke="#404040" d="M580.1,-549.66C584.32,-555.37 587.98,-561.54 590.5,-568 622.68,-650.58 620.27,-689.37 577.5,-767 551.04,-815.02 503.93,-852.83 459.72,-880.02"/>
<polygon fill="none" stroke="#404040" points="459.45,-880.18 456.36,-886.7 449.16,-886.35 452.25,-879.84 459.45,-880.18"/>
<text text-anchor="middle" x="641.5" y="-679.9" font-family="Helvetica,sans-Serif" font-size="12.00"> +edgesV</text>
</g>
<!-- Node10 -->
<g id="node10" class="node">
<title>Node10</title>
<g id="a_node10"><a xlink:title="STL class.">
<polygon fill="none" stroke="#bfbfbf" points="691.5,-295.5 691.5,-358.5 783.5,-358.5 783.5,-295.5 691.5,-295.5"/>
<text text-anchor="middle" x="737.5" y="-344.9" font-family="Helvetica,sans-Serif" font-size="12.00">std::ifstream</text>
<polyline fill="none" stroke="#bfbfbf" points="691.5,-337.5 783.5,-337.5 "/>
<text text-anchor="middle" x="737.5" y="-323.9" font-family="Helvetica,sans-Serif" font-size="12.00"> </text>
<polyline fill="none" stroke="#bfbfbf" points="691.5,-316.5 783.5,-316.5 "/>
<text text-anchor="middle" x="737.5" y="-302.9" font-family="Helvetica,sans-Serif" font-size="12.00"> </text>
</a>
</g>
</g>
<!-- Node10&#45;&gt;Node1 -->
<g id="edge16" class="edge">
<title>Node10&#45;&gt;Node1</title>
<path fill="none" stroke="#404040" d="M737.5,-295.48C737.5,-266.37 737.5,-220.99 737.5,-179.8"/>
<polygon fill="none" stroke="#404040" points="737.5,-179.75 733.5,-173.75 737.5,-167.75 741.5,-173.75 737.5,-179.75"/>
<text text-anchor="middle" x="774.5" y="-195.9" font-family="Helvetica,sans-Serif" font-size="12.00"> &#45;datasetFile</text>
</g>
<!-- Node11 -->
<g id="node11" class="node">
<title>Node11</title>
<g id="a_node11"><a xlink:title="STL class.">
<polygon fill="none" stroke="#bfbfbf" points="673.5,-473.5 673.5,-549.5 801.5,-549.5 801.5,-473.5 673.5,-473.5"/>
<text text-anchor="start" x="681.5" y="-535.9" font-family="Helvetica,sans-Serif" font-size="12.00">std::basic_ifstream</text>
<text text-anchor="middle" x="737.5" y="-522.9" font-family="Helvetica,sans-Serif" font-size="12.00">&lt; char &gt;</text>
<polyline fill="none" stroke="#bfbfbf" points="673.5,-515.5 801.5,-515.5 "/>
<text text-anchor="middle" x="737.5" y="-501.9" font-family="Helvetica,sans-Serif" font-size="12.00"> </text>
<polyline fill="none" stroke="#bfbfbf" points="673.5,-494.5 801.5,-494.5 "/>
<text text-anchor="middle" x="737.5" y="-480.9" font-family="Helvetica,sans-Serif" font-size="12.00"> </text>
</a>
</g>
</g>
<!-- Node11&#45;&gt;Node10 -->
<g id="edge17" class="edge">
<title>Node11&#45;&gt;Node10</title>
<path fill="none" stroke="midnightblue" d="M737.5,-462.82C737.5,-429.91 737.5,-387.12 737.5,-358.67"/>
<polygon fill="none" stroke="midnightblue" points="734,-463.13 737.5,-473.13 741,-463.13 734,-463.13"/>
</g>
<!-- Node12 -->
<g id="node12" class="node">
<title>Node12</title>
<g id="a_node12"><a xlink:title="STL class.">
<polygon fill="none" stroke="#bfbfbf" points="680.5,-645 680.5,-721 804.5,-721 804.5,-645 680.5,-645"/>
<text text-anchor="start" x="688.5" y="-707.4" font-family="Helvetica,sans-Serif" font-size="12.00">std::basic_istream</text>
<text text-anchor="middle" x="742.5" y="-694.4" font-family="Helvetica,sans-Serif" font-size="12.00">&lt; Char &gt;</text>
<polyline fill="none" stroke="#bfbfbf" points="680.5,-687 804.5,-687 "/>
<text text-anchor="middle" x="742.5" y="-673.4" font-family="Helvetica,sans-Serif" font-size="12.00"> </text>
<polyline fill="none" stroke="#bfbfbf" points="680.5,-666 804.5,-666 "/>
<text text-anchor="middle" x="742.5" y="-652.4" font-family="Helvetica,sans-Serif" font-size="12.00"> </text>
</a>
</g>
</g>
<!-- Node12&#45;&gt;Node11 -->
<g id="edge18" class="edge">
<title>Node12&#45;&gt;Node11</title>
<path fill="none" stroke="midnightblue" d="M741.1,-634.47C740.31,-607.62 739.33,-574.54 738.59,-549.61"/>
<polygon fill="none" stroke="midnightblue" points="737.61,-634.91 741.4,-644.8 744.61,-634.7 737.61,-634.91"/>
</g>
<!-- Node13 -->
<g id="node13" class="node">
<title>Node13</title>
<g id="a_node13"><a xlink:title="STL class.">
<polygon fill="none" stroke="#bfbfbf" points="757,-901 757,-964 908,-964 908,-901 757,-901"/>
<text text-anchor="middle" x="832.5" y="-950.4" font-family="Helvetica,sans-Serif" font-size="12.00">std::basic_ios&lt; Char &gt;</text>
<polyline fill="none" stroke="#bfbfbf" points="757,-943 908,-943 "/>
<text text-anchor="middle" x="832.5" y="-929.4" font-family="Helvetica,sans-Serif" font-size="12.00"> </text>
<polyline fill="none" stroke="#bfbfbf" points="757,-922 908,-922 "/>
<text text-anchor="middle" x="832.5" y="-908.4" font-family="Helvetica,sans-Serif" font-size="12.00"> </text>
</a>
</g>
</g>
<!-- Node13&#45;&gt;Node12 -->
<g id="edge19" class="edge">
<title>Node13&#45;&gt;Node12</title>
<path fill="none" stroke="midnightblue" d="M817.9,-891.36C800.81,-844.36 772.74,-767.16 756.1,-721.39"/>
<polygon fill="none" stroke="midnightblue" points="814.67,-892.7 821.37,-900.9 821.25,-890.31 814.67,-892.7"/>
</g>
<!-- Node17 -->
<g id="node17" class="node">
<title>Node17</title>
<g id="a_node17"><a xlink:title="STL class.">
<polygon fill="none" stroke="#bfbfbf" points="822.5,-645 822.5,-721 950.5,-721 950.5,-645 822.5,-645"/>
<text text-anchor="start" x="830.5" y="-707.4" font-family="Helvetica,sans-Serif" font-size="12.00">std::basic_ostream</text>
<text text-anchor="middle" x="886.5" y="-694.4" font-family="Helvetica,sans-Serif" font-size="12.00">&lt; Char &gt;</text>
<polyline fill="none" stroke="#bfbfbf" points="822.5,-687 950.5,-687 "/>
<text text-anchor="middle" x="886.5" y="-673.4" font-family="Helvetica,sans-Serif" font-size="12.00"> </text>
<polyline fill="none" stroke="#bfbfbf" points="822.5,-666 950.5,-666 "/>
<text text-anchor="middle" x="886.5" y="-652.4" font-family="Helvetica,sans-Serif" font-size="12.00"> </text>
</a>
</g>
</g>
<!-- Node13&#45;&gt;Node17 -->
<g id="edge24" class="edge">
<title>Node13&#45;&gt;Node17</title>
<path fill="none" stroke="midnightblue" d="M841.32,-891.06C851.58,-844.04 868.38,-767.06 878.34,-721.39"/>
<polygon fill="none" stroke="midnightblue" points="837.89,-890.39 839.18,-900.9 844.73,-891.88 837.89,-890.39"/>
</g>
<!-- Node14 -->
<g id="node14" class="node">
<title>Node14</title>
<g id="a_node14"><a xlink:title="STL class.">
<polygon fill="none" stroke="#bfbfbf" points="786,-1085.5 786,-1148.5 879,-1148.5 879,-1085.5 786,-1085.5"/>
<text text-anchor="middle" x="832.5" y="-1134.9" font-family="Helvetica,sans-Serif" font-size="12.00">std::ios_base</text>
<polyline fill="none" stroke="#bfbfbf" points="786,-1127.5 879,-1127.5 "/>
<text text-anchor="middle" x="832.5" y="-1113.9" font-family="Helvetica,sans-Serif" font-size="12.00"> </text>
<polyline fill="none" stroke="#bfbfbf" points="786,-1106.5 879,-1106.5 "/>
<text text-anchor="middle" x="832.5" y="-1092.9" font-family="Helvetica,sans-Serif" font-size="12.00"> </text>
</a>
</g>
</g>
<!-- Node14&#45;&gt;Node13 -->
<g id="edge20" class="edge">
<title>Node14&#45;&gt;Node13</title>
<path fill="none" stroke="midnightblue" d="M832.5,-1075.04C832.5,-1041.43 832.5,-994.58 832.5,-964.15"/>
<polygon fill="none" stroke="midnightblue" points="829,-1075.45 832.5,-1085.45 836,-1075.45 829,-1075.45"/>
</g>
<!-- Node15 -->
<g id="node15" class="node">
<title>Node15</title>
<g id="a_node15"><a xlink:title="STL class.">
<polygon fill="none" stroke="#bfbfbf" points="819.5,-295.5 819.5,-358.5 915.5,-358.5 915.5,-295.5 819.5,-295.5"/>
<text text-anchor="middle" x="867.5" y="-344.9" font-family="Helvetica,sans-Serif" font-size="12.00">std::ofstream</text>
<polyline fill="none" stroke="#bfbfbf" points="819.5,-337.5 915.5,-337.5 "/>
<text text-anchor="middle" x="867.5" y="-323.9" font-family="Helvetica,sans-Serif" font-size="12.00"> </text>
<polyline fill="none" stroke="#bfbfbf" points="819.5,-316.5 915.5,-316.5 "/>
<text text-anchor="middle" x="867.5" y="-302.9" font-family="Helvetica,sans-Serif" font-size="12.00"> </text>
</a>
</g>
</g>
<!-- Node15&#45;&gt;Node1 -->
<g id="edge21" class="edge">
<title>Node15&#45;&gt;Node1</title>
<path fill="none" stroke="#404040" d="M859.05,-295.35C850.33,-266.19 835.25,-221.59 815.5,-186 814.02,-183.33 812.47,-180.66 810.87,-177.98"/>
<polygon fill="none" stroke="#404040" points="810.8,-177.88 804.23,-174.92 804.44,-167.71 811.01,-170.67 810.8,-177.88"/>
<text text-anchor="middle" x="875.5" y="-202.4" font-family="Helvetica,sans-Serif" font-size="12.00"> &#45;modelSavefile</text>
<text text-anchor="middle" x="875.5" y="-189.4" font-family="Helvetica,sans-Serif" font-size="12.00">&#45;outputFile</text>
</g>
<!-- Node16 -->
<g id="node16" class="node">
<title>Node16</title>
<g id="a_node16"><a xlink:title="STL class.">
<polygon fill="none" stroke="#bfbfbf" points="820,-473.5 820,-549.5 953,-549.5 953,-473.5 820,-473.5"/>
<text text-anchor="start" x="828" y="-535.9" font-family="Helvetica,sans-Serif" font-size="12.00">std::basic_ofstream</text>
<text text-anchor="middle" x="886.5" y="-522.9" font-family="Helvetica,sans-Serif" font-size="12.00">&lt; char &gt;</text>
<polyline fill="none" stroke="#bfbfbf" points="820,-515.5 953,-515.5 "/>
<text text-anchor="middle" x="886.5" y="-501.9" font-family="Helvetica,sans-Serif" font-size="12.00"> </text>
<polyline fill="none" stroke="#bfbfbf" points="820,-494.5 953,-494.5 "/>
<text text-anchor="middle" x="886.5" y="-480.9" font-family="Helvetica,sans-Serif" font-size="12.00"> </text>
</a>
</g>
</g>
<!-- Node16&#45;&gt;Node15 -->
<g id="edge22" class="edge">
<title>Node16&#45;&gt;Node15</title>
<path fill="none" stroke="midnightblue" d="M881.54,-462.82C878.11,-429.91 873.65,-387.12 870.69,-358.67"/>
<polygon fill="none" stroke="midnightblue" points="878.09,-463.54 882.61,-473.13 885.05,-462.82 878.09,-463.54"/>
</g>
<!-- Node17&#45;&gt;Node16 -->
<g id="edge23" class="edge">
<title>Node17&#45;&gt;Node16</title>
<path fill="none" stroke="midnightblue" d="M886.5,-634.47C886.5,-607.62 886.5,-574.54 886.5,-549.61"/>
<polygon fill="none" stroke="midnightblue" points="883,-634.8 886.5,-644.8 890,-634.8 883,-634.8"/>
</g>
</g>
</svg>
