<?xml version="1.0" encoding="UTF-8" standalone="no"?>
<!DOCTYPE svg PUBLIC "-//W3C//DTD SVG 1.1//EN"
 "http://www.w3.org/Graphics/SVG/1.1/DTD/svg11.dtd">
<!-- Generated by graphviz version 2.43.0 (0)
 -->
<!-- Title: Markov::GUI::Train Pages: 1 -->
<svg width="187pt" height="224pt"
 viewBox="0.00 0.00 187.00 224.00" xmlns="http://www.w3.org/2000/svg" xmlns:xlink="http://www.w3.org/1999/xlink">
<g id="graph0" class="graph" transform="scale(1 1) rotate(0) translate(4 220)">
<title>Markov::GUI::Train</title>
<!-- Node1 -->
<g id="node1" class="node">
<title>Node1</title>
<g id="a_node1"><a xlink:title="QT Training page class.">
<polygon fill="#bfbfbf" stroke="black" points="15,-0.5 15,-102.5 179,-102.5 179,-0.5 15,-0.5"/>
<text text-anchor="middle" x="97" y="-88.9" font-family="Helvetica,sans-Serif" font-size="12.00">Markov::GUI::Train</text>
<polyline fill="none" stroke="black" points="15,-81.5 179,-81.5 "/>
<text text-anchor="middle" x="97" y="-67.9" font-family="Helvetica,sans-Serif" font-size="12.00"> </text>
<polyline fill="none" stroke="black" points="15,-60.5 179,-60.5 "/>
<text text-anchor="start" x="23" y="-46.9" font-family="Helvetica,sans-Serif" font-size="12.00">+ Train(QWidget *parent</text>
<text text-anchor="start" x="23" y="-33.9" font-family="Helvetica,sans-Serif" font-size="12.00">=Q_NULLPTR)</text>
<text text-anchor="start" x="23" y="-20.9" font-family="Helvetica,sans-Serif" font-size="12.00">+ void home()</text>
<text text-anchor="start" x="23" y="-7.9" font-family="Helvetica,sans-Serif" font-size="12.00">+ void train()</text>
</a>
</g>
</g>
<!-- Node2 -->
<g id="node2" class="node">
<title>Node2</title>
<g id="a_node2"><a xlink:href="class_q_main_window.html" target="_top" xlink:title=" ">
<polygon fill="none" stroke="black" points="0,-152.5 0,-215.5 102,-215.5 102,-152.5 0,-152.5"/>
<text text-anchor="middle" x="51" y="-201.9" font-family="Helvetica,sans-Serif" font-size="12.00">QMainWindow</text>
<polyline fill="none" stroke="black" points="0,-194.5 102,-194.5 "/>
<text text-anchor="middle" x="51" y="-180.9" font-family="Helvetica,sans-Serif" font-size="12.00"> </text>
<polyline fill="none" stroke="black" points="0,-173.5 102,-173.5 "/>
<text text-anchor="middle" x="51" y="-159.9" font-family="Helvetica,sans-Serif" font-size="12.00"> </text>
</a>
</g>
</g>
<!-- Node2&#45;&gt;Node1 -->
<g id="edge1" class="edge">
<title>Node2&#45;&gt;Node1</title>
<path fill="none" stroke="midnightblue" d="M65.24,-142.61C69.7,-129.94 74.68,-115.81 79.35,-102.56"/>
<polygon fill="none" stroke="midnightblue" points="61.81,-141.81 61.78,-152.4 68.41,-144.14 61.81,-141.81"/>
</g>
<!-- Node3 -->
<g id="node3" class="node">
<title>Node3</title>
<g id="a_node3"><a xlink:title=" ">
<polygon fill="none" stroke="#bfbfbf" points="120.5,-152.5 120.5,-215.5 165.5,-215.5 165.5,-152.5 120.5,-152.5"/>
<text text-anchor="middle" x="143" y="-201.9" font-family="Helvetica,sans-Serif" font-size="12.00">Train</text>
<polyline fill="none" stroke="#bfbfbf" points="120.5,-194.5 165.5,-194.5 "/>
<text text-anchor="middle" x="143" y="-180.9" font-family="Helvetica,sans-Serif" font-size="12.00"> </text>
<polyline fill="none" stroke="#bfbfbf" points="120.5,-173.5 165.5,-173.5 "/>
<text text-anchor="middle" x="143" y="-159.9" font-family="Helvetica,sans-Serif" font-size="12.00"> </text>
</a>
</g>
</g>
<!-- Node3&#45;&gt;Node1 -->
<g id="edge2" class="edge">
<title>Node3&#45;&gt;Node1</title>
<path fill="none" stroke="#404040" d="M132.22,-152.4C128.17,-140.92 123.41,-127.43 118.73,-114.14"/>
<polygon fill="none" stroke="#404040" points="118.64,-113.88 112.87,-109.55 114.65,-102.56 120.41,-106.89 118.64,-113.88"/>
<text text-anchor="middle" x="134.5" y="-124.4" font-family="Helvetica,sans-Serif" font-size="12.00"> &#45;ui</text>
</g>
</g>
</svg>
