<?xml version="1.0" encoding="UTF-8" standalone="no"?>
<!DOCTYPE svg PUBLIC "-//W3C//DTD SVG 1.1//EN"
 "http://www.w3.org/Graphics/SVG/1.1/DTD/svg11.dtd">
<!-- Generated by graphviz version 2.43.0 (0)
 -->
<!-- Title: Markov::GUI::CLI Pages: 1 -->
<svg width="179pt" height="237pt"
 viewBox="0.00 0.00 179.00 237.00" xmlns="http://www.w3.org/2000/svg" xmlns:xlink="http://www.w3.org/1999/xlink">
<g id="graph0" class="graph" transform="scale(1 1) rotate(0) translate(4 233)">
<title>Markov::GUI::CLI</title>
<!-- Node1 -->
<g id="node1" class="node">
<title>Node1</title>
<g id="a_node1"><a xlink:title="QT CLI Class.">
<polygon fill="#bfbfbf" stroke="black" points="17,-0.5 17,-115.5 171,-115.5 171,-0.5 17,-0.5"/>
<text text-anchor="middle" x="94" y="-101.9" font-family="Helvetica,sans-Serif" font-size="12.00">Markov::GUI::CLI</text>
<polyline fill="none" stroke="black" points="17,-94.5 171,-94.5 "/>
<text text-anchor="middle" x="94" y="-80.9" font-family="Helvetica,sans-Serif" font-size="12.00"> </text>
<polyline fill="none" stroke="black" points="17,-73.5 171,-73.5 "/>
<text text-anchor="start" x="25" y="-59.9" font-family="Helvetica,sans-Serif" font-size="12.00">+ CLI(QWidget *parent</text>
<text text-anchor="start" x="25" y="-46.9" font-family="Helvetica,sans-Serif" font-size="12.00">=Q_NULLPTR)</text>
<text text-anchor="start" x="25" y="-33.9" font-family="Helvetica,sans-Serif" font-size="12.00">+ void start()</text>
<text text-anchor="start" x="25" y="-20.9" font-family="Helvetica,sans-Serif" font-size="12.00">+ void statistics()</text>
<text text-anchor="start" x="25" y="-7.9" font-family="Helvetica,sans-Serif" font-size="12.00">+ void about()</text>
</a>
</g>
</g>
<!-- Node2 -->
<g id="node2" class="node">
<title>Node2</title>
<g id="a_node2"><a xlink:href="class_q_main_window.html" target="_top" xlink:title=" ">
<polygon fill="none" stroke="black" points="0,-165.5 0,-228.5 102,-228.5 102,-165.5 0,-165.5"/>
<text text-anchor="middle" x="51" y="-214.9" font-family="Helvetica,sans-Serif" font-size="12.00">QMainWindow</text>
<polyline fill="none" stroke="black" points="0,-207.5 102,-207.5 "/>
<text text-anchor="middle" x="51" y="-193.9" font-family="Helvetica,sans-Serif" font-size="12.00"> </text>
<polyline fill="none" stroke="black" points="0,-186.5 102,-186.5 "/>
<text text-anchor="middle" x="51" y="-172.9" font-family="Helvetica,sans-Serif" font-size="12.00"> </text>
</a>
</g>
</g>
<!-- Node2&#45;&gt;Node1 -->
<g id="edge1" class="edge">
<title>Node2&#45;&gt;Node1</title>
<path fill="none" stroke="midnightblue" d="M63.69,-155.56C67.63,-143.02 72.04,-128.96 76.26,-115.53"/>
<polygon fill="none" stroke="midnightblue" points="60.31,-154.67 60.65,-165.25 66.98,-156.76 60.31,-154.67"/>
</g>
<!-- Node3 -->
<g id="node3" class="node">
<title>Node3</title>
<g id="a_node3"><a xlink:title=" ">
<polygon fill="none" stroke="#bfbfbf" points="120.5,-165.5 120.5,-228.5 155.5,-228.5 155.5,-165.5 120.5,-165.5"/>
<text text-anchor="middle" x="138" y="-214.9" font-family="Helvetica,sans-Serif" font-size="12.00">CLI</text>
<polyline fill="none" stroke="#bfbfbf" points="120.5,-207.5 155.5,-207.5 "/>
<text text-anchor="middle" x="138" y="-193.9" font-family="Helvetica,sans-Serif" font-size="12.00"> </text>
<polyline fill="none" stroke="#bfbfbf" points="120.5,-186.5 155.5,-186.5 "/>
<text text-anchor="middle" x="138" y="-172.9" font-family="Helvetica,sans-Serif" font-size="12.00"> </text>
</a>
</g>
</g>
<!-- Node3&#45;&gt;Node1 -->
<g id="edge2" class="edge">
<title>Node3&#45;&gt;Node1</title>
<path fill="none" stroke="#404040" d="M128.13,-165.25C124.48,-153.91 120.19,-140.55 115.9,-127.2"/>
<polygon fill="none" stroke="#404040" points="115.82,-126.95 110.18,-122.46 112.15,-115.53 117.8,-120.02 115.82,-126.95"/>
<text text-anchor="middle" x="130.5" y="-137.4" font-family="Helvetica,sans-Serif" font-size="12.00"> &#45;ui</text>
</g>
</g>
</svg>
