<?xml version="1.0" encoding="UTF-8" standalone="no"?>
<!DOCTYPE svg PUBLIC "-//W3C//DTD SVG 1.1//EN"
 "http://www.w3.org/Graphics/SVG/1.1/DTD/svg11.dtd">
<!-- Generated by graphviz version 2.43.0 (0)
 -->
<!-- Title: Markov::API::ModelMatrix::DeallocateMatrix Pages: 1 -->
<svg width="598pt" height="137pt"
 viewBox="0.00 0.00 598.00 136.50" xmlns="http://www.w3.org/2000/svg" xmlns:xlink="http://www.w3.org/1999/xlink">
<g id="graph0" class="graph" transform="scale(1 1) rotate(0) translate(4 132.5)">
<title>Markov::API::ModelMatrix::DeallocateMatrix</title>
<!-- Node1 -->
<g id="node1" class="node">
<title>Node1</title>
<g id="a_node1"><a xlink:title="Deallocate matrix and make it ready for re&#45;construction.">
<polygon fill="#bfbfbf" stroke="black" points="421,-67 421,-101 590,-101 590,-67 421,-67"/>
<text text-anchor="start" x="429" y="-87.4" font-family="Helvetica,sans-Serif" font-size="12.00">Markov::API::ModelMatrix</text>
<text text-anchor="middle" x="505.5" y="-74.4" font-family="Helvetica,sans-Serif" font-size="12.00">::DeallocateMatrix</text>
</a>
</g>
</g>
<!-- Node2 -->
<g id="node2" class="node">
<title>Node2</title>
<g id="a_node2"><a xlink:href="class_markov_1_1_a_p_i_1_1_model_matrix.html#aeba8bb79aa4dc2cfeda310f34b7c9427" target="_top" xlink:title="Open a file to import with filename, and call bool Model::Import with std::ifstream.">
<polygon fill="none" stroke="black" points="216,-41 216,-75 385,-75 385,-41 216,-41"/>
<text text-anchor="start" x="224" y="-61.4" font-family="Helvetica,sans-Serif" font-size="12.00">Markov::API::ModelMatrix</text>
<text text-anchor="middle" x="300.5" y="-48.4" font-family="Helvetica,sans-Serif" font-size="12.00">::Import</text>
</a>
</g>
</g>
<!-- Node1&#45;&gt;Node2 -->
<g id="edge1" class="edge">
<title>Node1&#45;&gt;Node2</title>
<path fill="none" stroke="midnightblue" d="M410.74,-71.99C402.17,-70.89 393.52,-69.79 385.05,-68.7"/>
<polygon fill="midnightblue" stroke="midnightblue" points="410.4,-75.48 420.76,-73.27 411.29,-68.53 410.4,-75.48"/>
</g>
<!-- Node6 -->
<g id="node6" class="node">
<title>Node6</title>
<g id="a_node6"><a xlink:href="class_markov_1_1_a_p_i_1_1_model_matrix.html#af42d40d7a5c80f0dfe126a574a17f423" target="_top" xlink:title="Train the model with the dataset file.">
<polygon fill="none" stroke="black" points="216,-94 216,-128 385,-128 385,-94 216,-94"/>
<text text-anchor="start" x="224" y="-114.4" font-family="Helvetica,sans-Serif" font-size="12.00">Markov::API::ModelMatrix</text>
<text text-anchor="middle" x="300.5" y="-101.4" font-family="Helvetica,sans-Serif" font-size="12.00">::Train</text>
</a>
</g>
</g>
<!-- Node1&#45;&gt;Node6 -->
<g id="edge5" class="edge">
<title>Node1&#45;&gt;Node6</title>
<path fill="none" stroke="midnightblue" d="M410.74,-96.47C402.17,-97.61 393.52,-98.76 385.05,-99.89"/>
<polygon fill="midnightblue" stroke="midnightblue" points="411.31,-99.93 420.76,-95.14 410.39,-92.99 411.31,-99.93"/>
</g>
<!-- Node3 -->
<g id="node3" class="node">
<title>Node3</title>
<g id="a_node3"><a xlink:href="namespace_markov_1_1_markopy_1_1_c_u_d_a.html#a584fc8e70bb6cf08f544f52805245e19" target="_top" xlink:title=" ">
<polygon fill="none" stroke="black" points="0,-41 0,-75 180,-75 180,-41 0,-41"/>
<text text-anchor="start" x="8" y="-61.4" font-family="Helvetica,sans-Serif" font-size="12.00">Markov::Markopy::CUDA</text>
<text text-anchor="middle" x="90" y="-48.4" font-family="Helvetica,sans-Serif" font-size="12.00">::BOOST_PYTHON_MODULE</text>
</a>
</g>
</g>
<!-- Node2&#45;&gt;Node3 -->
<g id="edge2" class="edge">
<title>Node2&#45;&gt;Node3</title>
<path fill="none" stroke="midnightblue" d="M205.88,-58C197.3,-58 188.62,-58 180.08,-58"/>
<polygon fill="midnightblue" stroke="midnightblue" points="205.9,-61.5 215.9,-58 205.9,-54.5 205.9,-61.5"/>
</g>
<!-- Node4 -->
<g id="node4" class="node">
<title>Node4</title>
<g id="a_node4"><a xlink:href="namespace_markov_1_1_markopy.html#a379628c09859652215496b63af2bcac9" target="_top" xlink:title=" ">
<polygon fill="none" stroke="black" points="5,-94 5,-128 175,-128 175,-94 5,-94"/>
<text text-anchor="start" x="13" y="-114.4" font-family="Helvetica,sans-Serif" font-size="12.00">Markov::Markopy::BOOST</text>
<text text-anchor="middle" x="90" y="-101.4" font-family="Helvetica,sans-Serif" font-size="12.00">_PYTHON_MODULE</text>
</a>
</g>
</g>
<!-- Node2&#45;&gt;Node4 -->
<g id="edge3" class="edge">
<title>Node2&#45;&gt;Node4</title>
<path fill="none" stroke="midnightblue" d="M222.46,-77.58C201.31,-82.96 178.54,-88.75 157.99,-93.97"/>
<polygon fill="midnightblue" stroke="midnightblue" points="223.55,-80.92 232.38,-75.06 221.83,-74.13 223.55,-80.92"/>
</g>
<!-- Node5 -->
<g id="node5" class="node">
<title>Node5</title>
<g id="a_node5"><a xlink:href="_markov_a_p_i_c_l_i_2src_2main_8cpp.html#a3c04138a5bfe5d72780bb7e82a18e627" target="_top" xlink:title="Launch CLI tool.">
<polygon fill="none" stroke="black" points="66.5,-0.5 66.5,-21.5 113.5,-21.5 113.5,-0.5 66.5,-0.5"/>
<text text-anchor="middle" x="90" y="-7.9" font-family="Helvetica,sans-Serif" font-size="12.00">main</text>
</a>
</g>
</g>
<!-- Node2&#45;&gt;Node5 -->
<g id="edge4" class="edge">
<title>Node2&#45;&gt;Node5</title>
<path fill="none" stroke="midnightblue" d="M214.23,-38.72C202.72,-36.12 191.07,-33.5 180,-31 157.44,-25.92 131.67,-20.13 113.68,-16.09"/>
<polygon fill="midnightblue" stroke="midnightblue" points="213.76,-42.2 224.28,-40.99 215.3,-35.37 213.76,-42.2"/>
</g>
<!-- Node6&#45;&gt;Node3 -->
<g id="edge6" class="edge">
<title>Node6&#45;&gt;Node3</title>
<path fill="none" stroke="midnightblue" d="M222.46,-91.42C201.31,-86.04 178.54,-80.25 157.99,-75.03"/>
<polygon fill="midnightblue" stroke="midnightblue" points="221.83,-94.87 232.38,-93.94 223.55,-88.08 221.83,-94.87"/>
</g>
<!-- Node6&#45;&gt;Node4 -->
<g id="edge7" class="edge">
<title>Node6&#45;&gt;Node4</title>
<path fill="none" stroke="midnightblue" d="M205.8,-111C195.64,-111 185.34,-111 175.3,-111"/>
<polygon fill="midnightblue" stroke="midnightblue" points="205.9,-114.5 215.9,-111 205.9,-107.5 205.9,-114.5"/>
</g>
</g>
</svg>
