<?xml version="1.0" encoding="UTF-8" standalone="no"?>
<!DOCTYPE svg PUBLIC "-//W3C//DTD SVG 1.1//EN"
 "http://www.w3.org/Graphics/SVG/1.1/DTD/svg11.dtd">
<!-- Generated by graphviz version 2.43.0 (0)
 -->
<!-- Title: Markov::Model::StarterNode Pages: 1 -->
<svg width="408pt" height="96pt"
 viewBox="0.00 0.00 408.00 96.00" xmlns="http://www.w3.org/2000/svg" xmlns:xlink="http://www.w3.org/1999/xlink">
<g id="graph0" class="graph" transform="scale(1 1) rotate(0) translate(4 92)">
<title>Markov::Model::StarterNode</title>
<!-- Node1 -->
<g id="node1" class="node">
<title>Node1</title>
<g id="a_node1"><a xlink:title="Return starter Node.">
<polygon fill="#bfbfbf" stroke="black" points="215,-33 215,-54 400,-54 400,-33 215,-33"/>
<text text-anchor="middle" x="307.5" y="-40.4" font-family="Helvetica,sans-Serif" font-size="12.00">Markov::Model::StarterNode</text>
</a>
</g>
</g>
<!-- Node2 -->
<g id="node2" class="node">
<title>Node2</title>
<g id="a_node2"><a xlink:href="namespace_testing_1_1_m_v_p_1_1_markov_model.html#af8b6c0d926618a1037c1f30bfc15b87a" target="_top" xlink:title="Test class for minimal viable Model.">
<polygon fill="none" stroke="black" points="0,-53.5 0,-87.5 179,-87.5 179,-53.5 0,-53.5"/>
<text text-anchor="start" x="8" y="-73.9" font-family="Helvetica,sans-Serif" font-size="12.00">Testing::MVP::MarkovModel</text>
<text text-anchor="middle" x="89.5" y="-60.9" font-family="Helvetica,sans-Serif" font-size="12.00">::TEST_CLASS</text>
</a>
</g>
</g>
<!-- Node1&#45;&gt;Node2 -->
<g id="edge1" class="edge">
<title>Node1&#45;&gt;Node2</title>
<path fill="none" stroke="midnightblue" d="M212.29,-55.28C201.25,-56.66 190,-58.06 179.04,-59.43"/>
<polygon fill="midnightblue" stroke="midnightblue" points="212.88,-58.73 222.37,-54.02 212.01,-51.78 212.88,-58.73"/>
</g>
<!-- Node3 -->
<g id="node3" class="node">
<title>Node3</title>
<g id="a_node3"><a xlink:href="namespace_testing_1_1_markov_model.html#a84a573ca81cb8cb3db9845b0cdcf06a6" target="_top" xlink:title="Test class for rest of model cases.">
<polygon fill="none" stroke="black" points="17,-0.5 17,-34.5 162,-34.5 162,-0.5 17,-0.5"/>
<text text-anchor="start" x="25" y="-20.9" font-family="Helvetica,sans-Serif" font-size="12.00">Testing::MarkovModel</text>
<text text-anchor="middle" x="89.5" y="-7.9" font-family="Helvetica,sans-Serif" font-size="12.00">::TEST_CLASS</text>
</a>
</g>
</g>
<!-- Node1&#45;&gt;Node3 -->
<g id="edge2" class="edge">
<title>Node1&#45;&gt;Node3</title>
<path fill="none" stroke="midnightblue" d="M208.97,-31.76C193.21,-29.86 177.16,-27.93 162.16,-26.13"/>
<polygon fill="midnightblue" stroke="midnightblue" points="208.92,-35.28 219.27,-33 209.76,-28.33 208.92,-35.28"/>
</g>
</g>
</svg>
