<?xml version="1.0" encoding="UTF-8" standalone="no"?>
<!DOCTYPE svg PUBLIC "-//W3C//DTD SVG 1.1//EN"
 "http://www.w3.org/Graphics/SVG/1.1/DTD/svg11.dtd">
<!-- Generated by graphviz version 2.43.0 (0)
 -->
<!-- Title: Markov::Model::AdjustEdge Pages: 1 -->
<svg width="1070pt" height="172pt"
 viewBox="0.00 0.00 1070.00 172.00" xmlns="http://www.w3.org/2000/svg" xmlns:xlink="http://www.w3.org/1999/xlink">
<g id="graph0" class="graph" transform="scale(1 1) rotate(0) translate(4 168)">
<title>Markov::Model::AdjustEdge</title>
<!-- Node1 -->
<g id="node1" class="node">
<title>Node1</title>
<g id="a_node1"><a xlink:title="Adjust the model with a single string.">
<polygon fill="#bfbfbf" stroke="black" points="883,-86 883,-107 1062,-107 1062,-86 883,-86"/>
<text text-anchor="middle" x="972.5" y="-93.4" font-family="Helvetica,sans-Serif" font-size="12.00">Markov::Model::AdjustEdge</text>
</a>
</g>
</g>
<!-- Node2 -->
<g id="node2" class="node">
<title>Node2</title>
<g id="a_node2"><a xlink:href="class_markov_1_1_a_p_i_1_1_markov_passwords.html#a5f51b0fdb75101b797f38b08da84848e" target="_top" xlink:title="A single thread invoked by the Train function.">
<polygon fill="none" stroke="black" points="647,-79.5 647,-113.5 847,-113.5 847,-79.5 647,-79.5"/>
<text text-anchor="start" x="655" y="-99.9" font-family="Helvetica,sans-Serif" font-size="12.00">Markov::API::MarkovPasswords</text>
<text text-anchor="middle" x="747" y="-86.9" font-family="Helvetica,sans-Serif" font-size="12.00">::TrainThread</text>
</a>
</g>
</g>
<!-- Node1&#45;&gt;Node2 -->
<g id="edge1" class="edge">
<title>Node1&#45;&gt;Node2</title>
<path fill="none" stroke="midnightblue" d="M872.62,-96.5C864.19,-96.5 855.66,-96.5 847.23,-96.5"/>
<polygon fill="midnightblue" stroke="midnightblue" points="872.85,-100 882.85,-96.5 872.85,-93 872.85,-100"/>
</g>
<!-- Node3 -->
<g id="node3" class="node">
<title>Node3</title>
<g id="a_node3"><a xlink:href="class_markov_1_1_a_p_i_1_1_markov_passwords.html#a2fd4423ae3850e258dcb6b11a7feb9b2" target="_top" xlink:title="Train the model with the dataset file.">
<polygon fill="none" stroke="black" points="411,-79.5 411,-113.5 611,-113.5 611,-79.5 411,-79.5"/>
<text text-anchor="start" x="419" y="-99.9" font-family="Helvetica,sans-Serif" font-size="12.00">Markov::API::MarkovPasswords</text>
<text text-anchor="middle" x="511" y="-86.9" font-family="Helvetica,sans-Serif" font-size="12.00">::Train</text>
</a>
</g>
</g>
<!-- Node2&#45;&gt;Node3 -->
<g id="edge2" class="edge">
<title>Node2&#45;&gt;Node3</title>
<path fill="none" stroke="midnightblue" d="M636.73,-96.5C628.15,-96.5 619.52,-96.5 611.02,-96.5"/>
<polygon fill="midnightblue" stroke="midnightblue" points="636.76,-100 646.76,-96.5 636.76,-93 636.76,-100"/>
</g>
<!-- Node4 -->
<g id="node4" class="node">
<title>Node4</title>
<g id="a_node4"><a xlink:href="namespace_markov_1_1_markopy.html#a379628c09859652215496b63af2bcac9" target="_top" xlink:title=" ">
<polygon fill="none" stroke="black" points="0,-129.5 0,-163.5 170,-163.5 170,-129.5 0,-129.5"/>
<text text-anchor="start" x="8" y="-149.9" font-family="Helvetica,sans-Serif" font-size="12.00">Markov::Markopy::BOOST</text>
<text text-anchor="middle" x="85" y="-136.9" font-family="Helvetica,sans-Serif" font-size="12.00">_PYTHON_MODULE</text>
</a>
</g>
</g>
<!-- Node3&#45;&gt;Node4 -->
<g id="edge3" class="edge">
<title>Node3&#45;&gt;Node4</title>
<path fill="none" stroke="midnightblue" d="M468.32,-117.98C442.26,-130.17 407.56,-144.23 375,-150.5 307,-163.59 228.34,-161.41 170.26,-156.61"/>
<polygon fill="midnightblue" stroke="midnightblue" points="469.99,-121.05 477.51,-113.58 466.98,-114.74 469.99,-121.05"/>
</g>
<!-- Node5 -->
<g id="node5" class="node">
<title>Node5</title>
<g id="a_node5"><a xlink:href="class_markov_1_1_g_u_i_1_1_train.html#a6f74c2948379df5e7f0d8eba96c97fb0" target="_top" xlink:title=" ">
<polygon fill="none" stroke="black" points="227.5,-53.5 227.5,-87.5 353.5,-87.5 353.5,-53.5 227.5,-53.5"/>
<text text-anchor="start" x="235.5" y="-73.9" font-family="Helvetica,sans-Serif" font-size="12.00">Markov::GUI::Train</text>
<text text-anchor="middle" x="290.5" y="-60.9" font-family="Helvetica,sans-Serif" font-size="12.00">::train</text>
</a>
</g>
</g>
<!-- Node3&#45;&gt;Node5 -->
<g id="edge4" class="edge">
<title>Node3&#45;&gt;Node5</title>
<path fill="none" stroke="midnightblue" d="M400.88,-83.52C384.64,-81.58 368.4,-79.65 353.58,-77.89"/>
<polygon fill="midnightblue" stroke="midnightblue" points="400.64,-87.01 410.98,-84.72 401.46,-80.06 400.64,-87.01"/>
</g>
<!-- Node7 -->
<g id="node7" class="node">
<title>Node7</title>
<g id="a_node7"><a xlink:href="class_markov_1_1_g_u_i_1_1_generate.html#af5f5d0fcc5530157d882e35e35d1649e" target="_top" xlink:title=" ">
<polygon fill="none" stroke="black" points="213.5,-0.5 213.5,-34.5 367.5,-34.5 367.5,-0.5 213.5,-0.5"/>
<text text-anchor="start" x="221.5" y="-20.9" font-family="Helvetica,sans-Serif" font-size="12.00">Markov::GUI::Generate</text>
<text text-anchor="middle" x="290.5" y="-7.9" font-family="Helvetica,sans-Serif" font-size="12.00">::train</text>
</a>
</g>
</g>
<!-- Node3&#45;&gt;Node7 -->
<g id="edge6" class="edge">
<title>Node3&#45;&gt;Node7</title>
<path fill="none" stroke="midnightblue" d="M459.57,-75.7C434.33,-65.55 403.23,-53.42 375,-43.5 366.41,-40.48 357.25,-37.45 348.28,-34.57"/>
<polygon fill="midnightblue" stroke="midnightblue" points="458.35,-78.98 468.93,-79.48 460.97,-72.49 458.35,-78.98"/>
</g>
<!-- Node8 -->
<g id="node8" class="node">
<title>Node8</title>
<g id="a_node8"><a xlink:href="class_markov_1_1_a_p_i_1_1_model_matrix.html#af42d40d7a5c80f0dfe126a574a17f423" target="_top" xlink:title="Train the model with the dataset file.">
<polygon fill="none" stroke="black" points="206,-106.5 206,-140.5 375,-140.5 375,-106.5 206,-106.5"/>
<text text-anchor="start" x="214" y="-126.9" font-family="Helvetica,sans-Serif" font-size="12.00">Markov::API::ModelMatrix</text>
<text text-anchor="middle" x="290.5" y="-113.9" font-family="Helvetica,sans-Serif" font-size="12.00">::Train</text>
</a>
</g>
</g>
<!-- Node3&#45;&gt;Node8 -->
<g id="edge8" class="edge">
<title>Node3&#45;&gt;Node8</title>
<path fill="none" stroke="midnightblue" d="M400.85,-109.99C392.22,-111.05 383.58,-112.12 375.16,-113.16"/>
<polygon fill="midnightblue" stroke="midnightblue" points="401.48,-113.44 410.98,-108.74 400.63,-106.49 401.48,-113.44"/>
</g>
<!-- Node6 -->
<g id="node6" class="node">
<title>Node6</title>
<g id="a_node6"><a xlink:href="classbase_1_1_base_c_l_i.html#a81415f28ab1efa8b74cb6d5fe063a2d3" target="_top" xlink:title=" ">
<polygon fill="none" stroke="black" points="12,-34 12,-55 158,-55 158,-34 12,-34"/>
<text text-anchor="middle" x="85" y="-41.4" font-family="Helvetica,sans-Serif" font-size="12.00">base.BaseCLI.process</text>
</a>
</g>
</g>
<!-- Node5&#45;&gt;Node6 -->
<g id="edge5" class="edge">
<title>Node5&#45;&gt;Node6</title>
<path fill="none" stroke="midnightblue" d="M217.16,-61.26C197.99,-58.81 177.29,-56.16 158.13,-53.72"/>
<polygon fill="midnightblue" stroke="midnightblue" points="216.97,-64.76 227.34,-62.56 217.86,-57.82 216.97,-64.76"/>
</g>
<!-- Node7&#45;&gt;Node6 -->
<g id="edge7" class="edge">
<title>Node7&#45;&gt;Node6</title>
<path fill="none" stroke="midnightblue" d="M203.17,-28.95C188.21,-30.94 172.8,-32.98 158.27,-34.91"/>
<polygon fill="midnightblue" stroke="midnightblue" points="203.98,-32.38 213.43,-27.59 203.06,-25.44 203.98,-32.38"/>
</g>
<!-- Node8&#45;&gt;Node4 -->
<g id="edge9" class="edge">
<title>Node8&#45;&gt;Node4</title>
<path fill="none" stroke="midnightblue" d="M195.89,-134.08C187.36,-135.04 178.75,-136.02 170.31,-136.97"/>
<polygon fill="midnightblue" stroke="midnightblue" points="196.3,-137.56 205.85,-132.95 195.52,-130.6 196.3,-137.56"/>
</g>
</g>
</svg>
