<?xml version="1.0" encoding="UTF-8" standalone="no"?>
<!DOCTYPE svg PUBLIC "-//W3C//DTD SVG 1.1//EN"
 "http://www.w3.org/Graphics/SVG/1.1/DTD/svg11.dtd">
<!-- Generated by graphviz version 2.43.0 (0)
 -->
<!-- Title: Python.Markopy.AbstractTrainingModelCLI Pages: 1 -->
<svg width="322pt" height="1222pt"
 viewBox="0.00 0.00 321.50 1222.00" xmlns="http://www.w3.org/2000/svg" xmlns:xlink="http://www.w3.org/1999/xlink">
<g id="graph0" class="graph" transform="scale(1 1) rotate(0) translate(4 1218)">
<title>Python.Markopy.AbstractTrainingModelCLI</title>
<!-- Node1 -->
<g id="node1" class="node">
<title>Node1</title>
<g id="a_node1"><a xlink:title="abstract class for training capable models">
<polygon fill="#bfbfbf" stroke="black" points="18,-521.5 18,-597.5 230,-597.5 230,-521.5 18,-521.5"/>
<text text-anchor="start" x="26" y="-583.9" font-family="Helvetica,sans-Serif" font-size="12.00">Python.Markopy.AbstractTraining</text>
<text text-anchor="middle" x="124" y="-570.9" font-family="Helvetica,sans-Serif" font-size="12.00">ModelCLI</text>
<polyline fill="none" stroke="black" points="18,-563.5 230,-563.5 "/>
<text text-anchor="middle" x="124" y="-549.9" font-family="Helvetica,sans-Serif" font-size="12.00"> </text>
<polyline fill="none" stroke="black" points="18,-542.5 230,-542.5 "/>
<text text-anchor="start" x="26" y="-528.9" font-family="Helvetica,sans-Serif" font-size="12.00">+ def add_arguments(self)</text>
</a>
</g>
</g>
<!-- Node4 -->
<g id="node4" class="node">
<title>Node4</title>
<g id="a_node4"><a xlink:href="class_python_1_1_markopy_1_1_markov_passwords_c_l_i.html" target="_top" xlink:title="Extension of Python.Markopy.Base.BaseCLI for Markov::API::MarkovPasswords.">
<polygon fill="none" stroke="black" points="4.5,-382.5 4.5,-484.5 243.5,-484.5 243.5,-382.5 4.5,-382.5"/>
<text text-anchor="middle" x="124" y="-470.9" font-family="Helvetica,sans-Serif" font-size="12.00">Python.Markopy.MarkovPasswordsCLI</text>
<polyline fill="none" stroke="black" points="4.5,-463.5 243.5,-463.5 "/>
<text text-anchor="start" x="12.5" y="-449.9" font-family="Helvetica,sans-Serif" font-size="12.00">+ model</text>
<polyline fill="none" stroke="black" points="4.5,-442.5 243.5,-442.5 "/>
<text text-anchor="start" x="12.5" y="-428.9" font-family="Helvetica,sans-Serif" font-size="12.00">+ def __init__(self,</text>
<text text-anchor="start" x="12.5" y="-415.9" font-family="Helvetica,sans-Serif" font-size="12.00"> bool add_help=True)</text>
<text text-anchor="start" x="12.5" y="-402.9" font-family="Helvetica,sans-Serif" font-size="12.00">&#45; def _generate(self,</text>
<text text-anchor="start" x="12.5" y="-389.9" font-family="Helvetica,sans-Serif" font-size="12.00"> wordlist)</text>
</a>
</g>
</g>
<!-- Node1&#45;&gt;Node4 -->
<g id="edge4" class="edge">
<title>Node1&#45;&gt;Node4</title>
<path fill="none" stroke="midnightblue" d="M124,-511.26C124,-502.52 124,-493.35 124,-484.53"/>
<polygon fill="none" stroke="midnightblue" points="120.5,-511.3 124,-521.3 127.5,-511.3 120.5,-511.3"/>
</g>
<!-- Node2 -->
<g id="node2" class="node">
<title>Node2</title>
<g id="a_node2"><a xlink:href="class_python_1_1_markopy_1_1_abstract_generation_model_c_l_i.html" target="_top" xlink:title="abstract class for generation capable models">
<polygon fill="none" stroke="black" points="80.5,-634.5 80.5,-710.5 313.5,-710.5 313.5,-634.5 80.5,-634.5"/>
<text text-anchor="start" x="88.5" y="-696.9" font-family="Helvetica,sans-Serif" font-size="12.00">Python.Markopy.AbstractGeneration</text>
<text text-anchor="middle" x="197" y="-683.9" font-family="Helvetica,sans-Serif" font-size="12.00">ModelCLI</text>
<polyline fill="none" stroke="black" points="80.5,-676.5 313.5,-676.5 "/>
<text text-anchor="middle" x="197" y="-662.9" font-family="Helvetica,sans-Serif" font-size="12.00"> </text>
<polyline fill="none" stroke="black" points="80.5,-655.5 313.5,-655.5 "/>
<text text-anchor="start" x="88.5" y="-641.9" font-family="Helvetica,sans-Serif" font-size="12.00">+ def add_arguments(self)</text>
</a>
</g>
</g>
<!-- Node2&#45;&gt;Node1 -->
<g id="edge1" class="edge">
<title>Node2&#45;&gt;Node1</title>
<path fill="none" stroke="midnightblue" d="M166.96,-625.82C160.84,-616.52 154.47,-606.83 148.57,-597.86"/>
<polygon fill="none" stroke="midnightblue" points="164.07,-627.8 172.49,-634.23 169.92,-623.95 164.07,-627.8"/>
</g>
<!-- Node3 -->
<g id="node3" class="node">
<title>Node3</title>
<g id="a_node3"><a xlink:href="class_python_1_1_markopy_1_1_base_c_l_i.html" target="_top" xlink:title="Base CLI class to handle user interactions">
<polygon fill="none" stroke="black" points="21.5,-747.5 21.5,-1213.5 226.5,-1213.5 226.5,-747.5 21.5,-747.5"/>
<text text-anchor="middle" x="124" y="-1199.9" font-family="Helvetica,sans-Serif" font-size="12.00">Python.Markopy.BaseCLI</text>
<polyline fill="none" stroke="black" points="21.5,-1192.5 226.5,-1192.5 "/>
<text text-anchor="start" x="29.5" y="-1178.9" font-family="Helvetica,sans-Serif" font-size="12.00">+ parser</text>
<text text-anchor="start" x="29.5" y="-1165.9" font-family="Helvetica,sans-Serif" font-size="12.00">+ print_help</text>
<text text-anchor="start" x="29.5" y="-1152.9" font-family="Helvetica,sans-Serif" font-size="12.00">+ model</text>
<text text-anchor="start" x="29.5" y="-1139.9" font-family="Helvetica,sans-Serif" font-size="12.00">+ args</text>
<polyline fill="none" stroke="black" points="21.5,-1132.5 226.5,-1132.5 "/>
<text text-anchor="start" x="29.5" y="-1118.9" font-family="Helvetica,sans-Serif" font-size="12.00">+ def __init__(self,</text>
<text text-anchor="start" x="29.5" y="-1105.9" font-family="Helvetica,sans-Serif" font-size="12.00"> bool add_help=True)</text>
<text text-anchor="start" x="29.5" y="-1092.9" font-family="Helvetica,sans-Serif" font-size="12.00">+ def add_arguments(self)</text>
<text text-anchor="start" x="29.5" y="-1079.9" font-family="Helvetica,sans-Serif" font-size="12.00">+ def help(self)</text>
<text text-anchor="start" x="29.5" y="-1066.9" font-family="Helvetica,sans-Serif" font-size="12.00">+ def parse(self)</text>
<text text-anchor="start" x="29.5" y="-1053.9" font-family="Helvetica,sans-Serif" font-size="12.00">+ def init_post_arguments</text>
<text text-anchor="start" x="29.5" y="-1040.9" font-family="Helvetica,sans-Serif" font-size="12.00">(self)</text>
<text text-anchor="start" x="29.5" y="-1027.9" font-family="Helvetica,sans-Serif" font-size="12.00">+ def parse_arguments</text>
<text text-anchor="start" x="29.5" y="-1014.9" font-family="Helvetica,sans-Serif" font-size="12.00">(self)</text>
<text text-anchor="start" x="29.5" y="-1001.9" font-family="Helvetica,sans-Serif" font-size="12.00">+ def import_model(self,</text>
<text text-anchor="start" x="29.5" y="-988.9" font-family="Helvetica,sans-Serif" font-size="12.00"> str filename)</text>
<text text-anchor="start" x="29.5" y="-975.9" font-family="Helvetica,sans-Serif" font-size="12.00">+ def train(self, str</text>
<text text-anchor="start" x="29.5" y="-962.9" font-family="Helvetica,sans-Serif" font-size="12.00"> dataset, str seperator,</text>
<text text-anchor="start" x="29.5" y="-949.9" font-family="Helvetica,sans-Serif" font-size="12.00"> str output, bool output</text>
<text text-anchor="start" x="29.5" y="-936.9" font-family="Helvetica,sans-Serif" font-size="12.00">_forced=False, bool bulk=False)</text>
<text text-anchor="start" x="29.5" y="-923.9" font-family="Helvetica,sans-Serif" font-size="12.00">+ def export(self, str</text>
<text text-anchor="start" x="29.5" y="-910.9" font-family="Helvetica,sans-Serif" font-size="12.00"> filename)</text>
<text text-anchor="start" x="29.5" y="-897.9" font-family="Helvetica,sans-Serif" font-size="12.00">+ def generate(self,</text>
<text text-anchor="start" x="29.5" y="-884.9" font-family="Helvetica,sans-Serif" font-size="12.00"> str wordlist, bool</text>
<text text-anchor="start" x="29.5" y="-871.9" font-family="Helvetica,sans-Serif" font-size="12.00"> bulk=False)</text>
<text text-anchor="start" x="29.5" y="-858.9" font-family="Helvetica,sans-Serif" font-size="12.00">+ def process(self)</text>
<text text-anchor="start" x="29.5" y="-845.9" font-family="Helvetica,sans-Serif" font-size="12.00">+ def check_import_path</text>
<text text-anchor="start" x="29.5" y="-832.9" font-family="Helvetica,sans-Serif" font-size="12.00">(str filename)</text>
<text text-anchor="start" x="29.5" y="-819.9" font-family="Helvetica,sans-Serif" font-size="12.00">+ def check_corpus_path</text>
<text text-anchor="start" x="29.5" y="-806.9" font-family="Helvetica,sans-Serif" font-size="12.00">(str filename)</text>
<text text-anchor="start" x="29.5" y="-793.9" font-family="Helvetica,sans-Serif" font-size="12.00">+ def check_export_path</text>
<text text-anchor="start" x="29.5" y="-780.9" font-family="Helvetica,sans-Serif" font-size="12.00">(str filename)</text>
<text text-anchor="start" x="29.5" y="-767.9" font-family="Helvetica,sans-Serif" font-size="12.00">&#45; def _generate(self,</text>
<text text-anchor="start" x="29.5" y="-754.9" font-family="Helvetica,sans-Serif" font-size="12.00"> str wordlist)</text>
</a>
</g>
</g>
<!-- Node3&#45;&gt;Node1 -->
<g id="edge3" class="edge">
<title>Node3&#45;&gt;Node1</title>
<path fill="none" stroke="midnightblue" d="M59.57,-736.85C58.33,-701.93 61.59,-666.75 72,-634 76.07,-621.19 83.28,-608.69 91.05,-597.74"/>
<polygon fill="none" stroke="midnightblue" points="56.09,-737.37 60.07,-747.19 63.08,-737.03 56.09,-737.37"/>
</g>
<!-- Node3&#45;&gt;Node2 -->
<g id="edge2" class="edge">
<title>Node3&#45;&gt;Node2</title>
<path fill="none" stroke="midnightblue" d="M181.77,-737.32C184.07,-727.7 186.19,-718.79 188.08,-710.88"/>
<polygon fill="none" stroke="midnightblue" points="178.34,-736.64 179.42,-747.18 185.15,-738.27 178.34,-736.64"/>
</g>
<!-- Node5 -->
<g id="node5" class="node">
<title>Node5</title>
<g id="a_node5"><a xlink:href="class_python_1_1_markopy_1_1_markopy_c_l_i.html" target="_top" xlink:title="Top level model selector for Markopy CLI.">
<polygon fill="none" stroke="black" points="31,-152.5 31,-345.5 217,-345.5 217,-152.5 31,-152.5"/>
<text text-anchor="middle" x="124" y="-331.9" font-family="Helvetica,sans-Serif" font-size="12.00">Python.Markopy.MarkopyCLI</text>
<polyline fill="none" stroke="black" points="31,-324.5 217,-324.5 "/>
<text text-anchor="start" x="39" y="-310.9" font-family="Helvetica,sans-Serif" font-size="12.00">+ args</text>
<text text-anchor="start" x="39" y="-297.9" font-family="Helvetica,sans-Serif" font-size="12.00">+ cli</text>
<polyline fill="none" stroke="black" points="31,-290.5 217,-290.5 "/>
<text text-anchor="start" x="39" y="-276.9" font-family="Helvetica,sans-Serif" font-size="12.00">+ def __init__(self,</text>
<text text-anchor="start" x="39" y="-263.9" font-family="Helvetica,sans-Serif" font-size="12.00"> add_help=False)</text>
<text text-anchor="start" x="39" y="-250.9" font-family="Helvetica,sans-Serif" font-size="12.00">+ def add_arguments(self)</text>
<text text-anchor="start" x="39" y="-237.9" font-family="Helvetica,sans-Serif" font-size="12.00">+ def help(self)</text>
<text text-anchor="start" x="39" y="-224.9" font-family="Helvetica,sans-Serif" font-size="12.00">+ def parse(self)</text>
<text text-anchor="start" x="39" y="-211.9" font-family="Helvetica,sans-Serif" font-size="12.00">+ def init_post_arguments</text>
<text text-anchor="start" x="39" y="-198.9" font-family="Helvetica,sans-Serif" font-size="12.00">(self)</text>
<text text-anchor="start" x="39" y="-185.9" font-family="Helvetica,sans-Serif" font-size="12.00">+ def parse_fail(self)</text>
<text text-anchor="start" x="39" y="-172.9" font-family="Helvetica,sans-Serif" font-size="12.00">+ def process(self)</text>
<text text-anchor="start" x="39" y="-159.9" font-family="Helvetica,sans-Serif" font-size="12.00">+ def stub(self)</text>
</a>
</g>
</g>
<!-- Node4&#45;&gt;Node5 -->
<g id="edge5" class="edge">
<title>Node4&#45;&gt;Node5</title>
<path fill="none" stroke="midnightblue" d="M124,-372.02C124,-363.54 124,-354.65 124,-345.71"/>
<polygon fill="none" stroke="midnightblue" points="120.5,-372.15 124,-382.15 127.5,-372.15 120.5,-372.15"/>
</g>
<!-- Node6 -->
<g id="node6" class="node">
<title>Node6</title>
<g id="a_node6"><a xlink:href="class_python_1_1_cuda_markopy_1_1_cuda_markopy_c_l_i.html" target="_top" xlink:title="CUDA extension to MarkopyCLI.">
<polygon fill="none" stroke="black" points="0,-0.5 0,-115.5 248,-115.5 248,-0.5 0,-0.5"/>
<text text-anchor="middle" x="124" y="-101.9" font-family="Helvetica,sans-Serif" font-size="12.00">Python.CudaMarkopy.CudaMarkopyCLI</text>
<polyline fill="none" stroke="black" points="0,-94.5 248,-94.5 "/>
<text text-anchor="start" x="8" y="-80.9" font-family="Helvetica,sans-Serif" font-size="12.00">+ args</text>
<text text-anchor="start" x="8" y="-67.9" font-family="Helvetica,sans-Serif" font-size="12.00">+ cli</text>
<polyline fill="none" stroke="black" points="0,-60.5 248,-60.5 "/>
<text text-anchor="start" x="8" y="-46.9" font-family="Helvetica,sans-Serif" font-size="12.00">+ None __init__(self)</text>
<text text-anchor="start" x="8" y="-33.9" font-family="Helvetica,sans-Serif" font-size="12.00">+ def help(self)</text>
<text text-anchor="start" x="8" y="-20.9" font-family="Helvetica,sans-Serif" font-size="12.00">+ def parse(self)</text>
<text text-anchor="start" x="8" y="-7.9" font-family="Helvetica,sans-Serif" font-size="12.00">+ def parse_fail(self)</text>
</a>
</g>
</g>
<!-- Node5&#45;&gt;Node6 -->
<g id="edge6" class="edge">
<title>Node5&#45;&gt;Node6</title>
<path fill="none" stroke="midnightblue" d="M124,-142.13C124,-133.07 124,-124.16 124,-115.72"/>
<polygon fill="none" stroke="midnightblue" points="120.5,-142.39 124,-152.39 127.5,-142.39 120.5,-142.39"/>
</g>
</g>
</svg>
