<?xml version="1.0" encoding="UTF-8" standalone="no"?>
<!DOCTYPE svg PUBLIC "-//W3C//DTD SVG 1.1//EN"
 "http://www.w3.org/Graphics/SVG/1.1/DTD/svg11.dtd">
<!-- Generated by graphviz version 2.43.0 (0)
 -->
<!-- Title: Markov::Edge::SetLeftEdge Pages: 1 -->
<svg width="414pt" height="96pt"
 viewBox="0.00 0.00 414.00 96.00" xmlns="http://www.w3.org/2000/svg" xmlns:xlink="http://www.w3.org/1999/xlink">
<g id="graph0" class="graph" transform="scale(1 1) rotate(0) translate(4 92)">
<title>Markov::Edge::SetLeftEdge</title>
<!-- Node1 -->
<g id="node1" class="node">
<title>Node1</title>
<g id="a_node1"><a xlink:title="Set LeftNode of this edge.">
<polygon fill="#bfbfbf" stroke="black" points="228,-33 228,-54 406,-54 406,-33 228,-33"/>
<text text-anchor="middle" x="317" y="-40.4" font-family="Helvetica,sans-Serif" font-size="12.00">Markov::Edge::SetLeftEdge</text>
</a>
</g>
</g>
<!-- Node2 -->
<g id="node2" class="node">
<title>Node2</title>
<g id="a_node2"><a xlink:href="class_markov_1_1_node.html#a1db7cba480ab9fb41ef8ab53d1eac0f2" target="_top" xlink:title="Link this node with another, with this node as its source.">
<polygon fill="none" stroke="black" points="0,-53.5 0,-87.5 192,-87.5 192,-53.5 0,-53.5"/>
<text text-anchor="start" x="8" y="-73.9" font-family="Helvetica,sans-Serif" font-size="12.00">Markov::Node&lt; NodeStorage</text>
<text text-anchor="middle" x="96" y="-60.9" font-family="Helvetica,sans-Serif" font-size="12.00">Type &gt;::Link</text>
</a>
</g>
</g>
<!-- Node1&#45;&gt;Node2 -->
<g id="edge1" class="edge">
<title>Node1&#45;&gt;Node2</title>
<path fill="none" stroke="midnightblue" d="M220.57,-55.27C211.17,-56.42 201.63,-57.6 192.23,-58.76"/>
<polygon fill="midnightblue" stroke="midnightblue" points="221.21,-58.71 230.7,-54.02 220.35,-51.77 221.21,-58.71"/>
</g>
<!-- Node3 -->
<g id="node3" class="node">
<title>Node3</title>
<g id="a_node3"><a xlink:href="namespace_testing_1_1_m_v_p_1_1_markov_model.html#a0e3a45b149abd9dff30adc9b877f94cd" target="_top" xlink:title="Test class for minimal viable Edge.">
<polygon fill="none" stroke="black" points="6.5,-0.5 6.5,-34.5 185.5,-34.5 185.5,-0.5 6.5,-0.5"/>
<text text-anchor="start" x="14.5" y="-20.9" font-family="Helvetica,sans-Serif" font-size="12.00">Testing::MVP::MarkovModel</text>
<text text-anchor="middle" x="96" y="-7.9" font-family="Helvetica,sans-Serif" font-size="12.00">::TEST_CLASS</text>
</a>
</g>
</g>
<!-- Node1&#45;&gt;Node3 -->
<g id="edge2" class="edge">
<title>Node1&#45;&gt;Node3</title>
<path fill="none" stroke="midnightblue" d="M217.7,-31.83C207.02,-30.56 196.21,-29.28 185.66,-28.03"/>
<polygon fill="midnightblue" stroke="midnightblue" points="217.53,-35.33 227.87,-33.04 218.35,-28.38 217.53,-35.33"/>
</g>
</g>
</svg>
