<?xml version="1.0" encoding="UTF-8" standalone="no"?>
<!DOCTYPE svg PUBLIC "-//W3C//DTD SVG 1.1//EN"
 "http://www.w3.org/Graphics/SVG/1.1/DTD/svg11.dtd">
<!-- Generated by graphviz version 2.43.0 (0)
 -->
<!-- Title: Markov::GUI::CLI Pages: 1 -->
<svg width="164pt" height="224pt"
 viewBox="0.00 0.00 163.50 224.00" xmlns="http://www.w3.org/2000/svg" xmlns:xlink="http://www.w3.org/1999/xlink">
<g id="graph0" class="graph" transform="scale(1 1) rotate(0) translate(4 220)">
<title>Markov::GUI::CLI</title>
<!-- Node1 -->
<g id="node1" class="node">
<title>Node1</title>
<g id="a_node1"><a xlink:title="QT CLI Class.">
<polygon fill="#bfbfbf" stroke="black" points="36,-0.5 36,-102.5 152,-102.5 152,-0.5 36,-0.5"/>
<text text-anchor="middle" x="94" y="-88.9" font-family="Helvetica,sans-Serif" font-size="12.00">Markov::GUI::CLI</text>
<polyline fill="none" stroke="black" points="36,-81.5 152,-81.5 "/>
<text text-anchor="middle" x="94" y="-67.9" font-family="Helvetica,sans-Serif" font-size="12.00"> </text>
<polyline fill="none" stroke="black" points="36,-60.5 152,-60.5 "/>
<text text-anchor="start" x="44" y="-46.9" font-family="Helvetica,sans-Serif" font-size="12.00">+ CLI()</text>
<text text-anchor="start" x="44" y="-33.9" font-family="Helvetica,sans-Serif" font-size="12.00">+ start()</text>
<text text-anchor="start" x="44" y="-20.9" font-family="Helvetica,sans-Serif" font-size="12.00">+ statistics()</text>
<text text-anchor="start" x="44" y="-7.9" font-family="Helvetica,sans-Serif" font-size="12.00">+ about()</text>
</a>
</g>
</g>
<!-- Node2 -->
<g id="node2" class="node">
<title>Node2</title>
<g id="a_node2"><a xlink:href="class_q_main_window.html" target="_top" xlink:title=" ">
<polygon fill="none" stroke="black" points="0,-152.5 0,-215.5 102,-215.5 102,-152.5 0,-152.5"/>
<text text-anchor="middle" x="51" y="-201.9" font-family="Helvetica,sans-Serif" font-size="12.00">QMainWindow</text>
<polyline fill="none" stroke="black" points="0,-194.5 102,-194.5 "/>
<text text-anchor="middle" x="51" y="-180.9" font-family="Helvetica,sans-Serif" font-size="12.00"> </text>
<polyline fill="none" stroke="black" points="0,-173.5 102,-173.5 "/>
<text text-anchor="middle" x="51" y="-159.9" font-family="Helvetica,sans-Serif" font-size="12.00"> </text>
</a>
</g>
</g>
<!-- Node2&#45;&gt;Node1 -->
<g id="edge1" class="edge">
<title>Node2&#45;&gt;Node1</title>
<path fill="none" stroke="midnightblue" d="M64.31,-142.61C68.48,-129.94 73.14,-115.81 77.5,-102.56"/>
<polygon fill="none" stroke="midnightblue" points="60.89,-141.81 61.08,-152.4 67.54,-144 60.89,-141.81"/>
</g>
<!-- Node3 -->
<g id="node3" class="node">
<title>Node3</title>
<g id="a_node3"><a xlink:title=" ">
<polygon fill="none" stroke="#bfbfbf" points="120.5,-152.5 120.5,-215.5 155.5,-215.5 155.5,-152.5 120.5,-152.5"/>
<text text-anchor="middle" x="138" y="-201.9" font-family="Helvetica,sans-Serif" font-size="12.00">CLI</text>
<polyline fill="none" stroke="#bfbfbf" points="120.5,-194.5 155.5,-194.5 "/>
<text text-anchor="middle" x="138" y="-180.9" font-family="Helvetica,sans-Serif" font-size="12.00"> </text>
<polyline fill="none" stroke="#bfbfbf" points="120.5,-173.5 155.5,-173.5 "/>
<text text-anchor="middle" x="138" y="-159.9" font-family="Helvetica,sans-Serif" font-size="12.00"> </text>
</a>
</g>
</g>
<!-- Node3&#45;&gt;Node1 -->
<g id="edge2" class="edge">
<title>Node3&#45;&gt;Node1</title>
<path fill="none" stroke="#404040" d="M127.68,-152.4C123.81,-140.92 119.26,-127.43 114.78,-114.14"/>
<polygon fill="none" stroke="#404040" points="114.71,-113.93 109.01,-109.53 110.88,-102.56 116.59,-106.97 114.71,-113.93"/>
<text text-anchor="middle" x="130.5" y="-124.4" font-family="Helvetica,sans-Serif" font-size="12.00"> &#45;ui</text>
</g>
</g>
</svg>
