<?xml version="1.0" encoding="UTF-8" standalone="no"?>
<!DOCTYPE svg PUBLIC "-//W3C//DTD SVG 1.1//EN"
 "http://www.w3.org/Graphics/SVG/1.1/DTD/svg11.dtd">
<!-- Generated by graphviz version 2.43.0 (0)
 -->
<!-- Title: cudaDeviceController.h Pages: 1 -->
<svg width="262pt" height="88pt"
 viewBox="0.00 0.00 261.50 88.00" xmlns="http://www.w3.org/2000/svg" xmlns:xlink="http://www.w3.org/1999/xlink">
<g id="graph0" class="graph" transform="scale(1 1) rotate(0) translate(4 84)">
<title>cudaDeviceController.h</title>
<!-- Node1 -->
<g id="node1" class="node">
<title>Node1</title>
<g id="a_node1"><a xlink:title=" ">
<polygon fill="#bfbfbf" stroke="black" points="56,-58.5 56,-79.5 211,-79.5 211,-58.5 56,-58.5"/>
<text text-anchor="middle" x="133.5" y="-65.9" font-family="Helvetica,sans-Serif" font-size="12.00">cudaDeviceController.h</text>
</a>
</g>
</g>
<!-- Node2 -->
<g id="node2" class="node">
<title>Node2</title>
<g id="a_node2"><a xlink:href="cuda_model_matrix_8h.html" target="_top" xlink:title=" ">
<polygon fill="none" stroke="black" points="0,-0.5 0,-21.5 131,-21.5 131,-0.5 0,-0.5"/>
<text text-anchor="middle" x="65.5" y="-7.9" font-family="Helvetica,sans-Serif" font-size="12.00">cudaModelMatrix.h</text>
</a>
</g>
</g>
<!-- Node1&#45;&gt;Node2 -->
<g id="edge1" class="edge">
<title>Node1&#45;&gt;Node2</title>
<path fill="none" stroke="midnightblue" d="M113.64,-51.65C101.81,-41.91 87.21,-29.88 77.21,-21.64"/>
<polygon fill="midnightblue" stroke="midnightblue" points="111.71,-54.59 121.66,-58.25 116.16,-49.19 111.71,-54.59"/>
</g>
<!-- Node3 -->
<g id="node3" class="node">
<title>Node3</title>
<g id="a_node3"><a xlink:href="cudarandom_8h.html" target="_top" xlink:title=" ">
<polygon fill="none" stroke="black" points="149.5,-0.5 149.5,-21.5 253.5,-21.5 253.5,-0.5 149.5,-0.5"/>
<text text-anchor="middle" x="201.5" y="-7.9" font-family="Helvetica,sans-Serif" font-size="12.00">cudarandom.h</text>
</a>
</g>
</g>
<!-- Node1&#45;&gt;Node3 -->
<g id="edge2" class="edge">
<title>Node1&#45;&gt;Node3</title>
<path fill="none" stroke="midnightblue" d="M153.36,-51.65C165.19,-41.91 179.79,-29.88 189.79,-21.64"/>
<polygon fill="midnightblue" stroke="midnightblue" points="150.84,-49.19 145.34,-58.25 155.29,-54.59 150.84,-49.19"/>
</g>
</g>
</svg>
