<?xml version="1.0" encoding="UTF-8" standalone="no"?>
<!DOCTYPE svg PUBLIC "-//W3C//DTD SVG 1.1//EN"
 "http://www.w3.org/Graphics/SVG/1.1/DTD/svg11.dtd">
<!-- Generated by graphviz version 2.43.0 (0)
 -->
<!-- Title: Markopy/CudaMarkovAPI/src/cudaModelMatrix.h Pages: 1 -->
<svg width="564pt" height="114pt"
 viewBox="0.00 0.00 563.50 114.00" xmlns="http://www.w3.org/2000/svg" xmlns:xlink="http://www.w3.org/1999/xlink">
<g id="graph0" class="graph" transform="scale(1 1) rotate(0) translate(4 110)">
<title>Markopy/CudaMarkovAPI/src/cudaModelMatrix.h</title>
<!-- Node1 -->
<g id="node1" class="node">
<title>Node1</title>
<g id="a_node1"><a xlink:title="CUDA accelerated extension of Markov::API::ModelMatrix.">
<polygon fill="#bfbfbf" stroke="black" points="185,-71.5 185,-105.5 352,-105.5 352,-71.5 185,-71.5"/>
<text text-anchor="start" x="193" y="-91.9" font-family="Helvetica,sans-Serif" font-size="12.00">Markopy/CudaMarkovAPI</text>
<text text-anchor="middle" x="268.5" y="-78.9" font-family="Helvetica,sans-Serif" font-size="12.00">/src/cudaModelMatrix.h</text>
</a>
</g>
</g>
<!-- Node2 -->
<g id="node2" class="node">
<title>Node2</title>
<g id="a_node2"><a xlink:href="cuda_model_matrix_8cu.html" target="_top" xlink:title="CUDA accelerated extension of Markov::API::ModelMatrix.">
<polygon fill="none" stroke="black" points="0,-0.5 0,-34.5 167,-34.5 167,-0.5 0,-0.5"/>
<text text-anchor="start" x="8" y="-20.9" font-family="Helvetica,sans-Serif" font-size="12.00">Markopy/CudaMarkovAPI</text>
<text text-anchor="middle" x="83.5" y="-7.9" font-family="Helvetica,sans-Serif" font-size="12.00">/src/cudaModelMatrix.cu</text>
</a>
</g>
</g>
<!-- Node1&#45;&gt;Node2 -->
<g id="edge1" class="edge">
<title>Node1&#45;&gt;Node2</title>
<path fill="none" stroke="midnightblue" d="M215.87,-67.87C187.58,-57.32 153.15,-44.48 126.5,-34.54"/>
<polygon fill="midnightblue" stroke="midnightblue" points="215,-71.28 225.59,-71.5 217.45,-64.72 215,-71.28"/>
</g>
<!-- Node3 -->
<g id="node3" class="node">
<title>Node3</title>
<g id="a_node3"><a xlink:href="main_8cu.html" target="_top" xlink:title="Simple test file to check libcudamarkov.">
<polygon fill="none" stroke="black" points="185,-0.5 185,-34.5 352,-34.5 352,-0.5 185,-0.5"/>
<text text-anchor="start" x="193" y="-20.9" font-family="Helvetica,sans-Serif" font-size="12.00">Markopy/CudaMarkovAPI</text>
<text text-anchor="middle" x="268.5" y="-7.9" font-family="Helvetica,sans-Serif" font-size="12.00">/src/main.cu</text>
</a>
</g>
</g>
<!-- Node1&#45;&gt;Node3 -->
<g id="edge2" class="edge">
<title>Node1&#45;&gt;Node3</title>
<path fill="none" stroke="midnightblue" d="M268.5,-61.25C268.5,-52.39 268.5,-42.77 268.5,-34.9"/>
<polygon fill="midnightblue" stroke="midnightblue" points="265,-61.5 268.5,-71.5 272,-61.5 265,-61.5"/>
</g>
<!-- Node4 -->
<g id="node4" class="node">
<title>Node4</title>
<g id="a_node4"><a xlink:href="cuda_markopy_8cu.html" target="_top" xlink:title=" ">
<polygon fill="none" stroke="black" points="369.5,-0.5 369.5,-34.5 555.5,-34.5 555.5,-0.5 369.5,-0.5"/>
<text text-anchor="start" x="377.5" y="-20.9" font-family="Helvetica,sans-Serif" font-size="12.00">Markopy/CudaMarkopy</text>
<text text-anchor="middle" x="462.5" y="-7.9" font-family="Helvetica,sans-Serif" font-size="12.00">/src/Module/cudaMarkopy.cu</text>
</a>
</g>
</g>
<!-- Node1&#45;&gt;Node4 -->
<g id="edge3" class="edge">
<title>Node1&#45;&gt;Node4</title>
<path fill="none" stroke="midnightblue" d="M322.92,-68.15C352.72,-57.55 389.22,-44.57 417.41,-34.54"/>
<polygon fill="midnightblue" stroke="midnightblue" points="321.74,-64.85 313.5,-71.5 324.09,-71.44 321.74,-64.85"/>
</g>
</g>
</svg>
