<?xml version="1.0" encoding="UTF-8" standalone="no"?>
<!DOCTYPE svg PUBLIC "-//W3C//DTD SVG 1.1//EN"
 "http://www.w3.org/Graphics/SVG/1.1/DTD/svg11.dtd">
<!-- Generated by graphviz version 2.43.0 (0)
 -->
<!-- Title: cudaModelMatrix.h Pages: 1 -->
<svg width="729pt" height="378pt"
 viewBox="0.00 0.00 728.86 378.00" xmlns="http://www.w3.org/2000/svg" xmlns:xlink="http://www.w3.org/1999/xlink">
<g id="graph0" class="graph" transform="scale(1 1) rotate(0) translate(4 374)">
<title>cudaModelMatrix.h</title>
<!-- Node1 -->
<g id="node1" class="node">
<title>Node1</title>
<g id="a_node1"><a xlink:title="CUDA accelerated extension of Markov::API::ModelMatrix.">
<polygon fill="#bfbfbf" stroke="black" points="335.86,-348.5 335.86,-369.5 466.86,-369.5 466.86,-348.5 335.86,-348.5"/>
<text text-anchor="middle" x="401.36" y="-355.9" font-family="Helvetica,sans-Serif" font-size="12.00">cudaModelMatrix.h</text>
</a>
</g>
</g>
<!-- Node2 -->
<g id="node2" class="node">
<title>Node2</title>
<g id="a_node2"><a xlink:href="model_matrix_8h.html" target="_top" xlink:title="An extension of Markov::API::MarkovPasswords.">
<polygon fill="none" stroke="black" points="386.86,-290.5 386.86,-311.5 577.86,-311.5 577.86,-290.5 386.86,-290.5"/>
<text text-anchor="middle" x="482.36" y="-297.9" font-family="Helvetica,sans-Serif" font-size="12.00">MarkovAPI/src/modelMatrix.h</text>
</a>
</g>
</g>
<!-- Node1&#45;&gt;Node2 -->
<g id="edge1" class="edge">
<title>Node1&#45;&gt;Node2</title>
<path fill="none" stroke="midnightblue" d="M415.47,-348.25C427.78,-339.73 445.85,-327.24 460.11,-317.38"/>
<polygon fill="midnightblue" stroke="midnightblue" points="462.18,-320.21 468.41,-311.64 458.2,-314.45 462.18,-320.21"/>
</g>
<!-- Node21 -->
<g id="node21" class="node">
<title>Node21</title>
<g id="a_node21"><a xlink:href="cuda_device_controller_8h.html" target="_top" xlink:title="Simple static class for basic CUDA device controls.">
<polygon fill="none" stroke="black" points="77.86,-232.5 77.86,-253.5 232.86,-253.5 232.86,-232.5 77.86,-232.5"/>
<text text-anchor="middle" x="155.36" y="-239.9" font-family="Helvetica,sans-Serif" font-size="12.00">cudaDeviceController.h</text>
</a>
</g>
</g>
<!-- Node1&#45;&gt;Node21 -->
<g id="edge28" class="edge">
<title>Node1&#45;&gt;Node21</title>
<path fill="none" stroke="midnightblue" d="M380.81,-348.48C337.31,-328.32 235.77,-281.26 185.15,-257.8"/>
<polygon fill="midnightblue" stroke="midnightblue" points="186.57,-254.61 176.02,-253.58 183.63,-260.96 186.57,-254.61"/>
</g>
<!-- Node3 -->
<g id="node3" class="node">
<title>Node3</title>
<g id="a_node3"><a xlink:href="markov_passwords_8h.html" target="_top" xlink:title="Wrapper for Markov::Model to use with char represented models.">
<polygon fill="none" stroke="black" points="415.36,-232.5 415.36,-253.5 549.36,-253.5 549.36,-232.5 415.36,-232.5"/>
<text text-anchor="middle" x="482.36" y="-239.9" font-family="Helvetica,sans-Serif" font-size="12.00">markovPasswords.h</text>
</a>
</g>
</g>
<!-- Node2&#45;&gt;Node3 -->
<g id="edge2" class="edge">
<title>Node2&#45;&gt;Node3</title>
<path fill="none" stroke="midnightblue" d="M482.36,-290.25C482.36,-282.94 482.36,-272.69 482.36,-263.7"/>
<polygon fill="midnightblue" stroke="midnightblue" points="485.86,-263.64 482.36,-253.64 478.86,-263.64 485.86,-263.64"/>
</g>
<!-- Node7 -->
<g id="node7" class="node">
<title>Node7</title>
<g id="a_node7"><a xlink:title=" ">
<polygon fill="none" stroke="#bfbfbf" points="665.86,-116.5 665.86,-137.5 720.86,-137.5 720.86,-116.5 665.86,-116.5"/>
<text text-anchor="middle" x="693.36" y="-123.9" font-family="Helvetica,sans-Serif" font-size="12.00">mutex</text>
</a>
</g>
</g>
<!-- Node2&#45;&gt;Node7 -->
<g id="edge27" class="edge">
<title>Node2&#45;&gt;Node7</title>
<path fill="none" stroke="midnightblue" d="M516.26,-290.44C559.11,-276.62 632.21,-246.97 673.36,-196 684.45,-182.27 689.39,-162.57 691.59,-147.91"/>
<polygon fill="midnightblue" stroke="midnightblue" points="695.08,-148.21 692.8,-137.86 688.13,-147.38 695.08,-148.21"/>
</g>
<!-- Node4 -->
<g id="node4" class="node">
<title>Node4</title>
<g id="a_node4"><a xlink:href="thread_shared_list_handler_8h.html" target="_top" xlink:title="Thread&#45;safe wrapper for std::ifstream.">
<polygon fill="none" stroke="black" points="489.86,-174.5 489.86,-195.5 664.86,-195.5 664.86,-174.5 489.86,-174.5"/>
<text text-anchor="middle" x="577.36" y="-181.9" font-family="Helvetica,sans-Serif" font-size="12.00">threadSharedListHandler.h</text>
</a>
</g>
</g>
<!-- Node3&#45;&gt;Node4 -->
<g id="edge3" class="edge">
<title>Node3&#45;&gt;Node4</title>
<path fill="none" stroke="midnightblue" d="M498.91,-232.25C513.62,-223.57 535.35,-210.76 552.21,-200.82"/>
<polygon fill="midnightblue" stroke="midnightblue" points="554.16,-203.74 561,-195.64 550.61,-197.71 554.16,-203.74"/>
</g>
<!-- Node8 -->
<g id="node8" class="node">
<title>Node8</title>
<g id="a_node8"><a xlink:href="model_8h.html" target="_top" xlink:title="Model class template.">
<polygon fill="none" stroke="black" points="301.36,-174.5 301.36,-195.5 471.36,-195.5 471.36,-174.5 301.36,-174.5"/>
<text text-anchor="middle" x="386.36" y="-181.9" font-family="Helvetica,sans-Serif" font-size="12.00">MarkovModel/src/model.h</text>
</a>
</g>
</g>
<!-- Node3&#45;&gt;Node8 -->
<g id="edge7" class="edge">
<title>Node3&#45;&gt;Node8</title>
<path fill="none" stroke="midnightblue" d="M465.64,-232.25C450.77,-223.57 428.81,-210.76 411.77,-200.82"/>
<polygon fill="midnightblue" stroke="midnightblue" points="413.29,-197.66 402.89,-195.64 409.76,-203.7 413.29,-197.66"/>
</g>
<!-- Node5 -->
<g id="node5" class="node">
<title>Node5</title>
<g id="a_node5"><a xlink:title=" ">
<polygon fill="none" stroke="#bfbfbf" points="597.36,-116.5 597.36,-137.5 647.36,-137.5 647.36,-116.5 597.36,-116.5"/>
<text text-anchor="middle" x="622.36" y="-123.9" font-family="Helvetica,sans-Serif" font-size="12.00">string</text>
</a>
</g>
</g>
<!-- Node4&#45;&gt;Node5 -->
<g id="edge4" class="edge">
<title>Node4&#45;&gt;Node5</title>
<path fill="none" stroke="midnightblue" d="M585.2,-174.25C591.52,-166.38 600.58,-155.1 608.17,-145.65"/>
<polygon fill="midnightblue" stroke="midnightblue" points="611.07,-147.63 614.61,-137.64 605.62,-143.25 611.07,-147.63"/>
</g>
<!-- Node6 -->
<g id="node6" class="node">
<title>Node6</title>
<g id="a_node6"><a xlink:title=" ">
<polygon fill="none" stroke="#bfbfbf" points="515.86,-116.5 515.86,-137.5 578.86,-137.5 578.86,-116.5 515.86,-116.5"/>
<text text-anchor="middle" x="547.36" y="-123.9" font-family="Helvetica,sans-Serif" font-size="12.00">fstream</text>
</a>
</g>
</g>
<!-- Node4&#45;&gt;Node6 -->
<g id="edge5" class="edge">
<title>Node4&#45;&gt;Node6</title>
<path fill="none" stroke="midnightblue" d="M572.13,-174.25C568.05,-166.62 562.25,-155.79 557.28,-146.53"/>
<polygon fill="midnightblue" stroke="midnightblue" points="560.33,-144.8 552.52,-137.64 554.16,-148.11 560.33,-144.8"/>
</g>
<!-- Node4&#45;&gt;Node7 -->
<g id="edge6" class="edge">
<title>Node4&#45;&gt;Node7</title>
<path fill="none" stroke="midnightblue" d="M597.3,-174.37C615.84,-165.42 643.66,-151.99 664.6,-141.88"/>
<polygon fill="midnightblue" stroke="midnightblue" points="666.19,-145 673.68,-137.5 663.15,-138.7 666.19,-145"/>
</g>
<!-- Node8&#45;&gt;Node5 -->
<g id="edge12" class="edge">
<title>Node8&#45;&gt;Node5</title>
<path fill="none" stroke="midnightblue" d="M431.23,-174.45C472.07,-165.58 533.97,-151.73 587.36,-138 587.46,-137.97 587.56,-137.95 587.66,-137.92"/>
<polygon fill="midnightblue" stroke="midnightblue" points="588.42,-141.34 597.17,-135.37 586.6,-134.58 588.42,-141.34"/>
</g>
<!-- Node8&#45;&gt;Node6 -->
<g id="edge10" class="edge">
<title>Node8&#45;&gt;Node6</title>
<path fill="none" stroke="midnightblue" d="M414.04,-174.37C440.69,-165.1 481.18,-151.02 510.55,-140.8"/>
<polygon fill="midnightblue" stroke="midnightblue" points="511.75,-144.09 520.04,-137.5 509.45,-137.48 511.75,-144.09"/>
</g>
<!-- Node9 -->
<g id="node9" class="node">
<title>Node9</title>
<g id="a_node9"><a xlink:title=" ">
<polygon fill="none" stroke="#bfbfbf" points="12.36,-58.5 12.36,-79.5 56.36,-79.5 56.36,-58.5 12.36,-58.5"/>
<text text-anchor="middle" x="34.36" y="-65.9" font-family="Helvetica,sans-Serif" font-size="12.00">map</text>
</a>
</g>
</g>
<!-- Node8&#45;&gt;Node9 -->
<g id="edge8" class="edge">
<title>Node8&#45;&gt;Node9</title>
<path fill="none" stroke="midnightblue" d="M344.97,-174.48C309.28,-165.95 256.51,-152.56 211.36,-138 159.52,-121.29 100.76,-97.77 65.67,-83.23"/>
<polygon fill="midnightblue" stroke="midnightblue" points="67.01,-80 56.43,-79.38 64.32,-86.46 67.01,-80"/>
</g>
<!-- Node10 -->
<g id="node10" class="node">
<title>Node10</title>
<g id="a_node10"><a xlink:title=" ">
<polygon fill="none" stroke="#bfbfbf" points="298.86,-58.5 298.86,-79.5 353.86,-79.5 353.86,-58.5 298.86,-58.5"/>
<text text-anchor="middle" x="326.36" y="-65.9" font-family="Helvetica,sans-Serif" font-size="12.00">vector</text>
</a>
</g>
</g>
<!-- Node8&#45;&gt;Node10 -->
<g id="edge9" class="edge">
<title>Node8&#45;&gt;Node10</title>
<path fill="none" stroke="midnightblue" d="M381.24,-174.28C371.28,-155.35 349.12,-113.25 336.21,-88.72"/>
<polygon fill="midnightblue" stroke="midnightblue" points="339.22,-86.91 331.46,-79.69 333.02,-90.17 339.22,-86.91"/>
</g>
<!-- Node11 -->
<g id="node11" class="node">
<title>Node11</title>
<g id="a_node11"><a xlink:title=" ">
<polygon fill="none" stroke="#bfbfbf" points="448.86,-58.5 448.86,-79.5 513.86,-79.5 513.86,-58.5 448.86,-58.5"/>
<text text-anchor="middle" x="481.36" y="-65.9" font-family="Helvetica,sans-Serif" font-size="12.00">assert.h</text>
</a>
</g>
</g>
<!-- Node8&#45;&gt;Node11 -->
<g id="edge11" class="edge">
<title>Node8&#45;&gt;Node11</title>
<path fill="none" stroke="midnightblue" d="M388.48,-174.3C391.94,-160.23 399.91,-133.87 414.36,-116 424.74,-103.16 439.62,-92.45 452.73,-84.6"/>
<polygon fill="midnightblue" stroke="midnightblue" points="454.49,-87.63 461.44,-79.64 451.02,-81.55 454.49,-87.63"/>
</g>
<!-- Node12 -->
<g id="node12" class="node">
<title>Node12</title>
<g id="a_node12"><a xlink:title=" ">
<polygon fill="none" stroke="#bfbfbf" points="423.36,-116.5 423.36,-137.5 497.36,-137.5 497.36,-116.5 423.36,-116.5"/>
<text text-anchor="middle" x="460.36" y="-123.9" font-family="Helvetica,sans-Serif" font-size="12.00">algorithm</text>
</a>
</g>
</g>
<!-- Node8&#45;&gt;Node12 -->
<g id="edge13" class="edge">
<title>Node8&#45;&gt;Node12</title>
<path fill="none" stroke="midnightblue" d="M399.25,-174.25C410.28,-165.89 426.39,-153.71 439.29,-143.94"/>
<polygon fill="midnightblue" stroke="midnightblue" points="441.75,-146.47 447.62,-137.64 437.53,-140.89 441.75,-146.47"/>
</g>
<!-- Node13 -->
<g id="node13" class="node">
<title>Node13</title>
<g id="a_node13"><a xlink:href="node_8h.html" target="_top" xlink:title="Node class template.">
<polygon fill="none" stroke="black" points="220.36,-116.5 220.36,-137.5 278.36,-137.5 278.36,-116.5 220.36,-116.5"/>
<text text-anchor="middle" x="249.36" y="-123.9" font-family="Helvetica,sans-Serif" font-size="12.00">node.h</text>
</a>
</g>
</g>
<!-- Node8&#45;&gt;Node13 -->
<g id="edge14" class="edge">
<title>Node8&#45;&gt;Node13</title>
<path fill="none" stroke="midnightblue" d="M362.81,-174.37C340.52,-165.26 306.87,-151.51 282,-141.34"/>
<polygon fill="midnightblue" stroke="midnightblue" points="283.18,-138.05 272.6,-137.5 280.53,-144.52 283.18,-138.05"/>
</g>
<!-- Node16 -->
<g id="node16" class="node">
<title>Node16</title>
<g id="a_node16"><a xlink:href="edge_8h.html" target="_top" xlink:title="Edge class template.">
<polygon fill="none" stroke="black" points="372.36,-58.5 372.36,-79.5 430.36,-79.5 430.36,-58.5 372.36,-58.5"/>
<text text-anchor="middle" x="401.36" y="-65.9" font-family="Helvetica,sans-Serif" font-size="12.00">edge.h</text>
</a>
</g>
</g>
<!-- Node8&#45;&gt;Node16 -->
<g id="edge26" class="edge">
<title>Node8&#45;&gt;Node16</title>
<path fill="none" stroke="midnightblue" d="M383.96,-174.2C381.07,-160.89 377.12,-136.4 381.36,-116 383.3,-106.67 387.24,-96.9 391.11,-88.78"/>
<polygon fill="midnightblue" stroke="midnightblue" points="394.25,-90.34 395.66,-79.84 388.01,-87.16 394.25,-90.34"/>
</g>
<!-- Node13&#45;&gt;Node9 -->
<g id="edge16" class="edge">
<title>Node13&#45;&gt;Node9</title>
<path fill="none" stroke="midnightblue" d="M220.17,-118.68C184.7,-109.75 123.05,-94.09 70.36,-80 69.09,-79.66 67.8,-79.31 66.49,-78.96"/>
<polygon fill="midnightblue" stroke="midnightblue" points="66.99,-75.47 56.43,-76.2 65.15,-82.22 66.99,-75.47"/>
</g>
<!-- Node13&#45;&gt;Node10 -->
<g id="edge15" class="edge">
<title>Node13&#45;&gt;Node10</title>
<path fill="none" stroke="midnightblue" d="M262.77,-116.25C274.36,-107.81 291.33,-95.47 304.83,-85.66"/>
<polygon fill="midnightblue" stroke="midnightblue" points="307.07,-88.36 313.1,-79.64 302.95,-82.69 307.07,-88.36"/>
</g>
<!-- Node13&#45;&gt;Node11 -->
<g id="edge17" class="edge">
<title>Node13&#45;&gt;Node11</title>
<path fill="none" stroke="midnightblue" d="M278.74,-118.91C319.18,-109.15 392.25,-91.51 438.71,-80.3"/>
<polygon fill="midnightblue" stroke="midnightblue" points="439.58,-83.68 448.48,-77.94 437.94,-76.88 439.58,-83.68"/>
</g>
<!-- Node14 -->
<g id="node14" class="node">
<title>Node14</title>
<g id="a_node14"><a xlink:title=" ">
<polygon fill="none" stroke="#bfbfbf" points="49.86,-0.5 49.86,-21.5 118.86,-21.5 118.86,-0.5 49.86,-0.5"/>
<text text-anchor="middle" x="84.36" y="-7.9" font-family="Helvetica,sans-Serif" font-size="12.00">iostream</text>
</a>
</g>
</g>
<!-- Node13&#45;&gt;Node14 -->
<g id="edge18" class="edge">
<title>Node13&#45;&gt;Node14</title>
<path fill="none" stroke="midnightblue" d="M220.18,-124.78C187.27,-121.81 134.32,-111.99 103.36,-80 91,-67.23 86.54,-47.1 85.01,-32.05"/>
<polygon fill="midnightblue" stroke="midnightblue" points="88.48,-31.49 84.31,-21.74 81.49,-31.95 88.48,-31.49"/>
</g>
<!-- Node15 -->
<g id="node15" class="node">
<title>Node15</title>
<g id="a_node15"><a xlink:title=" ">
<polygon fill="none" stroke="#bfbfbf" points="112.86,-58.5 112.86,-79.5 187.86,-79.5 187.86,-58.5 112.86,-58.5"/>
<text text-anchor="middle" x="150.36" y="-65.9" font-family="Helvetica,sans-Serif" font-size="12.00">stdexcept</text>
</a>
</g>
</g>
<!-- Node13&#45;&gt;Node15 -->
<g id="edge19" class="edge">
<title>Node13&#45;&gt;Node15</title>
<path fill="none" stroke="midnightblue" d="M232.11,-116.25C216.78,-107.57 194.14,-94.76 176.57,-84.82"/>
<polygon fill="midnightblue" stroke="midnightblue" points="177.83,-81.52 167.41,-79.64 174.39,-87.61 177.83,-81.52"/>
</g>
<!-- Node13&#45;&gt;Node16 -->
<g id="edge20" class="edge">
<title>Node13&#45;&gt;Node16</title>
<path fill="none" stroke="midnightblue" d="M275.49,-116.37C300.44,-107.18 338.22,-93.26 365.88,-83.07"/>
<polygon fill="midnightblue" stroke="midnightblue" points="367.4,-86.24 375.57,-79.5 364.98,-79.67 367.4,-86.24"/>
</g>
<!-- Node19 -->
<g id="node19" class="node">
<title>Node19</title>
<g id="a_node19"><a xlink:href="random_8h.html" target="_top" xlink:title="Random engine implementations for Markov.">
<polygon fill="none" stroke="black" points="205.86,-58.5 205.86,-79.5 280.86,-79.5 280.86,-58.5 205.86,-58.5"/>
<text text-anchor="middle" x="243.36" y="-65.9" font-family="Helvetica,sans-Serif" font-size="12.00">random.h</text>
</a>
</g>
</g>
<!-- Node13&#45;&gt;Node19 -->
<g id="edge23" class="edge">
<title>Node13&#45;&gt;Node19</title>
<path fill="none" stroke="midnightblue" d="M248.31,-116.25C247.53,-108.94 246.43,-98.69 245.47,-89.7"/>
<polygon fill="midnightblue" stroke="midnightblue" points="248.94,-89.21 244.39,-79.64 241.98,-89.96 248.94,-89.21"/>
</g>
<!-- Node17 -->
<g id="node17" class="node">
<title>Node17</title>
<g id="a_node17"><a xlink:title=" ">
<polygon fill="none" stroke="#bfbfbf" points="334.36,-0.5 334.36,-21.5 390.36,-21.5 390.36,-0.5 334.36,-0.5"/>
<text text-anchor="middle" x="362.36" y="-7.9" font-family="Helvetica,sans-Serif" font-size="12.00">cstdint</text>
</a>
</g>
</g>
<!-- Node16&#45;&gt;Node17 -->
<g id="edge21" class="edge">
<title>Node16&#45;&gt;Node17</title>
<path fill="none" stroke="midnightblue" d="M394.57,-58.25C389.14,-50.46 381.39,-39.33 374.86,-29.94"/>
<polygon fill="midnightblue" stroke="midnightblue" points="377.66,-27.85 369.07,-21.64 371.92,-31.85 377.66,-27.85"/>
</g>
<!-- Node18 -->
<g id="node18" class="node">
<title>Node18</title>
<g id="a_node18"><a xlink:title=" ">
<polygon fill="none" stroke="#bfbfbf" points="408.86,-0.5 408.86,-21.5 469.86,-21.5 469.86,-0.5 408.86,-0.5"/>
<text text-anchor="middle" x="439.36" y="-7.9" font-family="Helvetica,sans-Serif" font-size="12.00">cstddef</text>
</a>
</g>
</g>
<!-- Node16&#45;&gt;Node18 -->
<g id="edge22" class="edge">
<title>Node16&#45;&gt;Node18</title>
<path fill="none" stroke="midnightblue" d="M407.98,-58.25C413.26,-50.46 420.81,-39.33 427.18,-29.94"/>
<polygon fill="midnightblue" stroke="midnightblue" points="430.1,-31.88 432.82,-21.64 424.3,-27.95 430.1,-31.88"/>
</g>
<!-- Node19&#45;&gt;Node14 -->
<g id="edge25" class="edge">
<title>Node19&#45;&gt;Node14</title>
<path fill="none" stroke="midnightblue" d="M216.03,-58.37C189.82,-49.14 150.06,-35.14 121.09,-24.94"/>
<polygon fill="midnightblue" stroke="midnightblue" points="121.93,-21.52 111.34,-21.5 119.6,-28.12 121.93,-21.52"/>
</g>
<!-- Node20 -->
<g id="node20" class="node">
<title>Node20</title>
<g id="a_node20"><a xlink:title=" ">
<polygon fill="none" stroke="#bfbfbf" points="211.36,-0.5 211.36,-21.5 275.36,-21.5 275.36,-0.5 211.36,-0.5"/>
<text text-anchor="middle" x="243.36" y="-7.9" font-family="Helvetica,sans-Serif" font-size="12.00">random</text>
</a>
</g>
</g>
<!-- Node19&#45;&gt;Node20 -->
<g id="edge24" class="edge">
<title>Node19&#45;&gt;Node20</title>
<path fill="none" stroke="midnightblue" d="M243.36,-58.25C243.36,-50.94 243.36,-40.69 243.36,-31.7"/>
<polygon fill="midnightblue" stroke="midnightblue" points="246.86,-31.64 243.36,-21.64 239.86,-31.64 246.86,-31.64"/>
</g>
<!-- Node21&#45;&gt;Node14 -->
<g id="edge29" class="edge">
<title>Node21&#45;&gt;Node14</title>
<path fill="none" stroke="midnightblue" d="M140.79,-232.43C108.55,-210.26 31.74,-151.72 3.36,-80 -0.24,-70.91 -1.56,-66.45 3.36,-58 11.98,-43.18 27.35,-32.75 42.4,-25.61"/>
<polygon fill="midnightblue" stroke="midnightblue" points="43.89,-28.78 51.67,-21.58 41.1,-22.36 43.89,-28.78"/>
</g>
</g>
</svg>
