<?xml version="1.0" encoding="UTF-8" standalone="no"?>
<!DOCTYPE svg PUBLIC "-//W3C//DTD SVG 1.1//EN"
 "http://www.w3.org/Graphics/SVG/1.1/DTD/svg11.dtd">
<!-- Generated by graphviz version 2.43.0 (0)
 -->
<!-- Title: cudaDeviceController.cu Pages: 1 -->
<svg width="744pt" height="146pt"
 viewBox="0.00 0.00 744.00 146.00" xmlns="http://www.w3.org/2000/svg" xmlns:xlink="http://www.w3.org/1999/xlink">
<g id="graph0" class="graph" transform="scale(1 1) rotate(0) translate(4 142)">
<title>cudaDeviceController.cu</title>
<!-- Node1 -->
<g id="node1" class="node">
<title>Node1</title>
<g id="a_node1"><a xlink:title="Simple static class for basic CUDA device controls.">
<polygon fill="#bfbfbf" stroke="black" points="239,-116.5 239,-137.5 400,-137.5 400,-116.5 239,-116.5"/>
<text text-anchor="middle" x="319.5" y="-123.9" font-family="Helvetica,sans-Serif" font-size="12.00">cudaDeviceController.cu</text>
</a>
</g>
</g>
<!-- Node2 -->
<g id="node2" class="node">
<title>Node2</title>
<g id="a_node2"><a xlink:href="cuda_device_controller_8h.html" target="_top" xlink:title="Simple static class for basic CUDA device controls.">
<polygon fill="none" stroke="black" points="0,-58.5 0,-79.5 155,-79.5 155,-58.5 0,-58.5"/>
<text text-anchor="middle" x="77.5" y="-65.9" font-family="Helvetica,sans-Serif" font-size="12.00">cudaDeviceController.h</text>
</a>
</g>
</g>
<!-- Node1&#45;&gt;Node2 -->
<g id="edge1" class="edge">
<title>Node1&#45;&gt;Node2</title>
<path fill="none" stroke="midnightblue" d="M278.17,-116.44C236.76,-106.85 172.92,-92.08 128.41,-81.78"/>
<polygon fill="midnightblue" stroke="midnightblue" points="129.19,-78.37 118.66,-79.52 127.61,-85.19 129.19,-78.37"/>
</g>
<!-- Node3 -->
<g id="node3" class="node">
<title>Node3</title>
<g id="a_node3"><a xlink:title=" ">
<polygon fill="none" stroke="#bfbfbf" points="96,-0.5 96,-21.5 165,-21.5 165,-0.5 96,-0.5"/>
<text text-anchor="middle" x="130.5" y="-7.9" font-family="Helvetica,sans-Serif" font-size="12.00">iostream</text>
</a>
</g>
</g>
<!-- Node1&#45;&gt;Node3 -->
<g id="edge3" class="edge">
<title>Node1&#45;&gt;Node3</title>
<path fill="none" stroke="midnightblue" d="M286.19,-116.46C262.12,-108.71 229.41,-96.38 203.5,-80 181.02,-65.79 159.24,-44.16 145.41,-29.12"/>
<polygon fill="midnightblue" stroke="midnightblue" points="147.88,-26.64 138.59,-21.54 142.68,-31.32 147.88,-26.64"/>
</g>
<!-- Node4 -->
<g id="node4" class="node">
<title>Node4</title>
<g id="a_node4"><a xlink:title=" ">
<polygon fill="none" stroke="#bfbfbf" points="212,-58.5 212,-79.5 325,-79.5 325,-58.5 212,-58.5"/>
<text text-anchor="middle" x="268.5" y="-65.9" font-family="Helvetica,sans-Serif" font-size="12.00">curand_kernel.h</text>
</a>
</g>
</g>
<!-- Node1&#45;&gt;Node4 -->
<g id="edge4" class="edge">
<title>Node1&#45;&gt;Node4</title>
<path fill="none" stroke="midnightblue" d="M310.62,-116.25C303.3,-108.22 292.76,-96.64 284.05,-87.08"/>
<polygon fill="midnightblue" stroke="midnightblue" points="286.6,-84.68 277.28,-79.64 281.43,-89.39 286.6,-84.68"/>
</g>
<!-- Node5 -->
<g id="node5" class="node">
<title>Node5</title>
<g id="a_node5"><a xlink:title=" ">
<polygon fill="none" stroke="#bfbfbf" points="343,-58.5 343,-79.5 400,-79.5 400,-58.5 343,-58.5"/>
<text text-anchor="middle" x="371.5" y="-65.9" font-family="Helvetica,sans-Serif" font-size="12.00">cuda.h</text>
</a>
</g>
</g>
<!-- Node1&#45;&gt;Node5 -->
<g id="edge5" class="edge">
<title>Node1&#45;&gt;Node5</title>
<path fill="none" stroke="midnightblue" d="M328.56,-116.25C336.01,-108.22 346.76,-96.64 355.64,-87.08"/>
<polygon fill="midnightblue" stroke="midnightblue" points="358.31,-89.35 362.55,-79.64 353.18,-84.59 358.31,-89.35"/>
</g>
<!-- Node6 -->
<g id="node6" class="node">
<title>Node6</title>
<g id="a_node6"><a xlink:title=" ">
<polygon fill="none" stroke="#bfbfbf" points="418.5,-58.5 418.5,-79.5 528.5,-79.5 528.5,-58.5 418.5,-58.5"/>
<text text-anchor="middle" x="473.5" y="-65.9" font-family="Helvetica,sans-Serif" font-size="12.00">cuda_runtime.h</text>
</a>
</g>
</g>
<!-- Node1&#45;&gt;Node6 -->
<g id="edge6" class="edge">
<title>Node1&#45;&gt;Node6</title>
<path fill="none" stroke="midnightblue" d="M345.97,-116.37C371.36,-107.14 409.86,-93.14 437.92,-82.94"/>
<polygon fill="midnightblue" stroke="midnightblue" points="439.17,-86.21 447.37,-79.5 436.78,-79.63 439.17,-86.21"/>
</g>
<!-- Node7 -->
<g id="node7" class="node">
<title>Node7</title>
<g id="a_node7"><a xlink:title=" ">
<polygon fill="none" stroke="#bfbfbf" points="547,-58.5 547,-79.5 736,-79.5 736,-58.5 547,-58.5"/>
<text text-anchor="middle" x="641.5" y="-65.9" font-family="Helvetica,sans-Serif" font-size="12.00">device_launch_parameters.h</text>
</a>
</g>
</g>
<!-- Node1&#45;&gt;Node7 -->
<g id="edge7" class="edge">
<title>Node1&#45;&gt;Node7</title>
<path fill="none" stroke="midnightblue" d="M374.49,-116.44C430.52,-106.69 517.4,-91.58 576.73,-81.26"/>
<polygon fill="midnightblue" stroke="midnightblue" points="577.49,-84.69 586.74,-79.52 576.29,-77.79 577.49,-84.69"/>
</g>
<!-- Node2&#45;&gt;Node3 -->
<g id="edge2" class="edge">
<title>Node2&#45;&gt;Node3</title>
<path fill="none" stroke="midnightblue" d="M86.73,-58.25C94.33,-50.22 105.29,-38.64 114.34,-29.08"/>
<polygon fill="midnightblue" stroke="midnightblue" points="117.04,-31.31 121.37,-21.64 111.96,-26.5 117.04,-31.31"/>
</g>
</g>
</svg>
