<?xml version="1.0" encoding="UTF-8" standalone="no"?>
<!DOCTYPE svg PUBLIC "-//W3C//DTD SVG 1.1//EN"
 "http://www.w3.org/Graphics/SVG/1.1/DTD/svg11.dtd">
<!-- Generated by graphviz version 2.43.0 (0)
 -->
<!-- Title: Markopy/CudaMarkovAPI/src/cudaDeviceController.cu Pages: 1 -->
<svg width="744pt" height="159pt"
 viewBox="0.00 0.00 744.00 159.00" xmlns="http://www.w3.org/2000/svg" xmlns:xlink="http://www.w3.org/1999/xlink">
<g id="graph0" class="graph" transform="scale(1 1) rotate(0) translate(4 155)">
<title>Markopy/CudaMarkovAPI/src/cudaDeviceController.cu</title>
<!-- Node1 -->
<g id="node1" class="node">
<title>Node1</title>
<g id="a_node1"><a xlink:title="Simple static class for basic CUDA device controls.">
<polygon fill="#bfbfbf" stroke="black" points="226.5,-116.5 226.5,-150.5 412.5,-150.5 412.5,-116.5 226.5,-116.5"/>
<text text-anchor="start" x="234.5" y="-136.9" font-family="Helvetica,sans-Serif" font-size="12.00">Markopy/CudaMarkovAPI</text>
<text text-anchor="middle" x="319.5" y="-123.9" font-family="Helvetica,sans-Serif" font-size="12.00">/src/cudaDeviceController.cu</text>
</a>
</g>
</g>
<!-- Node2 -->
<g id="node2" class="node">
<title>Node2</title>
<g id="a_node2"><a xlink:href="cuda_device_controller_8h.html" target="_top" xlink:title="Simple static class for basic CUDA device controls.">
<polygon fill="none" stroke="black" points="0,-58.5 0,-79.5 155,-79.5 155,-58.5 0,-58.5"/>
<text text-anchor="middle" x="77.5" y="-65.9" font-family="Helvetica,sans-Serif" font-size="12.00">cudaDeviceController.h</text>
</a>
</g>
</g>
<!-- Node1&#45;&gt;Node2 -->
<g id="edge1" class="edge">
<title>Node1&#45;&gt;Node2</title>
<path fill="none" stroke="midnightblue" d="M257.49,-116.49C215.97,-105.76 162.18,-91.87 124.25,-82.07"/>
<polygon fill="midnightblue" stroke="midnightblue" points="125.04,-78.66 114.48,-79.55 123.29,-85.44 125.04,-78.66"/>
</g>
<!-- Node3 -->
<g id="node3" class="node">
<title>Node3</title>
<g id="a_node3"><a xlink:title=" ">
<polygon fill="none" stroke="#bfbfbf" points="96,-0.5 96,-21.5 165,-21.5 165,-0.5 96,-0.5"/>
<text text-anchor="middle" x="130.5" y="-7.9" font-family="Helvetica,sans-Serif" font-size="12.00">iostream</text>
</a>
</g>
</g>
<!-- Node1&#45;&gt;Node3 -->
<g id="edge3" class="edge">
<title>Node1&#45;&gt;Node3</title>
<path fill="none" stroke="midnightblue" d="M275.32,-116.47C252.9,-107.36 225.76,-94.83 203.5,-80 181.61,-65.42 160,-44.21 146.04,-29.36"/>
<polygon fill="midnightblue" stroke="midnightblue" points="148.47,-26.83 139.12,-21.85 143.32,-31.58 148.47,-26.83"/>
</g>
<!-- Node4 -->
<g id="node4" class="node">
<title>Node4</title>
<g id="a_node4"><a xlink:title=" ">
<polygon fill="none" stroke="#bfbfbf" points="212,-58.5 212,-79.5 325,-79.5 325,-58.5 212,-58.5"/>
<text text-anchor="middle" x="268.5" y="-65.9" font-family="Helvetica,sans-Serif" font-size="12.00">curand_kernel.h</text>
</a>
</g>
</g>
<!-- Node1&#45;&gt;Node4 -->
<g id="edge4" class="edge">
<title>Node1&#45;&gt;Node4</title>
<path fill="none" stroke="midnightblue" d="M306.37,-116.4C299.21,-107.63 290.34,-96.76 282.98,-87.75"/>
<polygon fill="midnightblue" stroke="midnightblue" points="285.53,-85.34 276.5,-79.8 280.11,-89.76 285.53,-85.34"/>
</g>
<!-- Node5 -->
<g id="node5" class="node">
<title>Node5</title>
<g id="a_node5"><a xlink:title=" ">
<polygon fill="none" stroke="#bfbfbf" points="343,-58.5 343,-79.5 400,-79.5 400,-58.5 343,-58.5"/>
<text text-anchor="middle" x="371.5" y="-65.9" font-family="Helvetica,sans-Serif" font-size="12.00">cuda.h</text>
</a>
</g>
</g>
<!-- Node1&#45;&gt;Node5 -->
<g id="edge5" class="edge">
<title>Node1&#45;&gt;Node5</title>
<path fill="none" stroke="midnightblue" d="M332.89,-116.4C340.19,-107.63 349.23,-96.76 356.74,-87.75"/>
<polygon fill="midnightblue" stroke="midnightblue" points="359.64,-89.73 363.35,-79.8 354.26,-85.25 359.64,-89.73"/>
</g>
<!-- Node6 -->
<g id="node6" class="node">
<title>Node6</title>
<g id="a_node6"><a xlink:title=" ">
<polygon fill="none" stroke="#bfbfbf" points="418.5,-58.5 418.5,-79.5 528.5,-79.5 528.5,-58.5 418.5,-58.5"/>
<text text-anchor="middle" x="473.5" y="-65.9" font-family="Helvetica,sans-Serif" font-size="12.00">cuda_runtime.h</text>
</a>
</g>
</g>
<!-- Node1&#45;&gt;Node6 -->
<g id="edge6" class="edge">
<title>Node1&#45;&gt;Node6</title>
<path fill="none" stroke="midnightblue" d="M359.16,-116.4C384.38,-106.17 416.65,-93.07 440.48,-83.4"/>
<polygon fill="midnightblue" stroke="midnightblue" points="441.85,-86.62 449.8,-79.62 439.22,-80.13 441.85,-86.62"/>
</g>
<!-- Node7 -->
<g id="node7" class="node">
<title>Node7</title>
<g id="a_node7"><a xlink:title=" ">
<polygon fill="none" stroke="#bfbfbf" points="547,-58.5 547,-79.5 736,-79.5 736,-58.5 547,-58.5"/>
<text text-anchor="middle" x="641.5" y="-65.9" font-family="Helvetica,sans-Serif" font-size="12.00">device_launch_parameters.h</text>
</a>
</g>
</g>
<!-- Node1&#45;&gt;Node7 -->
<g id="edge7" class="edge">
<title>Node1&#45;&gt;Node7</title>
<path fill="none" stroke="midnightblue" d="M402,-116.49C458.31,-105.56 531.58,-91.34 582.17,-81.52"/>
<polygon fill="midnightblue" stroke="midnightblue" points="583.14,-84.89 592.29,-79.55 581.81,-78.02 583.14,-84.89"/>
</g>
<!-- Node2&#45;&gt;Node3 -->
<g id="edge2" class="edge">
<title>Node2&#45;&gt;Node3</title>
<path fill="none" stroke="midnightblue" d="M86.73,-58.25C94.33,-50.22 105.29,-38.64 114.34,-29.08"/>
<polygon fill="midnightblue" stroke="midnightblue" points="117.04,-31.31 121.37,-21.64 111.96,-26.5 117.04,-31.31"/>
</g>
</g>
</svg>
