<?xml version="1.0" encoding="UTF-8" standalone="no"?>
<!DOCTYPE svg PUBLIC "-//W3C//DTD SVG 1.1//EN"
 "http://www.w3.org/Graphics/SVG/1.1/DTD/svg11.dtd">
<!-- Generated by graphviz version 2.43.0 (0)
 -->
<!-- Title: Markopy/CudaMarkovAPI/src/cudaModelMatrix.cu Pages: 1 -->
<!--zoomable 449 -->
<svg id="main" version="1.1" xmlns="http://www.w3.org/2000/svg" xmlns:xlink="http://www.w3.org/1999/xlink" xml:space="preserve" onload="init(evt)">
<style type="text/css"><![CDATA[
.edge:hover path { stroke: red; }
.edge:hover polygon { stroke: red; fill: red; }
]]></style>
<script type="text/javascript"><![CDATA[
var edges = document.getElementsByTagName('g');
if (edges && edges.length) {
  for (var i=0;i<edges.length;i++) {
    if (edges[i].id.substr(0,4)=='edge') {
      edges[i].setAttribute('class','edge');
    }
  }
}
]]></script>
        <defs>
                <circle id="rim" cx="0" cy="0" r="7"/>
                <circle id="rim2" cx="0" cy="0" r="3.5"/>
                <g id="zoomPlus">
                        <use xlink:href="#rim" fill="#404040">
                                <set attributeName="fill" to="#808080" begin="zoomplus.mouseover" end="zoomplus.mouseout"/>
                        </use>
                        <path d="M-4,0h8M0,-4v8" fill="none" stroke="white" stroke-width="1.5" pointer-events="none"/>
                </g>
                <g id="zoomMin">
                        <use xlink:href="#rim" fill="#404040">
                                <set attributeName="fill" to="#808080" begin="zoomminus.mouseover" end="zoomminus.mouseout"/>
                        </use>
                        <path d="M-4,0h8" fill="none" stroke="white" stroke-width="1.5" pointer-events="none"/>
                </g>
                <g id="dirArrow">
                        <path fill="none" stroke="white" stroke-width="1.5" d="M0,-3.0v7 M-2.5,-0.5L0,-3.0L2.5,-0.5"/>
                </g>
               <g id="resetDef">
                       <use xlink:href="#rim2" fill="#404040">
                               <set attributeName="fill" to="#808080" begin="reset.mouseover" end="reset.mouseout"/>
                       </use>
               </g>
        </defs>

<script type="text/javascript">
var viewWidth = 1266;
var viewHeight = 449;
var sectionId = 'dynsection-0';
</script>
<script xlink:href="svgpan.js"/>
<svg id="graph" class="graph">
<g id="viewport">
<title>Markopy/CudaMarkovAPI/src/cudaModelMatrix.cu</title>
<!-- Node1 -->
<g id="node1" class="node">
<title>Node1</title>
<g id="a_node1"><a xlink:title="CUDA accelerated extension of Markov::API::ModelMatrix.">
<polygon fill="#bfbfbf" stroke="black" points="758,-406.5 758,-440.5 925,-440.5 925,-406.5 758,-406.5"/>
<text text-anchor="start" x="766" y="-426.9" font-family="Helvetica,sans-Serif" font-size="12.00">Markopy/CudaMarkovAPI</text>
<text text-anchor="middle" x="841.5" y="-413.9" font-family="Helvetica,sans-Serif" font-size="12.00">/src/cudaModelMatrix.cu</text>
</a>
</g>
</g>
<!-- Node2 -->
<g id="node2" class="node">
<title>Node2</title>
<g id="a_node2"><a xlink:href="cuda_model_matrix_8h.html" target="_top" xlink:title="CUDA accelerated extension of Markov::API::ModelMatrix.">
<polygon fill="none" stroke="black" points="462,-348.5 462,-369.5 593,-369.5 593,-348.5 462,-348.5"/>
<text text-anchor="middle" x="527.5" y="-355.9" font-family="Helvetica,sans-Serif" font-size="12.00">cudaModelMatrix.h</text>
</a>
</g>
</g>
<!-- Node1&#45;&gt;Node2 -->
<g id="edge1" class="edge">
<title>Node1&#45;&gt;Node2</title>
<path fill="none" stroke="midnightblue" d="M761.04,-406.49C706.14,-395.56 634.69,-381.34 585.35,-371.52"/>
<polygon fill="midnightblue" stroke="midnightblue" points="585.98,-368.07 575.48,-369.55 584.61,-374.94 585.98,-368.07"/>
</g>
<!-- Node23 -->
<g id="node23" class="node">
<title>Node23</title>
<g id="a_node23"><a xlink:href="cudarandom_8h.html" target="_top" xlink:title="Extension of Markov::Random::Marsaglia for CUDA.">
<polygon fill="none" stroke="black" points="611.5,-348.5 611.5,-369.5 715.5,-369.5 715.5,-348.5 611.5,-348.5"/>
<text text-anchor="middle" x="663.5" y="-355.9" font-family="Helvetica,sans-Serif" font-size="12.00">cudarandom.h</text>
</a>
</g>
</g>
<!-- Node1&#45;&gt;Node23 -->
<g id="edge31" class="edge">
<title>Node1&#45;&gt;Node23</title>
<path fill="none" stroke="midnightblue" d="M795.66,-406.4C766.03,-396 727.97,-382.64 700.31,-372.93"/>
<polygon fill="midnightblue" stroke="midnightblue" points="701.22,-369.54 690.63,-369.53 698.91,-376.14 701.22,-369.54"/>
</g>
<!-- Node24 -->
<g id="node24" class="node">
<title>Node24</title>
<g id="a_node24"><a xlink:title=" ">
<polygon fill="none" stroke="#bfbfbf" points="734,-348.5 734,-369.5 847,-369.5 847,-348.5 734,-348.5"/>
<text text-anchor="middle" x="790.5" y="-355.9" font-family="Helvetica,sans-Serif" font-size="12.00">curand_kernel.h</text>
</a>
</g>
</g>
<!-- Node1&#45;&gt;Node24 -->
<g id="edge34" class="edge">
<title>Node1&#45;&gt;Node24</title>
<path fill="none" stroke="midnightblue" d="M828.37,-406.4C821.21,-397.63 812.34,-386.76 804.98,-377.75"/>
<polygon fill="midnightblue" stroke="midnightblue" points="807.53,-375.34 798.5,-369.8 802.11,-379.76 807.53,-375.34"/>
</g>
<!-- Node25 -->
<g id="node25" class="node">
<title>Node25</title>
<g id="a_node25"><a xlink:title=" ">
<polygon fill="none" stroke="#bfbfbf" points="865,-348.5 865,-369.5 922,-369.5 922,-348.5 865,-348.5"/>
<text text-anchor="middle" x="893.5" y="-355.9" font-family="Helvetica,sans-Serif" font-size="12.00">cuda.h</text>
</a>
</g>
</g>
<!-- Node1&#45;&gt;Node25 -->
<g id="edge35" class="edge">
<title>Node1&#45;&gt;Node25</title>
<path fill="none" stroke="midnightblue" d="M854.89,-406.4C862.19,-397.63 871.23,-386.76 878.74,-377.75"/>
<polygon fill="midnightblue" stroke="midnightblue" points="881.64,-379.73 885.35,-369.8 876.26,-375.25 881.64,-379.73"/>
</g>
<!-- Node26 -->
<g id="node26" class="node">
<title>Node26</title>
<g id="a_node26"><a xlink:title=" ">
<polygon fill="none" stroke="#bfbfbf" points="940.5,-348.5 940.5,-369.5 1050.5,-369.5 1050.5,-348.5 940.5,-348.5"/>
<text text-anchor="middle" x="995.5" y="-355.9" font-family="Helvetica,sans-Serif" font-size="12.00">cuda_runtime.h</text>
</a>
</g>
</g>
<!-- Node1&#45;&gt;Node26 -->
<g id="edge36" class="edge">
<title>Node1&#45;&gt;Node26</title>
<path fill="none" stroke="midnightblue" d="M881.16,-406.4C906.38,-396.17 938.65,-383.07 962.48,-373.4"/>
<polygon fill="midnightblue" stroke="midnightblue" points="963.85,-376.62 971.8,-369.62 961.22,-370.13 963.85,-376.62"/>
</g>
<!-- Node27 -->
<g id="node27" class="node">
<title>Node27</title>
<g id="a_node27"><a xlink:title=" ">
<polygon fill="none" stroke="#bfbfbf" points="1069,-348.5 1069,-369.5 1258,-369.5 1258,-348.5 1069,-348.5"/>
<text text-anchor="middle" x="1163.5" y="-355.9" font-family="Helvetica,sans-Serif" font-size="12.00">device_launch_parameters.h</text>
</a>
</g>
</g>
<!-- Node1&#45;&gt;Node27 -->
<g id="edge37" class="edge">
<title>Node1&#45;&gt;Node27</title>
<path fill="none" stroke="midnightblue" d="M924,-406.49C980.31,-395.56 1053.58,-381.34 1104.17,-371.52"/>
<polygon fill="midnightblue" stroke="midnightblue" points="1105.14,-374.89 1114.29,-369.55 1103.81,-368.02 1105.14,-374.89"/>
</g>
<!-- Node3 -->
<g id="node3" class="node">
<title>Node3</title>
<g id="a_node3"><a xlink:href="model_matrix_8h.html" target="_top" xlink:title="An extension of Markov::API::MarkovPasswords.">
<polygon fill="none" stroke="black" points="324,-290.5 324,-311.5 515,-311.5 515,-290.5 324,-290.5"/>
<text text-anchor="middle" x="419.5" y="-297.9" font-family="Helvetica,sans-Serif" font-size="12.00">MarkovAPI/src/modelMatrix.h</text>
</a>
</g>
</g>
<!-- Node2&#45;&gt;Node3 -->
<g id="edge2" class="edge">
<title>Node2&#45;&gt;Node3</title>
<path fill="none" stroke="midnightblue" d="M508.69,-348.25C491.65,-339.41 466.34,-326.29 447.03,-316.28"/>
<polygon fill="midnightblue" stroke="midnightblue" points="448.59,-313.14 438.1,-311.64 445.36,-319.35 448.59,-313.14"/>
</g>
<!-- Node22 -->
<g id="node22" class="node">
<title>Node22</title>
<g id="a_node22"><a xlink:href="cuda_device_controller_8h.html" target="_top" xlink:title="Simple static class for basic CUDA device controls.">
<polygon fill="none" stroke="black" points="533,-290.5 533,-311.5 688,-311.5 688,-290.5 533,-290.5"/>
<text text-anchor="middle" x="610.5" y="-297.9" font-family="Helvetica,sans-Serif" font-size="12.00">cudaDeviceController.h</text>
</a>
</g>
</g>
<!-- Node2&#45;&gt;Node22 -->
<g id="edge29" class="edge">
<title>Node2&#45;&gt;Node22</title>
<path fill="none" stroke="midnightblue" d="M541.96,-348.25C554.57,-339.73 573.09,-327.24 587.7,-317.38"/>
<polygon fill="midnightblue" stroke="midnightblue" points="589.88,-320.14 596.21,-311.64 585.96,-314.33 589.88,-320.14"/>
</g>
<!-- Node4 -->
<g id="node4" class="node">
<title>Node4</title>
<g id="a_node4"><a xlink:href="markov_passwords_8h.html" target="_top" xlink:title="Wrapper for Markov::Model to use with char represented models.">
<polygon fill="none" stroke="black" points="352.5,-232.5 352.5,-253.5 486.5,-253.5 486.5,-232.5 352.5,-232.5"/>
<text text-anchor="middle" x="419.5" y="-239.9" font-family="Helvetica,sans-Serif" font-size="12.00">markovPasswords.h</text>
</a>
</g>
</g>
<!-- Node3&#45;&gt;Node4 -->
<g id="edge3" class="edge">
<title>Node3&#45;&gt;Node4</title>
<path fill="none" stroke="midnightblue" d="M419.5,-290.25C419.5,-282.94 419.5,-272.69 419.5,-263.7"/>
<polygon fill="midnightblue" stroke="midnightblue" points="423,-263.64 419.5,-253.64 416,-263.64 423,-263.64"/>
</g>
<!-- Node8 -->
<g id="node8" class="node">
<title>Node8</title>
<g id="a_node8"><a xlink:title=" ">
<polygon fill="none" stroke="#bfbfbf" points="527,-116.5 527,-137.5 582,-137.5 582,-116.5 527,-116.5"/>
<text text-anchor="middle" x="554.5" y="-123.9" font-family="Helvetica,sans-Serif" font-size="12.00">mutex</text>
</a>
</g>
</g>
<!-- Node3&#45;&gt;Node8 -->
<g id="edge28" class="edge">
<title>Node3&#45;&gt;Node8</title>
<path fill="none" stroke="midnightblue" d="M440.51,-290.43C456.77,-282.31 479.2,-269.54 495.5,-254 517.98,-232.56 521.3,-224.12 534.5,-196 541.85,-180.36 547.15,-161.41 550.44,-147.49"/>
<polygon fill="midnightblue" stroke="midnightblue" points="553.9,-148.09 552.65,-137.57 547.06,-146.57 553.9,-148.09"/>
</g>
<!-- Node5 -->
<g id="node5" class="node">
<title>Node5</title>
<g id="a_node5"><a xlink:href="thread_shared_list_handler_8h.html" target="_top" xlink:title="Thread&#45;safe wrapper for std::ifstream.">
<polygon fill="none" stroke="black" points="351,-174.5 351,-195.5 526,-195.5 526,-174.5 351,-174.5"/>
<text text-anchor="middle" x="438.5" y="-181.9" font-family="Helvetica,sans-Serif" font-size="12.00">threadSharedListHandler.h</text>
</a>
</g>
</g>
<!-- Node4&#45;&gt;Node5 -->
<g id="edge4" class="edge">
<title>Node4&#45;&gt;Node5</title>
<path fill="none" stroke="midnightblue" d="M422.81,-232.25C425.34,-224.78 428.92,-214.24 432.01,-205.11"/>
<polygon fill="midnightblue" stroke="midnightblue" points="435.33,-206.24 435.23,-195.64 428.7,-203.99 435.33,-206.24"/>
</g>
<!-- Node9 -->
<g id="node9" class="node">
<title>Node9</title>
<g id="a_node9"><a xlink:href="model_8h.html" target="_top" xlink:title="Model class template.">
<polygon fill="none" stroke="black" points="162.5,-174.5 162.5,-195.5 332.5,-195.5 332.5,-174.5 162.5,-174.5"/>
<text text-anchor="middle" x="247.5" y="-181.9" font-family="Helvetica,sans-Serif" font-size="12.00">MarkovModel/src/model.h</text>
</a>
</g>
</g>
<!-- Node4&#45;&gt;Node9 -->
<g id="edge8" class="edge">
<title>Node4&#45;&gt;Node9</title>
<path fill="none" stroke="midnightblue" d="M389.93,-232.37C361.33,-223.06 317.82,-208.9 286.42,-198.67"/>
<polygon fill="midnightblue" stroke="midnightblue" points="287.27,-195.27 276.68,-195.5 285.11,-201.93 287.27,-195.27"/>
</g>
<!-- Node6 -->
<g id="node6" class="node">
<title>Node6</title>
<g id="a_node6"><a xlink:title=" ">
<polygon fill="none" stroke="#bfbfbf" points="377.5,-116.5 377.5,-137.5 427.5,-137.5 427.5,-116.5 377.5,-116.5"/>
<text text-anchor="middle" x="402.5" y="-123.9" font-family="Helvetica,sans-Serif" font-size="12.00">string</text>
</a>
</g>
</g>
<!-- Node5&#45;&gt;Node6 -->
<g id="edge5" class="edge">
<title>Node5&#45;&gt;Node6</title>
<path fill="none" stroke="midnightblue" d="M432.23,-174.25C427.27,-166.54 420.22,-155.56 414.22,-146.23"/>
<polygon fill="midnightblue" stroke="midnightblue" points="417.05,-144.16 408.7,-137.64 411.16,-147.95 417.05,-144.16"/>
</g>
<!-- Node7 -->
<g id="node7" class="node">
<title>Node7</title>
<g id="a_node7"><a xlink:title=" ">
<polygon fill="none" stroke="#bfbfbf" points="446,-116.5 446,-137.5 509,-137.5 509,-116.5 446,-116.5"/>
<text text-anchor="middle" x="477.5" y="-123.9" font-family="Helvetica,sans-Serif" font-size="12.00">fstream</text>
</a>
</g>
</g>
<!-- Node5&#45;&gt;Node7 -->
<g id="edge6" class="edge">
<title>Node5&#45;&gt;Node7</title>
<path fill="none" stroke="midnightblue" d="M445.29,-174.25C450.72,-166.46 458.47,-155.33 465,-145.94"/>
<polygon fill="midnightblue" stroke="midnightblue" points="467.94,-147.85 470.78,-137.64 462.2,-143.85 467.94,-147.85"/>
</g>
<!-- Node5&#45;&gt;Node8 -->
<g id="edge7" class="edge">
<title>Node5&#45;&gt;Node8</title>
<path fill="none" stroke="midnightblue" d="M458.44,-174.37C476.98,-165.42 504.8,-151.99 525.74,-141.88"/>
<polygon fill="midnightblue" stroke="midnightblue" points="527.34,-145 534.82,-137.5 524.29,-138.7 527.34,-145"/>
</g>
<!-- Node9&#45;&gt;Node6 -->
<g id="edge13" class="edge">
<title>Node9&#45;&gt;Node6</title>
<path fill="none" stroke="midnightblue" d="M274.15,-174.37C300.08,-165 339.63,-150.71 367.97,-140.48"/>
<polygon fill="midnightblue" stroke="midnightblue" points="369.27,-143.73 377.48,-137.04 366.89,-137.14 369.27,-143.73"/>
</g>
<!-- Node9&#45;&gt;Node7 -->
<g id="edge11" class="edge">
<title>Node9&#45;&gt;Node7</title>
<path fill="none" stroke="midnightblue" d="M286.59,-174.49C322.73,-165.7 378.18,-152.21 435.71,-138.19"/>
<polygon fill="midnightblue" stroke="midnightblue" points="436.83,-141.52 445.72,-135.75 435.17,-134.72 436.83,-141.52"/>
</g>
<!-- Node10 -->
<g id="node10" class="node">
<title>Node10</title>
<g id="a_node10"><a xlink:title=" ">
<polygon fill="none" stroke="#bfbfbf" points="83.5,-58.5 83.5,-79.5 127.5,-79.5 127.5,-58.5 83.5,-58.5"/>
<text text-anchor="middle" x="105.5" y="-65.9" font-family="Helvetica,sans-Serif" font-size="12.00">map</text>
</a>
</g>
</g>
<!-- Node9&#45;&gt;Node10 -->
<g id="edge9" class="edge">
<title>Node9&#45;&gt;Node10</title>
<path fill="none" stroke="midnightblue" d="M219.79,-174.43C200.12,-166.7 173.88,-154.42 154.5,-138 138.11,-124.11 124.32,-103.62 115.59,-88.77"/>
<polygon fill="midnightblue" stroke="midnightblue" points="118.57,-86.93 110.61,-79.94 112.48,-90.37 118.57,-86.93"/>
</g>
<!-- Node11 -->
<g id="node11" class="node">
<title>Node11</title>
<g id="a_node11"><a xlink:title=" ">
<polygon fill="none" stroke="#bfbfbf" points="354,-58.5 354,-79.5 409,-79.5 409,-58.5 354,-58.5"/>
<text text-anchor="middle" x="381.5" y="-65.9" font-family="Helvetica,sans-Serif" font-size="12.00">vector</text>
</a>
</g>
</g>
<!-- Node9&#45;&gt;Node11 -->
<g id="edge10" class="edge">
<title>Node9&#45;&gt;Node11</title>
<path fill="none" stroke="midnightblue" d="M270.62,-174.41C288.25,-166.37 312.49,-153.69 330.5,-138 346.93,-123.69 361.37,-103.26 370.66,-88.54"/>
<polygon fill="midnightblue" stroke="midnightblue" points="373.76,-90.17 375.98,-79.81 367.79,-86.52 373.76,-90.17"/>
</g>
<!-- Node12 -->
<g id="node12" class="node">
<title>Node12</title>
<g id="a_node12"><a xlink:title=" ">
<polygon fill="none" stroke="#bfbfbf" points="0,-58.5 0,-79.5 65,-79.5 65,-58.5 0,-58.5"/>
<text text-anchor="middle" x="32.5" y="-65.9" font-family="Helvetica,sans-Serif" font-size="12.00">assert.h</text>
</a>
</g>
</g>
<!-- Node9&#45;&gt;Node12 -->
<g id="edge12" class="edge">
<title>Node9&#45;&gt;Node12</title>
<path fill="none" stroke="midnightblue" d="M217.81,-174.47C193.65,-166.22 158.99,-153.22 130.5,-138 101.83,-122.69 71.48,-100.59 52.28,-85.78"/>
<polygon fill="midnightblue" stroke="midnightblue" points="54.33,-82.94 44.29,-79.54 50.02,-88.46 54.33,-82.94"/>
</g>
<!-- Node13 -->
<g id="node13" class="node">
<title>Node13</title>
<g id="a_node13"><a xlink:title=" ">
<polygon fill="none" stroke="#bfbfbf" points="247.5,-116.5 247.5,-137.5 321.5,-137.5 321.5,-116.5 247.5,-116.5"/>
<text text-anchor="middle" x="284.5" y="-123.9" font-family="Helvetica,sans-Serif" font-size="12.00">algorithm</text>
</a>
</g>
</g>
<!-- Node9&#45;&gt;Node13 -->
<g id="edge14" class="edge">
<title>Node9&#45;&gt;Node13</title>
<path fill="none" stroke="midnightblue" d="M253.94,-174.25C259.04,-166.54 266.29,-155.56 272.45,-146.23"/>
<polygon fill="midnightblue" stroke="midnightblue" points="275.54,-147.92 278.13,-137.64 269.7,-144.06 275.54,-147.92"/>
</g>
<!-- Node14 -->
<g id="node14" class="node">
<title>Node14</title>
<g id="a_node14"><a xlink:href="node_8h.html" target="_top" xlink:title="Node class template.">
<polygon fill="none" stroke="black" points="171.5,-116.5 171.5,-137.5 229.5,-137.5 229.5,-116.5 171.5,-116.5"/>
<text text-anchor="middle" x="200.5" y="-123.9" font-family="Helvetica,sans-Serif" font-size="12.00">node.h</text>
</a>
</g>
</g>
<!-- Node9&#45;&gt;Node14 -->
<g id="edge15" class="edge">
<title>Node9&#45;&gt;Node14</title>
<path fill="none" stroke="midnightblue" d="M239.31,-174.25C232.64,-166.3 223.05,-154.87 215.07,-145.37"/>
<polygon fill="midnightblue" stroke="midnightblue" points="217.7,-143.05 208.59,-137.64 212.34,-147.55 217.7,-143.05"/>
</g>
<!-- Node17 -->
<g id="node17" class="node">
<title>Node17</title>
<g id="a_node17"><a xlink:href="edge_8h.html" target="_top" xlink:title="Edge class template.">
<polygon fill="none" stroke="black" points="145.5,-58.5 145.5,-79.5 203.5,-79.5 203.5,-58.5 145.5,-58.5"/>
<text text-anchor="middle" x="174.5" y="-65.9" font-family="Helvetica,sans-Serif" font-size="12.00">edge.h</text>
</a>
</g>
</g>
<!-- Node9&#45;&gt;Node17 -->
<g id="edge27" class="edge">
<title>Node9&#45;&gt;Node17</title>
<path fill="none" stroke="midnightblue" d="M211.94,-174.35C193.75,-167.41 173.24,-156.02 162.5,-138 153.61,-123.08 158.62,-103.28 164.65,-88.89"/>
<polygon fill="midnightblue" stroke="midnightblue" points="167.97,-90.06 169.03,-79.52 161.63,-87.09 167.97,-90.06"/>
</g>
<!-- Node14&#45;&gt;Node10 -->
<g id="edge17" class="edge">
<title>Node14&#45;&gt;Node10</title>
<path fill="none" stroke="midnightblue" d="M183.95,-116.25C169.24,-107.57 147.51,-94.76 130.65,-84.82"/>
<polygon fill="midnightblue" stroke="midnightblue" points="132.25,-81.71 121.86,-79.64 128.7,-87.74 132.25,-81.71"/>
</g>
<!-- Node14&#45;&gt;Node11 -->
<g id="edge16" class="edge">
<title>Node14&#45;&gt;Node11</title>
<path fill="none" stroke="midnightblue" d="M229.58,-117C260.78,-107.35 310.41,-91.99 344.4,-81.48"/>
<polygon fill="midnightblue" stroke="midnightblue" points="345.46,-84.82 353.97,-78.52 343.39,-78.13 345.46,-84.82"/>
</g>
<!-- Node14&#45;&gt;Node12 -->
<g id="edge18" class="edge">
<title>Node14&#45;&gt;Node12</title>
<path fill="none" stroke="midnightblue" d="M171.62,-116.37C143.68,-107.06 101.19,-92.9 70.51,-82.67"/>
<polygon fill="midnightblue" stroke="midnightblue" points="71.6,-79.34 61,-79.5 69.38,-85.98 71.6,-79.34"/>
</g>
<!-- Node15 -->
<g id="node15" class="node">
<title>Node15</title>
<g id="a_node15"><a xlink:title=" ">
<polygon fill="none" stroke="#bfbfbf" points="571,-0.5 571,-21.5 640,-21.5 640,-0.5 571,-0.5"/>
<text text-anchor="middle" x="605.5" y="-7.9" font-family="Helvetica,sans-Serif" font-size="12.00">iostream</text>
</a>
</g>
</g>
<!-- Node14&#45;&gt;Node15 -->
<g id="edge19" class="edge">
<title>Node14&#45;&gt;Node15</title>
<path fill="none" stroke="midnightblue" d="M224.17,-116.43C245.65,-107.56 278.08,-93.7 305.5,-80 323.3,-71.11 325.77,-64.71 344.5,-58 417.59,-31.81 507.73,-20.16 560.68,-15.26"/>
<polygon fill="midnightblue" stroke="midnightblue" points="561.11,-18.74 570.76,-14.37 560.49,-11.77 561.11,-18.74"/>
</g>
<!-- Node16 -->
<g id="node16" class="node">
<title>Node16</title>
<g id="a_node16"><a xlink:title=" ">
<polygon fill="none" stroke="#bfbfbf" points="222,-58.5 222,-79.5 297,-79.5 297,-58.5 222,-58.5"/>
<text text-anchor="middle" x="259.5" y="-65.9" font-family="Helvetica,sans-Serif" font-size="12.00">stdexcept</text>
</a>
</g>
</g>
<!-- Node14&#45;&gt;Node16 -->
<g id="edge20" class="edge">
<title>Node14&#45;&gt;Node16</title>
<path fill="none" stroke="midnightblue" d="M210.78,-116.25C219.32,-108.14 231.68,-96.41 241.81,-86.79"/>
<polygon fill="midnightblue" stroke="midnightblue" points="244.5,-89.07 249.34,-79.64 239.68,-83.99 244.5,-89.07"/>
</g>
<!-- Node14&#45;&gt;Node17 -->
<g id="edge21" class="edge">
<title>Node14&#45;&gt;Node17</title>
<path fill="none" stroke="midnightblue" d="M195.97,-116.25C192.47,-108.7 187.51,-98.02 183.24,-88.82"/>
<polygon fill="midnightblue" stroke="midnightblue" points="186.36,-87.24 178.98,-79.64 180.01,-90.19 186.36,-87.24"/>
</g>
<!-- Node20 -->
<g id="node20" class="node">
<title>Node20</title>
<g id="a_node20"><a xlink:href="random_8h.html" target="_top" xlink:title="Random engine implementations for Markov.">
<polygon fill="none" stroke="black" points="648,-58.5 648,-79.5 723,-79.5 723,-58.5 648,-58.5"/>
<text text-anchor="middle" x="685.5" y="-65.9" font-family="Helvetica,sans-Serif" font-size="12.00">random.h</text>
</a>
</g>
</g>
<!-- Node14&#45;&gt;Node20 -->
<g id="edge24" class="edge">
<title>Node14&#45;&gt;Node20</title>
<path fill="none" stroke="midnightblue" d="M229.86,-117.79C232.76,-117.13 235.68,-116.51 238.5,-116 382.58,-89.79 555.71,-77.28 637.82,-72.48"/>
<polygon fill="midnightblue" stroke="midnightblue" points="638.06,-75.97 647.84,-71.9 637.66,-68.98 638.06,-75.97"/>
</g>
<!-- Node18 -->
<g id="node18" class="node">
<title>Node18</title>
<g id="a_node18"><a xlink:title=" ">
<polygon fill="none" stroke="#bfbfbf" points="108.5,-0.5 108.5,-21.5 164.5,-21.5 164.5,-0.5 108.5,-0.5"/>
<text text-anchor="middle" x="136.5" y="-7.9" font-family="Helvetica,sans-Serif" font-size="12.00">cstdint</text>
</a>
</g>
</g>
<!-- Node17&#45;&gt;Node18 -->
<g id="edge22" class="edge">
<title>Node17&#45;&gt;Node18</title>
<path fill="none" stroke="midnightblue" d="M167.88,-58.25C162.6,-50.46 155.05,-39.33 148.68,-29.94"/>
<polygon fill="midnightblue" stroke="midnightblue" points="151.55,-27.95 143.04,-21.64 145.76,-31.88 151.55,-27.95"/>
</g>
<!-- Node19 -->
<g id="node19" class="node">
<title>Node19</title>
<g id="a_node19"><a xlink:title=" ">
<polygon fill="none" stroke="#bfbfbf" points="183,-0.5 183,-21.5 244,-21.5 244,-0.5 183,-0.5"/>
<text text-anchor="middle" x="213.5" y="-7.9" font-family="Helvetica,sans-Serif" font-size="12.00">cstddef</text>
</a>
</g>
</g>
<!-- Node17&#45;&gt;Node19 -->
<g id="edge23" class="edge">
<title>Node17&#45;&gt;Node19</title>
<path fill="none" stroke="midnightblue" d="M181.29,-58.25C186.72,-50.46 194.47,-39.33 201,-29.94"/>
<polygon fill="midnightblue" stroke="midnightblue" points="203.94,-31.85 206.78,-21.64 198.2,-27.85 203.94,-31.85"/>
</g>
<!-- Node20&#45;&gt;Node15 -->
<g id="edge26" class="edge">
<title>Node20&#45;&gt;Node15</title>
<path fill="none" stroke="midnightblue" d="M671.57,-58.25C659.41,-49.73 641.55,-37.24 627.47,-27.38"/>
<polygon fill="midnightblue" stroke="midnightblue" points="629.47,-24.51 619.28,-21.64 625.46,-30.24 629.47,-24.51"/>
</g>
<!-- Node21 -->
<g id="node21" class="node">
<title>Node21</title>
<g id="a_node21"><a xlink:title=" ">
<polygon fill="none" stroke="#bfbfbf" points="658.5,-0.5 658.5,-21.5 722.5,-21.5 722.5,-0.5 658.5,-0.5"/>
<text text-anchor="middle" x="690.5" y="-7.9" font-family="Helvetica,sans-Serif" font-size="12.00">random</text>
</a>
</g>
</g>
<!-- Node20&#45;&gt;Node21 -->
<g id="edge25" class="edge">
<title>Node20&#45;&gt;Node21</title>
<path fill="none" stroke="midnightblue" d="M686.37,-58.25C687.02,-50.94 687.94,-40.69 688.74,-31.7"/>
<polygon fill="midnightblue" stroke="midnightblue" points="692.24,-31.91 689.64,-21.64 685.26,-31.29 692.24,-31.91"/>
</g>
<!-- Node22&#45;&gt;Node15 -->
<g id="edge30" class="edge">
<title>Node22&#45;&gt;Node15</title>
<path fill="none" stroke="midnightblue" d="M610.5,-290.24C610.5,-270.54 610.5,-224.59 610.5,-186 610.5,-186 610.5,-186 610.5,-126 610.5,-92.95 608.38,-54.57 606.9,-31.83"/>
<polygon fill="midnightblue" stroke="midnightblue" points="610.38,-31.49 606.22,-21.75 603.4,-31.97 610.38,-31.49"/>
</g>
<!-- Node23&#45;&gt;Node20 -->
<g id="edge32" class="edge">
<title>Node23&#45;&gt;Node20</title>
<path fill="none" stroke="midnightblue" d="M671.88,-348.39C679.27,-339.49 689.86,-325.6 696.5,-312 710.32,-283.69 716.5,-275.5 716.5,-244 716.5,-244 716.5,-244 716.5,-184 716.5,-149.47 703.1,-111.06 693.92,-88.8"/>
<polygon fill="midnightblue" stroke="midnightblue" points="697.1,-87.34 689.94,-79.52 690.66,-90.09 697.1,-87.34"/>
</g>
<!-- Node23&#45;&gt;Node22 -->
<g id="edge33" class="edge">
<title>Node23&#45;&gt;Node22</title>
<path fill="none" stroke="midnightblue" d="M654.27,-348.25C646.67,-340.22 635.71,-328.64 626.66,-319.08"/>
<polygon fill="midnightblue" stroke="midnightblue" points="629.04,-316.5 619.63,-311.64 623.96,-321.31 629.04,-316.5"/>
</g>
</g>
</svg>
        <g id="navigator" transform="translate(0 0)" fill="#404254">
                <rect fill="#f2f5e9" fill-opacity="0.5" stroke="#606060" stroke-width=".5" x="0" y="0" width="60" height="60"/>
                <use id="zoomplus" xlink:href="#zoomPlus" x="17" y="9" onmousedown="handleZoom(evt,'in')"/>
                <use id="zoomminus" xlink:href="#zoomMin" x="42" y="9" onmousedown="handleZoom(evt,'out')"/>
                <use id="reset" xlink:href="#resetDef" x="30" y="36" onmousedown="handleReset()"/>
                <g id="arrowUp" xlink:href="#dirArrow" transform="translate(30 24)" onmousedown="handlePan(0,-1)">
                  <use xlink:href="#rim" fill="#404040">
                        <set attributeName="fill" to="#808080" begin="arrowUp.mouseover" end="arrowUp.mouseout"/>
                  </use>
                  <path fill="none" stroke="white" stroke-width="1.5" d="M0,-3.0v7 M-2.5,-0.5L0,-3.0L2.5,-0.5"/>
                </g>
                <g id="arrowRight" xlink:href="#dirArrow" transform="rotate(90) translate(36 -43)" onmousedown="handlePan(1,0)">
                  <use xlink:href="#rim" fill="#404040">
                        <set attributeName="fill" to="#808080" begin="arrowRight.mouseover" end="arrowRight.mouseout"/>
                  </use>
                  <path fill="none" stroke="white" stroke-width="1.5" d="M0,-3.0v7 M-2.5,-0.5L0,-3.0L2.5,-0.5"/>
                </g>
                <g id="arrowDown" xlink:href="#dirArrow" transform="rotate(180) translate(-30 -48)" onmousedown="handlePan(0,1)">
                  <use xlink:href="#rim" fill="#404040">
                        <set attributeName="fill" to="#808080" begin="arrowDown.mouseover" end="arrowDown.mouseout"/>
                  </use>
                  <path fill="none" stroke="white" stroke-width="1.5" d="M0,-3.0v7 M-2.5,-0.5L0,-3.0L2.5,-0.5"/>
                </g>
                <g id="arrowLeft" xlink:href="#dirArrow" transform="rotate(270) translate(-36 17)" onmousedown="handlePan(-1,0)">
                  <use xlink:href="#rim" fill="#404040">
                        <set attributeName="fill" to="#808080" begin="arrowLeft.mouseover" end="arrowLeft.mouseout"/>
                  </use>
                  <path fill="none" stroke="white" stroke-width="1.5" d="M0,-3.0v7 M-2.5,-0.5L0,-3.0L2.5,-0.5"/>
                </g>
        </g>
        <svg viewBox="0 0 15 15" width="100%" height="30px" preserveAspectRatio="xMaxYMin meet">
         <g id="arrow_out" transform="scale(0.3 0.3)">
          <a xlink:href="cuda_model_matrix_8cu__incl_org.svg" target="_base">
           <rect id="button" ry="5" rx="5" y="6" x="6" height="38" width="38"
                fill="#f2f5e9" fill-opacity="0.5" stroke="#606060" stroke-width="1.0"/>
           <path id="arrow"
             d="M 11.500037,31.436501 C 11.940474,20.09759 22.043105,11.32322 32.158766,21.979434 L 37.068811,17.246167 C 37.068811,17.246167 37.088388,32 37.088388,32 L 22.160133,31.978069 C 22.160133,31.978069 26.997745,27.140456 26.997745,27.140456 C 18.528582,18.264221 13.291696,25.230495 11.500037,31.436501 z"
             style="fill:#404040;"/>
          </a>
         </g>
        </svg>
</svg>
