<?xml version="1.0" encoding="UTF-8" standalone="no"?>
<!DOCTYPE svg PUBLIC "-//W3C//DTD SVG 1.1//EN"
 "http://www.w3.org/Graphics/SVG/1.1/DTD/svg11.dtd">
<!-- Generated by graphviz version 2.43.0 (0)
 -->
<!-- Title: cudaModelMatrix.h Pages: 1 -->
<svg width="228pt" height="88pt"
 viewBox="0.00 0.00 228.00 88.00" xmlns="http://www.w3.org/2000/svg" xmlns:xlink="http://www.w3.org/1999/xlink">
<g id="graph0" class="graph" transform="scale(1 1) rotate(0) translate(4 84)">
<title>cudaModelMatrix.h</title>
<!-- Node1 -->
<g id="node1" class="node">
<title>Node1</title>
<g id="a_node1"><a xlink:title="CUDA accelerated extension of Markov::API::ModelMatrix.">
<polygon fill="#bfbfbf" stroke="black" points="62,-58.5 62,-79.5 193,-79.5 193,-58.5 62,-58.5"/>
<text text-anchor="middle" x="127.5" y="-65.9" font-family="Helvetica,sans-Serif" font-size="12.00">cudaModelMatrix.h</text>
</a>
</g>
</g>
<!-- Node2 -->
<g id="node2" class="node">
<title>Node2</title>
<g id="a_node2"><a xlink:href="cuda_model_matrix_8cu.html" target="_top" xlink:title="CUDA accelerated extension of Markov::API::ModelMatrix.">
<polygon fill="none" stroke="black" points="0,-0.5 0,-21.5 137,-21.5 137,-0.5 0,-0.5"/>
<text text-anchor="middle" x="68.5" y="-7.9" font-family="Helvetica,sans-Serif" font-size="12.00">cudaModelMatrix.cu</text>
</a>
</g>
</g>
<!-- Node1&#45;&gt;Node2 -->
<g id="edge1" class="edge">
<title>Node1&#45;&gt;Node2</title>
<path fill="none" stroke="midnightblue" d="M109.97,-51.36C99.76,-41.67 87.25,-29.8 78.66,-21.64"/>
<polygon fill="midnightblue" stroke="midnightblue" points="107.56,-53.9 117.22,-58.25 112.38,-48.82 107.56,-53.9"/>
</g>
<!-- Node3 -->
<g id="node3" class="node">
<title>Node3</title>
<g id="a_node3"><a xlink:href="main_8cu.html" target="_top" xlink:title="Simple test file to check libcudamarkov.">
<polygon fill="none" stroke="black" points="155,-0.5 155,-21.5 220,-21.5 220,-0.5 155,-0.5"/>
<text text-anchor="middle" x="187.5" y="-7.9" font-family="Helvetica,sans-Serif" font-size="12.00">main.cu</text>
</a>
</g>
</g>
<!-- Node1&#45;&gt;Node3 -->
<g id="edge2" class="edge">
<title>Node1&#45;&gt;Node3</title>
<path fill="none" stroke="midnightblue" d="M145.33,-51.36C155.71,-41.67 168.43,-29.8 177.17,-21.64"/>
<polygon fill="midnightblue" stroke="midnightblue" points="142.87,-48.86 137.95,-58.25 147.65,-53.98 142.87,-48.86"/>
</g>
</g>
</svg>
