<?xml version="1.0" encoding="UTF-8" standalone="no"?>
<!DOCTYPE svg PUBLIC "-//W3C//DTD SVG 1.1//EN"
 "http://www.w3.org/Graphics/SVG/1.1/DTD/svg11.dtd">
<!-- Generated by graphviz version 2.43.0 (0)
 -->
<!-- Title: cudaModelMatrix.h Pages: 1 -->
<svg width="1096pt" height="391pt"
 viewBox="0.00 0.00 1095.50 391.00" xmlns="http://www.w3.org/2000/svg" xmlns:xlink="http://www.w3.org/1999/xlink">
<g id="graph0" class="graph" transform="scale(1 1) rotate(0) translate(4 387)">
<title>cudaModelMatrix.h</title>
<!-- Node1 -->
<g id="node1" class="node">
<title>Node1</title>
<g id="a_node1"><a xlink:title=" ">
<polygon fill="#bfbfbf" stroke="black" points="556.5,-361.5 556.5,-382.5 687.5,-382.5 687.5,-361.5 556.5,-361.5"/>
<text text-anchor="middle" x="622" y="-368.9" font-family="Helvetica,sans-Serif" font-size="12.00">cudaModelMatrix.h</text>
</a>
</g>
</g>
<!-- Node2 -->
<g id="node2" class="node">
<title>Node2</title>
<g id="a_node2"><a xlink:href="model_matrix_8h.html" target="_top" xlink:title=" ">
<polygon fill="none" stroke="black" points="425.5,-290.5 425.5,-324.5 568.5,-324.5 568.5,-290.5 425.5,-290.5"/>
<text text-anchor="start" x="433.5" y="-310.9" font-family="Helvetica,sans-Serif" font-size="12.00">MarkovPasswords/src</text>
<text text-anchor="middle" x="497" y="-297.9" font-family="Helvetica,sans-Serif" font-size="12.00">/modelMatrix.h</text>
</a>
</g>
</g>
<!-- Node1&#45;&gt;Node2 -->
<g id="edge1" class="edge">
<title>Node1&#45;&gt;Node2</title>
<path fill="none" stroke="midnightblue" d="M602.74,-361.37C585.6,-352.8 559.96,-339.98 538.21,-329.11"/>
<polygon fill="midnightblue" stroke="midnightblue" points="539.68,-325.93 529.17,-324.59 536.55,-332.19 539.68,-325.93"/>
</g>
<!-- Node21 -->
<g id="node21" class="node">
<title>Node21</title>
<g id="a_node21"><a xlink:href="cuda_device_controller_8h.html" target="_top" xlink:title=" ">
<polygon fill="none" stroke="black" points="754.5,-297 754.5,-318 909.5,-318 909.5,-297 754.5,-297"/>
<text text-anchor="middle" x="832" y="-304.4" font-family="Helvetica,sans-Serif" font-size="12.00">cudaDeviceController.h</text>
</a>
</g>
</g>
<!-- Node1&#45;&gt;Node21 -->
<g id="edge28" class="edge">
<title>Node1&#45;&gt;Node21</title>
<path fill="none" stroke="midnightblue" d="M654.35,-361.37C690.84,-350.51 750.28,-332.82 790.24,-320.93"/>
<polygon fill="midnightblue" stroke="midnightblue" points="791.37,-324.24 799.96,-318.04 789.37,-317.54 791.37,-324.24"/>
</g>
<!-- Node3 -->
<g id="node3" class="node">
<title>Node3</title>
<g id="a_node3"><a xlink:href="markov_passwords_8h.html" target="_top" xlink:title=" ">
<polygon fill="none" stroke="black" points="314,-232.5 314,-253.5 448,-253.5 448,-232.5 314,-232.5"/>
<text text-anchor="middle" x="381" y="-239.9" font-family="Helvetica,sans-Serif" font-size="12.00">markovPasswords.h</text>
</a>
</g>
</g>
<!-- Node2&#45;&gt;Node3 -->
<g id="edge2" class="edge">
<title>Node2&#45;&gt;Node3</title>
<path fill="none" stroke="midnightblue" d="M467.13,-290.4C448.89,-280.58 425.76,-268.11 408.06,-258.58"/>
<polygon fill="midnightblue" stroke="midnightblue" points="409.31,-255.28 398.85,-253.62 405.99,-261.44 409.31,-255.28"/>
</g>
<!-- Node7 -->
<g id="node7" class="node">
<title>Node7</title>
<g id="a_node7"><a xlink:title=" ">
<polygon fill="none" stroke="#bfbfbf" points="469.5,-116.5 469.5,-137.5 524.5,-137.5 524.5,-116.5 469.5,-116.5"/>
<text text-anchor="middle" x="497" y="-123.9" font-family="Helvetica,sans-Serif" font-size="12.00">mutex</text>
</a>
</g>
</g>
<!-- Node2&#45;&gt;Node7 -->
<g id="edge27" class="edge">
<title>Node2&#45;&gt;Node7</title>
<path fill="none" stroke="midnightblue" d="M497,-290.34C497,-257.51 497,-183.1 497,-147.58"/>
<polygon fill="midnightblue" stroke="midnightblue" points="500.5,-147.51 497,-137.51 493.5,-147.51 500.5,-147.51"/>
</g>
<!-- Node4 -->
<g id="node4" class="node">
<title>Node4</title>
<g id="a_node4"><a xlink:href="thread_shared_list_handler_8h.html" target="_top" xlink:title=" ">
<polygon fill="none" stroke="black" points="293.5,-174.5 293.5,-195.5 468.5,-195.5 468.5,-174.5 293.5,-174.5"/>
<text text-anchor="middle" x="381" y="-181.9" font-family="Helvetica,sans-Serif" font-size="12.00">threadSharedListHandler.h</text>
</a>
</g>
</g>
<!-- Node3&#45;&gt;Node4 -->
<g id="edge3" class="edge">
<title>Node3&#45;&gt;Node4</title>
<path fill="none" stroke="midnightblue" d="M381,-232.25C381,-224.94 381,-214.69 381,-205.7"/>
<polygon fill="midnightblue" stroke="midnightblue" points="384.5,-205.64 381,-195.64 377.5,-205.64 384.5,-205.64"/>
</g>
<!-- Node8 -->
<g id="node8" class="node">
<title>Node8</title>
<g id="a_node8"><a xlink:href="model_8h.html" target="_top" xlink:title=" ">
<polygon fill="none" stroke="black" points="105,-174.5 105,-195.5 275,-195.5 275,-174.5 105,-174.5"/>
<text text-anchor="middle" x="190" y="-181.9" font-family="Helvetica,sans-Serif" font-size="12.00">MarkovModel/src/model.h</text>
</a>
</g>
</g>
<!-- Node3&#45;&gt;Node8 -->
<g id="edge7" class="edge">
<title>Node3&#45;&gt;Node8</title>
<path fill="none" stroke="midnightblue" d="M348.17,-232.37C316.13,-222.98 267.25,-208.65 232.31,-198.41"/>
<polygon fill="midnightblue" stroke="midnightblue" points="232.99,-194.96 222.41,-195.5 231.02,-201.67 232.99,-194.96"/>
</g>
<!-- Node5 -->
<g id="node5" class="node">
<title>Node5</title>
<g id="a_node5"><a xlink:title=" ">
<polygon fill="none" stroke="#bfbfbf" points="320,-116.5 320,-137.5 370,-137.5 370,-116.5 320,-116.5"/>
<text text-anchor="middle" x="345" y="-123.9" font-family="Helvetica,sans-Serif" font-size="12.00">string</text>
</a>
</g>
</g>
<!-- Node4&#45;&gt;Node5 -->
<g id="edge4" class="edge">
<title>Node4&#45;&gt;Node5</title>
<path fill="none" stroke="midnightblue" d="M374.73,-174.25C369.77,-166.54 362.72,-155.56 356.72,-146.23"/>
<polygon fill="midnightblue" stroke="midnightblue" points="359.55,-144.16 351.2,-137.64 353.66,-147.95 359.55,-144.16"/>
</g>
<!-- Node6 -->
<g id="node6" class="node">
<title>Node6</title>
<g id="a_node6"><a xlink:title=" ">
<polygon fill="none" stroke="#bfbfbf" points="388.5,-116.5 388.5,-137.5 451.5,-137.5 451.5,-116.5 388.5,-116.5"/>
<text text-anchor="middle" x="420" y="-123.9" font-family="Helvetica,sans-Serif" font-size="12.00">fstream</text>
</a>
</g>
</g>
<!-- Node4&#45;&gt;Node6 -->
<g id="edge5" class="edge">
<title>Node4&#45;&gt;Node6</title>
<path fill="none" stroke="midnightblue" d="M387.79,-174.25C393.22,-166.46 400.97,-155.33 407.5,-145.94"/>
<polygon fill="midnightblue" stroke="midnightblue" points="410.44,-147.85 413.28,-137.64 404.7,-143.85 410.44,-147.85"/>
</g>
<!-- Node4&#45;&gt;Node7 -->
<g id="edge6" class="edge">
<title>Node4&#45;&gt;Node7</title>
<path fill="none" stroke="midnightblue" d="M400.94,-174.37C419.48,-165.42 447.3,-151.99 468.24,-141.88"/>
<polygon fill="midnightblue" stroke="midnightblue" points="469.84,-145 477.32,-137.5 466.79,-138.7 469.84,-145"/>
</g>
<!-- Node8&#45;&gt;Node5 -->
<g id="edge12" class="edge">
<title>Node8&#45;&gt;Node5</title>
<path fill="none" stroke="midnightblue" d="M216.65,-174.37C242.58,-165 282.13,-150.71 310.47,-140.48"/>
<polygon fill="midnightblue" stroke="midnightblue" points="311.77,-143.73 319.98,-137.04 309.39,-137.14 311.77,-143.73"/>
</g>
<!-- Node8&#45;&gt;Node6 -->
<g id="edge10" class="edge">
<title>Node8&#45;&gt;Node6</title>
<path fill="none" stroke="midnightblue" d="M229.09,-174.49C265.23,-165.7 320.68,-152.21 378.21,-138.19"/>
<polygon fill="midnightblue" stroke="midnightblue" points="379.33,-141.52 388.22,-135.75 377.67,-134.72 379.33,-141.52"/>
</g>
<!-- Node9 -->
<g id="node9" class="node">
<title>Node9</title>
<g id="a_node9"><a xlink:title=" ">
<polygon fill="none" stroke="#bfbfbf" points="172,-58.5 172,-79.5 216,-79.5 216,-58.5 172,-58.5"/>
<text text-anchor="middle" x="194" y="-65.9" font-family="Helvetica,sans-Serif" font-size="12.00">map</text>
</a>
</g>
</g>
<!-- Node8&#45;&gt;Node9 -->
<g id="edge8" class="edge">
<title>Node8&#45;&gt;Node9</title>
<path fill="none" stroke="midnightblue" d="M190.34,-174.28C191,-155.6 192.44,-114.37 193.31,-89.72"/>
<polygon fill="midnightblue" stroke="midnightblue" points="196.81,-89.81 193.66,-79.69 189.81,-89.57 196.81,-89.81"/>
</g>
<!-- Node10 -->
<g id="node10" class="node">
<title>Node10</title>
<g id="a_node10"><a xlink:title=" ">
<polygon fill="none" stroke="#bfbfbf" points="459.5,-58.5 459.5,-79.5 514.5,-79.5 514.5,-58.5 459.5,-58.5"/>
<text text-anchor="middle" x="487" y="-65.9" font-family="Helvetica,sans-Serif" font-size="12.00">vector</text>
</a>
</g>
</g>
<!-- Node8&#45;&gt;Node10 -->
<g id="edge9" class="edge">
<title>Node8&#45;&gt;Node10</title>
<path fill="none" stroke="midnightblue" d="M207.54,-174.4C224.38,-165.16 250.5,-150.75 273,-138 289.98,-128.38 292.94,-123.4 311,-116 367.16,-92.97 386.43,-95.95 449.12,-80.15"/>
<polygon fill="midnightblue" stroke="midnightblue" points="450.32,-83.46 459.13,-77.57 448.57,-76.68 450.32,-83.46"/>
</g>
<!-- Node11 -->
<g id="node11" class="node">
<title>Node11</title>
<g id="a_node11"><a xlink:title=" ">
<polygon fill="none" stroke="#bfbfbf" points="12.5,-58.5 12.5,-79.5 77.5,-79.5 77.5,-58.5 12.5,-58.5"/>
<text text-anchor="middle" x="45" y="-65.9" font-family="Helvetica,sans-Serif" font-size="12.00">assert.h</text>
</a>
</g>
</g>
<!-- Node8&#45;&gt;Node11 -->
<g id="edge11" class="edge">
<title>Node8&#45;&gt;Node11</title>
<path fill="none" stroke="midnightblue" d="M177.64,-174.28C152.7,-154.68 96.17,-110.23 65.58,-86.18"/>
<polygon fill="midnightblue" stroke="midnightblue" points="67.36,-83.12 57.33,-79.69 63.03,-88.63 67.36,-83.12"/>
</g>
<!-- Node12 -->
<g id="node12" class="node">
<title>Node12</title>
<g id="a_node12"><a xlink:title=" ">
<polygon fill="none" stroke="#bfbfbf" points="0,-116.5 0,-137.5 74,-137.5 74,-116.5 0,-116.5"/>
<text text-anchor="middle" x="37" y="-123.9" font-family="Helvetica,sans-Serif" font-size="12.00">algorithm</text>
</a>
</g>
</g>
<!-- Node8&#45;&gt;Node12 -->
<g id="edge13" class="edge">
<title>Node8&#45;&gt;Node12</title>
<path fill="none" stroke="midnightblue" d="M163.7,-174.37C138.59,-165.18 100.56,-151.26 72.71,-141.07"/>
<polygon fill="midnightblue" stroke="midnightblue" points="73.55,-137.65 62.96,-137.5 71.15,-144.23 73.55,-137.65"/>
</g>
<!-- Node13 -->
<g id="node13" class="node">
<title>Node13</title>
<g id="a_node13"><a xlink:href="node_8h.html" target="_top" xlink:title=" ">
<polygon fill="none" stroke="black" points="206,-116.5 206,-137.5 264,-137.5 264,-116.5 206,-116.5"/>
<text text-anchor="middle" x="235" y="-123.9" font-family="Helvetica,sans-Serif" font-size="12.00">node.h</text>
</a>
</g>
</g>
<!-- Node8&#45;&gt;Node13 -->
<g id="edge14" class="edge">
<title>Node8&#45;&gt;Node13</title>
<path fill="none" stroke="midnightblue" d="M197.84,-174.25C204.16,-166.38 213.22,-155.1 220.81,-145.65"/>
<polygon fill="midnightblue" stroke="midnightblue" points="223.72,-147.63 227.25,-137.64 218.26,-143.25 223.72,-147.63"/>
</g>
<!-- Node16 -->
<g id="node16" class="node">
<title>Node16</title>
<g id="a_node16"><a xlink:href="edge_8h.html" target="_top" xlink:title=" ">
<polygon fill="none" stroke="black" points="96,-58.5 96,-79.5 154,-79.5 154,-58.5 96,-58.5"/>
<text text-anchor="middle" x="125" y="-65.9" font-family="Helvetica,sans-Serif" font-size="12.00">edge.h</text>
</a>
</g>
</g>
<!-- Node8&#45;&gt;Node16 -->
<g id="edge26" class="edge">
<title>Node8&#45;&gt;Node16</title>
<path fill="none" stroke="midnightblue" d="M184.46,-174.28C173.62,-155.27 149.45,-112.88 135.49,-88.4"/>
<polygon fill="midnightblue" stroke="midnightblue" points="138.52,-86.65 130.53,-79.69 132.44,-90.12 138.52,-86.65"/>
</g>
<!-- Node13&#45;&gt;Node9 -->
<g id="edge16" class="edge">
<title>Node13&#45;&gt;Node9</title>
<path fill="none" stroke="midnightblue" d="M227.86,-116.25C222.16,-108.46 214.01,-97.33 207.14,-87.94"/>
<polygon fill="midnightblue" stroke="midnightblue" points="209.79,-85.64 201.06,-79.64 204.14,-89.78 209.79,-85.64"/>
</g>
<!-- Node13&#45;&gt;Node10 -->
<g id="edge15" class="edge">
<title>Node13&#45;&gt;Node10</title>
<path fill="none" stroke="midnightblue" d="M264.12,-119.13C268.76,-118.07 273.51,-116.99 278,-116 351.13,-99.84 372.33,-98.3 449.01,-80.13"/>
<polygon fill="midnightblue" stroke="midnightblue" points="450.25,-83.44 459.16,-77.71 448.62,-76.63 450.25,-83.44"/>
</g>
<!-- Node13&#45;&gt;Node11 -->
<g id="edge17" class="edge">
<title>Node13&#45;&gt;Node11</title>
<path fill="none" stroke="midnightblue" d="M205.73,-117.37C174.04,-108.03 123.23,-93.06 87.22,-82.44"/>
<polygon fill="midnightblue" stroke="midnightblue" points="88.07,-79.05 77.49,-79.58 86.09,-85.76 88.07,-79.05"/>
</g>
<!-- Node14 -->
<g id="node14" class="node">
<title>Node14</title>
<g id="a_node14"><a xlink:title=" ">
<polygon fill="none" stroke="#bfbfbf" points="312.5,-0.5 312.5,-21.5 381.5,-21.5 381.5,-0.5 312.5,-0.5"/>
<text text-anchor="middle" x="347" y="-7.9" font-family="Helvetica,sans-Serif" font-size="12.00">iostream</text>
</a>
</g>
</g>
<!-- Node13&#45;&gt;Node14 -->
<g id="edge18" class="edge">
<title>Node13&#45;&gt;Node14</title>
<path fill="none" stroke="midnightblue" d="M261.94,-116.45C279.84,-108.93 302.77,-96.88 318,-80 330.33,-66.33 337.95,-46.63 342.26,-31.95"/>
<polygon fill="midnightblue" stroke="midnightblue" points="345.75,-32.45 344.94,-21.89 338.99,-30.65 345.75,-32.45"/>
</g>
<!-- Node15 -->
<g id="node15" class="node">
<title>Node15</title>
<g id="a_node15"><a xlink:title=" ">
<polygon fill="none" stroke="#bfbfbf" points="366.5,-58.5 366.5,-79.5 441.5,-79.5 441.5,-58.5 366.5,-58.5"/>
<text text-anchor="middle" x="404" y="-65.9" font-family="Helvetica,sans-Serif" font-size="12.00">stdexcept</text>
</a>
</g>
</g>
<!-- Node13&#45;&gt;Node15 -->
<g id="edge19" class="edge">
<title>Node13&#45;&gt;Node15</title>
<path fill="none" stroke="midnightblue" d="M264.05,-116.37C292.15,-107.06 334.91,-92.9 365.76,-82.67"/>
<polygon fill="midnightblue" stroke="midnightblue" points="366.94,-85.97 375.33,-79.5 364.73,-79.32 366.94,-85.97"/>
</g>
<!-- Node13&#45;&gt;Node16 -->
<g id="edge20" class="edge">
<title>Node13&#45;&gt;Node16</title>
<path fill="none" stroke="midnightblue" d="M215.84,-116.25C198.49,-107.41 172.71,-94.29 153.04,-84.28"/>
<polygon fill="midnightblue" stroke="midnightblue" points="154.44,-81.06 143.94,-79.64 151.26,-87.3 154.44,-81.06"/>
</g>
<!-- Node19 -->
<g id="node19" class="node">
<title>Node19</title>
<g id="a_node19"><a xlink:href="random_8h.html" target="_top" xlink:title=" ">
<polygon fill="none" stroke="black" points="234.5,-58.5 234.5,-79.5 309.5,-79.5 309.5,-58.5 234.5,-58.5"/>
<text text-anchor="middle" x="272" y="-65.9" font-family="Helvetica,sans-Serif" font-size="12.00">random.h</text>
</a>
</g>
</g>
<!-- Node13&#45;&gt;Node19 -->
<g id="edge23" class="edge">
<title>Node13&#45;&gt;Node19</title>
<path fill="none" stroke="midnightblue" d="M241.44,-116.25C246.54,-108.54 253.79,-97.56 259.95,-88.23"/>
<polygon fill="midnightblue" stroke="midnightblue" points="263.04,-89.92 265.63,-79.64 257.2,-86.06 263.04,-89.92"/>
</g>
<!-- Node17 -->
<g id="node17" class="node">
<title>Node17</title>
<g id="a_node17"><a xlink:title=" ">
<polygon fill="none" stroke="#bfbfbf" points="53,-0.5 53,-21.5 109,-21.5 109,-0.5 53,-0.5"/>
<text text-anchor="middle" x="81" y="-7.9" font-family="Helvetica,sans-Serif" font-size="12.00">cstdint</text>
</a>
</g>
</g>
<!-- Node16&#45;&gt;Node17 -->
<g id="edge21" class="edge">
<title>Node16&#45;&gt;Node17</title>
<path fill="none" stroke="midnightblue" d="M117.34,-58.25C111.15,-50.38 102.29,-39.1 94.87,-29.65"/>
<polygon fill="midnightblue" stroke="midnightblue" points="97.51,-27.34 88.58,-21.64 92,-31.67 97.51,-27.34"/>
</g>
<!-- Node18 -->
<g id="node18" class="node">
<title>Node18</title>
<g id="a_node18"><a xlink:title=" ">
<polygon fill="none" stroke="#bfbfbf" points="127.5,-0.5 127.5,-21.5 188.5,-21.5 188.5,-0.5 127.5,-0.5"/>
<text text-anchor="middle" x="158" y="-7.9" font-family="Helvetica,sans-Serif" font-size="12.00">cstddef</text>
</a>
</g>
</g>
<!-- Node16&#45;&gt;Node18 -->
<g id="edge22" class="edge">
<title>Node16&#45;&gt;Node18</title>
<path fill="none" stroke="midnightblue" d="M130.75,-58.25C135.24,-50.62 141.62,-39.79 147.08,-30.53"/>
<polygon fill="midnightblue" stroke="midnightblue" points="150.26,-32.04 152.32,-21.64 144.23,-28.48 150.26,-32.04"/>
</g>
<!-- Node19&#45;&gt;Node14 -->
<g id="edge25" class="edge">
<title>Node19&#45;&gt;Node14</title>
<path fill="none" stroke="midnightblue" d="M285.06,-58.25C296.36,-49.81 312.88,-37.47 326.03,-27.66"/>
<polygon fill="midnightblue" stroke="midnightblue" points="328.17,-30.43 334.09,-21.64 323.98,-24.82 328.17,-30.43"/>
</g>
<!-- Node20 -->
<g id="node20" class="node">
<title>Node20</title>
<g id="a_node20"><a xlink:title=" ">
<polygon fill="none" stroke="#bfbfbf" points="230,-0.5 230,-21.5 294,-21.5 294,-0.5 230,-0.5"/>
<text text-anchor="middle" x="262" y="-7.9" font-family="Helvetica,sans-Serif" font-size="12.00">random</text>
</a>
</g>
</g>
<!-- Node19&#45;&gt;Node20 -->
<g id="edge24" class="edge">
<title>Node19&#45;&gt;Node20</title>
<path fill="none" stroke="midnightblue" d="M270.26,-58.25C268.95,-50.94 267.12,-40.69 265.52,-31.7"/>
<polygon fill="midnightblue" stroke="midnightblue" points="268.93,-30.87 263.72,-21.64 262.03,-32.1 268.93,-30.87"/>
</g>
<!-- Node21&#45;&gt;Node14 -->
<g id="edge29" class="edge">
<title>Node21&#45;&gt;Node14</title>
<path fill="none" stroke="midnightblue" d="M900.99,-296.95C929.87,-289.65 961.62,-276.75 983,-254 1004.49,-231.13 1002,-217.38 1002,-186 1002,-186 1002,-186 1002,-126 1002,-63.93 539.63,-25.69 391.84,-15.05"/>
<polygon fill="midnightblue" stroke="midnightblue" points="391.98,-11.55 381.75,-14.33 391.48,-18.53 391.98,-11.55"/>
</g>
<!-- Node22 -->
<g id="node22" class="node">
<title>Node22</title>
<g id="a_node22"><a xlink:title=" ">
<polygon fill="none" stroke="#bfbfbf" points="860.5,-232.5 860.5,-253.5 973.5,-253.5 973.5,-232.5 860.5,-232.5"/>
<text text-anchor="middle" x="917" y="-239.9" font-family="Helvetica,sans-Serif" font-size="12.00">curand_kernel.h</text>
</a>
</g>
</g>
<!-- Node21&#45;&gt;Node22 -->
<g id="edge30" class="edge">
<title>Node21&#45;&gt;Node22</title>
<path fill="none" stroke="midnightblue" d="M845.28,-296.73C858.75,-286.83 879.82,-271.34 895.64,-259.7"/>
<polygon fill="midnightblue" stroke="midnightblue" points="897.83,-262.44 903.81,-253.7 893.68,-256.8 897.83,-262.44"/>
</g>
<!-- Node23 -->
<g id="node23" class="node">
<title>Node23</title>
<g id="a_node23"><a xlink:title=" ">
<polygon fill="none" stroke="#bfbfbf" points="1030.5,-232.5 1030.5,-253.5 1087.5,-253.5 1087.5,-232.5 1030.5,-232.5"/>
<text text-anchor="middle" x="1059" y="-239.9" font-family="Helvetica,sans-Serif" font-size="12.00">cuda.h</text>
</a>
</g>
</g>
<!-- Node21&#45;&gt;Node23 -->
<g id="edge31" class="edge">
<title>Node21&#45;&gt;Node23</title>
<path fill="none" stroke="midnightblue" d="M866.97,-296.87C908.54,-285.43 977.66,-266.4 1020.65,-254.56"/>
<polygon fill="midnightblue" stroke="midnightblue" points="1021.75,-257.89 1030.46,-251.86 1019.89,-251.14 1021.75,-257.89"/>
</g>
<!-- Node24 -->
<g id="node24" class="node">
<title>Node24</title>
<g id="a_node24"><a xlink:title=" ">
<polygon fill="none" stroke="#bfbfbf" points="525,-232.5 525,-253.5 635,-253.5 635,-232.5 525,-232.5"/>
<text text-anchor="middle" x="580" y="-239.9" font-family="Helvetica,sans-Serif" font-size="12.00">cuda_runtime.h</text>
</a>
</g>
</g>
<!-- Node21&#45;&gt;Node24 -->
<g id="edge32" class="edge">
<title>Node21&#45;&gt;Node24</title>
<path fill="none" stroke="midnightblue" d="M793.45,-296.94C749.17,-285.96 676.46,-267.92 628.4,-256.01"/>
<polygon fill="midnightblue" stroke="midnightblue" points="629.09,-252.57 618.54,-253.56 627.41,-259.36 629.09,-252.57"/>
</g>
<!-- Node25 -->
<g id="node25" class="node">
<title>Node25</title>
<g id="a_node25"><a xlink:title=" ">
<polygon fill="none" stroke="#bfbfbf" points="653.5,-232.5 653.5,-253.5 842.5,-253.5 842.5,-232.5 653.5,-232.5"/>
<text text-anchor="middle" x="748" y="-239.9" font-family="Helvetica,sans-Serif" font-size="12.00">device_launch_parameters.h</text>
</a>
</g>
</g>
<!-- Node21&#45;&gt;Node25 -->
<g id="edge33" class="edge">
<title>Node21&#45;&gt;Node25</title>
<path fill="none" stroke="midnightblue" d="M818.88,-296.73C805.56,-286.83 784.74,-271.34 769.11,-259.7"/>
<polygon fill="midnightblue" stroke="midnightblue" points="771.15,-256.86 761.03,-253.7 766.97,-262.47 771.15,-256.86"/>
</g>
</g>
</svg>
