<?xml version="1.0" encoding="UTF-8" standalone="no"?>
<!DOCTYPE svg PUBLIC "-//W3C//DTD SVG 1.1//EN"
 "http://www.w3.org/Graphics/SVG/1.1/DTD/svg11.dtd">
<!-- Generated by graphviz version 2.43.0 (0)
 -->
<!-- Title: cudaDeviceController.h Pages: 1 -->
<svg width="441pt" height="146pt"
 viewBox="0.00 0.00 441.00 146.00" xmlns="http://www.w3.org/2000/svg" xmlns:xlink="http://www.w3.org/1999/xlink">
<g id="graph0" class="graph" transform="scale(1 1) rotate(0) translate(4 142)">
<title>cudaDeviceController.h</title>
<!-- Node1 -->
<g id="node1" class="node">
<title>Node1</title>
<g id="a_node1"><a xlink:title="Simple static class for basic CUDA device controls.">
<polygon fill="#bfbfbf" stroke="black" points="154,-116.5 154,-137.5 309,-137.5 309,-116.5 154,-116.5"/>
<text text-anchor="middle" x="231.5" y="-123.9" font-family="Helvetica,sans-Serif" font-size="12.00">cudaDeviceController.h</text>
</a>
</g>
</g>
<!-- Node2 -->
<g id="node2" class="node">
<title>Node2</title>
<g id="a_node2"><a xlink:href="cuda_device_controller_8cu.html" target="_top" xlink:title="Simple static class for basic CUDA device controls.">
<polygon fill="none" stroke="black" points="0,-58.5 0,-79.5 161,-79.5 161,-58.5 0,-58.5"/>
<text text-anchor="middle" x="80.5" y="-65.9" font-family="Helvetica,sans-Serif" font-size="12.00">cudaDeviceController.cu</text>
</a>
</g>
</g>
<!-- Node1&#45;&gt;Node2 -->
<g id="edge1" class="edge">
<title>Node1&#45;&gt;Node2</title>
<path fill="none" stroke="midnightblue" d="M195.88,-112.79C168.31,-102.56 130.79,-88.65 106.12,-79.5"/>
<polygon fill="midnightblue" stroke="midnightblue" points="194.95,-116.18 205.54,-116.37 197.38,-109.61 194.95,-116.18"/>
</g>
<!-- Node3 -->
<g id="node3" class="node">
<title>Node3</title>
<g id="a_node3"><a xlink:href="cuda_model_matrix_8h.html" target="_top" xlink:title="CUDA accelerated extension of Markov::API::ModelMatrix.">
<polygon fill="none" stroke="black" points="302,-58.5 302,-79.5 433,-79.5 433,-58.5 302,-58.5"/>
<text text-anchor="middle" x="367.5" y="-65.9" font-family="Helvetica,sans-Serif" font-size="12.00">cudaModelMatrix.h</text>
</a>
</g>
</g>
<!-- Node1&#45;&gt;Node3 -->
<g id="edge2" class="edge">
<title>Node1&#45;&gt;Node3</title>
<path fill="none" stroke="midnightblue" d="M264.24,-112.52C289.01,-102.32 322.41,-88.57 344.43,-79.5"/>
<polygon fill="midnightblue" stroke="midnightblue" points="262.79,-109.33 254.88,-116.37 265.46,-115.8 262.79,-109.33"/>
</g>
<!-- Node6 -->
<g id="node6" class="node">
<title>Node6</title>
<g id="a_node6"><a xlink:href="cudarandom_8h.html" target="_top" xlink:title="Extension of Markov::Random::Marsaglia for CUDA.">
<polygon fill="none" stroke="black" points="179.5,-58.5 179.5,-79.5 283.5,-79.5 283.5,-58.5 179.5,-58.5"/>
<text text-anchor="middle" x="231.5" y="-65.9" font-family="Helvetica,sans-Serif" font-size="12.00">cudarandom.h</text>
</a>
</g>
</g>
<!-- Node1&#45;&gt;Node6 -->
<g id="edge5" class="edge">
<title>Node1&#45;&gt;Node6</title>
<path fill="none" stroke="midnightblue" d="M231.5,-106.16C231.5,-97.16 231.5,-86.92 231.5,-79.64"/>
<polygon fill="midnightblue" stroke="midnightblue" points="228,-106.25 231.5,-116.25 235,-106.25 228,-106.25"/>
</g>
<!-- Node4 -->
<g id="node4" class="node">
<title>Node4</title>
<g id="a_node4"><a xlink:href="cuda_model_matrix_8cu.html" target="_top" xlink:title="CUDA accelerated extension of Markov::API::ModelMatrix.">
<polygon fill="none" stroke="black" points="172,-0.5 172,-21.5 309,-21.5 309,-0.5 172,-0.5"/>
<text text-anchor="middle" x="240.5" y="-7.9" font-family="Helvetica,sans-Serif" font-size="12.00">cudaModelMatrix.cu</text>
</a>
</g>
</g>
<!-- Node3&#45;&gt;Node4 -->
<g id="edge3" class="edge">
<title>Node3&#45;&gt;Node4</title>
<path fill="none" stroke="midnightblue" d="M336.31,-54.25C313.25,-44.08 282.43,-30.49 262.05,-21.5"/>
<polygon fill="midnightblue" stroke="midnightblue" points="335.11,-57.54 345.67,-58.37 337.93,-51.14 335.11,-57.54"/>
</g>
<!-- Node5 -->
<g id="node5" class="node">
<title>Node5</title>
<g id="a_node5"><a xlink:href="main_8cu.html" target="_top" xlink:title="Simple test file to check libcudamarkov.">
<polygon fill="none" stroke="black" points="335,-0.5 335,-21.5 400,-21.5 400,-0.5 335,-0.5"/>
<text text-anchor="middle" x="367.5" y="-7.9" font-family="Helvetica,sans-Serif" font-size="12.00">main.cu</text>
</a>
</g>
</g>
<!-- Node3&#45;&gt;Node5 -->
<g id="edge4" class="edge">
<title>Node3&#45;&gt;Node5</title>
<path fill="none" stroke="midnightblue" d="M367.5,-48.16C367.5,-39.16 367.5,-28.92 367.5,-21.64"/>
<polygon fill="midnightblue" stroke="midnightblue" points="364,-48.25 367.5,-58.25 371,-48.25 364,-48.25"/>
</g>
<!-- Node6&#45;&gt;Node4 -->
<g id="edge6" class="edge">
<title>Node6&#45;&gt;Node4</title>
<path fill="none" stroke="midnightblue" d="M234.69,-48.16C236.14,-39.16 237.78,-28.92 238.95,-21.64"/>
<polygon fill="midnightblue" stroke="midnightblue" points="231.2,-47.82 233.07,-58.25 238.11,-48.93 231.2,-47.82"/>
</g>
</g>
</svg>
