<?xml version="1.0" encoding="UTF-8" standalone="no"?>
<!DOCTYPE svg PUBLIC "-//W3C//DTD SVG 1.1//EN"
 "http://www.w3.org/Graphics/SVG/1.1/DTD/svg11.dtd">
<!-- Generated by graphviz version 2.43.0 (0)
 -->
<!-- Title: cudaDeviceController.h Pages: 1 -->
<svg width="619pt" height="88pt"
 viewBox="0.00 0.00 619.00 88.00" xmlns="http://www.w3.org/2000/svg" xmlns:xlink="http://www.w3.org/1999/xlink">
<g id="graph0" class="graph" transform="scale(1 1) rotate(0) translate(4 84)">
<title>cudaDeviceController.h</title>
<!-- Node1 -->
<g id="node1" class="node">
<title>Node1</title>
<g id="a_node1"><a xlink:title=" ">
<polygon fill="#bfbfbf" stroke="black" points="169,-58.5 169,-79.5 324,-79.5 324,-58.5 169,-58.5"/>
<text text-anchor="middle" x="246.5" y="-65.9" font-family="Helvetica,sans-Serif" font-size="12.00">cudaDeviceController.h</text>
</a>
</g>
</g>
<!-- Node2 -->
<g id="node2" class="node">
<title>Node2</title>
<g id="a_node2"><a xlink:title=" ">
<polygon fill="none" stroke="#bfbfbf" points="0,-0.5 0,-21.5 69,-21.5 69,-0.5 0,-0.5"/>
<text text-anchor="middle" x="34.5" y="-7.9" font-family="Helvetica,sans-Serif" font-size="12.00">iostream</text>
</a>
</g>
</g>
<!-- Node1&#45;&gt;Node2 -->
<g id="edge1" class="edge">
<title>Node1&#45;&gt;Node2</title>
<path fill="none" stroke="midnightblue" d="M210.06,-58.37C173.76,-48.79 117.98,-34.05 79.07,-23.77"/>
<polygon fill="midnightblue" stroke="midnightblue" points="79.63,-20.3 69.06,-21.13 77.84,-27.07 79.63,-20.3"/>
</g>
<!-- Node3 -->
<g id="node3" class="node">
<title>Node3</title>
<g id="a_node3"><a xlink:title=" ">
<polygon fill="none" stroke="#bfbfbf" points="87,-0.5 87,-21.5 200,-21.5 200,-0.5 87,-0.5"/>
<text text-anchor="middle" x="143.5" y="-7.9" font-family="Helvetica,sans-Serif" font-size="12.00">curand_kernel.h</text>
</a>
</g>
</g>
<!-- Node1&#45;&gt;Node3 -->
<g id="edge2" class="edge">
<title>Node1&#45;&gt;Node3</title>
<path fill="none" stroke="midnightblue" d="M228.56,-58.25C212.46,-49.49 188.61,-36.53 170.26,-26.55"/>
<polygon fill="midnightblue" stroke="midnightblue" points="171.69,-23.34 161.24,-21.64 168.35,-29.49 171.69,-23.34"/>
</g>
<!-- Node4 -->
<g id="node4" class="node">
<title>Node4</title>
<g id="a_node4"><a xlink:title=" ">
<polygon fill="none" stroke="#bfbfbf" points="218,-0.5 218,-21.5 275,-21.5 275,-0.5 218,-0.5"/>
<text text-anchor="middle" x="246.5" y="-7.9" font-family="Helvetica,sans-Serif" font-size="12.00">cuda.h</text>
</a>
</g>
</g>
<!-- Node1&#45;&gt;Node4 -->
<g id="edge3" class="edge">
<title>Node1&#45;&gt;Node4</title>
<path fill="none" stroke="midnightblue" d="M246.5,-58.25C246.5,-50.94 246.5,-40.69 246.5,-31.7"/>
<polygon fill="midnightblue" stroke="midnightblue" points="250,-31.64 246.5,-21.64 243,-31.64 250,-31.64"/>
</g>
<!-- Node5 -->
<g id="node5" class="node">
<title>Node5</title>
<g id="a_node5"><a xlink:title=" ">
<polygon fill="none" stroke="#bfbfbf" points="293.5,-0.5 293.5,-21.5 403.5,-21.5 403.5,-0.5 293.5,-0.5"/>
<text text-anchor="middle" x="348.5" y="-7.9" font-family="Helvetica,sans-Serif" font-size="12.00">cuda_runtime.h</text>
</a>
</g>
</g>
<!-- Node1&#45;&gt;Node5 -->
<g id="edge4" class="edge">
<title>Node1&#45;&gt;Node5</title>
<path fill="none" stroke="midnightblue" d="M264.27,-58.25C280.21,-49.49 303.83,-36.53 322,-26.55"/>
<polygon fill="midnightblue" stroke="midnightblue" points="323.86,-29.52 330.94,-21.64 320.49,-23.39 323.86,-29.52"/>
</g>
<!-- Node6 -->
<g id="node6" class="node">
<title>Node6</title>
<g id="a_node6"><a xlink:title=" ">
<polygon fill="none" stroke="#bfbfbf" points="422,-0.5 422,-21.5 611,-21.5 611,-0.5 422,-0.5"/>
<text text-anchor="middle" x="516.5" y="-7.9" font-family="Helvetica,sans-Serif" font-size="12.00">device_launch_parameters.h</text>
</a>
</g>
</g>
<!-- Node1&#45;&gt;Node6 -->
<g id="edge5" class="edge">
<title>Node1&#45;&gt;Node6</title>
<path fill="none" stroke="midnightblue" d="M292.61,-58.44C339.11,-48.79 410.94,-33.89 460.64,-23.59"/>
<polygon fill="midnightblue" stroke="midnightblue" points="461.5,-26.98 470.58,-21.52 460.08,-20.13 461.5,-26.98"/>
</g>
</g>
</svg>
