<?xml version="1.0" encoding="UTF-8" standalone="no"?>
<!DOCTYPE svg PUBLIC "-//W3C//DTD SVG 1.1//EN"
 "http://www.w3.org/Graphics/SVG/1.1/DTD/svg11.dtd">
<!-- Generated by graphviz version 2.43.0 (0)
 -->
<!-- Title: Markopy/CudaMarkovAPI/src/cudaDeviceController.h Pages: 1 -->
<svg width="767pt" height="185pt"
 viewBox="0.00 0.00 767.00 185.00" xmlns="http://www.w3.org/2000/svg" xmlns:xlink="http://www.w3.org/1999/xlink">
<g id="graph0" class="graph" transform="scale(1 1) rotate(0) translate(4 181)">
<title>Markopy/CudaMarkovAPI/src/cudaDeviceController.h</title>
<!-- Node1 -->
<g id="node1" class="node">
<title>Node1</title>
<g id="a_node1"><a xlink:title="Simple static class for basic CUDA device controls.">
<polygon fill="#bfbfbf" stroke="black" points="197.5,-142.5 197.5,-176.5 376.5,-176.5 376.5,-142.5 197.5,-142.5"/>
<text text-anchor="start" x="205.5" y="-162.9" font-family="Helvetica,sans-Serif" font-size="12.00">Markopy/CudaMarkovAPI</text>
<text text-anchor="middle" x="287" y="-149.9" font-family="Helvetica,sans-Serif" font-size="12.00">/src/cudaDeviceController.h</text>
</a>
</g>
</g>
<!-- Node2 -->
<g id="node2" class="node">
<title>Node2</title>
<g id="a_node2"><a xlink:href="cuda_device_controller_8cu.html" target="_top" xlink:title="Simple static class for basic CUDA device controls.">
<polygon fill="none" stroke="black" points="0,-71.5 0,-105.5 186,-105.5 186,-71.5 0,-71.5"/>
<text text-anchor="start" x="8" y="-91.9" font-family="Helvetica,sans-Serif" font-size="12.00">Markopy/CudaMarkovAPI</text>
<text text-anchor="middle" x="93" y="-78.9" font-family="Helvetica,sans-Serif" font-size="12.00">/src/cudaDeviceController.cu</text>
</a>
</g>
</g>
<!-- Node1&#45;&gt;Node2 -->
<g id="edge1" class="edge">
<title>Node1&#45;&gt;Node2</title>
<path fill="none" stroke="midnightblue" d="M232.58,-139.15C202.78,-128.55 166.28,-115.57 138.09,-105.54"/>
<polygon fill="midnightblue" stroke="midnightblue" points="231.41,-142.44 242,-142.5 233.76,-135.85 231.41,-142.44"/>
</g>
<!-- Node3 -->
<g id="node3" class="node">
<title>Node3</title>
<g id="a_node3"><a xlink:href="cuda_model_matrix_8h.html" target="_top" xlink:title="CUDA accelerated extension of Markov::API::ModelMatrix.">
<polygon fill="none" stroke="black" points="388.5,-71.5 388.5,-105.5 555.5,-105.5 555.5,-71.5 388.5,-71.5"/>
<text text-anchor="start" x="396.5" y="-91.9" font-family="Helvetica,sans-Serif" font-size="12.00">Markopy/CudaMarkovAPI</text>
<text text-anchor="middle" x="472" y="-78.9" font-family="Helvetica,sans-Serif" font-size="12.00">/src/cudaModelMatrix.h</text>
</a>
</g>
</g>
<!-- Node1&#45;&gt;Node3 -->
<g id="edge2" class="edge">
<title>Node1&#45;&gt;Node3</title>
<path fill="none" stroke="midnightblue" d="M339.63,-138.87C367.92,-128.32 402.35,-115.48 429,-105.54"/>
<polygon fill="midnightblue" stroke="midnightblue" points="338.05,-135.72 329.91,-142.5 340.5,-142.28 338.05,-135.72"/>
</g>
<!-- Node7 -->
<g id="node7" class="node">
<title>Node7</title>
<g id="a_node7"><a xlink:href="cudarandom_8h.html" target="_top" xlink:title="Extension of Markov::Random::Marsaglia for CUDA.">
<polygon fill="none" stroke="black" points="203.5,-71.5 203.5,-105.5 370.5,-105.5 370.5,-71.5 203.5,-71.5"/>
<text text-anchor="start" x="211.5" y="-91.9" font-family="Helvetica,sans-Serif" font-size="12.00">Markopy/CudaMarkovAPI</text>
<text text-anchor="middle" x="287" y="-78.9" font-family="Helvetica,sans-Serif" font-size="12.00">/src/cudarandom.h</text>
</a>
</g>
</g>
<!-- Node1&#45;&gt;Node7 -->
<g id="edge6" class="edge">
<title>Node1&#45;&gt;Node7</title>
<path fill="none" stroke="midnightblue" d="M287,-132.25C287,-123.39 287,-113.77 287,-105.9"/>
<polygon fill="midnightblue" stroke="midnightblue" points="283.5,-132.5 287,-142.5 290.5,-132.5 283.5,-132.5"/>
</g>
<!-- Node4 -->
<g id="node4" class="node">
<title>Node4</title>
<g id="a_node4"><a xlink:href="cuda_model_matrix_8cu.html" target="_top" xlink:title="CUDA accelerated extension of Markov::API::ModelMatrix.">
<polygon fill="none" stroke="black" points="203.5,-0.5 203.5,-34.5 370.5,-34.5 370.5,-0.5 203.5,-0.5"/>
<text text-anchor="start" x="211.5" y="-20.9" font-family="Helvetica,sans-Serif" font-size="12.00">Markopy/CudaMarkovAPI</text>
<text text-anchor="middle" x="287" y="-7.9" font-family="Helvetica,sans-Serif" font-size="12.00">/src/cudaModelMatrix.cu</text>
</a>
</g>
</g>
<!-- Node3&#45;&gt;Node4 -->
<g id="edge3" class="edge">
<title>Node3&#45;&gt;Node4</title>
<path fill="none" stroke="midnightblue" d="M419.37,-67.87C391.08,-57.32 356.65,-44.48 330,-34.54"/>
<polygon fill="midnightblue" stroke="midnightblue" points="418.5,-71.28 429.09,-71.5 420.95,-64.72 418.5,-71.28"/>
</g>
<!-- Node5 -->
<g id="node5" class="node">
<title>Node5</title>
<g id="a_node5"><a xlink:href="main_8cu.html" target="_top" xlink:title="Simple test file to check libcudamarkov.">
<polygon fill="none" stroke="black" points="388.5,-0.5 388.5,-34.5 555.5,-34.5 555.5,-0.5 388.5,-0.5"/>
<text text-anchor="start" x="396.5" y="-20.9" font-family="Helvetica,sans-Serif" font-size="12.00">Markopy/CudaMarkovAPI</text>
<text text-anchor="middle" x="472" y="-7.9" font-family="Helvetica,sans-Serif" font-size="12.00">/src/main.cu</text>
</a>
</g>
</g>
<!-- Node3&#45;&gt;Node5 -->
<g id="edge4" class="edge">
<title>Node3&#45;&gt;Node5</title>
<path fill="none" stroke="midnightblue" d="M472,-61.25C472,-52.39 472,-42.77 472,-34.9"/>
<polygon fill="midnightblue" stroke="midnightblue" points="468.5,-61.5 472,-71.5 475.5,-61.5 468.5,-61.5"/>
</g>
<!-- Node6 -->
<g id="node6" class="node">
<title>Node6</title>
<g id="a_node6"><a xlink:href="cuda_markopy_8cu.html" target="_top" xlink:title=" ">
<polygon fill="none" stroke="black" points="573,-0.5 573,-34.5 759,-34.5 759,-0.5 573,-0.5"/>
<text text-anchor="start" x="581" y="-20.9" font-family="Helvetica,sans-Serif" font-size="12.00">Markopy/CudaMarkopy</text>
<text text-anchor="middle" x="666" y="-7.9" font-family="Helvetica,sans-Serif" font-size="12.00">/src/Module/cudaMarkopy.cu</text>
</a>
</g>
</g>
<!-- Node3&#45;&gt;Node6 -->
<g id="edge5" class="edge">
<title>Node3&#45;&gt;Node6</title>
<path fill="none" stroke="midnightblue" d="M526.42,-68.15C556.22,-57.55 592.72,-44.57 620.91,-34.54"/>
<polygon fill="midnightblue" stroke="midnightblue" points="525.24,-64.85 517,-71.5 527.59,-71.44 525.24,-64.85"/>
</g>
<!-- Node7&#45;&gt;Node4 -->
<g id="edge7" class="edge">
<title>Node7&#45;&gt;Node4</title>
<path fill="none" stroke="midnightblue" d="M287,-61.25C287,-52.39 287,-42.77 287,-34.9"/>
<polygon fill="midnightblue" stroke="midnightblue" points="283.5,-61.5 287,-71.5 290.5,-61.5 283.5,-61.5"/>
</g>
</g>
</svg>
