<?xml version="1.0" encoding="UTF-8" standalone="no"?>
<!DOCTYPE svg PUBLIC "-//W3C//DTD SVG 1.1//EN"
 "http://www.w3.org/Graphics/SVG/1.1/DTD/svg11.dtd">
<!-- Generated by graphviz version 2.43.0 (0)
 -->
<!-- Title: cudarandom.h Pages: 1 -->
<svg width="362pt" height="146pt"
 viewBox="0.00 0.00 361.50 146.00" xmlns="http://www.w3.org/2000/svg" xmlns:xlink="http://www.w3.org/1999/xlink">
<g id="graph0" class="graph" transform="scale(1 1) rotate(0) translate(4 142)">
<title>cudarandom.h</title>
<!-- Node1 -->
<g id="node1" class="node">
<title>Node1</title>
<g id="a_node1"><a xlink:title="Extension of Markov::Random::Marsaglia for CUDA.">
<polygon fill="#bfbfbf" stroke="black" points="131,-116.5 131,-137.5 235,-137.5 235,-116.5 131,-116.5"/>
<text text-anchor="middle" x="183" y="-123.9" font-family="Helvetica,sans-Serif" font-size="12.00">cudarandom.h</text>
</a>
</g>
</g>
<!-- Node2 -->
<g id="node2" class="node">
<title>Node2</title>
<g id="a_node2"><a xlink:href="random_8h.html" target="_top" xlink:title="Random engine implementations for Markov.">
<polygon fill="none" stroke="black" points="0,-58.5 0,-79.5 180,-79.5 180,-58.5 0,-58.5"/>
<text text-anchor="middle" x="90" y="-65.9" font-family="Helvetica,sans-Serif" font-size="12.00">MarkovModel/src/random.h</text>
</a>
</g>
</g>
<!-- Node1&#45;&gt;Node2 -->
<g id="edge1" class="edge">
<title>Node1&#45;&gt;Node2</title>
<path fill="none" stroke="midnightblue" d="M166.8,-116.25C152.4,-107.57 131.13,-94.76 114.62,-84.82"/>
<polygon fill="midnightblue" stroke="midnightblue" points="116.39,-81.8 106.01,-79.64 112.78,-87.8 116.39,-81.8"/>
</g>
<!-- Node5 -->
<g id="node5" class="node">
<title>Node5</title>
<g id="a_node5"><a xlink:href="cuda_device_controller_8h.html" target="_top" xlink:title="Simple static class for basic CUDA device controls.">
<polygon fill="none" stroke="black" points="198.5,-58.5 198.5,-79.5 353.5,-79.5 353.5,-58.5 198.5,-58.5"/>
<text text-anchor="middle" x="276" y="-65.9" font-family="Helvetica,sans-Serif" font-size="12.00">cudaDeviceController.h</text>
</a>
</g>
</g>
<!-- Node1&#45;&gt;Node5 -->
<g id="edge4" class="edge">
<title>Node1&#45;&gt;Node5</title>
<path fill="none" stroke="midnightblue" d="M199.2,-116.25C213.6,-107.57 234.87,-94.76 251.38,-84.82"/>
<polygon fill="midnightblue" stroke="midnightblue" points="253.22,-87.8 259.99,-79.64 249.61,-81.8 253.22,-87.8"/>
</g>
<!-- Node3 -->
<g id="node3" class="node">
<title>Node3</title>
<g id="a_node3"><a xlink:title=" ">
<polygon fill="none" stroke="#bfbfbf" points="58,-0.5 58,-21.5 122,-21.5 122,-0.5 58,-0.5"/>
<text text-anchor="middle" x="90" y="-7.9" font-family="Helvetica,sans-Serif" font-size="12.00">random</text>
</a>
</g>
</g>
<!-- Node2&#45;&gt;Node3 -->
<g id="edge2" class="edge">
<title>Node2&#45;&gt;Node3</title>
<path fill="none" stroke="midnightblue" d="M90,-58.25C90,-50.94 90,-40.69 90,-31.7"/>
<polygon fill="midnightblue" stroke="midnightblue" points="93.5,-31.64 90,-21.64 86.5,-31.64 93.5,-31.64"/>
</g>
<!-- Node4 -->
<g id="node4" class="node">
<title>Node4</title>
<g id="a_node4"><a xlink:title=" ">
<polygon fill="none" stroke="#bfbfbf" points="190.5,-0.5 190.5,-21.5 259.5,-21.5 259.5,-0.5 190.5,-0.5"/>
<text text-anchor="middle" x="225" y="-7.9" font-family="Helvetica,sans-Serif" font-size="12.00">iostream</text>
</a>
</g>
</g>
<!-- Node2&#45;&gt;Node4 -->
<g id="edge3" class="edge">
<title>Node2&#45;&gt;Node4</title>
<path fill="none" stroke="midnightblue" d="M113.21,-58.37C135.17,-49.26 168.33,-35.51 192.84,-25.34"/>
<polygon fill="midnightblue" stroke="midnightblue" points="194.2,-28.57 202.1,-21.5 191.52,-22.1 194.2,-28.57"/>
</g>
<!-- Node5&#45;&gt;Node4 -->
<g id="edge5" class="edge">
<title>Node5&#45;&gt;Node4</title>
<path fill="none" stroke="midnightblue" d="M267.12,-58.25C259.8,-50.22 249.26,-38.64 240.55,-29.08"/>
<polygon fill="midnightblue" stroke="midnightblue" points="243.1,-26.68 233.78,-21.64 237.93,-31.39 243.1,-26.68"/>
</g>
</g>
</svg>
