<?xml version="1.0" encoding="UTF-8" standalone="no"?>
<!DOCTYPE svg PUBLIC "-//W3C//DTD SVG 1.1//EN"
 "http://www.w3.org/Graphics/SVG/1.1/DTD/svg11.dtd">
<!-- Generated by graphviz version 2.43.0 (0)
 -->
<!-- Title: cudarandom.h Pages: 1 -->
<svg width="702pt" height="159pt"
 viewBox="0.00 0.00 701.50 159.00" xmlns="http://www.w3.org/2000/svg" xmlns:xlink="http://www.w3.org/1999/xlink">
<g id="graph0" class="graph" transform="scale(1 1) rotate(0) translate(4 155)">
<title>cudarandom.h</title>
<!-- Node1 -->
<g id="node1" class="node">
<title>Node1</title>
<g id="a_node1"><a xlink:title=" ">
<polygon fill="#bfbfbf" stroke="black" points="164,-129.5 164,-150.5 268,-150.5 268,-129.5 164,-129.5"/>
<text text-anchor="middle" x="216" y="-136.9" font-family="Helvetica,sans-Serif" font-size="12.00">cudarandom.h</text>
</a>
</g>
</g>
<!-- Node2 -->
<g id="node2" class="node">
<title>Node2</title>
<g id="a_node2"><a xlink:href="random_8h.html" target="_top" xlink:title=" ">
<polygon fill="none" stroke="black" points="27,-65 27,-86 207,-86 207,-65 27,-65"/>
<text text-anchor="middle" x="117" y="-72.4" font-family="Helvetica,sans-Serif" font-size="12.00">MarkovModel/src/random.h</text>
</a>
</g>
</g>
<!-- Node1&#45;&gt;Node2 -->
<g id="edge1" class="edge">
<title>Node1&#45;&gt;Node2</title>
<path fill="none" stroke="midnightblue" d="M200.53,-129.23C184.55,-119.14 159.39,-103.26 140.86,-91.56"/>
<polygon fill="midnightblue" stroke="midnightblue" points="142.68,-88.58 132.36,-86.2 138.95,-94.49 142.68,-88.58"/>
</g>
<!-- Node5 -->
<g id="node5" class="node">
<title>Node5</title>
<g id="a_node5"><a xlink:href="cuda_device_controller_8h.html" target="_top" xlink:title=" ">
<polygon fill="none" stroke="black" points="232.5,-58.5 232.5,-92.5 411.5,-92.5 411.5,-58.5 232.5,-58.5"/>
<text text-anchor="start" x="240.5" y="-78.9" font-family="Helvetica,sans-Serif" font-size="12.00">CudaMarkovPasswords</text>
<text text-anchor="middle" x="322" y="-65.9" font-family="Helvetica,sans-Serif" font-size="12.00">/src/cudaDeviceController.h</text>
</a>
</g>
</g>
<!-- Node1&#45;&gt;Node5 -->
<g id="edge4" class="edge">
<title>Node1&#45;&gt;Node5</title>
<path fill="none" stroke="midnightblue" d="M232.56,-129.23C246.87,-120.8 268.05,-108.31 286.21,-97.6"/>
<polygon fill="midnightblue" stroke="midnightblue" points="288,-100.61 294.84,-92.51 284.45,-94.58 288,-100.61"/>
</g>
<!-- Node3 -->
<g id="node3" class="node">
<title>Node3</title>
<g id="a_node3"><a xlink:title=" ">
<polygon fill="none" stroke="#bfbfbf" points="0,-0.5 0,-21.5 64,-21.5 64,-0.5 0,-0.5"/>
<text text-anchor="middle" x="32" y="-7.9" font-family="Helvetica,sans-Serif" font-size="12.00">random</text>
</a>
</g>
</g>
<!-- Node2&#45;&gt;Node3 -->
<g id="edge2" class="edge">
<title>Node2&#45;&gt;Node3</title>
<path fill="none" stroke="midnightblue" d="M103.72,-64.73C90.25,-54.83 69.18,-39.34 53.36,-27.7"/>
<polygon fill="midnightblue" stroke="midnightblue" points="55.32,-24.8 45.19,-21.7 51.17,-30.44 55.32,-24.8"/>
</g>
<!-- Node4 -->
<g id="node4" class="node">
<title>Node4</title>
<g id="a_node4"><a xlink:title=" ">
<polygon fill="none" stroke="#bfbfbf" points="82.5,-0.5 82.5,-21.5 151.5,-21.5 151.5,-0.5 82.5,-0.5"/>
<text text-anchor="middle" x="117" y="-7.9" font-family="Helvetica,sans-Serif" font-size="12.00">iostream</text>
</a>
</g>
</g>
<!-- Node2&#45;&gt;Node4 -->
<g id="edge3" class="edge">
<title>Node2&#45;&gt;Node4</title>
<path fill="none" stroke="midnightblue" d="M117,-64.73C117,-55.98 117,-42.86 117,-31.9"/>
<polygon fill="midnightblue" stroke="midnightblue" points="120.5,-31.9 117,-21.9 113.5,-31.9 120.5,-31.9"/>
</g>
<!-- Node5&#45;&gt;Node4 -->
<g id="edge5" class="edge">
<title>Node5&#45;&gt;Node4</title>
<path fill="none" stroke="midnightblue" d="M269.47,-58.49C234.9,-47.94 190.28,-34.34 158.25,-24.58"/>
<polygon fill="midnightblue" stroke="midnightblue" points="158.91,-21.12 148.33,-21.55 156.87,-27.82 158.91,-21.12"/>
</g>
<!-- Node6 -->
<g id="node6" class="node">
<title>Node6</title>
<g id="a_node6"><a xlink:title=" ">
<polygon fill="none" stroke="#bfbfbf" points="169.5,-0.5 169.5,-21.5 282.5,-21.5 282.5,-0.5 169.5,-0.5"/>
<text text-anchor="middle" x="226" y="-7.9" font-family="Helvetica,sans-Serif" font-size="12.00">curand_kernel.h</text>
</a>
</g>
</g>
<!-- Node5&#45;&gt;Node6 -->
<g id="edge6" class="edge">
<title>Node5&#45;&gt;Node6</title>
<path fill="none" stroke="midnightblue" d="M297.28,-58.4C282.46,-48.76 263.75,-36.57 249.21,-27.11"/>
<polygon fill="midnightblue" stroke="midnightblue" points="251.06,-24.14 240.77,-21.62 247.24,-30.01 251.06,-24.14"/>
</g>
<!-- Node7 -->
<g id="node7" class="node">
<title>Node7</title>
<g id="a_node7"><a xlink:title=" ">
<polygon fill="none" stroke="#bfbfbf" points="300.5,-0.5 300.5,-21.5 357.5,-21.5 357.5,-0.5 300.5,-0.5"/>
<text text-anchor="middle" x="329" y="-7.9" font-family="Helvetica,sans-Serif" font-size="12.00">cuda.h</text>
</a>
</g>
</g>
<!-- Node5&#45;&gt;Node7 -->
<g id="edge7" class="edge">
<title>Node5&#45;&gt;Node7</title>
<path fill="none" stroke="midnightblue" d="M323.8,-58.4C324.7,-50.36 325.8,-40.54 326.76,-32.01"/>
<polygon fill="midnightblue" stroke="midnightblue" points="330.27,-32.13 327.9,-21.8 323.31,-31.35 330.27,-32.13"/>
</g>
<!-- Node8 -->
<g id="node8" class="node">
<title>Node8</title>
<g id="a_node8"><a xlink:title=" ">
<polygon fill="none" stroke="#bfbfbf" points="376,-0.5 376,-21.5 486,-21.5 486,-0.5 376,-0.5"/>
<text text-anchor="middle" x="431" y="-7.9" font-family="Helvetica,sans-Serif" font-size="12.00">cuda_runtime.h</text>
</a>
</g>
</g>
<!-- Node5&#45;&gt;Node8 -->
<g id="edge8" class="edge">
<title>Node5&#45;&gt;Node8</title>
<path fill="none" stroke="midnightblue" d="M350.07,-58.4C367.05,-48.67 388.54,-36.34 405.11,-26.84"/>
<polygon fill="midnightblue" stroke="midnightblue" points="407.29,-29.63 414.23,-21.62 403.81,-23.55 407.29,-29.63"/>
</g>
<!-- Node9 -->
<g id="node9" class="node">
<title>Node9</title>
<g id="a_node9"><a xlink:title=" ">
<polygon fill="none" stroke="#bfbfbf" points="504.5,-0.5 504.5,-21.5 693.5,-21.5 693.5,-0.5 504.5,-0.5"/>
<text text-anchor="middle" x="599" y="-7.9" font-family="Helvetica,sans-Serif" font-size="12.00">device_launch_parameters.h</text>
</a>
</g>
</g>
<!-- Node5&#45;&gt;Node9 -->
<g id="edge9" class="edge">
<title>Node5&#45;&gt;Node9</title>
<path fill="none" stroke="midnightblue" d="M392.97,-58.49C441.01,-47.65 503.39,-33.57 546.87,-23.76"/>
<polygon fill="midnightblue" stroke="midnightblue" points="547.69,-27.17 556.67,-21.55 546.14,-20.34 547.69,-27.17"/>
</g>
</g>
</svg>
