<?xml version="1.0" encoding="UTF-8" standalone="no"?>
<!DOCTYPE svg PUBLIC "-//W3C//DTD SVG 1.1//EN"
 "http://www.w3.org/Graphics/SVG/1.1/DTD/svg11.dtd">
<!-- Generated by graphviz version 2.43.0 (0)
 -->
<!-- Title: CudaMarkovPasswords Pages: 1 -->
<svg width="326pt" height="204pt"
 viewBox="0.00 0.00 326.00 204.00" xmlns="http://www.w3.org/2000/svg" xmlns:xlink="http://www.w3.org/1999/xlink">
<g id="graph0" class="graph" transform="scale(1 1) rotate(0) translate(4 200)">
<title>CudaMarkovPasswords</title>
<g id="clust1" class="cluster">
<title>clusterdir_77551613984e5e9262bc89dc7849b264</title>
<g id="a_clust1"><a xlink:href="dir_77551613984e5e9262bc89dc7849b264.html" target="_top">
<polygon fill="#eeeeff" stroke="black" points="70,-136 70,-188 310,-188 310,-136 70,-136"/>
</a>
</g>
</g>
<!-- dir_77551613984e5e9262bc89dc7849b264 -->
<g id="node1" class="node">
<title>dir_77551613984e5e9262bc89dc7849b264</title>
<text text-anchor="middle" x="226" y="-158.9" font-family="Helvetica,sans-Serif" font-size="12.00">CudaMarkovPasswords</text>
</g>
<!-- dir_91ab82616348c982504c48836fe41c8f -->
<g id="node2" class="node">
<title>dir_91ab82616348c982504c48836fe41c8f</title>
<g id="a_node2"><a xlink:href="dir_91ab82616348c982504c48836fe41c8f.html" target="_top" xlink:title="src">
<polygon fill="white" stroke="black" points="132,-180 78,-180 78,-144 132,-144 132,-180"/>
<text text-anchor="middle" x="105" y="-158.9" font-family="Helvetica,sans-Serif" font-size="12.00">src</text>
</a>
</g>
</g>
<!-- dir_ec5921169a5502ffcf28e99f92fe96ad -->
<g id="node3" class="node">
<title>dir_ec5921169a5502ffcf28e99f92fe96ad</title>
<g id="a_node3"><a xlink:href="dir_ec5921169a5502ffcf28e99f92fe96ad.html" target="_top" xlink:title="MarkovPasswords">
<polygon fill="none" stroke="red" points="122,-108 0,-108 0,-72 122,-72 122,-108"/>
<text text-anchor="middle" x="61" y="-86.9" font-family="Helvetica,sans-Serif" font-size="12.00">MarkovPasswords</text>
</a>
</g>
</g>
<!-- dir_91ab82616348c982504c48836fe41c8f&#45;&gt;dir_ec5921169a5502ffcf28e99f92fe96ad -->
<g id="edge2" class="edge">
<title>dir_91ab82616348c982504c48836fe41c8f&#45;&gt;dir_ec5921169a5502ffcf28e99f92fe96ad</title>
<path fill="none" stroke="black" d="M94.12,-143.7C89.01,-135.56 82.8,-125.69 77.16,-116.7"/>
<polygon fill="black" stroke="black" points="80.04,-114.71 71.75,-108.1 74.11,-118.43 80.04,-114.71"/>
<g id="a_edge2&#45;headlabel"><a xlink:href="dir_000005_000002.html" target="_top" xlink:title="1">
<text text-anchor="middle" x="84.35" y="-113.14" font-family="Helvetica,sans-Serif" font-size="12.00">1</text>
</a>
</g>
</g>
<!-- dir_422554bd57fa81f0dd836caa3830c5ac -->
<g id="node4" class="node">
<title>dir_422554bd57fa81f0dd836caa3830c5ac</title>
<g id="a_node4"><a xlink:href="dir_422554bd57fa81f0dd836caa3830c5ac.html" target="_top" xlink:title="MarkovModel">
<polygon fill="none" stroke="red" points="153.5,-36 56.5,-36 56.5,0 153.5,0 153.5,-36"/>
<text text-anchor="middle" x="105" y="-14.9" font-family="Helvetica,sans-Serif" font-size="12.00">MarkovModel</text>
</a>
</g>
</g>
<!-- dir_91ab82616348c982504c48836fe41c8f&#45;&gt;dir_422554bd57fa81f0dd836caa3830c5ac -->
<g id="edge3" class="edge">
<title>dir_91ab82616348c982504c48836fe41c8f&#45;&gt;dir_422554bd57fa81f0dd836caa3830c5ac</title>
<path fill="none" stroke="black" d="M116.05,-143.61C121.74,-133.62 128.08,-120.58 131,-108 134.62,-92.41 134.62,-87.59 131,-72 128.9,-62.96 125.03,-53.68 120.91,-45.47"/>
<polygon fill="black" stroke="black" points="123.86,-43.55 116.05,-36.39 117.69,-46.86 123.86,-43.55"/>
<g id="a_edge3&#45;headlabel"><a xlink:href="dir_000005_000006.html" target="_top" xlink:title="1">
<text text-anchor="middle" x="128.06" y="-42.28" font-family="Helvetica,sans-Serif" font-size="12.00">1</text>
</a>
</g>
</g>
<!-- dir_ec5921169a5502ffcf28e99f92fe96ad&#45;&gt;dir_422554bd57fa81f0dd836caa3830c5ac -->
<g id="edge1" class="edge">
<title>dir_ec5921169a5502ffcf28e99f92fe96ad&#45;&gt;dir_422554bd57fa81f0dd836caa3830c5ac</title>
<path fill="none" stroke="black" d="M71.88,-71.7C76.99,-63.56 83.2,-53.69 88.84,-44.7"/>
<polygon fill="black" stroke="black" points="91.89,-46.43 94.25,-36.1 85.96,-42.71 91.89,-46.43"/>
<g id="a_edge1&#45;headlabel"><a xlink:href="dir_000002_000006.html" target="_top" xlink:title="1">
<text text-anchor="middle" x="92.38" y="-47.89" font-family="Helvetica,sans-Serif" font-size="12.00">1</text>
</a>
</g>
</g>
</g>
</svg>
