<?xml version="1.0" encoding="UTF-8" standalone="no"?>
<!DOCTYPE svg PUBLIC "-//W3C//DTD SVG 1.1//EN"
 "http://www.w3.org/Graphics/SVG/1.1/DTD/svg11.dtd">
<!-- Generated by graphviz version 2.43.0 (0)
 -->
<!-- Title: src Pages: 1 -->
<svg width="146pt" height="225pt"
 viewBox="0.00 0.00 146.00 225.00" xmlns="http://www.w3.org/2000/svg" xmlns:xlink="http://www.w3.org/1999/xlink">
<g id="graph0" class="graph" transform="scale(1 1) rotate(0) translate(4 221)">
<title>src</title>
<g id="clust1" class="cluster">
<title>clusterdir_37b596240cb7a08034389244e21fc480</title>
<g id="a_clust1"><a xlink:href="dir_37b596240cb7a08034389244e21fc480.html" target="_top" xlink:title="CudaMarkovAPI">
<polygon fill="#ddddee" stroke="black" points="19,-136 19,-209 130,-209 130,-136 19,-136"/>
<text text-anchor="middle" x="74.5" y="-195.4" font-family="Helvetica,sans-Serif" font-size="12.00">CudaMarkovAPI</text>
</a>
</g>
</g>
<!-- dir_c0128b5189acf48dc732f9fce5a2902b -->
<g id="node1" class="node">
<title>dir_c0128b5189acf48dc732f9fce5a2902b</title>
<g id="a_node1"><a xlink:href="dir_c0128b5189acf48dc732f9fce5a2902b.html" target="_top" xlink:title="src">
<polygon fill="#eeeeff" stroke="black" points="101,-180 47,-180 47,-144 101,-144 101,-180"/>
<text text-anchor="middle" x="74" y="-158.9" font-family="Helvetica,sans-Serif" font-size="12.00">src</text>
</a>
</g>
</g>
<!-- dir_db176601ee30a8ebeb1d43e41365a810 -->
<g id="node2" class="node">
<title>dir_db176601ee30a8ebeb1d43e41365a810</title>
<g id="a_node2"><a xlink:href="dir_db176601ee30a8ebeb1d43e41365a810.html" target="_top" xlink:title="MarkovAPI">
<polygon fill="none" stroke="red" points="80,-108 0,-108 0,-72 80,-72 80,-108"/>
<text text-anchor="middle" x="40" y="-86.9" font-family="Helvetica,sans-Serif" font-size="12.00">MarkovAPI</text>
</a>
</g>
</g>
<!-- dir_c0128b5189acf48dc732f9fce5a2902b&#45;&gt;dir_db176601ee30a8ebeb1d43e41365a810 -->
<g id="edge1" class="edge">
<title>dir_c0128b5189acf48dc732f9fce5a2902b&#45;&gt;dir_db176601ee30a8ebeb1d43e41365a810</title>
<path fill="none" stroke="black" d="M65.6,-143.7C61.73,-135.73 57.05,-126.1 52.76,-117.26"/>
<polygon fill="black" stroke="black" points="55.83,-115.57 48.31,-108.1 49.53,-118.63 55.83,-115.57"/>
<g id="a_edge1&#45;headlabel"><a xlink:href="dir_000005_000012.html" target="_top" xlink:title="1">
<text text-anchor="middle" x="59.95" y="-114.46" font-family="Helvetica,sans-Serif" font-size="12.00">1</text>
</a>
</g>
</g>
<!-- dir_422554bd57fa81f0dd836caa3830c5ac -->
<g id="node3" class="node">
<title>dir_422554bd57fa81f0dd836caa3830c5ac</title>
<g id="a_node3"><a xlink:href="dir_422554bd57fa81f0dd836caa3830c5ac.html" target="_top" xlink:title="MarkovModel">
<polygon fill="none" stroke="red" points="122.5,-36 25.5,-36 25.5,0 122.5,0 122.5,-36"/>
<text text-anchor="middle" x="74" y="-14.9" font-family="Helvetica,sans-Serif" font-size="12.00">MarkovModel</text>
</a>
</g>
</g>
<!-- dir_c0128b5189acf48dc732f9fce5a2902b&#45;&gt;dir_422554bd57fa81f0dd836caa3830c5ac -->
<g id="edge2" class="edge">
<title>dir_c0128b5189acf48dc732f9fce5a2902b&#45;&gt;dir_422554bd57fa81f0dd836caa3830c5ac</title>
<path fill="none" stroke="black" d="M80.24,-143.59C83.57,-133.37 87.32,-120.12 89,-108 91.2,-92.15 91.2,-87.85 89,-72 87.82,-63.48 85.61,-54.39 83.25,-46.2"/>
<polygon fill="black" stroke="black" points="86.52,-44.94 80.24,-36.41 79.83,-46.99 86.52,-44.94"/>
<g id="a_edge2&#45;headlabel"><a xlink:href="dir_000005_000006.html" target="_top" xlink:title="1">
<text text-anchor="middle" x="90.29" y="-44.44" font-family="Helvetica,sans-Serif" font-size="12.00">1</text>
</a>
</g>
</g>
<!-- dir_db176601ee30a8ebeb1d43e41365a810&#45;&gt;dir_422554bd57fa81f0dd836caa3830c5ac -->
<g id="edge3" class="edge">
<title>dir_db176601ee30a8ebeb1d43e41365a810&#45;&gt;dir_422554bd57fa81f0dd836caa3830c5ac</title>
<path fill="none" stroke="black" d="M48.4,-71.7C52.27,-63.73 56.95,-54.1 61.24,-45.26"/>
<polygon fill="black" stroke="black" points="64.47,-46.63 65.69,-36.1 58.17,-43.57 64.47,-46.63"/>
<g id="a_edge3&#45;headlabel"><a xlink:href="dir_000012_000006.html" target="_top" xlink:title="1">
<text text-anchor="middle" x="65.45" y="-48" font-family="Helvetica,sans-Serif" font-size="12.00">1</text>
</a>
</g>
</g>
</g>
</svg>
