<?xml version="1.0" encoding="UTF-8" standalone="no"?>
<!DOCTYPE svg PUBLIC "-//W3C//DTD SVG 1.1//EN"
 "http://www.w3.org/Graphics/SVG/1.1/DTD/svg11.dtd">
<!-- Generated by graphviz version 2.43.0 (0)
 -->
<!-- Title: src Pages: 1 -->
<svg width="281pt" height="185pt"
 viewBox="0.00 0.00 280.50 185.00" xmlns="http://www.w3.org/2000/svg" xmlns:xlink="http://www.w3.org/1999/xlink">
<g id="graph0" class="graph" transform="scale(1 1) rotate(0) translate(4 181)">
<title>src</title>
<g id="clust1" class="cluster">
<title>clusterdir_ec5921169a5502ffcf28e99f92fe96ad</title>
<g id="a_clust1"><a xlink:href="dir_ec5921169a5502ffcf28e99f92fe96ad.html" target="_top" xlink:title="MarkovPasswords">
<polygon fill="#ddddee" stroke="black" points="8,-8 8,-169 168,-169 168,-8 8,-8"/>
<text text-anchor="middle" x="88" y="-155.4" font-family="Helvetica,sans-Serif" font-size="12.00">MarkovPasswords</text>
</a>
</g>
</g>
<g id="clust2" class="cluster">
<title>clusterdir_c3ec24e40a562d369f4e85bad207146c</title>
<g id="a_clust2"><a xlink:href="dir_c3ec24e40a562d369f4e85bad207146c.html" target="_top">
<polygon fill="#eeeeff" stroke="black" points="16,-16 16,-140 160,-140 160,-16 16,-16"/>
</a>
</g>
</g>
<!-- dir_c3ec24e40a562d369f4e85bad207146c -->
<g id="node1" class="node">
<title>dir_c3ec24e40a562d369f4e85bad207146c</title>
<text text-anchor="middle" x="125" y="-110.9" font-family="Helvetica,sans-Serif" font-size="12.00">src</text>
</g>
<!-- dir_034e68eeb27abc730e634ca0989f65b2 -->
<g id="node2" class="node">
<title>dir_034e68eeb27abc730e634ca0989f65b2</title>
<g id="a_node2"><a xlink:href="dir_034e68eeb27abc730e634ca0989f65b2.html" target="_top" xlink:title="color">
<polygon fill="white" stroke="black" points="152,-60 98,-60 98,-24 152,-24 152,-60"/>
<text text-anchor="middle" x="125" y="-38.9" font-family="Helvetica,sans-Serif" font-size="12.00">color</text>
</a>
</g>
</g>
<!-- dir_c3ec24e40a562d369f4e85bad207146c&#45;&gt;dir_034e68eeb27abc730e634ca0989f65b2 -->
<g id="edge1" class="edge">
<title>dir_c3ec24e40a562d369f4e85bad207146c&#45;&gt;dir_034e68eeb27abc730e634ca0989f65b2</title>
<path fill="none" stroke="black" d="M125,-95.7C125,-87.98 125,-78.71 125,-70.11"/>
<polygon fill="black" stroke="black" points="128.5,-70.1 125,-60.1 121.5,-70.1 128.5,-70.1"/>
<g id="a_edge1&#45;headlabel"><a xlink:href="dir_000003_000012.html" target="_top" xlink:title="2">
<text text-anchor="middle" x="131.34" y="-70.6" font-family="Helvetica,sans-Serif" font-size="12.00">2</text>
</a>
</g>
</g>
<!-- dir_422554bd57fa81f0dd836caa3830c5ac -->
<g id="node4" class="node">
<title>dir_422554bd57fa81f0dd836caa3830c5ac</title>
<g id="a_node4"><a xlink:href="dir_422554bd57fa81f0dd836caa3830c5ac.html" target="_top" xlink:title="MarkovModel">
<polygon fill="none" stroke="red" points="272.5,-60 175.5,-60 175.5,-24 272.5,-24 272.5,-60"/>
<text text-anchor="middle" x="224" y="-38.9" font-family="Helvetica,sans-Serif" font-size="12.00">MarkovModel</text>
</a>
</g>
</g>
<!-- dir_c3ec24e40a562d369f4e85bad207146c&#45;&gt;dir_422554bd57fa81f0dd836caa3830c5ac -->
<g id="edge2" class="edge">
<title>dir_c3ec24e40a562d369f4e85bad207146c&#45;&gt;dir_422554bd57fa81f0dd836caa3830c5ac</title>
<path fill="none" stroke="black" d="M149.22,-95.88C161.92,-86.89 177.66,-75.76 191.42,-66.03"/>
<polygon fill="black" stroke="black" points="193.54,-68.82 199.69,-60.19 189.5,-63.11 193.54,-68.82"/>
<g id="a_edge2&#45;headlabel"><a xlink:href="dir_000003_000004.html" target="_top" xlink:title="1">
<text text-anchor="middle" x="192.25" y="-70.11" font-family="Helvetica,sans-Serif" font-size="12.00">1</text>
</a>
</g>
</g>
<!-- dir_44fea74ced15e190e04e124dd67d6806 -->
<g id="node3" class="node">
<title>dir_44fea74ced15e190e04e124dd67d6806</title>
<g id="a_node3"><a xlink:href="dir_44fea74ced15e190e04e124dd67d6806.html" target="_top" xlink:title="scripts">
<polygon fill="white" stroke="black" points="80,-132 24,-132 24,-96 80,-96 80,-132"/>
<text text-anchor="middle" x="52" y="-110.9" font-family="Helvetica,sans-Serif" font-size="12.00">scripts</text>
</a>
</g>
</g>
</g>
</svg>
