<?xml version="1.0" encoding="UTF-8" standalone="no"?>
<!DOCTYPE svg PUBLIC "-//W3C//DTD SVG 1.1//EN"
 "http://www.w3.org/Graphics/SVG/1.1/DTD/svg11.dtd">
<!-- Generated by graphviz version 2.43.0 (0)
 -->
<!-- Title: Module Pages: 1 -->
<svg width="130pt" height="153pt"
 viewBox="0.00 0.00 130.00 153.00" xmlns="http://www.w3.org/2000/svg" xmlns:xlink="http://www.w3.org/1999/xlink">
<g id="graph0" class="graph" transform="scale(1 1) rotate(0) translate(4 149)">
<title>Module</title>
<g id="clust1" class="cluster">
<title>clusterdir_93cd05e1e65f1a98a2104277b36e7795</title>
<g id="a_clust1"><a xlink:href="dir_93cd05e1e65f1a98a2104277b36e7795.html" target="_top" xlink:title="src">
<polygon fill="#ddddee" stroke="black" points="23,-64 23,-137 99,-137 99,-64 23,-64"/>
<text text-anchor="middle" x="61" y="-123.4" font-family="Helvetica,sans-Serif" font-size="12.00">src</text>
</a>
</g>
</g>
<!-- dir_bab8f64279de8bdf1719608edf845bc3 -->
<g id="node1" class="node">
<title>dir_bab8f64279de8bdf1719608edf845bc3</title>
<g id="a_node1"><a xlink:href="dir_bab8f64279de8bdf1719608edf845bc3.html" target="_top" xlink:title="Module">
<polygon fill="#eeeeff" stroke="black" points="91,-108 31,-108 31,-72 91,-72 91,-108"/>
<text text-anchor="middle" x="61" y="-86.9" font-family="Helvetica,sans-Serif" font-size="12.00">Module</text>
</a>
</g>
</g>
<!-- dir_ec5921169a5502ffcf28e99f92fe96ad -->
<g id="node2" class="node">
<title>dir_ec5921169a5502ffcf28e99f92fe96ad</title>
<g id="a_node2"><a xlink:href="dir_ec5921169a5502ffcf28e99f92fe96ad.html" target="_top" xlink:title="MarkovPasswords">
<polygon fill="none" stroke="red" points="122,-36 0,-36 0,0 122,0 122,-36"/>
<text text-anchor="middle" x="61" y="-14.9" font-family="Helvetica,sans-Serif" font-size="12.00">MarkovPasswords</text>
</a>
</g>
</g>
<!-- dir_bab8f64279de8bdf1719608edf845bc3&#45;&gt;dir_ec5921169a5502ffcf28e99f92fe96ad -->
<g id="edge1" class="edge">
<title>dir_bab8f64279de8bdf1719608edf845bc3&#45;&gt;dir_ec5921169a5502ffcf28e99f92fe96ad</title>
<path fill="none" stroke="black" d="M61,-71.7C61,-63.98 61,-54.71 61,-46.11"/>
<polygon fill="black" stroke="black" points="64.5,-46.1 61,-36.1 57.5,-46.1 64.5,-46.1"/>
<g id="a_edge1&#45;headlabel"><a xlink:href="dir_000010_000002.html" target="_top" xlink:title="1">
<text text-anchor="middle" x="67.34" y="-46.6" font-family="Helvetica,sans-Serif" font-size="12.00">1</text>
</a>
</g>
</g>
</g>
</svg>
