<?xml version="1.0" encoding="UTF-8" standalone="no"?>
<!DOCTYPE svg PUBLIC "-//W3C//DTD SVG 1.1//EN"
 "http://www.w3.org/Graphics/SVG/1.1/DTD/svg11.dtd">
<!-- Generated by graphviz version 2.43.0 (0)
 -->
<!-- Title: Markopy Pages: 1 -->
<!--zoomable 292 -->
<svg id="main" version="1.1" xmlns="http://www.w3.org/2000/svg" xmlns:xlink="http://www.w3.org/1999/xlink" xml:space="preserve" onload="init(evt)">
<style type="text/css"><![CDATA[
.edge:hover path { stroke: red; }
.edge:hover polygon { stroke: red; fill: red; }
]]></style>
<script type="text/javascript"><![CDATA[
var edges = document.getElementsByTagName('g');
if (edges && edges.length) {
  for (var i=0;i<edges.length;i++) {
    if (edges[i].id.substr(0,4)=='edge') {
      edges[i].setAttribute('class','edge');
    }
  }
}
]]></script>
        <defs>
                <circle id="rim" cx="0" cy="0" r="7"/>
                <circle id="rim2" cx="0" cy="0" r="3.5"/>
                <g id="zoomPlus">
                        <use xlink:href="#rim" fill="#404040">
                                <set attributeName="fill" to="#808080" begin="zoomplus.mouseover" end="zoomplus.mouseout"/>
                        </use>
                        <path d="M-4,0h8M0,-4v8" fill="none" stroke="white" stroke-width="1.5" pointer-events="none"/>
                </g>
                <g id="zoomMin">
                        <use xlink:href="#rim" fill="#404040">
                                <set attributeName="fill" to="#808080" begin="zoomminus.mouseover" end="zoomminus.mouseout"/>
                        </use>
                        <path d="M-4,0h8" fill="none" stroke="white" stroke-width="1.5" pointer-events="none"/>
                </g>
                <g id="dirArrow">
                        <path fill="none" stroke="white" stroke-width="1.5" d="M0,-3.0v7 M-2.5,-0.5L0,-3.0L2.5,-0.5"/>
                </g>
               <g id="resetDef">
                       <use xlink:href="#rim2" fill="#404040">
                               <set attributeName="fill" to="#808080" begin="reset.mouseover" end="reset.mouseout"/>
                       </use>
               </g>
        </defs>

<script type="text/javascript">
var viewWidth = 516;
var viewHeight = 292;
var sectionId = 'dynsection-0';
</script>
<script xlink:href="svgpan.js"/>
<svg id="graph" class="graph">
<g id="viewport">
<title>Markopy</title>
<g id="clust1" class="cluster">
<title>clusterdir_49eade59e01b0fbf4300858ffc47ca49</title>
<g id="a_clust1"><a xlink:href="dir_49eade59e01b0fbf4300858ffc47ca49.html" target="_top">
<polygon fill="#eeeeff" stroke="black" points="8,-8 8,-276 500,-276 500,-8 8,-8"/>
</a>
</g>
</g>
<!-- dir_49eade59e01b0fbf4300858ffc47ca49 -->
<g id="node1" class="node">
<title>dir_49eade59e01b0fbf4300858ffc47ca49</title>
<text text-anchor="middle" x="458" y="-246.9" font-family="Helvetica,sans-Serif" font-size="12.00">Markopy</text>
</g>
<!-- dir_4c412d15f0b08682da02accda2aba6da -->
<g id="node2" class="node">
<title>dir_4c412d15f0b08682da02accda2aba6da</title>
<g id="a_node2"><a xlink:href="dir_4c412d15f0b08682da02accda2aba6da.html" target="_top" xlink:title="CudaMarkopy">
<polygon fill="white" stroke="red" points="405.5,-268 306.5,-268 306.5,-232 405.5,-232 405.5,-268"/>
<text text-anchor="middle" x="356" y="-246.9" font-family="Helvetica,sans-Serif" font-size="12.00">CudaMarkopy</text>
</a>
</g>
</g>
<!-- dir_dc755eaaa9ae56519b57e698c7277508 -->
<g id="node3" class="node">
<title>dir_dc755eaaa9ae56519b57e698c7277508</title>
<g id="a_node3"><a xlink:href="dir_dc755eaaa9ae56519b57e698c7277508.html" target="_top" xlink:title="CudaMarkovAPI">
<polygon fill="white" stroke="red" points="492.5,-196 381.5,-196 381.5,-160 492.5,-160 492.5,-196"/>
<text text-anchor="middle" x="437" y="-174.9" font-family="Helvetica,sans-Serif" font-size="12.00">CudaMarkovAPI</text>
</a>
</g>
</g>
<!-- dir_4c412d15f0b08682da02accda2aba6da&#45;&gt;dir_dc755eaaa9ae56519b57e698c7277508 -->
<g id="edge1" class="edge">
<title>dir_4c412d15f0b08682da02accda2aba6da&#45;&gt;dir_dc755eaaa9ae56519b57e698c7277508</title>
<path fill="none" stroke="black" d="M376.02,-231.7C386.13,-222.97 398.54,-212.24 409.52,-202.75"/>
<polygon fill="black" stroke="black" points="411.93,-205.29 417.21,-196.1 407.35,-199.99 411.93,-205.29"/>
<g id="a_edge1&#45;headlabel"><a xlink:href="dir_000001_000005.html" target="_top" xlink:title="1">
<text text-anchor="middle" x="411.07" y="-206.69" font-family="Helvetica,sans-Serif" font-size="12.00">1</text>
</a>
</g>
</g>
<!-- dir_c780c265e379e92150b7b40e51a2b55a -->
<g id="node6" class="node">
<title>dir_c780c265e379e92150b7b40e51a2b55a</title>
<g id="a_node6"><a xlink:href="dir_c780c265e379e92150b7b40e51a2b55a.html" target="_top" xlink:title="MarkovAPI">
<polygon fill="white" stroke="red" points="369,-124 289,-124 289,-88 369,-88 369,-124"/>
<text text-anchor="middle" x="329" y="-102.9" font-family="Helvetica,sans-Serif" font-size="12.00">MarkovAPI</text>
</a>
</g>
</g>
<!-- dir_dc755eaaa9ae56519b57e698c7277508&#45;&gt;dir_c780c265e379e92150b7b40e51a2b55a -->
<g id="edge4" class="edge">
<title>dir_dc755eaaa9ae56519b57e698c7277508&#45;&gt;dir_c780c265e379e92150b7b40e51a2b55a</title>
<path fill="none" stroke="black" d="M410.58,-159.88C396.59,-150.81 379.22,-139.55 364.11,-129.76"/>
<polygon fill="black" stroke="black" points="365.82,-126.69 355.52,-124.19 362.01,-132.57 365.82,-126.69"/>
<g id="a_edge4&#45;headlabel"><a xlink:href="dir_000005_000012.html" target="_top" xlink:title="1">
<text text-anchor="middle" x="370.38" y="-123.16" font-family="Helvetica,sans-Serif" font-size="12.00">1</text>
</a>
</g>
</g>
<!-- dir_70b307d082579af01659443b72a9e28d -->
<g id="node8" class="node">
<title>dir_70b307d082579af01659443b72a9e28d</title>
<g id="a_node8"><a xlink:href="dir_70b307d082579af01659443b72a9e28d.html" target="_top" xlink:title="MarkovModel">
<polygon fill="white" stroke="red" points="377.5,-52 280.5,-52 280.5,-16 377.5,-16 377.5,-52"/>
<text text-anchor="middle" x="329" y="-30.9" font-family="Helvetica,sans-Serif" font-size="12.00">MarkovModel</text>
</a>
</g>
</g>
<!-- dir_dc755eaaa9ae56519b57e698c7277508&#45;&gt;dir_70b307d082579af01659443b72a9e28d -->
<g id="edge3" class="edge">
<title>dir_dc755eaaa9ae56519b57e698c7277508&#45;&gt;dir_70b307d082579af01659443b72a9e28d</title>
<path fill="none" stroke="black" d="M426.69,-159.71C415.48,-141.35 396.66,-111.76 378,-88 370.34,-78.24 361.27,-68.11 353.04,-59.34"/>
<polygon fill="black" stroke="black" points="355.5,-56.86 346.07,-52.04 350.44,-61.69 355.5,-56.86"/>
<g id="a_edge3&#45;headlabel"><a xlink:href="dir_000005_000020.html" target="_top" xlink:title="1">
<text text-anchor="middle" x="360.04" y="-54.4" font-family="Helvetica,sans-Serif" font-size="12.00">1</text>
</a>
</g>
</g>
<!-- dir_a8e9711984ef5e687ed9ca2383f51a94 -->
<g id="node4" class="node">
<title>dir_a8e9711984ef5e687ed9ca2383f51a94</title>
<g id="a_node4"><a xlink:href="dir_a8e9711984ef5e687ed9ca2383f51a94.html" target="_top" xlink:title="documentation">
<polygon fill="white" stroke="black" points="267.5,-268 160.5,-268 160.5,-232 267.5,-232 267.5,-268"/>
<text text-anchor="middle" x="214" y="-246.9" font-family="Helvetica,sans-Serif" font-size="12.00">documentation</text>
</a>
</g>
</g>
<!-- dir_53482c46b1a25e347a10f49eaa54b7b6 -->
<g id="node5" class="node">
<title>dir_53482c46b1a25e347a10f49eaa54b7b6</title>
<g id="a_node5"><a xlink:href="dir_53482c46b1a25e347a10f49eaa54b7b6.html" target="_top" xlink:title="Markopy">
<polygon fill="white" stroke="red" points="363,-196 295,-196 295,-160 363,-160 363,-196"/>
<text text-anchor="middle" x="329" y="-174.9" font-family="Helvetica,sans-Serif" font-size="12.00">Markopy</text>
</a>
</g>
</g>
<!-- dir_53482c46b1a25e347a10f49eaa54b7b6&#45;&gt;dir_c780c265e379e92150b7b40e51a2b55a -->
<g id="edge6" class="edge">
<title>dir_53482c46b1a25e347a10f49eaa54b7b6&#45;&gt;dir_c780c265e379e92150b7b40e51a2b55a</title>
<path fill="none" stroke="black" d="M329,-159.7C329,-151.98 329,-142.71 329,-134.11"/>
<polygon fill="black" stroke="black" points="332.5,-134.1 329,-124.1 325.5,-134.1 332.5,-134.1"/>
<g id="a_edge6&#45;headlabel"><a xlink:href="dir_000008_000012.html" target="_top" xlink:title="1">
<text text-anchor="middle" x="335.34" y="-134.6" font-family="Helvetica,sans-Serif" font-size="12.00">1</text>
</a>
</g>
</g>
<!-- dir_c780c265e379e92150b7b40e51a2b55a&#45;&gt;dir_70b307d082579af01659443b72a9e28d -->
<g id="edge7" class="edge">
<title>dir_c780c265e379e92150b7b40e51a2b55a&#45;&gt;dir_70b307d082579af01659443b72a9e28d</title>
<path fill="none" stroke="black" d="M329,-87.7C329,-79.98 329,-70.71 329,-62.11"/>
<polygon fill="black" stroke="black" points="332.5,-62.1 329,-52.1 325.5,-62.1 332.5,-62.1"/>
<g id="a_edge7&#45;headlabel"><a xlink:href="dir_000012_000020.html" target="_top" xlink:title="1">
<text text-anchor="middle" x="335.34" y="-62.6" font-family="Helvetica,sans-Serif" font-size="12.00">1</text>
</a>
</g>
</g>
<!-- dir_8d0feb423148011ff234ae3fc44e6c8b -->
<g id="node7" class="node">
<title>dir_8d0feb423148011ff234ae3fc44e6c8b</title>
<g id="a_node7"><a xlink:href="dir_8d0feb423148011ff234ae3fc44e6c8b.html" target="_top" xlink:title="MarkovAPICLI">
<polygon fill="white" stroke="red" points="276.5,-196 177.5,-196 177.5,-160 276.5,-160 276.5,-196"/>
<text text-anchor="middle" x="227" y="-174.9" font-family="Helvetica,sans-Serif" font-size="12.00">MarkovAPICLI</text>
</a>
</g>
</g>
<!-- dir_8d0feb423148011ff234ae3fc44e6c8b&#45;&gt;dir_c780c265e379e92150b7b40e51a2b55a -->
<g id="edge5" class="edge">
<title>dir_8d0feb423148011ff234ae3fc44e6c8b&#45;&gt;dir_c780c265e379e92150b7b40e51a2b55a</title>
<path fill="none" stroke="black" d="M251.95,-159.88C265.04,-150.89 281.26,-139.76 295.44,-130.03"/>
<polygon fill="black" stroke="black" points="297.69,-132.73 303.95,-124.19 293.73,-126.96 297.69,-132.73"/>
<g id="a_edge5&#45;headlabel"><a xlink:href="dir_000014_000012.html" target="_top" xlink:title="2">
<text text-anchor="middle" x="296.33" y="-134.01" font-family="Helvetica,sans-Serif" font-size="12.00">2</text>
</a>
</g>
</g>
<!-- dir_7b193be5b2a2151367333c3be2e80e6a -->
<g id="node9" class="node">
<title>dir_7b193be5b2a2151367333c3be2e80e6a</title>
<g id="a_node9"><a xlink:href="dir_7b193be5b2a2151367333c3be2e80e6a.html" target="_top" xlink:title="MarkovPasswordsGUI">
<polygon fill="white" stroke="red" points="159.5,-196 16.5,-196 16.5,-160 159.5,-160 159.5,-196"/>
<text text-anchor="middle" x="88" y="-174.9" font-family="Helvetica,sans-Serif" font-size="12.00">MarkovPasswordsGUI</text>
</a>
</g>
</g>
<!-- dir_7b193be5b2a2151367333c3be2e80e6a&#45;&gt;dir_c780c265e379e92150b7b40e51a2b55a -->
<g id="edge8" class="edge">
<title>dir_7b193be5b2a2151367333c3be2e80e6a&#45;&gt;dir_c780c265e379e92150b7b40e51a2b55a</title>
<path fill="none" stroke="black" d="M154.06,-159.89C188.84,-150.62 232.36,-138.61 279.23,-124.15"/>
<polygon fill="black" stroke="black" points="280.45,-127.44 288.96,-121.13 278.37,-120.75 280.45,-127.44"/>
<g id="a_edge8&#45;headlabel"><a xlink:href="dir_000017_000012.html" target="_top" xlink:title="2">
<text text-anchor="middle" x="277.86" y="-128.12" font-family="Helvetica,sans-Serif" font-size="12.00">2</text>
</a>
</g>
</g>
<!-- dir_7760145ee2dd86e6353a5aa3f386e63e -->
<g id="node10" class="node">
<title>dir_7760145ee2dd86e6353a5aa3f386e63e</title>
<g id="a_node10"><a xlink:href="dir_7760145ee2dd86e6353a5aa3f386e63e.html" target="_top" xlink:title="NVSight">
<polygon fill="white" stroke="black" points="101,-268 37,-268 37,-232 101,-232 101,-268"/>
<text text-anchor="middle" x="69" y="-246.9" font-family="Helvetica,sans-Serif" font-size="12.00">NVSight</text>
</a>
</g>
</g>
<!-- dir_636c7bdea3321462f25ba5dc55bf7d5c -->
<g id="node11" class="node">
<title>dir_636c7bdea3321462f25ba5dc55bf7d5c</title>
<g id="a_node11"><a xlink:href="dir_636c7bdea3321462f25ba5dc55bf7d5c.html" target="_top" xlink:title="UnitTests">
<polygon fill="white" stroke="black" points="270.5,-124 201.5,-124 201.5,-88 270.5,-88 270.5,-124"/>
<text text-anchor="middle" x="236" y="-102.9" font-family="Helvetica,sans-Serif" font-size="12.00">UnitTests</text>
</a>
</g>
</g>
<!-- dir_636c7bdea3321462f25ba5dc55bf7d5c&#45;&gt;dir_70b307d082579af01659443b72a9e28d -->
<g id="edge2" class="edge">
<title>dir_636c7bdea3321462f25ba5dc55bf7d5c&#45;&gt;dir_70b307d082579af01659443b72a9e28d</title>
<path fill="none" stroke="black" d="M258.99,-87.7C270.81,-78.8 285.39,-67.82 298.18,-58.2"/>
<polygon fill="black" stroke="black" points="300.39,-60.91 306.28,-52.1 296.18,-55.32 300.39,-60.91"/>
<g id="a_edge2&#45;headlabel"><a xlink:href="dir_000022_000020.html" target="_top" xlink:title="1">
<text text-anchor="middle" x="299.23" y="-62.24" font-family="Helvetica,sans-Serif" font-size="12.00">1</text>
</a>
</g>
</g>
</g>
</svg>
        <g id="navigator" transform="translate(0 0)" fill="#404254">
                <rect fill="#f2f5e9" fill-opacity="0.5" stroke="#606060" stroke-width=".5" x="0" y="0" width="60" height="60"/>
                <use id="zoomplus" xlink:href="#zoomPlus" x="17" y="9" onmousedown="handleZoom(evt,'in')"/>
                <use id="zoomminus" xlink:href="#zoomMin" x="42" y="9" onmousedown="handleZoom(evt,'out')"/>
                <use id="reset" xlink:href="#resetDef" x="30" y="36" onmousedown="handleReset()"/>
                <g id="arrowUp" xlink:href="#dirArrow" transform="translate(30 24)" onmousedown="handlePan(0,-1)">
                  <use xlink:href="#rim" fill="#404040">
                        <set attributeName="fill" to="#808080" begin="arrowUp.mouseover" end="arrowUp.mouseout"/>
                  </use>
                  <path fill="none" stroke="white" stroke-width="1.5" d="M0,-3.0v7 M-2.5,-0.5L0,-3.0L2.5,-0.5"/>
                </g>
                <g id="arrowRight" xlink:href="#dirArrow" transform="rotate(90) translate(36 -43)" onmousedown="handlePan(1,0)">
                  <use xlink:href="#rim" fill="#404040">
                        <set attributeName="fill" to="#808080" begin="arrowRight.mouseover" end="arrowRight.mouseout"/>
                  </use>
                  <path fill="none" stroke="white" stroke-width="1.5" d="M0,-3.0v7 M-2.5,-0.5L0,-3.0L2.5,-0.5"/>
                </g>
                <g id="arrowDown" xlink:href="#dirArrow" transform="rotate(180) translate(-30 -48)" onmousedown="handlePan(0,1)">
                  <use xlink:href="#rim" fill="#404040">
                        <set attributeName="fill" to="#808080" begin="arrowDown.mouseover" end="arrowDown.mouseout"/>
                  </use>
                  <path fill="none" stroke="white" stroke-width="1.5" d="M0,-3.0v7 M-2.5,-0.5L0,-3.0L2.5,-0.5"/>
                </g>
                <g id="arrowLeft" xlink:href="#dirArrow" transform="rotate(270) translate(-36 17)" onmousedown="handlePan(-1,0)">
                  <use xlink:href="#rim" fill="#404040">
                        <set attributeName="fill" to="#808080" begin="arrowLeft.mouseover" end="arrowLeft.mouseout"/>
                  </use>
                  <path fill="none" stroke="white" stroke-width="1.5" d="M0,-3.0v7 M-2.5,-0.5L0,-3.0L2.5,-0.5"/>
                </g>
        </g>
        <svg viewBox="0 0 15 15" width="100%" height="30px" preserveAspectRatio="xMaxYMin meet">
         <g id="arrow_out" transform="scale(0.3 0.3)">
          <a xlink:href="dir_49eade59e01b0fbf4300858ffc47ca49_dep_org.svg" target="_base">
           <rect id="button" ry="5" rx="5" y="6" x="6" height="38" width="38"
                fill="#f2f5e9" fill-opacity="0.5" stroke="#606060" stroke-width="1.0"/>
           <path id="arrow"
             d="M 11.500037,31.436501 C 11.940474,20.09759 22.043105,11.32322 32.158766,21.979434 L 37.068811,17.246167 C 37.068811,17.246167 37.088388,32 37.088388,32 L 22.160133,31.978069 C 22.160133,31.978069 26.997745,27.140456 26.997745,27.140456 C 18.528582,18.264221 13.291696,25.230495 11.500037,31.436501 z"
             style="fill:#404040;"/>
          </a>
         </g>
        </svg>
</svg>
