<?xml version="1.0" encoding="UTF-8" standalone="no"?>
<!DOCTYPE svg PUBLIC "-//W3C//DTD SVG 1.1//EN"
 "http://www.w3.org/Graphics/SVG/1.1/DTD/svg11.dtd">
<!-- Generated by graphviz version 2.43.0 (0)
 -->
<!-- Title: Module Pages: 1 -->
<svg width="100pt" height="153pt"
 viewBox="0.00 0.00 100.00 153.00" xmlns="http://www.w3.org/2000/svg" xmlns:xlink="http://www.w3.org/1999/xlink">
<g id="graph0" class="graph" transform="scale(1 1) rotate(0) translate(4 149)">
<title>Module</title>
<g id="clust1" class="cluster">
<title>clusterdir_93cd05e1e65f1a98a2104277b36e7795</title>
<g id="a_clust1"><a xlink:href="dir_93cd05e1e65f1a98a2104277b36e7795.html" target="_top" xlink:title="src">
<polygon fill="#ddddee" stroke="black" points="8,-64 8,-137 84,-137 84,-64 8,-64"/>
<text text-anchor="middle" x="46" y="-123.4" font-family="Helvetica,sans-Serif" font-size="12.00">src</text>
</a>
</g>
</g>
<!-- dir_bab8f64279de8bdf1719608edf845bc3 -->
<g id="node1" class="node">
<title>dir_bab8f64279de8bdf1719608edf845bc3</title>
<g id="a_node1"><a xlink:href="dir_bab8f64279de8bdf1719608edf845bc3.html" target="_top" xlink:title="Module">
<polygon fill="#eeeeff" stroke="black" points="76,-108 16,-108 16,-72 76,-72 76,-108"/>
<text text-anchor="middle" x="46" y="-86.9" font-family="Helvetica,sans-Serif" font-size="12.00">Module</text>
</a>
</g>
</g>
<!-- dir_db176601ee30a8ebeb1d43e41365a810 -->
<g id="node2" class="node">
<title>dir_db176601ee30a8ebeb1d43e41365a810</title>
<g id="a_node2"><a xlink:href="dir_db176601ee30a8ebeb1d43e41365a810.html" target="_top" xlink:title="MarkovAPI">
<polygon fill="none" stroke="red" points="86,-36 6,-36 6,0 86,0 86,-36"/>
<text text-anchor="middle" x="46" y="-14.9" font-family="Helvetica,sans-Serif" font-size="12.00">MarkovAPI</text>
</a>
</g>
</g>
<!-- dir_bab8f64279de8bdf1719608edf845bc3&#45;&gt;dir_db176601ee30a8ebeb1d43e41365a810 -->
<g id="edge1" class="edge">
<title>dir_bab8f64279de8bdf1719608edf845bc3&#45;&gt;dir_db176601ee30a8ebeb1d43e41365a810</title>
<path fill="none" stroke="black" d="M46,-71.7C46,-63.98 46,-54.71 46,-46.11"/>
<polygon fill="black" stroke="black" points="49.5,-46.1 46,-36.1 42.5,-46.1 49.5,-46.1"/>
<g id="a_edge1&#45;headlabel"><a xlink:href="dir_000010_000012.html" target="_top" xlink:title="1">
<text text-anchor="middle" x="52.34" y="-46.6" font-family="Helvetica,sans-Serif" font-size="12.00">1</text>
</a>
</g>
</g>
</g>
</svg>
