<?xml version="1.0" encoding="UTF-8" standalone="no"?>
<!DOCTYPE svg PUBLIC "-//W3C//DTD SVG 1.1//EN"
 "http://www.w3.org/Graphics/SVG/1.1/DTD/svg11.dtd">
<!-- Generated by graphviz version 2.43.0 (0)
 -->
<!-- Title: src Pages: 1 -->
<svg width="167pt" height="153pt"
 viewBox="0.00 0.00 167.00 153.00" xmlns="http://www.w3.org/2000/svg" xmlns:xlink="http://www.w3.org/1999/xlink">
<g id="graph0" class="graph" transform="scale(1 1) rotate(0) translate(4 149)">
<title>src</title>
<g id="clust1" class="cluster">
<title>clusterdir_9b4f0d5587cead59387f745a2ce93b9c</title>
<g id="a_clust1"><a xlink:href="dir_9b4f0d5587cead59387f745a2ce93b9c.html" target="_top" xlink:title="MarkovPasswordsGUI">
<polygon fill="#ddddee" stroke="black" points="8,-64 8,-137 151,-137 151,-64 8,-64"/>
<text text-anchor="middle" x="79.5" y="-123.4" font-family="Helvetica,sans-Serif" font-size="12.00">MarkovPasswordsGUI</text>
</a>
</g>
</g>
<!-- dir_f2808bc6654a688015dbfd486288ae56 -->
<g id="node1" class="node">
<title>dir_f2808bc6654a688015dbfd486288ae56</title>
<g id="a_node1"><a xlink:href="dir_f2808bc6654a688015dbfd486288ae56.html" target="_top" xlink:title="src">
<polygon fill="#eeeeff" stroke="black" points="106,-108 52,-108 52,-72 106,-72 106,-108"/>
<text text-anchor="middle" x="79" y="-86.9" font-family="Helvetica,sans-Serif" font-size="12.00">src</text>
</a>
</g>
</g>
<!-- dir_db176601ee30a8ebeb1d43e41365a810 -->
<g id="node2" class="node">
<title>dir_db176601ee30a8ebeb1d43e41365a810</title>
<g id="a_node2"><a xlink:href="dir_db176601ee30a8ebeb1d43e41365a810.html" target="_top" xlink:title="MarkovAPI">
<polygon fill="none" stroke="red" points="119,-36 39,-36 39,0 119,0 119,-36"/>
<text text-anchor="middle" x="79" y="-14.9" font-family="Helvetica,sans-Serif" font-size="12.00">MarkovAPI</text>
</a>
</g>
</g>
<!-- dir_f2808bc6654a688015dbfd486288ae56&#45;&gt;dir_db176601ee30a8ebeb1d43e41365a810 -->
<g id="edge1" class="edge">
<title>dir_f2808bc6654a688015dbfd486288ae56&#45;&gt;dir_db176601ee30a8ebeb1d43e41365a810</title>
<path fill="none" stroke="black" d="M79,-71.7C79,-63.98 79,-54.71 79,-46.11"/>
<polygon fill="black" stroke="black" points="82.5,-46.1 79,-36.1 75.5,-46.1 82.5,-46.1"/>
<g id="a_edge1&#45;headlabel"><a xlink:href="dir_000001_000012.html" target="_top" xlink:title="2">
<text text-anchor="middle" x="85.34" y="-46.6" font-family="Helvetica,sans-Serif" font-size="12.00">2</text>
</a>
</g>
</g>
</g>
</svg>
