<?xml version="1.0" encoding="UTF-8" standalone="no"?>
<!DOCTYPE svg PUBLIC "-//W3C//DTD SVG 1.1//EN"
 "http://www.w3.org/Graphics/SVG/1.1/DTD/svg11.dtd">
<!-- Generated by graphviz version 2.43.0 (0)
 -->
<!-- Title: Markopy/CudaMarkovAPI Pages: 1 -->
<svg width="239pt" height="233pt"
 viewBox="0.00 0.00 239.00 233.00" xmlns="http://www.w3.org/2000/svg" xmlns:xlink="http://www.w3.org/1999/xlink">
<g id="graph0" class="graph" transform="scale(1 1) rotate(0) translate(4 229)">
<title>Markopy/CudaMarkovAPI</title>
<g id="clust1" class="cluster">
<title>clusterdir_49eade59e01b0fbf4300858ffc47ca49</title>
<g id="a_clust1"><a xlink:href="dir_49eade59e01b0fbf4300858ffc47ca49.html" target="_top" xlink:title="Markopy">
<polygon fill="#ddddee" stroke="black" points="8,-128 8,-217 223,-217 223,-128 8,-128"/>
<text text-anchor="middle" x="115.5" y="-203.4" font-family="Helvetica,sans-Serif" font-size="12.00">Markopy</text>
</a>
</g>
</g>
<g id="clust2" class="cluster">
<title>clusterdir_dc755eaaa9ae56519b57e698c7277508</title>
<g id="a_clust2"><a xlink:href="dir_dc755eaaa9ae56519b57e698c7277508.html" target="_top">
<polygon fill="#eeeeff" stroke="black" points="16,-136 16,-188 215,-188 215,-136 16,-136"/>
</a>
</g>
</g>
<!-- dir_dc755eaaa9ae56519b57e698c7277508 -->
<g id="node1" class="node">
<title>dir_dc755eaaa9ae56519b57e698c7277508</title>
<text text-anchor="middle" x="152" y="-158.9" font-family="Helvetica,sans-Serif" font-size="12.00">CudaMarkovAPI</text>
</g>
<!-- dir_7f53795eacc756704ba320e088008f83 -->
<g id="node2" class="node">
<title>dir_7f53795eacc756704ba320e088008f83</title>
<g id="a_node2"><a xlink:href="dir_7f53795eacc756704ba320e088008f83.html" target="_top" xlink:title="src">
<polygon fill="white" stroke="black" points="78,-180 24,-180 24,-144 78,-144 78,-180"/>
<text text-anchor="middle" x="51" y="-158.9" font-family="Helvetica,sans-Serif" font-size="12.00">src</text>
</a>
</g>
</g>
<!-- dir_70b307d082579af01659443b72a9e28d -->
<g id="node3" class="node">
<title>dir_70b307d082579af01659443b72a9e28d</title>
<g id="a_node3"><a xlink:href="dir_70b307d082579af01659443b72a9e28d.html" target="_top" xlink:title="MarkovModel">
<polygon fill="none" stroke="red" points="99.5,-36 2.5,-36 2.5,0 99.5,0 99.5,-36"/>
<text text-anchor="middle" x="51" y="-14.9" font-family="Helvetica,sans-Serif" font-size="12.00">MarkovModel</text>
</a>
</g>
</g>
<!-- dir_7f53795eacc756704ba320e088008f83&#45;&gt;dir_70b307d082579af01659443b72a9e28d -->
<g id="edge1" class="edge">
<title>dir_7f53795eacc756704ba320e088008f83&#45;&gt;dir_70b307d082579af01659443b72a9e28d</title>
<path fill="none" stroke="black" d="M44.76,-143.59C41.43,-133.37 37.68,-120.12 36,-108 33.8,-92.15 33.8,-87.85 36,-72 37.18,-63.48 39.39,-54.39 41.75,-46.2"/>
<polygon fill="black" stroke="black" points="45.17,-46.99 44.76,-36.41 38.48,-44.94 45.17,-46.99"/>
<g id="a_edge1&#45;headlabel"><a xlink:href="dir_000006_000020.html" target="_top" xlink:title="1">
<text text-anchor="middle" x="46.83" y="-48.16" font-family="Helvetica,sans-Serif" font-size="12.00">1</text>
</a>
</g>
</g>
<!-- dir_c780c265e379e92150b7b40e51a2b55a -->
<g id="node4" class="node">
<title>dir_c780c265e379e92150b7b40e51a2b55a</title>
<g id="a_node4"><a xlink:href="dir_c780c265e379e92150b7b40e51a2b55a.html" target="_top" xlink:title="MarkovAPI">
<polygon fill="none" stroke="red" points="125,-108 45,-108 45,-72 125,-72 125,-108"/>
<text text-anchor="middle" x="85" y="-86.9" font-family="Helvetica,sans-Serif" font-size="12.00">MarkovAPI</text>
</a>
</g>
</g>
<!-- dir_7f53795eacc756704ba320e088008f83&#45;&gt;dir_c780c265e379e92150b7b40e51a2b55a -->
<g id="edge2" class="edge">
<title>dir_7f53795eacc756704ba320e088008f83&#45;&gt;dir_c780c265e379e92150b7b40e51a2b55a</title>
<path fill="none" stroke="black" d="M59.4,-143.7C63.27,-135.73 67.95,-126.1 72.24,-117.26"/>
<polygon fill="black" stroke="black" points="75.47,-118.63 76.69,-108.1 69.17,-115.57 75.47,-118.63"/>
<g id="a_edge2&#45;headlabel"><a xlink:href="dir_000006_000012.html" target="_top" xlink:title="1">
<text text-anchor="middle" x="76.45" y="-120" font-family="Helvetica,sans-Serif" font-size="12.00">1</text>
</a>
</g>
</g>
<!-- dir_c780c265e379e92150b7b40e51a2b55a&#45;&gt;dir_70b307d082579af01659443b72a9e28d -->
<g id="edge3" class="edge">
<title>dir_c780c265e379e92150b7b40e51a2b55a&#45;&gt;dir_70b307d082579af01659443b72a9e28d</title>
<path fill="none" stroke="black" d="M76.6,-71.7C72.73,-63.73 68.05,-54.1 63.76,-45.26"/>
<polygon fill="black" stroke="black" points="66.83,-43.57 59.31,-36.1 60.53,-46.63 66.83,-43.57"/>
<g id="a_edge3&#45;headlabel"><a xlink:href="dir_000012_000020.html" target="_top" xlink:title="1">
<text text-anchor="middle" x="70.95" y="-42.46" font-family="Helvetica,sans-Serif" font-size="12.00">1</text>
</a>
</g>
</g>
</g>
</svg>
