<?xml version="1.0" encoding="UTF-8" standalone="no"?>
<!DOCTYPE svg PUBLIC "-//W3C//DTD SVG 1.1//EN"
 "http://www.w3.org/Graphics/SVG/1.1/DTD/svg11.dtd">
<!-- Generated by graphviz version 2.43.0 (0)
 -->
<!-- Title: Markopy/CudaMarkovAPI/src Pages: 1 -->
<svg width="145pt" height="225pt"
 viewBox="0.00 0.00 145.00 225.00" xmlns="http://www.w3.org/2000/svg" xmlns:xlink="http://www.w3.org/1999/xlink">
<g id="graph0" class="graph" transform="scale(1 1) rotate(0) translate(4 221)">
<title>Markopy/CudaMarkovAPI/src</title>
<g id="clust1" class="cluster">
<title>clusterdir_dc755eaaa9ae56519b57e698c7277508</title>
<g id="a_clust1"><a xlink:href="dir_dc755eaaa9ae56519b57e698c7277508.html" target="_top" xlink:title="CudaMarkovAPI">
<polygon fill="#ddddee" stroke="black" points="8,-136 8,-209 119,-209 119,-136 8,-136"/>
<text text-anchor="middle" x="63.5" y="-195.4" font-family="Helvetica,sans-Serif" font-size="12.00">CudaMarkovAPI</text>
</a>
</g>
</g>
<!-- dir_7f53795eacc756704ba320e088008f83 -->
<g id="node1" class="node">
<title>dir_7f53795eacc756704ba320e088008f83</title>
<g id="a_node1"><a xlink:href="dir_7f53795eacc756704ba320e088008f83.html" target="_top" xlink:title="src">
<polygon fill="#eeeeff" stroke="black" points="90,-180 36,-180 36,-144 90,-144 90,-180"/>
<text text-anchor="middle" x="63" y="-158.9" font-family="Helvetica,sans-Serif" font-size="12.00">src</text>
</a>
</g>
</g>
<!-- dir_70b307d082579af01659443b72a9e28d -->
<g id="node2" class="node">
<title>dir_70b307d082579af01659443b72a9e28d</title>
<g id="a_node2"><a xlink:href="dir_70b307d082579af01659443b72a9e28d.html" target="_top" xlink:title="MarkovModel">
<polygon fill="none" stroke="red" points="111.5,-36 14.5,-36 14.5,0 111.5,0 111.5,-36"/>
<text text-anchor="middle" x="63" y="-14.9" font-family="Helvetica,sans-Serif" font-size="12.00">MarkovModel</text>
</a>
</g>
</g>
<!-- dir_7f53795eacc756704ba320e088008f83&#45;&gt;dir_70b307d082579af01659443b72a9e28d -->
<g id="edge1" class="edge">
<title>dir_7f53795eacc756704ba320e088008f83&#45;&gt;dir_70b307d082579af01659443b72a9e28d</title>
<path fill="none" stroke="black" d="M56.76,-143.59C53.43,-133.37 49.68,-120.12 48,-108 45.8,-92.15 45.8,-87.85 48,-72 49.18,-63.48 51.39,-54.39 53.75,-46.2"/>
<polygon fill="black" stroke="black" points="57.17,-46.99 56.76,-36.41 50.48,-44.94 57.17,-46.99"/>
<g id="a_edge1&#45;headlabel"><a xlink:href="dir_000006_000020.html" target="_top" xlink:title="1">
<text text-anchor="middle" x="58.83" y="-48.16" font-family="Helvetica,sans-Serif" font-size="12.00">1</text>
</a>
</g>
</g>
<!-- dir_c780c265e379e92150b7b40e51a2b55a -->
<g id="node3" class="node">
<title>dir_c780c265e379e92150b7b40e51a2b55a</title>
<g id="a_node3"><a xlink:href="dir_c780c265e379e92150b7b40e51a2b55a.html" target="_top" xlink:title="MarkovAPI">
<polygon fill="none" stroke="red" points="137,-108 57,-108 57,-72 137,-72 137,-108"/>
<text text-anchor="middle" x="97" y="-86.9" font-family="Helvetica,sans-Serif" font-size="12.00">MarkovAPI</text>
</a>
</g>
</g>
<!-- dir_7f53795eacc756704ba320e088008f83&#45;&gt;dir_c780c265e379e92150b7b40e51a2b55a -->
<g id="edge2" class="edge">
<title>dir_7f53795eacc756704ba320e088008f83&#45;&gt;dir_c780c265e379e92150b7b40e51a2b55a</title>
<path fill="none" stroke="black" d="M71.4,-143.7C75.27,-135.73 79.95,-126.1 84.24,-117.26"/>
<polygon fill="black" stroke="black" points="87.47,-118.63 88.69,-108.1 81.17,-115.57 87.47,-118.63"/>
<g id="a_edge2&#45;headlabel"><a xlink:href="dir_000006_000012.html" target="_top" xlink:title="1">
<text text-anchor="middle" x="88.45" y="-120" font-family="Helvetica,sans-Serif" font-size="12.00">1</text>
</a>
</g>
</g>
<!-- dir_c780c265e379e92150b7b40e51a2b55a&#45;&gt;dir_70b307d082579af01659443b72a9e28d -->
<g id="edge3" class="edge">
<title>dir_c780c265e379e92150b7b40e51a2b55a&#45;&gt;dir_70b307d082579af01659443b72a9e28d</title>
<path fill="none" stroke="black" d="M88.6,-71.7C84.73,-63.73 80.05,-54.1 75.76,-45.26"/>
<polygon fill="black" stroke="black" points="78.83,-43.57 71.31,-36.1 72.53,-46.63 78.83,-43.57"/>
<g id="a_edge3&#45;headlabel"><a xlink:href="dir_000012_000020.html" target="_top" xlink:title="1">
<text text-anchor="middle" x="82.95" y="-42.46" font-family="Helvetica,sans-Serif" font-size="12.00">1</text>
</a>
</g>
</g>
</g>
</svg>
