<?xml version="1.0" encoding="UTF-8" standalone="no"?>
<!DOCTYPE svg PUBLIC "-//W3C//DTD SVG 1.1//EN"
 "http://www.w3.org/Graphics/SVG/1.1/DTD/svg11.dtd">
<!-- Generated by graphviz version 2.43.0 (0)
 -->
<!-- Title: Markopy/MarkovAPICLI/src Pages: 1 -->
<svg width="264pt" height="185pt"
 viewBox="0.00 0.00 264.00 185.00" xmlns="http://www.w3.org/2000/svg" xmlns:xlink="http://www.w3.org/1999/xlink">
<g id="graph0" class="graph" transform="scale(1 1) rotate(0) translate(4 181)">
<title>Markopy/MarkovAPICLI/src</title>
<g id="clust1" class="cluster">
<title>clusterdir_8d0feb423148011ff234ae3fc44e6c8b</title>
<g id="a_clust1"><a xlink:href="dir_8d0feb423148011ff234ae3fc44e6c8b.html" target="_top" xlink:title="MarkovAPICLI">
<polygon fill="#ddddee" stroke="black" points="8,-8 8,-169 168,-169 168,-8 8,-8"/>
<text text-anchor="middle" x="88" y="-155.4" font-family="Helvetica,sans-Serif" font-size="12.00">MarkovAPICLI</text>
</a>
</g>
</g>
<g id="clust2" class="cluster">
<title>clusterdir_0fb3e2334017822ed4370d958f99e1cd</title>
<g id="a_clust2"><a xlink:href="dir_0fb3e2334017822ed4370d958f99e1cd.html" target="_top">
<polygon fill="#eeeeff" stroke="black" points="16,-16 16,-140 160,-140 160,-16 16,-16"/>
</a>
</g>
</g>
<!-- dir_0fb3e2334017822ed4370d958f99e1cd -->
<g id="node1" class="node">
<title>dir_0fb3e2334017822ed4370d958f99e1cd</title>
<text text-anchor="middle" x="125" y="-110.9" font-family="Helvetica,sans-Serif" font-size="12.00">src</text>
</g>
<!-- dir_1aae9c342de53489eae79c40557db755 -->
<g id="node2" class="node">
<title>dir_1aae9c342de53489eae79c40557db755</title>
<g id="a_node2"><a xlink:href="dir_1aae9c342de53489eae79c40557db755.html" target="_top" xlink:title="color">
<polygon fill="white" stroke="black" points="152,-60 98,-60 98,-24 152,-24 152,-60"/>
<text text-anchor="middle" x="125" y="-38.9" font-family="Helvetica,sans-Serif" font-size="12.00">color</text>
</a>
</g>
</g>
<!-- dir_0fb3e2334017822ed4370d958f99e1cd&#45;&gt;dir_1aae9c342de53489eae79c40557db755 -->
<g id="edge1" class="edge">
<title>dir_0fb3e2334017822ed4370d958f99e1cd&#45;&gt;dir_1aae9c342de53489eae79c40557db755</title>
<path fill="none" stroke="black" d="M125,-95.7C125,-87.98 125,-78.71 125,-70.11"/>
<polygon fill="black" stroke="black" points="128.5,-70.1 125,-60.1 121.5,-70.1 128.5,-70.1"/>
<g id="a_edge1&#45;headlabel"><a xlink:href="dir_000015_000016.html" target="_top" xlink:title="2">
<text text-anchor="middle" x="131.34" y="-70.6" font-family="Helvetica,sans-Serif" font-size="12.00">2</text>
</a>
</g>
</g>
<!-- dir_c780c265e379e92150b7b40e51a2b55a -->
<g id="node4" class="node">
<title>dir_c780c265e379e92150b7b40e51a2b55a</title>
<g id="a_node4"><a xlink:href="dir_c780c265e379e92150b7b40e51a2b55a.html" target="_top" xlink:title="MarkovAPI">
<polygon fill="none" stroke="red" points="256,-60 176,-60 176,-24 256,-24 256,-60"/>
<text text-anchor="middle" x="216" y="-38.9" font-family="Helvetica,sans-Serif" font-size="12.00">MarkovAPI</text>
</a>
</g>
</g>
<!-- dir_0fb3e2334017822ed4370d958f99e1cd&#45;&gt;dir_c780c265e379e92150b7b40e51a2b55a -->
<g id="edge2" class="edge">
<title>dir_0fb3e2334017822ed4370d958f99e1cd&#45;&gt;dir_c780c265e379e92150b7b40e51a2b55a</title>
<path fill="none" stroke="black" d="M147.49,-95.7C158.96,-86.88 173.06,-76.03 185.48,-66.47"/>
<polygon fill="black" stroke="black" points="187.97,-68.98 193.76,-60.1 183.7,-63.43 187.97,-68.98"/>
<g id="a_edge2&#45;headlabel"><a xlink:href="dir_000015_000012.html" target="_top" xlink:title="2">
<text text-anchor="middle" x="186.85" y="-70.32" font-family="Helvetica,sans-Serif" font-size="12.00">2</text>
</a>
</g>
</g>
<!-- dir_e1864cbdb83ae0f730c8075871c264de -->
<g id="node3" class="node">
<title>dir_e1864cbdb83ae0f730c8075871c264de</title>
<g id="a_node3"><a xlink:href="dir_e1864cbdb83ae0f730c8075871c264de.html" target="_top" xlink:title="scripts">
<polygon fill="white" stroke="black" points="80,-132 24,-132 24,-96 80,-96 80,-132"/>
<text text-anchor="middle" x="52" y="-110.9" font-family="Helvetica,sans-Serif" font-size="12.00">scripts</text>
</a>
</g>
</g>
</g>
</svg>
