<?xml version="1.0" encoding="UTF-8" standalone="no"?>
<!DOCTYPE svg PUBLIC "-//W3C//DTD SVG 1.1//EN"
 "http://www.w3.org/Graphics/SVG/1.1/DTD/svg11.dtd">
<!-- Generated by graphviz version 2.43.0 (0)
 -->
<!-- Title: src Pages: 1 -->
<svg width="260pt" height="161pt"
 viewBox="0.00 0.00 260.00 161.00" xmlns="http://www.w3.org/2000/svg" xmlns:xlink="http://www.w3.org/1999/xlink">
<g id="graph0" class="graph" transform="scale(1 1) rotate(0) translate(4 157)">
<title>src</title>
<g id="clust1" class="cluster">
<title>clusterdir_49eade59e01b0fbf4300858ffc47ca49</title>
<g id="a_clust1"><a xlink:href="dir_49eade59e01b0fbf4300858ffc47ca49.html" target="_top" xlink:title="Markopy">
<polygon fill="#ddddee" stroke="black" points="8,-56 8,-145 244,-145 244,-56 8,-56"/>
<text text-anchor="middle" x="126" y="-131.4" font-family="Helvetica,sans-Serif" font-size="12.00">Markopy</text>
</a>
</g>
</g>
<g id="clust2" class="cluster">
<title>clusterdir_93cd05e1e65f1a98a2104277b36e7795</title>
<g id="a_clust2"><a xlink:href="dir_93cd05e1e65f1a98a2104277b36e7795.html" target="_top">
<polygon fill="#eeeeff" stroke="black" points="16,-64 16,-116 236,-116 236,-64 16,-64"/>
</a>
</g>
</g>
<!-- dir_93cd05e1e65f1a98a2104277b36e7795 -->
<g id="node1" class="node">
<title>dir_93cd05e1e65f1a98a2104277b36e7795</title>
<text text-anchor="middle" x="201" y="-86.9" font-family="Helvetica,sans-Serif" font-size="12.00">src</text>
</g>
<!-- dir_bba2c4d8cd5c3cbc28d9c14762be7a7f -->
<g id="node2" class="node">
<title>dir_bba2c4d8cd5c3cbc28d9c14762be7a7f</title>
<g id="a_node2"><a xlink:href="dir_bba2c4d8cd5c3cbc28d9c14762be7a7f.html" target="_top" xlink:title="CLI">
<polygon fill="white" stroke="black" points="156,-108 102,-108 102,-72 156,-72 156,-108"/>
<text text-anchor="middle" x="129" y="-86.9" font-family="Helvetica,sans-Serif" font-size="12.00">CLI</text>
</a>
</g>
</g>
<!-- dir_bab8f64279de8bdf1719608edf845bc3 -->
<g id="node3" class="node">
<title>dir_bab8f64279de8bdf1719608edf845bc3</title>
<g id="a_node3"><a xlink:href="dir_bab8f64279de8bdf1719608edf845bc3.html" target="_top" xlink:title="Module">
<polygon fill="white" stroke="black" points="84,-108 24,-108 24,-72 84,-72 84,-108"/>
<text text-anchor="middle" x="54" y="-86.9" font-family="Helvetica,sans-Serif" font-size="12.00">Module</text>
</a>
</g>
</g>
<!-- dir_db176601ee30a8ebeb1d43e41365a810 -->
<g id="node4" class="node">
<title>dir_db176601ee30a8ebeb1d43e41365a810</title>
<g id="a_node4"><a xlink:href="dir_db176601ee30a8ebeb1d43e41365a810.html" target="_top" xlink:title="MarkovAPI">
<polygon fill="none" stroke="red" points="94,-36 14,-36 14,0 94,0 94,-36"/>
<text text-anchor="middle" x="54" y="-14.9" font-family="Helvetica,sans-Serif" font-size="12.00">MarkovAPI</text>
</a>
</g>
</g>
<!-- dir_bab8f64279de8bdf1719608edf845bc3&#45;&gt;dir_db176601ee30a8ebeb1d43e41365a810 -->
<g id="edge1" class="edge">
<title>dir_bab8f64279de8bdf1719608edf845bc3&#45;&gt;dir_db176601ee30a8ebeb1d43e41365a810</title>
<path fill="none" stroke="black" d="M54,-71.7C54,-63.98 54,-54.71 54,-46.11"/>
<polygon fill="black" stroke="black" points="57.5,-46.1 54,-36.1 50.5,-46.1 57.5,-46.1"/>
<g id="a_edge1&#45;headlabel"><a xlink:href="dir_000010_000012.html" target="_top" xlink:title="1">
<text text-anchor="middle" x="60.34" y="-46.6" font-family="Helvetica,sans-Serif" font-size="12.00">1</text>
</a>
</g>
</g>
</g>
</svg>
