<?xml version="1.0" encoding="UTF-8" standalone="no"?>
<!DOCTYPE svg PUBLIC "-//W3C//DTD SVG 1.1//EN"
 "http://www.w3.org/Graphics/SVG/1.1/DTD/svg11.dtd">
<!-- Generated by graphviz version 2.43.0 (0)
 -->
<!-- Title: edge.h Pages: 1 -->
<svg width="481pt" height="320pt"
 viewBox="0.00 0.00 480.50 320.00" xmlns="http://www.w3.org/2000/svg" xmlns:xlink="http://www.w3.org/1999/xlink">
<g id="graph0" class="graph" transform="scale(1 1) rotate(0) translate(4 316)">
<title>edge.h</title>
<!-- Node1 -->
<g id="node1" class="node">
<title>Node1</title>
<g id="a_node1"><a xlink:title=" ">
<polygon fill="#bfbfbf" stroke="black" points="287,-290.5 287,-311.5 345,-311.5 345,-290.5 287,-290.5"/>
<text text-anchor="middle" x="316" y="-297.9" font-family="Helvetica,sans-Serif" font-size="12.00">edge.h</text>
</a>
</g>
</g>
<!-- Node2 -->
<g id="node2" class="node">
<title>Node2</title>
<g id="a_node2"><a xlink:href="node_8h.html" target="_top" xlink:title=" ">
<polygon fill="none" stroke="black" points="259,-232.5 259,-253.5 317,-253.5 317,-232.5 259,-232.5"/>
<text text-anchor="middle" x="288" y="-239.9" font-family="Helvetica,sans-Serif" font-size="12.00">node.h</text>
</a>
</g>
</g>
<!-- Node1&#45;&gt;Node2 -->
<g id="edge1" class="edge">
<title>Node1&#45;&gt;Node2</title>
<path fill="none" stroke="midnightblue" d="M306.52,-281.04C301.92,-271.83 296.58,-261.16 292.82,-253.64"/>
<polygon fill="midnightblue" stroke="midnightblue" points="303.52,-282.87 311.12,-290.25 309.78,-279.74 303.52,-282.87"/>
</g>
<!-- Node3 -->
<g id="node3" class="node">
<title>Node3</title>
<g id="a_node3"><a xlink:href="model_8h.html" target="_top" xlink:title=" ">
<polygon fill="none" stroke="black" points="283.5,-174.5 283.5,-195.5 348.5,-195.5 348.5,-174.5 283.5,-174.5"/>
<text text-anchor="middle" x="316" y="-181.9" font-family="Helvetica,sans-Serif" font-size="12.00">model.h</text>
</a>
</g>
</g>
<!-- Node1&#45;&gt;Node3 -->
<g id="edge12" class="edge">
<title>Node1&#45;&gt;Node3</title>
<path fill="none" stroke="midnightblue" d="M321.26,-280.28C323.16,-272.2 325.06,-262.72 326,-254 327.04,-244.28 327.04,-241.72 326,-232 324.64,-219.32 321.22,-205.02 318.76,-195.77"/>
<polygon fill="midnightblue" stroke="midnightblue" points="317.8,-279.68 318.76,-290.23 324.59,-281.38 317.8,-279.68"/>
</g>
<!-- Node2&#45;&gt;Node3 -->
<g id="edge2" class="edge">
<title>Node2&#45;&gt;Node3</title>
<path fill="none" stroke="midnightblue" d="M297.48,-223.04C302.08,-213.83 307.42,-203.16 311.18,-195.64"/>
<polygon fill="midnightblue" stroke="midnightblue" points="294.22,-221.74 292.88,-232.25 300.48,-224.87 294.22,-221.74"/>
</g>
<!-- Node4 -->
<g id="node4" class="node">
<title>Node4</title>
<g id="a_node4"><a xlink:href="markov_passwords_8h.html" target="_top" xlink:title=" ">
<polygon fill="none" stroke="black" points="121,-116.5 121,-137.5 255,-137.5 255,-116.5 121,-116.5"/>
<text text-anchor="middle" x="188" y="-123.9" font-family="Helvetica,sans-Serif" font-size="12.00">markovPasswords.h</text>
</a>
</g>
</g>
<!-- Node3&#45;&gt;Node4 -->
<g id="edge3" class="edge">
<title>Node3&#45;&gt;Node4</title>
<path fill="none" stroke="midnightblue" d="M284.57,-170.25C261.32,-160.08 230.26,-146.49 209.72,-137.5"/>
<polygon fill="midnightblue" stroke="midnightblue" points="283.43,-173.57 294,-174.37 286.24,-167.16 283.43,-173.57"/>
</g>
<!-- Node10 -->
<g id="node10" class="node">
<title>Node10</title>
<g id="a_node10"><a xlink:href="dllmain_8cpp.html" target="_top" xlink:title=" ">
<polygon fill="none" stroke="black" points="273,-116.5 273,-137.5 359,-137.5 359,-116.5 273,-116.5"/>
<text text-anchor="middle" x="316" y="-123.9" font-family="Helvetica,sans-Serif" font-size="12.00">dllmain.cpp</text>
</a>
</g>
</g>
<!-- Node3&#45;&gt;Node10 -->
<g id="edge10" class="edge">
<title>Node3&#45;&gt;Node10</title>
<path fill="none" stroke="midnightblue" d="M316,-164.16C316,-155.16 316,-144.92 316,-137.64"/>
<polygon fill="midnightblue" stroke="midnightblue" points="312.5,-164.25 316,-174.25 319.5,-164.25 312.5,-164.25"/>
</g>
<!-- Node11 -->
<g id="node11" class="node">
<title>Node11</title>
<g id="a_node11"><a xlink:href="_unit_tests_8cpp.html" target="_top" xlink:title=" ">
<polygon fill="none" stroke="black" points="377.5,-116.5 377.5,-137.5 472.5,-137.5 472.5,-116.5 377.5,-116.5"/>
<text text-anchor="middle" x="425" y="-123.9" font-family="Helvetica,sans-Serif" font-size="12.00">UnitTests.cpp</text>
</a>
</g>
</g>
<!-- Node3&#45;&gt;Node11 -->
<g id="edge11" class="edge">
<title>Node3&#45;&gt;Node11</title>
<path fill="none" stroke="midnightblue" d="M344.03,-169.6C363.57,-159.56 389.11,-146.44 406.23,-137.64"/>
<polygon fill="midnightblue" stroke="midnightblue" points="342.28,-166.56 334.99,-174.25 345.48,-172.79 342.28,-166.56"/>
</g>
<!-- Node5 -->
<g id="node5" class="node">
<title>Node5</title>
<g id="a_node5"><a xlink:href="src_2main_8cpp.html" target="_top" xlink:title=" ">
<polygon fill="none" stroke="black" points="0,-0.5 0,-21.5 72,-21.5 72,-0.5 0,-0.5"/>
<text text-anchor="middle" x="36" y="-7.9" font-family="Helvetica,sans-Serif" font-size="12.00">main.cpp</text>
</a>
</g>
</g>
<!-- Node4&#45;&gt;Node5 -->
<g id="edge4" class="edge">
<title>Node4&#45;&gt;Node5</title>
<path fill="none" stroke="midnightblue" d="M112.8,-113.59C91.68,-106.79 70.32,-96.28 55,-80 39.71,-63.76 36.56,-36.24 36.01,-21.69"/>
<polygon fill="midnightblue" stroke="midnightblue" points="111.88,-116.97 122.46,-116.46 113.87,-110.26 111.88,-116.97"/>
</g>
<!-- Node6 -->
<g id="node6" class="node">
<title>Node6</title>
<g id="a_node6"><a xlink:href="model_matrix_8h.html" target="_top" xlink:title=" ">
<polygon fill="none" stroke="black" points="64.5,-58.5 64.5,-79.5 167.5,-79.5 167.5,-58.5 64.5,-58.5"/>
<text text-anchor="middle" x="116" y="-65.9" font-family="Helvetica,sans-Serif" font-size="12.00">modelMatrix.h</text>
</a>
</g>
</g>
<!-- Node4&#45;&gt;Node6 -->
<g id="edge5" class="edge">
<title>Node4&#45;&gt;Node6</title>
<path fill="none" stroke="midnightblue" d="M167.34,-109.93C154.75,-100.14 139.09,-87.96 128.4,-79.64"/>
<polygon fill="midnightblue" stroke="midnightblue" points="165.42,-112.87 175.46,-116.25 169.71,-107.34 165.42,-112.87"/>
</g>
<!-- Node8 -->
<g id="node8" class="node">
<title>Node8</title>
<g id="a_node8"><a xlink:href="markov_passwords_8cpp.html" target="_top" xlink:title=" ">
<polygon fill="none" stroke="black" points="185.5,-58.5 185.5,-79.5 334.5,-79.5 334.5,-58.5 185.5,-58.5"/>
<text text-anchor="middle" x="260" y="-65.9" font-family="Helvetica,sans-Serif" font-size="12.00">markovPasswords.cpp</text>
</a>
</g>
</g>
<!-- Node4&#45;&gt;Node8 -->
<g id="edge8" class="edge">
<title>Node4&#45;&gt;Node8</title>
<path fill="none" stroke="midnightblue" d="M208.66,-109.93C221.25,-100.14 236.91,-87.96 247.6,-79.64"/>
<polygon fill="midnightblue" stroke="midnightblue" points="206.29,-107.34 200.54,-116.25 210.58,-112.87 206.29,-107.34"/>
</g>
<!-- Node9 -->
<g id="node9" class="node">
<title>Node9</title>
<g id="a_node9"><a xlink:href="markopy_8cpp.html" target="_top" xlink:title=" ">
<polygon fill="none" stroke="black" points="353,-58.5 353,-79.5 447,-79.5 447,-58.5 353,-58.5"/>
<text text-anchor="middle" x="400" y="-65.9" font-family="Helvetica,sans-Serif" font-size="12.00">markopy.cpp</text>
</a>
</g>
</g>
<!-- Node4&#45;&gt;Node9 -->
<g id="edge9" class="edge">
<title>Node4&#45;&gt;Node9</title>
<path fill="none" stroke="midnightblue" d="M234.49,-113.72C273.47,-103.42 328.34,-88.93 364.03,-79.5"/>
<polygon fill="midnightblue" stroke="midnightblue" points="233.22,-110.44 224.44,-116.37 235.01,-117.2 233.22,-110.44"/>
</g>
<!-- Node6&#45;&gt;Node5 -->
<g id="edge6" class="edge">
<title>Node6&#45;&gt;Node5</title>
<path fill="none" stroke="midnightblue" d="M93.84,-52.49C79.73,-42.61 61.88,-30.12 49.78,-21.64"/>
<polygon fill="midnightblue" stroke="midnightblue" points="91.87,-55.38 102.07,-58.25 95.88,-49.64 91.87,-55.38"/>
</g>
<!-- Node7 -->
<g id="node7" class="node">
<title>Node7</title>
<g id="a_node7"><a xlink:href="model_matrix_8cpp.html" target="_top" xlink:title=" ">
<polygon fill="none" stroke="black" points="90.5,-0.5 90.5,-21.5 207.5,-21.5 207.5,-0.5 90.5,-0.5"/>
<text text-anchor="middle" x="149" y="-7.9" font-family="Helvetica,sans-Serif" font-size="12.00">modelMatrix.cpp</text>
</a>
</g>
</g>
<!-- Node6&#45;&gt;Node7 -->
<g id="edge7" class="edge">
<title>Node6&#45;&gt;Node7</title>
<path fill="none" stroke="midnightblue" d="M126.83,-49.63C132.33,-40.29 138.79,-29.32 143.32,-21.64"/>
<polygon fill="midnightblue" stroke="midnightblue" points="123.81,-47.85 121.75,-58.25 129.84,-51.41 123.81,-47.85"/>
</g>
</g>
</svg>
