<?xml version="1.0" encoding="UTF-8" standalone="no"?>
<!DOCTYPE svg PUBLIC "-//W3C//DTD SVG 1.1//EN"
 "http://www.w3.org/Graphics/SVG/1.1/DTD/svg11.dtd">
<!-- Generated by graphviz version 2.43.0 (0)
 -->
<!-- Title: edge.h Pages: 1 -->
<svg width="505pt" height="320pt"
 viewBox="0.00 0.00 504.50 320.00" xmlns="http://www.w3.org/2000/svg" xmlns:xlink="http://www.w3.org/1999/xlink">
<g id="graph0" class="graph" transform="scale(1 1) rotate(0) translate(4 316)">
<title>edge.h</title>
<!-- Node1 -->
<g id="node1" class="node">
<title>Node1</title>
<g id="a_node1"><a xlink:title=" ">
<polygon fill="#bfbfbf" stroke="black" points="311,-290.5 311,-311.5 369,-311.5 369,-290.5 311,-290.5"/>
<text text-anchor="middle" x="340" y="-297.9" font-family="Helvetica,sans-Serif" font-size="12.00">edge.h</text>
</a>
</g>
</g>
<!-- Node2 -->
<g id="node2" class="node">
<title>Node2</title>
<g id="a_node2"><a xlink:href="node_8h.html" target="_top" xlink:title=" ">
<polygon fill="none" stroke="black" points="283,-232.5 283,-253.5 341,-253.5 341,-232.5 283,-232.5"/>
<text text-anchor="middle" x="312" y="-239.9" font-family="Helvetica,sans-Serif" font-size="12.00">node.h</text>
</a>
</g>
</g>
<!-- Node1&#45;&gt;Node2 -->
<g id="edge1" class="edge">
<title>Node1&#45;&gt;Node2</title>
<path fill="none" stroke="midnightblue" d="M330.52,-281.04C325.92,-271.83 320.58,-261.16 316.82,-253.64"/>
<polygon fill="midnightblue" stroke="midnightblue" points="327.52,-282.87 335.12,-290.25 333.78,-279.74 327.52,-282.87"/>
</g>
<!-- Node3 -->
<g id="node3" class="node">
<title>Node3</title>
<g id="a_node3"><a xlink:href="model_8h.html" target="_top" xlink:title=" ">
<polygon fill="none" stroke="black" points="307.5,-174.5 307.5,-195.5 372.5,-195.5 372.5,-174.5 307.5,-174.5"/>
<text text-anchor="middle" x="340" y="-181.9" font-family="Helvetica,sans-Serif" font-size="12.00">model.h</text>
</a>
</g>
</g>
<!-- Node1&#45;&gt;Node3 -->
<g id="edge13" class="edge">
<title>Node1&#45;&gt;Node3</title>
<path fill="none" stroke="midnightblue" d="M345.26,-280.28C347.16,-272.2 349.06,-262.72 350,-254 351.04,-244.28 351.04,-241.72 350,-232 348.64,-219.32 345.22,-205.02 342.76,-195.77"/>
<polygon fill="midnightblue" stroke="midnightblue" points="341.8,-279.68 342.76,-290.23 348.59,-281.38 341.8,-279.68"/>
</g>
<!-- Node2&#45;&gt;Node3 -->
<g id="edge2" class="edge">
<title>Node2&#45;&gt;Node3</title>
<path fill="none" stroke="midnightblue" d="M321.48,-223.04C326.08,-213.83 331.42,-203.16 335.18,-195.64"/>
<polygon fill="midnightblue" stroke="midnightblue" points="318.22,-221.74 316.88,-232.25 324.48,-224.87 318.22,-221.74"/>
</g>
<!-- Node4 -->
<g id="node4" class="node">
<title>Node4</title>
<g id="a_node4"><a xlink:href="markov_passwords_8h.html" target="_top" xlink:title=" ">
<polygon fill="none" stroke="black" points="145,-116.5 145,-137.5 279,-137.5 279,-116.5 145,-116.5"/>
<text text-anchor="middle" x="212" y="-123.9" font-family="Helvetica,sans-Serif" font-size="12.00">markovPasswords.h</text>
</a>
</g>
</g>
<!-- Node3&#45;&gt;Node4 -->
<g id="edge3" class="edge">
<title>Node3&#45;&gt;Node4</title>
<path fill="none" stroke="midnightblue" d="M308.57,-170.25C285.32,-160.08 254.26,-146.49 233.72,-137.5"/>
<polygon fill="midnightblue" stroke="midnightblue" points="307.43,-173.57 318,-174.37 310.24,-167.16 307.43,-173.57"/>
</g>
<!-- Node11 -->
<g id="node11" class="node">
<title>Node11</title>
<g id="a_node11"><a xlink:href="dllmain_8cpp.html" target="_top" xlink:title=" ">
<polygon fill="none" stroke="black" points="297,-116.5 297,-137.5 383,-137.5 383,-116.5 297,-116.5"/>
<text text-anchor="middle" x="340" y="-123.9" font-family="Helvetica,sans-Serif" font-size="12.00">dllmain.cpp</text>
</a>
</g>
</g>
<!-- Node3&#45;&gt;Node11 -->
<g id="edge11" class="edge">
<title>Node3&#45;&gt;Node11</title>
<path fill="none" stroke="midnightblue" d="M340,-164.16C340,-155.16 340,-144.92 340,-137.64"/>
<polygon fill="midnightblue" stroke="midnightblue" points="336.5,-164.25 340,-174.25 343.5,-164.25 336.5,-164.25"/>
</g>
<!-- Node12 -->
<g id="node12" class="node">
<title>Node12</title>
<g id="a_node12"><a xlink:href="_unit_tests_8cpp.html" target="_top" xlink:title=" ">
<polygon fill="none" stroke="black" points="401.5,-116.5 401.5,-137.5 496.5,-137.5 496.5,-116.5 401.5,-116.5"/>
<text text-anchor="middle" x="449" y="-123.9" font-family="Helvetica,sans-Serif" font-size="12.00">UnitTests.cpp</text>
</a>
</g>
</g>
<!-- Node3&#45;&gt;Node12 -->
<g id="edge12" class="edge">
<title>Node3&#45;&gt;Node12</title>
<path fill="none" stroke="midnightblue" d="M368.03,-169.6C387.57,-159.56 413.11,-146.44 430.23,-137.64"/>
<polygon fill="midnightblue" stroke="midnightblue" points="366.28,-166.56 358.99,-174.25 369.48,-172.79 366.28,-166.56"/>
</g>
<!-- Node5 -->
<g id="node5" class="node">
<title>Node5</title>
<g id="a_node5"><a xlink:href="src_2main_8cpp.html" target="_top" xlink:title=" ">
<polygon fill="none" stroke="black" points="0,-0.5 0,-21.5 72,-21.5 72,-0.5 0,-0.5"/>
<text text-anchor="middle" x="36" y="-7.9" font-family="Helvetica,sans-Serif" font-size="12.00">main.cpp</text>
</a>
</g>
</g>
<!-- Node4&#45;&gt;Node5 -->
<g id="edge4" class="edge">
<title>Node4&#45;&gt;Node5</title>
<path fill="none" stroke="midnightblue" d="M149.67,-113.76C125.76,-106.8 99.37,-96.13 79,-80 59.07,-64.21 45.75,-36.5 39.71,-21.8"/>
<polygon fill="midnightblue" stroke="midnightblue" points="148.81,-117.16 159.38,-116.43 150.67,-110.41 148.81,-117.16"/>
</g>
<!-- Node6 -->
<g id="node6" class="node">
<title>Node6</title>
<g id="a_node6"><a xlink:href="model_matrix_8h.html" target="_top" xlink:title=" ">
<polygon fill="none" stroke="black" points="88.5,-58.5 88.5,-79.5 191.5,-79.5 191.5,-58.5 88.5,-58.5"/>
<text text-anchor="middle" x="140" y="-65.9" font-family="Helvetica,sans-Serif" font-size="12.00">modelMatrix.h</text>
</a>
</g>
</g>
<!-- Node4&#45;&gt;Node6 -->
<g id="edge5" class="edge">
<title>Node4&#45;&gt;Node6</title>
<path fill="none" stroke="midnightblue" d="M191.34,-109.93C178.75,-100.14 163.09,-87.96 152.4,-79.64"/>
<polygon fill="midnightblue" stroke="midnightblue" points="189.42,-112.87 199.46,-116.25 193.71,-107.34 189.42,-112.87"/>
</g>
<!-- Node9 -->
<g id="node9" class="node">
<title>Node9</title>
<g id="a_node9"><a xlink:href="markov_passwords_8cpp.html" target="_top" xlink:title=" ">
<polygon fill="none" stroke="black" points="209.5,-58.5 209.5,-79.5 358.5,-79.5 358.5,-58.5 209.5,-58.5"/>
<text text-anchor="middle" x="284" y="-65.9" font-family="Helvetica,sans-Serif" font-size="12.00">markovPasswords.cpp</text>
</a>
</g>
</g>
<!-- Node4&#45;&gt;Node9 -->
<g id="edge9" class="edge">
<title>Node4&#45;&gt;Node9</title>
<path fill="none" stroke="midnightblue" d="M232.66,-109.93C245.25,-100.14 260.91,-87.96 271.6,-79.64"/>
<polygon fill="midnightblue" stroke="midnightblue" points="230.29,-107.34 224.54,-116.25 234.58,-112.87 230.29,-107.34"/>
</g>
<!-- Node10 -->
<g id="node10" class="node">
<title>Node10</title>
<g id="a_node10"><a xlink:href="markopy_8cpp.html" target="_top" xlink:title=" ">
<polygon fill="none" stroke="black" points="377,-58.5 377,-79.5 471,-79.5 471,-58.5 377,-58.5"/>
<text text-anchor="middle" x="424" y="-65.9" font-family="Helvetica,sans-Serif" font-size="12.00">markopy.cpp</text>
</a>
</g>
</g>
<!-- Node4&#45;&gt;Node10 -->
<g id="edge10" class="edge">
<title>Node4&#45;&gt;Node10</title>
<path fill="none" stroke="midnightblue" d="M258.49,-113.72C297.47,-103.42 352.34,-88.93 388.03,-79.5"/>
<polygon fill="midnightblue" stroke="midnightblue" points="257.22,-110.44 248.44,-116.37 259.01,-117.2 257.22,-110.44"/>
</g>
<!-- Node6&#45;&gt;Node5 -->
<g id="edge6" class="edge">
<title>Node6&#45;&gt;Node5</title>
<path fill="none" stroke="midnightblue" d="M113,-53.46C94.39,-43.44 70.17,-30.4 53.91,-21.64"/>
<polygon fill="midnightblue" stroke="midnightblue" points="111.42,-56.59 121.88,-58.25 114.74,-50.42 111.42,-56.59"/>
</g>
<!-- Node7 -->
<g id="node7" class="node">
<title>Node7</title>
<g id="a_node7"><a xlink:href="model_matrix_8cpp.html" target="_top" xlink:title=" ">
<polygon fill="none" stroke="black" points="90.5,-0.5 90.5,-21.5 207.5,-21.5 207.5,-0.5 90.5,-0.5"/>
<text text-anchor="middle" x="149" y="-7.9" font-family="Helvetica,sans-Serif" font-size="12.00">modelMatrix.cpp</text>
</a>
</g>
</g>
<!-- Node6&#45;&gt;Node7 -->
<g id="edge7" class="edge">
<title>Node6&#45;&gt;Node7</title>
<path fill="none" stroke="midnightblue" d="M143.19,-48.16C144.64,-39.16 146.28,-28.92 147.45,-21.64"/>
<polygon fill="midnightblue" stroke="midnightblue" points="139.7,-47.82 141.57,-58.25 146.61,-48.93 139.7,-47.82"/>
</g>
<!-- Node8 -->
<g id="node8" class="node">
<title>Node8</title>
<g id="a_node8"><a xlink:href="cuda_model_matrix_8h.html" target="_top" xlink:title=" ">
<polygon fill="none" stroke="black" points="225.5,-0.5 225.5,-21.5 356.5,-21.5 356.5,-0.5 225.5,-0.5"/>
<text text-anchor="middle" x="291" y="-7.9" font-family="Helvetica,sans-Serif" font-size="12.00">cudaModelMatrix.h</text>
</a>
</g>
</g>
<!-- Node6&#45;&gt;Node8 -->
<g id="edge8" class="edge">
<title>Node6&#45;&gt;Node8</title>
<path fill="none" stroke="midnightblue" d="M175.62,-54.79C203.19,-44.56 240.71,-30.65 265.38,-21.5"/>
<polygon fill="midnightblue" stroke="midnightblue" points="174.12,-51.61 165.96,-58.37 176.55,-58.18 174.12,-51.61"/>
</g>
</g>
</svg>
