<?xml version="1.0" encoding="UTF-8" standalone="no"?>
<!DOCTYPE svg PUBLIC "-//W3C//DTD SVG 1.1//EN"
 "http://www.w3.org/Graphics/SVG/1.1/DTD/svg11.dtd">
<!-- Generated by graphviz version 2.43.0 (0)
 -->
<!-- Title: edge.h Pages: 1 -->
<svg width="144pt" height="88pt"
 viewBox="0.00 0.00 143.50 88.00" xmlns="http://www.w3.org/2000/svg" xmlns:xlink="http://www.w3.org/1999/xlink">
<g id="graph0" class="graph" transform="scale(1 1) rotate(0) translate(4 84)">
<title>edge.h</title>
<!-- Node1 -->
<g id="node1" class="node">
<title>Node1</title>
<g id="a_node1"><a xlink:title="Edge class template.">
<polygon fill="#bfbfbf" stroke="black" points="37,-58.5 37,-79.5 95,-79.5 95,-58.5 37,-58.5"/>
<text text-anchor="middle" x="66" y="-65.9" font-family="Helvetica,sans-Serif" font-size="12.00">edge.h</text>
</a>
</g>
</g>
<!-- Node2 -->
<g id="node2" class="node">
<title>Node2</title>
<g id="a_node2"><a xlink:title=" ">
<polygon fill="none" stroke="#bfbfbf" points="0,-0.5 0,-21.5 56,-21.5 56,-0.5 0,-0.5"/>
<text text-anchor="middle" x="28" y="-7.9" font-family="Helvetica,sans-Serif" font-size="12.00">cstdint</text>
</a>
</g>
</g>
<!-- Node1&#45;&gt;Node2 -->
<g id="edge1" class="edge">
<title>Node1&#45;&gt;Node2</title>
<path fill="none" stroke="midnightblue" d="M59.38,-58.25C54.1,-50.46 46.55,-39.33 40.18,-29.94"/>
<polygon fill="midnightblue" stroke="midnightblue" points="43.05,-27.95 34.54,-21.64 37.26,-31.88 43.05,-27.95"/>
</g>
<!-- Node3 -->
<g id="node3" class="node">
<title>Node3</title>
<g id="a_node3"><a xlink:title=" ">
<polygon fill="none" stroke="#bfbfbf" points="74.5,-0.5 74.5,-21.5 135.5,-21.5 135.5,-0.5 74.5,-0.5"/>
<text text-anchor="middle" x="105" y="-7.9" font-family="Helvetica,sans-Serif" font-size="12.00">cstddef</text>
</a>
</g>
</g>
<!-- Node1&#45;&gt;Node3 -->
<g id="edge2" class="edge">
<title>Node1&#45;&gt;Node3</title>
<path fill="none" stroke="midnightblue" d="M72.79,-58.25C78.22,-50.46 85.97,-39.33 92.5,-29.94"/>
<polygon fill="midnightblue" stroke="midnightblue" points="95.44,-31.85 98.28,-21.64 89.7,-27.85 95.44,-31.85"/>
</g>
</g>
</svg>
