<?xml version="1.0" encoding="UTF-8" standalone="no"?>
<!DOCTYPE svg PUBLIC "-//W3C//DTD SVG 1.1//EN"
 "http://www.w3.org/Graphics/SVG/1.1/DTD/svg11.dtd">
<!-- Generated by graphviz version 2.43.0 (0)
 -->
<!-- Title: Markopy/MarkovModel/src/edge.h Pages: 1 -->
<!--zoomable 469 -->
<svg id="main" version="1.1" xmlns="http://www.w3.org/2000/svg" xmlns:xlink="http://www.w3.org/1999/xlink" xml:space="preserve" onload="init(evt)">
<style type="text/css"><![CDATA[
.edge:hover path { stroke: red; }
.edge:hover polygon { stroke: red; fill: red; }
]]></style>
<script type="text/javascript"><![CDATA[
var edges = document.getElementsByTagName('g');
if (edges && edges.length) {
  for (var i=0;i<edges.length;i++) {
    if (edges[i].id.substr(0,4)=='edge') {
      edges[i].setAttribute('class','edge');
    }
  }
}
]]></script>
        <defs>
                <circle id="rim" cx="0" cy="0" r="7"/>
                <circle id="rim2" cx="0" cy="0" r="3.5"/>
                <g id="zoomPlus">
                        <use xlink:href="#rim" fill="#404040">
                                <set attributeName="fill" to="#808080" begin="zoomplus.mouseover" end="zoomplus.mouseout"/>
                        </use>
                        <path d="M-4,0h8M0,-4v8" fill="none" stroke="white" stroke-width="1.5" pointer-events="none"/>
                </g>
                <g id="zoomMin">
                        <use xlink:href="#rim" fill="#404040">
                                <set attributeName="fill" to="#808080" begin="zoomminus.mouseover" end="zoomminus.mouseout"/>
                        </use>
                        <path d="M-4,0h8" fill="none" stroke="white" stroke-width="1.5" pointer-events="none"/>
                </g>
                <g id="dirArrow">
                        <path fill="none" stroke="white" stroke-width="1.5" d="M0,-3.0v7 M-2.5,-0.5L0,-3.0L2.5,-0.5"/>
                </g>
               <g id="resetDef">
                       <use xlink:href="#rim2" fill="#404040">
                               <set attributeName="fill" to="#808080" begin="reset.mouseover" end="reset.mouseout"/>
                       </use>
               </g>
        </defs>

<script type="text/javascript">
var viewWidth = 931;
var viewHeight = 469;
var sectionId = 'dynsection-1';
</script>
<script xlink:href="svgpan.js"/>
<svg id="graph" class="graph">
<g id="viewport">
<title>Markopy/MarkovModel/src/edge.h</title>
<!-- Node1 -->
<g id="node1" class="node">
<title>Node1</title>
<g id="a_node1"><a xlink:title="Edge class template.">
<polygon fill="#bfbfbf" stroke="black" points="216.5,-426.5 216.5,-460.5 368.5,-460.5 368.5,-426.5 216.5,-426.5"/>
<text text-anchor="start" x="224.5" y="-446.9" font-family="Helvetica,sans-Serif" font-size="12.00">Markopy/MarkovModel</text>
<text text-anchor="middle" x="292.5" y="-433.9" font-family="Helvetica,sans-Serif" font-size="12.00">/src/edge.h</text>
</a>
</g>
</g>
<!-- Node2 -->
<g id="node2" class="node">
<title>Node2</title>
<g id="a_node2"><a xlink:href="model_8h.html" target="_top" xlink:title="Model class template.">
<polygon fill="none" stroke="black" points="216.5,-284.5 216.5,-318.5 368.5,-318.5 368.5,-284.5 216.5,-284.5"/>
<text text-anchor="start" x="224.5" y="-304.9" font-family="Helvetica,sans-Serif" font-size="12.00">Markopy/MarkovModel</text>
<text text-anchor="middle" x="292.5" y="-291.9" font-family="Helvetica,sans-Serif" font-size="12.00">/src/model.h</text>
</a>
</g>
</g>
<!-- Node1&#45;&gt;Node2 -->
<g id="edge1" class="edge">
<title>Node1&#45;&gt;Node2</title>
<path fill="none" stroke="midnightblue" d="M273.12,-417.98C267.61,-409.59 262.33,-399.83 259.5,-390 255.19,-375.05 255.19,-369.95 259.5,-355 263.32,-341.76 271.57,-328.63 278.86,-318.82"/>
<polygon fill="midnightblue" stroke="midnightblue" points="270.26,-420 278.86,-426.18 275.99,-415.98 270.26,-420"/>
</g>
<!-- Node17 -->
<g id="node17" class="node">
<title>Node17</title>
<g id="a_node17"><a xlink:href="node_8h.html" target="_top" xlink:title="Node class template.">
<polygon fill="none" stroke="black" points="268.5,-355.5 268.5,-389.5 420.5,-389.5 420.5,-355.5 268.5,-355.5"/>
<text text-anchor="start" x="276.5" y="-375.9" font-family="Helvetica,sans-Serif" font-size="12.00">Markopy/MarkovModel</text>
<text text-anchor="middle" x="344.5" y="-362.9" font-family="Helvetica,sans-Serif" font-size="12.00">/src/node.h</text>
</a>
</g>
</g>
<!-- Node1&#45;&gt;Node17 -->
<g id="edge17" class="edge">
<title>Node1&#45;&gt;Node17</title>
<path fill="none" stroke="midnightblue" d="M310.76,-418.28C317.83,-408.88 325.76,-398.37 332.14,-389.9"/>
<polygon fill="midnightblue" stroke="midnightblue" points="307.78,-416.4 304.56,-426.5 313.37,-420.62 307.78,-416.4"/>
</g>
<!-- Node3 -->
<g id="node3" class="node">
<title>Node3</title>
<g id="a_node3"><a xlink:href="dllmain_8cpp.html" target="_top" xlink:title="DLLMain for dynamic windows library.">
<polygon fill="none" stroke="black" points="43.5,-213.5 43.5,-247.5 195.5,-247.5 195.5,-213.5 43.5,-213.5"/>
<text text-anchor="start" x="51.5" y="-233.9" font-family="Helvetica,sans-Serif" font-size="12.00">Markopy/MarkovModel</text>
<text text-anchor="middle" x="119.5" y="-220.9" font-family="Helvetica,sans-Serif" font-size="12.00">/src/dllmain.cpp</text>
</a>
</g>
</g>
<!-- Node2&#45;&gt;Node3 -->
<g id="edge2" class="edge">
<title>Node2&#45;&gt;Node3</title>
<path fill="none" stroke="midnightblue" d="M242.93,-280.73C216.55,-270.21 184.52,-257.43 159.71,-247.54"/>
<polygon fill="midnightblue" stroke="midnightblue" points="241.79,-284.04 252.38,-284.5 244.38,-277.54 241.79,-284.04"/>
</g>
<!-- Node4 -->
<g id="node4" class="node">
<title>Node4</title>
<g id="a_node4"><a xlink:href="markov_passwords_8h.html" target="_top" xlink:title="Wrapper for Markov::Model to use with char represented models.">
<polygon fill="none" stroke="black" points="214,-213.5 214,-247.5 371,-247.5 371,-213.5 214,-213.5"/>
<text text-anchor="start" x="222" y="-233.9" font-family="Helvetica,sans-Serif" font-size="12.00">Markopy/MarkovAPI/src</text>
<text text-anchor="middle" x="292.5" y="-220.9" font-family="Helvetica,sans-Serif" font-size="12.00">/markovPasswords.h</text>
</a>
</g>
</g>
<!-- Node2&#45;&gt;Node4 -->
<g id="edge3" class="edge">
<title>Node2&#45;&gt;Node4</title>
<path fill="none" stroke="midnightblue" d="M292.5,-274.25C292.5,-265.39 292.5,-255.77 292.5,-247.9"/>
<polygon fill="midnightblue" stroke="midnightblue" points="289,-274.5 292.5,-284.5 296,-274.5 289,-274.5"/>
</g>
<!-- Node16 -->
<g id="node16" class="node">
<title>Node16</title>
<g id="a_node16"><a xlink:href="_unit_tests_8cpp.html" target="_top" xlink:title="Unit tests with Microsoft::VisualStudio::CppUnitTestFramework.">
<polygon fill="none" stroke="black" points="389.5,-220 389.5,-241 595.5,-241 595.5,-220 389.5,-220"/>
<text text-anchor="middle" x="492.5" y="-227.4" font-family="Helvetica,sans-Serif" font-size="12.00">Markopy/UnitTests/UnitTests.cpp</text>
</a>
</g>
</g>
<!-- Node2&#45;&gt;Node16 -->
<g id="edge16" class="edge">
<title>Node2&#45;&gt;Node16</title>
<path fill="none" stroke="midnightblue" d="M348.78,-281.08C386.68,-268.01 435.01,-251.33 464.85,-241.04"/>
<polygon fill="midnightblue" stroke="midnightblue" points="347.2,-277.93 338.89,-284.5 349.48,-284.54 347.2,-277.93"/>
</g>
<!-- Node5 -->
<g id="node5" class="node">
<title>Node5</title>
<g id="a_node5"><a xlink:href="markov_passwords_8cpp.html" target="_top" xlink:title="Wrapper for Markov::Model to use with char represented models.">
<polygon fill="none" stroke="black" points="0,-142.5 0,-176.5 157,-176.5 157,-142.5 0,-142.5"/>
<text text-anchor="start" x="8" y="-162.9" font-family="Helvetica,sans-Serif" font-size="12.00">Markopy/MarkovAPI/src</text>
<text text-anchor="middle" x="78.5" y="-149.9" font-family="Helvetica,sans-Serif" font-size="12.00">/markovPasswords.cpp</text>
</a>
</g>
</g>
<!-- Node4&#45;&gt;Node5 -->
<g id="edge4" class="edge">
<title>Node4&#45;&gt;Node5</title>
<path fill="none" stroke="midnightblue" d="M233.32,-210.42C200.29,-199.77 159.61,-186.65 128.23,-176.54"/>
<polygon fill="midnightblue" stroke="midnightblue" points="232.27,-213.76 242.87,-213.5 234.42,-207.1 232.27,-213.76"/>
</g>
<!-- Node6 -->
<g id="node6" class="node">
<title>Node6</title>
<g id="a_node6"><a xlink:href="model_matrix_8h.html" target="_top" xlink:title="An extension of Markov::API::MarkovPasswords.">
<polygon fill="none" stroke="black" points="214,-142.5 214,-176.5 371,-176.5 371,-142.5 214,-142.5"/>
<text text-anchor="start" x="222" y="-162.9" font-family="Helvetica,sans-Serif" font-size="12.00">Markopy/MarkovAPI/src</text>
<text text-anchor="middle" x="292.5" y="-149.9" font-family="Helvetica,sans-Serif" font-size="12.00">/modelMatrix.h</text>
</a>
</g>
</g>
<!-- Node4&#45;&gt;Node6 -->
<g id="edge5" class="edge">
<title>Node4&#45;&gt;Node6</title>
<path fill="none" stroke="midnightblue" d="M292.5,-203.25C292.5,-194.39 292.5,-184.77 292.5,-176.9"/>
<polygon fill="midnightblue" stroke="midnightblue" points="289,-203.5 292.5,-213.5 296,-203.5 289,-203.5"/>
</g>
<!-- Node8 -->
<g id="node8" class="node">
<title>Node8</title>
<g id="a_node8"><a xlink:href="_markov_a_p_i_c_l_i_2src_2main_8cpp.html" target="_top" xlink:title="Test cases for Markov::API::ModelMatrix.">
<polygon fill="none" stroke="black" points="41,-71.5 41,-105.5 196,-105.5 196,-71.5 41,-71.5"/>
<text text-anchor="start" x="49" y="-91.9" font-family="Helvetica,sans-Serif" font-size="12.00">Markopy/MarkovAPICLI</text>
<text text-anchor="middle" x="118.5" y="-78.9" font-family="Helvetica,sans-Serif" font-size="12.00">/src/main.cpp</text>
</a>
</g>
</g>
<!-- Node4&#45;&gt;Node8 -->
<g id="edge13" class="edge">
<title>Node4&#45;&gt;Node8</title>
<path fill="none" stroke="midnightblue" d="M252.24,-208.38C236.74,-199.51 219.23,-188.58 204.5,-177 176.36,-154.89 148.12,-124.12 132.03,-105.57"/>
<polygon fill="midnightblue" stroke="midnightblue" points="250.67,-211.51 261.1,-213.35 254.09,-205.4 250.67,-211.51"/>
</g>
<!-- Node14 -->
<g id="node14" class="node">
<title>Node14</title>
<g id="a_node14"><a xlink:href="_generate_8cpp.html" target="_top" xlink:title="Generation Page.">
<polygon fill="none" stroke="black" points="389,-142.5 389,-176.5 588,-176.5 588,-142.5 389,-142.5"/>
<text text-anchor="start" x="397" y="-162.9" font-family="Helvetica,sans-Serif" font-size="12.00">Markopy/MarkovPasswordsGUI</text>
<text text-anchor="middle" x="488.5" y="-149.9" font-family="Helvetica,sans-Serif" font-size="12.00">/src/Generate.cpp</text>
</a>
</g>
</g>
<!-- Node4&#45;&gt;Node14 -->
<g id="edge14" class="edge">
<title>Node4&#45;&gt;Node14</title>
<path fill="none" stroke="midnightblue" d="M347.48,-210.15C377.59,-199.55 414.46,-186.57 442.95,-176.54"/>
<polygon fill="midnightblue" stroke="midnightblue" points="346.23,-206.87 337.96,-213.5 348.55,-213.48 346.23,-206.87"/>
</g>
<!-- Node15 -->
<g id="node15" class="node">
<title>Node15</title>
<g id="a_node15"><a xlink:href="_train_8cpp.html" target="_top" xlink:title="training page for GUI">
<polygon fill="none" stroke="black" points="606,-142.5 606,-176.5 805,-176.5 805,-142.5 606,-142.5"/>
<text text-anchor="start" x="614" y="-162.9" font-family="Helvetica,sans-Serif" font-size="12.00">Markopy/MarkovPasswordsGUI</text>
<text text-anchor="middle" x="705.5" y="-149.9" font-family="Helvetica,sans-Serif" font-size="12.00">/src/Train.cpp</text>
</a>
</g>
</g>
<!-- Node4&#45;&gt;Node15 -->
<g id="edge15" class="edge">
<title>Node4&#45;&gt;Node15</title>
<path fill="none" stroke="midnightblue" d="M381.1,-212.92C462.6,-198.77 543.97,-185.67 605.82,-175.94"/>
<polygon fill="midnightblue" stroke="midnightblue" points="380.42,-209.48 371.16,-214.65 381.62,-216.38 380.42,-209.48"/>
</g>
<!-- Node7 -->
<g id="node7" class="node">
<title>Node7</title>
<g id="a_node7"><a xlink:href="model_matrix_8cpp.html" target="_top" xlink:title="An extension of Markov::API::MarkovPasswords.">
<polygon fill="none" stroke="black" points="214,-71.5 214,-105.5 371,-105.5 371,-71.5 214,-71.5"/>
<text text-anchor="start" x="222" y="-91.9" font-family="Helvetica,sans-Serif" font-size="12.00">Markopy/MarkovAPI/src</text>
<text text-anchor="middle" x="292.5" y="-78.9" font-family="Helvetica,sans-Serif" font-size="12.00">/modelMatrix.cpp</text>
</a>
</g>
</g>
<!-- Node6&#45;&gt;Node7 -->
<g id="edge6" class="edge">
<title>Node6&#45;&gt;Node7</title>
<path fill="none" stroke="midnightblue" d="M292.5,-132.25C292.5,-123.39 292.5,-113.77 292.5,-105.9"/>
<polygon fill="midnightblue" stroke="midnightblue" points="289,-132.5 292.5,-142.5 296,-132.5 289,-132.5"/>
</g>
<!-- Node6&#45;&gt;Node8 -->
<g id="edge7" class="edge">
<title>Node6&#45;&gt;Node8</title>
<path fill="none" stroke="midnightblue" d="M242.65,-138.73C216.11,-128.21 183.9,-115.43 158.94,-105.54"/>
<polygon fill="midnightblue" stroke="midnightblue" points="241.56,-142.06 252.14,-142.5 244.14,-135.56 241.56,-142.06"/>
</g>
<!-- Node9 -->
<g id="node9" class="node">
<title>Node9</title>
<g id="a_node9"><a xlink:href="markopy_8cpp.html" target="_top" xlink:title="CPython wrapper for libmarkov utils.">
<polygon fill="none" stroke="black" points="389,-71.5 389,-105.5 534,-105.5 534,-71.5 389,-71.5"/>
<text text-anchor="start" x="397" y="-91.9" font-family="Helvetica,sans-Serif" font-size="12.00">Markopy/Markopy/src</text>
<text text-anchor="middle" x="461.5" y="-78.9" font-family="Helvetica,sans-Serif" font-size="12.00">/Module/markopy.cpp</text>
</a>
</g>
</g>
<!-- Node6&#45;&gt;Node9 -->
<g id="edge8" class="edge">
<title>Node6&#45;&gt;Node9</title>
<path fill="none" stroke="midnightblue" d="M341.26,-138.59C366.97,-128.1 398.08,-115.39 422.22,-105.54"/>
<polygon fill="midnightblue" stroke="midnightblue" points="339.63,-135.48 331.7,-142.5 342.28,-141.96 339.63,-135.48"/>
</g>
<!-- Node10 -->
<g id="node10" class="node">
<title>Node10</title>
<g id="a_node10"><a xlink:href="cuda_model_matrix_8h.html" target="_top" xlink:title="CUDA accelerated extension of Markov::API::ModelMatrix.">
<polygon fill="none" stroke="black" points="552,-71.5 552,-105.5 719,-105.5 719,-71.5 552,-71.5"/>
<text text-anchor="start" x="560" y="-91.9" font-family="Helvetica,sans-Serif" font-size="12.00">Markopy/CudaMarkovAPI</text>
<text text-anchor="middle" x="635.5" y="-78.9" font-family="Helvetica,sans-Serif" font-size="12.00">/src/cudaModelMatrix.h</text>
</a>
</g>
</g>
<!-- Node6&#45;&gt;Node10 -->
<g id="edge9" class="edge">
<title>Node6&#45;&gt;Node10</title>
<path fill="none" stroke="midnightblue" d="M381.09,-140.68C435.04,-129.82 503.42,-116.07 555.69,-105.56"/>
<polygon fill="midnightblue" stroke="midnightblue" points="380.3,-137.27 371.19,-142.67 381.69,-144.13 380.3,-137.27"/>
</g>
<!-- Node11 -->
<g id="node11" class="node">
<title>Node11</title>
<g id="a_node11"><a xlink:href="cuda_model_matrix_8cu.html" target="_top" xlink:title="CUDA accelerated extension of Markov::API::ModelMatrix.">
<polygon fill="none" stroke="black" points="367,-0.5 367,-34.5 534,-34.5 534,-0.5 367,-0.5"/>
<text text-anchor="start" x="375" y="-20.9" font-family="Helvetica,sans-Serif" font-size="12.00">Markopy/CudaMarkovAPI</text>
<text text-anchor="middle" x="450.5" y="-7.9" font-family="Helvetica,sans-Serif" font-size="12.00">/src/cudaModelMatrix.cu</text>
</a>
</g>
</g>
<!-- Node10&#45;&gt;Node11 -->
<g id="edge10" class="edge">
<title>Node10&#45;&gt;Node11</title>
<path fill="none" stroke="midnightblue" d="M582.87,-67.87C554.58,-57.32 520.15,-44.48 493.5,-34.54"/>
<polygon fill="midnightblue" stroke="midnightblue" points="582,-71.28 592.59,-71.5 584.45,-64.72 582,-71.28"/>
</g>
<!-- Node12 -->
<g id="node12" class="node">
<title>Node12</title>
<g id="a_node12"><a xlink:href="main_8cu.html" target="_top" xlink:title="Simple test file to check libcudamarkov.">
<polygon fill="none" stroke="black" points="552,-0.5 552,-34.5 719,-34.5 719,-0.5 552,-0.5"/>
<text text-anchor="start" x="560" y="-20.9" font-family="Helvetica,sans-Serif" font-size="12.00">Markopy/CudaMarkovAPI</text>
<text text-anchor="middle" x="635.5" y="-7.9" font-family="Helvetica,sans-Serif" font-size="12.00">/src/main.cu</text>
</a>
</g>
</g>
<!-- Node10&#45;&gt;Node12 -->
<g id="edge11" class="edge">
<title>Node10&#45;&gt;Node12</title>
<path fill="none" stroke="midnightblue" d="M635.5,-61.25C635.5,-52.39 635.5,-42.77 635.5,-34.9"/>
<polygon fill="midnightblue" stroke="midnightblue" points="632,-61.5 635.5,-71.5 639,-61.5 632,-61.5"/>
</g>
<!-- Node13 -->
<g id="node13" class="node">
<title>Node13</title>
<g id="a_node13"><a xlink:href="cuda_markopy_8cu.html" target="_top" xlink:title=" ">
<polygon fill="none" stroke="black" points="736.5,-0.5 736.5,-34.5 922.5,-34.5 922.5,-0.5 736.5,-0.5"/>
<text text-anchor="start" x="744.5" y="-20.9" font-family="Helvetica,sans-Serif" font-size="12.00">Markopy/CudaMarkopy</text>
<text text-anchor="middle" x="829.5" y="-7.9" font-family="Helvetica,sans-Serif" font-size="12.00">/src/Module/cudaMarkopy.cu</text>
</a>
</g>
</g>
<!-- Node10&#45;&gt;Node13 -->
<g id="edge12" class="edge">
<title>Node10&#45;&gt;Node13</title>
<path fill="none" stroke="midnightblue" d="M689.92,-68.15C719.72,-57.55 756.22,-44.57 784.41,-34.54"/>
<polygon fill="midnightblue" stroke="midnightblue" points="688.74,-64.85 680.5,-71.5 691.09,-71.44 688.74,-64.85"/>
</g>
<!-- Node17&#45;&gt;Node2 -->
<g id="edge18" class="edge">
<title>Node17&#45;&gt;Node2</title>
<path fill="none" stroke="midnightblue" d="M326.24,-347.28C319.17,-337.88 311.24,-327.37 304.86,-318.9"/>
<polygon fill="midnightblue" stroke="midnightblue" points="323.63,-349.62 332.44,-355.5 329.22,-345.4 323.63,-349.62"/>
</g>
</g>
</svg>
        <g id="navigator" transform="translate(0 0)" fill="#404254">
                <rect fill="#f2f5e9" fill-opacity="0.5" stroke="#606060" stroke-width=".5" x="0" y="0" width="60" height="60"/>
                <use id="zoomplus" xlink:href="#zoomPlus" x="17" y="9" onmousedown="handleZoom(evt,'in')"/>
                <use id="zoomminus" xlink:href="#zoomMin" x="42" y="9" onmousedown="handleZoom(evt,'out')"/>
                <use id="reset" xlink:href="#resetDef" x="30" y="36" onmousedown="handleReset()"/>
                <g id="arrowUp" xlink:href="#dirArrow" transform="translate(30 24)" onmousedown="handlePan(0,-1)">
                  <use xlink:href="#rim" fill="#404040">
                        <set attributeName="fill" to="#808080" begin="arrowUp.mouseover" end="arrowUp.mouseout"/>
                  </use>
                  <path fill="none" stroke="white" stroke-width="1.5" d="M0,-3.0v7 M-2.5,-0.5L0,-3.0L2.5,-0.5"/>
                </g>
                <g id="arrowRight" xlink:href="#dirArrow" transform="rotate(90) translate(36 -43)" onmousedown="handlePan(1,0)">
                  <use xlink:href="#rim" fill="#404040">
                        <set attributeName="fill" to="#808080" begin="arrowRight.mouseover" end="arrowRight.mouseout"/>
                  </use>
                  <path fill="none" stroke="white" stroke-width="1.5" d="M0,-3.0v7 M-2.5,-0.5L0,-3.0L2.5,-0.5"/>
                </g>
                <g id="arrowDown" xlink:href="#dirArrow" transform="rotate(180) translate(-30 -48)" onmousedown="handlePan(0,1)">
                  <use xlink:href="#rim" fill="#404040">
                        <set attributeName="fill" to="#808080" begin="arrowDown.mouseover" end="arrowDown.mouseout"/>
                  </use>
                  <path fill="none" stroke="white" stroke-width="1.5" d="M0,-3.0v7 M-2.5,-0.5L0,-3.0L2.5,-0.5"/>
                </g>
                <g id="arrowLeft" xlink:href="#dirArrow" transform="rotate(270) translate(-36 17)" onmousedown="handlePan(-1,0)">
                  <use xlink:href="#rim" fill="#404040">
                        <set attributeName="fill" to="#808080" begin="arrowLeft.mouseover" end="arrowLeft.mouseout"/>
                  </use>
                  <path fill="none" stroke="white" stroke-width="1.5" d="M0,-3.0v7 M-2.5,-0.5L0,-3.0L2.5,-0.5"/>
                </g>
        </g>
        <svg viewBox="0 0 15 15" width="100%" height="30px" preserveAspectRatio="xMaxYMin meet">
         <g id="arrow_out" transform="scale(0.3 0.3)">
          <a xlink:href="edge_8h__dep__incl_org.svg" target="_base">
           <rect id="button" ry="5" rx="5" y="6" x="6" height="38" width="38"
                fill="#f2f5e9" fill-opacity="0.5" stroke="#606060" stroke-width="1.0"/>
           <path id="arrow"
             d="M 11.500037,31.436501 C 11.940474,20.09759 22.043105,11.32322 32.158766,21.979434 L 37.068811,17.246167 C 37.068811,17.246167 37.088388,32 37.088388,32 L 22.160133,31.978069 C 22.160133,31.978069 26.997745,27.140456 26.997745,27.140456 C 18.528582,18.264221 13.291696,25.230495 11.500037,31.436501 z"
             style="fill:#404040;"/>
          </a>
         </g>
        </svg>
</svg>
