<?xml version="1.0" encoding="UTF-8" standalone="no"?>
<!DOCTYPE svg PUBLIC "-//W3C//DTD SVG 1.1//EN"
 "http://www.w3.org/Graphics/SVG/1.1/DTD/svg11.dtd">
<!-- Generated by graphviz version 2.43.0 (0)
 -->
<!-- Title: Markopy/MarkovModel/src/edge.h Pages: 1 -->
<svg width="160pt" height="101pt"
 viewBox="0.00 0.00 160.00 101.00" xmlns="http://www.w3.org/2000/svg" xmlns:xlink="http://www.w3.org/1999/xlink">
<g id="graph0" class="graph" transform="scale(1 1) rotate(0) translate(4 97)">
<title>Markopy/MarkovModel/src/edge.h</title>
<!-- Node1 -->
<g id="node1" class="node">
<title>Node1</title>
<g id="a_node1"><a xlink:title="Edge class template.">
<polygon fill="#bfbfbf" stroke="black" points="0,-58.5 0,-92.5 152,-92.5 152,-58.5 0,-58.5"/>
<text text-anchor="start" x="8" y="-78.9" font-family="Helvetica,sans-Serif" font-size="12.00">Markopy/MarkovModel</text>
<text text-anchor="middle" x="76" y="-65.9" font-family="Helvetica,sans-Serif" font-size="12.00">/src/edge.h</text>
</a>
</g>
</g>
<!-- Node2 -->
<g id="node2" class="node">
<title>Node2</title>
<g id="a_node2"><a xlink:title=" ">
<polygon fill="none" stroke="#bfbfbf" points="10,-0.5 10,-21.5 66,-21.5 66,-0.5 10,-0.5"/>
<text text-anchor="middle" x="38" y="-7.9" font-family="Helvetica,sans-Serif" font-size="12.00">cstdint</text>
</a>
</g>
</g>
<!-- Node1&#45;&gt;Node2 -->
<g id="edge1" class="edge">
<title>Node1&#45;&gt;Node2</title>
<path fill="none" stroke="midnightblue" d="M66.21,-58.4C61.05,-49.91 54.68,-39.43 49.3,-30.59"/>
<polygon fill="midnightblue" stroke="midnightblue" points="52.14,-28.53 43.96,-21.8 46.16,-32.16 52.14,-28.53"/>
</g>
<!-- Node3 -->
<g id="node3" class="node">
<title>Node3</title>
<g id="a_node3"><a xlink:title=" ">
<polygon fill="none" stroke="#bfbfbf" points="84.5,-0.5 84.5,-21.5 145.5,-21.5 145.5,-0.5 84.5,-0.5"/>
<text text-anchor="middle" x="115" y="-7.9" font-family="Helvetica,sans-Serif" font-size="12.00">cstddef</text>
</a>
</g>
</g>
<!-- Node1&#45;&gt;Node3 -->
<g id="edge2" class="edge">
<title>Node1&#45;&gt;Node3</title>
<path fill="none" stroke="midnightblue" d="M86.04,-58.4C91.4,-49.81 98.02,-39.21 103.58,-30.31"/>
<polygon fill="midnightblue" stroke="midnightblue" points="106.56,-32.14 108.88,-21.8 100.62,-28.43 106.56,-32.14"/>
</g>
</g>
</svg>
