<?xml version="1.0" encoding="UTF-8" standalone="no"?>
<!DOCTYPE svg PUBLIC "-//W3C//DTD SVG 1.1//EN"
 "http://www.w3.org/Graphics/SVG/1.1/DTD/svg11.dtd">
<!-- Generated by graphviz version 2.43.0 (0)
 -->
<!-- Title: edge.h Pages: 1 -->
<!--zoomable 378 -->
<svg id="main" version="1.1" xmlns="http://www.w3.org/2000/svg" xmlns:xlink="http://www.w3.org/1999/xlink" xml:space="preserve" onload="init(evt)">
<style type="text/css"><![CDATA[
.edge:hover path { stroke: red; }
.edge:hover polygon { stroke: red; fill: red; }
]]></style>
<script type="text/javascript"><![CDATA[
var edges = document.getElementsByTagName('g');
if (edges && edges.length) {
  for (var i=0;i<edges.length;i++) {
    if (edges[i].id.substr(0,4)=='edge') {
      edges[i].setAttribute('class','edge');
    }
  }
}
]]></script>
        <defs>
                <circle id="rim" cx="0" cy="0" r="7"/>
                <circle id="rim2" cx="0" cy="0" r="3.5"/>
                <g id="zoomPlus">
                        <use xlink:href="#rim" fill="#404040">
                                <set attributeName="fill" to="#808080" begin="zoomplus.mouseover" end="zoomplus.mouseout"/>
                        </use>
                        <path d="M-4,0h8M0,-4v8" fill="none" stroke="white" stroke-width="1.5" pointer-events="none"/>
                </g>
                <g id="zoomMin">
                        <use xlink:href="#rim" fill="#404040">
                                <set attributeName="fill" to="#808080" begin="zoomminus.mouseover" end="zoomminus.mouseout"/>
                        </use>
                        <path d="M-4,0h8" fill="none" stroke="white" stroke-width="1.5" pointer-events="none"/>
                </g>
                <g id="dirArrow">
                        <path fill="none" stroke="white" stroke-width="1.5" d="M0,-3.0v7 M-2.5,-0.5L0,-3.0L2.5,-0.5"/>
                </g>
               <g id="resetDef">
                       <use xlink:href="#rim2" fill="#404040">
                               <set attributeName="fill" to="#808080" begin="reset.mouseover" end="reset.mouseout"/>
                       </use>
               </g>
        </defs>

<script type="text/javascript">
var viewWidth = 612;
var viewHeight = 378;
var sectionId = 'dynsection-1';
</script>
<script xlink:href="svgpan.js"/>
<svg id="graph" class="graph">
<g id="viewport">
<title>edge.h</title>
<!-- Node1 -->
<g id="node1" class="node">
<title>Node1</title>
<g id="a_node1"><a xlink:title="Edge class template.">
<polygon fill="#bfbfbf" stroke="black" points="227.5,-348.5 227.5,-369.5 285.5,-369.5 285.5,-348.5 227.5,-348.5"/>
<text text-anchor="middle" x="256.5" y="-355.9" font-family="Helvetica,sans-Serif" font-size="12.00">edge.h</text>
</a>
</g>
</g>
<!-- Node2 -->
<g id="node2" class="node">
<title>Node2</title>
<g id="a_node2"><a xlink:href="node_8h.html" target="_top" xlink:title="Node class template.">
<polygon fill="none" stroke="black" points="199.5,-290.5 199.5,-311.5 257.5,-311.5 257.5,-290.5 199.5,-290.5"/>
<text text-anchor="middle" x="228.5" y="-297.9" font-family="Helvetica,sans-Serif" font-size="12.00">node.h</text>
</a>
</g>
</g>
<!-- Node1&#45;&gt;Node2 -->
<g id="edge1" class="edge">
<title>Node1&#45;&gt;Node2</title>
<path fill="none" stroke="midnightblue" d="M247.02,-339.04C242.42,-329.83 237.08,-319.16 233.32,-311.64"/>
<polygon fill="midnightblue" stroke="midnightblue" points="244.02,-340.87 251.62,-348.25 250.28,-337.74 244.02,-340.87"/>
</g>
<!-- Node3 -->
<g id="node3" class="node">
<title>Node3</title>
<g id="a_node3"><a xlink:href="model_8h.html" target="_top" xlink:title="Model class template.">
<polygon fill="none" stroke="black" points="224,-232.5 224,-253.5 289,-253.5 289,-232.5 224,-232.5"/>
<text text-anchor="middle" x="256.5" y="-239.9" font-family="Helvetica,sans-Serif" font-size="12.00">model.h</text>
</a>
</g>
</g>
<!-- Node1&#45;&gt;Node3 -->
<g id="edge17" class="edge">
<title>Node1&#45;&gt;Node3</title>
<path fill="none" stroke="midnightblue" d="M261.76,-338.28C263.66,-330.2 265.56,-320.72 266.5,-312 267.54,-302.28 267.54,-299.72 266.5,-290 265.14,-277.32 261.72,-263.02 259.26,-253.77"/>
<polygon fill="midnightblue" stroke="midnightblue" points="258.3,-337.68 259.26,-348.23 265.09,-339.38 258.3,-337.68"/>
</g>
<!-- Node2&#45;&gt;Node3 -->
<g id="edge2" class="edge">
<title>Node2&#45;&gt;Node3</title>
<path fill="none" stroke="midnightblue" d="M237.98,-281.04C242.58,-271.83 247.92,-261.16 251.68,-253.64"/>
<polygon fill="midnightblue" stroke="midnightblue" points="234.72,-279.74 233.38,-290.25 240.98,-282.87 234.72,-279.74"/>
</g>
<!-- Node4 -->
<g id="node4" class="node">
<title>Node4</title>
<g id="a_node4"><a xlink:href="dllmain_8cpp.html" target="_top" xlink:title="DLLMain for dynamic windows library.">
<polygon fill="none" stroke="black" points="85.5,-174.5 85.5,-195.5 171.5,-195.5 171.5,-174.5 85.5,-174.5"/>
<text text-anchor="middle" x="128.5" y="-181.9" font-family="Helvetica,sans-Serif" font-size="12.00">dllmain.cpp</text>
</a>
</g>
</g>
<!-- Node3&#45;&gt;Node4 -->
<g id="edge3" class="edge">
<title>Node3&#45;&gt;Node4</title>
<path fill="none" stroke="midnightblue" d="M225.07,-228.25C201.82,-218.08 170.76,-204.49 150.22,-195.5"/>
<polygon fill="midnightblue" stroke="midnightblue" points="223.93,-231.57 234.5,-232.37 226.74,-225.16 223.93,-231.57"/>
</g>
<!-- Node5 -->
<g id="node5" class="node">
<title>Node5</title>
<g id="a_node5"><a xlink:href="markov_passwords_8h.html" target="_top" xlink:title="Wrapper for Markov::Model to use with char represented models.">
<polygon fill="none" stroke="black" points="189.5,-174.5 189.5,-195.5 323.5,-195.5 323.5,-174.5 189.5,-174.5"/>
<text text-anchor="middle" x="256.5" y="-181.9" font-family="Helvetica,sans-Serif" font-size="12.00">markovPasswords.h</text>
</a>
</g>
</g>
<!-- Node3&#45;&gt;Node5 -->
<g id="edge4" class="edge">
<title>Node3&#45;&gt;Node5</title>
<path fill="none" stroke="midnightblue" d="M256.5,-222.16C256.5,-213.16 256.5,-202.92 256.5,-195.64"/>
<polygon fill="midnightblue" stroke="midnightblue" points="253,-222.25 256.5,-232.25 260,-222.25 253,-222.25"/>
</g>
<!-- Node16 -->
<g id="node16" class="node">
<title>Node16</title>
<g id="a_node16"><a xlink:href="_unit_tests_8cpp.html" target="_top" xlink:title="Unit tests with Microsoft::VisualStudio::CppUnitTestFramework.">
<polygon fill="none" stroke="black" points="342,-174.5 342,-195.5 437,-195.5 437,-174.5 342,-174.5"/>
<text text-anchor="middle" x="389.5" y="-181.9" font-family="Helvetica,sans-Serif" font-size="12.00">UnitTests.cpp</text>
</a>
</g>
</g>
<!-- Node3&#45;&gt;Node16 -->
<g id="edge16" class="edge">
<title>Node3&#45;&gt;Node16</title>
<path fill="none" stroke="midnightblue" d="M288.84,-228.38C313.03,-218.2 345.5,-204.53 366.93,-195.5"/>
<polygon fill="midnightblue" stroke="midnightblue" points="287.22,-225.27 279.36,-232.37 289.94,-231.72 287.22,-225.27"/>
</g>
<!-- Node6 -->
<g id="node6" class="node">
<title>Node6</title>
<g id="a_node6"><a xlink:href="markov_passwords_8cpp.html" target="_top" xlink:title="Wrapper for Markov::Model to use with char represented models.">
<polygon fill="none" stroke="black" points="0,-116.5 0,-137.5 149,-137.5 149,-116.5 0,-116.5"/>
<text text-anchor="middle" x="74.5" y="-123.9" font-family="Helvetica,sans-Serif" font-size="12.00">markovPasswords.cpp</text>
</a>
</g>
</g>
<!-- Node5&#45;&gt;Node6 -->
<g id="edge5" class="edge">
<title>Node5&#45;&gt;Node6</title>
<path fill="none" stroke="midnightblue" d="M215.3,-171.32C181.92,-161.05 135.63,-146.81 105.38,-137.5"/>
<polygon fill="midnightblue" stroke="midnightblue" points="214.63,-174.78 225.21,-174.37 216.68,-168.09 214.63,-174.78"/>
</g>
<!-- Node7 -->
<g id="node7" class="node">
<title>Node7</title>
<g id="a_node7"><a xlink:href="model_matrix_8h.html" target="_top" xlink:title="An extension of Markov::API::MarkovPasswords.">
<polygon fill="none" stroke="black" points="205,-116.5 205,-137.5 308,-137.5 308,-116.5 205,-116.5"/>
<text text-anchor="middle" x="256.5" y="-123.9" font-family="Helvetica,sans-Serif" font-size="12.00">modelMatrix.h</text>
</a>
</g>
</g>
<!-- Node5&#45;&gt;Node7 -->
<g id="edge6" class="edge">
<title>Node5&#45;&gt;Node7</title>
<path fill="none" stroke="midnightblue" d="M256.5,-164.16C256.5,-155.16 256.5,-144.92 256.5,-137.64"/>
<polygon fill="midnightblue" stroke="midnightblue" points="253,-164.25 256.5,-174.25 260,-164.25 253,-164.25"/>
</g>
<!-- Node9 -->
<g id="node9" class="node">
<title>Node9</title>
<g id="a_node9"><a xlink:href="_markov_a_p_i_c_l_i_2src_2main_8cpp.html" target="_top" xlink:title="Test cases for Markov::API::ModelMatrix.">
<polygon fill="none" stroke="black" points="107.5,-58.5 107.5,-79.5 179.5,-79.5 179.5,-58.5 107.5,-58.5"/>
<text text-anchor="middle" x="143.5" y="-65.9" font-family="Helvetica,sans-Serif" font-size="12.00">main.cpp</text>
</a>
</g>
</g>
<!-- Node5&#45;&gt;Node9 -->
<g id="edge13" class="edge">
<title>Node5&#45;&gt;Node9</title>
<path fill="none" stroke="midnightblue" d="M233.04,-168.58C221.17,-160.23 206.9,-149.32 195.5,-138 176.73,-119.36 158.92,-93.76 149.81,-79.9"/>
<polygon fill="midnightblue" stroke="midnightblue" points="231.33,-171.65 241.56,-174.43 235.3,-165.88 231.33,-171.65"/>
</g>
<!-- Node14 -->
<g id="node14" class="node">
<title>Node14</title>
<g id="a_node14"><a xlink:href="_generate_8cpp.html" target="_top" xlink:title="Generation Page.">
<polygon fill="none" stroke="black" points="326.5,-116.5 326.5,-137.5 424.5,-137.5 424.5,-116.5 326.5,-116.5"/>
<text text-anchor="middle" x="375.5" y="-123.9" font-family="Helvetica,sans-Serif" font-size="12.00">Generate.cpp</text>
</a>
</g>
</g>
<!-- Node5&#45;&gt;Node14 -->
<g id="edge14" class="edge">
<title>Node5&#45;&gt;Node14</title>
<path fill="none" stroke="midnightblue" d="M286.01,-170.11C307.59,-159.96 336.3,-146.45 355.31,-137.5"/>
<polygon fill="midnightblue" stroke="midnightblue" points="284.51,-166.95 276.96,-174.37 287.5,-173.28 284.51,-166.95"/>
</g>
<!-- Node15 -->
<g id="node15" class="node">
<title>Node15</title>
<g id="a_node15"><a xlink:href="_train_8cpp.html" target="_top" xlink:title="training page for GUI">
<polygon fill="none" stroke="black" points="443,-116.5 443,-137.5 514,-137.5 514,-116.5 443,-116.5"/>
<text text-anchor="middle" x="478.5" y="-123.9" font-family="Helvetica,sans-Serif" font-size="12.00">Train.cpp</text>
</a>
</g>
</g>
<!-- Node5&#45;&gt;Node15 -->
<g id="edge15" class="edge">
<title>Node5&#45;&gt;Node15</title>
<path fill="none" stroke="midnightblue" d="M304.33,-171.94C345.97,-161.43 405.39,-146.44 442.95,-136.97"/>
<polygon fill="midnightblue" stroke="midnightblue" points="303.25,-168.6 294.41,-174.44 304.96,-175.38 303.25,-168.6"/>
</g>
<!-- Node8 -->
<g id="node8" class="node">
<title>Node8</title>
<g id="a_node8"><a xlink:href="model_matrix_8cpp.html" target="_top" xlink:title="An extension of Markov::API::MarkovPasswords.">
<polygon fill="none" stroke="black" points="198,-58.5 198,-79.5 315,-79.5 315,-58.5 198,-58.5"/>
<text text-anchor="middle" x="256.5" y="-65.9" font-family="Helvetica,sans-Serif" font-size="12.00">modelMatrix.cpp</text>
</a>
</g>
</g>
<!-- Node7&#45;&gt;Node8 -->
<g id="edge7" class="edge">
<title>Node7&#45;&gt;Node8</title>
<path fill="none" stroke="midnightblue" d="M256.5,-106.16C256.5,-97.16 256.5,-86.92 256.5,-79.64"/>
<polygon fill="midnightblue" stroke="midnightblue" points="253,-106.25 256.5,-116.25 260,-106.25 253,-106.25"/>
</g>
<!-- Node7&#45;&gt;Node9 -->
<g id="edge8" class="edge">
<title>Node7&#45;&gt;Node9</title>
<path fill="none" stroke="midnightblue" d="M227.92,-111.84C207.49,-101.71 180.56,-88.37 162.67,-79.5"/>
<polygon fill="midnightblue" stroke="midnightblue" points="226.56,-115.07 237.07,-116.37 229.67,-108.8 226.56,-115.07"/>
</g>
<!-- Node10 -->
<g id="node10" class="node">
<title>Node10</title>
<g id="a_node10"><a xlink:href="markopy_8cpp.html" target="_top" xlink:title="CPython wrapper for libmarkov utils.">
<polygon fill="none" stroke="black" points="333.5,-58.5 333.5,-79.5 427.5,-79.5 427.5,-58.5 333.5,-58.5"/>
<text text-anchor="middle" x="380.5" y="-65.9" font-family="Helvetica,sans-Serif" font-size="12.00">markopy.cpp</text>
</a>
</g>
</g>
<!-- Node7&#45;&gt;Node10 -->
<g id="edge9" class="edge">
<title>Node7&#45;&gt;Node10</title>
<path fill="none" stroke="midnightblue" d="M286.95,-112.25C309.47,-102.08 339.56,-88.49 359.46,-79.5"/>
<polygon fill="midnightblue" stroke="midnightblue" points="285.49,-109.07 277.82,-116.37 288.37,-115.45 285.49,-109.07"/>
</g>
<!-- Node11 -->
<g id="node11" class="node">
<title>Node11</title>
<g id="a_node11"><a xlink:href="cuda_model_matrix_8h.html" target="_top" xlink:title="CUDA accelerated extension of Markov::API::ModelMatrix.">
<polygon fill="none" stroke="black" points="446,-58.5 446,-79.5 577,-79.5 577,-58.5 446,-58.5"/>
<text text-anchor="middle" x="511.5" y="-65.9" font-family="Helvetica,sans-Serif" font-size="12.00">cudaModelMatrix.h</text>
</a>
</g>
</g>
<!-- Node7&#45;&gt;Node11 -->
<g id="edge10" class="edge">
<title>Node7&#45;&gt;Node11</title>
<path fill="none" stroke="midnightblue" d="M310.04,-114.24C357.01,-103.93 424.47,-89.11 468.13,-79.52"/>
<polygon fill="midnightblue" stroke="midnightblue" points="309.06,-110.87 300.05,-116.44 310.56,-117.71 309.06,-110.87"/>
</g>
<!-- Node12 -->
<g id="node12" class="node">
<title>Node12</title>
<g id="a_node12"><a xlink:href="cuda_model_matrix_8cu.html" target="_top" xlink:title="CUDA accelerated extension of Markov::API::ModelMatrix.">
<polygon fill="none" stroke="black" points="384,-0.5 384,-21.5 521,-21.5 521,-0.5 384,-0.5"/>
<text text-anchor="middle" x="452.5" y="-7.9" font-family="Helvetica,sans-Serif" font-size="12.00">cudaModelMatrix.cu</text>
</a>
</g>
</g>
<!-- Node11&#45;&gt;Node12 -->
<g id="edge11" class="edge">
<title>Node11&#45;&gt;Node12</title>
<path fill="none" stroke="midnightblue" d="M493.97,-51.36C483.76,-41.67 471.25,-29.8 462.66,-21.64"/>
<polygon fill="midnightblue" stroke="midnightblue" points="491.56,-53.9 501.22,-58.25 496.38,-48.82 491.56,-53.9"/>
</g>
<!-- Node13 -->
<g id="node13" class="node">
<title>Node13</title>
<g id="a_node13"><a xlink:href="main_8cu.html" target="_top" xlink:title="Simple test file to check libcudamarkov.">
<polygon fill="none" stroke="black" points="539,-0.5 539,-21.5 604,-21.5 604,-0.5 539,-0.5"/>
<text text-anchor="middle" x="571.5" y="-7.9" font-family="Helvetica,sans-Serif" font-size="12.00">main.cu</text>
</a>
</g>
</g>
<!-- Node11&#45;&gt;Node13 -->
<g id="edge12" class="edge">
<title>Node11&#45;&gt;Node13</title>
<path fill="none" stroke="midnightblue" d="M529.33,-51.36C539.71,-41.67 552.43,-29.8 561.17,-21.64"/>
<polygon fill="midnightblue" stroke="midnightblue" points="526.87,-48.86 521.95,-58.25 531.65,-53.98 526.87,-48.86"/>
</g>
</g>
</svg>
        <g id="navigator" transform="translate(0 0)" fill="#404254">
                <rect fill="#f2f5e9" fill-opacity="0.5" stroke="#606060" stroke-width=".5" x="0" y="0" width="60" height="60"/>
                <use id="zoomplus" xlink:href="#zoomPlus" x="17" y="9" onmousedown="handleZoom(evt,'in')"/>
                <use id="zoomminus" xlink:href="#zoomMin" x="42" y="9" onmousedown="handleZoom(evt,'out')"/>
                <use id="reset" xlink:href="#resetDef" x="30" y="36" onmousedown="handleReset()"/>
                <g id="arrowUp" xlink:href="#dirArrow" transform="translate(30 24)" onmousedown="handlePan(0,-1)">
                  <use xlink:href="#rim" fill="#404040">
                        <set attributeName="fill" to="#808080" begin="arrowUp.mouseover" end="arrowUp.mouseout"/>
                  </use>
                  <path fill="none" stroke="white" stroke-width="1.5" d="M0,-3.0v7 M-2.5,-0.5L0,-3.0L2.5,-0.5"/>
                </g>
                <g id="arrowRight" xlink:href="#dirArrow" transform="rotate(90) translate(36 -43)" onmousedown="handlePan(1,0)">
                  <use xlink:href="#rim" fill="#404040">
                        <set attributeName="fill" to="#808080" begin="arrowRight.mouseover" end="arrowRight.mouseout"/>
                  </use>
                  <path fill="none" stroke="white" stroke-width="1.5" d="M0,-3.0v7 M-2.5,-0.5L0,-3.0L2.5,-0.5"/>
                </g>
                <g id="arrowDown" xlink:href="#dirArrow" transform="rotate(180) translate(-30 -48)" onmousedown="handlePan(0,1)">
                  <use xlink:href="#rim" fill="#404040">
                        <set attributeName="fill" to="#808080" begin="arrowDown.mouseover" end="arrowDown.mouseout"/>
                  </use>
                  <path fill="none" stroke="white" stroke-width="1.5" d="M0,-3.0v7 M-2.5,-0.5L0,-3.0L2.5,-0.5"/>
                </g>
                <g id="arrowLeft" xlink:href="#dirArrow" transform="rotate(270) translate(-36 17)" onmousedown="handlePan(-1,0)">
                  <use xlink:href="#rim" fill="#404040">
                        <set attributeName="fill" to="#808080" begin="arrowLeft.mouseover" end="arrowLeft.mouseout"/>
                  </use>
                  <path fill="none" stroke="white" stroke-width="1.5" d="M0,-3.0v7 M-2.5,-0.5L0,-3.0L2.5,-0.5"/>
                </g>
        </g>
        <svg viewBox="0 0 15 15" width="100%" height="30px" preserveAspectRatio="xMaxYMin meet">
         <g id="arrow_out" transform="scale(0.3 0.3)">
          <a xlink:href="edge_8h__dep__incl_org.svg" target="_base">
           <rect id="button" ry="5" rx="5" y="6" x="6" height="38" width="38"
                fill="#f2f5e9" fill-opacity="0.5" stroke="#606060" stroke-width="1.0"/>
           <path id="arrow"
             d="M 11.500037,31.436501 C 11.940474,20.09759 22.043105,11.32322 32.158766,21.979434 L 37.068811,17.246167 C 37.068811,17.246167 37.088388,32 37.088388,32 L 22.160133,31.978069 C 22.160133,31.978069 26.997745,27.140456 26.997745,27.140456 C 18.528582,18.264221 13.291696,25.230495 11.500037,31.436501 z"
             style="fill:#404040;"/>
          </a>
         </g>
        </svg>
</svg>
