<?xml version="1.0" encoding="UTF-8" standalone="no"?>
<!DOCTYPE svg PUBLIC "-//W3C//DTD SVG 1.1//EN"
 "http://www.w3.org/Graphics/SVG/1.1/DTD/svg11.dtd">
<!-- Generated by graphviz version 2.43.0 (0)
 -->
<!-- Title: Markopy/MarkovModel/src/framework.h Pages: 1 -->
<svg width="330pt" height="185pt"
 viewBox="0.00 0.00 330.00 185.00" xmlns="http://www.w3.org/2000/svg" xmlns:xlink="http://www.w3.org/1999/xlink">
<g id="graph0" class="graph" transform="scale(1 1) rotate(0) translate(4 181)">
<title>Markopy/MarkovModel/src/framework.h</title>
<!-- Node1 -->
<g id="node1" class="node">
<title>Node1</title>
<g id="a_node1"><a xlink:title="for windows dynamic library">
<polygon fill="#bfbfbf" stroke="black" points="85,-142.5 85,-176.5 237,-176.5 237,-142.5 85,-142.5"/>
<text text-anchor="start" x="93" y="-162.9" font-family="Helvetica,sans-Serif" font-size="12.00">Markopy/MarkovModel</text>
<text text-anchor="middle" x="161" y="-149.9" font-family="Helvetica,sans-Serif" font-size="12.00">/src/framework.h</text>
</a>
</g>
</g>
<!-- Node2 -->
<g id="node2" class="node">
<title>Node2</title>
<g id="a_node2"><a xlink:href="_markov_model_2src_2pch_8h.html" target="_top" xlink:title="For windows dynamic library.">
<polygon fill="none" stroke="black" points="85,-71.5 85,-105.5 237,-105.5 237,-71.5 85,-71.5"/>
<text text-anchor="start" x="93" y="-91.9" font-family="Helvetica,sans-Serif" font-size="12.00">Markopy/MarkovModel</text>
<text text-anchor="middle" x="161" y="-78.9" font-family="Helvetica,sans-Serif" font-size="12.00">/src/pch.h</text>
</a>
</g>
</g>
<!-- Node1&#45;&gt;Node2 -->
<g id="edge1" class="edge">
<title>Node1&#45;&gt;Node2</title>
<path fill="none" stroke="midnightblue" d="M161,-132.25C161,-123.39 161,-113.77 161,-105.9"/>
<polygon fill="midnightblue" stroke="midnightblue" points="157.5,-132.5 161,-142.5 164.5,-132.5 157.5,-132.5"/>
</g>
<!-- Node3 -->
<g id="node3" class="node">
<title>Node3</title>
<g id="a_node3"><a xlink:href="dllmain_8cpp.html" target="_top" xlink:title="DLLMain for dynamic windows library.">
<polygon fill="none" stroke="black" points="0,-0.5 0,-34.5 152,-34.5 152,-0.5 0,-0.5"/>
<text text-anchor="start" x="8" y="-20.9" font-family="Helvetica,sans-Serif" font-size="12.00">Markopy/MarkovModel</text>
<text text-anchor="middle" x="76" y="-7.9" font-family="Helvetica,sans-Serif" font-size="12.00">/src/dllmain.cpp</text>
</a>
</g>
</g>
<!-- Node2&#45;&gt;Node3 -->
<g id="edge2" class="edge">
<title>Node2&#45;&gt;Node3</title>
<path fill="none" stroke="midnightblue" d="M133.21,-64.94C121.03,-55.05 107.01,-43.67 95.9,-34.66"/>
<polygon fill="midnightblue" stroke="midnightblue" points="131.32,-67.91 141.29,-71.5 135.73,-62.48 131.32,-67.91"/>
</g>
<!-- Node4 -->
<g id="node4" class="node">
<title>Node4</title>
<g id="a_node4"><a xlink:href="_markov_model_2src_2pch_8cpp.html" target="_top" xlink:title="For windows dynamic library.">
<polygon fill="none" stroke="black" points="170,-0.5 170,-34.5 322,-34.5 322,-0.5 170,-0.5"/>
<text text-anchor="start" x="178" y="-20.9" font-family="Helvetica,sans-Serif" font-size="12.00">Markopy/MarkovModel</text>
<text text-anchor="middle" x="246" y="-7.9" font-family="Helvetica,sans-Serif" font-size="12.00">/src/pch.cpp</text>
</a>
</g>
</g>
<!-- Node2&#45;&gt;Node4 -->
<g id="edge3" class="edge">
<title>Node2&#45;&gt;Node4</title>
<path fill="none" stroke="midnightblue" d="M188.79,-64.94C200.97,-55.05 214.99,-43.67 226.1,-34.66"/>
<polygon fill="midnightblue" stroke="midnightblue" points="186.27,-62.48 180.71,-71.5 190.68,-67.91 186.27,-62.48"/>
</g>
</g>
</svg>
