<?xml version="1.0" encoding="UTF-8" standalone="no"?>
<!DOCTYPE svg PUBLIC "-//W3C//DTD SVG 1.1//EN"
 "http://www.w3.org/Graphics/SVG/1.1/DTD/svg11.dtd">
<!-- Generated by graphviz version 2.43.0 (0)
 -->
<!-- Title: framework.h Pages: 1 -->
<svg width="176pt" height="146pt"
 viewBox="0.00 0.00 176.00 146.00" xmlns="http://www.w3.org/2000/svg" xmlns:xlink="http://www.w3.org/1999/xlink">
<g id="graph0" class="graph" transform="scale(1 1) rotate(0) translate(4 142)">
<title>framework.h</title>
<!-- Node1 -->
<g id="node1" class="node">
<title>Node1</title>
<g id="a_node1"><a xlink:title=" ">
<polygon fill="#bfbfbf" stroke="black" points="42,-116.5 42,-137.5 136,-137.5 136,-116.5 42,-116.5"/>
<text text-anchor="middle" x="89" y="-123.9" font-family="Helvetica,sans-Serif" font-size="12.00">framework.h</text>
</a>
</g>
</g>
<!-- Node2 -->
<g id="node2" class="node">
<title>Node2</title>
<g id="a_node2"><a xlink:href="_markov_model_2src_2pch_8h.html" target="_top" xlink:title=" ">
<polygon fill="none" stroke="black" points="64,-58.5 64,-79.5 114,-79.5 114,-58.5 64,-58.5"/>
<text text-anchor="middle" x="89" y="-65.9" font-family="Helvetica,sans-Serif" font-size="12.00">pch.h</text>
</a>
</g>
</g>
<!-- Node1&#45;&gt;Node2 -->
<g id="edge1" class="edge">
<title>Node1&#45;&gt;Node2</title>
<path fill="none" stroke="midnightblue" d="M89,-106.16C89,-97.16 89,-86.92 89,-79.64"/>
<polygon fill="midnightblue" stroke="midnightblue" points="85.5,-106.25 89,-116.25 92.5,-106.25 85.5,-106.25"/>
</g>
<!-- Node3 -->
<g id="node3" class="node">
<title>Node3</title>
<g id="a_node3"><a xlink:href="dllmain_8cpp.html" target="_top" xlink:title=" ">
<polygon fill="none" stroke="black" points="0,-0.5 0,-21.5 86,-21.5 86,-0.5 0,-0.5"/>
<text text-anchor="middle" x="43" y="-7.9" font-family="Helvetica,sans-Serif" font-size="12.00">dllmain.cpp</text>
</a>
</g>
</g>
<!-- Node2&#45;&gt;Node3 -->
<g id="edge2" class="edge">
<title>Node2&#45;&gt;Node3</title>
<path fill="none" stroke="midnightblue" d="M74.63,-50.5C66.8,-40.98 57.42,-29.56 50.92,-21.64"/>
<polygon fill="midnightblue" stroke="midnightblue" points="71.94,-52.74 80.99,-58.25 77.34,-48.3 71.94,-52.74"/>
</g>
<!-- Node4 -->
<g id="node4" class="node">
<title>Node4</title>
<g id="a_node4"><a xlink:href="_markov_model_2src_2pch_8cpp.html" target="_top" xlink:title=" ">
<polygon fill="none" stroke="black" points="104,-0.5 104,-21.5 168,-21.5 168,-0.5 104,-0.5"/>
<text text-anchor="middle" x="136" y="-7.9" font-family="Helvetica,sans-Serif" font-size="12.00">pch.cpp</text>
</a>
</g>
</g>
<!-- Node2&#45;&gt;Node4 -->
<g id="edge3" class="edge">
<title>Node2&#45;&gt;Node4</title>
<path fill="none" stroke="midnightblue" d="M103.69,-50.5C111.68,-40.98 121.26,-29.56 127.91,-21.64"/>
<polygon fill="midnightblue" stroke="midnightblue" points="100.93,-48.34 97.19,-58.25 106.3,-52.84 100.93,-48.34"/>
</g>
</g>
</svg>
