<?xml version="1.0" encoding="UTF-8" standalone="no"?>
<!DOCTYPE svg PUBLIC "-//W3C//DTD SVG 1.1//EN"
 "http://www.w3.org/Graphics/SVG/1.1/DTD/svg11.dtd">
<!-- Generated by graphviz version 2.43.0 (0)
 -->
<!-- Title: Graph Legend Pages: 1 -->
<svg width="620pt" height="169pt"
 viewBox="0.00 0.00 620.00 169.00" xmlns="http://www.w3.org/2000/svg" xmlns:xlink="http://www.w3.org/1999/xlink">
<g id="graph0" class="graph" transform="scale(1 1) rotate(0) translate(4 165)">
<title>Graph Legend</title>
<!-- Node9 -->
<g id="node1" class="node">
<title>Node9</title>
<polygon fill="#bfbfbf" stroke="black" points="359,-21 288,-21 288,0 359,0 359,-21"/>
<text text-anchor="middle" x="323.5" y="-7.4" font-family="Helvetica,sans-Serif" font-size="12.00">Inherited</text>
</g>
<!-- Node10 -->
<g id="node2" class="node">
<title>Node10</title>
<polygon fill="none" stroke="black" points="81,-91 0,-91 0,-70 81,-70 81,-91"/>
<text text-anchor="middle" x="40.5" y="-77.4" font-family="Helvetica,sans-Serif" font-size="12.00">PublicBase</text>
</g>
<!-- Node10&#45;&gt;Node9 -->
<g id="edge1" class="edge">
<title>Node10&#45;&gt;Node9</title>
<path fill="none" stroke="midnightblue" d="M89.94,-67.62C146.46,-54.04 237.62,-32.14 287.7,-20.1"/>
<polygon fill="midnightblue" stroke="midnightblue" points="89.05,-64.23 80.15,-69.97 90.69,-71.04 89.05,-64.23"/>
</g>
<!-- Node11 -->
<g id="node3" class="node">
<title>Node11</title>
<polygon fill="none" stroke="red" points="78.5,-161 2.5,-161 2.5,-140 78.5,-140 78.5,-161"/>
<text text-anchor="middle" x="40.5" y="-147.4" font-family="Helvetica,sans-Serif" font-size="12.00">Truncated</text>
</g>
<!-- Node11&#45;&gt;Node10 -->
<g id="edge2" class="edge">
<title>Node11&#45;&gt;Node10</title>
<path fill="none" stroke="midnightblue" d="M40.5,-129.7C40.5,-117.05 40.5,-101.22 40.5,-91.22"/>
<polygon fill="midnightblue" stroke="midnightblue" points="37,-129.76 40.5,-139.76 44,-129.76 37,-129.76"/>
</g>
<!-- Node13 -->
<g id="node4" class="node">
<title>Node13</title>
<polygon fill="none" stroke="black" points="203.5,-91 99.5,-91 99.5,-70 203.5,-70 203.5,-91"/>
<text text-anchor="middle" x="151.5" y="-77.4" font-family="Helvetica,sans-Serif" font-size="12.00">ProtectedBase</text>
</g>
<!-- Node13&#45;&gt;Node9 -->
<g id="edge3" class="edge">
<title>Node13&#45;&gt;Node9</title>
<path fill="none" stroke="darkgreen" d="M185.19,-66.18C218.79,-52.9 269.57,-32.82 299.34,-21.05"/>
<polygon fill="darkgreen" stroke="darkgreen" points="183.79,-62.97 175.78,-69.9 186.37,-69.48 183.79,-62.97"/>
</g>
<!-- Node14 -->
<g id="node5" class="node">
<title>Node14</title>
<polygon fill="none" stroke="black" points="309,-91 222,-91 222,-70 309,-70 309,-91"/>
<text text-anchor="middle" x="265.5" y="-77.4" font-family="Helvetica,sans-Serif" font-size="12.00">PrivateBase</text>
</g>
<!-- Node14&#45;&gt;Node9 -->
<g id="edge4" class="edge">
<title>Node14&#45;&gt;Node9</title>
<path fill="none" stroke="#8b1a1a" d="M280.46,-61.96C291.52,-48.99 306.17,-31.82 315.21,-21.22"/>
<polygon fill="#8b1a1a" stroke="#8b1a1a" points="277.64,-59.88 273.81,-69.76 282.96,-64.42 277.64,-59.88"/>
</g>
<!-- Node15 -->
<g id="node6" class="node">
<title>Node15</title>
<polygon fill="none" stroke="#bfbfbf" points="436,-91 327,-91 327,-70 436,-70 436,-91"/>
<text text-anchor="middle" x="381.5" y="-77.4" font-family="Helvetica,sans-Serif" font-size="12.00">Undocumented</text>
</g>
<!-- Node15&#45;&gt;Node9 -->
<g id="edge5" class="edge">
<title>Node15&#45;&gt;Node9</title>
<path fill="none" stroke="midnightblue" d="M366.54,-61.96C355.48,-48.99 340.83,-31.82 331.79,-21.22"/>
<polygon fill="midnightblue" stroke="midnightblue" points="364.04,-64.42 373.19,-69.76 369.36,-59.88 364.04,-64.42"/>
</g>
<!-- Node16 -->
<g id="node7" class="node">
<title>Node16</title>
<polygon fill="none" stroke="black" points="547,-91 454,-91 454,-70 547,-70 547,-91"/>
<text text-anchor="middle" x="500.5" y="-77.4" font-family="Helvetica,sans-Serif" font-size="12.00">Templ&lt; int &gt;</text>
</g>
<!-- Node16&#45;&gt;Node9 -->
<g id="edge6" class="edge">
<title>Node16&#45;&gt;Node9</title>
<path fill="none" stroke="midnightblue" d="M465.83,-66.18C431.25,-52.9 379,-32.82 348.36,-21.05"/>
<polygon fill="midnightblue" stroke="midnightblue" points="464.93,-69.58 475.52,-69.9 467.44,-63.05 464.93,-69.58"/>
</g>
<!-- Node17 -->
<g id="node8" class="node">
<title>Node17</title>
<polygon fill="none" stroke="black" points="543.5,-161 457.5,-161 457.5,-140 543.5,-140 543.5,-161"/>
<text text-anchor="middle" x="500.5" y="-147.4" font-family="Helvetica,sans-Serif" font-size="12.00">Templ&lt; T &gt;</text>
</g>
<!-- Node17&#45;&gt;Node16 -->
<g id="edge7" class="edge">
<title>Node17&#45;&gt;Node16</title>
<path fill="none" stroke="orange" stroke-dasharray="5,2" d="M500.5,-129.7C500.5,-117.05 500.5,-101.22 500.5,-91.22"/>
<polygon fill="orange" stroke="orange" points="497,-129.76 500.5,-139.76 504,-129.76 497,-129.76"/>
<text text-anchor="middle" x="522" y="-112.4" font-family="Helvetica,sans-Serif" font-size="12.00">&lt; int &gt;</text>
</g>
<!-- Node18 -->
<g id="node9" class="node">
<title>Node18</title>
<polygon fill="none" stroke="black" points="612,-91 565,-91 565,-70 612,-70 612,-91"/>
<text text-anchor="middle" x="588.5" y="-77.4" font-family="Helvetica,sans-Serif" font-size="12.00">Used</text>
</g>
<!-- Node18&#45;&gt;Node9 -->
<g id="edge8" class="edge">
<title>Node18&#45;&gt;Node9</title>
<path fill="none" stroke="#9a32cd" stroke-dasharray="5,2" d="M554.71,-69.58C479.93,-49.24 403,-30.46 359.15,-19.95"/>
<polygon fill="#9a32cd" stroke="#9a32cd" points="554.2,-73.07 564.77,-72.33 556.04,-66.32 554.2,-73.07"/>
<text text-anchor="middle" x="524.5" y="-42.4" font-family="Helvetica,sans-Serif" font-size="12.00">m_usedClass</text>
</g>
</g>
</svg>
