<?xml version="1.0" encoding="UTF-8" standalone="no"?>
<!DOCTYPE svg PUBLIC "-//W3C//DTD SVG 1.1//EN"
 "http://www.w3.org/Graphics/SVG/1.1/DTD/svg11.dtd">
<!-- Generated by graphviz version 2.43.0 (0)
 -->
<!-- Title: Graphical Class Hierarchy Pages: 1 -->
<svg width="702pt" height="70pt"
 viewBox="0.00 0.00 702.00 70.00" xmlns="http://www.w3.org/2000/svg" xmlns:xlink="http://www.w3.org/1999/xlink">
<g id="graph0" class="graph" transform="scale(1 1) rotate(0) translate(4 66)">
<title>Graphical Class Hierarchy</title>
<!-- Node0 -->
<g id="node1" class="node">
<title>Node0</title>
<g id="a_node1"><a xlink:href="class_markov_1_1_random_1_1_random_engine.html" target="_top" xlink:title="An abstract class for Random Engine.">
<polygon fill="none" stroke="black" points="0,-20.5 0,-41.5 217,-41.5 217,-20.5 0,-20.5"/>
<text text-anchor="middle" x="108.5" y="-27.9" font-family="Helvetica,sans-Serif" font-size="12.00">Markov::Random::RandomEngine</text>
</a>
</g>
</g>
<!-- Node1 -->
<g id="node2" class="node">
<title>Node1</title>
<g id="a_node2"><a xlink:href="class_markov_1_1_random_1_1_default_random_engine.html" target="_top" xlink:title="Implementation using Random.h default random engine.">
<polygon fill="none" stroke="black" points="253,-14 253,-48 473,-48 473,-14 253,-14"/>
<text text-anchor="start" x="261" y="-34.4" font-family="Helvetica,sans-Serif" font-size="12.00">Markov::Random::DefaultRandom</text>
<text text-anchor="middle" x="363" y="-21.4" font-family="Helvetica,sans-Serif" font-size="12.00">Engine</text>
</a>
</g>
</g>
<!-- Node0&#45;&gt;Node1 -->
<g id="edge1" class="edge">
<title>Node0&#45;&gt;Node1</title>
<path fill="none" stroke="midnightblue" d="M227.59,-31C236.04,-31 244.54,-31 252.94,-31"/>
<polygon fill="midnightblue" stroke="midnightblue" points="227.32,-27.5 217.32,-31 227.32,-34.5 227.32,-27.5"/>
</g>
<!-- Node2 -->
<g id="node3" class="node">
<title>Node2</title>
<g id="a_node3"><a xlink:href="class_markov_1_1_random_1_1_marsaglia.html" target="_top" xlink:title="Implementation of Marsaglia Random Engine.">
<polygon fill="none" stroke="black" points="509.5,-40.5 509.5,-61.5 693.5,-61.5 693.5,-40.5 509.5,-40.5"/>
<text text-anchor="middle" x="601.5" y="-47.9" font-family="Helvetica,sans-Serif" font-size="12.00">Markov::Random::Marsaglia</text>
</a>
</g>
</g>
<!-- Node1&#45;&gt;Node2 -->
<g id="edge2" class="edge">
<title>Node1&#45;&gt;Node2</title>
<path fill="none" stroke="midnightblue" d="M483.48,-41.1C492.2,-41.84 500.91,-42.58 509.43,-43.3"/>
<polygon fill="midnightblue" stroke="midnightblue" points="483.51,-37.59 473.25,-40.24 482.92,-44.57 483.51,-37.59"/>
</g>
<!-- Node3 -->
<g id="node4" class="node">
<title>Node3</title>
<g id="a_node4"><a xlink:href="class_markov_1_1_random_1_1_mersenne.html" target="_top" xlink:title="Implementation of Mersenne Twister Engine.">
<polygon fill="none" stroke="black" points="509,-0.5 509,-21.5 694,-21.5 694,-0.5 509,-0.5"/>
<text text-anchor="middle" x="601.5" y="-7.9" font-family="Helvetica,sans-Serif" font-size="12.00">Markov::Random::Mersenne</text>
</a>
</g>
</g>
<!-- Node1&#45;&gt;Node3 -->
<g id="edge3" class="edge">
<title>Node1&#45;&gt;Node3</title>
<path fill="none" stroke="midnightblue" d="M483.28,-20.91C491.82,-20.19 500.36,-19.47 508.72,-18.76"/>
<polygon fill="midnightblue" stroke="midnightblue" points="482.92,-17.43 473.25,-21.76 483.51,-24.41 482.92,-17.43"/>
</g>
</g>
</svg>
