<?xml version="1.0" encoding="UTF-8" standalone="no"?>
<!DOCTYPE svg PUBLIC "-//W3C//DTD SVG 1.1//EN"
 "http://www.w3.org/Graphics/SVG/1.1/DTD/svg11.dtd">
<!-- Generated by graphviz version 2.43.0 (0)
 -->
<!-- Title: Graphical Class Hierarchy Pages: 1 -->
<svg width="1806pt" height="352pt"
 viewBox="0.00 0.00 1806.00 352.48" xmlns="http://www.w3.org/2000/svg" xmlns:xlink="http://www.w3.org/1999/xlink">
<g id="graph0" class="graph" transform="scale(1 1) rotate(0) translate(4 348.48)">
<title>Graphical Class Hierarchy</title>
<!-- Node0 -->
<g id="node1" class="node">
<title>Node0</title>
<g id="a_node1"><a xlink:href="class_python_1_1_markopy_1_1_base_c_l_i.html" target="_top" xlink:title="Base CLI class to handle user interactions">
<polygon fill="none" stroke="black" points="281,-297.5 281,-318.5 445,-318.5 445,-297.5 281,-297.5"/>
<text text-anchor="middle" x="363" y="-304.9" font-family="Helvetica,sans-Serif" font-size="12.00">Python.Markopy.BaseCLI</text>
</a>
</g>
</g>
<!-- Node1 -->
<g id="node2" class="node">
<title>Node1</title>
<g id="a_node2"><a xlink:href="class_python_1_1_markopy_1_1_abstract_generation_model_c_l_i.html" target="_top" xlink:title="abstract class for generation capable models">
<polygon fill="none" stroke="black" points="509,-202 509,-236 742,-236 742,-202 509,-202"/>
<text text-anchor="start" x="517" y="-222.4" font-family="Helvetica,sans-Serif" font-size="12.00">Python.Markopy.AbstractGeneration</text>
<text text-anchor="middle" x="625.5" y="-209.4" font-family="Helvetica,sans-Serif" font-size="12.00">ModelCLI</text>
</a>
</g>
</g>
<!-- Node0&#45;&gt;Node1 -->
<g id="edge1" class="edge">
<title>Node0&#45;&gt;Node1</title>
<path fill="none" stroke="midnightblue" d="M404.51,-294.16C450.34,-278.5 525.03,-252.98 574.47,-236.09"/>
<polygon fill="midnightblue" stroke="midnightblue" points="403.24,-290.9 394.91,-297.44 405.5,-297.52 403.24,-290.9"/>
</g>
<!-- Node4 -->
<g id="node5" class="node">
<title>Node4</title>
<g id="a_node5"><a xlink:href="class_python_1_1_markopy_1_1_abstract_training_model_c_l_i.html" target="_top" xlink:title="abstract class for training capable models">
<polygon fill="none" stroke="black" points="778,-291 778,-325 990,-325 990,-291 778,-291"/>
<text text-anchor="start" x="786" y="-311.4" font-family="Helvetica,sans-Serif" font-size="12.00">Python.Markopy.AbstractTraining</text>
<text text-anchor="middle" x="884" y="-298.4" font-family="Helvetica,sans-Serif" font-size="12.00">ModelCLI</text>
</a>
</g>
</g>
<!-- Node0&#45;&gt;Node4 -->
<g id="edge11" class="edge">
<title>Node0&#45;&gt;Node4</title>
<path fill="none" stroke="midnightblue" d="M455.3,-308C545.43,-308 683.14,-308 777.82,-308"/>
<polygon fill="midnightblue" stroke="midnightblue" points="455.09,-304.5 445.09,-308 455.09,-311.5 455.09,-304.5"/>
</g>
<!-- Node6 -->
<g id="node7" class="node">
<title>Node6</title>
<g id="a_node7"><a xlink:href="class_python_1_1_markopy_1_1_markopy_c_l_i.html" target="_top" xlink:title="Top level model selector for Markopy CLI.">
<polygon fill="none" stroke="black" points="1314.5,-244.5 1314.5,-265.5 1500.5,-265.5 1500.5,-244.5 1314.5,-244.5"/>
<text text-anchor="middle" x="1407.5" y="-251.9" font-family="Helvetica,sans-Serif" font-size="12.00">Python.Markopy.MarkopyCLI</text>
</a>
</g>
</g>
<!-- Node0&#45;&gt;Node6 -->
<g id="edge12" class="edge">
<title>Node0&#45;&gt;Node6</title>
<path fill="none" stroke="midnightblue" d="M455.57,-317.51C473.28,-319.16 491.71,-320.75 509,-322 722.3,-337.44 777.08,-354.95 990,-335 1113.85,-323.39 1142.88,-306.63 1265,-283 1294.38,-277.32 1327.16,-270.84 1353.77,-265.54"/>
<polygon fill="midnightblue" stroke="midnightblue" points="455.52,-313.99 445.23,-316.54 454.86,-320.96 455.52,-313.99"/>
</g>
<!-- Node2 -->
<g id="node3" class="node">
<title>Node2</title>
<g id="a_node3"><a xlink:href="class_python_1_1_cuda_markopy_1_1_cuda_model_matrix_c_l_i.html" target="_top" xlink:title="Python CLI wrapper for CudaModelMatrix.">
<polygon fill="none" stroke="black" points="1301,-183 1301,-217 1514,-217 1514,-183 1301,-183"/>
<text text-anchor="start" x="1309" y="-203.4" font-family="Helvetica,sans-Serif" font-size="12.00">Python.CudaMarkopy.CudaModel</text>
<text text-anchor="middle" x="1407.5" y="-190.4" font-family="Helvetica,sans-Serif" font-size="12.00">MatrixCLI</text>
</a>
</g>
</g>
<!-- Node1&#45;&gt;Node2 -->
<g id="edge2" class="edge">
<title>Node1&#45;&gt;Node2</title>
<path fill="none" stroke="midnightblue" d="M752.72,-212.91C831.31,-209.37 934.52,-205.19 1026,-203 1118.79,-200.78 1224.34,-200.09 1300.69,-199.92"/>
<polygon fill="midnightblue" stroke="midnightblue" points="752.12,-209.43 742.29,-213.38 752.43,-216.42 752.12,-209.43"/>
</g>
<!-- Node1&#45;&gt;Node4 -->
<g id="edge4" class="edge">
<title>Node1&#45;&gt;Node4</title>
<path fill="none" stroke="midnightblue" d="M673.51,-240.18C703.11,-253.03 742.34,-269.18 778,-281 788.63,-284.52 799.99,-287.87 811.17,-290.93"/>
<polygon fill="midnightblue" stroke="midnightblue" points="674.82,-236.94 664.25,-236.14 672.01,-243.35 674.82,-236.94"/>
</g>
<!-- Node7 -->
<g id="node8" class="node">
<title>Node7</title>
<g id="a_node8"><a xlink:href="class_python_1_1_markopy_1_1_model_matrix_c_l_i.html" target="_top" xlink:title="Extension of Python.Markopy.Base.BaseCLI for Markov::API::ModelMatrix.">
<polygon fill="none" stroke="black" points="1041.5,-212.5 1041.5,-233.5 1249.5,-233.5 1249.5,-212.5 1041.5,-212.5"/>
<text text-anchor="middle" x="1145.5" y="-219.9" font-family="Helvetica,sans-Serif" font-size="12.00">Python.Markopy.ModelMatrixCLI</text>
</a>
</g>
</g>
<!-- Node1&#45;&gt;Node7 -->
<g id="edge8" class="edge">
<title>Node1&#45;&gt;Node7</title>
<path fill="none" stroke="midnightblue" d="M752.21,-219.97C840.79,-220.65 957.95,-221.56 1041.1,-222.2"/>
<polygon fill="midnightblue" stroke="midnightblue" points="752.13,-216.47 742.1,-219.89 752.08,-223.47 752.13,-216.47"/>
</g>
<!-- Node3 -->
<g id="node4" class="node">
<title>Node3</title>
<g id="a_node4"><a xlink:href="class_python_1_1_cuda_markopy_1_1_cuda_markopy_c_l_i.html" target="_top" xlink:title="CUDA extension to MarkopyCLI.">
<polygon fill="none" stroke="black" points="1550,-212.5 1550,-233.5 1798,-233.5 1798,-212.5 1550,-212.5"/>
<text text-anchor="middle" x="1674" y="-219.9" font-family="Helvetica,sans-Serif" font-size="12.00">Python.CudaMarkopy.CudaMarkopyCLI</text>
</a>
</g>
</g>
<!-- Node2&#45;&gt;Node3 -->
<g id="edge3" class="edge">
<title>Node2&#45;&gt;Node3</title>
<path fill="none" stroke="midnightblue" d="M1524.39,-210.08C1533.49,-210.87 1542.69,-211.67 1551.82,-212.46"/>
<polygon fill="midnightblue" stroke="midnightblue" points="1524.44,-206.57 1514.18,-209.19 1523.84,-213.54 1524.44,-206.57"/>
</g>
<!-- Node5 -->
<g id="node6" class="node">
<title>Node5</title>
<g id="a_node6"><a xlink:href="class_python_1_1_markopy_1_1_markov_passwords_c_l_i.html" target="_top" xlink:title="Extension of Python.Markopy.Base.BaseCLI for Markov::API::MarkovPasswords.">
<polygon fill="none" stroke="black" points="1026,-252.5 1026,-273.5 1265,-273.5 1265,-252.5 1026,-252.5"/>
<text text-anchor="middle" x="1145.5" y="-259.9" font-family="Helvetica,sans-Serif" font-size="12.00">Python.Markopy.MarkovPasswordsCLI</text>
</a>
</g>
</g>
<!-- Node4&#45;&gt;Node5 -->
<g id="edge5" class="edge">
<title>Node4&#45;&gt;Node5</title>
<path fill="none" stroke="midnightblue" d="M993.11,-289.25C1024.13,-283.87 1056.84,-278.2 1083.89,-273.51"/>
<polygon fill="midnightblue" stroke="midnightblue" points="992.36,-285.83 983.11,-290.99 993.56,-292.73 992.36,-285.83"/>
</g>
<!-- Node5&#45;&gt;Node6 -->
<g id="edge6" class="edge">
<title>Node5&#45;&gt;Node6</title>
<path fill="none" stroke="midnightblue" d="M1275.15,-259.04C1288.32,-258.64 1301.51,-258.23 1314.18,-257.84"/>
<polygon fill="midnightblue" stroke="midnightblue" points="1274.97,-255.55 1265.09,-259.35 1275.19,-262.54 1274.97,-255.55"/>
</g>
<!-- Node6&#45;&gt;Node3 -->
<g id="edge7" class="edge">
<title>Node6&#45;&gt;Node3</title>
<path fill="none" stroke="midnightblue" d="M1505.47,-243.27C1531.83,-240.08 1560.2,-236.65 1585.97,-233.53"/>
<polygon fill="midnightblue" stroke="midnightblue" points="1504.98,-239.8 1495.47,-244.48 1505.82,-246.75 1504.98,-239.8"/>
</g>
<!-- Node7&#45;&gt;Node2 -->
<g id="edge9" class="edge">
<title>Node7&#45;&gt;Node2</title>
<path fill="none" stroke="midnightblue" d="M1259.98,-212.96C1273.59,-211.76 1287.45,-210.53 1300.94,-209.34"/>
<polygon fill="midnightblue" stroke="midnightblue" points="1259.28,-209.51 1249.63,-213.88 1259.9,-216.48 1259.28,-209.51"/>
</g>
<!-- Node7&#45;&gt;Node6 -->
<g id="edge10" class="edge">
<title>Node7&#45;&gt;Node6</title>
<path fill="none" stroke="midnightblue" d="M1242.16,-234.77C1267.97,-237.95 1295.73,-241.37 1320.95,-244.47"/>
<polygon fill="midnightblue" stroke="midnightblue" points="1242.35,-231.27 1231.99,-233.52 1241.49,-238.22 1242.35,-231.27"/>
</g>
<!-- Node49 -->
<g id="node9" class="node">
<title>Node49</title>
<g id="a_node9"><a xlink:href="class_markov_1_1_a_p_i_1_1_c_u_d_a_1_1_c_u_d_a_device_controller.html" target="_top" xlink:title="Controller class for CUDA device.">
<polygon fill="none" stroke="black" points="550.5,-81 550.5,-115 700.5,-115 700.5,-81 550.5,-81"/>
<text text-anchor="start" x="558.5" y="-101.4" font-family="Helvetica,sans-Serif" font-size="12.00">Markov::API::CUDA::</text>
<text text-anchor="middle" x="625.5" y="-88.4" font-family="Helvetica,sans-Serif" font-size="12.00">CUDADeviceController</text>
</a>
</g>
</g>
<!-- Node50 -->
<g id="node10" class="node">
<title>Node50</title>
<g id="a_node10"><a xlink:href="class_markov_1_1_a_p_i_1_1_c_u_d_a_1_1_c_u_d_a_model_matrix.html" target="_top" xlink:title="Extension of Markov::API::ModelMatrix which is modified to run on GPU devices.">
<polygon fill="none" stroke="black" points="815.5,-81 815.5,-115 952.5,-115 952.5,-81 815.5,-81"/>
<text text-anchor="start" x="823.5" y="-101.4" font-family="Helvetica,sans-Serif" font-size="12.00">Markov::API::CUDA::</text>
<text text-anchor="middle" x="884" y="-88.4" font-family="Helvetica,sans-Serif" font-size="12.00">CUDAModelMatrix</text>
</a>
</g>
</g>
<!-- Node49&#45;&gt;Node50 -->
<g id="edge13" class="edge">
<title>Node49&#45;&gt;Node50</title>
<path fill="none" stroke="midnightblue" d="M711.02,-98C744.8,-98 783.19,-98 815.11,-98"/>
<polygon fill="midnightblue" stroke="midnightblue" points="710.69,-94.5 700.69,-98 710.69,-101.5 710.69,-94.5"/>
</g>
<!-- Node51 -->
<g id="node11" class="node">
<title>Node51</title>
<g id="a_node11"><a xlink:href="class_markov_1_1_a_p_i_1_1_c_u_d_a_1_1_random_1_1_marsaglia.html" target="_top" xlink:title="Extension of Markov::Random::Marsaglia which is capable o working on device space.">
<polygon fill="none" stroke="black" points="815.5,-11 815.5,-45 952.5,-45 952.5,-11 815.5,-11"/>
<text text-anchor="start" x="823.5" y="-31.4" font-family="Helvetica,sans-Serif" font-size="12.00">Markov::API::CUDA::</text>
<text text-anchor="middle" x="884" y="-18.4" font-family="Helvetica,sans-Serif" font-size="12.00">Random::Marsaglia</text>
</a>
</g>
</g>
<!-- Node49&#45;&gt;Node51 -->
<g id="edge15" class="edge">
<title>Node49&#45;&gt;Node51</title>
<path fill="none" stroke="midnightblue" d="M710.38,-79.08C721.05,-76.47 731.8,-73.74 742,-71 771.29,-63.12 803.67,-53.32 830.01,-45.07"/>
<polygon fill="midnightblue" stroke="midnightblue" points="709.52,-75.69 700.62,-81.44 711.16,-82.49 709.52,-75.69"/>
</g>
<!-- Node50&#45;&gt;Node2 -->
<g id="edge14" class="edge">
<title>Node50&#45;&gt;Node2</title>
<path fill="none" stroke="midnightblue" d="M962.78,-112.23C1039.66,-126.41 1160.57,-149.04 1265,-170 1285.31,-174.08 1307.23,-178.64 1327.6,-182.96"/>
<polygon fill="midnightblue" stroke="midnightblue" points="963.17,-108.74 952.7,-110.37 961.9,-115.62 963.17,-108.74"/>
</g>
<!-- Node78 -->
<g id="node12" class="node">
<title>Node78</title>
<g id="a_node12"><a xlink:href="class_markov_1_1_model.html" target="_top" xlink:title=" ">
<polygon fill="none" stroke="black" points="29.5,-194.5 29.5,-215.5 187.5,-215.5 187.5,-194.5 29.5,-194.5"/>
<text text-anchor="middle" x="108.5" y="-201.9" font-family="Helvetica,sans-Serif" font-size="12.00">Markov::Model&lt; char &gt;</text>
</a>
</g>
</g>
<!-- Node79 -->
<g id="node13" class="node">
<title>Node79</title>
<g id="a_node13"><a xlink:href="class_markov_1_1_a_p_i_1_1_markov_passwords.html" target="_top" xlink:title="Markov::Model with char represented nodes.">
<polygon fill="none" stroke="black" points="263,-194.5 263,-215.5 463,-215.5 463,-194.5 263,-194.5"/>
<text text-anchor="middle" x="363" y="-201.9" font-family="Helvetica,sans-Serif" font-size="12.00">Markov::API::MarkovPasswords</text>
</a>
</g>
</g>
<!-- Node78&#45;&gt;Node79 -->
<g id="edge16" class="edge">
<title>Node78&#45;&gt;Node79</title>
<path fill="none" stroke="midnightblue" d="M197.83,-205C218.82,-205 241.35,-205 262.79,-205"/>
<polygon fill="midnightblue" stroke="midnightblue" points="197.66,-201.5 187.66,-205 197.66,-208.5 197.66,-201.5"/>
</g>
<!-- Node80 -->
<g id="node14" class="node">
<title>Node80</title>
<g id="a_node14"><a xlink:href="class_markov_1_1_a_p_i_1_1_model_matrix.html" target="_top" xlink:title="Class to flatten and reduce Markov::Model to a Matrix.">
<polygon fill="none" stroke="black" points="541,-134.5 541,-155.5 710,-155.5 710,-134.5 541,-134.5"/>
<text text-anchor="middle" x="625.5" y="-141.9" font-family="Helvetica,sans-Serif" font-size="12.00">Markov::API::ModelMatrix</text>
</a>
</g>
</g>
<!-- Node79&#45;&gt;Node80 -->
<g id="edge17" class="edge">
<title>Node79&#45;&gt;Node80</title>
<path fill="none" stroke="midnightblue" d="M419.49,-192.22C466.97,-181.28 534.49,-165.73 578.88,-155.51"/>
<polygon fill="midnightblue" stroke="midnightblue" points="418.63,-188.82 409.67,-194.48 420.2,-195.65 418.63,-188.82"/>
</g>
<!-- Node82 -->
<g id="node16" class="node">
<title>Node82</title>
<g id="a_node16"><a xlink:href="class_python_1_1_markopy_1_1_markov_model.html" target="_top" xlink:title="Abstract representation of a markov model.">
<polygon fill="none" stroke="black" points="786,-250.5 786,-271.5 982,-271.5 982,-250.5 786,-250.5"/>
<text text-anchor="middle" x="884" y="-257.9" font-family="Helvetica,sans-Serif" font-size="12.00">Python.Markopy.MarkovModel</text>
</a>
</g>
</g>
<!-- Node79&#45;&gt;Node82 -->
<g id="edge21" class="edge">
<title>Node79&#45;&gt;Node82</title>
<path fill="none" stroke="midnightblue" d="M404.09,-218.7C432.91,-227.89 472.89,-239.32 509,-245 602.25,-259.66 710.08,-262.84 785.93,-262.84"/>
<polygon fill="midnightblue" stroke="midnightblue" points="404.98,-215.31 394.39,-215.55 402.82,-221.97 404.98,-215.31"/>
</g>
<!-- Node80&#45;&gt;Node50 -->
<g id="edge18" class="edge">
<title>Node80&#45;&gt;Node50</title>
<path fill="none" stroke="midnightblue" d="M694.73,-132.62C710.27,-129.8 726.71,-126.8 742,-124 765.87,-119.63 792.01,-114.82 815.23,-110.53"/>
<polygon fill="midnightblue" stroke="midnightblue" points="693.88,-129.22 684.67,-134.45 695.14,-136.11 693.88,-129.22"/>
</g>
<!-- Node81 -->
<g id="node15" class="node">
<title>Node81</title>
<g id="a_node15"><a xlink:href="class_python_1_1_markopy_1_1_model_matrix.html" target="_top" xlink:title="Abstract representation of a matrix based model.">
<polygon fill="none" stroke="black" points="789.5,-134.5 789.5,-155.5 978.5,-155.5 978.5,-134.5 789.5,-134.5"/>
<text text-anchor="middle" x="884" y="-141.9" font-family="Helvetica,sans-Serif" font-size="12.00">Python.Markopy.ModelMatrix</text>
</a>
</g>
</g>
<!-- Node80&#45;&gt;Node81 -->
<g id="edge19" class="edge">
<title>Node80&#45;&gt;Node81</title>
<path fill="none" stroke="midnightblue" d="M720.34,-145C742.81,-145 766.8,-145 789.27,-145"/>
<polygon fill="midnightblue" stroke="midnightblue" points="720.13,-141.5 710.13,-145 720.13,-148.5 720.13,-141.5"/>
</g>
<!-- Node81&#45;&gt;Node7 -->
<g id="edge20" class="edge">
<title>Node81&#45;&gt;Node7</title>
<path fill="none" stroke="midnightblue" d="M929.74,-158.45C980.62,-173.74 1062.66,-198.4 1109.23,-212.4"/>
<polygon fill="midnightblue" stroke="midnightblue" points="930.58,-155.05 920,-155.52 928.57,-161.75 930.58,-155.05"/>
</g>
<!-- Node82&#45;&gt;Node5 -->
<g id="edge22" class="edge">
<title>Node82&#45;&gt;Node5</title>
<path fill="none" stroke="midnightblue" d="M992.69,-261.83C1003.54,-261.91 1014.6,-262 1025.56,-262.08"/>
<polygon fill="midnightblue" stroke="midnightblue" points="992.39,-258.33 982.37,-261.75 992.34,-265.33 992.39,-258.33"/>
</g>
<!-- Node93 -->
<g id="node17" class="node">
<title>Node93</title>
<g id="a_node17"><a xlink:href="class_markov_1_1_random_1_1_random_engine.html" target="_top" xlink:title="An abstract class for Random Engine.">
<polygon fill="none" stroke="black" points="0,-20.5 0,-41.5 217,-41.5 217,-20.5 0,-20.5"/>
<text text-anchor="middle" x="108.5" y="-27.9" font-family="Helvetica,sans-Serif" font-size="12.00">Markov::Random::RandomEngine</text>
</a>
</g>
</g>
<!-- Node94 -->
<g id="node18" class="node">
<title>Node94</title>
<g id="a_node18"><a xlink:href="class_markov_1_1_random_1_1_default_random_engine.html" target="_top" xlink:title="Implementation using Random.h default random engine.">
<polygon fill="none" stroke="black" points="253,-14 253,-48 473,-48 473,-14 253,-14"/>
<text text-anchor="start" x="261" y="-34.4" font-family="Helvetica,sans-Serif" font-size="12.00">Markov::Random::DefaultRandom</text>
<text text-anchor="middle" x="363" y="-21.4" font-family="Helvetica,sans-Serif" font-size="12.00">Engine</text>
</a>
</g>
</g>
<!-- Node93&#45;&gt;Node94 -->
<g id="edge23" class="edge">
<title>Node93&#45;&gt;Node94</title>
<path fill="none" stroke="midnightblue" d="M227.59,-31C236.04,-31 244.54,-31 252.94,-31"/>
<polygon fill="midnightblue" stroke="midnightblue" points="227.32,-27.5 217.32,-31 227.32,-34.5 227.32,-27.5"/>
</g>
<!-- Node95 -->
<g id="node19" class="node">
<title>Node95</title>
<g id="a_node19"><a xlink:href="class_markov_1_1_random_1_1_marsaglia.html" target="_top" xlink:title="Implementation of Marsaglia Random Engine.">
<polygon fill="none" stroke="black" points="533.5,-0.5 533.5,-21.5 717.5,-21.5 717.5,-0.5 533.5,-0.5"/>
<text text-anchor="middle" x="625.5" y="-7.9" font-family="Helvetica,sans-Serif" font-size="12.00">Markov::Random::Marsaglia</text>
</a>
</g>
</g>
<!-- Node94&#45;&gt;Node95 -->
<g id="edge24" class="edge">
<title>Node94&#45;&gt;Node95</title>
<path fill="none" stroke="midnightblue" d="M483.66,-21.81C500.29,-20.54 517.15,-19.24 533.16,-18.01"/>
<polygon fill="midnightblue" stroke="midnightblue" points="483.05,-18.35 473.34,-22.61 483.58,-25.33 483.05,-18.35"/>
</g>
<!-- Node96 -->
<g id="node20" class="node">
<title>Node96</title>
<g id="a_node20"><a xlink:href="class_markov_1_1_random_1_1_mersenne.html" target="_top" xlink:title="Implementation of Mersenne Twister Engine.">
<polygon fill="none" stroke="black" points="533,-40.5 533,-61.5 718,-61.5 718,-40.5 533,-40.5"/>
<text text-anchor="middle" x="625.5" y="-47.9" font-family="Helvetica,sans-Serif" font-size="12.00">Markov::Random::Mersenne</text>
</a>
</g>
</g>
<!-- Node94&#45;&gt;Node96 -->
<g id="edge26" class="edge">
<title>Node94&#45;&gt;Node96</title>
<path fill="none" stroke="midnightblue" d="M483.59,-40.18C500.1,-41.45 516.85,-42.73 532.75,-43.96"/>
<polygon fill="midnightblue" stroke="midnightblue" points="483.58,-36.67 473.34,-39.39 483.05,-43.65 483.58,-36.67"/>
</g>
<!-- Node95&#45;&gt;Node51 -->
<g id="edge25" class="edge">
<title>Node95&#45;&gt;Node51</title>
<path fill="none" stroke="midnightblue" d="M727.92,-17.72C757.19,-19.66 788.42,-21.73 815.12,-23.5"/>
<polygon fill="midnightblue" stroke="midnightblue" points="727.86,-14.21 717.65,-17.04 727.4,-21.2 727.86,-14.21"/>
</g>
</g>
</svg>
