<?xml version="1.0" encoding="UTF-8" standalone="no"?>
<!DOCTYPE svg PUBLIC "-//W3C//DTD SVG 1.1//EN"
 "http://www.w3.org/Graphics/SVG/1.1/DTD/svg11.dtd">
<!-- Generated by graphviz version 2.43.0 (0)
 -->
<!-- Title: Graphical Class Hierarchy Pages: 1 -->
<svg width="875pt" height="164pt"
 viewBox="0.00 0.00 875.00 164.00" xmlns="http://www.w3.org/2000/svg" xmlns:xlink="http://www.w3.org/1999/xlink">
<g id="graph0" class="graph" transform="scale(1 1) rotate(0) translate(4 160)">
<title>Graphical Class Hierarchy</title>
<!-- Node25 -->
<g id="node1" class="node">
<title>Node25</title>
<g id="a_node1"><a xlink:href="class_markov_1_1_a_p_i_1_1_c_u_d_a_1_1_c_u_d_a_device_controller.html" target="_top" xlink:title="Controller class for CUDA device.">
<polygon fill="none" stroke="black" points="526.5,-81 526.5,-115 676.5,-115 676.5,-81 526.5,-81"/>
<text text-anchor="start" x="534.5" y="-101.4" font-family="Helvetica,sans-Serif" font-size="12.00">Markov::API::CUDA::</text>
<text text-anchor="middle" x="601.5" y="-88.4" font-family="Helvetica,sans-Serif" font-size="12.00">CUDADeviceController</text>
</a>
</g>
</g>
<!-- Node20 -->
<g id="node2" class="node">
<title>Node20</title>
<g id="a_node2"><a xlink:href="class_markov_1_1_a_p_i_1_1_c_u_d_a_1_1_c_u_d_a_model_matrix.html" target="_top" xlink:title="Extension of Markov::API::ModelMatrix which is modified to run on GPU devices.">
<polygon fill="none" stroke="black" points="730,-117 730,-151 867,-151 867,-117 730,-117"/>
<text text-anchor="start" x="738" y="-137.4" font-family="Helvetica,sans-Serif" font-size="12.00">Markov::API::CUDA::</text>
<text text-anchor="middle" x="798.5" y="-124.4" font-family="Helvetica,sans-Serif" font-size="12.00">CUDAModelMatrix</text>
</a>
</g>
</g>
<!-- Node25&#45;&gt;Node20 -->
<g id="edge1" class="edge">
<title>Node25&#45;&gt;Node20</title>
<path fill="none" stroke="midnightblue" d="M686.68,-113.54C701.1,-116.2 715.91,-118.94 729.83,-121.51"/>
<polygon fill="midnightblue" stroke="midnightblue" points="687.25,-110.09 676.78,-111.71 685.98,-116.97 687.25,-110.09"/>
</g>
<!-- Node3 -->
<g id="node3" class="node">
<title>Node3</title>
<g id="a_node3"><a xlink:href="class_markov_1_1_a_p_i_1_1_c_u_d_a_1_1_random_1_1_marsaglia.html" target="_top" xlink:title="Extension of Markov::Random::Marsaglia which is capable o working on device space.">
<polygon fill="none" stroke="black" points="730,-54 730,-88 867,-88 867,-54 730,-54"/>
<text text-anchor="start" x="738" y="-74.4" font-family="Helvetica,sans-Serif" font-size="12.00">Markov::API::CUDA::</text>
<text text-anchor="middle" x="798.5" y="-61.4" font-family="Helvetica,sans-Serif" font-size="12.00">Random::Marsaglia</text>
</a>
</g>
</g>
<!-- Node25&#45;&gt;Node3 -->
<g id="edge2" class="edge">
<title>Node25&#45;&gt;Node3</title>
<path fill="none" stroke="midnightblue" d="M687.1,-86.29C701.38,-84.31 716.05,-82.28 729.83,-80.37"/>
<polygon fill="midnightblue" stroke="midnightblue" points="686.2,-82.88 676.78,-87.72 687.16,-89.81 686.2,-82.88"/>
</g>
<!-- Node17 -->
<g id="node4" class="node">
<title>Node17</title>
<g id="a_node4"><a xlink:href="class_markov_1_1_model.html" target="_top" xlink:title=" ">
<polygon fill="none" stroke="black" points="29.5,-134.5 29.5,-155.5 187.5,-155.5 187.5,-134.5 29.5,-134.5"/>
<text text-anchor="middle" x="108.5" y="-141.9" font-family="Helvetica,sans-Serif" font-size="12.00">Markov::Model&lt; char &gt;</text>
</a>
</g>
</g>
<!-- Node18 -->
<g id="node5" class="node">
<title>Node18</title>
<g id="a_node5"><a xlink:href="class_markov_1_1_a_p_i_1_1_markov_passwords.html" target="_top" xlink:title="Markov::Model with char represented nodes.">
<polygon fill="none" stroke="black" points="263,-134.5 263,-155.5 463,-155.5 463,-134.5 263,-134.5"/>
<text text-anchor="middle" x="363" y="-141.9" font-family="Helvetica,sans-Serif" font-size="12.00">Markov::API::MarkovPasswords</text>
</a>
</g>
</g>
<!-- Node17&#45;&gt;Node18 -->
<g id="edge3" class="edge">
<title>Node17&#45;&gt;Node18</title>
<path fill="none" stroke="midnightblue" d="M197.83,-145C218.82,-145 241.35,-145 262.79,-145"/>
<polygon fill="midnightblue" stroke="midnightblue" points="197.66,-141.5 187.66,-145 197.66,-148.5 197.66,-141.5"/>
</g>
<!-- Node19 -->
<g id="node6" class="node">
<title>Node19</title>
<g id="a_node6"><a xlink:href="class_markov_1_1_a_p_i_1_1_model_matrix.html" target="_top" xlink:title="Class to flatten and reduce Markov::Model to a Matrix.">
<polygon fill="none" stroke="black" points="517,-134.5 517,-155.5 686,-155.5 686,-134.5 517,-134.5"/>
<text text-anchor="middle" x="601.5" y="-141.9" font-family="Helvetica,sans-Serif" font-size="12.00">Markov::API::ModelMatrix</text>
</a>
</g>
</g>
<!-- Node18&#45;&gt;Node19 -->
<g id="edge4" class="edge">
<title>Node18&#45;&gt;Node19</title>
<path fill="none" stroke="midnightblue" d="M473.35,-145C487.96,-145 502.76,-145 516.83,-145"/>
<polygon fill="midnightblue" stroke="midnightblue" points="473.27,-141.5 463.27,-145 473.27,-148.5 473.27,-141.5"/>
</g>
<!-- Node19&#45;&gt;Node20 -->
<g id="edge5" class="edge">
<title>Node19&#45;&gt;Node20</title>
<path fill="none" stroke="midnightblue" d="M696.35,-139.71C707.6,-139.07 718.92,-138.43 729.71,-137.82"/>
<polygon fill="midnightblue" stroke="midnightblue" points="695.83,-136.23 686.05,-140.29 696.23,-143.22 695.83,-136.23"/>
</g>
<!-- Node0 -->
<g id="node7" class="node">
<title>Node0</title>
<g id="a_node7"><a xlink:href="class_markov_1_1_random_1_1_random_engine.html" target="_top" xlink:title="An abstract class for Random Engine.">
<polygon fill="none" stroke="black" points="0,-20.5 0,-41.5 217,-41.5 217,-20.5 0,-20.5"/>
<text text-anchor="middle" x="108.5" y="-27.9" font-family="Helvetica,sans-Serif" font-size="12.00">Markov::Random::RandomEngine</text>
</a>
</g>
</g>
<!-- Node1 -->
<g id="node8" class="node">
<title>Node1</title>
<g id="a_node8"><a xlink:href="class_markov_1_1_random_1_1_default_random_engine.html" target="_top" xlink:title="Implementation using Random.h default random engine.">
<polygon fill="none" stroke="black" points="253,-14 253,-48 473,-48 473,-14 253,-14"/>
<text text-anchor="start" x="261" y="-34.4" font-family="Helvetica,sans-Serif" font-size="12.00">Markov::Random::DefaultRandom</text>
<text text-anchor="middle" x="363" y="-21.4" font-family="Helvetica,sans-Serif" font-size="12.00">Engine</text>
</a>
</g>
</g>
<!-- Node0&#45;&gt;Node1 -->
<g id="edge6" class="edge">
<title>Node0&#45;&gt;Node1</title>
<path fill="none" stroke="midnightblue" d="M227.59,-31C236.04,-31 244.54,-31 252.94,-31"/>
<polygon fill="midnightblue" stroke="midnightblue" points="227.32,-27.5 217.32,-31 227.32,-34.5 227.32,-27.5"/>
</g>
<!-- Node2 -->
<g id="node9" class="node">
<title>Node2</title>
<g id="a_node9"><a xlink:href="class_markov_1_1_random_1_1_marsaglia.html" target="_top" xlink:title="Implementation of Marsaglia Random Engine.">
<polygon fill="none" stroke="black" points="509.5,-40.5 509.5,-61.5 693.5,-61.5 693.5,-40.5 509.5,-40.5"/>
<text text-anchor="middle" x="601.5" y="-47.9" font-family="Helvetica,sans-Serif" font-size="12.00">Markov::Random::Marsaglia</text>
</a>
</g>
</g>
<!-- Node1&#45;&gt;Node2 -->
<g id="edge7" class="edge">
<title>Node1&#45;&gt;Node2</title>
<path fill="none" stroke="midnightblue" d="M483.48,-41.1C492.2,-41.84 500.91,-42.58 509.43,-43.3"/>
<polygon fill="midnightblue" stroke="midnightblue" points="483.51,-37.59 473.25,-40.24 482.92,-44.57 483.51,-37.59"/>
</g>
<!-- Node4 -->
<g id="node10" class="node">
<title>Node4</title>
<g id="a_node10"><a xlink:href="class_markov_1_1_random_1_1_mersenne.html" target="_top" xlink:title="Implementation of Mersenne Twister Engine.">
<polygon fill="none" stroke="black" points="509,-0.5 509,-21.5 694,-21.5 694,-0.5 509,-0.5"/>
<text text-anchor="middle" x="601.5" y="-7.9" font-family="Helvetica,sans-Serif" font-size="12.00">Markov::Random::Mersenne</text>
</a>
</g>
</g>
<!-- Node1&#45;&gt;Node4 -->
<g id="edge9" class="edge">
<title>Node1&#45;&gt;Node4</title>
<path fill="none" stroke="midnightblue" d="M483.28,-20.91C491.82,-20.19 500.36,-19.47 508.72,-18.76"/>
<polygon fill="midnightblue" stroke="midnightblue" points="482.92,-17.43 473.25,-21.76 483.51,-24.41 482.92,-17.43"/>
</g>
<!-- Node2&#45;&gt;Node3 -->
<g id="edge8" class="edge">
<title>Node2&#45;&gt;Node3</title>
<path fill="none" stroke="midnightblue" d="M703.73,-61.38C712.6,-62.29 721.43,-63.2 729.92,-64.07"/>
<polygon fill="midnightblue" stroke="midnightblue" points="704.02,-57.89 693.72,-60.36 703.31,-64.86 704.02,-57.89"/>
</g>
</g>
</svg>
