<?xml version="1.0" encoding="UTF-8" standalone="no"?>
<!DOCTYPE svg PUBLIC "-//W3C//DTD SVG 1.1//EN"
 "http://www.w3.org/Graphics/SVG/1.1/DTD/svg11.dtd">
<!-- Generated by graphviz version 2.43.0 (0)
 -->
<!-- Title: Graphical Class Hierarchy Pages: 1 -->
<svg width="408pt" height="96pt"
 viewBox="0.00 0.00 408.00 96.00" xmlns="http://www.w3.org/2000/svg" xmlns:xlink="http://www.w3.org/1999/xlink">
<g id="graph0" class="graph" transform="scale(1 1) rotate(0) translate(4 92)">
<title>Graphical Class Hierarchy</title>
<!-- Node0 -->
<g id="node1" class="node">
<title>Node0</title>
<g id="a_node1"><a xlink:href="class_python_1_1_markopy_1_1_evaluation_1_1_evaluator.html" target="_top" xlink:title="Abstract class to evaluate and score integrity/validty.">
<polygon fill="none" stroke="black" points="0,-26.5 0,-60.5 182,-60.5 182,-26.5 0,-26.5"/>
<text text-anchor="start" x="8" y="-46.9" font-family="Helvetica,sans-Serif" font-size="12.00">Python.Markopy.Evaluation.</text>
<text text-anchor="middle" x="91" y="-33.9" font-family="Helvetica,sans-Serif" font-size="12.00">Evaluator</text>
</a>
</g>
</g>
<!-- Node1 -->
<g id="node2" class="node">
<title>Node1</title>
<g id="a_node2"><a xlink:href="class_python_1_1_markopy_1_1_evaluation_1_1_corpus_evaluator.html" target="_top" xlink:title="evaluate a corpus">
<polygon fill="none" stroke="black" points="218,-53.5 218,-87.5 400,-87.5 400,-53.5 218,-53.5"/>
<text text-anchor="start" x="226" y="-73.9" font-family="Helvetica,sans-Serif" font-size="12.00">Python.Markopy.Evaluation.</text>
<text text-anchor="middle" x="309" y="-60.9" font-family="Helvetica,sans-Serif" font-size="12.00">CorpusEvaluator</text>
</a>
</g>
</g>
<!-- Node0&#45;&gt;Node1 -->
<g id="edge1" class="edge">
<title>Node0&#45;&gt;Node1</title>
<path fill="none" stroke="midnightblue" d="M192.06,-56.01C200.63,-57.08 209.27,-58.16 217.76,-59.22"/>
<polygon fill="midnightblue" stroke="midnightblue" points="192.4,-52.52 182.04,-54.75 191.53,-59.47 192.4,-52.52"/>
</g>
<!-- Node2 -->
<g id="node3" class="node">
<title>Node2</title>
<g id="a_node3"><a xlink:href="class_python_1_1_markopy_1_1_evaluation_1_1_model_evaluator.html" target="_top" xlink:title="evaluate a model">
<polygon fill="none" stroke="black" points="218,-0.5 218,-34.5 400,-34.5 400,-0.5 218,-0.5"/>
<text text-anchor="start" x="226" y="-20.9" font-family="Helvetica,sans-Serif" font-size="12.00">Python.Markopy.Evaluation.</text>
<text text-anchor="middle" x="309" y="-7.9" font-family="Helvetica,sans-Serif" font-size="12.00">ModelEvaluator</text>
</a>
</g>
</g>
<!-- Node0&#45;&gt;Node2 -->
<g id="edge2" class="edge">
<title>Node0&#45;&gt;Node2</title>
<path fill="none" stroke="midnightblue" d="M192.06,-31.46C200.63,-30.42 209.27,-29.38 217.76,-28.36"/>
<polygon fill="midnightblue" stroke="midnightblue" points="191.55,-27.99 182.04,-32.66 192.39,-34.94 191.55,-27.99"/>
</g>
</g>
</svg>
