<?xml version="1.0" encoding="UTF-8" standalone="no"?>
<!DOCTYPE svg PUBLIC "-//W3C//DTD SVG 1.1//EN"
 "http://www.w3.org/Graphics/SVG/1.1/DTD/svg11.dtd">
<!-- Generated by graphviz version 2.43.0 (0)
 -->
<!-- Title: Graphical Class Hierarchy Pages: 1 -->
<svg width="607pt" height="30pt"
 viewBox="0.00 0.00 607.00 30.00" xmlns="http://www.w3.org/2000/svg" xmlns:xlink="http://www.w3.org/1999/xlink">
<g id="graph0" class="graph" transform="scale(1 1) rotate(0) translate(4 26)">
<title>Graphical Class Hierarchy</title>
<!-- Node0 -->
<g id="node1" class="node">
<title>Node0</title>
<g id="a_node1"><a xlink:href="class_markov_1_1_model.html" target="_top" xlink:title=" ">
<polygon fill="none" stroke="black" points="0,-0.5 0,-21.5 158,-21.5 158,-0.5 0,-0.5"/>
<text text-anchor="middle" x="79" y="-7.9" font-family="Helvetica,sans-Serif" font-size="12.00">Markov::Model&lt; char &gt;</text>
</a>
</g>
</g>
<!-- Node1 -->
<g id="node2" class="node">
<title>Node1</title>
<g id="a_node2"><a xlink:href="class_markov_1_1_a_p_i_1_1_markov_passwords.html" target="_top" xlink:title="Markov::Model with char represented nodes.">
<polygon fill="none" stroke="black" points="194,-0.5 194,-21.5 394,-21.5 394,-0.5 194,-0.5"/>
<text text-anchor="middle" x="294" y="-7.9" font-family="Helvetica,sans-Serif" font-size="12.00">Markov::API::MarkovPasswords</text>
</a>
</g>
</g>
<!-- Node0&#45;&gt;Node1 -->
<g id="edge1" class="edge">
<title>Node0&#45;&gt;Node1</title>
<path fill="none" stroke="midnightblue" d="M168.3,-11C176.74,-11 185.33,-11 193.86,-11"/>
<polygon fill="midnightblue" stroke="midnightblue" points="168.1,-7.5 158.1,-11 168.1,-14.5 168.1,-7.5"/>
</g>
<!-- Node2 -->
<g id="node3" class="node">
<title>Node2</title>
<g id="a_node3"><a xlink:href="class_markov_1_1_a_p_i_1_1_model_matrix.html" target="_top" xlink:title="Class to flatten and reduce Markov::Model to a Matrix.">
<polygon fill="none" stroke="black" points="430,-0.5 430,-21.5 599,-21.5 599,-0.5 430,-0.5"/>
<text text-anchor="middle" x="514.5" y="-7.9" font-family="Helvetica,sans-Serif" font-size="12.00">Markov::API::ModelMatrix</text>
</a>
</g>
</g>
<!-- Node1&#45;&gt;Node2 -->
<g id="edge2" class="edge">
<title>Node1&#45;&gt;Node2</title>
<path fill="none" stroke="midnightblue" d="M404.15,-11C412.78,-11 421.42,-11 429.84,-11"/>
<polygon fill="midnightblue" stroke="midnightblue" points="404.02,-7.5 394.02,-11 404.02,-14.5 404.02,-7.5"/>
</g>
</g>
</svg>
