<?xml version="1.0" encoding="UTF-8" standalone="no"?>
<!DOCTYPE svg PUBLIC "-//W3C//DTD SVG 1.1//EN"
 "http://www.w3.org/Graphics/SVG/1.1/DTD/svg11.dtd">
<!-- Generated by graphviz version 2.43.0 (0)
 -->
<!-- Title: Graphical Class Hierarchy Pages: 1 -->
<svg width="370pt" height="190pt"
 viewBox="0.00 0.00 370.00 190.00" xmlns="http://www.w3.org/2000/svg" xmlns:xlink="http://www.w3.org/1999/xlink">
<g id="graph0" class="graph" transform="scale(1 1) rotate(0) translate(4 186)">
<title>Graphical Class Hierarchy</title>
<!-- Node7 -->
<g id="node1" class="node">
<title>Node7</title>
<g id="a_node1"><a xlink:title=" ">
<polygon fill="none" stroke="#bfbfbf" points="0,-80.5 0,-101.5 102,-101.5 102,-80.5 0,-80.5"/>
<text text-anchor="middle" x="51" y="-87.9" font-family="Helvetica,sans-Serif" font-size="12.00">QMainWindow</text>
</a>
</g>
</g>
<!-- Node0 -->
<g id="node2" class="node">
<title>Node0</title>
<g id="a_node2"><a xlink:href="class_markov_1_1_g_u_i_1_1about.html" target="_top" xlink:title="QT Class for about page.">
<polygon fill="none" stroke="black" points="184,-160.5 184,-181.5 316,-181.5 316,-160.5 184,-160.5"/>
<text text-anchor="middle" x="250" y="-167.9" font-family="Helvetica,sans-Serif" font-size="12.00">Markov::GUI::about</text>
</a>
</g>
</g>
<!-- Node7&#45;&gt;Node0 -->
<g id="edge1" class="edge">
<title>Node7&#45;&gt;Node0</title>
<path fill="none" stroke="midnightblue" d="M71.38,-108.22C87.92,-121.97 112.95,-140.59 138,-151 152.38,-156.97 168.53,-161.16 183.97,-164.1"/>
<polygon fill="midnightblue" stroke="midnightblue" points="73.43,-105.37 63.54,-101.55 68.89,-110.7 73.43,-105.37"/>
</g>
<!-- Node9 -->
<g id="node3" class="node">
<title>Node9</title>
<g id="a_node3"><a xlink:href="class_markov_1_1_g_u_i_1_1_c_l_i.html" target="_top" xlink:title="QT CLI Class.">
<polygon fill="none" stroke="black" points="192,-120.5 192,-141.5 308,-141.5 308,-120.5 192,-120.5"/>
<text text-anchor="middle" x="250" y="-127.9" font-family="Helvetica,sans-Serif" font-size="12.00">Markov::GUI::CLI</text>
</a>
</g>
</g>
<!-- Node7&#45;&gt;Node9 -->
<g id="edge2" class="edge">
<title>Node7&#45;&gt;Node9</title>
<path fill="none" stroke="midnightblue" d="M105.71,-103.93C116.39,-106.38 127.53,-108.84 138,-111 155.45,-114.6 174.52,-118.17 191.86,-121.27"/>
<polygon fill="midnightblue" stroke="midnightblue" points="106.19,-100.45 95.66,-101.6 104.61,-107.27 106.19,-100.45"/>
</g>
<!-- Node10 -->
<g id="node4" class="node">
<title>Node10</title>
<g id="a_node4"><a xlink:href="class_markov_1_1_g_u_i_1_1_markov_passwords_g_u_i.html" target="_top" xlink:title="Reporting UI.">
<polygon fill="none" stroke="black" points="138,-80.5 138,-101.5 362,-101.5 362,-80.5 138,-80.5"/>
<text text-anchor="middle" x="250" y="-87.9" font-family="Helvetica,sans-Serif" font-size="12.00">Markov::GUI::MarkovPasswordsGUI</text>
</a>
</g>
</g>
<!-- Node7&#45;&gt;Node10 -->
<g id="edge3" class="edge">
<title>Node7&#45;&gt;Node10</title>
<path fill="none" stroke="midnightblue" d="M112.33,-91C120.51,-91 129.1,-91 137.82,-91"/>
<polygon fill="midnightblue" stroke="midnightblue" points="112.22,-87.5 102.22,-91 112.22,-94.5 112.22,-87.5"/>
</g>
<!-- Node11 -->
<g id="node5" class="node">
<title>Node11</title>
<g id="a_node5"><a xlink:href="class_markov_1_1_g_u_i_1_1menu.html" target="_top" xlink:title="QT Menu class.">
<polygon fill="none" stroke="black" points="184,-40.5 184,-61.5 316,-61.5 316,-40.5 184,-40.5"/>
<text text-anchor="middle" x="250" y="-47.9" font-family="Helvetica,sans-Serif" font-size="12.00">Markov::GUI::menu</text>
</a>
</g>
</g>
<!-- Node7&#45;&gt;Node11 -->
<g id="edge4" class="edge">
<title>Node7&#45;&gt;Node11</title>
<path fill="none" stroke="midnightblue" d="M105.71,-78.07C116.39,-75.62 127.53,-73.16 138,-71 154.01,-67.7 171.39,-64.42 187.54,-61.51"/>
<polygon fill="midnightblue" stroke="midnightblue" points="104.61,-74.73 95.66,-80.4 106.19,-81.55 104.61,-74.73"/>
</g>
<!-- Node12 -->
<g id="node6" class="node">
<title>Node12</title>
<g id="a_node6"><a xlink:href="class_markov_1_1_g_u_i_1_1_train.html" target="_top" xlink:title="QT Training page class.">
<polygon fill="none" stroke="black" points="187,-0.5 187,-21.5 313,-21.5 313,-0.5 187,-0.5"/>
<text text-anchor="middle" x="250" y="-7.9" font-family="Helvetica,sans-Serif" font-size="12.00">Markov::GUI::Train</text>
</a>
</g>
</g>
<!-- Node7&#45;&gt;Node12 -->
<g id="edge5" class="edge">
<title>Node7&#45;&gt;Node12</title>
<path fill="none" stroke="midnightblue" d="M71.38,-73.78C87.92,-60.03 112.95,-41.41 138,-31 153.28,-24.65 170.57,-20.32 186.87,-17.36"/>
<polygon fill="midnightblue" stroke="midnightblue" points="68.89,-71.3 63.54,-80.45 73.43,-76.63 68.89,-71.3"/>
</g>
</g>
</svg>
