<?xml version="1.0" encoding="UTF-8" standalone="no"?>
<!DOCTYPE svg PUBLIC "-//W3C//DTD SVG 1.1//EN"
 "http://www.w3.org/Graphics/SVG/1.1/DTD/svg11.dtd">
<!-- Generated by graphviz version 2.43.0 (0)
 -->
<!-- Title: Graphical Class Hierarchy Pages: 1 -->
<svg width="798pt" height="109pt"
 viewBox="0.00 0.00 798.00 109.00" xmlns="http://www.w3.org/2000/svg" xmlns:xlink="http://www.w3.org/1999/xlink">
<g id="graph0" class="graph" transform="scale(1 1) rotate(0) translate(4 105)">
<title>Graphical Class Hierarchy</title>
<!-- Node0 -->
<g id="node1" class="node">
<title>Node0</title>
<g id="a_node1"><a xlink:href="classbase_1_1_base_c_l_i.html" target="_top" xlink:title=" ">
<polygon fill="none" stroke="black" points="0,-40.5 0,-61.5 97,-61.5 97,-40.5 0,-40.5"/>
<text text-anchor="middle" x="48.5" y="-47.9" font-family="Helvetica,sans-Serif" font-size="12.00">base.BaseCLI</text>
</a>
</g>
</g>
<!-- Node1 -->
<g id="node2" class="node">
<title>Node1</title>
<g id="a_node2"><a xlink:href="classbase_1_1_abstract_generation_model_c_l_i.html" target="_top" xlink:title=" ">
<polygon fill="none" stroke="black" points="133,-40.5 133,-61.5 354,-61.5 354,-40.5 133,-40.5"/>
<text text-anchor="middle" x="243.5" y="-47.9" font-family="Helvetica,sans-Serif" font-size="12.00">base.AbstractGenerationModelCLI</text>
</a>
</g>
</g>
<!-- Node0&#45;&gt;Node1 -->
<g id="edge1" class="edge">
<title>Node0&#45;&gt;Node1</title>
<path fill="none" stroke="midnightblue" d="M107.33,-51C115.53,-51 124.18,-51 132.98,-51"/>
<polygon fill="midnightblue" stroke="midnightblue" points="107.21,-47.5 97.21,-51 107.21,-54.5 107.21,-47.5"/>
</g>
<!-- Node2 -->
<g id="node3" class="node">
<title>Node2</title>
<g id="a_node3"><a xlink:href="classbase_1_1_abstract_training_model_c_l_i.html" target="_top" xlink:title=" ">
<polygon fill="none" stroke="black" points="390,-79.5 390,-100.5 590,-100.5 590,-79.5 390,-79.5"/>
<text text-anchor="middle" x="490" y="-86.9" font-family="Helvetica,sans-Serif" font-size="12.00">base.AbstractTrainingModelCLI</text>
</a>
</g>
</g>
<!-- Node0&#45;&gt;Node2 -->
<g id="edge5" class="edge">
<title>Node0&#45;&gt;Node2</title>
<path fill="none" stroke="midnightblue" d="M97.05,-63.97C108.72,-66.71 121.25,-69.29 133,-71 219.21,-83.52 318.24,-88.02 389.93,-89.53"/>
<polygon fill="midnightblue" stroke="midnightblue" points="97.59,-60.5 87.04,-61.53 95.93,-67.3 97.59,-60.5"/>
</g>
<!-- Node5 -->
<g id="node6" class="node">
<title>Node5</title>
<g id="a_node6"><a xlink:href="classmarkopy_1_1_markopy_c_l_i.html" target="_top" xlink:title=" ">
<polygon fill="none" stroke="black" points="172,-0.5 172,-21.5 315,-21.5 315,-0.5 172,-0.5"/>
<text text-anchor="middle" x="243.5" y="-7.9" font-family="Helvetica,sans-Serif" font-size="12.00">markopy.MarkopyCLI</text>
</a>
</g>
</g>
<!-- Node0&#45;&gt;Node5 -->
<g id="edge6" class="edge">
<title>Node0&#45;&gt;Node5</title>
<path fill="none" stroke="midnightblue" d="M101.3,-38.13C111.77,-35.66 122.72,-33.17 133,-31 148.69,-27.69 165.72,-24.42 181.57,-21.52"/>
<polygon fill="midnightblue" stroke="midnightblue" points="100.36,-34.75 91.45,-40.48 101.99,-41.56 100.36,-34.75"/>
</g>
<!-- Node1&#45;&gt;Node2 -->
<g id="edge2" class="edge">
<title>Node1&#45;&gt;Node2</title>
<path fill="none" stroke="midnightblue" d="M320.36,-63.1C353.24,-68.34 391.36,-74.43 423.04,-79.48"/>
<polygon fill="midnightblue" stroke="midnightblue" points="320.77,-59.62 310.34,-61.5 319.67,-66.53 320.77,-59.62"/>
</g>
<!-- Node4 -->
<g id="node5" class="node">
<title>Node4</title>
<g id="a_node5"><a xlink:href="classmmx_1_1_model_matrix_c_l_i.html" target="_top" xlink:title=" ">
<polygon fill="none" stroke="black" points="418.5,-39.5 418.5,-60.5 561.5,-60.5 561.5,-39.5 418.5,-39.5"/>
<text text-anchor="middle" x="490" y="-46.9" font-family="Helvetica,sans-Serif" font-size="12.00">mmx.ModelMatrixCLI</text>
</a>
</g>
</g>
<!-- Node1&#45;&gt;Node4 -->
<g id="edge4" class="edge">
<title>Node1&#45;&gt;Node4</title>
<path fill="none" stroke="midnightblue" d="M364.44,-50.51C382.84,-50.43 401.31,-50.36 418.18,-50.29"/>
<polygon fill="midnightblue" stroke="midnightblue" points="364.22,-47.01 354.23,-50.55 364.25,-54.01 364.22,-47.01"/>
</g>
<!-- Node3 -->
<g id="node4" class="node">
<title>Node3</title>
<g id="a_node4"><a xlink:href="classmp_1_1_markov_passwords_c_l_i.html" target="_top" xlink:title=" ">
<polygon fill="none" stroke="black" points="626,-79.5 626,-100.5 790,-100.5 790,-79.5 626,-79.5"/>
<text text-anchor="middle" x="708" y="-86.9" font-family="Helvetica,sans-Serif" font-size="12.00">mp.MarkovPasswordsCLI</text>
</a>
</g>
</g>
<!-- Node2&#45;&gt;Node3 -->
<g id="edge3" class="edge">
<title>Node2&#45;&gt;Node3</title>
<path fill="none" stroke="midnightblue" d="M600.28,-90C608.91,-90 617.53,-90 625.93,-90"/>
<polygon fill="midnightblue" stroke="midnightblue" points="600.15,-86.5 590.15,-90 600.15,-93.5 600.15,-86.5"/>
</g>
</g>
</svg>
