<?xml version="1.0" encoding="UTF-8" standalone="no"?>
<!DOCTYPE svg PUBLIC "-//W3C//DTD SVG 1.1//EN"
 "http://www.w3.org/Graphics/SVG/1.1/DTD/svg11.dtd">
<!-- Generated by graphviz version 2.43.0 (0)
 -->
<!-- Title: Graphical Class Hierarchy Pages: 1 -->
<svg width="370pt" height="230pt"
 viewBox="0.00 0.00 370.00 230.00" xmlns="http://www.w3.org/2000/svg" xmlns:xlink="http://www.w3.org/1999/xlink">
<g id="graph0" class="graph" transform="scale(1 1) rotate(0) translate(4 226)">
<title>Graphical Class Hierarchy</title>
<!-- Node0 -->
<g id="node1" class="node">
<title>Node0</title>
<g id="a_node1"><a xlink:href="class_q_main_window.html" target="_top" xlink:title=" ">
<polygon fill="none" stroke="black" points="0,-100.5 0,-121.5 102,-121.5 102,-100.5 0,-100.5"/>
<text text-anchor="middle" x="51" y="-107.9" font-family="Helvetica,sans-Serif" font-size="12.00">QMainWindow</text>
</a>
</g>
</g>
<!-- Node1 -->
<g id="node2" class="node">
<title>Node1</title>
<g id="a_node2"><a xlink:href="class_markov_1_1_g_u_i_1_1_c_l_i.html" target="_top" xlink:title="QT CLI Class.">
<polygon fill="none" stroke="black" points="192,-200.5 192,-221.5 308,-221.5 308,-200.5 192,-200.5"/>
<text text-anchor="middle" x="250" y="-207.9" font-family="Helvetica,sans-Serif" font-size="12.00">Markov::GUI::CLI</text>
</a>
</g>
</g>
<!-- Node0&#45;&gt;Node1 -->
<g id="edge1" class="edge">
<title>Node0&#45;&gt;Node1</title>
<path fill="none" stroke="midnightblue" d="M66.27,-129.4C81.81,-148.05 108.42,-176.21 138,-191 154.55,-199.28 174.01,-204.17 191.97,-207.05"/>
<polygon fill="midnightblue" stroke="midnightblue" points="68.95,-127.15 59.94,-121.58 63.51,-131.56 68.95,-127.15"/>
</g>
<!-- Node2 -->
<g id="node3" class="node">
<title>Node2</title>
<g id="a_node3"><a xlink:href="class_markov_1_1_g_u_i_1_1_generate.html" target="_top" xlink:title="QT Generation page class.">
<polygon fill="none" stroke="black" points="173,-160.5 173,-181.5 327,-181.5 327,-160.5 173,-160.5"/>
<text text-anchor="middle" x="250" y="-167.9" font-family="Helvetica,sans-Serif" font-size="12.00">Markov::GUI::Generate</text>
</a>
</g>
</g>
<!-- Node0&#45;&gt;Node2 -->
<g id="edge2" class="edge">
<title>Node0&#45;&gt;Node2</title>
<path fill="none" stroke="midnightblue" d="M79.97,-126.25C96.44,-134.65 117.92,-144.64 138,-151 149.85,-154.76 162.66,-157.88 175.21,-160.45"/>
<polygon fill="midnightblue" stroke="midnightblue" points="81.38,-123.04 70.9,-121.52 78.15,-129.24 81.38,-123.04"/>
</g>
<!-- Node3 -->
<g id="node4" class="node">
<title>Node3</title>
<g id="a_node4"><a xlink:href="class_markov_1_1_g_u_i_1_1_markov_passwords_g_u_i.html" target="_top" xlink:title="Reporting UI.">
<polygon fill="none" stroke="black" points="138,-120.5 138,-141.5 362,-141.5 362,-120.5 138,-120.5"/>
<text text-anchor="middle" x="250" y="-127.9" font-family="Helvetica,sans-Serif" font-size="12.00">Markov::GUI::MarkovPasswordsGUI</text>
</a>
</g>
</g>
<!-- Node0&#45;&gt;Node3 -->
<g id="edge3" class="edge">
<title>Node0&#45;&gt;Node3</title>
<path fill="none" stroke="midnightblue" d="M112.5,-117.14C123.02,-118.21 134.23,-119.35 145.53,-120.5"/>
<polygon fill="midnightblue" stroke="midnightblue" points="112.52,-113.63 102.22,-116.1 111.82,-120.59 112.52,-113.63"/>
</g>
<!-- Node4 -->
<g id="node5" class="node">
<title>Node4</title>
<g id="a_node5"><a xlink:href="class_markov_1_1_g_u_i_1_1_train.html" target="_top" xlink:title="QT Training page class.">
<polygon fill="none" stroke="black" points="187,-80.5 187,-101.5 313,-101.5 313,-80.5 187,-80.5"/>
<text text-anchor="middle" x="250" y="-87.9" font-family="Helvetica,sans-Serif" font-size="12.00">Markov::GUI::Train</text>
</a>
</g>
</g>
<!-- Node0&#45;&gt;Node4 -->
<g id="edge4" class="edge">
<title>Node0&#45;&gt;Node4</title>
<path fill="none" stroke="midnightblue" d="M112.45,-104.86C136.06,-102.47 163.12,-99.72 186.89,-97.31"/>
<polygon fill="midnightblue" stroke="midnightblue" points="111.82,-101.41 102.22,-105.9 112.52,-108.37 111.82,-101.41"/>
</g>
<!-- Node5 -->
<g id="node6" class="node">
<title>Node5</title>
<g id="a_node6"><a xlink:href="class_markov_1_1_g_u_i_1_1about.html" target="_top" xlink:title="QT Class for about page.">
<polygon fill="none" stroke="black" points="184,-40.5 184,-61.5 316,-61.5 316,-40.5 184,-40.5"/>
<text text-anchor="middle" x="250" y="-47.9" font-family="Helvetica,sans-Serif" font-size="12.00">Markov::GUI::about</text>
</a>
</g>
</g>
<!-- Node0&#45;&gt;Node5 -->
<g id="edge5" class="edge">
<title>Node0&#45;&gt;Node5</title>
<path fill="none" stroke="midnightblue" d="M79.97,-95.75C96.44,-87.35 117.92,-77.36 138,-71 152.56,-66.39 168.55,-62.73 183.75,-59.87"/>
<polygon fill="midnightblue" stroke="midnightblue" points="78.15,-92.76 70.9,-100.48 81.38,-98.96 78.15,-92.76"/>
</g>
<!-- Node6 -->
<g id="node7" class="node">
<title>Node6</title>
<g id="a_node7"><a xlink:href="class_markov_1_1_g_u_i_1_1menu.html" target="_top" xlink:title="QT Menu class.">
<polygon fill="none" stroke="black" points="184,-0.5 184,-21.5 316,-21.5 316,-0.5 184,-0.5"/>
<text text-anchor="middle" x="250" y="-7.9" font-family="Helvetica,sans-Serif" font-size="12.00">Markov::GUI::menu</text>
</a>
</g>
</g>
<!-- Node0&#45;&gt;Node6 -->
<g id="edge6" class="edge">
<title>Node0&#45;&gt;Node6</title>
<path fill="none" stroke="midnightblue" d="M66.27,-92.6C81.81,-73.95 108.42,-45.79 138,-31 152.1,-23.95 168.31,-19.35 183.9,-16.37"/>
<polygon fill="midnightblue" stroke="midnightblue" points="63.51,-90.44 59.94,-100.42 68.95,-94.85 63.51,-90.44"/>
</g>
</g>
</svg>
