<?xml version="1.0" encoding="UTF-8" standalone="no"?>
<!DOCTYPE svg PUBLIC "-//W3C//DTD SVG 1.1//EN"
 "http://www.w3.org/Graphics/SVG/1.1/DTD/svg11.dtd">
<!-- Generated by graphviz version 2.43.0 (0)
 -->
<!-- Title: Markopy/CudaMarkovAPI/src/main.cu Pages: 1 -->
<svg width="1649pt" height="449pt"
 viewBox="0.00 0.00 1649.00 449.00" xmlns="http://www.w3.org/2000/svg" xmlns:xlink="http://www.w3.org/1999/xlink">
<g id="graph0" class="graph" transform="scale(1 1) rotate(0) translate(4 445)">
<title>Markopy/CudaMarkovAPI/src/main.cu</title>
<!-- Node1 -->
<g id="node1" class="node">
<title>Node1</title>
<g id="a_node1"><a xlink:title="Simple test file to check libcudamarkov.">
<polygon fill="#bfbfbf" stroke="black" points="1014,-406.5 1014,-440.5 1181,-440.5 1181,-406.5 1014,-406.5"/>
<text text-anchor="start" x="1022" y="-426.9" font-family="Helvetica,sans-Serif" font-size="12.00">Markopy/CudaMarkovAPI</text>
<text text-anchor="middle" x="1097.5" y="-413.9" font-family="Helvetica,sans-Serif" font-size="12.00">/src/main.cu</text>
</a>
</g>
</g>
<!-- Node2 -->
<g id="node2" class="node">
<title>Node2</title>
<g id="a_node2"><a xlink:title=" ">
<polygon fill="none" stroke="#bfbfbf" points="525,-0.5 525,-21.5 594,-21.5 594,-0.5 525,-0.5"/>
<text text-anchor="middle" x="559.5" y="-7.9" font-family="Helvetica,sans-Serif" font-size="12.00">iostream</text>
</a>
</g>
</g>
<!-- Node1&#45;&gt;Node2 -->
<g id="edge1" class="edge">
<title>Node1&#45;&gt;Node2</title>
<path fill="none" stroke="midnightblue" d="M1037.24,-406.47C1017.09,-398.45 996.08,-386.76 981.5,-370 960.82,-346.23 961.5,-333.5 961.5,-302 961.5,-302 961.5,-302 961.5,-126 961.5,-52.45 709.26,-23.89 604.39,-15.2"/>
<polygon fill="midnightblue" stroke="midnightblue" points="604.37,-11.68 594.12,-14.37 603.81,-18.66 604.37,-11.68"/>
</g>
<!-- Node3 -->
<g id="node3" class="node">
<title>Node3</title>
<g id="a_node3"><a xlink:title=" ">
<polygon fill="none" stroke="#bfbfbf" points="573.5,-116.5 573.5,-137.5 623.5,-137.5 623.5,-116.5 573.5,-116.5"/>
<text text-anchor="middle" x="598.5" y="-123.9" font-family="Helvetica,sans-Serif" font-size="12.00">string</text>
</a>
</g>
</g>
<!-- Node1&#45;&gt;Node3 -->
<g id="edge2" class="edge">
<title>Node1&#45;&gt;Node3</title>
<path fill="none" stroke="midnightblue" d="M1013.85,-421.96C855.69,-418.67 528.5,-400.01 528.5,-302 528.5,-302 528.5,-302 528.5,-242 528.5,-210.5 531.86,-200.75 548.5,-174 555.63,-162.54 566.38,-152.13 576.09,-144.12"/>
<polygon fill="midnightblue" stroke="midnightblue" points="578.52,-146.66 584.24,-137.74 574.21,-141.15 578.52,-146.66"/>
</g>
<!-- Node4 -->
<g id="node4" class="node">
<title>Node4</title>
<g id="a_node4"><a xlink:title=" ">
<polygon fill="none" stroke="#bfbfbf" points="990,-348.5 990,-369.5 1047,-369.5 1047,-348.5 990,-348.5"/>
<text text-anchor="middle" x="1018.5" y="-355.9" font-family="Helvetica,sans-Serif" font-size="12.00">cstring</text>
</a>
</g>
</g>
<!-- Node1&#45;&gt;Node4 -->
<g id="edge3" class="edge">
<title>Node1&#45;&gt;Node4</title>
<path fill="none" stroke="midnightblue" d="M1077.16,-406.4C1065.38,-397.09 1050.62,-385.41 1038.84,-376.09"/>
<polygon fill="midnightblue" stroke="midnightblue" points="1040.9,-373.26 1030.89,-369.8 1036.56,-378.75 1040.9,-373.26"/>
</g>
<!-- Node5 -->
<g id="node5" class="node">
<title>Node5</title>
<g id="a_node5"><a xlink:title=" ">
<polygon fill="none" stroke="#bfbfbf" points="1065,-348.5 1065,-369.5 1130,-369.5 1130,-348.5 1065,-348.5"/>
<text text-anchor="middle" x="1097.5" y="-355.9" font-family="Helvetica,sans-Serif" font-size="12.00">sstream</text>
</a>
</g>
</g>
<!-- Node1&#45;&gt;Node5 -->
<g id="edge4" class="edge">
<title>Node1&#45;&gt;Node5</title>
<path fill="none" stroke="midnightblue" d="M1097.5,-406.4C1097.5,-398.36 1097.5,-388.54 1097.5,-380.01"/>
<polygon fill="midnightblue" stroke="midnightblue" points="1101,-379.8 1097.5,-369.8 1094,-379.8 1101,-379.8"/>
</g>
<!-- Node6 -->
<g id="node6" class="node">
<title>Node6</title>
<g id="a_node6"><a xlink:title=" ">
<polygon fill="none" stroke="#bfbfbf" points="1148.5,-348.5 1148.5,-369.5 1206.5,-369.5 1206.5,-348.5 1148.5,-348.5"/>
<text text-anchor="middle" x="1177.5" y="-355.9" font-family="Helvetica,sans-Serif" font-size="12.00">chrono</text>
</a>
</g>
</g>
<!-- Node1&#45;&gt;Node6 -->
<g id="edge5" class="edge">
<title>Node1&#45;&gt;Node6</title>
<path fill="none" stroke="midnightblue" d="M1118.1,-406.4C1130.02,-397.09 1144.98,-385.41 1156.9,-376.09"/>
<polygon fill="midnightblue" stroke="midnightblue" points="1159.23,-378.71 1164.96,-369.8 1154.92,-373.2 1159.23,-378.71"/>
</g>
<!-- Node7 -->
<g id="node7" class="node">
<title>Node7</title>
<g id="a_node7"><a xlink:href="cuda_model_matrix_8h.html" target="_top" xlink:title="CUDA accelerated extension of Markov::API::ModelMatrix.">
<polygon fill="none" stroke="black" points="796,-348.5 796,-369.5 927,-369.5 927,-348.5 796,-348.5"/>
<text text-anchor="middle" x="861.5" y="-355.9" font-family="Helvetica,sans-Serif" font-size="12.00">cudaModelMatrix.h</text>
</a>
</g>
</g>
<!-- Node1&#45;&gt;Node7 -->
<g id="edge6" class="edge">
<title>Node1&#45;&gt;Node7</title>
<path fill="none" stroke="midnightblue" d="M1037.03,-406.49C996.71,-395.81 944.52,-381.99 907.56,-372.2"/>
<polygon fill="midnightblue" stroke="midnightblue" points="908.13,-368.73 897.56,-369.55 906.34,-375.49 908.13,-368.73"/>
</g>
<!-- Node26 -->
<g id="node26" class="node">
<title>Node26</title>
<g id="a_node26"><a xlink:title=" ">
<polygon fill="none" stroke="#bfbfbf" points="1224.5,-348.5 1224.5,-369.5 1358.5,-369.5 1358.5,-348.5 1224.5,-348.5"/>
<text text-anchor="middle" x="1291.5" y="-355.9" font-family="Helvetica,sans-Serif" font-size="12.00">cuda_runtime_api.h</text>
</a>
</g>
</g>
<!-- Node1&#45;&gt;Node26 -->
<g id="edge36" class="edge">
<title>Node1&#45;&gt;Node26</title>
<path fill="none" stroke="midnightblue" d="M1147.21,-406.49C1179.79,-395.99 1221.79,-382.46 1252.07,-372.7"/>
<polygon fill="midnightblue" stroke="midnightblue" points="1253.41,-375.95 1261.85,-369.55 1251.26,-369.29 1253.41,-375.95"/>
</g>
<!-- Node27 -->
<g id="node27" class="node">
<title>Node27</title>
<g id="a_node27"><a xlink:title=" ">
<polygon fill="none" stroke="#bfbfbf" points="1377,-348.5 1377,-369.5 1434,-369.5 1434,-348.5 1377,-348.5"/>
<text text-anchor="middle" x="1405.5" y="-355.9" font-family="Helvetica,sans-Serif" font-size="12.00">cuda.h</text>
</a>
</g>
</g>
<!-- Node1&#45;&gt;Node27 -->
<g id="edge37" class="edge">
<title>Node1&#45;&gt;Node27</title>
<path fill="none" stroke="midnightblue" d="M1181.11,-407.7C1232.09,-398.33 1298.76,-385.48 1366.86,-370.03"/>
<polygon fill="midnightblue" stroke="midnightblue" points="1367.95,-373.38 1376.92,-367.74 1366.39,-366.55 1367.95,-373.38"/>
</g>
<!-- Node28 -->
<g id="node28" class="node">
<title>Node28</title>
<g id="a_node28"><a xlink:title=" ">
<polygon fill="none" stroke="#bfbfbf" points="1452,-348.5 1452,-369.5 1641,-369.5 1641,-348.5 1452,-348.5"/>
<text text-anchor="middle" x="1546.5" y="-355.9" font-family="Helvetica,sans-Serif" font-size="12.00">device_launch_parameters.h</text>
</a>
</g>
</g>
<!-- Node1&#45;&gt;Node28 -->
<g id="edge38" class="edge">
<title>Node1&#45;&gt;Node28</title>
<path fill="none" stroke="midnightblue" d="M1181.16,-410.85C1263.28,-399.42 1387.57,-382.12 1467.9,-370.94"/>
<polygon fill="midnightblue" stroke="midnightblue" points="1468.53,-374.39 1477.96,-369.54 1467.57,-367.45 1468.53,-374.39"/>
</g>
<!-- Node8 -->
<g id="node8" class="node">
<title>Node8</title>
<g id="a_node8"><a xlink:href="model_matrix_8h.html" target="_top" xlink:title="An extension of Markov::API::MarkovPasswords.">
<polygon fill="none" stroke="black" points="642,-290.5 642,-311.5 833,-311.5 833,-290.5 642,-290.5"/>
<text text-anchor="middle" x="737.5" y="-297.9" font-family="Helvetica,sans-Serif" font-size="12.00">MarkovAPI/src/modelMatrix.h</text>
</a>
</g>
</g>
<!-- Node7&#45;&gt;Node8 -->
<g id="edge7" class="edge">
<title>Node7&#45;&gt;Node8</title>
<path fill="none" stroke="midnightblue" d="M840.18,-348.37C820.28,-339.38 790.36,-325.87 767.94,-315.75"/>
<polygon fill="midnightblue" stroke="midnightblue" points="769.09,-312.43 758.54,-311.5 766.21,-318.81 769.09,-312.43"/>
</g>
<!-- Node25 -->
<g id="node25" class="node">
<title>Node25</title>
<g id="a_node25"><a xlink:href="cuda_device_controller_8h.html" target="_top" xlink:title="Simple static class for basic CUDA device controls.">
<polygon fill="none" stroke="black" points="778,-232.5 778,-253.5 933,-253.5 933,-232.5 778,-232.5"/>
<text text-anchor="middle" x="855.5" y="-239.9" font-family="Helvetica,sans-Serif" font-size="12.00">cudaDeviceController.h</text>
</a>
</g>
</g>
<!-- Node7&#45;&gt;Node25 -->
<g id="edge34" class="edge">
<title>Node7&#45;&gt;Node25</title>
<path fill="none" stroke="midnightblue" d="M860.99,-348.28C860.01,-329.6 857.84,-288.37 856.54,-263.72"/>
<polygon fill="midnightblue" stroke="midnightblue" points="860.03,-263.5 856.01,-253.69 853.04,-263.87 860.03,-263.5"/>
</g>
<!-- Node9 -->
<g id="node9" class="node">
<title>Node9</title>
<g id="a_node9"><a xlink:href="markov_passwords_8h.html" target="_top" xlink:title="Wrapper for Markov::Model to use with char represented models.">
<polygon fill="none" stroke="black" points="577.5,-232.5 577.5,-253.5 711.5,-253.5 711.5,-232.5 577.5,-232.5"/>
<text text-anchor="middle" x="644.5" y="-239.9" font-family="Helvetica,sans-Serif" font-size="12.00">markovPasswords.h</text>
</a>
</g>
</g>
<!-- Node8&#45;&gt;Node9 -->
<g id="edge8" class="edge">
<title>Node8&#45;&gt;Node9</title>
<path fill="none" stroke="midnightblue" d="M721.3,-290.25C706.9,-281.57 685.63,-268.76 669.12,-258.82"/>
<polygon fill="midnightblue" stroke="midnightblue" points="670.89,-255.8 660.51,-253.64 667.28,-261.8 670.89,-255.8"/>
</g>
<!-- Node12 -->
<g id="node12" class="node">
<title>Node12</title>
<g id="a_node12"><a xlink:title=" ">
<polygon fill="none" stroke="#bfbfbf" points="728,-116.5 728,-137.5 783,-137.5 783,-116.5 728,-116.5"/>
<text text-anchor="middle" x="755.5" y="-123.9" font-family="Helvetica,sans-Serif" font-size="12.00">mutex</text>
</a>
</g>
</g>
<!-- Node8&#45;&gt;Node12 -->
<g id="edge33" class="edge">
<title>Node8&#45;&gt;Node12</title>
<path fill="none" stroke="midnightblue" d="M738.52,-290.26C741.39,-262.82 749.59,-184.51 753.44,-147.64"/>
<polygon fill="midnightblue" stroke="midnightblue" points="756.93,-147.94 754.49,-137.63 749.97,-147.21 756.93,-147.94"/>
</g>
<!-- Node10 -->
<g id="node10" class="node">
<title>Node10</title>
<g id="a_node10"><a xlink:href="thread_shared_list_handler_8h.html" target="_top" xlink:title="Thread&#45;safe wrapper for std::ifstream.">
<polygon fill="none" stroke="black" points="557,-174.5 557,-195.5 732,-195.5 732,-174.5 557,-174.5"/>
<text text-anchor="middle" x="644.5" y="-181.9" font-family="Helvetica,sans-Serif" font-size="12.00">threadSharedListHandler.h</text>
</a>
</g>
</g>
<!-- Node9&#45;&gt;Node10 -->
<g id="edge9" class="edge">
<title>Node9&#45;&gt;Node10</title>
<path fill="none" stroke="midnightblue" d="M644.5,-232.25C644.5,-224.94 644.5,-214.69 644.5,-205.7"/>
<polygon fill="midnightblue" stroke="midnightblue" points="648,-205.64 644.5,-195.64 641,-205.64 648,-205.64"/>
</g>
<!-- Node13 -->
<g id="node13" class="node">
<title>Node13</title>
<g id="a_node13"><a xlink:href="model_8h.html" target="_top" xlink:title="Model class template.">
<polygon fill="none" stroke="black" points="330.5,-174.5 330.5,-195.5 500.5,-195.5 500.5,-174.5 330.5,-174.5"/>
<text text-anchor="middle" x="415.5" y="-181.9" font-family="Helvetica,sans-Serif" font-size="12.00">MarkovModel/src/model.h</text>
</a>
</g>
</g>
<!-- Node9&#45;&gt;Node13 -->
<g id="edge13" class="edge">
<title>Node9&#45;&gt;Node13</title>
<path fill="none" stroke="midnightblue" d="M605.39,-232.44C566.37,-222.89 506.3,-208.21 464.2,-197.91"/>
<polygon fill="midnightblue" stroke="midnightblue" points="464.99,-194.5 454.45,-195.52 463.33,-201.3 464.99,-194.5"/>
</g>
<!-- Node10&#45;&gt;Node3 -->
<g id="edge10" class="edge">
<title>Node10&#45;&gt;Node3</title>
<path fill="none" stroke="midnightblue" d="M636.49,-174.25C630.02,-166.38 620.76,-155.1 613,-145.65"/>
<polygon fill="midnightblue" stroke="midnightblue" points="615.47,-143.15 606.42,-137.64 610.06,-147.59 615.47,-143.15"/>
</g>
<!-- Node11 -->
<g id="node11" class="node">
<title>Node11</title>
<g id="a_node11"><a xlink:title=" ">
<polygon fill="none" stroke="#bfbfbf" points="642,-116.5 642,-137.5 705,-137.5 705,-116.5 642,-116.5"/>
<text text-anchor="middle" x="673.5" y="-123.9" font-family="Helvetica,sans-Serif" font-size="12.00">fstream</text>
</a>
</g>
</g>
<!-- Node10&#45;&gt;Node11 -->
<g id="edge11" class="edge">
<title>Node10&#45;&gt;Node11</title>
<path fill="none" stroke="midnightblue" d="M649.55,-174.25C653.5,-166.62 659.11,-155.79 663.91,-146.53"/>
<polygon fill="midnightblue" stroke="midnightblue" points="667.02,-148.13 668.51,-137.64 660.8,-144.91 667.02,-148.13"/>
</g>
<!-- Node10&#45;&gt;Node12 -->
<g id="edge12" class="edge">
<title>Node10&#45;&gt;Node12</title>
<path fill="none" stroke="midnightblue" d="M663.58,-174.37C681.24,-165.46 707.71,-152.11 727.71,-142.02"/>
<polygon fill="midnightblue" stroke="midnightblue" points="729.32,-145.13 736.67,-137.5 726.16,-138.88 729.32,-145.13"/>
</g>
<!-- Node13&#45;&gt;Node3 -->
<g id="edge18" class="edge">
<title>Node13&#45;&gt;Node3</title>
<path fill="none" stroke="midnightblue" d="M446.96,-174.37C479.37,-164.45 529.79,-149.03 563.46,-138.72"/>
<polygon fill="midnightblue" stroke="midnightblue" points="564.79,-141.98 573.33,-135.7 562.74,-135.28 564.79,-141.98"/>
</g>
<!-- Node13&#45;&gt;Node11 -->
<g id="edge16" class="edge">
<title>Node13&#45;&gt;Node11</title>
<path fill="none" stroke="midnightblue" d="M462.58,-174.45C504.44,-165.86 567.57,-152.67 631.84,-138.1"/>
<polygon fill="midnightblue" stroke="midnightblue" points="632.76,-141.48 641.74,-135.85 631.21,-134.65 632.76,-141.48"/>
</g>
<!-- Node14 -->
<g id="node14" class="node">
<title>Node14</title>
<g id="a_node14"><a xlink:title=" ">
<polygon fill="none" stroke="#bfbfbf" points="375.5,-58.5 375.5,-79.5 419.5,-79.5 419.5,-58.5 375.5,-58.5"/>
<text text-anchor="middle" x="397.5" y="-65.9" font-family="Helvetica,sans-Serif" font-size="12.00">map</text>
</a>
</g>
</g>
<!-- Node13&#45;&gt;Node14 -->
<g id="edge14" class="edge">
<title>Node13&#45;&gt;Node14</title>
<path fill="none" stroke="midnightblue" d="M411.81,-174.29C408.49,-165.1 403.79,-150.82 401.5,-138 398.64,-121.99 397.69,-103.56 397.44,-89.93"/>
<polygon fill="midnightblue" stroke="midnightblue" points="400.93,-89.74 397.35,-79.77 393.94,-89.8 400.93,-89.74"/>
</g>
<!-- Node15 -->
<g id="node15" class="node">
<title>Node15</title>
<g id="a_node15"><a xlink:title=" ">
<polygon fill="none" stroke="#bfbfbf" points="438,-58.5 438,-79.5 493,-79.5 493,-58.5 438,-58.5"/>
<text text-anchor="middle" x="465.5" y="-65.9" font-family="Helvetica,sans-Serif" font-size="12.00">vector</text>
</a>
</g>
</g>
<!-- Node13&#45;&gt;Node15 -->
<g id="edge15" class="edge">
<title>Node13&#45;&gt;Node15</title>
<path fill="none" stroke="midnightblue" d="M418.39,-174.1C422.45,-160.68 430.38,-136.06 439.5,-116 443.76,-106.64 449.27,-96.65 454.13,-88.38"/>
<polygon fill="midnightblue" stroke="midnightblue" points="457.25,-89.98 459.41,-79.61 451.25,-86.37 457.25,-89.98"/>
</g>
<!-- Node16 -->
<g id="node16" class="node">
<title>Node16</title>
<g id="a_node16"><a xlink:title=" ">
<polygon fill="none" stroke="#bfbfbf" points="511,-58.5 511,-79.5 576,-79.5 576,-58.5 511,-58.5"/>
<text text-anchor="middle" x="543.5" y="-65.9" font-family="Helvetica,sans-Serif" font-size="12.00">assert.h</text>
</a>
</g>
</g>
<!-- Node13&#45;&gt;Node16 -->
<g id="edge17" class="edge">
<title>Node13&#45;&gt;Node16</title>
<path fill="none" stroke="midnightblue" d="M422.1,-174.44C431.99,-160.52 451.73,-134.37 472.5,-116 486.04,-104.03 502.97,-92.94 516.9,-84.65"/>
<polygon fill="midnightblue" stroke="midnightblue" points="518.66,-87.67 525.55,-79.62 515.15,-81.62 518.66,-87.67"/>
</g>
<!-- Node17 -->
<g id="node17" class="node">
<title>Node17</title>
<g id="a_node17"><a xlink:title=" ">
<polygon fill="none" stroke="#bfbfbf" points="481.5,-116.5 481.5,-137.5 555.5,-137.5 555.5,-116.5 481.5,-116.5"/>
<text text-anchor="middle" x="518.5" y="-123.9" font-family="Helvetica,sans-Serif" font-size="12.00">algorithm</text>
</a>
</g>
</g>
<!-- Node13&#45;&gt;Node17 -->
<g id="edge19" class="edge">
<title>Node13&#45;&gt;Node17</title>
<path fill="none" stroke="midnightblue" d="M433.44,-174.25C449.54,-165.49 473.39,-152.53 491.74,-142.55"/>
<polygon fill="midnightblue" stroke="midnightblue" points="493.65,-145.49 500.76,-137.64 490.31,-139.34 493.65,-145.49"/>
</g>
<!-- Node18 -->
<g id="node18" class="node">
<title>Node18</title>
<g id="a_node18"><a xlink:href="node_8h.html" target="_top" xlink:title="Node class template.">
<polygon fill="none" stroke="black" points="291.5,-116.5 291.5,-137.5 349.5,-137.5 349.5,-116.5 291.5,-116.5"/>
<text text-anchor="middle" x="320.5" y="-123.9" font-family="Helvetica,sans-Serif" font-size="12.00">node.h</text>
</a>
</g>
</g>
<!-- Node13&#45;&gt;Node18 -->
<g id="edge20" class="edge">
<title>Node13&#45;&gt;Node18</title>
<path fill="none" stroke="midnightblue" d="M398.95,-174.25C384.24,-165.57 362.51,-152.76 345.65,-142.82"/>
<polygon fill="midnightblue" stroke="midnightblue" points="347.25,-139.71 336.86,-137.64 343.7,-145.74 347.25,-139.71"/>
</g>
<!-- Node20 -->
<g id="node20" class="node">
<title>Node20</title>
<g id="a_node20"><a xlink:href="edge_8h.html" target="_top" xlink:title="Edge class template.">
<polygon fill="none" stroke="black" points="74.5,-58.5 74.5,-79.5 132.5,-79.5 132.5,-58.5 74.5,-58.5"/>
<text text-anchor="middle" x="103.5" y="-65.9" font-family="Helvetica,sans-Serif" font-size="12.00">edge.h</text>
</a>
</g>
</g>
<!-- Node13&#45;&gt;Node20 -->
<g id="edge32" class="edge">
<title>Node13&#45;&gt;Node20</title>
<path fill="none" stroke="midnightblue" d="M387.13,-174.46C360.15,-165.33 318.44,-151.04 282.5,-138 231.8,-119.61 173.46,-97.21 137.54,-83.28"/>
<polygon fill="midnightblue" stroke="midnightblue" points="138.61,-79.94 128.02,-79.58 136.08,-86.47 138.61,-79.94"/>
</g>
<!-- Node18&#45;&gt;Node2 -->
<g id="edge24" class="edge">
<title>Node18&#45;&gt;Node2</title>
<path fill="none" stroke="midnightblue" d="M305.71,-116.29C286.72,-102.65 258.05,-77.32 274.5,-58 304.81,-22.4 442.32,-14.26 514.67,-12.46"/>
<polygon fill="midnightblue" stroke="midnightblue" points="514.94,-15.96 524.86,-12.24 514.78,-8.96 514.94,-15.96"/>
</g>
<!-- Node18&#45;&gt;Node14 -->
<g id="edge22" class="edge">
<title>Node18&#45;&gt;Node14</title>
<path fill="none" stroke="midnightblue" d="M333.91,-116.25C345.51,-107.81 362.47,-95.47 375.97,-85.66"/>
<polygon fill="midnightblue" stroke="midnightblue" points="378.21,-88.36 384.24,-79.64 374.1,-82.69 378.21,-88.36"/>
</g>
<!-- Node18&#45;&gt;Node15 -->
<g id="edge21" class="edge">
<title>Node18&#45;&gt;Node15</title>
<path fill="none" stroke="midnightblue" d="M345.43,-116.37C369.12,-107.22 404.95,-93.38 431.31,-83.21"/>
<polygon fill="midnightblue" stroke="midnightblue" points="432.83,-86.37 440.9,-79.5 430.31,-79.84 432.83,-86.37"/>
</g>
<!-- Node18&#45;&gt;Node16 -->
<g id="edge23" class="edge">
<title>Node18&#45;&gt;Node16</title>
<path fill="none" stroke="midnightblue" d="M349.65,-118.68C388.21,-109 456.44,-91.86 500.81,-80.72"/>
<polygon fill="midnightblue" stroke="midnightblue" points="501.87,-84.06 510.72,-78.23 500.16,-77.27 501.87,-84.06"/>
</g>
<!-- Node19 -->
<g id="node19" class="node">
<title>Node19</title>
<g id="a_node19"><a xlink:title=" ">
<polygon fill="none" stroke="#bfbfbf" points="283,-58.5 283,-79.5 358,-79.5 358,-58.5 283,-58.5"/>
<text text-anchor="middle" x="320.5" y="-65.9" font-family="Helvetica,sans-Serif" font-size="12.00">stdexcept</text>
</a>
</g>
</g>
<!-- Node18&#45;&gt;Node19 -->
<g id="edge25" class="edge">
<title>Node18&#45;&gt;Node19</title>
<path fill="none" stroke="midnightblue" d="M320.5,-116.25C320.5,-108.94 320.5,-98.69 320.5,-89.7"/>
<polygon fill="midnightblue" stroke="midnightblue" points="324,-89.64 320.5,-79.64 317,-89.64 324,-89.64"/>
</g>
<!-- Node18&#45;&gt;Node20 -->
<g id="edge26" class="edge">
<title>Node18&#45;&gt;Node20</title>
<path fill="none" stroke="midnightblue" d="M291.23,-118.45C252.79,-108.53 185.15,-91.07 142.42,-80.04"/>
<polygon fill="midnightblue" stroke="midnightblue" points="143.21,-76.63 132.65,-77.52 141.46,-83.41 143.21,-76.63"/>
</g>
<!-- Node23 -->
<g id="node23" class="node">
<title>Node23</title>
<g id="a_node23"><a xlink:href="random_8h.html" target="_top" xlink:title="Random engine implementations for Markov.">
<polygon fill="none" stroke="black" points="151,-58.5 151,-79.5 226,-79.5 226,-58.5 151,-58.5"/>
<text text-anchor="middle" x="188.5" y="-65.9" font-family="Helvetica,sans-Serif" font-size="12.00">random.h</text>
</a>
</g>
</g>
<!-- Node18&#45;&gt;Node23 -->
<g id="edge29" class="edge">
<title>Node18&#45;&gt;Node23</title>
<path fill="none" stroke="midnightblue" d="M297.81,-116.37C276.43,-107.3 244.19,-93.63 220.26,-83.48"/>
<polygon fill="midnightblue" stroke="midnightblue" points="221.47,-80.18 210.9,-79.5 218.73,-86.63 221.47,-80.18"/>
</g>
<!-- Node21 -->
<g id="node21" class="node">
<title>Node21</title>
<g id="a_node21"><a xlink:title=" ">
<polygon fill="none" stroke="#bfbfbf" points="79.5,-0.5 79.5,-21.5 135.5,-21.5 135.5,-0.5 79.5,-0.5"/>
<text text-anchor="middle" x="107.5" y="-7.9" font-family="Helvetica,sans-Serif" font-size="12.00">cstdint</text>
</a>
</g>
</g>
<!-- Node20&#45;&gt;Node21 -->
<g id="edge27" class="edge">
<title>Node20&#45;&gt;Node21</title>
<path fill="none" stroke="midnightblue" d="M104.2,-58.25C104.72,-50.94 105.45,-40.69 106.09,-31.7"/>
<polygon fill="midnightblue" stroke="midnightblue" points="109.59,-31.87 106.81,-21.64 102.61,-31.37 109.59,-31.87"/>
</g>
<!-- Node22 -->
<g id="node22" class="node">
<title>Node22</title>
<g id="a_node22"><a xlink:title=" ">
<polygon fill="none" stroke="#bfbfbf" points="0,-0.5 0,-21.5 61,-21.5 61,-0.5 0,-0.5"/>
<text text-anchor="middle" x="30.5" y="-7.9" font-family="Helvetica,sans-Serif" font-size="12.00">cstddef</text>
</a>
</g>
</g>
<!-- Node20&#45;&gt;Node22 -->
<g id="edge28" class="edge">
<title>Node20&#45;&gt;Node22</title>
<path fill="none" stroke="midnightblue" d="M90.78,-58.25C79.9,-49.89 64.01,-37.71 51.28,-27.94"/>
<polygon fill="midnightblue" stroke="midnightblue" points="53.13,-24.95 43.07,-21.64 48.87,-30.51 53.13,-24.95"/>
</g>
<!-- Node23&#45;&gt;Node2 -->
<g id="edge31" class="edge">
<title>Node23&#45;&gt;Node2</title>
<path fill="none" stroke="midnightblue" d="M226.24,-60.53C231.03,-59.64 235.88,-58.78 240.5,-58 338.04,-41.6 452.98,-25.91 514.78,-17.78"/>
<polygon fill="midnightblue" stroke="midnightblue" points="515.5,-21.21 524.96,-16.44 514.59,-14.27 515.5,-21.21"/>
</g>
<!-- Node24 -->
<g id="node24" class="node">
<title>Node24</title>
<g id="a_node24"><a xlink:title=" ">
<polygon fill="none" stroke="#bfbfbf" points="156.5,-0.5 156.5,-21.5 220.5,-21.5 220.5,-0.5 156.5,-0.5"/>
<text text-anchor="middle" x="188.5" y="-7.9" font-family="Helvetica,sans-Serif" font-size="12.00">random</text>
</a>
</g>
</g>
<!-- Node23&#45;&gt;Node24 -->
<g id="edge30" class="edge">
<title>Node23&#45;&gt;Node24</title>
<path fill="none" stroke="midnightblue" d="M188.5,-58.25C188.5,-50.94 188.5,-40.69 188.5,-31.7"/>
<polygon fill="midnightblue" stroke="midnightblue" points="192,-31.64 188.5,-21.64 185,-31.64 192,-31.64"/>
</g>
<!-- Node25&#45;&gt;Node2 -->
<g id="edge35" class="edge">
<title>Node25&#45;&gt;Node2</title>
<path fill="none" stroke="midnightblue" d="M853.13,-232.45C846.97,-209.44 828.37,-150.33 792.5,-116 738.65,-64.46 654.91,-35.74 603.85,-22.11"/>
<polygon fill="midnightblue" stroke="midnightblue" points="604.65,-18.7 594.1,-19.58 602.9,-25.48 604.65,-18.7"/>
</g>
</g>
</svg>
