<?xml version="1.0" encoding="UTF-8" standalone="no"?>
<!DOCTYPE svg PUBLIC "-//W3C//DTD SVG 1.1//EN"
 "http://www.w3.org/Graphics/SVG/1.1/DTD/svg11.dtd">
<!-- Generated by graphviz version 2.43.0 (0)
 -->
<!-- Title: markovPasswords.cpp Pages: 1 -->
<svg width="1069pt" height="320pt"
 viewBox="0.00 0.00 1068.50 320.00" xmlns="http://www.w3.org/2000/svg" xmlns:xlink="http://www.w3.org/1999/xlink">
<g id="graph0" class="graph" transform="scale(1 1) rotate(0) translate(4 316)">
<title>markovPasswords.cpp</title>
<!-- Node1 -->
<g id="node1" class="node">
<title>Node1</title>
<g id="a_node1"><a xlink:title=" ">
<polygon fill="#bfbfbf" stroke="black" points="643,-290.5 643,-311.5 792,-311.5 792,-290.5 643,-290.5"/>
<text text-anchor="middle" x="717.5" y="-297.9" font-family="Helvetica,sans-Serif" font-size="12.00">markovPasswords.cpp</text>
</a>
</g>
</g>
<!-- Node2 -->
<g id="node2" class="node">
<title>Node2</title>
<g id="a_node2"><a xlink:href="markov_passwords_8h.html" target="_top" xlink:title=" ">
<polygon fill="none" stroke="black" points="437.5,-232.5 437.5,-253.5 571.5,-253.5 571.5,-232.5 437.5,-232.5"/>
<text text-anchor="middle" x="504.5" y="-239.9" font-family="Helvetica,sans-Serif" font-size="12.00">markovPasswords.h</text>
</a>
</g>
</g>
<!-- Node1&#45;&gt;Node2 -->
<g id="edge1" class="edge">
<title>Node1&#45;&gt;Node2</title>
<path fill="none" stroke="midnightblue" d="M680.88,-290.37C644.85,-280.9 589.71,-266.4 550.69,-256.14"/>
<polygon fill="midnightblue" stroke="midnightblue" points="551.2,-252.66 540.64,-253.5 549.42,-259.43 551.2,-252.66"/>
</g>
<!-- Node4 -->
<g id="node4" class="node">
<title>Node4</title>
<g id="a_node4"><a xlink:title=" ">
<polygon fill="none" stroke="#bfbfbf" points="527.5,-116.5 527.5,-137.5 577.5,-137.5 577.5,-116.5 527.5,-116.5"/>
<text text-anchor="middle" x="552.5" y="-123.9" font-family="Helvetica,sans-Serif" font-size="12.00">string</text>
</a>
</g>
</g>
<!-- Node1&#45;&gt;Node4 -->
<g id="edge31" class="edge">
<title>Node1&#45;&gt;Node4</title>
<path fill="none" stroke="midnightblue" d="M705.15,-290.36C694.04,-281.43 677.5,-267.53 664.5,-254 632.95,-221.16 631.23,-207.6 600.5,-174 591.22,-163.85 580.19,-153.19 571.04,-144.69"/>
<polygon fill="midnightblue" stroke="midnightblue" points="573.31,-142.02 563.58,-137.84 568.58,-147.18 573.31,-142.02"/>
</g>
<!-- Node6 -->
<g id="node6" class="node">
<title>Node6</title>
<g id="a_node6"><a xlink:title=" ">
<polygon fill="none" stroke="#bfbfbf" points="614,-116.5 614,-137.5 669,-137.5 669,-116.5 614,-116.5"/>
<text text-anchor="middle" x="641.5" y="-123.9" font-family="Helvetica,sans-Serif" font-size="12.00">mutex</text>
</a>
</g>
</g>
<!-- Node1&#45;&gt;Node6 -->
<g id="edge30" class="edge">
<title>Node1&#45;&gt;Node6</title>
<path fill="none" stroke="midnightblue" d="M706.86,-290.39C697.83,-281.71 685.17,-268.14 677.5,-254 658.6,-219.16 648.75,-173.39 644.39,-147.69"/>
<polygon fill="midnightblue" stroke="midnightblue" points="647.83,-147.03 642.8,-137.71 640.91,-148.13 647.83,-147.03"/>
</g>
<!-- Node9 -->
<g id="node9" class="node">
<title>Node9</title>
<g id="a_node9"><a xlink:title=" ">
<polygon fill="none" stroke="#bfbfbf" points="0,-58.5 0,-79.5 55,-79.5 55,-58.5 0,-58.5"/>
<text text-anchor="middle" x="27.5" y="-65.9" font-family="Helvetica,sans-Serif" font-size="12.00">vector</text>
</a>
</g>
</g>
<!-- Node1&#45;&gt;Node9 -->
<g id="edge29" class="edge">
<title>Node1&#45;&gt;Node9</title>
<path fill="none" stroke="midnightblue" d="M642.78,-292.09C543.45,-279.87 363.67,-251.74 219.5,-196 166.11,-175.36 151.9,-170.1 104.5,-138 82.07,-122.81 59.15,-101.71 44.22,-87.06"/>
<polygon fill="midnightblue" stroke="midnightblue" points="46.35,-84.24 36.8,-79.66 41.41,-89.2 46.35,-84.24"/>
</g>
<!-- Node20 -->
<g id="node20" class="node">
<title>Node20</title>
<g id="a_node20"><a xlink:title=" ">
<polygon fill="none" stroke="#bfbfbf" points="686.5,-232.5 686.5,-253.5 748.5,-253.5 748.5,-232.5 686.5,-232.5"/>
<text text-anchor="middle" x="717.5" y="-239.9" font-family="Helvetica,sans-Serif" font-size="12.00">string.h</text>
</a>
</g>
</g>
<!-- Node1&#45;&gt;Node20 -->
<g id="edge26" class="edge">
<title>Node1&#45;&gt;Node20</title>
<path fill="none" stroke="midnightblue" d="M717.5,-290.25C717.5,-282.94 717.5,-272.69 717.5,-263.7"/>
<polygon fill="midnightblue" stroke="midnightblue" points="721,-263.64 717.5,-253.64 714,-263.64 721,-263.64"/>
</g>
<!-- Node21 -->
<g id="node21" class="node">
<title>Node21</title>
<g id="a_node21"><a xlink:title=" ">
<polygon fill="none" stroke="#bfbfbf" points="766.5,-232.5 766.5,-253.5 824.5,-253.5 824.5,-232.5 766.5,-232.5"/>
<text text-anchor="middle" x="795.5" y="-239.9" font-family="Helvetica,sans-Serif" font-size="12.00">chrono</text>
</a>
</g>
</g>
<!-- Node1&#45;&gt;Node21 -->
<g id="edge27" class="edge">
<title>Node1&#45;&gt;Node21</title>
<path fill="none" stroke="midnightblue" d="M731.09,-290.25C742.83,-281.81 760.02,-269.47 773.69,-259.66"/>
<polygon fill="midnightblue" stroke="midnightblue" points="775.99,-262.32 782.07,-253.64 771.9,-256.63 775.99,-262.32"/>
</g>
<!-- Node22 -->
<g id="node22" class="node">
<title>Node22</title>
<g id="a_node22"><a xlink:title=" ">
<polygon fill="none" stroke="#bfbfbf" points="842.5,-232.5 842.5,-253.5 898.5,-253.5 898.5,-232.5 842.5,-232.5"/>
<text text-anchor="middle" x="870.5" y="-239.9" font-family="Helvetica,sans-Serif" font-size="12.00">thread</text>
</a>
</g>
</g>
<!-- Node1&#45;&gt;Node22 -->
<g id="edge28" class="edge">
<title>Node1&#45;&gt;Node22</title>
<path fill="none" stroke="midnightblue" d="M743.8,-290.37C768.91,-281.18 806.94,-267.26 834.79,-257.07"/>
<polygon fill="midnightblue" stroke="midnightblue" points="836.35,-260.23 844.54,-253.5 833.95,-253.65 836.35,-260.23"/>
</g>
<!-- Node23 -->
<g id="node23" class="node">
<title>Node23</title>
<g id="a_node23"><a xlink:title=" ">
<polygon fill="none" stroke="#bfbfbf" points="916.5,-232.5 916.5,-253.5 978.5,-253.5 978.5,-232.5 916.5,-232.5"/>
<text text-anchor="middle" x="947.5" y="-239.9" font-family="Helvetica,sans-Serif" font-size="12.00">signal.h</text>
</a>
</g>
</g>
<!-- Node1&#45;&gt;Node23 -->
<g id="edge32" class="edge">
<title>Node1&#45;&gt;Node23</title>
<path fill="none" stroke="midnightblue" d="M757.19,-290.48C793.54,-281.75 849.1,-268.34 906.52,-254.23"/>
<polygon fill="midnightblue" stroke="midnightblue" points="907.62,-257.56 916.5,-251.77 905.95,-250.76 907.62,-257.56"/>
</g>
<!-- Node24 -->
<g id="node24" class="node">
<title>Node24</title>
<g id="a_node24"><a xlink:title=" ">
<polygon fill="none" stroke="#bfbfbf" points="996.5,-232.5 996.5,-253.5 1060.5,-253.5 1060.5,-232.5 996.5,-232.5"/>
<text text-anchor="middle" x="1028.5" y="-239.9" font-family="Helvetica,sans-Serif" font-size="12.00">unistd.h</text>
</a>
</g>
</g>
<!-- Node1&#45;&gt;Node24 -->
<g id="edge33" class="edge">
<title>Node1&#45;&gt;Node24</title>
<path fill="none" stroke="midnightblue" d="M781.02,-290.47C833.53,-282.3 910.25,-269.69 986.11,-254.18"/>
<polygon fill="midnightblue" stroke="midnightblue" points="987.23,-257.52 996.32,-252.08 985.82,-250.67 987.23,-257.52"/>
</g>
<!-- Node3 -->
<g id="node3" class="node">
<title>Node3</title>
<g id="a_node3"><a xlink:href="thread_shared_list_handler_8h.html" target="_top" xlink:title=" ">
<polygon fill="none" stroke="black" points="417,-174.5 417,-195.5 592,-195.5 592,-174.5 417,-174.5"/>
<text text-anchor="middle" x="504.5" y="-181.9" font-family="Helvetica,sans-Serif" font-size="12.00">threadSharedListHandler.h</text>
</a>
</g>
</g>
<!-- Node2&#45;&gt;Node3 -->
<g id="edge2" class="edge">
<title>Node2&#45;&gt;Node3</title>
<path fill="none" stroke="midnightblue" d="M504.5,-232.25C504.5,-224.94 504.5,-214.69 504.5,-205.7"/>
<polygon fill="midnightblue" stroke="midnightblue" points="508,-205.64 504.5,-195.64 501,-205.64 508,-205.64"/>
</g>
<!-- Node7 -->
<g id="node7" class="node">
<title>Node7</title>
<g id="a_node7"><a xlink:href="model_8h.html" target="_top" xlink:title=" ">
<polygon fill="none" stroke="black" points="228.5,-174.5 228.5,-195.5 398.5,-195.5 398.5,-174.5 228.5,-174.5"/>
<text text-anchor="middle" x="313.5" y="-181.9" font-family="Helvetica,sans-Serif" font-size="12.00">MarkovModel/src/model.h</text>
</a>
</g>
</g>
<!-- Node2&#45;&gt;Node7 -->
<g id="edge6" class="edge">
<title>Node2&#45;&gt;Node7</title>
<path fill="none" stroke="midnightblue" d="M471.67,-232.37C439.63,-222.98 390.75,-208.65 355.81,-198.41"/>
<polygon fill="midnightblue" stroke="midnightblue" points="356.49,-194.96 345.91,-195.5 354.52,-201.67 356.49,-194.96"/>
</g>
<!-- Node3&#45;&gt;Node4 -->
<g id="edge3" class="edge">
<title>Node3&#45;&gt;Node4</title>
<path fill="none" stroke="midnightblue" d="M512.86,-174.25C519.68,-166.3 529.47,-154.87 537.62,-145.37"/>
<polygon fill="midnightblue" stroke="midnightblue" points="540.38,-147.51 544.23,-137.64 535.07,-142.96 540.38,-147.51"/>
</g>
<!-- Node5 -->
<g id="node5" class="node">
<title>Node5</title>
<g id="a_node5"><a xlink:title=" ">
<polygon fill="none" stroke="#bfbfbf" points="446,-116.5 446,-137.5 509,-137.5 509,-116.5 446,-116.5"/>
<text text-anchor="middle" x="477.5" y="-123.9" font-family="Helvetica,sans-Serif" font-size="12.00">fstream</text>
</a>
</g>
</g>
<!-- Node3&#45;&gt;Node5 -->
<g id="edge4" class="edge">
<title>Node3&#45;&gt;Node5</title>
<path fill="none" stroke="midnightblue" d="M499.8,-174.25C496.16,-166.7 491.01,-156.02 486.57,-146.82"/>
<polygon fill="midnightblue" stroke="midnightblue" points="489.64,-145.13 482.15,-137.64 483.34,-148.17 489.64,-145.13"/>
</g>
<!-- Node3&#45;&gt;Node6 -->
<g id="edge5" class="edge">
<title>Node3&#45;&gt;Node6</title>
<path fill="none" stroke="midnightblue" d="M528.05,-174.37C550.34,-165.26 583.99,-151.51 608.86,-141.34"/>
<polygon fill="midnightblue" stroke="midnightblue" points="610.32,-144.52 618.26,-137.5 607.68,-138.05 610.32,-144.52"/>
</g>
<!-- Node7&#45;&gt;Node4 -->
<g id="edge11" class="edge">
<title>Node7&#45;&gt;Node4</title>
<path fill="none" stroke="midnightblue" d="M359.45,-174.41C400.92,-165.58 463.5,-151.79 517.5,-138 517.6,-137.97 517.7,-137.95 517.8,-137.92"/>
<polygon fill="midnightblue" stroke="midnightblue" points="518.55,-141.34 527.31,-135.38 516.75,-134.58 518.55,-141.34"/>
</g>
<!-- Node7&#45;&gt;Node5 -->
<g id="edge9" class="edge">
<title>Node7&#45;&gt;Node5</title>
<path fill="none" stroke="midnightblue" d="M341.69,-174.37C368.85,-165.1 410.09,-151.02 440,-140.8"/>
<polygon fill="midnightblue" stroke="midnightblue" points="441.34,-144.04 449.68,-137.5 439.08,-137.42 441.34,-144.04"/>
</g>
<!-- Node8 -->
<g id="node8" class="node">
<title>Node8</title>
<g id="a_node8"><a xlink:title=" ">
<polygon fill="none" stroke="#bfbfbf" points="373.5,-58.5 373.5,-79.5 417.5,-79.5 417.5,-58.5 373.5,-58.5"/>
<text text-anchor="middle" x="395.5" y="-65.9" font-family="Helvetica,sans-Serif" font-size="12.00">map</text>
</a>
</g>
</g>
<!-- Node7&#45;&gt;Node8 -->
<g id="edge7" class="edge">
<title>Node7&#45;&gt;Node8</title>
<path fill="none" stroke="midnightblue" d="M320.49,-174.28C334.23,-155.18 364.93,-112.5 382.5,-88.08"/>
<polygon fill="midnightblue" stroke="midnightblue" points="385.53,-89.86 388.53,-79.69 379.85,-85.77 385.53,-89.86"/>
</g>
<!-- Node7&#45;&gt;Node9 -->
<g id="edge8" class="edge">
<title>Node7&#45;&gt;Node9</title>
<path fill="none" stroke="midnightblue" d="M271.85,-174.5C239.29,-166.47 193.23,-153.76 154.5,-138 117.32,-122.87 76.84,-99.98 51.82,-85.01"/>
<polygon fill="midnightblue" stroke="midnightblue" points="53.39,-81.87 43.02,-79.69 49.77,-87.86 53.39,-81.87"/>
</g>
<!-- Node10 -->
<g id="node10" class="node">
<title>Node10</title>
<g id="a_node10"><a xlink:title=" ">
<polygon fill="none" stroke="#bfbfbf" points="436,-58.5 436,-79.5 501,-79.5 501,-58.5 436,-58.5"/>
<text text-anchor="middle" x="468.5" y="-65.9" font-family="Helvetica,sans-Serif" font-size="12.00">assert.h</text>
</a>
</g>
</g>
<!-- Node7&#45;&gt;Node10 -->
<g id="edge10" class="edge">
<title>Node7&#45;&gt;Node10</title>
<path fill="none" stroke="midnightblue" d="M326.45,-174.48C353.05,-154.91 414.1,-110.01 446.83,-85.94"/>
<polygon fill="midnightblue" stroke="midnightblue" points="449.28,-88.48 455.26,-79.74 445.13,-82.84 449.28,-88.48"/>
</g>
<!-- Node11 -->
<g id="node11" class="node">
<title>Node11</title>
<g id="a_node11"><a xlink:title=" ">
<polygon fill="none" stroke="#bfbfbf" points="239.5,-116.5 239.5,-137.5 313.5,-137.5 313.5,-116.5 239.5,-116.5"/>
<text text-anchor="middle" x="276.5" y="-123.9" font-family="Helvetica,sans-Serif" font-size="12.00">algorithm</text>
</a>
</g>
</g>
<!-- Node7&#45;&gt;Node11 -->
<g id="edge12" class="edge">
<title>Node7&#45;&gt;Node11</title>
<path fill="none" stroke="midnightblue" d="M307.06,-174.25C301.96,-166.54 294.71,-155.56 288.55,-146.23"/>
<polygon fill="midnightblue" stroke="midnightblue" points="291.3,-144.06 282.87,-137.64 285.46,-147.92 291.3,-144.06"/>
</g>
<!-- Node12 -->
<g id="node12" class="node">
<title>Node12</title>
<g id="a_node12"><a xlink:href="node_8h.html" target="_top" xlink:title=" ">
<polygon fill="none" stroke="black" points="163.5,-116.5 163.5,-137.5 221.5,-137.5 221.5,-116.5 163.5,-116.5"/>
<text text-anchor="middle" x="192.5" y="-123.9" font-family="Helvetica,sans-Serif" font-size="12.00">node.h</text>
</a>
</g>
</g>
<!-- Node7&#45;&gt;Node12 -->
<g id="edge13" class="edge">
<title>Node7&#45;&gt;Node12</title>
<path fill="none" stroke="midnightblue" d="M292.7,-174.37C273.28,-165.38 244.08,-151.87 222.2,-141.75"/>
<polygon fill="midnightblue" stroke="midnightblue" points="223.57,-138.52 213.03,-137.5 220.63,-144.88 223.57,-138.52"/>
</g>
<!-- Node15 -->
<g id="node15" class="node">
<title>Node15</title>
<g id="a_node15"><a xlink:href="edge_8h.html" target="_top" xlink:title=" ">
<polygon fill="none" stroke="black" points="297.5,-58.5 297.5,-79.5 355.5,-79.5 355.5,-58.5 297.5,-58.5"/>
<text text-anchor="middle" x="326.5" y="-65.9" font-family="Helvetica,sans-Serif" font-size="12.00">edge.h</text>
</a>
</g>
</g>
<!-- Node7&#45;&gt;Node15 -->
<g id="edge25" class="edge">
<title>Node7&#45;&gt;Node15</title>
<path fill="none" stroke="midnightblue" d="M315.82,-174.19C317.91,-164.92 320.9,-150.59 322.5,-138 324.54,-121.87 325.55,-103.45 326.04,-89.85"/>
<polygon fill="midnightblue" stroke="midnightblue" points="329.54,-89.82 326.34,-79.72 322.54,-89.61 329.54,-89.82"/>
</g>
<!-- Node12&#45;&gt;Node8 -->
<g id="edge15" class="edge">
<title>Node12&#45;&gt;Node8</title>
<path fill="none" stroke="midnightblue" d="M221.69,-118.28C261.93,-107.63 332.31,-88.95 363.36,-80.18"/>
<polygon fill="midnightblue" stroke="midnightblue" points="364.55,-83.48 373.19,-77.35 362.61,-76.76 364.55,-83.48"/>
</g>
<!-- Node12&#45;&gt;Node9 -->
<g id="edge14" class="edge">
<title>Node12&#45;&gt;Node9</title>
<path fill="none" stroke="midnightblue" d="M164.14,-116.37C136.73,-107.07 95.07,-92.93 64.95,-82.71"/>
<polygon fill="midnightblue" stroke="midnightblue" points="65.81,-79.31 55.22,-79.41 63.56,-85.94 65.81,-79.31"/>
</g>
<!-- Node12&#45;&gt;Node10 -->
<g id="edge16" class="edge">
<title>Node12&#45;&gt;Node10</title>
<path fill="none" stroke="midnightblue" d="M221.9,-118.03C224.8,-117.31 227.7,-116.62 230.5,-116 313.9,-97.39 338.15,-98.18 426.1,-79.99"/>
<polygon fill="midnightblue" stroke="midnightblue" points="426.91,-83.39 435.98,-77.92 425.47,-76.54 426.91,-83.39"/>
</g>
<!-- Node13 -->
<g id="node13" class="node">
<title>Node13</title>
<g id="a_node13"><a xlink:title=" ">
<polygon fill="none" stroke="#bfbfbf" points="86,-0.5 86,-21.5 155,-21.5 155,-0.5 86,-0.5"/>
<text text-anchor="middle" x="120.5" y="-7.9" font-family="Helvetica,sans-Serif" font-size="12.00">iostream</text>
</a>
</g>
</g>
<!-- Node12&#45;&gt;Node13 -->
<g id="edge17" class="edge">
<title>Node12&#45;&gt;Node13</title>
<path fill="none" stroke="midnightblue" d="M163.47,-119.67C142.52,-113.41 115.69,-101.55 102.5,-80 93.28,-64.94 100.22,-45.19 108.01,-30.86"/>
<polygon fill="midnightblue" stroke="midnightblue" points="111.22,-32.31 113.35,-21.93 105.21,-28.72 111.22,-32.31"/>
</g>
<!-- Node14 -->
<g id="node14" class="node">
<title>Node14</title>
<g id="a_node14"><a xlink:title=" ">
<polygon fill="none" stroke="#bfbfbf" points="112,-58.5 112,-79.5 187,-79.5 187,-58.5 112,-58.5"/>
<text text-anchor="middle" x="149.5" y="-65.9" font-family="Helvetica,sans-Serif" font-size="12.00">stdexcept</text>
</a>
</g>
</g>
<!-- Node12&#45;&gt;Node14 -->
<g id="edge18" class="edge">
<title>Node12&#45;&gt;Node14</title>
<path fill="none" stroke="midnightblue" d="M185.01,-116.25C178.97,-108.38 170.31,-97.1 163.06,-87.65"/>
<polygon fill="midnightblue" stroke="midnightblue" points="165.77,-85.44 156.9,-79.64 160.22,-89.71 165.77,-85.44"/>
</g>
<!-- Node12&#45;&gt;Node15 -->
<g id="edge19" class="edge">
<title>Node12&#45;&gt;Node15</title>
<path fill="none" stroke="midnightblue" d="M215.54,-116.37C237.24,-107.3 269.96,-93.63 294.25,-83.48"/>
<polygon fill="midnightblue" stroke="midnightblue" points="295.89,-86.59 303.77,-79.5 293.19,-80.13 295.89,-86.59"/>
</g>
<!-- Node18 -->
<g id="node18" class="node">
<title>Node18</title>
<g id="a_node18"><a xlink:href="random_8h.html" target="_top" xlink:title=" ">
<polygon fill="none" stroke="black" points="205,-58.5 205,-79.5 280,-79.5 280,-58.5 205,-58.5"/>
<text text-anchor="middle" x="242.5" y="-65.9" font-family="Helvetica,sans-Serif" font-size="12.00">random.h</text>
</a>
</g>
</g>
<!-- Node12&#45;&gt;Node18 -->
<g id="edge22" class="edge">
<title>Node12&#45;&gt;Node18</title>
<path fill="none" stroke="midnightblue" d="M201.21,-116.25C208.31,-108.3 218.51,-96.87 227,-87.37"/>
<polygon fill="midnightblue" stroke="midnightblue" points="229.84,-89.43 233.89,-79.64 224.62,-84.77 229.84,-89.43"/>
</g>
<!-- Node16 -->
<g id="node16" class="node">
<title>Node16</title>
<g id="a_node16"><a xlink:title=" ">
<polygon fill="none" stroke="#bfbfbf" points="295.5,-0.5 295.5,-21.5 351.5,-21.5 351.5,-0.5 295.5,-0.5"/>
<text text-anchor="middle" x="323.5" y="-7.9" font-family="Helvetica,sans-Serif" font-size="12.00">cstdint</text>
</a>
</g>
</g>
<!-- Node15&#45;&gt;Node16 -->
<g id="edge20" class="edge">
<title>Node15&#45;&gt;Node16</title>
<path fill="none" stroke="midnightblue" d="M325.98,-58.25C325.59,-50.94 325.04,-40.69 324.56,-31.7"/>
<polygon fill="midnightblue" stroke="midnightblue" points="328.05,-31.44 324.02,-21.64 321.06,-31.82 328.05,-31.44"/>
</g>
<!-- Node17 -->
<g id="node17" class="node">
<title>Node17</title>
<g id="a_node17"><a xlink:title=" ">
<polygon fill="none" stroke="#bfbfbf" points="370,-0.5 370,-21.5 431,-21.5 431,-0.5 370,-0.5"/>
<text text-anchor="middle" x="400.5" y="-7.9" font-family="Helvetica,sans-Serif" font-size="12.00">cstddef</text>
</a>
</g>
</g>
<!-- Node15&#45;&gt;Node17 -->
<g id="edge21" class="edge">
<title>Node15&#45;&gt;Node17</title>
<path fill="none" stroke="midnightblue" d="M339.39,-58.25C350.43,-49.89 366.53,-37.71 379.44,-27.94"/>
<polygon fill="midnightblue" stroke="midnightblue" points="381.9,-30.47 387.76,-21.64 377.67,-24.89 381.9,-30.47"/>
</g>
<!-- Node18&#45;&gt;Node13 -->
<g id="edge24" class="edge">
<title>Node18&#45;&gt;Node13</title>
<path fill="none" stroke="midnightblue" d="M221.53,-58.37C201.94,-49.38 172.5,-35.87 150.45,-25.75"/>
<polygon fill="midnightblue" stroke="midnightblue" points="151.75,-22.49 141.2,-21.5 148.83,-28.85 151.75,-22.49"/>
</g>
<!-- Node19 -->
<g id="node19" class="node">
<title>Node19</title>
<g id="a_node19"><a xlink:title=" ">
<polygon fill="none" stroke="#bfbfbf" points="210.5,-0.5 210.5,-21.5 274.5,-21.5 274.5,-0.5 210.5,-0.5"/>
<text text-anchor="middle" x="242.5" y="-7.9" font-family="Helvetica,sans-Serif" font-size="12.00">random</text>
</a>
</g>
</g>
<!-- Node18&#45;&gt;Node19 -->
<g id="edge23" class="edge">
<title>Node18&#45;&gt;Node19</title>
<path fill="none" stroke="midnightblue" d="M242.5,-58.25C242.5,-50.94 242.5,-40.69 242.5,-31.7"/>
<polygon fill="midnightblue" stroke="midnightblue" points="246,-31.64 242.5,-21.64 239,-31.64 246,-31.64"/>
</g>
</g>
</svg>
