<?xml version="1.0" encoding="UTF-8" standalone="no"?>
<!DOCTYPE svg PUBLIC "-//W3C//DTD SVG 1.1//EN"
 "http://www.w3.org/Graphics/SVG/1.1/DTD/svg11.dtd">
<!-- Generated by graphviz version 2.43.0 (0)
 -->
<!-- Title: markovPasswords.h Pages: 1 -->
<!--zoomable 262 -->
<svg id="main" version="1.1" xmlns="http://www.w3.org/2000/svg" xmlns:xlink="http://www.w3.org/1999/xlink" xml:space="preserve" onload="init(evt)">
<style type="text/css"><![CDATA[
.edge:hover path { stroke: red; }
.edge:hover polygon { stroke: red; fill: red; }
]]></style>
<script type="text/javascript"><![CDATA[
var edges = document.getElementsByTagName('g');
if (edges && edges.length) {
  for (var i=0;i<edges.length;i++) {
    if (edges[i].id.substr(0,4)=='edge') {
      edges[i].setAttribute('class','edge');
    }
  }
}
]]></script>
        <defs>
                <circle id="rim" cx="0" cy="0" r="7"/>
                <circle id="rim2" cx="0" cy="0" r="3.5"/>
                <g id="zoomPlus">
                        <use xlink:href="#rim" fill="#404040">
                                <set attributeName="fill" to="#808080" begin="zoomplus.mouseover" end="zoomplus.mouseout"/>
                        </use>
                        <path d="M-4,0h8M0,-4v8" fill="none" stroke="white" stroke-width="1.5" pointer-events="none"/>
                </g>
                <g id="zoomMin">
                        <use xlink:href="#rim" fill="#404040">
                                <set attributeName="fill" to="#808080" begin="zoomminus.mouseover" end="zoomminus.mouseout"/>
                        </use>
                        <path d="M-4,0h8" fill="none" stroke="white" stroke-width="1.5" pointer-events="none"/>
                </g>
                <g id="dirArrow">
                        <path fill="none" stroke="white" stroke-width="1.5" d="M0,-3.0v7 M-2.5,-0.5L0,-3.0L2.5,-0.5"/>
                </g>
               <g id="resetDef">
                       <use xlink:href="#rim2" fill="#404040">
                               <set attributeName="fill" to="#808080" begin="reset.mouseover" end="reset.mouseout"/>
                       </use>
               </g>
        </defs>

<script type="text/javascript">
var viewWidth = 595;
var viewHeight = 262;
var sectionId = 'dynsection-0';
</script>
<script xlink:href="svgpan.js"/>
<svg id="graph" class="graph">
<g id="viewport">
<title>markovPasswords.h</title>
<!-- Node1 -->
<g id="node1" class="node">
<title>Node1</title>
<g id="a_node1"><a xlink:title=" ">
<polygon fill="#bfbfbf" stroke="black" points="132.5,-232.5 132.5,-253.5 266.5,-253.5 266.5,-232.5 132.5,-232.5"/>
<text text-anchor="middle" x="199.5" y="-239.9" font-family="Helvetica,sans-Serif" font-size="12.00">markovPasswords.h</text>
</a>
</g>
</g>
<!-- Node2 -->
<g id="node2" class="node">
<title>Node2</title>
<g id="a_node2"><a xlink:href="thread_shared_list_handler_8h.html" target="_top" xlink:title=" ">
<polygon fill="none" stroke="black" points="17,-174.5 17,-195.5 192,-195.5 192,-174.5 17,-174.5"/>
<text text-anchor="middle" x="104.5" y="-181.9" font-family="Helvetica,sans-Serif" font-size="12.00">threadSharedListHandler.h</text>
</a>
</g>
</g>
<!-- Node1&#45;&gt;Node2 -->
<g id="edge1" class="edge">
<title>Node1&#45;&gt;Node2</title>
<path fill="none" stroke="midnightblue" d="M182.95,-232.25C168.24,-223.57 146.51,-210.76 129.65,-200.82"/>
<polygon fill="midnightblue" stroke="midnightblue" points="131.25,-197.71 120.86,-195.64 127.7,-203.74 131.25,-197.71"/>
</g>
<!-- Node6 -->
<g id="node6" class="node">
<title>Node6</title>
<g id="a_node6"><a xlink:href="model_8h.html" target="_top" xlink:title=" ">
<polygon fill="none" stroke="black" points="210.5,-174.5 210.5,-195.5 380.5,-195.5 380.5,-174.5 210.5,-174.5"/>
<text text-anchor="middle" x="295.5" y="-181.9" font-family="Helvetica,sans-Serif" font-size="12.00">MarkovModel/src/model.h</text>
</a>
</g>
</g>
<!-- Node1&#45;&gt;Node6 -->
<g id="edge5" class="edge">
<title>Node1&#45;&gt;Node6</title>
<path fill="none" stroke="midnightblue" d="M216.22,-232.25C231.09,-223.57 253.05,-210.76 270.09,-200.82"/>
<polygon fill="midnightblue" stroke="midnightblue" points="272.1,-203.7 278.97,-195.64 268.57,-197.66 272.1,-203.7"/>
</g>
<!-- Node3 -->
<g id="node3" class="node">
<title>Node3</title>
<g id="a_node3"><a xlink:title=" ">
<polygon fill="none" stroke="#bfbfbf" points="154.5,-116.5 154.5,-137.5 204.5,-137.5 204.5,-116.5 154.5,-116.5"/>
<text text-anchor="middle" x="179.5" y="-123.9" font-family="Helvetica,sans-Serif" font-size="12.00">string</text>
</a>
</g>
</g>
<!-- Node2&#45;&gt;Node3 -->
<g id="edge2" class="edge">
<title>Node2&#45;&gt;Node3</title>
<path fill="none" stroke="midnightblue" d="M117.56,-174.25C128.86,-165.81 145.38,-153.47 158.53,-143.66"/>
<polygon fill="midnightblue" stroke="midnightblue" points="160.67,-146.43 166.59,-137.64 156.48,-140.82 160.67,-146.43"/>
</g>
<!-- Node4 -->
<g id="node4" class="node">
<title>Node4</title>
<g id="a_node4"><a xlink:title=" ">
<polygon fill="none" stroke="#bfbfbf" points="73,-116.5 73,-137.5 136,-137.5 136,-116.5 73,-116.5"/>
<text text-anchor="middle" x="104.5" y="-123.9" font-family="Helvetica,sans-Serif" font-size="12.00">fstream</text>
</a>
</g>
</g>
<!-- Node2&#45;&gt;Node4 -->
<g id="edge3" class="edge">
<title>Node2&#45;&gt;Node4</title>
<path fill="none" stroke="midnightblue" d="M104.5,-174.25C104.5,-166.94 104.5,-156.69 104.5,-147.7"/>
<polygon fill="midnightblue" stroke="midnightblue" points="108,-147.64 104.5,-137.64 101,-147.64 108,-147.64"/>
</g>
<!-- Node5 -->
<g id="node5" class="node">
<title>Node5</title>
<g id="a_node5"><a xlink:title=" ">
<polygon fill="none" stroke="#bfbfbf" points="0,-116.5 0,-137.5 55,-137.5 55,-116.5 0,-116.5"/>
<text text-anchor="middle" x="27.5" y="-123.9" font-family="Helvetica,sans-Serif" font-size="12.00">mutex</text>
</a>
</g>
</g>
<!-- Node2&#45;&gt;Node5 -->
<g id="edge4" class="edge">
<title>Node2&#45;&gt;Node5</title>
<path fill="none" stroke="midnightblue" d="M91.09,-174.25C79.49,-165.81 62.53,-153.47 49.03,-143.66"/>
<polygon fill="midnightblue" stroke="midnightblue" points="50.9,-140.69 40.76,-137.64 46.79,-146.36 50.9,-140.69"/>
</g>
<!-- Node6&#45;&gt;Node3 -->
<g id="edge10" class="edge">
<title>Node6&#45;&gt;Node3</title>
<path fill="none" stroke="midnightblue" d="M275.56,-174.37C257.02,-165.42 229.2,-151.99 208.26,-141.88"/>
<polygon fill="midnightblue" stroke="midnightblue" points="209.71,-138.7 199.18,-137.5 206.66,-145 209.71,-138.7"/>
</g>
<!-- Node6&#45;&gt;Node4 -->
<g id="edge8" class="edge">
<title>Node6&#45;&gt;Node4</title>
<path fill="none" stroke="midnightblue" d="M262.67,-174.37C230.44,-164.92 181.16,-150.48 146.18,-140.22"/>
<polygon fill="midnightblue" stroke="midnightblue" points="146.85,-136.77 136.27,-137.32 144.88,-143.49 146.85,-136.77"/>
</g>
<!-- Node7 -->
<g id="node7" class="node">
<title>Node7</title>
<g id="a_node7"><a xlink:title=" ">
<polygon fill="none" stroke="#bfbfbf" points="386.5,-58.5 386.5,-79.5 430.5,-79.5 430.5,-58.5 386.5,-58.5"/>
<text text-anchor="middle" x="408.5" y="-65.9" font-family="Helvetica,sans-Serif" font-size="12.00">map</text>
</a>
</g>
</g>
<!-- Node6&#45;&gt;Node7 -->
<g id="edge6" class="edge">
<title>Node6&#45;&gt;Node7</title>
<path fill="none" stroke="midnightblue" d="M363.24,-174.47C384.82,-167.88 406.45,-156.76 419.5,-138 429.49,-123.64 424.47,-103.5 418.34,-88.86"/>
<polygon fill="midnightblue" stroke="midnightblue" points="421.49,-87.33 414.08,-79.75 415.14,-90.29 421.49,-87.33"/>
</g>
<!-- Node8 -->
<g id="node8" class="node">
<title>Node8</title>
<g id="a_node8"><a xlink:title=" ">
<polygon fill="none" stroke="#bfbfbf" points="449,-58.5 449,-79.5 504,-79.5 504,-58.5 449,-58.5"/>
<text text-anchor="middle" x="476.5" y="-65.9" font-family="Helvetica,sans-Serif" font-size="12.00">vector</text>
</a>
</g>
</g>
<!-- Node6&#45;&gt;Node8 -->
<g id="edge7" class="edge">
<title>Node6&#45;&gt;Node8</title>
<path fill="none" stroke="midnightblue" d="M354.14,-174.46C381.1,-167.77 412.19,-156.57 435.5,-138 451.44,-125.3 462.65,-104.58 469.27,-89.35"/>
<polygon fill="midnightblue" stroke="midnightblue" points="472.61,-90.42 473.12,-79.84 466.12,-87.79 472.61,-90.42"/>
</g>
<!-- Node9 -->
<g id="node9" class="node">
<title>Node9</title>
<g id="a_node9"><a xlink:title=" ">
<polygon fill="none" stroke="#bfbfbf" points="522,-58.5 522,-79.5 587,-79.5 587,-58.5 522,-58.5"/>
<text text-anchor="middle" x="554.5" y="-65.9" font-family="Helvetica,sans-Serif" font-size="12.00">assert.h</text>
</a>
</g>
</g>
<!-- Node6&#45;&gt;Node9 -->
<g id="edge9" class="edge">
<title>Node6&#45;&gt;Node9</title>
<path fill="none" stroke="midnightblue" d="M345.95,-174.43C378.99,-167.06 422.55,-155.17 458.5,-138 487.75,-124.03 517.62,-101.25 536.11,-85.95"/>
<polygon fill="midnightblue" stroke="midnightblue" points="538.37,-88.62 543.76,-79.5 533.86,-83.27 538.37,-88.62"/>
</g>
<!-- Node10 -->
<g id="node10" class="node">
<title>Node10</title>
<g id="a_node10"><a xlink:title=" ">
<polygon fill="none" stroke="#bfbfbf" points="336.5,-116.5 336.5,-137.5 410.5,-137.5 410.5,-116.5 336.5,-116.5"/>
<text text-anchor="middle" x="373.5" y="-123.9" font-family="Helvetica,sans-Serif" font-size="12.00">algorithm</text>
</a>
</g>
</g>
<!-- Node6&#45;&gt;Node10 -->
<g id="edge11" class="edge">
<title>Node6&#45;&gt;Node10</title>
<path fill="none" stroke="midnightblue" d="M309.09,-174.25C320.83,-165.81 338.02,-153.47 351.69,-143.66"/>
<polygon fill="midnightblue" stroke="midnightblue" points="353.99,-146.32 360.07,-137.64 349.9,-140.63 353.99,-146.32"/>
</g>
<!-- Node11 -->
<g id="node11" class="node">
<title>Node11</title>
<g id="a_node11"><a xlink:href="node_8h.html" target="_top" xlink:title=" ">
<polygon fill="none" stroke="black" points="260.5,-116.5 260.5,-137.5 318.5,-137.5 318.5,-116.5 260.5,-116.5"/>
<text text-anchor="middle" x="289.5" y="-123.9" font-family="Helvetica,sans-Serif" font-size="12.00">node.h</text>
</a>
</g>
</g>
<!-- Node6&#45;&gt;Node11 -->
<g id="edge12" class="edge">
<title>Node6&#45;&gt;Node11</title>
<path fill="none" stroke="midnightblue" d="M294.45,-174.25C293.67,-166.94 292.57,-156.69 291.61,-147.7"/>
<polygon fill="midnightblue" stroke="midnightblue" points="295.08,-147.21 290.53,-137.64 288.12,-147.96 295.08,-147.21"/>
</g>
<!-- Node14 -->
<g id="node14" class="node">
<title>Node14</title>
<g id="a_node14"><a xlink:href="edge_8h.html" target="_top" xlink:title=" ">
<polygon fill="none" stroke="black" points="86.5,-58.5 86.5,-79.5 144.5,-79.5 144.5,-58.5 86.5,-58.5"/>
<text text-anchor="middle" x="115.5" y="-65.9" font-family="Helvetica,sans-Serif" font-size="12.00">edge.h</text>
</a>
</g>
</g>
<!-- Node6&#45;&gt;Node14 -->
<g id="edge24" class="edge">
<title>Node6&#45;&gt;Node14</title>
<path fill="none" stroke="midnightblue" d="M285.54,-174.3C270.73,-160.21 241.61,-133.84 213.5,-116 193.27,-103.16 168.89,-91.7 149.51,-83.43"/>
<polygon fill="midnightblue" stroke="midnightblue" points="150.73,-80.15 140.16,-79.52 148.03,-86.61 150.73,-80.15"/>
</g>
<!-- Node11&#45;&gt;Node7 -->
<g id="edge14" class="edge">
<title>Node11&#45;&gt;Node7</title>
<path fill="none" stroke="midnightblue" d="M309.96,-116.37C328.97,-107.42 357.52,-93.99 379,-83.88"/>
<polygon fill="midnightblue" stroke="midnightblue" points="380.75,-86.93 388.31,-79.5 377.77,-80.59 380.75,-86.93"/>
</g>
<!-- Node11&#45;&gt;Node8 -->
<g id="edge13" class="edge">
<title>Node11&#45;&gt;Node8</title>
<path fill="none" stroke="midnightblue" d="M318.72,-117.25C351.07,-107.56 403.31,-91.92 438.74,-81.31"/>
<polygon fill="midnightblue" stroke="midnightblue" points="440.13,-84.55 448.71,-78.32 438.12,-77.84 440.13,-84.55"/>
</g>
<!-- Node11&#45;&gt;Node9 -->
<g id="edge15" class="edge">
<title>Node11&#45;&gt;Node9</title>
<path fill="none" stroke="midnightblue" d="M318.91,-118.05C321.81,-117.33 324.71,-116.64 327.5,-116 406.55,-97.97 429.55,-97.96 512.05,-80.24"/>
<polygon fill="midnightblue" stroke="midnightblue" points="512.83,-83.65 521.86,-78.11 511.34,-76.81 512.83,-83.65"/>
</g>
<!-- Node12 -->
<g id="node12" class="node">
<title>Node12</title>
<g id="a_node12"><a xlink:title=" ">
<polygon fill="none" stroke="#bfbfbf" points="164,-0.5 164,-21.5 233,-21.5 233,-0.5 164,-0.5"/>
<text text-anchor="middle" x="198.5" y="-7.9" font-family="Helvetica,sans-Serif" font-size="12.00">iostream</text>
</a>
</g>
</g>
<!-- Node11&#45;&gt;Node12 -->
<g id="edge16" class="edge">
<title>Node11&#45;&gt;Node12</title>
<path fill="none" stroke="midnightblue" d="M261.2,-116.41C235.48,-107.05 200.37,-92.44 192.5,-80 183.32,-65.49 186.45,-45.63 190.9,-31.12"/>
<polygon fill="midnightblue" stroke="midnightblue" points="194.21,-32.25 194.21,-21.65 187.61,-29.94 194.21,-32.25"/>
</g>
<!-- Node13 -->
<g id="node13" class="node">
<title>Node13</title>
<g id="a_node13"><a xlink:title=" ">
<polygon fill="none" stroke="#bfbfbf" points="294,-58.5 294,-79.5 369,-79.5 369,-58.5 294,-58.5"/>
<text text-anchor="middle" x="331.5" y="-65.9" font-family="Helvetica,sans-Serif" font-size="12.00">stdexcept</text>
</a>
</g>
</g>
<!-- Node11&#45;&gt;Node13 -->
<g id="edge17" class="edge">
<title>Node11&#45;&gt;Node13</title>
<path fill="none" stroke="midnightblue" d="M296.82,-116.25C302.72,-108.38 311.17,-97.1 318.26,-87.65"/>
<polygon fill="midnightblue" stroke="midnightblue" points="321.07,-89.74 324.27,-79.64 315.47,-85.54 321.07,-89.74"/>
</g>
<!-- Node11&#45;&gt;Node14 -->
<g id="edge18" class="edge">
<title>Node11&#45;&gt;Node14</title>
<path fill="none" stroke="midnightblue" d="M260.38,-116.63C231.27,-107.26 186.34,-92.8 154.24,-82.47"/>
<polygon fill="midnightblue" stroke="midnightblue" points="155.31,-79.14 144.72,-79.4 153.17,-85.8 155.31,-79.14"/>
</g>
<!-- Node17 -->
<g id="node17" class="node">
<title>Node17</title>
<g id="a_node17"><a xlink:href="random_8h.html" target="_top" xlink:title=" ">
<polygon fill="none" stroke="black" points="201,-58.5 201,-79.5 276,-79.5 276,-58.5 201,-58.5"/>
<text text-anchor="middle" x="238.5" y="-65.9" font-family="Helvetica,sans-Serif" font-size="12.00">random.h</text>
</a>
</g>
</g>
<!-- Node11&#45;&gt;Node17 -->
<g id="edge21" class="edge">
<title>Node11&#45;&gt;Node17</title>
<path fill="none" stroke="midnightblue" d="M280.62,-116.25C273.3,-108.22 262.76,-96.64 254.05,-87.08"/>
<polygon fill="midnightblue" stroke="midnightblue" points="256.6,-84.68 247.28,-79.64 251.43,-89.39 256.6,-84.68"/>
</g>
<!-- Node15 -->
<g id="node15" class="node">
<title>Node15</title>
<g id="a_node15"><a xlink:title=" ">
<polygon fill="none" stroke="#bfbfbf" points="10.5,-0.5 10.5,-21.5 66.5,-21.5 66.5,-0.5 10.5,-0.5"/>
<text text-anchor="middle" x="38.5" y="-7.9" font-family="Helvetica,sans-Serif" font-size="12.00">cstdint</text>
</a>
</g>
</g>
<!-- Node14&#45;&gt;Node15 -->
<g id="edge19" class="edge">
<title>Node14&#45;&gt;Node15</title>
<path fill="none" stroke="midnightblue" d="M102.09,-58.25C90.49,-49.81 73.53,-37.47 60.03,-27.66"/>
<polygon fill="midnightblue" stroke="midnightblue" points="61.9,-24.69 51.76,-21.64 57.79,-30.36 61.9,-24.69"/>
</g>
<!-- Node16 -->
<g id="node16" class="node">
<title>Node16</title>
<g id="a_node16"><a xlink:title=" ">
<polygon fill="none" stroke="#bfbfbf" points="85,-0.5 85,-21.5 146,-21.5 146,-0.5 85,-0.5"/>
<text text-anchor="middle" x="115.5" y="-7.9" font-family="Helvetica,sans-Serif" font-size="12.00">cstddef</text>
</a>
</g>
</g>
<!-- Node14&#45;&gt;Node16 -->
<g id="edge20" class="edge">
<title>Node14&#45;&gt;Node16</title>
<path fill="none" stroke="midnightblue" d="M115.5,-58.25C115.5,-50.94 115.5,-40.69 115.5,-31.7"/>
<polygon fill="midnightblue" stroke="midnightblue" points="119,-31.64 115.5,-21.64 112,-31.64 119,-31.64"/>
</g>
<!-- Node17&#45;&gt;Node12 -->
<g id="edge23" class="edge">
<title>Node17&#45;&gt;Node12</title>
<path fill="none" stroke="midnightblue" d="M231.53,-58.25C225.97,-50.46 218.02,-39.33 211.32,-29.94"/>
<polygon fill="midnightblue" stroke="midnightblue" points="214.05,-27.75 205.39,-21.64 208.35,-31.81 214.05,-27.75"/>
</g>
<!-- Node18 -->
<g id="node18" class="node">
<title>Node18</title>
<g id="a_node18"><a xlink:title=" ">
<polygon fill="none" stroke="#bfbfbf" points="251.5,-0.5 251.5,-21.5 315.5,-21.5 315.5,-0.5 251.5,-0.5"/>
<text text-anchor="middle" x="283.5" y="-7.9" font-family="Helvetica,sans-Serif" font-size="12.00">random</text>
</a>
</g>
</g>
<!-- Node17&#45;&gt;Node18 -->
<g id="edge22" class="edge">
<title>Node17&#45;&gt;Node18</title>
<path fill="none" stroke="midnightblue" d="M246.34,-58.25C252.66,-50.38 261.72,-39.1 269.31,-29.65"/>
<polygon fill="midnightblue" stroke="midnightblue" points="272.22,-31.63 275.75,-21.64 266.76,-27.25 272.22,-31.63"/>
</g>
</g>
</svg>
        <g id="navigator" transform="translate(0 0)" fill="#404254">
                <rect fill="#f2f5e9" fill-opacity="0.5" stroke="#606060" stroke-width=".5" x="0" y="0" width="60" height="60"/>
                <use id="zoomplus" xlink:href="#zoomPlus" x="17" y="9" onmousedown="handleZoom(evt,'in')"/>
                <use id="zoomminus" xlink:href="#zoomMin" x="42" y="9" onmousedown="handleZoom(evt,'out')"/>
                <use id="reset" xlink:href="#resetDef" x="30" y="36" onmousedown="handleReset()"/>
                <g id="arrowUp" xlink:href="#dirArrow" transform="translate(30 24)" onmousedown="handlePan(0,-1)">
                  <use xlink:href="#rim" fill="#404040">
                        <set attributeName="fill" to="#808080" begin="arrowUp.mouseover" end="arrowUp.mouseout"/>
                  </use>
                  <path fill="none" stroke="white" stroke-width="1.5" d="M0,-3.0v7 M-2.5,-0.5L0,-3.0L2.5,-0.5"/>
                </g>
                <g id="arrowRight" xlink:href="#dirArrow" transform="rotate(90) translate(36 -43)" onmousedown="handlePan(1,0)">
                  <use xlink:href="#rim" fill="#404040">
                        <set attributeName="fill" to="#808080" begin="arrowRight.mouseover" end="arrowRight.mouseout"/>
                  </use>
                  <path fill="none" stroke="white" stroke-width="1.5" d="M0,-3.0v7 M-2.5,-0.5L0,-3.0L2.5,-0.5"/>
                </g>
                <g id="arrowDown" xlink:href="#dirArrow" transform="rotate(180) translate(-30 -48)" onmousedown="handlePan(0,1)">
                  <use xlink:href="#rim" fill="#404040">
                        <set attributeName="fill" to="#808080" begin="arrowDown.mouseover" end="arrowDown.mouseout"/>
                  </use>
                  <path fill="none" stroke="white" stroke-width="1.5" d="M0,-3.0v7 M-2.5,-0.5L0,-3.0L2.5,-0.5"/>
                </g>
                <g id="arrowLeft" xlink:href="#dirArrow" transform="rotate(270) translate(-36 17)" onmousedown="handlePan(-1,0)">
                  <use xlink:href="#rim" fill="#404040">
                        <set attributeName="fill" to="#808080" begin="arrowLeft.mouseover" end="arrowLeft.mouseout"/>
                  </use>
                  <path fill="none" stroke="white" stroke-width="1.5" d="M0,-3.0v7 M-2.5,-0.5L0,-3.0L2.5,-0.5"/>
                </g>
        </g>
        <svg viewBox="0 0 15 15" width="100%" height="30px" preserveAspectRatio="xMaxYMin meet">
         <g id="arrow_out" transform="scale(0.3 0.3)">
          <a xlink:href="markov_passwords_8h__incl_org.svg" target="_base">
           <rect id="button" ry="5" rx="5" y="6" x="6" height="38" width="38"
                fill="#f2f5e9" fill-opacity="0.5" stroke="#606060" stroke-width="1.0"/>
           <path id="arrow"
             d="M 11.500037,31.436501 C 11.940474,20.09759 22.043105,11.32322 32.158766,21.979434 L 37.068811,17.246167 C 37.068811,17.246167 37.088388,32 37.088388,32 L 22.160133,31.978069 C 22.160133,31.978069 26.997745,27.140456 26.997745,27.140456 C 18.528582,18.264221 13.291696,25.230495 11.500037,31.436501 z"
             style="fill:#404040;"/>
          </a>
         </g>
        </svg>
</svg>
