<?xml version="1.0" encoding="UTF-8" standalone="no"?>
<!DOCTYPE svg PUBLIC "-//W3C//DTD SVG 1.1//EN"
 "http://www.w3.org/Graphics/SVG/1.1/DTD/svg11.dtd">
<!-- Generated by graphviz version 2.43.0 (0)
 -->
<!-- Title: intHandler Pages: 1 -->
<svg width="777pt" height="195pt"
 viewBox="0.00 0.00 777.00 195.00" xmlns="http://www.w3.org/2000/svg" xmlns:xlink="http://www.w3.org/1999/xlink">
<g id="graph0" class="graph" transform="scale(1 1) rotate(0) translate(4 191)">
<title>intHandler</title>
<!-- Node1 -->
<g id="node1" class="node">
<title>Node1</title>
<g id="a_node1"><a xlink:title=" ">
<polygon fill="#bfbfbf" stroke="black" points="690,-83 690,-104 769,-104 769,-83 690,-83"/>
<text text-anchor="middle" x="729.5" y="-90.4" font-family="Helvetica,sans-Serif" font-size="12.00">intHandler</text>
</a>
</g>
</g>
<!-- Node2 -->
<g id="node2" class="node">
<title>Node2</title>
<g id="a_node2"><a xlink:href="class_markov_1_1_a_p_i_1_1_markov_passwords.html#a2fd4423ae3850e258dcb6b11a7feb9b2" target="_top" xlink:title="Train the model with the dataset file.">
<polygon fill="none" stroke="black" points="454,-76.5 454,-110.5 654,-110.5 654,-76.5 454,-76.5"/>
<text text-anchor="start" x="462" y="-96.9" font-family="Helvetica,sans-Serif" font-size="12.00">Markov::API::MarkovPasswords</text>
<text text-anchor="middle" x="554" y="-83.9" font-family="Helvetica,sans-Serif" font-size="12.00">::Train</text>
</a>
</g>
</g>
<!-- Node1&#45;&gt;Node2 -->
<g id="edge1" class="edge">
<title>Node1&#45;&gt;Node2</title>
<path fill="none" stroke="midnightblue" d="M679.94,-93.5C671.74,-93.5 662.97,-93.5 654.02,-93.5"/>
<polygon fill="midnightblue" stroke="midnightblue" points="679.99,-97 689.99,-93.5 679.99,-90 679.99,-97"/>
</g>
<!-- Node3 -->
<g id="node3" class="node">
<title>Node3</title>
<g id="a_node3"><a xlink:href="namespace_markov_1_1_markopy.html#a379628c09859652215496b63af2bcac9" target="_top" xlink:title=" ">
<polygon fill="none" stroke="black" points="21.5,-53.5 21.5,-87.5 191.5,-87.5 191.5,-53.5 21.5,-53.5"/>
<text text-anchor="start" x="29.5" y="-73.9" font-family="Helvetica,sans-Serif" font-size="12.00">Markov::Markopy::BOOST</text>
<text text-anchor="middle" x="106.5" y="-60.9" font-family="Helvetica,sans-Serif" font-size="12.00">_PYTHON_MODULE</text>
</a>
</g>
</g>
<!-- Node2&#45;&gt;Node3 -->
<g id="edge2" class="edge">
<title>Node2&#45;&gt;Node3</title>
<path fill="none" stroke="midnightblue" d="M443.54,-87.85C365.85,-83.84 263.09,-78.53 191.75,-74.85"/>
<polygon fill="midnightblue" stroke="midnightblue" points="443.69,-91.36 453.85,-88.38 444.05,-84.37 443.69,-91.36"/>
</g>
<!-- Node4 -->
<g id="node4" class="node">
<title>Node4</title>
<g id="a_node4"><a xlink:href="class_markov_1_1_g_u_i_1_1_generate.html#af5f5d0fcc5530157d882e35e35d1649e" target="_top" xlink:title=" ">
<polygon fill="none" stroke="black" points="256.5,-152.5 256.5,-186.5 410.5,-186.5 410.5,-152.5 256.5,-152.5"/>
<text text-anchor="start" x="264.5" y="-172.9" font-family="Helvetica,sans-Serif" font-size="12.00">Markov::GUI::Generate</text>
<text text-anchor="middle" x="333.5" y="-159.9" font-family="Helvetica,sans-Serif" font-size="12.00">::train</text>
</a>
</g>
</g>
<!-- Node2&#45;&gt;Node4 -->
<g id="edge3" class="edge">
<title>Node2&#45;&gt;Node4</title>
<path fill="none" stroke="midnightblue" d="M499.29,-114.13C474.63,-123.42 444.94,-134.32 418,-143.5 409.23,-146.49 399.9,-149.53 390.78,-152.42"/>
<polygon fill="midnightblue" stroke="midnightblue" points="500.71,-117.34 508.82,-110.53 498.23,-110.79 500.71,-117.34"/>
</g>
<!-- Node6 -->
<g id="node6" class="node">
<title>Node6</title>
<g id="a_node6"><a xlink:href="class_markov_1_1_g_u_i_1_1_train.html#a6f74c2948379df5e7f0d8eba96c97fb0" target="_top" xlink:title=" ">
<polygon fill="none" stroke="black" points="270.5,-99.5 270.5,-133.5 396.5,-133.5 396.5,-99.5 270.5,-99.5"/>
<text text-anchor="start" x="278.5" y="-119.9" font-family="Helvetica,sans-Serif" font-size="12.00">Markov::GUI::Train</text>
<text text-anchor="middle" x="333.5" y="-106.9" font-family="Helvetica,sans-Serif" font-size="12.00">::train</text>
</a>
</g>
</g>
<!-- Node2&#45;&gt;Node6 -->
<g id="edge5" class="edge">
<title>Node2&#45;&gt;Node6</title>
<path fill="none" stroke="midnightblue" d="M443.88,-104.99C427.64,-106.7 411.4,-108.41 396.58,-109.96"/>
<polygon fill="midnightblue" stroke="midnightblue" points="444.4,-108.45 453.98,-103.92 443.67,-101.49 444.4,-108.45"/>
</g>
<!-- Node7 -->
<g id="node7" class="node">
<title>Node7</title>
<g id="a_node7"><a xlink:href="class_markov_1_1_a_p_i_1_1_model_matrix.html#af42d40d7a5c80f0dfe126a574a17f423" target="_top" xlink:title="Train the model with the dataset file.">
<polygon fill="none" stroke="black" points="249,-7.5 249,-41.5 418,-41.5 418,-7.5 249,-7.5"/>
<text text-anchor="start" x="257" y="-27.9" font-family="Helvetica,sans-Serif" font-size="12.00">Markov::API::ModelMatrix</text>
<text text-anchor="middle" x="333.5" y="-14.9" font-family="Helvetica,sans-Serif" font-size="12.00">::Train</text>
</a>
</g>
</g>
<!-- Node2&#45;&gt;Node7 -->
<g id="edge7" class="edge">
<title>Node2&#45;&gt;Node7</title>
<path fill="none" stroke="midnightblue" d="M489.3,-73.38C457.38,-63.3 419.13,-51.23 388.65,-41.6"/>
<polygon fill="midnightblue" stroke="midnightblue" points="488.4,-76.77 498.99,-76.44 490.51,-70.09 488.4,-76.77"/>
</g>
<!-- Node5 -->
<g id="node5" class="node">
<title>Node5</title>
<g id="a_node5"><a xlink:href="class_python_1_1_markopy_1_1_base_c_l_i.html#aab389488e1f530cf444d9d2ef59a6998" target="_top" xlink:title="Process parameters for operation.">
<polygon fill="none" stroke="black" points="0,-133 0,-154 213,-154 213,-133 0,-133"/>
<text text-anchor="middle" x="106.5" y="-140.4" font-family="Helvetica,sans-Serif" font-size="12.00">Python.Markopy.BaseCLI.process</text>
</a>
</g>
</g>
<!-- Node4&#45;&gt;Node5 -->
<g id="edge4" class="edge">
<title>Node4&#45;&gt;Node5</title>
<path fill="none" stroke="midnightblue" d="M246.16,-159.52C230.52,-157.72 214.16,-155.82 198.39,-154"/>
<polygon fill="midnightblue" stroke="midnightblue" points="245.99,-163.03 256.33,-160.7 246.79,-156.07 245.99,-163.03"/>
</g>
<!-- Node6&#45;&gt;Node5 -->
<g id="edge6" class="edge">
<title>Node6&#45;&gt;Node5</title>
<path fill="none" stroke="midnightblue" d="M260.4,-125.15C239.6,-127.65 216.68,-130.4 195.06,-132.99"/>
<polygon fill="midnightblue" stroke="midnightblue" points="260.91,-128.62 270.42,-123.95 260.08,-121.67 260.91,-128.62"/>
</g>
<!-- Node7&#45;&gt;Node3 -->
<g id="edge9" class="edge">
<title>Node7&#45;&gt;Node3</title>
<path fill="none" stroke="midnightblue" d="M239.14,-43.59C223.12,-46.86 206.56,-50.25 190.83,-53.46"/>
<polygon fill="midnightblue" stroke="midnightblue" points="239.94,-47 249.04,-41.56 238.54,-40.14 239.94,-47"/>
</g>
<!-- Node8 -->
<g id="node8" class="node">
<title>Node8</title>
<g id="a_node8"><a xlink:href="namespace_markov_1_1_markopy_1_1_c_u_d_a.html#a584fc8e70bb6cf08f544f52805245e19" target="_top" xlink:title=" ">
<polygon fill="none" stroke="black" points="16.5,-0.5 16.5,-34.5 196.5,-34.5 196.5,-0.5 16.5,-0.5"/>
<text text-anchor="start" x="24.5" y="-20.9" font-family="Helvetica,sans-Serif" font-size="12.00">Markov::Markopy::CUDA</text>
<text text-anchor="middle" x="106.5" y="-7.9" font-family="Helvetica,sans-Serif" font-size="12.00">::BOOST_PYTHON_MODULE</text>
</a>
</g>
</g>
<!-- Node7&#45;&gt;Node8 -->
<g id="edge8" class="edge">
<title>Node7&#45;&gt;Node8</title>
<path fill="none" stroke="midnightblue" d="M238.67,-21.58C224.75,-21.15 210.44,-20.7 196.63,-20.27"/>
<polygon fill="midnightblue" stroke="midnightblue" points="238.61,-25.08 248.72,-21.89 238.83,-18.08 238.61,-25.08"/>
</g>
</g>
</svg>
