<?xml version="1.0" encoding="UTF-8" standalone="no"?>
<!DOCTYPE svg PUBLIC "-//W3C//DTD SVG 1.1//EN"
 "http://www.w3.org/Graphics/SVG/1.1/DTD/svg11.dtd">
<!-- Generated by graphviz version 2.43.0 (0)
 -->
<!-- Title: markovPasswords.h Pages: 1 -->
<svg width="611pt" height="204pt"
 viewBox="0.00 0.00 611.00 204.00" xmlns="http://www.w3.org/2000/svg" xmlns:xlink="http://www.w3.org/1999/xlink">
<g id="graph0" class="graph" transform="scale(1 1) rotate(0) translate(4 200)">
<title>markovPasswords.h</title>
<!-- Node1 -->
<g id="node1" class="node">
<title>Node1</title>
<g id="a_node1"><a xlink:title="Wrapper for Markov::Model to use with char represented models.">
<polygon fill="#bfbfbf" stroke="black" points="189.5,-174.5 189.5,-195.5 323.5,-195.5 323.5,-174.5 189.5,-174.5"/>
<text text-anchor="middle" x="256.5" y="-181.9" font-family="Helvetica,sans-Serif" font-size="12.00">markovPasswords.h</text>
</a>
</g>
</g>
<!-- Node2 -->
<g id="node2" class="node">
<title>Node2</title>
<g id="a_node2"><a xlink:href="markov_passwords_8cpp.html" target="_top" xlink:title="Wrapper for Markov::Model to use with char represented models.">
<polygon fill="none" stroke="black" points="0,-116.5 0,-137.5 149,-137.5 149,-116.5 0,-116.5"/>
<text text-anchor="middle" x="74.5" y="-123.9" font-family="Helvetica,sans-Serif" font-size="12.00">markovPasswords.cpp</text>
</a>
</g>
</g>
<!-- Node1&#45;&gt;Node2 -->
<g id="edge1" class="edge">
<title>Node1&#45;&gt;Node2</title>
<path fill="none" stroke="midnightblue" d="M215.3,-171.32C181.92,-161.05 135.63,-146.81 105.38,-137.5"/>
<polygon fill="midnightblue" stroke="midnightblue" points="214.63,-174.78 225.21,-174.37 216.68,-168.09 214.63,-174.78"/>
</g>
<!-- Node3 -->
<g id="node3" class="node">
<title>Node3</title>
<g id="a_node3"><a xlink:href="model_matrix_8h.html" target="_top" xlink:title="An extension of Markov::API::MarkovPasswords.">
<polygon fill="none" stroke="black" points="205,-116.5 205,-137.5 308,-137.5 308,-116.5 205,-116.5"/>
<text text-anchor="middle" x="256.5" y="-123.9" font-family="Helvetica,sans-Serif" font-size="12.00">modelMatrix.h</text>
</a>
</g>
</g>
<!-- Node1&#45;&gt;Node3 -->
<g id="edge2" class="edge">
<title>Node1&#45;&gt;Node3</title>
<path fill="none" stroke="midnightblue" d="M256.5,-164.16C256.5,-155.16 256.5,-144.92 256.5,-137.64"/>
<polygon fill="midnightblue" stroke="midnightblue" points="253,-164.25 256.5,-174.25 260,-164.25 253,-164.25"/>
</g>
<!-- Node5 -->
<g id="node5" class="node">
<title>Node5</title>
<g id="a_node5"><a xlink:href="_markov_a_p_i_c_l_i_2src_2main_8cpp.html" target="_top" xlink:title="Test cases for Markov::API::ModelMatrix.">
<polygon fill="none" stroke="black" points="107.5,-58.5 107.5,-79.5 179.5,-79.5 179.5,-58.5 107.5,-58.5"/>
<text text-anchor="middle" x="143.5" y="-65.9" font-family="Helvetica,sans-Serif" font-size="12.00">main.cpp</text>
</a>
</g>
</g>
<!-- Node1&#45;&gt;Node5 -->
<g id="edge9" class="edge">
<title>Node1&#45;&gt;Node5</title>
<path fill="none" stroke="midnightblue" d="M233.04,-168.58C221.17,-160.23 206.9,-149.32 195.5,-138 176.73,-119.36 158.92,-93.76 149.81,-79.9"/>
<polygon fill="midnightblue" stroke="midnightblue" points="231.33,-171.65 241.56,-174.43 235.3,-165.88 231.33,-171.65"/>
</g>
<!-- Node10 -->
<g id="node10" class="node">
<title>Node10</title>
<g id="a_node10"><a xlink:href="_generate_8cpp.html" target="_top" xlink:title="Generation Page.">
<polygon fill="none" stroke="black" points="326.5,-116.5 326.5,-137.5 424.5,-137.5 424.5,-116.5 326.5,-116.5"/>
<text text-anchor="middle" x="375.5" y="-123.9" font-family="Helvetica,sans-Serif" font-size="12.00">Generate.cpp</text>
</a>
</g>
</g>
<!-- Node1&#45;&gt;Node10 -->
<g id="edge10" class="edge">
<title>Node1&#45;&gt;Node10</title>
<path fill="none" stroke="midnightblue" d="M286.01,-170.11C307.59,-159.96 336.3,-146.45 355.31,-137.5"/>
<polygon fill="midnightblue" stroke="midnightblue" points="284.51,-166.95 276.96,-174.37 287.5,-173.28 284.51,-166.95"/>
</g>
<!-- Node11 -->
<g id="node11" class="node">
<title>Node11</title>
<g id="a_node11"><a xlink:href="_train_8cpp.html" target="_top" xlink:title="training page for GUI">
<polygon fill="none" stroke="black" points="443,-116.5 443,-137.5 514,-137.5 514,-116.5 443,-116.5"/>
<text text-anchor="middle" x="478.5" y="-123.9" font-family="Helvetica,sans-Serif" font-size="12.00">Train.cpp</text>
</a>
</g>
</g>
<!-- Node1&#45;&gt;Node11 -->
<g id="edge11" class="edge">
<title>Node1&#45;&gt;Node11</title>
<path fill="none" stroke="midnightblue" d="M304.33,-171.94C345.97,-161.43 405.39,-146.44 442.95,-136.97"/>
<polygon fill="midnightblue" stroke="midnightblue" points="303.25,-168.6 294.41,-174.44 304.96,-175.38 303.25,-168.6"/>
</g>
<!-- Node4 -->
<g id="node4" class="node">
<title>Node4</title>
<g id="a_node4"><a xlink:href="model_matrix_8cpp.html" target="_top" xlink:title="An extension of Markov::API::MarkovPasswords.">
<polygon fill="none" stroke="black" points="198,-58.5 198,-79.5 315,-79.5 315,-58.5 198,-58.5"/>
<text text-anchor="middle" x="256.5" y="-65.9" font-family="Helvetica,sans-Serif" font-size="12.00">modelMatrix.cpp</text>
</a>
</g>
</g>
<!-- Node3&#45;&gt;Node4 -->
<g id="edge3" class="edge">
<title>Node3&#45;&gt;Node4</title>
<path fill="none" stroke="midnightblue" d="M256.5,-106.16C256.5,-97.16 256.5,-86.92 256.5,-79.64"/>
<polygon fill="midnightblue" stroke="midnightblue" points="253,-106.25 256.5,-116.25 260,-106.25 253,-106.25"/>
</g>
<!-- Node3&#45;&gt;Node5 -->
<g id="edge4" class="edge">
<title>Node3&#45;&gt;Node5</title>
<path fill="none" stroke="midnightblue" d="M227.92,-111.84C207.49,-101.71 180.56,-88.37 162.67,-79.5"/>
<polygon fill="midnightblue" stroke="midnightblue" points="226.56,-115.07 237.07,-116.37 229.67,-108.8 226.56,-115.07"/>
</g>
<!-- Node6 -->
<g id="node6" class="node">
<title>Node6</title>
<g id="a_node6"><a xlink:href="markopy_8cpp.html" target="_top" xlink:title="CPython wrapper for libmarkov utils.">
<polygon fill="none" stroke="black" points="333.5,-58.5 333.5,-79.5 427.5,-79.5 427.5,-58.5 333.5,-58.5"/>
<text text-anchor="middle" x="380.5" y="-65.9" font-family="Helvetica,sans-Serif" font-size="12.00">markopy.cpp</text>
</a>
</g>
</g>
<!-- Node3&#45;&gt;Node6 -->
<g id="edge5" class="edge">
<title>Node3&#45;&gt;Node6</title>
<path fill="none" stroke="midnightblue" d="M286.95,-112.25C309.47,-102.08 339.56,-88.49 359.46,-79.5"/>
<polygon fill="midnightblue" stroke="midnightblue" points="285.49,-109.07 277.82,-116.37 288.37,-115.45 285.49,-109.07"/>
</g>
<!-- Node7 -->
<g id="node7" class="node">
<title>Node7</title>
<g id="a_node7"><a xlink:href="cuda_model_matrix_8h.html" target="_top" xlink:title="CUDA accelerated extension of Markov::API::ModelMatrix.">
<polygon fill="none" stroke="black" points="446,-58.5 446,-79.5 577,-79.5 577,-58.5 446,-58.5"/>
<text text-anchor="middle" x="511.5" y="-65.9" font-family="Helvetica,sans-Serif" font-size="12.00">cudaModelMatrix.h</text>
</a>
</g>
</g>
<!-- Node3&#45;&gt;Node7 -->
<g id="edge6" class="edge">
<title>Node3&#45;&gt;Node7</title>
<path fill="none" stroke="midnightblue" d="M310.04,-114.24C357.01,-103.93 424.47,-89.11 468.13,-79.52"/>
<polygon fill="midnightblue" stroke="midnightblue" points="309.06,-110.87 300.05,-116.44 310.56,-117.71 309.06,-110.87"/>
</g>
<!-- Node8 -->
<g id="node8" class="node">
<title>Node8</title>
<g id="a_node8"><a xlink:href="cuda_model_matrix_8cu.html" target="_top" xlink:title="CUDA accelerated extension of Markov::API::ModelMatrix.">
<polygon fill="none" stroke="black" points="383,-0.5 383,-21.5 520,-21.5 520,-0.5 383,-0.5"/>
<text text-anchor="middle" x="451.5" y="-7.9" font-family="Helvetica,sans-Serif" font-size="12.00">cudaModelMatrix.cu</text>
</a>
</g>
</g>
<!-- Node7&#45;&gt;Node8 -->
<g id="edge7" class="edge">
<title>Node7&#45;&gt;Node8</title>
<path fill="none" stroke="midnightblue" d="M493.67,-51.36C483.29,-41.67 470.57,-29.8 461.83,-21.64"/>
<polygon fill="midnightblue" stroke="midnightblue" points="491.35,-53.98 501.05,-58.25 496.13,-48.86 491.35,-53.98"/>
</g>
<!-- Node9 -->
<g id="node9" class="node">
<title>Node9</title>
<g id="a_node9"><a xlink:href="main_8cu.html" target="_top" xlink:title="Simple test file to check libcudamarkov.">
<polygon fill="none" stroke="black" points="538,-0.5 538,-21.5 603,-21.5 603,-0.5 538,-0.5"/>
<text text-anchor="middle" x="570.5" y="-7.9" font-family="Helvetica,sans-Serif" font-size="12.00">main.cu</text>
</a>
</g>
</g>
<!-- Node7&#45;&gt;Node9 -->
<g id="edge8" class="edge">
<title>Node7&#45;&gt;Node9</title>
<path fill="none" stroke="midnightblue" d="M529.03,-51.36C539.24,-41.67 551.75,-29.8 560.34,-21.64"/>
<polygon fill="midnightblue" stroke="midnightblue" points="526.62,-48.82 521.78,-58.25 531.44,-53.9 526.62,-48.82"/>
</g>
</g>
</svg>
