<?xml version="1.0" encoding="UTF-8" standalone="no"?>
<!DOCTYPE svg PUBLIC "-//W3C//DTD SVG 1.1//EN"
 "http://www.w3.org/Graphics/SVG/1.1/DTD/svg11.dtd">
<!-- Generated by graphviz version 2.43.0 (0)
 -->
<!-- Title: markopy.cpp Pages: 1 -->
<svg width="698pt" height="378pt"
 viewBox="0.00 0.00 698.00 378.00" xmlns="http://www.w3.org/2000/svg" xmlns:xlink="http://www.w3.org/1999/xlink">
<g id="graph0" class="graph" transform="scale(1 1) rotate(0) translate(4 374)">
<title>markopy.cpp</title>
<!-- Node1 -->
<g id="node1" class="node">
<title>Node1</title>
<g id="a_node1"><a xlink:title="CPython wrapper for libmarkov utils.">
<polygon fill="#bfbfbf" stroke="black" points="373.5,-348.5 373.5,-369.5 467.5,-369.5 467.5,-348.5 373.5,-348.5"/>
<text text-anchor="middle" x="420.5" y="-355.9" font-family="Helvetica,sans-Serif" font-size="12.00">markopy.cpp</text>
</a>
</g>
</g>
<!-- Node2 -->
<g id="node2" class="node">
<title>Node2</title>
<g id="a_node2"><a xlink:title=" ">
<polygon fill="none" stroke="#bfbfbf" points="273,-290.5 273,-311.5 342,-311.5 342,-290.5 273,-290.5"/>
<text text-anchor="middle" x="307.5" y="-297.9" font-family="Helvetica,sans-Serif" font-size="12.00">Python.h</text>
</a>
</g>
</g>
<!-- Node1&#45;&gt;Node2 -->
<g id="edge1" class="edge">
<title>Node1&#45;&gt;Node2</title>
<path fill="none" stroke="midnightblue" d="M401.07,-348.37C383.1,-339.46 356.16,-326.11 335.79,-316.02"/>
<polygon fill="midnightblue" stroke="midnightblue" points="337.19,-312.81 326.67,-311.5 334.08,-319.08 337.19,-312.81"/>
</g>
<!-- Node3 -->
<g id="node3" class="node">
<title>Node3</title>
<g id="a_node3"><a xlink:title=" ">
<polygon fill="none" stroke="#bfbfbf" points="360,-290.5 360,-311.5 481,-311.5 481,-290.5 360,-290.5"/>
<text text-anchor="middle" x="420.5" y="-297.9" font-family="Helvetica,sans-Serif" font-size="12.00">boost/python.hpp</text>
</a>
</g>
</g>
<!-- Node1&#45;&gt;Node3 -->
<g id="edge2" class="edge">
<title>Node1&#45;&gt;Node3</title>
<path fill="none" stroke="midnightblue" d="M420.5,-348.25C420.5,-340.94 420.5,-330.69 420.5,-321.7"/>
<polygon fill="midnightblue" stroke="midnightblue" points="424,-321.64 420.5,-311.64 417,-321.64 424,-321.64"/>
</g>
<!-- Node4 -->
<g id="node4" class="node">
<title>Node4</title>
<g id="a_node4"><a xlink:href="model_matrix_8h.html" target="_top" xlink:title="An extension of Markov::API::MarkovPasswords.">
<polygon fill="none" stroke="black" points="499,-290.5 499,-311.5 690,-311.5 690,-290.5 499,-290.5"/>
<text text-anchor="middle" x="594.5" y="-297.9" font-family="Helvetica,sans-Serif" font-size="12.00">MarkovAPI/src/modelMatrix.h</text>
</a>
</g>
</g>
<!-- Node1&#45;&gt;Node4 -->
<g id="edge3" class="edge">
<title>Node1&#45;&gt;Node4</title>
<path fill="none" stroke="midnightblue" d="M450.41,-348.37C479.35,-339.06 523.36,-324.9 555.13,-314.67"/>
<polygon fill="midnightblue" stroke="midnightblue" points="556.53,-317.9 564.98,-311.5 554.39,-311.23 556.53,-317.9"/>
</g>
<!-- Node5 -->
<g id="node5" class="node">
<title>Node5</title>
<g id="a_node5"><a xlink:href="markov_passwords_8h.html" target="_top" xlink:title="Wrapper for Markov::Model to use with char represented models.">
<polygon fill="none" stroke="black" points="469.5,-232.5 469.5,-253.5 603.5,-253.5 603.5,-232.5 469.5,-232.5"/>
<text text-anchor="middle" x="536.5" y="-239.9" font-family="Helvetica,sans-Serif" font-size="12.00">markovPasswords.h</text>
</a>
</g>
</g>
<!-- Node4&#45;&gt;Node5 -->
<g id="edge4" class="edge">
<title>Node4&#45;&gt;Node5</title>
<path fill="none" stroke="midnightblue" d="M584.4,-290.25C576,-282.14 563.85,-270.41 553.89,-260.79"/>
<polygon fill="midnightblue" stroke="midnightblue" points="556.11,-258.07 546.49,-253.64 551.25,-263.11 556.11,-258.07"/>
</g>
<!-- Node9 -->
<g id="node9" class="node">
<title>Node9</title>
<g id="a_node9"><a xlink:title=" ">
<polygon fill="none" stroke="#bfbfbf" points="616,-116.5 616,-137.5 671,-137.5 671,-116.5 616,-116.5"/>
<text text-anchor="middle" x="643.5" y="-123.9" font-family="Helvetica,sans-Serif" font-size="12.00">mutex</text>
</a>
</g>
</g>
<!-- Node4&#45;&gt;Node9 -->
<g id="edge29" class="edge">
<title>Node4&#45;&gt;Node9</title>
<path fill="none" stroke="midnightblue" d="M598.48,-290.17C602.21,-280.89 607.88,-266.56 612.5,-254 621.91,-228.41 625.85,-222.44 632.5,-196 636.51,-180.05 639.38,-161.62 641.19,-147.97"/>
<polygon fill="midnightblue" stroke="midnightblue" points="644.69,-148.15 642.45,-137.79 637.75,-147.28 644.69,-148.15"/>
</g>
<!-- Node6 -->
<g id="node6" class="node">
<title>Node6</title>
<g id="a_node6"><a xlink:href="thread_shared_list_handler_8h.html" target="_top" xlink:title="Thread&#45;safe wrapper for std::ifstream.">
<polygon fill="none" stroke="black" points="449,-174.5 449,-195.5 624,-195.5 624,-174.5 449,-174.5"/>
<text text-anchor="middle" x="536.5" y="-181.9" font-family="Helvetica,sans-Serif" font-size="12.00">threadSharedListHandler.h</text>
</a>
</g>
</g>
<!-- Node5&#45;&gt;Node6 -->
<g id="edge5" class="edge">
<title>Node5&#45;&gt;Node6</title>
<path fill="none" stroke="midnightblue" d="M536.5,-232.25C536.5,-224.94 536.5,-214.69 536.5,-205.7"/>
<polygon fill="midnightblue" stroke="midnightblue" points="540,-205.64 536.5,-195.64 533,-205.64 540,-205.64"/>
</g>
<!-- Node10 -->
<g id="node10" class="node">
<title>Node10</title>
<g id="a_node10"><a xlink:href="model_8h.html" target="_top" xlink:title="Model class template.">
<polygon fill="none" stroke="black" points="260.5,-174.5 260.5,-195.5 430.5,-195.5 430.5,-174.5 260.5,-174.5"/>
<text text-anchor="middle" x="345.5" y="-181.9" font-family="Helvetica,sans-Serif" font-size="12.00">MarkovModel/src/model.h</text>
</a>
</g>
</g>
<!-- Node5&#45;&gt;Node10 -->
<g id="edge9" class="edge">
<title>Node5&#45;&gt;Node10</title>
<path fill="none" stroke="midnightblue" d="M503.67,-232.37C471.63,-222.98 422.75,-208.65 387.81,-198.41"/>
<polygon fill="midnightblue" stroke="midnightblue" points="388.49,-194.96 377.91,-195.5 386.52,-201.67 388.49,-194.96"/>
</g>
<!-- Node7 -->
<g id="node7" class="node">
<title>Node7</title>
<g id="a_node7"><a xlink:title=" ">
<polygon fill="none" stroke="#bfbfbf" points="529.5,-116.5 529.5,-137.5 579.5,-137.5 579.5,-116.5 529.5,-116.5"/>
<text text-anchor="middle" x="554.5" y="-123.9" font-family="Helvetica,sans-Serif" font-size="12.00">string</text>
</a>
</g>
</g>
<!-- Node6&#45;&gt;Node7 -->
<g id="edge6" class="edge">
<title>Node6&#45;&gt;Node7</title>
<path fill="none" stroke="midnightblue" d="M539.64,-174.25C542.01,-166.86 545.35,-156.47 548.26,-147.41"/>
<polygon fill="midnightblue" stroke="midnightblue" points="551.67,-148.23 551.4,-137.64 545.01,-146.09 551.67,-148.23"/>
</g>
<!-- Node8 -->
<g id="node8" class="node">
<title>Node8</title>
<g id="a_node8"><a xlink:title=" ">
<polygon fill="none" stroke="#bfbfbf" points="448,-116.5 448,-137.5 511,-137.5 511,-116.5 448,-116.5"/>
<text text-anchor="middle" x="479.5" y="-123.9" font-family="Helvetica,sans-Serif" font-size="12.00">fstream</text>
</a>
</g>
</g>
<!-- Node6&#45;&gt;Node8 -->
<g id="edge7" class="edge">
<title>Node6&#45;&gt;Node8</title>
<path fill="none" stroke="midnightblue" d="M526.57,-174.25C518.32,-166.14 506.38,-154.41 496.59,-144.79"/>
<polygon fill="midnightblue" stroke="midnightblue" points="498.9,-142.15 489.31,-137.64 494,-147.15 498.9,-142.15"/>
</g>
<!-- Node6&#45;&gt;Node9 -->
<g id="edge8" class="edge">
<title>Node6&#45;&gt;Node9</title>
<path fill="none" stroke="midnightblue" d="M555.14,-174.25C571.94,-165.45 596.86,-152.41 615.96,-142.41"/>
<polygon fill="midnightblue" stroke="midnightblue" points="617.84,-145.38 625.08,-137.64 614.59,-139.18 617.84,-145.38"/>
</g>
<!-- Node10&#45;&gt;Node7 -->
<g id="edge14" class="edge">
<title>Node10&#45;&gt;Node7</title>
<path fill="none" stroke="midnightblue" d="M382.56,-174.43C417.82,-165.27 472.35,-150.97 519.5,-138 519.6,-137.97 519.7,-137.95 519.8,-137.92"/>
<polygon fill="midnightblue" stroke="midnightblue" points="520.59,-141.33 529.28,-135.27 518.71,-134.59 520.59,-141.33"/>
</g>
<!-- Node10&#45;&gt;Node8 -->
<g id="edge12" class="edge">
<title>Node10&#45;&gt;Node8</title>
<path fill="none" stroke="midnightblue" d="M368.54,-174.37C390.24,-165.3 422.96,-151.63 447.25,-141.48"/>
<polygon fill="midnightblue" stroke="midnightblue" points="448.89,-144.59 456.77,-137.5 446.19,-138.13 448.89,-144.59"/>
</g>
<!-- Node11 -->
<g id="node11" class="node">
<title>Node11</title>
<g id="a_node11"><a xlink:title=" ">
<polygon fill="none" stroke="#bfbfbf" points="456.5,-58.5 456.5,-79.5 500.5,-79.5 500.5,-58.5 456.5,-58.5"/>
<text text-anchor="middle" x="478.5" y="-65.9" font-family="Helvetica,sans-Serif" font-size="12.00">map</text>
</a>
</g>
</g>
<!-- Node10&#45;&gt;Node11 -->
<g id="edge10" class="edge">
<title>Node10&#45;&gt;Node11</title>
<path fill="none" stroke="midnightblue" d="M357.36,-174.2C368.54,-164.93 385.73,-150.61 400.5,-138 420.79,-120.68 443.78,-100.57 459.52,-86.74"/>
<polygon fill="midnightblue" stroke="midnightblue" points="462.26,-88.99 467.45,-79.76 457.63,-83.74 462.26,-88.99"/>
</g>
<!-- Node12 -->
<g id="node12" class="node">
<title>Node12</title>
<g id="a_node12"><a xlink:title=" ">
<polygon fill="none" stroke="#bfbfbf" points="0,-58.5 0,-79.5 55,-79.5 55,-58.5 0,-58.5"/>
<text text-anchor="middle" x="27.5" y="-65.9" font-family="Helvetica,sans-Serif" font-size="12.00">vector</text>
</a>
</g>
</g>
<!-- Node10&#45;&gt;Node12 -->
<g id="edge11" class="edge">
<title>Node10&#45;&gt;Node12</title>
<path fill="none" stroke="midnightblue" d="M291.79,-174.46C253.61,-166.81 201.51,-154.61 157.5,-138 118.87,-123.42 77.04,-100.04 51.55,-84.85"/>
<polygon fill="midnightblue" stroke="midnightblue" points="53.31,-81.82 42.94,-79.66 49.69,-87.82 53.31,-81.82"/>
</g>
<!-- Node13 -->
<g id="node13" class="node">
<title>Node13</title>
<g id="a_node13"><a xlink:title=" ">
<polygon fill="none" stroke="#bfbfbf" points="73,-58.5 73,-79.5 138,-79.5 138,-58.5 73,-58.5"/>
<text text-anchor="middle" x="105.5" y="-65.9" font-family="Helvetica,sans-Serif" font-size="12.00">assert.h</text>
</a>
</g>
</g>
<!-- Node10&#45;&gt;Node13 -->
<g id="edge13" class="edge">
<title>Node10&#45;&gt;Node13</title>
<path fill="none" stroke="midnightblue" d="M299.27,-174.45C268.5,-167.02 227.78,-155.08 194.5,-138 167.44,-124.12 140.22,-101.81 123.14,-86.56"/>
<polygon fill="midnightblue" stroke="midnightblue" points="125.37,-83.86 115.62,-79.71 120.66,-89.03 125.37,-83.86"/>
</g>
<!-- Node14 -->
<g id="node14" class="node">
<title>Node14</title>
<g id="a_node14"><a xlink:title=" ">
<polygon fill="none" stroke="#bfbfbf" points="317.5,-116.5 317.5,-137.5 391.5,-137.5 391.5,-116.5 317.5,-116.5"/>
<text text-anchor="middle" x="354.5" y="-123.9" font-family="Helvetica,sans-Serif" font-size="12.00">algorithm</text>
</a>
</g>
</g>
<!-- Node10&#45;&gt;Node14 -->
<g id="edge15" class="edge">
<title>Node10&#45;&gt;Node14</title>
<path fill="none" stroke="midnightblue" d="M347.07,-174.25C348.24,-166.94 349.89,-156.69 351.33,-147.7"/>
<polygon fill="midnightblue" stroke="midnightblue" points="354.82,-148.07 352.95,-137.64 347.91,-146.96 354.82,-148.07"/>
</g>
<!-- Node15 -->
<g id="node15" class="node">
<title>Node15</title>
<g id="a_node15"><a xlink:href="node_8h.html" target="_top" xlink:title="Node class template.">
<polygon fill="none" stroke="black" points="203.5,-116.5 203.5,-137.5 261.5,-137.5 261.5,-116.5 203.5,-116.5"/>
<text text-anchor="middle" x="232.5" y="-123.9" font-family="Helvetica,sans-Serif" font-size="12.00">node.h</text>
</a>
</g>
</g>
<!-- Node10&#45;&gt;Node15 -->
<g id="edge16" class="edge">
<title>Node10&#45;&gt;Node15</title>
<path fill="none" stroke="midnightblue" d="M326.07,-174.37C308.1,-165.46 281.16,-152.11 260.79,-142.02"/>
<polygon fill="midnightblue" stroke="midnightblue" points="262.19,-138.81 251.67,-137.5 259.08,-145.08 262.19,-138.81"/>
</g>
<!-- Node18 -->
<g id="node18" class="node">
<title>Node18</title>
<g id="a_node18"><a xlink:href="edge_8h.html" target="_top" xlink:title="Edge class template.">
<polygon fill="none" stroke="black" points="380.5,-58.5 380.5,-79.5 438.5,-79.5 438.5,-58.5 380.5,-58.5"/>
<text text-anchor="middle" x="409.5" y="-65.9" font-family="Helvetica,sans-Serif" font-size="12.00">edge.h</text>
</a>
</g>
</g>
<!-- Node10&#45;&gt;Node18 -->
<g id="edge28" class="edge">
<title>Node10&#45;&gt;Node18</title>
<path fill="none" stroke="midnightblue" d="M333.43,-174.29C318.24,-160.85 295.63,-136.01 308.5,-116 315.83,-104.61 345.55,-91.86 370.87,-82.68"/>
<polygon fill="midnightblue" stroke="midnightblue" points="372.04,-85.98 380.3,-79.35 369.71,-79.38 372.04,-85.98"/>
</g>
<!-- Node15&#45;&gt;Node11 -->
<g id="edge18" class="edge">
<title>Node15&#45;&gt;Node11</title>
<path fill="none" stroke="midnightblue" d="M261.59,-120.75C301.25,-113.37 374.7,-98.98 446.16,-80.17"/>
<polygon fill="midnightblue" stroke="midnightblue" points="447.47,-83.44 456.23,-77.48 445.67,-76.68 447.47,-83.44"/>
</g>
<!-- Node15&#45;&gt;Node12 -->
<g id="edge17" class="edge">
<title>Node15&#45;&gt;Node12</title>
<path fill="none" stroke="midnightblue" d="M203.48,-118.15C171.71,-109.55 119.01,-95.24 64.79,-80.35"/>
<polygon fill="midnightblue" stroke="midnightblue" points="65.58,-76.93 55.01,-77.66 63.73,-83.68 65.58,-76.93"/>
</g>
<!-- Node15&#45;&gt;Node13 -->
<g id="edge19" class="edge">
<title>Node15&#45;&gt;Node13</title>
<path fill="none" stroke="midnightblue" d="M210.67,-116.37C190.19,-107.34 159.36,-93.75 136.37,-83.61"/>
<polygon fill="midnightblue" stroke="midnightblue" points="137.61,-80.33 127.05,-79.5 134.79,-86.74 137.61,-80.33"/>
</g>
<!-- Node16 -->
<g id="node16" class="node">
<title>Node16</title>
<g id="a_node16"><a xlink:title=" ">
<polygon fill="none" stroke="#bfbfbf" points="132,-0.5 132,-21.5 201,-21.5 201,-0.5 132,-0.5"/>
<text text-anchor="middle" x="166.5" y="-7.9" font-family="Helvetica,sans-Serif" font-size="12.00">iostream</text>
</a>
</g>
</g>
<!-- Node15&#45;&gt;Node16 -->
<g id="edge20" class="edge">
<title>Node15&#45;&gt;Node16</title>
<path fill="none" stroke="midnightblue" d="M219.48,-116.45C208.86,-108 194.22,-94.74 185.5,-80 176.73,-65.18 171.87,-46.16 169.26,-32"/>
<polygon fill="midnightblue" stroke="midnightblue" points="172.67,-31.18 167.62,-21.86 165.76,-32.29 172.67,-31.18"/>
</g>
<!-- Node17 -->
<g id="node17" class="node">
<title>Node17</title>
<g id="a_node17"><a xlink:title=" ">
<polygon fill="none" stroke="#bfbfbf" points="288,-58.5 288,-79.5 363,-79.5 363,-58.5 288,-58.5"/>
<text text-anchor="middle" x="325.5" y="-65.9" font-family="Helvetica,sans-Serif" font-size="12.00">stdexcept</text>
</a>
</g>
</g>
<!-- Node15&#45;&gt;Node17 -->
<g id="edge21" class="edge">
<title>Node15&#45;&gt;Node17</title>
<path fill="none" stroke="midnightblue" d="M248.7,-116.25C263.1,-107.57 284.37,-94.76 300.88,-84.82"/>
<polygon fill="midnightblue" stroke="midnightblue" points="302.72,-87.8 309.49,-79.64 299.11,-81.8 302.72,-87.8"/>
</g>
<!-- Node15&#45;&gt;Node18 -->
<g id="edge22" class="edge">
<title>Node15&#45;&gt;Node18</title>
<path fill="none" stroke="midnightblue" d="M261.73,-116.75C291.45,-107.35 337.67,-92.72 370.5,-82.34"/>
<polygon fill="midnightblue" stroke="midnightblue" points="371.75,-85.61 380.23,-79.26 369.64,-78.94 371.75,-85.61"/>
</g>
<!-- Node21 -->
<g id="node21" class="node">
<title>Node21</title>
<g id="a_node21"><a xlink:href="random_8h.html" target="_top" xlink:title="Random engine implementations for Markov.">
<polygon fill="none" stroke="black" points="195,-58.5 195,-79.5 270,-79.5 270,-58.5 195,-58.5"/>
<text text-anchor="middle" x="232.5" y="-65.9" font-family="Helvetica,sans-Serif" font-size="12.00">random.h</text>
</a>
</g>
</g>
<!-- Node15&#45;&gt;Node21 -->
<g id="edge25" class="edge">
<title>Node15&#45;&gt;Node21</title>
<path fill="none" stroke="midnightblue" d="M232.5,-116.25C232.5,-108.94 232.5,-98.69 232.5,-89.7"/>
<polygon fill="midnightblue" stroke="midnightblue" points="236,-89.64 232.5,-79.64 229,-89.64 236,-89.64"/>
</g>
<!-- Node19 -->
<g id="node19" class="node">
<title>Node19</title>
<g id="a_node19"><a xlink:title=" ">
<polygon fill="none" stroke="#bfbfbf" points="342.5,-0.5 342.5,-21.5 398.5,-21.5 398.5,-0.5 342.5,-0.5"/>
<text text-anchor="middle" x="370.5" y="-7.9" font-family="Helvetica,sans-Serif" font-size="12.00">cstdint</text>
</a>
</g>
</g>
<!-- Node18&#45;&gt;Node19 -->
<g id="edge23" class="edge">
<title>Node18&#45;&gt;Node19</title>
<path fill="none" stroke="midnightblue" d="M402.71,-58.25C397.28,-50.46 389.53,-39.33 383,-29.94"/>
<polygon fill="midnightblue" stroke="midnightblue" points="385.8,-27.85 377.22,-21.64 380.06,-31.85 385.8,-27.85"/>
</g>
<!-- Node20 -->
<g id="node20" class="node">
<title>Node20</title>
<g id="a_node20"><a xlink:title=" ">
<polygon fill="none" stroke="#bfbfbf" points="417,-0.5 417,-21.5 478,-21.5 478,-0.5 417,-0.5"/>
<text text-anchor="middle" x="447.5" y="-7.9" font-family="Helvetica,sans-Serif" font-size="12.00">cstddef</text>
</a>
</g>
</g>
<!-- Node18&#45;&gt;Node20 -->
<g id="edge24" class="edge">
<title>Node18&#45;&gt;Node20</title>
<path fill="none" stroke="midnightblue" d="M416.12,-58.25C421.4,-50.46 428.95,-39.33 435.32,-29.94"/>
<polygon fill="midnightblue" stroke="midnightblue" points="438.24,-31.88 440.96,-21.64 432.45,-27.95 438.24,-31.88"/>
</g>
<!-- Node21&#45;&gt;Node16 -->
<g id="edge27" class="edge">
<title>Node21&#45;&gt;Node16</title>
<path fill="none" stroke="midnightblue" d="M221,-58.25C211.26,-49.97 197.07,-37.94 185.62,-28.22"/>
<polygon fill="midnightblue" stroke="midnightblue" points="187.75,-25.44 177.86,-21.64 183.23,-30.78 187.75,-25.44"/>
</g>
<!-- Node22 -->
<g id="node22" class="node">
<title>Node22</title>
<g id="a_node22"><a xlink:title=" ">
<polygon fill="none" stroke="#bfbfbf" points="219.5,-0.5 219.5,-21.5 283.5,-21.5 283.5,-0.5 219.5,-0.5"/>
<text text-anchor="middle" x="251.5" y="-7.9" font-family="Helvetica,sans-Serif" font-size="12.00">random</text>
</a>
</g>
</g>
<!-- Node21&#45;&gt;Node22 -->
<g id="edge26" class="edge">
<title>Node21&#45;&gt;Node22</title>
<path fill="none" stroke="midnightblue" d="M235.81,-58.25C238.34,-50.78 241.92,-40.24 245.01,-31.11"/>
<polygon fill="midnightblue" stroke="midnightblue" points="248.33,-32.24 248.23,-21.64 241.7,-29.99 248.33,-32.24"/>
</g>
</g>
</svg>
