<?xml version="1.0" encoding="UTF-8" standalone="no"?>
<!DOCTYPE svg PUBLIC "-//W3C//DTD SVG 1.1//EN"
 "http://www.w3.org/Graphics/SVG/1.1/DTD/svg11.dtd">
<!-- Generated by graphviz version 2.43.0 (0)
 -->
<!-- Title: markovPasswords.h Pages: 1 -->
<svg width="360pt" height="88pt"
 viewBox="0.00 0.00 360.00 88.00" xmlns="http://www.w3.org/2000/svg" xmlns:xlink="http://www.w3.org/1999/xlink">
<g id="graph0" class="graph" transform="scale(1 1) rotate(0) translate(4 84)">
<title>markovPasswords.h</title>
<!-- Node1 -->
<g id="node1" class="node">
<title>Node1</title>
<g id="a_node1"><a xlink:title=" ">
<polygon fill="#bfbfbf" stroke="black" points="98,-58.5 98,-79.5 232,-79.5 232,-58.5 98,-58.5"/>
<text text-anchor="middle" x="165" y="-65.9" font-family="Helvetica,sans-Serif" font-size="12.00">markovPasswords.h</text>
</a>
</g>
</g>
<!-- Node2 -->
<g id="node2" class="node">
<title>Node2</title>
<g id="a_node2"><a xlink:href="src_2main_8cpp.html" target="_top" xlink:title=" ">
<polygon fill="none" stroke="black" points="0,-0.5 0,-21.5 72,-21.5 72,-0.5 0,-0.5"/>
<text text-anchor="middle" x="36" y="-7.9" font-family="Helvetica,sans-Serif" font-size="12.00">main.cpp</text>
</a>
</g>
</g>
<!-- Node1&#45;&gt;Node2 -->
<g id="edge1" class="edge">
<title>Node1&#45;&gt;Node2</title>
<path fill="none" stroke="midnightblue" d="M133.63,-54.38C110.17,-44.2 78.68,-30.53 57.89,-21.5"/>
<polygon fill="midnightblue" stroke="midnightblue" points="132.26,-57.6 142.82,-58.37 135.04,-51.18 132.26,-57.6"/>
</g>
<!-- Node3 -->
<g id="node3" class="node">
<title>Node3</title>
<g id="a_node3"><a xlink:href="markov_passwords_8cpp.html" target="_top" xlink:title=" ">
<polygon fill="none" stroke="black" points="90.5,-0.5 90.5,-21.5 239.5,-21.5 239.5,-0.5 90.5,-0.5"/>
<text text-anchor="middle" x="165" y="-7.9" font-family="Helvetica,sans-Serif" font-size="12.00">markovPasswords.cpp</text>
</a>
</g>
</g>
<!-- Node1&#45;&gt;Node3 -->
<g id="edge2" class="edge">
<title>Node1&#45;&gt;Node3</title>
<path fill="none" stroke="midnightblue" d="M165,-48.16C165,-39.16 165,-28.92 165,-21.64"/>
<polygon fill="midnightblue" stroke="midnightblue" points="161.5,-48.25 165,-58.25 168.5,-48.25 161.5,-48.25"/>
</g>
<!-- Node4 -->
<g id="node4" class="node">
<title>Node4</title>
<g id="a_node4"><a xlink:href="markopy_8cpp.html" target="_top" xlink:title=" ">
<polygon fill="none" stroke="black" points="258,-0.5 258,-21.5 352,-21.5 352,-0.5 258,-0.5"/>
<text text-anchor="middle" x="305" y="-7.9" font-family="Helvetica,sans-Serif" font-size="12.00">markopy.cpp</text>
</a>
</g>
</g>
<!-- Node1&#45;&gt;Node4 -->
<g id="edge3" class="edge">
<title>Node1&#45;&gt;Node4</title>
<path fill="none" stroke="midnightblue" d="M198.36,-54.65C223.9,-44.44 258.48,-30.61 281.25,-21.5"/>
<polygon fill="midnightblue" stroke="midnightblue" points="197.05,-51.41 189.07,-58.37 199.65,-57.91 197.05,-51.41"/>
</g>
</g>
</svg>
