<?xml version="1.0" encoding="UTF-8" standalone="no"?>
<!DOCTYPE svg PUBLIC "-//W3C//DTD SVG 1.1//EN"
 "http://www.w3.org/Graphics/SVG/1.1/DTD/svg11.dtd">
<!-- Generated by graphviz version 2.43.0 (0)
 -->
<!-- Title: Markopy/MarkovPasswordsGUI/src/menu.cpp Pages: 1 -->
<svg width="570pt" height="159pt"
 viewBox="0.00 0.00 569.50 159.00" xmlns="http://www.w3.org/2000/svg" xmlns:xlink="http://www.w3.org/1999/xlink">
<g id="graph0" class="graph" transform="scale(1 1) rotate(0) translate(4 155)">
<title>Markopy/MarkovPasswordsGUI/src/menu.cpp</title>
<!-- Node1 -->
<g id="node1" class="node">
<title>Node1</title>
<g id="a_node1"><a xlink:title="menu page">
<polygon fill="#bfbfbf" stroke="black" points="144,-116.5 144,-150.5 343,-150.5 343,-116.5 144,-116.5"/>
<text text-anchor="start" x="152" y="-136.9" font-family="Helvetica,sans-Serif" font-size="12.00">Markopy/MarkovPasswordsGUI</text>
<text text-anchor="middle" x="243.5" y="-123.9" font-family="Helvetica,sans-Serif" font-size="12.00">/src/menu.cpp</text>
</a>
</g>
</g>
<!-- Node2 -->
<g id="node2" class="node">
<title>Node2</title>
<g id="a_node2"><a xlink:href="menu_8h.html" target="_top" xlink:title="menu page">
<polygon fill="none" stroke="black" points="68.5,-58.5 68.5,-79.5 130.5,-79.5 130.5,-58.5 68.5,-58.5"/>
<text text-anchor="middle" x="99.5" y="-65.9" font-family="Helvetica,sans-Serif" font-size="12.00">menu.h</text>
</a>
</g>
</g>
<!-- Node1&#45;&gt;Node2 -->
<g id="edge1" class="edge">
<title>Node1&#45;&gt;Node2</title>
<path fill="none" stroke="midnightblue" d="M206.42,-116.4C183.04,-106.26 153.19,-93.3 130.97,-83.66"/>
<polygon fill="midnightblue" stroke="midnightblue" points="132.22,-80.39 121.66,-79.62 129.44,-86.81 132.22,-80.39"/>
</g>
<!-- Node5 -->
<g id="node5" class="node">
<title>Node5</title>
<g id="a_node5"><a xlink:title=" ">
<polygon fill="none" stroke="#bfbfbf" points="149,-58.5 149,-79.5 212,-79.5 212,-58.5 149,-58.5"/>
<text text-anchor="middle" x="180.5" y="-65.9" font-family="Helvetica,sans-Serif" font-size="12.00">fstream</text>
</a>
</g>
</g>
<!-- Node1&#45;&gt;Node5 -->
<g id="edge4" class="edge">
<title>Node1&#45;&gt;Node5</title>
<path fill="none" stroke="midnightblue" d="M227.28,-116.4C218.16,-107.36 206.8,-96.09 197.55,-86.91"/>
<polygon fill="midnightblue" stroke="midnightblue" points="199.94,-84.36 190.38,-79.8 195.01,-89.33 199.94,-84.36"/>
</g>
<!-- Node6 -->
<g id="node6" class="node">
<title>Node6</title>
<g id="a_node6"><a xlink:href="_markov_passwords_g_u_i_8h.html" target="_top" xlink:title="Main activity page for GUI.">
<polygon fill="none" stroke="black" points="230,-58.5 230,-79.5 385,-79.5 385,-58.5 230,-58.5"/>
<text text-anchor="middle" x="307.5" y="-65.9" font-family="Helvetica,sans-Serif" font-size="12.00">MarkovPasswordsGUI.h</text>
</a>
</g>
</g>
<!-- Node1&#45;&gt;Node6 -->
<g id="edge5" class="edge">
<title>Node1&#45;&gt;Node6</title>
<path fill="none" stroke="midnightblue" d="M259.98,-116.4C269.24,-107.36 280.79,-96.09 290.18,-86.91"/>
<polygon fill="midnightblue" stroke="midnightblue" points="292.76,-89.29 297.46,-79.8 287.87,-84.28 292.76,-89.29"/>
</g>
<!-- Node8 -->
<g id="node8" class="node">
<title>Node8</title>
<g id="a_node8"><a xlink:title=" ">
<polygon fill="none" stroke="#bfbfbf" points="403.5,-58.5 403.5,-79.5 561.5,-79.5 561.5,-58.5 403.5,-58.5"/>
<text text-anchor="middle" x="482.5" y="-65.9" font-family="Helvetica,sans-Serif" font-size="12.00">QtWidgets/QApplication</text>
</a>
</g>
</g>
<!-- Node1&#45;&gt;Node8 -->
<g id="edge8" class="edge">
<title>Node1&#45;&gt;Node8</title>
<path fill="none" stroke="midnightblue" d="M304.74,-116.49C345.57,-105.81 398.42,-91.99 435.85,-82.2"/>
<polygon fill="midnightblue" stroke="midnightblue" points="437.19,-85.47 445.98,-79.55 435.42,-78.69 437.19,-85.47"/>
</g>
<!-- Node3 -->
<g id="node3" class="node">
<title>Node3</title>
<g id="a_node3"><a xlink:title=" ">
<polygon fill="none" stroke="#bfbfbf" points="96.5,-0.5 96.5,-21.5 264.5,-21.5 264.5,-0.5 96.5,-0.5"/>
<text text-anchor="middle" x="180.5" y="-7.9" font-family="Helvetica,sans-Serif" font-size="12.00">QtWidgets/QMainWindow</text>
</a>
</g>
</g>
<!-- Node2&#45;&gt;Node3 -->
<g id="edge2" class="edge">
<title>Node2&#45;&gt;Node3</title>
<path fill="none" stroke="midnightblue" d="M113.61,-58.25C125.92,-49.73 144,-37.24 158.25,-27.38"/>
<polygon fill="midnightblue" stroke="midnightblue" points="160.32,-30.21 166.55,-21.64 156.34,-24.45 160.32,-30.21"/>
</g>
<!-- Node4 -->
<g id="node4" class="node">
<title>Node4</title>
<g id="a_node4"><a xlink:title=" ">
<polygon fill="none" stroke="#bfbfbf" points="0,-0.5 0,-21.5 79,-21.5 79,-0.5 0,-0.5"/>
<text text-anchor="middle" x="39.5" y="-7.9" font-family="Helvetica,sans-Serif" font-size="12.00">ui_menu.h</text>
</a>
</g>
</g>
<!-- Node2&#45;&gt;Node4 -->
<g id="edge3" class="edge">
<title>Node2&#45;&gt;Node4</title>
<path fill="none" stroke="midnightblue" d="M89.05,-58.25C80.27,-50.05 67.54,-38.17 57.19,-28.51"/>
<polygon fill="midnightblue" stroke="midnightblue" points="59.53,-25.91 49.83,-21.64 54.75,-31.02 59.53,-25.91"/>
</g>
<!-- Node6&#45;&gt;Node3 -->
<g id="edge6" class="edge">
<title>Node6&#45;&gt;Node3</title>
<path fill="none" stroke="midnightblue" d="M285.67,-58.37C265.19,-49.34 234.36,-35.75 211.37,-25.61"/>
<polygon fill="midnightblue" stroke="midnightblue" points="212.61,-22.33 202.05,-21.5 209.79,-28.74 212.61,-22.33"/>
</g>
<!-- Node7 -->
<g id="node7" class="node">
<title>Node7</title>
<g id="a_node7"><a xlink:title=" ">
<polygon fill="none" stroke="#bfbfbf" points="283,-0.5 283,-21.5 454,-21.5 454,-0.5 283,-0.5"/>
<text text-anchor="middle" x="368.5" y="-7.9" font-family="Helvetica,sans-Serif" font-size="12.00">ui_MarkovPasswordsGUI.h</text>
</a>
</g>
</g>
<!-- Node6&#45;&gt;Node7 -->
<g id="edge7" class="edge">
<title>Node6&#45;&gt;Node7</title>
<path fill="none" stroke="midnightblue" d="M318.13,-58.25C327.05,-50.05 339.99,-38.17 350.52,-28.51"/>
<polygon fill="midnightblue" stroke="midnightblue" points="353,-30.98 358,-21.64 348.26,-25.83 353,-30.98"/>
</g>
</g>
</svg>
