<?xml version="1.0" encoding="UTF-8" standalone="no"?>
<!DOCTYPE svg PUBLIC "-//W3C//DTD SVG 1.1//EN"
 "http://www.w3.org/Graphics/SVG/1.1/DTD/svg11.dtd">
<!-- Generated by graphviz version 2.43.0 (0)
 -->
<!-- Title: Markopy/MarkovPasswordsGUI/src/menu.h Pages: 1 -->
<svg width="273pt" height="101pt"
 viewBox="0.00 0.00 272.50 101.00" xmlns="http://www.w3.org/2000/svg" xmlns:xlink="http://www.w3.org/1999/xlink">
<g id="graph0" class="graph" transform="scale(1 1) rotate(0) translate(4 97)">
<title>Markopy/MarkovPasswordsGUI/src/menu.h</title>
<!-- Node1 -->
<g id="node1" class="node">
<title>Node1</title>
<g id="a_node1"><a xlink:title="menu page">
<polygon fill="#bfbfbf" stroke="black" points="54.5,-58.5 54.5,-92.5 253.5,-92.5 253.5,-58.5 54.5,-58.5"/>
<text text-anchor="start" x="62.5" y="-78.9" font-family="Helvetica,sans-Serif" font-size="12.00">Markopy/MarkovPasswordsGUI</text>
<text text-anchor="middle" x="154" y="-65.9" font-family="Helvetica,sans-Serif" font-size="12.00">/src/menu.h</text>
</a>
</g>
</g>
<!-- Node2 -->
<g id="node2" class="node">
<title>Node2</title>
<g id="a_node2"><a xlink:title=" ">
<polygon fill="none" stroke="#bfbfbf" points="0,-0.5 0,-21.5 168,-21.5 168,-0.5 0,-0.5"/>
<text text-anchor="middle" x="84" y="-7.9" font-family="Helvetica,sans-Serif" font-size="12.00">QtWidgets/QMainWindow</text>
</a>
</g>
</g>
<!-- Node1&#45;&gt;Node2 -->
<g id="edge1" class="edge">
<title>Node1&#45;&gt;Node2</title>
<path fill="none" stroke="midnightblue" d="M135.97,-58.4C125.74,-49.27 112.96,-37.86 102.64,-28.64"/>
<polygon fill="midnightblue" stroke="midnightblue" points="104.77,-25.85 94.98,-21.8 100.1,-31.07 104.77,-25.85"/>
</g>
<!-- Node3 -->
<g id="node3" class="node">
<title>Node3</title>
<g id="a_node3"><a xlink:title=" ">
<polygon fill="none" stroke="#bfbfbf" points="185.5,-0.5 185.5,-21.5 264.5,-21.5 264.5,-0.5 185.5,-0.5"/>
<text text-anchor="middle" x="225" y="-7.9" font-family="Helvetica,sans-Serif" font-size="12.00">ui_menu.h</text>
</a>
</g>
</g>
<!-- Node1&#45;&gt;Node3 -->
<g id="edge2" class="edge">
<title>Node1&#45;&gt;Node3</title>
<path fill="none" stroke="midnightblue" d="M172.28,-58.4C182.66,-49.27 195.62,-37.86 206.1,-28.64"/>
<polygon fill="midnightblue" stroke="midnightblue" points="208.67,-31.03 213.87,-21.8 204.05,-25.78 208.67,-31.03"/>
</g>
</g>
</svg>
