<?xml version="1.0" encoding="UTF-8" standalone="no"?>
<!DOCTYPE svg PUBLIC "-//W3C//DTD SVG 1.1//EN"
 "http://www.w3.org/Graphics/SVG/1.1/DTD/svg11.dtd">
<!-- Generated by graphviz version 2.43.0 (0)
 -->
<!-- Title: menu.h Pages: 1 -->
<svg width="176pt" height="88pt"
 viewBox="0.00 0.00 175.50 88.00" xmlns="http://www.w3.org/2000/svg" xmlns:xlink="http://www.w3.org/1999/xlink">
<g id="graph0" class="graph" transform="scale(1 1) rotate(0) translate(4 84)">
<title>menu.h</title>
<!-- Node1 -->
<g id="node1" class="node">
<title>Node1</title>
<g id="a_node1"><a xlink:title="menu page">
<polygon fill="#bfbfbf" stroke="black" points="51,-58.5 51,-79.5 113,-79.5 113,-58.5 51,-58.5"/>
<text text-anchor="middle" x="82" y="-65.9" font-family="Helvetica,sans-Serif" font-size="12.00">menu.h</text>
</a>
</g>
</g>
<!-- Node2 -->
<g id="node2" class="node">
<title>Node2</title>
<g id="a_node2"><a xlink:href="_markov_passwords_g_u_i_2src_2main_8cpp.html" target="_top" xlink:title="Entry point for GUI.">
<polygon fill="none" stroke="black" points="0,-0.5 0,-21.5 72,-21.5 72,-0.5 0,-0.5"/>
<text text-anchor="middle" x="36" y="-7.9" font-family="Helvetica,sans-Serif" font-size="12.00">main.cpp</text>
</a>
</g>
</g>
<!-- Node1&#45;&gt;Node2 -->
<g id="edge1" class="edge">
<title>Node1&#45;&gt;Node2</title>
<path fill="none" stroke="midnightblue" d="M67.63,-50.5C59.8,-40.98 50.42,-29.56 43.92,-21.64"/>
<polygon fill="midnightblue" stroke="midnightblue" points="64.94,-52.74 73.99,-58.25 70.34,-48.3 64.94,-52.74"/>
</g>
<!-- Node3 -->
<g id="node3" class="node">
<title>Node3</title>
<g id="a_node3"><a xlink:href="menu_8cpp.html" target="_top" xlink:title="menu page">
<polygon fill="none" stroke="black" points="90.5,-0.5 90.5,-21.5 167.5,-21.5 167.5,-0.5 90.5,-0.5"/>
<text text-anchor="middle" x="129" y="-7.9" font-family="Helvetica,sans-Serif" font-size="12.00">menu.cpp</text>
</a>
</g>
</g>
<!-- Node1&#45;&gt;Node3 -->
<g id="edge2" class="edge">
<title>Node1&#45;&gt;Node3</title>
<path fill="none" stroke="midnightblue" d="M96.69,-50.5C104.68,-40.98 114.26,-29.56 120.91,-21.64"/>
<polygon fill="midnightblue" stroke="midnightblue" points="93.93,-48.34 90.19,-58.25 99.3,-52.84 93.93,-48.34"/>
</g>
</g>
</svg>
