<?xml version="1.0" encoding="UTF-8" standalone="no"?>
<!DOCTYPE svg PUBLIC "-//W3C//DTD SVG 1.1//EN"
 "http://www.w3.org/Graphics/SVG/1.1/DTD/svg11.dtd">
<!-- Generated by graphviz version 2.43.0 (0)
 -->
<!-- Title: modelMatrix.h Pages: 1 -->
<!--zoomable 146 -->
<svg id="main" version="1.1" xmlns="http://www.w3.org/2000/svg" xmlns:xlink="http://www.w3.org/1999/xlink" xml:space="preserve" onload="init(evt)">
<style type="text/css"><![CDATA[
.edge:hover path { stroke: red; }
.edge:hover polygon { stroke: red; fill: red; }
]]></style>
<script type="text/javascript"><![CDATA[
var edges = document.getElementsByTagName('g');
if (edges && edges.length) {
  for (var i=0;i<edges.length;i++) {
    if (edges[i].id.substr(0,4)=='edge') {
      edges[i].setAttribute('class','edge');
    }
  }
}
]]></script>
        <defs>
                <circle id="rim" cx="0" cy="0" r="7"/>
                <circle id="rim2" cx="0" cy="0" r="3.5"/>
                <g id="zoomPlus">
                        <use xlink:href="#rim" fill="#404040">
                                <set attributeName="fill" to="#808080" begin="zoomplus.mouseover" end="zoomplus.mouseout"/>
                        </use>
                        <path d="M-4,0h8M0,-4v8" fill="none" stroke="white" stroke-width="1.5" pointer-events="none"/>
                </g>
                <g id="zoomMin">
                        <use xlink:href="#rim" fill="#404040">
                                <set attributeName="fill" to="#808080" begin="zoomminus.mouseover" end="zoomminus.mouseout"/>
                        </use>
                        <path d="M-4,0h8" fill="none" stroke="white" stroke-width="1.5" pointer-events="none"/>
                </g>
                <g id="dirArrow">
                        <path fill="none" stroke="white" stroke-width="1.5" d="M0,-3.0v7 M-2.5,-0.5L0,-3.0L2.5,-0.5"/>
                </g>
               <g id="resetDef">
                       <use xlink:href="#rim2" fill="#404040">
                               <set attributeName="fill" to="#808080" begin="reset.mouseover" end="reset.mouseout"/>
                       </use>
               </g>
        </defs>

<script type="text/javascript">
var viewWidth = 503;
var viewHeight = 146;
var sectionId = 'dynsection-1';
</script>
<script xlink:href="svgpan.js"/>
<svg id="graph" class="graph">
<g id="viewport">
<title>modelMatrix.h</title>
<!-- Node1 -->
<g id="node1" class="node">
<title>Node1</title>
<g id="a_node1"><a xlink:title="An extension of Markov::API::MarkovPasswords.">
<polygon fill="#bfbfbf" stroke="black" points="170,-116.5 170,-137.5 273,-137.5 273,-116.5 170,-116.5"/>
<text text-anchor="middle" x="221.5" y="-123.9" font-family="Helvetica,sans-Serif" font-size="12.00">modelMatrix.h</text>
</a>
</g>
</g>
<!-- Node2 -->
<g id="node2" class="node">
<title>Node2</title>
<g id="a_node2"><a xlink:href="model_matrix_8cpp.html" target="_top" xlink:title="An extension of Markov::API::MarkovPasswords.">
<polygon fill="none" stroke="black" points="0,-58.5 0,-79.5 117,-79.5 117,-58.5 0,-58.5"/>
<text text-anchor="middle" x="58.5" y="-65.9" font-family="Helvetica,sans-Serif" font-size="12.00">modelMatrix.cpp</text>
</a>
</g>
</g>
<!-- Node1&#45;&gt;Node2 -->
<g id="edge1" class="edge">
<title>Node1&#45;&gt;Node2</title>
<path fill="none" stroke="midnightblue" d="M183.83,-113.06C154,-102.81 113.01,-88.73 86.16,-79.5"/>
<polygon fill="midnightblue" stroke="midnightblue" points="182.88,-116.43 193.48,-116.37 185.16,-109.81 182.88,-116.43"/>
</g>
<!-- Node3 -->
<g id="node3" class="node">
<title>Node3</title>
<g id="a_node3"><a xlink:href="_markov_a_p_i_c_l_i_2src_2main_8cpp.html" target="_top" xlink:title="Test cases for Markov::API::ModelMatrix.">
<polygon fill="none" stroke="black" points="135.5,-58.5 135.5,-79.5 207.5,-79.5 207.5,-58.5 135.5,-58.5"/>
<text text-anchor="middle" x="171.5" y="-65.9" font-family="Helvetica,sans-Serif" font-size="12.00">main.cpp</text>
</a>
</g>
</g>
<!-- Node1&#45;&gt;Node3 -->
<g id="edge2" class="edge">
<title>Node1&#45;&gt;Node3</title>
<path fill="none" stroke="midnightblue" d="M205.88,-108.5C197.37,-98.98 187.18,-87.56 180.11,-79.64"/>
<polygon fill="midnightblue" stroke="midnightblue" points="203.52,-111.12 212.79,-116.25 208.74,-106.46 203.52,-111.12"/>
</g>
<!-- Node4 -->
<g id="node4" class="node">
<title>Node4</title>
<g id="a_node4"><a xlink:href="markopy_8cpp.html" target="_top" xlink:title="CPython wrapper for libmarkov utils.">
<polygon fill="none" stroke="black" points="225.5,-58.5 225.5,-79.5 319.5,-79.5 319.5,-58.5 225.5,-58.5"/>
<text text-anchor="middle" x="272.5" y="-65.9" font-family="Helvetica,sans-Serif" font-size="12.00">markopy.cpp</text>
</a>
</g>
</g>
<!-- Node1&#45;&gt;Node4 -->
<g id="edge3" class="edge">
<title>Node1&#45;&gt;Node4</title>
<path fill="none" stroke="midnightblue" d="M237.17,-108.79C245.9,-99.21 256.44,-87.64 263.72,-79.64"/>
<polygon fill="midnightblue" stroke="midnightblue" points="234.53,-106.5 230.38,-116.25 239.7,-111.21 234.53,-106.5"/>
</g>
<!-- Node5 -->
<g id="node5" class="node">
<title>Node5</title>
<g id="a_node5"><a xlink:href="cuda_model_matrix_8h.html" target="_top" xlink:title="CUDA accelerated extension of Markov::API::ModelMatrix.">
<polygon fill="none" stroke="black" points="338,-58.5 338,-79.5 469,-79.5 469,-58.5 338,-58.5"/>
<text text-anchor="middle" x="403.5" y="-65.9" font-family="Helvetica,sans-Serif" font-size="12.00">cudaModelMatrix.h</text>
</a>
</g>
</g>
<!-- Node1&#45;&gt;Node5 -->
<g id="edge4" class="edge">
<title>Node1&#45;&gt;Node5</title>
<path fill="none" stroke="midnightblue" d="M262.7,-113.32C296.08,-103.05 342.37,-88.81 372.62,-79.5"/>
<polygon fill="midnightblue" stroke="midnightblue" points="261.32,-110.09 252.79,-116.37 263.37,-116.78 261.32,-110.09"/>
</g>
<!-- Node6 -->
<g id="node6" class="node">
<title>Node6</title>
<g id="a_node6"><a xlink:href="cuda_model_matrix_8cu.html" target="_top" xlink:title="CUDA accelerated extension of Markov::API::ModelMatrix.">
<polygon fill="none" stroke="black" points="275,-0.5 275,-21.5 412,-21.5 412,-0.5 275,-0.5"/>
<text text-anchor="middle" x="343.5" y="-7.9" font-family="Helvetica,sans-Serif" font-size="12.00">cudaModelMatrix.cu</text>
</a>
</g>
</g>
<!-- Node5&#45;&gt;Node6 -->
<g id="edge5" class="edge">
<title>Node5&#45;&gt;Node6</title>
<path fill="none" stroke="midnightblue" d="M385.67,-51.36C375.29,-41.67 362.57,-29.8 353.83,-21.64"/>
<polygon fill="midnightblue" stroke="midnightblue" points="383.35,-53.98 393.05,-58.25 388.13,-48.86 383.35,-53.98"/>
</g>
<!-- Node7 -->
<g id="node7" class="node">
<title>Node7</title>
<g id="a_node7"><a xlink:href="main_8cu.html" target="_top" xlink:title="Simple test file to check libcudamarkov.">
<polygon fill="none" stroke="black" points="430,-0.5 430,-21.5 495,-21.5 495,-0.5 430,-0.5"/>
<text text-anchor="middle" x="462.5" y="-7.9" font-family="Helvetica,sans-Serif" font-size="12.00">main.cu</text>
</a>
</g>
</g>
<!-- Node5&#45;&gt;Node7 -->
<g id="edge6" class="edge">
<title>Node5&#45;&gt;Node7</title>
<path fill="none" stroke="midnightblue" d="M421.03,-51.36C431.24,-41.67 443.75,-29.8 452.34,-21.64"/>
<polygon fill="midnightblue" stroke="midnightblue" points="418.62,-48.82 413.78,-58.25 423.44,-53.9 418.62,-48.82"/>
</g>
</g>
</svg>
        <g id="navigator" transform="translate(0 0)" fill="#404254">
                <rect fill="#f2f5e9" fill-opacity="0.5" stroke="#606060" stroke-width=".5" x="0" y="0" width="60" height="60"/>
                <use id="zoomplus" xlink:href="#zoomPlus" x="17" y="9" onmousedown="handleZoom(evt,'in')"/>
                <use id="zoomminus" xlink:href="#zoomMin" x="42" y="9" onmousedown="handleZoom(evt,'out')"/>
                <use id="reset" xlink:href="#resetDef" x="30" y="36" onmousedown="handleReset()"/>
                <g id="arrowUp" xlink:href="#dirArrow" transform="translate(30 24)" onmousedown="handlePan(0,-1)">
                  <use xlink:href="#rim" fill="#404040">
                        <set attributeName="fill" to="#808080" begin="arrowUp.mouseover" end="arrowUp.mouseout"/>
                  </use>
                  <path fill="none" stroke="white" stroke-width="1.5" d="M0,-3.0v7 M-2.5,-0.5L0,-3.0L2.5,-0.5"/>
                </g>
                <g id="arrowRight" xlink:href="#dirArrow" transform="rotate(90) translate(36 -43)" onmousedown="handlePan(1,0)">
                  <use xlink:href="#rim" fill="#404040">
                        <set attributeName="fill" to="#808080" begin="arrowRight.mouseover" end="arrowRight.mouseout"/>
                  </use>
                  <path fill="none" stroke="white" stroke-width="1.5" d="M0,-3.0v7 M-2.5,-0.5L0,-3.0L2.5,-0.5"/>
                </g>
                <g id="arrowDown" xlink:href="#dirArrow" transform="rotate(180) translate(-30 -48)" onmousedown="handlePan(0,1)">
                  <use xlink:href="#rim" fill="#404040">
                        <set attributeName="fill" to="#808080" begin="arrowDown.mouseover" end="arrowDown.mouseout"/>
                  </use>
                  <path fill="none" stroke="white" stroke-width="1.5" d="M0,-3.0v7 M-2.5,-0.5L0,-3.0L2.5,-0.5"/>
                </g>
                <g id="arrowLeft" xlink:href="#dirArrow" transform="rotate(270) translate(-36 17)" onmousedown="handlePan(-1,0)">
                  <use xlink:href="#rim" fill="#404040">
                        <set attributeName="fill" to="#808080" begin="arrowLeft.mouseover" end="arrowLeft.mouseout"/>
                  </use>
                  <path fill="none" stroke="white" stroke-width="1.5" d="M0,-3.0v7 M-2.5,-0.5L0,-3.0L2.5,-0.5"/>
                </g>
        </g>
        <svg viewBox="0 0 15 15" width="100%" height="30px" preserveAspectRatio="xMaxYMin meet">
         <g id="arrow_out" transform="scale(0.3 0.3)">
          <a xlink:href="model_matrix_8h__dep__incl_org.svg" target="_base">
           <rect id="button" ry="5" rx="5" y="6" x="6" height="38" width="38"
                fill="#f2f5e9" fill-opacity="0.5" stroke="#606060" stroke-width="1.0"/>
           <path id="arrow"
             d="M 11.500037,31.436501 C 11.940474,20.09759 22.043105,11.32322 32.158766,21.979434 L 37.068811,17.246167 C 37.068811,17.246167 37.088388,32 37.088388,32 L 22.160133,31.978069 C 22.160133,31.978069 26.997745,27.140456 26.997745,27.140456 C 18.528582,18.264221 13.291696,25.230495 11.500037,31.436501 z"
             style="fill:#404040;"/>
          </a>
         </g>
        </svg>
</svg>
