<?xml version="1.0" encoding="UTF-8" standalone="no"?>
<!DOCTYPE svg PUBLIC "-//W3C//DTD SVG 1.1//EN"
 "http://www.w3.org/Graphics/SVG/1.1/DTD/svg11.dtd">
<!-- Generated by graphviz version 2.43.0 (0)
 -->
<!-- Title: modelMatrix.cpp Pages: 1 -->
<svg width="816pt" height="378pt"
 viewBox="0.00 0.00 815.50 378.00" xmlns="http://www.w3.org/2000/svg" xmlns:xlink="http://www.w3.org/1999/xlink">
<g id="graph0" class="graph" transform="scale(1 1) rotate(0) translate(4 374)">
<title>modelMatrix.cpp</title>
<!-- Node1 -->
<g id="node1" class="node">
<title>Node1</title>
<g id="a_node1"><a xlink:title=" ">
<polygon fill="#bfbfbf" stroke="black" points="617,-348.5 617,-369.5 734,-369.5 734,-348.5 617,-348.5"/>
<text text-anchor="middle" x="675.5" y="-355.9" font-family="Helvetica,sans-Serif" font-size="12.00">modelMatrix.cpp</text>
</a>
</g>
</g>
<!-- Node2 -->
<g id="node2" class="node">
<title>Node2</title>
<g id="a_node2"><a xlink:href="model_matrix_8h.html" target="_top" xlink:title=" ">
<polygon fill="none" stroke="black" points="516,-290.5 516,-311.5 619,-311.5 619,-290.5 516,-290.5"/>
<text text-anchor="middle" x="567.5" y="-297.9" font-family="Helvetica,sans-Serif" font-size="12.00">modelMatrix.h</text>
</a>
</g>
</g>
<!-- Node1&#45;&gt;Node2 -->
<g id="edge1" class="edge">
<title>Node1&#45;&gt;Node2</title>
<path fill="none" stroke="midnightblue" d="M656.69,-348.25C639.65,-339.41 614.34,-326.29 595.03,-316.28"/>
<polygon fill="midnightblue" stroke="midnightblue" points="596.59,-313.14 586.1,-311.64 593.36,-319.35 596.59,-313.14"/>
</g>
<!-- Node9 -->
<g id="node9" class="node">
<title>Node9</title>
<g id="a_node9"><a xlink:title=" ">
<polygon fill="none" stroke="#bfbfbf" points="456.5,-58.5 456.5,-79.5 500.5,-79.5 500.5,-58.5 456.5,-58.5"/>
<text text-anchor="middle" x="478.5" y="-65.9" font-family="Helvetica,sans-Serif" font-size="12.00">map</text>
</a>
</g>
</g>
<!-- Node1&#45;&gt;Node9 -->
<g id="edge28" class="edge">
<title>Node1&#45;&gt;Node9</title>
<path fill="none" stroke="midnightblue" d="M671.49,-348.44C663.75,-329.08 647.5,-283.74 647.5,-244 647.5,-244 647.5,-244 647.5,-184 647.5,-152.5 649.63,-138.42 627.5,-116 596.44,-84.53 544.37,-74.49 510.73,-71.35"/>
<polygon fill="midnightblue" stroke="midnightblue" points="510.75,-67.84 500.51,-70.55 510.21,-74.82 510.75,-67.84"/>
</g>
<!-- Node21 -->
<g id="node21" class="node">
<title>Node21</title>
<g id="a_node21"><a xlink:title=" ">
<polygon fill="none" stroke="#bfbfbf" points="676,-290.5 676,-311.5 733,-311.5 733,-290.5 676,-290.5"/>
<text text-anchor="middle" x="704.5" y="-297.9" font-family="Helvetica,sans-Serif" font-size="12.00">cstring</text>
</a>
</g>
</g>
<!-- Node1&#45;&gt;Node21 -->
<g id="edge29" class="edge">
<title>Node1&#45;&gt;Node21</title>
<path fill="none" stroke="midnightblue" d="M680.55,-348.25C684.5,-340.62 690.11,-329.79 694.91,-320.53"/>
<polygon fill="midnightblue" stroke="midnightblue" points="698.02,-322.13 699.51,-311.64 691.8,-318.91 698.02,-322.13"/>
</g>
<!-- Node22 -->
<g id="node22" class="node">
<title>Node22</title>
<g id="a_node22"><a xlink:title=" ">
<polygon fill="none" stroke="#bfbfbf" points="751.5,-290.5 751.5,-311.5 807.5,-311.5 807.5,-290.5 751.5,-290.5"/>
<text text-anchor="middle" x="779.5" y="-297.9" font-family="Helvetica,sans-Serif" font-size="12.00">thread</text>
</a>
</g>
</g>
<!-- Node1&#45;&gt;Node22 -->
<g id="edge30" class="edge">
<title>Node1&#45;&gt;Node22</title>
<path fill="none" stroke="midnightblue" d="M693.62,-348.25C709.95,-339.45 734.17,-326.41 752.73,-316.41"/>
<polygon fill="midnightblue" stroke="midnightblue" points="754.45,-319.47 761.59,-311.64 751.13,-313.3 754.45,-319.47"/>
</g>
<!-- Node3 -->
<g id="node3" class="node">
<title>Node3</title>
<g id="a_node3"><a xlink:href="markov_passwords_8h.html" target="_top" xlink:title=" ">
<polygon fill="none" stroke="black" points="417.5,-232.5 417.5,-253.5 551.5,-253.5 551.5,-232.5 417.5,-232.5"/>
<text text-anchor="middle" x="484.5" y="-239.9" font-family="Helvetica,sans-Serif" font-size="12.00">markovPasswords.h</text>
</a>
</g>
</g>
<!-- Node2&#45;&gt;Node3 -->
<g id="edge2" class="edge">
<title>Node2&#45;&gt;Node3</title>
<path fill="none" stroke="midnightblue" d="M553.04,-290.25C540.43,-281.73 521.91,-269.24 507.3,-259.38"/>
<polygon fill="midnightblue" stroke="midnightblue" points="509.04,-256.33 498.79,-253.64 505.12,-262.14 509.04,-256.33"/>
</g>
<!-- Node7 -->
<g id="node7" class="node">
<title>Node7</title>
<g id="a_node7"><a xlink:title=" ">
<polygon fill="none" stroke="#bfbfbf" points="564,-116.5 564,-137.5 619,-137.5 619,-116.5 564,-116.5"/>
<text text-anchor="middle" x="591.5" y="-123.9" font-family="Helvetica,sans-Serif" font-size="12.00">mutex</text>
</a>
</g>
</g>
<!-- Node2&#45;&gt;Node7 -->
<g id="edge27" class="edge">
<title>Node2&#45;&gt;Node7</title>
<path fill="none" stroke="midnightblue" d="M568.86,-290.26C572.69,-262.82 583.62,-184.51 588.76,-147.64"/>
<polygon fill="midnightblue" stroke="midnightblue" points="592.24,-148.02 590.16,-137.63 585.31,-147.05 592.24,-148.02"/>
</g>
<!-- Node4 -->
<g id="node4" class="node">
<title>Node4</title>
<g id="a_node4"><a xlink:href="thread_shared_list_handler_8h.html" target="_top" xlink:title=" ">
<polygon fill="none" stroke="black" points="397,-174.5 397,-195.5 572,-195.5 572,-174.5 397,-174.5"/>
<text text-anchor="middle" x="484.5" y="-181.9" font-family="Helvetica,sans-Serif" font-size="12.00">threadSharedListHandler.h</text>
</a>
</g>
</g>
<!-- Node3&#45;&gt;Node4 -->
<g id="edge3" class="edge">
<title>Node3&#45;&gt;Node4</title>
<path fill="none" stroke="midnightblue" d="M484.5,-232.25C484.5,-224.94 484.5,-214.69 484.5,-205.7"/>
<polygon fill="midnightblue" stroke="midnightblue" points="488,-205.64 484.5,-195.64 481,-205.64 488,-205.64"/>
</g>
<!-- Node8 -->
<g id="node8" class="node">
<title>Node8</title>
<g id="a_node8"><a xlink:href="model_8h.html" target="_top" xlink:title=" ">
<polygon fill="none" stroke="black" points="208.5,-174.5 208.5,-195.5 378.5,-195.5 378.5,-174.5 208.5,-174.5"/>
<text text-anchor="middle" x="293.5" y="-181.9" font-family="Helvetica,sans-Serif" font-size="12.00">MarkovModel/src/model.h</text>
</a>
</g>
</g>
<!-- Node3&#45;&gt;Node8 -->
<g id="edge7" class="edge">
<title>Node3&#45;&gt;Node8</title>
<path fill="none" stroke="midnightblue" d="M451.67,-232.37C419.63,-222.98 370.75,-208.65 335.81,-198.41"/>
<polygon fill="midnightblue" stroke="midnightblue" points="336.49,-194.96 325.91,-195.5 334.52,-201.67 336.49,-194.96"/>
</g>
<!-- Node5 -->
<g id="node5" class="node">
<title>Node5</title>
<g id="a_node5"><a xlink:title=" ">
<polygon fill="none" stroke="#bfbfbf" points="414.5,-116.5 414.5,-137.5 464.5,-137.5 464.5,-116.5 414.5,-116.5"/>
<text text-anchor="middle" x="439.5" y="-123.9" font-family="Helvetica,sans-Serif" font-size="12.00">string</text>
</a>
</g>
</g>
<!-- Node4&#45;&gt;Node5 -->
<g id="edge4" class="edge">
<title>Node4&#45;&gt;Node5</title>
<path fill="none" stroke="midnightblue" d="M476.66,-174.25C470.34,-166.38 461.28,-155.1 453.69,-145.65"/>
<polygon fill="midnightblue" stroke="midnightblue" points="456.24,-143.25 447.25,-137.64 450.78,-147.63 456.24,-143.25"/>
</g>
<!-- Node6 -->
<g id="node6" class="node">
<title>Node6</title>
<g id="a_node6"><a xlink:title=" ">
<polygon fill="none" stroke="#bfbfbf" points="483,-116.5 483,-137.5 546,-137.5 546,-116.5 483,-116.5"/>
<text text-anchor="middle" x="514.5" y="-123.9" font-family="Helvetica,sans-Serif" font-size="12.00">fstream</text>
</a>
</g>
</g>
<!-- Node4&#45;&gt;Node6 -->
<g id="edge5" class="edge">
<title>Node4&#45;&gt;Node6</title>
<path fill="none" stroke="midnightblue" d="M489.73,-174.25C493.81,-166.62 499.61,-155.79 504.57,-146.53"/>
<polygon fill="midnightblue" stroke="midnightblue" points="507.7,-148.11 509.33,-137.64 501.53,-144.8 507.7,-148.11"/>
</g>
<!-- Node4&#45;&gt;Node7 -->
<g id="edge6" class="edge">
<title>Node4&#45;&gt;Node7</title>
<path fill="none" stroke="midnightblue" d="M503.14,-174.25C519.94,-165.45 544.86,-152.41 563.96,-142.41"/>
<polygon fill="midnightblue" stroke="midnightblue" points="565.84,-145.38 573.08,-137.64 562.59,-139.18 565.84,-145.38"/>
</g>
<!-- Node8&#45;&gt;Node5 -->
<g id="edge12" class="edge">
<title>Node8&#45;&gt;Node5</title>
<path fill="none" stroke="midnightblue" d="M318.6,-174.37C342.46,-165.22 378.53,-151.38 405.07,-141.21"/>
<polygon fill="midnightblue" stroke="midnightblue" points="406.65,-144.35 414.73,-137.5 404.14,-137.81 406.65,-144.35"/>
</g>
<!-- Node8&#45;&gt;Node6 -->
<g id="edge10" class="edge">
<title>Node8&#45;&gt;Node6</title>
<path fill="none" stroke="midnightblue" d="M331.24,-174.44C370.68,-164.44 432.37,-148.81 473.12,-138.49"/>
<polygon fill="midnightblue" stroke="midnightblue" points="474.16,-141.83 483,-135.98 472.44,-135.05 474.16,-141.83"/>
</g>
<!-- Node8&#45;&gt;Node9 -->
<g id="edge8" class="edge">
<title>Node8&#45;&gt;Node9</title>
<path fill="none" stroke="midnightblue" d="M308.95,-174.48C341.19,-154.61 415.82,-108.63 454.41,-84.84"/>
<polygon fill="midnightblue" stroke="midnightblue" points="456.28,-87.8 462.96,-79.58 452.61,-81.84 456.28,-87.8"/>
</g>
<!-- Node10 -->
<g id="node10" class="node">
<title>Node10</title>
<g id="a_node10"><a xlink:title=" ">
<polygon fill="none" stroke="#bfbfbf" points="0,-58.5 0,-79.5 55,-79.5 55,-58.5 0,-58.5"/>
<text text-anchor="middle" x="27.5" y="-65.9" font-family="Helvetica,sans-Serif" font-size="12.00">vector</text>
</a>
</g>
</g>
<!-- Node8&#45;&gt;Node10 -->
<g id="edge9" class="edge">
<title>Node8&#45;&gt;Node10</title>
<path fill="none" stroke="midnightblue" d="M248.08,-174.5C215.6,-166.84 171.3,-154.61 134.5,-138 102.55,-123.58 68.94,-100.79 48.11,-85.62"/>
<polygon fill="midnightblue" stroke="midnightblue" points="50.12,-82.76 40,-79.63 45.96,-88.39 50.12,-82.76"/>
</g>
<!-- Node11 -->
<g id="node11" class="node">
<title>Node11</title>
<g id="a_node11"><a xlink:title=" ">
<polygon fill="none" stroke="#bfbfbf" points="73,-58.5 73,-79.5 138,-79.5 138,-58.5 73,-58.5"/>
<text text-anchor="middle" x="105.5" y="-65.9" font-family="Helvetica,sans-Serif" font-size="12.00">assert.h</text>
</a>
</g>
</g>
<!-- Node8&#45;&gt;Node11 -->
<g id="edge11" class="edge">
<title>Node8&#45;&gt;Node11</title>
<path fill="none" stroke="midnightblue" d="M247.24,-174.48C220.5,-167.44 187.19,-155.9 161.5,-138 142.59,-124.82 126.53,-103.59 116.53,-88.36"/>
<polygon fill="midnightblue" stroke="midnightblue" points="119.41,-86.36 111.11,-79.77 113.49,-90.1 119.41,-86.36"/>
</g>
<!-- Node12 -->
<g id="node12" class="node">
<title>Node12</title>
<g id="a_node12"><a xlink:title=" ">
<polygon fill="none" stroke="#bfbfbf" points="284.5,-116.5 284.5,-137.5 358.5,-137.5 358.5,-116.5 284.5,-116.5"/>
<text text-anchor="middle" x="321.5" y="-123.9" font-family="Helvetica,sans-Serif" font-size="12.00">algorithm</text>
</a>
</g>
</g>
<!-- Node8&#45;&gt;Node12 -->
<g id="edge13" class="edge">
<title>Node8&#45;&gt;Node12</title>
<path fill="none" stroke="midnightblue" d="M298.38,-174.25C302.15,-166.7 307.49,-156.02 312.09,-146.82"/>
<polygon fill="midnightblue" stroke="midnightblue" points="315.34,-148.15 316.68,-137.64 309.08,-145.02 315.34,-148.15"/>
</g>
<!-- Node13 -->
<g id="node13" class="node">
<title>Node13</title>
<g id="a_node13"><a xlink:href="node_8h.html" target="_top" xlink:title=" ">
<polygon fill="none" stroke="black" points="170.5,-116.5 170.5,-137.5 228.5,-137.5 228.5,-116.5 170.5,-116.5"/>
<text text-anchor="middle" x="199.5" y="-123.9" font-family="Helvetica,sans-Serif" font-size="12.00">node.h</text>
</a>
</g>
</g>
<!-- Node8&#45;&gt;Node13 -->
<g id="edge14" class="edge">
<title>Node8&#45;&gt;Node13</title>
<path fill="none" stroke="midnightblue" d="M277.13,-174.25C262.57,-165.57 241.07,-152.76 224.38,-142.82"/>
<polygon fill="midnightblue" stroke="midnightblue" points="226.07,-139.75 215.69,-137.64 222.49,-145.77 226.07,-139.75"/>
</g>
<!-- Node16 -->
<g id="node16" class="node">
<title>Node16</title>
<g id="a_node16"><a xlink:href="edge_8h.html" target="_top" xlink:title=" ">
<polygon fill="none" stroke="black" points="380.5,-58.5 380.5,-79.5 438.5,-79.5 438.5,-58.5 380.5,-58.5"/>
<text text-anchor="middle" x="409.5" y="-65.9" font-family="Helvetica,sans-Serif" font-size="12.00">edge.h</text>
</a>
</g>
</g>
<!-- Node8&#45;&gt;Node16 -->
<g id="edge26" class="edge">
<title>Node8&#45;&gt;Node16</title>
<path fill="none" stroke="midnightblue" d="M286.31,-174.31C276.81,-160.24 262.73,-133.89 275.5,-116 281.27,-107.91 333.13,-91.71 370.6,-80.86"/>
<polygon fill="midnightblue" stroke="midnightblue" points="371.62,-84.21 380.26,-78.09 369.69,-77.48 371.62,-84.21"/>
</g>
<!-- Node13&#45;&gt;Node9 -->
<g id="edge16" class="edge">
<title>Node13&#45;&gt;Node9</title>
<path fill="none" stroke="midnightblue" d="M228.78,-121.82C273.67,-115.14 362.3,-100.9 446.3,-80.06"/>
<polygon fill="midnightblue" stroke="midnightblue" points="447.41,-83.39 456.25,-77.56 445.7,-76.6 447.41,-83.39"/>
</g>
<!-- Node13&#45;&gt;Node10 -->
<g id="edge15" class="edge">
<title>Node13&#45;&gt;Node10</title>
<path fill="none" stroke="midnightblue" d="M170.32,-116.5C141.26,-107.04 96.54,-92.48 64.89,-82.17"/>
<polygon fill="midnightblue" stroke="midnightblue" points="65.7,-78.76 55.11,-78.99 63.54,-85.41 65.7,-78.76"/>
</g>
<!-- Node13&#45;&gt;Node11 -->
<g id="edge17" class="edge">
<title>Node13&#45;&gt;Node11</title>
<path fill="none" stroke="midnightblue" d="M183.13,-116.25C168.57,-107.57 147.07,-94.76 130.38,-84.82"/>
<polygon fill="midnightblue" stroke="midnightblue" points="132.07,-81.75 121.69,-79.64 128.49,-87.77 132.07,-81.75"/>
</g>
<!-- Node14 -->
<g id="node14" class="node">
<title>Node14</title>
<g id="a_node14"><a xlink:title=" ">
<polygon fill="none" stroke="#bfbfbf" points="132,-0.5 132,-21.5 201,-21.5 201,-0.5 132,-0.5"/>
<text text-anchor="middle" x="166.5" y="-7.9" font-family="Helvetica,sans-Serif" font-size="12.00">iostream</text>
</a>
</g>
</g>
<!-- Node13&#45;&gt;Node14 -->
<g id="edge18" class="edge">
<title>Node13&#45;&gt;Node14</title>
<path fill="none" stroke="midnightblue" d="M196.43,-116.15C193.55,-106.85 189.15,-92.5 185.5,-80 180.73,-63.66 175.54,-45.04 171.8,-31.42"/>
<polygon fill="midnightblue" stroke="midnightblue" points="175.15,-30.42 169.14,-21.7 168.4,-32.27 175.15,-30.42"/>
</g>
<!-- Node15 -->
<g id="node15" class="node">
<title>Node15</title>
<g id="a_node15"><a xlink:title=" ">
<polygon fill="none" stroke="#bfbfbf" points="288,-58.5 288,-79.5 363,-79.5 363,-58.5 288,-58.5"/>
<text text-anchor="middle" x="325.5" y="-65.9" font-family="Helvetica,sans-Serif" font-size="12.00">stdexcept</text>
</a>
</g>
</g>
<!-- Node13&#45;&gt;Node15 -->
<g id="edge19" class="edge">
<title>Node13&#45;&gt;Node15</title>
<path fill="none" stroke="midnightblue" d="M221.16,-116.37C241.48,-107.34 272.06,-93.75 294.87,-83.61"/>
<polygon fill="midnightblue" stroke="midnightblue" points="296.41,-86.76 304.12,-79.5 293.56,-80.36 296.41,-86.76"/>
</g>
<!-- Node13&#45;&gt;Node16 -->
<g id="edge20" class="edge">
<title>Node13&#45;&gt;Node16</title>
<path fill="none" stroke="midnightblue" d="M228.7,-118.21C265.66,-108.36 329.45,-91.35 370.54,-80.39"/>
<polygon fill="midnightblue" stroke="midnightblue" points="371.45,-83.77 380.21,-77.81 369.65,-77.01 371.45,-83.77"/>
</g>
<!-- Node19 -->
<g id="node19" class="node">
<title>Node19</title>
<g id="a_node19"><a xlink:href="random_8h.html" target="_top" xlink:title=" ">
<polygon fill="none" stroke="black" points="195,-58.5 195,-79.5 270,-79.5 270,-58.5 195,-58.5"/>
<text text-anchor="middle" x="232.5" y="-65.9" font-family="Helvetica,sans-Serif" font-size="12.00">random.h</text>
</a>
</g>
</g>
<!-- Node13&#45;&gt;Node19 -->
<g id="edge23" class="edge">
<title>Node13&#45;&gt;Node19</title>
<path fill="none" stroke="midnightblue" d="M205.25,-116.25C209.74,-108.62 216.12,-97.79 221.58,-88.53"/>
<polygon fill="midnightblue" stroke="midnightblue" points="224.76,-90.04 226.82,-79.64 218.73,-86.48 224.76,-90.04"/>
</g>
<!-- Node17 -->
<g id="node17" class="node">
<title>Node17</title>
<g id="a_node17"><a xlink:title=" ">
<polygon fill="none" stroke="#bfbfbf" points="342.5,-0.5 342.5,-21.5 398.5,-21.5 398.5,-0.5 342.5,-0.5"/>
<text text-anchor="middle" x="370.5" y="-7.9" font-family="Helvetica,sans-Serif" font-size="12.00">cstdint</text>
</a>
</g>
</g>
<!-- Node16&#45;&gt;Node17 -->
<g id="edge21" class="edge">
<title>Node16&#45;&gt;Node17</title>
<path fill="none" stroke="midnightblue" d="M402.71,-58.25C397.28,-50.46 389.53,-39.33 383,-29.94"/>
<polygon fill="midnightblue" stroke="midnightblue" points="385.8,-27.85 377.22,-21.64 380.06,-31.85 385.8,-27.85"/>
</g>
<!-- Node18 -->
<g id="node18" class="node">
<title>Node18</title>
<g id="a_node18"><a xlink:title=" ">
<polygon fill="none" stroke="#bfbfbf" points="417,-0.5 417,-21.5 478,-21.5 478,-0.5 417,-0.5"/>
<text text-anchor="middle" x="447.5" y="-7.9" font-family="Helvetica,sans-Serif" font-size="12.00">cstddef</text>
</a>
</g>
</g>
<!-- Node16&#45;&gt;Node18 -->
<g id="edge22" class="edge">
<title>Node16&#45;&gt;Node18</title>
<path fill="none" stroke="midnightblue" d="M416.12,-58.25C421.4,-50.46 428.95,-39.33 435.32,-29.94"/>
<polygon fill="midnightblue" stroke="midnightblue" points="438.24,-31.88 440.96,-21.64 432.45,-27.95 438.24,-31.88"/>
</g>
<!-- Node19&#45;&gt;Node14 -->
<g id="edge25" class="edge">
<title>Node19&#45;&gt;Node14</title>
<path fill="none" stroke="midnightblue" d="M221,-58.25C211.26,-49.97 197.07,-37.94 185.62,-28.22"/>
<polygon fill="midnightblue" stroke="midnightblue" points="187.75,-25.44 177.86,-21.64 183.23,-30.78 187.75,-25.44"/>
</g>
<!-- Node20 -->
<g id="node20" class="node">
<title>Node20</title>
<g id="a_node20"><a xlink:title=" ">
<polygon fill="none" stroke="#bfbfbf" points="219.5,-0.5 219.5,-21.5 283.5,-21.5 283.5,-0.5 219.5,-0.5"/>
<text text-anchor="middle" x="251.5" y="-7.9" font-family="Helvetica,sans-Serif" font-size="12.00">random</text>
</a>
</g>
</g>
<!-- Node19&#45;&gt;Node20 -->
<g id="edge24" class="edge">
<title>Node19&#45;&gt;Node20</title>
<path fill="none" stroke="midnightblue" d="M235.81,-58.25C238.34,-50.78 241.92,-40.24 245.01,-31.11"/>
<polygon fill="midnightblue" stroke="midnightblue" points="248.33,-32.24 248.23,-21.64 241.7,-29.99 248.33,-32.24"/>
</g>
</g>
</svg>
