<?xml version="1.0" encoding="UTF-8" standalone="no"?>
<!DOCTYPE svg PUBLIC "-//W3C//DTD SVG 1.1//EN"
 "http://www.w3.org/Graphics/SVG/1.1/DTD/svg11.dtd">
<!-- Generated by graphviz version 2.43.0 (0)
 -->
<!-- Title: modelMatrix.h Pages: 1 -->
<svg width="365pt" height="88pt"
 viewBox="0.00 0.00 364.50 88.00" xmlns="http://www.w3.org/2000/svg" xmlns:xlink="http://www.w3.org/1999/xlink">
<g id="graph0" class="graph" transform="scale(1 1) rotate(0) translate(4 84)">
<title>modelMatrix.h</title>
<!-- Node1 -->
<g id="node1" class="node">
<title>Node1</title>
<g id="a_node1"><a xlink:title=" ">
<polygon fill="#bfbfbf" stroke="black" points="97.5,-58.5 97.5,-79.5 200.5,-79.5 200.5,-58.5 97.5,-58.5"/>
<text text-anchor="middle" x="149" y="-65.9" font-family="Helvetica,sans-Serif" font-size="12.00">modelMatrix.h</text>
</a>
</g>
</g>
<!-- Node2 -->
<g id="node2" class="node">
<title>Node2</title>
<g id="a_node2"><a xlink:href="src_2main_8cpp.html" target="_top" xlink:title=" ">
<polygon fill="none" stroke="black" points="0,-0.5 0,-21.5 72,-21.5 72,-0.5 0,-0.5"/>
<text text-anchor="middle" x="36" y="-7.9" font-family="Helvetica,sans-Serif" font-size="12.00">main.cpp</text>
</a>
</g>
</g>
<!-- Node1&#45;&gt;Node2 -->
<g id="edge1" class="edge">
<title>Node1&#45;&gt;Node2</title>
<path fill="none" stroke="midnightblue" d="M120.42,-53.84C99.99,-43.71 73.06,-30.37 55.17,-21.5"/>
<polygon fill="midnightblue" stroke="midnightblue" points="119.06,-57.07 129.57,-58.37 122.17,-50.8 119.06,-57.07"/>
</g>
<!-- Node3 -->
<g id="node3" class="node">
<title>Node3</title>
<g id="a_node3"><a xlink:href="model_matrix_8cpp.html" target="_top" xlink:title=" ">
<polygon fill="none" stroke="black" points="90.5,-0.5 90.5,-21.5 207.5,-21.5 207.5,-0.5 90.5,-0.5"/>
<text text-anchor="middle" x="149" y="-7.9" font-family="Helvetica,sans-Serif" font-size="12.00">modelMatrix.cpp</text>
</a>
</g>
</g>
<!-- Node1&#45;&gt;Node3 -->
<g id="edge2" class="edge">
<title>Node1&#45;&gt;Node3</title>
<path fill="none" stroke="midnightblue" d="M149,-48.16C149,-39.16 149,-28.92 149,-21.64"/>
<polygon fill="midnightblue" stroke="midnightblue" points="145.5,-48.25 149,-58.25 152.5,-48.25 145.5,-48.25"/>
</g>
<!-- Node4 -->
<g id="node4" class="node">
<title>Node4</title>
<g id="a_node4"><a xlink:href="cuda_model_matrix_8h.html" target="_top" xlink:title=" ">
<polygon fill="none" stroke="black" points="225.5,-0.5 225.5,-21.5 356.5,-21.5 356.5,-0.5 225.5,-0.5"/>
<text text-anchor="middle" x="291" y="-7.9" font-family="Helvetica,sans-Serif" font-size="12.00">cudaModelMatrix.h</text>
</a>
</g>
</g>
<!-- Node1&#45;&gt;Node4 -->
<g id="edge3" class="edge">
<title>Node1&#45;&gt;Node4</title>
<path fill="none" stroke="midnightblue" d="M182.84,-54.65C208.74,-44.44 243.81,-30.61 266.91,-21.5"/>
<polygon fill="midnightblue" stroke="midnightblue" points="181.43,-51.45 173.41,-58.37 184,-57.96 181.43,-51.45"/>
</g>
</g>
</svg>
