<?xml version="1.0" encoding="UTF-8" standalone="no"?>
<!DOCTYPE svg PUBLIC "-//W3C//DTD SVG 1.1//EN"
 "http://www.w3.org/Graphics/SVG/1.1/DTD/svg11.dtd">
<!-- Generated by graphviz version 2.43.0 (0)
 -->
<!-- Title: Markopy/MarkovAPI/src/modelMatrix.h Pages: 1 -->
<svg width="890pt" height="185pt"
 viewBox="0.00 0.00 889.50 185.00" xmlns="http://www.w3.org/2000/svg" xmlns:xlink="http://www.w3.org/1999/xlink">
<g id="graph0" class="graph" transform="scale(1 1) rotate(0) translate(4 181)">
<title>Markopy/MarkovAPI/src/modelMatrix.h</title>
<!-- Node1 -->
<g id="node1" class="node">
<title>Node1</title>
<g id="a_node1"><a xlink:title="An extension of Markov::API::MarkovPasswords.">
<polygon fill="#bfbfbf" stroke="black" points="258,-142.5 258,-176.5 415,-176.5 415,-142.5 258,-142.5"/>
<text text-anchor="start" x="266" y="-162.9" font-family="Helvetica,sans-Serif" font-size="12.00">Markopy/MarkovAPI/src</text>
<text text-anchor="middle" x="336.5" y="-149.9" font-family="Helvetica,sans-Serif" font-size="12.00">/modelMatrix.h</text>
</a>
</g>
</g>
<!-- Node2 -->
<g id="node2" class="node">
<title>Node2</title>
<g id="a_node2"><a xlink:href="model_matrix_8cpp.html" target="_top" xlink:title="An extension of Markov::API::MarkovPasswords.">
<polygon fill="none" stroke="black" points="0,-71.5 0,-105.5 157,-105.5 157,-71.5 0,-71.5"/>
<text text-anchor="start" x="8" y="-91.9" font-family="Helvetica,sans-Serif" font-size="12.00">Markopy/MarkovAPI/src</text>
<text text-anchor="middle" x="78.5" y="-78.9" font-family="Helvetica,sans-Serif" font-size="12.00">/modelMatrix.cpp</text>
</a>
</g>
</g>
<!-- Node1&#45;&gt;Node2 -->
<g id="edge1" class="edge">
<title>Node1&#45;&gt;Node2</title>
<path fill="none" stroke="midnightblue" d="M266.95,-139.9C226.81,-129.16 176.85,-115.8 138.46,-105.54"/>
<polygon fill="midnightblue" stroke="midnightblue" points="266.1,-143.29 276.66,-142.5 267.9,-136.53 266.1,-143.29"/>
</g>
<!-- Node3 -->
<g id="node3" class="node">
<title>Node3</title>
<g id="a_node3"><a xlink:href="_markov_a_p_i_c_l_i_2src_2main_8cpp.html" target="_top" xlink:title="Test cases for Markov::API::ModelMatrix.">
<polygon fill="none" stroke="black" points="175,-71.5 175,-105.5 330,-105.5 330,-71.5 175,-71.5"/>
<text text-anchor="start" x="183" y="-91.9" font-family="Helvetica,sans-Serif" font-size="12.00">Markopy/MarkovAPICLI</text>
<text text-anchor="middle" x="252.5" y="-78.9" font-family="Helvetica,sans-Serif" font-size="12.00">/src/main.cpp</text>
</a>
</g>
</g>
<!-- Node1&#45;&gt;Node3 -->
<g id="edge2" class="edge">
<title>Node1&#45;&gt;Node3</title>
<path fill="none" stroke="midnightblue" d="M309.03,-135.94C297,-126.05 283.15,-114.67 272.17,-105.66"/>
<polygon fill="midnightblue" stroke="midnightblue" points="307.07,-138.85 317.02,-142.5 311.51,-133.44 307.07,-138.85"/>
</g>
<!-- Node4 -->
<g id="node4" class="node">
<title>Node4</title>
<g id="a_node4"><a xlink:href="markopy_8cpp.html" target="_top" xlink:title="CPython wrapper for libmarkov utils.">
<polygon fill="none" stroke="black" points="348,-71.5 348,-105.5 493,-105.5 493,-71.5 348,-71.5"/>
<text text-anchor="start" x="356" y="-91.9" font-family="Helvetica,sans-Serif" font-size="12.00">Markopy/Markopy/src</text>
<text text-anchor="middle" x="420.5" y="-78.9" font-family="Helvetica,sans-Serif" font-size="12.00">/Module/markopy.cpp</text>
</a>
</g>
</g>
<!-- Node1&#45;&gt;Node4 -->
<g id="edge3" class="edge">
<title>Node1&#45;&gt;Node4</title>
<path fill="none" stroke="midnightblue" d="M363.97,-135.94C376,-126.05 389.85,-114.67 400.83,-105.66"/>
<polygon fill="midnightblue" stroke="midnightblue" points="361.49,-133.44 355.98,-142.5 365.93,-138.85 361.49,-133.44"/>
</g>
<!-- Node5 -->
<g id="node5" class="node">
<title>Node5</title>
<g id="a_node5"><a xlink:href="cuda_model_matrix_8h.html" target="_top" xlink:title="CUDA accelerated extension of Markov::API::ModelMatrix.">
<polygon fill="none" stroke="black" points="511,-71.5 511,-105.5 678,-105.5 678,-71.5 511,-71.5"/>
<text text-anchor="start" x="519" y="-91.9" font-family="Helvetica,sans-Serif" font-size="12.00">Markopy/CudaMarkovAPI</text>
<text text-anchor="middle" x="594.5" y="-78.9" font-family="Helvetica,sans-Serif" font-size="12.00">/src/cudaModelMatrix.h</text>
</a>
</g>
</g>
<!-- Node1&#45;&gt;Node5 -->
<g id="edge4" class="edge">
<title>Node1&#45;&gt;Node5</title>
<path fill="none" stroke="midnightblue" d="M406.05,-139.9C446.19,-129.16 496.15,-115.8 534.54,-105.54"/>
<polygon fill="midnightblue" stroke="midnightblue" points="405.1,-136.53 396.34,-142.5 406.9,-143.29 405.1,-136.53"/>
</g>
<!-- Node6 -->
<g id="node6" class="node">
<title>Node6</title>
<g id="a_node6"><a xlink:href="cuda_model_matrix_8cu.html" target="_top" xlink:title="CUDA accelerated extension of Markov::API::ModelMatrix.">
<polygon fill="none" stroke="black" points="326,-0.5 326,-34.5 493,-34.5 493,-0.5 326,-0.5"/>
<text text-anchor="start" x="334" y="-20.9" font-family="Helvetica,sans-Serif" font-size="12.00">Markopy/CudaMarkovAPI</text>
<text text-anchor="middle" x="409.5" y="-7.9" font-family="Helvetica,sans-Serif" font-size="12.00">/src/cudaModelMatrix.cu</text>
</a>
</g>
</g>
<!-- Node5&#45;&gt;Node6 -->
<g id="edge5" class="edge">
<title>Node5&#45;&gt;Node6</title>
<path fill="none" stroke="midnightblue" d="M541.87,-67.87C513.58,-57.32 479.15,-44.48 452.5,-34.54"/>
<polygon fill="midnightblue" stroke="midnightblue" points="541,-71.28 551.59,-71.5 543.45,-64.72 541,-71.28"/>
</g>
<!-- Node7 -->
<g id="node7" class="node">
<title>Node7</title>
<g id="a_node7"><a xlink:href="main_8cu.html" target="_top" xlink:title="Simple test file to check libcudamarkov.">
<polygon fill="none" stroke="black" points="511,-0.5 511,-34.5 678,-34.5 678,-0.5 511,-0.5"/>
<text text-anchor="start" x="519" y="-20.9" font-family="Helvetica,sans-Serif" font-size="12.00">Markopy/CudaMarkovAPI</text>
<text text-anchor="middle" x="594.5" y="-7.9" font-family="Helvetica,sans-Serif" font-size="12.00">/src/main.cu</text>
</a>
</g>
</g>
<!-- Node5&#45;&gt;Node7 -->
<g id="edge6" class="edge">
<title>Node5&#45;&gt;Node7</title>
<path fill="none" stroke="midnightblue" d="M594.5,-61.25C594.5,-52.39 594.5,-42.77 594.5,-34.9"/>
<polygon fill="midnightblue" stroke="midnightblue" points="591,-61.5 594.5,-71.5 598,-61.5 591,-61.5"/>
</g>
<!-- Node8 -->
<g id="node8" class="node">
<title>Node8</title>
<g id="a_node8"><a xlink:href="cuda_markopy_8cu.html" target="_top" xlink:title=" ">
<polygon fill="none" stroke="black" points="695.5,-0.5 695.5,-34.5 881.5,-34.5 881.5,-0.5 695.5,-0.5"/>
<text text-anchor="start" x="703.5" y="-20.9" font-family="Helvetica,sans-Serif" font-size="12.00">Markopy/CudaMarkopy</text>
<text text-anchor="middle" x="788.5" y="-7.9" font-family="Helvetica,sans-Serif" font-size="12.00">/src/Module/cudaMarkopy.cu</text>
</a>
</g>
</g>
<!-- Node5&#45;&gt;Node8 -->
<g id="edge7" class="edge">
<title>Node5&#45;&gt;Node8</title>
<path fill="none" stroke="midnightblue" d="M648.92,-68.15C678.72,-57.55 715.22,-44.57 743.41,-34.54"/>
<polygon fill="midnightblue" stroke="midnightblue" points="647.74,-64.85 639.5,-71.5 650.09,-71.44 647.74,-64.85"/>
</g>
</g>
</svg>
