<?xml version="1.0" encoding="UTF-8" standalone="no"?>
<!DOCTYPE svg PUBLIC "-//W3C//DTD SVG 1.1//EN"
 "http://www.w3.org/Graphics/SVG/1.1/DTD/svg11.dtd">
<!-- Generated by graphviz version 2.43.0 (0)
 -->
<!-- Title: model.h Pages: 1 -->
<svg width="458pt" height="146pt"
 viewBox="0.00 0.00 457.50 146.00" xmlns="http://www.w3.org/2000/svg" xmlns:xlink="http://www.w3.org/1999/xlink">
<g id="graph0" class="graph" transform="scale(1 1) rotate(0) translate(4 142)">
<title>model.h</title>
<!-- Node1 -->
<g id="node1" class="node">
<title>Node1</title>
<g id="a_node1"><a xlink:title=" ">
<polygon fill="#bfbfbf" stroke="black" points="260.5,-116.5 260.5,-137.5 325.5,-137.5 325.5,-116.5 260.5,-116.5"/>
<text text-anchor="middle" x="293" y="-123.9" font-family="Helvetica,sans-Serif" font-size="12.00">model.h</text>
</a>
</g>
</g>
<!-- Node2 -->
<g id="node2" class="node">
<title>Node2</title>
<g id="a_node2"><a xlink:href="markov_passwords_8h.html" target="_top" xlink:title=" ">
<polygon fill="none" stroke="black" points="98,-58.5 98,-79.5 232,-79.5 232,-58.5 98,-58.5"/>
<text text-anchor="middle" x="165" y="-65.9" font-family="Helvetica,sans-Serif" font-size="12.00">markovPasswords.h</text>
</a>
</g>
</g>
<!-- Node1&#45;&gt;Node2 -->
<g id="edge1" class="edge">
<title>Node1&#45;&gt;Node2</title>
<path fill="none" stroke="midnightblue" d="M261.57,-112.25C238.32,-102.08 207.26,-88.49 186.72,-79.5"/>
<polygon fill="midnightblue" stroke="midnightblue" points="260.43,-115.57 271,-116.37 263.24,-109.16 260.43,-115.57"/>
</g>
<!-- Node6 -->
<g id="node6" class="node">
<title>Node6</title>
<g id="a_node6"><a xlink:href="dllmain_8cpp.html" target="_top" xlink:title=" ">
<polygon fill="none" stroke="black" points="250,-58.5 250,-79.5 336,-79.5 336,-58.5 250,-58.5"/>
<text text-anchor="middle" x="293" y="-65.9" font-family="Helvetica,sans-Serif" font-size="12.00">dllmain.cpp</text>
</a>
</g>
</g>
<!-- Node1&#45;&gt;Node6 -->
<g id="edge5" class="edge">
<title>Node1&#45;&gt;Node6</title>
<path fill="none" stroke="midnightblue" d="M293,-106.16C293,-97.16 293,-86.92 293,-79.64"/>
<polygon fill="midnightblue" stroke="midnightblue" points="289.5,-106.25 293,-116.25 296.5,-106.25 289.5,-106.25"/>
</g>
<!-- Node7 -->
<g id="node7" class="node">
<title>Node7</title>
<g id="a_node7"><a xlink:href="_unit_tests_8cpp.html" target="_top" xlink:title=" ">
<polygon fill="none" stroke="black" points="354.5,-58.5 354.5,-79.5 449.5,-79.5 449.5,-58.5 354.5,-58.5"/>
<text text-anchor="middle" x="402" y="-65.9" font-family="Helvetica,sans-Serif" font-size="12.00">UnitTests.cpp</text>
</a>
</g>
</g>
<!-- Node1&#45;&gt;Node7 -->
<g id="edge6" class="edge">
<title>Node1&#45;&gt;Node7</title>
<path fill="none" stroke="midnightblue" d="M321.03,-111.6C340.57,-101.56 366.11,-88.44 383.23,-79.64"/>
<polygon fill="midnightblue" stroke="midnightblue" points="319.28,-108.56 311.99,-116.25 322.48,-114.79 319.28,-108.56"/>
</g>
<!-- Node3 -->
<g id="node3" class="node">
<title>Node3</title>
<g id="a_node3"><a xlink:href="src_2main_8cpp.html" target="_top" xlink:title=" ">
<polygon fill="none" stroke="black" points="0,-0.5 0,-21.5 72,-21.5 72,-0.5 0,-0.5"/>
<text text-anchor="middle" x="36" y="-7.9" font-family="Helvetica,sans-Serif" font-size="12.00">main.cpp</text>
</a>
</g>
</g>
<!-- Node2&#45;&gt;Node3 -->
<g id="edge2" class="edge">
<title>Node2&#45;&gt;Node3</title>
<path fill="none" stroke="midnightblue" d="M133.63,-54.38C110.17,-44.2 78.68,-30.53 57.89,-21.5"/>
<polygon fill="midnightblue" stroke="midnightblue" points="132.26,-57.6 142.82,-58.37 135.04,-51.18 132.26,-57.6"/>
</g>
<!-- Node4 -->
<g id="node4" class="node">
<title>Node4</title>
<g id="a_node4"><a xlink:href="markov_passwords_8cpp.html" target="_top" xlink:title=" ">
<polygon fill="none" stroke="black" points="90.5,-0.5 90.5,-21.5 239.5,-21.5 239.5,-0.5 90.5,-0.5"/>
<text text-anchor="middle" x="165" y="-7.9" font-family="Helvetica,sans-Serif" font-size="12.00">markovPasswords.cpp</text>
</a>
</g>
</g>
<!-- Node2&#45;&gt;Node4 -->
<g id="edge3" class="edge">
<title>Node2&#45;&gt;Node4</title>
<path fill="none" stroke="midnightblue" d="M165,-48.16C165,-39.16 165,-28.92 165,-21.64"/>
<polygon fill="midnightblue" stroke="midnightblue" points="161.5,-48.25 165,-58.25 168.5,-48.25 161.5,-48.25"/>
</g>
<!-- Node5 -->
<g id="node5" class="node">
<title>Node5</title>
<g id="a_node5"><a xlink:href="markopy_8cpp.html" target="_top" xlink:title=" ">
<polygon fill="none" stroke="black" points="258,-0.5 258,-21.5 352,-21.5 352,-0.5 258,-0.5"/>
<text text-anchor="middle" x="305" y="-7.9" font-family="Helvetica,sans-Serif" font-size="12.00">markopy.cpp</text>
</a>
</g>
</g>
<!-- Node2&#45;&gt;Node5 -->
<g id="edge4" class="edge">
<title>Node2&#45;&gt;Node5</title>
<path fill="none" stroke="midnightblue" d="M198.36,-54.65C223.9,-44.44 258.48,-30.61 281.25,-21.5"/>
<polygon fill="midnightblue" stroke="midnightblue" points="197.05,-51.41 189.07,-58.37 199.65,-57.91 197.05,-51.41"/>
</g>
</g>
</svg>
