<?xml version="1.0" encoding="UTF-8" standalone="no"?>
<!DOCTYPE svg PUBLIC "-//W3C//DTD SVG 1.1//EN"
 "http://www.w3.org/Graphics/SVG/1.1/DTD/svg11.dtd">
<!-- Generated by graphviz version 2.43.0 (0)
 -->
<!-- Title: modelMatrix.h Pages: 1 -->
<svg width="478pt" height="88pt"
 viewBox="0.00 0.00 477.50 88.00" xmlns="http://www.w3.org/2000/svg" xmlns:xlink="http://www.w3.org/1999/xlink">
<g id="graph0" class="graph" transform="scale(1 1) rotate(0) translate(4 84)">
<title>modelMatrix.h</title>
<!-- Node1 -->
<g id="node1" class="node">
<title>Node1</title>
<g id="a_node1"><a xlink:title=" ">
<polygon fill="#bfbfbf" stroke="black" points="159.5,-58.5 159.5,-79.5 262.5,-79.5 262.5,-58.5 159.5,-58.5"/>
<text text-anchor="middle" x="211" y="-65.9" font-family="Helvetica,sans-Serif" font-size="12.00">modelMatrix.h</text>
</a>
</g>
</g>
<!-- Node2 -->
<g id="node2" class="node">
<title>Node2</title>
<g id="a_node2"><a xlink:href="src_2main_8cpp.html" target="_top" xlink:title=" ">
<polygon fill="none" stroke="black" points="0,-0.5 0,-21.5 72,-21.5 72,-0.5 0,-0.5"/>
<text text-anchor="middle" x="36" y="-7.9" font-family="Helvetica,sans-Serif" font-size="12.00">main.cpp</text>
</a>
</g>
</g>
<!-- Node1&#45;&gt;Node2 -->
<g id="edge1" class="edge">
<title>Node1&#45;&gt;Node2</title>
<path fill="none" stroke="midnightblue" d="M171.39,-55.32C139.29,-45.05 94.78,-30.81 65.69,-21.5"/>
<polygon fill="midnightblue" stroke="midnightblue" points="170.33,-58.66 180.92,-58.37 172.46,-51.99 170.33,-58.66"/>
</g>
<!-- Node3 -->
<g id="node3" class="node">
<title>Node3</title>
<g id="a_node3"><a xlink:href="model_matrix_8cpp.html" target="_top" xlink:title=" ">
<polygon fill="none" stroke="black" points="90.5,-0.5 90.5,-21.5 207.5,-21.5 207.5,-0.5 90.5,-0.5"/>
<text text-anchor="middle" x="149" y="-7.9" font-family="Helvetica,sans-Serif" font-size="12.00">modelMatrix.cpp</text>
</a>
</g>
</g>
<!-- Node1&#45;&gt;Node3 -->
<g id="edge2" class="edge">
<title>Node1&#45;&gt;Node3</title>
<path fill="none" stroke="midnightblue" d="M192.58,-51.36C181.85,-41.67 168.71,-29.8 159.68,-21.64"/>
<polygon fill="midnightblue" stroke="midnightblue" points="190.43,-54.14 200.2,-58.25 195.13,-48.95 190.43,-54.14"/>
</g>
<!-- Node4 -->
<g id="node4" class="node">
<title>Node4</title>
<g id="a_node4"><a xlink:href="markopy_8cpp.html" target="_top" xlink:title=" ">
<polygon fill="none" stroke="black" points="226,-0.5 226,-21.5 320,-21.5 320,-0.5 226,-0.5"/>
<text text-anchor="middle" x="273" y="-7.9" font-family="Helvetica,sans-Serif" font-size="12.00">markopy.cpp</text>
</a>
</g>
</g>
<!-- Node1&#45;&gt;Node4 -->
<g id="edge3" class="edge">
<title>Node1&#45;&gt;Node4</title>
<path fill="none" stroke="midnightblue" d="M229.42,-51.36C240.15,-41.67 253.29,-29.8 262.32,-21.64"/>
<polygon fill="midnightblue" stroke="midnightblue" points="226.87,-48.95 221.8,-58.25 231.57,-54.14 226.87,-48.95"/>
</g>
<!-- Node5 -->
<g id="node5" class="node">
<title>Node5</title>
<g id="a_node5"><a xlink:href="cuda_model_matrix_8h.html" target="_top" xlink:title=" ">
<polygon fill="none" stroke="black" points="338.5,-0.5 338.5,-21.5 469.5,-21.5 469.5,-0.5 338.5,-0.5"/>
<text text-anchor="middle" x="404" y="-7.9" font-family="Helvetica,sans-Serif" font-size="12.00">cudaModelMatrix.h</text>
</a>
</g>
</g>
<!-- Node1&#45;&gt;Node5 -->
<g id="edge4" class="edge">
<title>Node1&#45;&gt;Node5</title>
<path fill="none" stroke="midnightblue" d="M254.23,-55.46C289.66,-45.18 339.04,-30.85 371.26,-21.5"/>
<polygon fill="midnightblue" stroke="midnightblue" points="252.81,-52.23 244.18,-58.37 254.76,-58.95 252.81,-52.23"/>
</g>
</g>
</svg>
