<?xml version="1.0" encoding="UTF-8" standalone="no"?>
<!DOCTYPE svg PUBLIC "-//W3C//DTD SVG 1.1//EN"
 "http://www.w3.org/Graphics/SVG/1.1/DTD/svg11.dtd">
<!-- Generated by graphviz version 2.43.0 (0)
 -->
<!-- Title: model.h Pages: 1 -->
<svg width="553pt" height="204pt"
 viewBox="0.00 0.00 552.50 204.00" xmlns="http://www.w3.org/2000/svg" xmlns:xlink="http://www.w3.org/1999/xlink">
<g id="graph0" class="graph" transform="scale(1 1) rotate(0) translate(4 200)">
<title>model.h</title>
<!-- Node1 -->
<g id="node1" class="node">
<title>Node1</title>
<g id="a_node1"><a xlink:title=" ">
<polygon fill="#bfbfbf" stroke="black" points="355.5,-174.5 355.5,-195.5 420.5,-195.5 420.5,-174.5 355.5,-174.5"/>
<text text-anchor="middle" x="388" y="-181.9" font-family="Helvetica,sans-Serif" font-size="12.00">model.h</text>
</a>
</g>
</g>
<!-- Node2 -->
<g id="node2" class="node">
<title>Node2</title>
<g id="a_node2"><a xlink:href="markov_passwords_8h.html" target="_top" xlink:title=" ">
<polygon fill="none" stroke="black" points="193,-116.5 193,-137.5 327,-137.5 327,-116.5 193,-116.5"/>
<text text-anchor="middle" x="260" y="-123.9" font-family="Helvetica,sans-Serif" font-size="12.00">markovPasswords.h</text>
</a>
</g>
</g>
<!-- Node1&#45;&gt;Node2 -->
<g id="edge1" class="edge">
<title>Node1&#45;&gt;Node2</title>
<path fill="none" stroke="midnightblue" d="M356.57,-170.25C333.32,-160.08 302.26,-146.49 281.72,-137.5"/>
<polygon fill="midnightblue" stroke="midnightblue" points="355.43,-173.57 366,-174.37 358.24,-167.16 355.43,-173.57"/>
</g>
<!-- Node9 -->
<g id="node9" class="node">
<title>Node9</title>
<g id="a_node9"><a xlink:href="dllmain_8cpp.html" target="_top" xlink:title=" ">
<polygon fill="none" stroke="black" points="345,-116.5 345,-137.5 431,-137.5 431,-116.5 345,-116.5"/>
<text text-anchor="middle" x="388" y="-123.9" font-family="Helvetica,sans-Serif" font-size="12.00">dllmain.cpp</text>
</a>
</g>
</g>
<!-- Node1&#45;&gt;Node9 -->
<g id="edge10" class="edge">
<title>Node1&#45;&gt;Node9</title>
<path fill="none" stroke="midnightblue" d="M388,-164.16C388,-155.16 388,-144.92 388,-137.64"/>
<polygon fill="midnightblue" stroke="midnightblue" points="384.5,-164.25 388,-174.25 391.5,-164.25 384.5,-164.25"/>
</g>
<!-- Node10 -->
<g id="node10" class="node">
<title>Node10</title>
<g id="a_node10"><a xlink:href="_unit_tests_8cpp.html" target="_top" xlink:title=" ">
<polygon fill="none" stroke="black" points="449.5,-116.5 449.5,-137.5 544.5,-137.5 544.5,-116.5 449.5,-116.5"/>
<text text-anchor="middle" x="497" y="-123.9" font-family="Helvetica,sans-Serif" font-size="12.00">UnitTests.cpp</text>
</a>
</g>
</g>
<!-- Node1&#45;&gt;Node10 -->
<g id="edge11" class="edge">
<title>Node1&#45;&gt;Node10</title>
<path fill="none" stroke="midnightblue" d="M416.03,-169.6C435.57,-159.56 461.11,-146.44 478.23,-137.64"/>
<polygon fill="midnightblue" stroke="midnightblue" points="414.28,-166.56 406.99,-174.25 417.48,-172.79 414.28,-166.56"/>
</g>
<!-- Node3 -->
<g id="node3" class="node">
<title>Node3</title>
<g id="a_node3"><a xlink:href="src_2main_8cpp.html" target="_top" xlink:title=" ">
<polygon fill="none" stroke="black" points="0,-0.5 0,-21.5 72,-21.5 72,-0.5 0,-0.5"/>
<text text-anchor="middle" x="36" y="-7.9" font-family="Helvetica,sans-Serif" font-size="12.00">main.cpp</text>
</a>
</g>
</g>
<!-- Node2&#45;&gt;Node3 -->
<g id="edge2" class="edge">
<title>Node2&#45;&gt;Node3</title>
<path fill="none" stroke="midnightblue" d="M228.4,-112.36C208.34,-103.52 181.93,-91.54 159,-80 120.2,-60.48 75.89,-35.23 52.49,-21.65"/>
<polygon fill="midnightblue" stroke="midnightblue" points="227.14,-115.63 237.7,-116.44 229.94,-109.22 227.14,-115.63"/>
</g>
<!-- Node4 -->
<g id="node4" class="node">
<title>Node4</title>
<g id="a_node4"><a xlink:href="model_matrix_8h.html" target="_top" xlink:title=" ">
<polygon fill="none" stroke="black" points="168.5,-58.5 168.5,-79.5 271.5,-79.5 271.5,-58.5 168.5,-58.5"/>
<text text-anchor="middle" x="220" y="-65.9" font-family="Helvetica,sans-Serif" font-size="12.00">modelMatrix.h</text>
</a>
</g>
</g>
<!-- Node2&#45;&gt;Node4 -->
<g id="edge3" class="edge">
<title>Node2&#45;&gt;Node4</title>
<path fill="none" stroke="midnightblue" d="M247.09,-107.92C240.37,-98.52 232.43,-87.4 226.89,-79.64"/>
<polygon fill="midnightblue" stroke="midnightblue" points="244.37,-110.14 253.03,-116.25 250.07,-106.07 244.37,-110.14"/>
</g>
<!-- Node6 -->
<g id="node6" class="node">
<title>Node6</title>
<g id="a_node6"><a xlink:href="markopy_8cpp.html" target="_top" xlink:title=" ">
<polygon fill="none" stroke="black" points="375,-0.5 375,-21.5 469,-21.5 469,-0.5 375,-0.5"/>
<text text-anchor="middle" x="422" y="-7.9" font-family="Helvetica,sans-Serif" font-size="12.00">markopy.cpp</text>
</a>
</g>
</g>
<!-- Node2&#45;&gt;Node6 -->
<g id="edge9" class="edge">
<title>Node2&#45;&gt;Node6</title>
<path fill="none" stroke="midnightblue" d="M272.13,-108.08C282.99,-93.11 300.08,-72.03 319,-58 341.18,-41.55 370.17,-29.27 391.75,-21.55"/>
<polygon fill="midnightblue" stroke="midnightblue" points="269.1,-106.29 266.21,-116.49 274.83,-110.32 269.1,-106.29"/>
</g>
<!-- Node8 -->
<g id="node8" class="node">
<title>Node8</title>
<g id="a_node8"><a xlink:href="markov_passwords_8cpp.html" target="_top" xlink:title=" ">
<polygon fill="none" stroke="black" points="327.5,-58.5 327.5,-79.5 476.5,-79.5 476.5,-58.5 327.5,-58.5"/>
<text text-anchor="middle" x="402" y="-65.9" font-family="Helvetica,sans-Serif" font-size="12.00">markovPasswords.cpp</text>
</a>
</g>
</g>
<!-- Node2&#45;&gt;Node8 -->
<g id="edge8" class="edge">
<title>Node2&#45;&gt;Node8</title>
<path fill="none" stroke="midnightblue" d="M293.84,-112.65C319.74,-102.44 354.81,-88.61 377.91,-79.5"/>
<polygon fill="midnightblue" stroke="midnightblue" points="292.43,-109.45 284.41,-116.37 295,-115.96 292.43,-109.45"/>
</g>
<!-- Node4&#45;&gt;Node3 -->
<g id="edge4" class="edge">
<title>Node4&#45;&gt;Node3</title>
<path fill="none" stroke="midnightblue" d="M178.78,-55.46C145.01,-45.18 97.93,-30.85 67.22,-21.5"/>
<polygon fill="midnightblue" stroke="midnightblue" points="177.78,-58.81 188.37,-58.37 179.82,-52.11 177.78,-58.81"/>
</g>
<!-- Node5 -->
<g id="node5" class="node">
<title>Node5</title>
<g id="a_node5"><a xlink:href="model_matrix_8cpp.html" target="_top" xlink:title=" ">
<polygon fill="none" stroke="black" points="90.5,-0.5 90.5,-21.5 207.5,-21.5 207.5,-0.5 90.5,-0.5"/>
<text text-anchor="middle" x="149" y="-7.9" font-family="Helvetica,sans-Serif" font-size="12.00">modelMatrix.cpp</text>
</a>
</g>
</g>
<!-- Node4&#45;&gt;Node5 -->
<g id="edge5" class="edge">
<title>Node4&#45;&gt;Node5</title>
<path fill="none" stroke="midnightblue" d="M199.62,-51.93C187.21,-42.14 171.77,-29.96 161.23,-21.64"/>
<polygon fill="midnightblue" stroke="midnightblue" points="197.61,-54.8 207.63,-58.25 201.95,-49.3 197.61,-54.8"/>
</g>
<!-- Node4&#45;&gt;Node6 -->
<g id="edge6" class="edge">
<title>Node4&#45;&gt;Node6</title>
<path fill="none" stroke="midnightblue" d="M264.77,-55.59C301.88,-45.3 353.86,-30.89 387.73,-21.5"/>
<polygon fill="midnightblue" stroke="midnightblue" points="263.43,-52.33 254.73,-58.37 265.3,-59.07 263.43,-52.33"/>
</g>
<!-- Node7 -->
<g id="node7" class="node">
<title>Node7</title>
<g id="a_node7"><a xlink:href="cuda_model_matrix_8h.html" target="_top" xlink:title=" ">
<polygon fill="none" stroke="black" points="225.5,-0.5 225.5,-21.5 356.5,-21.5 356.5,-0.5 225.5,-0.5"/>
<text text-anchor="middle" x="291" y="-7.9" font-family="Helvetica,sans-Serif" font-size="12.00">cudaModelMatrix.h</text>
</a>
</g>
</g>
<!-- Node4&#45;&gt;Node7 -->
<g id="edge7" class="edge">
<title>Node4&#45;&gt;Node7</title>
<path fill="none" stroke="midnightblue" d="M240.38,-51.93C252.79,-42.14 268.23,-29.96 278.77,-21.64"/>
<polygon fill="midnightblue" stroke="midnightblue" points="238.05,-49.3 232.37,-58.25 242.39,-54.8 238.05,-49.3"/>
</g>
</g>
</svg>
