<?xml version="1.0" encoding="UTF-8" standalone="no"?>
<!DOCTYPE svg PUBLIC "-//W3C//DTD SVG 1.1//EN"
 "http://www.w3.org/Graphics/SVG/1.1/DTD/svg11.dtd">
<!-- Generated by graphviz version 2.43.0 (0)
 -->
<!-- Title: Markopy/MarkovModel/src/model.h Pages: 1 -->
<!--zoomable 217 -->
<svg id="main" version="1.1" xmlns="http://www.w3.org/2000/svg" xmlns:xlink="http://www.w3.org/1999/xlink" xml:space="preserve" onload="init(evt)">
<style type="text/css"><![CDATA[
.edge:hover path { stroke: red; }
.edge:hover polygon { stroke: red; fill: red; }
]]></style>
<script type="text/javascript"><![CDATA[
var edges = document.getElementsByTagName('g');
if (edges && edges.length) {
  for (var i=0;i<edges.length;i++) {
    if (edges[i].id.substr(0,4)=='edge') {
      edges[i].setAttribute('class','edge');
    }
  }
}
]]></script>
        <defs>
                <circle id="rim" cx="0" cy="0" r="7"/>
                <circle id="rim2" cx="0" cy="0" r="3.5"/>
                <g id="zoomPlus">
                        <use xlink:href="#rim" fill="#404040">
                                <set attributeName="fill" to="#808080" begin="zoomplus.mouseover" end="zoomplus.mouseout"/>
                        </use>
                        <path d="M-4,0h8M0,-4v8" fill="none" stroke="white" stroke-width="1.5" pointer-events="none"/>
                </g>
                <g id="zoomMin">
                        <use xlink:href="#rim" fill="#404040">
                                <set attributeName="fill" to="#808080" begin="zoomminus.mouseover" end="zoomminus.mouseout"/>
                        </use>
                        <path d="M-4,0h8" fill="none" stroke="white" stroke-width="1.5" pointer-events="none"/>
                </g>
                <g id="dirArrow">
                        <path fill="none" stroke="white" stroke-width="1.5" d="M0,-3.0v7 M-2.5,-0.5L0,-3.0L2.5,-0.5"/>
                </g>
               <g id="resetDef">
                       <use xlink:href="#rim2" fill="#404040">
                               <set attributeName="fill" to="#808080" begin="reset.mouseover" end="reset.mouseout"/>
                       </use>
               </g>
        </defs>

<script type="text/javascript">
var viewWidth = 549;
var viewHeight = 217;
var sectionId = 'dynsection-0';
</script>
<script xlink:href="svgpan.js"/>
<svg id="graph" class="graph">
<g id="viewport">
<title>Markopy/MarkovModel/src/model.h</title>
<!-- Node1 -->
<g id="node1" class="node">
<title>Node1</title>
<g id="a_node1"><a xlink:title="Model class template.">
<polygon fill="#bfbfbf" stroke="black" points="177,-174.5 177,-208.5 329,-208.5 329,-174.5 177,-174.5"/>
<text text-anchor="start" x="185" y="-194.9" font-family="Helvetica,sans-Serif" font-size="12.00">Markopy/MarkovModel</text>
<text text-anchor="middle" x="253" y="-181.9" font-family="Helvetica,sans-Serif" font-size="12.00">/src/model.h</text>
</a>
</g>
</g>
<!-- Node2 -->
<g id="node2" class="node">
<title>Node2</title>
<g id="a_node2"><a xlink:title=" ">
<polygon fill="none" stroke="#bfbfbf" points="0,-58.5 0,-79.5 44,-79.5 44,-58.5 0,-58.5"/>
<text text-anchor="middle" x="22" y="-65.9" font-family="Helvetica,sans-Serif" font-size="12.00">map</text>
</a>
</g>
</g>
<!-- Node1&#45;&gt;Node2 -->
<g id="edge1" class="edge">
<title>Node1&#45;&gt;Node2</title>
<path fill="none" stroke="midnightblue" d="M217.43,-174.49C195.49,-164.41 166.88,-150.91 142,-138 108.6,-120.67 70.99,-98.99 46.92,-84.84"/>
<polygon fill="midnightblue" stroke="midnightblue" points="48.49,-81.69 38.1,-79.62 44.93,-87.72 48.49,-81.69"/>
</g>
<!-- Node3 -->
<g id="node3" class="node">
<title>Node3</title>
<g id="a_node3"><a xlink:title=" ">
<polygon fill="none" stroke="#bfbfbf" points="62.5,-58.5 62.5,-79.5 117.5,-79.5 117.5,-58.5 62.5,-58.5"/>
<text text-anchor="middle" x="90" y="-65.9" font-family="Helvetica,sans-Serif" font-size="12.00">vector</text>
</a>
</g>
</g>
<!-- Node1&#45;&gt;Node3 -->
<g id="edge2" class="edge">
<title>Node1&#45;&gt;Node3</title>
<path fill="none" stroke="midnightblue" d="M227.32,-174.31C211.67,-164.22 191.39,-150.77 174,-138 151.08,-121.16 125.85,-100.43 109.09,-86.31"/>
<polygon fill="midnightblue" stroke="midnightblue" points="111.04,-83.38 101.15,-79.59 106.52,-88.72 111.04,-83.38"/>
</g>
<!-- Node4 -->
<g id="node4" class="node">
<title>Node4</title>
<g id="a_node4"><a xlink:title=" ">
<polygon fill="none" stroke="#bfbfbf" points="310.5,-116.5 310.5,-137.5 373.5,-137.5 373.5,-116.5 310.5,-116.5"/>
<text text-anchor="middle" x="342" y="-123.9" font-family="Helvetica,sans-Serif" font-size="12.00">fstream</text>
</a>
</g>
</g>
<!-- Node1&#45;&gt;Node4 -->
<g id="edge3" class="edge">
<title>Node1&#45;&gt;Node4</title>
<path fill="none" stroke="midnightblue" d="M275.92,-174.4C289.52,-164.85 306.68,-152.8 320.1,-143.38"/>
<polygon fill="midnightblue" stroke="midnightblue" points="322.13,-146.23 328.31,-137.62 318.11,-140.5 322.13,-146.23"/>
</g>
<!-- Node5 -->
<g id="node5" class="node">
<title>Node5</title>
<g id="a_node5"><a xlink:title=" ">
<polygon fill="none" stroke="#bfbfbf" points="135.5,-58.5 135.5,-79.5 200.5,-79.5 200.5,-58.5 135.5,-58.5"/>
<text text-anchor="middle" x="168" y="-65.9" font-family="Helvetica,sans-Serif" font-size="12.00">assert.h</text>
</a>
</g>
</g>
<!-- Node1&#45;&gt;Node5 -->
<g id="edge4" class="edge">
<title>Node1&#45;&gt;Node5</title>
<path fill="none" stroke="midnightblue" d="M225.47,-174.42C212.07,-165.3 196.79,-152.76 187,-138 177.38,-123.49 172.58,-104.15 170.22,-89.81"/>
<polygon fill="midnightblue" stroke="midnightblue" points="173.64,-88.99 168.8,-79.56 166.71,-89.94 173.64,-88.99"/>
</g>
<!-- Node6 -->
<g id="node6" class="node">
<title>Node6</title>
<g id="a_node6"><a xlink:title=" ">
<polygon fill="none" stroke="#bfbfbf" points="392,-116.5 392,-137.5 442,-137.5 442,-116.5 392,-116.5"/>
<text text-anchor="middle" x="417" y="-123.9" font-family="Helvetica,sans-Serif" font-size="12.00">string</text>
</a>
</g>
</g>
<!-- Node1&#45;&gt;Node6 -->
<g id="edge5" class="edge">
<title>Node1&#45;&gt;Node6</title>
<path fill="none" stroke="midnightblue" d="M295.23,-174.4C322.21,-164.12 356.77,-150.95 382.17,-141.27"/>
<polygon fill="midnightblue" stroke="midnightblue" points="383.67,-144.45 391.77,-137.62 381.17,-137.91 383.67,-144.45"/>
</g>
<!-- Node7 -->
<g id="node7" class="node">
<title>Node7</title>
<g id="a_node7"><a xlink:title=" ">
<polygon fill="none" stroke="#bfbfbf" points="460,-116.5 460,-137.5 534,-137.5 534,-116.5 460,-116.5"/>
<text text-anchor="middle" x="497" y="-123.9" font-family="Helvetica,sans-Serif" font-size="12.00">algorithm</text>
</a>
</g>
</g>
<!-- Node1&#45;&gt;Node7 -->
<g id="edge6" class="edge">
<title>Node1&#45;&gt;Node7</title>
<path fill="none" stroke="midnightblue" d="M315.52,-174.49C357.39,-163.76 411.62,-149.87 449.86,-140.07"/>
<polygon fill="midnightblue" stroke="midnightblue" points="450.89,-143.42 459.71,-137.55 449.16,-136.64 450.89,-143.42"/>
</g>
<!-- Node8 -->
<g id="node8" class="node">
<title>Node8</title>
<g id="a_node8"><a xlink:href="node_8h.html" target="_top" xlink:title="Node class template.">
<polygon fill="none" stroke="black" points="196,-116.5 196,-137.5 254,-137.5 254,-116.5 196,-116.5"/>
<text text-anchor="middle" x="225" y="-123.9" font-family="Helvetica,sans-Serif" font-size="12.00">node.h</text>
</a>
</g>
</g>
<!-- Node1&#45;&gt;Node8 -->
<g id="edge7" class="edge">
<title>Node1&#45;&gt;Node8</title>
<path fill="none" stroke="midnightblue" d="M245.79,-174.4C242.06,-166.09 237.49,-155.88 233.58,-147.15"/>
<polygon fill="midnightblue" stroke="midnightblue" points="236.67,-145.5 229.39,-137.8 230.28,-148.36 236.67,-145.5"/>
</g>
<!-- Node11 -->
<g id="node11" class="node">
<title>Node11</title>
<g id="a_node11"><a xlink:href="edge_8h.html" target="_top" xlink:title="Edge class template.">
<polygon fill="none" stroke="black" points="443,-58.5 443,-79.5 501,-79.5 501,-58.5 443,-58.5"/>
<text text-anchor="middle" x="472" y="-65.9" font-family="Helvetica,sans-Serif" font-size="12.00">edge.h</text>
</a>
</g>
</g>
<!-- Node1&#45;&gt;Node11 -->
<g id="edge19" class="edge">
<title>Node1&#45;&gt;Node11</title>
<path fill="none" stroke="midnightblue" d="M259.25,-174.32C266.65,-157.27 280.62,-130.88 301,-116 302.37,-115 383,-93.55 433.04,-80.3"/>
<polygon fill="midnightblue" stroke="midnightblue" points="434.14,-83.63 442.91,-77.68 432.35,-76.86 434.14,-83.63"/>
</g>
<!-- Node8&#45;&gt;Node2 -->
<g id="edge9" class="edge">
<title>Node8&#45;&gt;Node2</title>
<path fill="none" stroke="midnightblue" d="M195.96,-118.71C163.54,-110.47 109.31,-96.38 53.93,-80.18"/>
<polygon fill="midnightblue" stroke="midnightblue" points="54.89,-76.81 44.31,-77.35 52.91,-83.53 54.89,-76.81"/>
</g>
<!-- Node8&#45;&gt;Node3 -->
<g id="edge8" class="edge">
<title>Node8&#45;&gt;Node3</title>
<path fill="none" stroke="midnightblue" d="M201.79,-116.37C179.83,-107.26 146.67,-93.51 122.16,-83.34"/>
<polygon fill="midnightblue" stroke="midnightblue" points="123.48,-80.1 112.9,-79.5 120.8,-86.57 123.48,-80.1"/>
</g>
<!-- Node8&#45;&gt;Node5 -->
<g id="edge10" class="edge">
<title>Node8&#45;&gt;Node5</title>
<path fill="none" stroke="midnightblue" d="M215.07,-116.25C206.82,-108.14 194.88,-96.41 185.09,-86.79"/>
<polygon fill="midnightblue" stroke="midnightblue" points="187.4,-84.15 177.81,-79.64 182.5,-89.15 187.4,-84.15"/>
</g>
<!-- Node9 -->
<g id="node9" class="node">
<title>Node9</title>
<g id="a_node9"><a xlink:title=" ">
<polygon fill="none" stroke="#bfbfbf" points="194.5,-0.5 194.5,-21.5 263.5,-21.5 263.5,-0.5 194.5,-0.5"/>
<text text-anchor="middle" x="229" y="-7.9" font-family="Helvetica,sans-Serif" font-size="12.00">iostream</text>
</a>
</g>
</g>
<!-- Node8&#45;&gt;Node9 -->
<g id="edge11" class="edge">
<title>Node8&#45;&gt;Node9</title>
<path fill="none" stroke="midnightblue" d="M225.34,-116.28C226,-97.6 227.44,-56.37 228.31,-31.72"/>
<polygon fill="midnightblue" stroke="midnightblue" points="231.81,-31.81 228.66,-21.69 224.81,-31.57 231.81,-31.81"/>
</g>
<!-- Node10 -->
<g id="node10" class="node">
<title>Node10</title>
<g id="a_node10"><a xlink:title=" ">
<polygon fill="none" stroke="#bfbfbf" points="350.5,-58.5 350.5,-79.5 425.5,-79.5 425.5,-58.5 350.5,-58.5"/>
<text text-anchor="middle" x="388" y="-65.9" font-family="Helvetica,sans-Serif" font-size="12.00">stdexcept</text>
</a>
</g>
</g>
<!-- Node8&#45;&gt;Node10 -->
<g id="edge12" class="edge">
<title>Node8&#45;&gt;Node10</title>
<path fill="none" stroke="midnightblue" d="M253.02,-116.37C280.01,-107.1 321,-93.02 350.73,-82.8"/>
<polygon fill="midnightblue" stroke="midnightblue" points="352.02,-86.06 360.34,-79.5 349.75,-79.44 352.02,-86.06"/>
</g>
<!-- Node8&#45;&gt;Node11 -->
<g id="edge13" class="edge">
<title>Node8&#45;&gt;Node11</title>
<path fill="none" stroke="midnightblue" d="M254.13,-119.16C258.77,-118.09 263.51,-117.01 268,-116 338.64,-100.13 358.94,-97.79 433.16,-80.13"/>
<polygon fill="midnightblue" stroke="midnightblue" points="434.08,-83.51 442.99,-77.77 432.45,-76.7 434.08,-83.51"/>
</g>
<!-- Node14 -->
<g id="node14" class="node">
<title>Node14</title>
<g id="a_node14"><a xlink:href="random_8h.html" target="_top" xlink:title="Random engine implementations for Markov.">
<polygon fill="none" stroke="black" points="257.5,-58.5 257.5,-79.5 332.5,-79.5 332.5,-58.5 257.5,-58.5"/>
<text text-anchor="middle" x="295" y="-65.9" font-family="Helvetica,sans-Serif" font-size="12.00">random.h</text>
</a>
</g>
</g>
<!-- Node8&#45;&gt;Node14 -->
<g id="edge16" class="edge">
<title>Node8&#45;&gt;Node14</title>
<path fill="none" stroke="midnightblue" d="M237.19,-116.25C247.63,-107.89 262.87,-95.71 275.07,-85.94"/>
<polygon fill="midnightblue" stroke="midnightblue" points="277.32,-88.62 282.95,-79.64 272.95,-83.16 277.32,-88.62"/>
</g>
<!-- Node12 -->
<g id="node12" class="node">
<title>Node12</title>
<g id="a_node12"><a xlink:title=" ">
<polygon fill="none" stroke="#bfbfbf" points="405,-0.5 405,-21.5 461,-21.5 461,-0.5 405,-0.5"/>
<text text-anchor="middle" x="433" y="-7.9" font-family="Helvetica,sans-Serif" font-size="12.00">cstdint</text>
</a>
</g>
</g>
<!-- Node11&#45;&gt;Node12 -->
<g id="edge14" class="edge">
<title>Node11&#45;&gt;Node12</title>
<path fill="none" stroke="midnightblue" d="M465.21,-58.25C459.78,-50.46 452.03,-39.33 445.5,-29.94"/>
<polygon fill="midnightblue" stroke="midnightblue" points="448.3,-27.85 439.72,-21.64 442.56,-31.85 448.3,-27.85"/>
</g>
<!-- Node13 -->
<g id="node13" class="node">
<title>Node13</title>
<g id="a_node13"><a xlink:title=" ">
<polygon fill="none" stroke="#bfbfbf" points="479.5,-0.5 479.5,-21.5 540.5,-21.5 540.5,-0.5 479.5,-0.5"/>
<text text-anchor="middle" x="510" y="-7.9" font-family="Helvetica,sans-Serif" font-size="12.00">cstddef</text>
</a>
</g>
</g>
<!-- Node11&#45;&gt;Node13 -->
<g id="edge15" class="edge">
<title>Node11&#45;&gt;Node13</title>
<path fill="none" stroke="midnightblue" d="M478.62,-58.25C483.9,-50.46 491.45,-39.33 497.82,-29.94"/>
<polygon fill="midnightblue" stroke="midnightblue" points="500.74,-31.88 503.46,-21.64 494.95,-27.95 500.74,-31.88"/>
</g>
<!-- Node14&#45;&gt;Node9 -->
<g id="edge18" class="edge">
<title>Node14&#45;&gt;Node9</title>
<path fill="none" stroke="midnightblue" d="M283.5,-58.25C273.76,-49.97 259.57,-37.94 248.12,-28.22"/>
<polygon fill="midnightblue" stroke="midnightblue" points="250.25,-25.44 240.36,-21.64 245.73,-30.78 250.25,-25.44"/>
</g>
<!-- Node15 -->
<g id="node15" class="node">
<title>Node15</title>
<g id="a_node15"><a xlink:title=" ">
<polygon fill="none" stroke="#bfbfbf" points="282,-0.5 282,-21.5 346,-21.5 346,-0.5 282,-0.5"/>
<text text-anchor="middle" x="314" y="-7.9" font-family="Helvetica,sans-Serif" font-size="12.00">random</text>
</a>
</g>
</g>
<!-- Node14&#45;&gt;Node15 -->
<g id="edge17" class="edge">
<title>Node14&#45;&gt;Node15</title>
<path fill="none" stroke="midnightblue" d="M298.31,-58.25C300.84,-50.78 304.42,-40.24 307.51,-31.11"/>
<polygon fill="midnightblue" stroke="midnightblue" points="310.83,-32.24 310.73,-21.64 304.2,-29.99 310.83,-32.24"/>
</g>
</g>
</svg>
        <g id="navigator" transform="translate(0 0)" fill="#404254">
                <rect fill="#f2f5e9" fill-opacity="0.5" stroke="#606060" stroke-width=".5" x="0" y="0" width="60" height="60"/>
                <use id="zoomplus" xlink:href="#zoomPlus" x="17" y="9" onmousedown="handleZoom(evt,'in')"/>
                <use id="zoomminus" xlink:href="#zoomMin" x="42" y="9" onmousedown="handleZoom(evt,'out')"/>
                <use id="reset" xlink:href="#resetDef" x="30" y="36" onmousedown="handleReset()"/>
                <g id="arrowUp" xlink:href="#dirArrow" transform="translate(30 24)" onmousedown="handlePan(0,-1)">
                  <use xlink:href="#rim" fill="#404040">
                        <set attributeName="fill" to="#808080" begin="arrowUp.mouseover" end="arrowUp.mouseout"/>
                  </use>
                  <path fill="none" stroke="white" stroke-width="1.5" d="M0,-3.0v7 M-2.5,-0.5L0,-3.0L2.5,-0.5"/>
                </g>
                <g id="arrowRight" xlink:href="#dirArrow" transform="rotate(90) translate(36 -43)" onmousedown="handlePan(1,0)">
                  <use xlink:href="#rim" fill="#404040">
                        <set attributeName="fill" to="#808080" begin="arrowRight.mouseover" end="arrowRight.mouseout"/>
                  </use>
                  <path fill="none" stroke="white" stroke-width="1.5" d="M0,-3.0v7 M-2.5,-0.5L0,-3.0L2.5,-0.5"/>
                </g>
                <g id="arrowDown" xlink:href="#dirArrow" transform="rotate(180) translate(-30 -48)" onmousedown="handlePan(0,1)">
                  <use xlink:href="#rim" fill="#404040">
                        <set attributeName="fill" to="#808080" begin="arrowDown.mouseover" end="arrowDown.mouseout"/>
                  </use>
                  <path fill="none" stroke="white" stroke-width="1.5" d="M0,-3.0v7 M-2.5,-0.5L0,-3.0L2.5,-0.5"/>
                </g>
                <g id="arrowLeft" xlink:href="#dirArrow" transform="rotate(270) translate(-36 17)" onmousedown="handlePan(-1,0)">
                  <use xlink:href="#rim" fill="#404040">
                        <set attributeName="fill" to="#808080" begin="arrowLeft.mouseover" end="arrowLeft.mouseout"/>
                  </use>
                  <path fill="none" stroke="white" stroke-width="1.5" d="M0,-3.0v7 M-2.5,-0.5L0,-3.0L2.5,-0.5"/>
                </g>
        </g>
        <svg viewBox="0 0 15 15" width="100%" height="30px" preserveAspectRatio="xMaxYMin meet">
         <g id="arrow_out" transform="scale(0.3 0.3)">
          <a xlink:href="model_8h__incl_org.svg" target="_base">
           <rect id="button" ry="5" rx="5" y="6" x="6" height="38" width="38"
                fill="#f2f5e9" fill-opacity="0.5" stroke="#606060" stroke-width="1.0"/>
           <path id="arrow"
             d="M 11.500037,31.436501 C 11.940474,20.09759 22.043105,11.32322 32.158766,21.979434 L 37.068811,17.246167 C 37.068811,17.246167 37.088388,32 37.088388,32 L 22.160133,31.978069 C 22.160133,31.978069 26.997745,27.140456 26.997745,27.140456 C 18.528582,18.264221 13.291696,25.230495 11.500037,31.436501 z"
             style="fill:#404040;"/>
          </a>
         </g>
        </svg>
</svg>
