<?xml version="1.0" encoding="UTF-8" standalone="no"?>
<!DOCTYPE svg PUBLIC "-//W3C//DTD SVG 1.1//EN"
 "http://www.w3.org/Graphics/SVG/1.1/DTD/svg11.dtd">
<!-- Generated by graphviz version 2.43.0 (0)
 -->
<!-- Title: Markov::Markopy::BOOST_PYTHON_MODULE Pages: 1 -->
<!--zoomable 244 -->
<svg id="main" version="1.1" xmlns="http://www.w3.org/2000/svg" xmlns:xlink="http://www.w3.org/1999/xlink" xml:space="preserve" onload="init(evt)">
<style type="text/css"><![CDATA[
.edge:hover path { stroke: red; }
.edge:hover polygon { stroke: red; fill: red; }
]]></style>
<script type="text/javascript"><![CDATA[
var edges = document.getElementsByTagName('g');
if (edges && edges.length) {
  for (var i=0;i<edges.length;i++) {
    if (edges[i].id.substr(0,4)=='edge') {
      edges[i].setAttribute('class','edge');
    }
  }
}
]]></script>
        <defs>
                <circle id="rim" cx="0" cy="0" r="7"/>
                <circle id="rim2" cx="0" cy="0" r="3.5"/>
                <g id="zoomPlus">
                        <use xlink:href="#rim" fill="#404040">
                                <set attributeName="fill" to="#808080" begin="zoomplus.mouseover" end="zoomplus.mouseout"/>
                        </use>
                        <path d="M-4,0h8M0,-4v8" fill="none" stroke="white" stroke-width="1.5" pointer-events="none"/>
                </g>
                <g id="zoomMin">
                        <use xlink:href="#rim" fill="#404040">
                                <set attributeName="fill" to="#808080" begin="zoomminus.mouseover" end="zoomminus.mouseout"/>
                        </use>
                        <path d="M-4,0h8" fill="none" stroke="white" stroke-width="1.5" pointer-events="none"/>
                </g>
                <g id="dirArrow">
                        <path fill="none" stroke="white" stroke-width="1.5" d="M0,-3.0v7 M-2.5,-0.5L0,-3.0L2.5,-0.5"/>
                </g>
               <g id="resetDef">
                       <use xlink:href="#rim2" fill="#404040">
                               <set attributeName="fill" to="#808080" begin="reset.mouseover" end="reset.mouseout"/>
                       </use>
               </g>
        </defs>

<script type="text/javascript">
var viewWidth = 895;
var viewHeight = 244;
var sectionId = 'dynsection-0';
</script>
<script xlink:href="svgpan.js"/>
<svg id="graph" class="graph">
<g id="viewport">
<title>Markov::Markopy::BOOST_PYTHON_MODULE</title>
<!-- Node1 -->
<g id="node1" class="node">
<title>Node1</title>
<g id="a_node1"><a xlink:title=" ">
<polygon fill="#bfbfbf" stroke="black" points="0,-136.5 0,-170.5 170,-170.5 170,-136.5 0,-136.5"/>
<text text-anchor="start" x="8" y="-156.9" font-family="Helvetica,sans-Serif" font-size="12.00">Markov::Markopy::BOOST</text>
<text text-anchor="middle" x="85" y="-143.9" font-family="Helvetica,sans-Serif" font-size="12.00">_PYTHON_MODULE</text>
</a>
</g>
</g>
<!-- Node2 -->
<g id="node2" class="node">
<title>Node2</title>
<g id="a_node2"><a xlink:href="class_markov_1_1_model.html#af788426a3c41a7838a2aae199e8aef5b" target="_top" xlink:title="Open a file to export with filename, and call bool Model::Export with std::ofstream.">
<polygon fill="none" stroke="black" points="230.5,-214 230.5,-235 381.5,-235 381.5,-214 230.5,-214"/>
<text text-anchor="middle" x="306" y="-221.4" font-family="Helvetica,sans-Serif" font-size="12.00">Markov::Model::Export</text>
</a>
</g>
</g>
<!-- Node1&#45;&gt;Node2 -->
<g id="edge1" class="edge">
<title>Node1&#45;&gt;Node2</title>
<path fill="none" stroke="midnightblue" d="M121,-170.6C144.57,-181.56 176.59,-195.38 206,-204.5 214.67,-207.19 223.88,-209.61 233.07,-211.76"/>
<polygon fill="midnightblue" stroke="midnightblue" points="232.46,-215.21 242.99,-213.98 234,-208.38 232.46,-215.21"/>
</g>
<!-- Node3 -->
<g id="node3" class="node">
<title>Node3</title>
<g id="a_node3"><a xlink:href="class_markov_1_1_a_p_i_1_1_markov_passwords.html#a13886b29051abf3edeed97bd7f985f39" target="_top" xlink:title="Call Markov::Model::RandomWalk n times, and collect output.">
<polygon fill="none" stroke="black" points="206,-160.5 206,-194.5 406,-194.5 406,-160.5 206,-160.5"/>
<text text-anchor="start" x="214" y="-180.9" font-family="Helvetica,sans-Serif" font-size="12.00">Markov::API::MarkovPasswords</text>
<text text-anchor="middle" x="306" y="-167.9" font-family="Helvetica,sans-Serif" font-size="12.00">::Generate</text>
</a>
</g>
</g>
<!-- Node1&#45;&gt;Node3 -->
<g id="edge2" class="edge">
<title>Node1&#45;&gt;Node3</title>
<path fill="none" stroke="midnightblue" d="M170.04,-162.71C178.45,-163.63 187.08,-164.58 195.7,-165.52"/>
<polygon fill="midnightblue" stroke="midnightblue" points="195.48,-169.02 205.8,-166.63 196.24,-162.06 195.48,-169.02"/>
</g>
<!-- Node6 -->
<g id="node6" class="node">
<title>Node6</title>
<g id="a_node6"><a xlink:href="class_markov_1_1_model.html#a3f872a3af96a91d4627c1a5d5e66b19a" target="_top" xlink:title="Open a file to import with filename, and call bool Model::Import with std::ifstream.">
<polygon fill="none" stroke="black" points="230,-120 230,-141 382,-141 382,-120 230,-120"/>
<text text-anchor="middle" x="306" y="-127.4" font-family="Helvetica,sans-Serif" font-size="12.00">Markov::Model::Import</text>
</a>
</g>
</g>
<!-- Node1&#45;&gt;Node6 -->
<g id="edge5" class="edge">
<title>Node1&#45;&gt;Node6</title>
<path fill="none" stroke="midnightblue" d="M170.04,-144.67C186.33,-142.96 203.4,-141.17 219.73,-139.46"/>
<polygon fill="midnightblue" stroke="midnightblue" points="220.2,-142.93 229.78,-138.4 219.47,-135.96 220.2,-142.93"/>
</g>
<!-- Node7 -->
<g id="node7" class="node">
<title>Node7</title>
<g id="a_node7"><a xlink:href="class_markov_1_1_a_p_i_1_1_markov_passwords.html#a2fd4423ae3850e258dcb6b11a7feb9b2" target="_top" xlink:title="Train the model with the dataset file.">
<polygon fill="none" stroke="black" points="206,-66.5 206,-100.5 406,-100.5 406,-66.5 206,-66.5"/>
<text text-anchor="start" x="214" y="-86.9" font-family="Helvetica,sans-Serif" font-size="12.00">Markov::API::MarkovPasswords</text>
<text text-anchor="middle" x="306" y="-73.9" font-family="Helvetica,sans-Serif" font-size="12.00">::Train</text>
</a>
</g>
</g>
<!-- Node1&#45;&gt;Node7 -->
<g id="edge6" class="edge">
<title>Node1&#45;&gt;Node7</title>
<path fill="none" stroke="midnightblue" d="M131.02,-136.43C153.42,-128.18 180.99,-118.38 206,-110.5 213.73,-108.06 221.84,-105.64 229.95,-103.3"/>
<polygon fill="midnightblue" stroke="midnightblue" points="231.16,-106.6 239.82,-100.5 229.24,-99.87 231.16,-106.6"/>
</g>
<!-- Node4 -->
<g id="node4" class="node">
<title>Node4</title>
<g id="a_node4"><a xlink:href="class_markov_1_1_a_p_i_1_1_markov_passwords.html#ac2703ec2d5c97adaf8d205000ca34756" target="_top" xlink:title="A single thread invoked by the Generate function.">
<polygon fill="none" stroke="black" points="442,-160.5 442,-194.5 642,-194.5 642,-160.5 442,-160.5"/>
<text text-anchor="start" x="450" y="-180.9" font-family="Helvetica,sans-Serif" font-size="12.00">Markov::API::MarkovPasswords</text>
<text text-anchor="middle" x="542" y="-167.9" font-family="Helvetica,sans-Serif" font-size="12.00">::GenerateThread</text>
</a>
</g>
</g>
<!-- Node3&#45;&gt;Node4 -->
<g id="edge3" class="edge">
<title>Node3&#45;&gt;Node4</title>
<path fill="none" stroke="midnightblue" d="M406.24,-177.5C414.74,-177.5 423.38,-177.5 431.95,-177.5"/>
<polygon fill="midnightblue" stroke="midnightblue" points="431.98,-181 441.98,-177.5 431.98,-174 431.98,-181"/>
</g>
<!-- Node5 -->
<g id="node5" class="node">
<title>Node5</title>
<g id="a_node5"><a xlink:href="class_markov_1_1_model.html#aa4a11c6679c998936332f8409ae95375" target="_top" xlink:title="Do a random walk on this model.">
<polygon fill="none" stroke="black" points="687.5,-167 687.5,-188 877.5,-188 877.5,-167 687.5,-167"/>
<text text-anchor="middle" x="782.5" y="-174.4" font-family="Helvetica,sans-Serif" font-size="12.00">Markov::Model::RandomWalk</text>
</a>
</g>
</g>
<!-- Node4&#45;&gt;Node5 -->
<g id="edge4" class="edge">
<title>Node4&#45;&gt;Node5</title>
<path fill="none" stroke="midnightblue" d="M642.07,-177.5C653.66,-177.5 665.5,-177.5 677.15,-177.5"/>
<polygon fill="midnightblue" stroke="midnightblue" points="677.33,-181 687.33,-177.5 677.33,-174 677.33,-181"/>
</g>
<!-- Node8 -->
<g id="node8" class="node">
<title>Node8</title>
<g id="a_node8"><a xlink:href="class_markov_1_1_a_p_i_1_1_concurrency_1_1_thread_shared_list_handler.html#a08d468aa4146a30f4176bc91a40ed292" target="_top" xlink:title="Construct the Thread Handler with a filename.">
<polygon fill="none" stroke="black" points="454,-77 454,-124 630,-124 630,-77 454,-77"/>
<text text-anchor="start" x="462" y="-110.4" font-family="Helvetica,sans-Serif" font-size="12.00">Markov::API::Concurrency</text>
<text text-anchor="start" x="462" y="-97.4" font-family="Helvetica,sans-Serif" font-size="12.00">::ThreadSharedListHandler</text>
<text text-anchor="middle" x="542" y="-84.4" font-family="Helvetica,sans-Serif" font-size="12.00">::ThreadSharedListHandler</text>
</a>
</g>
</g>
<!-- Node7&#45;&gt;Node8 -->
<g id="edge7" class="edge">
<title>Node7&#45;&gt;Node8</title>
<path fill="none" stroke="midnightblue" d="M406.24,-90.71C418.6,-91.61 431.23,-92.52 443.56,-93.42"/>
<polygon fill="midnightblue" stroke="midnightblue" points="443.61,-96.93 453.83,-94.17 444.11,-89.95 443.61,-96.93"/>
</g>
<!-- Node9 -->
<g id="node9" class="node">
<title>Node9</title>
<g id="a_node9"><a xlink:href="class_markov_1_1_a_p_i_1_1_markov_passwords.html#a5f51b0fdb75101b797f38b08da84848e" target="_top" xlink:title="A single thread invoked by the Train function.">
<polygon fill="none" stroke="black" points="442,-23.5 442,-57.5 642,-57.5 642,-23.5 442,-23.5"/>
<text text-anchor="start" x="450" y="-43.9" font-family="Helvetica,sans-Serif" font-size="12.00">Markov::API::MarkovPasswords</text>
<text text-anchor="middle" x="542" y="-30.9" font-family="Helvetica,sans-Serif" font-size="12.00">::TrainThread</text>
</a>
</g>
</g>
<!-- Node7&#45;&gt;Node9 -->
<g id="edge8" class="edge">
<title>Node7&#45;&gt;Node9</title>
<path fill="none" stroke="midnightblue" d="M399.82,-66.44C412.4,-64.13 425.38,-61.75 438.13,-59.4"/>
<polygon fill="midnightblue" stroke="midnightblue" points="439.09,-62.79 448.29,-57.54 437.83,-55.9 439.09,-62.79"/>
</g>
<!-- Node10 -->
<g id="node10" class="node">
<title>Node10</title>
<g id="a_node10"><a xlink:href="class_markov_1_1_model.html#ad252913f83fa3eb14cc3f9f92c5ee37a" target="_top" xlink:title="Adjust the model with a single string.">
<polygon fill="none" stroke="black" points="693,-54 693,-75 872,-75 872,-54 693,-54"/>
<text text-anchor="middle" x="782.5" y="-61.4" font-family="Helvetica,sans-Serif" font-size="12.00">Markov::Model::AdjustEdge</text>
</a>
</g>
</g>
<!-- Node9&#45;&gt;Node10 -->
<g id="edge9" class="edge">
<title>Node9&#45;&gt;Node10</title>
<path fill="none" stroke="midnightblue" d="M642.07,-50.47C655.43,-51.81 669.14,-53.19 682.5,-54.54"/>
<polygon fill="midnightblue" stroke="midnightblue" points="682.34,-58.04 692.64,-55.56 683.04,-51.07 682.34,-58.04"/>
</g>
<!-- Node11 -->
<g id="node11" class="node">
<title>Node11</title>
<g id="a_node11"><a xlink:href="class_markov_1_1_a_p_i_1_1_concurrency_1_1_thread_shared_list_handler.html#a068e1a9ff477de23a44c10230df416a5" target="_top" xlink:title="Read the next line from the file.">
<polygon fill="none" stroke="black" points="678,-0.5 678,-34.5 887,-34.5 887,-0.5 678,-0.5"/>
<text text-anchor="start" x="686" y="-20.9" font-family="Helvetica,sans-Serif" font-size="12.00">Markov::API::Concurrency</text>
<text text-anchor="middle" x="782.5" y="-7.9" font-family="Helvetica,sans-Serif" font-size="12.00">::ThreadSharedListHandler::next</text>
</a>
</g>
</g>
<!-- Node9&#45;&gt;Node11 -->
<g id="edge10" class="edge">
<title>Node9&#45;&gt;Node11</title>
<path fill="none" stroke="midnightblue" d="M642.07,-30.95C650.54,-30.13 659.14,-29.3 667.7,-28.47"/>
<polygon fill="midnightblue" stroke="midnightblue" points="668.11,-31.95 677.73,-27.51 667.44,-24.98 668.11,-31.95"/>
</g>
</g>
</svg>
        <g id="navigator" transform="translate(0 0)" fill="#404254">
                <rect fill="#f2f5e9" fill-opacity="0.5" stroke="#606060" stroke-width=".5" x="0" y="0" width="60" height="60"/>
                <use id="zoomplus" xlink:href="#zoomPlus" x="17" y="9" onmousedown="handleZoom(evt,'in')"/>
                <use id="zoomminus" xlink:href="#zoomMin" x="42" y="9" onmousedown="handleZoom(evt,'out')"/>
                <use id="reset" xlink:href="#resetDef" x="30" y="36" onmousedown="handleReset()"/>
                <g id="arrowUp" xlink:href="#dirArrow" transform="translate(30 24)" onmousedown="handlePan(0,-1)">
                  <use xlink:href="#rim" fill="#404040">
                        <set attributeName="fill" to="#808080" begin="arrowUp.mouseover" end="arrowUp.mouseout"/>
                  </use>
                  <path fill="none" stroke="white" stroke-width="1.5" d="M0,-3.0v7 M-2.5,-0.5L0,-3.0L2.5,-0.5"/>
                </g>
                <g id="arrowRight" xlink:href="#dirArrow" transform="rotate(90) translate(36 -43)" onmousedown="handlePan(1,0)">
                  <use xlink:href="#rim" fill="#404040">
                        <set attributeName="fill" to="#808080" begin="arrowRight.mouseover" end="arrowRight.mouseout"/>
                  </use>
                  <path fill="none" stroke="white" stroke-width="1.5" d="M0,-3.0v7 M-2.5,-0.5L0,-3.0L2.5,-0.5"/>
                </g>
                <g id="arrowDown" xlink:href="#dirArrow" transform="rotate(180) translate(-30 -48)" onmousedown="handlePan(0,1)">
                  <use xlink:href="#rim" fill="#404040">
                        <set attributeName="fill" to="#808080" begin="arrowDown.mouseover" end="arrowDown.mouseout"/>
                  </use>
                  <path fill="none" stroke="white" stroke-width="1.5" d="M0,-3.0v7 M-2.5,-0.5L0,-3.0L2.5,-0.5"/>
                </g>
                <g id="arrowLeft" xlink:href="#dirArrow" transform="rotate(270) translate(-36 17)" onmousedown="handlePan(-1,0)">
                  <use xlink:href="#rim" fill="#404040">
                        <set attributeName="fill" to="#808080" begin="arrowLeft.mouseover" end="arrowLeft.mouseout"/>
                  </use>
                  <path fill="none" stroke="white" stroke-width="1.5" d="M0,-3.0v7 M-2.5,-0.5L0,-3.0L2.5,-0.5"/>
                </g>
        </g>
        <svg viewBox="0 0 15 15" width="100%" height="30px" preserveAspectRatio="xMaxYMin meet">
         <g id="arrow_out" transform="scale(0.3 0.3)">
          <a xlink:href="namespace_markov_1_1_markopy_a379628c09859652215496b63af2bcac9_cgraph_org.svg" target="_base">
           <rect id="button" ry="5" rx="5" y="6" x="6" height="38" width="38"
                fill="#f2f5e9" fill-opacity="0.5" stroke="#606060" stroke-width="1.0"/>
           <path id="arrow"
             d="M 11.500037,31.436501 C 11.940474,20.09759 22.043105,11.32322 32.158766,21.979434 L 37.068811,17.246167 C 37.068811,17.246167 37.088388,32 37.088388,32 L 22.160133,31.978069 C 22.160133,31.978069 26.997745,27.140456 26.997745,27.140456 C 18.528582,18.264221 13.291696,25.230495 11.500037,31.436501 z"
             style="fill:#404040;"/>
          </a>
         </g>
        </svg>
</svg>
