<?xml version="1.0" encoding="UTF-8" standalone="no"?>
<!DOCTYPE svg PUBLIC "-//W3C//DTD SVG 1.1//EN"
 "http://www.w3.org/Graphics/SVG/1.1/DTD/svg11.dtd">
<!-- Generated by graphviz version 2.43.0 (0)
 -->
<!-- Title: markopy.cli_generate Pages: 1 -->
<svg width="309pt" height="70pt"
 viewBox="0.00 0.00 309.00 70.00" xmlns="http://www.w3.org/2000/svg" xmlns:xlink="http://www.w3.org/1999/xlink">
<g id="graph0" class="graph" transform="scale(1 1) rotate(0) translate(4 66)">
<title>markopy.cli_generate</title>
<!-- Node1 -->
<g id="node1" class="node">
<title>Node1</title>
<g id="a_node1"><a xlink:title=" ">
<polygon fill="#bfbfbf" stroke="black" points="0,-20.5 0,-41.5 146,-41.5 146,-20.5 0,-20.5"/>
<text text-anchor="middle" x="73" y="-27.9" font-family="Helvetica,sans-Serif" font-size="12.00">markopy.cli_generate</text>
</a>
</g>
</g>
<!-- Node2 -->
<g id="node2" class="node">
<title>Node2</title>
<g id="a_node2"><a xlink:href="namespacemarkopy.html#a2339398e991abb1c095994eb07f12af6" target="_top" xlink:title=" ">
<polygon fill="none" stroke="black" points="187,-40.5 187,-61.5 296,-61.5 296,-40.5 187,-40.5"/>
<text text-anchor="middle" x="241.5" y="-47.9" font-family="Helvetica,sans-Serif" font-size="12.00">markopy.cli_init</text>
</a>
</g>
</g>
<!-- Node1&#45;&gt;Node2 -->
<g id="edge1" class="edge">
<title>Node1&#45;&gt;Node2</title>
<path fill="none" stroke="midnightblue" d="M146.06,-39.66C156.34,-40.89 166.86,-42.15 176.96,-43.37"/>
<polygon fill="midnightblue" stroke="midnightblue" points="176.56,-46.84 186.91,-44.56 177.39,-39.89 176.56,-46.84"/>
</g>
<!-- Node3 -->
<g id="node3" class="node">
<title>Node3</title>
<g id="a_node3"><a xlink:href="namespacemarkopy.html#ab5b767749715ed49aacf40c4b839f3a9" target="_top" xlink:title=" ">
<polygon fill="none" stroke="black" points="182,-0.5 182,-21.5 301,-21.5 301,-0.5 182,-0.5"/>
<text text-anchor="middle" x="241.5" y="-7.9" font-family="Helvetica,sans-Serif" font-size="12.00">markopy.cli_train</text>
</a>
</g>
</g>
<!-- Node1&#45;&gt;Node3 -->
<g id="edge2" class="edge">
<title>Node1&#45;&gt;Node3</title>
<path fill="none" stroke="midnightblue" d="M146.06,-22.34C154.56,-21.32 163.21,-20.28 171.67,-19.27"/>
<polygon fill="midnightblue" stroke="midnightblue" points="172.34,-22.71 181.85,-18.05 171.5,-15.76 172.34,-22.71"/>
</g>
</g>
</svg>
