<?xml version="1.0" encoding="UTF-8" standalone="no"?>
<!DOCTYPE svg PUBLIC "-//W3C//DTD SVG 1.1//EN"
 "http://www.w3.org/Graphics/SVG/1.1/DTD/svg11.dtd">
<!-- Generated by graphviz version 2.43.0 (0)
 -->
<!-- Title: Markov::Markopy::CUDA::BOOST_PYTHON_MODULE Pages: 1 -->
<!--zoomable 413 -->
<svg id="main" version="1.1" xmlns="http://www.w3.org/2000/svg" xmlns:xlink="http://www.w3.org/1999/xlink" xml:space="preserve" onload="init(evt)">
<style type="text/css"><![CDATA[
.edge:hover path { stroke: red; }
.edge:hover polygon { stroke: red; fill: red; }
]]></style>
<script type="text/javascript"><![CDATA[
var edges = document.getElementsByTagName('g');
if (edges && edges.length) {
  for (var i=0;i<edges.length;i++) {
    if (edges[i].id.substr(0,4)=='edge') {
      edges[i].setAttribute('class','edge');
    }
  }
}
]]></script>
        <defs>
                <circle id="rim" cx="0" cy="0" r="7"/>
                <circle id="rim2" cx="0" cy="0" r="3.5"/>
                <g id="zoomPlus">
                        <use xlink:href="#rim" fill="#404040">
                                <set attributeName="fill" to="#808080" begin="zoomplus.mouseover" end="zoomplus.mouseout"/>
                        </use>
                        <path d="M-4,0h8M0,-4v8" fill="none" stroke="white" stroke-width="1.5" pointer-events="none"/>
                </g>
                <g id="zoomMin">
                        <use xlink:href="#rim" fill="#404040">
                                <set attributeName="fill" to="#808080" begin="zoomminus.mouseover" end="zoomminus.mouseout"/>
                        </use>
                        <path d="M-4,0h8" fill="none" stroke="white" stroke-width="1.5" pointer-events="none"/>
                </g>
                <g id="dirArrow">
                        <path fill="none" stroke="white" stroke-width="1.5" d="M0,-3.0v7 M-2.5,-0.5L0,-3.0L2.5,-0.5"/>
                </g>
               <g id="resetDef">
                       <use xlink:href="#rim2" fill="#404040">
                               <set attributeName="fill" to="#808080" begin="reset.mouseover" end="reset.mouseout"/>
                       </use>
               </g>
        </defs>

<script type="text/javascript">
var viewWidth = 1121;
var viewHeight = 413;
var sectionId = 'dynsection-0';
</script>
<script xlink:href="svgpan.js"/>
<svg id="graph" class="graph">
<g id="viewport">
<title>Markov::Markopy::CUDA::BOOST_PYTHON_MODULE</title>
<!-- Node1 -->
<g id="node1" class="node">
<title>Node1</title>
<g id="a_node1"><a xlink:title=" ">
<polygon fill="#bfbfbf" stroke="black" points="0,-97.5 0,-131.5 180,-131.5 180,-97.5 0,-97.5"/>
<text text-anchor="start" x="8" y="-117.9" font-family="Helvetica,sans-Serif" font-size="12.00">Markov::Markopy::CUDA</text>
<text text-anchor="middle" x="90" y="-104.9" font-family="Helvetica,sans-Serif" font-size="12.00">::BOOST_PYTHON_MODULE</text>
</a>
</g>
</g>
<!-- Node2 -->
<g id="node2" class="node">
<title>Node2</title>
<g id="a_node2"><a xlink:href="class_markov_1_1_a_p_i_1_1_model_matrix.html#aafb5809808b9b0450a0bc98740121b5f" target="_top" xlink:title="Construct the related Matrix data for the model.">
<polygon fill="none" stroke="black" points="436.5,-216.5 436.5,-250.5 605.5,-250.5 605.5,-216.5 436.5,-216.5"/>
<text text-anchor="start" x="444.5" y="-236.9" font-family="Helvetica,sans-Serif" font-size="12.00">Markov::API::ModelMatrix</text>
<text text-anchor="middle" x="521" y="-223.9" font-family="Helvetica,sans-Serif" font-size="12.00">::ConstructMatrix</text>
</a>
</g>
</g>
<!-- Node1&#45;&gt;Node2 -->
<g id="edge1" class="edge">
<title>Node1&#45;&gt;Node2</title>
<path fill="none" stroke="midnightblue" d="M111.58,-131.8C135.18,-150.59 175.8,-179.9 216,-194.5 283.75,-219.11 364.91,-228.6 426.33,-232.07"/>
<polygon fill="midnightblue" stroke="midnightblue" points="426.23,-235.57 436.4,-232.6 426.6,-228.58 426.23,-235.57"/>
</g>
<!-- Node9 -->
<g id="node9" class="node">
<title>Node9</title>
<g id="a_node9"><a xlink:href="class_markov_1_1_a_p_i_1_1_model_matrix.html#a405a1c967dfea8d829aa41ad2c14f709" target="_top" xlink:title="Debug function to dump the model to a JSON file.">
<polygon fill="none" stroke="black" points="216,-44.5 216,-78.5 385,-78.5 385,-44.5 216,-44.5"/>
<text text-anchor="start" x="224" y="-64.9" font-family="Helvetica,sans-Serif" font-size="12.00">Markov::API::ModelMatrix</text>
<text text-anchor="middle" x="300.5" y="-51.9" font-family="Helvetica,sans-Serif" font-size="12.00">::DumpJSON</text>
</a>
</g>
</g>
<!-- Node1&#45;&gt;Node9 -->
<g id="edge8" class="edge">
<title>Node1&#45;&gt;Node9</title>
<path fill="none" stroke="midnightblue" d="M158.12,-97.44C178.67,-92.21 201.44,-86.43 222.59,-81.05"/>
<polygon fill="midnightblue" stroke="midnightblue" points="223.68,-84.39 232.51,-78.53 221.95,-77.6 223.68,-84.39"/>
</g>
<!-- Node10 -->
<g id="node10" class="node">
<title>Node10</title>
<g id="a_node10"><a xlink:href="class_markov_1_1_model.html#af788426a3c41a7838a2aae199e8aef5b" target="_top" xlink:title="Open a file to export with filename, and call bool Model::Export with std::ofstream.">
<polygon fill="none" stroke="black" points="225,-4 225,-25 376,-25 376,-4 225,-4"/>
<text text-anchor="middle" x="300.5" y="-11.4" font-family="Helvetica,sans-Serif" font-size="12.00">Markov::Model::Export</text>
</a>
</g>
</g>
<!-- Node1&#45;&gt;Node10 -->
<g id="edge9" class="edge">
<title>Node1&#45;&gt;Node10</title>
<path fill="none" stroke="midnightblue" d="M112.76,-97.34C136.75,-79.22 177.12,-51.04 216,-34.5 221.76,-32.05 227.88,-29.86 234.08,-27.92"/>
<polygon fill="midnightblue" stroke="midnightblue" points="235.24,-31.23 243.86,-25.07 233.28,-24.51 235.24,-31.23"/>
</g>
<!-- Node11 -->
<g id="node11" class="node">
<title>Node11</title>
<g id="a_node11"><a xlink:href="class_markov_1_1_a_p_i_1_1_model_matrix.html#aeba8bb79aa4dc2cfeda310f34b7c9427" target="_top" xlink:title="Open a file to import with filename, and call bool Model::Import with std::ifstream.">
<polygon fill="none" stroke="black" points="216,-97.5 216,-131.5 385,-131.5 385,-97.5 216,-97.5"/>
<text text-anchor="start" x="224" y="-117.9" font-family="Helvetica,sans-Serif" font-size="12.00">Markov::API::ModelMatrix</text>
<text text-anchor="middle" x="300.5" y="-104.9" font-family="Helvetica,sans-Serif" font-size="12.00">::Import</text>
</a>
</g>
</g>
<!-- Node1&#45;&gt;Node11 -->
<g id="edge10" class="edge">
<title>Node1&#45;&gt;Node11</title>
<path fill="none" stroke="midnightblue" d="M180.03,-114.5C188.45,-114.5 197,-114.5 205.47,-114.5"/>
<polygon fill="midnightblue" stroke="midnightblue" points="205.73,-118 215.73,-114.5 205.73,-111 205.73,-118"/>
</g>
<!-- Node14 -->
<g id="node14" class="node">
<title>Node14</title>
<g id="a_node14"><a xlink:href="class_markov_1_1_a_p_i_1_1_model_matrix.html#af42d40d7a5c80f0dfe126a574a17f423" target="_top" xlink:title="Train the model with the dataset file.">
<polygon fill="none" stroke="black" points="216,-150.5 216,-184.5 385,-184.5 385,-150.5 216,-150.5"/>
<text text-anchor="start" x="224" y="-170.9" font-family="Helvetica,sans-Serif" font-size="12.00">Markov::API::ModelMatrix</text>
<text text-anchor="middle" x="300.5" y="-157.9" font-family="Helvetica,sans-Serif" font-size="12.00">::Train</text>
</a>
</g>
</g>
<!-- Node1&#45;&gt;Node14 -->
<g id="edge14" class="edge">
<title>Node1&#45;&gt;Node14</title>
<path fill="none" stroke="midnightblue" d="M158.12,-131.56C178.67,-136.79 201.44,-142.57 222.59,-147.95"/>
<polygon fill="midnightblue" stroke="midnightblue" points="221.95,-151.4 232.51,-150.47 223.68,-144.61 221.95,-151.4"/>
</g>
<!-- Node3 -->
<g id="node3" class="node">
<title>Node3</title>
<g id="a_node3"><a xlink:href="class_markov_1_1_edge.html#a2b1e5a6e6f81502cd8ac6b20ed38b677" target="_top" xlink:title="return edge&#39;s EdgeWeight.">
<polygon fill="none" stroke="black" points="674.5,-263 674.5,-284 850.5,-284 850.5,-263 674.5,-263"/>
<text text-anchor="middle" x="762.5" y="-270.4" font-family="Helvetica,sans-Serif" font-size="12.00">Markov::Edge::EdgeWeight</text>
</a>
</g>
</g>
<!-- Node2&#45;&gt;Node3 -->
<g id="edge2" class="edge">
<title>Node2&#45;&gt;Node3</title>
<path fill="none" stroke="midnightblue" d="M605.77,-247.49C632.68,-251.98 662.27,-256.93 688.35,-261.28"/>
<polygon fill="midnightblue" stroke="midnightblue" points="688.1,-264.79 698.54,-262.99 689.26,-257.89 688.1,-264.79"/>
</g>
<!-- Node4 -->
<g id="node4" class="node">
<title>Node4</title>
<g id="a_node4"><a xlink:href="class_markov_1_1_model.html#a71f6df805e340ce96e9dc4ee4ebc6537" target="_top" xlink:title="Return starter Node.">
<polygon fill="none" stroke="black" points="688,-223 688,-244 837,-244 837,-223 688,-223"/>
<text text-anchor="middle" x="762.5" y="-230.4" font-family="Helvetica,sans-Serif" font-size="12.00">Markov::Model::Nodes</text>
</a>
</g>
</g>
<!-- Node2&#45;&gt;Node4 -->
<g id="edge3" class="edge">
<title>Node2&#45;&gt;Node4</title>
<path fill="none" stroke="midnightblue" d="M605.77,-233.5C629.03,-233.5 654.29,-233.5 677.57,-233.5"/>
<polygon fill="midnightblue" stroke="midnightblue" points="677.76,-237 687.76,-233.5 677.76,-230 677.76,-237"/>
</g>
<!-- Node5 -->
<g id="node5" class="node">
<title>Node5</title>
<g id="a_node5"><a xlink:href="class_markov_1_1_node.html#ac7cce56376f2a00764f64a0194cbb498" target="_top" xlink:title="Return character representation of this node.">
<polygon fill="none" stroke="black" points="677,-183 677,-204 848,-204 848,-183 677,-183"/>
<text text-anchor="middle" x="762.5" y="-190.4" font-family="Helvetica,sans-Serif" font-size="12.00">Markov::Node::NodeValue</text>
</a>
</g>
</g>
<!-- Node2&#45;&gt;Node5 -->
<g id="edge4" class="edge">
<title>Node2&#45;&gt;Node5</title>
<path fill="none" stroke="midnightblue" d="M605.77,-219.51C632.68,-215.02 662.27,-210.07 688.35,-205.72"/>
<polygon fill="midnightblue" stroke="midnightblue" points="689.26,-209.11 698.54,-204.01 688.1,-202.21 689.26,-209.11"/>
</g>
<!-- Node6 -->
<g id="node6" class="node">
<title>Node6</title>
<g id="a_node6"><a xlink:href="class_markov_1_1_edge.html#a2e7d14e46631c85c84f6f8f1dd2949cd" target="_top" xlink:title="return edge&#39;s RightNode">
<polygon fill="none" stroke="black" points="678.5,-383 678.5,-404 846.5,-404 846.5,-383 678.5,-383"/>
<text text-anchor="middle" x="762.5" y="-390.4" font-family="Helvetica,sans-Serif" font-size="12.00">Markov::Edge::RightNode</text>
</a>
</g>
</g>
<!-- Node2&#45;&gt;Node6 -->
<g id="edge5" class="edge">
<title>Node2&#45;&gt;Node6</title>
<path fill="none" stroke="midnightblue" d="M533.04,-250.53C553.55,-280.63 600.59,-342.95 657,-373.5 661.2,-375.77 665.61,-377.79 670.15,-379.58"/>
<polygon fill="midnightblue" stroke="midnightblue" points="669.04,-382.9 679.63,-382.95 671.38,-376.3 669.04,-382.9"/>
</g>
<!-- Node7 -->
<g id="node7" class="node">
<title>Node7</title>
<g id="a_node7"><a xlink:href="class_markov_1_1_model.html#a0e53104e4ec665f005529f51a80c857d" target="_top" xlink:title="Return starter Node.">
<polygon fill="none" stroke="black" points="670,-343 670,-364 855,-364 855,-343 670,-343"/>
<text text-anchor="middle" x="762.5" y="-350.4" font-family="Helvetica,sans-Serif" font-size="12.00">Markov::Model::StarterNode</text>
</a>
</g>
</g>
<!-- Node2&#45;&gt;Node7 -->
<g id="edge6" class="edge">
<title>Node2&#45;&gt;Node7</title>
<path fill="none" stroke="midnightblue" d="M539.54,-250.65C563.81,-273.35 609.99,-312.88 657,-333.5 662.77,-336.03 668.86,-338.24 675.08,-340.18"/>
<polygon fill="midnightblue" stroke="midnightblue" points="674.36,-343.61 684.94,-342.99 676.29,-336.88 674.36,-343.61"/>
</g>
<!-- Node8 -->
<g id="node8" class="node">
<title>Node8</title>
<g id="a_node8"><a xlink:href="class_markov_1_1_node.html#a60166d8f501c016de104f48e46bff223" target="_top" xlink:title="return total edge weights">
<polygon fill="none" stroke="black" points="657,-303 657,-324 868,-324 868,-303 657,-303"/>
<text text-anchor="middle" x="762.5" y="-310.4" font-family="Helvetica,sans-Serif" font-size="12.00">Markov::Node::TotalEdgeWeights</text>
</a>
</g>
</g>
<!-- Node2&#45;&gt;Node8 -->
<g id="edge7" class="edge">
<title>Node2&#45;&gt;Node8</title>
<path fill="none" stroke="midnightblue" d="M554.74,-250.6C581.58,-263.99 620.9,-282.19 657,-293.5 665.67,-296.22 674.87,-298.63 684.08,-300.75"/>
<polygon fill="midnightblue" stroke="midnightblue" points="683.52,-304.21 694.04,-302.94 685.02,-297.38 683.52,-304.21"/>
</g>
<!-- Node11&#45;&gt;Node2 -->
<g id="edge11" class="edge">
<title>Node11&#45;&gt;Node2</title>
<path fill="none" stroke="midnightblue" d="M368.26,-131.51C374.19,-134.35 379.88,-137.66 385,-141.5 407.78,-158.58 398.76,-176.71 421,-194.5 429.81,-201.55 440.06,-207.46 450.55,-212.36"/>
<polygon fill="midnightblue" stroke="midnightblue" points="449.24,-215.61 459.81,-216.42 452.06,-209.2 449.24,-215.61"/>
</g>
<!-- Node12 -->
<g id="node12" class="node">
<title>Node12</title>
<g id="a_node12"><a xlink:href="class_markov_1_1_a_p_i_1_1_model_matrix.html#a0f95257e1344225233ab49602cd9551c" target="_top" xlink:title="Deallocate matrix and make it ready for re&#45;construction.">
<polygon fill="none" stroke="black" points="436.5,-97.5 436.5,-131.5 605.5,-131.5 605.5,-97.5 436.5,-97.5"/>
<text text-anchor="start" x="444.5" y="-117.9" font-family="Helvetica,sans-Serif" font-size="12.00">Markov::API::ModelMatrix</text>
<text text-anchor="middle" x="521" y="-104.9" font-family="Helvetica,sans-Serif" font-size="12.00">::DeallocateMatrix</text>
</a>
</g>
</g>
<!-- Node11&#45;&gt;Node12 -->
<g id="edge12" class="edge">
<title>Node11&#45;&gt;Node12</title>
<path fill="none" stroke="midnightblue" d="M385.04,-114.5C398.39,-114.5 412.27,-114.5 425.84,-114.5"/>
<polygon fill="midnightblue" stroke="midnightblue" points="426.14,-118 436.14,-114.5 426.14,-111 426.14,-118"/>
</g>
<!-- Node13 -->
<g id="node13" class="node">
<title>Node13</title>
<g id="a_node13"><a xlink:href="class_markov_1_1_model.html#a3f872a3af96a91d4627c1a5d5e66b19a" target="_top" xlink:title="Open a file to import with filename, and call bool Model::Import with std::ifstream.">
<polygon fill="none" stroke="black" points="445,-57 445,-78 597,-78 597,-57 445,-57"/>
<text text-anchor="middle" x="521" y="-64.4" font-family="Helvetica,sans-Serif" font-size="12.00">Markov::Model::Import</text>
</a>
</g>
</g>
<!-- Node11&#45;&gt;Node13 -->
<g id="edge13" class="edge">
<title>Node11&#45;&gt;Node13</title>
<path fill="none" stroke="midnightblue" d="M379.59,-97.45C393.38,-94.45 407.61,-91.38 421,-88.5 433.61,-85.79 447.12,-82.91 459.98,-80.18"/>
<polygon fill="midnightblue" stroke="midnightblue" points="461.08,-83.52 470.13,-78.02 459.62,-76.68 461.08,-83.52"/>
</g>
<!-- Node14&#45;&gt;Node2 -->
<g id="edge15" class="edge">
<title>Node14&#45;&gt;Node2</title>
<path fill="none" stroke="midnightblue" d="M358.05,-184.58C387.38,-193.44 423.36,-204.31 453.95,-213.55"/>
<polygon fill="midnightblue" stroke="midnightblue" points="453.1,-216.95 463.68,-216.49 455.12,-210.25 453.1,-216.95"/>
</g>
<!-- Node14&#45;&gt;Node12 -->
<g id="edge16" class="edge">
<title>Node14&#45;&gt;Node12</title>
<path fill="none" stroke="midnightblue" d="M371.84,-150.44C393.57,-145.17 417.67,-139.32 440.01,-133.9"/>
<polygon fill="midnightblue" stroke="midnightblue" points="440.9,-137.29 449.79,-131.53 439.25,-130.49 440.9,-137.29"/>
</g>
<!-- Node15 -->
<g id="node15" class="node">
<title>Node15</title>
<g id="a_node15"><a xlink:href="class_markov_1_1_a_p_i_1_1_markov_passwords.html#a2fd4423ae3850e258dcb6b11a7feb9b2" target="_top" xlink:title="Train the model with the dataset file.">
<polygon fill="none" stroke="black" points="421,-150.5 421,-184.5 621,-184.5 621,-150.5 421,-150.5"/>
<text text-anchor="start" x="429" y="-170.9" font-family="Helvetica,sans-Serif" font-size="12.00">Markov::API::MarkovPasswords</text>
<text text-anchor="middle" x="521" y="-157.9" font-family="Helvetica,sans-Serif" font-size="12.00">::Train</text>
</a>
</g>
</g>
<!-- Node14&#45;&gt;Node15 -->
<g id="edge17" class="edge">
<title>Node14&#45;&gt;Node15</title>
<path fill="none" stroke="midnightblue" d="M385.04,-167.5C393.44,-167.5 402.05,-167.5 410.67,-167.5"/>
<polygon fill="midnightblue" stroke="midnightblue" points="410.77,-171 420.77,-167.5 410.77,-164 410.77,-171"/>
</g>
<!-- Node16 -->
<g id="node16" class="node">
<title>Node16</title>
<g id="a_node16"><a xlink:href="markov_passwords_8cpp.html#a3b33e6f48f5d988f336e915c5346eb95" target="_top" xlink:title=" ">
<polygon fill="none" stroke="black" points="723,-143 723,-164 802,-164 802,-143 723,-143"/>
<text text-anchor="middle" x="762.5" y="-150.4" font-family="Helvetica,sans-Serif" font-size="12.00">intHandler</text>
</a>
</g>
</g>
<!-- Node15&#45;&gt;Node16 -->
<g id="edge18" class="edge">
<title>Node15&#45;&gt;Node16</title>
<path fill="none" stroke="midnightblue" d="M621.14,-161.7C652.73,-159.86 686.28,-157.9 712.66,-156.36"/>
<polygon fill="midnightblue" stroke="midnightblue" points="712.98,-159.84 722.76,-155.76 712.58,-152.85 712.98,-159.84"/>
</g>
<!-- Node17 -->
<g id="node17" class="node">
<title>Node17</title>
<g id="a_node17"><a xlink:href="class_markov_1_1_a_p_i_1_1_concurrency_1_1_thread_shared_list_handler.html#a08d468aa4146a30f4176bc91a40ed292" target="_top" xlink:title="Construct the Thread Handler with a filename.">
<polygon fill="none" stroke="black" points="674.5,-77 674.5,-124 850.5,-124 850.5,-77 674.5,-77"/>
<text text-anchor="start" x="682.5" y="-110.4" font-family="Helvetica,sans-Serif" font-size="12.00">Markov::API::Concurrency</text>
<text text-anchor="start" x="682.5" y="-97.4" font-family="Helvetica,sans-Serif" font-size="12.00">::ThreadSharedListHandler</text>
<text text-anchor="middle" x="762.5" y="-84.4" font-family="Helvetica,sans-Serif" font-size="12.00">::ThreadSharedListHandler</text>
</a>
</g>
</g>
<!-- Node15&#45;&gt;Node17 -->
<g id="edge19" class="edge">
<title>Node15&#45;&gt;Node17</title>
<path fill="none" stroke="midnightblue" d="M587.83,-150.48C598.92,-147.53 610.3,-144.47 621,-141.5 637.58,-136.9 655.22,-131.87 672.2,-126.95"/>
<polygon fill="midnightblue" stroke="midnightblue" points="673.48,-130.23 682.1,-124.08 671.52,-123.51 673.48,-130.23"/>
</g>
<!-- Node18 -->
<g id="node18" class="node">
<title>Node18</title>
<g id="a_node18"><a xlink:href="class_markov_1_1_a_p_i_1_1_markov_passwords.html#a5f51b0fdb75101b797f38b08da84848e" target="_top" xlink:title="A single thread invoked by the Train function.">
<polygon fill="none" stroke="black" points="662.5,-23.5 662.5,-57.5 862.5,-57.5 862.5,-23.5 662.5,-23.5"/>
<text text-anchor="start" x="670.5" y="-43.9" font-family="Helvetica,sans-Serif" font-size="12.00">Markov::API::MarkovPasswords</text>
<text text-anchor="middle" x="762.5" y="-30.9" font-family="Helvetica,sans-Serif" font-size="12.00">::TrainThread</text>
</a>
</g>
</g>
<!-- Node15&#45;&gt;Node18 -->
<g id="edge20" class="edge">
<title>Node15&#45;&gt;Node18</title>
<path fill="none" stroke="midnightblue" d="M607.61,-150.4C612.37,-147.83 616.88,-144.88 621,-141.5 649.27,-118.29 628.69,-90.65 657,-67.5 659.03,-65.84 661.15,-64.28 663.35,-62.81"/>
<polygon fill="midnightblue" stroke="midnightblue" points="665.32,-65.72 672.15,-57.62 661.76,-59.69 665.32,-65.72"/>
</g>
<!-- Node19 -->
<g id="node19" class="node">
<title>Node19</title>
<g id="a_node19"><a xlink:href="class_markov_1_1_model.html#ad252913f83fa3eb14cc3f9f92c5ee37a" target="_top" xlink:title="Adjust the model with a single string.">
<polygon fill="none" stroke="black" points="919,-54 919,-75 1098,-75 1098,-54 919,-54"/>
<text text-anchor="middle" x="1008.5" y="-61.4" font-family="Helvetica,sans-Serif" font-size="12.00">Markov::Model::AdjustEdge</text>
</a>
</g>
</g>
<!-- Node18&#45;&gt;Node19 -->
<g id="edge21" class="edge">
<title>Node18&#45;&gt;Node19</title>
<path fill="none" stroke="midnightblue" d="M862.74,-50.26C877.86,-51.75 893.46,-53.28 908.57,-54.77"/>
<polygon fill="midnightblue" stroke="midnightblue" points="908.64,-58.29 918.94,-55.79 909.33,-51.33 908.64,-58.29"/>
</g>
<!-- Node20 -->
<g id="node20" class="node">
<title>Node20</title>
<g id="a_node20"><a xlink:href="class_markov_1_1_a_p_i_1_1_concurrency_1_1_thread_shared_list_handler.html#a068e1a9ff477de23a44c10230df416a5" target="_top" xlink:title="Read the next line from the file.">
<polygon fill="none" stroke="black" points="904,-0.5 904,-34.5 1113,-34.5 1113,-0.5 904,-0.5"/>
<text text-anchor="start" x="912" y="-20.9" font-family="Helvetica,sans-Serif" font-size="12.00">Markov::API::Concurrency</text>
<text text-anchor="middle" x="1008.5" y="-7.9" font-family="Helvetica,sans-Serif" font-size="12.00">::ThreadSharedListHandler::next</text>
</a>
</g>
</g>
<!-- Node18&#45;&gt;Node20 -->
<g id="edge22" class="edge">
<title>Node18&#45;&gt;Node20</title>
<path fill="none" stroke="midnightblue" d="M862.74,-31.15C873.04,-30.17 883.57,-29.18 894,-28.2"/>
<polygon fill="midnightblue" stroke="midnightblue" points="894.35,-31.68 903.98,-27.26 893.69,-24.71 894.35,-31.68"/>
</g>
</g>
</svg>
        <g id="navigator" transform="translate(0 0)" fill="#404254">
                <rect fill="#f2f5e9" fill-opacity="0.5" stroke="#606060" stroke-width=".5" x="0" y="0" width="60" height="60"/>
                <use id="zoomplus" xlink:href="#zoomPlus" x="17" y="9" onmousedown="handleZoom(evt,'in')"/>
                <use id="zoomminus" xlink:href="#zoomMin" x="42" y="9" onmousedown="handleZoom(evt,'out')"/>
                <use id="reset" xlink:href="#resetDef" x="30" y="36" onmousedown="handleReset()"/>
                <g id="arrowUp" xlink:href="#dirArrow" transform="translate(30 24)" onmousedown="handlePan(0,-1)">
                  <use xlink:href="#rim" fill="#404040">
                        <set attributeName="fill" to="#808080" begin="arrowUp.mouseover" end="arrowUp.mouseout"/>
                  </use>
                  <path fill="none" stroke="white" stroke-width="1.5" d="M0,-3.0v7 M-2.5,-0.5L0,-3.0L2.5,-0.5"/>
                </g>
                <g id="arrowRight" xlink:href="#dirArrow" transform="rotate(90) translate(36 -43)" onmousedown="handlePan(1,0)">
                  <use xlink:href="#rim" fill="#404040">
                        <set attributeName="fill" to="#808080" begin="arrowRight.mouseover" end="arrowRight.mouseout"/>
                  </use>
                  <path fill="none" stroke="white" stroke-width="1.5" d="M0,-3.0v7 M-2.5,-0.5L0,-3.0L2.5,-0.5"/>
                </g>
                <g id="arrowDown" xlink:href="#dirArrow" transform="rotate(180) translate(-30 -48)" onmousedown="handlePan(0,1)">
                  <use xlink:href="#rim" fill="#404040">
                        <set attributeName="fill" to="#808080" begin="arrowDown.mouseover" end="arrowDown.mouseout"/>
                  </use>
                  <path fill="none" stroke="white" stroke-width="1.5" d="M0,-3.0v7 M-2.5,-0.5L0,-3.0L2.5,-0.5"/>
                </g>
                <g id="arrowLeft" xlink:href="#dirArrow" transform="rotate(270) translate(-36 17)" onmousedown="handlePan(-1,0)">
                  <use xlink:href="#rim" fill="#404040">
                        <set attributeName="fill" to="#808080" begin="arrowLeft.mouseover" end="arrowLeft.mouseout"/>
                  </use>
                  <path fill="none" stroke="white" stroke-width="1.5" d="M0,-3.0v7 M-2.5,-0.5L0,-3.0L2.5,-0.5"/>
                </g>
        </g>
        <svg viewBox="0 0 15 15" width="100%" height="30px" preserveAspectRatio="xMaxYMin meet">
         <g id="arrow_out" transform="scale(0.3 0.3)">
          <a xlink:href="namespace_markov_1_1_markopy_1_1_c_u_d_a_a584fc8e70bb6cf08f544f52805245e19_cgraph_org.svg" target="_base">
           <rect id="button" ry="5" rx="5" y="6" x="6" height="38" width="38"
                fill="#f2f5e9" fill-opacity="0.5" stroke="#606060" stroke-width="1.0"/>
           <path id="arrow"
             d="M 11.500037,31.436501 C 11.940474,20.09759 22.043105,11.32322 32.158766,21.979434 L 37.068811,17.246167 C 37.068811,17.246167 37.088388,32 37.088388,32 L 22.160133,31.978069 C 22.160133,31.978069 26.997745,27.140456 26.997745,27.140456 C 18.528582,18.264221 13.291696,25.230495 11.500037,31.436501 z"
             style="fill:#404040;"/>
          </a>
         </g>
        </svg>
</svg>
