<?xml version="1.0" encoding="UTF-8" standalone="no"?>
<!DOCTYPE svg PUBLIC "-//W3C//DTD SVG 1.1//EN"
 "http://www.w3.org/Graphics/SVG/1.1/DTD/svg11.dtd">
<!-- Generated by graphviz version 2.43.0 (0)
 -->
<!-- Title: Markov::Markopy::BOOST_PYTHON_MODULE Pages: 1 -->
<svg width="895pt" height="96pt"
 viewBox="0.00 0.00 895.00 96.00" xmlns="http://www.w3.org/2000/svg" xmlns:xlink="http://www.w3.org/1999/xlink">
<g id="graph0" class="graph" transform="scale(1 1) rotate(0) translate(4 92)">
<title>Markov::Markopy::BOOST_PYTHON_MODULE</title>
<!-- Node1 -->
<g id="node1" class="node">
<title>Node1</title>
<g id="a_node1"><a xlink:title=" ">
<polygon fill="#bfbfbf" stroke="black" points="0,-26.5 0,-60.5 170,-60.5 170,-26.5 0,-26.5"/>
<text text-anchor="start" x="8" y="-46.9" font-family="Helvetica,sans-Serif" font-size="12.00">Markov::Markopy::BOOST</text>
<text text-anchor="middle" x="85" y="-33.9" font-family="Helvetica,sans-Serif" font-size="12.00">_PYTHON_MODULE</text>
</a>
</g>
</g>
<!-- Node2 -->
<g id="node2" class="node">
<title>Node2</title>
<g id="a_node2"><a xlink:href="class_markov_1_1_a_p_i_1_1_markov_passwords.html#a13886b29051abf3edeed97bd7f985f39" target="_top" xlink:title="Call Markov::Model::RandomWalk n times, and collect output.">
<polygon fill="none" stroke="black" points="206,-53.5 206,-87.5 406,-87.5 406,-53.5 206,-53.5"/>
<text text-anchor="start" x="214" y="-73.9" font-family="Helvetica,sans-Serif" font-size="12.00">Markov::API::MarkovPasswords</text>
<text text-anchor="middle" x="306" y="-60.9" font-family="Helvetica,sans-Serif" font-size="12.00">::Generate</text>
</a>
</g>
</g>
<!-- Node1&#45;&gt;Node2 -->
<g id="edge1" class="edge">
<title>Node1&#45;&gt;Node2</title>
<path fill="none" stroke="midnightblue" d="M170.04,-53.86C178.45,-54.9 187.08,-55.96 195.7,-57.02"/>
<polygon fill="midnightblue" stroke="midnightblue" points="195.45,-60.52 205.8,-58.27 196.31,-53.57 195.45,-60.52"/>
</g>
<!-- Node4 -->
<g id="node4" class="node">
<title>Node4</title>
<g id="a_node4"><a xlink:href="class_markov_1_1_a_p_i_1_1_markov_passwords.html#a2fd4423ae3850e258dcb6b11a7feb9b2" target="_top" xlink:title="Train the model with the dataset file.">
<polygon fill="none" stroke="black" points="206,-0.5 206,-34.5 406,-34.5 406,-0.5 206,-0.5"/>
<text text-anchor="start" x="214" y="-20.9" font-family="Helvetica,sans-Serif" font-size="12.00">Markov::API::MarkovPasswords</text>
<text text-anchor="middle" x="306" y="-7.9" font-family="Helvetica,sans-Serif" font-size="12.00">::Train</text>
</a>
</g>
</g>
<!-- Node1&#45;&gt;Node4 -->
<g id="edge3" class="edge">
<title>Node1&#45;&gt;Node4</title>
<path fill="none" stroke="midnightblue" d="M170.04,-33.52C178.45,-32.52 187.08,-31.5 195.7,-30.48"/>
<polygon fill="midnightblue" stroke="midnightblue" points="196.28,-33.93 205.8,-29.28 195.46,-26.98 196.28,-33.93"/>
</g>
<!-- Node3 -->
<g id="node3" class="node">
<title>Node3</title>
<g id="a_node3"><a xlink:href="class_markov_1_1_a_p_i_1_1_markov_passwords.html#ac2703ec2d5c97adaf8d205000ca34756" target="_top" xlink:title="A single thread invoked by the Generate function.">
<polygon fill="none" stroke="black" points="442,-53.5 442,-87.5 642,-87.5 642,-53.5 442,-53.5"/>
<text text-anchor="start" x="450" y="-73.9" font-family="Helvetica,sans-Serif" font-size="12.00">Markov::API::MarkovPasswords</text>
<text text-anchor="middle" x="542" y="-60.9" font-family="Helvetica,sans-Serif" font-size="12.00">::GenerateThread</text>
</a>
</g>
</g>
<!-- Node2&#45;&gt;Node3 -->
<g id="edge2" class="edge">
<title>Node2&#45;&gt;Node3</title>
<path fill="none" stroke="midnightblue" d="M406.24,-70.5C414.74,-70.5 423.38,-70.5 431.95,-70.5"/>
<polygon fill="midnightblue" stroke="midnightblue" points="431.98,-74 441.98,-70.5 431.98,-67 431.98,-74"/>
</g>
<!-- Node5 -->
<g id="node5" class="node">
<title>Node5</title>
<g id="a_node5"><a xlink:href="class_markov_1_1_a_p_i_1_1_markov_passwords.html#a5f51b0fdb75101b797f38b08da84848e" target="_top" xlink:title="A single thread invoked by the Train function.">
<polygon fill="none" stroke="black" points="442,-0.5 442,-34.5 642,-34.5 642,-0.5 442,-0.5"/>
<text text-anchor="start" x="450" y="-20.9" font-family="Helvetica,sans-Serif" font-size="12.00">Markov::API::MarkovPasswords</text>
<text text-anchor="middle" x="542" y="-7.9" font-family="Helvetica,sans-Serif" font-size="12.00">::TrainThread</text>
</a>
</g>
</g>
<!-- Node4&#45;&gt;Node5 -->
<g id="edge4" class="edge">
<title>Node4&#45;&gt;Node5</title>
<path fill="none" stroke="midnightblue" d="M406.24,-17.5C414.74,-17.5 423.38,-17.5 431.95,-17.5"/>
<polygon fill="midnightblue" stroke="midnightblue" points="431.98,-21 441.98,-17.5 431.98,-14 431.98,-21"/>
</g>
<!-- Node6 -->
<g id="node6" class="node">
<title>Node6</title>
<g id="a_node6"><a xlink:href="class_markov_1_1_a_p_i_1_1_concurrency_1_1_thread_shared_list_handler.html#a068e1a9ff477de23a44c10230df416a5" target="_top" xlink:title="Read the next line from the file.">
<polygon fill="none" stroke="black" points="678,-0.5 678,-34.5 887,-34.5 887,-0.5 678,-0.5"/>
<text text-anchor="start" x="686" y="-20.9" font-family="Helvetica,sans-Serif" font-size="12.00">Markov::API::Concurrency</text>
<text text-anchor="middle" x="782.5" y="-7.9" font-family="Helvetica,sans-Serif" font-size="12.00">::ThreadSharedListHandler::next</text>
</a>
</g>
</g>
<!-- Node5&#45;&gt;Node6 -->
<g id="edge5" class="edge">
<title>Node5&#45;&gt;Node6</title>
<path fill="none" stroke="midnightblue" d="M642.07,-17.5C650.54,-17.5 659.14,-17.5 667.7,-17.5"/>
<polygon fill="midnightblue" stroke="midnightblue" points="667.73,-21 677.73,-17.5 667.73,-14 667.73,-21"/>
</g>
</g>
</svg>
