<?xml version="1.0" encoding="UTF-8" standalone="no"?>
<!DOCTYPE svg PUBLIC "-//W3C//DTD SVG 1.1//EN"
 "http://www.w3.org/Graphics/SVG/1.1/DTD/svg11.dtd">
<!-- Generated by graphviz version 2.43.0 (0)
 -->
<!-- Title: Markov::Markopy::BOOST_PYTHON_MODULE Pages: 1 -->
<svg width="1362pt" height="525pt"
 viewBox="0.00 0.00 1362.00 524.50" xmlns="http://www.w3.org/2000/svg" xmlns:xlink="http://www.w3.org/1999/xlink">
<g id="graph0" class="graph" transform="scale(1 1) rotate(0) translate(4 520.5)">
<title>Markov::Markopy::BOOST_PYTHON_MODULE</title>
<!-- Node1 -->
<g id="node1" class="node">
<title>Node1</title>
<g id="a_node1"><a xlink:title=" ">
<polygon fill="#bfbfbf" stroke="black" points="0,-193.5 0,-227.5 170,-227.5 170,-193.5 0,-193.5"/>
<text text-anchor="start" x="8" y="-213.9" font-family="Helvetica,sans-Serif" font-size="12.00">Markov::Markopy::BOOST</text>
<text text-anchor="middle" x="85" y="-200.9" font-family="Helvetica,sans-Serif" font-size="12.00">_PYTHON_MODULE</text>
</a>
</g>
</g>
<!-- Node2 -->
<g id="node2" class="node">
<title>Node2</title>
<g id="a_node2"><a xlink:href="class_markov_1_1_a_p_i_1_1_model_matrix.html#aafb5809808b9b0450a0bc98740121b5f" target="_top" xlink:title="Construct the related Matrix data for the model.">
<polygon fill="none" stroke="black" points="457.5,-368.5 457.5,-402.5 626.5,-402.5 626.5,-368.5 457.5,-368.5"/>
<text text-anchor="start" x="465.5" y="-388.9" font-family="Helvetica,sans-Serif" font-size="12.00">Markov::API::ModelMatrix</text>
<text text-anchor="middle" x="542" y="-375.9" font-family="Helvetica,sans-Serif" font-size="12.00">::ConstructMatrix</text>
</a>
</g>
</g>
<!-- Node1&#45;&gt;Node2 -->
<g id="edge1" class="edge">
<title>Node1&#45;&gt;Node2</title>
<path fill="none" stroke="midnightblue" d="M92.5,-227.71C106.8,-262.82 144.7,-342.12 206,-374.5 280.05,-413.62 376.72,-412.23 447.17,-403.51"/>
<polygon fill="midnightblue" stroke="midnightblue" points="447.91,-406.95 457.37,-402.18 447,-400.01 447.91,-406.95"/>
</g>
<!-- Node9 -->
<g id="node9" class="node">
<title>Node9</title>
<g id="a_node9"><a xlink:href="class_markov_1_1_a_p_i_1_1_model_matrix.html#a405a1c967dfea8d829aa41ad2c14f709" target="_top" xlink:title="Debug function to dump the model to a JSON file.">
<polygon fill="none" stroke="black" points="221.5,-147.5 221.5,-181.5 390.5,-181.5 390.5,-147.5 221.5,-147.5"/>
<text text-anchor="start" x="229.5" y="-167.9" font-family="Helvetica,sans-Serif" font-size="12.00">Markov::API::ModelMatrix</text>
<text text-anchor="middle" x="306" y="-154.9" font-family="Helvetica,sans-Serif" font-size="12.00">::DumpJSON</text>
</a>
</g>
</g>
<!-- Node1&#45;&gt;Node9 -->
<g id="edge8" class="edge">
<title>Node1&#45;&gt;Node9</title>
<path fill="none" stroke="midnightblue" d="M167.24,-193.44C182.41,-190.25 198.37,-186.9 213.82,-183.65"/>
<polygon fill="midnightblue" stroke="midnightblue" points="214.83,-187.02 223.89,-181.54 213.39,-180.17 214.83,-187.02"/>
</g>
<!-- Node10 -->
<g id="node10" class="node">
<title>Node10</title>
<g id="a_node10"><a xlink:href="class_markov_1_1_model.html#af788426a3c41a7838a2aae199e8aef5b" target="_top" xlink:title="Open a file to export with filename, and call bool Model::Export with std::ofstream.">
<polygon fill="none" stroke="black" points="230.5,-107 230.5,-128 381.5,-128 381.5,-107 230.5,-107"/>
<text text-anchor="middle" x="306" y="-114.4" font-family="Helvetica,sans-Serif" font-size="12.00">Markov::Model::Export</text>
</a>
</g>
</g>
<!-- Node1&#45;&gt;Node10 -->
<g id="edge9" class="edge">
<title>Node1&#45;&gt;Node10</title>
<path fill="none" stroke="midnightblue" d="M109.15,-193.41C132.47,-176.99 170.05,-152.64 206,-138.5 213.76,-135.45 222.04,-132.81 230.38,-130.53"/>
<polygon fill="midnightblue" stroke="midnightblue" points="231.36,-133.89 240.18,-128.02 229.63,-127.11 231.36,-133.89"/>
</g>
<!-- Node11 -->
<g id="node11" class="node">
<title>Node11</title>
<g id="a_node11"><a xlink:href="class_markov_1_1_a_p_i_1_1_model_matrix.html#a3bb4d49f1fbc10e1649dc9bf73529520" target="_top" xlink:title="Random walk on the Matrix&#45;reduced Markov::Model.">
<polygon fill="none" stroke="black" points="221.5,-53.5 221.5,-87.5 390.5,-87.5 390.5,-53.5 221.5,-53.5"/>
<text text-anchor="start" x="229.5" y="-73.9" font-family="Helvetica,sans-Serif" font-size="12.00">Markov::API::ModelMatrix</text>
<text text-anchor="middle" x="306" y="-60.9" font-family="Helvetica,sans-Serif" font-size="12.00">::FastRandomWalk</text>
</a>
</g>
</g>
<!-- Node1&#45;&gt;Node11 -->
<g id="edge10" class="edge">
<title>Node1&#45;&gt;Node11</title>
<path fill="none" stroke="midnightblue" d="M99.57,-193.19C119.99,-168.32 161.07,-122.68 206,-97.5 209.91,-95.31 214,-93.29 218.21,-91.43"/>
<polygon fill="midnightblue" stroke="midnightblue" points="219.65,-94.62 227.58,-87.59 217,-88.14 219.65,-94.62"/>
</g>
<!-- Node16 -->
<g id="node16" class="node">
<title>Node16</title>
<g id="a_node16"><a xlink:href="class_markov_1_1_a_p_i_1_1_markov_passwords.html#a13886b29051abf3edeed97bd7f985f39" target="_top" xlink:title="Call Markov::Model::RandomWalk n times, and collect output.">
<polygon fill="none" stroke="black" points="206,-0.5 206,-34.5 406,-34.5 406,-0.5 206,-0.5"/>
<text text-anchor="start" x="214" y="-20.9" font-family="Helvetica,sans-Serif" font-size="12.00">Markov::API::MarkovPasswords</text>
<text text-anchor="middle" x="306" y="-7.9" font-family="Helvetica,sans-Serif" font-size="12.00">::Generate</text>
</a>
</g>
</g>
<!-- Node1&#45;&gt;Node16 -->
<g id="edge15" class="edge">
<title>Node1&#45;&gt;Node16</title>
<path fill="none" stroke="midnightblue" d="M93.48,-193.44C109.2,-159.63 148.99,-83.97 206,-44.5 208.87,-42.51 211.88,-40.67 214.99,-38.97"/>
<polygon fill="midnightblue" stroke="midnightblue" points="216.59,-42.08 224.01,-34.51 213.49,-35.81 216.59,-42.08"/>
</g>
<!-- Node19 -->
<g id="node19" class="node">
<title>Node19</title>
<g id="a_node19"><a xlink:href="class_markov_1_1_a_p_i_1_1_model_matrix.html#aeba8bb79aa4dc2cfeda310f34b7c9427" target="_top" xlink:title="Open a file to import with filename, and call bool Model::Import with std::ifstream.">
<polygon fill="none" stroke="black" points="221.5,-277.5 221.5,-311.5 390.5,-311.5 390.5,-277.5 221.5,-277.5"/>
<text text-anchor="start" x="229.5" y="-297.9" font-family="Helvetica,sans-Serif" font-size="12.00">Markov::API::ModelMatrix</text>
<text text-anchor="middle" x="306" y="-284.9" font-family="Helvetica,sans-Serif" font-size="12.00">::Import</text>
</a>
</g>
</g>
<!-- Node1&#45;&gt;Node19 -->
<g id="edge18" class="edge">
<title>Node1&#45;&gt;Node19</title>
<path fill="none" stroke="midnightblue" d="M122.92,-227.59C146.46,-238.22 177.75,-251.84 206,-262.5 216.72,-266.54 228.2,-270.55 239.41,-274.28"/>
<polygon fill="midnightblue" stroke="midnightblue" points="238.58,-277.69 249.17,-277.49 240.77,-271.04 238.58,-277.69"/>
</g>
<!-- Node21 -->
<g id="node21" class="node">
<title>Node21</title>
<g id="a_node21"><a xlink:href="class_markov_1_1_model.html#a3f872a3af96a91d4627c1a5d5e66b19a" target="_top" xlink:title="Open a file to import with filename, and call bool Model::Import with std::ifstream.">
<polygon fill="none" stroke="black" points="466,-200 466,-221 618,-221 618,-200 466,-200"/>
<text text-anchor="middle" x="542" y="-207.4" font-family="Helvetica,sans-Serif" font-size="12.00">Markov::Model::Import</text>
</a>
</g>
</g>
<!-- Node1&#45;&gt;Node21 -->
<g id="edge22" class="edge">
<title>Node1&#45;&gt;Node21</title>
<path fill="none" stroke="midnightblue" d="M170.25,-210.5C251.55,-210.5 373.99,-210.5 455.65,-210.5"/>
<polygon fill="midnightblue" stroke="midnightblue" points="455.9,-214 465.9,-210.5 455.9,-207 455.9,-214"/>
</g>
<!-- Node22 -->
<g id="node22" class="node">
<title>Node22</title>
<g id="a_node22"><a xlink:href="class_markov_1_1_a_p_i_1_1_markov_passwords.html#a2fd4423ae3850e258dcb6b11a7feb9b2" target="_top" xlink:title="Train the model with the dataset file.">
<polygon fill="none" stroke="black" points="442,-240.5 442,-274.5 642,-274.5 642,-240.5 442,-240.5"/>
<text text-anchor="start" x="450" y="-260.9" font-family="Helvetica,sans-Serif" font-size="12.00">Markov::API::MarkovPasswords</text>
<text text-anchor="middle" x="542" y="-247.9" font-family="Helvetica,sans-Serif" font-size="12.00">::Train</text>
</a>
</g>
</g>
<!-- Node1&#45;&gt;Node22 -->
<g id="edge23" class="edge">
<title>Node1&#45;&gt;Node22</title>
<path fill="none" stroke="midnightblue" d="M170.23,-220.52C182.23,-221.89 194.43,-223.25 206,-224.5 281.15,-232.58 365.87,-240.92 431.31,-247.2"/>
<polygon fill="midnightblue" stroke="midnightblue" points="431.35,-250.72 441.64,-248.18 432.02,-243.75 431.35,-250.72"/>
</g>
<!-- Node28 -->
<g id="node28" class="node">
<title>Node28</title>
<g id="a_node28"><a xlink:href="class_markov_1_1_a_p_i_1_1_model_matrix.html#af42d40d7a5c80f0dfe126a574a17f423" target="_top" xlink:title="Train the model with the dataset file.">
<polygon fill="none" stroke="black" points="221.5,-330.5 221.5,-364.5 390.5,-364.5 390.5,-330.5 221.5,-330.5"/>
<text text-anchor="start" x="229.5" y="-350.9" font-family="Helvetica,sans-Serif" font-size="12.00">Markov::API::ModelMatrix</text>
<text text-anchor="middle" x="306" y="-337.9" font-family="Helvetica,sans-Serif" font-size="12.00">::Train</text>
</a>
</g>
</g>
<!-- Node1&#45;&gt;Node28 -->
<g id="edge29" class="edge">
<title>Node1&#45;&gt;Node28</title>
<path fill="none" stroke="midnightblue" d="M99.61,-227.55C120.08,-252.04 161.21,-296.94 206,-321.5 209.27,-323.29 212.67,-324.97 216.15,-326.53"/>
<polygon fill="midnightblue" stroke="midnightblue" points="214.97,-329.83 225.55,-330.41 217.64,-323.36 214.97,-329.83"/>
</g>
<!-- Node3 -->
<g id="node3" class="node">
<title>Node3</title>
<g id="a_node3"><a xlink:href="class_markov_1_1_edge.html#a2b1e5a6e6f81502cd8ac6b20ed38b677" target="_top" xlink:title="return edge&#39;s EdgeWeight.">
<polygon fill="none" stroke="black" points="695.5,-375 695.5,-396 871.5,-396 871.5,-375 695.5,-375"/>
<text text-anchor="middle" x="783.5" y="-382.4" font-family="Helvetica,sans-Serif" font-size="12.00">Markov::Edge::EdgeWeight</text>
</a>
</g>
</g>
<!-- Node2&#45;&gt;Node3 -->
<g id="edge2" class="edge">
<title>Node2&#45;&gt;Node3</title>
<path fill="none" stroke="midnightblue" d="M626.77,-385.5C645.6,-385.5 665.75,-385.5 685.09,-385.5"/>
<polygon fill="midnightblue" stroke="midnightblue" points="685.12,-389 695.12,-385.5 685.12,-382 685.12,-389"/>
</g>
<!-- Node4 -->
<g id="node4" class="node">
<title>Node4</title>
<g id="a_node4"><a xlink:href="class_markov_1_1_model.html#a71f6df805e340ce96e9dc4ee4ebc6537" target="_top" xlink:title="Return starter Node.">
<polygon fill="none" stroke="black" points="709,-335 709,-356 858,-356 858,-335 709,-335"/>
<text text-anchor="middle" x="783.5" y="-342.4" font-family="Helvetica,sans-Serif" font-size="12.00">Markov::Model::Nodes</text>
</a>
</g>
</g>
<!-- Node2&#45;&gt;Node4 -->
<g id="edge3" class="edge">
<title>Node2&#45;&gt;Node4</title>
<path fill="none" stroke="midnightblue" d="M626.77,-371.51C653.68,-367.02 683.27,-362.07 709.35,-357.72"/>
<polygon fill="midnightblue" stroke="midnightblue" points="710.26,-361.11 719.54,-356.01 709.1,-354.21 710.26,-361.11"/>
</g>
<!-- Node5 -->
<g id="node5" class="node">
<title>Node5</title>
<g id="a_node5"><a xlink:href="class_markov_1_1_node.html#ac7cce56376f2a00764f64a0194cbb498" target="_top" xlink:title="Return character representation of this node.">
<polygon fill="none" stroke="black" points="698,-295 698,-316 869,-316 869,-295 698,-295"/>
<text text-anchor="middle" x="783.5" y="-302.4" font-family="Helvetica,sans-Serif" font-size="12.00">Markov::Node::NodeValue</text>
</a>
</g>
</g>
<!-- Node2&#45;&gt;Node5 -->
<g id="edge4" class="edge">
<title>Node2&#45;&gt;Node5</title>
<path fill="none" stroke="midnightblue" d="M594.75,-368.5C610.23,-362.79 627.06,-355.96 642,-348.5 658.99,-340.02 660.36,-332.52 678,-325.5 684.61,-322.87 691.59,-320.58 698.69,-318.58"/>
<polygon fill="midnightblue" stroke="midnightblue" points="699.62,-321.96 708.41,-316.04 697.85,-315.18 699.62,-321.96"/>
</g>
<!-- Node6 -->
<g id="node6" class="node">
<title>Node6</title>
<g id="a_node6"><a xlink:href="class_markov_1_1_edge.html#a2e7d14e46631c85c84f6f8f1dd2949cd" target="_top" xlink:title="return edge&#39;s RightNode">
<polygon fill="none" stroke="black" points="699.5,-495 699.5,-516 867.5,-516 867.5,-495 699.5,-495"/>
<text text-anchor="middle" x="783.5" y="-502.4" font-family="Helvetica,sans-Serif" font-size="12.00">Markov::Edge::RightNode</text>
</a>
</g>
</g>
<!-- Node2&#45;&gt;Node6 -->
<g id="edge5" class="edge">
<title>Node2&#45;&gt;Node6</title>
<path fill="none" stroke="midnightblue" d="M560.54,-402.65C584.81,-425.35 630.99,-464.88 678,-485.5 683.77,-488.03 689.86,-490.24 696.08,-492.18"/>
<polygon fill="midnightblue" stroke="midnightblue" points="695.36,-495.61 705.94,-494.99 697.29,-488.88 695.36,-495.61"/>
</g>
<!-- Node7 -->
<g id="node7" class="node">
<title>Node7</title>
<g id="a_node7"><a xlink:href="class_markov_1_1_model.html#a0e53104e4ec665f005529f51a80c857d" target="_top" xlink:title="Return starter Node.">
<polygon fill="none" stroke="black" points="691,-455 691,-476 876,-476 876,-455 691,-455"/>
<text text-anchor="middle" x="783.5" y="-462.4" font-family="Helvetica,sans-Serif" font-size="12.00">Markov::Model::StarterNode</text>
</a>
</g>
</g>
<!-- Node2&#45;&gt;Node7 -->
<g id="edge6" class="edge">
<title>Node2&#45;&gt;Node7</title>
<path fill="none" stroke="midnightblue" d="M575.74,-402.6C602.58,-415.99 641.9,-434.19 678,-445.5 686.67,-448.22 695.87,-450.63 705.08,-452.75"/>
<polygon fill="midnightblue" stroke="midnightblue" points="704.52,-456.21 715.04,-454.94 706.02,-449.38 704.52,-456.21"/>
</g>
<!-- Node8 -->
<g id="node8" class="node">
<title>Node8</title>
<g id="a_node8"><a xlink:href="class_markov_1_1_node.html#a60166d8f501c016de104f48e46bff223" target="_top" xlink:title="return total edge weights">
<polygon fill="none" stroke="black" points="678,-415 678,-436 889,-436 889,-415 678,-415"/>
<text text-anchor="middle" x="783.5" y="-422.4" font-family="Helvetica,sans-Serif" font-size="12.00">Markov::Node::TotalEdgeWeights</text>
</a>
</g>
</g>
<!-- Node2&#45;&gt;Node8 -->
<g id="edge7" class="edge">
<title>Node2&#45;&gt;Node8</title>
<path fill="none" stroke="midnightblue" d="M626.77,-399.49C653.68,-403.98 683.27,-408.93 709.35,-413.28"/>
<polygon fill="midnightblue" stroke="midnightblue" points="709.1,-416.79 719.54,-414.99 710.26,-409.89 709.1,-416.79"/>
</g>
<!-- Node12 -->
<g id="node12" class="node">
<title>Node12</title>
<g id="a_node12"><a xlink:href="class_markov_1_1_a_p_i_1_1_model_matrix.html#a09a6793164aeccc4875c25151ca2ab14" target="_top" xlink:title="Random walk on the Matrix&#45;reduced Markov::Model.">
<polygon fill="none" stroke="black" points="457.5,-53.5 457.5,-87.5 626.5,-87.5 626.5,-53.5 457.5,-53.5"/>
<text text-anchor="start" x="465.5" y="-73.9" font-family="Helvetica,sans-Serif" font-size="12.00">Markov::API::ModelMatrix</text>
<text text-anchor="middle" x="542" y="-60.9" font-family="Helvetica,sans-Serif" font-size="12.00">::FastRandomWalk</text>
</a>
</g>
</g>
<!-- Node11&#45;&gt;Node12 -->
<g id="edge11" class="edge">
<title>Node11&#45;&gt;Node12</title>
<path fill="none" stroke="midnightblue" d="M390.82,-70.5C409.08,-70.5 428.51,-70.5 447.13,-70.5"/>
<polygon fill="midnightblue" stroke="midnightblue" points="447.37,-74 457.37,-70.5 447.37,-67 447.37,-74"/>
</g>
<!-- Node13 -->
<g id="node13" class="node">
<title>Node13</title>
<g id="a_node13"><a xlink:href="class_markov_1_1_a_p_i_1_1_model_matrix.html#ad775d2e9c35e6f78c53f796df11405b5" target="_top" xlink:title="A single partition of FastRandomWalk event.">
<polygon fill="none" stroke="black" points="696.5,-53.5 696.5,-87.5 870.5,-87.5 870.5,-53.5 696.5,-53.5"/>
<text text-anchor="start" x="704.5" y="-73.9" font-family="Helvetica,sans-Serif" font-size="12.00">Markov::API::ModelMatrix</text>
<text text-anchor="middle" x="783.5" y="-60.9" font-family="Helvetica,sans-Serif" font-size="12.00">::FastRandomWalkPartition</text>
</a>
</g>
</g>
<!-- Node12&#45;&gt;Node13 -->
<g id="edge12" class="edge">
<title>Node12&#45;&gt;Node13</title>
<path fill="none" stroke="midnightblue" d="M626.77,-70.5C645.95,-70.5 666.49,-70.5 686.16,-70.5"/>
<polygon fill="midnightblue" stroke="midnightblue" points="686.35,-74 696.35,-70.5 686.35,-67 686.35,-74"/>
</g>
<!-- Node14 -->
<g id="node14" class="node">
<title>Node14</title>
<g id="a_node14"><a xlink:href="class_markov_1_1_a_p_i_1_1_model_matrix.html#a96f2885aac69b49b21c66ad5a32514b9" target="_top" xlink:title="A single thread of a single partition of FastRandomWalk.">
<polygon fill="none" stroke="black" points="945,-53.5 945,-87.5 1114,-87.5 1114,-53.5 945,-53.5"/>
<text text-anchor="start" x="953" y="-73.9" font-family="Helvetica,sans-Serif" font-size="12.00">Markov::API::ModelMatrix</text>
<text text-anchor="middle" x="1029.5" y="-60.9" font-family="Helvetica,sans-Serif" font-size="12.00">::FastRandomWalkThread</text>
</a>
</g>
</g>
<!-- Node13&#45;&gt;Node14 -->
<g id="edge13" class="edge">
<title>Node13&#45;&gt;Node14</title>
<path fill="none" stroke="midnightblue" d="M870.53,-70.5C891.28,-70.5 913.55,-70.5 934.65,-70.5"/>
<polygon fill="midnightblue" stroke="midnightblue" points="934.89,-74 944.89,-70.5 934.89,-67 934.89,-74"/>
</g>
<!-- Node15 -->
<g id="node15" class="node">
<title>Node15</title>
<g id="a_node15"><a xlink:href="class_markov_1_1_random_1_1_marsaglia.html#a0a56da316d520b80be6b6df6c9e0b537" target="_top" xlink:title="Generate Random Number.">
<polygon fill="none" stroke="black" points="1170,-53.5 1170,-87.5 1354,-87.5 1354,-53.5 1170,-53.5"/>
<text text-anchor="start" x="1178" y="-73.9" font-family="Helvetica,sans-Serif" font-size="12.00">Markov::Random::Marsaglia</text>
<text text-anchor="middle" x="1262" y="-60.9" font-family="Helvetica,sans-Serif" font-size="12.00">::random</text>
</a>
</g>
</g>
<!-- Node14&#45;&gt;Node15 -->
<g id="edge14" class="edge">
<title>Node14&#45;&gt;Node15</title>
<path fill="none" stroke="midnightblue" d="M1114.04,-70.5C1128.94,-70.5 1144.61,-70.5 1159.94,-70.5"/>
<polygon fill="midnightblue" stroke="midnightblue" points="1159.95,-74 1169.95,-70.5 1159.95,-67 1159.95,-74"/>
</g>
<!-- Node17 -->
<g id="node17" class="node">
<title>Node17</title>
<g id="a_node17"><a xlink:href="class_markov_1_1_a_p_i_1_1_markov_passwords.html#ac2703ec2d5c97adaf8d205000ca34756" target="_top" xlink:title="A single thread invoked by the Generate function.">
<polygon fill="none" stroke="black" points="442,-0.5 442,-34.5 642,-34.5 642,-0.5 442,-0.5"/>
<text text-anchor="start" x="450" y="-20.9" font-family="Helvetica,sans-Serif" font-size="12.00">Markov::API::MarkovPasswords</text>
<text text-anchor="middle" x="542" y="-7.9" font-family="Helvetica,sans-Serif" font-size="12.00">::GenerateThread</text>
</a>
</g>
</g>
<!-- Node16&#45;&gt;Node17 -->
<g id="edge16" class="edge">
<title>Node16&#45;&gt;Node17</title>
<path fill="none" stroke="midnightblue" d="M406.24,-17.5C414.74,-17.5 423.38,-17.5 431.95,-17.5"/>
<polygon fill="midnightblue" stroke="midnightblue" points="431.98,-21 441.98,-17.5 431.98,-14 431.98,-21"/>
</g>
<!-- Node18 -->
<g id="node18" class="node">
<title>Node18</title>
<g id="a_node18"><a xlink:href="class_markov_1_1_model.html#aa4a11c6679c998936332f8409ae95375" target="_top" xlink:title="Do a random walk on this model.">
<polygon fill="none" stroke="black" points="688.5,-7 688.5,-28 878.5,-28 878.5,-7 688.5,-7"/>
<text text-anchor="middle" x="783.5" y="-14.4" font-family="Helvetica,sans-Serif" font-size="12.00">Markov::Model::RandomWalk</text>
</a>
</g>
</g>
<!-- Node17&#45;&gt;Node18 -->
<g id="edge17" class="edge">
<title>Node17&#45;&gt;Node18</title>
<path fill="none" stroke="midnightblue" d="M642.14,-17.5C654.11,-17.5 666.35,-17.5 678.39,-17.5"/>
<polygon fill="midnightblue" stroke="midnightblue" points="678.43,-21 688.43,-17.5 678.43,-14 678.43,-21"/>
</g>
<!-- Node19&#45;&gt;Node2 -->
<g id="edge19" class="edge">
<title>Node19&#45;&gt;Node2</title>
<path fill="none" stroke="midnightblue" d="M381.65,-311.57C390.04,-314.45 398.32,-317.74 406,-321.5 423.97,-330.29 424.45,-338.9 442,-348.5 453.05,-354.55 465.29,-360.01 477.29,-364.77"/>
<polygon fill="midnightblue" stroke="midnightblue" points="476.25,-368.12 486.84,-368.43 478.76,-361.58 476.25,-368.12"/>
</g>
<!-- Node20 -->
<g id="node20" class="node">
<title>Node20</title>
<g id="a_node20"><a xlink:href="class_markov_1_1_a_p_i_1_1_model_matrix.html#a0f95257e1344225233ab49602cd9551c" target="_top" xlink:title="Deallocate matrix and make it ready for re&#45;construction.">
<polygon fill="none" stroke="black" points="457.5,-304.5 457.5,-338.5 626.5,-338.5 626.5,-304.5 457.5,-304.5"/>
<text text-anchor="start" x="465.5" y="-324.9" font-family="Helvetica,sans-Serif" font-size="12.00">Markov::API::ModelMatrix</text>
<text text-anchor="middle" x="542" y="-311.9" font-family="Helvetica,sans-Serif" font-size="12.00">::DeallocateMatrix</text>
</a>
</g>
</g>
<!-- Node19&#45;&gt;Node20 -->
<g id="edge20" class="edge">
<title>Node19&#45;&gt;Node20</title>
<path fill="none" stroke="midnightblue" d="M390.82,-304.17C409.16,-306.29 428.69,-308.54 447.38,-310.7"/>
<polygon fill="midnightblue" stroke="midnightblue" points="447.04,-314.18 457.37,-311.85 447.84,-307.23 447.04,-314.18"/>
</g>
<!-- Node19&#45;&gt;Node21 -->
<g id="edge21" class="edge">
<title>Node19&#45;&gt;Node21</title>
<path fill="none" stroke="midnightblue" d="M338.35,-277.37C365.18,-263.32 405.21,-243.81 442,-231.5 451.09,-228.46 460.8,-225.76 470.46,-223.4"/>
<polygon fill="midnightblue" stroke="midnightblue" points="471.53,-226.74 480.47,-221.05 469.93,-219.92 471.53,-226.74"/>
</g>
<!-- Node23 -->
<g id="node23" class="node">
<title>Node23</title>
<g id="a_node23"><a xlink:href="markov_passwords_8cpp.html#a3b33e6f48f5d988f336e915c5346eb95" target="_top" xlink:title=" ">
<polygon fill="none" stroke="black" points="744,-255 744,-276 823,-276 823,-255 744,-255"/>
<text text-anchor="middle" x="783.5" y="-262.4" font-family="Helvetica,sans-Serif" font-size="12.00">intHandler</text>
</a>
</g>
</g>
<!-- Node22&#45;&gt;Node23 -->
<g id="edge24" class="edge">
<title>Node22&#45;&gt;Node23</title>
<path fill="none" stroke="midnightblue" d="M642.14,-260.81C673.73,-261.87 707.28,-262.99 733.66,-263.87"/>
<polygon fill="midnightblue" stroke="midnightblue" points="733.65,-267.37 743.76,-264.21 733.89,-260.37 733.65,-267.37"/>
</g>
<!-- Node24 -->
<g id="node24" class="node">
<title>Node24</title>
<g id="a_node24"><a xlink:href="class_markov_1_1_a_p_i_1_1_concurrency_1_1_thread_shared_list_handler.html#a08d468aa4146a30f4176bc91a40ed292" target="_top" xlink:title="Construct the Thread Handler with a filename.">
<polygon fill="none" stroke="black" points="695.5,-189 695.5,-236 871.5,-236 871.5,-189 695.5,-189"/>
<text text-anchor="start" x="703.5" y="-222.4" font-family="Helvetica,sans-Serif" font-size="12.00">Markov::API::Concurrency</text>
<text text-anchor="start" x="703.5" y="-209.4" font-family="Helvetica,sans-Serif" font-size="12.00">::ThreadSharedListHandler</text>
<text text-anchor="middle" x="783.5" y="-196.4" font-family="Helvetica,sans-Serif" font-size="12.00">::ThreadSharedListHandler</text>
</a>
</g>
</g>
<!-- Node22&#45;&gt;Node24 -->
<g id="edge25" class="edge">
<title>Node22&#45;&gt;Node24</title>
<path fill="none" stroke="midnightblue" d="M633.54,-240.49C650.49,-237.3 668.26,-233.96 685.39,-230.75"/>
<polygon fill="midnightblue" stroke="midnightblue" points="686.21,-234.15 695.39,-228.87 684.92,-227.27 686.21,-234.15"/>
</g>
<!-- Node25 -->
<g id="node25" class="node">
<title>Node25</title>
<g id="a_node25"><a xlink:href="class_markov_1_1_a_p_i_1_1_markov_passwords.html#a5f51b0fdb75101b797f38b08da84848e" target="_top" xlink:title="A single thread invoked by the Train function.">
<polygon fill="none" stroke="black" points="683.5,-135.5 683.5,-169.5 883.5,-169.5 883.5,-135.5 683.5,-135.5"/>
<text text-anchor="start" x="691.5" y="-155.9" font-family="Helvetica,sans-Serif" font-size="12.00">Markov::API::MarkovPasswords</text>
<text text-anchor="middle" x="783.5" y="-142.9" font-family="Helvetica,sans-Serif" font-size="12.00">::TrainThread</text>
</a>
</g>
</g>
<!-- Node22&#45;&gt;Node25 -->
<g id="edge26" class="edge">
<title>Node22&#45;&gt;Node25</title>
<path fill="none" stroke="midnightblue" d="M624.54,-240.33C630.7,-237.54 636.6,-234.28 642,-230.5 664.72,-214.58 655.17,-195.27 678,-179.5 680.86,-177.52 683.86,-175.69 686.95,-173.99"/>
<polygon fill="midnightblue" stroke="midnightblue" points="688.51,-177.13 695.92,-169.55 685.4,-170.86 688.51,-177.13"/>
</g>
<!-- Node26 -->
<g id="node26" class="node">
<title>Node26</title>
<g id="a_node26"><a xlink:href="class_markov_1_1_model.html#ad252913f83fa3eb14cc3f9f92c5ee37a" target="_top" xlink:title="Adjust the model with a single string.">
<polygon fill="none" stroke="black" points="940,-124 940,-145 1119,-145 1119,-124 940,-124"/>
<text text-anchor="middle" x="1029.5" y="-131.4" font-family="Helvetica,sans-Serif" font-size="12.00">Markov::Model::AdjustEdge</text>
</a>
</g>
</g>
<!-- Node25&#45;&gt;Node26 -->
<g id="edge27" class="edge">
<title>Node25&#45;&gt;Node26</title>
<path fill="none" stroke="midnightblue" d="M883.74,-145.18C898.86,-144.06 914.46,-142.91 929.57,-141.8"/>
<polygon fill="midnightblue" stroke="midnightblue" points="930.22,-145.26 939.94,-141.03 929.71,-138.28 930.22,-145.26"/>
</g>
<!-- Node27 -->
<g id="node27" class="node">
<title>Node27</title>
<g id="a_node27"><a xlink:href="class_markov_1_1_a_p_i_1_1_concurrency_1_1_thread_shared_list_handler.html#a068e1a9ff477de23a44c10230df416a5" target="_top" xlink:title="Read the next line from the file.">
<polygon fill="none" stroke="black" points="925,-164.5 925,-198.5 1134,-198.5 1134,-164.5 925,-164.5"/>
<text text-anchor="start" x="933" y="-184.9" font-family="Helvetica,sans-Serif" font-size="12.00">Markov::API::Concurrency</text>
<text text-anchor="middle" x="1029.5" y="-171.9" font-family="Helvetica,sans-Serif" font-size="12.00">::ThreadSharedListHandler::next</text>
</a>
</g>
</g>
<!-- Node25&#45;&gt;Node27 -->
<g id="edge28" class="edge">
<title>Node25&#45;&gt;Node27</title>
<path fill="none" stroke="midnightblue" d="M883.74,-164.3C894.04,-165.52 904.57,-166.77 915,-168.01"/>
<polygon fill="midnightblue" stroke="midnightblue" points="914.63,-171.49 924.98,-169.2 915.46,-164.54 914.63,-171.49"/>
</g>
<!-- Node28&#45;&gt;Node2 -->
<g id="edge30" class="edge">
<title>Node28&#45;&gt;Node2</title>
<path fill="none" stroke="midnightblue" d="M390.82,-361.11C409.16,-364.09 428.69,-367.26 447.38,-370.3"/>
<polygon fill="midnightblue" stroke="midnightblue" points="446.94,-373.77 457.37,-371.92 448.06,-366.86 446.94,-373.77"/>
</g>
<!-- Node28&#45;&gt;Node20 -->
<g id="edge31" class="edge">
<title>Node28&#45;&gt;Node20</title>
<path fill="none" stroke="midnightblue" d="M390.82,-338.19C409.16,-336.15 428.69,-333.98 447.38,-331.9"/>
<polygon fill="midnightblue" stroke="midnightblue" points="447.82,-335.37 457.37,-330.79 447.05,-328.42 447.82,-335.37"/>
</g>
<!-- Node28&#45;&gt;Node22 -->
<g id="edge32" class="edge">
<title>Node28&#45;&gt;Node22</title>
<path fill="none" stroke="midnightblue" d="M383.42,-330.5C391.19,-327.86 398.85,-324.88 406,-321.5 423.85,-313.07 424.64,-304.89 442,-295.5 453.74,-289.15 466.77,-283.34 479.43,-278.29"/>
<polygon fill="midnightblue" stroke="midnightblue" points="480.94,-281.45 489,-274.57 478.41,-274.93 480.94,-281.45"/>
</g>
</g>
</svg>
