<?xml version="1.0" encoding="UTF-8" standalone="no"?>
<!DOCTYPE svg PUBLIC "-//W3C//DTD SVG 1.1//EN"
 "http://www.w3.org/Graphics/SVG/1.1/DTD/svg11.dtd">
<!-- Generated by graphviz version 2.43.0 (0)
 -->
<!-- Title: node.h Pages: 1 -->
<svg width="585pt" height="146pt"
 viewBox="0.00 0.00 585.00 146.00" xmlns="http://www.w3.org/2000/svg" xmlns:xlink="http://www.w3.org/1999/xlink">
<g id="graph0" class="graph" transform="scale(1 1) rotate(0) translate(4 142)">
<title>node.h</title>
<!-- Node1 -->
<g id="node1" class="node">
<title>Node1</title>
<g id="a_node1"><a xlink:title="Node class template.">
<polygon fill="#bfbfbf" stroke="black" points="200.5,-116.5 200.5,-137.5 258.5,-137.5 258.5,-116.5 200.5,-116.5"/>
<text text-anchor="middle" x="229.5" y="-123.9" font-family="Helvetica,sans-Serif" font-size="12.00">node.h</text>
</a>
</g>
</g>
<!-- Node2 -->
<g id="node2" class="node">
<title>Node2</title>
<g id="a_node2"><a xlink:title=" ">
<polygon fill="none" stroke="#bfbfbf" points="0,-58.5 0,-79.5 55,-79.5 55,-58.5 0,-58.5"/>
<text text-anchor="middle" x="27.5" y="-65.9" font-family="Helvetica,sans-Serif" font-size="12.00">vector</text>
</a>
</g>
</g>
<!-- Node1&#45;&gt;Node2 -->
<g id="edge1" class="edge">
<title>Node1&#45;&gt;Node2</title>
<path fill="none" stroke="midnightblue" d="M200.13,-117.86C164.47,-107.97 104.27,-91.28 65.21,-80.46"/>
<polygon fill="midnightblue" stroke="midnightblue" points="65.85,-77 55.28,-77.7 63.98,-83.75 65.85,-77"/>
</g>
<!-- Node3 -->
<g id="node3" class="node">
<title>Node3</title>
<g id="a_node3"><a xlink:title=" ">
<polygon fill="none" stroke="#bfbfbf" points="73.5,-58.5 73.5,-79.5 117.5,-79.5 117.5,-58.5 73.5,-58.5"/>
<text text-anchor="middle" x="95.5" y="-65.9" font-family="Helvetica,sans-Serif" font-size="12.00">map</text>
</a>
</g>
</g>
<!-- Node1&#45;&gt;Node3 -->
<g id="edge2" class="edge">
<title>Node1&#45;&gt;Node3</title>
<path fill="none" stroke="midnightblue" d="M206.46,-116.37C184.63,-107.25 151.64,-93.46 127.3,-83.29"/>
<polygon fill="midnightblue" stroke="midnightblue" points="128.37,-79.94 117.79,-79.32 125.67,-86.4 128.37,-79.94"/>
</g>
<!-- Node4 -->
<g id="node4" class="node">
<title>Node4</title>
<g id="a_node4"><a xlink:title=" ">
<polygon fill="none" stroke="#bfbfbf" points="136,-58.5 136,-79.5 201,-79.5 201,-58.5 136,-58.5"/>
<text text-anchor="middle" x="168.5" y="-65.9" font-family="Helvetica,sans-Serif" font-size="12.00">assert.h</text>
</a>
</g>
</g>
<!-- Node1&#45;&gt;Node4 -->
<g id="edge3" class="edge">
<title>Node1&#45;&gt;Node4</title>
<path fill="none" stroke="midnightblue" d="M218.87,-116.25C209.95,-108.05 197.01,-96.17 186.48,-86.51"/>
<polygon fill="midnightblue" stroke="midnightblue" points="188.74,-83.83 179,-79.64 184,-88.98 188.74,-83.83"/>
</g>
<!-- Node5 -->
<g id="node5" class="node">
<title>Node5</title>
<g id="a_node5"><a xlink:title=" ">
<polygon fill="none" stroke="#bfbfbf" points="232,-0.5 232,-21.5 301,-21.5 301,-0.5 232,-0.5"/>
<text text-anchor="middle" x="266.5" y="-7.9" font-family="Helvetica,sans-Serif" font-size="12.00">iostream</text>
</a>
</g>
</g>
<!-- Node1&#45;&gt;Node5 -->
<g id="edge4" class="edge">
<title>Node1&#45;&gt;Node5</title>
<path fill="none" stroke="midnightblue" d="M231.9,-116.22C235.24,-102.93 241.66,-78.46 248.5,-58 251.48,-49.08 255.21,-39.36 258.51,-31.16"/>
<polygon fill="midnightblue" stroke="midnightblue" points="261.8,-32.35 262.35,-21.77 255.32,-29.7 261.8,-32.35"/>
</g>
<!-- Node6 -->
<g id="node6" class="node">
<title>Node6</title>
<g id="a_node6"><a xlink:title=" ">
<polygon fill="none" stroke="#bfbfbf" points="258,-58.5 258,-79.5 333,-79.5 333,-58.5 258,-58.5"/>
<text text-anchor="middle" x="295.5" y="-65.9" font-family="Helvetica,sans-Serif" font-size="12.00">stdexcept</text>
</a>
</g>
</g>
<!-- Node1&#45;&gt;Node6 -->
<g id="edge5" class="edge">
<title>Node1&#45;&gt;Node6</title>
<path fill="none" stroke="midnightblue" d="M241,-116.25C250.74,-107.97 264.93,-95.94 276.38,-86.22"/>
<polygon fill="midnightblue" stroke="midnightblue" points="278.77,-88.78 284.14,-79.64 274.25,-83.44 278.77,-88.78"/>
</g>
<!-- Node7 -->
<g id="node7" class="node">
<title>Node7</title>
<g id="a_node7"><a xlink:href="edge_8h.html" target="_top" xlink:title="Edge class template.">
<polygon fill="none" stroke="black" points="443.5,-58.5 443.5,-79.5 501.5,-79.5 501.5,-58.5 443.5,-58.5"/>
<text text-anchor="middle" x="472.5" y="-65.9" font-family="Helvetica,sans-Serif" font-size="12.00">edge.h</text>
</a>
</g>
</g>
<!-- Node1&#45;&gt;Node7 -->
<g id="edge6" class="edge">
<title>Node1&#45;&gt;Node7</title>
<path fill="none" stroke="midnightblue" d="M258.77,-119.78C296.76,-111.64 365.31,-96.69 433.44,-80.2"/>
<polygon fill="midnightblue" stroke="midnightblue" points="434.59,-83.52 443.48,-77.75 432.94,-76.72 434.59,-83.52"/>
</g>
<!-- Node10 -->
<g id="node10" class="node">
<title>Node10</title>
<g id="a_node10"><a xlink:href="random_8h.html" target="_top" xlink:title="Random engine implementations for Markov.">
<polygon fill="none" stroke="black" points="351,-58.5 351,-79.5 426,-79.5 426,-58.5 351,-58.5"/>
<text text-anchor="middle" x="388.5" y="-65.9" font-family="Helvetica,sans-Serif" font-size="12.00">random.h</text>
</a>
</g>
</g>
<!-- Node1&#45;&gt;Node10 -->
<g id="edge9" class="edge">
<title>Node1&#45;&gt;Node10</title>
<path fill="none" stroke="midnightblue" d="M256.83,-116.37C283.04,-107.14 322.8,-93.14 351.77,-82.94"/>
<polygon fill="midnightblue" stroke="midnightblue" points="353.25,-86.12 361.52,-79.5 350.93,-79.52 353.25,-86.12"/>
</g>
<!-- Node8 -->
<g id="node8" class="node">
<title>Node8</title>
<g id="a_node8"><a xlink:title=" ">
<polygon fill="none" stroke="#bfbfbf" points="441.5,-0.5 441.5,-21.5 497.5,-21.5 497.5,-0.5 441.5,-0.5"/>
<text text-anchor="middle" x="469.5" y="-7.9" font-family="Helvetica,sans-Serif" font-size="12.00">cstdint</text>
</a>
</g>
</g>
<!-- Node7&#45;&gt;Node8 -->
<g id="edge7" class="edge">
<title>Node7&#45;&gt;Node8</title>
<path fill="none" stroke="midnightblue" d="M471.98,-58.25C471.59,-50.94 471.04,-40.69 470.56,-31.7"/>
<polygon fill="midnightblue" stroke="midnightblue" points="474.05,-31.44 470.02,-21.64 467.06,-31.82 474.05,-31.44"/>
</g>
<!-- Node9 -->
<g id="node9" class="node">
<title>Node9</title>
<g id="a_node9"><a xlink:title=" ">
<polygon fill="none" stroke="#bfbfbf" points="516,-0.5 516,-21.5 577,-21.5 577,-0.5 516,-0.5"/>
<text text-anchor="middle" x="546.5" y="-7.9" font-family="Helvetica,sans-Serif" font-size="12.00">cstddef</text>
</a>
</g>
</g>
<!-- Node7&#45;&gt;Node9 -->
<g id="edge8" class="edge">
<title>Node7&#45;&gt;Node9</title>
<path fill="none" stroke="midnightblue" d="M485.39,-58.25C496.43,-49.89 512.53,-37.71 525.44,-27.94"/>
<polygon fill="midnightblue" stroke="midnightblue" points="527.9,-30.47 533.76,-21.64 523.67,-24.89 527.9,-30.47"/>
</g>
<!-- Node10&#45;&gt;Node5 -->
<g id="edge11" class="edge">
<title>Node10&#45;&gt;Node5</title>
<path fill="none" stroke="midnightblue" d="M367.53,-58.37C347.94,-49.38 318.5,-35.87 296.45,-25.75"/>
<polygon fill="midnightblue" stroke="midnightblue" points="297.75,-22.49 287.2,-21.5 294.83,-28.85 297.75,-22.49"/>
</g>
<!-- Node11 -->
<g id="node11" class="node">
<title>Node11</title>
<g id="a_node11"><a xlink:title=" ">
<polygon fill="none" stroke="#bfbfbf" points="356.5,-0.5 356.5,-21.5 420.5,-21.5 420.5,-0.5 356.5,-0.5"/>
<text text-anchor="middle" x="388.5" y="-7.9" font-family="Helvetica,sans-Serif" font-size="12.00">random</text>
</a>
</g>
</g>
<!-- Node10&#45;&gt;Node11 -->
<g id="edge10" class="edge">
<title>Node10&#45;&gt;Node11</title>
<path fill="none" stroke="midnightblue" d="M388.5,-58.25C388.5,-50.94 388.5,-40.69 388.5,-31.7"/>
<polygon fill="midnightblue" stroke="midnightblue" points="392,-31.64 388.5,-21.64 385,-31.64 392,-31.64"/>
</g>
</g>
</svg>
