<?xml version="1.0" encoding="UTF-8" standalone="no"?>
<!DOCTYPE svg PUBLIC "-//W3C//DTD SVG 1.1//EN"
 "http://www.w3.org/Graphics/SVG/1.1/DTD/svg11.dtd">
<!-- Generated by graphviz version 2.43.0 (0)
 -->
<!-- Title: Markopy/MarkovModel/src/node.h Pages: 1 -->
<svg width="585pt" height="159pt"
 viewBox="0.00 0.00 585.00 159.00" xmlns="http://www.w3.org/2000/svg" xmlns:xlink="http://www.w3.org/1999/xlink">
<g id="graph0" class="graph" transform="scale(1 1) rotate(0) translate(4 155)">
<title>Markopy/MarkovModel/src/node.h</title>
<!-- Node1 -->
<g id="node1" class="node">
<title>Node1</title>
<g id="a_node1"><a xlink:title="Node class template.">
<polygon fill="#bfbfbf" stroke="black" points="153.5,-116.5 153.5,-150.5 305.5,-150.5 305.5,-116.5 153.5,-116.5"/>
<text text-anchor="start" x="161.5" y="-136.9" font-family="Helvetica,sans-Serif" font-size="12.00">Markopy/MarkovModel</text>
<text text-anchor="middle" x="229.5" y="-123.9" font-family="Helvetica,sans-Serif" font-size="12.00">/src/node.h</text>
</a>
</g>
</g>
<!-- Node2 -->
<g id="node2" class="node">
<title>Node2</title>
<g id="a_node2"><a xlink:title=" ">
<polygon fill="none" stroke="#bfbfbf" points="0,-58.5 0,-79.5 55,-79.5 55,-58.5 0,-58.5"/>
<text text-anchor="middle" x="27.5" y="-65.9" font-family="Helvetica,sans-Serif" font-size="12.00">vector</text>
</a>
</g>
</g>
<!-- Node1&#45;&gt;Node2 -->
<g id="edge1" class="edge">
<title>Node1&#45;&gt;Node2</title>
<path fill="none" stroke="midnightblue" d="M177.74,-116.49C142.51,-105.59 96.7,-91.41 64.97,-81.59"/>
<polygon fill="midnightblue" stroke="midnightblue" points="65.78,-78.18 55.19,-78.57 63.71,-84.87 65.78,-78.18"/>
</g>
<!-- Node3 -->
<g id="node3" class="node">
<title>Node3</title>
<g id="a_node3"><a xlink:title=" ">
<polygon fill="none" stroke="#bfbfbf" points="73.5,-58.5 73.5,-79.5 117.5,-79.5 117.5,-58.5 73.5,-58.5"/>
<text text-anchor="middle" x="95.5" y="-65.9" font-family="Helvetica,sans-Serif" font-size="12.00">map</text>
</a>
</g>
</g>
<!-- Node1&#45;&gt;Node3 -->
<g id="edge2" class="edge">
<title>Node1&#45;&gt;Node3</title>
<path fill="none" stroke="midnightblue" d="M194.99,-116.4C173.44,-106.35 145.96,-93.54 125.35,-83.92"/>
<polygon fill="midnightblue" stroke="midnightblue" points="126.66,-80.67 116.12,-79.62 123.7,-87.02 126.66,-80.67"/>
</g>
<!-- Node4 -->
<g id="node4" class="node">
<title>Node4</title>
<g id="a_node4"><a xlink:title=" ">
<polygon fill="none" stroke="#bfbfbf" points="136,-58.5 136,-79.5 201,-79.5 201,-58.5 136,-58.5"/>
<text text-anchor="middle" x="168.5" y="-65.9" font-family="Helvetica,sans-Serif" font-size="12.00">assert.h</text>
</a>
</g>
</g>
<!-- Node1&#45;&gt;Node4 -->
<g id="edge3" class="edge">
<title>Node1&#45;&gt;Node4</title>
<path fill="none" stroke="midnightblue" d="M213.79,-116.4C205.05,-107.45 194.18,-96.31 185.28,-87.19"/>
<polygon fill="midnightblue" stroke="midnightblue" points="187.55,-84.51 178.06,-79.8 182.54,-89.4 187.55,-84.51"/>
</g>
<!-- Node5 -->
<g id="node5" class="node">
<title>Node5</title>
<g id="a_node5"><a xlink:title=" ">
<polygon fill="none" stroke="#bfbfbf" points="232,-0.5 232,-21.5 301,-21.5 301,-0.5 232,-0.5"/>
<text text-anchor="middle" x="266.5" y="-7.9" font-family="Helvetica,sans-Serif" font-size="12.00">iostream</text>
</a>
</g>
</g>
<!-- Node1&#45;&gt;Node5 -->
<g id="edge4" class="edge">
<title>Node1&#45;&gt;Node5</title>
<path fill="none" stroke="midnightblue" d="M233.01,-116.35C236.46,-101.15 242.12,-77.82 248.5,-58 251.38,-49.05 255.1,-39.32 258.41,-31.13"/>
<polygon fill="midnightblue" stroke="midnightblue" points="261.7,-32.32 262.28,-21.74 255.23,-29.65 261.7,-32.32"/>
</g>
<!-- Node6 -->
<g id="node6" class="node">
<title>Node6</title>
<g id="a_node6"><a xlink:title=" ">
<polygon fill="none" stroke="#bfbfbf" points="258,-58.5 258,-79.5 333,-79.5 333,-58.5 258,-58.5"/>
<text text-anchor="middle" x="295.5" y="-65.9" font-family="Helvetica,sans-Serif" font-size="12.00">stdexcept</text>
</a>
</g>
</g>
<!-- Node1&#45;&gt;Node6 -->
<g id="edge5" class="edge">
<title>Node1&#45;&gt;Node6</title>
<path fill="none" stroke="midnightblue" d="M246.5,-116.4C256.05,-107.36 267.95,-96.09 277.64,-86.91"/>
<polygon fill="midnightblue" stroke="midnightblue" points="280.3,-89.22 285.15,-79.8 275.48,-84.13 280.3,-89.22"/>
</g>
<!-- Node7 -->
<g id="node7" class="node">
<title>Node7</title>
<g id="a_node7"><a xlink:href="edge_8h.html" target="_top" xlink:title="Edge class template.">
<polygon fill="none" stroke="black" points="443.5,-58.5 443.5,-79.5 501.5,-79.5 501.5,-58.5 443.5,-58.5"/>
<text text-anchor="middle" x="472.5" y="-65.9" font-family="Helvetica,sans-Serif" font-size="12.00">edge.h</text>
</a>
</g>
</g>
<!-- Node1&#45;&gt;Node7 -->
<g id="edge6" class="edge">
<title>Node1&#45;&gt;Node7</title>
<path fill="none" stroke="midnightblue" d="M292.79,-116.41C330.94,-106.68 380.78,-93.92 433.57,-80.23"/>
<polygon fill="midnightblue" stroke="midnightblue" points="434.66,-83.56 443.46,-77.66 432.9,-76.79 434.66,-83.56"/>
</g>
<!-- Node10 -->
<g id="node10" class="node">
<title>Node10</title>
<g id="a_node10"><a xlink:href="random_8h.html" target="_top" xlink:title="Random engine implementations for Markov.">
<polygon fill="none" stroke="black" points="351,-58.5 351,-79.5 426,-79.5 426,-58.5 351,-58.5"/>
<text text-anchor="middle" x="388.5" y="-65.9" font-family="Helvetica,sans-Serif" font-size="12.00">random.h</text>
</a>
</g>
</g>
<!-- Node1&#45;&gt;Node10 -->
<g id="edge9" class="edge">
<title>Node1&#45;&gt;Node10</title>
<path fill="none" stroke="midnightblue" d="M270.45,-116.4C296.49,-106.17 329.81,-93.07 354.41,-83.4"/>
<polygon fill="midnightblue" stroke="midnightblue" points="356.01,-86.53 364.03,-79.62 353.45,-80.02 356.01,-86.53"/>
</g>
<!-- Node8 -->
<g id="node8" class="node">
<title>Node8</title>
<g id="a_node8"><a xlink:title=" ">
<polygon fill="none" stroke="#bfbfbf" points="441.5,-0.5 441.5,-21.5 497.5,-21.5 497.5,-0.5 441.5,-0.5"/>
<text text-anchor="middle" x="469.5" y="-7.9" font-family="Helvetica,sans-Serif" font-size="12.00">cstdint</text>
</a>
</g>
</g>
<!-- Node7&#45;&gt;Node8 -->
<g id="edge7" class="edge">
<title>Node7&#45;&gt;Node8</title>
<path fill="none" stroke="midnightblue" d="M471.98,-58.25C471.59,-50.94 471.04,-40.69 470.56,-31.7"/>
<polygon fill="midnightblue" stroke="midnightblue" points="474.05,-31.44 470.02,-21.64 467.06,-31.82 474.05,-31.44"/>
</g>
<!-- Node9 -->
<g id="node9" class="node">
<title>Node9</title>
<g id="a_node9"><a xlink:title=" ">
<polygon fill="none" stroke="#bfbfbf" points="516,-0.5 516,-21.5 577,-21.5 577,-0.5 516,-0.5"/>
<text text-anchor="middle" x="546.5" y="-7.9" font-family="Helvetica,sans-Serif" font-size="12.00">cstddef</text>
</a>
</g>
</g>
<!-- Node7&#45;&gt;Node9 -->
<g id="edge8" class="edge">
<title>Node7&#45;&gt;Node9</title>
<path fill="none" stroke="midnightblue" d="M485.39,-58.25C496.43,-49.89 512.53,-37.71 525.44,-27.94"/>
<polygon fill="midnightblue" stroke="midnightblue" points="527.9,-30.47 533.76,-21.64 523.67,-24.89 527.9,-30.47"/>
</g>
<!-- Node10&#45;&gt;Node5 -->
<g id="edge11" class="edge">
<title>Node10&#45;&gt;Node5</title>
<path fill="none" stroke="midnightblue" d="M367.53,-58.37C347.94,-49.38 318.5,-35.87 296.45,-25.75"/>
<polygon fill="midnightblue" stroke="midnightblue" points="297.75,-22.49 287.2,-21.5 294.83,-28.85 297.75,-22.49"/>
</g>
<!-- Node11 -->
<g id="node11" class="node">
<title>Node11</title>
<g id="a_node11"><a xlink:title=" ">
<polygon fill="none" stroke="#bfbfbf" points="356.5,-0.5 356.5,-21.5 420.5,-21.5 420.5,-0.5 356.5,-0.5"/>
<text text-anchor="middle" x="388.5" y="-7.9" font-family="Helvetica,sans-Serif" font-size="12.00">random</text>
</a>
</g>
</g>
<!-- Node10&#45;&gt;Node11 -->
<g id="edge10" class="edge">
<title>Node10&#45;&gt;Node11</title>
<path fill="none" stroke="midnightblue" d="M388.5,-58.25C388.5,-50.94 388.5,-40.69 388.5,-31.7"/>
<polygon fill="midnightblue" stroke="midnightblue" points="392,-31.64 388.5,-21.64 385,-31.64 392,-31.64"/>
</g>
</g>
</svg>
