<?xml version="1.0" encoding="UTF-8" standalone="no"?>
<!DOCTYPE svg PUBLIC "-//W3C//DTD SVG 1.1//EN"
 "http://www.w3.org/Graphics/SVG/1.1/DTD/svg11.dtd">
<!-- Generated by graphviz version 2.43.0 (0)
 -->
<!-- Title: random.h Pages: 1 -->
<!--zoomable 378 -->
<svg id="main" version="1.1" xmlns="http://www.w3.org/2000/svg" xmlns:xlink="http://www.w3.org/1999/xlink" xml:space="preserve" onload="init(evt)">
<style type="text/css"><![CDATA[
.edge:hover path { stroke: red; }
.edge:hover polygon { stroke: red; fill: red; }
]]></style>
<script type="text/javascript"><![CDATA[
var edges = document.getElementsByTagName('g');
if (edges && edges.length) {
  for (var i=0;i<edges.length;i++) {
    if (edges[i].id.substr(0,4)=='edge') {
      edges[i].setAttribute('class','edge');
    }
  }
}
]]></script>
        <defs>
                <circle id="rim" cx="0" cy="0" r="7"/>
                <circle id="rim2" cx="0" cy="0" r="3.5"/>
                <g id="zoomPlus">
                        <use xlink:href="#rim" fill="#404040">
                                <set attributeName="fill" to="#808080" begin="zoomplus.mouseover" end="zoomplus.mouseout"/>
                        </use>
                        <path d="M-4,0h8M0,-4v8" fill="none" stroke="white" stroke-width="1.5" pointer-events="none"/>
                </g>
                <g id="zoomMin">
                        <use xlink:href="#rim" fill="#404040">
                                <set attributeName="fill" to="#808080" begin="zoomminus.mouseover" end="zoomminus.mouseout"/>
                        </use>
                        <path d="M-4,0h8" fill="none" stroke="white" stroke-width="1.5" pointer-events="none"/>
                </g>
                <g id="dirArrow">
                        <path fill="none" stroke="white" stroke-width="1.5" d="M0,-3.0v7 M-2.5,-0.5L0,-3.0L2.5,-0.5"/>
                </g>
               <g id="resetDef">
                       <use xlink:href="#rim2" fill="#404040">
                               <set attributeName="fill" to="#808080" begin="reset.mouseover" end="reset.mouseout"/>
                       </use>
               </g>
        </defs>

<script type="text/javascript">
var viewWidth = 650;
var viewHeight = 378;
var sectionId = 'dynsection-1';
</script>
<script xlink:href="svgpan.js"/>
<svg id="graph" class="graph">
<g id="viewport">
<title>random.h</title>
<!-- Node1 -->
<g id="node1" class="node">
<title>Node1</title>
<g id="a_node1"><a xlink:title="Random engine implementations for Markov.">
<polygon fill="#bfbfbf" stroke="black" points="373,-348.5 373,-369.5 448,-369.5 448,-348.5 373,-348.5"/>
<text text-anchor="middle" x="410.5" y="-355.9" font-family="Helvetica,sans-Serif" font-size="12.00">random.h</text>
</a>
</g>
</g>
<!-- Node2 -->
<g id="node2" class="node">
<title>Node2</title>
<g id="a_node2"><a xlink:href="node_8h.html" target="_top" xlink:title="Node class template.">
<polygon fill="none" stroke="black" points="353.5,-290.5 353.5,-311.5 411.5,-311.5 411.5,-290.5 353.5,-290.5"/>
<text text-anchor="middle" x="382.5" y="-297.9" font-family="Helvetica,sans-Serif" font-size="12.00">node.h</text>
</a>
</g>
</g>
<!-- Node1&#45;&gt;Node2 -->
<g id="edge1" class="edge">
<title>Node1&#45;&gt;Node2</title>
<path fill="none" stroke="midnightblue" d="M401.02,-339.04C396.42,-329.83 391.08,-319.16 387.32,-311.64"/>
<polygon fill="midnightblue" stroke="midnightblue" points="398.02,-340.87 405.62,-348.25 404.28,-337.74 398.02,-340.87"/>
</g>
<!-- Node17 -->
<g id="node17" class="node">
<title>Node17</title>
<g id="a_node17"><a xlink:href="cudarandom_8h.html" target="_top" xlink:title="Extension of Markov::Random::Marsaglia for CUDA.">
<polygon fill="none" stroke="black" points="484.5,-232.5 484.5,-253.5 588.5,-253.5 588.5,-232.5 484.5,-232.5"/>
<text text-anchor="middle" x="536.5" y="-239.9" font-family="Helvetica,sans-Serif" font-size="12.00">cudarandom.h</text>
</a>
</g>
</g>
<!-- Node1&#45;&gt;Node17 -->
<g id="edge17" class="edge">
<title>Node1&#45;&gt;Node17</title>
<path fill="none" stroke="midnightblue" d="M428.76,-341.48C455.44,-317.34 504.23,-273.19 525.78,-253.69"/>
<polygon fill="midnightblue" stroke="midnightblue" points="426.31,-338.98 421.24,-348.28 431.01,-344.17 426.31,-338.98"/>
</g>
<!-- Node3 -->
<g id="node3" class="node">
<title>Node3</title>
<g id="a_node3"><a xlink:href="model_8h.html" target="_top" xlink:title="Model class template.">
<polygon fill="none" stroke="black" points="327,-232.5 327,-253.5 392,-253.5 392,-232.5 327,-232.5"/>
<text text-anchor="middle" x="359.5" y="-239.9" font-family="Helvetica,sans-Serif" font-size="12.00">model.h</text>
</a>
</g>
</g>
<!-- Node2&#45;&gt;Node3 -->
<g id="edge2" class="edge">
<title>Node2&#45;&gt;Node3</title>
<path fill="none" stroke="midnightblue" d="M374.59,-280.75C370.84,-271.61 366.51,-261.08 363.46,-253.64"/>
<polygon fill="midnightblue" stroke="midnightblue" points="371.46,-282.33 378.49,-290.25 377.93,-279.67 371.46,-282.33"/>
</g>
<!-- Node4 -->
<g id="node4" class="node">
<title>Node4</title>
<g id="a_node4"><a xlink:href="dllmain_8cpp.html" target="_top" xlink:title="DLLMain for dynamic windows library.">
<polygon fill="none" stroke="black" points="122.5,-174.5 122.5,-195.5 208.5,-195.5 208.5,-174.5 122.5,-174.5"/>
<text text-anchor="middle" x="165.5" y="-181.9" font-family="Helvetica,sans-Serif" font-size="12.00">dllmain.cpp</text>
</a>
</g>
</g>
<!-- Node3&#45;&gt;Node4 -->
<g id="edge3" class="edge">
<title>Node3&#45;&gt;Node4</title>
<path fill="none" stroke="midnightblue" d="M316.96,-229.72C281.34,-219.44 231.24,-204.98 198.57,-195.55"/>
<polygon fill="midnightblue" stroke="midnightblue" points="316.01,-233.09 326.59,-232.5 317.95,-226.36 316.01,-233.09"/>
</g>
<!-- Node5 -->
<g id="node5" class="node">
<title>Node5</title>
<g id="a_node5"><a xlink:href="markov_passwords_8h.html" target="_top" xlink:title="Wrapper for Markov::Model to use with char represented models.">
<polygon fill="none" stroke="black" points="226.5,-174.5 226.5,-195.5 360.5,-195.5 360.5,-174.5 226.5,-174.5"/>
<text text-anchor="middle" x="293.5" y="-181.9" font-family="Helvetica,sans-Serif" font-size="12.00">markovPasswords.h</text>
</a>
</g>
</g>
<!-- Node3&#45;&gt;Node5 -->
<g id="edge4" class="edge">
<title>Node3&#45;&gt;Node5</title>
<path fill="none" stroke="midnightblue" d="M340.22,-225.65C328.75,-215.91 314.57,-203.88 304.86,-195.64"/>
<polygon fill="midnightblue" stroke="midnightblue" points="338.11,-228.44 348,-232.25 342.64,-223.11 338.11,-228.44"/>
</g>
<!-- Node16 -->
<g id="node16" class="node">
<title>Node16</title>
<g id="a_node16"><a xlink:href="_unit_tests_8cpp.html" target="_top" xlink:title="Unit tests with Microsoft::VisualStudio::CppUnitTestFramework.">
<polygon fill="none" stroke="black" points="379,-174.5 379,-195.5 474,-195.5 474,-174.5 379,-174.5"/>
<text text-anchor="middle" x="426.5" y="-181.9" font-family="Helvetica,sans-Serif" font-size="12.00">UnitTests.cpp</text>
</a>
</g>
</g>
<!-- Node3&#45;&gt;Node16 -->
<g id="edge16" class="edge">
<title>Node3&#45;&gt;Node16</title>
<path fill="none" stroke="midnightblue" d="M379.07,-225.65C390.72,-215.91 405.11,-203.88 414.96,-195.64"/>
<polygon fill="midnightblue" stroke="midnightblue" points="376.6,-223.15 371.17,-232.25 381.09,-228.52 376.6,-223.15"/>
</g>
<!-- Node6 -->
<g id="node6" class="node">
<title>Node6</title>
<g id="a_node6"><a xlink:href="markov_passwords_8cpp.html" target="_top" xlink:title="Wrapper for Markov::Model to use with char represented models.">
<polygon fill="none" stroke="black" points="0,-116.5 0,-137.5 149,-137.5 149,-116.5 0,-116.5"/>
<text text-anchor="middle" x="74.5" y="-123.9" font-family="Helvetica,sans-Serif" font-size="12.00">markovPasswords.cpp</text>
</a>
</g>
</g>
<!-- Node5&#45;&gt;Node6 -->
<g id="edge5" class="edge">
<title>Node5&#45;&gt;Node6</title>
<path fill="none" stroke="midnightblue" d="M245.99,-171.85C205.69,-161.55 148.69,-146.97 111.66,-137.5"/>
<polygon fill="midnightblue" stroke="midnightblue" points="245.3,-175.29 255.85,-174.37 247.03,-168.5 245.3,-175.29"/>
</g>
<!-- Node7 -->
<g id="node7" class="node">
<title>Node7</title>
<g id="a_node7"><a xlink:href="model_matrix_8h.html" target="_top" xlink:title="An extension of Markov::API::MarkovPasswords.">
<polygon fill="none" stroke="black" points="205,-116.5 205,-137.5 308,-137.5 308,-116.5 205,-116.5"/>
<text text-anchor="middle" x="256.5" y="-123.9" font-family="Helvetica,sans-Serif" font-size="12.00">modelMatrix.h</text>
</a>
</g>
</g>
<!-- Node5&#45;&gt;Node7 -->
<g id="edge6" class="edge">
<title>Node5&#45;&gt;Node7</title>
<path fill="none" stroke="midnightblue" d="M281.36,-165.63C275.19,-156.29 267.94,-145.32 262.87,-137.64"/>
<polygon fill="midnightblue" stroke="midnightblue" points="278.62,-167.83 287.06,-174.25 284.46,-163.97 278.62,-167.83"/>
</g>
<!-- Node9 -->
<g id="node9" class="node">
<title>Node9</title>
<g id="a_node9"><a xlink:href="_markov_a_p_i_c_l_i_2src_2main_8cpp.html" target="_top" xlink:title="Test cases for Markov::API::ModelMatrix.">
<polygon fill="none" stroke="black" points="75.5,-58.5 75.5,-79.5 147.5,-79.5 147.5,-58.5 75.5,-58.5"/>
<text text-anchor="middle" x="111.5" y="-65.9" font-family="Helvetica,sans-Serif" font-size="12.00">main.cpp</text>
</a>
</g>
</g>
<!-- Node5&#45;&gt;Node9 -->
<g id="edge13" class="edge">
<title>Node5&#45;&gt;Node9</title>
<path fill="none" stroke="midnightblue" d="M259.55,-170.48C240.18,-162.18 215.8,-150.72 195.5,-138 166.88,-120.07 136.98,-93.74 121.75,-79.68"/>
<polygon fill="midnightblue" stroke="midnightblue" points="258.31,-173.75 268.89,-174.4 261.03,-167.3 258.31,-173.75"/>
</g>
<!-- Node14 -->
<g id="node14" class="node">
<title>Node14</title>
<g id="a_node14"><a xlink:href="_generate_8cpp.html" target="_top" xlink:title="Generation Page.">
<polygon fill="none" stroke="black" points="326.5,-116.5 326.5,-137.5 424.5,-137.5 424.5,-116.5 326.5,-116.5"/>
<text text-anchor="middle" x="375.5" y="-123.9" font-family="Helvetica,sans-Serif" font-size="12.00">Generate.cpp</text>
</a>
</g>
</g>
<!-- Node5&#45;&gt;Node14 -->
<g id="edge14" class="edge">
<title>Node5&#45;&gt;Node14</title>
<path fill="none" stroke="midnightblue" d="M316.21,-168.49C330.68,-158.61 348.97,-146.12 361.38,-137.64"/>
<polygon fill="midnightblue" stroke="midnightblue" points="314.07,-165.72 307.78,-174.25 318.02,-171.5 314.07,-165.72"/>
</g>
<!-- Node15 -->
<g id="node15" class="node">
<title>Node15</title>
<g id="a_node15"><a xlink:href="_train_8cpp.html" target="_top" xlink:title="training page for GUI">
<polygon fill="none" stroke="black" points="443,-116.5 443,-137.5 514,-137.5 514,-116.5 443,-116.5"/>
<text text-anchor="middle" x="478.5" y="-123.9" font-family="Helvetica,sans-Serif" font-size="12.00">Train.cpp</text>
</a>
</g>
</g>
<!-- Node5&#45;&gt;Node15 -->
<g id="edge15" class="edge">
<title>Node5&#45;&gt;Node15</title>
<path fill="none" stroke="midnightblue" d="M334.94,-171.46C368.9,-161.18 416.23,-146.85 447.11,-137.5"/>
<polygon fill="midnightblue" stroke="midnightblue" points="333.86,-168.13 325.3,-174.37 335.89,-174.83 333.86,-168.13"/>
</g>
<!-- Node8 -->
<g id="node8" class="node">
<title>Node8</title>
<g id="a_node8"><a xlink:href="model_matrix_8cpp.html" target="_top" xlink:title="An extension of Markov::API::MarkovPasswords.">
<polygon fill="none" stroke="black" points="166,-58.5 166,-79.5 283,-79.5 283,-58.5 166,-58.5"/>
<text text-anchor="middle" x="224.5" y="-65.9" font-family="Helvetica,sans-Serif" font-size="12.00">modelMatrix.cpp</text>
</a>
</g>
</g>
<!-- Node7&#45;&gt;Node8 -->
<g id="edge7" class="edge">
<title>Node7&#45;&gt;Node8</title>
<path fill="none" stroke="midnightblue" d="M245.84,-107.34C240.53,-98.06 234.35,-87.24 230.01,-79.64"/>
<polygon fill="midnightblue" stroke="midnightblue" points="242.93,-109.3 250.93,-116.25 249,-105.83 242.93,-109.3"/>
</g>
<!-- Node7&#45;&gt;Node9 -->
<g id="edge8" class="edge">
<title>Node7&#45;&gt;Node9</title>
<path fill="none" stroke="midnightblue" d="M221.94,-112.65C195.5,-102.44 159.68,-88.61 136.1,-79.5"/>
<polygon fill="midnightblue" stroke="midnightblue" points="220.98,-116.04 231.57,-116.37 223.51,-109.51 220.98,-116.04"/>
</g>
<!-- Node10 -->
<g id="node10" class="node">
<title>Node10</title>
<g id="a_node10"><a xlink:href="markopy_8cpp.html" target="_top" xlink:title="CPython wrapper for libmarkov utils.">
<polygon fill="none" stroke="black" points="301.5,-58.5 301.5,-79.5 395.5,-79.5 395.5,-58.5 301.5,-58.5"/>
<text text-anchor="middle" x="348.5" y="-65.9" font-family="Helvetica,sans-Serif" font-size="12.00">markopy.cpp</text>
</a>
</g>
</g>
<!-- Node7&#45;&gt;Node10 -->
<g id="edge9" class="edge">
<title>Node7&#45;&gt;Node10</title>
<path fill="none" stroke="midnightblue" d="M281.52,-110.77C297.83,-100.85 318.6,-88.2 332.66,-79.64"/>
<polygon fill="midnightblue" stroke="midnightblue" points="279.25,-108.06 272.53,-116.25 282.89,-114.04 279.25,-108.06"/>
</g>
<!-- Node11 -->
<g id="node11" class="node">
<title>Node11</title>
<g id="a_node11"><a xlink:href="cuda_model_matrix_8h.html" target="_top" xlink:title="CUDA accelerated extension of Markov::API::ModelMatrix.">
<polygon fill="none" stroke="black" points="414,-58.5 414,-79.5 545,-79.5 545,-58.5 414,-58.5"/>
<text text-anchor="middle" x="479.5" y="-65.9" font-family="Helvetica,sans-Serif" font-size="12.00">cudaModelMatrix.h</text>
</a>
</g>
</g>
<!-- Node7&#45;&gt;Node11 -->
<g id="edge10" class="edge">
<title>Node7&#45;&gt;Node11</title>
<path fill="none" stroke="midnightblue" d="M304.36,-113.98C345.39,-103.68 403.71,-89.03 441.58,-79.52"/>
<polygon fill="midnightblue" stroke="midnightblue" points="303.43,-110.61 294.58,-116.44 305.13,-117.4 303.43,-110.61"/>
</g>
<!-- Node12 -->
<g id="node12" class="node">
<title>Node12</title>
<g id="a_node12"><a xlink:href="cuda_model_matrix_8cu.html" target="_top" xlink:title="CUDA accelerated extension of Markov::API::ModelMatrix.">
<polygon fill="none" stroke="black" points="505,-0.5 505,-21.5 642,-21.5 642,-0.5 505,-0.5"/>
<text text-anchor="middle" x="573.5" y="-7.9" font-family="Helvetica,sans-Serif" font-size="12.00">cudaModelMatrix.cu</text>
</a>
</g>
</g>
<!-- Node11&#45;&gt;Node12 -->
<g id="edge11" class="edge">
<title>Node11&#45;&gt;Node12</title>
<path fill="none" stroke="midnightblue" d="M504.6,-53.05C521.33,-43.08 542.82,-30.28 557.31,-21.64"/>
<polygon fill="midnightblue" stroke="midnightblue" points="502.67,-50.12 495.87,-58.25 506.26,-56.13 502.67,-50.12"/>
</g>
<!-- Node13 -->
<g id="node13" class="node">
<title>Node13</title>
<g id="a_node13"><a xlink:href="main_8cu.html" target="_top" xlink:title="Simple test file to check libcudamarkov.">
<polygon fill="none" stroke="black" points="422,-0.5 422,-21.5 487,-21.5 487,-0.5 422,-0.5"/>
<text text-anchor="middle" x="454.5" y="-7.9" font-family="Helvetica,sans-Serif" font-size="12.00">main.cu</text>
</a>
</g>
</g>
<!-- Node11&#45;&gt;Node13 -->
<g id="edge12" class="edge">
<title>Node11&#45;&gt;Node13</title>
<path fill="none" stroke="midnightblue" d="M471.04,-49.04C466.93,-39.83 462.16,-29.16 458.8,-21.64"/>
<polygon fill="midnightblue" stroke="midnightblue" points="467.87,-50.54 475.15,-58.25 474.26,-47.69 467.87,-50.54"/>
</g>
<!-- Node17&#45;&gt;Node12 -->
<g id="edge18" class="edge">
<title>Node17&#45;&gt;Node12</title>
<path fill="none" stroke="midnightblue" d="M539.63,-222.53C547.22,-175.37 566.37,-56.33 571.95,-21.63"/>
<polygon fill="midnightblue" stroke="midnightblue" points="536.18,-221.98 538.04,-232.41 543.09,-223.09 536.18,-221.98"/>
</g>
</g>
</svg>
        <g id="navigator" transform="translate(0 0)" fill="#404254">
                <rect fill="#f2f5e9" fill-opacity="0.5" stroke="#606060" stroke-width=".5" x="0" y="0" width="60" height="60"/>
                <use id="zoomplus" xlink:href="#zoomPlus" x="17" y="9" onmousedown="handleZoom(evt,'in')"/>
                <use id="zoomminus" xlink:href="#zoomMin" x="42" y="9" onmousedown="handleZoom(evt,'out')"/>
                <use id="reset" xlink:href="#resetDef" x="30" y="36" onmousedown="handleReset()"/>
                <g id="arrowUp" xlink:href="#dirArrow" transform="translate(30 24)" onmousedown="handlePan(0,-1)">
                  <use xlink:href="#rim" fill="#404040">
                        <set attributeName="fill" to="#808080" begin="arrowUp.mouseover" end="arrowUp.mouseout"/>
                  </use>
                  <path fill="none" stroke="white" stroke-width="1.5" d="M0,-3.0v7 M-2.5,-0.5L0,-3.0L2.5,-0.5"/>
                </g>
                <g id="arrowRight" xlink:href="#dirArrow" transform="rotate(90) translate(36 -43)" onmousedown="handlePan(1,0)">
                  <use xlink:href="#rim" fill="#404040">
                        <set attributeName="fill" to="#808080" begin="arrowRight.mouseover" end="arrowRight.mouseout"/>
                  </use>
                  <path fill="none" stroke="white" stroke-width="1.5" d="M0,-3.0v7 M-2.5,-0.5L0,-3.0L2.5,-0.5"/>
                </g>
                <g id="arrowDown" xlink:href="#dirArrow" transform="rotate(180) translate(-30 -48)" onmousedown="handlePan(0,1)">
                  <use xlink:href="#rim" fill="#404040">
                        <set attributeName="fill" to="#808080" begin="arrowDown.mouseover" end="arrowDown.mouseout"/>
                  </use>
                  <path fill="none" stroke="white" stroke-width="1.5" d="M0,-3.0v7 M-2.5,-0.5L0,-3.0L2.5,-0.5"/>
                </g>
                <g id="arrowLeft" xlink:href="#dirArrow" transform="rotate(270) translate(-36 17)" onmousedown="handlePan(-1,0)">
                  <use xlink:href="#rim" fill="#404040">
                        <set attributeName="fill" to="#808080" begin="arrowLeft.mouseover" end="arrowLeft.mouseout"/>
                  </use>
                  <path fill="none" stroke="white" stroke-width="1.5" d="M0,-3.0v7 M-2.5,-0.5L0,-3.0L2.5,-0.5"/>
                </g>
        </g>
        <svg viewBox="0 0 15 15" width="100%" height="30px" preserveAspectRatio="xMaxYMin meet">
         <g id="arrow_out" transform="scale(0.3 0.3)">
          <a xlink:href="random_8h__dep__incl_org.svg" target="_base">
           <rect id="button" ry="5" rx="5" y="6" x="6" height="38" width="38"
                fill="#f2f5e9" fill-opacity="0.5" stroke="#606060" stroke-width="1.0"/>
           <path id="arrow"
             d="M 11.500037,31.436501 C 11.940474,20.09759 22.043105,11.32322 32.158766,21.979434 L 37.068811,17.246167 C 37.068811,17.246167 37.088388,32 37.088388,32 L 22.160133,31.978069 C 22.160133,31.978069 26.997745,27.140456 26.997745,27.140456 C 18.528582,18.264221 13.291696,25.230495 11.500037,31.436501 z"
             style="fill:#404040;"/>
          </a>
         </g>
        </svg>
</svg>
