<?xml version="1.0" encoding="UTF-8" standalone="no"?>
<!DOCTYPE svg PUBLIC "-//W3C//DTD SVG 1.1//EN"
 "http://www.w3.org/Graphics/SVG/1.1/DTD/svg11.dtd">
<!-- Generated by graphviz version 2.43.0 (0)
 -->
<!-- Title: Markopy/MarkovModel/src/random.h Pages: 1 -->
<svg width="162pt" height="101pt"
 viewBox="0.00 0.00 161.50 101.00" xmlns="http://www.w3.org/2000/svg" xmlns:xlink="http://www.w3.org/1999/xlink">
<g id="graph0" class="graph" transform="scale(1 1) rotate(0) translate(4 97)">
<title>Markopy/MarkovModel/src/random.h</title>
<!-- Node1 -->
<g id="node1" class="node">
<title>Node1</title>
<g id="a_node1"><a xlink:title="Random engine implementations for Markov.">
<polygon fill="#bfbfbf" stroke="black" points="0,-58.5 0,-92.5 152,-92.5 152,-58.5 0,-58.5"/>
<text text-anchor="start" x="8" y="-78.9" font-family="Helvetica,sans-Serif" font-size="12.00">Markopy/MarkovModel</text>
<text text-anchor="middle" x="76" y="-65.9" font-family="Helvetica,sans-Serif" font-size="12.00">/src/random.h</text>
</a>
</g>
</g>
<!-- Node2 -->
<g id="node2" class="node">
<title>Node2</title>
<g id="a_node2"><a xlink:title=" ">
<polygon fill="none" stroke="#bfbfbf" points="2,-0.5 2,-21.5 66,-21.5 66,-0.5 2,-0.5"/>
<text text-anchor="middle" x="34" y="-7.9" font-family="Helvetica,sans-Serif" font-size="12.00">random</text>
</a>
</g>
</g>
<!-- Node1&#45;&gt;Node2 -->
<g id="edge1" class="edge">
<title>Node1&#45;&gt;Node2</title>
<path fill="none" stroke="midnightblue" d="M65.18,-58.4C59.41,-49.81 52.28,-39.21 46.3,-30.31"/>
<polygon fill="midnightblue" stroke="midnightblue" points="49.07,-28.15 40.59,-21.8 43.26,-32.05 49.07,-28.15"/>
</g>
<!-- Node3 -->
<g id="node3" class="node">
<title>Node3</title>
<g id="a_node3"><a xlink:title=" ">
<polygon fill="none" stroke="#bfbfbf" points="84.5,-0.5 84.5,-21.5 153.5,-21.5 153.5,-0.5 84.5,-0.5"/>
<text text-anchor="middle" x="119" y="-7.9" font-family="Helvetica,sans-Serif" font-size="12.00">iostream</text>
</a>
</g>
</g>
<!-- Node1&#45;&gt;Node3 -->
<g id="edge2" class="edge">
<title>Node1&#45;&gt;Node3</title>
<path fill="none" stroke="midnightblue" d="M87.07,-58.4C92.98,-49.81 100.28,-39.21 106.41,-30.31"/>
<polygon fill="midnightblue" stroke="midnightblue" points="109.47,-32.02 112.26,-21.8 103.71,-28.05 109.47,-32.02"/>
</g>
</g>
</svg>
