<?xml version="1.0" encoding="UTF-8" standalone="no"?>
<!DOCTYPE svg PUBLIC "-//W3C//DTD SVG 1.1//EN"
 "http://www.w3.org/Graphics/SVG/1.1/DTD/svg11.dtd">
<!-- Generated by graphviz version 2.43.0 (0)
 -->
<!-- Title: Markopy/MarkovModel/src/random.h Pages: 1 -->
<!--zoomable 469 -->
<svg id="main" version="1.1" xmlns="http://www.w3.org/2000/svg" xmlns:xlink="http://www.w3.org/1999/xlink" xml:space="preserve" onload="init(evt)">
<style type="text/css"><![CDATA[
.edge:hover path { stroke: red; }
.edge:hover polygon { stroke: red; fill: red; }
]]></style>
<script type="text/javascript"><![CDATA[
var edges = document.getElementsByTagName('g');
if (edges && edges.length) {
  for (var i=0;i<edges.length;i++) {
    if (edges[i].id.substr(0,4)=='edge') {
      edges[i].setAttribute('class','edge');
    }
  }
}
]]></script>
        <defs>
                <circle id="rim" cx="0" cy="0" r="7"/>
                <circle id="rim2" cx="0" cy="0" r="3.5"/>
                <g id="zoomPlus">
                        <use xlink:href="#rim" fill="#404040">
                                <set attributeName="fill" to="#808080" begin="zoomplus.mouseover" end="zoomplus.mouseout"/>
                        </use>
                        <path d="M-4,0h8M0,-4v8" fill="none" stroke="white" stroke-width="1.5" pointer-events="none"/>
                </g>
                <g id="zoomMin">
                        <use xlink:href="#rim" fill="#404040">
                                <set attributeName="fill" to="#808080" begin="zoomminus.mouseover" end="zoomminus.mouseout"/>
                        </use>
                        <path d="M-4,0h8" fill="none" stroke="white" stroke-width="1.5" pointer-events="none"/>
                </g>
                <g id="dirArrow">
                        <path fill="none" stroke="white" stroke-width="1.5" d="M0,-3.0v7 M-2.5,-0.5L0,-3.0L2.5,-0.5"/>
                </g>
               <g id="resetDef">
                       <use xlink:href="#rim2" fill="#404040">
                               <set attributeName="fill" to="#808080" begin="reset.mouseover" end="reset.mouseout"/>
                       </use>
               </g>
        </defs>

<script type="text/javascript">
var viewWidth = 1006;
var viewHeight = 469;
var sectionId = 'dynsection-1';
</script>
<script xlink:href="svgpan.js"/>
<svg id="graph" class="graph">
<g id="viewport">
<title>Markopy/MarkovModel/src/random.h</title>
<!-- Node1 -->
<g id="node1" class="node">
<title>Node1</title>
<g id="a_node1"><a xlink:title="Random engine implementations for Markov.">
<polygon fill="#bfbfbf" stroke="black" points="718.5,-426.5 718.5,-460.5 870.5,-460.5 870.5,-426.5 718.5,-426.5"/>
<text text-anchor="start" x="726.5" y="-446.9" font-family="Helvetica,sans-Serif" font-size="12.00">Markopy/MarkovModel</text>
<text text-anchor="middle" x="794.5" y="-433.9" font-family="Helvetica,sans-Serif" font-size="12.00">/src/random.h</text>
</a>
</g>
</g>
<!-- Node2 -->
<g id="node2" class="node">
<title>Node2</title>
<g id="a_node2"><a xlink:href="node_8h.html" target="_top" xlink:title="Node class template.">
<polygon fill="none" stroke="black" points="666.5,-355.5 666.5,-389.5 818.5,-389.5 818.5,-355.5 666.5,-355.5"/>
<text text-anchor="start" x="674.5" y="-375.9" font-family="Helvetica,sans-Serif" font-size="12.00">Markopy/MarkovModel</text>
<text text-anchor="middle" x="742.5" y="-362.9" font-family="Helvetica,sans-Serif" font-size="12.00">/src/node.h</text>
</a>
</g>
</g>
<!-- Node1&#45;&gt;Node2 -->
<g id="edge1" class="edge">
<title>Node1&#45;&gt;Node2</title>
<path fill="none" stroke="midnightblue" d="M776.24,-418.28C769.17,-408.88 761.24,-398.37 754.86,-389.9"/>
<polygon fill="midnightblue" stroke="midnightblue" points="773.63,-420.62 782.44,-426.5 779.22,-416.4 773.63,-420.62"/>
</g>
<!-- Node18 -->
<g id="node18" class="node">
<title>Node18</title>
<g id="a_node18"><a xlink:href="cudarandom_8h.html" target="_top" xlink:title="Extension of Markov::Random::Marsaglia for CUDA.">
<polygon fill="none" stroke="black" points="831,-284.5 831,-318.5 998,-318.5 998,-284.5 831,-284.5"/>
<text text-anchor="start" x="839" y="-304.9" font-family="Helvetica,sans-Serif" font-size="12.00">Markopy/CudaMarkovAPI</text>
<text text-anchor="middle" x="914.5" y="-291.9" font-family="Helvetica,sans-Serif" font-size="12.00">/src/cudarandom.h</text>
</a>
</g>
</g>
<!-- Node1&#45;&gt;Node18 -->
<g id="edge18" class="edge">
<title>Node1&#45;&gt;Node18</title>
<path fill="none" stroke="midnightblue" d="M815,-418.59C839.38,-390.14 879.44,-343.4 900.53,-318.8"/>
<polygon fill="midnightblue" stroke="midnightblue" points="812.12,-416.57 808.27,-426.44 817.43,-421.13 812.12,-416.57"/>
</g>
<!-- Node3 -->
<g id="node3" class="node">
<title>Node3</title>
<g id="a_node3"><a xlink:href="model_8h.html" target="_top" xlink:title="Model class template.">
<polygon fill="none" stroke="black" points="629.5,-284.5 629.5,-318.5 781.5,-318.5 781.5,-284.5 629.5,-284.5"/>
<text text-anchor="start" x="637.5" y="-304.9" font-family="Helvetica,sans-Serif" font-size="12.00">Markopy/MarkovModel</text>
<text text-anchor="middle" x="705.5" y="-291.9" font-family="Helvetica,sans-Serif" font-size="12.00">/src/model.h</text>
</a>
</g>
</g>
<!-- Node2&#45;&gt;Node3 -->
<g id="edge2" class="edge">
<title>Node2&#45;&gt;Node3</title>
<path fill="none" stroke="midnightblue" d="M729.05,-346.41C724.13,-337.24 718.7,-327.11 714.29,-318.9"/>
<polygon fill="midnightblue" stroke="midnightblue" points="726.11,-348.34 733.92,-355.5 732.28,-345.03 726.11,-348.34"/>
</g>
<!-- Node4 -->
<g id="node4" class="node">
<title>Node4</title>
<g id="a_node4"><a xlink:href="dllmain_8cpp.html" target="_top" xlink:title="DLLMain for dynamic windows library.">
<polygon fill="none" stroke="black" points="765.5,-213.5 765.5,-247.5 917.5,-247.5 917.5,-213.5 765.5,-213.5"/>
<text text-anchor="start" x="773.5" y="-233.9" font-family="Helvetica,sans-Serif" font-size="12.00">Markopy/MarkovModel</text>
<text text-anchor="middle" x="841.5" y="-220.9" font-family="Helvetica,sans-Serif" font-size="12.00">/src/dllmain.cpp</text>
</a>
</g>
</g>
<!-- Node3&#45;&gt;Node4 -->
<g id="edge3" class="edge">
<title>Node3&#45;&gt;Node4</title>
<path fill="none" stroke="midnightblue" d="M746.08,-279.91C766.42,-269.59 790.68,-257.28 809.66,-247.66"/>
<polygon fill="midnightblue" stroke="midnightblue" points="744.38,-276.85 737.04,-284.5 747.54,-283.09 744.38,-276.85"/>
</g>
<!-- Node5 -->
<g id="node5" class="node">
<title>Node5</title>
<g id="a_node5"><a xlink:href="markov_passwords_8h.html" target="_top" xlink:title="Wrapper for Markov::Model to use with char represented models.">
<polygon fill="none" stroke="black" points="357,-213.5 357,-247.5 514,-247.5 514,-213.5 357,-213.5"/>
<text text-anchor="start" x="365" y="-233.9" font-family="Helvetica,sans-Serif" font-size="12.00">Markopy/MarkovAPI/src</text>
<text text-anchor="middle" x="435.5" y="-220.9" font-family="Helvetica,sans-Serif" font-size="12.00">/markovPasswords.h</text>
</a>
</g>
</g>
<!-- Node3&#45;&gt;Node5 -->
<g id="edge4" class="edge">
<title>Node3&#45;&gt;Node5</title>
<path fill="none" stroke="midnightblue" d="M632.98,-281.97C590.93,-271.22 538.51,-257.83 498.25,-247.54"/>
<polygon fill="midnightblue" stroke="midnightblue" points="632.32,-285.41 642.88,-284.5 634.06,-278.63 632.32,-285.41"/>
</g>
<!-- Node17 -->
<g id="node17" class="node">
<title>Node17</title>
<g id="a_node17"><a xlink:href="_unit_tests_8cpp.html" target="_top" xlink:title="Unit tests with Microsoft::VisualStudio::CppUnitTestFramework.">
<polygon fill="none" stroke="black" points="541.5,-220 541.5,-241 747.5,-241 747.5,-220 541.5,-220"/>
<text text-anchor="middle" x="644.5" y="-227.4" font-family="Helvetica,sans-Serif" font-size="12.00">Markopy/UnitTests/UnitTests.cpp</text>
</a>
</g>
</g>
<!-- Node3&#45;&gt;Node17 -->
<g id="edge17" class="edge">
<title>Node3&#45;&gt;Node17</title>
<path fill="none" stroke="midnightblue" d="M684.59,-276.85C673.81,-264.66 661.26,-250.46 653.11,-241.24"/>
<polygon fill="midnightblue" stroke="midnightblue" points="682.11,-279.32 691.35,-284.5 687.35,-274.69 682.11,-279.32"/>
</g>
<!-- Node6 -->
<g id="node6" class="node">
<title>Node6</title>
<g id="a_node6"><a xlink:href="markov_passwords_8cpp.html" target="_top" xlink:title="Wrapper for Markov::Model to use with char represented models.">
<polygon fill="none" stroke="black" points="765,-142.5 765,-176.5 922,-176.5 922,-142.5 765,-142.5"/>
<text text-anchor="start" x="773" y="-162.9" font-family="Helvetica,sans-Serif" font-size="12.00">Markopy/MarkovAPI/src</text>
<text text-anchor="middle" x="843.5" y="-149.9" font-family="Helvetica,sans-Serif" font-size="12.00">/markovPasswords.cpp</text>
</a>
</g>
</g>
<!-- Node5&#45;&gt;Node6 -->
<g id="edge5" class="edge">
<title>Node5&#45;&gt;Node6</title>
<path fill="none" stroke="midnightblue" d="M524.26,-214.37C527.04,-213.91 529.79,-213.45 532.5,-213 631.54,-196.58 656.6,-194.25 755.5,-177 758.56,-176.47 761.68,-175.91 764.84,-175.35"/>
<polygon fill="midnightblue" stroke="midnightblue" points="523.39,-210.97 514.11,-216.07 524.55,-217.87 523.39,-210.97"/>
</g>
<!-- Node7 -->
<g id="node7" class="node">
<title>Node7</title>
<g id="a_node7"><a xlink:href="model_matrix_8h.html" target="_top" xlink:title="An extension of Markov::API::MarkovPasswords.">
<polygon fill="none" stroke="black" points="156,-142.5 156,-176.5 313,-176.5 313,-142.5 156,-142.5"/>
<text text-anchor="start" x="164" y="-162.9" font-family="Helvetica,sans-Serif" font-size="12.00">Markopy/MarkovAPI/src</text>
<text text-anchor="middle" x="234.5" y="-149.9" font-family="Helvetica,sans-Serif" font-size="12.00">/modelMatrix.h</text>
</a>
</g>
</g>
<!-- Node5&#45;&gt;Node7 -->
<g id="edge6" class="edge">
<title>Node5&#45;&gt;Node7</title>
<path fill="none" stroke="midnightblue" d="M379.12,-210.15C348.24,-199.55 310.43,-186.57 281.21,-176.54"/>
<polygon fill="midnightblue" stroke="midnightblue" points="378.29,-213.56 388.88,-213.5 380.56,-206.94 378.29,-213.56"/>
</g>
<!-- Node9 -->
<g id="node9" class="node">
<title>Node9</title>
<g id="a_node9"><a xlink:href="_markov_a_p_i_c_l_i_2src_2main_8cpp.html" target="_top" xlink:title="Test cases for Markov::API::ModelMatrix.">
<polygon fill="none" stroke="black" points="0,-71.5 0,-105.5 155,-105.5 155,-71.5 0,-71.5"/>
<text text-anchor="start" x="8" y="-91.9" font-family="Helvetica,sans-Serif" font-size="12.00">Markopy/MarkovAPICLI</text>
<text text-anchor="middle" x="77.5" y="-78.9" font-family="Helvetica,sans-Serif" font-size="12.00">/src/main.cpp</text>
</a>
</g>
</g>
<!-- Node5&#45;&gt;Node9 -->
<g id="edge14" class="edge">
<title>Node5&#45;&gt;Node9</title>
<path fill="none" stroke="midnightblue" d="M346.72,-220.33C274.59,-211.61 179.58,-196.89 146.5,-177 117.82,-159.75 96.39,-125.86 85.51,-105.69"/>
<polygon fill="midnightblue" stroke="midnightblue" points="346.4,-223.81 356.74,-221.52 347.22,-216.86 346.4,-223.81"/>
</g>
<!-- Node15 -->
<g id="node15" class="node">
<title>Node15</title>
<g id="a_node15"><a xlink:href="_generate_8cpp.html" target="_top" xlink:title="Generation Page.">
<polygon fill="none" stroke="black" points="331,-142.5 331,-176.5 530,-176.5 530,-142.5 331,-142.5"/>
<text text-anchor="start" x="339" y="-162.9" font-family="Helvetica,sans-Serif" font-size="12.00">Markopy/MarkovPasswordsGUI</text>
<text text-anchor="middle" x="430.5" y="-149.9" font-family="Helvetica,sans-Serif" font-size="12.00">/src/Generate.cpp</text>
</a>
</g>
</g>
<!-- Node5&#45;&gt;Node15 -->
<g id="edge15" class="edge">
<title>Node5&#45;&gt;Node15</title>
<path fill="none" stroke="midnightblue" d="M433.6,-203.25C432.96,-194.39 432.26,-184.77 431.69,-176.9"/>
<polygon fill="midnightblue" stroke="midnightblue" points="430.13,-203.78 434.34,-213.5 437.11,-203.27 430.13,-203.78"/>
</g>
<!-- Node16 -->
<g id="node16" class="node">
<title>Node16</title>
<g id="a_node16"><a xlink:href="_train_8cpp.html" target="_top" xlink:title="training page for GUI">
<polygon fill="none" stroke="black" points="548,-142.5 548,-176.5 747,-176.5 747,-142.5 548,-142.5"/>
<text text-anchor="start" x="556" y="-162.9" font-family="Helvetica,sans-Serif" font-size="12.00">Markopy/MarkovPasswordsGUI</text>
<text text-anchor="middle" x="647.5" y="-149.9" font-family="Helvetica,sans-Serif" font-size="12.00">/src/Train.cpp</text>
</a>
</g>
</g>
<!-- Node5&#45;&gt;Node16 -->
<g id="edge16" class="edge">
<title>Node5&#45;&gt;Node16</title>
<path fill="none" stroke="midnightblue" d="M494.54,-210.28C527.19,-199.66 567.28,-186.61 598.23,-176.54"/>
<polygon fill="midnightblue" stroke="midnightblue" points="493.1,-207.07 484.67,-213.5 495.26,-213.73 493.1,-207.07"/>
</g>
<!-- Node8 -->
<g id="node8" class="node">
<title>Node8</title>
<g id="a_node8"><a xlink:href="model_matrix_8cpp.html" target="_top" xlink:title="An extension of Markov::API::MarkovPasswords.">
<polygon fill="none" stroke="black" points="173,-71.5 173,-105.5 330,-105.5 330,-71.5 173,-71.5"/>
<text text-anchor="start" x="181" y="-91.9" font-family="Helvetica,sans-Serif" font-size="12.00">Markopy/MarkovAPI/src</text>
<text text-anchor="middle" x="251.5" y="-78.9" font-family="Helvetica,sans-Serif" font-size="12.00">/modelMatrix.cpp</text>
</a>
</g>
</g>
<!-- Node7&#45;&gt;Node8 -->
<g id="edge7" class="edge">
<title>Node7&#45;&gt;Node8</title>
<path fill="none" stroke="midnightblue" d="M240.9,-132.54C243.1,-123.6 245.5,-113.85 247.46,-105.9"/>
<polygon fill="midnightblue" stroke="midnightblue" points="237.44,-131.95 238.44,-142.5 244.23,-133.62 237.44,-131.95"/>
</g>
<!-- Node7&#45;&gt;Node9 -->
<g id="edge8" class="edge">
<title>Node7&#45;&gt;Node9</title>
<path fill="none" stroke="midnightblue" d="M188.89,-138.45C165.07,-127.98 136.31,-115.35 113.99,-105.54"/>
<polygon fill="midnightblue" stroke="midnightblue" points="187.52,-141.68 198.09,-142.5 190.34,-135.27 187.52,-141.68"/>
</g>
<!-- Node10 -->
<g id="node10" class="node">
<title>Node10</title>
<g id="a_node10"><a xlink:href="markopy_8cpp.html" target="_top" xlink:title="CPython wrapper for libmarkov utils.">
<polygon fill="none" stroke="black" points="533,-71.5 533,-105.5 678,-105.5 678,-71.5 533,-71.5"/>
<text text-anchor="start" x="541" y="-91.9" font-family="Helvetica,sans-Serif" font-size="12.00">Markopy/Markopy/src</text>
<text text-anchor="middle" x="605.5" y="-78.9" font-family="Helvetica,sans-Serif" font-size="12.00">/Module/markopy.cpp</text>
</a>
</g>
</g>
<!-- Node7&#45;&gt;Node10 -->
<g id="edge9" class="edge">
<title>Node7&#45;&gt;Node10</title>
<path fill="none" stroke="midnightblue" d="M323.27,-141.69C412.87,-125.31 437.06,-122.4 523.5,-106 526.5,-105.43 529.55,-104.85 532.64,-104.25"/>
<polygon fill="midnightblue" stroke="midnightblue" points="322.42,-138.28 313.21,-143.53 323.68,-145.17 322.42,-138.28"/>
</g>
<!-- Node11 -->
<g id="node11" class="node">
<title>Node11</title>
<g id="a_node11"><a xlink:href="cuda_model_matrix_8h.html" target="_top" xlink:title="CUDA accelerated extension of Markov::API::ModelMatrix.">
<polygon fill="none" stroke="black" points="348,-71.5 348,-105.5 515,-105.5 515,-71.5 348,-71.5"/>
<text text-anchor="start" x="356" y="-91.9" font-family="Helvetica,sans-Serif" font-size="12.00">Markopy/CudaMarkovAPI</text>
<text text-anchor="middle" x="431.5" y="-78.9" font-family="Helvetica,sans-Serif" font-size="12.00">/src/cudaModelMatrix.h</text>
</a>
</g>
</g>
<!-- Node7&#45;&gt;Node11 -->
<g id="edge10" class="edge">
<title>Node7&#45;&gt;Node11</title>
<path fill="none" stroke="midnightblue" d="M289.76,-139.15C320.02,-128.55 357.08,-115.57 385.72,-105.54"/>
<polygon fill="midnightblue" stroke="midnightblue" points="288.47,-135.89 280.19,-142.5 290.79,-142.49 288.47,-135.89"/>
</g>
<!-- Node12 -->
<g id="node12" class="node">
<title>Node12</title>
<g id="a_node12"><a xlink:href="cuda_model_matrix_8cu.html" target="_top" xlink:title="CUDA accelerated extension of Markov::API::ModelMatrix.">
<polygon fill="none" stroke="black" points="773,-0.5 773,-34.5 940,-34.5 940,-0.5 773,-0.5"/>
<text text-anchor="start" x="781" y="-20.9" font-family="Helvetica,sans-Serif" font-size="12.00">Markopy/CudaMarkovAPI</text>
<text text-anchor="middle" x="856.5" y="-7.9" font-family="Helvetica,sans-Serif" font-size="12.00">/src/cudaModelMatrix.cu</text>
</a>
</g>
</g>
<!-- Node11&#45;&gt;Node12 -->
<g id="edge11" class="edge">
<title>Node11&#45;&gt;Node12</title>
<path fill="none" stroke="midnightblue" d="M525.33,-70.71C615.32,-55.61 707.98,-41.14 772.94,-31.17"/>
<polygon fill="midnightblue" stroke="midnightblue" points="524.5,-67.3 515.22,-72.41 525.67,-74.2 524.5,-67.3"/>
</g>
<!-- Node13 -->
<g id="node13" class="node">
<title>Node13</title>
<g id="a_node13"><a xlink:href="main_8cu.html" target="_top" xlink:title="Simple test file to check libcudamarkov.">
<polygon fill="none" stroke="black" points="248,-0.5 248,-34.5 415,-34.5 415,-0.5 248,-0.5"/>
<text text-anchor="start" x="256" y="-20.9" font-family="Helvetica,sans-Serif" font-size="12.00">Markopy/CudaMarkovAPI</text>
<text text-anchor="middle" x="331.5" y="-7.9" font-family="Helvetica,sans-Serif" font-size="12.00">/src/main.cu</text>
</a>
</g>
</g>
<!-- Node11&#45;&gt;Node13 -->
<g id="edge12" class="edge">
<title>Node11&#45;&gt;Node13</title>
<path fill="none" stroke="midnightblue" d="M400.04,-65.79C385.43,-55.71 368.36,-43.93 354.91,-34.66"/>
<polygon fill="midnightblue" stroke="midnightblue" points="398.09,-68.7 408.31,-71.5 402.06,-62.94 398.09,-68.7"/>
</g>
<!-- Node14 -->
<g id="node14" class="node">
<title>Node14</title>
<g id="a_node14"><a xlink:href="cuda_markopy_8cu.html" target="_top" xlink:title=" ">
<polygon fill="none" stroke="black" points="432.5,-0.5 432.5,-34.5 618.5,-34.5 618.5,-0.5 432.5,-0.5"/>
<text text-anchor="start" x="440.5" y="-20.9" font-family="Helvetica,sans-Serif" font-size="12.00">Markopy/CudaMarkopy</text>
<text text-anchor="middle" x="525.5" y="-7.9" font-family="Helvetica,sans-Serif" font-size="12.00">/src/Module/cudaMarkopy.cu</text>
</a>
</g>
</g>
<!-- Node11&#45;&gt;Node14 -->
<g id="edge13" class="edge">
<title>Node11&#45;&gt;Node14</title>
<path fill="none" stroke="midnightblue" d="M461.46,-65.51C475.11,-55.49 490.97,-43.85 503.49,-34.66"/>
<polygon fill="midnightblue" stroke="midnightblue" points="459.29,-62.76 453.3,-71.5 463.43,-68.4 459.29,-62.76"/>
</g>
<!-- Node18&#45;&gt;Node12 -->
<g id="edge19" class="edge">
<title>Node18&#45;&gt;Node12</title>
<path fill="none" stroke="midnightblue" d="M922.84,-274.59C931.77,-242.8 943.09,-187.5 930.5,-142 918.77,-99.6 888.19,-57.13 870.23,-34.72"/>
<polygon fill="midnightblue" stroke="midnightblue" points="919.41,-273.84 919.94,-284.43 926.12,-275.83 919.41,-273.84"/>
</g>
</g>
</svg>
        <g id="navigator" transform="translate(0 0)" fill="#404254">
                <rect fill="#f2f5e9" fill-opacity="0.5" stroke="#606060" stroke-width=".5" x="0" y="0" width="60" height="60"/>
                <use id="zoomplus" xlink:href="#zoomPlus" x="17" y="9" onmousedown="handleZoom(evt,'in')"/>
                <use id="zoomminus" xlink:href="#zoomMin" x="42" y="9" onmousedown="handleZoom(evt,'out')"/>
                <use id="reset" xlink:href="#resetDef" x="30" y="36" onmousedown="handleReset()"/>
                <g id="arrowUp" xlink:href="#dirArrow" transform="translate(30 24)" onmousedown="handlePan(0,-1)">
                  <use xlink:href="#rim" fill="#404040">
                        <set attributeName="fill" to="#808080" begin="arrowUp.mouseover" end="arrowUp.mouseout"/>
                  </use>
                  <path fill="none" stroke="white" stroke-width="1.5" d="M0,-3.0v7 M-2.5,-0.5L0,-3.0L2.5,-0.5"/>
                </g>
                <g id="arrowRight" xlink:href="#dirArrow" transform="rotate(90) translate(36 -43)" onmousedown="handlePan(1,0)">
                  <use xlink:href="#rim" fill="#404040">
                        <set attributeName="fill" to="#808080" begin="arrowRight.mouseover" end="arrowRight.mouseout"/>
                  </use>
                  <path fill="none" stroke="white" stroke-width="1.5" d="M0,-3.0v7 M-2.5,-0.5L0,-3.0L2.5,-0.5"/>
                </g>
                <g id="arrowDown" xlink:href="#dirArrow" transform="rotate(180) translate(-30 -48)" onmousedown="handlePan(0,1)">
                  <use xlink:href="#rim" fill="#404040">
                        <set attributeName="fill" to="#808080" begin="arrowDown.mouseover" end="arrowDown.mouseout"/>
                  </use>
                  <path fill="none" stroke="white" stroke-width="1.5" d="M0,-3.0v7 M-2.5,-0.5L0,-3.0L2.5,-0.5"/>
                </g>
                <g id="arrowLeft" xlink:href="#dirArrow" transform="rotate(270) translate(-36 17)" onmousedown="handlePan(-1,0)">
                  <use xlink:href="#rim" fill="#404040">
                        <set attributeName="fill" to="#808080" begin="arrowLeft.mouseover" end="arrowLeft.mouseout"/>
                  </use>
                  <path fill="none" stroke="white" stroke-width="1.5" d="M0,-3.0v7 M-2.5,-0.5L0,-3.0L2.5,-0.5"/>
                </g>
        </g>
        <svg viewBox="0 0 15 15" width="100%" height="30px" preserveAspectRatio="xMaxYMin meet">
         <g id="arrow_out" transform="scale(0.3 0.3)">
          <a xlink:href="random_8h__dep__incl_org.svg" target="_base">
           <rect id="button" ry="5" rx="5" y="6" x="6" height="38" width="38"
                fill="#f2f5e9" fill-opacity="0.5" stroke="#606060" stroke-width="1.0"/>
           <path id="arrow"
             d="M 11.500037,31.436501 C 11.940474,20.09759 22.043105,11.32322 32.158766,21.979434 L 37.068811,17.246167 C 37.068811,17.246167 37.088388,32 37.088388,32 L 22.160133,31.978069 C 22.160133,31.978069 26.997745,27.140456 26.997745,27.140456 C 18.528582,18.264221 13.291696,25.230495 11.500037,31.436501 z"
             style="fill:#404040;"/>
          </a>
         </g>
        </svg>
</svg>
