<?xml version="1.0" encoding="UTF-8" standalone="no"?>
<!DOCTYPE svg PUBLIC "-//W3C//DTD SVG 1.1//EN"
 "http://www.w3.org/Graphics/SVG/1.1/DTD/svg11.dtd">
<!-- Generated by graphviz version 2.43.0 (0)
 -->
<!-- Title: random.h Pages: 1 -->
<svg width="160pt" height="88pt"
 viewBox="0.00 0.00 159.50 88.00" xmlns="http://www.w3.org/2000/svg" xmlns:xlink="http://www.w3.org/1999/xlink">
<g id="graph0" class="graph" transform="scale(1 1) rotate(0) translate(4 84)">
<title>random.h</title>
<!-- Node1 -->
<g id="node1" class="node">
<title>Node1</title>
<g id="a_node1"><a xlink:title=" ">
<polygon fill="#bfbfbf" stroke="black" points="36.5,-58.5 36.5,-79.5 111.5,-79.5 111.5,-58.5 36.5,-58.5"/>
<text text-anchor="middle" x="74" y="-65.9" font-family="Helvetica,sans-Serif" font-size="12.00">random.h</text>
</a>
</g>
</g>
<!-- Node2 -->
<g id="node2" class="node">
<title>Node2</title>
<g id="a_node2"><a xlink:title=" ">
<polygon fill="none" stroke="#bfbfbf" points="0,-0.5 0,-21.5 64,-21.5 64,-0.5 0,-0.5"/>
<text text-anchor="middle" x="32" y="-7.9" font-family="Helvetica,sans-Serif" font-size="12.00">random</text>
</a>
</g>
</g>
<!-- Node1&#45;&gt;Node2 -->
<g id="edge1" class="edge">
<title>Node1&#45;&gt;Node2</title>
<path fill="none" stroke="midnightblue" d="M66.68,-58.25C60.78,-50.38 52.33,-39.1 45.24,-29.65"/>
<polygon fill="midnightblue" stroke="midnightblue" points="48.03,-27.54 39.23,-21.64 42.43,-31.74 48.03,-27.54"/>
</g>
<!-- Node3 -->
<g id="node3" class="node">
<title>Node3</title>
<g id="a_node3"><a xlink:title=" ">
<polygon fill="none" stroke="#bfbfbf" points="82.5,-0.5 82.5,-21.5 151.5,-21.5 151.5,-0.5 82.5,-0.5"/>
<text text-anchor="middle" x="117" y="-7.9" font-family="Helvetica,sans-Serif" font-size="12.00">iostream</text>
</a>
</g>
</g>
<!-- Node1&#45;&gt;Node3 -->
<g id="edge2" class="edge">
<title>Node1&#45;&gt;Node3</title>
<path fill="none" stroke="midnightblue" d="M81.49,-58.25C87.53,-50.38 96.19,-39.1 103.44,-29.65"/>
<polygon fill="midnightblue" stroke="midnightblue" points="106.28,-31.71 109.6,-21.64 100.73,-27.44 106.28,-31.71"/>
</g>
</g>
</svg>
