<?xml version="1.0" encoding="UTF-8" standalone="no"?>
<!DOCTYPE svg PUBLIC "-//W3C//DTD SVG 1.1//EN"
 "http://www.w3.org/Graphics/SVG/1.1/DTD/svg11.dtd">
<!-- Generated by graphviz version 2.43.0 (0)
 -->
<!-- Title: main.cpp Pages: 1 -->
<svg width="991pt" height="378pt"
 viewBox="0.00 0.00 990.50 378.00" xmlns="http://www.w3.org/2000/svg" xmlns:xlink="http://www.w3.org/1999/xlink">
<g id="graph0" class="graph" transform="scale(1 1) rotate(0) translate(4 374)">
<title>main.cpp</title>
<!-- Node1 -->
<g id="node1" class="node">
<title>Node1</title>
<g id="a_node1"><a xlink:title=" ">
<polygon fill="#bfbfbf" stroke="black" points="396,-348.5 396,-369.5 468,-369.5 468,-348.5 396,-348.5"/>
<text text-anchor="middle" x="432" y="-355.9" font-family="Helvetica,sans-Serif" font-size="12.00">main.cpp</text>
</a>
</g>
</g>
<!-- Node2 -->
<g id="node2" class="node">
<title>Node2</title>
<g id="a_node2"><a xlink:title=" ">
<polygon fill="none" stroke="#bfbfbf" points="310.5,-0.5 310.5,-21.5 379.5,-21.5 379.5,-0.5 310.5,-0.5"/>
<text text-anchor="middle" x="345" y="-7.9" font-family="Helvetica,sans-Serif" font-size="12.00">iostream</text>
</a>
</g>
</g>
<!-- Node1&#45;&gt;Node2 -->
<g id="edge1" class="edge">
<title>Node1&#45;&gt;Node2</title>
<path fill="none" stroke="midnightblue" d="M395.91,-356.21C292.08,-350.1 0,-325.64 0,-244 0,-244 0,-244 0,-126 0,-63.45 207.04,-29.4 300.34,-17.23"/>
<polygon fill="midnightblue" stroke="midnightblue" points="300.86,-20.69 310.34,-15.95 299.98,-13.75 300.86,-20.69"/>
</g>
<!-- Node3 -->
<g id="node3" class="node">
<title>Node3</title>
<g id="a_node3"><a xlink:href="term_8h.html" target="_top" xlink:title=" ">
<polygon fill="none" stroke="black" points="28.5,-116.5 28.5,-137.5 117.5,-137.5 117.5,-116.5 28.5,-116.5"/>
<text text-anchor="middle" x="73" y="-123.9" font-family="Helvetica,sans-Serif" font-size="12.00">color/term.h</text>
</a>
</g>
</g>
<!-- Node1&#45;&gt;Node3 -->
<g id="edge2" class="edge">
<title>Node1&#45;&gt;Node3</title>
<path fill="none" stroke="midnightblue" d="M401.7,-348.36C377.91,-340.21 344.35,-327.42 317,-312 225.91,-260.65 130.45,-179.3 91.34,-144.59"/>
<polygon fill="midnightblue" stroke="midnightblue" points="93.25,-141.6 83.46,-137.54 88.59,-146.82 93.25,-141.6"/>
</g>
<!-- Node5 -->
<g id="node5" class="node">
<title>Node5</title>
<g id="a_node5"><a xlink:href="argparse_8h.html" target="_top" xlink:title=" ">
<polygon fill="none" stroke="black" points="242.5,-174.5 242.5,-195.5 323.5,-195.5 323.5,-174.5 242.5,-174.5"/>
<text text-anchor="middle" x="283" y="-181.9" font-family="Helvetica,sans-Serif" font-size="12.00">argparse.h</text>
</a>
</g>
</g>
<!-- Node1&#45;&gt;Node5 -->
<g id="edge5" class="edge">
<title>Node1&#45;&gt;Node5</title>
<path fill="none" stroke="midnightblue" d="M399.33,-348.44C379.43,-341.19 354.71,-329.45 338,-312 308.7,-281.39 293.58,-232.64 287.07,-205.63"/>
<polygon fill="midnightblue" stroke="midnightblue" points="290.47,-204.79 284.86,-195.81 283.64,-206.33 290.47,-204.79"/>
</g>
<!-- Node6 -->
<g id="node6" class="node">
<title>Node6</title>
<g id="a_node6"><a xlink:title=" ">
<polygon fill="none" stroke="#bfbfbf" points="373,-116.5 373,-137.5 423,-137.5 423,-116.5 373,-116.5"/>
<text text-anchor="middle" x="398" y="-123.9" font-family="Helvetica,sans-Serif" font-size="12.00">string</text>
</a>
</g>
</g>
<!-- Node1&#45;&gt;Node6 -->
<g id="edge9" class="edge">
<title>Node1&#45;&gt;Node6</title>
<path fill="none" stroke="midnightblue" d="M411.21,-348.38C397.31,-340.69 380.13,-328.48 372,-312 344.83,-256.94 372.43,-182.06 388.38,-147.25"/>
<polygon fill="midnightblue" stroke="midnightblue" points="391.74,-148.34 392.88,-137.8 385.42,-145.32 391.74,-148.34"/>
</g>
<!-- Node8 -->
<g id="node8" class="node">
<title>Node8</title>
<g id="a_node8"><a xlink:title=" ">
<polygon fill="none" stroke="#bfbfbf" points="540.5,-290.5 540.5,-311.5 597.5,-311.5 597.5,-290.5 540.5,-290.5"/>
<text text-anchor="middle" x="569" y="-297.9" font-family="Helvetica,sans-Serif" font-size="12.00">cstring</text>
</a>
</g>
</g>
<!-- Node1&#45;&gt;Node8 -->
<g id="edge10" class="edge">
<title>Node1&#45;&gt;Node8</title>
<path fill="none" stroke="midnightblue" d="M455.55,-348.37C477.84,-339.26 511.49,-325.51 536.36,-315.34"/>
<polygon fill="midnightblue" stroke="midnightblue" points="537.82,-318.52 545.76,-311.5 535.18,-312.05 537.82,-318.52"/>
</g>
<!-- Node9 -->
<g id="node9" class="node">
<title>Node9</title>
<g id="a_node9"><a xlink:title=" ">
<polygon fill="none" stroke="#bfbfbf" points="615.5,-290.5 615.5,-311.5 680.5,-311.5 680.5,-290.5 615.5,-290.5"/>
<text text-anchor="middle" x="648" y="-297.9" font-family="Helvetica,sans-Serif" font-size="12.00">sstream</text>
</a>
</g>
</g>
<!-- Node1&#45;&gt;Node9 -->
<g id="edge11" class="edge">
<title>Node1&#45;&gt;Node9</title>
<path fill="none" stroke="midnightblue" d="M468.15,-348.63C506.02,-338.81 565.45,-323.4 605.52,-313.01"/>
<polygon fill="midnightblue" stroke="midnightblue" points="606.47,-316.38 615.27,-310.49 604.71,-309.61 606.47,-316.38"/>
</g>
<!-- Node10 -->
<g id="node10" class="node">
<title>Node10</title>
<g id="a_node10"><a xlink:href="markov_passwords_8h.html" target="_top" xlink:title=" ">
<polygon fill="none" stroke="black" points="445,-232.5 445,-253.5 579,-253.5 579,-232.5 445,-232.5"/>
<text text-anchor="middle" x="512" y="-239.9" font-family="Helvetica,sans-Serif" font-size="12.00">markovPasswords.h</text>
</a>
</g>
</g>
<!-- Node1&#45;&gt;Node10 -->
<g id="edge12" class="edge">
<title>Node1&#45;&gt;Node10</title>
<path fill="none" stroke="midnightblue" d="M450.63,-348.35C464.28,-340.36 482.24,-327.78 493,-312 502.81,-297.62 507.58,-278.26 509.89,-263.88"/>
<polygon fill="midnightblue" stroke="midnightblue" points="513.41,-263.98 511.26,-253.6 506.47,-263.05 513.41,-263.98"/>
</g>
<!-- Node25 -->
<g id="node25" class="node">
<title>Node25</title>
<g id="a_node25"><a xlink:href="model_matrix_8h.html" target="_top" xlink:title=" ">
<polygon fill="none" stroke="black" points="380.5,-290.5 380.5,-311.5 483.5,-311.5 483.5,-290.5 380.5,-290.5"/>
<text text-anchor="middle" x="432" y="-297.9" font-family="Helvetica,sans-Serif" font-size="12.00">modelMatrix.h</text>
</a>
</g>
</g>
<!-- Node1&#45;&gt;Node25 -->
<g id="edge37" class="edge">
<title>Node1&#45;&gt;Node25</title>
<path fill="none" stroke="midnightblue" d="M432,-348.25C432,-340.94 432,-330.69 432,-321.7"/>
<polygon fill="midnightblue" stroke="midnightblue" points="435.5,-321.64 432,-311.64 428.5,-321.64 435.5,-321.64"/>
</g>
<!-- Node26 -->
<g id="node26" class="node">
<title>Node26</title>
<g id="a_node26"><a xlink:title=" ">
<polygon fill="none" stroke="#bfbfbf" points="699,-290.5 699,-311.5 757,-311.5 757,-290.5 699,-290.5"/>
<text text-anchor="middle" x="728" y="-297.9" font-family="Helvetica,sans-Serif" font-size="12.00">chrono</text>
</a>
</g>
</g>
<!-- Node1&#45;&gt;Node26 -->
<g id="edge40" class="edge">
<title>Node1&#45;&gt;Node26</title>
<path fill="none" stroke="midnightblue" d="M468.08,-352.51C516.22,-344.98 604.32,-330.49 688.61,-312.18"/>
<polygon fill="midnightblue" stroke="midnightblue" points="689.58,-315.55 698.6,-309.99 688.08,-308.71 689.58,-315.55"/>
</g>
<!-- Node3&#45;&gt;Node2 -->
<g id="edge3" class="edge">
<title>Node3&#45;&gt;Node2</title>
<path fill="none" stroke="midnightblue" d="M95.72,-116.48C144.02,-96.23 257.03,-48.87 312.76,-25.51"/>
<polygon fill="midnightblue" stroke="midnightblue" points="314.28,-28.67 322.15,-21.58 311.58,-22.21 314.28,-28.67"/>
</g>
<!-- Node4 -->
<g id="node4" class="node">
<title>Node4</title>
<g id="a_node4"><a xlink:title=" ">
<polygon fill="none" stroke="#bfbfbf" points="481,-58.5 481,-79.5 525,-79.5 525,-58.5 481,-58.5"/>
<text text-anchor="middle" x="503" y="-65.9" font-family="Helvetica,sans-Serif" font-size="12.00">map</text>
</a>
</g>
</g>
<!-- Node3&#45;&gt;Node4 -->
<g id="edge4" class="edge">
<title>Node3&#45;&gt;Node4</title>
<path fill="none" stroke="midnightblue" d="M117.78,-117.34C120.56,-116.87 123.32,-116.42 126,-116 253.15,-96.27 405.5,-79.89 470.76,-73.22"/>
<polygon fill="midnightblue" stroke="midnightblue" points="471.24,-76.69 480.83,-72.2 470.53,-69.72 471.24,-76.69"/>
</g>
<!-- Node5&#45;&gt;Node2 -->
<g id="edge7" class="edge">
<title>Node5&#45;&gt;Node2</title>
<path fill="none" stroke="midnightblue" d="M295.34,-174.46C305.32,-166.02 318.86,-152.76 326,-138 342.79,-103.31 345.53,-57.48 345.56,-31.74"/>
<polygon fill="midnightblue" stroke="midnightblue" points="349.06,-31.69 345.44,-21.73 342.06,-31.78 349.06,-31.69"/>
</g>
<!-- Node5&#45;&gt;Node6 -->
<g id="edge6" class="edge">
<title>Node5&#45;&gt;Node6</title>
<path fill="none" stroke="midnightblue" d="M302.77,-174.37C321.15,-165.42 348.73,-151.99 369.49,-141.88"/>
<polygon fill="midnightblue" stroke="midnightblue" points="371.03,-145.03 378.49,-137.5 367.97,-138.73 371.03,-145.03"/>
</g>
<!-- Node7 -->
<g id="node7" class="node">
<title>Node7</title>
<g id="a_node7"><a xlink:title=" ">
<polygon fill="none" stroke="#bfbfbf" points="135.5,-116.5 135.5,-137.5 316.5,-137.5 316.5,-116.5 135.5,-116.5"/>
<text text-anchor="middle" x="226" y="-123.9" font-family="Helvetica,sans-Serif" font-size="12.00">boost/program_options.hpp</text>
</a>
</g>
</g>
<!-- Node5&#45;&gt;Node7 -->
<g id="edge8" class="edge">
<title>Node5&#45;&gt;Node7</title>
<path fill="none" stroke="midnightblue" d="M273.07,-174.25C264.82,-166.14 252.88,-154.41 243.09,-144.79"/>
<polygon fill="midnightblue" stroke="midnightblue" points="245.4,-142.15 235.81,-137.64 240.5,-147.15 245.4,-142.15"/>
</g>
<!-- Node11 -->
<g id="node11" class="node">
<title>Node11</title>
<g id="a_node11"><a xlink:href="thread_shared_list_handler_8h.html" target="_top" xlink:title=" ">
<polygon fill="none" stroke="black" points="424.5,-174.5 424.5,-195.5 599.5,-195.5 599.5,-174.5 424.5,-174.5"/>
<text text-anchor="middle" x="512" y="-181.9" font-family="Helvetica,sans-Serif" font-size="12.00">threadSharedListHandler.h</text>
</a>
</g>
</g>
<!-- Node10&#45;&gt;Node11 -->
<g id="edge13" class="edge">
<title>Node10&#45;&gt;Node11</title>
<path fill="none" stroke="midnightblue" d="M512,-232.25C512,-224.94 512,-214.69 512,-205.7"/>
<polygon fill="midnightblue" stroke="midnightblue" points="515.5,-205.64 512,-195.64 508.5,-205.64 515.5,-205.64"/>
</g>
<!-- Node14 -->
<g id="node14" class="node">
<title>Node14</title>
<g id="a_node14"><a xlink:href="model_8h.html" target="_top" xlink:title=" ">
<polygon fill="none" stroke="black" points="618,-174.5 618,-195.5 788,-195.5 788,-174.5 618,-174.5"/>
<text text-anchor="middle" x="703" y="-181.9" font-family="Helvetica,sans-Serif" font-size="12.00">MarkovModel/src/model.h</text>
</a>
</g>
</g>
<!-- Node10&#45;&gt;Node14 -->
<g id="edge17" class="edge">
<title>Node10&#45;&gt;Node14</title>
<path fill="none" stroke="midnightblue" d="M544.83,-232.37C576.87,-222.98 625.75,-208.65 660.69,-198.41"/>
<polygon fill="midnightblue" stroke="midnightblue" points="661.98,-201.67 670.59,-195.5 660.01,-194.96 661.98,-201.67"/>
</g>
<!-- Node11&#45;&gt;Node6 -->
<g id="edge14" class="edge">
<title>Node11&#45;&gt;Node6</title>
<path fill="none" stroke="midnightblue" d="M492.4,-174.37C474.27,-165.46 447.09,-152.11 426.54,-142.02"/>
<polygon fill="midnightblue" stroke="midnightblue" points="427.86,-138.77 417.34,-137.5 424.77,-145.05 427.86,-138.77"/>
</g>
<!-- Node12 -->
<g id="node12" class="node">
<title>Node12</title>
<g id="a_node12"><a xlink:title=" ">
<polygon fill="none" stroke="#bfbfbf" points="514.5,-116.5 514.5,-137.5 577.5,-137.5 577.5,-116.5 514.5,-116.5"/>
<text text-anchor="middle" x="546" y="-123.9" font-family="Helvetica,sans-Serif" font-size="12.00">fstream</text>
</a>
</g>
</g>
<!-- Node11&#45;&gt;Node12 -->
<g id="edge15" class="edge">
<title>Node11&#45;&gt;Node12</title>
<path fill="none" stroke="midnightblue" d="M517.92,-174.25C522.6,-166.54 529.27,-155.56 534.93,-146.23"/>
<polygon fill="midnightblue" stroke="midnightblue" points="537.95,-148.01 540.15,-137.64 531.96,-144.37 537.95,-148.01"/>
</g>
<!-- Node13 -->
<g id="node13" class="node">
<title>Node13</title>
<g id="a_node13"><a xlink:title=" ">
<polygon fill="none" stroke="#bfbfbf" points="441.5,-116.5 441.5,-137.5 496.5,-137.5 496.5,-116.5 441.5,-116.5"/>
<text text-anchor="middle" x="469" y="-123.9" font-family="Helvetica,sans-Serif" font-size="12.00">mutex</text>
</a>
</g>
</g>
<!-- Node11&#45;&gt;Node13 -->
<g id="edge16" class="edge">
<title>Node11&#45;&gt;Node13</title>
<path fill="none" stroke="midnightblue" d="M504.51,-174.25C498.47,-166.38 489.81,-155.1 482.56,-145.65"/>
<polygon fill="midnightblue" stroke="midnightblue" points="485.27,-143.44 476.4,-137.64 479.72,-147.71 485.27,-143.44"/>
</g>
<!-- Node14&#45;&gt;Node4 -->
<g id="edge18" class="edge">
<title>Node14&#45;&gt;Node4</title>
<path fill="none" stroke="midnightblue" d="M686.84,-174.45C659.7,-158.42 606.09,-126.82 587,-116 568.02,-105.24 546.42,-93.42 529.88,-84.46"/>
<polygon fill="midnightblue" stroke="midnightblue" points="531.24,-81.22 520.78,-79.54 527.91,-87.38 531.24,-81.22"/>
</g>
<!-- Node14&#45;&gt;Node6 -->
<g id="edge22" class="edge">
<title>Node14&#45;&gt;Node6</title>
<path fill="none" stroke="midnightblue" d="M634.63,-174.47C579.8,-166.32 501.04,-153.47 433,-138 432.9,-137.98 432.8,-137.95 432.7,-137.93"/>
<polygon fill="midnightblue" stroke="midnightblue" points="433.7,-134.57 423.15,-135.54 432,-141.36 433.7,-134.57"/>
</g>
<!-- Node14&#45;&gt;Node12 -->
<g id="edge20" class="edge">
<title>Node14&#45;&gt;Node12</title>
<path fill="none" stroke="midnightblue" d="M676.01,-174.37C650.13,-165.14 610.88,-151.14 582.27,-140.94"/>
<polygon fill="midnightblue" stroke="midnightblue" points="583.23,-137.56 572.64,-137.5 580.88,-144.16 583.23,-137.56"/>
</g>
<!-- Node15 -->
<g id="node15" class="node">
<title>Node15</title>
<g id="a_node15"><a xlink:title=" ">
<polygon fill="none" stroke="#bfbfbf" points="543.5,-58.5 543.5,-79.5 598.5,-79.5 598.5,-58.5 543.5,-58.5"/>
<text text-anchor="middle" x="571" y="-65.9" font-family="Helvetica,sans-Serif" font-size="12.00">vector</text>
</a>
</g>
</g>
<!-- Node14&#45;&gt;Node15 -->
<g id="edge19" class="edge">
<title>Node14&#45;&gt;Node15</title>
<path fill="none" stroke="midnightblue" d="M709.36,-174.2C717.7,-160.01 729.83,-133.5 717,-116 710.39,-106.99 649.49,-89.97 608.46,-79.35"/>
<polygon fill="midnightblue" stroke="midnightblue" points="609.31,-75.96 598.75,-76.86 607.57,-82.74 609.31,-75.96"/>
</g>
<!-- Node16 -->
<g id="node16" class="node">
<title>Node16</title>
<g id="a_node16"><a xlink:title=" ">
<polygon fill="none" stroke="#bfbfbf" points="917.5,-58.5 917.5,-79.5 982.5,-79.5 982.5,-58.5 917.5,-58.5"/>
<text text-anchor="middle" x="950" y="-65.9" font-family="Helvetica,sans-Serif" font-size="12.00">assert.h</text>
</a>
</g>
</g>
<!-- Node14&#45;&gt;Node16 -->
<g id="edge21" class="edge">
<title>Node14&#45;&gt;Node16</title>
<path fill="none" stroke="midnightblue" d="M746.71,-174.46C777.39,-166.84 818.86,-154.68 853,-138 882.16,-123.75 912.24,-101.22 931.01,-86.04"/>
<polygon fill="midnightblue" stroke="midnightblue" points="933.3,-88.7 938.8,-79.64 928.85,-83.29 933.3,-88.7"/>
</g>
<!-- Node17 -->
<g id="node17" class="node">
<title>Node17</title>
<g id="a_node17"><a xlink:title=" ">
<polygon fill="none" stroke="#bfbfbf" points="634,-116.5 634,-137.5 708,-137.5 708,-116.5 634,-116.5"/>
<text text-anchor="middle" x="671" y="-123.9" font-family="Helvetica,sans-Serif" font-size="12.00">algorithm</text>
</a>
</g>
</g>
<!-- Node14&#45;&gt;Node17 -->
<g id="edge23" class="edge">
<title>Node14&#45;&gt;Node17</title>
<path fill="none" stroke="midnightblue" d="M697.43,-174.25C693.07,-166.62 686.88,-155.79 681.59,-146.53"/>
<polygon fill="midnightblue" stroke="midnightblue" points="684.51,-144.59 676.51,-137.64 678.43,-148.06 684.51,-144.59"/>
</g>
<!-- Node18 -->
<g id="node18" class="node">
<title>Node18</title>
<g id="a_node18"><a xlink:href="node_8h.html" target="_top" xlink:title=" ">
<polygon fill="none" stroke="black" points="764,-116.5 764,-137.5 822,-137.5 822,-116.5 764,-116.5"/>
<text text-anchor="middle" x="793" y="-123.9" font-family="Helvetica,sans-Serif" font-size="12.00">node.h</text>
</a>
</g>
</g>
<!-- Node14&#45;&gt;Node18 -->
<g id="edge24" class="edge">
<title>Node14&#45;&gt;Node18</title>
<path fill="none" stroke="midnightblue" d="M718.68,-174.25C732.49,-165.65 752.82,-153 768.73,-143.1"/>
<polygon fill="midnightblue" stroke="midnightblue" points="770.86,-145.9 777.5,-137.64 767.16,-139.95 770.86,-145.9"/>
</g>
<!-- Node20 -->
<g id="node20" class="node">
<title>Node20</title>
<g id="a_node20"><a xlink:href="edge_8h.html" target="_top" xlink:title=" ">
<polygon fill="none" stroke="black" points="841,-58.5 841,-79.5 899,-79.5 899,-58.5 841,-58.5"/>
<text text-anchor="middle" x="870" y="-65.9" font-family="Helvetica,sans-Serif" font-size="12.00">edge.h</text>
</a>
</g>
</g>
<!-- Node14&#45;&gt;Node20 -->
<g id="edge36" class="edge">
<title>Node14&#45;&gt;Node20</title>
<path fill="none" stroke="midnightblue" d="M753.98,-174.43C779.31,-167.63 809.1,-156.35 831,-138 846.42,-125.07 857.04,-104.39 863.26,-89.23"/>
<polygon fill="midnightblue" stroke="midnightblue" points="866.57,-90.36 866.87,-79.77 860.03,-87.87 866.57,-90.36"/>
</g>
<!-- Node18&#45;&gt;Node2 -->
<g id="edge28" class="edge">
<title>Node18&#45;&gt;Node2</title>
<path fill="none" stroke="midnightblue" d="M763.82,-118.73C733.88,-110.84 686.25,-97.03 647,-80 628.74,-72.08 626.74,-64.7 608,-58 534.14,-31.59 443.01,-20 389.71,-15.17"/>
<polygon fill="midnightblue" stroke="midnightblue" points="389.84,-11.67 379.58,-14.29 389.24,-18.64 389.84,-11.67"/>
</g>
<!-- Node18&#45;&gt;Node4 -->
<g id="edge26" class="edge">
<title>Node18&#45;&gt;Node4</title>
<path fill="none" stroke="midnightblue" d="M763.73,-122.01C715.62,-115.19 616.99,-100.03 535,-80 534.9,-79.98 534.8,-79.95 534.7,-79.93"/>
<polygon fill="midnightblue" stroke="midnightblue" points="535.85,-76.61 525.28,-77.36 534.01,-83.36 535.85,-76.61"/>
</g>
<!-- Node18&#45;&gt;Node15 -->
<g id="edge25" class="edge">
<title>Node18&#45;&gt;Node15</title>
<path fill="none" stroke="midnightblue" d="M763.98,-118.68C724.07,-108.61 652.22,-90.49 608.35,-79.42"/>
<polygon fill="midnightblue" stroke="midnightblue" points="609.18,-76.02 598.63,-76.97 607.47,-82.81 609.18,-76.02"/>
</g>
<!-- Node18&#45;&gt;Node16 -->
<g id="edge27" class="edge">
<title>Node18&#45;&gt;Node16</title>
<path fill="none" stroke="midnightblue" d="M819.99,-116.37C845.87,-107.14 885.12,-93.14 913.73,-82.94"/>
<polygon fill="midnightblue" stroke="midnightblue" points="915.12,-86.16 923.36,-79.5 912.77,-79.56 915.12,-86.16"/>
</g>
<!-- Node19 -->
<g id="node19" class="node">
<title>Node19</title>
<g id="a_node19"><a xlink:title=" ">
<polygon fill="none" stroke="#bfbfbf" points="655.5,-58.5 655.5,-79.5 730.5,-79.5 730.5,-58.5 655.5,-58.5"/>
<text text-anchor="middle" x="693" y="-65.9" font-family="Helvetica,sans-Serif" font-size="12.00">stdexcept</text>
</a>
</g>
</g>
<!-- Node18&#45;&gt;Node19 -->
<g id="edge29" class="edge">
<title>Node18&#45;&gt;Node19</title>
<path fill="none" stroke="midnightblue" d="M775.58,-116.25C759.95,-107.49 736.8,-94.53 718.98,-84.55"/>
<polygon fill="midnightblue" stroke="midnightblue" points="720.65,-81.47 710.22,-79.64 717.23,-87.58 720.65,-81.47"/>
</g>
<!-- Node18&#45;&gt;Node20 -->
<g id="edge30" class="edge">
<title>Node18&#45;&gt;Node20</title>
<path fill="none" stroke="midnightblue" d="M806.41,-116.25C818.01,-107.81 834.97,-95.47 848.47,-85.66"/>
<polygon fill="midnightblue" stroke="midnightblue" points="850.71,-88.36 856.74,-79.64 846.6,-82.69 850.71,-88.36"/>
</g>
<!-- Node23 -->
<g id="node23" class="node">
<title>Node23</title>
<g id="a_node23"><a xlink:href="random_8h.html" target="_top" xlink:title=" ">
<polygon fill="none" stroke="black" points="748.5,-58.5 748.5,-79.5 823.5,-79.5 823.5,-58.5 748.5,-58.5"/>
<text text-anchor="middle" x="786" y="-65.9" font-family="Helvetica,sans-Serif" font-size="12.00">random.h</text>
</a>
</g>
</g>
<!-- Node18&#45;&gt;Node23 -->
<g id="edge33" class="edge">
<title>Node18&#45;&gt;Node23</title>
<path fill="none" stroke="midnightblue" d="M791.78,-116.25C790.87,-108.94 789.59,-98.69 788.46,-89.7"/>
<polygon fill="midnightblue" stroke="midnightblue" points="791.92,-89.13 787.21,-79.64 784.97,-90 791.92,-89.13"/>
</g>
<!-- Node21 -->
<g id="node21" class="node">
<title>Node21</title>
<g id="a_node21"><a xlink:title=" ">
<polygon fill="none" stroke="#bfbfbf" points="917,-0.5 917,-21.5 973,-21.5 973,-0.5 917,-0.5"/>
<text text-anchor="middle" x="945" y="-7.9" font-family="Helvetica,sans-Serif" font-size="12.00">cstdint</text>
</a>
</g>
</g>
<!-- Node20&#45;&gt;Node21 -->
<g id="edge31" class="edge">
<title>Node20&#45;&gt;Node21</title>
<path fill="none" stroke="midnightblue" d="M883.06,-58.25C894.36,-49.81 910.88,-37.47 924.03,-27.66"/>
<polygon fill="midnightblue" stroke="midnightblue" points="926.17,-30.43 932.09,-21.64 921.98,-24.82 926.17,-30.43"/>
</g>
<!-- Node22 -->
<g id="node22" class="node">
<title>Node22</title>
<g id="a_node22"><a xlink:title=" ">
<polygon fill="none" stroke="#bfbfbf" points="837.5,-0.5 837.5,-21.5 898.5,-21.5 898.5,-0.5 837.5,-0.5"/>
<text text-anchor="middle" x="868" y="-7.9" font-family="Helvetica,sans-Serif" font-size="12.00">cstddef</text>
</a>
</g>
</g>
<!-- Node20&#45;&gt;Node22 -->
<g id="edge32" class="edge">
<title>Node20&#45;&gt;Node22</title>
<path fill="none" stroke="midnightblue" d="M869.65,-58.25C869.39,-50.94 869.02,-40.69 868.7,-31.7"/>
<polygon fill="midnightblue" stroke="midnightblue" points="872.2,-31.51 868.34,-21.64 865.2,-31.76 872.2,-31.51"/>
</g>
<!-- Node23&#45;&gt;Node2 -->
<g id="edge35" class="edge">
<title>Node23&#45;&gt;Node2</title>
<path fill="none" stroke="midnightblue" d="M748.4,-59.51C745.57,-58.97 742.74,-58.46 740,-58 613.75,-36.98 463.21,-22.28 389.77,-15.77"/>
<polygon fill="midnightblue" stroke="midnightblue" points="389.77,-12.26 379.5,-14.87 389.16,-19.23 389.77,-12.26"/>
</g>
<!-- Node24 -->
<g id="node24" class="node">
<title>Node24</title>
<g id="a_node24"><a xlink:title=" ">
<polygon fill="none" stroke="#bfbfbf" points="754,-0.5 754,-21.5 818,-21.5 818,-0.5 754,-0.5"/>
<text text-anchor="middle" x="786" y="-7.9" font-family="Helvetica,sans-Serif" font-size="12.00">random</text>
</a>
</g>
</g>
<!-- Node23&#45;&gt;Node24 -->
<g id="edge34" class="edge">
<title>Node23&#45;&gt;Node24</title>
<path fill="none" stroke="midnightblue" d="M786,-58.25C786,-50.94 786,-40.69 786,-31.7"/>
<polygon fill="midnightblue" stroke="midnightblue" points="789.5,-31.64 786,-21.64 782.5,-31.64 789.5,-31.64"/>
</g>
<!-- Node25&#45;&gt;Node10 -->
<g id="edge38" class="edge">
<title>Node25&#45;&gt;Node10</title>
<path fill="none" stroke="midnightblue" d="M445.93,-290.25C458.09,-281.73 475.95,-269.24 490.03,-259.38"/>
<polygon fill="midnightblue" stroke="midnightblue" points="492.04,-262.24 498.22,-253.64 488.03,-256.51 492.04,-262.24"/>
</g>
<!-- Node25&#45;&gt;Node13 -->
<g id="edge39" class="edge">
<title>Node25&#45;&gt;Node13</title>
<path fill="none" stroke="midnightblue" d="M427.41,-290.31C417.76,-268.46 397.7,-214.12 416,-174 421.69,-161.53 432.61,-151.14 443.07,-143.4"/>
<polygon fill="midnightblue" stroke="midnightblue" points="445.35,-146.08 451.62,-137.54 441.4,-140.31 445.35,-146.08"/>
</g>
</g>
</svg>
