<?xml version="1.0" encoding="UTF-8" standalone="no"?>
<!DOCTYPE svg PUBLIC "-//W3C//DTD SVG 1.1//EN"
 "http://www.w3.org/Graphics/SVG/1.1/DTD/svg11.dtd">
<!-- Generated by graphviz version 2.43.0 (0)
 -->
<!-- Title: main Pages: 1 -->
<svg width="939pt" height="284pt"
 viewBox="0.00 0.00 939.00 283.50" xmlns="http://www.w3.org/2000/svg" xmlns:xlink="http://www.w3.org/1999/xlink">
<g id="graph0" class="graph" transform="scale(1 1) rotate(0) translate(4 279.5)">
<title>main</title>
<!-- Node1 -->
<g id="node1" class="node">
<title>Node1</title>
<g id="a_node1"><a xlink:title="Launch CLI tool.">
<polygon fill="#bfbfbf" stroke="black" points="0,-107 0,-128 47,-128 47,-107 0,-107"/>
<text text-anchor="middle" x="23.5" y="-114.4" font-family="Helvetica,sans-Serif" font-size="12.00">main</text>
</a>
</g>
</g>
<!-- Node2 -->
<g id="node2" class="node">
<title>Node2</title>
<g id="a_node2"><a xlink:href="class_markov_1_1_a_p_i_1_1_c_l_i_1_1_argparse.html#ade2af065fa284422883812389f3ad2d7" target="_top" xlink:title="Parse command line arguements.">
<polygon fill="none" stroke="black" points="83,-180.5 83,-214.5 259,-214.5 259,-180.5 83,-180.5"/>
<text text-anchor="start" x="91" y="-200.9" font-family="Helvetica,sans-Serif" font-size="12.00">Markov::API::CLI::Argparse</text>
<text text-anchor="middle" x="171" y="-187.9" font-family="Helvetica,sans-Serif" font-size="12.00">::Argparse</text>
</a>
</g>
</g>
<!-- Node1&#45;&gt;Node2 -->
<g id="edge1" class="edge">
<title>Node1&#45;&gt;Node2</title>
<path fill="none" stroke="midnightblue" d="M33.33,-128.18C43.94,-140.34 62.82,-160 83,-171.5 86.04,-173.23 89.2,-174.86 92.45,-176.38"/>
<polygon fill="midnightblue" stroke="midnightblue" points="91.2,-179.66 101.77,-180.42 93.99,-173.24 91.2,-179.66"/>
</g>
<!-- Node3 -->
<g id="node3" class="node">
<title>Node3</title>
<g id="a_node3"><a xlink:href="class_markov_1_1_a_p_i_1_1_model_matrix.html#ac1dbc499eda0e0eda3567bce45d17db4" target="_top" xlink:title="Construct the related Matrix data for the model.">
<polygon fill="none" stroke="black" points="86.5,-127.5 86.5,-161.5 255.5,-161.5 255.5,-127.5 86.5,-127.5"/>
<text text-anchor="start" x="94.5" y="-147.9" font-family="Helvetica,sans-Serif" font-size="12.00">Markov::API::ModelMatrix</text>
<text text-anchor="middle" x="171" y="-134.9" font-family="Helvetica,sans-Serif" font-size="12.00">::ConstructMatrix</text>
</a>
</g>
</g>
<!-- Node1&#45;&gt;Node3 -->
<g id="edge2" class="edge">
<title>Node1&#45;&gt;Node3</title>
<path fill="none" stroke="midnightblue" d="M47.23,-121.72C55.56,-123.26 65.57,-125.12 76.25,-127.1"/>
<polygon fill="midnightblue" stroke="midnightblue" points="75.73,-130.57 86.21,-128.95 77.01,-123.68 75.73,-130.57"/>
</g>
<!-- Node10 -->
<g id="node10" class="node">
<title>Node10</title>
<g id="a_node10"><a xlink:href="class_markov_1_1_a_p_i_1_1_model_matrix.html#a9e5a9885d48e95b9f5d1ed082d83db24" target="_top" xlink:title="Random walk on the Matrix&#45;reduced Markov::Model.">
<polygon fill="none" stroke="black" points="86.5,-74.5 86.5,-108.5 255.5,-108.5 255.5,-74.5 86.5,-74.5"/>
<text text-anchor="start" x="94.5" y="-94.9" font-family="Helvetica,sans-Serif" font-size="12.00">Markov::API::ModelMatrix</text>
<text text-anchor="middle" x="171" y="-81.9" font-family="Helvetica,sans-Serif" font-size="12.00">::FastRandomWalk</text>
</a>
</g>
</g>
<!-- Node1&#45;&gt;Node10 -->
<g id="edge9" class="edge">
<title>Node1&#45;&gt;Node10</title>
<path fill="none" stroke="midnightblue" d="M47.23,-113.44C55.56,-111.95 65.57,-110.16 76.25,-108.25"/>
<polygon fill="midnightblue" stroke="midnightblue" points="76.98,-111.68 86.21,-106.47 75.75,-104.79 76.98,-111.68"/>
</g>
<!-- Node14 -->
<g id="node14" class="node">
<title>Node14</title>
<g id="a_node14"><a xlink:href="class_markov_1_1_model.html#a3f872a3af96a91d4627c1a5d5e66b19a" target="_top" xlink:title="Open a file to import with filename, and call bool Model::Import with std::ifstream.">
<polygon fill="none" stroke="black" points="95,-34 95,-55 247,-55 247,-34 95,-34"/>
<text text-anchor="middle" x="171" y="-41.4" font-family="Helvetica,sans-Serif" font-size="12.00">Markov::Model::Import</text>
</a>
</g>
</g>
<!-- Node1&#45;&gt;Node14 -->
<g id="edge13" class="edge">
<title>Node1&#45;&gt;Node14</title>
<path fill="none" stroke="midnightblue" d="M33.7,-106.61C44.35,-94.71 63.01,-75.95 83,-65.5 88.2,-62.78 93.77,-60.4 99.47,-58.33"/>
<polygon fill="midnightblue" stroke="midnightblue" points="100.77,-61.59 109.17,-55.12 98.57,-54.94 100.77,-61.59"/>
</g>
<!-- Node4 -->
<g id="node4" class="node">
<title>Node4</title>
<g id="a_node4"><a xlink:href="class_markov_1_1_edge.html#a2b1e5a6e6f81502cd8ac6b20ed38b677" target="_top" xlink:title="return edge&#39;s EdgeWeight.">
<polygon fill="none" stroke="black" points="312.5,-254 312.5,-275 488.5,-275 488.5,-254 312.5,-254"/>
<text text-anchor="middle" x="400.5" y="-261.4" font-family="Helvetica,sans-Serif" font-size="12.00">Markov::Edge::EdgeWeight</text>
</a>
</g>
</g>
<!-- Node3&#45;&gt;Node4 -->
<g id="edge3" class="edge">
<title>Node3&#45;&gt;Node4</title>
<path fill="none" stroke="midnightblue" d="M244.3,-161.63C249.57,-164.43 254.55,-167.7 259,-171.5 286.51,-194.99 266.22,-222.58 295,-244.5 297.65,-246.51 300.43,-248.34 303.34,-250.01"/>
<polygon fill="midnightblue" stroke="midnightblue" points="301.83,-253.17 312.34,-254.5 304.96,-246.9 301.83,-253.17"/>
</g>
<!-- Node5 -->
<g id="node5" class="node">
<title>Node5</title>
<g id="a_node5"><a xlink:href="class_markov_1_1_model.html#a71f6df805e340ce96e9dc4ee4ebc6537" target="_top" xlink:title="Return starter Node.">
<polygon fill="none" stroke="black" points="326,-214 326,-235 475,-235 475,-214 326,-214"/>
<text text-anchor="middle" x="400.5" y="-221.4" font-family="Helvetica,sans-Serif" font-size="12.00">Markov::Model::Nodes</text>
</a>
</g>
</g>
<!-- Node3&#45;&gt;Node5 -->
<g id="edge4" class="edge">
<title>Node3&#45;&gt;Node5</title>
<path fill="none" stroke="midnightblue" d="M237.94,-161.52C245.25,-164.41 252.42,-167.72 259,-171.5 277.82,-182.31 275.6,-194.76 295,-204.5 301.58,-207.81 308.65,-210.57 315.89,-212.87"/>
<polygon fill="midnightblue" stroke="midnightblue" points="315.26,-216.34 325.84,-215.75 317.2,-209.61 315.26,-216.34"/>
</g>
<!-- Node6 -->
<g id="node6" class="node">
<title>Node6</title>
<g id="a_node6"><a xlink:href="class_markov_1_1_node.html#ac7cce56376f2a00764f64a0194cbb498" target="_top" xlink:title="Return character representation of this node.">
<polygon fill="none" stroke="black" points="315,-174 315,-195 486,-195 486,-174 315,-174"/>
<text text-anchor="middle" x="400.5" y="-181.4" font-family="Helvetica,sans-Serif" font-size="12.00">Markov::Node::NodeValue</text>
</a>
</g>
</g>
<!-- Node3&#45;&gt;Node6 -->
<g id="edge5" class="edge">
<title>Node3&#45;&gt;Node6</title>
<path fill="none" stroke="midnightblue" d="M255.74,-159.22C280.02,-163.49 306.27,-168.11 329.6,-172.21"/>
<polygon fill="midnightblue" stroke="midnightblue" points="329.3,-175.71 339.76,-174 330.51,-168.82 329.3,-175.71"/>
</g>
<!-- Node7 -->
<g id="node7" class="node">
<title>Node7</title>
<g id="a_node7"><a xlink:href="class_markov_1_1_edge.html#a2e7d14e46631c85c84f6f8f1dd2949cd" target="_top" xlink:title="return edge&#39;s RightNode">
<polygon fill="none" stroke="black" points="316.5,-134 316.5,-155 484.5,-155 484.5,-134 316.5,-134"/>
<text text-anchor="middle" x="400.5" y="-141.4" font-family="Helvetica,sans-Serif" font-size="12.00">Markov::Edge::RightNode</text>
</a>
</g>
</g>
<!-- Node3&#45;&gt;Node7 -->
<g id="edge6" class="edge">
<title>Node3&#45;&gt;Node7</title>
<path fill="none" stroke="midnightblue" d="M255.74,-144.5C272.11,-144.5 289.37,-144.5 306.03,-144.5"/>
<polygon fill="midnightblue" stroke="midnightblue" points="306.31,-148 316.31,-144.5 306.31,-141 306.31,-148"/>
</g>
<!-- Node8 -->
<g id="node8" class="node">
<title>Node8</title>
<g id="a_node8"><a xlink:href="class_markov_1_1_model.html#a35cb15a14d034f3365b9d2d3efa1ffc0" target="_top" xlink:title="Return starter Node.">
<polygon fill="none" stroke="black" points="308,-94 308,-115 493,-115 493,-94 308,-94"/>
<text text-anchor="middle" x="400.5" y="-101.4" font-family="Helvetica,sans-Serif" font-size="12.00">Markov::Model::StarterNode</text>
</a>
</g>
</g>
<!-- Node3&#45;&gt;Node8 -->
<g id="edge7" class="edge">
<title>Node3&#45;&gt;Node8</title>
<path fill="none" stroke="midnightblue" d="M255.74,-129.78C280.02,-125.51 306.27,-120.89 329.6,-116.79"/>
<polygon fill="midnightblue" stroke="midnightblue" points="330.51,-120.18 339.76,-115 329.3,-113.29 330.51,-120.18"/>
</g>
<!-- Node9 -->
<g id="node9" class="node">
<title>Node9</title>
<g id="a_node9"><a xlink:href="class_markov_1_1_node.html#a60166d8f501c016de104f48e46bff223" target="_top" xlink:title="return total edge weights">
<polygon fill="none" stroke="black" points="295,-54 295,-75 506,-75 506,-54 295,-54"/>
<text text-anchor="middle" x="400.5" y="-61.4" font-family="Helvetica,sans-Serif" font-size="12.00">Markov::Node::TotalEdgeWeights</text>
</a>
</g>
</g>
<!-- Node3&#45;&gt;Node9 -->
<g id="edge8" class="edge">
<title>Node3&#45;&gt;Node9</title>
<path fill="none" stroke="midnightblue" d="M240.27,-127.49C246.78,-124.87 253.13,-121.89 259,-118.5 278.06,-107.5 275.41,-94.53 295,-84.5 299.56,-82.17 304.36,-80.1 309.29,-78.28"/>
<polygon fill="midnightblue" stroke="midnightblue" points="310.53,-81.56 318.91,-75.06 308.31,-74.92 310.53,-81.56"/>
</g>
<!-- Node11 -->
<g id="node11" class="node">
<title>Node11</title>
<g id="a_node11"><a xlink:href="class_markov_1_1_a_p_i_1_1_model_matrix.html#ad775d2e9c35e6f78c53f796df11405b5" target="_top" xlink:title="A single partition of FastRandomWalk event.">
<polygon fill="none" stroke="black" points="313.5,-0.5 313.5,-34.5 487.5,-34.5 487.5,-0.5 313.5,-0.5"/>
<text text-anchor="start" x="321.5" y="-20.9" font-family="Helvetica,sans-Serif" font-size="12.00">Markov::API::ModelMatrix</text>
<text text-anchor="middle" x="400.5" y="-7.9" font-family="Helvetica,sans-Serif" font-size="12.00">::FastRandomWalkPartition</text>
</a>
</g>
</g>
<!-- Node10&#45;&gt;Node11 -->
<g id="edge10" class="edge">
<title>Node10&#45;&gt;Node11</title>
<path fill="none" stroke="midnightblue" d="M232.96,-74.34C241.8,-71.35 250.71,-68.04 259,-64.5 275.83,-57.3 278,-51.29 295,-44.5 301.2,-42.03 307.69,-39.72 314.28,-37.58"/>
<polygon fill="midnightblue" stroke="midnightblue" points="315.47,-40.87 323.98,-34.56 313.39,-34.19 315.47,-40.87"/>
</g>
<!-- Node12 -->
<g id="node12" class="node">
<title>Node12</title>
<g id="a_node12"><a xlink:href="class_markov_1_1_a_p_i_1_1_model_matrix.html#a96f2885aac69b49b21c66ad5a32514b9" target="_top" xlink:title="A single thread of a single partition of FastRandomWalk.">
<polygon fill="none" stroke="black" points="542,-0.5 542,-34.5 711,-34.5 711,-0.5 542,-0.5"/>
<text text-anchor="start" x="550" y="-20.9" font-family="Helvetica,sans-Serif" font-size="12.00">Markov::API::ModelMatrix</text>
<text text-anchor="middle" x="626.5" y="-7.9" font-family="Helvetica,sans-Serif" font-size="12.00">::FastRandomWalkThread</text>
</a>
</g>
</g>
<!-- Node11&#45;&gt;Node12 -->
<g id="edge11" class="edge">
<title>Node11&#45;&gt;Node12</title>
<path fill="none" stroke="midnightblue" d="M487.78,-17.5C502.2,-17.5 517.22,-17.5 531.82,-17.5"/>
<polygon fill="midnightblue" stroke="midnightblue" points="531.84,-21 541.84,-17.5 531.84,-14 531.84,-21"/>
</g>
<!-- Node13 -->
<g id="node13" class="node">
<title>Node13</title>
<g id="a_node13"><a xlink:href="class_markov_1_1_random_1_1_marsaglia.html#a0a56da316d520b80be6b6df6c9e0b537" target="_top" xlink:title="Generate Random Number.">
<polygon fill="none" stroke="black" points="747,-0.5 747,-34.5 931,-34.5 931,-0.5 747,-0.5"/>
<text text-anchor="start" x="755" y="-20.9" font-family="Helvetica,sans-Serif" font-size="12.00">Markov::Random::Marsaglia</text>
<text text-anchor="middle" x="839" y="-7.9" font-family="Helvetica,sans-Serif" font-size="12.00">::random</text>
</a>
</g>
</g>
<!-- Node12&#45;&gt;Node13 -->
<g id="edge12" class="edge">
<title>Node12&#45;&gt;Node13</title>
<path fill="none" stroke="midnightblue" d="M711.3,-17.5C719.71,-17.5 728.3,-17.5 736.86,-17.5"/>
<polygon fill="midnightblue" stroke="midnightblue" points="736.88,-21 746.88,-17.5 736.88,-14 736.88,-21"/>
</g>
</g>
</svg>
