<?xml version="1.0" encoding="UTF-8" standalone="no"?>
<!DOCTYPE svg PUBLIC "-//W3C//DTD SVG 1.1//EN"
 "http://www.w3.org/Graphics/SVG/1.1/DTD/svg11.dtd">
<!-- Generated by graphviz version 2.43.0 (0)
 -->
<!-- Title: main.cpp Pages: 1 -->
<!--zoomable 320 -->
<svg id="main" version="1.1" xmlns="http://www.w3.org/2000/svg" xmlns:xlink="http://www.w3.org/1999/xlink" xml:space="preserve" onload="init(evt)">
<style type="text/css"><![CDATA[
.edge:hover path { stroke: red; }
.edge:hover polygon { stroke: red; fill: red; }
]]></style>
<script type="text/javascript"><![CDATA[
var edges = document.getElementsByTagName('g');
if (edges && edges.length) {
  for (var i=0;i<edges.length;i++) {
    if (edges[i].id.substr(0,4)=='edge') {
      edges[i].setAttribute('class','edge');
    }
  }
}
]]></script>
        <defs>
                <circle id="rim" cx="0" cy="0" r="7"/>
                <circle id="rim2" cx="0" cy="0" r="3.5"/>
                <g id="zoomPlus">
                        <use xlink:href="#rim" fill="#404040">
                                <set attributeName="fill" to="#808080" begin="zoomplus.mouseover" end="zoomplus.mouseout"/>
                        </use>
                        <path d="M-4,0h8M0,-4v8" fill="none" stroke="white" stroke-width="1.5" pointer-events="none"/>
                </g>
                <g id="zoomMin">
                        <use xlink:href="#rim" fill="#404040">
                                <set attributeName="fill" to="#808080" begin="zoomminus.mouseover" end="zoomminus.mouseout"/>
                        </use>
                        <path d="M-4,0h8" fill="none" stroke="white" stroke-width="1.5" pointer-events="none"/>
                </g>
                <g id="dirArrow">
                        <path fill="none" stroke="white" stroke-width="1.5" d="M0,-3.0v7 M-2.5,-0.5L0,-3.0L2.5,-0.5"/>
                </g>
               <g id="resetDef">
                       <use xlink:href="#rim2" fill="#404040">
                               <set attributeName="fill" to="#808080" begin="reset.mouseover" end="reset.mouseout"/>
                       </use>
               </g>
        </defs>

<script type="text/javascript">
var viewWidth = 978;
var viewHeight = 320;
var sectionId = 'dynsection-0';
</script>
<script xlink:href="svgpan.js"/>
<svg id="graph" class="graph">
<g id="viewport">
<title>main.cpp</title>
<!-- Node1 -->
<g id="node1" class="node">
<title>Node1</title>
<g id="a_node1"><a xlink:title=" ">
<polygon fill="#bfbfbf" stroke="black" points="303,-290.5 303,-311.5 375,-311.5 375,-290.5 303,-290.5"/>
<text text-anchor="middle" x="339" y="-297.9" font-family="Helvetica,sans-Serif" font-size="12.00">main.cpp</text>
</a>
</g>
</g>
<!-- Node2 -->
<g id="node2" class="node">
<title>Node2</title>
<g id="a_node2"><a xlink:title=" ">
<polygon fill="none" stroke="#bfbfbf" points="111.5,-0.5 111.5,-21.5 180.5,-21.5 180.5,-0.5 111.5,-0.5"/>
<text text-anchor="middle" x="146" y="-7.9" font-family="Helvetica,sans-Serif" font-size="12.00">iostream</text>
</a>
</g>
</g>
<!-- Node1&#45;&gt;Node2 -->
<g id="edge1" class="edge">
<title>Node1&#45;&gt;Node2</title>
<path fill="none" stroke="midnightblue" d="M302.72,-295.64C215.27,-284.12 0,-249.33 0,-186 0,-186 0,-186 0,-126 0,-73.08 60.32,-41.09 103.42,-24.99"/>
<polygon fill="midnightblue" stroke="midnightblue" points="104.64,-28.27 112.87,-21.61 102.28,-21.68 104.64,-28.27"/>
</g>
<!-- Node3 -->
<g id="node3" class="node">
<title>Node3</title>
<g id="a_node3"><a xlink:href="term_8h.html" target="_top" xlink:title=" ">
<polygon fill="none" stroke="black" points="28.5,-116.5 28.5,-137.5 117.5,-137.5 117.5,-116.5 28.5,-116.5"/>
<text text-anchor="middle" x="73" y="-123.9" font-family="Helvetica,sans-Serif" font-size="12.00">color/term.h</text>
</a>
</g>
</g>
<!-- Node1&#45;&gt;Node3 -->
<g id="edge2" class="edge">
<title>Node1&#45;&gt;Node3</title>
<path fill="none" stroke="midnightblue" d="M323.94,-290.26C279.68,-261.64 149.8,-177.66 96.37,-143.11"/>
<polygon fill="midnightblue" stroke="midnightblue" points="98.2,-140.12 87.9,-137.63 94.4,-146 98.2,-140.12"/>
</g>
<!-- Node5 -->
<g id="node5" class="node">
<title>Node5</title>
<g id="a_node5"><a xlink:href="argparse_8h.html" target="_top" xlink:title=" ">
<polygon fill="none" stroke="black" points="226.5,-174.5 226.5,-195.5 307.5,-195.5 307.5,-174.5 226.5,-174.5"/>
<text text-anchor="middle" x="267" y="-181.9" font-family="Helvetica,sans-Serif" font-size="12.00">argparse.h</text>
</a>
</g>
</g>
<!-- Node1&#45;&gt;Node5 -->
<g id="edge5" class="edge">
<title>Node1&#45;&gt;Node5</title>
<path fill="none" stroke="midnightblue" d="M332.86,-290.28C320.85,-271.27 294.08,-228.88 278.62,-204.4"/>
<polygon fill="midnightblue" stroke="midnightblue" points="281.42,-202.28 273.12,-195.69 275.5,-206.02 281.42,-202.28"/>
</g>
<!-- Node6 -->
<g id="node6" class="node">
<title>Node6</title>
<g id="a_node6"><a xlink:title=" ">
<polygon fill="none" stroke="#bfbfbf" points="374,-116.5 374,-137.5 424,-137.5 424,-116.5 374,-116.5"/>
<text text-anchor="middle" x="399" y="-123.9" font-family="Helvetica,sans-Serif" font-size="12.00">string</text>
</a>
</g>
</g>
<!-- Node1&#45;&gt;Node6 -->
<g id="edge9" class="edge">
<title>Node1&#45;&gt;Node6</title>
<path fill="none" stroke="midnightblue" d="M339.44,-290.39C340.73,-268.7 345.68,-214.67 364,-174 368.65,-163.68 376,-153.52 382.76,-145.39"/>
<polygon fill="midnightblue" stroke="midnightblue" points="385.52,-147.55 389.47,-137.72 380.25,-142.95 385.52,-147.55"/>
</g>
<!-- Node8 -->
<g id="node8" class="node">
<title>Node8</title>
<g id="a_node8"><a xlink:title=" ">
<polygon fill="none" stroke="#bfbfbf" points="519.5,-232.5 519.5,-253.5 576.5,-253.5 576.5,-232.5 519.5,-232.5"/>
<text text-anchor="middle" x="548" y="-239.9" font-family="Helvetica,sans-Serif" font-size="12.00">cstring</text>
</a>
</g>
</g>
<!-- Node1&#45;&gt;Node8 -->
<g id="edge10" class="edge">
<title>Node1&#45;&gt;Node8</title>
<path fill="none" stroke="midnightblue" d="M374.93,-290.37C412.43,-280.33 471.01,-264.63 509.46,-254.33"/>
<polygon fill="midnightblue" stroke="midnightblue" points="510.5,-257.67 519.25,-251.7 508.69,-250.91 510.5,-257.67"/>
</g>
<!-- Node9 -->
<g id="node9" class="node">
<title>Node9</title>
<g id="a_node9"><a xlink:title=" ">
<polygon fill="none" stroke="#bfbfbf" points="594.5,-232.5 594.5,-253.5 659.5,-253.5 659.5,-232.5 594.5,-232.5"/>
<text text-anchor="middle" x="627" y="-239.9" font-family="Helvetica,sans-Serif" font-size="12.00">sstream</text>
</a>
</g>
</g>
<!-- Node1&#45;&gt;Node9 -->
<g id="edge11" class="edge">
<title>Node1&#45;&gt;Node9</title>
<path fill="none" stroke="midnightblue" d="M375.12,-293.92C421.37,-285.98 504.22,-271.31 584.13,-254.32"/>
<polygon fill="midnightblue" stroke="midnightblue" points="585.32,-257.65 594.36,-252.13 583.85,-250.8 585.32,-257.65"/>
</g>
<!-- Node10 -->
<g id="node10" class="node">
<title>Node10</title>
<g id="a_node10"><a xlink:href="markov_passwords_8h.html" target="_top" xlink:title=" ">
<polygon fill="none" stroke="black" points="367,-232.5 367,-253.5 501,-253.5 501,-232.5 367,-232.5"/>
<text text-anchor="middle" x="434" y="-239.9" font-family="Helvetica,sans-Serif" font-size="12.00">markovPasswords.h</text>
</a>
</g>
</g>
<!-- Node1&#45;&gt;Node10 -->
<g id="edge12" class="edge">
<title>Node1&#45;&gt;Node10</title>
<path fill="none" stroke="midnightblue" d="M355.55,-290.25C370.26,-281.57 391.99,-268.76 408.85,-258.82"/>
<polygon fill="midnightblue" stroke="midnightblue" points="410.8,-261.74 417.64,-253.64 407.25,-255.71 410.8,-261.74"/>
</g>
<!-- Node3&#45;&gt;Node2 -->
<g id="edge3" class="edge">
<title>Node3&#45;&gt;Node2</title>
<path fill="none" stroke="midnightblue" d="M79.22,-116.28C91.4,-97.27 118.54,-54.88 134.22,-30.4"/>
<polygon fill="midnightblue" stroke="midnightblue" points="137.35,-32 139.79,-21.69 131.45,-28.23 137.35,-32"/>
</g>
<!-- Node4 -->
<g id="node4" class="node">
<title>Node4</title>
<g id="a_node4"><a xlink:title=" ">
<polygon fill="none" stroke="#bfbfbf" points="429,-58.5 429,-79.5 473,-79.5 473,-58.5 429,-58.5"/>
<text text-anchor="middle" x="451" y="-65.9" font-family="Helvetica,sans-Serif" font-size="12.00">map</text>
</a>
</g>
</g>
<!-- Node3&#45;&gt;Node4 -->
<g id="edge4" class="edge">
<title>Node3&#45;&gt;Node4</title>
<path fill="none" stroke="midnightblue" d="M117.85,-119.36C195.07,-107.92 351.34,-84.76 418.8,-74.77"/>
<polygon fill="midnightblue" stroke="midnightblue" points="419.46,-78.21 428.84,-73.28 418.43,-71.29 419.46,-78.21"/>
</g>
<!-- Node5&#45;&gt;Node2 -->
<g id="edge7" class="edge">
<title>Node5&#45;&gt;Node2</title>
<path fill="none" stroke="midnightblue" d="M226.44,-175.33C205.2,-168.67 180.64,-157.24 166,-138 142.3,-106.84 141.79,-58.65 143.75,-31.79"/>
<polygon fill="midnightblue" stroke="midnightblue" points="147.25,-31.98 144.68,-21.7 140.28,-31.34 147.25,-31.98"/>
</g>
<!-- Node5&#45;&gt;Node6 -->
<g id="edge6" class="edge">
<title>Node5&#45;&gt;Node6</title>
<path fill="none" stroke="midnightblue" d="M289.69,-174.37C311.07,-165.3 343.31,-151.63 367.24,-141.48"/>
<polygon fill="midnightblue" stroke="midnightblue" points="368.77,-144.63 376.6,-137.5 366.03,-138.18 368.77,-144.63"/>
</g>
<!-- Node7 -->
<g id="node7" class="node">
<title>Node7</title>
<g id="a_node7"><a xlink:title=" ">
<polygon fill="none" stroke="#bfbfbf" points="174.5,-116.5 174.5,-137.5 355.5,-137.5 355.5,-116.5 174.5,-116.5"/>
<text text-anchor="middle" x="265" y="-123.9" font-family="Helvetica,sans-Serif" font-size="12.00">boost/program_options.hpp</text>
</a>
</g>
</g>
<!-- Node5&#45;&gt;Node7 -->
<g id="edge8" class="edge">
<title>Node5&#45;&gt;Node7</title>
<path fill="none" stroke="midnightblue" d="M266.65,-174.25C266.39,-166.94 266.02,-156.69 265.7,-147.7"/>
<polygon fill="midnightblue" stroke="midnightblue" points="269.2,-147.51 265.34,-137.64 262.2,-147.76 269.2,-147.51"/>
</g>
<!-- Node11 -->
<g id="node11" class="node">
<title>Node11</title>
<g id="a_node11"><a xlink:href="thread_shared_list_handler_8h.html" target="_top" xlink:title=" ">
<polygon fill="none" stroke="black" points="372.5,-174.5 372.5,-195.5 547.5,-195.5 547.5,-174.5 372.5,-174.5"/>
<text text-anchor="middle" x="460" y="-181.9" font-family="Helvetica,sans-Serif" font-size="12.00">threadSharedListHandler.h</text>
</a>
</g>
</g>
<!-- Node10&#45;&gt;Node11 -->
<g id="edge13" class="edge">
<title>Node10&#45;&gt;Node11</title>
<path fill="none" stroke="midnightblue" d="M438.53,-232.25C442.03,-224.7 446.99,-214.02 451.26,-204.82"/>
<polygon fill="midnightblue" stroke="midnightblue" points="454.49,-206.19 455.52,-195.64 448.14,-203.24 454.49,-206.19"/>
</g>
<!-- Node14 -->
<g id="node14" class="node">
<title>Node14</title>
<g id="a_node14"><a xlink:href="model_8h.html" target="_top" xlink:title=" ">
<polygon fill="none" stroke="black" points="579,-174.5 579,-195.5 749,-195.5 749,-174.5 579,-174.5"/>
<text text-anchor="middle" x="664" y="-181.9" font-family="Helvetica,sans-Serif" font-size="12.00">MarkovModel/src/model.h</text>
</a>
</g>
</g>
<!-- Node10&#45;&gt;Node14 -->
<g id="edge17" class="edge">
<title>Node10&#45;&gt;Node14</title>
<path fill="none" stroke="midnightblue" d="M473.28,-232.44C512.47,-222.89 572.8,-208.21 615.08,-197.91"/>
<polygon fill="midnightblue" stroke="midnightblue" points="616,-201.29 624.88,-195.52 614.34,-194.49 616,-201.29"/>
</g>
<!-- Node11&#45;&gt;Node6 -->
<g id="edge14" class="edge">
<title>Node11&#45;&gt;Node6</title>
<path fill="none" stroke="midnightblue" d="M449.37,-174.25C440.45,-166.05 427.51,-154.17 416.98,-144.51"/>
<polygon fill="midnightblue" stroke="midnightblue" points="419.24,-141.83 409.5,-137.64 414.5,-146.98 419.24,-141.83"/>
</g>
<!-- Node12 -->
<g id="node12" class="node">
<title>Node12</title>
<g id="a_node12"><a xlink:title=" ">
<polygon fill="none" stroke="#bfbfbf" points="515.5,-116.5 515.5,-137.5 578.5,-137.5 578.5,-116.5 515.5,-116.5"/>
<text text-anchor="middle" x="547" y="-123.9" font-family="Helvetica,sans-Serif" font-size="12.00">fstream</text>
</a>
</g>
</g>
<!-- Node11&#45;&gt;Node12 -->
<g id="edge15" class="edge">
<title>Node11&#45;&gt;Node12</title>
<path fill="none" stroke="midnightblue" d="M475.15,-174.25C488.5,-165.65 508.16,-153 523.54,-143.1"/>
<polygon fill="midnightblue" stroke="midnightblue" points="525.51,-146 532.02,-137.64 521.72,-140.11 525.51,-146"/>
</g>
<!-- Node13 -->
<g id="node13" class="node">
<title>Node13</title>
<g id="a_node13"><a xlink:title=" ">
<polygon fill="none" stroke="#bfbfbf" points="442.5,-116.5 442.5,-137.5 497.5,-137.5 497.5,-116.5 442.5,-116.5"/>
<text text-anchor="middle" x="470" y="-123.9" font-family="Helvetica,sans-Serif" font-size="12.00">mutex</text>
</a>
</g>
</g>
<!-- Node11&#45;&gt;Node13 -->
<g id="edge16" class="edge">
<title>Node11&#45;&gt;Node13</title>
<path fill="none" stroke="midnightblue" d="M461.74,-174.25C463.05,-166.94 464.88,-156.69 466.48,-147.7"/>
<polygon fill="midnightblue" stroke="midnightblue" points="469.97,-148.1 468.28,-137.64 463.07,-146.87 469.97,-148.1"/>
</g>
<!-- Node14&#45;&gt;Node4 -->
<g id="edge18" class="edge">
<title>Node14&#45;&gt;Node4</title>
<path fill="none" stroke="midnightblue" d="M655.6,-174.3C642.51,-159.74 615.85,-132.2 588,-116 569.94,-105.49 517.39,-89.19 482.87,-79.07"/>
<polygon fill="midnightblue" stroke="midnightblue" points="483.81,-75.7 473.23,-76.27 481.85,-82.42 483.81,-75.7"/>
</g>
<!-- Node14&#45;&gt;Node6 -->
<g id="edge22" class="edge">
<title>Node14&#45;&gt;Node6</title>
<path fill="none" stroke="midnightblue" d="M609.82,-174.44C563.04,-165.89 493.76,-152.49 434,-138 433.9,-137.98 433.8,-137.95 433.7,-137.93"/>
<polygon fill="midnightblue" stroke="midnightblue" points="434.73,-134.58 424.17,-135.45 432.97,-141.35 434.73,-134.58"/>
</g>
<!-- Node14&#45;&gt;Node12 -->
<g id="edge20" class="edge">
<title>Node14&#45;&gt;Node12</title>
<path fill="none" stroke="midnightblue" d="M643.89,-174.37C625.19,-165.42 597.13,-151.99 576.01,-141.88"/>
<polygon fill="midnightblue" stroke="midnightblue" points="577.38,-138.66 566.85,-137.5 574.36,-144.98 577.38,-138.66"/>
</g>
<!-- Node15 -->
<g id="node15" class="node">
<title>Node15</title>
<g id="a_node15"><a xlink:title=" ">
<polygon fill="none" stroke="#bfbfbf" points="715.5,-58.5 715.5,-79.5 770.5,-79.5 770.5,-58.5 715.5,-58.5"/>
<text text-anchor="middle" x="743" y="-65.9" font-family="Helvetica,sans-Serif" font-size="12.00">vector</text>
</a>
</g>
</g>
<!-- Node14&#45;&gt;Node15 -->
<g id="edge19" class="edge">
<title>Node14&#45;&gt;Node15</title>
<path fill="none" stroke="midnightblue" d="M737.66,-174.44C759.36,-167.81 780.8,-156.67 794,-138 807,-119.61 786.37,-98.98 767.59,-85.31"/>
<polygon fill="midnightblue" stroke="midnightblue" points="769.44,-82.34 759.22,-79.56 765.48,-88.11 769.44,-82.34"/>
</g>
<!-- Node16 -->
<g id="node16" class="node">
<title>Node16</title>
<g id="a_node16"><a xlink:title=" ">
<polygon fill="none" stroke="#bfbfbf" points="788.5,-58.5 788.5,-79.5 853.5,-79.5 853.5,-58.5 788.5,-58.5"/>
<text text-anchor="middle" x="821" y="-65.9" font-family="Helvetica,sans-Serif" font-size="12.00">assert.h</text>
</a>
</g>
</g>
<!-- Node14&#45;&gt;Node16 -->
<g id="edge21" class="edge">
<title>Node14&#45;&gt;Node16</title>
<path fill="none" stroke="midnightblue" d="M746.91,-174.43C770.4,-167.76 793.92,-156.59 810,-138 821.34,-124.88 823.37,-104.8 822.99,-89.86"/>
<polygon fill="midnightblue" stroke="midnightblue" points="826.46,-89.39 822.34,-79.63 819.48,-89.83 826.46,-89.39"/>
</g>
<!-- Node17 -->
<g id="node17" class="node">
<title>Node17</title>
<g id="a_node17"><a xlink:title=" ">
<polygon fill="none" stroke="#bfbfbf" points="711,-116.5 711,-137.5 785,-137.5 785,-116.5 711,-116.5"/>
<text text-anchor="middle" x="748" y="-123.9" font-family="Helvetica,sans-Serif" font-size="12.00">algorithm</text>
</a>
</g>
</g>
<!-- Node14&#45;&gt;Node17 -->
<g id="edge23" class="edge">
<title>Node14&#45;&gt;Node17</title>
<path fill="none" stroke="midnightblue" d="M678.63,-174.25C691.4,-165.73 710.14,-153.24 724.93,-143.38"/>
<polygon fill="midnightblue" stroke="midnightblue" points="727.16,-146.1 733.54,-137.64 723.27,-140.28 727.16,-146.1"/>
</g>
<!-- Node18 -->
<g id="node18" class="node">
<title>Node18</title>
<g id="a_node18"><a xlink:href="node_8h.html" target="_top" xlink:title=" ">
<polygon fill="none" stroke="black" points="635,-116.5 635,-137.5 693,-137.5 693,-116.5 635,-116.5"/>
<text text-anchor="middle" x="664" y="-123.9" font-family="Helvetica,sans-Serif" font-size="12.00">node.h</text>
</a>
</g>
</g>
<!-- Node14&#45;&gt;Node18 -->
<g id="edge24" class="edge">
<title>Node14&#45;&gt;Node18</title>
<path fill="none" stroke="midnightblue" d="M664,-174.25C664,-166.94 664,-156.69 664,-147.7"/>
<polygon fill="midnightblue" stroke="midnightblue" points="667.5,-147.64 664,-137.64 660.5,-147.64 667.5,-147.64"/>
</g>
<!-- Node20 -->
<g id="node20" class="node">
<title>Node20</title>
<g id="a_node20"><a xlink:href="edge_8h.html" target="_top" xlink:title=" ">
<polygon fill="none" stroke="black" points="872,-58.5 872,-79.5 930,-79.5 930,-58.5 872,-58.5"/>
<text text-anchor="middle" x="901" y="-65.9" font-family="Helvetica,sans-Serif" font-size="12.00">edge.h</text>
</a>
</g>
</g>
<!-- Node14&#45;&gt;Node20 -->
<g id="edge36" class="edge">
<title>Node14&#45;&gt;Node20</title>
<path fill="none" stroke="midnightblue" d="M724.37,-174.48C756.86,-167.59 796.77,-156.22 829,-138 851.99,-125.01 873.3,-103.14 886.68,-87.71"/>
<polygon fill="midnightblue" stroke="midnightblue" points="889.49,-89.81 893.26,-79.9 884.14,-85.3 889.49,-89.81"/>
</g>
<!-- Node18&#45;&gt;Node2 -->
<g id="edge28" class="edge">
<title>Node18&#45;&gt;Node2</title>
<path fill="none" stroke="midnightblue" d="M634.88,-118.5C605.53,-110.51 559.23,-96.73 521,-80 502.77,-72.02 500.86,-64.35 482,-58 381.63,-24.2 256.42,-15.19 190.84,-12.82"/>
<polygon fill="midnightblue" stroke="midnightblue" points="190.94,-9.32 180.83,-12.49 190.71,-16.32 190.94,-9.32"/>
</g>
<!-- Node18&#45;&gt;Node4 -->
<g id="edge26" class="edge">
<title>Node18&#45;&gt;Node4</title>
<path fill="none" stroke="midnightblue" d="M634.83,-118.58C599.72,-109.61 538.97,-93.97 487,-80 485.73,-79.66 484.44,-79.31 483.13,-78.95"/>
<polygon fill="midnightblue" stroke="midnightblue" points="483.64,-75.46 473.07,-76.19 481.79,-82.21 483.64,-75.46"/>
</g>
<!-- Node18&#45;&gt;Node15 -->
<g id="edge25" class="edge">
<title>Node18&#45;&gt;Node15</title>
<path fill="none" stroke="midnightblue" d="M677.76,-116.25C689.66,-107.81 707.07,-95.47 720.91,-85.66"/>
<polygon fill="midnightblue" stroke="midnightblue" points="723.26,-88.28 729.4,-79.64 719.21,-82.57 723.26,-88.28"/>
</g>
<!-- Node18&#45;&gt;Node16 -->
<g id="edge27" class="edge">
<title>Node18&#45;&gt;Node16</title>
<path fill="none" stroke="midnightblue" d="M690.99,-116.37C716.87,-107.14 756.12,-93.14 784.73,-82.94"/>
<polygon fill="midnightblue" stroke="midnightblue" points="786.12,-86.16 794.36,-79.5 783.77,-79.56 786.12,-86.16"/>
</g>
<!-- Node19 -->
<g id="node19" class="node">
<title>Node19</title>
<g id="a_node19"><a xlink:title=" ">
<polygon fill="none" stroke="#bfbfbf" points="529.5,-58.5 529.5,-79.5 604.5,-79.5 604.5,-58.5 529.5,-58.5"/>
<text text-anchor="middle" x="567" y="-65.9" font-family="Helvetica,sans-Serif" font-size="12.00">stdexcept</text>
</a>
</g>
</g>
<!-- Node18&#45;&gt;Node19 -->
<g id="edge29" class="edge">
<title>Node18&#45;&gt;Node19</title>
<path fill="none" stroke="midnightblue" d="M647.1,-116.25C632.08,-107.57 609.9,-94.76 592.68,-84.82"/>
<polygon fill="midnightblue" stroke="midnightblue" points="594.11,-81.61 583.7,-79.64 590.61,-87.67 594.11,-81.61"/>
</g>
<!-- Node18&#45;&gt;Node20 -->
<g id="edge30" class="edge">
<title>Node18&#45;&gt;Node20</title>
<path fill="none" stroke="midnightblue" d="M693.02,-118.24C696.05,-117.47 699.08,-116.71 702,-116 770.18,-99.41 790.07,-97.48 861.97,-80.18"/>
<polygon fill="midnightblue" stroke="midnightblue" points="863.09,-83.51 871.98,-77.76 861.44,-76.71 863.09,-83.51"/>
</g>
<!-- Node23 -->
<g id="node23" class="node">
<title>Node23</title>
<g id="a_node23"><a xlink:href="random_8h.html" target="_top" xlink:title=" ">
<polygon fill="none" stroke="black" points="622.5,-58.5 622.5,-79.5 697.5,-79.5 697.5,-58.5 622.5,-58.5"/>
<text text-anchor="middle" x="660" y="-65.9" font-family="Helvetica,sans-Serif" font-size="12.00">random.h</text>
</a>
</g>
</g>
<!-- Node18&#45;&gt;Node23 -->
<g id="edge33" class="edge">
<title>Node18&#45;&gt;Node23</title>
<path fill="none" stroke="midnightblue" d="M663.3,-116.25C662.78,-108.94 662.05,-98.69 661.41,-89.7"/>
<polygon fill="midnightblue" stroke="midnightblue" points="664.89,-89.37 660.69,-79.64 657.91,-89.87 664.89,-89.37"/>
</g>
<!-- Node21 -->
<g id="node21" class="node">
<title>Node21</title>
<g id="a_node21"><a xlink:title=" ">
<polygon fill="none" stroke="#bfbfbf" points="834,-0.5 834,-21.5 890,-21.5 890,-0.5 834,-0.5"/>
<text text-anchor="middle" x="862" y="-7.9" font-family="Helvetica,sans-Serif" font-size="12.00">cstdint</text>
</a>
</g>
</g>
<!-- Node20&#45;&gt;Node21 -->
<g id="edge31" class="edge">
<title>Node20&#45;&gt;Node21</title>
<path fill="none" stroke="midnightblue" d="M894.21,-58.25C888.78,-50.46 881.03,-39.33 874.5,-29.94"/>
<polygon fill="midnightblue" stroke="midnightblue" points="877.3,-27.85 868.72,-21.64 871.56,-31.85 877.3,-27.85"/>
</g>
<!-- Node22 -->
<g id="node22" class="node">
<title>Node22</title>
<g id="a_node22"><a xlink:title=" ">
<polygon fill="none" stroke="#bfbfbf" points="908.5,-0.5 908.5,-21.5 969.5,-21.5 969.5,-0.5 908.5,-0.5"/>
<text text-anchor="middle" x="939" y="-7.9" font-family="Helvetica,sans-Serif" font-size="12.00">cstddef</text>
</a>
</g>
</g>
<!-- Node20&#45;&gt;Node22 -->
<g id="edge32" class="edge">
<title>Node20&#45;&gt;Node22</title>
<path fill="none" stroke="midnightblue" d="M907.62,-58.25C912.9,-50.46 920.45,-39.33 926.82,-29.94"/>
<polygon fill="midnightblue" stroke="midnightblue" points="929.74,-31.88 932.46,-21.64 923.95,-27.95 929.74,-31.88"/>
</g>
<!-- Node23&#45;&gt;Node2 -->
<g id="edge35" class="edge">
<title>Node23&#45;&gt;Node2</title>
<path fill="none" stroke="midnightblue" d="M622.41,-59.46C619.57,-58.93 616.74,-58.43 614,-58 459.51,-33.7 274.18,-20.01 190.67,-14.66"/>
<polygon fill="midnightblue" stroke="midnightblue" points="190.72,-11.15 180.52,-14.02 190.28,-18.14 190.72,-11.15"/>
</g>
<!-- Node24 -->
<g id="node24" class="node">
<title>Node24</title>
<g id="a_node24"><a xlink:title=" ">
<polygon fill="none" stroke="#bfbfbf" points="628,-0.5 628,-21.5 692,-21.5 692,-0.5 628,-0.5"/>
<text text-anchor="middle" x="660" y="-7.9" font-family="Helvetica,sans-Serif" font-size="12.00">random</text>
</a>
</g>
</g>
<!-- Node23&#45;&gt;Node24 -->
<g id="edge34" class="edge">
<title>Node23&#45;&gt;Node24</title>
<path fill="none" stroke="midnightblue" d="M660,-58.25C660,-50.94 660,-40.69 660,-31.7"/>
<polygon fill="midnightblue" stroke="midnightblue" points="663.5,-31.64 660,-21.64 656.5,-31.64 663.5,-31.64"/>
</g>
</g>
</svg>
        <g id="navigator" transform="translate(0 0)" fill="#404254">
                <rect fill="#f2f5e9" fill-opacity="0.5" stroke="#606060" stroke-width=".5" x="0" y="0" width="60" height="60"/>
                <use id="zoomplus" xlink:href="#zoomPlus" x="17" y="9" onmousedown="handleZoom(evt,'in')"/>
                <use id="zoomminus" xlink:href="#zoomMin" x="42" y="9" onmousedown="handleZoom(evt,'out')"/>
                <use id="reset" xlink:href="#resetDef" x="30" y="36" onmousedown="handleReset()"/>
                <g id="arrowUp" xlink:href="#dirArrow" transform="translate(30 24)" onmousedown="handlePan(0,-1)">
                  <use xlink:href="#rim" fill="#404040">
                        <set attributeName="fill" to="#808080" begin="arrowUp.mouseover" end="arrowUp.mouseout"/>
                  </use>
                  <path fill="none" stroke="white" stroke-width="1.5" d="M0,-3.0v7 M-2.5,-0.5L0,-3.0L2.5,-0.5"/>
                </g>
                <g id="arrowRight" xlink:href="#dirArrow" transform="rotate(90) translate(36 -43)" onmousedown="handlePan(1,0)">
                  <use xlink:href="#rim" fill="#404040">
                        <set attributeName="fill" to="#808080" begin="arrowRight.mouseover" end="arrowRight.mouseout"/>
                  </use>
                  <path fill="none" stroke="white" stroke-width="1.5" d="M0,-3.0v7 M-2.5,-0.5L0,-3.0L2.5,-0.5"/>
                </g>
                <g id="arrowDown" xlink:href="#dirArrow" transform="rotate(180) translate(-30 -48)" onmousedown="handlePan(0,1)">
                  <use xlink:href="#rim" fill="#404040">
                        <set attributeName="fill" to="#808080" begin="arrowDown.mouseover" end="arrowDown.mouseout"/>
                  </use>
                  <path fill="none" stroke="white" stroke-width="1.5" d="M0,-3.0v7 M-2.5,-0.5L0,-3.0L2.5,-0.5"/>
                </g>
                <g id="arrowLeft" xlink:href="#dirArrow" transform="rotate(270) translate(-36 17)" onmousedown="handlePan(-1,0)">
                  <use xlink:href="#rim" fill="#404040">
                        <set attributeName="fill" to="#808080" begin="arrowLeft.mouseover" end="arrowLeft.mouseout"/>
                  </use>
                  <path fill="none" stroke="white" stroke-width="1.5" d="M0,-3.0v7 M-2.5,-0.5L0,-3.0L2.5,-0.5"/>
                </g>
        </g>
        <svg viewBox="0 0 15 15" width="100%" height="30px" preserveAspectRatio="xMaxYMin meet">
         <g id="arrow_out" transform="scale(0.3 0.3)">
          <a xlink:href="src_2main_8cpp__incl_org.svg" target="_base">
           <rect id="button" ry="5" rx="5" y="6" x="6" height="38" width="38"
                fill="#f2f5e9" fill-opacity="0.5" stroke="#606060" stroke-width="1.0"/>
           <path id="arrow"
             d="M 11.500037,31.436501 C 11.940474,20.09759 22.043105,11.32322 32.158766,21.979434 L 37.068811,17.246167 C 37.068811,17.246167 37.088388,32 37.088388,32 L 22.160133,31.978069 C 22.160133,31.978069 26.997745,27.140456 26.997745,27.140456 C 18.528582,18.264221 13.291696,25.230495 11.500037,31.436501 z"
             style="fill:#404040;"/>
          </a>
         </g>
        </svg>
</svg>
