<?xml version="1.0" encoding="UTF-8" standalone="no"?>
<!DOCTYPE svg PUBLIC "-//W3C//DTD SVG 1.1//EN"
 "http://www.w3.org/Graphics/SVG/1.1/DTD/svg11.dtd">
<!-- Generated by graphviz version 2.43.0 (0)
 -->
<!-- Title: main Pages: 1 -->
<svg width="772pt" height="124pt"
 viewBox="0.00 0.00 772.00 123.50" xmlns="http://www.w3.org/2000/svg" xmlns:xlink="http://www.w3.org/1999/xlink">
<g id="graph0" class="graph" transform="scale(1 1) rotate(0) translate(4 119.5)">
<title>main</title>
<!-- Node1 -->
<g id="node1" class="node">
<title>Node1</title>
<g id="a_node1"><a xlink:title="Launch CLI tool.">
<polygon fill="#bfbfbf" stroke="black" points="0,-54 0,-75 47,-75 47,-54 0,-54"/>
<text text-anchor="middle" x="23.5" y="-61.4" font-family="Helvetica,sans-Serif" font-size="12.00">main</text>
</a>
</g>
</g>
<!-- Node2 -->
<g id="node2" class="node">
<title>Node2</title>
<g id="a_node2"><a xlink:href="class_markov_1_1_model.html#ae16027a94235d2988ac4be35ea07d939" target="_top" xlink:title="Export a file of the model.">
<polygon fill="none" stroke="black" points="107.5,-94 107.5,-115 258.5,-115 258.5,-94 107.5,-94"/>
<text text-anchor="middle" x="183" y="-101.4" font-family="Helvetica,sans-Serif" font-size="12.00">Markov::Model::Export</text>
</a>
</g>
</g>
<!-- Node1&#45;&gt;Node2 -->
<g id="edge1" class="edge">
<title>Node1&#45;&gt;Node2</title>
<path fill="none" stroke="midnightblue" d="M47.07,-72.98C57.84,-76.84 70.98,-81.25 83,-84.5 92.81,-87.16 103.26,-89.64 113.55,-91.88"/>
<polygon fill="midnightblue" stroke="midnightblue" points="112.83,-95.31 123.34,-93.96 114.28,-88.46 112.83,-95.31"/>
</g>
<!-- Node3 -->
<g id="node3" class="node">
<title>Node3</title>
<g id="a_node3"><a xlink:href="class_markov_1_1_model.html#a379ea9943f9d4c212e1140d4a9af64f5" target="_top" xlink:title="Import a file to construct the model.">
<polygon fill="none" stroke="black" points="107,-54 107,-75 259,-75 259,-54 107,-54"/>
<text text-anchor="middle" x="183" y="-61.4" font-family="Helvetica,sans-Serif" font-size="12.00">Markov::Model::Import</text>
</a>
</g>
</g>
<!-- Node1&#45;&gt;Node3 -->
<g id="edge2" class="edge">
<title>Node1&#45;&gt;Node3</title>
<path fill="none" stroke="midnightblue" d="M47.07,-64.5C60.41,-64.5 78.26,-64.5 96.59,-64.5"/>
<polygon fill="midnightblue" stroke="midnightblue" points="96.79,-68 106.79,-64.5 96.79,-61 96.79,-68"/>
</g>
<!-- Node4 -->
<g id="node4" class="node">
<title>Node4</title>
<g id="a_node4"><a xlink:href="class_markov_1_1_a_p_i_1_1_markov_passwords.html#a2fd4423ae3850e258dcb6b11a7feb9b2" target="_top" xlink:title="Train the model with the dataset file.">
<polygon fill="none" stroke="black" points="83,-0.5 83,-34.5 283,-34.5 283,-0.5 83,-0.5"/>
<text text-anchor="start" x="91" y="-20.9" font-family="Helvetica,sans-Serif" font-size="12.00">Markov::API::MarkovPasswords</text>
<text text-anchor="middle" x="183" y="-7.9" font-family="Helvetica,sans-Serif" font-size="12.00">::Train</text>
</a>
</g>
</g>
<!-- Node1&#45;&gt;Node4 -->
<g id="edge3" class="edge">
<title>Node1&#45;&gt;Node4</title>
<path fill="none" stroke="midnightblue" d="M47.17,-56.38C57.97,-52.6 71.1,-48.15 83,-44.5 90.9,-42.08 99.18,-39.65 107.45,-37.29"/>
<polygon fill="midnightblue" stroke="midnightblue" points="108.45,-40.64 117.13,-34.56 106.55,-33.9 108.45,-40.64"/>
</g>
<!-- Node5 -->
<g id="node5" class="node">
<title>Node5</title>
<g id="a_node5"><a xlink:href="class_markov_1_1_a_p_i_1_1_markov_passwords.html#a5f51b0fdb75101b797f38b08da84848e" target="_top" xlink:title="A single thread invoked by the Train function.">
<polygon fill="none" stroke="black" points="319,-0.5 319,-34.5 519,-34.5 519,-0.5 319,-0.5"/>
<text text-anchor="start" x="327" y="-20.9" font-family="Helvetica,sans-Serif" font-size="12.00">Markov::API::MarkovPasswords</text>
<text text-anchor="middle" x="419" y="-7.9" font-family="Helvetica,sans-Serif" font-size="12.00">::TrainThread</text>
</a>
</g>
</g>
<!-- Node4&#45;&gt;Node5 -->
<g id="edge4" class="edge">
<title>Node4&#45;&gt;Node5</title>
<path fill="none" stroke="midnightblue" d="M283.24,-17.5C291.74,-17.5 300.38,-17.5 308.95,-17.5"/>
<polygon fill="midnightblue" stroke="midnightblue" points="308.98,-21 318.98,-17.5 308.98,-14 308.98,-21"/>
</g>
<!-- Node6 -->
<g id="node6" class="node">
<title>Node6</title>
<g id="a_node6"><a xlink:href="class_markov_1_1_a_p_i_1_1_concurrency_1_1_thread_shared_list_handler.html#a068e1a9ff477de23a44c10230df416a5" target="_top" xlink:title="Read the next line from the file.">
<polygon fill="none" stroke="black" points="555,-0.5 555,-34.5 764,-34.5 764,-0.5 555,-0.5"/>
<text text-anchor="start" x="563" y="-20.9" font-family="Helvetica,sans-Serif" font-size="12.00">Markov::API::Concurrency</text>
<text text-anchor="middle" x="659.5" y="-7.9" font-family="Helvetica,sans-Serif" font-size="12.00">::ThreadSharedListHandler::next</text>
</a>
</g>
</g>
<!-- Node5&#45;&gt;Node6 -->
<g id="edge5" class="edge">
<title>Node5&#45;&gt;Node6</title>
<path fill="none" stroke="midnightblue" d="M519.07,-17.5C527.54,-17.5 536.14,-17.5 544.7,-17.5"/>
<polygon fill="midnightblue" stroke="midnightblue" points="544.73,-21 554.73,-17.5 544.73,-14 544.73,-21"/>
</g>
</g>
</svg>
