<?xml version="1.0" encoding="UTF-8" standalone="no"?>
<!DOCTYPE svg PUBLIC "-//W3C//DTD SVG 1.1//EN"
 "http://www.w3.org/Graphics/SVG/1.1/DTD/svg11.dtd">
<!-- Generated by graphviz version 2.43.0 (0)
 -->
<!-- Title: main Pages: 1 -->
<!--zoomable 390 -->
<svg id="main" version="1.1" xmlns="http://www.w3.org/2000/svg" xmlns:xlink="http://www.w3.org/1999/xlink" xml:space="preserve" onload="init(evt)">
<style type="text/css"><![CDATA[
.edge:hover path { stroke: red; }
.edge:hover polygon { stroke: red; fill: red; }
]]></style>
<script type="text/javascript"><![CDATA[
var edges = document.getElementsByTagName('g');
if (edges && edges.length) {
  for (var i=0;i<edges.length;i++) {
    if (edges[i].id.substr(0,4)=='edge') {
      edges[i].setAttribute('class','edge');
    }
  }
}
]]></script>
        <defs>
                <circle id="rim" cx="0" cy="0" r="7"/>
                <circle id="rim2" cx="0" cy="0" r="3.5"/>
                <g id="zoomPlus">
                        <use xlink:href="#rim" fill="#404040">
                                <set attributeName="fill" to="#808080" begin="zoomplus.mouseover" end="zoomplus.mouseout"/>
                        </use>
                        <path d="M-4,0h8M0,-4v8" fill="none" stroke="white" stroke-width="1.5" pointer-events="none"/>
                </g>
                <g id="zoomMin">
                        <use xlink:href="#rim" fill="#404040">
                                <set attributeName="fill" to="#808080" begin="zoomminus.mouseover" end="zoomminus.mouseout"/>
                        </use>
                        <path d="M-4,0h8" fill="none" stroke="white" stroke-width="1.5" pointer-events="none"/>
                </g>
                <g id="dirArrow">
                        <path fill="none" stroke="white" stroke-width="1.5" d="M0,-3.0v7 M-2.5,-0.5L0,-3.0L2.5,-0.5"/>
                </g>
               <g id="resetDef">
                       <use xlink:href="#rim2" fill="#404040">
                               <set attributeName="fill" to="#808080" begin="reset.mouseover" end="reset.mouseout"/>
                       </use>
               </g>
        </defs>

<script type="text/javascript">
var viewWidth = 995;
var viewHeight = 390;
var sectionId = 'dynsection-1';
</script>
<script xlink:href="svgpan.js"/>
<svg id="graph" class="graph">
<g id="viewport">
<title>main</title>
<!-- Node1 -->
<g id="node1" class="node">
<title>Node1</title>
<g id="a_node1"><a xlink:title="Launch CLI tool.">
<polygon fill="#bfbfbf" stroke="black" points="0,-196.5 0,-217.5 47,-217.5 47,-196.5 0,-196.5"/>
<text text-anchor="middle" x="23.5" y="-203.9" font-family="Helvetica,sans-Serif" font-size="12.00">main</text>
</a>
</g>
</g>
<!-- Node2 -->
<g id="node2" class="node">
<title>Node2</title>
<g id="a_node2"><a xlink:href="class_markov_1_1_a_p_i_1_1_c_l_i_1_1_argparse.html#ade2af065fa284422883812389f3ad2d7" target="_top" xlink:title="Parse command line arguements.">
<polygon fill="none" stroke="black" points="83,-261 83,-295 259,-295 259,-261 83,-261"/>
<text text-anchor="start" x="91" y="-281.4" font-family="Helvetica,sans-Serif" font-size="12.00">Markov::API::CLI::Argparse</text>
<text text-anchor="middle" x="171" y="-268.4" font-family="Helvetica,sans-Serif" font-size="12.00">::Argparse</text>
</a>
</g>
</g>
<!-- Node1&#45;&gt;Node2 -->
<g id="edge1" class="edge">
<title>Node1&#45;&gt;Node2</title>
<path fill="none" stroke="midnightblue" d="M36.23,-217.76C47.49,-227.61 65.35,-241.97 83,-251 87.26,-253.18 91.74,-255.22 96.31,-257.13"/>
<polygon fill="midnightblue" stroke="midnightblue" points="95.21,-260.46 105.8,-260.85 97.77,-253.94 95.21,-260.46"/>
</g>
<!-- Node3 -->
<g id="node3" class="node">
<title>Node3</title>
<g id="a_node3"><a xlink:href="class_markov_1_1_model.html#af788426a3c41a7838a2aae199e8aef5b" target="_top" xlink:title="Open a file to export with filename, and call bool Model::Export with std::ofstream.">
<polygon fill="none" stroke="black" points="95.5,-220.5 95.5,-241.5 246.5,-241.5 246.5,-220.5 95.5,-220.5"/>
<text text-anchor="middle" x="171" y="-227.9" font-family="Helvetica,sans-Serif" font-size="12.00">Markov::Model::Export</text>
</a>
</g>
</g>
<!-- Node1&#45;&gt;Node3 -->
<g id="edge2" class="edge">
<title>Node1&#45;&gt;Node3</title>
<path fill="none" stroke="midnightblue" d="M47.23,-210.75C60.65,-212.96 78.48,-215.9 96.37,-218.85"/>
<polygon fill="midnightblue" stroke="midnightblue" points="95.85,-222.32 106.29,-220.49 96.99,-215.41 95.85,-222.32"/>
</g>
<!-- Node4 -->
<g id="node4" class="node">
<title>Node4</title>
<g id="a_node4"><a xlink:href="class_markov_1_1_a_p_i_1_1_model_matrix.html#aeba8bb79aa4dc2cfeda310f34b7c9427" target="_top" xlink:title="Open a file to import with filename, and call bool Model::Import with std::ifstream.">
<polygon fill="none" stroke="black" points="86.5,-114 86.5,-148 255.5,-148 255.5,-114 86.5,-114"/>
<text text-anchor="start" x="94.5" y="-134.4" font-family="Helvetica,sans-Serif" font-size="12.00">Markov::API::ModelMatrix</text>
<text text-anchor="middle" x="171" y="-121.4" font-family="Helvetica,sans-Serif" font-size="12.00">::Import</text>
</a>
</g>
</g>
<!-- Node1&#45;&gt;Node4 -->
<g id="edge3" class="edge">
<title>Node1&#45;&gt;Node4</title>
<path fill="none" stroke="midnightblue" d="M34.28,-196.33C45.16,-185.05 63.76,-167.48 83,-157 86.24,-155.24 89.61,-153.58 93.06,-152.02"/>
<polygon fill="midnightblue" stroke="midnightblue" points="94.48,-155.22 102.36,-148.13 91.78,-148.76 94.48,-155.22"/>
</g>
<!-- Node14 -->
<g id="node14" class="node">
<title>Node14</title>
<g id="a_node14"><a xlink:href="class_markov_1_1_a_p_i_1_1_model_matrix.html#af42d40d7a5c80f0dfe126a574a17f423" target="_top" xlink:title="Train the model with the dataset file.">
<polygon fill="none" stroke="black" points="86.5,-167 86.5,-201 255.5,-201 255.5,-167 86.5,-167"/>
<text text-anchor="start" x="94.5" y="-187.4" font-family="Helvetica,sans-Serif" font-size="12.00">Markov::API::ModelMatrix</text>
<text text-anchor="middle" x="171" y="-174.4" font-family="Helvetica,sans-Serif" font-size="12.00">::Train</text>
</a>
</g>
</g>
<!-- Node1&#45;&gt;Node14 -->
<g id="edge13" class="edge">
<title>Node1&#45;&gt;Node14</title>
<path fill="none" stroke="midnightblue" d="M47.23,-203.41C55.56,-202.09 65.57,-200.51 76.25,-198.82"/>
<polygon fill="midnightblue" stroke="midnightblue" points="76.87,-202.26 86.21,-197.25 75.78,-195.35 76.87,-202.26"/>
</g>
<!-- Node5 -->
<g id="node5" class="node">
<title>Node5</title>
<g id="a_node5"><a xlink:href="class_markov_1_1_a_p_i_1_1_model_matrix.html#aafb5809808b9b0450a0bc98740121b5f" target="_top" xlink:title="Construct the related Matrix data for the model.">
<polygon fill="none" stroke="black" points="310.5,-114 310.5,-148 479.5,-148 479.5,-114 310.5,-114"/>
<text text-anchor="start" x="318.5" y="-134.4" font-family="Helvetica,sans-Serif" font-size="12.00">Markov::API::ModelMatrix</text>
<text text-anchor="middle" x="395" y="-121.4" font-family="Helvetica,sans-Serif" font-size="12.00">::ConstructMatrix</text>
</a>
</g>
</g>
<!-- Node4&#45;&gt;Node5 -->
<g id="edge4" class="edge">
<title>Node4&#45;&gt;Node5</title>
<path fill="none" stroke="midnightblue" d="M255.61,-131C270.19,-131 285.45,-131 300.28,-131"/>
<polygon fill="midnightblue" stroke="midnightblue" points="300.46,-134.5 310.46,-131 300.46,-127.5 300.46,-134.5"/>
</g>
<!-- Node12 -->
<g id="node12" class="node">
<title>Node12</title>
<g id="a_node12"><a xlink:href="class_markov_1_1_a_p_i_1_1_model_matrix.html#a0f95257e1344225233ab49602cd9551c" target="_top" xlink:title="Deallocate matrix and make it ready for re&#45;construction.">
<polygon fill="none" stroke="black" points="310.5,-167 310.5,-201 479.5,-201 479.5,-167 310.5,-167"/>
<text text-anchor="start" x="318.5" y="-187.4" font-family="Helvetica,sans-Serif" font-size="12.00">Markov::API::ModelMatrix</text>
<text text-anchor="middle" x="395" y="-174.4" font-family="Helvetica,sans-Serif" font-size="12.00">::DeallocateMatrix</text>
</a>
</g>
</g>
<!-- Node4&#45;&gt;Node12 -->
<g id="edge11" class="edge">
<title>Node4&#45;&gt;Node12</title>
<path fill="none" stroke="midnightblue" d="M243.46,-148.06C265.55,-153.33 290.03,-159.18 312.73,-164.6"/>
<polygon fill="midnightblue" stroke="midnightblue" points="312.13,-168.05 322.67,-166.97 313.76,-161.24 312.13,-168.05"/>
</g>
<!-- Node13 -->
<g id="node13" class="node">
<title>Node13</title>
<g id="a_node13"><a xlink:href="class_markov_1_1_model.html#a3f872a3af96a91d4627c1a5d5e66b19a" target="_top" xlink:title="Open a file to import with filename, and call bool Model::Import with std::ifstream.">
<polygon fill="none" stroke="black" points="319,-73.5 319,-94.5 471,-94.5 471,-73.5 319,-73.5"/>
<text text-anchor="middle" x="395" y="-80.9" font-family="Helvetica,sans-Serif" font-size="12.00">Markov::Model::Import</text>
</a>
</g>
</g>
<!-- Node4&#45;&gt;Node13 -->
<g id="edge12" class="edge">
<title>Node4&#45;&gt;Node13</title>
<path fill="none" stroke="midnightblue" d="M248.72,-113.95C264.04,-110.6 280.03,-107.16 295,-104 306.66,-101.54 319.11,-98.98 331.1,-96.54"/>
<polygon fill="midnightblue" stroke="midnightblue" points="331.94,-99.94 341.05,-94.53 330.55,-93.08 331.94,-99.94"/>
</g>
<!-- Node6 -->
<g id="node6" class="node">
<title>Node6</title>
<g id="a_node6"><a xlink:href="class_markov_1_1_edge.html#a2b1e5a6e6f81502cd8ac6b20ed38b677" target="_top" xlink:title="return edge&#39;s EdgeWeight.">
<polygon fill="none" stroke="black" points="548.5,-200.5 548.5,-221.5 724.5,-221.5 724.5,-200.5 548.5,-200.5"/>
<text text-anchor="middle" x="636.5" y="-207.9" font-family="Helvetica,sans-Serif" font-size="12.00">Markov::Edge::EdgeWeight</text>
</a>
</g>
</g>
<!-- Node5&#45;&gt;Node6 -->
<g id="edge5" class="edge">
<title>Node5&#45;&gt;Node6</title>
<path fill="none" stroke="midnightblue" d="M475.49,-148.02C482.26,-150.62 488.86,-153.59 495,-157 514.24,-167.68 511.41,-180.97 531,-191 535.56,-193.33 540.36,-195.4 545.29,-197.22"/>
<polygon fill="midnightblue" stroke="midnightblue" points="544.31,-200.58 554.91,-200.44 546.53,-193.94 544.31,-200.58"/>
</g>
<!-- Node7 -->
<g id="node7" class="node">
<title>Node7</title>
<g id="a_node7"><a xlink:href="class_markov_1_1_model.html#a71f6df805e340ce96e9dc4ee4ebc6537" target="_top" xlink:title="Return starter Node.">
<polygon fill="none" stroke="black" points="562,-160.5 562,-181.5 711,-181.5 711,-160.5 562,-160.5"/>
<text text-anchor="middle" x="636.5" y="-167.9" font-family="Helvetica,sans-Serif" font-size="12.00">Markov::Model::Nodes</text>
</a>
</g>
</g>
<!-- Node5&#45;&gt;Node7 -->
<g id="edge6" class="edge">
<title>Node5&#45;&gt;Node7</title>
<path fill="none" stroke="midnightblue" d="M479.77,-144.99C506.68,-149.48 536.27,-154.43 562.35,-158.78"/>
<polygon fill="midnightblue" stroke="midnightblue" points="562.1,-162.29 572.54,-160.49 563.26,-155.39 562.1,-162.29"/>
</g>
<!-- Node8 -->
<g id="node8" class="node">
<title>Node8</title>
<g id="a_node8"><a xlink:href="class_markov_1_1_node.html#ac7cce56376f2a00764f64a0194cbb498" target="_top" xlink:title="Return character representation of this node.">
<polygon fill="none" stroke="black" points="551,-120.5 551,-141.5 722,-141.5 722,-120.5 551,-120.5"/>
<text text-anchor="middle" x="636.5" y="-127.9" font-family="Helvetica,sans-Serif" font-size="12.00">Markov::Node::NodeValue</text>
</a>
</g>
</g>
<!-- Node5&#45;&gt;Node8 -->
<g id="edge7" class="edge">
<title>Node5&#45;&gt;Node8</title>
<path fill="none" stroke="midnightblue" d="M479.77,-131C499.5,-131 520.67,-131 540.84,-131"/>
<polygon fill="midnightblue" stroke="midnightblue" points="540.97,-134.5 550.97,-131 540.97,-127.5 540.97,-134.5"/>
</g>
<!-- Node9 -->
<g id="node9" class="node">
<title>Node9</title>
<g id="a_node9"><a xlink:href="class_markov_1_1_edge.html#a2e7d14e46631c85c84f6f8f1dd2949cd" target="_top" xlink:title="return edge&#39;s RightNode">
<polygon fill="none" stroke="black" points="552.5,-80.5 552.5,-101.5 720.5,-101.5 720.5,-80.5 552.5,-80.5"/>
<text text-anchor="middle" x="636.5" y="-87.9" font-family="Helvetica,sans-Serif" font-size="12.00">Markov::Edge::RightNode</text>
</a>
</g>
</g>
<!-- Node5&#45;&gt;Node9 -->
<g id="edge8" class="edge">
<title>Node5&#45;&gt;Node9</title>
<path fill="none" stroke="midnightblue" d="M479.77,-117.01C506.68,-112.52 536.27,-107.57 562.35,-103.22"/>
<polygon fill="midnightblue" stroke="midnightblue" points="563.26,-106.61 572.54,-101.51 562.1,-99.71 563.26,-106.61"/>
</g>
<!-- Node10 -->
<g id="node10" class="node">
<title>Node10</title>
<g id="a_node10"><a xlink:href="class_markov_1_1_model.html#a35cb15a14d034f3365b9d2d3efa1ffc0" target="_top" xlink:title="Return starter Node.">
<polygon fill="none" stroke="black" points="544,-40.5 544,-61.5 729,-61.5 729,-40.5 544,-40.5"/>
<text text-anchor="middle" x="636.5" y="-47.9" font-family="Helvetica,sans-Serif" font-size="12.00">Markov::Model::StarterNode</text>
</a>
</g>
</g>
<!-- Node5&#45;&gt;Node10 -->
<g id="edge9" class="edge">
<title>Node5&#45;&gt;Node10</title>
<path fill="none" stroke="midnightblue" d="M473.11,-113.91C480.71,-111.07 488.14,-107.79 495,-104 514.01,-93.52 511.6,-80.74 531,-71 535.68,-68.65 540.6,-66.58 545.65,-64.74"/>
<polygon fill="midnightblue" stroke="midnightblue" points="547.1,-67.95 555.51,-61.51 544.92,-61.3 547.1,-67.95"/>
</g>
<!-- Node11 -->
<g id="node11" class="node">
<title>Node11</title>
<g id="a_node11"><a xlink:href="class_markov_1_1_node.html#a60166d8f501c016de104f48e46bff223" target="_top" xlink:title="return total edge weights">
<polygon fill="none" stroke="black" points="531,-0.5 531,-21.5 742,-21.5 742,-0.5 531,-0.5"/>
<text text-anchor="middle" x="636.5" y="-7.9" font-family="Helvetica,sans-Serif" font-size="12.00">Markov::Node::TotalEdgeWeights</text>
</a>
</g>
</g>
<!-- Node5&#45;&gt;Node11 -->
<g id="edge10" class="edge">
<title>Node5&#45;&gt;Node11</title>
<path fill="none" stroke="midnightblue" d="M479.68,-113.99C485.15,-111.16 490.33,-107.85 495,-104 522.91,-80.99 502.22,-52.92 531,-31 533.15,-29.36 535.4,-27.84 537.73,-26.44"/>
<polygon fill="midnightblue" stroke="midnightblue" points="539.81,-29.3 547.06,-21.57 536.57,-23.09 539.81,-29.3"/>
</g>
<!-- Node14&#45;&gt;Node5 -->
<g id="edge14" class="edge">
<title>Node14&#45;&gt;Node5</title>
<path fill="none" stroke="midnightblue" d="M243.46,-166.94C265.55,-161.67 290.03,-155.82 312.73,-150.4"/>
<polygon fill="midnightblue" stroke="midnightblue" points="313.76,-153.76 322.67,-148.03 312.13,-146.95 313.76,-153.76"/>
</g>
<!-- Node14&#45;&gt;Node12 -->
<g id="edge15" class="edge">
<title>Node14&#45;&gt;Node12</title>
<path fill="none" stroke="midnightblue" d="M255.61,-184C270.19,-184 285.45,-184 300.28,-184"/>
<polygon fill="midnightblue" stroke="midnightblue" points="300.46,-187.5 310.46,-184 300.46,-180.5 300.46,-187.5"/>
</g>
<!-- Node15 -->
<g id="node15" class="node">
<title>Node15</title>
<g id="a_node15"><a xlink:href="class_markov_1_1_a_p_i_1_1_markov_passwords.html#a2fd4423ae3850e258dcb6b11a7feb9b2" target="_top" xlink:title="Train the model with the dataset file.">
<polygon fill="none" stroke="black" points="295,-271 295,-305 495,-305 495,-271 295,-271"/>
<text text-anchor="start" x="303" y="-291.4" font-family="Helvetica,sans-Serif" font-size="12.00">Markov::API::MarkovPasswords</text>
<text text-anchor="middle" x="395" y="-278.4" font-family="Helvetica,sans-Serif" font-size="12.00">::Train</text>
</a>
</g>
</g>
<!-- Node14&#45;&gt;Node15 -->
<g id="edge16" class="edge">
<title>Node14&#45;&gt;Node15</title>
<path fill="none" stroke="midnightblue" d="M232.99,-201.07C241.83,-204.08 250.73,-207.41 259,-211 294.58,-226.45 332.77,-248.83 359.42,-265.48"/>
<polygon fill="midnightblue" stroke="midnightblue" points="357.67,-268.51 367.99,-270.89 361.4,-262.59 357.67,-268.51"/>
</g>
<!-- Node16 -->
<g id="node16" class="node">
<title>Node16</title>
<g id="a_node16"><a xlink:href="markov_passwords_8cpp.html#a3b33e6f48f5d988f336e915c5346eb95" target="_top" xlink:title=" ">
<polygon fill="none" stroke="black" points="597,-360.5 597,-381.5 676,-381.5 676,-360.5 597,-360.5"/>
<text text-anchor="middle" x="636.5" y="-367.9" font-family="Helvetica,sans-Serif" font-size="12.00">intHandler</text>
</a>
</g>
</g>
<!-- Node15&#45;&gt;Node16 -->
<g id="edge17" class="edge">
<title>Node15&#45;&gt;Node16</title>
<path fill="none" stroke="midnightblue" d="M426.75,-305.03C453.55,-319.22 493.84,-338.98 531,-351 548.78,-356.75 568.82,-361.08 586.56,-364.21"/>
<polygon fill="midnightblue" stroke="midnightblue" points="586.27,-367.71 596.71,-365.92 587.43,-360.81 586.27,-367.71"/>
</g>
<!-- Node17 -->
<g id="node17" class="node">
<title>Node17</title>
<g id="a_node17"><a xlink:href="class_markov_1_1_a_p_i_1_1_concurrency_1_1_thread_shared_list_handler.html#a08d468aa4146a30f4176bc91a40ed292" target="_top" xlink:title="Construct the Thread Handler with a filename.">
<polygon fill="none" stroke="black" points="548.5,-294.5 548.5,-341.5 724.5,-341.5 724.5,-294.5 548.5,-294.5"/>
<text text-anchor="start" x="556.5" y="-327.9" font-family="Helvetica,sans-Serif" font-size="12.00">Markov::API::Concurrency</text>
<text text-anchor="start" x="556.5" y="-314.9" font-family="Helvetica,sans-Serif" font-size="12.00">::ThreadSharedListHandler</text>
<text text-anchor="middle" x="636.5" y="-301.9" font-family="Helvetica,sans-Serif" font-size="12.00">::ThreadSharedListHandler</text>
</a>
</g>
</g>
<!-- Node15&#45;&gt;Node17 -->
<g id="edge18" class="edge">
<title>Node15&#45;&gt;Node17</title>
<path fill="none" stroke="midnightblue" d="M495.14,-300.42C509.33,-302.2 523.91,-304.02 538.07,-305.8"/>
<polygon fill="midnightblue" stroke="midnightblue" points="537.93,-309.31 548.29,-307.08 538.8,-302.36 537.93,-309.31"/>
</g>
<!-- Node18 -->
<g id="node18" class="node">
<title>Node18</title>
<g id="a_node18"><a xlink:href="class_markov_1_1_a_p_i_1_1_markov_passwords.html#a5f51b0fdb75101b797f38b08da84848e" target="_top" xlink:title="A single thread invoked by the Train function.">
<polygon fill="none" stroke="black" points="536.5,-241 536.5,-275 736.5,-275 736.5,-241 536.5,-241"/>
<text text-anchor="start" x="544.5" y="-261.4" font-family="Helvetica,sans-Serif" font-size="12.00">Markov::API::MarkovPasswords</text>
<text text-anchor="middle" x="636.5" y="-248.4" font-family="Helvetica,sans-Serif" font-size="12.00">::TrainThread</text>
</a>
</g>
</g>
<!-- Node15&#45;&gt;Node18 -->
<g id="edge19" class="edge">
<title>Node15&#45;&gt;Node18</title>
<path fill="none" stroke="midnightblue" d="M495.14,-275.58C505.48,-274.29 516.03,-272.97 526.47,-271.66"/>
<polygon fill="midnightblue" stroke="midnightblue" points="526.94,-275.13 536.43,-270.41 526.07,-268.18 526.94,-275.13"/>
</g>
<!-- Node19 -->
<g id="node19" class="node">
<title>Node19</title>
<g id="a_node19"><a xlink:href="class_markov_1_1_model.html#ad252913f83fa3eb14cc3f9f92c5ee37a" target="_top" xlink:title="Adjust the model with a single string.">
<polygon fill="none" stroke="black" points="793,-270.5 793,-291.5 972,-291.5 972,-270.5 793,-270.5"/>
<text text-anchor="middle" x="882.5" y="-277.9" font-family="Helvetica,sans-Serif" font-size="12.00">Markov::Model::AdjustEdge</text>
</a>
</g>
</g>
<!-- Node18&#45;&gt;Node19 -->
<g id="edge20" class="edge">
<title>Node18&#45;&gt;Node19</title>
<path fill="none" stroke="midnightblue" d="M736.74,-267.35C751.86,-268.78 767.46,-270.25 782.57,-271.67"/>
<polygon fill="midnightblue" stroke="midnightblue" points="782.65,-275.2 792.94,-272.65 783.31,-268.23 782.65,-275.2"/>
</g>
<!-- Node20 -->
<g id="node20" class="node">
<title>Node20</title>
<g id="a_node20"><a xlink:href="class_markov_1_1_a_p_i_1_1_concurrency_1_1_thread_shared_list_handler.html#a068e1a9ff477de23a44c10230df416a5" target="_top" xlink:title="Read the next line from the file.">
<polygon fill="none" stroke="black" points="778,-217 778,-251 987,-251 987,-217 778,-217"/>
<text text-anchor="start" x="786" y="-237.4" font-family="Helvetica,sans-Serif" font-size="12.00">Markov::API::Concurrency</text>
<text text-anchor="middle" x="882.5" y="-224.4" font-family="Helvetica,sans-Serif" font-size="12.00">::ThreadSharedListHandler::next</text>
</a>
</g>
</g>
<!-- Node18&#45;&gt;Node20 -->
<g id="edge21" class="edge">
<title>Node18&#45;&gt;Node20</title>
<path fill="none" stroke="midnightblue" d="M736.74,-248.24C747.04,-247.23 757.57,-246.19 768,-245.16"/>
<polygon fill="midnightblue" stroke="midnightblue" points="768.37,-248.64 777.98,-244.18 767.68,-241.68 768.37,-248.64"/>
</g>
</g>
</svg>
        <g id="navigator" transform="translate(0 0)" fill="#404254">
                <rect fill="#f2f5e9" fill-opacity="0.5" stroke="#606060" stroke-width=".5" x="0" y="0" width="60" height="60"/>
                <use id="zoomplus" xlink:href="#zoomPlus" x="17" y="9" onmousedown="handleZoom(evt,'in')"/>
                <use id="zoomminus" xlink:href="#zoomMin" x="42" y="9" onmousedown="handleZoom(evt,'out')"/>
                <use id="reset" xlink:href="#resetDef" x="30" y="36" onmousedown="handleReset()"/>
                <g id="arrowUp" xlink:href="#dirArrow" transform="translate(30 24)" onmousedown="handlePan(0,-1)">
                  <use xlink:href="#rim" fill="#404040">
                        <set attributeName="fill" to="#808080" begin="arrowUp.mouseover" end="arrowUp.mouseout"/>
                  </use>
                  <path fill="none" stroke="white" stroke-width="1.5" d="M0,-3.0v7 M-2.5,-0.5L0,-3.0L2.5,-0.5"/>
                </g>
                <g id="arrowRight" xlink:href="#dirArrow" transform="rotate(90) translate(36 -43)" onmousedown="handlePan(1,0)">
                  <use xlink:href="#rim" fill="#404040">
                        <set attributeName="fill" to="#808080" begin="arrowRight.mouseover" end="arrowRight.mouseout"/>
                  </use>
                  <path fill="none" stroke="white" stroke-width="1.5" d="M0,-3.0v7 M-2.5,-0.5L0,-3.0L2.5,-0.5"/>
                </g>
                <g id="arrowDown" xlink:href="#dirArrow" transform="rotate(180) translate(-30 -48)" onmousedown="handlePan(0,1)">
                  <use xlink:href="#rim" fill="#404040">
                        <set attributeName="fill" to="#808080" begin="arrowDown.mouseover" end="arrowDown.mouseout"/>
                  </use>
                  <path fill="none" stroke="white" stroke-width="1.5" d="M0,-3.0v7 M-2.5,-0.5L0,-3.0L2.5,-0.5"/>
                </g>
                <g id="arrowLeft" xlink:href="#dirArrow" transform="rotate(270) translate(-36 17)" onmousedown="handlePan(-1,0)">
                  <use xlink:href="#rim" fill="#404040">
                        <set attributeName="fill" to="#808080" begin="arrowLeft.mouseover" end="arrowLeft.mouseout"/>
                  </use>
                  <path fill="none" stroke="white" stroke-width="1.5" d="M0,-3.0v7 M-2.5,-0.5L0,-3.0L2.5,-0.5"/>
                </g>
        </g>
        <svg viewBox="0 0 15 15" width="100%" height="30px" preserveAspectRatio="xMaxYMin meet">
         <g id="arrow_out" transform="scale(0.3 0.3)">
          <a xlink:href="src_2main_8cpp_a3c04138a5bfe5d72780bb7e82a18e627_cgraph_org.svg" target="_base">
           <rect id="button" ry="5" rx="5" y="6" x="6" height="38" width="38"
                fill="#f2f5e9" fill-opacity="0.5" stroke="#606060" stroke-width="1.0"/>
           <path id="arrow"
             d="M 11.500037,31.436501 C 11.940474,20.09759 22.043105,11.32322 32.158766,21.979434 L 37.068811,17.246167 C 37.068811,17.246167 37.088388,32 37.088388,32 L 22.160133,31.978069 C 22.160133,31.978069 26.997745,27.140456 26.997745,27.140456 C 18.528582,18.264221 13.291696,25.230495 11.500037,31.436501 z"
             style="fill:#404040;"/>
          </a>
         </g>
        </svg>
</svg>
