<?xml version="1.0" encoding="UTF-8" standalone="no"?>
<!DOCTYPE svg PUBLIC "-//W3C//DTD SVG 1.1//EN"
 "http://www.w3.org/Graphics/SVG/1.1/DTD/svg11.dtd">
<!-- Generated by graphviz version 2.43.0 (0)
 -->
<!-- Title: Markov::API::CLI::_programOptions Pages: 1 -->
<svg width="412pt" height="364pt"
 viewBox="0.00 0.00 412.00 364.00" xmlns="http://www.w3.org/2000/svg" xmlns:xlink="http://www.w3.org/1999/xlink">
<g id="graph0" class="graph" transform="scale(1 1) rotate(0) translate(4 360)">
<title>Markov::API::CLI::_programOptions</title>
<!-- Node1 -->
<g id="node1" class="node">
<title>Node1</title>
<g id="a_node1"><a xlink:title="Structure to hold parsed cli arguements.">
<polygon fill="#bfbfbf" stroke="black" points="107,-0.5 107,-76.5 229,-76.5 229,-0.5 107,-0.5"/>
<text text-anchor="start" x="115" y="-62.9" font-family="Helvetica,sans-Serif" font-size="12.00">Markov::API::CLI::</text>
<text text-anchor="middle" x="168" y="-49.9" font-family="Helvetica,sans-Serif" font-size="12.00">_programOptions</text>
<polyline fill="none" stroke="black" points="107,-42.5 229,-42.5 "/>
<text text-anchor="middle" x="168" y="-28.9" font-family="Helvetica,sans-Serif" font-size="12.00"> </text>
<polyline fill="none" stroke="black" points="107,-21.5 229,-21.5 "/>
<text text-anchor="middle" x="168" y="-7.9" font-family="Helvetica,sans-Serif" font-size="12.00"> </text>
</a>
</g>
</g>
<!-- Node2 -->
<g id="node2" class="node">
<title>Node2</title>
<g id="a_node2"><a xlink:href="classchar.html" target="_top" xlink:title=" ">
<polygon fill="none" stroke="black" points="0,-178.5 0,-241.5 44,-241.5 44,-178.5 0,-178.5"/>
<text text-anchor="middle" x="22" y="-227.9" font-family="Helvetica,sans-Serif" font-size="12.00">char</text>
<polyline fill="none" stroke="black" points="0,-220.5 44,-220.5 "/>
<text text-anchor="middle" x="22" y="-206.9" font-family="Helvetica,sans-Serif" font-size="12.00"> </text>
<polyline fill="none" stroke="black" points="0,-199.5 44,-199.5 "/>
<text text-anchor="middle" x="22" y="-185.9" font-family="Helvetica,sans-Serif" font-size="12.00"> </text>
</a>
</g>
</g>
<!-- Node2&#45;&gt;Node1 -->
<g id="edge1" class="edge">
<title>Node2&#45;&gt;Node1</title>
<path fill="none" stroke="#404040" d="M17.24,-178.35C15.1,-153.48 16.26,-118.76 34,-95 48.89,-75.07 72.25,-62.25 95.32,-54.03"/>
<polygon fill="none" stroke="#404040" points="95.53,-53.96 100,-48.3 106.94,-50.25 102.48,-55.91 95.53,-53.96"/>
<text text-anchor="middle" x="70.5" y="-124.4" font-family="Helvetica,sans-Serif" font-size="12.00"> +seperator</text>
</g>
<!-- Node3 -->
<g id="node3" class="node">
<title>Node3</title>
<g id="a_node3"><a xlink:title=" ">
<polygon fill="none" stroke="#bfbfbf" points="102,-178.5 102,-241.5 134,-241.5 134,-178.5 102,-178.5"/>
<text text-anchor="middle" x="118" y="-227.9" font-family="Helvetica,sans-Serif" font-size="12.00">int</text>
<polyline fill="none" stroke="#bfbfbf" points="102,-220.5 134,-220.5 "/>
<text text-anchor="middle" x="118" y="-206.9" font-family="Helvetica,sans-Serif" font-size="12.00"> </text>
<polyline fill="none" stroke="#bfbfbf" points="102,-199.5 134,-199.5 "/>
<text text-anchor="middle" x="118" y="-185.9" font-family="Helvetica,sans-Serif" font-size="12.00"> </text>
</a>
</g>
</g>
<!-- Node3&#45;&gt;Node1 -->
<g id="edge2" class="edge">
<title>Node3&#45;&gt;Node1</title>
<path fill="none" stroke="#404040" d="M112.61,-178.4C109.77,-154.81 108.73,-121.8 119,-95 120.05,-92.27 121.3,-89.58 122.7,-86.95"/>
<polygon fill="none" stroke="#404040" points="122.87,-86.69 122.68,-79.48 129.26,-76.53 129.45,-83.74 122.87,-86.69"/>
<text text-anchor="middle" x="158" y="-124.4" font-family="Helvetica,sans-Serif" font-size="12.00"> +generateN</text>
</g>
<!-- Node4 -->
<g id="node4" class="node">
<title>Node4</title>
<g id="a_node4"><a xlink:title="STL class.">
<polygon fill="none" stroke="#bfbfbf" points="181,-178.5 181,-241.5 257,-241.5 257,-178.5 181,-178.5"/>
<text text-anchor="middle" x="219" y="-227.9" font-family="Helvetica,sans-Serif" font-size="12.00">std::string</text>
<polyline fill="none" stroke="#bfbfbf" points="181,-220.5 257,-220.5 "/>
<text text-anchor="middle" x="219" y="-206.9" font-family="Helvetica,sans-Serif" font-size="12.00"> </text>
<polyline fill="none" stroke="#bfbfbf" points="181,-199.5 257,-199.5 "/>
<text text-anchor="middle" x="219" y="-185.9" font-family="Helvetica,sans-Serif" font-size="12.00"> </text>
</a>
</g>
</g>
<!-- Node4&#45;&gt;Node1 -->
<g id="edge3" class="edge">
<title>Node4&#45;&gt;Node1</title>
<path fill="none" stroke="#404040" d="M215.55,-178.37C212.34,-155.05 206.57,-122.4 197,-95 196.17,-92.63 195.26,-90.25 194.28,-87.86"/>
<polygon fill="none" stroke="#404040" points="194.22,-87.72 188.12,-83.87 189.33,-76.76 195.43,-80.61 194.22,-87.72"/>
<text text-anchor="middle" x="264" y="-150.4" font-family="Helvetica,sans-Serif" font-size="12.00"> +importname</text>
<text text-anchor="middle" x="264" y="-137.4" font-family="Helvetica,sans-Serif" font-size="12.00">+outputfilename</text>
<text text-anchor="middle" x="264" y="-124.4" font-family="Helvetica,sans-Serif" font-size="12.00">+exportname</text>
<text text-anchor="middle" x="264" y="-111.4" font-family="Helvetica,sans-Serif" font-size="12.00">+datasetname</text>
<text text-anchor="middle" x="264" y="-98.4" font-family="Helvetica,sans-Serif" font-size="12.00">+wordlistname</text>
</g>
<!-- Node5 -->
<g id="node5" class="node">
<title>Node5</title>
<g id="a_node5"><a xlink:title="STL class.">
<polygon fill="none" stroke="#bfbfbf" points="158,-279.5 158,-355.5 280,-355.5 280,-279.5 158,-279.5"/>
<text text-anchor="start" x="166" y="-341.9" font-family="Helvetica,sans-Serif" font-size="12.00">std::basic_string&lt;</text>
<text text-anchor="middle" x="219" y="-328.9" font-family="Helvetica,sans-Serif" font-size="12.00"> char &gt;</text>
<polyline fill="none" stroke="#bfbfbf" points="158,-321.5 280,-321.5 "/>
<text text-anchor="middle" x="219" y="-307.9" font-family="Helvetica,sans-Serif" font-size="12.00"> </text>
<polyline fill="none" stroke="#bfbfbf" points="158,-300.5 280,-300.5 "/>
<text text-anchor="middle" x="219" y="-286.9" font-family="Helvetica,sans-Serif" font-size="12.00"> </text>
</a>
</g>
</g>
<!-- Node5&#45;&gt;Node4 -->
<g id="edge4" class="edge">
<title>Node5&#45;&gt;Node4</title>
<path fill="none" stroke="midnightblue" d="M219,-269.26C219,-259.87 219,-250.25 219,-241.59"/>
<polygon fill="none" stroke="midnightblue" points="215.5,-269.3 219,-279.3 222.5,-269.3 215.5,-269.3"/>
</g>
<!-- Node6 -->
<g id="node6" class="node">
<title>Node6</title>
<g id="a_node6"><a xlink:title=" ">
<polygon fill="none" stroke="#bfbfbf" points="323,-178.5 323,-241.5 365,-241.5 365,-178.5 323,-178.5"/>
<text text-anchor="middle" x="344" y="-227.9" font-family="Helvetica,sans-Serif" font-size="12.00">bool</text>
<polyline fill="none" stroke="#bfbfbf" points="323,-220.5 365,-220.5 "/>
<text text-anchor="middle" x="344" y="-206.9" font-family="Helvetica,sans-Serif" font-size="12.00"> </text>
<polyline fill="none" stroke="#bfbfbf" points="323,-199.5 365,-199.5 "/>
<text text-anchor="middle" x="344" y="-185.9" font-family="Helvetica,sans-Serif" font-size="12.00"> </text>
</a>
</g>
</g>
<!-- Node6&#45;&gt;Node1 -->
<g id="edge5" class="edge">
<title>Node6&#45;&gt;Node1</title>
<path fill="none" stroke="#404040" d="M344.97,-178.33C344.13,-153.11 338.98,-117.91 319,-95 299.16,-72.25 269.17,-58.82 241.12,-50.89"/>
<polygon fill="none" stroke="#404040" points="240.88,-50.83 234.06,-53.2 229.26,-47.82 236.07,-45.45 240.88,-50.83"/>
<text text-anchor="middle" x="373.5" y="-137.4" font-family="Helvetica,sans-Serif" font-size="12.00"> +bExport</text>
<text text-anchor="middle" x="373.5" y="-124.4" font-family="Helvetica,sans-Serif" font-size="12.00">+bImport</text>
<text text-anchor="middle" x="373.5" y="-111.4" font-family="Helvetica,sans-Serif" font-size="12.00">+bFailure</text>
</g>
</g>
</svg>
