<?xml version="1.0" encoding="UTF-8" standalone="no"?>
<!DOCTYPE svg PUBLIC "-//W3C//DTD SVG 1.1//EN"
 "http://www.w3.org/Graphics/SVG/1.1/DTD/svg11.dtd">
<!-- Generated by graphviz version 2.43.0 (0)
 -->
<!-- Title: Markov::API::CLI::_programOptions Pages: 1 -->
<svg width="171pt" height="416pt"
 viewBox="0.00 0.00 171.00 416.00" xmlns="http://www.w3.org/2000/svg" xmlns:xlink="http://www.w3.org/1999/xlink">
<g id="graph0" class="graph" transform="scale(1 1) rotate(0) translate(4 412)">
<title>Markov::API::CLI::_programOptions</title>
<!-- Node1 -->
<g id="node1" class="node">
<title>Node1</title>
<g id="a_node1"><a xlink:title="Structure to hold parsed cli arguements.">
<polygon fill="#bfbfbf" stroke="black" points="0,-0.5 0,-128.5 122,-128.5 122,-0.5 0,-0.5"/>
<text text-anchor="start" x="8" y="-114.9" font-family="Helvetica,sans-Serif" font-size="12.00">Markov::API::CLI::</text>
<text text-anchor="middle" x="61" y="-101.9" font-family="Helvetica,sans-Serif" font-size="12.00">_programOptions</text>
<polyline fill="none" stroke="black" points="0,-94.5 122,-94.5 "/>
<text text-anchor="start" x="8" y="-80.9" font-family="Helvetica,sans-Serif" font-size="12.00">+ bImport</text>
<text text-anchor="start" x="8" y="-67.9" font-family="Helvetica,sans-Serif" font-size="12.00">+ bExport</text>
<text text-anchor="start" x="8" y="-54.9" font-family="Helvetica,sans-Serif" font-size="12.00">+ bFailure</text>
<text text-anchor="start" x="8" y="-41.9" font-family="Helvetica,sans-Serif" font-size="12.00">+ seperator</text>
<text text-anchor="start" x="8" y="-28.9" font-family="Helvetica,sans-Serif" font-size="12.00">+ generateN</text>
<polyline fill="none" stroke="black" points="0,-21.5 122,-21.5 "/>
<text text-anchor="middle" x="61" y="-7.9" font-family="Helvetica,sans-Serif" font-size="12.00"> </text>
</a>
</g>
</g>
<!-- Node2 -->
<g id="node2" class="node">
<title>Node2</title>
<g id="a_node2"><a xlink:title="STL class.">
<polygon fill="none" stroke="#bfbfbf" points="23,-230.5 23,-293.5 99,-293.5 99,-230.5 23,-230.5"/>
<text text-anchor="middle" x="61" y="-279.9" font-family="Helvetica,sans-Serif" font-size="12.00">std::string</text>
<polyline fill="none" stroke="#bfbfbf" points="23,-272.5 99,-272.5 "/>
<text text-anchor="middle" x="61" y="-258.9" font-family="Helvetica,sans-Serif" font-size="12.00"> </text>
<polyline fill="none" stroke="#bfbfbf" points="23,-251.5 99,-251.5 "/>
<text text-anchor="middle" x="61" y="-237.9" font-family="Helvetica,sans-Serif" font-size="12.00"> </text>
</a>
</g>
</g>
<!-- Node2&#45;&gt;Node1 -->
<g id="edge1" class="edge">
<title>Node2&#45;&gt;Node1</title>
<path fill="none" stroke="#404040" d="M61,-230.45C61,-206.47 61,-172.02 61,-140.8"/>
<polygon fill="none" stroke="#404040" points="61,-140.57 57,-134.57 61,-128.57 65,-134.57 61,-140.57"/>
<text text-anchor="middle" x="112" y="-202.4" font-family="Helvetica,sans-Serif" font-size="12.00"> +importname</text>
<text text-anchor="middle" x="112" y="-189.4" font-family="Helvetica,sans-Serif" font-size="12.00">+outputfilename</text>
<text text-anchor="middle" x="112" y="-176.4" font-family="Helvetica,sans-Serif" font-size="12.00">+exportname</text>
<text text-anchor="middle" x="112" y="-163.4" font-family="Helvetica,sans-Serif" font-size="12.00">+datasetname</text>
<text text-anchor="middle" x="112" y="-150.4" font-family="Helvetica,sans-Serif" font-size="12.00">+wordlistname</text>
</g>
<!-- Node3 -->
<g id="node3" class="node">
<title>Node3</title>
<g id="a_node3"><a xlink:title="STL class.">
<polygon fill="none" stroke="#bfbfbf" points="0,-331.5 0,-407.5 122,-407.5 122,-331.5 0,-331.5"/>
<text text-anchor="start" x="8" y="-393.9" font-family="Helvetica,sans-Serif" font-size="12.00">std::basic_string&lt;</text>
<text text-anchor="middle" x="61" y="-380.9" font-family="Helvetica,sans-Serif" font-size="12.00"> char &gt;</text>
<polyline fill="none" stroke="#bfbfbf" points="0,-373.5 122,-373.5 "/>
<text text-anchor="middle" x="61" y="-359.9" font-family="Helvetica,sans-Serif" font-size="12.00"> </text>
<polyline fill="none" stroke="#bfbfbf" points="0,-352.5 122,-352.5 "/>
<text text-anchor="middle" x="61" y="-338.9" font-family="Helvetica,sans-Serif" font-size="12.00"> </text>
</a>
</g>
</g>
<!-- Node3&#45;&gt;Node2 -->
<g id="edge2" class="edge">
<title>Node3&#45;&gt;Node2</title>
<path fill="none" stroke="midnightblue" d="M61,-321.26C61,-311.87 61,-302.25 61,-293.59"/>
<polygon fill="none" stroke="midnightblue" points="57.5,-321.3 61,-331.3 64.5,-321.3 57.5,-321.3"/>
</g>
</g>
</svg>
