<?xml version="1.0" encoding="UTF-8" standalone="no"?>
<!DOCTYPE svg PUBLIC "-//W3C//DTD SVG 1.1//EN"
 "http://www.w3.org/Graphics/SVG/1.1/DTD/svg11.dtd">
<!-- Generated by graphviz version 2.43.0 (0)
 -->
<!-- Title: term.h Pages: 1 -->
<svg width="140pt" height="88pt"
 viewBox="0.00 0.00 139.50 88.00" xmlns="http://www.w3.org/2000/svg" xmlns:xlink="http://www.w3.org/1999/xlink">
<g id="graph0" class="graph" transform="scale(1 1) rotate(0) translate(4 84)">
<title>term.h</title>
<!-- Node1 -->
<g id="node1" class="node">
<title>Node1</title>
<g id="a_node1"><a xlink:title="Terminal handler for pretty stuff like colors.">
<polygon fill="#bfbfbf" stroke="black" points="43.5,-58.5 43.5,-79.5 99.5,-79.5 99.5,-58.5 43.5,-58.5"/>
<text text-anchor="middle" x="71.5" y="-65.9" font-family="Helvetica,sans-Serif" font-size="12.00">term.h</text>
</a>
</g>
</g>
<!-- Node2 -->
<g id="node2" class="node">
<title>Node2</title>
<g id="a_node2"><a xlink:title=" ">
<polygon fill="none" stroke="#bfbfbf" points="0,-0.5 0,-21.5 69,-21.5 69,-0.5 0,-0.5"/>
<text text-anchor="middle" x="34.5" y="-7.9" font-family="Helvetica,sans-Serif" font-size="12.00">iostream</text>
</a>
</g>
</g>
<!-- Node1&#45;&gt;Node2 -->
<g id="edge1" class="edge">
<title>Node1&#45;&gt;Node2</title>
<path fill="none" stroke="midnightblue" d="M65.06,-58.25C59.96,-50.54 52.71,-39.56 46.55,-30.23"/>
<polygon fill="midnightblue" stroke="midnightblue" points="49.3,-28.06 40.87,-21.64 43.46,-31.92 49.3,-28.06"/>
</g>
<!-- Node3 -->
<g id="node3" class="node">
<title>Node3</title>
<g id="a_node3"><a xlink:title=" ">
<polygon fill="none" stroke="#bfbfbf" points="87.5,-0.5 87.5,-21.5 131.5,-21.5 131.5,-0.5 87.5,-0.5"/>
<text text-anchor="middle" x="109.5" y="-7.9" font-family="Helvetica,sans-Serif" font-size="12.00">map</text>
</a>
</g>
</g>
<!-- Node1&#45;&gt;Node3 -->
<g id="edge2" class="edge">
<title>Node1&#45;&gt;Node3</title>
<path fill="none" stroke="midnightblue" d="M78.12,-58.25C83.4,-50.46 90.95,-39.33 97.32,-29.94"/>
<polygon fill="midnightblue" stroke="midnightblue" points="100.24,-31.88 102.96,-21.64 94.45,-27.95 100.24,-31.88"/>
</g>
</g>
</svg>
