<?xml version="1.0" encoding="UTF-8" standalone="no"?>
<!DOCTYPE svg PUBLIC "-//W3C//DTD SVG 1.1//EN"
 "http://www.w3.org/Graphics/SVG/1.1/DTD/svg11.dtd">
<!-- Generated by graphviz version 2.43.0 (0)
 -->
<!-- Title: term.h Pages: 1 -->
<svg width="282pt" height="88pt"
 viewBox="0.00 0.00 281.50 88.00" xmlns="http://www.w3.org/2000/svg" xmlns:xlink="http://www.w3.org/1999/xlink">
<g id="graph0" class="graph" transform="scale(1 1) rotate(0) translate(4 84)">
<title>term.h</title>
<!-- Node1 -->
<g id="node1" class="node">
<title>Node1</title>
<g id="a_node1"><a xlink:title=" ">
<polygon fill="#bfbfbf" stroke="black" points="120.5,-58.5 120.5,-79.5 176.5,-79.5 176.5,-58.5 120.5,-58.5"/>
<text text-anchor="middle" x="148.5" y="-65.9" font-family="Helvetica,sans-Serif" font-size="12.00">term.h</text>
</a>
</g>
</g>
<!-- Node2 -->
<g id="node2" class="node">
<title>Node2</title>
<g id="a_node2"><a xlink:href="argparse_8cpp.html" target="_top" xlink:title=" ">
<polygon fill="none" stroke="black" points="0,-0.5 0,-21.5 95,-21.5 95,-0.5 0,-0.5"/>
<text text-anchor="middle" x="47.5" y="-7.9" font-family="Helvetica,sans-Serif" font-size="12.00">argparse.cpp</text>
</a>
</g>
</g>
<!-- Node1&#45;&gt;Node2 -->
<g id="edge1" class="edge">
<title>Node1&#45;&gt;Node2</title>
<path fill="none" stroke="midnightblue" d="M122.03,-53.32C103.99,-43.32 80.61,-30.36 64.89,-21.64"/>
<polygon fill="midnightblue" stroke="midnightblue" points="120.46,-56.46 130.91,-58.25 123.86,-50.34 120.46,-56.46"/>
</g>
<!-- Node3 -->
<g id="node3" class="node">
<title>Node3</title>
<g id="a_node3"><a xlink:href="term_8cpp.html" target="_top" xlink:title=" ">
<polygon fill="none" stroke="black" points="113.5,-0.5 113.5,-21.5 183.5,-21.5 183.5,-0.5 113.5,-0.5"/>
<text text-anchor="middle" x="148.5" y="-7.9" font-family="Helvetica,sans-Serif" font-size="12.00">term.cpp</text>
</a>
</g>
</g>
<!-- Node1&#45;&gt;Node3 -->
<g id="edge2" class="edge">
<title>Node1&#45;&gt;Node3</title>
<path fill="none" stroke="midnightblue" d="M148.5,-48.16C148.5,-39.16 148.5,-28.92 148.5,-21.64"/>
<polygon fill="midnightblue" stroke="midnightblue" points="145,-48.25 148.5,-58.25 152,-48.25 145,-48.25"/>
</g>
<!-- Node4 -->
<g id="node4" class="node">
<title>Node4</title>
<g id="a_node4"><a xlink:href="src_2main_8cpp.html" target="_top" xlink:title=" ">
<polygon fill="none" stroke="black" points="201.5,-0.5 201.5,-21.5 273.5,-21.5 273.5,-0.5 201.5,-0.5"/>
<text text-anchor="middle" x="237.5" y="-7.9" font-family="Helvetica,sans-Serif" font-size="12.00">main.cpp</text>
</a>
</g>
</g>
<!-- Node1&#45;&gt;Node4 -->
<g id="edge3" class="edge">
<title>Node1&#45;&gt;Node4</title>
<path fill="none" stroke="midnightblue" d="M172.71,-52.77C188.48,-42.85 208.58,-30.2 222.18,-21.64"/>
<polygon fill="midnightblue" stroke="midnightblue" points="170.6,-49.96 164,-58.25 174.33,-55.88 170.6,-49.96"/>
</g>
</g>
</svg>
