<?xml version="1.0" encoding="UTF-8" standalone="no"?>
<!DOCTYPE svg PUBLIC "-//W3C//DTD SVG 1.1//EN"
 "http://www.w3.org/Graphics/SVG/1.1/DTD/svg11.dtd">
<!-- Generated by graphviz version 2.43.0 (0)
 -->
<!-- Title: Markopy/MarkovAPICLI/src/color/term.h Pages: 1 -->
<svg width="163pt" height="101pt"
 viewBox="0.00 0.00 163.00 101.00" xmlns="http://www.w3.org/2000/svg" xmlns:xlink="http://www.w3.org/1999/xlink">
<g id="graph0" class="graph" transform="scale(1 1) rotate(0) translate(4 97)">
<title>Markopy/MarkovAPICLI/src/color/term.h</title>
<!-- Node1 -->
<g id="node1" class="node">
<title>Node1</title>
<g id="a_node1"><a xlink:title="Terminal handler for pretty stuff like colors.">
<polygon fill="#bfbfbf" stroke="black" points="0,-58.5 0,-92.5 155,-92.5 155,-58.5 0,-58.5"/>
<text text-anchor="start" x="8" y="-78.9" font-family="Helvetica,sans-Serif" font-size="12.00">Markopy/MarkovAPICLI</text>
<text text-anchor="middle" x="77.5" y="-65.9" font-family="Helvetica,sans-Serif" font-size="12.00">/src/color/term.h</text>
</a>
</g>
</g>
<!-- Node2 -->
<g id="node2" class="node">
<title>Node2</title>
<g id="a_node2"><a xlink:title=" ">
<polygon fill="none" stroke="#bfbfbf" points="6,-0.5 6,-21.5 75,-21.5 75,-0.5 6,-0.5"/>
<text text-anchor="middle" x="40.5" y="-7.9" font-family="Helvetica,sans-Serif" font-size="12.00">iostream</text>
</a>
</g>
</g>
<!-- Node1&#45;&gt;Node2 -->
<g id="edge1" class="edge">
<title>Node1&#45;&gt;Node2</title>
<path fill="none" stroke="midnightblue" d="M67.97,-58.4C62.94,-49.91 56.74,-39.43 51.5,-30.59"/>
<polygon fill="midnightblue" stroke="midnightblue" points="54.41,-28.62 46.3,-21.8 48.38,-32.19 54.41,-28.62"/>
</g>
<!-- Node3 -->
<g id="node3" class="node">
<title>Node3</title>
<g id="a_node3"><a xlink:title=" ">
<polygon fill="none" stroke="#bfbfbf" points="93.5,-0.5 93.5,-21.5 137.5,-21.5 137.5,-0.5 93.5,-0.5"/>
<text text-anchor="middle" x="115.5" y="-7.9" font-family="Helvetica,sans-Serif" font-size="12.00">map</text>
</a>
</g>
</g>
<!-- Node1&#45;&gt;Node3 -->
<g id="edge2" class="edge">
<title>Node1&#45;&gt;Node3</title>
<path fill="none" stroke="midnightblue" d="M87.29,-58.4C92.45,-49.91 98.82,-39.43 104.2,-30.59"/>
<polygon fill="midnightblue" stroke="midnightblue" points="107.34,-32.16 109.54,-21.8 101.36,-28.53 107.34,-32.16"/>
</g>
</g>
</svg>
