<?xml version="1.0" encoding="UTF-8" standalone="no"?>
<!DOCTYPE svg PUBLIC "-//W3C//DTD SVG 1.1//EN"
 "http://www.w3.org/Graphics/SVG/1.1/DTD/svg11.dtd">
<!-- Generated by graphviz version 2.43.0 (0)
 -->
<!-- Title: Markopy/MarkovAPICLI/src/color/term.h Pages: 1 -->
<svg width="509pt" height="114pt"
 viewBox="0.00 0.00 509.00 114.00" xmlns="http://www.w3.org/2000/svg" xmlns:xlink="http://www.w3.org/1999/xlink">
<g id="graph0" class="graph" transform="scale(1 1) rotate(0) translate(4 110)">
<title>Markopy/MarkovAPICLI/src/color/term.h</title>
<!-- Node1 -->
<g id="node1" class="node">
<title>Node1</title>
<g id="a_node1"><a xlink:title="Terminal handler for pretty stuff like colors.">
<polygon fill="#bfbfbf" stroke="black" points="173,-71.5 173,-105.5 328,-105.5 328,-71.5 173,-71.5"/>
<text text-anchor="start" x="181" y="-91.9" font-family="Helvetica,sans-Serif" font-size="12.00">Markopy/MarkovAPICLI</text>
<text text-anchor="middle" x="250.5" y="-78.9" font-family="Helvetica,sans-Serif" font-size="12.00">/src/color/term.h</text>
</a>
</g>
</g>
<!-- Node2 -->
<g id="node2" class="node">
<title>Node2</title>
<g id="a_node2"><a xlink:href="argparse_8cpp.html" target="_top" xlink:title="Arguement handler class for native CPP cli.">
<polygon fill="none" stroke="black" points="0,-0.5 0,-34.5 155,-34.5 155,-0.5 0,-0.5"/>
<text text-anchor="start" x="8" y="-20.9" font-family="Helvetica,sans-Serif" font-size="12.00">Markopy/MarkovAPICLI</text>
<text text-anchor="middle" x="77.5" y="-7.9" font-family="Helvetica,sans-Serif" font-size="12.00">/src/argparse.cpp</text>
</a>
</g>
</g>
<!-- Node1&#45;&gt;Node2 -->
<g id="edge1" class="edge">
<title>Node1&#45;&gt;Node2</title>
<path fill="none" stroke="midnightblue" d="M200.93,-67.73C174.55,-57.21 142.52,-44.43 117.71,-34.54"/>
<polygon fill="midnightblue" stroke="midnightblue" points="199.79,-71.04 210.38,-71.5 202.38,-64.54 199.79,-71.04"/>
</g>
<!-- Node3 -->
<g id="node3" class="node">
<title>Node3</title>
<g id="a_node3"><a xlink:href="term_8cpp.html" target="_top" xlink:title="Terminal handler for pretty stuff like colors.">
<polygon fill="none" stroke="black" points="173,-0.5 173,-34.5 328,-34.5 328,-0.5 173,-0.5"/>
<text text-anchor="start" x="181" y="-20.9" font-family="Helvetica,sans-Serif" font-size="12.00">Markopy/MarkovAPICLI</text>
<text text-anchor="middle" x="250.5" y="-7.9" font-family="Helvetica,sans-Serif" font-size="12.00">/src/color/term.cpp</text>
</a>
</g>
</g>
<!-- Node1&#45;&gt;Node3 -->
<g id="edge2" class="edge">
<title>Node1&#45;&gt;Node3</title>
<path fill="none" stroke="midnightblue" d="M250.5,-61.25C250.5,-52.39 250.5,-42.77 250.5,-34.9"/>
<polygon fill="midnightblue" stroke="midnightblue" points="247,-61.5 250.5,-71.5 254,-61.5 247,-61.5"/>
</g>
<!-- Node4 -->
<g id="node4" class="node">
<title>Node4</title>
<g id="a_node4"><a xlink:href="_markov_a_p_i_c_l_i_2src_2main_8cpp.html" target="_top" xlink:title="Test cases for Markov::API::ModelMatrix.">
<polygon fill="none" stroke="black" points="346,-0.5 346,-34.5 501,-34.5 501,-0.5 346,-0.5"/>
<text text-anchor="start" x="354" y="-20.9" font-family="Helvetica,sans-Serif" font-size="12.00">Markopy/MarkovAPICLI</text>
<text text-anchor="middle" x="423.5" y="-7.9" font-family="Helvetica,sans-Serif" font-size="12.00">/src/main.cpp</text>
</a>
</g>
</g>
<!-- Node1&#45;&gt;Node4 -->
<g id="edge3" class="edge">
<title>Node1&#45;&gt;Node4</title>
<path fill="none" stroke="midnightblue" d="M300.07,-67.73C326.45,-57.21 358.48,-44.43 383.29,-34.54"/>
<polygon fill="midnightblue" stroke="midnightblue" points="298.62,-64.54 290.62,-71.5 301.21,-71.04 298.62,-64.54"/>
</g>
</g>
</svg>
