<?xml version="1.0" encoding="UTF-8" standalone="no"?>
<!DOCTYPE svg PUBLIC "-//W3C//DTD SVG 1.1//EN"
 "http://www.w3.org/Graphics/SVG/1.1/DTD/svg11.dtd">
<!-- Generated by graphviz version 2.43.0 (0)
 -->
<!-- Title: term.cpp Pages: 1 -->
<svg width="176pt" height="146pt"
 viewBox="0.00 0.00 175.50 146.00" xmlns="http://www.w3.org/2000/svg" xmlns:xlink="http://www.w3.org/1999/xlink">
<g id="graph0" class="graph" transform="scale(1 1) rotate(0) translate(4 142)">
<title>term.cpp</title>
<!-- Node1 -->
<g id="node1" class="node">
<title>Node1</title>
<g id="a_node1"><a xlink:title=" ">
<polygon fill="#bfbfbf" stroke="black" points="71.5,-116.5 71.5,-137.5 141.5,-137.5 141.5,-116.5 71.5,-116.5"/>
<text text-anchor="middle" x="106.5" y="-123.9" font-family="Helvetica,sans-Serif" font-size="12.00">term.cpp</text>
</a>
</g>
</g>
<!-- Node2 -->
<g id="node2" class="node">
<title>Node2</title>
<g id="a_node2"><a xlink:href="term_8h.html" target="_top" xlink:title=" ">
<polygon fill="none" stroke="black" points="43.5,-58.5 43.5,-79.5 99.5,-79.5 99.5,-58.5 43.5,-58.5"/>
<text text-anchor="middle" x="71.5" y="-65.9" font-family="Helvetica,sans-Serif" font-size="12.00">term.h</text>
</a>
</g>
</g>
<!-- Node1&#45;&gt;Node2 -->
<g id="edge1" class="edge">
<title>Node1&#45;&gt;Node2</title>
<path fill="none" stroke="midnightblue" d="M100.4,-116.25C95.59,-108.54 88.72,-97.56 82.9,-88.23"/>
<polygon fill="midnightblue" stroke="midnightblue" points="85.79,-86.27 77.53,-79.64 79.86,-89.98 85.79,-86.27"/>
</g>
<!-- Node5 -->
<g id="node5" class="node">
<title>Node5</title>
<g id="a_node5"><a xlink:title=" ">
<polygon fill="none" stroke="#bfbfbf" points="117.5,-58.5 117.5,-79.5 167.5,-79.5 167.5,-58.5 117.5,-58.5"/>
<text text-anchor="middle" x="142.5" y="-65.9" font-family="Helvetica,sans-Serif" font-size="12.00">string</text>
</a>
</g>
</g>
<!-- Node1&#45;&gt;Node5 -->
<g id="edge4" class="edge">
<title>Node1&#45;&gt;Node5</title>
<path fill="none" stroke="midnightblue" d="M112.77,-116.25C117.73,-108.54 124.78,-97.56 130.78,-88.23"/>
<polygon fill="midnightblue" stroke="midnightblue" points="133.84,-89.95 136.3,-79.64 127.95,-86.16 133.84,-89.95"/>
</g>
<!-- Node3 -->
<g id="node3" class="node">
<title>Node3</title>
<g id="a_node3"><a xlink:title=" ">
<polygon fill="none" stroke="#bfbfbf" points="0,-0.5 0,-21.5 69,-21.5 69,-0.5 0,-0.5"/>
<text text-anchor="middle" x="34.5" y="-7.9" font-family="Helvetica,sans-Serif" font-size="12.00">iostream</text>
</a>
</g>
</g>
<!-- Node2&#45;&gt;Node3 -->
<g id="edge2" class="edge">
<title>Node2&#45;&gt;Node3</title>
<path fill="none" stroke="midnightblue" d="M65.06,-58.25C59.96,-50.54 52.71,-39.56 46.55,-30.23"/>
<polygon fill="midnightblue" stroke="midnightblue" points="49.3,-28.06 40.87,-21.64 43.46,-31.92 49.3,-28.06"/>
</g>
<!-- Node4 -->
<g id="node4" class="node">
<title>Node4</title>
<g id="a_node4"><a xlink:title=" ">
<polygon fill="none" stroke="#bfbfbf" points="87.5,-0.5 87.5,-21.5 131.5,-21.5 131.5,-0.5 87.5,-0.5"/>
<text text-anchor="middle" x="109.5" y="-7.9" font-family="Helvetica,sans-Serif" font-size="12.00">map</text>
</a>
</g>
</g>
<!-- Node2&#45;&gt;Node4 -->
<g id="edge3" class="edge">
<title>Node2&#45;&gt;Node4</title>
<path fill="none" stroke="midnightblue" d="M78.12,-58.25C83.4,-50.46 90.95,-39.33 97.32,-29.94"/>
<polygon fill="midnightblue" stroke="midnightblue" points="100.24,-31.88 102.96,-21.64 94.45,-27.95 100.24,-31.88"/>
</g>
</g>
</svg>
