<?xml version="1.0" encoding="UTF-8" standalone="no"?>
<!DOCTYPE svg PUBLIC "-//W3C//DTD SVG 1.1//EN"
 "http://www.w3.org/Graphics/SVG/1.1/DTD/svg11.dtd">
<!-- Generated by graphviz version 2.43.0 (0)
 -->
<!-- Title: threadSharedListHandler.h Pages: 1 -->
<svg width="471pt" height="204pt"
 viewBox="0.00 0.00 470.50 204.00" xmlns="http://www.w3.org/2000/svg" xmlns:xlink="http://www.w3.org/1999/xlink">
<g id="graph0" class="graph" transform="scale(1 1) rotate(0) translate(4 200)">
<title>threadSharedListHandler.h</title>
<!-- Node1 -->
<g id="node1" class="node">
<title>Node1</title>
<g id="a_node1"><a xlink:title=" ">
<polygon fill="#bfbfbf" stroke="black" points="190.5,-174.5 190.5,-195.5 365.5,-195.5 365.5,-174.5 190.5,-174.5"/>
<text text-anchor="middle" x="278" y="-181.9" font-family="Helvetica,sans-Serif" font-size="12.00">threadSharedListHandler.h</text>
</a>
</g>
</g>
<!-- Node2 -->
<g id="node2" class="node">
<title>Node2</title>
<g id="a_node2"><a xlink:href="markov_passwords_8h.html" target="_top" xlink:title=" ">
<polygon fill="none" stroke="black" points="121,-116.5 121,-137.5 255,-137.5 255,-116.5 121,-116.5"/>
<text text-anchor="middle" x="188" y="-123.9" font-family="Helvetica,sans-Serif" font-size="12.00">markovPasswords.h</text>
</a>
</g>
</g>
<!-- Node1&#45;&gt;Node2 -->
<g id="edge1" class="edge">
<title>Node1&#45;&gt;Node2</title>
<path fill="none" stroke="midnightblue" d="M253.52,-168.77C237.57,-158.85 217.25,-146.2 203.5,-137.64"/>
<polygon fill="midnightblue" stroke="midnightblue" points="251.98,-171.93 262.32,-174.25 255.68,-165.99 251.98,-171.93"/>
</g>
<!-- Node8 -->
<g id="node8" class="node">
<title>Node8</title>
<g id="a_node8"><a xlink:href="thread_shared_list_handler_8cpp.html" target="_top" xlink:title=" ">
<polygon fill="none" stroke="black" points="273.5,-116.5 273.5,-137.5 462.5,-137.5 462.5,-116.5 273.5,-116.5"/>
<text text-anchor="middle" x="368" y="-123.9" font-family="Helvetica,sans-Serif" font-size="12.00">threadSharedListHandler.cpp</text>
</a>
</g>
</g>
<!-- Node1&#45;&gt;Node8 -->
<g id="edge8" class="edge">
<title>Node1&#45;&gt;Node8</title>
<path fill="none" stroke="midnightblue" d="M302.48,-168.77C318.43,-158.85 338.75,-146.2 352.5,-137.64"/>
<polygon fill="midnightblue" stroke="midnightblue" points="300.32,-165.99 293.68,-174.25 304.02,-171.93 300.32,-165.99"/>
</g>
<!-- Node3 -->
<g id="node3" class="node">
<title>Node3</title>
<g id="a_node3"><a xlink:href="src_2main_8cpp.html" target="_top" xlink:title=" ">
<polygon fill="none" stroke="black" points="0,-0.5 0,-21.5 72,-21.5 72,-0.5 0,-0.5"/>
<text text-anchor="middle" x="36" y="-7.9" font-family="Helvetica,sans-Serif" font-size="12.00">main.cpp</text>
</a>
</g>
</g>
<!-- Node2&#45;&gt;Node3 -->
<g id="edge2" class="edge">
<title>Node2&#45;&gt;Node3</title>
<path fill="none" stroke="midnightblue" d="M114.09,-113.54C92.94,-106.74 71.45,-96.23 56,-80 40.56,-63.78 36.96,-36.25 36.18,-21.69"/>
<polygon fill="midnightblue" stroke="midnightblue" points="113.18,-116.92 123.76,-116.41 115.17,-110.21 113.18,-116.92"/>
</g>
<!-- Node4 -->
<g id="node4" class="node">
<title>Node4</title>
<g id="a_node4"><a xlink:href="model_matrix_8h.html" target="_top" xlink:title=" ">
<polygon fill="none" stroke="black" points="64.5,-58.5 64.5,-79.5 167.5,-79.5 167.5,-58.5 64.5,-58.5"/>
<text text-anchor="middle" x="116" y="-65.9" font-family="Helvetica,sans-Serif" font-size="12.00">modelMatrix.h</text>
</a>
</g>
</g>
<!-- Node2&#45;&gt;Node4 -->
<g id="edge3" class="edge">
<title>Node2&#45;&gt;Node4</title>
<path fill="none" stroke="midnightblue" d="M167.34,-109.93C154.75,-100.14 139.09,-87.96 128.4,-79.64"/>
<polygon fill="midnightblue" stroke="midnightblue" points="165.42,-112.87 175.46,-116.25 169.71,-107.34 165.42,-112.87"/>
</g>
<!-- Node6 -->
<g id="node6" class="node">
<title>Node6</title>
<g id="a_node6"><a xlink:href="markov_passwords_8cpp.html" target="_top" xlink:title=" ">
<polygon fill="none" stroke="black" points="185.5,-58.5 185.5,-79.5 334.5,-79.5 334.5,-58.5 185.5,-58.5"/>
<text text-anchor="middle" x="260" y="-65.9" font-family="Helvetica,sans-Serif" font-size="12.00">markovPasswords.cpp</text>
</a>
</g>
</g>
<!-- Node2&#45;&gt;Node6 -->
<g id="edge6" class="edge">
<title>Node2&#45;&gt;Node6</title>
<path fill="none" stroke="midnightblue" d="M208.66,-109.93C221.25,-100.14 236.91,-87.96 247.6,-79.64"/>
<polygon fill="midnightblue" stroke="midnightblue" points="206.29,-107.34 200.54,-116.25 210.58,-112.87 206.29,-107.34"/>
</g>
<!-- Node7 -->
<g id="node7" class="node">
<title>Node7</title>
<g id="a_node7"><a xlink:href="markopy_8cpp.html" target="_top" xlink:title=" ">
<polygon fill="none" stroke="black" points="353,-58.5 353,-79.5 447,-79.5 447,-58.5 353,-58.5"/>
<text text-anchor="middle" x="400" y="-65.9" font-family="Helvetica,sans-Serif" font-size="12.00">markopy.cpp</text>
</a>
</g>
</g>
<!-- Node2&#45;&gt;Node7 -->
<g id="edge7" class="edge">
<title>Node2&#45;&gt;Node7</title>
<path fill="none" stroke="midnightblue" d="M234.49,-113.72C273.47,-103.42 328.34,-88.93 364.03,-79.5"/>
<polygon fill="midnightblue" stroke="midnightblue" points="233.22,-110.44 224.44,-116.37 235.01,-117.2 233.22,-110.44"/>
</g>
<!-- Node4&#45;&gt;Node3 -->
<g id="edge4" class="edge">
<title>Node4&#45;&gt;Node3</title>
<path fill="none" stroke="midnightblue" d="M93.84,-52.49C79.73,-42.61 61.88,-30.12 49.78,-21.64"/>
<polygon fill="midnightblue" stroke="midnightblue" points="91.87,-55.38 102.07,-58.25 95.88,-49.64 91.87,-55.38"/>
</g>
<!-- Node5 -->
<g id="node5" class="node">
<title>Node5</title>
<g id="a_node5"><a xlink:href="model_matrix_8cpp.html" target="_top" xlink:title=" ">
<polygon fill="none" stroke="black" points="90.5,-0.5 90.5,-21.5 207.5,-21.5 207.5,-0.5 90.5,-0.5"/>
<text text-anchor="middle" x="149" y="-7.9" font-family="Helvetica,sans-Serif" font-size="12.00">modelMatrix.cpp</text>
</a>
</g>
</g>
<!-- Node4&#45;&gt;Node5 -->
<g id="edge5" class="edge">
<title>Node4&#45;&gt;Node5</title>
<path fill="none" stroke="midnightblue" d="M126.83,-49.63C132.33,-40.29 138.79,-29.32 143.32,-21.64"/>
<polygon fill="midnightblue" stroke="midnightblue" points="123.81,-47.85 121.75,-58.25 129.84,-51.41 123.81,-47.85"/>
</g>
</g>
</svg>
