<?xml version="1.0" encoding="UTF-8" standalone="no"?>
<!DOCTYPE svg PUBLIC "-//W3C//DTD SVG 1.1//EN"
 "http://www.w3.org/Graphics/SVG/1.1/DTD/svg11.dtd">
<!-- Generated by graphviz version 2.43.0 (0)
 -->
<!-- Title: Markopy/MarkovAPI/src/threadSharedListHandler.h Pages: 1 -->
<!--zoomable 327 -->
<svg id="main" version="1.1" xmlns="http://www.w3.org/2000/svg" xmlns:xlink="http://www.w3.org/1999/xlink" xml:space="preserve" onload="init(evt)">
<style type="text/css"><![CDATA[
.edge:hover path { stroke: red; }
.edge:hover polygon { stroke: red; fill: red; }
]]></style>
<script type="text/javascript"><![CDATA[
var edges = document.getElementsByTagName('g');
if (edges && edges.length) {
  for (var i=0;i<edges.length;i++) {
    if (edges[i].id.substr(0,4)=='edge') {
      edges[i].setAttribute('class','edge');
    }
  }
}
]]></script>
        <defs>
                <circle id="rim" cx="0" cy="0" r="7"/>
                <circle id="rim2" cx="0" cy="0" r="3.5"/>
                <g id="zoomPlus">
                        <use xlink:href="#rim" fill="#404040">
                                <set attributeName="fill" to="#808080" begin="zoomplus.mouseover" end="zoomplus.mouseout"/>
                        </use>
                        <path d="M-4,0h8M0,-4v8" fill="none" stroke="white" stroke-width="1.5" pointer-events="none"/>
                </g>
                <g id="zoomMin">
                        <use xlink:href="#rim" fill="#404040">
                                <set attributeName="fill" to="#808080" begin="zoomminus.mouseover" end="zoomminus.mouseout"/>
                        </use>
                        <path d="M-4,0h8" fill="none" stroke="white" stroke-width="1.5" pointer-events="none"/>
                </g>
                <g id="dirArrow">
                        <path fill="none" stroke="white" stroke-width="1.5" d="M0,-3.0v7 M-2.5,-0.5L0,-3.0L2.5,-0.5"/>
                </g>
               <g id="resetDef">
                       <use xlink:href="#rim2" fill="#404040">
                               <set attributeName="fill" to="#808080" begin="reset.mouseover" end="reset.mouseout"/>
                       </use>
               </g>
        </defs>

<script type="text/javascript">
var viewWidth = 931;
var viewHeight = 327;
var sectionId = 'dynsection-1';
</script>
<script xlink:href="svgpan.js"/>
<svg id="graph" class="graph">
<g id="viewport">
<title>Markopy/MarkovAPI/src/threadSharedListHandler.h</title>
<!-- Node1 -->
<g id="node1" class="node">
<title>Node1</title>
<g id="a_node1"><a xlink:title="Thread&#45;safe wrapper for std::ifstream.">
<polygon fill="#bfbfbf" stroke="black" points="299,-284.5 299,-318.5 478,-318.5 478,-284.5 299,-284.5"/>
<text text-anchor="start" x="307" y="-304.9" font-family="Helvetica,sans-Serif" font-size="12.00">Markopy/MarkovAPI/src</text>
<text text-anchor="middle" x="388.5" y="-291.9" font-family="Helvetica,sans-Serif" font-size="12.00">/threadSharedListHandler.h</text>
</a>
</g>
</g>
<!-- Node2 -->
<g id="node2" class="node">
<title>Node2</title>
<g id="a_node2"><a xlink:href="markov_passwords_8h.html" target="_top" xlink:title="Wrapper for Markov::Model to use with char represented models.">
<polygon fill="none" stroke="black" points="214,-213.5 214,-247.5 371,-247.5 371,-213.5 214,-213.5"/>
<text text-anchor="start" x="222" y="-233.9" font-family="Helvetica,sans-Serif" font-size="12.00">Markopy/MarkovAPI/src</text>
<text text-anchor="middle" x="292.5" y="-220.9" font-family="Helvetica,sans-Serif" font-size="12.00">/markovPasswords.h</text>
</a>
</g>
</g>
<!-- Node1&#45;&gt;Node2 -->
<g id="edge1" class="edge">
<title>Node1&#45;&gt;Node2</title>
<path fill="none" stroke="midnightblue" d="M357.9,-278.51C343.97,-268.49 327.77,-256.85 314.98,-247.66"/>
<polygon fill="midnightblue" stroke="midnightblue" points="356.07,-281.5 366.23,-284.5 360.16,-275.82 356.07,-281.5"/>
</g>
<!-- Node14 -->
<g id="node14" class="node">
<title>Node14</title>
<g id="a_node14"><a xlink:href="thread_shared_list_handler_8cpp.html" target="_top" xlink:title="Thread&#45;safe wrapper for std::ifstream.">
<polygon fill="none" stroke="black" points="389,-213.5 389,-247.5 582,-247.5 582,-213.5 389,-213.5"/>
<text text-anchor="start" x="397" y="-233.9" font-family="Helvetica,sans-Serif" font-size="12.00">Markopy/MarkovAPI/src</text>
<text text-anchor="middle" x="485.5" y="-220.9" font-family="Helvetica,sans-Serif" font-size="12.00">/threadSharedListHandler.cpp</text>
</a>
</g>
</g>
<!-- Node1&#45;&gt;Node14 -->
<g id="edge14" class="edge">
<title>Node1&#45;&gt;Node14</title>
<path fill="none" stroke="midnightblue" d="M419.42,-278.51C433.5,-268.49 449.87,-256.85 462.79,-247.66"/>
<polygon fill="midnightblue" stroke="midnightblue" points="417.12,-275.85 411,-284.5 421.18,-281.55 417.12,-275.85"/>
</g>
<!-- Node3 -->
<g id="node3" class="node">
<title>Node3</title>
<g id="a_node3"><a xlink:href="markov_passwords_8cpp.html" target="_top" xlink:title="Wrapper for Markov::Model to use with char represented models.">
<polygon fill="none" stroke="black" points="0,-142.5 0,-176.5 157,-176.5 157,-142.5 0,-142.5"/>
<text text-anchor="start" x="8" y="-162.9" font-family="Helvetica,sans-Serif" font-size="12.00">Markopy/MarkovAPI/src</text>
<text text-anchor="middle" x="78.5" y="-149.9" font-family="Helvetica,sans-Serif" font-size="12.00">/markovPasswords.cpp</text>
</a>
</g>
</g>
<!-- Node2&#45;&gt;Node3 -->
<g id="edge2" class="edge">
<title>Node2&#45;&gt;Node3</title>
<path fill="none" stroke="midnightblue" d="M233.32,-210.42C200.29,-199.77 159.61,-186.65 128.23,-176.54"/>
<polygon fill="midnightblue" stroke="midnightblue" points="232.27,-213.76 242.87,-213.5 234.42,-207.1 232.27,-213.76"/>
</g>
<!-- Node4 -->
<g id="node4" class="node">
<title>Node4</title>
<g id="a_node4"><a xlink:href="model_matrix_8h.html" target="_top" xlink:title="An extension of Markov::API::MarkovPasswords.">
<polygon fill="none" stroke="black" points="214,-142.5 214,-176.5 371,-176.5 371,-142.5 214,-142.5"/>
<text text-anchor="start" x="222" y="-162.9" font-family="Helvetica,sans-Serif" font-size="12.00">Markopy/MarkovAPI/src</text>
<text text-anchor="middle" x="292.5" y="-149.9" font-family="Helvetica,sans-Serif" font-size="12.00">/modelMatrix.h</text>
</a>
</g>
</g>
<!-- Node2&#45;&gt;Node4 -->
<g id="edge3" class="edge">
<title>Node2&#45;&gt;Node4</title>
<path fill="none" stroke="midnightblue" d="M292.5,-203.25C292.5,-194.39 292.5,-184.77 292.5,-176.9"/>
<polygon fill="midnightblue" stroke="midnightblue" points="289,-203.5 292.5,-213.5 296,-203.5 289,-203.5"/>
</g>
<!-- Node6 -->
<g id="node6" class="node">
<title>Node6</title>
<g id="a_node6"><a xlink:href="_markov_a_p_i_c_l_i_2src_2main_8cpp.html" target="_top" xlink:title="Test cases for Markov::API::ModelMatrix.">
<polygon fill="none" stroke="black" points="41,-71.5 41,-105.5 196,-105.5 196,-71.5 41,-71.5"/>
<text text-anchor="start" x="49" y="-91.9" font-family="Helvetica,sans-Serif" font-size="12.00">Markopy/MarkovAPICLI</text>
<text text-anchor="middle" x="118.5" y="-78.9" font-family="Helvetica,sans-Serif" font-size="12.00">/src/main.cpp</text>
</a>
</g>
</g>
<!-- Node2&#45;&gt;Node6 -->
<g id="edge11" class="edge">
<title>Node2&#45;&gt;Node6</title>
<path fill="none" stroke="midnightblue" d="M252.24,-208.38C236.74,-199.51 219.23,-188.58 204.5,-177 176.36,-154.89 148.12,-124.12 132.03,-105.57"/>
<polygon fill="midnightblue" stroke="midnightblue" points="250.67,-211.51 261.1,-213.35 254.09,-205.4 250.67,-211.51"/>
</g>
<!-- Node12 -->
<g id="node12" class="node">
<title>Node12</title>
<g id="a_node12"><a xlink:href="_generate_8cpp.html" target="_top" xlink:title="Generation Page.">
<polygon fill="none" stroke="black" points="389,-142.5 389,-176.5 588,-176.5 588,-142.5 389,-142.5"/>
<text text-anchor="start" x="397" y="-162.9" font-family="Helvetica,sans-Serif" font-size="12.00">Markopy/MarkovPasswordsGUI</text>
<text text-anchor="middle" x="488.5" y="-149.9" font-family="Helvetica,sans-Serif" font-size="12.00">/src/Generate.cpp</text>
</a>
</g>
</g>
<!-- Node2&#45;&gt;Node12 -->
<g id="edge12" class="edge">
<title>Node2&#45;&gt;Node12</title>
<path fill="none" stroke="midnightblue" d="M347.48,-210.15C377.59,-199.55 414.46,-186.57 442.95,-176.54"/>
<polygon fill="midnightblue" stroke="midnightblue" points="346.23,-206.87 337.96,-213.5 348.55,-213.48 346.23,-206.87"/>
</g>
<!-- Node13 -->
<g id="node13" class="node">
<title>Node13</title>
<g id="a_node13"><a xlink:href="_train_8cpp.html" target="_top" xlink:title="training page for GUI">
<polygon fill="none" stroke="black" points="606,-142.5 606,-176.5 805,-176.5 805,-142.5 606,-142.5"/>
<text text-anchor="start" x="614" y="-162.9" font-family="Helvetica,sans-Serif" font-size="12.00">Markopy/MarkovPasswordsGUI</text>
<text text-anchor="middle" x="705.5" y="-149.9" font-family="Helvetica,sans-Serif" font-size="12.00">/src/Train.cpp</text>
</a>
</g>
</g>
<!-- Node2&#45;&gt;Node13 -->
<g id="edge13" class="edge">
<title>Node2&#45;&gt;Node13</title>
<path fill="none" stroke="midnightblue" d="M381.07,-212.75C461.99,-198.64 543.78,-185.53 605.87,-175.81"/>
<polygon fill="midnightblue" stroke="midnightblue" points="380.45,-209.3 371.2,-214.47 381.66,-216.2 380.45,-209.3"/>
</g>
<!-- Node5 -->
<g id="node5" class="node">
<title>Node5</title>
<g id="a_node5"><a xlink:href="model_matrix_8cpp.html" target="_top" xlink:title="An extension of Markov::API::MarkovPasswords.">
<polygon fill="none" stroke="black" points="214,-71.5 214,-105.5 371,-105.5 371,-71.5 214,-71.5"/>
<text text-anchor="start" x="222" y="-91.9" font-family="Helvetica,sans-Serif" font-size="12.00">Markopy/MarkovAPI/src</text>
<text text-anchor="middle" x="292.5" y="-78.9" font-family="Helvetica,sans-Serif" font-size="12.00">/modelMatrix.cpp</text>
</a>
</g>
</g>
<!-- Node4&#45;&gt;Node5 -->
<g id="edge4" class="edge">
<title>Node4&#45;&gt;Node5</title>
<path fill="none" stroke="midnightblue" d="M292.5,-132.25C292.5,-123.39 292.5,-113.77 292.5,-105.9"/>
<polygon fill="midnightblue" stroke="midnightblue" points="289,-132.5 292.5,-142.5 296,-132.5 289,-132.5"/>
</g>
<!-- Node4&#45;&gt;Node6 -->
<g id="edge5" class="edge">
<title>Node4&#45;&gt;Node6</title>
<path fill="none" stroke="midnightblue" d="M242.65,-138.73C216.11,-128.21 183.9,-115.43 158.94,-105.54"/>
<polygon fill="midnightblue" stroke="midnightblue" points="241.56,-142.06 252.14,-142.5 244.14,-135.56 241.56,-142.06"/>
</g>
<!-- Node7 -->
<g id="node7" class="node">
<title>Node7</title>
<g id="a_node7"><a xlink:href="markopy_8cpp.html" target="_top" xlink:title="CPython wrapper for libmarkov utils.">
<polygon fill="none" stroke="black" points="389,-71.5 389,-105.5 534,-105.5 534,-71.5 389,-71.5"/>
<text text-anchor="start" x="397" y="-91.9" font-family="Helvetica,sans-Serif" font-size="12.00">Markopy/Markopy/src</text>
<text text-anchor="middle" x="461.5" y="-78.9" font-family="Helvetica,sans-Serif" font-size="12.00">/Module/markopy.cpp</text>
</a>
</g>
</g>
<!-- Node4&#45;&gt;Node7 -->
<g id="edge6" class="edge">
<title>Node4&#45;&gt;Node7</title>
<path fill="none" stroke="midnightblue" d="M341.26,-138.59C366.97,-128.1 398.08,-115.39 422.22,-105.54"/>
<polygon fill="midnightblue" stroke="midnightblue" points="339.63,-135.48 331.7,-142.5 342.28,-141.96 339.63,-135.48"/>
</g>
<!-- Node8 -->
<g id="node8" class="node">
<title>Node8</title>
<g id="a_node8"><a xlink:href="cuda_model_matrix_8h.html" target="_top" xlink:title="CUDA accelerated extension of Markov::API::ModelMatrix.">
<polygon fill="none" stroke="black" points="552,-71.5 552,-105.5 719,-105.5 719,-71.5 552,-71.5"/>
<text text-anchor="start" x="560" y="-91.9" font-family="Helvetica,sans-Serif" font-size="12.00">Markopy/CudaMarkovAPI</text>
<text text-anchor="middle" x="635.5" y="-78.9" font-family="Helvetica,sans-Serif" font-size="12.00">/src/cudaModelMatrix.h</text>
</a>
</g>
</g>
<!-- Node4&#45;&gt;Node8 -->
<g id="edge7" class="edge">
<title>Node4&#45;&gt;Node8</title>
<path fill="none" stroke="midnightblue" d="M381.09,-140.68C435.04,-129.82 503.42,-116.07 555.69,-105.56"/>
<polygon fill="midnightblue" stroke="midnightblue" points="380.3,-137.27 371.19,-142.67 381.69,-144.13 380.3,-137.27"/>
</g>
<!-- Node9 -->
<g id="node9" class="node">
<title>Node9</title>
<g id="a_node9"><a xlink:href="cuda_model_matrix_8cu.html" target="_top" xlink:title="CUDA accelerated extension of Markov::API::ModelMatrix.">
<polygon fill="none" stroke="black" points="367,-0.5 367,-34.5 534,-34.5 534,-0.5 367,-0.5"/>
<text text-anchor="start" x="375" y="-20.9" font-family="Helvetica,sans-Serif" font-size="12.00">Markopy/CudaMarkovAPI</text>
<text text-anchor="middle" x="450.5" y="-7.9" font-family="Helvetica,sans-Serif" font-size="12.00">/src/cudaModelMatrix.cu</text>
</a>
</g>
</g>
<!-- Node8&#45;&gt;Node9 -->
<g id="edge8" class="edge">
<title>Node8&#45;&gt;Node9</title>
<path fill="none" stroke="midnightblue" d="M582.87,-67.87C554.58,-57.32 520.15,-44.48 493.5,-34.54"/>
<polygon fill="midnightblue" stroke="midnightblue" points="582,-71.28 592.59,-71.5 584.45,-64.72 582,-71.28"/>
</g>
<!-- Node10 -->
<g id="node10" class="node">
<title>Node10</title>
<g id="a_node10"><a xlink:href="main_8cu.html" target="_top" xlink:title="Simple test file to check libcudamarkov.">
<polygon fill="none" stroke="black" points="552,-0.5 552,-34.5 719,-34.5 719,-0.5 552,-0.5"/>
<text text-anchor="start" x="560" y="-20.9" font-family="Helvetica,sans-Serif" font-size="12.00">Markopy/CudaMarkovAPI</text>
<text text-anchor="middle" x="635.5" y="-7.9" font-family="Helvetica,sans-Serif" font-size="12.00">/src/main.cu</text>
</a>
</g>
</g>
<!-- Node8&#45;&gt;Node10 -->
<g id="edge9" class="edge">
<title>Node8&#45;&gt;Node10</title>
<path fill="none" stroke="midnightblue" d="M635.5,-61.25C635.5,-52.39 635.5,-42.77 635.5,-34.9"/>
<polygon fill="midnightblue" stroke="midnightblue" points="632,-61.5 635.5,-71.5 639,-61.5 632,-61.5"/>
</g>
<!-- Node11 -->
<g id="node11" class="node">
<title>Node11</title>
<g id="a_node11"><a xlink:href="cuda_markopy_8cu.html" target="_top" xlink:title=" ">
<polygon fill="none" stroke="black" points="736.5,-0.5 736.5,-34.5 922.5,-34.5 922.5,-0.5 736.5,-0.5"/>
<text text-anchor="start" x="744.5" y="-20.9" font-family="Helvetica,sans-Serif" font-size="12.00">Markopy/CudaMarkopy</text>
<text text-anchor="middle" x="829.5" y="-7.9" font-family="Helvetica,sans-Serif" font-size="12.00">/src/Module/cudaMarkopy.cu</text>
</a>
</g>
</g>
<!-- Node8&#45;&gt;Node11 -->
<g id="edge10" class="edge">
<title>Node8&#45;&gt;Node11</title>
<path fill="none" stroke="midnightblue" d="M689.92,-68.15C719.72,-57.55 756.22,-44.57 784.41,-34.54"/>
<polygon fill="midnightblue" stroke="midnightblue" points="688.74,-64.85 680.5,-71.5 691.09,-71.44 688.74,-64.85"/>
</g>
</g>
</svg>
        <g id="navigator" transform="translate(0 0)" fill="#404254">
                <rect fill="#f2f5e9" fill-opacity="0.5" stroke="#606060" stroke-width=".5" x="0" y="0" width="60" height="60"/>
                <use id="zoomplus" xlink:href="#zoomPlus" x="17" y="9" onmousedown="handleZoom(evt,'in')"/>
                <use id="zoomminus" xlink:href="#zoomMin" x="42" y="9" onmousedown="handleZoom(evt,'out')"/>
                <use id="reset" xlink:href="#resetDef" x="30" y="36" onmousedown="handleReset()"/>
                <g id="arrowUp" xlink:href="#dirArrow" transform="translate(30 24)" onmousedown="handlePan(0,-1)">
                  <use xlink:href="#rim" fill="#404040">
                        <set attributeName="fill" to="#808080" begin="arrowUp.mouseover" end="arrowUp.mouseout"/>
                  </use>
                  <path fill="none" stroke="white" stroke-width="1.5" d="M0,-3.0v7 M-2.5,-0.5L0,-3.0L2.5,-0.5"/>
                </g>
                <g id="arrowRight" xlink:href="#dirArrow" transform="rotate(90) translate(36 -43)" onmousedown="handlePan(1,0)">
                  <use xlink:href="#rim" fill="#404040">
                        <set attributeName="fill" to="#808080" begin="arrowRight.mouseover" end="arrowRight.mouseout"/>
                  </use>
                  <path fill="none" stroke="white" stroke-width="1.5" d="M0,-3.0v7 M-2.5,-0.5L0,-3.0L2.5,-0.5"/>
                </g>
                <g id="arrowDown" xlink:href="#dirArrow" transform="rotate(180) translate(-30 -48)" onmousedown="handlePan(0,1)">
                  <use xlink:href="#rim" fill="#404040">
                        <set attributeName="fill" to="#808080" begin="arrowDown.mouseover" end="arrowDown.mouseout"/>
                  </use>
                  <path fill="none" stroke="white" stroke-width="1.5" d="M0,-3.0v7 M-2.5,-0.5L0,-3.0L2.5,-0.5"/>
                </g>
                <g id="arrowLeft" xlink:href="#dirArrow" transform="rotate(270) translate(-36 17)" onmousedown="handlePan(-1,0)">
                  <use xlink:href="#rim" fill="#404040">
                        <set attributeName="fill" to="#808080" begin="arrowLeft.mouseover" end="arrowLeft.mouseout"/>
                  </use>
                  <path fill="none" stroke="white" stroke-width="1.5" d="M0,-3.0v7 M-2.5,-0.5L0,-3.0L2.5,-0.5"/>
                </g>
        </g>
        <svg viewBox="0 0 15 15" width="100%" height="30px" preserveAspectRatio="xMaxYMin meet">
         <g id="arrow_out" transform="scale(0.3 0.3)">
          <a xlink:href="thread_shared_list_handler_8h__dep__incl_org.svg" target="_base">
           <rect id="button" ry="5" rx="5" y="6" x="6" height="38" width="38"
                fill="#f2f5e9" fill-opacity="0.5" stroke="#606060" stroke-width="1.0"/>
           <path id="arrow"
             d="M 11.500037,31.436501 C 11.940474,20.09759 22.043105,11.32322 32.158766,21.979434 L 37.068811,17.246167 C 37.068811,17.246167 37.088388,32 37.088388,32 L 22.160133,31.978069 C 22.160133,31.978069 26.997745,27.140456 26.997745,27.140456 C 18.528582,18.264221 13.291696,25.230495 11.500037,31.436501 z"
             style="fill:#404040;"/>
          </a>
         </g>
        </svg>
</svg>
