<?xml version="1.0" encoding="UTF-8" standalone="no"?>
<!DOCTYPE svg PUBLIC "-//W3C//DTD SVG 1.1//EN"
 "http://www.w3.org/Graphics/SVG/1.1/DTD/svg11.dtd">
<!-- Generated by graphviz version 2.43.0 (0)
 -->
<!-- Title: Markopy/MarkovAPI/src/threadSharedListHandler.h Pages: 1 -->
<svg width="213pt" height="101pt"
 viewBox="0.00 0.00 212.50 101.00" xmlns="http://www.w3.org/2000/svg" xmlns:xlink="http://www.w3.org/1999/xlink">
<g id="graph0" class="graph" transform="scale(1 1) rotate(0) translate(4 97)">
<title>Markopy/MarkovAPI/src/threadSharedListHandler.h</title>
<!-- Node1 -->
<g id="node1" class="node">
<title>Node1</title>
<g id="a_node1"><a xlink:title="Thread&#45;safe wrapper for std::ifstream.">
<polygon fill="#bfbfbf" stroke="black" points="10.5,-58.5 10.5,-92.5 189.5,-92.5 189.5,-58.5 10.5,-58.5"/>
<text text-anchor="start" x="18.5" y="-78.9" font-family="Helvetica,sans-Serif" font-size="12.00">Markopy/MarkovAPI/src</text>
<text text-anchor="middle" x="100" y="-65.9" font-family="Helvetica,sans-Serif" font-size="12.00">/threadSharedListHandler.h</text>
</a>
</g>
</g>
<!-- Node2 -->
<g id="node2" class="node">
<title>Node2</title>
<g id="a_node2"><a xlink:title=" ">
<polygon fill="none" stroke="#bfbfbf" points="0,-0.5 0,-21.5 50,-21.5 50,-0.5 0,-0.5"/>
<text text-anchor="middle" x="25" y="-7.9" font-family="Helvetica,sans-Serif" font-size="12.00">string</text>
</a>
</g>
</g>
<!-- Node1&#45;&gt;Node2 -->
<g id="edge1" class="edge">
<title>Node1&#45;&gt;Node2</title>
<path fill="none" stroke="midnightblue" d="M80.69,-58.4C69.62,-49.18 55.76,-37.63 44.64,-28.37"/>
<polygon fill="midnightblue" stroke="midnightblue" points="46.68,-25.51 36.76,-21.8 42.2,-30.89 46.68,-25.51"/>
</g>
<!-- Node3 -->
<g id="node3" class="node">
<title>Node3</title>
<g id="a_node3"><a xlink:title=" ">
<polygon fill="none" stroke="#bfbfbf" points="68.5,-0.5 68.5,-21.5 131.5,-21.5 131.5,-0.5 68.5,-0.5"/>
<text text-anchor="middle" x="100" y="-7.9" font-family="Helvetica,sans-Serif" font-size="12.00">fstream</text>
</a>
</g>
</g>
<!-- Node1&#45;&gt;Node3 -->
<g id="edge2" class="edge">
<title>Node1&#45;&gt;Node3</title>
<path fill="none" stroke="midnightblue" d="M100,-58.4C100,-50.36 100,-40.54 100,-32.01"/>
<polygon fill="midnightblue" stroke="midnightblue" points="103.5,-31.8 100,-21.8 96.5,-31.8 103.5,-31.8"/>
</g>
<!-- Node4 -->
<g id="node4" class="node">
<title>Node4</title>
<g id="a_node4"><a xlink:title=" ">
<polygon fill="none" stroke="#bfbfbf" points="149.5,-0.5 149.5,-21.5 204.5,-21.5 204.5,-0.5 149.5,-0.5"/>
<text text-anchor="middle" x="177" y="-7.9" font-family="Helvetica,sans-Serif" font-size="12.00">mutex</text>
</a>
</g>
</g>
<!-- Node1&#45;&gt;Node4 -->
<g id="edge3" class="edge">
<title>Node1&#45;&gt;Node4</title>
<path fill="none" stroke="midnightblue" d="M119.83,-58.4C131.19,-49.18 145.42,-37.63 156.84,-28.37"/>
<polygon fill="midnightblue" stroke="midnightblue" points="159.37,-30.82 164.93,-21.8 154.96,-25.38 159.37,-30.82"/>
</g>
</g>
</svg>
