<?xml version="1.0" encoding="UTF-8" standalone="no"?>
<!DOCTYPE svg PUBLIC "-//W3C//DTD SVG 1.1//EN"
 "http://www.w3.org/Graphics/SVG/1.1/DTD/svg11.dtd">
<!-- Generated by graphviz version 2.43.0 (0)
 -->
<!-- Title: threadSharedListHandler.cpp Pages: 1 -->
<svg width="213pt" height="146pt"
 viewBox="0.00 0.00 212.50 146.00" xmlns="http://www.w3.org/2000/svg" xmlns:xlink="http://www.w3.org/1999/xlink">
<g id="graph0" class="graph" transform="scale(1 1) rotate(0) translate(4 142)">
<title>threadSharedListHandler.cpp</title>
<!-- Node1 -->
<g id="node1" class="node">
<title>Node1</title>
<g id="a_node1"><a xlink:title="Thread&#45;safe wrapper for std::ifstream.">
<polygon fill="#bfbfbf" stroke="black" points="5.5,-116.5 5.5,-137.5 194.5,-137.5 194.5,-116.5 5.5,-116.5"/>
<text text-anchor="middle" x="100" y="-123.9" font-family="Helvetica,sans-Serif" font-size="12.00">threadSharedListHandler.cpp</text>
</a>
</g>
</g>
<!-- Node2 -->
<g id="node2" class="node">
<title>Node2</title>
<g id="a_node2"><a xlink:href="thread_shared_list_handler_8h.html" target="_top" xlink:title="Thread&#45;safe wrapper for std::ifstream.">
<polygon fill="none" stroke="black" points="12.5,-58.5 12.5,-79.5 187.5,-79.5 187.5,-58.5 12.5,-58.5"/>
<text text-anchor="middle" x="100" y="-65.9" font-family="Helvetica,sans-Serif" font-size="12.00">threadSharedListHandler.h</text>
</a>
</g>
</g>
<!-- Node1&#45;&gt;Node2 -->
<g id="edge1" class="edge">
<title>Node1&#45;&gt;Node2</title>
<path fill="none" stroke="midnightblue" d="M100,-116.25C100,-108.94 100,-98.69 100,-89.7"/>
<polygon fill="midnightblue" stroke="midnightblue" points="103.5,-89.64 100,-79.64 96.5,-89.64 103.5,-89.64"/>
</g>
<!-- Node3 -->
<g id="node3" class="node">
<title>Node3</title>
<g id="a_node3"><a xlink:title=" ">
<polygon fill="none" stroke="#bfbfbf" points="0,-0.5 0,-21.5 50,-21.5 50,-0.5 0,-0.5"/>
<text text-anchor="middle" x="25" y="-7.9" font-family="Helvetica,sans-Serif" font-size="12.00">string</text>
</a>
</g>
</g>
<!-- Node2&#45;&gt;Node3 -->
<g id="edge2" class="edge">
<title>Node2&#45;&gt;Node3</title>
<path fill="none" stroke="midnightblue" d="M86.94,-58.25C75.64,-49.81 59.12,-37.47 45.97,-27.66"/>
<polygon fill="midnightblue" stroke="midnightblue" points="48.02,-24.82 37.91,-21.64 43.83,-30.43 48.02,-24.82"/>
</g>
<!-- Node4 -->
<g id="node4" class="node">
<title>Node4</title>
<g id="a_node4"><a xlink:title=" ">
<polygon fill="none" stroke="#bfbfbf" points="68.5,-0.5 68.5,-21.5 131.5,-21.5 131.5,-0.5 68.5,-0.5"/>
<text text-anchor="middle" x="100" y="-7.9" font-family="Helvetica,sans-Serif" font-size="12.00">fstream</text>
</a>
</g>
</g>
<!-- Node2&#45;&gt;Node4 -->
<g id="edge3" class="edge">
<title>Node2&#45;&gt;Node4</title>
<path fill="none" stroke="midnightblue" d="M100,-58.25C100,-50.94 100,-40.69 100,-31.7"/>
<polygon fill="midnightblue" stroke="midnightblue" points="103.5,-31.64 100,-21.64 96.5,-31.64 103.5,-31.64"/>
</g>
<!-- Node5 -->
<g id="node5" class="node">
<title>Node5</title>
<g id="a_node5"><a xlink:title=" ">
<polygon fill="none" stroke="#bfbfbf" points="149.5,-0.5 149.5,-21.5 204.5,-21.5 204.5,-0.5 149.5,-0.5"/>
<text text-anchor="middle" x="177" y="-7.9" font-family="Helvetica,sans-Serif" font-size="12.00">mutex</text>
</a>
</g>
</g>
<!-- Node2&#45;&gt;Node5 -->
<g id="edge4" class="edge">
<title>Node2&#45;&gt;Node5</title>
<path fill="none" stroke="midnightblue" d="M113.41,-58.25C125.01,-49.81 141.97,-37.47 155.47,-27.66"/>
<polygon fill="midnightblue" stroke="midnightblue" points="157.71,-30.36 163.74,-21.64 153.6,-24.69 157.71,-30.36"/>
</g>
</g>
</svg>
